<?xml version="1.0" standalone="no"?>
<!DOCTYPE svg PUBLIC "-//W3C//DTD SVG 1.1//EN" "http://www.w3.org/Graphics/SVG/1.1/DTD/svg11.dtd" >
<svg xmlns="http://www.w3.org/2000/svg" xmlns:xlink="http://www.w3.org/1999/xlink" version="1.1">
<metadata></metadata>
<defs>
<font id="aeonikbold" horiz-adv-x="507" >
<font-face units-per-em="2048" ascent="1638" descent="-410" />
<missing-glyph horiz-adv-x="500" />
<glyph unicode="&#xfb01;" horiz-adv-x="1222" d="M-6 809v244h174v92q0 139 80 214t237 75h203v-246h-145q-45 0 -66 -21q-20 -20 -20 -65v-49h665v-1053h-288v809h-377v-809h-289v809h-174zM813 1329q0 69 47 116q46 46 119 46t120 -46q48 -47 48 -116q0 -71 -48 -117q-49 -47 -120 -47q-72 0 -119 47t-47 117z" />
<glyph horiz-adv-x="0" />
<glyph horiz-adv-x="682" />
<glyph unicode=" " />
<glyph unicode="!" horiz-adv-x="591" d="M123 158q0 76 49 124q50 48 123 48q75 0 125 -48q49 -48 49 -124q0 -74 -49 -122q-50 -48 -125 -48q-73 0 -123 48q-49 48 -49 122zM141 1434h310l-43 -990h-220z" />
<glyph unicode="&#x22;" horiz-adv-x="845" d="M70 1303q0 63 40 102t111 39q74 0 113 -39t39 -100q0 -19 -2 -35l-60 -391h-180l-59 391q-2 16 -2 33zM473 1303q0 63 40 102q41 39 112 39q73 0 112 -39t39 -100q0 -19 -2 -35l-59 -391h-180l-60 391q-2 16 -2 33z" />
<glyph unicode="#" horiz-adv-x="1150" d="M47 289v239h176l27 185h-160v239h195l43 289h237l-45 -289h205l43 289h236l-43 -289h141v-239h-176l-27 -185h160v-239h-195l-43 -289h-237l45 289h-205l-43 -289h-236l43 289h-141zM459 528h205l26 185h-205z" />
<glyph unicode="$" horiz-adv-x="1280" d="M66 471l301 -4q7 -107 87 -171q80 -65 210 -65q107 0 177 47q68 46 68 128q0 56 -38 91q-36 33 -106 53q-71 20 -212 48q-143 27 -238 69t-156 125q-61 84 -61 220q0 162 116 280t304 146v217h254v-221q184 -34 299 -154q115 -119 119 -285h-301q-11 92 -78 149 q-66 56 -178 56q-103 0 -164 -43t-61 -123q0 -59 36 -89q38 -31 105 -51q61 -18 209 -46q143 -27 241 -67q100 -41 159 -121q61 -82 61 -216q0 -174 -124 -297q-124 -122 -323 -151v-215h-254v219q-201 34 -327 163q-123 126 -125 308z" />
<glyph unicode="%" horiz-adv-x="1912" d="M92 1092q0 101 49 181q50 81 134 127q85 46 192 46t192 -46q88 -48 135 -127q48 -81 48 -181q0 -101 -48 -182q-47 -79 -135 -127q-85 -46 -192 -46t-192 46q-84 46 -134 127q-49 80 -49 182zM324 0l983 1434h284l-983 -1434h-284zM326 1092q0 -64 41 -105t100 -41 q61 0 102 41t41 105q0 63 -41 104t-102 41q-59 0 -100 -41t-41 -104zM1071 342q0 100 48 181q47 80 134 127q85 46 193 46q106 0 191 -46q86 -47 135 -127t49 -181t-49 -181t-135 -127q-85 -46 -191 -46q-108 0 -193 46q-87 47 -134 127q-48 81 -48 181zM1303 342 q0 -64 40 -104q41 -41 103 -41q59 0 100 41t41 104q0 60 -41 103q-40 42 -100 42q-62 0 -103 -42q-40 -41 -40 -103z" />
<glyph unicode="&#x26;" horiz-adv-x="1646" d="M119 373q0 118 68 221q68 104 231 176q-67 84 -90 149q-23 66 -23 158q0 105 57 189q57 83 160 132q102 48 232 48q109 0 202 -44t146 -121t53 -173q0 -114 -72 -206q-71 -91 -254 -167l5 -4l227 -242l180 285h272l-301 -444l48 -49q23 -26 46 -34q20 -7 58 -7h145v-240 h-190q-88 0 -157 24q-70 24 -124 80l-24 25q-87 -71 -180 -106t-203 -35q-225 0 -369 99q-143 98 -143 286zM418 408q0 -96 62 -146q63 -51 169 -51q112 0 219 74l-321 342q-70 -44 -100 -97q-29 -51 -29 -122zM588 1085q0 -60 22 -101t78 -103q103 45 149 99q46 53 46 122 q0 63 -39 102t-101 39q-67 0 -111 -45q-44 -46 -44 -113z" />
<glyph unicode="'" horiz-adv-x="442" d="M70 1303q0 63 40 102t111 39q74 0 113 -39t39 -100q0 -19 -2 -35l-60 -391h-180l-59 391q-2 16 -2 33z" />
<glyph unicode="(" horiz-adv-x="688" d="M104 512q0 258 78 477q79 222 244 445h303q-185 -248 -264 -457q-76 -201 -76 -465q0 -257 77 -461q76 -202 263 -461h-303q-169 229 -245 447q-77 220 -77 475z" />
<glyph unicode=")" horiz-adv-x="688" d="M-23 -410q189 262 264 461q76 201 76 461q0 266 -75 465q-78 206 -265 457h304q163 -220 243 -445q78 -219 78 -477q0 -255 -77 -475t-244 -447h-304z" />
<glyph unicode="*" horiz-adv-x="888" d="M68 1126l79 181l207 -107l-8 234h195l-9 -236l207 107l82 -183l-235 -84l162 -178l-152 -129l-154 215l-151 -213l-152 129l164 178z" />
<glyph unicode="+" horiz-adv-x="1054" d="M86 461v244h309v327h262v-327h312v-244h-312v-330h-262v330h-309z" />
<glyph unicode="," d="M53 160q0 67 52 115q54 49 128 49q96 0 156 -75t60 -194q0 -169 -103 -260t-280 -92v150q94 1 144 41q50 39 50 98q0 18 -2 28q-32 -16 -65 -16q-60 0 -100 40t-40 116z" />
<glyph unicode="-" horiz-adv-x="880" d="M82 465v233h717v-233h-717z" />
<glyph unicode="." d="M80 158q0 76 49 124t125 48q75 0 124 -49q50 -50 50 -123q0 -74 -50 -122t-124 -48q-76 0 -125 48t-49 122z" />
<glyph unicode="/" horiz-adv-x="694" d="M-88 -410l600 1844h272l-602 -1844h-270z" />
<glyph unicode="0" horiz-adv-x="1323" d="M72 684v66q0 213 74 368q75 157 209 243q133 85 307 85q175 0 308 -85q134 -86 209 -243q74 -155 74 -368v-66q0 -218 -74 -372q-75 -156 -209 -240t-308 -84q-175 0 -308 84t-208 240q-74 154 -74 372zM367 694q0 -218 80 -337t215 -119q136 0 216 119t80 337v45 q0 218 -80 337q-81 120 -216 120q-134 0 -215 -120q-80 -119 -80 -337v-45z" />
<glyph unicode="1" horiz-adv-x="755" d="M16 905v244h215q54 0 81 42q28 44 28 103v140h289v-1434h-295v915q-26 -10 -78 -10h-240z" />
<glyph unicode="2" horiz-adv-x="1179" d="M57 928v39q0 133 65 245q64 110 183 173q118 63 275 63q252 0 390 -123t138 -330q0 -146 -73 -255q-70 -105 -224 -230l-322 -262h625v-248h-1051v227l543 451q104 83 154 153q49 68 49 152q0 104 -63 161q-62 56 -166 56q-100 0 -163 -67t-63 -183v-22h-297z" />
<glyph unicode="3" horiz-adv-x="1249" d="M66 477h292q2 -119 80 -188q79 -70 199 -70q105 0 173 55q69 56 69 150q0 85 -68 135q-67 49 -195 49h-141v236h125q119 0 183 52q65 53 65 140q0 84 -60 131q-61 47 -155 47q-105 0 -172 -57q-69 -58 -70 -156h-289q2 207 143 326q142 119 376 119q248 0 386 -105 t138 -278q0 -127 -77 -207q-78 -81 -204 -111q142 -33 228 -117q88 -85 88 -229q0 -123 -69 -216t-196 -144t-294 -51q-257 0 -406 130t-149 359z" />
<glyph unicode="4" horiz-adv-x="1282" d="M43 307v244l633 883h364v-881h199v-246h-199v-307h-288v307h-709zM324 553h428v594z" />
<glyph unicode="5" horiz-adv-x="1222" d="M76 461h293q12 -99 83 -166q70 -66 173 -66q100 0 173 67q72 66 72 189q0 115 -67 186q-67 72 -178 72q-78 0 -144 -33q-70 -35 -98 -116h-285l41 840h940v-248h-671l-17 -320q117 111 297 111q135 0 245 -63q109 -63 172 -174q62 -109 62 -255q0 -160 -72 -271 q-72 -112 -196 -169q-123 -57 -274 -57q-164 0 -285 62q-123 63 -190 170q-68 109 -74 241z" />
<glyph unicode="6" horiz-adv-x="1263" d="M72 702q0 238 71 404q72 168 205 255q134 87 314 87q204 0 346 -113t166 -305h-291q-21 87 -84 133q-64 47 -160 47q-140 0 -214 -107q-75 -108 -75 -306v-35l19 31q50 76 140 122t198 46q142 0 252 -62q109 -61 171 -171t62 -253t-67 -256q-66 -111 -188 -171 q-121 -60 -280 -60q-148 0 -263 58q-113 57 -191 167q-63 92 -98 217q-33 119 -33 272zM414 475q0 -112 66 -184t175 -72q108 0 176 73t68 183q0 113 -65 184q-66 72 -175 72q-108 0 -177 -72q-68 -71 -68 -184z" />
<glyph unicode="7" horiz-adv-x="1118" d="M23 1184v250h1050v-191l-631 -1243h-319l627 1184h-727z" />
<glyph unicode="8" horiz-adv-x="1245" d="M72 389q0 150 84 240t215 119q-112 30 -185 112t-73 209q0 113 60 199q61 87 176 133q117 47 274 47q156 0 273 -47q115 -46 176 -133t61 -199q0 -119 -75 -206q-74 -86 -184 -115q130 -27 215 -117q84 -88 84 -242q0 -119 -64 -210q-65 -92 -188 -141q-126 -50 -298 -50 t-298 50q-125 50 -189 141t-64 210zM365 408q0 -93 73 -153q74 -60 185 -60q109 0 182 60q74 60 74 153t-74 156q-73 63 -182 63q-111 0 -185 -63q-73 -63 -73 -156zM401 1055q0 -83 62 -136t160 -53q93 0 158 54q63 52 63 135q0 82 -63 133t-158 51q-99 0 -160 -51 q-62 -51 -62 -133z" />
<glyph unicode="9" horiz-adv-x="1263" d="M72 958q0 142 66 253q65 110 189 174q121 63 279 63q144 0 255 -54t188 -155q68 -90 106 -222q37 -129 37 -284q0 -355 -154 -551q-152 -194 -436 -194q-221 0 -357 109q-137 110 -161 309h289q22 -89 83 -134q64 -47 160 -47q143 0 219 109q74 107 74 305v37 q-31 -44 -32 -45q-50 -70 -135 -112q-81 -40 -185 -40q-143 0 -254 60t-171 168t-60 251zM365 963q0 -112 65 -183t174 -71t177 71q69 72 69 183q0 109 -67 182q-66 72 -175 72t-176 -72q-67 -71 -67 -182z" />
<glyph unicode=":" d="M80 158q0 76 49 124t125 48q75 0 124 -49q50 -50 50 -123q0 -74 -50 -122t-124 -48q-76 0 -125 48t-49 122zM80 870q0 76 49 124q50 48 125 48t124 -49q50 -50 50 -123t-50 -121q-51 -49 -124 -49q-74 0 -125 49q-49 48 -49 121z" />
<glyph unicode=";" d="M53 160q0 67 52 115q54 49 128 49q96 0 156 -75t60 -194q0 -169 -103 -260t-280 -92v150q94 1 144 41q50 39 50 98q0 18 -2 28q-32 -16 -65 -16q-60 0 -100 40t-40 116zM70 868q0 76 49 124t125 48q75 0 124 -49q50 -50 50 -123q0 -74 -50 -122t-124 -48q-76 0 -125 48 t-49 122z" />
<glyph unicode="&#x3c;" horiz-adv-x="1054" d="M123 446v271l809 336v-279l-488 -192l488 -193v-278z" />
<glyph unicode="=" horiz-adv-x="1054" d="M106 229v242h842v-242h-842zM106 670v243h842v-243h-842z" />
<glyph unicode="&#x3e;" horiz-adv-x="1054" d="M123 111v278l487 193l-487 192v279l809 -336v-271z" />
<glyph unicode="?" horiz-adv-x="1093" d="M45 948q0 137 60 251q59 112 176 180q116 67 272 67q151 0 259 -49q110 -50 169 -137t59 -201q0 -133 -54 -210q-55 -77 -159 -149q-95 -64 -130 -106q-38 -46 -38 -107v-26h-270v57q0 117 52 182q51 64 165 131q70 44 105 93q32 45 32 108q0 74 -51 120q-50 46 -137 46 q-98 0 -158 -69q-59 -68 -59 -181h-293zM362 154q0 70 49 117q47 46 121 46q75 0 122 -46q48 -47 48 -117q0 -73 -49 -119q-50 -47 -121 -47q-70 0 -120 47t-50 119z" />
<glyph unicode="@" horiz-adv-x="2009" d="M90 496q0 255 127 460q128 206 346 321q220 116 481 116q254 0 455 -96q197 -94 309 -265q111 -170 111 -387q0 -163 -66 -287q-66 -125 -179 -193q-114 -69 -255 -69q-89 0 -148 45q-58 45 -73 117l-6 27q-40 -84 -125 -135q-86 -52 -184 -52q-89 0 -169 47 q-78 46 -126 137q-47 89 -47 210q0 130 54 238q53 106 147 170q93 63 210 63q101 0 164 -39q62 -39 78 -93l37 117h231l-65 -571l-2 -27q0 -47 20 -67q21 -21 64 -21q57 0 109 51q51 50 85 142q33 90 33 200q0 171 -81 298q-83 130 -232 198q-154 70 -355 70 q-197 0 -369 -96q-168 -94 -268 -260q-98 -163 -98 -365q0 -310 192 -476q193 -167 535 -167q245 0 449 104l-9 -186q-77 -46 -198 -72q-123 -27 -268 -27q-260 0 -470 101q-208 100 -326 285t-118 434zM809 510q0 -98 46 -150q47 -53 116 -53q83 0 144 73t61 193 q0 88 -46 136q-45 47 -116 47q-86 0 -146 -72q-59 -71 -59 -174z" />
<glyph unicode="A" horiz-adv-x="1429" d="M8 0l524 1434h369l520 -1434h-329l-111 313h-545l-110 -313h-318zM518 561h379l-190 545z" />
<glyph unicode="B" horiz-adv-x="1323" d="M123 0v1434h545q250 0 387 -99t137 -278q0 -132 -74 -215t-209 -107q162 -21 247 -102q87 -83 87 -230q0 -188 -143 -295q-144 -108 -406 -108h-571zM430 244h266q110 0 171 47t61 131q0 88 -62 136q-61 48 -170 48h-266v-362zM430 844h246q97 0 153 47t56 127t-56 127 t-153 47h-246v-348z" />
<glyph unicode="C" horiz-adv-x="1437" d="M66 717q0 220 85 384q86 166 243 255q159 90 374 90q168 0 301 -66t215 -184q81 -117 98 -274h-307q-27 124 -111 193q-86 71 -212 71q-172 0 -273 -129q-100 -128 -100 -340q0 -209 100 -339t273 -130q127 0 212 70q84 69 111 194h307q-17 -157 -98 -274 q-84 -120 -215 -185t-301 -65q-215 0 -374 90q-157 89 -243 255q-85 164 -85 384z" />
<glyph unicode="D" horiz-adv-x="1409" d="M123 0v1434h498q213 0 379 -92q167 -93 254 -253q89 -164 89 -372t-89 -372q-88 -162 -254 -254q-164 -91 -379 -91h-498zM430 256h191q194 0 302 126q107 125 107 335t-107 335q-108 126 -302 126h-191v-922z" />
<glyph unicode="E" horiz-adv-x="1169" d="M123 0v1434h962v-265h-655v-321h533v-252h-533v-332h678v-264h-985z" />
<glyph unicode="F" horiz-adv-x="1114" d="M123 0v1434h946v-265h-639v-335h524v-252h-524v-582h-307z" />
<glyph unicode="G" horiz-adv-x="1533" d="M66 717q0 218 86 384q86 165 246 255t378 90q170 0 305 -66q136 -67 218 -184q84 -121 102 -272h-303q-28 119 -115 191q-86 71 -215 71q-118 0 -207 -60q-89 -61 -135 -165q-47 -108 -47 -244q0 -212 103 -340q104 -129 286 -129q133 0 236 73q101 71 122 214v18h-356 v244h641v-797h-213l-33 178q-63 -84 -170 -137q-108 -53 -247 -53q-204 0 -358 90q-153 89 -239 256q-85 166 -85 383z" />
<glyph unicode="H" horiz-adv-x="1427" d="M123 0v1434h307v-576h569v576h308v-1434h-308v592h-569v-592h-307z" />
<glyph unicode="I" horiz-adv-x="550" d="M123 0v1434h307v-1434h-307z" />
<glyph unicode="J" horiz-adv-x="813" d="M45 0v266h170q90 0 129 42t39 132v994h307v-1053q0 -180 -99 -281q-99 -100 -282 -100h-264z" />
<glyph unicode="K" horiz-adv-x="1398" d="M123 0v1432h307v-644l574 644h372l-526 -590l561 -842h-369l-409 604l-203 -227v-377h-307z" />
<glyph unicode="L" horiz-adv-x="1042" d="M123 0v1434h307v-1170h569v-264h-876z" />
<glyph unicode="M" horiz-adv-x="1826" d="M123 0v1434h403l398 -1053l385 1053h395v-1434h-293v961l-373 -961h-250l-372 961v-961h-293z" />
<glyph unicode="N" horiz-adv-x="1433" d="M123 0v1434h278l609 -904v904h303v-1434h-281l-608 903v-903h-301z" />
<glyph unicode="O" horiz-adv-x="1550" d="M66 717q0 208 90 374q90 167 252 261q161 94 368 94q208 0 369 -94q162 -94 252 -261q90 -166 90 -374q0 -207 -90 -374t-252 -261q-161 -94 -369 -94q-207 0 -368 94q-162 94 -252 261t-90 374zM379 717q0 -137 49 -242q50 -108 139 -167q90 -60 209 -60q117 0 207 60 q89 59 139 167q49 105 49 242q0 136 -49 241q-50 108 -139 167q-92 61 -207 61q-118 0 -209 -61q-89 -59 -139 -167q-49 -105 -49 -241z" />
<glyph unicode="P" horiz-adv-x="1273" d="M123 0v1434h584q151 0 271 -59q117 -58 182 -167t65 -252q0 -141 -65 -250q-64 -108 -182 -166q-120 -59 -271 -59h-277v-481h-307zM430 737h248q109 0 172 60t63 159q0 102 -63 162t-172 60h-248v-441z" />
<glyph unicode="Q" horiz-adv-x="1564" d="M66 717q0 208 90 374q90 167 252 261q161 94 368 94q208 0 369 -94q162 -94 252 -261q90 -166 90 -374q0 -257 -135 -447q20 -10 47 -10h141v-260h-147q-86 0 -135 23t-89 73q-169 -108 -393 -108q-207 0 -368 94q-162 94 -252 261t-90 374zM379 717q0 -137 49 -242 q50 -108 139 -167q90 -60 209 -60q124 0 219 67l-20 25q-24 32 -47 48q-22 15 -56 15h-133v261h156q80 0 125 -25q41 -23 86 -80l33 -43q32 87 32 201q0 136 -49 241q-50 108 -139 167q-92 61 -207 61q-118 0 -209 -61q-89 -59 -139 -167q-49 -105 -49 -241z" />
<glyph unicode="R" horiz-adv-x="1314" d="M123 0v1434h584q154 0 275 -59q118 -58 185 -167q66 -108 66 -252q0 -137 -66 -242q-66 -106 -180 -161l283 -553h-340l-240 481h-260v-481h-307zM430 737h252q108 0 173 60t65 159q0 102 -65 162q-64 60 -173 60h-252v-441z" />
<glyph unicode="S" horiz-adv-x="1280" d="M66 471l301 -4q7 -107 87 -171q80 -65 210 -65q107 0 177 47q68 46 68 128q0 56 -38 91q-36 33 -106 53q-71 20 -212 48q-143 27 -238 69t-156 125q-61 84 -61 220q0 124 69 223q68 98 190 155q119 56 276 56q158 0 283 -58q127 -59 199 -161q74 -104 75 -232h-301 q-11 92 -78 149q-66 56 -178 56q-103 0 -164 -43t-61 -123q0 -59 36 -89q38 -31 105 -51q61 -18 209 -46q143 -27 241 -67q100 -41 159 -121q61 -82 61 -216q0 -130 -72 -234q-71 -102 -200 -163q-125 -59 -288 -59q-175 0 -306 62q-135 63 -210 173t-77 248z" />
<glyph unicode="T" horiz-adv-x="1224" d="M45 1169v265h1135v-265h-414v-1169h-307v1169h-414z" />
<glyph unicode="U" horiz-adv-x="1402" d="M113 618v816h307v-832q0 -174 67 -262t213 -88q145 0 214 88q69 89 69 262v832h307v-816q0 -306 -150 -468t-440 -162q-288 0 -438 162q-149 161 -149 468z" />
<glyph unicode="V" horiz-adv-x="1339" d="M0 1434h326l344 -1061l352 1061h317l-485 -1434h-367z" />
<glyph unicode="W" horiz-adv-x="2029" d="M18 1434l318 2l264 -1049l281 1047h276l273 -1047l270 1047h311l-397 -1434h-354l-248 952l-242 -952h-354z" />
<glyph unicode="X" horiz-adv-x="1386" d="M31 0l469 731l-447 703h373l283 -451l288 451h336l-446 -703l469 -731h-375l-305 481l-311 -481h-334z" />
<glyph unicode="Y" horiz-adv-x="1359" d="M0 1434h358l322 -588l338 588h342l-526 -902v-532h-308v532z" />
<glyph unicode="Z" horiz-adv-x="1286" d="M55 0v203l736 968h-717v263h1138v-203l-735 -969h754v-262h-1176z" />
<glyph unicode="[" horiz-adv-x="673" d="M104 -410v1844h547v-252h-276v-1340h276v-252h-547z" />
<glyph unicode="\" horiz-adv-x="694" d="M-90 1434h272l600 -1844h-270z" />
<glyph unicode="]" horiz-adv-x="673" d="M23 -158h276v1340h-276v252h546v-1844h-546v252z" />
<glyph unicode="^" horiz-adv-x="1077" d="M66 795l360 639h225l363 -639h-264l-218 385l-217 -385h-249z" />
<glyph unicode="_" horiz-adv-x="1032" d="M102 -12h828v-267h-828v267z" />
<glyph unicode="`" horiz-adv-x="819" d="M39 1434h330l143 -295h-217z" />
<glyph unicode="a" horiz-adv-x="1148" d="M59 297q0 168 124 259t360 91h209v51q0 71 -54 114q-52 42 -143 42q-79 0 -131 -35t-62 -94h-278q15 163 143 251q130 89 342 89q225 0 345 -98q122 -99 122 -285v-371q0 -38 17 -53q15 -14 51 -14h33v-244h-148q-99 0 -147 43q-47 41 -47 122v7q-57 -90 -142 -137 t-202 -47q-176 0 -284 81t-108 228zM350 317q0 -55 42 -88q41 -32 114 -32q113 0 178 64q66 65 68 173v21h-211q-91 0 -141 -36t-50 -102z" />
<glyph unicode="b" horiz-adv-x="1253" d="M100 0v1434h289v-514q121 145 318 145q139 0 251 -65q111 -64 174 -186q62 -120 62 -286q0 -161 -62 -282q-63 -124 -174 -191q-110 -67 -249 -67q-111 0 -193 42q-84 43 -135 113l-29 -143h-252zM385 528q0 -136 70 -221q69 -84 186 -84q116 0 188 84t72 219t-72 219 t-188 84q-117 0 -186 -83q-70 -84 -70 -218z" />
<glyph unicode="c" horiz-adv-x="1167" d="M59 526q0 161 67 284t190 188q126 67 288 67q210 0 344 -108q134 -109 164 -298h-299q-18 77 -74 124q-55 46 -137 46q-112 0 -180 -84q-68 -85 -68 -219t68 -219q68 -84 180 -84q82 0 140 47q56 46 73 129h297q-28 -192 -163 -302q-133 -109 -347 -109q-164 0 -287 66 q-122 66 -189 190q-67 125 -67 282z" />
<glyph unicode="d" horiz-adv-x="1253" d="M59 528q0 160 63 282t174 188q113 67 251 67q205 0 317 -143v512h289v-1434h-252l-29 145q-121 -157 -327 -157q-139 0 -250 66q-109 65 -173 190q-63 123 -63 284zM354 526q0 -134 71 -219q71 -84 187 -84q118 0 187 83q69 82 69 218q0 137 -69 221t-187 84 q-116 0 -187 -84q-71 -85 -71 -219z" />
<glyph unicode="e" horiz-adv-x="1189" d="M59 524q0 163 67 286q66 122 186 188q122 67 278 67q160 0 281 -63q123 -64 191 -176q70 -115 71 -267q0 -46 -9 -98h-764v-8q11 -115 74 -181q62 -65 174 -65q88 0 147 38q58 37 76 111h285q-16 -103 -80 -188q-63 -84 -168 -132t-239 -48q-178 0 -304 65 q-128 66 -197 188t-69 283zM367 649h477q-15 97 -79 149t-163 52q-94 0 -159 -54q-64 -53 -76 -147z" />
<glyph unicode="f" horiz-adv-x="727" d="M-6 809v244h174v92q0 139 80 214t237 75h236v-246h-178q-45 0 -66 -21q-20 -20 -20 -65v-49h264v-244h-264v-809h-289v809h-174z" />
<glyph unicode="g" horiz-adv-x="1253" d="M59 537q0 157 63 278q62 119 174 186q111 66 251 66q205 0 327 -160l25 146h254v-1022q0 -207 -137 -330q-136 -123 -426 -123q-226 0 -361 98q-137 99 -147 279h291q21 -77 81 -117q61 -41 158 -41q123 0 191 62q67 61 67 182v111q-114 -146 -325 -146q-139 0 -250 66 q-110 66 -173 185q-63 120 -63 280zM354 535q0 -133 71 -216q69 -81 187 -81q119 0 187 81q69 83 69 213q0 134 -69 218t-187 84q-116 0 -187 -83t-71 -216z" />
<glyph unicode="h" horiz-adv-x="1208" d="M100 0v1434h289v-510q117 141 311 141q186 0 307 -115q119 -113 119 -379v-571h-288v559q0 129 -54 200q-52 68 -159 68q-111 0 -173 -75q-63 -76 -63 -211v-541h-289z" />
<glyph unicode="i" horiz-adv-x="489" d="M78 1329q0 69 48 116q47 46 120 46t119 -46q47 -47 47 -116q0 -70 -47 -117t-119 -47q-71 0 -120 47q-48 46 -48 117zM100 0v1053h289v-1053h-289z" />
<glyph unicode="j" horiz-adv-x="499" d="M-94 -166h100q53 0 79 28t26 89v1102h288v-1143q0 -151 -77 -235q-78 -85 -226 -85h-190v244zM88 1329q0 69 47 116q46 46 119 46t120 -46q48 -47 48 -116q0 -71 -48 -117q-49 -47 -120 -47q-72 0 -119 47t-47 117z" />
<glyph unicode="k" horiz-adv-x="1150" d="M100 0v1434h289v-830l414 449h323l-374 -412l395 -641h-334l-266 426l-158 -170v-256h-289z" />
<glyph unicode="l" horiz-adv-x="489" d="M100 0v1434h289v-1434h-289z" />
<glyph unicode="m" horiz-adv-x="1830" d="M100 -2v1055h252l27 -131q51 65 127 104q74 38 184 39q226 0 314 -178q57 85 150 132q92 46 212 46q169 0 276 -113t107 -374v-580h-289v590q0 239 -182 239q-95 0 -152 -66t-57 -186v-577h-289v590q0 239 -184 239q-95 0 -151 -68t-56 -186v-575h-289z" />
<glyph unicode="n" horiz-adv-x="1208" d="M100 0v1053h252l27 -131q56 68 133 105q79 38 193 38q183 0 303 -115q118 -114 118 -379v-571h-288v555q0 272 -213 272q-114 0 -174 -75q-62 -77 -62 -213v-539h-289z" />
<glyph unicode="o" horiz-adv-x="1228" d="M59 526q0 160 69 283t195 189q128 67 291 67q164 0 292 -67q126 -66 195 -189q68 -121 68 -283q0 -163 -68 -283q-70 -124 -195 -189q-126 -66 -292 -66q-165 0 -291 66q-125 66 -195 190q-69 123 -69 282zM354 526q0 -134 71 -219q71 -84 189 -84q122 0 192 84 q71 85 71 219t-71 219q-70 84 -192 84q-118 0 -189 -84q-71 -85 -71 -219z" />
<glyph unicode="p" horiz-adv-x="1253" d="M100 -410v1463h252l29 -146q51 70 136 115q82 43 192 43q139 0 250 -67q110 -66 173 -189q62 -121 62 -285q0 -162 -62 -282q-63 -122 -174 -188t-251 -66q-204 0 -318 145v-543h-289zM385 528q0 -136 70 -221q69 -84 186 -84q116 0 188 85q72 86 72 220q0 136 -72 218 q-72 83 -188 83q-117 0 -186 -83q-70 -84 -70 -218z" />
<glyph unicode="q" horiz-adv-x="1253" d="M59 524q0 160 63 283t173 190q112 68 250 68q107 0 191 -41q83 -41 136 -113l29 142h252v-1463h-289v545q-118 -147 -317 -147q-142 0 -252 64q-109 63 -173 187q-63 121 -63 285zM354 528q0 -136 71 -221q71 -84 187 -84q118 0 187 84t69 219q0 138 -69 220 q-69 83 -187 83q-116 0 -187 -83t-71 -218z" />
<glyph unicode="r" horiz-adv-x="770" d="M100 0v1053h262l27 -158q45 76 117 118q68 40 186 40h49v-262h-114q-124 0 -181 -74q-57 -73 -57 -201v-516h-289z" />
<glyph unicode="s" horiz-adv-x="1105" d="M61 350h275q6 -69 67 -112t158 -43q95 0 146 29q53 30 53 85q0 40 -25 62q-23 20 -69 29q-56 11 -148 22q-137 18 -231 47q-93 29 -148 90t-55 164t56 181t159 122q101 43 236 43q214 -1 347 -92q131 -90 142 -250h-274q-6 59 -63 97q-58 38 -144 38q-81 0 -132 -31 t-51 -81q0 -38 27 -56q28 -19 70 -26q60 -10 143 -19q211 -24 327 -91q113 -65 113 -228q0 -102 -60 -180t-168 -120t-249 -42q-220 0 -356 97q-139 99 -146 265z" />
<glyph unicode="t" horiz-adv-x="729" d="M-6 809v244h174v295h289v-295h239v-244h-239v-461q0 -57 23 -80q24 -24 79 -24h150v-244h-240q-301 0 -301 301v508h-174z" />
<glyph unicode="u" horiz-adv-x="1191" d="M82 481v572h289v-537q0 -143 50 -216t154 -73q108 0 168 81t60 227v518h289v-1053h-256l-27 127q-53 -63 -129 -102q-73 -37 -180 -37q-185 0 -301 113q-117 114 -117 380z" />
<glyph unicode="v" horiz-adv-x="1110" d="M-2 1053h309l254 -758l250 758h303l-379 -1053h-358z" />
<glyph unicode="w" horiz-adv-x="1677" d="M0 1053h305l211 -742l199 742h260l192 -744l215 744h295l-346 -1053h-307l-184 635l-189 -635h-307z" />
<glyph unicode="x" horiz-adv-x="1130" d="M6 0l391 537l-372 516h329l219 -312l224 312h309l-371 -516l391 -537h-329l-242 330l-240 -330h-309z" />
<glyph unicode="y" horiz-adv-x="1118" d="M-2 1053h307l256 -756l250 756h309l-467 -1203q-40 -103 -69 -150q-34 -55 -83 -82q-51 -28 -130 -28h-281v244h160q55 0 80 19q24 18 47 71l26 70z" />
<glyph unicode="z" horiz-adv-x="1030" d="M45 0v197l526 612h-501v244h891v-197l-527 -612h551v-244h-940z" />
<glyph unicode="{" horiz-adv-x="702" d="M47 387v250q92 2 140 36q49 35 49 101q0 26 -9 62l-34 184q-9 47 -9 84q0 154 117 243q118 89 320 89h59v-252l-72 -2q-72 0 -110 -37q-39 -37 -39 -103q0 -14 8 -57l39 -168q8 -35 8 -69q0 -84 -54 -147q-53 -62 -153 -89q99 -16 154 -76q55 -59 55 -145q0 -35 -10 -84 l-39 -168q-8 -48 -8 -59q0 -66 39 -102t110 -36l72 -2v-252h-59q-202 0 -320 89q-117 89 -117 243q0 37 9 84l34 184q6 21 6 62q0 132 -186 137z" />
<glyph unicode="|" horiz-adv-x="532" d="M123 -410v1844h289v-1844h-289z" />
<glyph unicode="}" horiz-adv-x="702" d="M23 -160l71 2q72 0 111 36t39 102q0 11 -8 59l-39 168q-11 53 -11 84q0 84 56 145q55 60 153 76q-99 27 -152 89q-55 64 -55 147q0 29 9 69l39 168q8 43 8 57q0 66 -39 103q-38 37 -111 37l-71 2v252h59q201 0 319 -89q117 -89 117 -243q0 -42 -8 -84l-35 -184 q-8 -32 -8 -62q0 -66 48 -101q48 -34 140 -36v-250q-186 -5 -186 -137q0 -41 6 -62l35 -184q8 -42 8 -84q0 -154 -117 -243q-118 -89 -319 -89h-59v252z" />
<glyph unicode="~" horiz-adv-x="1054" d="M80 369q0 179 66 271q66 91 196 91q72 0 115 -17q51 -20 98 -50q25 -17 52 -31q20 -10 46 -10q92 0 92 108h230q0 -178 -67 -271q-66 -91 -195 -91q-73 0 -119 18q-49 19 -94 51q-3 2 -27 16q-18 10 -38 17q-18 6 -34 6q-49 0 -70 -27q-22 -28 -22 -81h-229z" />
<glyph unicode="&#xa0;" />
<glyph unicode="&#xa1;" horiz-adv-x="591" d="M135 1276q0 74 49 122q50 48 123 48q75 0 125 -48q49 -48 49 -122q0 -76 -49 -124t-125 -48q-73 0 -123 48q-49 48 -49 124zM154 0l47 989h219l43 -989h-309z" />
<glyph unicode="&#xa2;" horiz-adv-x="1167" d="M59 715q0 212 114 353q114 140 312 175v191h254v-193q154 -33 250 -135t123 -258h-299q-18 77 -74 124q-55 46 -137 46q-112 0 -180 -84q-68 -85 -68 -219t68 -219q68 -84 180 -84q82 0 140 47q56 46 73 129h297q-24 -159 -121 -262t-252 -136v-190h-254v186 q-198 35 -312 175q-114 141 -114 354z" />
<glyph unicode="&#xa3;" horiz-adv-x="1273" d="M57 547v209h148q-9 30 -17 62q-12 49 -18 88q-6 41 -6 79q0 135 66 240q65 103 184 161t260 58q243 0 388 -134t157 -366h-293q-7 116 -70 183q-62 67 -172 67q-103 0 -165 -62t-62 -165q0 -34 8 -77q8 -42 19 -80q2 -8 5 -18t5 -15.5t3.5 -11.5t2.5 -9h391v-209h-365 q6 -59 -26 -143q-33 -85 -82 -140l794 -4v-260h-1112v248q56 62 91 141q34 78 42 158h-176z" />
<glyph unicode="&#xa4;" horiz-adv-x="1359" d="M80 319l129 130q-66 119 -66 253q0 152 76 273l-139 139l203 203l143 -143q116 67 254 67t254 -67l143 143l203 -203l-139 -139q76 -121 76 -273q0 -134 -66 -253l129 -130l-203 -202l-125 127q-123 -78 -272 -78t-272 78l-125 -127zM391 702q0 -125 82 -207 q83 -83 207 -83t207 83q82 82 82 207q0 128 -82 210q-83 83 -207 83t-207 -83q-82 -82 -82 -210z" />
<glyph unicode="&#xa5;" horiz-adv-x="1433" d="M8 1434h363l317 -588l330 588h342l-412 -723h252v-207h-354v-123h354v-207h-354v-174h-307v174h-355v207h355v123h-355v207h250z" />
<glyph unicode="&#xa6;" horiz-adv-x="532" d="M123 -410v832h289v-832h-289zM123 592v842h289v-842h-289z" />
<glyph unicode="&#xa7;" horiz-adv-x="1296" d="M121 604q0 186 211 270q-123 80 -123 230q0 156 121 249q122 93 321 93q192 0 314 -89q121 -88 129 -243h-279q-4 59 -48 94t-116 35q-71 0 -116 -31q-43 -30 -43 -86q2 -60 45 -90q45 -31 145 -59q181 -52 271 -88q93 -37 158 -101q65 -63 65 -163q0 -180 -222 -265 q64 -41 98 -97q33 -55 33 -138q0 -157 -119 -249q-120 -93 -321 -93q-191 0 -315 89q-123 89 -131 243h280q5 -61 49 -95t117 -34t114 29q42 30 42 83q0 65 -43 95q-44 31 -146 59q-183 52 -270 88q-94 39 -157 100q-64 63 -64 164zM420 631q0 -62 50 -92q53 -32 181 -66 l54 -14l40 -13q129 45 129 154q0 60 -50 90q-53 32 -181 66q-76 20 -92 26q-131 -47 -131 -151z" />
<glyph unicode="&#xa8;" horiz-adv-x="819" d="M39 1309q0 63 45 106q44 43 111 43q66 0 109 -43q44 -44 44 -106q0 -63 -44 -107q-43 -43 -109 -43q-67 0 -111 43q-45 44 -45 107zM471 1309q0 62 44 106q43 43 110 43q66 0 110 -43q45 -43 45 -106t-45 -107q-44 -43 -110 -43q-67 0 -110 43q-44 44 -44 107z" />
<glyph unicode="&#xa9;" horiz-adv-x="1632" d="M63 717q0 205 99 372q101 169 270 262q173 95 383 95t383 -95q169 -93 270 -262q99 -167 99 -372t-99 -372q-101 -169 -270 -262q-173 -95 -383 -95t-383 95q-169 93 -270 262q-99 167 -99 372zM221 717q0 -167 77 -304q76 -136 213 -214t304 -78q168 0 304 78t214 214 q78 137 78 304q0 168 -78 304t-214 214t-304 78q-167 0 -304 -78t-213 -214q-77 -137 -77 -304zM414 719q0 115 48 211t140 153q93 58 215 58q147 0 251 -82q106 -83 124 -232h-182q-16 66 -69 108q-52 42 -122 42q-103 0 -161 -73q-56 -71 -56 -185q0 -111 57 -184 q57 -74 160 -74q74 0 124 39q51 40 69 108h180q-21 -147 -121 -229t-254 -82q-123 0 -215 57t-140 154q-48 96 -48 211z" />
<glyph unicode="&#xaa;" horiz-adv-x="868" d="M92 494v161h696v-161h-696zM96 965q0 101 81 157q82 56 233 56h120v30q0 44 -30 69q-31 26 -86 26q-45 0 -74 -23q-28 -22 -33 -57h-196q7 106 92 165q83 58 219 58q143 0 224 -64q79 -63 79 -184v-219q0 -25 10 -35t35 -10h18v-148h-94q-64 0 -97 28q-32 27 -32 75v10 q-63 -121 -219 -121q-111 0 -180 48q-70 49 -70 139zM295 979q0 -32 24 -50t68 -18q66 0 105 40q38 39 38 104v6h-127q-50 0 -79 -23t-29 -59z" />
<glyph unicode="&#xab;" horiz-adv-x="1245" d="M61 526l312 527h291l-308 -527l308 -526h-291zM575 524l312 527h291l-308 -527l308 -526h-291z" />
<glyph unicode="&#xac;" horiz-adv-x="1054" d="M86 498v243h809v-571h-256v328h-553z" />
<glyph unicode="&#xad;" horiz-adv-x="880" d="M82 465v233h717v-233h-717z" />
<glyph unicode="&#xae;" horiz-adv-x="1071" d="M80 1004q0 123 61 224q61 102 166 160q104 58 228 58q125 0 229 -58q105 -58 166 -160q61 -101 61 -222q0 -124 -61 -225q-60 -100 -166 -159t-229 -59q-122 0 -228 59t-166 159q-61 101 -61 223zM197 1001q0 -95 45 -171q44 -75 122 -121q76 -45 171 -45q93 0 173 45 q78 44 123 122q46 80 46 173q0 92 -46 173q-44 79 -123 123q-81 46 -173 46q-93 0 -171 -46q-79 -46 -122 -123q-45 -79 -45 -176zM362 772v467h189q85 0 135 -43q51 -44 51 -115q0 -46 -22 -80t-66 -55l94 -174h-129l-79 148h-56v-148h-117zM479 1018h66q34 0 52 17 q19 18 19 46q0 31 -18 47q-19 17 -53 17h-66v-127z" />
<glyph unicode="&#xaf;" horiz-adv-x="819" d="M92 1206v205h637v-205h-637z" />
<glyph unicode="&#xb0;" horiz-adv-x="892" d="M80 1100q0 96 48 176t132 125t186 45q101 0 185 -45q83 -44 133 -125q49 -79 49 -176q0 -98 -49 -177q-49 -78 -133 -125q-83 -46 -185 -46q-103 0 -186 46q-85 47 -132 125q-48 79 -48 177zM281 1100q0 -71 47 -120q46 -48 118 -48t119 48q47 49 47 120q0 72 -47 119 t-119 47q-71 0 -118 -47t-47 -119z" />
<glyph unicode="&#xb1;" horiz-adv-x="1054" d="M86 0v244h309v282h-309v244h309v328h262v-328h312v-244h-312v-282h312v-244h-883z" />
<glyph unicode="&#xb2;" horiz-adv-x="669" d="M33 1354v14q0 127 84 205t209 78q134 0 218 -70q83 -69 83 -182q0 -77 -37 -126q-38 -50 -101 -95l-151 -109h297v-176h-594v166l299 207q37 27 61 59q23 31 23 70q0 36 -27 60t-69 24q-48 0 -75 -30q-28 -31 -28 -89v-6h-192z" />
<glyph unicode="&#xb3;" horiz-adv-x="688" d="M29 1149h196q6 -98 111 -98q47 0 77 21q29 20 29 58q0 39 -29 59q-30 21 -85 21h-41v129h45q45 0 74 20q28 19 28 52q0 35 -24 54q-25 20 -66 20q-44 0 -72 -23q-27 -22 -28 -61h-193q5 119 82 185q79 67 215 67q131 0 209 -58q76 -57 76 -149q0 -63 -36 -103t-89 -57 q67 -15 106 -58q39 -44 39 -112q0 -108 -84 -171q-83 -62 -231 -62q-150 0 -228 68q-80 69 -81 198z" />
<glyph unicode="&#xb4;" horiz-adv-x="819" d="M309 1145l150 289h329l-268 -289h-211z" />
<glyph unicode="&#xb5;" horiz-adv-x="1214" d="M100 -410v1463h289v-531q0 -295 213 -295q104 0 164 83q59 81 59 231v512h289v-1053h-258l-22 137q-51 -70 -122 -110q-69 -39 -165 -39q-49 0 -91 16q-46 17 -67 37v-451h-289z" />
<glyph unicode="&#xb6;" horiz-adv-x="1529" d="M45 942q0 148 66 259q67 113 186 172q124 61 278 61h429v-1434h-275v453h-154q-157 0 -278 60q-119 59 -186 172q-66 111 -66 257zM1135 0v1434h274v-1434h-274z" />
<glyph unicode="&#xb7;" d="M80 610q0 76 49 124q50 48 125 48t124 -49q50 -50 50 -123q0 -74 -50 -122t-124 -48q-76 0 -125 48t-49 122z" />
<glyph unicode="&#xb8;" horiz-adv-x="819" d="M221 -268h189q59 0 59 51q0 21 -16 33q-17 12 -43 12h-121l59 238h152l-33 -127h35q86 0 136 -42t50 -116q0 -88 -60 -139q-61 -52 -163 -52h-244v142z" />
<glyph unicode="&#xb9;" horiz-adv-x="415" d="M0 1329v174h117q23 0 39 22q14 20 14 52v61h188v-745h-192v442q-15 -6 -39 -6h-127z" />
<glyph unicode="&#xba;" horiz-adv-x="870" d="M90 1112q0 152 94 243t250 91q158 0 252 -91t94 -243t-94 -243t-252 -91q-156 0 -250 91t-94 243zM92 494v161h688v-161h-688zM293 1112q0 -79 38 -129q37 -49 103 -49t106 49t40 129t-40 129t-106 49t-103 -49q-38 -50 -38 -129z" />
<glyph unicode="&#xbb;" horiz-adv-x="1245" d="M68 -2l307 526l-307 527h290l312 -527l-312 -526h-290zM582 0l307 526l-307 527h290l312 -527l-312 -526h-290z" />
<glyph unicode="&#xbc;" horiz-adv-x="1384" d="M0 1124v174h117q23 0 39 22q14 20 14 52v62h188v-746h-192v442q-16 -6 -39 -6h-127zM47 0l907 1434h232l-907 -1434h-232zM752 164v170l301 411h241v-411h111v-170h-111v-164h-190v164h-352zM938 334h166v225z" />
<glyph unicode="&#xbd;" horiz-adv-x="1447" d="M0 1124v174h117q23 0 39 22q14 20 14 52v62h188v-746h-192v442q-16 -6 -39 -6h-127zM47 0l907 1434h232l-907 -1434h-232zM825 461v14q0 127 84 205t209 78q134 0 218 -70q83 -69 83 -182q0 -77 -37 -126q-39 -51 -100 -95l-152 -109h297v-176h-593v166l299 207 q37 27 61 59q23 31 23 70q0 36 -27 60t-70 24q-47 0 -74 -30q-28 -31 -28 -89v-6h-193z" />
<glyph unicode="&#xbe;" horiz-adv-x="1656" d="M29 944h196q6 -98 111 -98q47 0 77 21q29 20 29 59q0 38 -29 58q-31 22 -85 22h-41v129h45q46 0 74 19t28 52q0 36 -24 55q-23 19 -66 19q-44 0 -72 -23q-27 -22 -28 -61h-193q5 119 82 185q79 67 215 67q132 0 209 -57q76 -57 76 -150q0 -61 -36 -102q-37 -42 -89 -58 q67 -15 106 -58t39 -112q0 -108 -84 -171q-83 -62 -231 -62q-150 0 -228 68q-80 69 -81 198zM319 0l908 1434h231l-907 -1434h-232zM1024 164v170l301 411h242v-411h110v-170h-110v-164h-191v164h-352zM1210 334h166v225z" />
<glyph unicode="&#xbf;" horiz-adv-x="1083" d="M51 375q0 133 54 210q53 76 159 148q93 62 130 107q38 46 38 106v27h270v-58q0 -117 -52 -182q-51 -64 -165 -131q-69 -43 -105 -93q-34 -47 -34 -108q0 -73 52 -119t139 -46q98 0 156 68q59 70 59 181h295q0 -135 -61 -251q-60 -113 -175 -180q-114 -66 -272 -66 q-151 0 -259 49q-110 50 -169 137q-60 88 -60 201zM389 1280q0 72 48 119q49 47 122 47q71 0 121 -47q49 -46 49 -119q0 -72 -48 -118q-47 -46 -122 -46t-122 46q-48 46 -48 118z" />
<glyph unicode="&#xc0;" horiz-adv-x="1429" d="M8 0l524 1434h369l520 -1434h-329l-111 313h-545l-110 -313h-318zM346 1835h330l143 -295h-217zM518 561h379l-190 545z" />
<glyph unicode="&#xc1;" horiz-adv-x="1429" d="M8 0l524 1434h369l520 -1434h-329l-111 313h-545l-110 -313h-318zM518 561h379l-190 545zM616 1546l150 289h330l-269 -289h-211z" />
<glyph unicode="&#xc2;" horiz-adv-x="1429" d="M8 0l524 1434h369l520 -1434h-329l-111 313h-545l-110 -313h-318zM326 1544l262 291h258l262 -291h-266l-125 121l-127 -121h-264zM518 561h379l-190 545z" />
<glyph unicode="&#xc3;" horiz-adv-x="1429" d="M8 0l524 1434h369l520 -1434h-329l-111 313h-545l-110 -313h-318zM395 1577v41q0 93 55 157q53 62 140 62q45 0 72 -13q25 -12 61 -38q27 -21 40 -28q18 -9 40 -9q31 0 49 23q18 22 18 57h168v-43q0 -95 -55 -157t-139 -62q-47 0 -75 14q-31 15 -62 41q-28 21 -40 27 q-16 8 -34 8q-31 0 -50 -24q-20 -25 -20 -56h-168zM518 561h379l-190 545z" />
<glyph unicode="&#xc4;" horiz-adv-x="1429" d="M8 0l524 1434h369l520 -1434h-329l-111 313h-545l-110 -313h-318zM346 1710q0 64 45 107q44 43 111 43q66 0 109 -43q44 -44 44 -107q0 -62 -44 -106q-43 -43 -109 -43q-67 0 -111 43q-45 43 -45 106zM518 561h379l-190 545zM778 1710q0 63 44 107q43 43 110 43 q66 0 110 -43q45 -43 45 -107q0 -62 -45 -106q-44 -43 -110 -43q-67 0 -110 43q-44 44 -44 106z" />
<glyph unicode="&#xc5;" horiz-adv-x="1429" d="M8 0l516 1409q-78 72 -78 176q0 103 77 175q78 73 190 73q111 0 189 -73q77 -72 77 -175t-72 -170l514 -1415h-329l-111 313h-545l-110 -313h-318zM518 561h379l-190 545zM594 1585q0 -52 34 -86q35 -35 85 -35t85 35q33 33 33 86q0 52 -33 85q-34 34 -85 34t-85 -34 t-34 -85z" />
<glyph unicode="&#xc6;" horiz-adv-x="2039" d="M-12 0l839 1434h1127v-265h-656v-321h533v-252h-533v-332h678v-264h-985v303h-504l-182 -303h-317zM629 551h362v623z" />
<glyph unicode="&#xc7;" horiz-adv-x="1437" d="M66 717q0 220 85 384q86 166 243 255q159 90 374 90q168 0 301 -66t215 -184q81 -117 98 -274h-307q-27 124 -111 193q-86 71 -212 71q-172 0 -273 -129q-100 -128 -100 -340q0 -209 100 -339t273 -130q127 0 212 70q84 69 111 194h307q-24 -216 -170 -358 q-146 -141 -370 -162l-15 -53h35q87 0 136 -42q51 -43 51 -116q0 -87 -61 -139t-163 -52h-243v142h188q59 0 59 51q0 21 -16 33q-17 12 -43 12h-121l41 164q-194 17 -334 109q-141 93 -216 252q-74 157 -74 364z" />
<glyph unicode="&#xc8;" horiz-adv-x="1169" d="M123 0v1434h962v-265h-655v-321h533v-252h-533v-332h678v-264h-985zM242 1835h329l144 -295h-217z" />
<glyph unicode="&#xc9;" horiz-adv-x="1169" d="M123 0v1434h962v-265h-655v-321h533v-252h-533v-332h678v-264h-985zM512 1546l150 289h329l-268 -289h-211z" />
<glyph unicode="&#xca;" horiz-adv-x="1169" d="M123 0v1434h962v-265h-655v-321h533v-252h-533v-332h678v-264h-985zM221 1544l262 291h258l263 -291h-267l-125 121l-127 -121h-264z" />
<glyph unicode="&#xcb;" horiz-adv-x="1169" d="M123 0v1434h962v-265h-655v-321h533v-252h-533v-332h678v-264h-985zM242 1710q0 64 45 107q44 43 110 43q67 0 110 -43q44 -44 44 -107q0 -62 -44 -106q-43 -43 -110 -43q-66 0 -110 43q-45 44 -45 106zM674 1710q0 63 44 107q43 43 109 43q67 0 111 -43q45 -43 45 -107 q0 -62 -45 -106q-44 -43 -111 -43q-66 0 -109 43q-44 44 -44 106z" />
<glyph unicode="&#xcc;" horiz-adv-x="550" d="M-96 1835h329l144 -295h-217zM123 0v1434h307v-1434h-307z" />
<glyph unicode="&#xcd;" horiz-adv-x="550" d="M123 0v1434h307v-1434h-307zM174 1546l150 289h329l-268 -289h-211z" />
<glyph unicode="&#xce;" horiz-adv-x="550" d="M-117 1544l262 291h258l263 -291h-267l-125 121l-127 -121h-264zM123 0v1434h307v-1434h-307z" />
<glyph unicode="&#xcf;" horiz-adv-x="550" d="M-96 1710q0 64 45 107q44 43 110 43q67 0 110 -43q44 -44 44 -107q0 -62 -44 -106q-43 -43 -110 -43q-66 0 -110 43q-45 44 -45 106zM123 0v1434h307v-1434h-307zM336 1710q0 63 44 107q43 43 109 43q67 0 111 -43q45 -43 45 -107q0 -62 -45 -106q-44 -43 -111 -43 q-66 0 -109 43q-44 44 -44 106z" />
<glyph unicode="&#xd0;" horiz-adv-x="1431" d="M-6 621v213h162v600h497q214 0 380 -92q167 -93 254 -253q89 -164 89 -372t-89 -372q-88 -162 -254 -254q-164 -91 -380 -91h-497v621h-162zM463 256h190q194 0 302 126t108 335t-108 335t-302 126h-190v-344h229v-213h-229v-365z" />
<glyph unicode="&#xd1;" horiz-adv-x="1433" d="M123 0v1434h278l609 -904v904h303v-1434h-281l-608 903v-903h-301zM373 1577v41q0 94 54 157q53 62 140 62q45 0 72 -13q25 -12 61 -38q27 -21 40 -28q18 -9 40 -9q31 0 49 23q19 24 19 57h168v-43q0 -95 -55 -157t-140 -62q-47 0 -75 14q-31 15 -62 41q-28 21 -40 27 q-16 8 -34 8q-30 0 -50 -24q-19 -23 -19 -56h-168z" />
<glyph unicode="&#xd2;" horiz-adv-x="1550" d="M66 717q0 208 90 374q90 167 252 261q161 94 368 94q208 0 369 -94q162 -94 252 -261q90 -166 90 -374q0 -207 -90 -374t-252 -261q-161 -94 -369 -94q-207 0 -368 94q-162 94 -252 261t-90 374zM379 717q0 -137 49 -242q50 -108 139 -167q90 -60 209 -60q117 0 207 60 q89 59 139 167q49 105 49 242q0 136 -49 241q-50 108 -139 167q-92 61 -207 61q-118 0 -209 -61q-89 -59 -139 -167q-49 -105 -49 -241zM406 1835h329l144 -295h-217z" />
<glyph unicode="&#xd3;" horiz-adv-x="1550" d="M66 717q0 208 90 374q90 167 252 261q161 94 368 94q208 0 369 -94q162 -94 252 -261q90 -166 90 -374q0 -207 -90 -374t-252 -261q-161 -94 -369 -94q-207 0 -368 94q-162 94 -252 261t-90 374zM379 717q0 -137 49 -242q50 -108 139 -167q90 -60 209 -60q117 0 207 60 q89 59 139 167q49 105 49 242q0 136 -49 241q-50 108 -139 167q-92 61 -207 61q-118 0 -209 -61q-89 -59 -139 -167q-49 -105 -49 -241zM676 1546l149 289h330l-268 -289h-211z" />
<glyph unicode="&#xd4;" horiz-adv-x="1550" d="M66 717q0 208 90 374q90 167 252 261q161 94 368 94q208 0 369 -94q162 -94 252 -261q90 -166 90 -374q0 -207 -90 -374t-252 -261q-161 -94 -369 -94q-207 0 -368 94q-162 94 -252 261t-90 374zM379 717q0 -137 49 -242q50 -108 139 -167q90 -60 209 -60q117 0 207 60 q89 59 139 167q49 105 49 242q0 136 -49 241q-50 108 -139 167q-92 61 -207 61q-118 0 -209 -61q-89 -59 -139 -167q-49 -105 -49 -241zM385 1544l262 291h258l262 -291h-266l-125 121l-127 -121h-264z" />
<glyph unicode="&#xd5;" horiz-adv-x="1550" d="M66 717q0 208 90 374q90 167 252 261q161 94 368 94q208 0 369 -94q162 -94 252 -261q90 -166 90 -374q0 -207 -90 -374t-252 -261q-161 -94 -369 -94q-207 0 -368 94q-162 94 -252 261t-90 374zM379 717q0 -137 49 -242q50 -108 139 -167q90 -60 209 -60q117 0 207 60 q89 59 139 167q49 105 49 242q0 136 -49 241q-50 108 -139 167q-92 61 -207 61q-118 0 -209 -61q-89 -59 -139 -167q-49 -105 -49 -241zM455 1577v41q0 94 54 157q53 62 140 62q45 0 72 -13q25 -12 61 -38q27 -21 40 -28q18 -9 40 -9q31 0 49 23q19 24 19 57h168v-43 q0 -93 -56 -157q-55 -62 -139 -62q-47 0 -75 14q-31 15 -62 41q-28 21 -40 27q-16 8 -34 8q-30 0 -50 -24q-19 -23 -19 -56h-168z" />
<glyph unicode="&#xd6;" horiz-adv-x="1550" d="M66 717q0 208 90 374q90 167 252 261q161 94 368 94q208 0 369 -94q162 -94 252 -261q90 -166 90 -374q0 -207 -90 -374t-252 -261q-161 -94 -369 -94q-207 0 -368 94q-162 94 -252 261t-90 374zM379 717q0 -137 49 -242q50 -108 139 -167q90 -60 209 -60q117 0 207 60 q89 59 139 167q49 105 49 242q0 136 -49 241q-50 108 -139 167q-92 61 -207 61q-118 0 -209 -61q-89 -59 -139 -167q-49 -105 -49 -241zM406 1710q0 64 45 107q44 43 110 43q67 0 110 -43q44 -44 44 -107q0 -62 -44 -106q-43 -43 -110 -43q-66 0 -110 43q-45 43 -45 106z M838 1710q0 63 44 107q43 43 109 43q67 0 111 -43q45 -43 45 -107q0 -62 -45 -106q-44 -43 -111 -43q-66 0 -109 43q-44 44 -44 106z" />
<glyph unicode="&#xd7;" horiz-adv-x="1054" d="M72 846l184 186l279 -278l270 272l172 -172l-272 -270l278 -279l-184 -186l-279 280l-272 -272l-170 170l272 272z" />
<glyph unicode="&#xd8;" horiz-adv-x="1550" d="M66 137l133 137q-133 191 -133 443q0 208 90 374q90 167 252 261q161 94 368 94q246 0 430 -137l133 137l148 -148l-135 -139q135 -190 135 -442q0 -207 -90 -374t-252 -261q-161 -94 -369 -94q-246 0 -430 135l-131 -135zM379 717q0 -114 39 -219l592 610 q-94 78 -234 78q-118 0 -209 -61q-89 -59 -139 -167q-49 -105 -49 -241zM543 326q101 -78 233 -78q117 0 207 60q89 59 139 167q49 105 49 242q0 128 -38 217z" />
<glyph unicode="&#xd9;" horiz-adv-x="1402" d="M113 618v816h307v-832q0 -174 67 -262t213 -88q145 0 214 88q69 89 69 262v832h307v-816q0 -306 -150 -468t-440 -162q-288 0 -438 162q-149 161 -149 468zM332 1835h330l143 -295h-217z" />
<glyph unicode="&#xda;" horiz-adv-x="1402" d="M113 618v816h307v-832q0 -174 67 -262t213 -88q145 0 214 88q69 89 69 262v832h307v-816q0 -306 -150 -468t-440 -162q-288 0 -438 162q-149 161 -149 468zM602 1546l150 289h329l-268 -289h-211z" />
<glyph unicode="&#xdb;" horiz-adv-x="1402" d="M113 618v816h307v-832q0 -174 67 -262t213 -88q145 0 214 88q69 89 69 262v832h307v-816q0 -306 -150 -468t-440 -162q-288 0 -438 162q-149 161 -149 468zM311 1544l262 291h258l263 -291h-267l-125 121l-127 -121h-264z" />
<glyph unicode="&#xdc;" horiz-adv-x="1402" d="M113 618v816h307v-832q0 -174 67 -262t213 -88q145 0 214 88q69 89 69 262v832h307v-816q0 -306 -150 -468t-440 -162q-288 0 -438 162q-149 161 -149 468zM332 1710q0 64 45 107q44 43 110 43q67 0 110 -43q44 -44 44 -107q0 -62 -44 -106q-43 -43 -110 -43 q-66 0 -110 43q-45 44 -45 106zM764 1710q0 63 44 107q43 43 110 43q66 0 110 -43q45 -43 45 -107q0 -62 -45 -106q-44 -43 -110 -43q-67 0 -110 43q-44 44 -44 106z" />
<glyph unicode="&#xdd;" horiz-adv-x="1359" d="M0 1434h358l322 -588l338 588h342l-526 -902v-532h-308v532zM588 1546l149 289h330l-268 -289h-211z" />
<glyph unicode="&#xde;" horiz-adv-x="1275" d="M123 0v1434h307v-222h246q255 0 403 -128t148 -349q0 -220 -149 -348q-148 -127 -400 -127h-248v-260h-307zM430 516h238q115 0 181 57t66 162t-66 163q-65 58 -179 58h-240v-440z" />
<glyph unicode="&#xdf;" horiz-adv-x="1275" d="M123 0v981q0 229 143 347t365 118q146 0 260 -47q111 -46 175 -134q62 -86 62 -202q-2 -108 -56 -190q-52 -79 -140 -117q295 -84 295 -353q0 -129 -63 -223t-170 -142q-109 -49 -242 -50q-125 2 -222 35v213q84 -29 177 -29q99 0 164 54t65 147q0 100 -77 154 q-76 54 -206 54q-23 0 -63 -4v215q125 0 186 58q60 57 60 143t-56 136t-151 50q-98 0 -158 -60q-59 -59 -59 -159v-995h-289z" />
<glyph unicode="&#xe0;" horiz-adv-x="1148" d="M59 297q0 168 124 259t360 91h209v51q0 71 -54 114q-52 42 -143 42q-79 0 -131 -35t-62 -94h-278q15 163 143 251q130 89 342 89q225 0 345 -98q122 -99 122 -285v-371q0 -38 17 -53q15 -14 51 -14h33v-244h-148q-99 0 -147.5 43t-46.5 129q-57 -90 -142 -137t-202 -47 q-176 0 -284 81t-108 228zM197 1454h329l144 -295h-217zM350 317q0 -55 42 -88q41 -32 114 -32q113 0 178 64q66 65 68 173v21h-211q-91 0 -141 -36t-50 -102z" />
<glyph unicode="&#xe1;" horiz-adv-x="1148" d="M59 297q0 168 124 259t360 91h209v51q0 71 -54 114q-52 42 -143 42q-79 0 -131 -35t-62 -94h-278q15 163 143 251q130 89 342 89q225 0 345 -98q122 -99 122 -285v-371q0 -38 17 -53q15 -14 51 -14h33v-244h-148q-99 0 -147.5 43t-46.5 129q-57 -90 -142 -137t-202 -47 q-176 0 -284 81t-108 228zM350 317q0 -55 42 -88q41 -32 114 -32q113 0 178 64q66 65 68 173v21h-211q-91 0 -141 -36t-50 -102zM467 1165l149 289h330l-268 -289h-211z" />
<glyph unicode="&#xe2;" horiz-adv-x="1148" d="M59 297q0 168 124 259t360 91h209v51q0 71 -54 114q-52 42 -143 42q-79 0 -131 -35t-62 -94h-278q15 163 143 251q130 89 342 89q225 0 345 -98q122 -99 122 -285v-371q0 -38 17 -53q15 -14 51 -14h33v-244h-148q-99 0 -147.5 43t-46.5 129q-57 -90 -142 -137t-202 -47 q-176 0 -284 81t-108 228zM176 1163l262 291h258l262 -291h-266l-125 121l-127 -121h-264zM350 317q0 -55 42 -88q41 -32 114 -32q113 0 178 64q66 65 68 173v21h-211q-91 0 -141 -36t-50 -102z" />
<glyph unicode="&#xe3;" horiz-adv-x="1148" d="M59 297q0 168 124 259t360 91h209v51q0 71 -54 114q-52 42 -143 42q-79 0 -131 -35t-62 -94h-278q15 163 143 251q130 89 342 89q225 0 345 -98q122 -99 122 -285v-371q0 -38 17 -53q15 -14 51 -14h33v-244h-148q-99 0 -147.5 43t-46.5 129q-57 -90 -142 -137t-202 -47 q-176 0 -284 81t-108 228zM246 1196v41q0 94 54 157q53 62 140 62q45 0 72 -13q25 -12 61 -38q27 -21 40 -28q18 -9 40 -9q31 0 49 23q19 24 19 57h168v-43q0 -95 -55 -157t-140 -62q-46 0 -74 14q-33 17 -63 41q-28 21 -40 27q-16 8 -34 8q-31 0 -50 -24q-19 -23 -19 -56 h-168zM350 317q0 -55 42 -88q41 -32 114 -32q113 0 178 64q66 65 68 173v21h-211q-91 0 -141 -36t-50 -102z" />
<glyph unicode="&#xe4;" horiz-adv-x="1148" d="M59 297q0 168 124 259t360 91h209v51q0 71 -54 114q-52 42 -143 42q-79 0 -131 -35t-62 -94h-278q15 163 143 251q130 89 342 89q225 0 345 -98q122 -99 122 -285v-371q0 -38 17 -53q15 -14 51 -14h33v-244h-148q-99 0 -147.5 43t-46.5 129q-57 -90 -142 -137t-202 -47 q-176 0 -284 81t-108 228zM197 1329q0 63 45 107q44 43 110 43q67 0 110 -43q44 -44 44 -107q0 -62 -44 -106q-43 -43 -110 -43q-66 0 -110 43q-45 43 -45 106zM350 317q0 -55 42 -88q41 -32 114 -32q113 0 178 64q66 65 68 173v21h-211q-91 0 -141 -36t-50 -102zM629 1329 q0 63 44 107q43 43 109 43q67 0 111 -43q45 -43 45 -107q0 -63 -45 -106q-44 -43 -111 -43q-66 0 -109 43q-44 44 -44 106z" />
<glyph unicode="&#xe5;" horiz-adv-x="1148" d="M59 297q0 168 124 259t360 91h209v51q0 71 -54 114q-52 42 -143 42q-79 0 -131 -35t-62 -94h-278q15 163 143 251q130 89 342 89q225 0 345 -98q122 -99 122 -285v-371q0 -38 17 -53q15 -14 51 -14h33v-244h-148q-99 0 -147.5 43t-46.5 129q-57 -90 -142 -137t-202 -47 q-176 0 -284 81t-108 228zM301 1380q0 103 77 175q78 73 189 73q112 0 190 -73q77 -72 77 -175q0 -104 -77 -176q-75 -71 -190 -71q-114 0 -189 71q-77 72 -77 176zM350 317q0 -55 42 -88q41 -32 114 -32q113 0 178 64q66 65 68 173v21h-211q-91 0 -141 -36t-50 -102z M449 1380q0 -53 33 -86q34 -34 85 -34t85 34t34 86q0 51 -34 85t-85 34t-85 -34q-33 -33 -33 -85z" />
<glyph unicode="&#xe6;" horiz-adv-x="1863" d="M59 297q0 163 124 248q125 86 360 86h209v67q0 71 -54 114q-52 42 -143 42q-79 0 -131 -35t-62 -94h-278q15 163 143 251q130 89 342 89q117 0 215 -37q100 -38 152 -106q62 68 149 106q84 37 189 37q155 0 275 -63q121 -63 188 -177q67 -113 67 -266q0 -52 -8 -98h-762 v-8q11 -118 73 -182q63 -64 175 -64q85 0 144 38q58 37 79 111h285q-16 -103 -80 -188q-63 -84 -168 -132t-239 -48q-142 0 -251 50q-107 49 -173 144q-71 -98 -173 -146t-241 -48q-178 0 -291 82q-115 83 -115 227zM350 317q0 -55 42 -88q41 -32 114 -32q114 0 179 61 q67 62 67 164v24h-199q-99 0 -150 -32q-53 -33 -53 -97zM1040 649h476q-15 97 -78 149q-62 52 -162 52q-94 0 -159 -54t-77 -147z" />
<glyph unicode="&#xe7;" horiz-adv-x="1167" d="M59 526q0 161 67 284t190 188q126 67 288 67q210 0 344 -108q134 -109 164 -298h-299q-18 77 -74 124q-55 46 -137 46q-112 0 -180 -84q-68 -85 -68 -219t68 -219q68 -84 180 -84q82 0 140 47q56 46 73 129h297q-27 -173 -139 -281q-113 -108 -295 -126l-14 -53h34 q88 0 137 -42q50 -42 50 -116q0 -87 -61 -139t-162 -52h-244v142h188q60 0 60 51q0 21 -17 33t-43 12h-121l41 164q-218 23 -342 166q-125 145 -125 368z" />
<glyph unicode="&#xe8;" horiz-adv-x="1189" d="M59 524q0 163 67 286q66 122 186 188q122 67 278 67q160 0 281 -63q123 -64 191 -176q70 -115 71 -267q0 -46 -9 -98h-764v-8q11 -115 74 -181q62 -65 174 -65q88 0 147 38q58 37 76 111h285q-16 -103 -80 -188q-63 -84 -168 -132t-239 -48q-178 0 -304 65 q-128 66 -197 188t-69 283zM217 1454h330l143 -295h-217zM367 649h477q-15 97 -79 149t-163 52q-94 0 -159 -54q-64 -53 -76 -147z" />
<glyph unicode="&#xe9;" horiz-adv-x="1189" d="M59 524q0 163 67 286q66 122 186 188q122 67 278 67q160 0 281 -63q123 -64 191 -176q70 -115 71 -267q0 -46 -9 -98h-764v-8q11 -115 74 -181q62 -65 174 -65q88 0 147 38q58 37 76 111h285q-16 -103 -80 -188q-63 -84 -168 -132t-239 -48q-178 0 -304 65 q-128 66 -197 188t-69 283zM367 649h477q-15 97 -79 149t-163 52q-94 0 -159 -54q-64 -53 -76 -147zM487 1165l150 289h330l-269 -289h-211z" />
<glyph unicode="&#xea;" horiz-adv-x="1189" d="M59 524q0 163 67 286q66 122 186 188q122 67 278 67q160 0 281 -63q123 -64 191 -176q70 -115 71 -267q0 -46 -9 -98h-764v-8q11 -115 74 -181q62 -65 174 -65q88 0 147 38q58 37 76 111h285q-16 -103 -80 -188q-63 -84 -168 -132t-239 -48q-178 0 -304 65 q-128 66 -197 188t-69 283zM197 1163l262 291h258l262 -291h-266l-125 121l-127 -121h-264zM367 649h477q-15 97 -79 149t-163 52q-94 0 -159 -54q-64 -53 -76 -147z" />
<glyph unicode="&#xeb;" horiz-adv-x="1189" d="M59 524q0 163 67 286q66 122 186 188q122 67 278 67q160 0 281 -63q123 -64 191 -176q70 -115 71 -267q0 -46 -9 -98h-764v-8q11 -115 74 -181q62 -65 174 -65q88 0 147 38q58 37 76 111h285q-16 -103 -80 -188q-63 -84 -168 -132t-239 -48q-178 0 -304 65 q-128 66 -197 188t-69 283zM217 1329q0 63 45 107q44 43 111 43q66 0 109 -43q44 -44 44 -107q0 -62 -44 -106q-43 -43 -109 -43q-67 0 -111 43q-45 43 -45 106zM367 649h477q-15 97 -79 149t-163 52q-94 0 -159 -54q-64 -53 -76 -147zM649 1329q0 63 44 107q43 43 110 43 q66 0 110 -43q45 -43 45 -107q0 -63 -45 -106q-44 -43 -110 -43q-67 0 -110 43q-44 44 -44 106z" />
<glyph unicode="&#xec;" horiz-adv-x="489" d="M-125 1454h330l143 -295h-217zM100 0v1053h291v-1053h-291z" />
<glyph unicode="&#xed;" horiz-adv-x="489" d="M100 0v1053h291v-1053h-291zM145 1165l150 289h330l-269 -289h-211z" />
<glyph unicode="&#xee;" horiz-adv-x="489" d="M-145 1163l262 291h258l262 -291h-266l-125 121l-127 -121h-264zM100 0v1053h291v-1053h-291z" />
<glyph unicode="&#xef;" horiz-adv-x="489" d="M-125 1329q0 63 45 107q44 43 111 43q66 0 109 -43q44 -44 44 -107q0 -62 -44 -106q-43 -43 -109 -43q-67 0 -111 43q-45 43 -45 106zM100 0v1053h291v-1053h-291zM307 1329q0 63 44 107q43 43 110 43q66 0 110 -43q45 -43 45 -107q0 -63 -45 -106q-44 -43 -110 -43 q-67 0 -110 43q-44 44 -44 106z" />
<glyph unicode="&#xf0;" horiz-adv-x="1241" d="M59 473q0 147 68 250t176 154t234 51q86 0 155 -24q73 -25 148 -83q-62 142 -219 266l-234 -137l-92 156l156 92q-60 35 -197 100l164 148q123 -45 254 -119l229 135l92 -155l-159 -95q153 -124 240 -288t87 -365q0 -163 -61 -291t-188 -205q-124 -75 -310 -75 q-163 0 -286 62q-125 63 -190 173q-67 113 -67 250zM354 471q0 -113 69 -182q70 -70 179 -70q119 0 191 72q71 71 71 188q0 113 -73 180q-74 68 -189 68q-110 0 -179 -72t-69 -184z" />
<glyph unicode="&#xf1;" horiz-adv-x="1208" d="M100 0v1053h252l27 -131q56 68 133 105q79 38 193 38q183 0 303 -115q118 -114 118 -379v-571h-288v555q0 272 -213 272q-114 0 -174 -75q-62 -77 -62 -213v-539h-289zM338 1196v41q0 94 54 157q53 62 140 62q45 0 72 -13q28 -13 62 -38q27 -21 40 -28q18 -9 39 -9 q32 0 50 23t18 57h168v-43q0 -95 -55 -157t-140 -62q-46 0 -74 14q-33 17 -63 41q-28 21 -40 27q-16 8 -34 8q-31 0 -50 -24q-19 -23 -19 -56h-168z" />
<glyph unicode="&#xf2;" horiz-adv-x="1228" d="M59 526q0 160 69 283t195 189q128 67 291 67q164 0 292 -67q126 -66 195 -189q68 -121 68 -283q0 -163 -68 -283q-70 -124 -195 -189q-126 -66 -292 -66q-165 0 -291 66q-125 66 -195 190q-69 123 -69 282zM244 1454h329l144 -295h-217zM354 526q0 -134 71 -219 q71 -84 189 -84q122 0 192 84q71 85 71 219t-71 219q-70 84 -192 84q-118 0 -189 -84q-71 -85 -71 -219z" />
<glyph unicode="&#xf3;" horiz-adv-x="1228" d="M59 526q0 160 69 283t195 189q128 67 291 67q164 0 292 -67q126 -66 195 -189q68 -121 68 -283q0 -163 -68 -283q-70 -124 -195 -189q-126 -66 -292 -66q-165 0 -291 66q-125 66 -195 190q-69 123 -69 282zM354 526q0 -134 71 -219q71 -84 189 -84q122 0 192 84 q71 85 71 219t-71 219q-70 84 -192 84q-118 0 -189 -84q-71 -85 -71 -219zM514 1165l150 289h329l-268 -289h-211z" />
<glyph unicode="&#xf4;" horiz-adv-x="1228" d="M59 526q0 160 69 283t195 189q128 67 291 67q164 0 292 -67q126 -66 195 -189q68 -121 68 -283q0 -163 -68 -283q-70 -124 -195 -189q-126 -66 -292 -66q-165 0 -291 66q-125 66 -195 190q-69 123 -69 282zM223 1163l262 291h258l263 -291h-267l-125 121l-127 -121h-264z M354 526q0 -134 71 -219q71 -84 189 -84q122 0 192 84q71 85 71 219t-71 219q-70 84 -192 84q-118 0 -189 -84q-71 -85 -71 -219z" />
<glyph unicode="&#xf5;" horiz-adv-x="1228" d="M59 526q0 160 69 283t195 189q128 67 291 67q164 0 292 -67q126 -66 195 -189q68 -121 68 -283q0 -163 -68 -283q-70 -124 -195 -189q-126 -66 -292 -66q-165 0 -291 66q-125 66 -195 190q-69 123 -69 282zM293 1196v41q0 94 54 157q53 62 140 62q45 0 72 -13 q28 -13 62 -38q28 -23 39 -28q18 -9 40 -9q32 0 50 23t18 57h168v-43q0 -95 -55 -157t-140 -62q-46 0 -74 14q-33 17 -63 41q-28 21 -40 27q-16 8 -34 8q-30 0 -50 -24q-19 -23 -19 -56h-168zM354 526q0 -134 71 -219q71 -84 189 -84q122 0 192 84q71 85 71 219t-71 219 q-70 84 -192 84q-118 0 -189 -84q-71 -85 -71 -219z" />
<glyph unicode="&#xf6;" horiz-adv-x="1228" d="M59 526q0 160 69 283t195 189q128 67 291 67q164 0 292 -67q126 -66 195 -189q68 -121 68 -283q0 -163 -68 -283q-70 -124 -195 -189q-126 -66 -292 -66q-165 0 -291 66q-125 66 -195 190q-69 123 -69 282zM244 1329q0 63 45 107q44 43 110 43q67 0 110 -43 q44 -44 44 -107q0 -62 -44 -106q-43 -43 -110 -43q-66 0 -110 43q-45 43 -45 106zM354 526q0 -134 71 -219q71 -84 189 -84q122 0 192 84q71 85 71 219t-71 219q-70 84 -192 84q-118 0 -189 -84q-71 -85 -71 -219zM676 1329q0 63 44 107q43 43 109 43q67 0 111 -43 q45 -43 45 -107q0 -63 -45 -106q-44 -43 -111 -43q-66 0 -109 43q-44 44 -44 106z" />
<glyph unicode="&#xf7;" horiz-adv-x="1054" d="M86 461v244h883v-244h-883zM360 213q0 72 49 119t119 47q71 0 120 -47q48 -46 48 -119q0 -71 -48 -117q-49 -47 -120 -47q-70 0 -119 47t-49 117zM360 973q0 72 49 119t119 47q71 0 120 -47q48 -46 48 -119q0 -71 -48 -117q-49 -47 -120 -47q-70 0 -119 47t-49 117z" />
<glyph unicode="&#xf8;" horiz-adv-x="1228" d="M59 121l91 86q-91 132 -91 317q0 162 69 284q69 121 194 189t290 68q196 0 330 -88l92 88l135 -133l-90 -88q90 -135 90 -320q0 -161 -68 -281q-70 -124 -195 -189q-126 -66 -294 -66q-193 0 -327 88l-90 -88zM342 524q0 -57 14 -114l402 387q-61 41 -146 41 q-125 0 -197 -87q-73 -88 -73 -227zM469 254q62 -39 143 -39q125 0 199 86t74 223q0 60 -17 117z" />
<glyph unicode="&#xf9;" horiz-adv-x="1191" d="M82 481v572h289v-537q0 -143 50 -216t154 -73q108 0 168 81t60 227v518h289v-1053h-256l-27 127q-53 -63 -129 -102q-73 -37 -180 -37q-185 0 -301 113q-117 114 -117 380zM217 1454h330l143 -295h-217z" />
<glyph unicode="&#xfa;" horiz-adv-x="1191" d="M82 481v572h289v-537q0 -143 50 -216t154 -73q108 0 168 81t60 227v518h289v-1053h-256l-27 127q-53 -63 -129 -102q-73 -37 -180 -37q-185 0 -301 113q-117 114 -117 380zM487 1165l150 289h330l-269 -289h-211z" />
<glyph unicode="&#xfb;" horiz-adv-x="1191" d="M82 481v572h289v-537q0 -143 50 -216t154 -73q108 0 168 81t60 227v518h289v-1053h-256l-27 127q-53 -63 -129 -102q-73 -37 -180 -37q-185 0 -301 113q-117 114 -117 380zM197 1163l262 291h258l262 -291h-266l-125 121l-127 -121h-264z" />
<glyph unicode="&#xfc;" horiz-adv-x="1191" d="M82 481v572h289v-537q0 -143 50 -216t154 -73q108 0 168 81t60 227v518h289v-1053h-256l-27 127q-53 -63 -129 -102q-73 -37 -180 -37q-185 0 -301 113q-117 114 -117 380zM217 1329q0 63 45 107q44 43 111 43q66 0 109 -43q44 -44 44 -107q0 -62 -44 -106 q-43 -43 -109 -43q-67 0 -111 43q-45 43 -45 106zM649 1329q0 63 44 107q43 43 110 43q66 0 110 -43q45 -43 45 -107q0 -63 -45 -106q-44 -43 -110 -43q-67 0 -110 43q-44 44 -44 106z" />
<glyph unicode="&#xfd;" horiz-adv-x="1118" d="M-2 1053h307l256 -756l250 756h309l-467 -1203q-40 -103 -69 -150q-34 -55 -83 -82q-51 -28 -130 -28h-281v244h160q55 0 80 19q24 18 47 71l26 70zM455 1165l149 289h330l-268 -289h-211z" />
<glyph unicode="&#xfe;" horiz-adv-x="1253" d="M100 -410v1844h279v-529q56 74 137 117q82 43 193 43q139 0 250 -67q110 -66 173 -189q62 -121 62 -285q0 -162 -62 -282q-63 -122 -174 -188t-251 -66q-107 0 -187 39t-131 108v-545h-289zM385 528q0 -136 70 -221q69 -84 186 -84q116 0 188 85q72 86 72 220 q0 136 -72 218q-72 83 -188 83q-117 0 -186 -83q-70 -84 -70 -218z" />
<glyph unicode="&#xff;" horiz-adv-x="1118" d="M-2 1053h307l256 -756l250 756h309l-467 -1203q-40 -103 -69 -150q-34 -55 -83 -82q-51 -28 -130 -28h-281v244h160q55 0 80 19q24 18 47 71l26 70zM184 1329q0 63 45 107q44 43 111 43t110 -43q44 -44 44 -107q0 -62 -44 -106q-43 -43 -110 -43t-111 43q-45 43 -45 106z M616 1329q0 63 44 107q43 43 110 43t111 -43q45 -43 45 -107q0 -63 -45 -106q-44 -43 -111 -43t-110 43q-44 44 -44 106z" />
<glyph unicode="&#x152;" horiz-adv-x="2283" d="M66 717q0 207 93 374t261 261q167 94 383 94q277 0 434 -168v156h963v-265h-656v-321h533v-252h-533v-332h678v-264h-985v156q-157 -168 -434 -168q-216 0 -383 94q-168 94 -261 261t-93 374zM379 717q0 -137 52 -242q53 -107 150 -167t226 -60q126 0 224 60 q99 61 151 167q53 108 53 242q0 133 -53 241q-52 106 -151 167t-224 61q-127 0 -226 -61q-97 -60 -150 -167q-52 -105 -52 -241z" />
<glyph unicode="&#x153;" horiz-adv-x="1978" d="M59 526q0 162 69 284t194 188q126 67 290 67q125 0 227 -42t171 -120q67 79 158 120q93 42 208 42q160 0 282 -63t191 -177q70 -116 70 -266q0 -52 -8 -98h-764v-8q11 -118 75 -182t175 -64q87 0 145 38t76 111h287q-16 -103 -80 -188q-63 -84 -168 -132t-240 -48 q-133 0 -238 42q-108 43 -175 119q-67 -76 -170 -119q-100 -42 -222 -42q-166 0 -290 66t-194 189q-69 121 -69 283zM354 526q0 -138 69 -220q69 -83 189 -83q121 0 192 83t71 218q0 136 -71 221q-70 84 -192 84q-119 0 -188 -84q-70 -85 -70 -219zM1153 649h477 q-15 97 -78 149q-62 52 -163 52q-95 0 -159 -54q-65 -54 -77 -147z" />
<glyph unicode="&#x178;" horiz-adv-x="1359" d="M0 1434h358l322 -588l338 588h342l-526 -902v-532h-308v532zM317 1710q0 64 45 107q44 43 111 43t110 -43q44 -44 44 -107q0 -62 -44 -106q-43 -43 -110 -43t-111 43q-45 44 -45 106zM750 1710q0 63 44 107q43 43 109 43q67 0 111 -43q45 -43 45 -107q0 -62 -45 -106 q-44 -43 -111 -43q-66 0 -109 43q-44 44 -44 106z" />
<glyph unicode="&#x2c6;" horiz-adv-x="819" d="M18 1143l263 291h258l262 -291h-266l-125 121l-127 -121h-265z" />
<glyph unicode="&#x2dc;" horiz-adv-x="819" d="M88 1176v41q0 93 54 156t141 63q41 0 71 -14q28 -13 62 -38q23 -19 40 -27q18 -9 40 -9q31 0 49 22t18 57h168v-43q0 -94 -55 -156q-56 -63 -139 -63q-45 0 -75 15q-33 17 -63 41q-24 18 -40 26t-33 8q-32 0 -51 -23t-19 -56h-168z" />
<glyph unicode="&#x2000;" horiz-adv-x="930" />
<glyph unicode="&#x2001;" horiz-adv-x="1860" />
<glyph unicode="&#x2002;" horiz-adv-x="930" />
<glyph unicode="&#x2003;" horiz-adv-x="1860" />
<glyph unicode="&#x2004;" horiz-adv-x="620" />
<glyph unicode="&#x2005;" horiz-adv-x="465" />
<glyph unicode="&#x2006;" horiz-adv-x="310" />
<glyph unicode="&#x2007;" horiz-adv-x="310" />
<glyph unicode="&#x2008;" horiz-adv-x="232" />
<glyph unicode="&#x2009;" horiz-adv-x="372" />
<glyph unicode="&#x200a;" horiz-adv-x="103" />
<glyph unicode="&#x2010;" horiz-adv-x="880" d="M82 465v233h717v-233h-717z" />
<glyph unicode="&#x2011;" horiz-adv-x="880" d="M82 465v233h717v-233h-717z" />
<glyph unicode="&#x2012;" horiz-adv-x="880" d="M82 465v233h717v-233h-717z" />
<glyph unicode="&#x2013;" horiz-adv-x="1228" d="M82 465v233h1065v-233h-1065z" />
<glyph unicode="&#x2014;" horiz-adv-x="1894" d="M82 467v233h1730v-233h-1730z" />
<glyph unicode="&#x2018;" d="M59 1094q0 169 103 260t280 92v-150q-94 -1 -144 -41q-50 -39 -50 -98q0 -19 2 -29q34 17 65 17q60 0 100 -40t40 -116q0 -68 -53 -116q-52 -48 -128 -48q-95 0 -155 75t-60 194z" />
<glyph unicode="&#x2019;" d="M53 1282q0 68 52 116q53 48 128 48q96 0 156 -75t60 -193q0 -169 -103 -260q-104 -92 -280 -93v150q94 1 144 41q50 39 50 98q0 19 -2 29q-34 -17 -65 -17q-60 0 -100 40t-40 116z" />
<glyph unicode="&#x201a;" d="M53 160q0 67 52 115q54 49 128 49q96 0 156 -75t60 -194q0 -169 -103 -260t-280 -92v150q94 1 144 41q50 39 50 98q0 18 -2 28q-32 -16 -65 -16q-60 0 -100 40t-40 116z" />
<glyph unicode="&#x201c;" horiz-adv-x="950" d="M59 1094q0 169 103 260t280 92v-150q-94 -1 -144 -41q-50 -39 -50 -98q0 -19 2 -29q34 17 65 17q60 0 100 -40t40 -116q0 -68 -53 -116q-52 -48 -128 -48q-95 0 -155 75t-60 194zM504 1094q0 170 102 260q103 91 281 92v-150q-95 -2 -145 -41t-50 -98q0 -19 2 -29 q34 17 66 17q59 0 99 -40t40 -116q0 -68 -52 -116q-53 -48 -128 -48q-96 0 -156 75q-59 74 -59 194z" />
<glyph unicode="&#x201d;" horiz-adv-x="950" d="M53 1282q0 68 52 116q53 48 128 48q96 0 156 -75t60 -193q0 -169 -103 -260q-104 -92 -280 -93v150q94 1 144 41q50 39 50 98q0 19 -2 29q-34 -17 -65 -17q-60 0 -100 40t-40 116zM498 1282q0 68 52 116t128 48q96 0 156 -75q59 -74 59 -193q0 -171 -102 -261 q-103 -91 -281 -92v150q94 1 144 41q51 40 51 98q0 14 -3 29q-34 -17 -65 -17q-59 0 -99 40t-40 116z" />
<glyph unicode="&#x201e;" horiz-adv-x="950" d="M53 160q0 67 52 115q54 49 128 49q96 0 156 -75t60 -194q0 -169 -103 -260t-280 -92v150q94 1 144 41q50 39 50 98q0 18 -2 28q-32 -16 -65 -16q-60 0 -100 40t-40 116zM498 160q0 67 52 115q54 49 128 49q96 0 156 -75q59 -74 59 -194q0 -170 -102 -260 q-103 -91 -281 -92v150q95 2 144 40q51 40 51 99q0 13 -3 28q-32 -16 -65 -16q-59 0 -99 40t-40 116z" />
<glyph unicode="&#x2022;" horiz-adv-x="921" d="M121 686q0 95 44 171q43 75 122 117q78 42 174 42t174 -42q79 -42 122 -117q44 -76 44 -171t-44 -172q-43 -75 -122 -118q-78 -42 -174 -42t-174 42q-79 43 -122 118q-44 77 -44 172z" />
<glyph unicode="&#x2026;" horiz-adv-x="1474" d="M80 158q0 76 49 124t125 48q75 0 124 -49q50 -50 50 -123q0 -74 -50 -122t-124 -48q-76 0 -125 48t-49 122zM563 158q0 76 49 124q50 48 125 48t124 -49q50 -50 50 -123q0 -74 -50 -122q-49 -48 -124 -48t-125 48q-49 48 -49 122zM1047 158q0 76 49 124q50 48 125 48 t124 -49q50 -50 50 -123q0 -74 -50 -122q-49 -48 -124 -48t-125 48q-49 48 -49 122z" />
<glyph unicode="&#x202f;" horiz-adv-x="372" />
<glyph unicode="&#x2039;" horiz-adv-x="731" d="M61 526l312 527h291l-308 -527l308 -526h-291z" />
<glyph unicode="&#x203a;" horiz-adv-x="731" d="M68 0l307 526l-307 527h290l312 -527l-312 -526h-290z" />
<glyph unicode="&#x205f;" horiz-adv-x="465" />
<glyph unicode="&#x20ac;" horiz-adv-x="1384" d="M43 489v179h127q-2 14 -2 51q0 21 2 43h-127v176h139q41 237 193 373q151 135 381 135q256 0 407 -142t168 -391h-301q-16 133 -84 207t-178 74q-107 0 -180 -67q-72 -66 -99 -189h326l-33 -176h-311v-41q0 -37 2 -53h289l-35 -179h-238q28 -120 101 -185q71 -64 178 -64 q111 0 178 73q68 73 84 207h301q-17 -248 -168 -390t-405 -142q-231 0 -383 133q-154 135 -193 368h-139z" />
<glyph unicode="&#x2122;" horiz-adv-x="1460" d="M92 1296v138h490v-138h-170v-411h-148v411h-172zM643 885v549h209l152 -359l143 359h205v-549h-146v354l-153 -354h-111l-154 354v-354h-145z" />
<glyph unicode="&#x25fc;" horiz-adv-x="1054" d="M0 0v1055h1055v-1055h-1055z" />
<glyph unicode="&#xfb02;" horiz-adv-x="1216" d="M-6 809v244h174v92q0 139 80 214t237 75h236v-246h-178q-45 0 -66 -21q-20 -20 -20 -65v-49h264v-244h-264v-809h-289v809h-174zM827 0v1434h289v-1434h-289z" />
</font>
</defs>
</svg>
