<?xml version="1.0" standalone="no"?>
<!DOCTYPE svg PUBLIC "-//W3C//DTD SVG 1.1//EN" "http://www.w3.org/Graphics/SVG/1.1/DTD/svg11.dtd" >
<svg xmlns="http://www.w3.org/2000/svg" xmlns:xlink="http://www.w3.org/1999/xlink" version="1.1">
<metadata></metadata>
<defs>
<font id="aeonikmedium" horiz-adv-x="458" >
<font-face units-per-em="2048" ascent="1638" descent="-410" />
<missing-glyph horiz-adv-x="524" />
<glyph unicode="&#xfb01;" horiz-adv-x="1134" d="M-6 854v195h182v104q0 139 72 210q73 71 221 71h186v-195h-155q-52 0 -77 -25q-24 -24 -24 -77v-88h629v-1049h-223v854h-406v-854h-223v854h-182zM782 1335q0 59 39 96q38 37 97 37q58 0 95 -37q38 -38 38 -96q0 -57 -38 -95t-95 -38q-60 0 -98 38t-38 95z" />
<glyph horiz-adv-x="0" />
<glyph horiz-adv-x="682" />
<glyph unicode=" "  horiz-adv-x="524" />
<glyph unicode="&#x09;" horiz-adv-x="524" />
<glyph unicode="&#xa0;" horiz-adv-x="524" />
<glyph unicode="!" horiz-adv-x="546" d="M131 127q0 61 41 100q40 39 102 39t102 -39t40 -100t-40 -100t-102 -39t-102 39q-41 39 -41 100zM156 1434h237l-35 -998h-168z" />
<glyph unicode="&#x22;" horiz-adv-x="794" d="M86 1325q0 50 32 85q31 34 89 34q60 0 90 -33q31 -34 31 -84q0 -14 -2 -24l-47 -392h-144l-47 392q-2 10 -2 22zM469 1325q0 50 32 85q31 34 89 34q60 0 90 -33q31 -34 31 -84q0 -14 -2 -24l-47 -392h-144l-47 392q-2 10 -2 22z" />
<glyph unicode="#" horiz-adv-x="1169" d="M63 319v185h199l33 233h-189v185h216l49 319h182l-49 -319h248l49 319h182l-49 -319h172v-185h-199l-35 -233h189v-185h-215l-49 -319h-183l50 319h-246l-49 -319h-183l50 319h-173zM444 504h246l35 233h-248z" />
<glyph unicode="$" horiz-adv-x="1259" d="M78 471l231 -4q10 -127 104 -204t242 -77q131 0 212 57t81 156q0 72 -44 114q-44 43 -120 65q-81 24 -213 47q-141 24 -238 64q-100 41 -162 122t-62 215q0 169 117 282q118 113 313 136v211h198v-217q185 -30 300 -149t122 -285h-231q-12 110 -97 178q-83 67 -213 67 q-124 0 -199 -54t-75 -153q0 -69 44 -110t118 -62q72 -21 211 -45q136 -23 239 -65q100 -40 164 -121t64 -211q0 -115 -57 -208q-58 -95 -157 -153q-102 -60 -233 -75v-211h-198v215q-208 28 -333 158q-123 128 -128 317z" />
<glyph unicode="%" horiz-adv-x="1873" d="M102 1096q0 98 48 180q47 80 131 125t188 45t188 -45t131 -125q48 -82 48 -180t-48 -180q-45 -77 -131 -123q-84 -45 -188 -45t-188 45q-86 46 -131 123q-48 82 -48 180zM291 1096q0 -78 51 -130q51 -53 127 -53q78 0 129 53q51 52 51 130t-51 130t-129 52 q-76 0 -127 -52t-51 -130zM340 0l979 1434h219l-981 -1434h-217zM1038 336q0 100 47 180q46 79 132 125q84 45 188 45t188 -45t131 -125q48 -82 48 -180q0 -96 -48 -178q-47 -80 -131 -125t-188 -45t-188 45q-86 46 -132 125q-47 80 -47 178zM1225 336q0 -78 51 -129 t129 -51q79 0 128 51q50 52 50 129q0 78 -51 131t-127 53q-75 0 -128 -53q-52 -52 -52 -131z" />
<glyph unicode="&#x26;" horiz-adv-x="1574" d="M113 365q0 118 72 226q70 106 237 179q-72 90 -100 161q-27 69 -27 161q0 101 55 181t152 127q95 46 217 46q103 0 185 -42q83 -42 131 -116t48 -166q0 -122 -75 -218q-76 -97 -260 -173l262 -285l213 328h221l-311 -463l65 -71q28 -31 53 -41q28 -11 66 -11h139v-188 h-170q-82 0 -140 19q-61 20 -106 71l-55 62q-173 -164 -395 -164q-211 0 -343 98q-134 99 -134 279zM340 391q0 -105 72 -163q71 -58 188 -58q143 0 266 111l-336 366l-4 4q-101 -52 -144 -113q-42 -60 -42 -147zM516 1098q0 -65 26 -117q25 -50 93 -127q233 99 233 262 q0 71 -44 117q-44 45 -117 45q-85 0 -138 -51t-53 -129z" />
<glyph unicode="'" horiz-adv-x="413" d="M86 1325q0 50 32 85q31 34 89 34q60 0 90 -33q31 -34 31 -84q0 -14 -2 -24l-47 -392h-144l-47 392q-2 10 -2 22z" />
<glyph unicode="(" horiz-adv-x="647" d="M109 512q0 263 77 475q79 216 248 447h232q-187 -254 -263 -458q-75 -200 -75 -464q0 -260 75 -460q76 -203 263 -462h-232q-170 232 -248 449q-77 215 -77 473z" />
<glyph unicode=")" horiz-adv-x="647" d="M-4 -410q185 257 262 462q76 203 76 460q0 261 -76 464q-77 206 -262 458h231q169 -231 248 -447q78 -214 78 -475q0 -256 -78 -473t-248 -449h-231z" />
<glyph unicode="*" horiz-adv-x="878" d="M84 1149l61 143l224 -106l-7 250h152l-6 -252l225 108l62 -145l-244 -90l168 -191l-119 -102l-164 215l-162 -213l-116 102l168 191z" />
<glyph unicode="+" horiz-adv-x="1064" d="M104 492v186h326v346h203v-346h328v-186h-328v-347h-203v347h-326z" />
<glyph unicode="," d="M55 125q0 59 43 99t113 40q82 0 133 -67t51 -168q0 -148 -88 -230q-89 -83 -241 -84v119q89 1 135 47q45 45 45 107q0 16 -2 26q-26 -20 -68 -20q-53 0 -87 34t-34 97z" />
<glyph unicode="-" horiz-adv-x="888" d="M96 492v180h697v-180h-697z" />
<glyph unicode="." d="M88 127q0 61 40 100t101 39q63 0 103 -39q41 -39 41 -100t-41 -100q-40 -39 -103 -39q-61 0 -101 39t-40 100z" />
<glyph unicode="/" horiz-adv-x="675" d="M-68 -410l600 1844h211l-600 -1844h-211z" />
<glyph unicode="0" horiz-adv-x="1300" d="M86 684v66q0 203 71 363q71 159 199 246q129 87 295 87q165 0 292 -87q128 -87 200 -246q71 -157 71 -363v-66q0 -215 -70 -371t-199 -241q-127 -84 -294 -84q-169 0 -296 84q-128 84 -198 241q-71 159 -71 371zM313 692q0 -235 93 -371q93 -135 245 -135t245 135 q91 133 91 371v49q0 239 -91 372q-92 134 -245 134t-245 -134q-93 -136 -93 -372v-49z" />
<glyph unicode="1" horiz-adv-x="704" d="M12 950v193h226q50 0 77 37q27 38 27 96v158h221v-1434h-225v969q-32 -19 -90 -19h-236z" />
<glyph unicode="2" horiz-adv-x="1167" d="M72 0v182l551 469q110 89 169 172q56 78 56 174q0 121 -74 189q-73 67 -201 67q-123 0 -197 -78q-75 -79 -75 -210v-27h-227v39q0 137 62 242t175 167t262 62q239 0 373 -120q133 -120 133 -320q0 -148 -75 -255q-76 -109 -228 -237l-381 -317h692v-199h-1015z" />
<glyph unicode="3" horiz-adv-x="1239" d="M80 459h227q1 -131 90 -207q88 -76 232 -76q127 0 210 66t83 174q0 102 -81 161q-80 58 -231 58h-131v188h117q140 0 216 62q75 61 75 164q0 95 -74 152q-72 56 -190 56q-123 0 -202 -64q-80 -65 -81 -175h-223q2 199 137 313q136 115 360 115q155 0 270 -47 q114 -46 174 -134q60 -87 60 -200q0 -129 -75 -212q-77 -84 -201 -112q135 -27 222 -113q89 -87 89 -229q0 -122 -67 -216q-66 -93 -188 -144t-284 -51q-246 0 -390 126t-144 345z" />
<glyph unicode="4" horiz-adv-x="1263" d="M45 332v192l682 910h274v-906h218v-196h-218v-332h-223v332h-733zM272 528h506v672z" />
<glyph unicode="5" horiz-adv-x="1212" d="M90 453h225q12 -116 97 -195q84 -78 211 -78q75 0 142 35t107 102q41 68 41 164q0 133 -78 215q-79 84 -210 84q-86 0 -170 -39q-85 -39 -119 -137l-219 4l43 826h893v-199h-684l-27 -399q62 68 147 99q87 32 181 32q133 0 242 -62q108 -61 169 -172q62 -112 62 -252 q0 -153 -70 -266q-69 -111 -188 -168t-262 -57q-158 0 -276 61q-116 60 -183 167q-66 106 -74 235z" />
<glyph unicode="6" horiz-adv-x="1249" d="M86 707q0 229 68 397q67 166 194 254t303 88q198 0 331 -109q132 -108 159 -297h-226q-23 103 -95 160t-185 57q-162 0 -252 -132t-90 -357v-55q0 1 2 5.5t3 7.5q3 9 11 22q49 95 147 151q97 55 224 55q141 0 252 -60t171 -170q60 -109 60 -253q0 -140 -64 -250 t-183 -172q-118 -61 -267 -61q-145 0 -258 60q-112 60 -184 171q-60 95 -90 219q-31 129 -31 269zM358 469q0 -130 80 -213q79 -82 209 -82q131 0 211 83t80 214t-78 214t-207 83q-130 0 -213 -83q-82 -82 -82 -216z" />
<glyph unicode="7" horiz-adv-x="1103" d="M25 1235v199h1030v-152l-672 -1282h-246l668 1235h-780z" />
<glyph unicode="8" horiz-adv-x="1234" d="M86 387q0 146 86 238q85 91 221 120q-114 27 -190 112t-76 210q0 115 59 199q61 86 171 134q111 48 261 48q151 0 262 -48q110 -48 171 -134q59 -84 59 -199q0 -120 -78 -209q-79 -89 -194 -113q137 -27 225 -118t88 -240q0 -115 -64 -208q-63 -91 -183 -141 q-121 -50 -286 -50q-164 0 -285 50q-120 50 -183 141q-64 93 -64 208zM311 399q0 -107 87 -174q86 -67 220 -67q135 0 220 67q86 68 86 174q0 105 -87 175q-88 71 -219 71q-132 0 -220 -71q-87 -70 -87 -175zM348 1061q0 -96 76 -156q75 -59 194 -59t194 60t75 155 q0 94 -75 154q-76 61 -194 61q-116 0 -194 -61q-76 -60 -76 -154z" />
<glyph unicode="9" horiz-adv-x="1249" d="M86 963q0 138 65 248q64 109 181 172t268 63q144 0 254 -58q109 -58 182 -165q61 -93 94 -222q33 -128 33 -274q0 -350 -148 -544q-149 -195 -417 -195q-206 0 -336 108q-131 108 -158 297h226q24 -100 95 -159q70 -58 185 -58q164 0 254 133t90 359v55q-18 -38 -22 -43 q-50 -92 -144 -144q-95 -53 -219 -53q-143 0 -253 59t-170 167t-60 254zM311 965q0 -131 78 -213t207 -82q131 0 213 82t82 215q0 128 -80 211q-79 82 -209 82q-132 0 -211 -82q-80 -83 -80 -213z" />
<glyph unicode=":" d="M88 127q0 61 40 100t101 39q63 0 103 -39q41 -39 41 -100t-41 -100q-40 -39 -103 -39q-61 0 -101 39t-40 100zM88 870q0 62 40 101t101 39q63 0 103 -39q41 -39 41 -101q0 -61 -41 -100q-40 -39 -103 -39q-61 0 -101 39t-40 100z" />
<glyph unicode=";" d="M55 125q0 59 43 99t113 40q82 0 133 -67t51 -168q0 -148 -88 -230q-89 -83 -241 -84v119q89 1 135 47q45 45 45 107q0 16 -2 26q-26 -20 -68 -20q-53 0 -87 34t-34 97zM80 870q0 62 40 101t101 39q63 0 103 -39q41 -39 41 -101q0 -61 -41 -100q-40 -39 -103 -39 q-61 0 -101 39t-40 100z" />
<glyph unicode="&#x3c;" horiz-adv-x="1064" d="M137 477v209l791 342v-215l-545 -231l545 -232v-215z" />
<glyph unicode="=" horiz-adv-x="1064" d="M125 258v186h815v-186h-815zM125 690v189h815v-189h-815z" />
<glyph unicode="&#x3e;" horiz-adv-x="1064" d="M137 135v215l545 232l-545 231v215l791 -342v-209z" />
<glyph unicode="?" horiz-adv-x="1069" d="M59 965q0 134 59 244t168 173q111 64 257 64q138 0 243 -48q104 -48 161 -133t57 -192q0 -124 -54 -206q-52 -79 -151 -148q-98 -67 -140 -115q-41 -47 -41 -117v-41h-208v66q0 78 27 133q26 53 72 93q43 38 120 87q71 48 109 103q36 52 36 123q0 87 -63 143 q-62 55 -166 55q-120 0 -190 -79t-70 -205h-226zM379 125q0 62 40 99q41 38 101 38q61 0 101 -38q38 -37 38 -99t-38 -99q-40 -38 -101 -38q-60 0 -101 38q-40 37 -40 99z" />
<glyph unicode="@" horiz-adv-x="2009" d="M98 500q0 251 127 456q128 206 344 321q218 116 478 116q248 0 449 -96q196 -94 307 -265q110 -170 110 -385q0 -159 -62 -285q-62 -125 -168 -194q-108 -70 -239 -70q-90 0 -147 45q-56 44 -68 113l-4 29q-39 -85 -126 -134q-90 -51 -194 -51q-96 0 -177 48t-128 138 q-47 89 -47 206q0 131 56 237q57 108 153 171t211 63q107 0 177 -41q67 -40 89 -103l35 127h174l-62 -577q-2 -14 -2 -29q0 -102 101 -102q63 0 120 54q55 52 90 150q34 95 34 211q0 175 -84 308t-240 205q-158 73 -363 73q-207 0 -382 -97q-176 -98 -277 -266 q-102 -170 -102 -372q0 -209 89 -360q88 -149 257 -229q167 -79 397 -79q263 0 461 117l-6 -168q-78 -49 -203 -78q-127 -29 -270 -29q-263 0 -470 101q-206 101 -322 287q-116 187 -116 434zM758 504q0 -111 58 -176q59 -66 149 -66q70 0 128 40q57 39 92 114q34 72 34 170 q0 104 -56 162q-55 57 -145 57q-70 0 -131 -41q-59 -40 -94 -110t-35 -150z" />
<glyph unicode="A" horiz-adv-x="1384" d="M16 0l537 1434h281l534 -1434h-252l-135 354h-588l-133 -354h-244zM459 555h456l-229 625z" />
<glyph unicode="B" horiz-adv-x="1296" d="M131 0v1434h526q235 0 366 -99q130 -99 130 -274q0 -129 -69 -212q-70 -84 -197 -112q321 -55 321 -338q0 -187 -138 -293q-137 -106 -394 -106h-545zM367 199h311q140 0 214 56q75 57 75 157q0 104 -76 161q-78 58 -213 58h-311v-432zM367 825h297q120 0 187 56t67 151 q0 96 -67 151q-66 54 -187 54h-297v-412z" />
<glyph unicode="C" horiz-adv-x="1445" d="M76 717q0 218 85 382q85 165 241 256q155 91 366 91q160 0 292 -62q130 -61 212 -175q81 -113 104 -263h-235q-35 137 -135 215q-101 78 -248 78q-132 0 -234 -67q-101 -66 -153 -184q-54 -122 -54 -271t54 -271q53 -119 153 -185t234 -66q149 0 247 77q99 78 134 215 h235q-23 -152 -103 -264q-81 -113 -210 -174q-128 -61 -293 -61q-210 0 -366 90q-155 90 -241 255q-85 164 -85 384z" />
<glyph unicode="D" horiz-adv-x="1386" d="M131 0v1434h457q218 0 383 -91q164 -90 252 -251t88 -375q0 -211 -88 -374t-252 -253q-163 -90 -383 -90h-457zM367 205h221q231 0 356 138q125 139 125 374t-125 374q-124 138 -356 138h-221v-1024z" />
<glyph unicode="E" horiz-adv-x="1153" d="M131 0v1434h936v-209h-700v-398h577v-202h-577v-416h725v-209h-961z" />
<glyph unicode="F" horiz-adv-x="1095" d="M131 0v1434h916v-209h-680v-416h561v-203h-561v-606h-236z" />
<glyph unicode="G" horiz-adv-x="1531" d="M76 717q0 218 85 382q86 165 242 256q157 91 369 91q248 0 412 -135q162 -134 200 -365h-233q-35 138 -136 215q-102 78 -249 78q-133 0 -237 -67q-100 -65 -156 -184q-56 -120 -56 -271t55 -272q54 -119 155 -184q102 -66 237 -66q173 0 288 94q117 95 124 262v35h-398 v198h623v-784h-178l-25 205q-63 -92 -175 -154q-114 -63 -269 -63q-201 0 -353 91q-154 92 -239 257q-86 167 -86 381z" />
<glyph unicode="H" horiz-adv-x="1398" d="M131 0v1436h236v-605h665v605h236v-1436h-236v623h-665v-623h-236z" />
<glyph unicode="I" horiz-adv-x="497" d="M131 0v1434h236v-1434h-236z" />
<glyph unicode="J" horiz-adv-x="759" d="M49 0v211h168q92 0 134 43q42 44 42 137v1043h236v-1078q0 -172 -93 -264q-94 -92 -266 -92h-221z" />
<glyph unicode="K" horiz-adv-x="1347" d="M131 0v1434h236v-740l657 740h287l-527 -598l566 -836h-285l-449 655l-249 -280v-375h-236z" />
<glyph unicode="L" horiz-adv-x="1032" d="M131 0v1434h236v-1225h616v-209h-852z" />
<glyph unicode="M" horiz-adv-x="1775" d="M131 0v1434h305l459 -1129l451 1129h299v-1434h-228v1055l-430 -1055h-199l-430 1055v-1055h-227z" />
<glyph unicode="N" horiz-adv-x="1406" d="M131 0v1434h215l698 -1016v1016h232v-1434h-215l-699 1016v-1016h-231z" />
<glyph unicode="O" horiz-adv-x="1544" d="M76 717q0 209 88 375q88 165 247 260q158 94 361 94q204 0 362 -94t246 -260t88 -375t-88 -375t-246 -260t-362 -94q-203 0 -361 94q-159 95 -247 260q-88 166 -88 375zM317 717q0 -148 58 -270q57 -120 161 -186q103 -66 236 -66q134 0 237 66t160 186q58 122 58 270 q0 147 -58 269q-57 120 -160 186q-105 67 -237 67q-131 0 -236 -67q-104 -66 -161 -186q-58 -122 -58 -269z" />
<glyph unicode="P" horiz-adv-x="1241" d="M131 0v1434h565q148 0 260 -57q114 -58 174 -159q62 -104 62 -241t-62 -241q-60 -101 -174 -159q-112 -57 -260 -57h-329v-520h-236zM367 725h309q127 0 202 69q74 68 74 183q0 117 -73 184q-74 68 -201 68h-311v-504z" />
<glyph unicode="Q" horiz-adv-x="1554" d="M76 717q0 209 88 375q88 165 247 260q158 94 361 94q204 0 362 -94t246 -260t88 -375q0 -138 -38 -255q-39 -120 -111 -216q39 -39 98 -39h125v-207h-139q-84 0 -132 24q-49 25 -89 76l-6 9q-172 -121 -404 -121q-203 0 -361 94q-159 95 -247 260q-88 166 -88 375z M317 717q0 -148 58 -270q57 -120 161 -186q103 -66 236 -66q155 0 268 88l-30 41q-26 36 -54 53q-26 16 -61 16h-127v205h154q76 0 119 -24q45 -25 83 -76l43 -56q60 118 60 275q0 147 -58 269q-57 120 -160 186q-105 67 -237 67q-131 0 -236 -67q-104 -66 -161 -186 q-58 -122 -58 -269z" />
<glyph unicode="R" horiz-adv-x="1280" d="M131 0v1434h565q150 0 262 -57q115 -58 176 -159q62 -102 62 -241q0 -145 -76 -252q-78 -110 -202 -154l303 -571h-263l-272 520h-319v-520h-236zM367 725h311q127 0 202 69q74 68 74 183t-74 183q-75 69 -202 69h-311v-504z" />
<glyph unicode="S" horiz-adv-x="1259" d="M78 471l231 -4q10 -127 104 -204t242 -77q131 0 212 57t81 156q0 72 -44 114q-44 43 -120 65q-81 24 -213 47q-141 24 -238 64q-100 41 -162 122t-62 215q0 124 64 219q66 98 180 150q117 53 265 53q153 0 275 -57q120 -56 190 -158t76 -229h-231q-12 110 -97 178 q-83 67 -213 67q-124 0 -199 -54t-75 -153q0 -69 44 -110t118 -62q72 -21 211 -45q136 -23 239 -65q100 -40 164 -121t64 -211q0 -126 -68 -227q-67 -100 -188 -157q-119 -56 -275 -56q-171 0 -299 61q-129 61 -201 171q-74 112 -75 251z" />
<glyph unicode="T" horiz-adv-x="1216" d="M49 1225v209h1120v-209h-442v-1225h-235v1225h-443z" />
<glyph unicode="U" horiz-adv-x="1376" d="M123 614v820h235v-832q0 -201 80 -304q79 -101 248 -101q171 0 251 101q81 102 81 304v832h235v-820q0 -308 -144 -467t-423 -159q-276 0 -420 159q-143 158 -143 467z" />
<glyph unicode="V" horiz-adv-x="1308" d="M10 1434h250l395 -1151l400 1151h243l-501 -1434h-283z" />
<glyph unicode="W" horiz-adv-x="2029" d="M39 1434l246 2l305 -1137l319 1135h224l309 -1135l309 1135h240l-410 -1434h-276l-293 1055l-287 -1055h-276z" />
<glyph unicode="X" horiz-adv-x="1343" d="M47 0l479 733l-452 701h280l328 -510l332 510h258l-453 -701l479 -733h-284l-355 541l-356 -541h-256z" />
<glyph unicode="Y" horiz-adv-x="1325" d="M10 1436h277l377 -658l387 658h264l-535 -906v-530h-235v530z" />
<glyph unicode="Z" horiz-adv-x="1263" d="M59 0v162l801 1065h-778v207h1100v-162l-803 -1065h825v-207h-1145z" />
<glyph unicode="[" horiz-adv-x="641" d="M119 -410v1846h493v-197h-286v-1454h286v-195h-493z" />
<glyph unicode="\" horiz-adv-x="675" d="M-68 1434h211l600 -1844h-211z" />
<glyph unicode="]" horiz-adv-x="641" d="M29 -215h286v1454h-286v195h493v-1846h-493v197z" />
<glyph unicode="^" horiz-adv-x="1062" d="M78 795l366 639h174l369 -639h-203l-258 444l-256 -444h-192z" />
<glyph unicode="_" horiz-adv-x="1030" d="M113 -12h805v-211h-805v211z" />
<glyph unicode="`" horiz-adv-x="819" d="M76 1434h256l157 -285h-170z" />
<glyph unicode="a" horiz-adv-x="1124" d="M68 295q0 162 114 249t334 87h264v63q0 90 -61 139q-62 50 -170 50q-96 0 -159 -42t-75 -112h-217q17 158 140 245t321 87q213 0 326 -98q114 -99 114 -283v-414q0 -73 70 -73h43v-193h-117q-103 0 -147 43q-45 43 -45 125q-119 -180 -346 -180q-177 0 -283 82t-106 225z M293 309q0 -68 52 -108q53 -41 142 -41q138 0 214 73q78 74 79 197v37h-274q-103 0 -158 -40t-55 -118z" />
<glyph unicode="b" horiz-adv-x="1234" d="M109 0v1434h221v-541q124 168 340 168q143 0 256 -65q114 -65 176 -185q63 -121 63 -287q0 -158 -63 -279q-64 -123 -176 -190t-256 -67q-117 0 -203 44q-87 44 -139 120l-27 -152h-192zM328 526q0 -155 84 -254q83 -98 221 -98q137 0 222 97t85 253q0 154 -85 251 t-222 97t-221 -96t-84 -250z" />
<glyph unicode="c" horiz-adv-x="1144" d="M70 526q0 161 65 281q66 121 186 187q122 67 277 67q197 0 322 -104t155 -281h-227q-23 91 -90 143q-68 53 -166 53q-133 0 -214 -96t-81 -250q0 -156 81 -253t214 -97q102 0 170 54q66 53 88 147h225q-30 -183 -157 -286t-326 -103q-156 0 -275 66q-118 66 -183 190 q-64 122 -64 282z" />
<glyph unicode="d" horiz-adv-x="1234" d="M70 524q0 161 64 282q65 122 177 188q114 67 254 67q115 0 201 -42t139 -116v531h221v-1434h-192l-27 158q-125 -170 -342 -170q-144 0 -256 64t-176 187q-63 121 -63 285zM297 524q0 -156 84 -253t221 -97t221 96t84 250q0 158 -84 255t-221 97t-221 -97t-84 -251z" />
<glyph unicode="e" horiz-adv-x="1167" d="M70 522q0 163 64 284q65 122 180 188q117 67 266 67q151 0 267 -62t182 -174q68 -115 69 -264q0 -41 -6 -84h-791v-12q8 -137 86 -217t207 -80q103 0 172 48q70 49 92 136h221q-29 -161 -154 -262q-126 -102 -315 -102q-164 0 -285 66q-123 67 -189 188q-66 122 -66 280z M309 639h563q-15 115 -91 179q-77 65 -193 65q-107 0 -188 -67q-79 -66 -91 -177z" />
<glyph unicode="f" horiz-adv-x="681" d="M-6 854v195h182v104q0 139 72 210q73 71 221 71h213v-195h-182q-52 0 -77 -25q-24 -24 -24 -77v-88h281v-195h-281v-854h-223v854h-182z" />
<glyph unicode="g" horiz-adv-x="1234" d="M70 528q0 158 64 279t177 187q114 67 254 67q119 0 205 -47q87 -47 139 -129l25 164h192v-1006q0 -221 -131 -343t-405 -122q-212 0 -346 95q-133 94 -148 270h226q21 -89 94 -137q74 -48 190 -48q301 0 301 293v117q-114 -172 -342 -172q-144 0 -256 64 q-113 65 -176 185t-63 283zM297 528q0 -153 84 -249q85 -97 221 -97t221 96q84 94 84 246q0 155 -84 253q-84 97 -221 97t-221 -96t-84 -250z" />
<glyph unicode="h" horiz-adv-x="1175" d="M109 0v1434h221v-537q119 164 329 164q187 0 307 -115q117 -113 117 -368v-578h-221v565q0 151 -64 228t-188 77q-131 0 -206 -91q-74 -90 -74 -249v-530h-221z" />
<glyph unicode="i" horiz-adv-x="438" d="M84 1335q0 59 39 96q38 37 96 37t96 -37q39 -37 39 -96q0 -57 -39 -95q-40 -38 -96 -38t-96 38q-39 38 -39 95zM109 0v1049h221v-1049h-221z" />
<glyph unicode="j" horiz-adv-x="448" d="M-109 -215h119q56 0 84 28q27 27 27 87v1149h221v-1166q0 -293 -287 -293h-164v195zM96 1335q0 59 39 96q38 37 96 37q59 0 96 -37q38 -38 38 -96q0 -57 -38 -95t-96 -38q-59 0 -97 38t-38 95z" />
<glyph unicode="k" horiz-adv-x="1099" d="M109 0v1434h221v-897l479 512h256l-391 -422l416 -627h-263l-311 465l-186 -197v-268h-221z" />
<glyph unicode="l" horiz-adv-x="438" d="M109 0v1434h221v-1434h-221z" />
<glyph unicode="m" horiz-adv-x="1800" d="M109 0v1049h192l25 -138q114 149 307 150q109 0 194 -47q83 -46 129 -144q57 92 146 141q91 50 217 50q171 0 280 -112t109 -357v-592h-221v590q0 138 -55 209t-164 71q-117 0 -182 -80q-66 -81 -66 -223v-567h-223v590q0 140 -57 210t-165 70q-113 0 -179 -84t-66 -225 v-561h-221z" />
<glyph unicode="n" horiz-adv-x="1175" d="M109 0v1049h192l25 -138q118 150 336 150q184 0 304 -115q117 -113 117 -368v-578h-223v565q0 150 -63 228q-62 77 -187 77q-131 0 -206 -91q-74 -90 -74 -251v-528h-221z" />
<glyph unicode="o" horiz-adv-x="1208" d="M70 524q0 158 66 280q65 120 189 189q122 68 279 68q158 0 280 -68t188 -189q67 -123 67 -280q0 -158 -67 -281t-188 -189q-122 -66 -280 -66t-279 66q-122 67 -189 189q-66 121 -66 281zM297 524q0 -153 84 -251q84 -97 223 -97t224 97t85 251t-85 251t-224 97t-223 -97 t-84 -251z" />
<glyph unicode="p" horiz-adv-x="1234" d="M109 -410v1459h192l27 -156q128 168 342 168q143 0 256 -65t176 -186q63 -122 63 -286q0 -160 -63 -281q-64 -123 -176 -189t-256 -66q-118 0 -203 43q-87 44 -137 116v-557h-221zM328 528q0 -157 84 -256q83 -98 221 -98q137 0 222 98t85 252q0 157 -85 252 q-85 96 -222 96t-221 -95t-84 -249z" />
<glyph unicode="q" horiz-adv-x="1234" d="M70 524q0 159 64 280q64 122 177 189q113 68 254 68q118 0 206 -44q86 -43 138 -118l25 150h192v-1459h-221v566q-125 -168 -340 -168q-144 0 -256 64q-113 65 -176 186q-63 122 -63 286zM297 524q0 -156 84 -253t221 -97t221 97t84 251q0 156 -84 253t-221 97t-221 -96 t-84 -252z" />
<glyph unicode="r" horiz-adv-x="720" d="M109 0v1049h196l25 -158q46 75 116 116q72 42 193 42h49v-207h-98q-137 0 -199 -89q-61 -88 -61 -227v-526h-221z" />
<glyph unicode="s" horiz-adv-x="1058" d="M72 346h213q6 -82 76 -134t184 -52q99 0 163 38q62 37 62 101q0 53 -29 80q-27 26 -76 38q-40 10 -149 23q-135 16 -226 44q-89 27 -144 88q-54 60 -54 163q0 96 54 171t150 116t216 41q199 0 323 -88q123 -88 134 -248h-215q-7 70 -72 118q-62 46 -160 46 q-96 0 -155 -37q-60 -38 -60 -100q0 -47 30 -71t75 -33q46 -9 145 -21q140 -16 227 -44q92 -30 148 -95q55 -64 55 -175q0 -98 -57 -173q-55 -73 -158 -114q-99 -40 -225 -40q-210 0 -341 95q-129 94 -134 263z" />
<glyph unicode="t" horiz-adv-x="686" d="M-6 854v195h182v292h223v-292h252v-195h-252v-547q0 -60 25 -87q24 -25 84 -25h168v-195h-213q-148 0 -218 70q-69 69 -69 215v569h-182z" />
<glyph unicode="u" horiz-adv-x="1157" d="M92 471v578h221v-555q0 -154 62 -234t182 -80q127 0 199 93q71 92 71 255v521h222v-1049h-195l-25 133q-118 -145 -323 -145q-185 0 -299 114q-115 115 -115 369z" />
<glyph unicode="v" horiz-adv-x="1052" d="M4 1049h238l288 -811l285 811h234l-387 -1049h-271z" />
<glyph unicode="w" horiz-adv-x="1634" d="M8 1049h234l239 -803l240 803h203l229 -803l248 803h225l-348 -1049h-238l-221 713l-229 -713l-240 -2z" />
<glyph unicode="x" horiz-adv-x="1077" d="M12 0l394 537l-371 512h258l252 -355l256 355h241l-372 -512l395 -537h-258l-277 381l-278 -381h-240z" />
<glyph unicode="y" horiz-adv-x="1056" d="M4 1049h236l292 -809l285 809h236l-475 -1213q-37 -92 -68 -144q-30 -50 -76 -76t-121 -26h-237v195h155q65 0 88 19q25 21 52 87l43 101z" />
<glyph unicode="z" horiz-adv-x="999" d="M45 0v158l586 696h-561v195h858v-158l-586 -696h612v-195h-909z" />
<glyph unicode="{" horiz-adv-x="686" d="M53 416v192q98 5 148 43q51 39 51 113q0 32 -8 74l-37 192q-8 43 -8 88q0 148 106 232q107 84 293 84h59v-193l-67 -2q-87 0 -134 -44q-46 -43 -46 -124q0 -29 6 -67l41 -181q10 -44 10 -78q0 -85 -54 -147t-151 -86q97 -17 152 -76t55 -147q0 -39 -12 -88l-41 -181 q-6 -38 -6 -69q0 -79 47 -123q46 -43 133 -43l67 -2v-193h-59q-186 0 -293 84q-106 84 -106 232q0 45 8 88l37 192q6 27 6 74q0 150 -197 156z" />
<glyph unicode="|" horiz-adv-x="485" d="M131 -410v1844h223v-1844h-223z" />
<glyph unicode="}" horiz-adv-x="686" d="M29 -217l67 2q87 0 133 43q47 44 47 123q0 31 -6 69l-41 181q-12 50 -12 88q0 88 55 147t152 76q-97 24 -151 86t-54 147q0 34 10 78l41 181q6 38 6 67q0 81 -46 124q-47 44 -134 44l-67 2v193h59q186 0 293 -84q106 -84 106 -232q0 -45 -8 -88l-37 -192q-8 -42 -8 -74 q0 -74 51 -113q50 -38 148 -43v-192q-197 -6 -197 -156q0 -47 6 -74l37 -192q8 -43 8 -88q0 -148 -106 -232t-293 -84h-59v193z" />
<glyph unicode="~" horiz-adv-x="1064" d="M104 395q0 158 66 242t184 84q70 0 116 -21q52 -24 99 -57q30 -24 59 -38q22 -11 50 -11q55 0 79 33q23 32 23 94h181q0 -159 -66 -241q-66 -83 -184 -83q-68 0 -116 20q-46 19 -101 58q-37 27 -57 37q-24 12 -50 12q-102 0 -102 -129h-181z" />
<glyph unicode="&#xa1;" horiz-adv-x="546" d="M158 1307q0 61 41 100t102 39t101 -39t40 -100q0 -62 -40 -101t-101 -39t-102 39t-41 101zM182 0l35 997h168l35 -997h-238z" />
<glyph unicode="&#xa2;" horiz-adv-x="1144" d="M70 715q0 216 117 357q119 143 319 171v191h199v-193q152 -27 247 -125q96 -99 123 -252h-227q-23 92 -90 144q-68 53 -166 53q-133 0 -214 -96t-81 -250q0 -155 81 -253q81 -97 214 -97q102 0 170 54q67 53 88 146h225q-27 -154 -122 -253q-94 -99 -248 -126v-186h-199 v182q-201 27 -319 170q-117 142 -117 363z" />
<glyph unicode="&#xa3;" horiz-adv-x="1265" d="M74 575v175h159l-12 47q-17 69 -24 109q-9 50 -9 91q0 130 65 233q65 102 175 159q111 57 246 57q228 0 365 -125t153 -348h-223q-17 129 -87 201q-70 71 -198 71q-122 0 -196 -71t-74 -191q0 -39 10 -85q14 -64 22 -95l15 -53h416v-175h-396q2 -20 2 -43q0 -82 -34 -168 q-34 -85 -97 -153l836 -4v-207h-1082v197q77 84 114 180q38 101 34 198h-180z" />
<glyph unicode="&#xa4;" horiz-adv-x="1312" d="M88 305l133 133q-76 122 -76 264q0 165 88 283l-145 145l156 154l149 -147q115 77 264 77q147 0 263 -77l149 147l156 -154l-146 -145q88 -118 88 -283q0 -145 -75 -266l133 -133l-156 -153l-131 131q-124 -91 -281 -91q-158 0 -282 91l-131 -131zM340 702 q0 -138 89 -229q89 -90 228 -90t227 90q89 91 89 229q0 139 -89 230q-89 90 -227 90q-139 0 -228 -90q-89 -91 -89 -230z" />
<glyph unicode="&#xa5;" horiz-adv-x="1382" d="M16 1436h279l377 -658l383 658h262l-447 -768h293v-164h-372v-148h372v-163h-372v-193h-236v193h-375v163h375v148h-375v164h293z" />
<glyph unicode="&#xa6;" horiz-adv-x="485" d="M131 -410v822h223v-822h-223zM131 606v828h223v-828h-223z" />
<glyph unicode="&#xa7;" horiz-adv-x="1247" d="M127 614q0 190 213 275q-60 40 -95 97q-34 56 -34 136q0 146 115 235t303 89q179 0 292 -85t121 -233h-217q-5 74 -57 113t-139 39q-91 0 -146 -37q-54 -37 -53 -102q0 -76 53 -112q50 -34 170 -68q168 -47 252 -82q91 -38 155 -101q62 -62 62 -162q0 -95 -57 -164 t-164 -108q64 -39 99 -97q34 -56 34 -141q0 -146 -112 -234q-113 -89 -299 -89q-180 0 -296 86q-117 86 -124 231h219q4 -71 58 -111q53 -40 143 -40q89 0 141 37q53 38 53 104q0 77 -52 111q-51 34 -171 67q-163 47 -251 82q-94 38 -155 102t-61 162zM356 631q0 -51 30 -84 q29 -31 84 -53q53 -21 155 -48l106 -30q160 51 160 182q0 51 -30 84q-29 31 -84 53q-47 18 -154 47l-45 13l-58 16q-164 -50 -164 -180z" />
<glyph unicode="&#xa8;" horiz-adv-x="819" d="M82 1305q0 53 37 89q38 36 92 36q55 0 92 -36t37 -89q0 -54 -37 -90q-36 -35 -92 -35t-92 35q-37 36 -37 90zM481 1305q0 53 37 89q38 36 90 36q54 0 92 -36q37 -36 37 -89q0 -54 -37 -90q-36 -35 -92 -35q-54 0 -90 35q-37 36 -37 90z" />
<glyph unicode="&#xa9;" horiz-adv-x="1650" d="M78 717q0 205 98 370q100 168 268 263q169 96 379 96q209 0 381 -96q170 -95 271 -264q98 -165 98 -369q0 -205 -98 -370q-100 -168 -271 -263q-172 -96 -381 -96t-379 96q-169 96 -268 262q-98 165 -98 371zM217 717q0 -169 80 -309q80 -141 218 -220q137 -79 308 -79 q173 0 312 79t219 220q80 140 80 309t-80 309t-219 219q-140 80 -312 80q-169 0 -308 -80t-218 -219q-80 -140 -80 -309zM424 719q0 115 48 211t139 153q93 58 214 58q146 0 249 -82t124 -225h-158q-18 73 -74 119t-137 46q-117 0 -180 -79q-63 -80 -63 -201q0 -120 64 -200 q64 -81 179 -81q83 0 138 45q54 44 75 121h156q-21 -143 -121 -225t-252 -82q-123 0 -214 57q-90 56 -139 154q-48 96 -48 211z" />
<glyph unicode="&#xaa;" horiz-adv-x="872" d="M102 494v139h682v-139h-682zM109 963q0 101 75 154q76 54 219 54h152v37q0 54 -37 84q-39 31 -104 31q-53 0 -88 -27t-39 -69h-162q7 102 88 161q79 58 207 58q136 0 214 -64q77 -63 77 -180v-241q0 -50 49 -50h24v-125h-79q-123 0 -123 109v12q-28 -59 -86 -94t-140 -35 q-110 0 -179 48q-68 47 -68 137zM272 975q0 -40 29 -61q28 -21 80 -21q78 0 126 49q48 50 48 119v10h-156q-59 0 -93 -27t-34 -69z" />
<glyph unicode="&#xab;" horiz-adv-x="1216" d="M88 524l320 525h223l-316 -525l316 -524h-223zM584 522l319 525h223l-315 -525l315 -524h-223z" />
<glyph unicode="&#xac;" horiz-adv-x="1064" d="M104 535v188h777v-522h-197v334h-580z" />
<glyph unicode="&#xad;" horiz-adv-x="888" d="M96 492v180h697v-180h-697z" />
<glyph unicode="&#xae;" horiz-adv-x="1054" d="M88 1014q0 122 58 220q59 101 159 157q101 57 221 57q123 0 225 -57q100 -56 159 -156t59 -219q0 -117 -59 -217q-58 -99 -159 -155q-100 -56 -225 -56q-122 0 -221 56q-101 57 -159 154t-58 216zM190 1014q0 -94 44 -171t121 -121t171 -44q96 0 173 44q78 44 121 122 q44 79 44 172q0 95 -44 174q-43 78 -121 122q-77 44 -173 44q-94 0 -171 -44q-78 -44 -121 -123q-44 -80 -44 -175zM360 782v467h185q83 0 133 -41q49 -40 49 -110q0 -46 -26 -83q-25 -35 -72 -52l102 -181h-113l-90 160h-65v-160h-103zM463 1026h76q36 0 59 20t23 52 q0 31 -22 50q-20 17 -60 17h-76v-139z" />
<glyph unicode="&#xaf;" horiz-adv-x="819" d="M113 1227v162h596v-162h-596z" />
<glyph unicode="&#xb0;" horiz-adv-x="882" d="M88 1106q0 97 46 173q48 79 128 121q83 44 180 44q98 0 181 -44q80 -42 128 -121q46 -76 46 -173q0 -95 -46 -171q-48 -79 -128 -121q-83 -44 -181 -44q-97 0 -180 44q-80 42 -128 121q-46 76 -46 171zM256 1106q0 -79 53 -132q52 -52 133 -52t133 52q54 54 54 132 q0 80 -54 134q-52 52 -133 52t-133 -52q-53 -53 -53 -134z" />
<glyph unicode="&#xb1;" horiz-adv-x="1064" d="M104 0v186h857v-186h-857zM104 541v186h326v346h203v-346h328v-186h-328v-346h-203v346h-326z" />
<glyph unicode="&#xb2;" horiz-adv-x="655" d="M43 1368v14q0 121 80 195t199 74q127 0 206 -67q78 -66 78 -175q0 -74 -37 -126q-38 -53 -106 -105l-187 -144h336v-141h-565v133l301 223q50 38 75 73q26 37 26 83q0 49 -35 79q-33 29 -90 29q-61 0 -96 -35t-35 -102v-8h-150z" />
<glyph unicode="&#xb3;" horiz-adv-x="675" d="M37 1141h151q1 -57 40 -89q38 -32 104 -32q58 0 98 29q39 29 39 75q0 48 -39 75q-40 28 -106 28h-43v102h45q58 0 95 26q36 25 36 70q0 43 -33 69q-34 26 -86 26q-57 0 -92 -29q-36 -29 -37 -78h-152q1 113 78 177q77 65 203 65t202 -58q74 -56 74 -151q0 -62 -35 -101 t-90 -55q67 -12 104 -57q38 -46 38 -113q0 -109 -80 -172q-79 -63 -219 -63t-217 66q-76 66 -78 190z" />
<glyph unicode="&#xb4;" horiz-adv-x="819" d="M330 1151l164 283h256l-252 -283h-168z" />
<glyph unicode="&#xb5;" horiz-adv-x="1181" d="M109 -410v1457h221v-543q0 -159 64 -241q65 -83 188 -83q122 0 196 96q74 97 74 263v508h221v-1047h-199l-18 152q-52 -77 -128 -121q-74 -43 -181 -43q-69 0 -130 26q-62 27 -85 60v-484h-223z" />
<glyph unicode="&#xb6;" horiz-adv-x="1443" d="M49 948q0 143 65 253t182 171q119 62 271 62h396v-1434h-211v465h-183q-155 0 -273 60q-117 59 -182 170q-65 110 -65 253zM1102 0v1434h211v-1434h-211z" />
<glyph unicode="&#xb7;" d="M88 604q0 62 40 101q39 38 101 38q64 0 103 -38q41 -39 41 -101q0 -61 -41 -100q-40 -39 -103 -39q-61 0 -101 39t-40 100z" />
<glyph unicode="&#xb8;" horiz-adv-x="819" d="M248 -291h170q76 0 76 60q0 23 -21 38t-53 15h-111l56 227h116l-32 -125h28q85 0 134 -42q51 -43 51 -111q0 -81 -56 -131t-147 -50h-211v119z" />
<glyph unicode="&#xb9;" horiz-adv-x="389" d="M0 1354v141h127q21 0 34 19t13 47v79h145v-745h-149v475q-12 -16 -39 -16h-131z" />
<glyph unicode="&#xba;" horiz-adv-x="864" d="M98 494v139h668v-139h-668zM100 1112q0 152 90 244t240 92t242 -92t92 -244q0 -151 -91 -242q-92 -92 -243 -92q-150 0 -240 91t-90 243zM264 1112q0 -90 45 -145q45 -56 121 -56t123 56t47 145q0 88 -47 146q-47 57 -123 57t-121 -57t-45 -146z" />
<glyph unicode="&#xbb;" horiz-adv-x="1216" d="M90 -2l316 524l-316 525h223l320 -525l-320 -524h-223zM586 0l315 524l-315 525h223l319 -525l-319 -524h-223z" />
<glyph unicode="&#xbc;" horiz-adv-x="1314" d="M0 1149v141h127q20 0 34 20q13 19 13 46v80h145v-746h-149v475q-12 -16 -39 -16h-131zM41 0l909 1434h176l-907 -1434h-178zM694 176v135l328 434h188v-434h115v-135h-115v-176h-149v176h-367zM846 311h215v283z" />
<glyph unicode="&#xbd;" horiz-adv-x="1392" d="M0 1149v141h127q20 0 34 20q13 19 13 46v80h145v-746h-149v475q-12 -16 -39 -16h-131zM41 0l909 1434h176l-907 -1434h-178zM793 475v14q0 122 79 195q80 74 199 74q128 0 207 -67q78 -66 78 -175q0 -74 -37 -126t-107 -105l-186 -144h336v-141h-565v133l301 223 q48 36 74 73t26 83q0 49 -35 79t-90 30q-59 0 -95 -36t-36 -102v-8h-149z" />
<glyph unicode="&#xbe;" horiz-adv-x="1601" d="M37 936h151q1 -57 40 -89q38 -32 104 -32q58 0 98 29q39 28 39 76q0 47 -39 74q-40 28 -106 28h-43v102h45q58 0 95 26q36 26 36 71q0 43 -33 68q-34 26 -86 26q-57 0 -92 -29q-36 -29 -37 -78h-152q1 112 78 177t203 65q127 0 202 -57q74 -56 74 -152q0 -62 -35 -101 t-90 -55q67 -12 104 -57q38 -46 38 -113q0 -109 -80 -172q-79 -63 -219 -63t-217 66q-76 66 -78 190zM328 0l909 1434h176l-907 -1434h-178zM981 176v135l328 434h188v-434h115v-135h-115v-176h-149v176h-367zM1133 311h215v283z" />
<glyph unicode="&#xbf;" horiz-adv-x="1062" d="M61 360q0 128 55 207q56 81 152 148q100 70 138 114q40 46 40 117v41h209v-65q0 -78 -27 -134q-26 -53 -72 -93q-44 -37 -120 -87q-73 -49 -109 -102q-36 -52 -36 -123q0 -87 63 -143q64 -56 166 -56q120 0 190 79t70 206h228q0 -135 -59 -245q-59 -111 -169 -173 q-111 -63 -258 -63q-138 0 -243 48q-104 48 -161 133t-57 191zM406 1309q0 62 38 99q40 38 101 38q60 0 101 -38q40 -37 40 -99q0 -63 -40 -100q-41 -38 -101 -38q-61 0 -101 38q-38 37 -38 100z" />
<glyph unicode="&#xc0;" horiz-adv-x="1384" d="M16 0l537 1434h281l534 -1434h-252l-135 354h-588l-133 -354h-244zM360 1835h256l158 -285h-170zM459 555h456l-229 625z" />
<glyph unicode="&#xc1;" horiz-adv-x="1384" d="M16 0l537 1434h281l534 -1434h-252l-135 354h-588l-133 -354h-244zM459 555h456l-229 625zM614 1552l164 283h256l-252 -283h-168z" />
<glyph unicode="&#xc2;" horiz-adv-x="1384" d="M16 0l537 1434h281l534 -1434h-252l-135 354h-588l-133 -354h-244zM332 1550l260 285h205l260 -285h-209l-154 148l-155 -148h-207zM459 555h456l-229 625z" />
<glyph unicode="&#xc3;" horiz-adv-x="1384" d="M16 0l537 1434h281l534 -1434h-252l-135 354h-588l-133 -354h-244zM389 1597v33q0 88 51 145q50 56 133 56q47 0 76 -15q26 -14 66 -44q22 -20 40 -31q17 -10 40 -10q34 0 51 26q18 27 18 66h135v-33q0 -88 -51 -145q-52 -58 -133 -58q-49 0 -80 17q-32 18 -61 45 q-19 18 -40 30q-19 11 -40 11q-32 0 -52 -27q-20 -28 -20 -66h-133zM459 555h456l-229 625z" />
<glyph unicode="&#xc4;" horiz-adv-x="1384" d="M16 0l537 1434h281l534 -1434h-252l-135 354h-588l-133 -354h-244zM367 1706q0 54 36 89q37 36 93 36q54 0 92 -36q37 -36 37 -89t-37 -89q-38 -36 -92 -36q-56 0 -93 36q-36 35 -36 89zM459 555h456l-229 625zM766 1706q0 53 37 89t90 36q54 0 92 -36q37 -36 37 -89 t-37 -89q-38 -36 -92 -36q-53 0 -90 36t-37 89z" />
<glyph unicode="&#xc5;" horiz-adv-x="1384" d="M16 0l525 1401q-45 33 -72 83t-27 107q0 96 73 166t177 70t177 -70t73 -166q0 -56 -26 -106t-70 -84l522 -1401h-252l-135 354h-588l-133 -354h-244zM459 555h456l-229 625zM567 1591q0 -55 36 -92t89 -37t89 37t36 92q0 53 -36 89t-89 36t-89 -36t-36 -89z" />
<glyph unicode="&#xc6;" horiz-adv-x="1996" d="M-4 0l856 1434h1057v-209h-701v-398h578v-202h-578v-416h725v-209h-960v336h-524l-209 -336h-244zM555 532h418v703z" />
<glyph unicode="&#xc7;" horiz-adv-x="1445" d="M76 717q0 218 85 382q85 165 241 256q155 91 366 91q160 0 292 -62q130 -61 212 -175q81 -113 104 -263h-235q-35 137 -135 215q-101 78 -248 78q-132 0 -234 -67q-101 -66 -153 -184q-54 -122 -54 -271t54 -271q53 -119 153 -185t234 -66q149 0 247 77q99 78 134 215 h235q-33 -213 -178 -346t-367 -151l-16 -66h29q84 0 134 -42t50 -111q0 -82 -55 -131q-56 -50 -148 -50h-211v119h170q76 0 76 60q0 24 -20 38q-21 15 -54 15h-110l41 168q-196 11 -339 103q-144 93 -222 254t-78 370z" />
<glyph unicode="&#xc8;" horiz-adv-x="1153" d="M131 0v1434h936v-209h-700v-398h577v-202h-577v-416h725v-209h-961zM262 1835h256l158 -285h-170z" />
<glyph unicode="&#xc9;" horiz-adv-x="1153" d="M131 0v1434h936v-209h-700v-398h577v-202h-577v-416h725v-209h-961zM516 1552l164 283h256l-252 -283h-168z" />
<glyph unicode="&#xca;" horiz-adv-x="1153" d="M131 0v1434h936v-209h-700v-398h577v-202h-577v-416h725v-209h-961zM233 1550l261 285h204l260 -285h-208l-154 148l-156 -148h-207z" />
<glyph unicode="&#xcb;" horiz-adv-x="1153" d="M131 0v1434h936v-209h-700v-398h577v-202h-577v-416h725v-209h-961zM268 1706q0 53 37 89t92 36t92 -36t37 -89t-37 -89t-92 -36t-92 36t-37 89zM668 1706q0 53 37 89t90 36q55 0 92 -36t37 -89t-37 -89t-92 -36q-53 0 -90 36t-37 89z" />
<glyph unicode="&#xcc;" horiz-adv-x="497" d="M-86 1835h256l158 -285h-170zM131 0v1434h236v-1434h-236z" />
<glyph unicode="&#xcd;" horiz-adv-x="497" d="M131 0v1434h236v-1434h-236zM168 1552l164 283h256l-252 -283h-168z" />
<glyph unicode="&#xce;" horiz-adv-x="497" d="M-115 1550l260 285h205l260 -285h-209l-153 148l-156 -148h-207zM131 0v1434h236v-1434h-236z" />
<glyph unicode="&#xcf;" horiz-adv-x="497" d="M-80 1706q0 53 37 89q38 36 92 36t92 -36q37 -36 37 -89t-37 -89q-38 -36 -92 -36q-55 0 -92 36t-37 89zM131 0v1434h236v-1434h-236zM319 1706q0 53 37 89q38 36 90 36q56 0 93 -36q36 -35 36 -89t-36 -89q-37 -36 -93 -36q-52 0 -90 36q-37 36 -37 89z" />
<glyph unicode="&#xd0;" horiz-adv-x="1413" d="M-6 639v178h170v617h457q218 0 383 -91q163 -90 251 -251t88 -375q0 -211 -88 -374q-89 -164 -251 -253q-164 -90 -383 -90h-457v639h-170zM399 205h222q231 0 356 138q125 139 125 374t-125 374q-125 138 -356 138h-222v-412h265v-178h-265v-434z" />
<glyph unicode="&#xd1;" horiz-adv-x="1406" d="M131 0v1434h215l698 -1016v1016h232v-1434h-215l-699 1016v-1016h-231zM383 1597v33q0 88 51 145q50 56 133 56q47 0 76 -15q26 -14 66 -44q22 -20 40 -31q17 -10 39 -10q35 0 52 26q18 27 18 66h135v-33q0 -88 -51 -145q-52 -58 -133 -58q-49 0 -80 17q-32 18 -61 45 q-19 18 -40 30q-19 11 -40 11q-32 0 -52 -27q-20 -28 -20 -66h-133z" />
<glyph unicode="&#xd2;" horiz-adv-x="1544" d="M76 717q0 209 88 375q88 165 247 260q158 94 361 94q204 0 362 -94t246 -260t88 -375t-88 -375t-246 -260t-362 -94q-203 0 -361 94q-159 95 -247 260q-88 166 -88 375zM317 717q0 -148 58 -270q57 -120 161 -186q103 -66 236 -66q134 0 237 66t160 186q58 122 58 270 q0 147 -58 269q-57 120 -160 186q-105 67 -237 67q-131 0 -236 -67q-104 -66 -161 -186q-58 -122 -58 -269zM438 1835h256l158 -285h-170z" />
<glyph unicode="&#xd3;" horiz-adv-x="1544" d="M76 717q0 209 88 375q88 165 247 260q158 94 361 94q204 0 362 -94t246 -260t88 -375t-88 -375t-246 -260t-362 -94q-203 0 -361 94q-159 95 -247 260q-88 166 -88 375zM317 717q0 -148 58 -270q57 -120 161 -186q103 -66 236 -66q134 0 237 66t160 186q58 122 58 270 q0 147 -58 269q-57 120 -160 186q-105 67 -237 67q-131 0 -236 -67q-104 -66 -161 -186q-58 -122 -58 -269zM692 1552l164 283h256l-252 -283h-168z" />
<glyph unicode="&#xd4;" horiz-adv-x="1544" d="M76 717q0 209 88 375q88 165 247 260q158 94 361 94q204 0 362 -94t246 -260t88 -375t-88 -375t-246 -260t-362 -94q-203 0 -361 94q-159 95 -247 260q-88 166 -88 375zM317 717q0 -148 58 -270q57 -120 161 -186q103 -66 236 -66q134 0 237 66t160 186q58 122 58 270 q0 147 -58 269q-57 120 -160 186q-105 67 -237 67q-131 0 -236 -67q-104 -66 -161 -186q-58 -122 -58 -269zM410 1550l260 285h204l261 -285h-209l-154 148l-156 -148h-206z" />
<glyph unicode="&#xd5;" horiz-adv-x="1544" d="M76 717q0 209 88 375q88 165 247 260q158 94 361 94q204 0 362 -94t246 -260t88 -375t-88 -375t-246 -260t-362 -94q-203 0 -361 94q-159 95 -247 260q-88 166 -88 375zM317 717q0 -148 58 -270q57 -120 161 -186q103 -66 236 -66q134 0 237 66t160 186q58 122 58 270 q0 147 -58 269q-57 120 -160 186q-105 67 -237 67q-131 0 -236 -67q-104 -66 -161 -186q-58 -122 -58 -269zM467 1597v33q0 88 51 145q50 56 133 56q47 0 76 -15q26 -14 66 -44q22 -20 40 -31q17 -10 39 -10q35 0 52 26q18 27 18 66h135v-33q0 -88 -51 -145 q-52 -58 -133 -58q-49 0 -80 17q-32 18 -61 45q-19 18 -40 30q-19 11 -40 11q-32 0 -52 -27q-20 -28 -20 -66h-133z" />
<glyph unicode="&#xd6;" horiz-adv-x="1544" d="M76 717q0 209 88 375q88 165 247 260q158 94 361 94q204 0 362 -94t246 -260t88 -375t-88 -375t-246 -260t-362 -94q-203 0 -361 94q-159 95 -247 260q-88 166 -88 375zM317 717q0 -148 58 -270q57 -120 161 -186q103 -66 236 -66q134 0 237 66t160 186q58 122 58 270 q0 147 -58 269q-57 120 -160 186q-105 67 -237 67q-131 0 -236 -67q-104 -66 -161 -186q-58 -122 -58 -269zM444 1706q0 53 37 89t92 36t93 -36q36 -35 36 -89t-36 -89q-38 -36 -93 -36t-92 36t-37 89zM844 1706q0 53 37 89t90 36q55 0 92 -36t37 -89t-37 -89t-92 -36 q-53 0 -90 36t-37 89z" />
<glyph unicode="&#xd7;" horiz-adv-x="1064" d="M106 864l140 142l293 -291l284 286l131 -131l-284 -286l291 -291l-144 -141l-291 290l-284 -286l-131 133l286 284z" />
<glyph unicode="&#xd8;" horiz-adv-x="1544" d="M76 109l143 151q-143 194 -143 457q0 209 88 375q88 165 247 260q158 94 361 94q124 0 236 -38q107 -36 198 -110l142 148l120 -121l-143 -151q70 -96 107 -211q36 -112 36 -246q0 -209 -88 -375t-246 -260t-362 -94q-123 0 -235 38q-111 38 -199 109l-139 -147zM317 717 q0 -162 64 -287l676 711q-113 98 -285 98q-131 0 -236 -67q-104 -66 -161 -186q-58 -122 -58 -269zM489 293q113 -98 283 -98q134 0 237 66t160 186q58 122 58 270q0 162 -64 287z" />
<glyph unicode="&#xd9;" horiz-adv-x="1376" d="M123 614v820h235v-832q0 -201 80 -304q79 -101 248 -101q171 0 251 101q81 102 81 304v832h235v-820q0 -308 -144 -467t-423 -159q-276 0 -420 159q-143 158 -143 467zM354 1835h256l158 -285h-170z" />
<glyph unicode="&#xda;" horiz-adv-x="1376" d="M123 614v820h235v-832q0 -201 80 -304q79 -101 248 -101q171 0 251 101q81 102 81 304v832h235v-820q0 -308 -144 -467t-423 -159q-276 0 -420 159q-143 158 -143 467zM608 1552l164 283h256l-252 -283h-168z" />
<glyph unicode="&#xdb;" horiz-adv-x="1376" d="M123 614v820h235v-832q0 -201 80 -304q79 -101 248 -101q171 0 251 101q81 102 81 304v832h235v-820q0 -308 -144 -467t-423 -159q-276 0 -420 159q-143 158 -143 467zM326 1550l260 285h205l260 -285h-209l-154 148l-156 -148h-206z" />
<glyph unicode="&#xdc;" horiz-adv-x="1376" d="M123 614v820h235v-832q0 -201 80 -304q79 -101 248 -101q171 0 251 101q81 102 81 304v832h235v-820q0 -308 -144 -467t-423 -159q-276 0 -420 159q-143 158 -143 467zM360 1706q0 53 37 89t92 36t93 -36q36 -35 36 -89t-36 -89q-38 -36 -93 -36t-92 36t-37 89zM760 1706 q0 53 37 89t90 36q55 0 92 -36t37 -89t-37 -89t-92 -36q-53 0 -90 36t-37 89z" />
<glyph unicode="&#xdd;" horiz-adv-x="1325" d="M10 1436h277l377 -658l387 658h264l-535 -906v-530h-235v530zM586 1552l164 283h256l-252 -283h-168z" />
<glyph unicode="&#xde;" horiz-adv-x="1243" d="M131 0v1434h236v-236h301q249 0 386 -121q138 -122 138 -338q0 -217 -141 -337q-140 -119 -385 -119h-299v-283h-236zM367 489h295q139 0 216 65q76 64 76 185q0 126 -76 190t-214 64h-297v-504z" />
<glyph unicode="&#xdf;" horiz-adv-x="1236" d="M131 0v981q0 149 64 256q62 104 172 157q107 52 243 52q139 0 244 -46q107 -47 165 -131q58 -85 58 -196q-2 -115 -63 -197q-62 -83 -158 -116q155 -33 241 -122q85 -88 85 -241q0 -125 -60 -218q-60 -92 -165 -142q-104 -49 -236 -49q-109 0 -219 35v178q88 -33 194 -33 q116 0 188 63t72 170q0 119 -92 182q-90 62 -246 62q-21 0 -61 -4v176q146 1 221 67q74 65 74 165q0 96 -66 153q-67 58 -176 58q-117 0 -186 -72q-70 -73 -70 -193v-995h-223z" />
<glyph unicode="&#xe0;" horiz-adv-x="1124" d="M68 295q0 162 114 249t334 87h264v63q0 90 -61 139q-62 50 -170 50q-96 0 -159 -42t-75 -112h-217q17 158 140 245t321 87q213 0 326 -98q114 -99 114 -283v-414q0 -73 70 -73h43v-193h-117q-103 0 -147 43q-45 43 -45 125q-119 -180 -346 -180q-177 0 -283 82t-106 225z M219 1450h256l158 -285h-170zM293 309q0 -68 52 -108q53 -41 142 -41q138 0 214 73q78 74 79 197v37h-274q-103 0 -158 -40t-55 -118z" />
<glyph unicode="&#xe1;" horiz-adv-x="1124" d="M68 295q0 162 114 249t334 87h264v63q0 90 -61 139q-62 50 -170 50q-96 0 -159 -42t-75 -112h-217q17 158 140 245t321 87q213 0 326 -98q114 -99 114 -283v-414q0 -73 70 -73h43v-193h-117q-103 0 -147 43q-45 43 -45 125q-119 -180 -346 -180q-177 0 -283 82t-106 225z M293 309q0 -68 52 -108q53 -41 142 -41q138 0 214 73q78 74 79 197v37h-274q-103 0 -158 -40t-55 -118zM473 1167l164 283h256l-252 -283h-168z" />
<glyph unicode="&#xe2;" horiz-adv-x="1124" d="M68 295q0 162 114 249t334 87h264v63q0 90 -61 139q-62 50 -170 50q-96 0 -159 -42t-75 -112h-217q17 158 140 245t321 87q213 0 326 -98q114 -99 114 -283v-414q0 -73 70 -73h43v-193h-117q-103 0 -147 43q-45 43 -45 125q-119 -180 -346 -180q-177 0 -283 82t-106 225z M190 1165l261 285h204l260 -285h-208l-154 148l-156 -148h-207zM293 309q0 -68 52 -108q53 -41 142 -41q138 0 214 73q78 74 79 197v37h-274q-103 0 -158 -40t-55 -118z" />
<glyph unicode="&#xe3;" horiz-adv-x="1124" d="M68 295q0 162 114 249t334 87h264v63q0 90 -61 139q-62 50 -170 50q-96 0 -159 -42t-75 -112h-217q17 158 140 245t321 87q213 0 326 -98q114 -99 114 -283v-414q0 -73 70 -73h43v-193h-117q-103 0 -147 43q-45 43 -45 125q-119 -180 -346 -180q-177 0 -283 82t-106 225z M248 1212v33q0 88 51 145q50 56 133 56q48 0 76 -15q19 -10 65 -45q19 -18 40 -30q17 -10 40 -10q35 0 52 26q18 27 18 66h135v-33q0 -88 -51 -145q-52 -58 -133 -58q-49 0 -80 17q-35 19 -62 45q-21 19 -39 30q-19 11 -40 11q-33 0 -53 -27q-19 -26 -19 -66h-133zM293 309 q0 -68 52 -108q53 -41 142 -41q138 0 214 73q78 74 79 197v37h-274q-103 0 -158 -40t-55 -118z" />
<glyph unicode="&#xe4;" horiz-adv-x="1124" d="M68 295q0 162 114 249t334 87h264v63q0 90 -61 139q-62 50 -170 50q-96 0 -159 -42t-75 -112h-217q17 158 140 245t321 87q213 0 326 -98q114 -99 114 -283v-414q0 -73 70 -73h43v-193h-117q-103 0 -147 43q-45 43 -45 125q-119 -180 -346 -180q-177 0 -283 82t-106 225z M225 1321q0 53 37 89q38 36 92 36t92 -36q37 -36 37 -89t-37 -89q-38 -36 -92 -36t-92 36q-37 36 -37 89zM293 309q0 -68 52 -108q53 -41 142 -41q138 0 214 73q78 74 79 197v37h-274q-103 0 -158 -40t-55 -118zM625 1321q0 53 37 89q38 36 90 36q54 0 92 -36q37 -36 37 -89 t-37 -89q-38 -36 -92 -36q-52 0 -90 36q-37 36 -37 89z" />
<glyph unicode="&#xe5;" horiz-adv-x="1124" d="M68 295q0 162 114 249t334 87h264v63q0 90 -61 139q-62 50 -170 50q-96 0 -159 -42t-75 -112h-217q17 158 140 245t321 87q213 0 326 -98q114 -99 114 -283v-414q0 -73 70 -73h43v-193h-117q-103 0 -147 43q-45 43 -45 125q-119 -180 -346 -180q-177 0 -283 82t-106 225z M293 309q0 -68 52 -108q53 -41 142 -41q138 0 214 73q78 74 79 197v37h-274q-103 0 -158 -40t-55 -118zM303 1376q0 96 73 166t177 70t177 -70t73 -166q0 -100 -73 -170q-72 -69 -177 -69t-177 69q-73 70 -73 170zM428 1376q0 -54 36 -92q36 -37 89 -37t89 37q36 38 36 92 q0 53 -36 89t-89 36t-89 -36t-36 -89z" />
<glyph unicode="&#xe6;" horiz-adv-x="1855" d="M68 295q0 159 114 245q113 85 334 85h264v69q0 90 -61 139q-62 50 -170 50q-96 0 -159 -42t-75 -112h-217q17 158 140 245t321 87q125 0 219 -42t144 -122q64 80 153 122q90 42 199 42q149 0 264 -62q114 -61 180 -174q67 -113 68 -264q0 -41 -6 -84h-789v-12 q6 -136 85 -216q80 -81 208 -81q101 0 171 49q71 49 93 135h221q-29 -161 -155 -262q-128 -102 -314 -102q-139 0 -246 55q-108 55 -171 158q-66 -101 -170 -157q-103 -56 -244 -56q-180 0 -290 82q-111 82 -111 225zM293 309q0 -68 52 -108q53 -41 142 -41q135 0 214 72 t79 192v39h-268q-105 0 -163 -38q-56 -37 -56 -116zM999 639h562q-12 113 -90 179q-77 65 -195 65q-104 0 -185 -67q-80 -66 -92 -177z" />
<glyph unicode="&#xe7;" horiz-adv-x="1144" d="M70 526q0 161 65 281q66 121 186 187q122 67 277 67q197 0 322 -104t155 -281h-227q-23 91 -90 143q-68 53 -166 53q-133 0 -214 -96t-81 -250q0 -156 81 -253t214 -97q102 0 170 54q66 53 88 147h225q-28 -167 -138 -269q-109 -101 -286 -118l-16 -66h29q84 0 134 -42 t50 -111q0 -82 -55 -131q-56 -50 -148 -50h-211v119h170q76 0 76 60q0 23 -21 38t-53 15h-110l41 168q-212 18 -340 163q-127 143 -127 373z" />
<glyph unicode="&#xe8;" horiz-adv-x="1167" d="M70 522q0 163 64 284q65 122 180 188q117 67 266 67q151 0 267 -62t182 -174q68 -115 69 -264q0 -41 -6 -84h-791v-12q8 -137 86 -217t207 -80q103 0 172 48q70 49 92 136h221q-29 -161 -154 -262q-126 -102 -315 -102q-164 0 -285 66q-123 67 -189 188q-66 122 -66 280z M244 1450h256l157 -285h-170zM309 639h563q-15 115 -91 179q-77 65 -193 65q-107 0 -188 -67q-79 -66 -91 -177z" />
<glyph unicode="&#xe9;" horiz-adv-x="1167" d="M70 522q0 163 64 284q65 122 180 188q117 67 266 67q151 0 267 -62t182 -174q68 -115 69 -264q0 -41 -6 -84h-791v-12q8 -137 86 -217t207 -80q103 0 172 48q70 49 92 136h221q-29 -161 -154 -262q-126 -102 -315 -102q-164 0 -285 66q-123 67 -189 188q-66 122 -66 280z M309 639h563q-15 115 -91 179q-77 65 -193 65q-107 0 -188 -67q-79 -66 -91 -177zM498 1167l164 283h256l-252 -283h-168z" />
<glyph unicode="&#xea;" horiz-adv-x="1167" d="M70 522q0 163 64 284q65 122 180 188q117 67 266 67q151 0 267 -62t182 -174q68 -115 69 -264q0 -41 -6 -84h-791v-12q8 -137 86 -217t207 -80q103 0 172 48q70 49 92 136h221q-29 -161 -154 -262q-126 -102 -315 -102q-164 0 -285 66q-123 67 -189 188q-66 122 -66 280z M215 1165l260 285h205l260 -285h-209l-153 148l-156 -148h-207zM309 639h563q-15 115 -91 179q-77 65 -193 65q-107 0 -188 -67q-79 -66 -91 -177z" />
<glyph unicode="&#xeb;" horiz-adv-x="1167" d="M70 522q0 163 64 284q65 122 180 188q117 67 266 67q151 0 267 -62t182 -174q68 -115 69 -264q0 -41 -6 -84h-791v-12q8 -137 86 -217t207 -80q103 0 172 48q70 49 92 136h221q-29 -161 -154 -262q-126 -102 -315 -102q-164 0 -285 66q-123 67 -189 188q-66 122 -66 280z M250 1321q0 53 37 89t92 36t92 -36t37 -89t-37 -89t-92 -36t-92 36t-37 89zM309 639h563q-15 115 -91 179q-77 65 -193 65q-107 0 -188 -67q-79 -66 -91 -177zM649 1321q0 53 37 89q38 36 90 36q54 0 92 -36q37 -36 37 -89t-37 -89q-38 -36 -92 -36q-52 0 -90 36 q-37 36 -37 89z" />
<glyph unicode="&#xec;" horiz-adv-x="438" d="M-113 1450h256l158 -285h-170zM109 0v1049h221v-1049h-221z" />
<glyph unicode="&#xed;" horiz-adv-x="438" d="M109 0v1049h221v-1049h-221zM141 1167l164 283h256l-252 -283h-168z" />
<glyph unicode="&#xee;" horiz-adv-x="438" d="M-141 1165l260 285h205l260 -285h-209l-154 148l-155 -148h-207zM109 0v1049h221v-1049h-221z" />
<glyph unicode="&#xef;" horiz-adv-x="438" d="M-106 1321q0 54 36 89q38 36 93 36t92 -36t37 -89t-37 -89t-92 -36t-93 36q-36 35 -36 89zM109 0v1049h221v-1049h-221zM293 1321q0 53 37 89q38 36 90 36q54 0 92 -36q37 -36 37 -89t-37 -89q-38 -36 -92 -36q-52 0 -90 36q-37 36 -37 89z" />
<glyph unicode="&#xf0;" horiz-adv-x="1222" d="M70 469q0 146 67 252q68 107 178 162t238 55q93 0 172 -28q72 -25 147 -91q-67 162 -235 297l-240 -143l-78 131l181 108q-79 51 -203 111l125 123q133 -54 250 -129l233 141l76 -133l-178 -106q152 -129 241 -299q89 -169 89 -371q0 -158 -62 -287q-62 -128 -182 -201 q-121 -73 -293 -73q-159 0 -277 61t-184 171q-65 108 -65 249zM297 469q0 -132 83 -215q82 -82 216 -82q138 0 224 87q85 86 85 226q0 131 -88 210t-221 79q-134 0 -216 -87q-83 -88 -83 -218z" />
<glyph unicode="&#xf1;" horiz-adv-x="1175" d="M109 0v1049h192l25 -138q118 150 336 150q184 0 304 -115q117 -113 117 -368v-578h-223v565q0 150 -63 228q-62 77 -187 77q-131 0 -206 -91q-74 -90 -74 -251v-528h-221zM328 1212v33q0 88 51 145q50 56 133 56q48 0 76 -15q19 -10 65 -45q19 -18 40 -30q17 -10 40 -10 q34 0 51 26q19 28 19 66h135v-33q0 -88 -51 -145q-52 -58 -133 -58q-49 0 -80 17q-35 19 -62 45q-19 18 -40 30q-19 11 -40 11q-32 0 -52 -27q-19 -26 -19 -66h-133z" />
<glyph unicode="&#xf2;" horiz-adv-x="1208" d="M70 524q0 158 66 280q65 120 189 189q122 68 279 68q158 0 280 -68t188 -189q67 -123 67 -280q0 -158 -67 -281t-188 -189q-122 -66 -280 -66t-279 66q-122 67 -189 189q-66 121 -66 281zM270 1450h256l158 -285h-170zM297 524q0 -153 84 -251q84 -97 223 -97t224 97 t85 251t-85 251t-224 97t-223 -97t-84 -251z" />
<glyph unicode="&#xf3;" horiz-adv-x="1208" d="M70 524q0 158 66 280q65 120 189 189q122 68 279 68q158 0 280 -68t188 -189q67 -123 67 -280q0 -158 -67 -281t-188 -189q-122 -66 -280 -66t-279 66q-122 67 -189 189q-66 121 -66 281zM297 524q0 -153 84 -251q84 -97 223 -97t224 97t85 251t-85 251t-224 97t-223 -97 t-84 -251zM524 1167l164 283h256l-252 -283h-168z" />
<glyph unicode="&#xf4;" horiz-adv-x="1208" d="M70 524q0 158 66 280q65 120 189 189q122 68 279 68q158 0 280 -68t188 -189q67 -123 67 -280q0 -158 -67 -281t-188 -189q-122 -66 -280 -66t-279 66q-122 67 -189 189q-66 121 -66 281zM242 1165l260 285h205l260 -285h-209l-154 148l-155 -148h-207zM297 524 q0 -153 84 -251q84 -97 223 -97t224 97t85 251t-85 251t-224 97t-223 -97t-84 -251z" />
<glyph unicode="&#xf5;" horiz-adv-x="1208" d="M70 524q0 158 66 280q65 120 189 189q122 68 279 68q158 0 280 -68t188 -189q67 -123 67 -280q0 -158 -67 -281t-188 -189q-122 -66 -280 -66t-279 66q-122 67 -189 189q-66 121 -66 281zM297 524q0 -153 84 -251q84 -97 223 -97t224 97t85 251t-85 251t-224 97t-223 -97 t-84 -251zM299 1212v33q0 88 51 145q50 56 133 56q47 0 76 -15q22 -12 66 -45q19 -18 40 -30q17 -10 40 -10q34 0 51 26q18 27 18 66h135v-33q0 -88 -51 -145q-52 -58 -133 -58q-49 0 -80 17q-32 18 -61 45q-19 18 -40 30q-19 11 -40 11q-32 0 -52 -27q-20 -28 -20 -66h-133 z" />
<glyph unicode="&#xf6;" horiz-adv-x="1208" d="M70 524q0 158 66 280q65 120 189 189q122 68 279 68q158 0 280 -68t188 -189q67 -123 67 -280q0 -158 -67 -281t-188 -189q-122 -66 -280 -66t-279 66q-122 67 -189 189q-66 121 -66 281zM276 1321q0 53 37 89t93 36q54 0 92 -36q37 -36 37 -89t-37 -89q-38 -36 -92 -36 q-56 0 -93 36t-37 89zM297 524q0 -153 84 -251q84 -97 223 -97t224 97t85 251t-85 251t-224 97t-223 -97t-84 -251zM676 1321q0 53 37 89t90 36q55 0 92 -36t37 -89t-37 -89t-92 -36q-53 0 -90 36t-37 89z" />
<glyph unicode="&#xf7;" horiz-adv-x="1064" d="M104 492v186h857v-186h-857zM397 223q0 61 39 98q38 37 99 37q59 0 99 -37t40 -98q0 -60 -40 -97q-41 -38 -99 -38q-59 0 -99 38q-39 37 -39 97zM397 971q0 59 39 97q40 38 99 38q58 0 99 -38q40 -37 40 -97q0 -61 -40 -98t-99 -37q-61 0 -99 37q-39 37 -39 98z" />
<glyph unicode="&#xf8;" horiz-adv-x="1208" d="M70 94l98 99q-98 135 -98 331q0 158 66 280q66 121 188 189t278 68q195 0 330 -98l96 98l111 -107l-99 -100q99 -137 99 -330q0 -158 -67 -281t-188 -189q-122 -66 -282 -66q-190 0 -326 96l-96 -96zM291 524q0 -92 33 -174l464 469q-78 58 -186 58q-140 0 -225 -99 q-86 -100 -86 -254zM420 229q77 -57 182 -57q142 0 228 98q88 100 88 254q0 94 -33 172z" />
<glyph unicode="&#xf9;" horiz-adv-x="1157" d="M92 471v578h221v-555q0 -154 62 -234t182 -80q127 0 199 93q71 92 71 255v521h222v-1049h-195l-25 133q-118 -145 -323 -145q-185 0 -299 114q-115 115 -115 369zM238 1450h256l157 -285h-170z" />
<glyph unicode="&#xfa;" horiz-adv-x="1157" d="M92 471v578h221v-555q0 -154 62 -234t182 -80q127 0 199 93q71 92 71 255v521h222v-1049h-195l-25 133q-118 -145 -323 -145q-185 0 -299 114q-115 115 -115 369zM492 1167l163 283h256l-252 -283h-167z" />
<glyph unicode="&#xfb;" horiz-adv-x="1157" d="M92 471v578h221v-555q0 -154 62 -234t182 -80q127 0 199 93q71 92 71 255v521h222v-1049h-195l-25 133q-118 -145 -323 -145q-185 0 -299 114q-115 115 -115 369zM209 1165l260 285h205l260 -285h-209l-154 148l-155 -148h-207z" />
<glyph unicode="&#xfc;" horiz-adv-x="1157" d="M92 471v578h221v-555q0 -154 62 -234t182 -80q127 0 199 93q71 92 71 255v521h222v-1049h-195l-25 133q-118 -145 -323 -145q-185 0 -299 114q-115 115 -115 369zM244 1321q0 53 37 89t92 36t92 -36t37 -89t-37 -89t-92 -36t-92 36t-37 89zM643 1321q0 53 37 89 q38 36 90 36q54 0 92 -36q37 -36 37 -89t-37 -89q-38 -36 -92 -36q-52 0 -90 36q-37 36 -37 89z" />
<glyph unicode="&#xfd;" horiz-adv-x="1056" d="M4 1049h236l292 -809l285 809h236l-475 -1213q-37 -92 -68 -144q-30 -50 -76 -76t-121 -26h-237v195h155q65 0 88 19q25 21 52 87l43 101zM446 1167l164 283h256l-252 -283h-168z" />
<glyph unicode="&#xfe;" horiz-adv-x="1234" d="M109 -410v1844h217v-545q56 79 141 125q86 47 203 47q143 0 256 -65t176 -186q63 -122 63 -286q0 -160 -63 -281q-64 -123 -176 -189t-256 -66q-119 0 -204 43q-86 44 -136 119v-560h-221zM328 528q0 -157 84 -256q83 -98 221 -98q137 0 222 98t85 252q0 157 -85 252 q-85 96 -222 96t-221 -95t-84 -249z" />
<glyph unicode="&#xff;" horiz-adv-x="1056" d="M4 1049h236l292 -809l285 809h236l-475 -1213q-37 -92 -68 -144q-30 -50 -76 -76t-121 -26h-237v195h155q65 0 88 19q25 21 52 87l43 101zM199 1321q0 53 37 89t92 36q54 0 92 -36q37 -36 37 -89t-37 -89t-92 -36q-54 0 -92 36q-37 36 -37 89zM598 1321q0 53 37 89t90 36 q55 0 92 -36t37 -89t-37 -89t-92 -36q-53 0 -90 36t-37 89z" />
<glyph unicode="&#x152;" horiz-adv-x="2295" d="M76 717q0 209 91 375q91 165 255 260q163 94 373 94q161 0 281 -57q119 -57 198 -164v209h936v-209h-701v-398h578v-202h-578v-416h725v-209h-960v209q-79 -107 -198 -164q-120 -57 -281 -57q-210 0 -373 94q-164 95 -255 260q-91 166 -91 375zM317 717q0 -153 60 -271 q60 -119 168 -185t252 -66q142 0 250 66q106 65 167 185q60 118 60 271q0 151 -60 270q-61 120 -167 185q-110 67 -250 67q-142 0 -252 -67q-108 -66 -168 -185t-60 -270z" />
<glyph unicode="&#x153;" horiz-adv-x="1986" d="M70 526q0 158 66 280t188 188q123 67 278 67q136 0 242 -51q105 -50 172 -146q67 96 164 146q99 51 221 51q149 0 265 -62t182 -174q68 -115 69 -264q0 -41 -6 -84h-791v-12q8 -137 86 -217t209 -80q101 0 171 49t93 135h222q-30 -159 -157 -262q-126 -102 -312 -102 q-140 0 -248 51q-109 52 -176 145q-65 -94 -171 -145q-105 -51 -235 -51q-157 0 -278 67t-188 190q-66 121 -66 281zM297 526q0 -155 83 -253q82 -97 222 -97q138 0 224 96q85 95 85 248q0 156 -85 254t-224 98q-137 0 -221 -97t-84 -249zM1130 639h562q-15 116 -90 179 q-77 65 -195 65q-107 0 -186 -67t-91 -177z" />
<glyph unicode="&#x178;" horiz-adv-x="1325" d="M10 1436h277l377 -658l387 658h264l-535 -906v-530h-235v530zM338 1706q0 53 37 89t92 36t92 -36t37 -89t-37 -89q-38 -36 -92 -36q-55 0 -92 36t-37 89zM737 1706q0 53 37 89q38 36 90 36q54 0 92 -36q37 -36 37 -89t-37 -89q-38 -36 -92 -36q-52 0 -90 36 q-37 36 -37 89z" />
<glyph unicode="&#x2c6;" horiz-adv-x="819" d="M47 1149l260 285h205l260 -285h-209l-153 147l-156 -147h-207z" />
<glyph unicode="&#x2dc;" horiz-adv-x="819" d="M104 1196v33q0 86 52 144q51 57 133 57q46 0 76 -16q23 -12 65 -44q22 -20 40 -31q17 -10 40 -10q33 0 51 27q19 28 19 65h135v-32q0 -89 -51 -146t-134 -57q-50 0 -79 16q-35 19 -62 45q-22 20 -40 31q-17 10 -40 10q-33 0 -52 -26t-19 -66h-134z" />
<glyph unicode="&#x2000;" horiz-adv-x="917" />
<glyph unicode="&#x2001;" horiz-adv-x="1835" />
<glyph unicode="&#x2002;" horiz-adv-x="917" />
<glyph unicode="&#x2003;" horiz-adv-x="1835" />
<glyph unicode="&#x2004;" horiz-adv-x="611" />
<glyph unicode="&#x2005;" />
<glyph unicode="&#x2006;" horiz-adv-x="305" />
<glyph unicode="&#x2007;" horiz-adv-x="305" />
<glyph unicode="&#x2008;" horiz-adv-x="229" />
<glyph unicode="&#x2009;" horiz-adv-x="367" />
<glyph unicode="&#x200a;" horiz-adv-x="101" />
<glyph unicode="&#x2010;" horiz-adv-x="888" d="M96 492v180h697v-180h-697z" />
<glyph unicode="&#x2011;" horiz-adv-x="888" d="M96 492v180h697v-180h-697z" />
<glyph unicode="&#x2012;" horiz-adv-x="888" d="M96 492v180h697v-180h-697z" />
<glyph unicode="&#x2013;" horiz-adv-x="1216" d="M96 492v180h1024v-180h-1024z" />
<glyph unicode="&#x2014;" horiz-adv-x="1890" d="M96 494v180h1698v-180h-1698z" />
<glyph unicode="&#x2018;" d="M63 1133q0 146 89 229t241 84v-119q-89 -1 -135 -47q-45 -45 -45 -106q0 -17 2 -27q26 20 68 20q54 0 87 -33t33 -98q0 -59 -43 -99t-112 -40q-82 0 -133 68q-52 69 -52 168z" />
<glyph unicode="&#x2019;" d="M55 1307q0 59 43 99t113 40q82 0 133 -68t51 -168q0 -147 -88 -229q-89 -83 -241 -84v119q89 1 135 47q45 45 45 106q0 17 -2 27q-26 -20 -68 -20q-54 0 -87 33q-34 34 -34 98z" />
<glyph unicode="&#x201a;" d="M55 125q0 59 43 99t113 40q82 0 133 -67t51 -168q0 -148 -88 -230q-89 -83 -241 -84v119q89 1 135 47q45 45 45 107q0 16 -2 26q-26 -20 -68 -20q-53 0 -87 34t-34 97z" />
<glyph unicode="&#x201c;" horiz-adv-x="854" d="M63 1133q0 146 89 229t241 84v-119q-89 -1 -135 -47q-45 -45 -45 -106q0 -17 2 -27q26 20 68 20q54 0 87 -33t33 -98q0 -59 -43 -99t-112 -40q-82 0 -133 68q-52 69 -52 168zM457 1133q0 147 88 229q89 83 241 84v-119q-89 -1 -135 -47q-45 -45 -45 -106q0 -17 2 -27 q26 20 68 20q54 0 87 -33q34 -34 34 -98q0 -59 -43 -99t-113 -40q-82 0 -133 68q-51 67 -51 168z" />
<glyph unicode="&#x201d;" horiz-adv-x="854" d="M55 1307q0 59 43 99t113 40q82 0 133 -68t51 -168q0 -147 -88 -229q-89 -83 -241 -84v119q89 1 135 47q45 45 45 106q0 17 -2 27q-26 -20 -68 -20q-54 0 -87 33q-34 34 -34 98zM449 1307q0 59 43 99t112 40q82 0 133 -68t51 -168q0 -147 -88 -229q-89 -83 -241 -84v119 q89 1 135 47q45 45 45 106q0 17 -2 27q-26 -20 -68 -20q-54 0 -87 33t-33 98z" />
<glyph unicode="&#x201e;" horiz-adv-x="854" d="M55 125q0 59 43 99t113 40q82 0 133 -67t51 -168q0 -148 -88 -230q-89 -83 -241 -84v119q89 1 135 47q45 45 45 107q0 16 -2 26q-26 -20 -68 -20q-53 0 -87 34t-34 97zM449 125q0 59 43 99t112 40q82 0 133 -67t51 -168q0 -148 -88 -230q-89 -83 -241 -84v119 q89 1 135 47q45 45 45 107q0 16 -2 26q-26 -20 -68 -20q-53 0 -87 34q-33 33 -33 97z" />
<glyph unicode="&#x2022;" horiz-adv-x="878" d="M129 696q0 134 87 216q88 83 222 83q137 0 226 -83q88 -82 88 -216q0 -133 -88 -217t-226 -84q-135 0 -222 84t-87 217z" />
<glyph unicode="&#x2026;" horiz-adv-x="1327" d="M88 127q0 61 40 100t101 39q63 0 103 -39q41 -39 41 -100t-41 -100q-40 -39 -103 -39q-61 0 -101 39t-40 100zM522 127q0 61 40 100t102 39t102 -39q41 -39 41 -100t-41 -100q-40 -39 -102 -39t-102 39t-40 100zM954 127q0 61 40 100t102 39t102 -39q41 -39 41 -100 t-41 -100q-40 -39 -102 -39t-102 39t-40 100z" />
<glyph unicode="&#x202f;" horiz-adv-x="367" />
<glyph unicode="&#x2039;" horiz-adv-x="720" d="M88 524l320 525h223l-316 -525l316 -524h-223z" />
<glyph unicode="&#x203a;" horiz-adv-x="720" d="M90 0l316 524l-316 525h223l320 -525l-320 -524h-223z" />
<glyph unicode="&#x205f;" />
<glyph unicode="&#x20ac;" horiz-adv-x="1366" d="M45 496v153h131q-2 22 -2 68q0 25 2 55h-131v152h141q33 245 184 384q150 138 378 138q239 0 385 -135q145 -134 163 -365h-231q-18 140 -99 219q-82 80 -210 80q-132 0 -221 -84t-111 -237h364l-26 -152h-352q-2 -24 -2 -53l2 -70h323l-26 -153h-283q29 -148 116 -228 q88 -80 218 -80q126 0 206 80q78 78 101 219h229q-23 -232 -166 -365q-145 -134 -380 -134q-225 0 -374 134t-188 374h-141z" />
<glyph unicode="&#x2122;" horiz-adv-x="1456" d="M86 1311v123h487v-123h-176v-428h-135v428h-176zM637 883v551h186l166 -383l164 383h184v-551h-129v389l-170 -389h-106l-166 389v-389h-129z" />
<glyph unicode="&#x25fc;" horiz-adv-x="1044" d="M0 0v1044h1044v-1044h-1044z" />
<glyph unicode="&#xfb02;" horiz-adv-x="1120" d="M-6 854v195h182v104q0 139 72 210q73 71 221 71h213v-195h-182q-52 0 -77 -25q-24 -24 -24 -77v-88h281v-195h-281v-854h-223v854h-182zM791 0v1434h221v-1434h-221z" />
</font>
</defs>
</svg>
