<svg width="6" height="9" viewBox="0 0 6 9" fill="none" xmlns="http://www.w3.org/2000/svg">
<path d="M1.0518 0.628424C0.941903 0.626007 0.833984 0.657864 0.743046 0.719616C0.652109 0.781368 0.58267 0.869962 0.544385 0.973003C0.506101 1.07604 0.500872 1.18844 0.529426 1.29459C0.55798 1.40073 0.618898 1.49531 0.703711 1.56523L3.93979 4.33754L0.703711 7.10887C0.645042 7.15199 0.595908 7.20674 0.559386 7.26972C0.522864 7.33271 0.499741 7.40258 0.491465 7.47492C0.483189 7.54726 0.489938 7.62051 0.51129 7.69012C0.532642 7.75973 0.568136 7.8242 0.61555 7.87946C0.662964 7.93472 0.721276 7.97954 0.786836 8.01122C0.852395 8.04289 0.923788 8.06069 0.996545 8.06349C1.0693 8.0663 1.14185 8.0541 1.20966 8.02757C1.27746 8.00103 1.33906 7.96079 1.39059 7.90935L5.09561 4.73934C5.1538 4.68968 5.20052 4.62805 5.23255 4.5586C5.26459 4.48914 5.28118 4.41354 5.28118 4.33705C5.28118 4.26056 5.26459 4.18496 5.23255 4.11551C5.20052 4.04605 5.1538 3.98436 5.09561 3.93471L1.39059 0.761644C1.297 0.678511 1.17695 0.631247 1.0518 0.628302V0.628424Z" fill="black"/>
</svg>
