<svg width="20" height="22" viewBox="0 0 20 22" fill="none" xmlns="http://www.w3.org/2000/svg">
<path d="M13.84 21.25H6.15997C5.39159 21.2389 4.65572 20.9381 4.09951 20.4079C3.5433 19.8776 3.20776 19.157 3.15997 18.39L2.24997 4.55C2.2453 4.44966 2.26057 4.34938 2.2949 4.25498C2.32923 4.16057 2.38193 4.07391 2.44997 4C2.52005 3.9234 2.60491 3.86177 2.69942 3.81881C2.79394 3.77584 2.89617 3.75244 2.99997 3.75H17C17.1028 3.74977 17.2046 3.7707 17.299 3.81148C17.3934 3.85226 17.4784 3.91202 17.5488 3.98704C17.6191 4.06207 17.6733 4.15077 17.7079 4.24761C17.7425 4.34446 17.7568 4.44739 17.75 4.55L16.88 18.39C16.8317 19.1638 16.4905 19.8902 15.9258 20.4214C15.3611 20.9527 14.6153 21.249 13.84 21.25ZM3.83997 5.25L4.60997 18.3C4.63541 18.6935 4.80987 19.0625 5.09784 19.3319C5.38581 19.6013 5.76563 19.7508 6.15997 19.75H13.84C14.2336 19.7485 14.6121 19.5982 14.8996 19.3292C15.187 19.0603 15.3622 18.6927 15.39 18.3L16.2 5.3L3.83997 5.25Z" fill="black"/>
<path d="M19 5.25H1C0.801088 5.25 0.610322 5.17098 0.46967 5.03033C0.329018 4.88968 0.25 4.69891 0.25 4.5C0.25 4.30109 0.329018 4.11032 0.46967 3.96967C0.610322 3.82902 0.801088 3.75 1 3.75H19C19.1989 3.75 19.3897 3.82902 19.5303 3.96967C19.671 4.11032 19.75 4.30109 19.75 4.5C19.75 4.69891 19.671 4.88968 19.5303 5.03033C19.3897 5.17098 19.1989 5.25 19 5.25Z" fill="black"/>
<path d="M13 5.25H7C6.80189 5.24741 6.61263 5.16756 6.47253 5.02747C6.33244 4.88737 6.25259 4.69811 6.25 4.5V2.7C6.26268 2.18682 6.47219 1.69816 6.83518 1.33518C7.19816 0.972192 7.68682 0.762677 8.2 0.75H11.8C12.3217 0.763047 12.8177 0.979507 13.182 1.35317C13.5463 1.72684 13.7502 2.22812 13.75 2.75V4.5C13.7474 4.69811 13.6676 4.88737 13.5275 5.02747C13.3874 5.16756 13.1981 5.24741 13 5.25ZM7.75 3.75H12.25V2.75C12.25 2.63065 12.2026 2.51619 12.1182 2.4318C12.0338 2.34741 11.9193 2.3 11.8 2.3H8.2C8.08065 2.3 7.96619 2.34741 7.8818 2.4318C7.79741 2.51619 7.75 2.63065 7.75 2.75V3.75Z" fill="black"/>
<path d="M13 17.25C12.8019 17.2474 12.6126 17.1676 12.4725 17.0275C12.3324 16.8874 12.2526 16.6981 12.25 16.5V8.5C12.25 8.30109 12.329 8.11032 12.4697 7.96967C12.6103 7.82902 12.8011 7.75 13 7.75C13.1989 7.75 13.3897 7.82902 13.5303 7.96967C13.671 8.11032 13.75 8.30109 13.75 8.5V16.5C13.7474 16.6981 13.6676 16.8874 13.5275 17.0275C13.3874 17.1676 13.1981 17.2474 13 17.25Z" fill="black"/>
<path d="M7 17.25C6.80189 17.2474 6.61263 17.1676 6.47253 17.0275C6.33244 16.8874 6.25259 16.6981 6.25 16.5V8.5C6.25 8.30109 6.32902 8.11032 6.46967 7.96967C6.61032 7.82902 6.80109 7.75 7 7.75C7.19891 7.75 7.38968 7.82902 7.53033 7.96967C7.67098 8.11032 7.75 8.30109 7.75 8.5V16.5C7.74741 16.6981 7.66756 16.8874 7.52747 17.0275C7.38737 17.1676 7.19811 17.2474 7 17.25Z" fill="black"/>
<path d="M10 17.25C9.80189 17.2474 9.61263 17.1676 9.47253 17.0275C9.33244 16.8874 9.25259 16.6981 9.25 16.5V8.5C9.25 8.30109 9.32902 8.11032 9.46967 7.96967C9.61032 7.82902 9.80109 7.75 10 7.75C10.1989 7.75 10.3897 7.82902 10.5303 7.96967C10.671 8.11032 10.75 8.30109 10.75 8.5V16.5C10.7474 16.6981 10.6676 16.8874 10.5275 17.0275C10.3874 17.1676 10.1981 17.2474 10 17.25Z" fill="black"/>
</svg>
