<svg width="24" height="24" viewBox="0 0 24 24" fill="none" xmlns="http://www.w3.org/2000/svg">
<path d="M0.799931 2.09599e-07C0.358243 2.09599e-07 0 0.275583 0 0.615331V18.4615C0 18.8013 0.358258 19.0769 0.799931 19.0769H6.39981V23.3845L6.40009 23.3847C6.40009 23.7244 6.75807 24 7.20002 24H23.2001C23.6418 24 24 23.7244 24 23.3847V5.53847C24 5.1985 23.6417 4.92314 23.2001 4.92314H17.6002V0.615546L17.5999 0.615331C17.5999 0.275572 17.2419 0 16.8 0L0.799931 2.09599e-07ZM1.59986 1.23066H15.9999V17.8461H1.59986V1.23066ZM17.5999 6.15386H22.3999V22.7693H7.99981V19.077H16.7998C17.2418 19.077 17.5998 18.8014 17.5998 18.4617L17.5999 6.15386Z" fill="black"/>
</svg>
