<svg width="28" height="28" viewBox="0 0 28 28" fill="none" xmlns="http://www.w3.org/2000/svg">
<g clip-path="url(#clip0_1_420)">
<path d="M14 0C6.26155 0 0 6.26221 0 14C0 21.7384 6.26221 28 14 28C21.7384 28 28 21.7378 28 14C28 6.26155 21.7378 0 14 0ZM14 26.1334C7.3097 26.1334 1.86665 20.6904 1.86665 14C1.86665 7.30964 7.3097 1.86665 14 1.86665C20.6903 1.86665 26.1334 7.3097 26.1334 14C26.1334 20.6903 20.6903 26.1334 14 26.1334Z" fill="black"/>
<path d="M21.4109 8.85552C21.0464 8.49103 20.4554 8.49103 20.091 8.85552L11.7819 17.1646L7.90898 13.2917C7.54449 12.9272 6.95348 12.9272 6.58904 13.2917C6.22455 13.6562 6.22455 14.2471 6.58904 14.6116L11.1219 19.1445C11.4864 19.5089 12.0775 19.5088 12.4419 19.1445L21.4109 10.1754C21.7754 9.81091 21.7754 9.22001 21.4109 8.85552Z" fill="black"/>
</g>
<defs>
<clipPath id="clip0_1_420">
<rect width="28" height="28" fill="white"/>
</clipPath>
</defs>
</svg>
