<svg width="24" height="24" viewBox="0 0 24 24" fill="none" xmlns="http://www.w3.org/2000/svg">
<path d="M11.6324 16.0884C10.9462 16.0884 10.3906 16.6603 10.3906 17.3466C10.3906 18.0165 10.9298 18.6047 11.6324 18.6047C12.335 18.6047 12.8905 18.0165 12.8905 17.3466C12.8905 16.6603 12.3187 16.0884 11.6324 16.0884Z" fill="black"/>
<path d="M11.8448 6.56262C9.63899 6.56262 8.62598 7.86973 8.62598 8.75206C8.62598 9.38933 9.16513 9.68342 9.60632 9.68342C10.4886 9.68342 10.1292 8.42529 11.7958 8.42529C12.6127 8.42529 13.2663 8.78478 13.2663 9.53637C13.2663 10.4187 12.3513 10.9252 11.8121 11.3827C11.3383 11.7912 10.7174 12.4611 10.7174 13.8663C10.7174 14.7159 10.9461 14.961 11.616 14.961C12.4167 14.961 12.58 14.6016 12.58 14.2911C12.58 13.4415 12.5964 12.9513 13.4951 12.2487C13.9362 11.9056 15.3251 10.7945 15.3251 9.25864C15.3251 7.72273 13.9362 6.56262 11.8448 6.56262Z" fill="black"/>
<path d="M12 0C5.36794 0 0 5.36705 0 12V23.0625C0 23.5803 0.419719 24 0.9375 24H12C18.632 24 24 18.633 24 12C24 5.36794 18.633 0 12 0ZM12 22.125H1.875V12C1.875 6.4042 6.40345 1.875 12 1.875C17.5958 1.875 22.125 6.40345 22.125 12C22.125 17.5958 17.5965 22.125 12 22.125Z" fill="black"/>
</svg>
