<svg width="30" height="30" viewBox="0 0 30 30" fill="none" xmlns="http://www.w3.org/2000/svg">
<g clip-path="url(#clip0_1_482)">
<path d="M15 30C6.7289 30 0 23.2711 0 15C0 6.7289 6.7289 0 15 0C23.2711 0 30 6.7289 30 15C30 23.2711 23.2711 30 15 30ZM15 2.14279C7.91061 2.14279 2.14279 7.91061 2.14279 15C2.14279 22.0894 7.91061 27.8572 15 27.8572C22.0894 27.8572 27.8572 22.0894 27.8572 15C27.8572 7.91061 22.0894 2.14279 15 2.14279Z" fill="black"/>
<path d="M20.3572 21.4286C20.083 21.4286 19.8088 21.324 19.5996 21.1146L8.88538 10.4004C8.46675 9.98176 8.46675 9.30381 8.88538 8.88542C9.30378 8.46702 9.98195 8.46679 10.4003 8.88542L21.1145 19.5996C21.5332 20.0182 21.5332 20.6962 21.1145 21.1146C20.9053 21.324 20.6314 21.4286 20.3572 21.4286Z" fill="black"/>
<path d="M9.64275 21.4286C9.36855 21.4286 9.09458 21.324 8.88538 21.1146C8.46675 20.6962 8.46675 20.018 8.88538 19.5996L19.5996 8.88544C20.0182 8.46682 20.6961 8.46682 21.1145 8.88544C21.5329 9.30384 21.5332 9.98201 21.1145 10.4004L10.4003 21.1146C10.1912 21.324 9.91695 21.4286 9.64275 21.4286Z" fill="black"/>
</g>
<defs>
<clipPath id="clip0_1_482">
<rect width="30" height="30" fill="white"/>
</clipPath>
</defs>
</svg>
