<svg width="8" height="5" viewBox="0 0 8 5" fill="none" xmlns="http://www.w3.org/2000/svg">
<path d="M0.158103 0.17321C0.263505 0.0577364 0.3883 -3.32718e-07 0.53249 -3.26415e-07C0.676399 -3.20125e-07 0.801054 0.0577364 0.906456 0.17321L3.99473 3.55658L7.09354 0.161663C7.19192 0.0538875 7.31489 -2.99472e-08 7.46245 -2.3497e-08C7.61001 -1.70469e-08 7.7365 0.0577367 7.8419 0.17321C7.9473 0.288684 8 0.425404 8 0.583372C8 0.741032 7.9473 0.877598 7.8419 0.993072L4.28985 4.87298C4.24769 4.91917 4.20202 4.95196 4.15283 4.97136C4.10364 4.99045 4.05094 5 3.99473 5C3.93852 5 3.88581 4.99045 3.83663 4.97136C3.78744 4.95196 3.74177 4.91917 3.6996 4.87298L0.147562 0.981524C0.0491876 0.873748 -3.23915e-08 0.741031 -2.55e-08 0.583371C-1.8595e-08 0.425404 0.052701 0.288683 0.158103 0.17321Z" fill="black"/>
</svg>
