<svg width="20" height="22" viewBox="0 0 20 22" fill="none" xmlns="http://www.w3.org/2000/svg">
<path d="M19.6465 19.407L16.4153 13.8103C16.5313 13.6751 16.6891 13.5751 16.8731 13.5317C17.3821 13.4118 17.8042 13.0728 18.0311 12.6016C18.258 12.1305 18.2598 11.5891 18.0363 11.1164C17.8651 10.7547 17.9629 10.3261 18.2741 10.0744C18.6806 9.74553 18.9138 9.25699 18.9138 8.73408C18.9138 8.21116 18.6806 7.72258 18.2741 7.39371C17.9629 7.142 17.8651 6.71349 18.0363 6.3517C18.2599 5.87898 18.258 5.33763 18.0311 4.86649C17.8042 4.39536 17.3821 4.05634 16.8731 3.93642C16.4836 3.84464 16.2095 3.50103 16.2067 3.10079C16.2031 2.57788 15.9665 2.09097 15.5576 1.76493C15.1488 1.4389 14.6214 1.31657 14.1108 1.4294C13.72 1.51568 13.324 1.32503 13.1479 0.965654C12.9177 0.496106 12.4933 0.160058 11.9834 0.0437025C11.4736 -0.0726962 10.9454 0.0459798 10.5343 0.369138C10.2197 0.616501 9.78016 0.616501 9.46551 0.369138C9.0544 0.0459798 8.52625 -0.0726103 8.01639 0.0437025C7.50654 0.160058 7.08215 0.496106 6.85198 0.965654C6.67581 1.32503 6.2797 1.51581 5.88904 1.4294C5.37841 1.31665 4.85103 1.4389 4.44224 1.76493C4.0334 2.09097 3.79682 2.57788 3.79317 3.10079C3.79038 3.50099 3.51633 3.84464 3.12675 3.93642C2.61775 4.05634 2.19569 4.39536 1.96882 4.86649C1.74191 5.33763 1.74006 5.87898 1.96362 6.35166C2.13476 6.71345 2.03696 7.14196 1.72579 7.39366C1.31924 7.72258 1.08605 8.21112 1.08605 8.73403C1.08605 9.25695 1.31924 9.74553 1.72579 10.0744C2.03696 10.3261 2.13476 10.7546 1.96362 11.1164C1.74002 11.5891 1.74191 12.1305 1.96882 12.6016C2.19569 13.0728 2.61775 13.4118 3.12679 13.5317C3.31086 13.575 3.46859 13.6751 3.58465 13.8103L0.353457 19.407C0.266448 19.5577 0.278952 19.746 0.385081 19.8839C0.491254 20.0218 0.670084 20.082 0.838044 20.0365L3.08855 19.4259L3.68506 21.6802C3.72958 21.8485 3.8712 21.9732 4.04371 21.9962C4.06275 21.9987 4.08174 22 4.1006 22C4.25258 22 4.39514 21.9192 4.47257 21.7851L7.2297 17.0097C7.44806 17.2118 7.71734 17.3562 8.01648 17.4244C8.52625 17.5407 9.05449 17.4222 9.46564 17.099C9.78025 16.8516 10.2198 16.8516 10.5344 17.099C10.8421 17.3408 11.2152 17.4681 11.5972 17.4681C11.7257 17.4681 11.8552 17.4538 11.9835 17.4244C12.2827 17.3562 12.552 17.2118 12.7703 17.0097L15.5274 21.7851C15.6049 21.9192 15.7474 22 15.8994 22C15.9182 22 15.9373 21.9987 15.9563 21.9962C16.1288 21.9732 16.2704 21.8484 16.3149 21.6802L16.9115 19.4259L19.162 20.0365C19.3299 20.0821 19.5088 20.0218 19.6149 19.8839C19.7211 19.746 19.7336 19.5577 19.6465 19.407V19.407ZM4.24931 20.4531L3.80873 18.7881C3.77942 18.6776 3.70728 18.5831 3.6082 18.526C3.50907 18.4687 3.3913 18.4534 3.28087 18.4834L1.61863 18.9343L3.90682 14.9711C4.0151 15.2549 4.19754 15.508 4.44232 15.7032C4.85116 16.0293 5.37858 16.1516 5.88912 16.0387C6.17748 15.9751 6.46841 16.0626 6.67203 16.257L4.24931 20.4531ZM11.7923 16.5867C11.5365 16.645 11.2716 16.5855 11.0655 16.4235C10.7518 16.1768 10.376 16.0536 9.99999 16.0536C9.62411 16.0536 9.2481 16.1769 8.93448 16.4235C8.72832 16.5856 8.46351 16.6451 8.20769 16.5867C7.95199 16.5283 7.73913 16.3598 7.62367 16.1243C7.27246 15.4077 6.48284 15.0275 5.70372 15.1996C5.44759 15.2562 5.18312 15.1949 4.97808 15.0313C4.77304 14.8678 4.65437 14.6236 4.65252 14.3613C4.64698 13.5634 4.1006 12.8783 3.32388 12.6953C3.06857 12.6351 2.85691 12.4651 2.74309 12.2288C2.62931 11.9925 2.62837 11.721 2.74051 11.4839C3.08167 10.7625 2.88669 9.9082 2.26628 9.40634C2.06236 9.24139 1.94544 8.99635 1.94544 8.73408C1.94544 8.4718 2.0624 8.22676 2.26632 8.06181C2.88669 7.55995 3.08172 6.70563 2.74051 5.98425C2.62837 5.74715 2.62931 5.47564 2.74313 5.23936C2.85691 5.00304 3.06861 4.83302 3.32388 4.77287C4.1006 4.58987 4.64698 3.90475 4.65252 3.10681C4.65437 2.84453 4.773 2.60031 4.97808 2.43682C5.18312 2.27328 5.44755 2.21188 5.70376 2.26851C6.4828 2.44051 7.27246 2.06042 7.62367 1.3439C7.73913 1.10839 7.95199 0.939831 8.20769 0.881481C8.46347 0.823174 8.72832 0.882598 8.93448 1.04467C9.56185 1.53789 10.4381 1.53789 11.0655 1.04467C11.2717 0.882598 11.5365 0.823174 11.7923 0.881481C12.048 0.939831 12.2608 1.10839 12.3763 1.3439C12.7275 2.06042 13.5171 2.44051 14.2963 2.26851C14.5523 2.21184 14.8168 2.27328 15.0219 2.43682C15.2269 2.60035 15.3456 2.84453 15.3475 3.10681C15.353 3.90475 15.8994 4.58987 16.6761 4.77287C16.9314 4.83302 17.1431 5.00304 17.2569 5.23936C17.3707 5.47568 17.3716 5.74715 17.2595 5.98429C16.9183 6.70563 17.1133 7.55995 17.7337 8.06181C17.9376 8.22676 18.0545 8.4718 18.0545 8.73408C18.0545 8.99635 17.9376 9.24139 17.7336 9.40634C17.1133 9.9082 16.9183 10.7625 17.2595 11.4839C17.3716 11.721 17.3707 11.9925 17.2568 12.2288C17.1431 12.4651 16.9314 12.6351 16.6761 12.6953C15.8994 12.8783 15.353 13.5634 15.3475 14.3613C15.3456 14.6236 15.227 14.8678 15.0219 15.0313C14.8168 15.1949 14.5524 15.2562 14.2962 15.1996C13.5171 15.0275 12.7275 15.4077 12.3763 16.1243C12.2608 16.3598 12.048 16.5283 11.7923 16.5867V16.5867ZM16.7191 18.4834C16.6086 18.4534 16.4909 18.4688 16.3918 18.526C16.2927 18.5832 16.2205 18.6776 16.1912 18.7881L15.7507 20.4531L13.328 16.257C13.5316 16.0625 13.8226 15.975 14.1108 16.0387C14.6215 16.1515 15.1488 16.0293 15.5576 15.7032C15.8024 15.508 15.9849 15.2549 16.0932 14.9711L18.3813 18.9343L16.7191 18.4834Z" fill="white"/>
<path d="M12.0443 11.9834C12.133 11.9834 12.2216 11.956 12.2969 11.9013C12.4471 11.7922 12.5102 11.5989 12.4534 11.4221L11.7761 9.31639L13.5622 8.00404C13.7118 7.89408 13.7739 7.70039 13.7161 7.52392C13.6582 7.34745 13.4935 7.22813 13.3078 7.22813H11.0976L10.4083 5.1281C10.3504 4.95167 10.1858 4.8324 10.0001 4.8324C9.81445 4.8324 9.64975 4.95167 9.59188 5.1281L8.90264 7.22813H6.69239C6.50669 7.22813 6.34195 7.34745 6.28412 7.52392C6.22624 7.70039 6.28833 7.89408 6.43802 8.00404L8.22414 9.31639L7.54684 11.4221C7.49 11.5989 7.55311 11.7922 7.70333 11.9013C7.85359 12.0104 8.05691 12.0107 8.20742 11.902L10.0002 10.6076L11.793 11.902C11.8679 11.9563 11.9561 11.9834 12.0443 11.9834V11.9834ZM10.2516 9.72931C10.1764 9.67508 10.0882 9.64797 10 9.64797C9.91181 9.64797 9.8236 9.67508 9.74849 9.72931L8.76565 10.439L9.13685 9.28489C9.19344 9.10894 9.13118 8.91649 8.98221 8.80705L8.00277 8.08739H9.21376C9.39942 8.08739 9.56412 7.96812 9.622 7.79169L10 6.63986L10.3781 7.79169C10.436 7.96812 10.6006 8.08739 10.7863 8.08739H11.9973L11.0178 8.80705C10.8689 8.91649 10.8066 9.1089 10.8632 9.28489L11.2344 10.439L10.2516 9.72931Z" fill="white"/>
<path d="M16.0154 8.73406C16.0154 5.41715 13.3168 2.71863 9.99993 2.71863C6.68302 2.71863 3.9845 5.41715 3.9845 8.73406C3.9845 11.2574 5.5776 13.5306 7.94876 14.3906C8.1718 14.4715 8.41826 14.3563 8.49921 14.1332C8.58012 13.9101 8.46488 13.6637 8.24179 13.5827C6.20939 12.8456 4.84389 10.8971 4.84389 8.73406C4.84389 5.891 7.15691 3.57798 9.99998 3.57798C12.843 3.57798 15.1561 5.891 15.1561 8.73406C15.1561 10.8972 13.7904 12.8458 11.7579 13.5829C11.5348 13.6638 11.4195 13.9102 11.5004 14.1333C11.5638 14.308 11.7287 14.4166 11.9044 14.4166C11.953 14.4166 12.0025 14.4083 12.0509 14.3907C14.4221 13.5308 16.0154 11.2576 16.0154 8.73406V8.73406Z" fill="white"/>
<path d="M10 13.8901C9.88699 13.8901 9.77613 13.9361 9.69621 14.016C9.61629 14.0959 9.57031 14.2068 9.57031 14.3198C9.57031 14.4328 9.61629 14.5436 9.69621 14.6236C9.77613 14.7035 9.88699 14.7495 10 14.7495C10.113 14.7495 10.2239 14.7035 10.3038 14.6236C10.3837 14.5436 10.4297 14.4328 10.4297 14.3198C10.4297 14.2068 10.3837 14.0959 10.3038 14.016C10.2239 13.9361 10.113 13.8901 10 13.8901Z" fill="white"/>
</svg>
