<svg width="26" height="18" viewBox="0 0 26 18" fill="none" xmlns="http://www.w3.org/2000/svg">
<path fill-rule="evenodd" clip-rule="evenodd" d="M13 8.61113C15.1477 8.61113 16.8888 6.87 16.8888 4.7222C16.8888 2.57442 15.1477 0.833313 13 0.833313C10.8523 0.833313 9.11108 2.57442 9.11108 4.7222C9.11108 6.87 10.8523 8.61113 13 8.61113ZM13 7.44446C14.5035 7.44446 15.7222 6.22565 15.7222 4.7222C15.7222 3.21876 14.5035 1.99998 13 1.99998C11.4965 1.99998 10.2778 3.21876 10.2778 4.7222C10.2778 6.22565 11.4965 7.44446 13 7.44446Z" fill="white"/>
<path fill-rule="evenodd" clip-rule="evenodd" d="M7.74996 7.24998C7.74996 8.8608 6.44412 10.1666 4.83329 10.1666C3.22246 10.1666 1.91663 8.8608 1.91663 7.24998C1.91663 5.63915 3.22246 4.33331 4.83329 4.33331C6.44412 4.33331 7.74996 5.63915 7.74996 7.24998ZM6.58329 7.24998C6.58329 8.21645 5.79979 8.99998 4.83329 8.99998C3.86679 8.99998 3.08329 8.21645 3.08329 7.24998C3.08329 6.28348 3.86679 5.49998 4.83329 5.49998C5.79979 5.49998 6.58329 6.28348 6.58329 7.24998Z" fill="white"/>
<path fill-rule="evenodd" clip-rule="evenodd" d="M0.75 17.1666V14.8333C0.75 12.5781 2.57817 10.75 4.83333 10.75C6.2623 10.75 7.51982 11.484 8.24944 12.5955C9.08952 10.8152 10.9009 9.58331 13 9.58331C15.0991 9.58331 16.9104 10.8152 17.7505 12.5955C18.4802 11.484 19.7377 10.75 21.1667 10.75C23.4218 10.75 25.25 12.5781 25.25 14.8333V17.1666C25.25 17.4888 24.9888 17.75 24.6667 17.75H1.33333C1.01117 17.75 0.75 17.4888 0.75 17.1666ZM1.91667 14.8333C1.91667 13.2225 3.2225 11.9166 4.83333 11.9166C6.44416 11.9166 7.75 13.2225 7.75 14.8333V16.5833H1.91667V14.8333ZM24.0833 16.5833V14.8333C24.0833 13.2225 22.7775 11.9166 21.1667 11.9166C19.5558 11.9166 18.25 13.2225 18.25 14.8333V16.5833H24.0833ZM17.0833 16.5833V14.8333C17.0833 12.5781 15.2552 10.75 13 10.75C10.7448 10.75 8.91667 12.5781 8.91667 14.8333V16.5833H17.0833Z" fill="white"/>
<path fill-rule="evenodd" clip-rule="evenodd" d="M24.0833 7.24998C24.0833 8.8608 22.7775 10.1666 21.1667 10.1666C19.5559 10.1666 18.25 8.8608 18.25 7.24998C18.25 5.63915 19.5559 4.33331 21.1667 4.33331C22.7775 4.33331 24.0833 5.63915 24.0833 7.24998ZM22.9167 7.24998C22.9167 8.21645 22.1331 8.99998 21.1667 8.99998C20.2002 8.99998 19.4167 8.21645 19.4167 7.24998C19.4167 6.28348 20.2002 5.49998 21.1667 5.49998C22.1331 5.49998 22.9167 6.28348 22.9167 7.24998Z" fill="white"/>
</svg>
