<svg width="22" height="22" viewBox="0 0 22 22" fill="none" xmlns="http://www.w3.org/2000/svg">
<path d="M20.9688 15.1751H17.2734V12.6374L21.2707 8.64007C21.3513 8.5595 21.3966 8.45019 21.3966 8.33624C21.3966 8.22229 21.3513 8.11297 21.2707 8.03241L19.4477 6.20941C19.2799 6.04162 19.0078 6.04166 18.84 6.20941L17.2734 7.77593V0.429688C17.2734 0.192371 17.0811 0 16.8438 0H1.03125C0.793934 0 0.601562 0.192371 0.601562 0.429688V8.17128C0.601562 8.4086 0.793934 8.60097 1.03125 8.60097C1.26857 8.60097 1.46094 8.4086 1.46094 8.17128V0.859375H16.4141V8.6353L12.6241 12.4253H6.83319C6.59587 12.4253 6.4035 12.6176 6.4035 12.855C6.4035 13.0923 6.59587 13.2846 6.83319 13.2846H11.7647L10.2519 14.7975C10.2138 14.8356 10.1838 14.8801 10.1625 14.9284L8.84447 17.9254H3.99158C3.75427 17.9254 3.56189 18.1178 3.56189 18.3551C3.56189 18.5924 3.75427 18.7848 3.99158 18.7848H13.606C13.8433 18.7848 14.0357 18.5924 14.0357 18.3551C14.0357 18.1178 13.8433 17.9254 13.606 17.9254H11.1695L12.5515 17.3176C12.5991 17.2967 12.6436 17.2671 12.6825 17.2282L16.4141 13.4967V19.5078C16.4141 20.132 16.6453 20.7029 17.0259 21.1406H3.09375C2.19343 21.1406 1.46094 20.4081 1.46094 19.5078V12.0385C1.46094 11.8012 1.26857 11.6088 1.03125 11.6088C0.793934 11.6088 0.601562 11.8012 0.601562 12.0385V19.5078C0.601562 20.882 1.71957 22 3.09375 22H18.9062C20.2804 22 21.3984 20.882 21.3984 19.5078V15.6048C21.3984 15.3675 21.2061 15.1751 20.9688 15.1751V15.1751ZM9.96269 17.5174L10.6961 15.8495L11.6306 16.7839L9.96269 17.5174ZM12.3787 16.3167L11.7711 15.709L11.1634 15.1013L19.1439 7.12087L20.3592 8.3362L12.3787 16.3167ZM20.5391 19.5078C20.5391 20.4081 19.8066 21.1406 18.9062 21.1406C18.0059 21.1406 17.2734 20.4081 17.2734 19.5078V16.0345H20.5391V19.5078Z" fill="white"/>
<path d="M8.33589 8.64394C8.77271 8.64394 9.16506 8.50012 9.4707 8.22796C9.53055 8.17463 9.5874 8.11603 9.63965 8.05372C9.79215 7.87192 9.76839 7.60087 9.58659 7.44838C9.40474 7.29584 9.13369 7.31964 8.98124 7.50144C8.95563 7.53199 8.92796 7.56053 8.89913 7.58622C8.75136 7.71783 8.56182 7.78456 8.33594 7.78456C7.71994 7.78456 7.21875 7.28338 7.21875 6.66738C7.21875 6.05138 7.71994 5.55019 8.33594 5.55019C8.55985 5.55019 8.77577 5.61606 8.96027 5.74076C9.15694 5.87361 9.42403 5.82188 9.55685 5.62526C9.68971 5.42863 9.63798 5.16154 9.44135 5.02868C9.11423 4.80765 8.73198 4.69086 8.33594 4.69086C7.24608 4.69086 6.35938 5.57756 6.35938 6.66742C6.35938 7.75728 7.24603 8.64394 8.33589 8.64394V8.64394Z" fill="white"/>
<path d="M8.33594 10.5345C10.4683 10.5345 12.2031 8.79973 12.2031 6.66736C12.2031 4.53499 10.4683 2.80017 8.33594 2.80017C6.20357 2.80017 4.46875 4.53499 4.46875 6.66736C4.46875 8.79973 6.20357 10.5345 8.33594 10.5345ZM8.33594 3.65955C9.99445 3.65955 11.3438 5.00885 11.3438 6.66736C11.3438 8.32587 9.99445 9.67517 8.33594 9.67517C6.67743 9.67517 5.32812 8.32587 5.32812 6.66736C5.32812 5.00885 6.67743 3.65955 8.33594 3.65955Z" fill="white"/>
<path d="M3.99158 16.0345H6.99028C7.2276 16.0345 7.41997 15.8422 7.41997 15.6049C7.41997 15.3675 7.2276 15.1752 6.99028 15.1752H3.99158C3.75426 15.1752 3.56189 15.3675 3.56189 15.6049C3.56189 15.8422 3.75426 16.0345 3.99158 16.0345Z" fill="white"/>
<path d="M3.99158 12.4253C3.75426 12.4253 3.56189 12.6177 3.56189 12.855C3.56189 13.0923 3.75426 13.2847 3.99158 13.2847H4.42694C4.66425 13.2847 4.85662 13.0923 4.85662 12.855C4.85662 12.6177 4.66425 12.4253 4.42694 12.4253H3.99158Z" fill="white"/>
<path d="M1.03125 10.5347C1.14426 10.5347 1.25512 10.4887 1.33504 10.4088C1.41496 10.3288 1.46094 10.218 1.46094 10.105C1.46094 9.99197 1.41496 9.88111 1.33504 9.80119C1.25512 9.72127 1.14426 9.67529 1.03125 9.67529C0.918242 9.67529 0.807383 9.72127 0.727461 9.80119C0.647539 9.88111 0.601562 9.99197 0.601562 10.105C0.601562 10.218 0.647539 10.3288 0.727461 10.4088C0.807383 10.4887 0.918242 10.5347 1.03125 10.5347Z" fill="white"/>
</svg>
