<svg width="22" height="22" viewBox="0 0 22 22" fill="none" xmlns="http://www.w3.org/2000/svg">
<path d="M10.3652 16.2804C10.1998 16.1589 9.96692 16.1944 9.84532 16.36L9.79938 16.4225C9.67791 16.5879 9.71327 16.8204 9.87853 16.9421C9.94492 16.9911 10.0223 17.0147 10.0989 17.0147C10.2129 17.0147 10.3254 16.9625 10.3983 16.8637L10.4449 16.8003C10.5665 16.6348 10.5308 16.402 10.3652 16.2804Z" fill="white"/>
<path d="M10.4623 19.8189L9.50569 18.0795L10.3988 16.863C10.5205 16.6975 10.4848 16.4647 10.3192 16.3431C10.1536 16.2214 9.92081 16.2571 9.79925 16.4228L8.76551 17.8307C8.67979 17.9474 8.66965 18.1032 8.73939 18.23L9.81051 20.1774V20.1774C9.87827 20.3005 10.0055 20.3701 10.1368 20.3701C10.1974 20.3701 10.2588 20.3553 10.3157 20.324C10.4956 20.2251 10.5613 19.9989 10.4623 19.8189Z" fill="white"/>
<path d="M13.2345 17.8307L12.205 16.4285C12.1196 16.3123 11.975 16.2558 11.8334 16.2838C11.6919 16.3116 11.5793 16.4188 11.5443 16.5586C11.5175 16.6661 11.5399 16.7798 11.6054 16.869L12.4941 18.0795L11.5441 19.8072C11.5139 19.862 11.498 19.9239 11.498 19.9866C11.498 20.1564 11.613 20.3046 11.7775 20.3469C11.8083 20.3548 11.8393 20.3586 11.87 20.3586C12.0032 20.3586 12.1294 20.2868 12.1959 20.1659L13.2606 18.2302C13.3304 18.1032 13.3202 17.9474 13.2345 17.8307Z" fill="white"/>
<path d="M13.8239 11.9854C13.7016 11.9211 13.5537 11.9299 13.4399 12.0084C13.2186 12.1608 13.0133 12.3222 12.8297 12.4882C11.8287 13.3932 10.8776 13.2707 10.8404 13.2654C10.818 13.2618 10.7951 13.2602 10.7726 13.2609C10.377 13.2711 9.6637 12.9096 8.90912 12.317C8.79371 12.2263 8.67537 12.14 8.55721 12.0602C8.44325 11.9832 8.296 11.9754 8.17457 12.04C8.0531 12.1046 7.97717 12.2309 7.97717 12.3685V13.6445C7.97717 13.7573 8.02852 13.864 8.11652 13.9346C8.12692 13.943 8.13775 13.9507 8.14892 13.9578L10.7864 15.7203C10.7868 15.7205 10.7872 15.7209 10.7876 15.7212L10.7946 15.7258C10.8567 15.7669 10.9282 15.7876 11 15.7876C11.0604 15.7876 11.1209 15.773 11.1761 15.7435C11.1877 15.7372 11.1989 15.7304 11.2096 15.7231C11.2109 15.7223 11.2121 15.7215 11.2134 15.7206C11.2149 15.7197 11.2163 15.7187 11.2178 15.7177L13.849 13.9594C13.8596 13.9527 13.8699 13.9455 13.8798 13.9378C13.9701 13.8673 14.0229 13.7592 14.0229 13.6446V12.3147C14.0229 12.1764 13.9463 12.0497 13.8239 11.9854ZM13.2789 13.4455L11 14.9683L8.72109 13.4455V13.1072C9.27599 13.5105 10.0923 14.0051 10.7576 14.005C10.759 14.005 10.7606 14.005 10.762 14.005C10.9854 14.0297 12.1246 14.0969 13.279 13.0842V13.4455H13.2789Z" fill="white"/>
<path d="M11.3669 15.3546C11.3424 15.2071 11.2318 15.0886 11.0863 15.0539C10.9407 15.0194 10.7887 15.0751 10.7002 15.1956L9.84525 16.3601C9.72365 16.5257 9.75931 16.7585 9.92496 16.8801C9.99126 16.9288 10.0683 16.9523 10.1448 16.9523C10.2592 16.9523 10.372 16.8996 10.445 16.8003L11.2954 15.642C11.3438 15.5787 11.372 15.5 11.372 15.4159C11.372 15.3954 11.3703 15.3748 11.3669 15.3546Z" fill="white"/>
<path d="M16.6668 3.36324C16.6594 3.30497 16.4852 2.04745 15.3015 1.55138C15.3358 1.33052 15.3322 1.04667 15.192 0.770506C15.0036 0.399342 14.6317 0.157471 14.0866 0.0515098C14.0632 0.0469551 14.0395 0.0446777 14.0157 0.0446777H9.02325C6.99607 0.0446777 5.3468 1.6939 5.3468 3.72117V5.68016C5.3468 6.19054 5.52078 6.68825 5.8366 7.0815C5.99318 7.27649 6.18602 7.61702 6.21511 8.13187C6.22646 8.33288 6.39472 8.48821 6.59698 8.48262C6.79824 8.47695 6.95843 8.31212 6.95843 8.11082V5.55675C7.211 4.51223 8.073 4.30894 8.2212 4.28148H9.83605C10.026 4.28148 10.2128 4.25248 10.3913 4.19524C10.6984 4.09676 11.1855 3.91552 11.5402 3.78081C11.7775 3.69062 12.0402 3.68731 12.2798 3.77153L14.0086 4.37842C14.8729 4.69725 15.0271 5.45599 15.0463 5.57519V8.64045C15.0463 8.83514 15.1964 8.99666 15.3905 9.01114C15.3999 9.01183 15.4092 9.01221 15.4185 9.01221C15.601 9.01217 15.7585 8.8785 15.7861 8.69532C15.7876 8.68574 15.9361 7.72637 16.415 6.95826C16.5816 6.69087 16.6698 6.38601 16.6698 6.07663V3.41021C16.6698 3.39452 16.6688 3.37884 16.6668 3.36324ZM15.9258 6.07646C15.9258 6.24262 15.8789 6.40745 15.7901 6.55401V5.54975C15.7901 5.5363 15.7894 5.52294 15.788 5.50957C15.7821 5.45556 15.6284 4.18085 14.2626 3.67915C14.261 3.67855 14.2593 3.67794 14.2576 3.67734L12.5262 3.06951C12.331 3.00097 12.1268 2.96677 11.9227 2.96677C11.7032 2.96677 11.4838 3.00634 11.276 3.0854C10.7794 3.27404 10.3949 3.41287 10.1641 3.48686C10.0591 3.52051 9.94876 3.53761 9.83601 3.53761H8.19112C8.17518 3.53761 8.15919 3.53864 8.14334 3.54066C8.08039 3.54882 6.59681 3.7598 6.22345 5.43322C6.21752 5.45981 6.21451 5.48697 6.21451 5.51421V6.27975C6.13352 6.09257 6.09063 5.88813 6.09063 5.6802V3.72126C6.09063 2.10426 7.40621 0.788682 9.02316 0.788682H13.9781C14.1832 0.832381 14.4325 0.922057 14.5271 1.1045C14.6429 1.32781 14.511 1.63529 14.5109 1.63555C14.4633 1.73674 14.4639 1.85392 14.5122 1.95468C14.5606 2.05544 14.6518 2.12909 14.7605 2.15526C15.7074 2.38321 15.9006 3.29144 15.9258 3.43835V6.07646H15.9258Z" fill="white"/>
<path d="M15.788 5.50958C15.7821 5.45557 15.6284 4.18085 14.2627 3.67915C14.261 3.67855 14.2593 3.67795 14.2576 3.67735L12.5262 3.06951C12.121 2.92728 11.6771 2.93296 11.2759 3.08532C10.7794 3.27396 10.3949 3.41279 10.1641 3.48682C10.0591 3.52047 9.94872 3.53753 9.83597 3.53753H8.19108C8.17514 3.53753 8.15916 3.53856 8.1433 3.54058C8.08035 3.54874 6.59677 3.75972 6.22341 5.43314C6.21749 5.45973 6.21448 5.48689 6.21448 5.51413V8.71169C6.21448 8.71444 6.21452 8.71719 6.21456 8.71994C6.21701 8.83102 6.2956 11.4541 8.10802 12.6538L8.11739 12.6604C8.12517 12.6659 8.13295 12.6714 8.14107 12.6768C8.24441 12.7466 8.34818 12.8224 8.44967 12.902C8.97767 13.3167 9.9727 14.0051 10.7576 14.0051C10.7591 14.0051 10.7605 14.0051 10.762 14.0051C10.8046 14.0097 10.8807 14.016 10.9839 14.016C11.4288 14.016 12.3779 13.8994 13.3285 13.0401C13.4881 12.8959 13.6675 12.7549 13.8619 12.6209L13.8897 12.6014C13.8988 12.595 13.9079 12.5886 13.9172 12.5823C14.5218 12.1763 15.5689 11.1285 15.7887 8.67354C15.7897 8.66254 15.7902 8.65141 15.7902 8.64032V5.54975C15.7901 5.53635 15.7894 5.52298 15.788 5.50958ZM15.0462 8.62352C14.8435 10.8391 13.8995 11.698 13.5024 11.9647C13.4883 11.9742 13.4744 11.984 13.4605 11.9938L13.4398 12.0083C13.2186 12.1607 13.0133 12.3222 12.8296 12.4882C11.8324 13.3897 10.8845 13.2715 10.838 13.265C10.8163 13.2617 10.7944 13.2604 10.7726 13.261C10.3769 13.2711 9.66367 12.9096 8.90909 12.317C8.79368 12.2263 8.67534 12.14 8.55735 12.0603L8.5482 12.0539C8.53926 12.0475 8.53036 12.0412 8.51988 12.0343C7.05731 11.0662 6.96162 8.80085 6.9584 8.70632V5.55671C7.21187 4.50836 8.07919 4.3074 8.22056 4.28144H9.83601C10.026 4.28144 10.2128 4.25244 10.3913 4.19521C10.6984 4.09672 11.1855 3.91548 11.5402 3.78077C11.7774 3.69058 12.0401 3.68727 12.2798 3.77149L14.0086 4.37838C14.8729 4.69721 15.0271 5.45595 15.0462 5.57515V8.62352H15.0462Z" fill="white"/>
<path d="M11.3326 15.2495C11.2747 15.1336 11.1605 15.0562 11.0314 15.0452C10.9025 15.0346 10.7768 15.0912 10.7001 15.1957L9.8091 16.4093C9.68762 16.5748 9.72311 16.8074 9.8885 16.9291C9.95485 16.9779 10.0321 17.0015 10.1086 17.0015C10.2227 17.0015 10.3354 16.9491 10.4083 16.8501L11.2993 15.6411C11.3465 15.5771 11.3719 15.4954 11.3719 15.416C11.372 15.3583 11.3584 15.3012 11.3326 15.2495Z" fill="white"/>
<path d="M11.3565 21.2384C11.2168 21.0923 10.9859 21.0845 10.8367 21.221L10.7517 21.2988C10.6244 21.4152 10.5938 21.6039 10.678 21.7546L10.6806 21.7593C10.7374 21.8611 10.8387 21.9303 10.9542 21.9464C10.9713 21.9487 10.9884 21.9499 11.0054 21.9499C11.1033 21.9499 11.1981 21.9112 11.2684 21.8409L11.3508 21.7584C11.4937 21.6155 11.4963 21.3845 11.3565 21.2384Z" fill="white"/>
<path d="M11.2483 21.2988L11.1633 21.2211C11.0141 21.0846 10.7832 21.0924 10.6434 21.2385C10.5037 21.3846 10.5062 21.6157 10.6492 21.7586L10.7317 21.8411C10.802 21.9113 10.8968 21.95 10.9947 21.95C11.0122 21.95 11.0298 21.9488 11.0474 21.9462C11.1632 21.9297 11.2645 21.8595 11.3209 21.7569L11.3235 21.7522C11.4059 21.6019 11.3749 21.4146 11.2483 21.2988Z" fill="white"/>
<path d="M11.2546 21.3047L11.2542 21.3042C11.1967 21.2505 11.1224 21.2151 11.0406 21.2061C10.9309 21.1942 10.8242 21.2313 10.7465 21.3036L10.7454 21.3047C10.6702 21.3732 10.6264 21.4697 10.6242 21.5714C10.622 21.6733 10.6617 21.7715 10.7338 21.8432L10.7377 21.8471C10.8103 21.9193 10.9051 21.9553 11 21.9553C11.0952 21.9553 11.1904 21.919 11.263 21.8464L11.2669 21.8425C11.3387 21.7706 11.3781 21.6726 11.3757 21.571C11.3735 21.4694 11.3297 21.3731 11.2546 21.3047Z" fill="white"/>
<path d="M11.1206 15.0558C10.9666 15.0065 10.7976 15.0637 10.7038 15.1956C10.5988 15.3433 10.6161 15.5446 10.744 15.6731C10.8159 15.7453 10.9114 15.7824 11.0076 15.7824C11.0823 15.7824 11.1574 15.76 11.2222 15.7144C11.3212 15.6447 11.3801 15.5313 11.3801 15.4102V15.4093C11.3801 15.2475 11.2749 15.105 11.1206 15.0558Z" fill="white"/>
<path d="M11.3023 15.1926L11.2991 15.1883C11.2037 15.0591 11.0361 15.0059 10.8836 15.0561C10.7311 15.1064 10.6281 15.2488 10.6281 15.4094V15.4157C10.6281 15.5527 10.7049 15.6775 10.8256 15.7423C10.8802 15.7716 10.9406 15.7861 11.0008 15.7861C11.0735 15.7861 11.146 15.7651 11.2084 15.7237C11.2935 15.6674 11.3517 15.5787 11.3694 15.4782C11.3872 15.3779 11.3629 15.2745 11.3023 15.1926Z" fill="white"/>
<path d="M15.4249 14.0241C15.3863 13.9222 15.3051 13.8423 15.2025 13.8056L13.7764 13.2944C13.7648 13.2903 13.7528 13.2866 13.7409 13.2837C13.6391 13.2582 13.5312 13.2769 13.444 13.3352L10.8015 15.101C10.8008 15.1014 10.8001 15.1019 10.7993 15.1024L11.0068 15.411L10.7947 15.1056C10.7172 15.1568 10.6616 15.2354 10.6391 15.3256C10.6268 15.3751 10.6247 15.4268 10.6331 15.4771C10.6427 15.5346 10.6656 15.5891 10.7002 15.6361L12.6349 18.271C12.7052 18.3668 12.8167 18.4228 12.9346 18.4228C12.9427 18.4228 12.9508 18.4225 12.9589 18.422C13.0856 18.4137 13.1994 18.3414 13.2606 18.23L15.4029 14.335C15.4554 14.2395 15.4635 14.1258 15.4249 14.0241ZM12.8896 17.361L11.5298 15.509L13.7016 14.0578L14.5409 14.3587L12.8896 17.361Z" fill="white"/>
<path d="M11.3666 15.3516C11.3491 15.2518 11.2916 15.1634 11.2074 15.1069L8.55609 13.3352C8.4717 13.2788 8.36768 13.2594 8.26855 13.2814C8.25334 13.2848 8.23838 13.2892 8.22373 13.2944L6.79756 13.8057C6.69503 13.8424 6.61378 13.9222 6.57524 14.0241C6.53669 14.126 6.54468 14.2396 6.59719 14.335L8.73949 18.2301C8.80067 18.3414 8.91441 18.4137 9.04113 18.422C9.0492 18.4225 9.05733 18.4228 9.0654 18.4228C9.18331 18.4228 9.29481 18.3668 9.36524 18.2709L10.399 16.863C10.3998 16.8619 10.4006 16.8608 10.4014 16.8596L11.3 15.6358C11.3599 15.5541 11.384 15.4515 11.3666 15.3516ZM9.7994 16.4226C9.79849 16.4238 9.79763 16.425 9.79673 16.4262L9.11039 17.361L7.4591 14.3587L8.29845 14.0578L10.4701 15.509L9.7994 16.4226Z" fill="white"/>
<path d="M21.9816 20.3739L21.5017 17.4764C21.3505 16.5632 20.7159 15.8003 19.8455 15.4855L15.2035 13.8061C15.0603 13.7543 14.9004 13.7949 14.7992 13.9084C14.6981 14.022 14.6762 14.1857 14.7441 14.3219L15.7133 16.2655L14.7623 16.2802C14.6331 16.2822 14.5142 16.3509 14.4483 16.462C14.3823 16.573 14.3786 16.7102 14.4385 16.8247L14.8286 17.5694L10.8366 21.2212C10.8326 21.225 10.8286 21.2287 10.8246 21.2327L10.7422 21.3151C10.6255 21.4319 10.5997 21.6116 10.6789 21.7565L10.6819 21.7618C10.7471 21.8811 10.8723 21.9553 11.0082 21.9553H20.6406C21.0407 21.9553 21.4186 21.7803 21.6773 21.4751C21.9361 21.1699 22.047 20.7685 21.9816 20.3739ZM21.11 20.994C20.9928 21.1322 20.8217 21.2114 20.6406 21.2114H11.9495L15.5421 17.925C15.6668 17.8111 15.699 17.6275 15.6206 17.478L15.3779 17.0146L16.3158 17.0002C16.4436 16.9983 16.5614 16.9308 16.6278 16.8216C16.6942 16.7123 16.6999 16.5767 16.6429 16.4623L15.8249 14.8219L19.5927 16.185C20.2104 16.4084 20.6607 16.9498 20.768 17.5978L21.2478 20.4954C21.2478 20.4954 21.2478 20.4954 21.2478 20.4954C21.2774 20.6741 21.2272 20.8558 21.11 20.994Z" fill="white"/>
<path d="M11.2578 21.3076L11.2535 21.3037C11.1063 21.1704 10.8802 21.1763 10.7401 21.3172L10.7362 21.3211C10.6303 21.4277 10.5989 21.5875 10.6566 21.7262C10.7143 21.865 10.8498 21.9553 11 21.9553H11.0082C11.162 21.9553 11.2999 21.8606 11.3552 21.7171C11.4106 21.5736 11.3719 21.4108 11.2578 21.3076Z" fill="white"/>
<path d="M11.2462 21.2968C11.1618 21.2208 11.0472 21.1875 10.9351 21.2066C10.8231 21.2256 10.7259 21.2948 10.6712 21.3944L10.6686 21.3991C10.5902 21.5421 10.6141 21.7194 10.7275 21.8367L10.7288 21.838C10.8017 21.9134 10.8988 21.9513 10.9962 21.9513C11.0857 21.9513 11.1756 21.9191 11.2467 21.8541L11.2507 21.8506C11.2844 21.8198 11.3123 21.7829 11.3327 21.742C11.4076 21.5924 11.3706 21.4087 11.2462 21.2968Z" fill="white"/>
<path d="M11.2622 21.3196L11.2607 21.318C11.2597 21.317 11.2586 21.316 11.2577 21.315L11.1752 21.2326C11.1713 21.2287 11.1673 21.2249 11.1633 21.2212L7.17136 17.5694L7.56148 16.8247C7.62142 16.7103 7.61768 16.573 7.55172 16.462C7.48572 16.351 7.36687 16.2822 7.23775 16.2802L6.28664 16.2655L7.25584 14.3219C7.32373 14.1857 7.30182 14.022 7.20071 13.9084C7.09961 13.7948 6.93942 13.7542 6.79646 13.8061L2.15442 15.4855C1.28404 15.8003 0.649395 16.5632 0.498188 17.4764L0.0183563 20.3739C-0.0469992 20.7687 0.0639461 21.17 0.322704 21.4751C0.581505 21.7802 0.959415 21.9552 1.35945 21.9552H11C11.1507 21.9552 11.2864 21.8644 11.3438 21.7252C11.4013 21.5859 11.369 21.4257 11.2622 21.3196ZM1.3595 21.2114C1.17834 21.2114 1.00724 21.1321 0.890106 20.994C0.772973 20.8558 0.722786 20.6741 0.752348 20.4953L1.23218 17.5978C1.33947 16.9497 1.78983 16.4084 2.4075 16.185L6.17522 14.8219L5.35727 16.4622C5.3002 16.5766 5.30588 16.7122 5.37235 16.8215C5.43874 16.9307 5.5566 16.9982 5.68443 17.0001L6.62227 17.0146L6.37958 17.4779C6.30125 17.6274 6.33347 17.811 6.458 17.9249L10.0507 21.2114H1.3595Z" fill="white"/>
<path d="M12.2661 16.7388C12.293 16.6314 12.2706 16.5177 12.205 16.4284L11.2999 15.1957C11.2047 15.0661 11.037 15.0146 10.8843 15.0647C10.8018 15.0917 10.7339 15.1463 10.6887 15.216L9.80004 16.4218C9.78732 16.4389 9.77602 16.4574 9.76644 16.4766C9.70555 16.5984 9.71608 16.7437 9.79385 16.8555L10.1723 17.3989L9.76914 19.9399C9.75621 20.0215 9.77082 20.1051 9.81061 20.1775L10.6742 21.7476C10.7395 21.8665 10.8645 21.9403 11.0001 21.9403C11.1358 21.9403 11.2607 21.8665 11.326 21.7476L12.1961 20.1658C12.2262 20.1109 12.2421 20.0493 12.2421 19.9866V19.9864C12.2421 19.9669 12.2405 19.9474 12.2375 19.9281L11.8362 17.3989L12.2105 16.8615C12.2362 16.8243 12.2552 16.7826 12.2661 16.7388ZM11.0001 20.7966L10.5238 19.9306L10.9305 17.3676C10.9455 17.2726 10.9232 17.1756 10.8683 17.0967L10.5566 16.6491L11.0012 16.0459L11.4481 16.6545L11.1401 17.0967C11.0852 17.1756 11.0629 17.2726 11.078 17.3676L11.4828 19.9189L11.0001 20.7966Z" fill="white"/>
</svg>
