<svg width="20" height="20" viewBox="0 0 20 20" fill="none" xmlns="http://www.w3.org/2000/svg">
<path d="M0.625 18.125H19.375V19.375H0.625V18.125Z" fill="white"/>
<path d="M2.5 16.25C2.86513 16.2512 3.2226 16.1454 3.52826 15.9456C3.83392 15.7459 4.07436 15.461 4.21989 15.1261C4.36542 14.7912 4.40967 14.421 4.34715 14.0613C4.28463 13.7016 4.1181 13.368 3.86813 13.1019L7.0675 8.06938C7.48187 8.17572 7.92072 8.12866 8.30312 7.93688L10.8125 10.4469C10.6902 10.697 10.6261 10.9716 10.625 11.25C10.625 11.7473 10.8225 12.2242 11.1742 12.5758C11.5258 12.9275 12.0027 13.125 12.5 13.125C12.9973 13.125 13.4742 12.9275 13.8258 12.5758C14.1775 12.2242 14.375 11.7473 14.375 11.25C14.3738 10.8134 14.2189 10.3912 13.9375 10.0575L17.1875 4.34375C17.627 4.42034 18.0794 4.33893 18.4647 4.11395C18.8499 3.88897 19.1431 3.53493 19.2924 3.11451C19.4416 2.69409 19.4373 2.23442 19.2801 1.81689C19.123 1.39936 18.8232 1.05091 18.4337 0.833227C18.0443 0.615548 17.5904 0.542688 17.1525 0.627546C16.7145 0.712404 16.3207 0.949507 16.0407 1.29687C15.7608 1.64424 15.6128 2.07946 15.623 2.52546C15.6331 2.97147 15.8008 3.3995 16.0962 3.73375L12.8612 9.41188C12.7423 9.38799 12.6213 9.37564 12.5 9.375C12.2216 9.37608 11.947 9.44018 11.6969 9.5625L9.1875 7.05313C9.30982 6.803 9.37392 6.52843 9.375 6.25C9.375 5.75272 9.17746 5.27581 8.82583 4.92418C8.47419 4.57255 7.99728 4.375 7.5 4.375C7.00272 4.375 6.52581 4.57255 6.17417 4.92418C5.82254 5.27581 5.625 5.75272 5.625 6.25C5.62652 6.66254 5.76551 7.06281 6.02 7.3875L2.75313 12.5256C2.66943 12.5114 2.58486 12.5028 2.5 12.5C2.00272 12.5 1.52581 12.6975 1.17417 13.0492C0.822544 13.4008 0.625 13.8777 0.625 14.375C0.625 14.8723 0.822544 15.3492 1.17417 15.7008C1.52581 16.0525 2.00272 16.25 2.5 16.25V16.25ZM12.5 11.875C12.3764 11.875 12.2555 11.8383 12.1528 11.7697C12.05 11.701 11.9699 11.6034 11.9226 11.4892C11.8753 11.375 11.8629 11.2493 11.887 11.1281C11.9111 11.0068 11.9706 10.8955 12.0581 10.8081C12.1455 10.7207 12.2568 10.6611 12.3781 10.637C12.4993 10.6129 12.625 10.6253 12.7392 10.6726C12.8534 10.7199 12.951 10.8 13.0197 10.9028C13.0883 11.0056 13.125 11.1264 13.125 11.25C13.125 11.4158 13.0592 11.5747 12.9419 11.6919C12.8247 11.8092 12.6658 11.875 12.5 11.875ZM17.5 1.875C17.6236 1.875 17.7445 1.91166 17.8472 1.98033C17.95 2.04901 18.0301 2.14662 18.0774 2.26083C18.1247 2.37503 18.1371 2.5007 18.113 2.62193C18.0889 2.74317 18.0294 2.85454 17.9419 2.94194C17.8545 3.02935 17.7432 3.08888 17.6219 3.11299C17.5007 3.13711 17.375 3.12473 17.2608 3.07743C17.1466 3.03012 17.049 2.95002 16.9803 2.84723C16.9117 2.74445 16.875 2.62362 16.875 2.5C16.875 2.33424 16.9408 2.17527 17.0581 2.05806C17.1753 1.94085 17.3342 1.875 17.5 1.875ZM7.5 5.625C7.62361 5.625 7.74445 5.66166 7.84723 5.73033C7.95001 5.79901 8.03012 5.89662 8.07742 6.01083C8.12473 6.12503 8.13711 6.2507 8.11299 6.37193C8.08888 6.49317 8.02935 6.60454 7.94194 6.69194C7.85453 6.77935 7.74317 6.83888 7.62193 6.86299C7.50069 6.88711 7.37503 6.87473 7.26082 6.82743C7.14662 6.78012 7.04901 6.70002 6.98033 6.59723C6.91166 6.49445 6.875 6.37362 6.875 6.25C6.875 6.08424 6.94085 5.92527 7.05806 5.80806C7.17527 5.69085 7.33424 5.625 7.5 5.625V5.625ZM2.5 13.75C2.62361 13.75 2.74445 13.7867 2.84723 13.8553C2.95001 13.924 3.03012 14.0216 3.07742 14.1358C3.12473 14.25 3.13711 14.3757 3.11299 14.4969C3.08888 14.6182 3.02935 14.7295 2.94194 14.8169C2.85453 14.9044 2.74317 14.9639 2.62193 14.988C2.50069 15.0121 2.37503 14.9997 2.26082 14.9524C2.14662 14.9051 2.04901 14.825 1.98033 14.7222C1.91166 14.6195 1.875 14.4986 1.875 14.375C1.875 14.2092 1.94085 14.0503 2.05806 13.9331C2.17527 13.8159 2.33424 13.75 2.5 13.75V13.75Z" fill="white"/>
</svg>
