<svg width="20" height="20" viewBox="0 0 20 20" fill="none" xmlns="http://www.w3.org/2000/svg">
<path d="M15.6646 0.932129H4.12627C2.27964 0.932129 0.833374 2.36694 0.833374 4.19867V10.7563C0.833374 12.5903 2.27964 14.0272 4.12627 14.0272H5.54756C5.83677 14.0272 6.07144 13.7927 6.07144 13.5033C6.07144 13.2141 5.837 12.9794 5.54756 12.9794H4.12627C2.86723 12.9794 1.88089 12.0029 1.88089 10.756V4.19867C1.88089 2.9543 2.86723 1.97965 4.12627 1.97965H15.6644C16.9949 1.97965 18.119 2.99577 18.119 4.19867V5.64632C18.119 5.93553 18.3534 6.17019 18.6428 6.17019C18.9323 6.17019 19.1667 5.93575 19.1667 5.64632V4.19867C19.1667 2.42813 17.5628 0.932129 15.6646 0.932129V0.932129Z" fill="white"/>
<path d="M9.25226 10.4787L11.9851 8.34817C12.2816 8.12771 12.4588 7.78167 12.4588 7.42233C12.4588 7.09646 12.3105 6.799 12.0561 6.61017L9.24263 4.46883C9.05311 4.3279 8.83884 4.25342 8.62297 4.25342C8.07343 4.25342 7.64282 4.73077 7.64282 5.33967V9.615C7.64282 10.2239 8.0732 10.7013 8.62297 10.7013C8.83884 10.7013 9.05311 10.6268 9.25226 10.4787V10.4787ZM8.69057 5.36511L11.411 7.42096C11.4126 7.43425 11.4 7.47825 11.3507 7.51492L8.6908 9.5859V5.36511H8.69057Z" fill="white"/>
<path d="M17.0948 14.081C18.1495 14.081 19.0075 13.223 19.0075 12.1682C19.0075 11.1133 18.1495 10.2553 17.0948 10.2553C16.0402 10.2553 15.1822 11.1133 15.1822 12.1682C15.1822 12.2695 15.1969 12.3669 15.2122 12.464L12.4327 14.1401L9.28897 12.2447C9.04078 12.0951 8.71903 12.1748 8.56984 12.4228C8.42043 12.6703 8.50018 12.9922 8.74791 13.1417L11.4184 14.752L8.74791 16.3624C8.50041 16.5118 8.42043 16.8335 8.56984 17.0813C8.66838 17.2444 8.84141 17.3347 9.01901 17.3347C9.11114 17.3347 9.20441 17.3104 9.2892 17.2593L12.4329 15.3639L15.1953 17.0295C15.1925 17.0719 15.1824 17.1124 15.1824 17.1553C15.1824 18.2101 16.0404 19.0681 17.0951 19.0681C18.1497 19.0681 19.0077 18.2101 19.0077 17.1553C19.0077 16.1007 18.1497 15.2427 17.0951 15.2427C16.4644 15.2427 15.9084 15.5534 15.5599 16.0257L13.4474 14.752L15.6593 13.4183C16.0097 13.8207 16.5201 14.081 17.0948 14.081V14.081ZM17.0948 11.3028C17.5717 11.3028 17.9599 11.691 17.9599 12.1682C17.9599 12.6453 17.572 13.0335 17.0948 13.0335C16.6179 13.0335 16.2297 12.6453 16.2297 12.1682C16.2297 11.691 16.6177 11.3028 17.0948 11.3028V11.3028ZM17.0948 16.2902C17.5717 16.2902 17.9599 16.6782 17.9599 17.1553C17.9599 17.6324 17.572 18.0206 17.0948 18.0206C16.6179 18.0206 16.2297 17.6324 16.2297 17.1553C16.2297 16.6782 16.6177 16.2902 17.0948 16.2902Z" fill="white"/>
</svg>
