<svg width="22" height="24" viewBox="0 0 22 24" fill="none" xmlns="http://www.w3.org/2000/svg">
<path d="M19.6736 9.92079H19.6142V8.46534C19.6142 3.79007 15.8242 0 11.1489 0C6.47355 0 2.68354 3.79007 2.68354 8.46534V9.92079H2.32712C1.02018 9.92079 0.0102937 11.0792 0.0102937 12.4159V16.1287C-0.0226244 17.4242 1.00096 18.5011 2.29648 18.5341C2.30671 18.5344 2.31689 18.5345 2.32712 18.5346H4.52513C4.83646 18.52 5.077 18.2557 5.06234 17.9444C5.06182 17.9332 5.06097 17.922 5.05978 17.9108V10.6336C5.05978 10.2772 4.85186 9.92073 4.52513 9.92073H3.87166V8.46529C3.87166 4.44621 7.12981 1.18806 11.1489 1.18806C15.168 1.18806 18.4261 4.44621 18.4261 8.46529V9.92073H17.7726C17.4459 9.92073 17.238 10.2771 17.238 10.6336V17.9108C17.2048 18.2207 17.4292 18.4989 17.7391 18.532C17.7502 18.5332 17.7614 18.5341 17.7726 18.5346H18.4558L18.3964 18.6237C17.5051 19.8082 16.1065 20.502 14.6241 20.4949C14.2996 18.9037 12.7465 17.8767 11.1552 18.2013C9.79441 18.4788 8.81329 19.6706 8.80232 21.0593C8.81858 22.6882 10.1437 24 11.7726 23.9999C12.579 23.9868 13.3476 23.6559 13.9112 23.0791C14.2915 22.6896 14.5407 22.1912 14.6241 21.6533C16.4805 21.6604 18.2312 20.7905 19.3468 19.3068L19.9112 18.4751C21.1884 18.386 21.9904 17.584 21.9904 16.4256V12.7127C21.9905 11.4356 21.04 9.92079 19.6736 9.92079ZM3.87166 17.3465H2.32712C1.68752 17.3309 1.18164 16.7999 1.19722 16.1603C1.1975 16.1498 1.1979 16.1392 1.19841 16.1287V12.4158C1.19841 11.7326 1.67365 11.1089 2.32712 11.1089H3.87166V17.3465ZM13.0499 22.2475C12.7207 22.6044 12.2582 22.8088 11.7727 22.8119C10.8063 22.7965 10.022 22.0254 9.99049 21.0594C9.9901 20.0915 10.7744 19.3066 11.7423 19.3062C12.7101 19.3058 13.495 20.0901 13.4954 21.058C13.4954 21.0584 13.4954 21.0589 13.4954 21.0594C13.5202 21.5004 13.3585 21.9315 13.0499 22.2475ZM20.8023 16.4257C20.8023 17.2277 20.0301 17.3465 19.6736 17.3465H18.4261V11.1089H19.6736C20.3271 11.1089 20.8023 12.0297 20.8023 12.7129V16.4257Z" fill="black"/>
</svg>
