<svg width="22" height="22" viewBox="0 0 22 22" fill="none" xmlns="http://www.w3.org/2000/svg">
<g clip-path="url(#clip0_1_20)">
<path d="M19.8227 18.2188H17.1875C17.0425 17.7227 16.7406 17.2869 16.3271 16.9769C15.9135 16.6669 15.4105 16.4993 14.8937 16.4993C14.3768 16.4993 13.8738 16.6669 13.4603 16.9769C13.0467 17.2869 12.7448 17.7227 12.5998 18.2188H1.375C1.19266 18.2188 1.0178 18.2912 0.888864 18.4202C0.759933 18.5491 0.6875 18.724 0.6875 18.9063C0.6875 19.0886 0.759933 19.2635 0.888864 19.3924C1.0178 19.5214 1.19266 19.5938 1.375 19.5938H12.6019C12.7474 20.0891 13.0494 20.524 13.4628 20.8333C13.8761 21.1426 14.3784 21.3098 14.8947 21.3098C15.4109 21.3098 15.9133 21.1426 16.3266 20.8333C16.7399 20.524 17.042 20.0891 17.1875 19.5938H19.8206C20.003 19.5938 20.1778 19.5214 20.3068 19.3924C20.4357 19.2635 20.5081 19.0886 20.5081 18.9063C20.5081 18.724 20.4357 18.5491 20.3068 18.4202C20.1778 18.2912 20.003 18.2188 19.8206 18.2188H19.8227ZM14.8961 19.9376C14.6921 19.9376 14.4927 19.8771 14.3231 19.7638C14.1535 19.6504 14.0214 19.4894 13.9433 19.3009C13.8653 19.1125 13.8448 18.9052 13.8846 18.7051C13.9244 18.5051 14.0226 18.3213 14.1669 18.1771C14.3111 18.0329 14.4948 17.9347 14.6949 17.8949C14.8949 17.8551 15.1023 17.8755 15.2907 17.9536C15.4791 18.0316 15.6402 18.1638 15.7535 18.3334C15.8668 18.503 15.9273 18.7023 15.9273 18.9063C15.9273 19.1798 15.8187 19.4421 15.6253 19.6355C15.4319 19.8289 15.1696 19.9376 14.8961 19.9376Z" fill="black"/>
<path d="M19.1538 0.6875H2.84625C2.27388 0.688046 1.72511 0.91566 1.32039 1.32039C0.91566 1.72511 0.688046 2.27388 0.6875 2.84625V13.6538C0.688046 14.2261 0.91566 14.7749 1.32039 15.1796C1.72511 15.5843 2.27388 15.812 2.84625 15.8125H19.1538C19.7261 15.812 20.2749 15.5843 20.6796 15.1796C21.0843 14.7749 21.312 14.2261 21.3125 13.6538V2.84625C21.312 2.27388 21.0843 1.72511 20.6796 1.32039C20.2749 0.91566 19.7261 0.688046 19.1538 0.6875ZM19.9375 13.6538C19.9373 13.8616 19.8547 14.0608 19.7077 14.2077C19.5608 14.3547 19.3616 14.4373 19.1538 14.4375H2.84625C2.63844 14.4373 2.4392 14.3547 2.29226 14.2077C2.14531 14.0608 2.06268 13.8616 2.0625 13.6538V2.84625C2.06268 2.63844 2.14531 2.4392 2.29226 2.29226C2.4392 2.14531 2.63844 2.06268 2.84625 2.0625H19.1538C19.3616 2.06268 19.5608 2.14531 19.7077 2.29226C19.8547 2.4392 19.9373 2.63844 19.9375 2.84625V13.6538Z" fill="black"/>
<path d="M14.8019 7.667L9.30187 4.2295C9.19781 4.16446 9.07823 4.12846 8.95555 4.12524C8.83287 4.12202 8.71156 4.15169 8.60422 4.21118C8.49688 4.27068 8.40743 4.35781 8.34514 4.46355C8.28285 4.56929 8.25 4.68978 8.25 4.8125V11.6875C8.25 11.8102 8.28285 11.9307 8.34514 12.0364C8.40743 12.1422 8.49688 12.2293 8.60422 12.2888C8.71156 12.3483 8.83287 12.378 8.95555 12.3748C9.07823 12.3715 9.19781 12.3355 9.30187 12.2705L14.8019 8.833C14.9014 8.77134 14.9835 8.68531 15.0404 8.58304C15.0973 8.48078 15.1272 8.36567 15.1272 8.24863C15.1272 8.13158 15.0973 8.01647 15.0404 7.91421C14.9835 7.81195 14.9014 7.72591 14.8019 7.66425V7.667ZM9.625 10.45V6.05L13.1402 8.25L9.625 10.45Z" fill="black"/>
</g>
<defs>
<clipPath id="clip0_1_20">
<rect width="22" height="22" fill="white"/>
</clipPath>
</defs>
</svg>
