<svg width="24" height="24" viewBox="0 0 24 24" fill="none" xmlns="http://www.w3.org/2000/svg">
<path d="M11.9635 11.8153C13.535 10.9158 14.6087 9.24103 14.6087 7.30432C14.6087 4.42745 12.2682 2.08691 9.3913 2.08691C6.51443 2.08691 4.17389 4.42745 4.17389 7.30432C4.17389 9.24103 5.24763 10.9158 6.81911 11.8153C2.88836 12.8473 0 16.1708 0 20.1099V21.3913C0 21.6793 0.233755 21.913 0.521755 21.913C0.809755 21.913 1.04351 21.6793 1.04351 21.3913V20.1099C1.04346 15.9266 4.78853 12.5217 9.3913 12.5217C13.9941 12.5217 17.7391 15.9266 17.7391 20.1099V21.3913C17.7391 21.6793 17.9729 21.913 18.2609 21.913C18.5489 21.913 18.7826 21.6793 18.7826 21.3913V20.1099C18.7826 16.1708 15.8942 12.8463 11.9635 11.8153ZM5.2174 7.30432C5.2174 5.00242 7.0894 3.13042 9.3913 3.13042C11.6932 3.13042 13.5652 5.00242 13.5652 7.30432C13.5652 9.60621 11.6932 11.4782 9.3913 11.4782C7.0894 11.4782 5.2174 9.60626 5.2174 7.30432Z" fill="white"/>
<path d="M18.9892 11.8289C20.1203 11.0807 20.8696 9.80139 20.8696 8.34784C20.8696 6.04595 18.9976 4.17395 16.6957 4.17395C16.4077 4.17395 16.174 4.40771 16.174 4.69571C16.174 4.98371 16.4077 5.21746 16.6957 5.21746C18.4216 5.21746 19.8261 6.622 19.8261 8.34789C19.8261 10.0738 18.4216 11.4783 16.6957 11.4783C16.4077 11.4783 16.174 11.7121 16.174 12.0001C16.174 12.2881 16.4077 12.5217 16.6957 12.5217C20.1485 12.5217 22.9565 15.1169 22.9565 18.3078V19.3043C22.9565 19.5923 23.1903 19.8261 23.4783 19.8261C23.7663 19.8261 24 19.5923 24 19.3043V18.3078C24 15.2922 21.8964 12.7304 18.9892 11.8289Z" fill="white"/>
</svg>
