<svg width="35" height="35" viewBox="0 0 35 35" fill="none" xmlns="http://www.w3.org/2000/svg">
<path d="M22.6603 16.7561C25.9509 16.7561 28.6431 14.0775 28.6431 10.8037C28.6431 7.52988 25.9509 4.85132 22.6603 4.85132C22.5107 4.85132 22.3612 4.85132 22.2116 4.85132C23.109 6.33942 23.7072 8.12513 23.7072 9.91085C23.7072 12.4406 22.6603 14.8216 21.015 16.6073C21.4637 16.7561 22.062 16.7561 22.6603 16.7561Z" fill="#B5B5B5"/>
<path d="M25.2031 19.8809H23.7074C25.9509 21.8153 27.4467 24.7917 27.4467 28.0653C27.4467 28.8095 27.2971 29.4047 27.1475 29.9999C29.092 29.7023 30.2886 29.2559 31.0364 28.8095C31.7842 28.363 32.0835 27.6189 32.0835 26.7261C32.0835 23.0059 28.9424 19.8809 25.2031 19.8809Z" fill="#B5B5B5"/>
<path d="M13.6859 16.756C15.4808 16.756 16.9765 16.1608 18.3227 14.9704C19.8183 13.7798 20.5662 11.8453 20.5662 9.9108C20.5662 8.4227 20.1174 6.9346 19.2201 5.89294C18.0234 4.10723 16.079 2.91675 13.6859 2.91675C9.94657 2.91675 6.80554 6.04175 6.80554 9.76199C6.80554 13.631 9.94657 16.756 13.6859 16.756Z" fill="#B5B5B5"/>
<path d="M17.7243 20.3276C17.2757 20.3276 16.9765 20.1788 16.5277 20.1788H10.844C6.50643 20.1788 2.91669 23.7503 2.91669 28.0656C2.91669 29.1073 3.3654 29.8514 4.11326 30.4467C5.30985 31.1907 8.15172 32.0835 13.6859 32.0835C19.2201 32.0835 21.9123 31.1907 23.2585 30.4467C23.2585 30.4467 23.4082 30.2979 23.5576 30.2979C24.156 29.8514 24.6047 29.1073 24.6047 28.0656C24.4551 24.1967 21.6132 20.9229 17.7243 20.3276Z" fill="#B5B5B5"/>
</svg>
