<svg width="43" height="43" viewBox="0 0 43 43" fill="none" xmlns="http://www.w3.org/2000/svg">
<path d="M38.0965 26.6751V24.8948H38.8509C39.2681 24.8948 39.6053 24.5575 39.6053 24.1404C39.6053 23.7232 39.2681 23.386 38.8509 23.386H38.0965H37.3421H26.7807H26.0263H25.2719C24.8548 23.386 24.5175 23.7232 24.5175 24.1404C24.5175 24.5575 24.8548 24.8948 25.2719 24.8948H26.0263V26.6751C26.0263 29.3419 27.4182 31.7657 29.6677 33.193C27.4189 34.6203 26.0263 37.0441 26.0263 39.7109V41.4912H25.2719C24.8548 41.4912 24.5175 41.8285 24.5175 42.2456C24.5175 42.6628 24.8548 43 25.2719 43H26.0263H26.7807H37.3421H38.0965H38.8509C39.2681 43 39.6053 42.6628 39.6053 42.2456C39.6053 41.8285 39.2681 41.4912 38.8509 41.4912H38.0965V39.7109C38.0965 37.0441 36.7046 34.6203 34.4551 33.193C36.7046 31.7657 38.0965 29.3419 38.0965 26.6751ZM36.5877 39.7109V41.4912H27.5351V39.7109C27.5351 37.2071 29.0688 34.9598 31.4556 33.9474H32.6664C35.0541 34.9598 36.5877 37.2063 36.5877 39.7109ZM32.6672 32.4386H31.4564C29.0695 31.4262 27.5358 29.1797 27.5358 26.6751V24.8948H36.5885V26.6751C36.5877 29.1797 35.0541 31.4262 32.6672 32.4386Z" fill="#B5B5B5"/>
<path d="M21.5 10.5614H35.079C35.4961 10.5614 35.8334 10.2242 35.8334 9.807C35.8334 9.38982 35.4961 9.05261 35.079 9.05261H21.5C21.0828 9.05261 20.7456 9.38982 20.7456 9.807C20.7456 10.2242 21.0828 10.5614 21.5 10.5614Z" fill="#B5B5B5"/>
<path d="M21.5 21.1228H35.079C35.4961 21.1228 35.8334 20.7856 35.8334 20.3684C35.8334 19.9512 35.4961 19.614 35.079 19.614H21.5C21.0828 19.614 20.7456 19.9512 20.7456 20.3684C20.7456 20.7856 21.0828 21.1228 21.5 21.1228Z" fill="#B5B5B5"/>
<path d="M16.6561 5.46252C16.3408 5.19245 15.864 5.2264 15.5932 5.544L10.8798 11.042L7.9965 8.87989C7.66381 8.63019 7.19081 8.69658 6.94111 9.03077C6.69066 9.36345 6.75855 9.83645 7.09199 10.0862L10.5403 12.6729C10.6753 12.7748 10.8345 12.8238 10.9922 12.8238C11.2057 12.8238 11.4169 12.7341 11.5655 12.5598L16.7383 6.5247C17.0099 6.20937 16.9729 5.7341 16.6561 5.46252Z" fill="#B5B5B5"/>
<path d="M16.6561 16.0239C16.3408 15.753 15.864 15.7885 15.5932 16.1053L10.8798 21.6033L7.9965 19.4412C7.66381 19.1915 7.19081 19.2579 6.94111 19.5921C6.69066 19.9248 6.75855 20.3978 7.09199 20.6475L10.5403 23.2343C10.6753 23.3361 10.8345 23.3852 10.9922 23.3852C11.2057 23.3852 11.4169 23.2954 11.5655 23.1211L16.7383 17.086C17.0099 16.7707 16.9729 16.2954 16.6561 16.0239Z" fill="#B5B5B5"/>
<path d="M15.5932 27.4219L10.8798 32.9191L7.9965 30.757C7.66381 30.5081 7.19081 30.5737 6.94111 30.9079C6.69066 31.2406 6.75855 31.7136 7.09199 31.9633L10.5403 34.5501C10.6753 34.6519 10.8345 34.7009 10.9922 34.7009C11.2057 34.7009 11.4169 34.6112 11.5655 34.4369L16.7383 28.4026C17.0099 28.0865 16.9737 27.6105 16.6568 27.3396C16.3408 27.0696 15.864 27.1043 15.5932 27.4219Z" fill="#B5B5B5"/>
<path d="M32.683 0H10.317C5.25205 0 1.13159 4.12046 1.13159 9.1854V31.5514C1.13159 36.6164 5.25205 40.7368 10.317 40.7368H20.7456C21.1628 40.7368 21.5 40.3996 21.5 39.9825C21.5 39.5653 21.1628 39.2281 20.7456 39.2281H10.317C6.08338 39.2281 2.64036 35.785 2.64036 31.5514V9.1854C2.64036 4.95179 6.08338 1.50877 10.317 1.50877H32.683C36.9166 1.50877 40.3597 4.95179 40.3597 9.1854V20.3684C40.3597 20.7856 40.6969 21.1228 41.114 21.1228C41.5312 21.1228 41.8684 20.7856 41.8684 20.3684V9.1854C41.8684 4.12046 37.748 0 32.683 0Z" fill="#B5B5B5"/>
</svg>
