<svg width="10" height="10" viewBox="0 0 10 10" fill="none" xmlns="http://www.w3.org/2000/svg">
<g clip-path="url(#clip0_1_1425)">
<path d="M8.95325 7.43514C8.78014 7.30637 8.53545 7.34233 8.40668 7.5154C8.33586 7.61059 8.26008 7.70397 8.18143 7.79293C8.03856 7.95456 8.05373 8.20143 8.21535 8.34432C8.28969 8.41002 8.38198 8.44229 8.47393 8.44229C8.58198 8.44229 8.68955 8.3977 8.76674 8.31038C8.85989 8.20503 8.94963 8.09444 9.0335 7.98168C9.16227 7.80862 9.12635 7.56389 8.95325 7.43514Z" fill="black"/>
<path d="M9.60653 5.60326C9.39587 5.55738 9.18764 5.69107 9.14177 5.90185C9.11651 6.01781 9.086 6.13398 9.05102 6.24718C8.98733 6.45331 9.1028 6.67203 9.30891 6.73572C9.34733 6.74757 9.38616 6.75322 9.42436 6.75322C9.59116 6.75322 9.74561 6.64552 9.79745 6.47779C9.83897 6.34345 9.87518 6.20558 9.90514 6.06802C9.95102 5.85724 9.81733 5.64915 9.60653 5.60326Z" fill="black"/>
<path d="M7.07303 8.68622C6.96932 8.74411 6.86194 8.79821 6.75389 8.84702C6.55727 8.93581 6.46987 9.16718 6.55866 9.3638C6.62389 9.50825 6.76606 9.59374 6.91489 9.59374C6.96864 9.59374 7.02326 9.58259 7.07543 9.55903C7.20362 9.50114 7.33092 9.43698 7.45389 9.36833C7.64227 9.26317 7.70971 9.0252 7.60452 8.83684C7.49938 8.6485 7.26141 8.58106 7.07303 8.68622Z" fill="black"/>
<path d="M4.60937 1.875V4.8382L3.17697 6.27059C3.02443 6.42314 3.02443 6.67047 3.17697 6.82301C3.25325 6.8993 3.3532 6.93742 3.4532 6.93742C3.55316 6.93742 3.65314 6.89928 3.72943 6.82301L5.27622 5.27621C5.34947 5.20297 5.39062 5.10359 5.39062 5V1.875C5.39062 1.65926 5.21574 1.48438 4.99999 1.48438C4.78425 1.48438 4.60937 1.65926 4.60937 1.875Z" fill="black"/>
<path d="M9.60938 0.839844C9.39363 0.839844 9.21875 1.01473 9.21875 1.23047V2.31516C8.30953 0.889219 6.7217 0 5 0C3.66445 0 2.40885 0.520098 1.46445 1.46445C0.520098 2.40885 0 3.66445 0 5C0 6.33555 0.520098 7.59115 1.46445 8.53555C2.40885 9.4799 3.66445 10 5 10C5.0033 10 5.00648 9.99959 5.00977 9.99951C5.01305 9.99959 5.01623 10 5.01953 10C5.16031 10 5.30248 9.99406 5.44213 9.98238C5.65711 9.96437 5.8168 9.77551 5.79881 9.56053C5.78078 9.34555 5.59217 9.18578 5.37693 9.20387C5.25889 9.21373 5.13865 9.21875 5.01953 9.21875C5.01623 9.21875 5.01305 9.21916 5.00977 9.21924C5.00648 9.21916 5.0033 9.21875 5 9.21875C2.67377 9.21875 0.78125 7.32623 0.78125 5C0.78125 2.67377 2.67377 0.78125 5 0.78125C6.49918 0.78125 7.87807 1.58033 8.63156 2.85156H7.55748C7.34174 2.85156 7.16686 3.02645 7.16686 3.24219C7.16686 3.45793 7.34174 3.63281 7.55748 3.63281H8.75C8.98789 3.63281 9.21045 3.56596 9.39994 3.45014C9.41213 3.44318 9.42385 3.4357 9.43502 3.42764C9.77498 3.20398 10 2.81928 10 2.38281V1.23047C10 1.01473 9.82512 0.839844 9.60938 0.839844Z" fill="black"/>
</g>
<defs>
<clipPath id="clip0_1_1425">
<rect width="10" height="10" fill="white"/>
</clipPath>
</defs>
</svg>
