<svg width="10" height="10" viewBox="0 0 10 10" fill="none" xmlns="http://www.w3.org/2000/svg">
<path d="M5 0.3125C4.0729 0.3125 3.16662 0.587417 2.39577 1.10249C1.62491 1.61756 1.0241 2.34964 0.669317 3.20617C0.314531 4.0627 0.221703 5.0052 0.402571 5.91449C0.583439 6.82377 1.02988 7.659 1.68544 8.31456C2.341 8.97012 3.17623 9.41656 4.08552 9.59743C4.9948 9.7783 5.9373 9.68547 6.79383 9.33068C7.65036 8.9759 8.38245 8.37509 8.89752 7.60424C9.41258 6.83338 9.6875 5.9271 9.6875 5C9.6861 3.75723 9.19178 2.56576 8.31301 1.68699C7.43424 0.808218 6.24277 0.313906 5 0.3125ZM5 9.0625C4.35469 9.0625 3.67906 8.23063 3.34375 6.875H6.65625C6.32094 8.23063 5.64531 9.0625 5 9.0625ZM3.21688 6.25C3.09438 5.42117 3.09438 4.57883 3.21688 3.75H6.78313C6.84511 4.16377 6.87582 4.58162 6.875 5C6.87582 5.41838 6.84511 5.83623 6.78313 6.25H3.21688ZM0.937502 5C0.937728 4.57548 1.0048 4.15365 1.13625 3.75H2.58938C2.47021 4.57907 2.47021 5.42093 2.58938 6.25H1.13625C1.0048 5.84635 0.937728 5.42452 0.937502 5ZM5 0.9375C5.64531 0.9375 6.32094 1.76938 6.65625 3.125H3.34375C3.67906 1.76938 4.35469 0.9375 5 0.9375ZM7.41063 3.75H8.86375C9.12868 4.56228 9.12868 5.43772 8.86375 6.25H7.41063C7.46989 5.83597 7.49975 5.41825 7.5 5C7.49975 4.58175 7.46989 4.16403 7.41063 3.75ZM8.60031 3.125H7.29813C7.15906 2.44532 6.88639 1.80002 6.49594 1.22656C7.40161 1.58775 8.14809 2.26118 8.60031 3.125ZM3.50406 1.22656C3.11362 1.80002 2.84095 2.44532 2.70188 3.125H1.39969C1.85192 2.26118 2.59839 1.58775 3.50406 1.22656ZM1.39969 6.875H2.70188C2.84095 7.55468 3.11362 8.19998 3.50406 8.77344C2.59839 8.41225 1.85192 7.73882 1.39969 6.875ZM6.49594 8.77344C6.88639 8.19998 7.15906 7.55468 7.29813 6.875H8.60031C8.14809 7.73882 7.40161 8.41225 6.49594 8.77344Z" fill="black"/>
</svg>
