<svg width="10" height="10" viewBox="0 0 10 10" fill="none" xmlns="http://www.w3.org/2000/svg">
<path d="M4.84684 6.70349C4.56092 6.70349 4.32944 6.94177 4.32944 7.22771C4.32944 7.50683 4.55411 7.75193 4.84684 7.75193C5.13957 7.75193 5.37106 7.50685 5.37106 7.22771C5.37106 6.94177 5.1328 6.70349 4.84684 6.70349Z" fill="black"/>
<path d="M4.93535 2.73444C4.01627 2.73444 3.59418 3.27907 3.59418 3.6467C3.59418 3.91223 3.81883 4.03477 4.00265 4.03477C4.37027 4.03477 4.22051 3.51055 4.91492 3.51055C5.25533 3.51055 5.52765 3.66033 5.52765 3.9735C5.52765 4.34115 5.1464 4.55219 4.92174 4.74281C4.72431 4.91301 4.4656 5.19215 4.4656 5.77764C4.4656 6.13164 4.5609 6.23377 4.84004 6.23377C5.17363 6.23377 5.2417 6.08401 5.2417 5.95465C5.2417 5.60063 5.24853 5.39639 5.62297 5.10365C5.80678 4.96069 6.38547 4.49774 6.38547 3.85778C6.38547 3.21781 5.80678 2.73444 4.93535 2.73444Z" fill="black"/>
<path d="M5 0C2.23664 0 0 2.23627 0 5V9.60938C0 9.82512 0.174883 10 0.390625 10H5C7.76334 10 10 7.76373 10 5C10 2.23664 7.76373 0 5 0ZM5 9.21875H0.78125V5C0.78125 2.66842 2.66811 0.78125 5 0.78125C7.33158 0.78125 9.21875 2.66811 9.21875 5C9.21875 7.33158 7.33189 9.21875 5 9.21875Z" fill="black"/>
</svg>
