<svg width="10" height="10" viewBox="0 0 10 10" fill="none" xmlns="http://www.w3.org/2000/svg">
<g clip-path="url(#clip0_1_1449)">
<path d="M5 0C2.23627 0 0 2.2365 0 5C0 7.76373 2.2365 10 5 10C7.76373 10 10 7.7635 10 5C10 2.23627 7.7635 0 5 0ZM5 9.33334C2.61061 9.33334 0.66666 7.38941 0.66666 5C0.66666 2.61059 2.61061 0.66666 5 0.66666C7.38939 0.66666 9.33334 2.61061 9.33334 5C9.33334 7.38939 7.38939 9.33334 5 9.33334Z" fill="black"/>
<path d="M7.64678 3.1627C7.51661 3.03252 7.30553 3.03252 7.17538 3.1627L4.20786 6.13021L2.82465 4.74703C2.69448 4.61686 2.4834 4.61686 2.35325 4.74703C2.22307 4.87721 2.22307 5.08826 2.35325 5.21844L3.97213 6.83732C4.10229 6.96748 4.31342 6.96744 4.44354 6.83732L7.64678 3.63408C7.77696 3.50391 7.77696 3.29287 7.64678 3.1627Z" fill="black"/>
</g>
<defs>
<clipPath id="clip0_1_1449">
<rect width="10" height="10" fill="white"/>
</clipPath>
</defs>
</svg>
