<svg width="10" height="10" viewBox="0 0 10 10" fill="none" xmlns="http://www.w3.org/2000/svg">
<path d="M0.333304 8.7333e-08C0.149268 8.7333e-08 0 0.114826 0 0.256388V7.6923C0 7.83387 0.149274 7.94869 0.333304 7.94869H2.66659V9.74352L2.6667 9.74361C2.6667 9.88518 2.81586 10 3.00001 10H9.6667C9.85073 10 10 9.88517 10 9.74361V2.3077C10 2.16604 9.85073 2.05131 9.6667 2.05131H7.33341V0.256478L7.3333 0.256388C7.3333 0.114822 7.18414 0 6.99999 0L0.333304 8.7333e-08ZM0.666609 0.512776H6.66663V7.43587H0.666609V0.512776ZM7.3333 2.56411H9.33327V9.4872H3.33325V7.94876H6.99993C7.18409 7.94876 7.33324 7.83393 7.33324 7.69237L7.3333 2.56411Z" fill="black"/>
</svg>
