<svg width="10" height="10" viewBox="0 0 10 10" fill="none" xmlns="http://www.w3.org/2000/svg">
<g clip-path="url(#clip0_1_1460)">
<path d="M5 10C2.24297 10 0 7.75703 0 5C0 2.24297 2.24297 0 5 0C7.75703 0 10 2.24297 10 5C10 7.75703 7.75703 10 5 10ZM5 0.714264C2.63687 0.714264 0.714264 2.63687 0.714264 5C0.714264 7.36313 2.63687 9.28574 5 9.28574C7.36313 9.28574 9.28574 7.36313 9.28574 5C9.28574 2.63687 7.36313 0.714264 5 0.714264Z" fill="black"/>
<path d="M6.78573 7.14287C6.69433 7.14287 6.60293 7.108 6.5332 7.03819L2.9618 3.46679C2.82226 3.32725 2.82226 3.10127 2.9618 2.96181C3.10127 2.82234 3.32733 2.82226 3.46679 2.96181L7.03819 6.5332C7.17773 6.67274 7.17773 6.89873 7.03819 7.03819C6.96846 7.108 6.87713 7.14287 6.78573 7.14287Z" fill="black"/>
<path d="M3.21426 7.14289C3.12286 7.14289 3.03154 7.10803 2.9618 7.03822C2.82226 6.89875 2.82226 6.6727 2.9618 6.53323L6.5332 2.96183C6.67274 2.82229 6.89872 2.82229 7.03819 2.96183C7.17765 3.1013 7.17773 3.32736 7.03819 3.46682L3.46679 7.03822C3.39706 7.10803 3.30566 7.14289 3.21426 7.14289Z" fill="black"/>
</g>
<defs>
<clipPath id="clip0_1_1460">
<rect width="10" height="10" fill="white"/>
</clipPath>
</defs>
</svg>
