<svg width="10" height="10" viewBox="0 0 10 10" fill="none" xmlns="http://www.w3.org/2000/svg">
<path d="M6.6 9.27085H3.4C3.07984 9.26622 2.77323 9.14091 2.54148 8.91997C2.30973 8.69904 2.16991 8.39876 2.15 8.07919L1.77083 2.31252C1.76889 2.27071 1.77525 2.22893 1.78956 2.18959C1.80386 2.15026 1.82582 2.11415 1.85417 2.08335C1.88337 2.05144 1.91873 2.02576 1.95811 2.00786C1.99749 1.98996 2.04009 1.9802 2.08333 1.97919H7.91667C7.95952 1.97909 8.00193 1.98781 8.04127 2.0048C8.08061 2.02179 8.11604 2.04669 8.14534 2.07796C8.17465 2.10922 8.19722 2.14617 8.21164 2.18653C8.22606 2.22688 8.23202 2.26976 8.22917 2.31252L7.86667 8.07919C7.84654 8.40161 7.70439 8.70426 7.4691 8.92562C7.23381 9.14698 6.92305 9.27042 6.6 9.27085ZM2.43333 2.60419L2.75417 8.04169C2.76477 8.20565 2.83746 8.35941 2.95745 8.47166C3.07744 8.5839 3.2357 8.6462 3.4 8.64585H6.6C6.76402 8.64521 6.92173 8.58259 7.0415 8.47054C7.16128 8.35849 7.23427 8.2053 7.24583 8.04169L7.58333 2.62502L2.43333 2.60419Z" fill="black"/>
<path d="M8.75 2.60419H1.25C1.16712 2.60419 1.08763 2.57126 1.02903 2.51266C0.970424 2.45405 0.9375 2.37457 0.9375 2.29169C0.9375 2.20881 0.970424 2.12932 1.02903 2.07072C1.08763 2.01211 1.16712 1.97919 1.25 1.97919H8.75C8.83288 1.97919 8.91237 2.01211 8.97097 2.07072C9.02958 2.12932 9.0625 2.20881 9.0625 2.29169C9.0625 2.37457 9.02958 2.45405 8.97097 2.51266C8.91237 2.57126 8.83288 2.60419 8.75 2.60419Z" fill="black"/>
<path d="M6.25 2.60419H3.75C3.66746 2.60311 3.5886 2.56984 3.53022 2.51146C3.47185 2.45309 3.43858 2.37423 3.4375 2.29169V1.54169C3.44278 1.32786 3.53008 1.12425 3.68132 0.973011C3.83257 0.821767 4.03617 0.734469 4.25 0.729187H5.75C5.96738 0.734623 6.17403 0.824815 6.32583 0.98051C6.47764 1.1362 6.56257 1.34507 6.5625 1.56252V2.29169C6.56142 2.37423 6.52815 2.45309 6.46978 2.51146C6.4114 2.56984 6.33254 2.60311 6.25 2.60419ZM4.0625 1.97919H5.9375V1.56252C5.9375 1.51279 5.91775 1.4651 5.88258 1.42994C5.84742 1.39477 5.79973 1.37502 5.75 1.37502H4.25C4.20027 1.37502 4.15258 1.39477 4.11742 1.42994C4.08225 1.4651 4.0625 1.51279 4.0625 1.56252V1.97919Z" fill="black"/>
<path d="M6.25 7.60421C6.16746 7.60313 6.0886 7.56986 6.03022 7.51148C5.97185 7.45311 5.93858 7.37425 5.9375 7.29171V3.95837C5.9375 3.87549 5.97042 3.79601 6.02903 3.7374C6.08763 3.6788 6.16712 3.64587 6.25 3.64587C6.33288 3.64587 6.41237 3.6788 6.47097 3.7374C6.52958 3.79601 6.5625 3.87549 6.5625 3.95837V7.29171C6.56142 7.37425 6.52815 7.45311 6.46978 7.51148C6.4114 7.56986 6.33254 7.60313 6.25 7.60421Z" fill="black"/>
<path d="M3.75 7.60421C3.66746 7.60313 3.5886 7.56986 3.53022 7.51148C3.47185 7.45311 3.43858 7.37425 3.4375 7.29171V3.95837C3.4375 3.87549 3.47042 3.79601 3.52903 3.7374C3.58763 3.6788 3.66712 3.64587 3.75 3.64587C3.83288 3.64587 3.91237 3.6788 3.97097 3.7374C4.02958 3.79601 4.0625 3.87549 4.0625 3.95837V7.29171C4.06142 7.37425 4.02815 7.45311 3.96978 7.51148C3.9114 7.56986 3.83254 7.60313 3.75 7.60421Z" fill="black"/>
<path d="M5 7.60421C4.91746 7.60313 4.8386 7.56986 4.78022 7.51148C4.72185 7.45311 4.68858 7.37425 4.6875 7.29171V3.95837C4.6875 3.87549 4.72042 3.79601 4.77903 3.7374C4.83763 3.6788 4.91712 3.64587 5 3.64587C5.08288 3.64587 5.16237 3.6788 5.22097 3.7374C5.27958 3.79601 5.3125 3.87549 5.3125 3.95837V7.29171C5.31142 7.37425 5.27815 7.45311 5.21978 7.51148C5.1614 7.56986 5.08254 7.60313 5 7.60421Z" fill="black"/>
</svg>
