<svg width="43" height="43" viewBox="0 0 43 43" fill="none" xmlns="http://www.w3.org/2000/svg">
<path d="M21.1509 0.390137C9.47082 0.390137 0 9.85909 0 21.5401C0 33.2212 9.46989 42.6901 21.1509 42.6901C32.8329 42.6901 42.3019 33.2212 42.3019 21.5401C42.3019 9.85909 32.8329 0.390137 21.1509 0.390137ZM21.1509 6.71423C25.0158 6.71423 28.1477 9.84702 28.1477 13.71C28.1477 17.574 25.0158 20.7058 21.1509 20.7058C17.2879 20.7058 14.1561 17.574 14.1561 13.71C14.1561 9.84702 17.2879 6.71423 21.1509 6.71423ZM21.1463 37.1604C17.2916 37.1604 13.7612 35.7566 11.0381 33.433C10.3748 32.8672 9.99202 32.0376 9.99202 31.167C9.99202 27.2492 13.1629 24.1136 17.0817 24.1136H25.2221C29.1418 24.1136 32.3005 27.2492 32.3005 31.167C32.3005 32.0385 31.9196 32.8663 31.2554 33.4321C28.5332 35.7566 25.0019 37.1604 21.1463 37.1604Z" fill="#F0F0F0"/>
<path d="M21.1509 6.71423C25.0158 6.71423 28.1477 9.84702 28.1477 13.71C28.1477 17.574 25.0158 20.7058 21.1509 20.7058C17.2879 20.7058 14.1561 17.574 14.1561 13.71C14.1561 9.84702 17.2879 6.71423 21.1509 6.71423Z" fill="black"/>
<path d="M21.1463 37.1604C17.2916 37.1604 13.7612 35.7566 11.0381 33.433C10.3748 32.8672 9.99202 32.0376 9.99202 31.167C9.99202 27.2492 13.1629 24.1136 17.0817 24.1136H25.2221C29.1418 24.1136 32.3005 27.2492 32.3005 31.167C32.3005 32.0385 31.9196 32.8663 31.2554 33.4321C28.5332 35.7566 25.0019 37.1604 21.1463 37.1604Z" fill="black"/>
</svg>
