<?xml version="1.0" encoding="utf-8"?>
<!-- Generator: Adobe Illustrator 25.2.3, SVG Export Plug-In . SVG Version: 6.00 Build 0)  -->
<svg version="1.1" id="Layer_1" xmlns="http://www.w3.org/2000/svg" xmlns:xlink="http://www.w3.org/1999/xlink" x="0px" y="0px"
	 viewBox="0 0 1841 1291.8" style="enable-background:new 0 0 1841 1291.8;" xml:space="preserve">
<style type="text/css">
	.st0{fill:none;stroke:#FFFFFF;stroke-opacity:0.3;}
	.st1{fill:url(#SVGID_1_);fill-opacity:0.3;}
	.st2{fill:#FFFFFF;fill-opacity:0.5;}
</style>
<g id="Layer_2_1_">
	<g id="Layer_1-2">
		<rect x="1" y="1247.6" width="1840" height="44.2"/>
		<path d="M866.5,74.5L921-1.3H0v1252.4h716l128.5-310.8V676.7l41.5-57.7V247l-19.5-27V74.5z"/>
		<path d="M1227,1236.6h161l29,14.6H696.5l10.5-14.6h211l14.5-20.1h280L1227,1236.6z"/>
		<path d="M1388,1251.1l83.5-223.7h60l169-525.3L1746,362L1691,1.1h150v1250H1388z"/>
		<path class="st0" d="M844.5,676.3c-40,53.9-69.5,96.6-69.5,96.6v227.9l-101.5,233h-400l-24-32.5H159l-59.5-80.4V921.6l23.5-31.8
			L1,724.9"/>
		
			<linearGradient id="SVGID_1_" gradientUnits="userSpaceOnUse" x1="755.6141" y1="-1041.6398" x2="872.2493" y2="-886.8086" gradientTransform="matrix(1 0 0 1 0 1538)">
			<stop  offset="0" style="stop-color:#FFFFFF;stop-opacity:7.000000e-02"/>
			<stop  offset="1" style="stop-color:#FFFFFF;stop-opacity:0.59"/>
		</linearGradient>
		<path class="st1" d="M806,702.7l37.5-25l42.5-58.3v-47.9h-12v-29.2h-6v10.4h-15.5v-17.3H847l-3.5-61.8v61.8h-13v17.3h-7v23.7
			l20,27.8h7l10,7.6l-8,22.2H802v4.1h41.5v4.1H828v7.6l9.5,9.7v14H828l-9.5,13.2L806,702.7z"/>
		<path class="st0" d="M847,95.8V125l9.5,18v57.6l10,19.4"/>
		<path class="st0" d="M823-9.6l24,41.7v19.4"/>
		<path class="st2" d="M847.4,87.1l-2.2-1v-0.7l2.8,1.3v0.7l-2.8,1.3v-0.6L847.4,87.1z M846.7,82.1v1.7h0.9v-1.9h0.4v2.7h-2.8V82
			h0.4v1.9h0.8v-1.7h0.3L846.7,82.1L846.7,82.1z M846.9,79.2V80h1.1v0.7h-2.8v-1.3c0-0.3,0.1-0.8,0.2-1.1c0.1-0.2,0.3-0.4,0.6-0.4
			c0.2,0,0.4,0,0.5,0.1c0.1,0.2,0.2,0.3,0.3,0.6l1.2-0.8l0,0v0.7L846.9,79.2z M846.5,80.1v-0.8c0-0.3,0-0.4-0.1-0.6
			s-0.2-0.1-0.3-0.1c-0.2,0-0.3,0-0.4,0.1c-0.1,0.1-0.1,0.3-0.1,0.6V80L846.5,80.1z M847.3,74.6c-0.1,0-0.2,0-0.3,0.1
			s-0.1,0.3-0.2,0.7c0,0.2-0.1,0.4-0.2,0.7c-0.2,0.4-0.4,0.6-0.6,0.6c-0.2,0-0.5-0.2-0.6-0.4c-0.1-0.3-0.2-0.7-0.2-1
			c0-0.2,0-0.4,0.1-0.7s0.2-0.3,0.3-0.6c0.1-0.1,0.3-0.1,0.4-0.1v0.7c-0.1,0-0.3,0-0.3,0.1s-0.1,0.3-0.1,0.6c0,0.2,0,0.4,0.1,0.6
			c0.2,0.2,0.4,0.2,0.6,0c0.1-0.1,0.1-0.4,0.2-0.7c0.1-0.3,0.1-0.6,0.2-0.7l0.3-0.4c0.1-0.1,0.2-0.1,0.4-0.1s0.5,0.2,0.6,0.4
			c0.1,0.3,0.2,0.7,0.2,1c0,0.3,0,0.6-0.1,0.8c-0.1,0.2-0.2,0.3-0.3,0.6c-0.1,0.1-0.3,0.1-0.5,0.1v-0.7c0.2,0,0.3-0.1,0.4-0.3
			c0.1-0.2,0.1-0.4,0.1-0.7c0-0.2,0-0.4-0.1-0.6L847.3,74.6z M848,71.9v0.7h-2.8v-0.7H848z M846.7,67.5c0.2,0,0.5,0,0.7,0.1
			s0.4,0.3,0.5,0.6c0.1,0.2,0.2,0.6,0.2,0.8c0,0.3-0.1,0.6-0.2,0.8c-0.1,0.2-0.3,0.4-0.5,0.6s-0.5,0.1-0.7,0.1h-0.2
			c-0.2,0-0.5,0-0.7-0.1s-0.4-0.3-0.5-0.6c-0.1-0.2-0.2-0.6-0.2-0.8c0-0.3,0.1-0.6,0.2-0.8c0.1-0.2,0.3-0.4,0.5-0.6s0.5-0.2,0.7-0.1
			H846.7z M846.5,68c-0.3,0-0.5,0.1-0.7,0.2s-0.3,0.4-0.3,0.7s0.1,0.6,0.3,0.7c0.2,0.2,0.4,0.2,0.7,0.3h0.2c0.3,0,0.5-0.1,0.7-0.3
			c0.2-0.1,0.3-0.4,0.3-0.7c0-0.2-0.1-0.4-0.2-0.7c-0.2-0.1-0.4-0.2-0.7-0.2H846.5z M848,63.1v0.7l-2,1.8h2v0.7h-2.8v-0.7l2-1.8h-2
			v-0.7H848z M848,57.3V60h-0.3l-1-1.2c-0.2-0.1-0.3-0.2-0.4-0.4c-0.2-0.2-0.4-0.2-0.6,0c-0.1,0.1-0.1,0.2-0.1,0.4
			c0,0.3,0,0.4,0.1,0.6s0.2,0.1,0.4,0.1v0.7c-0.2,0-0.4,0-0.5-0.1l-0.3-0.4c-0.1-0.2-0.1-0.4-0.1-0.7c0-0.3,0.1-0.7,0.2-1
			c0.1-0.3,0.3-0.3,0.6-0.3c0.1,0,0.3,0,0.4,0.1c0.2,0.1,0.4,0.3,0.5,0.6l0.7,1v-1.9H848L848,57.3L848,57.3z"/>
		<path class="st0" d="M1472,1026.3l24,41.7"/>
		<path class="st0" d="M1512,1095.6l12,20.8h317"/>
		<path class="st2" d="M1486.9,1079.1c0,0.3-0.1,0.7-0.3,1c-0.2,0.2-0.5,0.4-0.8,0.4c-0.2,0-0.4-0.1-0.6-0.3s-0.3-0.4-0.4-0.7
			c-0.1-0.3-0.1-0.7-0.1-1v-0.4c0-0.3,0-0.7,0.1-1c0.1-0.2,0.2-0.6,0.4-0.7c0.2-0.1,0.4-0.2,0.6-0.3c0.3,0,0.6,0.1,0.8,0.4
			c0.2,0.2,0.3,0.7,0.3,1h-0.5c0-0.3-0.1-0.6-0.2-0.6s-0.2-0.1-0.4-0.1c-0.2,0-0.4,0.1-0.5,0.3c-0.1,0.3-0.2,0.7-0.2,1v0.4
			c0,0.3,0,0.7,0.2,1c0.1,0.2,0.3,0.2,0.5,0.2s0.3,0,0.4-0.1c0.1-0.1,0.2-0.3,0.2-0.6h0.5V1079.1z M1488.7,1078.3l0.7-1.8h0.6
			l-1,2.5v1.3h-0.5v-1.3l-1-2.5h0.6L1488.7,1078.3z M1490.6,1080.3v-3.9h1c0.3,0,0.5,0.1,0.7,0.3c0.2,0.1,0.2,0.4,0.2,0.8
			c0,0.2,0,0.3-0.1,0.6c-0.1,0.1-0.2,0.3-0.3,0.3c0.2,0,0.3,0.1,0.4,0.3s0.1,0.3,0.1,0.6c0,0.3-0.1,0.6-0.2,0.8
			c-0.2,0.2-0.4,0.2-0.7,0.3L1490.6,1080.3z M1491.1,1078.5v1.2h0.6c0.2,0.1,0.4-0.1,0.5-0.3c0-0.1,0-0.1,0-0.2
			c0-0.4-0.2-0.6-0.5-0.7H1491.1z M1491.1,1078.1h0.5c0.2,0,0.3,0,0.4-0.1c0.1-0.2,0.1-0.6,0-0.8c-0.1-0.1-0.2-0.1-0.4-0.1h-0.5
			V1078.1z M1495.2,1078.5h-1.2v1.2h1.4v0.6h-1.9v-3.9h1.8v0.6h-1.3v1.1h1.2V1078.5z M1497.2,1078.9h-0.6v1.6h-0.5v-3.9h1
			c0.3,0,0.6,0.1,0.8,0.3c0.2,0.2,0.3,0.6,0.3,0.8c0,0.3-0.1,0.4-0.1,0.7c-0.1,0.1-0.2,0.3-0.4,0.4l0.6,1.7h-0.5L1497.2,1078.9z
			 M1496.7,1078.3h0.5c0.2,0,0.3,0,0.4-0.1s0.1-0.2,0.1-0.4s0-0.4-0.1-0.6s-0.2-0.1-0.4-0.1h-0.5V1078.3z M1499.1,1080.3v-3.9h0.8
			c0.3,0,0.5,0.1,0.7,0.3c0.2,0.1,0.3,0.4,0.5,0.7c0.1,0.3,0.2,0.7,0.2,1v0.1c0,0.3-0.1,0.7-0.2,1c-0.1,0.2-0.3,0.6-0.5,0.7
			c-0.2,0.2-0.4,0.2-0.7,0.3h-0.8V1080.3z M1499.6,1077v2.8h0.3c0.2,0,0.4-0.1,0.6-0.2c0.1-0.3,0.2-0.7,0.2-1v-0.2
			c0-0.3-0.1-0.7-0.2-1c-0.1-0.2-0.3-0.2-0.6-0.2L1499.6,1077z M1505.2,1078.2h-1.7v-0.6h1.7V1078.2z M1505.2,1079.3h-1.7v-0.6h1.7
			V1079.3z M1508,1079.8h1.3v0.6h-1.8v-3.9h0.5V1079.8z M1511.7,1079.3h-1.1l-0.2,1h-0.5l1.1-3.9h0.5l1.1,3.9h-0.5L1511.7,1079.3z
			 M1510.8,1078.8h0.8l-0.4-1.7L1510.8,1078.8z M1513.9,1076.4l0.8,3l0.8-3h0.6v3.9h-0.5v-3l-0.8,3h-0.3l-0.8-3v3h-0.5v-3.9H1513.9z
			 M1517.1,1080.3v-3.9h1c0.3,0,0.5,0.1,0.7,0.3c0.2,0.1,0.2,0.4,0.2,0.8c0,0.2,0,0.3-0.1,0.6c-0.1,0.1-0.2,0.3-0.3,0.3
			c0.1,0,0.3,0.1,0.3,0.3c0.1,0.2,0.1,0.3,0.1,0.6c0,0.3-0.1,0.7-0.3,0.8c-0.2,0.2-0.4,0.2-0.7,0.3L1517.1,1080.3z M1517.6,1078.5
			v1.2h0.6c0.2,0,0.3,0,0.4-0.1c0.1-0.1,0.1-0.2,0.1-0.4c0-0.4-0.2-0.6-0.5-0.7H1517.6z M1517.6,1078.1h0.5c0.2,0,0.3,0,0.4-0.1
			c0.1-0.2,0.1-0.6,0-0.8c-0.1-0.1-0.2-0.1-0.4-0.1h-0.5V1078.1z M1522.3,1078.5c0,0.4-0.1,0.7-0.1,1c-0.1,0.2-0.2,0.6-0.4,0.7
			c-0.3,0.3-0.9,0.3-1.2,0c-0.2-0.2-0.3-0.4-0.4-0.7c-0.1-0.3-0.2-0.7-0.2-1v-0.2c0-0.3,0.1-0.7,0.2-1c0.1-0.2,0.2-0.6,0.4-0.7
			c0.3-0.3,0.9-0.3,1.2,0c0.2,0.2,0.3,0.4,0.4,0.7c0.1,0.3,0.2,0.7,0.2,1L1522.3,1078.5z M1521.8,1078.3c0-0.3-0.1-0.7-0.2-1
			s-0.4-0.4-0.6-0.4s-0.3,0.2-0.4,0.4c-0.1,0.3-0.2,0.7-0.2,1v0.2c0,0.3,0.1,0.7,0.2,1c0.1,0.2,0.3,0.4,0.5,0.4s0.4-0.1,0.5-0.3
			c0.1-0.3,0.2-0.7,0.2-1V1078.3z M1488,1085.2l0.7-1.8h0.6l-1,2.5v1.3h-0.5v-1.3l-1-2.5h0.6L1488,1085.2z M1490.6,1085.3l0.4-1h0.5
			l-0.7,1.3l0.7,1.6h-0.5l-0.4-1l-0.4,1h-0.5l0.7-1.6l-0.7-1.3h0.5L1490.6,1085.3z M1494.2,1087.2h-1.9v-0.4l1-1.3
			c0.1-0.2,0.2-0.4,0.3-0.6c0.1-0.1,0.1-0.2,0.1-0.4c0-0.1,0-0.3-0.1-0.4s-0.2-0.1-0.3-0.1c-0.2,0-0.3,0-0.4,0.1
			c-0.1,0.1-0.1,0.3-0.1,0.6h-0.5c0-0.2,0-0.4,0.1-0.7l0.3-0.4c0.1-0.1,0.3-0.2,0.5-0.1c0.3,0,0.5,0.1,0.7,0.3
			c0.2,0.1,0.2,0.4,0.2,0.8c0,0.2,0,0.3-0.1,0.6s-0.2,0.4-0.4,0.7l-0.7,1h1.3V1087.2z M1495.5,1085h0.3c0.2,0,0.3,0,0.3-0.1
			c0.1-0.1,0.1-0.2,0.1-0.4c0-0.1,0-0.3-0.1-0.4c-0.2-0.2-0.4-0.2-0.6,0c-0.1,0.1-0.1,0.2-0.1,0.4h-0.5c0-0.2,0-0.3,0.1-0.6l0.3-0.4
			c0.1-0.1,0.3-0.1,0.5-0.1c0.3,0,0.5,0.1,0.7,0.3c0.2,0.1,0.2,0.4,0.2,0.8c0,0.2,0,0.3-0.1,0.6l-0.3,0.4c0.2,0.1,0.3,0.1,0.3,0.4
			c0.1,0.2,0.1,0.3,0.1,0.6c0,0.3-0.1,0.7-0.3,0.8c-0.2,0.3-0.4,0.3-0.7,0.3c-0.3,0-0.5-0.1-0.7-0.3s-0.3-0.6-0.3-0.8h0.5
			c0,0.1,0,0.3,0.1,0.4s0.2,0.1,0.3,0.1c0.1,0,0.3,0,0.3-0.1c0.1-0.1,0.1-0.2,0.1-0.4c0-0.3,0-0.4-0.1-0.4s-0.2-0.1-0.4-0.1h-0.3
			v-0.8h0.3V1085z M1499.2,1087.2v-2.5h-0.3v-0.6h0.3v-0.2c0-0.2,0.1-0.4,0.2-0.7c0.2-0.2,0.4-0.3,0.6-0.3h0.3v0.6h-0.2
			c-0.2,0-0.3,0.1-0.3,0.4v0.2h0.4v0.6h-0.4v2.5H1499.2L1499.2,1087.2z M1502.1,1087.2c0-0.1,0-0.2-0.1-0.3
			c-0.2,0.3-0.3,0.3-0.6,0.3c-0.2,0-0.4-0.1-0.5-0.3c-0.1-0.1-0.2-0.3-0.2-0.6c0-0.2,0.1-0.4,0.2-0.7c0.2-0.1,0.4-0.2,0.7-0.2h0.3
			v-0.1c0-0.1,0-0.3-0.1-0.4c-0.2-0.2-0.4-0.2-0.6,0c-0.1,0.1-0.1,0.1-0.1,0.3h-0.5c0-0.1,0-0.3,0.1-0.4c0.1-0.1,0.2-0.3,0.3-0.3
			c0.1-0.1,0.3-0.1,0.4-0.1c0.2,0,0.4,0.1,0.6,0.3c0.2,0.1,0.2,0.4,0.2,0.7v1.3c0,0.2,0,0.4,0.1,0.7h-0.2L1502.1,1087.2z
			 M1501.6,1086.9c0.1,0,0.2,0,0.3-0.1c0.1,0,0.2-0.1,0.2-0.3v-0.6h-0.3c-0.2,0-0.3,0-0.4,0.1s-0.1,0.1-0.1,0.4c0,0.3,0,0.3,0.1,0.3
			S1501.5,1086.9,1501.6,1086.9L1501.6,1086.9z M1506.7,1087.2h-1.9v-0.4l0.9-1.3c0.1-0.2,0.2-0.4,0.3-0.6c0.1-0.1,0.1-0.2,0.1-0.4
			c0-0.1,0-0.3-0.1-0.4s-0.2-0.1-0.3-0.1c-0.2,0-0.3,0-0.4,0.1c-0.1,0.1-0.1,0.3-0.1,0.6h-0.5c0-0.2,0-0.4,0.1-0.7l0.3-0.4
			c0.1-0.1,0.3-0.2,0.5-0.1c0.3,0,0.5,0.1,0.7,0.3c0.2,0.1,0.2,0.4,0.2,0.8c0,0.1-0.1,0.4-0.1,0.6c-0.1,0.2-0.2,0.4-0.4,0.7l-0.7,1
			h1.3L1506.7,1087.2z M1508.7,1087.2h-0.5v-3.2l-0.7,0.3v-0.6l1.1-0.6h0.1V1087.2z M1512,1083.7l-1.1,3.6h-0.5l1.1-3.5h-1.5v-0.6h2
			V1083.7z M1514.1,1087.2h-0.5v-3.2l-0.7,0.3v-0.6l1.1-0.6h0.1V1087.2z M1516.9,1083.2v0.6h-0.1c-0.2,0-0.4,0.1-0.6,0.3
			c-0.2,0.1-0.2,0.4-0.3,0.8c0.2-0.2,0.3-0.2,0.6-0.2c0.2,0,0.5,0.2,0.6,0.4c0.2,0.3,0.2,0.7,0.2,1s-0.1,0.7-0.2,1
			c-0.3,0.4-0.8,0.6-1.2,0.2c-0.1-0.1-0.2-0.1-0.2-0.2c-0.2-0.3-0.3-0.7-0.3-1.1v-0.3c0-0.6,0.1-1.2,0.4-1.7
			C1516,1083.4,1516.5,1083.2,1516.9,1083.2L1516.9,1083.2z M1516.4,1085.2c-0.1,0-0.2,0-0.3,0.1c-0.1,0.1-0.2,0.1-0.2,0.3v0.1
			c0,0.2,0,0.4,0.1,0.7c0.1,0.1,0.2,0.3,0.3,0.3c0.1,0,0.3-0.1,0.3-0.2l0,0c0.1-0.1,0.1-0.3,0.1-0.6s0-0.4-0.1-0.6
			C1516.7,1085.3,1516.6,1085.2,1516.4,1085.2L1516.4,1085.2z M1519.5,1085.6c-0.2,0.3-0.3,0.4-0.6,0.4c-0.3,0-0.5-0.1-0.6-0.4
			c-0.2-0.3-0.2-0.7-0.2-1c0-0.2,0-0.4,0.1-0.7s0.2-0.4,0.3-0.6c0.1-0.1,0.3-0.1,0.5-0.1c0.3,0,0.5,0.1,0.7,0.4
			c0.2,0.3,0.3,0.8,0.2,1.2v0.1c0,0.6-0.1,1.1-0.3,1.7c-0.2,0.3-0.6,0.6-1,0.6h-0.1v-0.6h0.1c0.3,0,0.5-0.1,0.7-0.3
			C1519.4,1086.2,1519.5,1085.9,1519.5,1085.6L1519.5,1085.6z M1519,1085.5c0.1,0,0.2,0,0.3-0.1c0.1-0.1,0.2-0.1,0.2-0.2v-0.3
			c0-0.2,0-0.4-0.1-0.7c-0.1-0.1-0.2-0.3-0.3-0.3s-0.2,0.1-0.3,0.3c-0.1,0.2-0.1,0.3-0.1,0.6c0,0.2,0,0.4,0.1,0.6
			C1518.9,1085.3,1518.9,1085.6,1519,1085.5L1519,1085.5z"/>
	</g>
</g>
</svg>
