<?xml version="1.0" encoding="utf-8"?>
<!-- Generator: Adobe Illustrator 25.2.3, SVG Export Plug-In . SVG Version: 6.00 Build 0)  -->
<svg version="1.1" id="Layer_1" xmlns="http://www.w3.org/2000/svg" xmlns:xlink="http://www.w3.org/1999/xlink" x="0px" y="0px"
	 viewBox="0 0 1840 898" style="enable-background:new 0 0 1840 898;" xml:space="preserve">
<style type="text/css">
	.st0{fill:none;stroke:#FFFFFF;stroke-opacity:0.3;}
	.st1{fill:url(#SVGID_1_);fill-opacity:0.3;}
	.st2{fill:#FFFFFF;fill-opacity:0.5;}
</style>
<path d="M865.5,50.6L920-4H-1v902h716l128.5-223.9V484.3l41.5-41.6V174.8l-19.5-19.5V50.6z"/>
<path d="M1226,887.5h161l29,10.5H695.5l10.5-10.5h211l14.5-14.5h280L1226,887.5z"/>
<path d="M1387,898l83.5-160.8h60l169-377.6l45.5-100.7L1690-0.5h150V316v582h-202H1387z"/>
<path class="st0" d="M843.5,484c-40,38.9-69.5,69.6-69.5,69.6v41.9v122.2L672.5,885.5h-400l-24-23.4H158l-59.5-57.9V660.7l23.5-22.9
	L0,519"/>
<linearGradient id="SVGID_1_" gradientUnits="userSpaceOnUse" x1="775.8638" y1="1412.0632" x2="859.8638" y2="1300.5632" gradientTransform="matrix(1 0 0 -1 0 1769)">
	<stop  offset="0" style="stop-color:#FFFFFF;stop-opacity:7.000000e-02"/>
	<stop  offset="1" style="stop-color:#FFFFFF;stop-opacity:0.59"/>
</linearGradient>
<path class="st1" d="M805,503l37.5-18l42.5-42v-34.5h-12v-21h-6v7.5h-15.5v-12.5H846l-3.5-44.5v44.5h-13V395h-7v17l20,20h7l10,5.5
	l-8,16H801v3h41.5v3H827v5.5l9.5,7v10H827l-9.5,9.5L805,503z"/>
<path class="st0" d="M846,66v21l9.5,13v41.5l10,14"/>
<path class="st0" d="M822-10l24,30v14"/>
<path class="st2" d="M846.4,59.7l-2.2-0.7v-0.5l2.8,1V60l-2.8,1v-0.5L846.4,59.7z M845.7,56.1v1.2h0.9v-1.4h0.4v1.9h-2.8V56h0.4v1.4
	h0.8v-1.2h0.3L845.7,56.1L845.7,56.1z M845.9,54v0.6h1.1v0.5h-2.8v-1c0-0.3,0.1-0.6,0.2-0.8c0.1-0.2,0.4-0.3,0.6-0.3
	c0.2,0,0.3,0,0.5,0.1c0.1,0.1,0.2,0.2,0.3,0.4l1.2-0.6l0,0v0.5L845.9,54z M845.5,54.6v-0.5c0-0.2,0-0.3-0.1-0.4
	c-0.1-0.1-0.2-0.1-0.3-0.1c-0.2,0-0.3,0-0.4,0.1c-0.1,0.1-0.1,0.2-0.1,0.4v0.5H845.5z M846.3,50.7c-0.1,0-0.2,0-0.3,0.1
	s-0.1,0.2-0.2,0.5c-0.1,0.2-0.1,0.4-0.2,0.5c-0.2,0.3-0.4,0.4-0.6,0.4c-0.2,0-0.4-0.1-0.6-0.3c-0.1-0.2-0.2-0.4-0.2-0.7
	c0-0.2,0-0.4,0.1-0.5c0.1-0.2,0.2-0.3,0.3-0.4c0.1-0.1,0.3-0.1,0.4-0.1v0.5c-0.1,0-0.3,0-0.3,0.1c-0.1,0.1-0.1,0.2-0.1,0.4
	s0,0.3,0.1,0.4c0.1,0.1,0.2,0.1,0.3,0.1s0.2,0,0.3-0.1s0.1-0.3,0.2-0.5c0.1-0.2,0.1-0.4,0.2-0.5c0.1-0.1,0.2-0.2,0.3-0.3
	s0.2-0.1,0.4-0.1s0.4,0.1,0.6,0.3c0.1,0.2,0.2,0.4,0.2,0.7c0,0.2,0,0.4-0.1,0.6c-0.1,0.2-0.2,0.3-0.3,0.4c-0.1,0.1-0.3,0.1-0.5,0.1
	v-0.5c0.2,0,0.3-0.1,0.4-0.2c0.1-0.1,0.1-0.3,0.1-0.5s0-0.3-0.1-0.4C846.5,50.7,846.4,50.7,846.3,50.7z M847,48.8v0.5h-2.8v-0.5H847
	z M845.7,45.6c0.3,0,0.5,0,0.7,0.1s0.4,0.2,0.5,0.4s0.2,0.4,0.2,0.6c0,0.2-0.1,0.4-0.2,0.6c-0.1,0.2-0.3,0.3-0.5,0.4
	c-0.2,0.1-0.4,0.1-0.7,0.1h-0.2c-0.3,0-0.5,0-0.7-0.1s-0.4-0.2-0.5-0.4s-0.2-0.4-0.2-0.6c0-0.2,0.1-0.4,0.2-0.6
	c0.1-0.2,0.3-0.3,0.5-0.4c0.2-0.1,0.5-0.1,0.7-0.1H845.7z M845.5,46c-0.3,0-0.6,0.1-0.7,0.2c-0.2,0.1-0.3,0.3-0.3,0.5
	s0.1,0.4,0.3,0.5s0.4,0.2,0.7,0.2h0.2c0.3,0,0.6-0.1,0.7-0.2c0.2-0.1,0.3-0.3,0.3-0.5s-0.1-0.4-0.2-0.5c-0.2-0.1-0.4-0.2-0.7-0.2
	H845.5z M847,42.4v0.5l-2,1.3h2v0.5h-2.8v-0.5l2-1.3h-2v-0.5H847z M847,38.2v1.9h-0.3l-1-0.9c-0.2-0.1-0.3-0.2-0.4-0.3
	c-0.1-0.1-0.2-0.1-0.3-0.1s-0.2,0-0.3,0.1s-0.1,0.2-0.1,0.3c0,0.2,0,0.3,0.1,0.4c0.1,0.1,0.2,0.1,0.4,0.1v0.5c-0.2,0-0.3,0-0.5-0.1
	c-0.1-0.1-0.2-0.2-0.3-0.3s-0.1-0.3-0.1-0.5c0-0.3,0.1-0.5,0.2-0.7c0.1-0.2,0.3-0.2,0.6-0.2c0.1,0,0.3,0,0.4,0.1
	c0.2,0.1,0.3,0.2,0.5,0.4l0.7,0.7v-1.3h0.4L847,38.2L847,38.2z"/>
<path class="st0" d="M1471,736l24,30"/>
<path class="st0" d="M1511,786l12,15h317"/>
<path class="st2" d="M1485.9,774.1c0,0.3-0.1,0.5-0.3,0.7c-0.2,0.2-0.5,0.3-0.8,0.3c-0.2,0-0.4-0.1-0.6-0.2
	c-0.2-0.1-0.3-0.3-0.4-0.5s-0.1-0.4-0.1-0.7v-0.3c0-0.3,0-0.5,0.1-0.7s0.2-0.4,0.4-0.5c0.2-0.1,0.4-0.2,0.6-0.2
	c0.3,0,0.6,0.1,0.8,0.3c0.2,0.2,0.3,0.4,0.3,0.7h-0.5c0-0.2-0.1-0.4-0.2-0.4c-0.1-0.1-0.2-0.1-0.4-0.1c-0.2,0-0.4,0.1-0.5,0.2
	c-0.1,0.2-0.2,0.4-0.2,0.7v0.3c0,0.3,0,0.5,0.2,0.7c0.1,0.2,0.3,0.2,0.5,0.2s0.3,0,0.4-0.1s0.2-0.2,0.2-0.4H1485.9z M1487.7,773.5
	l0.7-1.3h0.6l-1,1.8v1h-0.5v-1l-1-1.8h0.6L1487.7,773.5z M1489.6,775v-2.8h1c0.3,0,0.6,0.1,0.7,0.2c0.2,0.1,0.2,0.3,0.2,0.6
	c0,0.1,0,0.2-0.1,0.4c-0.1,0.1-0.2,0.2-0.3,0.2c0.1,0,0.3,0.1,0.4,0.2c0.1,0.1,0.1,0.3,0.1,0.4c0,0.3-0.1,0.5-0.2,0.6
	c-0.2,0.1-0.4,0.2-0.7,0.2L1489.6,775L1489.6,775z M1490.1,773.7v0.9h0.6c0.1,0,0.3,0,0.4-0.1s0.1-0.2,0.1-0.3
	c0-0.3-0.2-0.4-0.5-0.5L1490.1,773.7L1490.1,773.7z M1490.1,773.4h0.5c0.2,0,0.3,0,0.4-0.1s0.1-0.2,0.1-0.3s0-0.2-0.1-0.3
	s-0.2-0.1-0.4-0.1h-0.5V773.4z M1494.2,773.7h-1.2v0.9h1.4v0.4h-1.9v-2.8h1.8v0.4h-1.3v0.8h1.2V773.7z M1496.2,773.9h-0.6v1.1h-0.5
	v-2.8h1c0.3,0,0.6,0.1,0.8,0.2c0.2,0.1,0.3,0.4,0.3,0.6c0,0.2-0.1,0.3-0.1,0.5c-0.1,0.1-0.2,0.2-0.4,0.3l0.6,1.2l0,0h-0.5
	L1496.2,773.9z M1495.7,773.5h0.5c0.2,0,0.3,0,0.4-0.1s0.1-0.2,0.1-0.3c0-0.2,0-0.3-0.1-0.4c-0.1-0.1-0.2-0.1-0.4-0.1h-0.5V773.5z
	 M1498.1,775v-2.8h0.8c0.3,0,0.5,0.1,0.7,0.2c0.2,0.1,0.3,0.3,0.5,0.5c0.1,0.2,0.2,0.4,0.2,0.7v0.1c0,0.3-0.1,0.5-0.2,0.7
	s-0.3,0.4-0.5,0.5s-0.4,0.2-0.7,0.2h-0.8V775z M1498.6,772.6v2h0.3c0.3,0,0.5-0.1,0.6-0.2c0.1-0.2,0.2-0.4,0.2-0.7v-0.2
	c0-0.3-0.1-0.5-0.2-0.7s-0.3-0.2-0.6-0.2L1498.6,772.6L1498.6,772.6z M1504.2,773.5h-1.7v-0.4h1.7V773.5z M1504.2,774.3h-1.7v-0.4
	h1.7V774.3z M1507,774.6h1.3v0.4h-1.8v-2.8h0.5V774.6z M1510.7,774.3h-1.1l-0.2,0.7h-0.5l1.1-2.8h0.5l1.1,2.8h-0.5L1510.7,774.3z
	 M1509.8,773.9h0.8l-0.4-1.2L1509.8,773.9z M1512.9,772.2l0.8,2.2l0.8-2.2h0.6v2.8h-0.5v-0.9v-1.3l-0.8,2.2h-0.3l-0.8-2.2v1.3v0.9
	h-0.5v-2.8H1512.9z M1516.1,775v-2.8h1c0.3,0,0.6,0.1,0.7,0.2c0.2,0.1,0.2,0.3,0.2,0.6c0,0.1,0,0.2-0.1,0.4
	c-0.1,0.1-0.2,0.2-0.3,0.2c0.1,0,0.3,0.1,0.3,0.2c0.1,0.1,0.1,0.3,0.1,0.4c0,0.3-0.1,0.5-0.3,0.6c-0.2,0.1-0.4,0.2-0.7,0.2
	L1516.1,775L1516.1,775z M1516.6,773.7v0.9h0.6c0.2,0,0.3,0,0.4-0.1s0.1-0.2,0.1-0.3c0-0.3-0.2-0.4-0.5-0.5L1516.6,773.7
	L1516.6,773.7z M1516.6,773.4h0.5c0.2,0,0.3,0,0.4-0.1s0.1-0.2,0.1-0.3s0-0.2-0.1-0.3s-0.2-0.1-0.4-0.1h-0.5V773.4z M1521.3,773.7
	c0,0.3-0.1,0.5-0.1,0.7c-0.1,0.2-0.2,0.4-0.4,0.5c-0.2,0.1-0.4,0.2-0.6,0.2s-0.4-0.1-0.6-0.2c-0.2-0.1-0.3-0.3-0.4-0.5
	s-0.2-0.4-0.2-0.7v-0.2c0-0.3,0.1-0.5,0.2-0.7s0.2-0.4,0.4-0.5c0.2-0.1,0.4-0.2,0.6-0.2s0.4,0.1,0.6,0.2c0.2,0.1,0.3,0.3,0.4,0.5
	s0.2,0.5,0.2,0.7L1521.3,773.7L1521.3,773.7z M1520.8,773.5c0-0.3-0.1-0.6-0.2-0.7c-0.1-0.2-0.3-0.3-0.5-0.3s-0.4,0.1-0.5,0.3
	s-0.2,0.4-0.2,0.7v0.2c0,0.3,0.1,0.6,0.2,0.7c0.1,0.2,0.3,0.3,0.5,0.3s0.4-0.1,0.5-0.2c0.1-0.2,0.2-0.4,0.2-0.7V773.5z M1487,778.5
	l0.7-1.3h0.6l-1,1.8v1h-0.5v-1l-1-1.8h0.6L1487,778.5z M1489.6,778.6l0.4-0.7h0.5l-0.7,1l0.7,1.1h-0.5l-0.4-0.7l-0.4,0.7h-0.5
	l0.7-1.1l-0.7-1h0.5L1489.6,778.6z M1493.2,780h-1.9v-0.3l1-1c0.1-0.2,0.2-0.3,0.3-0.4c0.1-0.1,0.1-0.2,0.1-0.3s0-0.2-0.1-0.3
	s-0.2-0.1-0.3-0.1c-0.2,0-0.3,0-0.4,0.1s-0.1,0.2-0.1,0.4h-0.5c0-0.2,0-0.3,0.1-0.5c0.1-0.1,0.2-0.2,0.3-0.3
	c0.2-0.1,0.3-0.1,0.5-0.1c0.3,0,0.5,0.1,0.7,0.2c0.2,0.1,0.2,0.3,0.2,0.6c0,0.1,0,0.3-0.1,0.4c-0.1,0.2-0.2,0.3-0.4,0.5l-0.7,0.7
	h1.3V780z M1494.5,778.4h0.3c0.2,0,0.3,0,0.3-0.1c0.1-0.1,0.1-0.2,0.1-0.3s0-0.2-0.1-0.3s-0.2-0.1-0.3-0.1c-0.1,0-0.2,0-0.3,0.1
	c-0.1,0.1-0.1,0.2-0.1,0.3h-0.5c0-0.1,0-0.3,0.1-0.4s0.2-0.2,0.3-0.3c0.1-0.1,0.3-0.1,0.5-0.1c0.3,0,0.5,0.1,0.7,0.2
	c0.2,0.1,0.2,0.3,0.2,0.6c0,0.1,0,0.2-0.1,0.4c-0.1,0.1-0.2,0.2-0.3,0.3c0.2,0.1,0.3,0.1,0.3,0.3c0.1,0.1,0.1,0.3,0.1,0.4
	c0,0.3-0.1,0.5-0.3,0.6c-0.2,0.2-0.4,0.2-0.7,0.2c-0.3,0-0.5-0.1-0.7-0.2s-0.3-0.3-0.3-0.6h0.5c0,0.1,0,0.2,0.1,0.3s0.2,0.1,0.3,0.1
	s0.3,0,0.3-0.1c0.1-0.1,0.1-0.2,0.1-0.3c0-0.2,0-0.3-0.1-0.3c-0.1-0.1-0.2-0.1-0.4-0.1h-0.3v-0.6L1494.5,778.4L1494.5,778.4z
	 M1498.2,780v-1.8h-0.3v-0.4h0.3v-0.2c0-0.2,0.1-0.4,0.2-0.5s0.3-0.2,0.6-0.2c0.1,0,0.2,0,0.3,0v0.4c-0.1,0-0.1,0-0.2,0
	c-0.2,0-0.3,0.1-0.3,0.3v0.2h0.4v0.4h-0.4v1.8H1498.2z M1501.1,780c0,0,0-0.1-0.1-0.2c-0.2,0.2-0.3,0.2-0.6,0.2
	c-0.2,0-0.4-0.1-0.5-0.2c-0.1-0.1-0.2-0.3-0.2-0.4c0-0.2,0.1-0.4,0.2-0.5c0.2-0.1,0.4-0.2,0.7-0.2h0.3v-0.1c0-0.1,0-0.2-0.1-0.3
	s-0.2-0.1-0.3-0.1c-0.1,0-0.2,0-0.3,0.1c-0.1,0.1-0.1,0.1-0.1,0.2h-0.5c0-0.1,0-0.2,0.1-0.3s0.2-0.2,0.3-0.2
	c0.1-0.1,0.3-0.1,0.4-0.1c0.2,0,0.4,0.1,0.6,0.2c0.2,0.1,0.2,0.3,0.2,0.5v1c0,0.2,0,0.3,0.1,0.5l0,0h-0.2V780z M1500.6,779.7
	c0.1,0,0.2,0,0.3-0.1c0.1,0,0.2-0.1,0.2-0.2V779h-0.3c-0.2,0-0.3,0-0.4,0.1s-0.1,0.1-0.1,0.3c0,0.1,0,0.2,0.1,0.2
	C1500.4,779.6,1500.5,779.7,1500.6,779.7z M1505.7,780h-1.9v-0.3l0.9-1c0.1-0.2,0.2-0.3,0.3-0.4c0.1-0.1,0.1-0.2,0.1-0.3
	s0-0.2-0.1-0.3s-0.2-0.1-0.3-0.1c-0.2,0-0.3,0-0.4,0.1s-0.1,0.2-0.1,0.4h-0.5c0-0.2,0-0.3,0.1-0.5c0.1-0.1,0.2-0.2,0.3-0.3
	c0.2-0.1,0.3-0.1,0.5-0.1c0.3,0,0.5,0.1,0.7,0.2c0.2,0.1,0.2,0.3,0.2,0.6c0,0.1-0.1,0.3-0.1,0.4c-0.1,0.2-0.2,0.3-0.4,0.5l-0.7,0.7
	h1.3L1505.7,780L1505.7,780z M1507.7,780h-0.5v-2.3l-0.7,0.2v-0.4l1.1-0.4h0.1V780z M1511,777.4l-1.1,2.6h-0.5l1.1-2.5h-1.5v-0.4h2
	V777.4z M1513.1,780h-0.5v-2.3l-0.7,0.2v-0.4l1.1-0.4h0.1V780z M1515.9,777.1v0.4h-0.1c-0.3,0-0.5,0.1-0.6,0.2
	c-0.2,0.1-0.2,0.3-0.3,0.6c0.2-0.2,0.3-0.2,0.6-0.2c0.2,0,0.4,0.1,0.6,0.3s0.2,0.4,0.2,0.7s-0.1,0.5-0.2,0.7
	c-0.2,0.2-0.4,0.3-0.7,0.3c-0.3,0-0.5-0.1-0.7-0.3s-0.3-0.5-0.3-0.8v-0.2c0-0.5,0.1-0.9,0.4-1.2
	C1515.1,777.3,1515.4,777.1,1515.9,777.1L1515.9,777.1z M1515.4,778.5c-0.1,0-0.2,0-0.3,0.1c-0.1,0.1-0.2,0.1-0.2,0.2v0.1
	c0,0.2,0,0.4,0.1,0.5s0.2,0.2,0.3,0.2c0.2,0,0.3-0.1,0.3-0.2c0.1-0.1,0.1-0.2,0.1-0.4s0-0.3-0.1-0.4
	C1515.7,778.6,1515.6,778.5,1515.4,778.5z M1518.5,778.8c-0.2,0.2-0.3,0.3-0.6,0.3c-0.2,0-0.5-0.1-0.6-0.3c-0.2-0.2-0.2-0.4-0.2-0.7
	c0-0.2,0-0.4,0.1-0.5c0.1-0.2,0.2-0.3,0.3-0.4c0.1-0.1,0.3-0.1,0.5-0.1c0.3,0,0.5,0.1,0.7,0.3s0.2,0.5,0.2,0.9v0.1
	c0,0.5-0.1,0.9-0.3,1.2c-0.2,0.3-0.6,0.4-1,0.4h-0.1v-0.4h0.1c0.3,0,0.5-0.1,0.7-0.2C1518.4,779.3,1518.4,779.1,1518.5,778.8z
	 M1518,778.7c0.1,0,0.2,0,0.3-0.1c0.1-0.1,0.2-0.1,0.2-0.2v-0.2c0-0.2,0-0.4-0.1-0.5s-0.2-0.2-0.3-0.2c-0.1,0-0.2,0.1-0.3,0.2
	c-0.1,0.1-0.1,0.3-0.1,0.4c0,0.2,0,0.3,0.1,0.4C1517.8,778.6,1517.9,778.7,1518,778.7z"/>
</svg>
