<svg xmlns="http://www.w3.org/2000/svg" viewBox="0 0 1840 89.26"><defs><style>.cls-1,.cls-2{fill:#fff;}.cls-1{fill-opacity:0.3;fill-rule:evenodd;}</style></defs><g id="Layer_2" data-name="Layer 2"><g id="Layer_1-2" data-name="Layer 1"><path class="cls-1" d="M322,3.26h-.21l-.14.14L297.29,27.76H0v1H297.71l.14-.15L322.21,4.26H475.79l17.86,17.85.14.15H683.21l.14-.15L701.21,4.26H822.29l24,24-39.5,39.5h-425l-.14.14L361.29,88.26H266.71L230.85,52.4l-.14-.14H0v1H230.29l35.86,35.85.14.15h95.42l.14-.15,20.36-20.35h425l.14-.15,40-40,.36-.35-.36-.36L822.85,3.4l-.14-.14H700.79l-.14.14L682.79,21.26H494.21L476.35,3.4l-.14-.14H322Z"/></g></g></svg>