<?xml version="1.0" encoding="utf-8"?>
<!-- Generator: Adobe Illustrator 25.2.3, SVG Export Plug-In . SVG Version: 6.00 Build 0)  -->
<svg version="1.1" id="Layer_1" xmlns="http://www.w3.org/2000/svg" xmlns:xlink="http://www.w3.org/1999/xlink" x="0px" y="0px"
	 viewBox="0 0 1840 123" style="enable-background:new 0 0 1840 123;" xml:space="preserve">
<style type="text/css">
	.st0{fill-rule:evenodd;clip-rule:evenodd;fill:#FFFFFF;fill-opacity:0.3;}
</style>
<g id="Layer_2_1_">
	<g id="Layer_1-2">
		<path class="st0" d="M346,83.7h0.5v-2.8h-0.1l-1.1,0.4v0.4l0.7-0.2L346,83.7z M349.1,81.6l-0.4,0.7l-0.4-0.7h-0.5l0.6,1l-0.6,1.1
			h0.5l0.4-0.7l0.4,0.7h0.5l-0.6-1.1l0.6-1L349.1,81.6z M350.2,82.7h1v-0.4h-1V82.7z M354.2,83.7h0.5v-2.8h-0.1l-1.1,0.4v0.4
			l0.7-0.2L354.2,83.7z M356.9,82.1h-0.3v0.4h0.3c0.1,0,0.3,0,0.4,0.1c0.1,0,0.1,0.1,0.1,0.2c0,0,0,0.1,0,0.1c0,0,0,0,0,0.1
			c0,0.1,0,0.2-0.1,0.3c-0.1,0.1-0.2,0.1-0.4,0.1c-0.1,0-0.2,0-0.3-0.1c-0.1-0.1-0.1-0.1-0.1-0.2V83H356c0,0.2,0.1,0.4,0.3,0.6
			c0.4,0.3,1,0.3,1.4,0c0.2-0.1,0.3-0.4,0.3-0.6c0-0.1,0-0.2,0-0.3l-0.1-0.1c-0.1-0.1-0.2-0.2-0.4-0.2c0.1-0.1,0.2-0.1,0.3-0.2
			c0.1-0.1,0.1-0.2,0.1-0.4c0-0.2-0.1-0.4-0.2-0.6c-0.2-0.1-0.4-0.2-0.7-0.2c-0.2,0-0.3,0-0.5,0.1c-0.1,0.1-0.2,0.2-0.3,0.3
			c0,0.1-0.1,0.1-0.1,0.2c0,0.1,0,0.2,0,0.2h0.5c0,0,0-0.1,0-0.1c0-0.1,0.1-0.1,0.1-0.2c0.1-0.1,0.2-0.1,0.3-0.1
			c0.1,0,0.2,0,0.3,0.1c0,0,0.1,0.1,0.1,0.1c0,0.1,0,0.1,0,0.2c0,0.1,0,0.2-0.1,0.3C357.1,82.1,357,82.1,356.9,82.1z M360.7,82.7
			h-0.4v-1.8h-0.5l-1.2,1.9v0.3h1.2v0.6h0.5v-0.6h0.4L360.7,82.7z M359.9,82.7h-0.7l0.7-1.1v-0.1L359.9,82.7z M361.6,82v1.8h0.5V82
			h0.4v-0.3h-0.4v-0.2c0-0.2,0.1-0.3,0.3-0.3c0,0,0,0,0.1,0h0.1h0.1v-0.3h-0.1h-0.2c-0.4,0-0.7,0.2-0.7,0.6c0,0,0,0.1,0,0.1v0.2
			h-0.3V82L361.6,82z M364.5,83.5c0,0.1,0,0.1,0.1,0.2h0.5l0,0v-0.1c0,0,0-0.1,0-0.1c0,0,0-0.1,0-0.1c0,0,0-0.1,0-0.1v-1
			c0-0.2-0.1-0.4-0.2-0.5c-0.2-0.1-0.4-0.2-0.6-0.2c-0.2,0-0.3,0-0.4,0.1c-0.1,0.1-0.2,0.1-0.3,0.2c0,0.1-0.1,0.1-0.1,0.2
			c0,0,0,0.1,0,0.1h0.5c0,0,0-0.1,0-0.1l0,0l0,0l0.1-0.1h0.1h0.1h0.1h0.1c0.2,0,0.3,0.1,0.4,0.3c0,0,0,0,0,0.1v0.1h-0.3
			c-0.3,0-0.5,0-0.7,0.2c-0.2,0.1-0.3,0.3-0.2,0.5c0,0.2,0.1,0.3,0.2,0.4c0.1,0.1,0.3,0.2,0.5,0.2C364.2,83.9,364.4,83.7,364.5,83.5
			z M364.3,83.3c-0.1,0-0.2,0.1-0.3,0.1c-0.1,0-0.1,0-0.2,0h-0.1c-0.1-0.1-0.1-0.1-0.1-0.2c0-0.1,0.1-0.2,0.1-0.3
			c0-0.1,0.1-0.1,0.2-0.2h0.4v0.4C364.4,83.2,364.3,83.3,364.3,83.3z M368.4,81.6l-0.4,0.7l-0.4-0.7h-0.5l0.6,1l-0.7,1.1h0.5L368,83
			l0.4,0.7h0.6l-0.7-1.1l0.6-1L368.4,81.6z M372.6,82.9l-1.2-0.4l1.2-0.4v-0.5l-1.6,0.7v0.4l1.6,0.7V82.9z M373.5,83.7h1.9v-0.4H374
			l0.7-0.7c0.2-0.2,0.3-0.3,0.4-0.5c0.1-0.1,0.1-0.3,0.1-0.4c0-0.2-0.1-0.4-0.2-0.6c-0.2-0.1-0.4-0.2-0.6-0.2c-0.2,0-0.4,0-0.5,0.1
			c-0.1,0-0.2,0.1-0.2,0.2l0,0.1c0,0,0,0,0,0.1c-0.1,0.1-0.1,0.3-0.1,0.5h0.5v-0.1c0-0.1,0-0.1,0.1-0.2l0,0l0,0
			c0.1-0.1,0.2-0.1,0.4-0.1c0.1,0,0.2,0,0.3,0.1c0,0,0.1,0.1,0.1,0.2c0,0,0,0.1,0,0.1v0c0,0.1,0,0.2-0.1,0.3
			c-0.1,0.1-0.2,0.3-0.3,0.4l-0.9,1L373.5,83.7z M377,82.1h-0.3v0.4h0.3c0.1,0,0.3,0,0.4,0.1c0.1,0.1,0.1,0.2,0.1,0.3
			c0,0.1,0,0.1,0,0.2c0,0,0,0.1,0,0.1l0,0l0,0l0,0l0,0c-0.1,0.1-0.2,0.1-0.3,0.1c-0.1,0-0.2,0-0.3-0.1c-0.1-0.1-0.1-0.2-0.1-0.3
			h-0.5c0,0.2,0.1,0.4,0.3,0.6c0.1,0.1,0.3,0.2,0.5,0.3c0.3,0,0.5-0.1,0.7-0.2c0.2-0.2,0.3-0.4,0.3-0.6c0-0.1,0-0.3-0.1-0.4
			c-0.1-0.1-0.2-0.2-0.4-0.2h0.1c0,0,0.1,0,0.1-0.1l0.1-0.1l0.1-0.1c0.1-0.1,0.1-0.2,0.1-0.4c0-0.2-0.1-0.4-0.2-0.6
			c-0.2-0.1-0.4-0.2-0.7-0.2c-0.1,0-0.2,0-0.3,0l-0.2,0.1c-0.1,0.1-0.2,0.2-0.3,0.3c-0.1,0.1-0.1,0.3-0.1,0.4h0.5
			c0-0.1,0-0.2,0.1-0.3c0.1-0.1,0.2-0.1,0.3-0.1c0.2,0,0.4,0.1,0.4,0.3c0,0,0,0.1,0,0.1c0,0.1,0,0.2-0.1,0.3c0,0-0.1,0.1-0.1,0.1
			C377.1,82.1,377.1,82.1,377,82.1z M380.8,82.7h-0.4v-1.8H380l-1.2,1.9v0.3h1.2v0.6h0.5v-0.6h0.4L380.8,82.7z M380,82.7h-0.8
			l0.7-1.1v-0.1L380,82.7z M381.5,82l1.2,0.4l-1.2,0.4v0.5l1.7-0.7v-0.4l-1.7-0.7V82z M386.6,83.5c0,0.1,0,0.1,0.1,0.2h0.5l0,0
			c-0.1-0.1-0.1-0.3-0.1-0.5v-1c0-0.2-0.1-0.4-0.2-0.5c-0.2-0.1-0.4-0.2-0.6-0.2c-0.2,0-0.3,0-0.5,0.1l-0.2,0.1
			c-0.1,0-0.1,0.1-0.1,0.1c-0.1,0.1-0.1,0.2-0.1,0.3h0.5c0-0.1,0-0.2,0.1-0.2c0.1-0.1,0.2-0.1,0.3-0.1c0.1,0,0.1,0,0.2,0
			c0,0,0.1,0,0.1,0.1c0.1,0.1,0.1,0.2,0.1,0.3v0.1h-0.3c-0.3,0-0.5,0-0.7,0.2c-0.3,0.2-0.4,0.6-0.1,0.9c0,0,0.1,0.1,0.1,0.1
			c0.1,0.1,0.3,0.2,0.5,0.2C386.2,83.7,386.4,83.7,386.6,83.5L386.6,83.5z M386.3,83.4h-0.1c-0.1,0-0.2,0-0.2-0.1l-0.1-0.1
			c0,0,0-0.1,0-0.1c0-0.1,0.1-0.2,0.1-0.3c0.1-0.1,0.3-0.1,0.4-0.1h0.3v0.4c0,0.1-0.1,0.1-0.2,0.2L386.3,83.4z M388.1,82v1.8h0.5V82
			h0.4v-0.3h-0.4v-0.2c0-0.2,0.1-0.3,0.3-0.3c0,0,0,0,0.1,0h0.1h0.1v-0.4h-0.3c-0.2,0-0.4,0.1-0.5,0.2c-0.1,0.1-0.2,0.3-0.2,0.5v0.2
			h-0.3V82L388.1,82z M390.9,83C390.9,83,390.9,83,390.9,83l0.1,0.1v0.1c0,0,0,0.1,0,0.1l-0.1,0.1c0,0-0.1,0-0.1,0h-0.2
			c-0.1,0-0.2,0-0.3-0.1c-0.1-0.1-0.1-0.2-0.1-0.3h-0.5c0,0.1,0,0.3,0.1,0.4c0.1,0.1,0.2,0.2,0.3,0.3c0.1,0.1,0.3,0.1,0.5,0.1
			c0.2,0,0.4-0.1,0.6-0.2c0.2-0.1,0.2-0.3,0.2-0.5c0,0,0-0.1,0-0.1c0-0.1,0-0.1-0.1-0.2c-0.1-0.1-0.1-0.2-0.2-0.2l-0.2-0.1h-0.1
			h-0.1c-0.1,0-0.3-0.1-0.4-0.1c-0.1,0-0.1-0.1-0.1-0.2c0-0.1,0-0.1,0.1-0.2c0.1-0.1,0.2-0.1,0.3-0.1c0.1,0,0.2,0,0.3,0.1l0,0l0,0
			c0,0,0,0,0,0.1c0,0,0,0,0,0.1l0,0h0.5c0-0.2-0.1-0.4-0.2-0.5c-0.2-0.1-0.4-0.2-0.6-0.2c-0.2,0-0.4,0.1-0.5,0.2
			c-0.1,0.1-0.2,0.3-0.2,0.5c0,0.2,0.1,0.4,0.4,0.5l0.2,0.1l0.2,0.1h0.2L390.9,83z M392.4,81.9c-0.2,0.2-0.2,0.5-0.2,0.8
			c0,0.3,0.1,0.6,0.2,0.8c0.1,0.2,0.4,0.3,0.6,0.3c0.2,0,0.4-0.1,0.6-0.3v0.2h0.4v-3h-0.5v1.1c-0.1-0.2-0.3-0.2-0.5-0.2
			C392.7,81.6,392.5,81.7,392.4,81.9L392.4,81.9z M392.8,83.2c-0.1-0.2-0.1-0.3-0.1-0.5c0-0.2,0-0.4,0.1-0.5
			c0.1-0.1,0.2-0.2,0.4-0.2c0.2,0,0.3,0.1,0.4,0.2v0.9c-0.1,0.2-0.2,0.3-0.4,0.3C393,83.4,392.8,83.3,392.8,83.2L392.8,83.2z
			 M395.1,82v1.7h0.5V82h0.4v-0.3h-0.4v-0.2c0-0.2,0.1-0.3,0.3-0.3c0,0,0,0,0.1,0c0.1,0,0.1,0,0.2,0v-0.3c-0.1,0-0.2,0-0.3,0
			c-0.2,0-0.4,0.1-0.5,0.2c-0.1,0.1-0.2,0.3-0.2,0.5v0.2h-0.3V82L395.1,82z M398.1,83.7h1.9v-0.4h-1.3l0.7-0.7
			c0.2-0.2,0.3-0.3,0.4-0.5c0.1-0.1,0.1-0.3,0.1-0.4c0-0.2-0.1-0.4-0.2-0.6c-0.2-0.1-0.4-0.2-0.6-0.2c-0.1,0-0.2,0-0.2,0
			c-0.3,0-0.5,0.2-0.6,0.4c-0.1,0.1-0.1,0.3-0.1,0.4h0.5c0-0.1,0-0.1,0-0.2c0-0.1,0.1-0.1,0.1-0.2c0.1-0.1,0.2-0.1,0.4-0.1
			c0.1,0,0.2,0,0.3,0.1c0,0,0.1,0.1,0.1,0.2c0,0.1,0,0.1,0,0.2c0,0.1,0,0.2-0.1,0.3c-0.1,0.1-0.2,0.3-0.3,0.4l-0.9,1L398.1,83.7z
			 M401.6,82.1h-0.3v0.4h0.3c0.1,0,0.3,0,0.4,0.1c0.1,0.1,0.1,0.2,0.1,0.3c0,0.1,0,0.2-0.1,0.3c-0.1,0.1-0.2,0.1-0.4,0.1
			c-0.1,0-0.1,0-0.2,0c-0.1,0-0.1-0.1-0.2-0.1c-0.1-0.1-0.1-0.2-0.1-0.3h-0.5c0,0.2,0.1,0.4,0.3,0.6c0.4,0.3,1,0.3,1.4,0
			c0.2-0.1,0.3-0.4,0.3-0.6c0-0.1,0-0.3-0.1-0.4c-0.1-0.1-0.2-0.2-0.4-0.2c0.1-0.1,0.2-0.1,0.3-0.2l0-0.1c0,0,0-0.1,0-0.1
			c0,0,0,0,0-0.1c0,0,0-0.1,0-0.1c0-0.2-0.1-0.4-0.2-0.6c-0.2-0.1-0.4-0.2-0.7-0.2c-0.2,0-0.3,0-0.5,0.1c-0.1,0-0.1,0.1-0.2,0.1
			c-0.1,0.1-0.1,0.1-0.2,0.2c0,0.1-0.1,0.1-0.1,0.2c0,0.1,0,0.1,0,0.2h0.5c0-0.1,0-0.2,0.1-0.3c0.2-0.1,0.5-0.1,0.6,0
			c0.1,0.1,0.1,0.2,0.1,0.3c0,0.1,0,0.2-0.1,0.3C401.8,82.1,401.7,82.1,401.6,82.1L401.6,82.1z M406.4,82.9l-1.2-0.4l1.2-0.4v-0.5
			l-1.6,0.7v0.4l1.6,0.7V82.9z M407.3,83.7h1.9v-0.4h-1.3l0.7-0.7l0.1-0.2c0.1-0.1,0.1-0.1,0.2-0.2l0.1-0.1c0.1-0.1,0.1-0.3,0.1-0.4
			c0-0.2-0.1-0.4-0.2-0.6c-0.2-0.2-0.4-0.2-0.6-0.2c-0.2,0-0.4,0-0.5,0.1c-0.3,0.2-0.5,0.5-0.5,0.8h0.5c0-0.1,0-0.3,0.1-0.4
			c0.1-0.1,0.2-0.1,0.4-0.1c0.1,0,0.2,0,0.3,0.1c0.1,0.1,0.1,0.2,0.1,0.3c0,0.1,0,0.2-0.1,0.3c-0.1,0.1-0.2,0.3-0.3,0.4l-1,1
			L407.3,83.7z M410.8,82.1h-0.3v0.4h0.5h0.1l0,0c0,0,0.1,0,0.1,0.1c0.1,0.1,0.1,0.2,0.1,0.3c0,0.1,0,0.2-0.1,0.3
			c-0.1,0.1-0.2,0.1-0.4,0.1c-0.1,0-0.2,0-0.3-0.1c-0.1-0.1-0.1-0.2-0.1-0.3h-0.5c0,0.2,0.1,0.4,0.3,0.6c0.4,0.3,1,0.3,1.4,0
			c0.2-0.1,0.3-0.4,0.3-0.6c0-0.1,0-0.3-0.1-0.4c-0.1-0.1-0.2-0.2-0.4-0.2l0.1,0h0.1c0.1,0,0.1-0.1,0.1-0.2c0.1-0.1,0.1-0.2,0.1-0.4
			c0-0.2-0.1-0.4-0.2-0.6c-0.2-0.1-0.4-0.2-0.7-0.2c-0.2,0-0.3,0-0.5,0.1c-0.1,0.1-0.2,0.2-0.3,0.3c-0.1,0.1-0.1,0.3-0.1,0.4h0.5
			c0,0,0-0.1,0-0.1v-0.1v-0.1l0-0.1c0.1-0.1,0.2-0.1,0.3-0.1c0.1,0,0.2,0,0.3,0.1c0.1,0.1,0.1,0.2,0.1,0.3c0,0.1,0,0.2-0.1,0.3
			C410.9,82,410.9,82.1,410.8,82.1L410.8,82.1z M414.6,82.7h-0.4v-1.8h-0.5l-1.2,1.9v0.3h1.2v0.6h0.5v-0.6h0.4L414.6,82.7z
			 M413.7,82.7H413l0.7-1.1v-0.1L413.7,82.7z M417.2,82.7h-0.4v-1.8h-0.5l-1.2,1.9v0.3h1.2v0.6h0.5v-0.6h0.4L417.2,82.7z
			 M416.4,82.7h-0.8l0.7-1.1v-0.1L416.4,82.7z M418.8,82.1h-0.3v0.4h0.4l0.2,0l0.1,0.1c0.1,0.1,0.1,0.2,0.1,0.3c0,0.1,0,0.1,0,0.2
			c0,0.1-0.1,0.1-0.1,0.2c-0.1,0.1-0.2,0.1-0.4,0.1c-0.1,0-0.2,0-0.3-0.1c0,0-0.1-0.1-0.1-0.1c0-0.1,0-0.1,0-0.2H418
			c0,0.2,0.1,0.4,0.3,0.6c0.4,0.3,1,0.3,1.4,0c0.2-0.1,0.3-0.4,0.3-0.6c0-0.1,0-0.1,0-0.2c0,0,0-0.1,0-0.1c0,0,0-0.1-0.1-0.1
			c-0.1-0.1-0.2-0.2-0.4-0.2c0.1-0.1,0.2-0.1,0.3-0.2c0.1-0.1,0.1-0.2,0.1-0.4c0-0.2-0.1-0.4-0.2-0.6c-0.2-0.1-0.4-0.2-0.7-0.2
			c-0.1,0-0.2,0-0.3,0l-0.1,0.1c-0.1,0-0.2,0.1-0.2,0.2l-0.1,0.1c0,0,0,0,0,0.1c-0.1,0.1-0.1,0.3-0.1,0.4h0.5c0-0.1,0-0.2,0.1-0.3
			c0.1-0.1,0.2-0.1,0.3-0.1h0.1h0.1l0,0c0,0,0,0,0,0c0,0,0,0.1,0.1,0.1c0,0.1,0.1,0.1,0,0.2c0,0.1,0,0.1,0,0.2v0.1l-0.1,0.1
			C419.2,82,419,82.1,418.8,82.1L418.8,82.1z M422.6,82.7h-0.4v-1.8h-0.5l-1.2,1.9v0.3h1.2v0.6h0.5v-0.6h0.4L422.6,82.7z
			 M421.8,82.7H421l0.7-1.1v-0.1L421.8,82.7z M424.1,82.1h-0.3v0.4h0.3c0.1,0,0.3,0,0.4,0.1c0.2,0.2,0.2,0.5,0,0.7
			c-0.1,0.1-0.2,0.1-0.3,0.1c-0.1,0-0.2,0-0.3-0.1c-0.1-0.1-0.1-0.2-0.1-0.3h-0.5c0,0.2,0.1,0.4,0.3,0.6c0.2,0.2,0.4,0.2,0.7,0.2
			c0.3,0,0.5-0.1,0.7-0.2c0.2-0.2,0.3-0.4,0.3-0.6c0-0.3-0.2-0.6-0.5-0.7c0.1-0.1,0.2-0.1,0.3-0.2c0-0.1,0.1-0.1,0.1-0.2
			c0-0.1,0-0.1,0-0.2c0-0.2-0.1-0.4-0.2-0.6c-0.2-0.1-0.4-0.2-0.7-0.2c-0.2,0-0.3,0-0.5,0.1l-0.2,0.1c-0.1,0-0.1,0.1-0.2,0.2
			c-0.1,0.1-0.1,0.3-0.1,0.4h0.5c0-0.1,0-0.2,0.1-0.3c0.1-0.1,0.2-0.1,0.3-0.1c0.1,0,0.2,0,0.2,0c0,0,0.1,0,0.1,0.1
			c0.1,0.1,0.1,0.2,0.1,0.3c0,0.1,0,0.2-0.1,0.3C424.4,82,424.2,82.1,424.1,82.1L424.1,82.1z M428.6,81.6l-0.4,0.7l-0.4-0.7h-0.5
			l0.6,1l-0.7,1.1h0.5l0.4-0.7l0.4,0.7h0.5l-0.7-1.1l0.6-1L428.6,81.6z M431,81.6l-0.4,1.4l-0.5-1.4h-0.5l0.7,2.1l-0.1,0.2
			c0,0.1-0.1,0.2-0.1,0.2c-0.1,0-0.2,0.1-0.3,0.1h-0.1v0.4h0.2c0.3,0,0.6-0.2,0.6-0.5l0.8-2.4L431,81.6z M432.1,83.7h1.9v-0.4h-1.3
			l0.7-0.7c0.2-0.2,0.3-0.3,0.4-0.5c0.1-0.1,0.1-0.3,0.1-0.4c0-0.2-0.1-0.4-0.2-0.6c-0.2-0.1-0.4-0.2-0.7-0.2c-0.2,0-0.3,0-0.5,0.1
			l-0.2,0.1c-0.1,0.1-0.1,0.1-0.1,0.2c-0.1,0.1-0.1,0.3-0.1,0.5h0.5c0-0.1,0-0.3,0.1-0.4c0.1-0.1,0.2-0.1,0.4-0.1
			c0.1,0,0.2,0,0.3,0.1c0.1,0.1,0.1,0.2,0.1,0.3c0,0.1,0,0.2-0.1,0.3c-0.1,0.1-0.2,0.3-0.3,0.4l-0.9,1L432.1,83.7z M435.6,82.1h-0.3
			v0.4h0.3c0.1,0,0.2,0,0.3,0l0,0l0,0c0,0,0,0,0,0c0.1,0.1,0.1,0.2,0.1,0.3c0,0.1,0,0.2-0.1,0.3c-0.1,0.1-0.1,0.1-0.2,0.1h-0.2
			c-0.1,0-0.2,0-0.3-0.1h0l0,0c-0.1-0.1-0.1-0.2-0.1-0.3h-0.5c0,0.2,0.1,0.4,0.3,0.6c0.4,0.3,1,0.3,1.4,0c0.2-0.1,0.3-0.4,0.3-0.6
			c0-0.1,0-0.1,0-0.2c0-0.1-0.1-0.1-0.1-0.2c-0.1-0.1-0.2-0.2-0.4-0.2c0.1-0.1,0.2-0.1,0.3-0.2c0.1-0.1,0.1-0.2,0.1-0.4
			c0-0.2-0.1-0.4-0.2-0.6c-0.2-0.1-0.4-0.2-0.7-0.2c-0.2,0-0.3,0-0.5,0.1c-0.1,0-0.1,0.1-0.2,0.1c0,0-0.1,0.1-0.1,0.1
			c-0.1,0.1-0.1,0.3-0.1,0.4h0.5c0-0.1,0-0.2,0.1-0.3c0.1-0.1,0.2-0.1,0.3-0.1c0.1,0,0.2,0,0.3,0.1c0.1,0.1,0.1,0.2,0.1,0.3
			c0,0.1,0,0.2-0.1,0.3c0,0-0.1,0.1-0.1,0.1h-0.1L435.6,82.1z M437.5,82.1l1.2,0.4l-1.2,0.4v0.5l1.7-0.7v-0.4l-1.7-0.7V82.1z
			 M346.8,88.5c0.2-0.3,0.3-0.6,0.2-0.9v-0.5c0-0.3-0.1-0.6-0.2-0.9c-0.2-0.2-0.4-0.3-0.7-0.3c-0.3,0-0.5,0.1-0.7,0.3
			c-0.2,0.3-0.3,0.6-0.2,0.9v0.5c0,0.3,0.1,0.6,0.2,0.9c0.2,0.2,0.4,0.3,0.7,0.3C346.4,88.8,346.7,88.7,346.8,88.5L346.8,88.5z
			 M346.5,86.5c0.1,0.2,0.1,0.4,0.1,0.6v0.6c0,0.2,0,0.4-0.1,0.6c-0.1,0.1-0.2,0.2-0.3,0.2c-0.1,0-0.1,0-0.2,0
			c-0.1,0-0.1-0.1-0.2-0.2c-0.1-0.2-0.1-0.4-0.1-0.6v-0.6c0-0.1,0-0.2,0-0.3c0-0.1,0-0.2,0.1-0.2c0.1-0.1,0.2-0.2,0.4-0.2
			C346.2,86.3,346.4,86.3,346.5,86.5L346.5,86.5z M348.7,88.7h0.5v-2.8h-0.1l-1.1,0.4v0.4l0.7-0.2L348.7,88.7z M352.2,88.4
			c0.2-0.3,0.3-0.6,0.2-0.9V87c0-0.3-0.1-0.6-0.2-0.9c-0.2-0.2-0.4-0.3-0.7-0.3c-0.3,0-0.5,0.1-0.7,0.3c-0.2,0.3-0.3,0.6-0.2,0.9
			v0.5c0,0.3,0.1,0.6,0.2,0.9c0.2,0.2,0.4,0.3,0.7,0.3C351.8,88.8,352,88.7,352.2,88.4L352.2,88.4z M351.8,86.4
			c0.1,0.2,0.1,0.4,0.1,0.6v0.6c0,0.2,0,0.4-0.1,0.6c-0.1,0.2-0.4,0.2-0.6,0.1c-0.1,0-0.1-0.1-0.1-0.1c-0.1-0.2-0.1-0.4-0.1-0.6V87
			c0-0.2,0-0.4,0.1-0.5c0.1-0.1,0.2-0.2,0.3-0.2C351.6,86.3,351.7,86.3,351.8,86.4L351.8,86.4z M354,88.7h0.5v-2.8h-0.1l-1.1,0.4
			v0.4l0.7-0.2L354,88.7z M357.5,88.4c0.2-0.3,0.3-0.6,0.2-0.9V87c0-0.3-0.1-0.6-0.2-0.9c-0.2-0.2-0.4-0.3-0.7-0.3
			c-0.3,0-0.5,0.1-0.7,0.3c-0.2,0.3-0.3,0.6-0.2,0.9v0.5c0,0.3,0.1,0.6,0.2,0.9C356.5,88.8,357.1,88.9,357.5,88.4
			C357.5,88.5,357.5,88.5,357.5,88.4L357.5,88.4z M357.2,86.4c0,0.1,0.1,0.1,0.1,0.2c0,0.1,0,0.3,0,0.4v0.6c0,0.2,0,0.4-0.1,0.6
			c-0.1,0.1-0.2,0.2-0.3,0.2c-0.1,0-0.3-0.1-0.4-0.2c-0.1-0.2-0.1-0.4-0.1-0.6V87c0-0.2,0-0.4,0.1-0.5c0.1-0.1,0.2-0.2,0.3-0.2
			C356.9,86.2,357.1,86.3,357.2,86.4L357.2,86.4z M359.4,88.7h0.5v-2.8h-0.1l-1.1,0.4v0.4l0.7-0.2V88.7z M362.9,88.4
			c0.2-0.3,0.3-0.6,0.2-0.9V87c0-0.3-0.1-0.6-0.2-0.9c-0.2-0.2-0.4-0.3-0.7-0.3c-0.3,0-0.5,0.1-0.7,0.3c-0.2,0.3-0.2,0.6-0.2,0.9
			v0.5c0,0.3,0.1,0.6,0.2,0.9c0.2,0.2,0.4,0.3,0.7,0.3C362.5,88.8,362.7,88.7,362.9,88.4z M362.5,86.4c0.1,0.2,0.1,0.4,0.1,0.6v0.6
			c0,0.2,0,0.4-0.1,0.6c-0.1,0.1-0.2,0.2-0.3,0.2c-0.1,0-0.3-0.1-0.4-0.2c-0.1-0.2-0.1-0.4-0.1-0.6V87c0-0.2,0-0.4,0.1-0.5
			c0.1-0.1,0.2-0.2,0.3-0.2C362.3,86.2,362.4,86.3,362.5,86.4L362.5,86.4z M364.7,88.7h0.5v-2.8h-0.1l-1.1,0.4v0.4l0.7-0.2
			L364.7,88.7z M368.2,88.4c0.2-0.3,0.3-0.6,0.2-0.9V87c0-0.3-0.1-0.6-0.2-0.9c-0.2-0.2-0.4-0.3-0.7-0.3c-0.3,0-0.5,0.1-0.7,0.3
			c-0.2,0.3-0.3,0.6-0.2,0.9v0.5c0,0.3,0.1,0.6,0.2,0.9c0.2,0.2,0.4,0.3,0.7,0.3C367.8,88.8,368.1,88.7,368.2,88.4z M367.9,86.4
			c0.1,0.2,0.1,0.4,0.1,0.6v0.6c0,0.2,0,0.4-0.1,0.6c-0.1,0.2-0.4,0.2-0.6,0.1c-0.1,0-0.1-0.1-0.1-0.1c-0.1-0.2-0.1-0.4-0.1-0.6V87
			c0-0.1,0-0.2,0-0.3c0-0.1,0-0.1,0.1-0.2c0-0.1,0.1-0.1,0.1-0.1c0.1,0,0.1,0,0.2,0C367.6,86.3,367.8,86.3,367.9,86.4L367.9,86.4z
			 M370.1,88.7h0.5v-2.8h-0.1l-1.1,0.4v0.4l0.7-0.2L370.1,88.7z M373.6,88.4c0.2-0.3,0.3-0.6,0.2-0.9V87c0-0.3-0.1-0.6-0.2-0.9
			c-0.4-0.4-1-0.4-1.4,0c-0.2,0.3-0.3,0.6-0.2,0.9v0.5c0,0.3,0.1,0.6,0.2,0.9c0.2,0.2,0.4,0.3,0.7,0.3
			C373.1,88.8,373.4,88.7,373.6,88.4z M373.2,86.4c0.1,0.2,0.1,0.4,0.1,0.6v0.6c0,0.2,0,0.4-0.1,0.6v0.1c-0.1,0.1-0.2,0.1-0.3,0.1
			c-0.1,0-0.3-0.1-0.4-0.2c0-0.1-0.1-0.2-0.1-0.3c0-0.1,0-0.2,0-0.3V87c0-0.2,0-0.4,0.1-0.5c0.1-0.1,0.2-0.2,0.3-0.2
			C373.1,86.3,373.2,86.3,373.2,86.4L373.2,86.4z M375.4,88.7h0.5v-2.8h-0.1l-1.1,0.4v0.4l0.7-0.2L375.4,88.7z M378.9,88.4
			c0.2-0.3,0.3-0.6,0.2-0.9V87c0-0.3-0.1-0.6-0.2-0.9c-0.4-0.4-1-0.4-1.4,0c-0.2,0.3-0.3,0.6-0.2,0.9v0.5c0,0.3,0.1,0.6,0.2,0.9
			c0.2,0.2,0.4,0.3,0.7,0.3C378.5,88.8,378.8,88.7,378.9,88.4L378.9,88.4z M378.6,86.4c0.1,0.2,0.1,0.4,0.1,0.6v0.6
			c0,0.2,0,0.4-0.1,0.6c-0.1,0.1-0.2,0.2-0.3,0.2c-0.1,0-0.3-0.1-0.4-0.2c0-0.1-0.1-0.1-0.1-0.2c0-0.1,0-0.3,0-0.4V87
			c0-0.1,0-0.2,0-0.2c0,0,0,0,0-0.1c0-0.1,0-0.2,0.1-0.2c0.1-0.1,0.2-0.2,0.4-0.2C378.4,86.2,378.5,86.3,378.6,86.4L378.6,86.4z
			 M380.8,88.7h0.5v-2.8h-0.1l-1.1,0.4v0.4l0.7-0.2L380.8,88.7z M384.3,88.4c0.2-0.3,0.3-0.6,0.2-0.9V87c0-0.3-0.1-0.6-0.2-0.9
			c-0.2-0.2-0.4-0.3-0.7-0.3c-0.3,0-0.5,0.1-0.7,0.3c-0.2,0.3-0.3,0.6-0.2,0.9v0.5c0,0.3,0.1,0.6,0.2,0.9c0.2,0.2,0.4,0.3,0.7,0.3
			C383.8,88.8,384.1,88.7,384.3,88.4z M383.9,86.4c0.1,0.2,0.1,0.4,0.1,0.6v0.6c0,0.2,0,0.4-0.1,0.6c-0.1,0.2-0.4,0.2-0.6,0.1
			c-0.1,0-0.1-0.1-0.1-0.1c-0.1-0.2-0.1-0.4-0.1-0.6v-0.8c0-0.1,0-0.1,0-0.2c0,0,0-0.1,0-0.1c0,0,0-0.1,0-0.1
			c0.1-0.1,0.2-0.2,0.3-0.2C383.7,86.2,383.8,86.3,383.9,86.4L383.9,86.4z M386.9,88.4c0.2-0.3,0.3-0.6,0.2-0.9V87
			c0-0.3-0.1-0.6-0.2-0.9c-0.4-0.4-1-0.4-1.4,0c-0.2,0.3-0.3,0.6-0.2,0.9v0.5c0,0.3,0.1,0.6,0.2,0.9
			C385.9,88.8,386.5,88.9,386.9,88.4C386.9,88.5,386.9,88.5,386.9,88.4L386.9,88.4z M386.6,86.4c0.1,0.2,0.1,0.4,0.1,0.6v0.6
			c0,0.2,0,0.4-0.1,0.6c0,0.1-0.1,0.1-0.2,0.1c-0.1,0-0.1,0-0.2,0c-0.1,0-0.3-0.1-0.4-0.2c-0.1-0.2-0.1-0.4-0.1-0.6V87
			c0-0.2,0-0.4,0.1-0.5c0.1-0.1,0.2-0.2,0.4-0.2C386.4,86.2,386.5,86.3,386.6,86.4L386.6,86.4z M388.8,88.7h0.5v-2.8h-0.1l-1.1,0.4
			v0.4l0.7-0.2L388.8,88.7z M392.3,88.4c0.2-0.3,0.3-0.6,0.2-0.9V87c0-0.3-0.1-0.6-0.2-0.9c-0.2-0.2-0.4-0.3-0.7-0.3
			c-0.3,0-0.5,0.1-0.7,0.3c-0.2,0.3-0.3,0.6-0.2,0.9v0.5c0,0.3,0.1,0.6,0.2,0.9c0.2,0.2,0.4,0.3,0.7,0.3
			C391.9,88.8,392.1,88.7,392.3,88.4z M392,86.8v0.8c0,0.2,0,0.4-0.1,0.6c-0.1,0.2-0.4,0.2-0.6,0.1c-0.1,0-0.1-0.1-0.1-0.1
			c-0.1-0.2-0.1-0.4-0.1-0.6V87c0-0.2,0-0.4,0.1-0.5c0.1-0.1,0.2-0.2,0.3-0.2c0.1,0,0.3,0.1,0.4,0.2C392,86.5,392,86.6,392,86.8
			C392,86.8,392,86.8,392,86.8L392,86.8z M394.1,88.7h0.5v-2.8h-0.1l-1.1,0.4v0.4l0.7-0.2L394.1,88.7z M397.6,88.4
			c0.2-0.3,0.3-0.6,0.2-0.9V87c0-0.3-0.1-0.6-0.2-0.9c-0.2-0.2-0.4-0.3-0.7-0.3c-0.3,0-0.5,0.1-0.7,0.3c-0.2,0.3-0.3,0.6-0.2,0.9
			v0.5c0,0.3,0.1,0.6,0.2,0.9c0.2,0.2,0.4,0.3,0.7,0.3C397.2,88.8,397.5,88.7,397.6,88.4z M397.3,86.4c0.1,0.2,0.1,0.4,0.1,0.6v0.6
			c0,0.2,0,0.4-0.1,0.6c-0.1,0.1-0.2,0.2-0.3,0.2c-0.1,0-0.3-0.1-0.4-0.2c-0.1-0.2-0.1-0.4-0.1-0.6V87c0-0.1,0-0.2,0-0.3
			c0,0,0-0.1,0-0.1c0,0,0-0.1,0-0.1c0.1-0.1,0.2-0.2,0.3-0.2C397,86.2,397.2,86.2,397.3,86.4L397.3,86.4z M399.5,88.7h0.5v-2.8h-0.1
			l-1.1,0.4v0.4l0.7-0.2L399.5,88.7z M403,88.4c0.2-0.3,0.3-0.6,0.2-0.9V87c0-0.3-0.1-0.6-0.2-0.9c-0.4-0.4-1-0.4-1.4,0
			c-0.2,0.3-0.3,0.6-0.2,0.9v0.5c0,0.3,0.1,0.6,0.2,0.9C401.9,88.8,402.5,88.9,403,88.4C402.9,88.5,403,88.5,403,88.4L403,88.4z
			 M402.6,86.4c0.1,0.2,0.1,0.4,0.1,0.6v0.6c0,0.2,0,0.4-0.1,0.6c-0.1,0.1-0.2,0.2-0.3,0.2c-0.1,0-0.3-0.1-0.4-0.2
			c-0.1-0.2-0.1-0.4-0.1-0.6V87c0-0.1,0-0.3,0-0.4l0.1-0.1c0.1-0.1,0.2-0.2,0.4-0.2C402.4,86.2,402.5,86.3,402.6,86.4L402.6,86.4z
			 M404.8,88.7h0.5v-2.8h-0.1l-1.1,0.4v0.4l0.7-0.2L404.8,88.7z M408.3,88.4c0.2-0.3,0.2-0.6,0.2-0.9V87c0-0.3-0.1-0.6-0.2-0.9
			c-0.2-0.2-0.4-0.3-0.7-0.3c-0.3,0-0.5,0.1-0.7,0.3c-0.2,0.3-0.3,0.6-0.2,0.9v0.5c0,0.3,0.1,0.6,0.2,0.9c0.2,0.2,0.4,0.3,0.7,0.3
			C407.9,88.8,408.2,88.7,408.3,88.4z M408,86.4c0.1,0.2,0.1,0.4,0.1,0.6v0.6c0,0.2,0,0.4-0.1,0.6c-0.1,0.1-0.2,0.2-0.3,0.2
			c-0.1,0-0.3-0.1-0.4-0.2c-0.1-0.2-0.1-0.4-0.1-0.6v-0.8v-0.2c0-0.1,0-0.1,0.1-0.2c0,0,0-0.1,0.1-0.1h0.1h0.1h0.1
			C407.7,86.3,407.9,86.3,408,86.4L408,86.4z M410.2,88.7h0.5v-2.8h-0.1l-1.1,0.4v0.4l0.7-0.2L410.2,88.7z M413.7,88.4
			c0.2-0.3,0.3-0.6,0.2-0.9V87c0-0.3-0.1-0.6-0.2-0.9c-0.2-0.2-0.4-0.3-0.7-0.3c-0.3,0-0.5,0.1-0.7,0.3c-0.2,0.3-0.3,0.6-0.2,0.9
			v0.5c0,0.3,0.1,0.6,0.2,0.9c0.2,0.2,0.4,0.3,0.7,0.3C413.2,88.8,413.5,88.7,413.7,88.4z M413.3,86.4c0.1,0.2,0.1,0.4,0.1,0.6v0.6
			c0,0.2,0,0.4-0.1,0.6c-0.1,0.1-0.2,0.2-0.3,0.2c-0.1,0-0.3-0.1-0.4-0.2c0-0.1-0.1-0.1-0.1-0.2v-0.1c0-0.1,0-0.1,0-0.2V87
			c0-0.2,0-0.4,0.1-0.5c0.1-0.1,0.2-0.2,0.3-0.2C413.1,86.3,413.2,86.3,413.3,86.4L413.3,86.4z M346.6,93.7h1.9v-0.4h-1.3l0.7-0.7
			c0.2-0.2,0.3-0.3,0.4-0.5c0.1-0.1,0.1-0.3,0.1-0.4c0-0.2-0.1-0.4-0.2-0.6c-0.2-0.1-0.4-0.2-0.6-0.2c-0.2,0-0.4,0-0.5,0.1
			c-0.1,0.1-0.3,0.2-0.3,0.3c-0.1,0.1-0.1,0.3-0.1,0.5h0.4c0-0.1,0-0.3,0.1-0.4c0.1-0.1,0.2-0.2,0.4-0.1c0.1,0,0.2,0,0.3,0.1
			c0.1,0.1,0.1,0.2,0.1,0.3c0,0.1,0,0.2-0.1,0.3c-0.1,0.1-0.2,0.3-0.3,0.4l-1,1L346.6,93.7z M350.1,92.1h-0.3v0.4h0.4h0.1l0.1,0.1
			c0,0,0.1,0.1,0.1,0.1c0,0.1,0,0.1,0,0.2c0,0.1,0,0.3-0.1,0.3c-0.1,0.1-0.2,0.1-0.4,0.1c-0.1,0-0.2,0-0.3-0.1
			c-0.1,0-0.1-0.1-0.1-0.2c0,0,0-0.1,0-0.1h-0.5c0,0.2,0.1,0.4,0.3,0.6c0.2,0.2,0.4,0.2,0.7,0.2c0.3,0,0.5-0.1,0.7-0.2
			c0.2-0.2,0.3-0.4,0.3-0.6c0-0.1,0-0.3-0.1-0.4c-0.1-0.1-0.2-0.2-0.4-0.2c0.1-0.1,0.2-0.1,0.3-0.2c0.1-0.1,0.1-0.2,0.1-0.4
			c0-0.2-0.1-0.4-0.2-0.6c-0.3-0.2-0.7-0.3-1-0.2c-0.1,0-0.1,0-0.2,0.1c0,0-0.1,0-0.1,0.1l-0.1,0.1l0,0.1c0,0,0,0-0.1,0.1
			c-0.1,0.1-0.1,0.3-0.1,0.4h0.5v-0.1c0,0,0-0.1,0-0.1c0-0.1,0-0.1,0.1-0.1c0.1-0.1,0.2-0.1,0.3-0.1c0.1,0,0.2,0,0.3,0.1
			c0.1,0.1,0.1,0.2,0.1,0.3c0,0.1,0,0.2-0.1,0.3c0,0-0.1,0.1-0.1,0.1C350.2,92,350.2,92,350.1,92.1z M354.9,92.9l-1.2-0.4l1.2-0.4
			v-0.5l-1.6,0.7v0.4l1.6,0.7V92.9z M355.8,93.7h1.9v-0.4h-1.3l0.7-0.7c0.2-0.2,0.3-0.3,0.4-0.5c0.1-0.1,0.1-0.3,0.1-0.4
			c0-0.2-0.1-0.4-0.2-0.6c-0.2-0.1-0.4-0.2-0.6-0.2c-0.2,0-0.4,0-0.5,0.1c-0.1,0.1-0.3,0.2-0.3,0.3c-0.1,0.1-0.1,0.3-0.1,0.5h0.5
			c0-0.1,0-0.3,0.1-0.4c0.1-0.1,0.2-0.1,0.4-0.1c0.1,0,0.2,0,0.3,0.1c0.1,0.1,0.1,0.2,0.1,0.3c0,0.1,0,0.2-0.1,0.3
			c-0.1,0.1-0.2,0.3-0.3,0.4l-0.9,1L355.8,93.7z M359.3,92.1H359v0.4h0.3c0.1,0,0.2,0,0.2,0c0.1,0,0.1,0,0.1,0.1
			c0.1,0.1,0.1,0.2,0.1,0.3c0,0.1,0,0.2-0.1,0.3c-0.1,0.1-0.2,0.1-0.4,0.1c-0.1,0-0.2,0-0.3-0.1c-0.1-0.1-0.1-0.2-0.1-0.3h-0.5
			c0,0.2,0.1,0.4,0.3,0.6c0.2,0.2,0.4,0.2,0.7,0.2c0.2,0,0.5-0.1,0.7-0.2c0.2-0.1,0.3-0.4,0.3-0.6c0,0,0-0.1,0-0.1l0,0
			c0-0.1-0.1-0.2-0.1-0.2c-0.1-0.1-0.2-0.2-0.4-0.2c0.1-0.1,0.2-0.1,0.3-0.2c0.1-0.1,0.1-0.2,0.1-0.4c0-0.2-0.1-0.4-0.2-0.6
			c-0.2-0.1-0.4-0.2-0.7-0.2c-0.2,0-0.3,0-0.5,0.1c-0.1,0.1-0.2,0.2-0.3,0.3c-0.1,0.1-0.1,0.3-0.1,0.4h0.5c0-0.1,0-0.2,0.1-0.3
			c0.2-0.1,0.5-0.1,0.6,0c0.1,0.1,0.1,0.2,0.1,0.3c0,0.1,0,0.2-0.1,0.3C359.5,92,359.4,92.1,359.3,92.1L359.3,92.1z M363.1,92.7
			h-0.4v-1.8h-0.5l-1.3,1.9v0.3h1.2v0.6h0.5v-0.6h0.4L363.1,92.7z M362.3,92.7h-0.8l0.7-1.1v-0.1L362.3,92.7z M365.8,92.7h-0.4v-1.8
			h-0.5l-1.2,1.9v0.3h1.2v0.6h0.5v-0.6h0.4L365.8,92.7z M364.9,92.7h-0.8l0.7-1.1v-0.1L364.9,92.7z M367.3,92.1H367v0.4h0.3
			c0.1,0,0.1,0,0.2,0c0.1,0,0.1,0,0.2,0.1c0.1,0.1,0.1,0.2,0.1,0.3c0,0.1,0,0.2-0.1,0.3c-0.1,0.1-0.2,0.1-0.4,0.1
			c-0.1,0-0.2,0-0.3-0.1c-0.1-0.1-0.1-0.2-0.1-0.3h-0.5c0,0.2,0.1,0.4,0.3,0.6c0.1,0.1,0.2,0.2,0.3,0.2h0.1h0.2
			c0.3,0,0.5-0.1,0.7-0.2c0.2-0.2,0.3-0.4,0.3-0.6c0-0.1,0-0.3-0.1-0.4c-0.1-0.1-0.1-0.1-0.2-0.2l-0.2-0.1c0.1-0.1,0.2-0.1,0.3-0.2
			c0.1-0.1,0.1-0.2,0.1-0.4c0-0.2-0.1-0.4-0.2-0.6c-0.2-0.1-0.4-0.2-0.7-0.2c-0.1,0-0.2,0-0.3,0c-0.1,0-0.1,0-0.2,0.1
			c-0.1,0.1-0.2,0.2-0.3,0.3c0,0.1-0.1,0.1-0.1,0.2c0,0.1,0,0.1,0,0.2h0.5c0-0.1,0-0.2,0.1-0.3c0.1,0,0.1-0.1,0.2-0.1h0.1
			c0.2,0,0.4,0.1,0.4,0.3c0,0,0,0.1,0,0.1c0,0.1,0,0.2-0.1,0.3C367.6,91.9,367.5,92,367.3,92.1L367.3,92.1z M371.1,92.7h-0.4v-1.8
			h-0.5l-1.3,1.9v0.3h1.2v0.6h0.5v-0.6h0.4L371.1,92.7z M370.3,92.7h-0.8l0.7-1.1v-0.1L370.3,92.7z M372.7,92.1h-0.3v0.4h0.3
			c0.1,0,0.3,0,0.4,0.1c0.1,0.1,0.1,0.2,0.1,0.3c0,0.1,0,0.2-0.1,0.3c-0.1,0.1-0.2,0.1-0.4,0.1c-0.1,0-0.2,0-0.3-0.1
			c-0.1-0.1-0.1-0.2-0.1-0.3h-0.5c0,0.2,0.1,0.4,0.3,0.6c0.2,0.2,0.4,0.2,0.7,0.2c0.3,0,0.5-0.1,0.7-0.2c0.2-0.1,0.3-0.4,0.3-0.6
			c0-0.1,0-0.3-0.1-0.4c-0.1-0.1-0.2-0.2-0.4-0.2c0.1,0,0.1-0.1,0.2-0.1l0.1-0.1l0.1-0.1c0.1-0.1,0.1-0.2,0.1-0.4
			c0-0.2-0.1-0.4-0.2-0.6c-0.2-0.1-0.4-0.2-0.7-0.2c-0.2,0-0.3,0-0.5,0.1c-0.1,0.1-0.2,0.2-0.3,0.3c-0.1,0.1-0.1,0.3-0.1,0.4h0.5
			c0-0.1,0-0.2,0.1-0.3c0.1-0.1,0.2-0.1,0.3-0.1c0.1,0,0.2,0,0.3,0.1c0.1,0.1,0.1,0.2,0.1,0.3c0,0.1,0,0.2-0.1,0.3
			C372.9,92,372.8,92.1,372.7,92.1L372.7,92.1z M377.1,91.6l-0.4,0.7l-0.4-0.7h-0.5l0.6,1l-0.7,1.1h0.5l0.4-0.7l0.4,0.7h0.5
			l-0.6-1.1l0.6-1L377.1,91.6z M379.5,91.6l-0.4,1.4l-0.5-1.4h-0.5l0.7,2.1l-0.1,0.2c0,0.1-0.1,0.2-0.1,0.2c-0.1,0-0.2,0.1-0.3,0.1
			h-0.1v0.4h0.2c0.3,0,0.6-0.2,0.6-0.5l0.8-2.4L379.5,91.6z M380.7,93.7h1.9v-0.4h-1.3l0.7-0.7c0.1-0.1,0.2-0.2,0.2-0.3
			c0.1-0.1,0.1-0.1,0.1-0.2c0.1-0.1,0.1-0.3,0.1-0.4c0-0.2-0.1-0.4-0.2-0.6c-0.2-0.1-0.4-0.2-0.6-0.2c-0.2,0-0.4,0-0.5,0.1
			c-0.1,0.1-0.3,0.2-0.3,0.3c0,0.1-0.1,0.1-0.1,0.2c0,0,0,0.1,0,0.1c0,0.1,0,0.1,0,0.2h0.5c0-0.1,0-0.3,0.1-0.4
			c0.1-0.1,0.2-0.1,0.4-0.1c0.1,0,0.2,0,0.3,0.1c0,0,0.1,0.1,0.1,0.2c0,0.1,0,0.1,0,0.2c0,0.2-0.1,0.3-0.2,0.5l-0.2,0.2l-1,1
			L380.7,93.7z M384.2,92.1h-0.3v0.4h0.3c0.1,0,0.3,0,0.4,0.1c0,0,0.1,0.1,0.1,0.1c0,0.1,0,0.1,0,0.2c0,0.1,0,0.2-0.1,0.3
			c-0.1,0.1-0.2,0.1-0.4,0.1c-0.1,0-0.2,0-0.3-0.1c-0.1-0.1-0.1-0.2-0.1-0.3h-0.5c0,0.2,0.1,0.4,0.3,0.6c0.2,0.2,0.4,0.2,0.7,0.2
			c0.3,0,0.5-0.1,0.7-0.2c0.2-0.2,0.3-0.4,0.3-0.6c0-0.1,0-0.3-0.1-0.4c-0.1-0.1-0.2-0.2-0.4-0.2c0.1-0.1,0.2-0.1,0.3-0.2
			c0.1-0.1,0.1-0.2,0.1-0.4c0-0.2-0.1-0.4-0.2-0.6c-0.2-0.1-0.4-0.2-0.7-0.2c-0.2,0-0.3,0-0.5,0.1c-0.1,0.1-0.2,0.2-0.3,0.3
			c-0.1,0.1-0.1,0.3-0.1,0.4h0.5c0-0.1,0-0.2,0.1-0.3c0.2-0.1,0.5-0.1,0.6,0c0.1,0.1,0.1,0.2,0.1,0.3c0,0.1,0,0.2-0.1,0.3
			C384.4,92,384.3,92.1,384.2,92.1z M386,92.1l1.2,0.4L386,93v0.5l1.7-0.7v-0.4l-1.7-0.8L386,92.1z M0,85.2h335v1H0V85.2z M451,85.2
			h27.7l0.1,0.1l36.4,36.2h587.1l36-35.9h-121l-0.1-0.1l-24.5-24.4l-0.4-0.3l0.4-0.3l40-39.9l0.1-0.1h425l20.4-20.3l0.1-0.1h95.4
			l0.1,0.1l35.9,35.7H1840v1h-230.7l-0.1-0.1L1573.3,1h-94.6l-20.4,20.3l-0.1,0.1h-425l-39.5,39.4l24,23.9h121.1l17.9-17.8l0.1-0.1
			h189.4l0.1,0.1l17.9,17.8h153.6l24.4-24.3l0.1-0.1H1840v1h-297.3l-24.4,24.3l-0.1,0.1h-154.4l-0.1-0.1l-17.9-17.8h-188.6
			l-17.9,17.8l-0.1,0.1h-0.2l0.3,0.3l-36.5,36.4l-0.1,0.1H514.8l-0.1-0.1l-36.4-36.2H451V85.2z"/>
	</g>
</g>
</svg>
