<svg width="29" height="30" viewBox="0 0 29 30" fill="none" xmlns="http://www.w3.org/2000/svg">
<path d="M8.45272 3.10306C8.0699 3.04508 8.05376 3.03828 8.2339 3.01124C8.57914 2.9594 9.39434 3.03006 9.95609 3.16048C11.2675 3.46488 12.4609 4.24466 13.7347 5.62956L14.0731 5.99748L14.5572 5.92148C16.5967 5.60144 18.6715 5.8558 20.4069 6.6386C20.8843 6.85396 21.6371 7.28266 21.7311 7.39282C21.7611 7.42792 21.816 7.65392 21.8533 7.89508C21.9821 8.7294 21.9176 9.36892 21.6564 9.84658C21.5141 10.1065 21.5062 10.1889 21.6019 10.4113C21.6782 10.5888 21.8909 10.7202 22.1016 10.7199C22.5328 10.7194 22.9971 10.0386 23.2121 9.09146L23.2976 8.71524L23.4668 8.90242C24.3951 9.92942 25.1243 11.33 25.2495 12.3269L25.282 12.5869L25.1261 12.3506C24.8576 11.944 24.5876 11.6672 24.2422 11.4439C23.6193 11.0415 22.9607 10.9045 21.2167 10.8148C19.6415 10.7337 18.7499 10.6024 17.8659 10.3209C16.3619 9.84204 15.6037 9.20432 13.8171 6.91544C13.0235 5.8988 12.533 5.33632 12.0451 4.88334C10.9365 3.85406 9.84716 3.31426 8.45272 3.10306Z" fill="white"/>
<path d="M22.0862 5.37268C22.1259 4.69144 22.2204 4.2421 22.4107 3.83174C22.4861 3.66932 22.5565 3.53638 22.5675 3.53638C22.5783 3.53638 22.5455 3.65626 22.4946 3.80278C22.3564 4.20102 22.3336 4.74574 22.4289 5.3795C22.5498 6.18362 22.6186 6.29964 23.4891 7.16826C23.8972 7.5757 24.3721 8.08954 24.5442 8.31016L24.8573 8.7113L24.5442 8.42462C24.1614 8.07404 23.2812 7.39034 23.0868 7.2926C22.9563 7.22706 22.937 7.2282 22.8566 7.30636C22.7825 7.37838 22.7668 7.4866 22.7566 7.99824C22.7405 8.79566 22.6292 9.30748 22.3607 9.81924C22.2153 10.096 22.1923 10.037 22.3238 9.72454C22.4219 9.49126 22.4319 9.38872 22.4313 8.61678C22.4297 7.06576 22.2412 6.69288 21.1354 6.05412C20.8552 5.8923 20.3935 5.65894 20.1095 5.5355C19.8255 5.41206 19.5999 5.30454 19.6081 5.2965C19.6394 5.26608 20.7178 5.57344 21.1521 5.7365C21.7978 5.97902 21.9042 6.01046 21.9826 5.9812C22.0353 5.96158 22.0608 5.8121 22.0862 5.37268Z" fill="white"/>
<path d="M9.19633 8.02616C8.41918 6.9814 7.93832 5.37954 8.04243 4.18208L8.07461 3.81152L8.25151 3.84304C8.58372 3.9022 9.15651 4.11038 9.42472 4.26946C10.1607 4.70594 10.4794 5.28062 10.8036 6.7563C10.8985 7.18854 11.0231 7.67768 11.0804 7.84328C11.1727 8.10982 11.5215 8.73242 11.805 9.13676C12.0092 9.42798 11.8736 9.56598 11.4221 9.52618C10.7327 9.46542 9.7988 8.83606 9.19633 8.02616Z" fill="white"/>
<path d="M21.1434 15.8018C17.5116 14.3739 16.2324 13.1345 16.2324 11.0432C16.2324 10.7354 16.2433 10.4836 16.2565 10.4836C16.2697 10.4836 16.4102 10.5852 16.5687 10.7094C17.3052 11.2862 18.1299 11.5325 20.413 11.8578C21.7566 12.0492 22.5126 12.2038 23.2101 12.4296C25.4267 13.1475 26.7982 14.6043 27.1253 16.5886C27.2204 17.1652 27.1646 18.2464 27.0105 18.8163C26.889 19.2664 26.5177 20.0777 26.4192 20.1089C26.3919 20.1175 26.3652 20.0153 26.3581 19.8762C26.3208 19.1311 25.9353 18.4058 25.2877 17.8624C24.5514 17.2446 23.5622 16.7527 21.1434 15.8018Z" fill="white"/>
<path d="M18.5939 16.395C18.5484 16.1306 18.4695 15.7929 18.4185 15.6446L18.3259 15.375L18.498 15.5636C18.7362 15.8247 18.9244 16.1588 19.084 16.6037C19.2057 16.9433 19.2194 17.0443 19.2185 17.5962C19.2176 18.138 19.2024 18.2515 19.0899 18.5572C18.9127 19.0392 18.6926 19.381 18.3234 19.7479C17.66 20.4072 16.807 20.7722 15.5762 20.9236C15.3622 20.9498 14.7386 20.9942 14.1904 21.022C12.8087 21.0922 11.8994 21.2372 11.0823 21.5174C10.9649 21.5576 10.86 21.5822 10.8493 21.5718C10.8162 21.5396 11.3726 21.2158 11.8321 20.9996C12.48 20.6948 13.1249 20.5286 14.57 20.2936C15.2839 20.1774 16.0211 20.0366 16.2083 19.9806C17.9761 19.4514 18.8848 18.0856 18.5939 16.395Z" fill="white"/>
<path d="M20.2589 19.2821C19.7763 18.2692 19.6655 17.2912 19.9299 16.3791C19.9582 16.2817 20.0037 16.2019 20.031 16.2019C20.0584 16.2019 20.1722 16.262 20.284 16.3354C20.5064 16.4816 20.9525 16.7278 22.1405 17.3604C23.6231 18.1497 24.4686 18.7609 25.0434 19.4592C25.5469 20.0707 25.8583 20.7673 26.0084 21.6167C26.0933 22.0977 26.0434 23.2553 25.917 23.7397C25.5184 25.2673 24.5919 26.4671 23.2705 27.1673C23.0769 27.2699 22.9031 27.3541 22.8844 27.3545C22.8654 27.3549 22.9361 27.1797 23.0411 26.9653C23.4855 26.0579 23.5362 25.1753 23.2001 24.1929C22.9943 23.5913 22.5747 22.8573 21.7277 21.6167C20.7426 20.1745 20.5012 19.7907 20.2589 19.2821Z" fill="white"/>
<path d="M6.61708 24.7474C7.96484 23.6362 9.64181 22.8468 11.1693 22.6044C11.8277 22.5 12.9244 22.5414 13.534 22.6938C14.5111 22.938 15.3852 23.485 15.8398 24.1366C16.2841 24.7734 16.4747 25.3284 16.6732 26.5632C16.7515 27.0504 16.8366 27.5394 16.8624 27.6502C17.0114 28.2902 17.3014 28.8016 17.6608 29.0586C18.2316 29.4666 19.2145 29.4918 20.1814 29.1236C20.3455 29.061 20.4879 29.0178 20.4979 29.0276C20.5331 29.0616 20.0461 29.3798 19.7027 29.5474C19.2405 29.7728 18.873 29.86 18.3846 29.86C17.4991 29.86 16.7639 29.4202 16.1504 28.5232C16.0297 28.3466 15.7583 27.818 15.5474 27.3482C14.8997 25.9056 14.5798 25.4662 13.8278 24.9852C13.1733 24.5668 12.3292 24.4918 11.6942 24.7958C10.8601 25.1952 10.6274 26.236 11.2248 26.8956C11.4622 27.1578 11.905 27.3838 12.267 27.4278C12.9444 27.5102 13.5265 27.007 13.5265 26.3392C13.5265 25.9056 13.3558 25.6582 12.9262 25.4688C12.3394 25.2102 11.7086 25.5124 11.7116 26.0508C11.7129 26.2804 11.8153 26.4244 12.0509 26.5286C12.2021 26.5954 12.2056 26.6006 12.0823 26.5756C11.5439 26.4666 11.4178 25.8328 11.8507 25.412C12.3704 24.907 13.4452 25.1298 13.8142 25.8194C13.9693 26.109 13.9873 26.6858 13.8521 27.034C13.5496 27.8136 12.6674 28.2234 11.7725 28.0004C11.1633 27.8484 10.9152 27.684 10.1806 26.9452C8.90418 25.6612 8.40865 25.4124 6.56845 25.132L6.21582 25.0782L6.61708 24.7474Z" fill="white"/>
<path fill-rule="evenodd" clip-rule="evenodd" d="M0.62778 1.76797C4.8905 6.81992 7.82645 8.90426 8.15271 9.34462C8.4221 9.70824 8.32072 10.0351 7.85922 10.2913C7.60258 10.4338 7.07494 10.5781 6.81077 10.5781C6.51199 10.5781 6.40939 10.4656 6.40939 10.4656C6.23615 10.3051 6.13857 10.3332 5.24889 8.7911C4.01374 6.91962 2.98006 5.36714 2.95187 5.34114C2.88666 5.28104 2.88778 5.28306 5.12296 9.18826C5.48409 10.0022 5.19478 10.301 5.19478 10.4169C5.19478 10.6527 5.1289 10.7767 4.83097 11.1012C4.33432 11.6422 4.11231 12.2501 3.95203 13.5082C3.77238 14.9185 3.26716 15.9147 1.86707 17.6198C1.0475 18.6179 0.913397 18.8008 0.706596 19.2031C0.446115 19.7096 0.374492 19.9934 0.345463 20.633C0.31478 21.3094 0.374537 21.7464 0.586151 22.393C0.771412 22.9592 0.96479 23.333 1.45916 24.0806C1.88579 24.7258 2.13143 25.2054 2.13143 25.393C2.13143 25.5422 2.16063 25.5424 2.82172 25.3966C4.40382 25.0478 5.68848 24.4342 6.41097 23.6822C6.85814 23.2168 6.96312 22.9598 6.96652 22.3222C6.96876 21.905 6.95374 21.8176 6.83825 21.5776C6.65027 21.187 6.30805 20.8622 5.55377 20.3588C4.5655 19.6991 4.14337 19.168 4.02679 18.4376C3.93113 17.8383 4.04209 17.4154 4.58883 16.2965C5.15471 15.1383 5.29495 14.6448 5.38982 13.4774C5.45109 12.7232 5.53594 12.4257 5.75785 12.187C5.98932 11.938 6.19767 11.8537 6.77046 11.7773C7.7043 11.6527 8.29894 11.4168 8.78771 10.977C9.21171 10.5954 9.38914 10.2278 9.41636 9.6744L9.43704 9.25494L9.20009 8.98518C8.34201 8.00822 0.0531328 1 0.000326603 1C-0.0109543 1 0.271412 1.34561 0.62778 1.76797ZM2.61312 21.3984C2.80713 21.0628 2.70404 20.6316 2.37953 20.4208C2.07291 20.2218 1.59657 20.3156 1.59657 20.575C1.59657 20.6542 1.6414 20.7118 1.74244 20.7626C1.91258 20.848 1.92493 20.9442 1.79107 21.1406C1.6555 21.3396 1.66644 21.5146 1.82195 21.6334C2.07256 21.825 2.42732 21.7196 2.61312 21.3984Z" fill="white"/>
<path fill-rule="evenodd" clip-rule="evenodd" d="M10.0263 11.9973C9.58793 12.1287 9.16177 12.5824 9.02986 13.0582C8.94939 13.3484 8.99505 13.8575 9.11558 14.0147C9.31032 14.2686 9.49864 14.3355 10.0086 14.332C11.0069 14.3252 11.8748 13.9071 11.9757 13.3844C12.0585 12.956 11.6773 12.3622 11.1522 12.1015C10.8813 11.9671 10.3051 11.9137 10.0263 11.9973ZM11.1934 12.8884C11.3474 12.6748 11.28 12.4439 11.0182 12.2878C10.5195 11.9905 9.76544 12.2365 9.76544 12.6965C9.76544 12.9254 10.1587 13.1753 10.5191 13.1753C10.759 13.1753 11.0874 13.0356 11.1934 12.8884Z" fill="white"/>
</svg>
