<svg width="463" height="89" viewBox="0 0 463 89" fill="none" xmlns="http://www.w3.org/2000/svg">
<path d="M443.5 23L461.5 0H1.5L81.5 73H226L241 88H418L443.5 53.5V23Z" fill="url(#paint0_linear)" fill-opacity="0.4" stroke="white" stroke-opacity="0.3"/>
<path d="M260.912 54.72H269.192L270.526 51.96H255.346L256.772 54.72H258.152L255.507 60.24L254.173 63H262.453L266.547 60.24H258.267L260.912 54.72ZM287.16 51.96H284.4L282.399 56.1H276.879L278.88 51.96H271.98L273.406 54.72H274.786L274.119 56.1L272.808 58.86H281.088L280.421 60.24H270.761L266.667 63H281.847L283.181 60.24L285.159 56.1L287.16 51.96ZM303.677 51.96H288.497L289.923 54.72H291.303L289.992 57.48L287.324 63H298.364L300.365 58.86L301.676 56.1L303.677 51.96ZM299.583 54.72L298.916 56.1H293.396L294.063 54.72H299.583ZM297.605 58.86L296.938 60.24H291.418L292.085 58.86H297.605ZM310.605 54.72H318.885L320.219 51.96H305.039L306.465 54.72H307.845L307.178 56.1L305.867 58.86L303.866 63H314.906L316.24 60.24H307.96L308.627 58.86H314.147L318.218 56.1H309.938L310.605 54.72ZM336.808 51.96H321.628L323.054 54.72H324.434L322.433 58.86L318.454 67.14L322.548 64.38L324.802 59.688L327.355 63H331.495L328.298 58.86H333.473L336.808 51.96ZM332.714 54.72L332.047 56.1H326.527L327.194 54.72H332.714ZM362.788 53.34L362.075 51.96H348.275L349.701 54.72H351.081L349.77 57.48L347.102 63H356.762L358.809 61.62L360.81 57.48L362.121 54.72L362.788 53.34ZM359.361 54.72L358.05 57.48L356.716 60.24H351.196L352.53 57.48L353.841 54.72H359.361ZM379.323 51.96H364.143L365.569 54.72H366.949L364.304 60.24L362.97 63H374.01L375.344 60.24L377.989 54.72L379.323 51.96ZM375.229 54.72L372.584 60.24H367.064L369.709 54.72H375.229ZM389.126 60.24H383.606L386.251 54.72H394.531L395.865 51.96H380.685L382.111 54.72H383.491L380.846 60.24L379.512 63H390.552L393.22 57.48L393.864 56.1H389.724L385.653 58.86H389.793L389.126 60.24ZM402.793 54.72H411.073L412.407 51.96H397.227L398.653 54.72H400.033L399.366 56.1L398.055 58.86L396.054 63H407.094L408.428 60.24H400.148L400.815 58.86H406.335L410.406 56.1H402.126L402.793 54.72Z" fill="white"/>
<defs>
<linearGradient id="paint0_linear" x1="286" y1="88" x2="286" y2="0" gradientUnits="userSpaceOnUse">
<stop stop-opacity="0.4"/>
<stop offset="1" stop-opacity="0"/>
</linearGradient>
</defs>
</svg>
