<svg xmlns="http://www.w3.org/2000/svg" xmlns:xlink="http://www.w3.org/1999/xlink" viewBox="0 0 218.5 66"><defs><style>.cls-1{fill-opacity:0.4;stroke:#fff;stroke-opacity:0.3;fill:url(#linear-gradient);}.cls-2{fill:#fff;}</style><linearGradient id="linear-gradient" x1="109.25" y1="5.5" x2="109.25" y2="93.5" gradientTransform="matrix(1, 0, 0, -1, 0, 71)" gradientUnits="userSpaceOnUse"><stop offset="0" stop-opacity="0.4"/><stop offset="1" stop-opacity="0"/></linearGradient></defs><g id="Layer_2" data-name="Layer 2"><g id="Layer_1-2" data-name="Layer 1"><path class="cls-1" d="M218,.5H.5v50l15,15h177L218,31Z"/><path class="cls-2" d="M35.41,31.22h8.28L45,28.46H29.85l1.42,2.76h1.38L30,36.74,28.67,39.5H37l4.1-2.76H32.77Zm26.25-2.76H58.9l-2,4.14H51.38l2-4.14h-6.9l1.43,2.76h1.38l-.67,1.38-1.31,2.76h8.28l-.67,1.38H45.26L41.17,39.5H56.35l1.33-2.76,2-4.14Zm16.52,0H63l1.42,2.76H65.8L64.49,34,61.82,39.5h11l2-4.14,1.31-2.76Zm-4.1,2.76-.66,1.38H67.9l.66-1.38Zm-2,4.14-.67,1.38H65.92l.67-1.38Zm13-4.14h8.28l1.33-2.76H79.54L81,31.22h1.38l-.67,1.38-1.31,2.76-2,4.14h11l1.33-2.76H82.46l.67-1.38h5.52l4.07-2.76H84.44Zm26.2-2.76H96.13l1.42,2.76h1.38l-2,4.14-4,8.28,4.1-2.76,2.25-4.69,2.55,3.31H106l-3.19-4.14H108Zm-4.1,2.76-.66,1.38H101l.66-1.38Zm30.08-1.38-.72-1.38H122.78l1.42,2.76h1.38L124.27,34,121.6,39.5h9.66l2.05-1.38,2-4.14,1.31-2.76Zm-3.43,1.38L132.55,34l-1.33,2.76H125.7L127,34l1.31-2.76Zm20-2.76H138.64l1.43,2.76h1.38l-2.65,5.52-1.33,2.76h11l1.33-2.76,2.65-5.52Zm-4.09,2.76-2.65,5.52h-5.52l2.65-5.52Zm13.9,5.52h-5.52l2.64-5.52H169l1.34-2.76H155.18l1.43,2.76H158l-2.64,5.52L154,39.5h11L167.72,34l.64-1.38h-4.14l-4.07,2.76h4.14Zm13.66-5.52h8.28l1.34-2.76H171.73l1.42,2.76h1.38l-.66,1.38-1.32,2.76-2,4.14h11l1.34-2.76h-8.28l.67-1.38h5.52l4.07-2.76h-8.28Z"/></g></g></svg>