<svg xmlns="http://www.w3.org/2000/svg" viewBox="0 0 1524.85 139.35"><defs><style>.cls-1{fill:none;stroke:#fff;}</style></defs><g id="Layer_2" data-name="Layer 2"><g id="Layer_1-2" data-name="Layer 1"><path class="cls-1" d="M1.5.5H202l26,26h75l24-24"/><path class="cls-1" d="M1.5,13.5H199l26,26H624l15,15h35l52-52"/><path class="cls-1" d="M1.5,52.5H618l15,15H877L894.5,50H1078l47-47"/><path class="cls-1" d="M1.5,65.5H614l15,15H879L896.5,63H1462L1524.5.5"/><path class="cls-1" d="M1.5,79.5H612l15,15h637.5l61,43.5"/><path class="cls-1" d="M1.5,94H610l15,15H890.5l35,29"/><path class="cls-1" d="M0,128H196l26-19H496.5l30,30"/></g></g></svg>