<svg width="20" height="20" viewBox="0 0 20 20" fill="none" xmlns="http://www.w3.org/2000/svg">
<path fill-rule="evenodd" clip-rule="evenodd" d="M1.3749 8.19988C6.74359 5.51182 10.3236 3.73968 12.1148 2.88348C17.2292 0.438833 18.2919 0.0141721 18.9846 0.000149512C19.1369 -0.00293459 19.4776 0.0404546 19.6982 0.24621C19.8845 0.419945 19.9358 0.654637 19.9603 0.819358C19.9848 0.984078 20.0154 1.35932 19.9911 1.65252C19.714 4.99905 18.5147 13.1202 17.9046 16.8684C17.6465 18.4544 17.1382 18.9861 16.6461 19.0382C15.5766 19.1513 14.7645 18.226 13.7287 17.4456C12.1078 16.2246 11.1921 15.4645 9.61879 14.273C7.80053 12.896 8.97923 12.1392 10.0154 10.9024C10.2866 10.5787 14.9987 5.65318 15.0899 5.20636C15.1013 5.15048 15.1119 4.94218 15.0042 4.83219C14.8965 4.7222 14.7376 4.75981 14.6229 4.78972C14.4604 4.83212 11.871 6.79895 6.85486 10.6902C6.11988 11.2702 5.45416 11.5528 4.8577 11.538C4.20015 11.5217 2.93528 11.1107 1.99498 10.7595C0.84166 10.3286 -0.074973 10.1008 0.00484519 9.36916C0.0464194 8.98805 0.503103 8.59829 1.3749 8.19988Z" fill="white"/>
</svg>
