<svg width="24" height="25" viewBox="0 0 24 25" fill="none" xmlns="http://www.w3.org/2000/svg">
<g clip-path="url(#clip0)">
<path d="M20.5317 14.9382C20.3448 15.0725 20.1266 15.1518 19.9002 15.1676C19.6737 15.1835 19.4474 15.1354 19.245 15.0283C18.7698 14.7483 18.5137 14.0917 18.5137 13.1969V10.4545C18.5137 9.13802 18.0138 8.20137 17.1776 7.94708C15.7644 7.51577 14.7091 9.32149 14.3018 10.0006L11.8025 14.2204V9.07043C11.7747 7.88271 11.4044 7.17137 10.704 6.95893C10.2411 6.8173 9.54689 6.87524 8.87114 7.9503L3.28309 17.3072C2.53958 15.8233 2.15406 14.1727 2.15993 12.4984C2.15993 6.85915 6.47979 2.27243 11.8025 2.27243C17.1252 2.27243 21.4604 6.85915 21.4604 12.4984V12.5274C21.4604 12.5274 21.4604 12.5467 21.4604 12.5563C21.5129 13.6475 21.1735 14.5165 20.5348 14.9382H20.5317ZM23.6173 12.5016V12.4469C23.5741 5.57487 18.2915 0 11.8025 0C5.31343 0 0 5.60706 0 12.4984C0 19.3897 5.29491 25 11.8025 25C14.7871 24.9999 17.6582 23.8065 19.8251 21.6654C20.0354 21.4587 20.1592 21.1738 20.1696 20.8726C20.18 20.5713 20.0761 20.278 19.8806 20.056C19.787 19.948 19.6739 19.8604 19.5478 19.7983C19.4216 19.7361 19.2849 19.7005 19.1456 19.6936C19.0062 19.6867 18.8669 19.7087 18.7357 19.7582C18.6045 19.8077 18.4839 19.8837 18.381 19.982C17.4481 20.9051 16.346 21.622 15.1409 22.0898C13.9357 22.5575 12.6524 22.7664 11.368 22.7038C10.0835 22.6413 8.82442 22.3087 7.66629 21.7259C6.50815 21.1431 5.47485 20.3222 4.62842 19.3125L9.65797 10.8794V14.7708C9.65797 16.6409 10.3522 17.246 10.9354 17.4231C11.5186 17.6001 12.4103 17.4778 13.3453 15.8942L16.1223 11.2045C16.2087 11.0532 16.292 10.9244 16.3661 10.8118V13.1969C16.3661 14.9446 17.0388 16.3416 18.2175 17.0304C18.7534 17.3322 19.3574 17.478 19.966 17.4525C20.5746 17.4271 21.1654 17.2312 21.6764 16.8855C22.9724 16.0068 23.679 14.4168 23.6049 12.5016H23.6173Z" fill="white"/>
</g>
<defs>
<clipPath id="clip0">
<rect width="23.6111" height="25" fill="white"/>
</clipPath>
</defs>
</svg>
