<svg xmlns="http://www.w3.org/2000/svg" viewBox="0 0 368 170"><defs><style>.cls-1{fill:none;stroke:#fff;stroke-opacity:0.4;}.cls-2{fill:#fff;fill-opacity:0.5;}</style></defs><g id="Layer_2" data-name="Layer 2"><g id="Layer_1-2" data-name="Layer 1"><path class="cls-1" d="M3.41,138.79l.09-.13V120.87l-.06-.11L.5,115.37V.5h9v169H.5V142.91Z"/><path class="cls-1" d="M13.5.5h354V140.78L336.8,169.5H13.5Z"/><path class="cls-2" d="M349.36,167l.71.78-.36.34L347.8,166l.8-.73a1.18,1.18,0,0,1,.73-.33.86.86,0,0,1,.65.3.84.84,0,0,1,.23.67,1.21,1.21,0,0,1-.41.69Zm-.26-.29.44-.4a.57.57,0,0,0,.21-.36.44.44,0,0,0-.14-.36.48.48,0,0,0-.35-.18.54.54,0,0,0-.38.15l-.45.41Zm3.27-1.91-.81.74.27.65-.38.34-1.11-2.83.33-.29,2.7,1.38-.38.34Zm-1,.35.61-.55-1.1-.6Zm2.56-2.36-.41.37.73.81-.36.33-1.91-2.1.74-.68a1.14,1.14,0,0,1,.71-.34.78.78,0,0,1,.63.29.87.87,0,0,1,.22.45.9.9,0,0,1-.09.47l1.27.45,0,0-.39.36Zm-.68.07.38-.34a.55.55,0,0,0,.2-.35.43.43,0,0,0-.12-.35.54.54,0,0,0-.34-.18.59.59,0,0,0-.37.17l-.39.35Zm2.59-3.63-.66.59,1.65,1.82-.37.32-1.64-1.81-.65.59-.27-.29,1.67-1.52Zm3.68-1.65a1.59,1.59,0,0,1,.45.84.84.84,0,0,1-.31.7.86.86,0,0,1-.72.24,1.48,1.48,0,0,1-.78-.51l-.33-.36a1.46,1.46,0,0,1-.45-.84.82.82,0,0,1,.31-.69.84.84,0,0,1,.72-.25,1.43,1.43,0,0,1,.77.5Zm-.71-.08a1.35,1.35,0,0,0-.48-.36.43.43,0,0,0-.52.46,1.19,1.19,0,0,0,.29.49l.43.47a1.29,1.29,0,0,0,.48.37.39.39,0,0,0,.39-.09.36.36,0,0,0,.13-.36,1.06,1.06,0,0,0-.29-.5Zm3.07-.45-.35.32L360,155.71l-.35.64-.27-.29.55-1.05,0,0Zm1.59-3.07a1.61,1.61,0,0,1,.46.84.83.83,0,0,1-.31.7.84.84,0,0,1-.72.25,1.54,1.54,0,0,1-.78-.51l-.33-.36a1.49,1.49,0,0,1-.45-.84.81.81,0,0,1,.31-.7.8.8,0,0,1,.72-.24,1.43,1.43,0,0,1,.77.5Zm-.7-.07a1.14,1.14,0,0,0-.48-.36.43.43,0,0,0-.52.46,1.17,1.17,0,0,0,.29.48l.43.48a1.14,1.14,0,0,0,.48.36.35.35,0,0,0,.39-.09.34.34,0,0,0,.13-.36,1.13,1.13,0,0,0-.29-.49Zm2.68-1.72a1.46,1.46,0,0,1,.45.84.8.8,0,0,1-.3.7.86.86,0,0,1-.72.24,1.48,1.48,0,0,1-.78-.51l-.33-.36a1.46,1.46,0,0,1-.45-.84.8.8,0,0,1,.31-.69.81.81,0,0,1,.72-.25,1.47,1.47,0,0,1,.77.5Zm-.7-.08a1.35,1.35,0,0,0-.48-.36.37.37,0,0,0-.38.1.37.37,0,0,0-.14.36,1.06,1.06,0,0,0,.29.48l.43.48a1.29,1.29,0,0,0,.48.37.41.41,0,0,0,.39-.09.36.36,0,0,0,.13-.36,1.15,1.15,0,0,0-.29-.5Z"/></g></g></svg>