<?xml version="1.0" encoding="utf-8"?>
<!-- Generator: Adobe Illustrator 25.2.3, SVG Export Plug-In . SVG Version: 6.00 Build 0)  -->
<svg version="1.1" id="Layer_1" xmlns="http://www.w3.org/2000/svg" xmlns:xlink="http://www.w3.org/1999/xlink" x="0px" y="0px"
	 viewBox="0 0 1840.8 638.9" style="enable-background:new 0 0 1840.8 638.9;" xml:space="preserve">
<style type="text/css">
	.st0{fill-rule:evenodd;clip-rule:evenodd;fill:#FFFFFF;fill-opacity:0.3;}
	.st1{fill:#FFFFFF;fill-opacity:0.5;}
</style>
<g id="Layer_3">
	<g id="Layer_2_2_">
		<g id="Layer_1-2">
			<polygon class="st0" points="1843.2,564.4 1843.2,564.4 1843.2,563.4 1389.3,563.4 1389.1,563.7 1377.8,574.3 1328.1,574.3 
				1316.9,563.7 1316.6,563.4 894.8,563.4 894.6,563.7 883.3,574.3 621.7,574.3 612.5,563.7 612.2,563.4 297.8,563.4 297.5,563.7 
				287.8,574.3 235.7,574.3 227.5,563.8 227.2,563.4 1.2,563.4 1.2,564.4 1.3,564.4 1.5,564.4 1.6,564.4 2.2,564.4 226.7,564.4 
				235.2,575.2 288.2,575.2 298.2,564.4 611.7,564.4 621.2,575.2 883.7,575.2 895.2,564.4 1316.2,564.4 1327.7,575.2 1378.2,575.2 
				1389.7,564.4 1842.2,564.4 			"/>
		</g>
	</g>
</g>
<g id="Layer_1_1_">
	<g id="Layer_2_3_">
		<g id="blk_box_1_">
			<path class="st1" d="M1409.1,583.1h-0.5V581l-0.6,0.2v-0.4l1.1-0.4h0.1V583.1z M1411.3,581.8l0.4-0.6h0.5l-0.6,0.9l0.6,1h-0.5
				l-0.4-0.6l-0.4,0.6h-0.5l0.6-1l-0.6-0.9h0.5L1411.3,581.8z M1413.8,582.2h-1v-0.4h1V582.2z M1417.3,583.1h-0.4V581l-0.6,0.2v-0.4
				l1.1-0.4h0.1L1417.3,583.1z M1419.3,581.6h0.3c0.1,0,0.2,0,0.3-0.1s0.1-0.2,0.1-0.3c0-0.2-0.1-0.4-0.3-0.4h-0.1
				c-0.1,0-0.2,0-0.3,0.1s-0.1,0.2-0.1,0.3h-0.5c0-0.1,0-0.3,0.1-0.4c0.1-0.1,0.2-0.2,0.3-0.3c0.1-0.1,0.3-0.1,0.5-0.1
				s0.5,0.1,0.6,0.2c0.2,0.1,0.3,0.4,0.2,0.6c0,0.1,0,0.3-0.1,0.4c-0.1,0.1-0.2,0.2-0.3,0.2c0.1,0,0.3,0.1,0.4,0.2
				c0.1,0.1,0.1,0.3,0.1,0.4c0,0.2-0.1,0.5-0.3,0.6c-0.2,0.2-0.4,0.2-0.6,0.2s-0.5-0.1-0.6-0.2c-0.2-0.1-0.3-0.4-0.3-0.6h0.5
				c0,0.1,0,0.2,0.1,0.3c0.1,0.1,0.2,0.1,0.3,0.1c0.1,0,0.3,0,0.3-0.1c0.1-0.1,0.1-0.2,0.1-0.3s0-0.3-0.1-0.3
				c-0.1-0.1-0.2-0.1-0.4-0.1h-0.3L1419.3,581.6z M1423,582.2h0.3v0.4h-0.3v0.6h-0.5v-0.6h-1.2v-0.3l1.2-1.8h0.5V582.2z
				 M1421.8,582.2h0.6v-1.1v0.1L1421.8,582.2z M1424.2,583.1v-1.7h-0.3v-0.3h0.3V581c0-0.4,0.2-0.6,0.6-0.6h0.1h0.3v0.4h-0.2
				c-0.2,0-0.3,0.1-0.3,0.3v0.2h0.4v0.3h-0.4v1.7h-0.5V583.1z M1427.3,583.1c0-0.1,0-0.1-0.1-0.2c-0.1,0.2-0.3,0.2-0.6,0.2
				c-0.2,0-0.4-0.1-0.5-0.2c-0.1-0.1-0.2-0.3-0.2-0.5s0.1-0.4,0.2-0.5c0.2-0.1,0.5-0.2,0.6-0.2h0.3v-0.1c0-0.1,0-0.2-0.1-0.3
				c-0.1-0.1-0.2-0.1-0.3-0.1c-0.1,0-0.2,0-0.3,0.1c-0.1,0-0.1,0.1-0.1,0.2h-0.5c0-0.1,0-0.2,0.1-0.3c0.1-0.1,0.2-0.2,0.3-0.2
				c0.1-0.1,0.3-0.1,0.4-0.1c0.2,0,0.4,0.1,0.6,0.2c0.1,0.1,0.2,0.3,0.2,0.5v0.9c0,0.2,0,0.3,0.1,0.5l0,0L1427.3,583.1z
				 M1426.6,582.8c0.1,0,0.2,0,0.3,0s0.1-0.1,0.2-0.1v-0.3h-0.3c-0.1,0-0.3,0-0.4,0.1c-0.1,0-0.1,0.1-0.1,0.2c0,0.1,0,0.1,0.1,0.2
				C1426.5,582.8,1426.6,582.8,1426.6,582.8L1426.6,582.8z M1430.6,581.7l0.4-0.6h0.5l-0.6,0.9l0.6,1h-0.5l-0.4-0.6l-0.4,0.6h-0.5
				l0.6-1l-0.6-0.9h0.5L1430.6,581.7z M1434.2,581.9l1.2,0.4v0.5l-1.6-0.6v-0.4l1.6-0.6v0.5L1434.2,581.9z M1438.1,583.1h-1.9v-0.3
				l1-0.9c0.1-0.1,0.2-0.2,0.3-0.4c0-0.1,0.1-0.2,0.1-0.3s0-0.2-0.1-0.3c-0.1-0.1-0.2-0.1-0.3-0.1c-0.1,0-0.3,0-0.4,0.1
				s-0.1,0.2-0.1,0.4h-0.5c0-0.2,0-0.3,0.1-0.5c0.1-0.1,0.2-0.3,0.3-0.3c0.2-0.1,0.3-0.1,0.5-0.1c0.2,0,0.5,0.1,0.6,0.2
				c0.2,0.1,0.3,0.4,0.2,0.6c0,0.2,0,0.3-0.1,0.5c-0.1,0.2-0.2,0.4-0.4,0.5l-0.6,0.6h1.3v0.3H1438.1z M1439.4,581.6h0.3
				c0.1,0,0.2,0,0.3-0.1c0.1-0.1,0.1-0.2,0.1-0.3s0-0.2-0.1-0.3c-0.1-0.1-0.2-0.1-0.3-0.1c-0.1,0-0.2,0-0.3,0.1
				c-0.1,0.1-0.1,0.2-0.1,0.3h-0.5c0-0.1,0-0.3,0.1-0.4c0.1-0.1,0.2-0.2,0.3-0.3s0.3-0.1,0.5-0.1c0.2,0,0.5,0.1,0.6,0.2
				c0.2,0.1,0.3,0.4,0.2,0.6c0,0.1,0,0.3-0.1,0.4c-0.1,0.1-0.2,0.2-0.3,0.2c0.1,0,0.3,0.1,0.4,0.2s0.1,0.3,0.1,0.4
				c0,0.2-0.1,0.5-0.3,0.6c-0.2,0.2-0.4,0.2-0.6,0.2c-0.2,0-0.5-0.1-0.6-0.2c-0.2-0.1-0.3-0.4-0.3-0.6h0.5c0,0.1,0,0.2,0.1,0.3
				s0.2,0.1,0.3,0.1c0.1,0,0.3,0,0.3-0.1c0.1-0.1,0.1-0.2,0.1-0.3s0-0.3-0.1-0.3c-0.1-0.1-0.2-0.1-0.4-0.1h-0.3L1439.4,581.6z
				 M1443.1,582.1h0.3v0.4h-0.3v0.6h-0.5v-0.6h-1.2v-0.3l1.2-1.8h0.5V582.1z M1441.8,582.1h0.8V581v0.1L1441.8,582.1z M1445.4,581.9
				l-1.2-0.5V581l1.7,0.6v0.4l-1.7,0.6v-0.5L1445.4,581.9z M1449.4,583.1c0-0.1,0-0.1-0.1-0.2c-0.1,0.2-0.3,0.2-0.6,0.2
				c-0.2,0-0.4-0.1-0.5-0.2c-0.1-0.1-0.2-0.3-0.2-0.5s0.1-0.4,0.2-0.5c0.2-0.1,0.5-0.2,0.6-0.2h0.3v-0.1c0-0.2-0.1-0.3-0.3-0.4
				c0,0,0,0-0.1,0c-0.1,0-0.2,0-0.3,0.1c-0.1,0-0.1,0.1-0.1,0.2h-0.5c0-0.1,0-0.2,0.1-0.3c0.1-0.1,0.2-0.2,0.3-0.2
				c0.1-0.1,0.3-0.1,0.4-0.1c0.2,0,0.4,0.1,0.6,0.2c0.1,0.1,0.2,0.3,0.2,0.5v0.9c0,0.2,0,0.3,0.1,0.5l0,0L1449.4,583.1L1449.4,583.1
				z M1448.9,582.8c0.1,0,0.2,0,0.3-0.1c0.1,0,0.1-0.1,0.2-0.2v-0.3h-0.3c-0.1,0-0.3,0-0.4,0.1c-0.1,0.1-0.1,0.2-0.1,0.3
				s0,0.2,0.1,0.2C1448.5,582.8,1448.8,582.8,1448.9,582.8L1448.9,582.8z M1450.9,583.1v-1.7h-0.3v-0.3h0.3V581
				c0-0.2,0.1-0.4,0.2-0.5c0.2-0.1,0.3-0.2,0.6-0.2h0.3v0.4h-0.2c-0.2,0-0.3,0.1-0.3,0.3c0,0,0,0,0,0.1v0.2h0.4v0.3h-0.4v1.7
				L1450.9,583.1z M1453.7,582.6c0-0.1,0-0.1-0.1-0.2c-0.1-0.1-0.2-0.1-0.3-0.1c-0.1,0-0.3-0.1-0.4-0.1c-0.2-0.1-0.4-0.3-0.4-0.5
				s0.1-0.4,0.2-0.5c0.2-0.1,0.4-0.2,0.6-0.2s0.4,0.1,0.6,0.2c0.2,0.1,0.2,0.3,0.2,0.5h-0.5c0-0.1,0-0.2-0.1-0.2
				c-0.1-0.1-0.2-0.1-0.3-0.1c-0.1,0-0.2,0-0.3,0.1c-0.1,0-0.1,0.1-0.1,0.2c0,0.1,0,0.1,0.1,0.2c0.1,0.1,0.2,0.1,0.4,0.1
				c0.2,0,0.3,0.1,0.4,0.2c0.1,0,0.2,0.1,0.2,0.2c0.2,0.3,0.1,0.6-0.2,0.7c-0.2,0.1-0.4,0.2-0.6,0.2s-0.3,0-0.5-0.1
				c-0.1-0.1-0.2-0.1-0.3-0.2c-0.1-0.1-0.1-0.2-0.1-0.4h0.5c0,0.1,0.1,0.2,0.1,0.3c0.1,0.1,0.2,0.1,0.3,0.1c0.1,0,0.2,0,0.3-0.1
				C1453.7,582.7,1453.7,582.6,1453.7,582.6L1453.7,582.6z M1454.9,582.1c0-0.3,0.1-0.6,0.2-0.7c0.1-0.2,0.4-0.3,0.6-0.3
				c0.2,0,0.4,0.1,0.5,0.2v-0.9h0.5v2.8h-0.4V583c-0.1,0.2-0.3,0.3-0.6,0.3c-0.2,0-0.5-0.1-0.6-0.3
				C1455,582.7,1454.9,582.4,1454.9,582.1L1454.9,582.1z M1455.4,582.1c0,0.2,0,0.3,0.1,0.5c0.1,0.1,0.2,0.2,0.4,0.2
				s0.3-0.1,0.4-0.3v-0.8c-0.1-0.2-0.2-0.3-0.4-0.3c-0.1,0-0.3,0.1-0.3,0.2C1455.4,581.7,1455.3,581.9,1455.4,582.1L1455.4,582.1z
				 M1457.8,583v-1.6h-0.3v-0.3h0.3V581c0-0.4,0.3-0.6,0.6-0.6h0.1h0.3v0.4h-0.2c-0.2,0-0.3,0.1-0.3,0.3c0,0,0,0,0,0.1v0.2h0.4v0.3
				h-0.4v1.7L1457.8,583z M1462.7,583h-1.9v-0.3l0.9-0.9c0.1-0.1,0.2-0.2,0.3-0.4c0-0.1,0.1-0.2,0.1-0.3s0-0.2-0.1-0.3
				c-0.1-0.1-0.2-0.1-0.3-0.1c-0.1,0-0.3,0-0.4,0.1c-0.1,0.1-0.1,0.2-0.1,0.4h-0.5c0-0.2,0-0.3,0.1-0.5c0.1-0.1,0.2-0.3,0.3-0.3
				c0.2-0.1,0.3-0.1,0.5-0.1s0.5,0.1,0.6,0.2c0.2,0.1,0.3,0.4,0.2,0.6c0,0.2,0,0.3-0.1,0.5s-0.2,0.4-0.4,0.5l-0.6,0.6h1.3
				L1462.7,583z M1464.1,581.5h0.3c0.1,0,0.2,0,0.3-0.1s0.1-0.2,0.1-0.3s0-0.2-0.1-0.3c-0.1-0.1-0.2-0.1-0.3-0.1
				c-0.1,0-0.2,0-0.3,0.1s-0.1,0.2-0.1,0.3h-0.5c0-0.1,0-0.3,0.1-0.4c0.1-0.1,0.2-0.2,0.3-0.3c0.1-0.1,0.3-0.1,0.5-0.1
				s0.5,0.1,0.6,0.2c0.2,0.1,0.3,0.4,0.2,0.6c0,0.1,0,0.3-0.1,0.4c-0.1,0.1-0.2,0.2-0.3,0.2c0.1,0,0.3,0.1,0.4,0.2
				c0.1,0.1,0.1,0.3,0.1,0.4c0,0.2-0.1,0.5-0.3,0.6c-0.2,0.2-0.4,0.2-0.6,0.2s-0.5-0.1-0.6-0.2c-0.1-0.1-0.3-0.4-0.3-0.6h0.5
				c0,0.1,0,0.2,0.1,0.3c0.1,0.1,0.2,0.1,0.3,0.1c0.1,0,0.3,0,0.3-0.1c0.1-0.1,0.1-0.2,0.1-0.3s0-0.3-0.1-0.3
				c-0.1-0.1-0.2-0.1-0.4-0.1h-0.3L1464.1,581.5z M1468,581.9l1.2,0.4v0.5l-1.6-0.6v-0.4l1.6-0.6v0.5L1468,581.9z M1472,583h-2.1
				v-0.3l1-0.9c0.1-0.1,0.2-0.2,0.3-0.4c0.1-0.1,0.1-0.2,0.1-0.3s0-0.2-0.1-0.3s-0.2-0.1-0.3-0.1s-0.3,0-0.4,0.1
				c-0.1,0.1-0.1,0.2-0.1,0.4h-0.5c0-0.2,0-0.3,0.1-0.5c0.1-0.1,0.2-0.3,0.3-0.3c0.2-0.1,0.3-0.1,0.5-0.1s0.5,0.1,0.6,0.2
				c0.1,0.1,0.3,0.4,0.2,0.6c0,0.2,0,0.3-0.1,0.5c-0.1,0.2-0.2,0.4-0.4,0.5l-0.6,0.6h1.3L1472,583L1472,583z M1473.3,581.5h0.3
				c0.1,0,0.2,0,0.3-0.1c0.1-0.1,0.1-0.2,0.1-0.3c0-0.2-0.1-0.4-0.3-0.4h-0.1c-0.1,0-0.2,0-0.3,0.1c-0.1,0.1-0.1,0.2-0.1,0.3h-0.5
				c0-0.1,0-0.3,0.1-0.4c0.1-0.1,0.2-0.2,0.3-0.3s0.3-0.1,0.5-0.1s0.5,0.1,0.6,0.2c0.2,0.1,0.3,0.4,0.2,0.6c0,0.1-0.1,0.3-0.1,0.4
				c-0.1,0.1-0.2,0.2-0.3,0.2c0.1,0,0.3,0.1,0.3,0.2c0.1,0.1,0.1,0.3,0.1,0.4c0,0.2-0.1,0.5-0.3,0.6c-0.2,0.2-0.4,0.2-0.6,0.2
				s-0.5-0.1-0.6-0.2c-0.1-0.1-0.3-0.4-0.3-0.6h0.5c0,0.1,0,0.2,0.1,0.3c0.1,0.1,0.2,0.1,0.3,0.1s0.3,0,0.3-0.1
				c0.1-0.1,0.1-0.2,0.1-0.3s0-0.3-0.1-0.3c-0.1-0.1-0.2-0.1-0.4-0.1h-0.3L1473.3,581.5z M1477.1,582.1h0.3v0.4h-0.3v0.6h-0.5v-0.6
				h-1.2v-0.4l1.2-1.8h0.5V582.1z M1475.8,582.1h0.6V581v0.1L1475.8,582.1z M1479.8,582.1h0.3v0.4h-0.3v0.6h-0.5v-0.6h-1.2v-0.3
				l1.2-1.8h0.5V582.1z M1478.6,582.1h0.8V581v0.1L1478.6,582.1z M1481.4,581.5h0.3c0.1,0,0.2,0,0.3-0.1s0.1-0.2,0.1-0.3
				c0-0.2-0.1-0.4-0.3-0.4h-0.1c-0.1,0-0.2,0-0.3,0.1s-0.1,0.2-0.1,0.3h-0.5c0-0.1,0-0.3,0.1-0.4c0.1-0.1,0.2-0.2,0.3-0.3
				c0.1-0.1,0.3-0.1,0.5-0.1s0.5,0.1,0.6,0.2c0.2,0.1,0.3,0.4,0.2,0.6c0,0.1-0.1,0.3-0.1,0.4c-0.1,0.1-0.2,0.2-0.3,0.2
				c0.1,0,0.3,0.1,0.3,0.2c0.1,0.1,0.1,0.3,0.1,0.4c0,0.2-0.1,0.5-0.3,0.6c-0.2,0.2-0.4,0.2-0.6,0.2c-0.2,0-0.5-0.1-0.6-0.2
				c-0.2-0.1-0.3-0.4-0.3-0.6h0.5c0,0.1,0,0.2,0.1,0.3s0.2,0.1,0.3,0.1s0.3,0,0.3-0.1c0.1-0.1,0.1-0.2,0.1-0.3s0-0.3-0.1-0.3
				c-0.1-0.1-0.2-0.1-0.4-0.1h-0.3L1481.4,581.5z M1485.1,582.1h0.3v0.4h-0.4v0.6h-0.5v-0.6h-1.2v-0.4l1.2-1.8h0.5L1485.1,582.1z
				 M1483.9,582.1h0.6V581v0.1L1483.9,582.1z M1486.7,581.5h0.3c0.1,0,0.2,0,0.3-0.1c0.1-0.1,0.1-0.2,0.1-0.3s0-0.2-0.1-0.3
				s-0.2-0.1-0.3-0.1s-0.2,0-0.3,0.1c-0.1,0.1-0.1,0.2-0.1,0.3h-0.5c0-0.1,0-0.3,0.1-0.4c0.1-0.1,0.2-0.2,0.3-0.3s0.3-0.1,0.5-0.1
				c0.2,0,0.5,0.1,0.6,0.2c0.2,0.2,0.3,0.4,0.2,0.6c0,0.1,0,0.3-0.1,0.4c-0.1,0.1-0.2,0.2-0.3,0.2c0.3,0.1,0.5,0.4,0.5,0.6
				c0,0.2-0.1,0.5-0.3,0.6c-0.2,0.2-0.4,0.2-0.6,0.2c-0.2,0-0.5-0.1-0.6-0.2c-0.2-0.1-0.3-0.4-0.3-0.6h0.5c0,0.1,0,0.2,0.1,0.3
				c0.1,0.1,0.2,0.1,0.3,0.1c0.1,0,0.2,0,0.3-0.1c0.2-0.2,0.2-0.5,0-0.6c-0.1-0.1-0.3-0.1-0.4-0.1h-0.3L1486.7,581.5z M1491,581.7
				l0.4-0.6h0.5l-0.6,0.9l0.6,1h-0.5l-0.4-0.6l-0.4,0.6h-0.5l0.6-1l-0.6-0.9h0.5L1491,581.7z M1493.5,582.4l0.4-1.3h0.5l-0.8,2.2
				c-0.1,0.3-0.3,0.5-0.6,0.5h-0.2v-0.4h0.1c0.1,0,0.2,0,0.3-0.1s0.1-0.1,0.1-0.2l0.1-0.2l-0.6-1.9h0.5L1493.5,582.4z M1496.9,583
				h-1.9v-0.3l0.9-0.9c0.1-0.1,0.2-0.2,0.3-0.4c0.1-0.1,0.1-0.2,0.1-0.3s0-0.2-0.1-0.3c-0.1-0.1-0.2-0.1-0.3-0.1s-0.3,0-0.4,0.1
				c-0.1,0.1-0.1,0.2-0.1,0.4h-0.5c0-0.2,0-0.3,0.1-0.5c0.1-0.1,0.2-0.3,0.3-0.3c0.2-0.1,0.3-0.1,0.5-0.1s0.5,0.1,0.6,0.2
				c0.1,0.1,0.3,0.4,0.2,0.6c0,0.2,0,0.3-0.1,0.5c-0.1,0.2-0.2,0.4-0.4,0.5l-0.6,0.6h1.3L1496.9,583z M1498.3,581.5h0.3
				c0.1,0,0.2,0,0.3-0.1s0.1-0.2,0.1-0.3c0-0.2-0.1-0.4-0.3-0.4h-0.1c-0.1,0-0.2,0-0.3,0.1s-0.1,0.2-0.1,0.3h-0.5
				c0-0.1,0-0.3,0.1-0.4c0.1-0.1,0.2-0.2,0.3-0.3c0.1-0.1,0.3-0.1,0.5-0.1s0.5,0.1,0.6,0.2c0.2,0.1,0.3,0.4,0.2,0.6
				c0,0.1,0,0.3-0.1,0.4c-0.1,0.1-0.2,0.2-0.3,0.2c0.1,0,0.3,0.1,0.3,0.2c0.1,0.1,0.1,0.3,0.1,0.4c0,0.2-0.1,0.5-0.3,0.6
				c-0.2,0.2-0.4,0.2-0.6,0.2c-0.2,0-0.5-0.1-0.6-0.2c-0.2-0.1-0.3-0.4-0.3-0.6h0.5c0,0.1,0,0.2,0.1,0.3c0.1,0.1,0.2,0.1,0.3,0.1
				c0.1,0,0.3,0,0.3-0.1c0.1-0.1,0.1-0.2,0.1-0.3s0-0.3-0.1-0.3c-0.1-0.1-0.2-0.1-0.4-0.1h-0.3L1498.3,581.5z M1501.6,581.8
				l-1.2-0.5v-0.5l1.7,0.6v0.4l-1.7,0.6v-0.5L1501.6,581.8z M1409.7,586.5c0,0.3-0.1,0.6-0.2,0.8c-0.2,0.2-0.4,0.3-0.6,0.3
				c-0.3,0-0.5-0.1-0.6-0.3c-0.2-0.3-0.3-0.6-0.2-0.8V586c0-0.3,0.1-0.6,0.2-0.8c0.4-0.4,1-0.4,1.4,0c0.2,0.3,0.3,0.6,0.2,0.8
				L1409.7,586.5z M1409.3,586c0-0.2,0-0.4-0.1-0.6c-0.1-0.1-0.2-0.2-0.3-0.2c-0.1,0-0.3,0.1-0.3,0.2c-0.1,0.2-0.1,0.4-0.1,0.6v0.6
				c0,0.2,0,0.4,0.1,0.6c0.1,0.1,0.2,0.2,0.3,0.2s0.3-0.1,0.3-0.2c0.1-0.2,0.1-0.4,0.1-0.6V586z M1411.9,587.5h-0.5v-2l-0.6,0.2
				v-0.4l1.1-0.4h0.1V587.5z M1415,586.5c0,0.3-0.1,0.6-0.2,0.8c-0.3,0.4-0.9,0.4-1.3,0.1c0,0-0.1,0-0.1-0.1
				c-0.2-0.3-0.3-0.6-0.2-0.8V586c0-0.3,0.1-0.6,0.2-0.8c0.2-0.2,0.4-0.3,0.6-0.3c0.3,0,0.5,0.1,0.6,0.3c0.2,0.3,0.3,0.6,0.2,0.8
				L1415,586.5z M1414.7,586c0-0.2,0-0.4-0.1-0.6c-0.1-0.1-0.2-0.2-0.3-0.2c-0.1,0-0.3,0.1-0.3,0.2c-0.1,0.2-0.1,0.4-0.1,0.6v0.6
				c0,0.2,0,0.4,0.1,0.6c0.1,0.1,0.2,0.2,0.3,0.2s0.3-0.1,0.3-0.2c0.1-0.2,0.1-0.4,0.1-0.6V586z M1417.2,587.5h-0.5v-2l-0.6,0.2
				v-0.4l1.1-0.4h0.1V587.5z M1420.4,586.5c0,0.3-0.1,0.6-0.2,0.8c-0.2,0.2-0.4,0.3-0.6,0.3c-0.3,0-0.5-0.1-0.6-0.3
				c-0.2-0.3-0.3-0.6-0.2-0.8V586c0-0.3,0.1-0.6,0.2-0.8c0.2-0.2,0.4-0.3,0.6-0.3c0.3,0,0.5,0.1,0.6,0.3c0.2,0.3,0.3,0.6,0.2,0.8
				V586.5z M1420,586c0-0.2,0-0.4-0.1-0.6c-0.1-0.1-0.2-0.2-0.3-0.2c-0.1,0-0.3,0.1-0.3,0.2c-0.1,0.2-0.1,0.4-0.1,0.6v0.6
				c0,0.2,0,0.4,0.1,0.6c0.1,0.1,0.2,0.2,0.3,0.2s0.3-0.1,0.3-0.2c0.1-0.2,0.1-0.4,0.1-0.6V586z M1422.6,587.5h-0.5v-2l-0.6,0.2
				v-0.4l1.1-0.4h0.1V587.5z M1425.8,586.5c0,0.3-0.1,0.6-0.2,0.8c-0.2,0.2-0.4,0.3-0.6,0.3c-0.3,0-0.5-0.1-0.6-0.3
				c-0.2-0.3-0.3-0.6-0.2-0.8V586c0-0.3,0.1-0.6,0.2-0.8c0.2-0.2,0.4-0.3,0.6-0.3c0.3,0,0.5,0.1,0.6,0.3c0.2,0.3,0.3,0.6,0.2,0.8
				V586.5z M1425.3,586c0-0.2,0-0.4-0.1-0.6c-0.1-0.1-0.2-0.2-0.3-0.2c-0.1,0-0.3,0.1-0.3,0.2c-0.1,0.2-0.1,0.4-0.1,0.6v0.6
				c0,0.2,0,0.4,0.1,0.6c0.1,0.1,0.2,0.2,0.3,0.2c0.1,0,0.3-0.1,0.3-0.2c0.1-0.2,0.1-0.4,0.1-0.6V586z M1427.9,587.5h-0.5v-2
				l-0.6,0.2v-0.4l1.1-0.4h0.1V587.5z M1431.3,586.5c0,0.3-0.1,0.6-0.2,0.8c-0.3,0.4-0.9,0.4-1.3,0.1c0,0-0.1,0-0.1-0.1
				c-0.2-0.3-0.3-0.6-0.2-0.8V586c0-0.3,0.1-0.6,0.2-0.8c0.2-0.2,0.4-0.3,0.6-0.3c0.3,0,0.5,0.1,0.6,0.3c0.2,0.3,0.3,0.6,0.2,0.8
				L1431.3,586.5z M1430.7,586c0-0.2,0-0.4-0.1-0.6c-0.1-0.1-0.2-0.2-0.3-0.2c-0.1,0-0.3,0.1-0.3,0.2c-0.1,0.2-0.1,0.4-0.1,0.6v0.6
				c0,0.2,0,0.4,0.1,0.6c0.1,0.1,0.2,0.2,0.3,0.2c0.1,0,0.3-0.1,0.3-0.2c0.1-0.2,0.1-0.4,0.1-0.6V586z M1433.3,587.5h-0.5v-2
				l-0.6,0.2v-0.4l1.1-0.4h0.1V587.5z M1436.5,586.5c0,0.3-0.1,0.6-0.2,0.8c-0.2,0.2-0.4,0.3-0.6,0.3c-0.3,0-0.5-0.1-0.6-0.3
				c-0.2-0.3-0.3-0.6-0.2-0.8V586c0-0.3,0.1-0.6,0.2-0.8c0.4-0.4,1-0.4,1.4,0c0.2,0.3,0.3,0.6,0.2,0.8L1436.5,586.5z M1436,586
				c0-0.2,0-0.4-0.1-0.6c-0.1-0.1-0.2-0.2-0.3-0.2s-0.3,0.1-0.3,0.2c-0.1,0.2-0.1,0.4-0.1,0.6v0.6c0,0.2,0,0.4,0.1,0.6
				c0.1,0.1,0.2,0.2,0.3,0.2c0.1,0,0.3-0.1,0.3-0.2c0.1-0.2,0.1-0.4,0.1-0.6V586z M1438.6,587.5h-0.5v-2l-0.6,0.2v-0.4l1.1-0.4h0.1
				V587.5z M1442,586.5c0,0.3-0.1,0.6-0.2,0.8c-0.2,0.2-0.4,0.3-0.6,0.3c-0.3,0-0.5-0.1-0.6-0.3c-0.2-0.3-0.3-0.6-0.2-0.8V586
				c0-0.3,0.1-0.6,0.2-0.8c0.2-0.2,0.4-0.3,0.6-0.3c0.3,0,0.5,0.1,0.6,0.3c0.2,0.3,0.3,0.6,0.2,0.8V586.5z M1441.4,586
				c0-0.2,0-0.4-0.1-0.6c-0.1-0.1-0.2-0.2-0.3-0.2s-0.3,0.1-0.3,0.2c-0.1,0.2-0.1,0.4-0.1,0.6v0.6c0,0.2,0,0.4,0.1,0.6
				c0.1,0.1,0.2,0.2,0.3,0.2c0.1,0,0.3-0.1,0.3-0.2c0.1-0.2,0.1-0.4,0.1-0.6V586z M1444,587.7h-0.5v-2.1l-0.6,0.2v-0.3l1.1-0.4h0.1
				V587.7z M1447.1,586.7c0,0.3-0.1,0.6-0.2,0.8c-0.3,0.4-0.9,0.4-1.3,0.1c0,0-0.1,0-0.1-0.1c-0.2-0.3-0.3-0.6-0.2-0.8v-0.5
				c0-0.3,0.1-0.6,0.2-0.8c0.2-0.2,0.4-0.3,0.6-0.3c0.3,0,0.5,0.1,0.6,0.3c0.2,0.3,0.3,0.6,0.2,0.8L1447.1,586.7z M1446.8,586.2
				c0-0.2,0-0.4-0.1-0.6c-0.1-0.1-0.2-0.2-0.3-0.2c-0.1,0-0.3,0.1-0.3,0.2c-0.1,0.2-0.1,0.4-0.1,0.6v0.6c0,0.2,0,0.4,0.1,0.6
				c0.1,0.1,0.2,0.2,0.3,0.2c0.1,0,0.3-0.1,0.3-0.2c0.1-0.2,0.1-0.4,0.1-0.6V586.2z M1449.8,586.7c0,0.3-0.1,0.6-0.2,0.8
				c-0.2,0.2-0.4,0.3-0.6,0.3c-0.3,0-0.5-0.1-0.6-0.3c-0.2-0.3-0.3-0.6-0.2-0.8v-0.5c0-0.3,0.1-0.6,0.2-0.8c0.2-0.2,0.4-0.3,0.6-0.3
				c0.3,0,0.5,0.1,0.6,0.3c0.2,0.3,0.3,0.6,0.2,0.8V586.7z M1449.4,586.2c0-0.2,0-0.4-0.1-0.6c-0.1-0.1-0.2-0.2-0.3-0.2
				s-0.3,0.1-0.3,0.2c-0.1,0.2-0.1,0.4-0.1,0.6v0.6c0,0.2,0,0.4,0.1,0.6c0.1,0.2,0.4,0.2,0.6,0.1l0.1-0.1c0.1-0.2,0.1-0.4,0.1-0.6
				L1449.4,586.2L1449.4,586.2z M1452,587.7h-0.5v-2.1l-0.6,0.2v-0.3l1.1-0.4h0.1V587.7z M1455.1,586.7c0,0.3-0.1,0.6-0.2,0.8
				c-0.3,0.4-0.9,0.4-1.3,0.1c0,0-0.1,0-0.1-0.1c-0.2-0.3-0.3-0.6-0.2-0.8v-0.5c0-0.3,0.1-0.6,0.2-0.8c0.2-0.2,0.4-0.3,0.6-0.3
				c0.3,0,0.5,0.1,0.6,0.3c0.2,0.3,0.3,0.6,0.2,0.8L1455.1,586.7z M1454.8,586.2c0-0.2,0-0.4-0.1-0.6c-0.1-0.1-0.2-0.2-0.3-0.2
				s-0.3,0.1-0.3,0.2c-0.1,0.2-0.1,0.4-0.1,0.6v0.6c0,0.2,0,0.4,0.1,0.6c0.1,0.1,0.2,0.2,0.3,0.2c0.1,0,0.3-0.1,0.3-0.2
				c0.1-0.2,0.1-0.4,0.1-0.6V586.2z M1457.3,587.7h-0.5v-2.1l-0.6,0.2v-0.3l1.1-0.4h0.1V587.7z M1460.7,586.7c0,0.3-0.1,0.6-0.2,0.8
				c-0.2,0.2-0.4,0.3-0.6,0.3c-0.3,0-0.5-0.1-0.6-0.3c-0.2-0.3-0.3-0.6-0.2-0.8v-0.5c0-0.3,0.1-0.6,0.2-0.8c0.2-0.2,0.4-0.3,0.6-0.3
				c0.3,0,0.5,0.1,0.6,0.3c0.2,0.3,0.3,0.6,0.2,0.8V586.7z M1460.1,586.2c0-0.2,0-0.4-0.1-0.6c-0.1-0.2-0.4-0.2-0.6-0.1l-0.1,0.1
				c-0.1,0.2-0.1,0.4-0.1,0.6v0.6c0,0.2,0,0.4,0.1,0.6c0.1,0.1,0.2,0.2,0.3,0.2c0.1,0,0.3-0.1,0.3-0.2c0.1-0.2,0.1-0.4,0.1-0.6
				L1460.1,586.2L1460.1,586.2z M1462.7,587.7h-0.5v-2.1l-0.6,0.2v-0.3l1.1-0.4h0.1V587.7z M1466,586.7c0,0.3-0.1,0.6-0.2,0.8
				c-0.2,0.2-0.4,0.3-0.6,0.3c-0.3,0-0.5-0.1-0.6-0.3c-0.2-0.3-0.3-0.6-0.2-0.8v-0.5c0-0.3,0.1-0.6,0.2-0.8c0.2-0.2,0.4-0.3,0.6-0.3
				c0.3,0,0.5,0.1,0.6,0.3c0.2,0.3,0.3,0.6,0.2,0.8V586.7z M1465.5,586.2c0-0.2,0-0.4-0.1-0.6c-0.1-0.1-0.2-0.2-0.3-0.2
				s-0.3,0.1-0.3,0.2c-0.1,0.2-0.1,0.4-0.1,0.6v0.6c0,0.2,0,0.4,0.1,0.6c0.1,0.1,0.2,0.2,0.3,0.2c0.1,0,0.3-0.1,0.3-0.2
				c0.1-0.2,0.1-0.4,0.1-0.6V586.2z M1468,587.7h-0.5v-2.1l-0.6,0.2v-0.3l1.1-0.4h0.1V587.7z M1471.3,586.7c0,0.3-0.1,0.6-0.2,0.8
				c-0.2,0.2-0.4,0.3-0.6,0.3c-0.3,0-0.5-0.1-0.6-0.3c-0.2-0.3-0.3-0.6-0.2-0.8v-0.5c0-0.3,0.1-0.6,0.2-0.8c0.4-0.4,1-0.4,1.4,0
				c0.2,0.3,0.3,0.6,0.2,0.8v0.5H1471.3z M1470.8,586.2c0-0.2,0-0.4-0.1-0.6c-0.1-0.1-0.2-0.2-0.3-0.2c-0.1,0-0.3,0.1-0.3,0.2
				c-0.1,0.2-0.1,0.4-0.1,0.6v0.6c0,0.2,0,0.4,0.1,0.6c0.1,0.1,0.2,0.2,0.3,0.2c0.1,0,0.3-0.1,0.3-0.2c0.1-0.2,0.1-0.4,0.1-0.6
				V586.2z M1473.3,587.7h-0.5v-2.1l-0.6,0.2v-0.3l1.1-0.4h0.1V587.7z M1476.7,586.7c0,0.3-0.1,0.6-0.2,0.8
				c-0.3,0.4-0.9,0.4-1.3,0.1c0,0-0.1,0-0.1-0.1c-0.2-0.3-0.3-0.6-0.2-0.8v-0.5c0-0.3,0.1-0.6,0.2-0.8c0.2-0.2,0.4-0.3,0.6-0.3
				c0.3,0,0.5,0.1,0.6,0.3c0.2,0.3,0.3,0.6,0.2,0.8L1476.7,586.7z M1476.1,586.2c0-0.2,0-0.4-0.1-0.6c-0.1-0.1-0.2-0.2-0.3-0.2
				c-0.1,0-0.3,0.1-0.3,0.2c-0.1,0.2-0.1,0.4-0.1,0.6v0.6c0,0.2,0,0.4,0.1,0.6c0.1,0.1,0.2,0.2,0.3,0.2c0.1,0,0.3-0.1,0.3-0.2
				c0.1-0.2,0.1-0.4,0.1-0.6V586.2z M1411,592.3h-1.9V592l1-0.9c0.1-0.1,0.2-0.2,0.3-0.4c0.1-0.1,0.1-0.2,0.1-0.3s0-0.2-0.1-0.3
				c-0.1-0.1-0.2-0.1-0.3-0.1c-0.1,0-0.3,0-0.3,0.1c-0.1,0.1-0.1,0.2-0.1,0.4h-0.5c0-0.2,0-0.3,0.1-0.5c0.1-0.1,0.2-0.3,0.3-0.3
				c0.2-0.1,0.3-0.1,0.5-0.1s0.5,0.1,0.6,0.2c0.1,0.1,0.3,0.4,0.2,0.6c0,0.2,0,0.3-0.1,0.5c-0.1,0.2-0.2,0.4-0.4,0.5l-0.6,0.6h1.3
				L1411,592.3z M1412.4,590.8h0.3c0.1,0,0.2,0,0.3-0.1s0.1-0.2,0.1-0.3s0-0.2-0.1-0.3c-0.1-0.1-0.2-0.1-0.3-0.1
				c-0.1,0-0.2,0-0.3,0.1s-0.1,0.2-0.1,0.3h-0.5c0-0.1,0-0.3,0.1-0.4c0.1-0.1,0.2-0.2,0.3-0.3c0.1-0.1,0.3-0.1,0.5-0.1
				s0.5,0.1,0.6,0.2c0.2,0.2,0.3,0.4,0.2,0.6c0,0.1,0,0.3-0.1,0.4c-0.1,0.1-0.2,0.2-0.3,0.2c0.1,0,0.3,0.1,0.4,0.2
				c0.1,0.1,0.1,0.3,0.1,0.4c0,0.2-0.1,0.5-0.3,0.6c-0.2,0.2-0.4,0.2-0.6,0.2s-0.5-0.1-0.6-0.2c-0.2-0.1-0.3-0.4-0.3-0.6h0.5
				c0,0.1,0,0.2,0.1,0.3c0.1,0.1,0.2,0.1,0.3,0.1c0.1,0,0.3,0,0.3-0.1c0.1-0.1,0.1-0.2,0.1-0.3s0-0.2-0.1-0.3
				c-0.1-0.1-0.3-0.1-0.4-0.1h-0.3L1412.4,590.8z M1416.3,591.2l1.2,0.4v0.5l-1.6-0.6V591l1.6-0.6v0.5L1416.3,591.2z M1420.4,592.3
				h-1.9V592l0.9-0.9c0.1-0.1,0.2-0.2,0.3-0.4c0-0.1,0.1-0.2,0.1-0.3s0-0.2-0.1-0.3c-0.1-0.1-0.2-0.1-0.3-0.1c-0.1,0-0.3,0-0.4,0.1
				c-0.1,0.1-0.1,0.2-0.1,0.4h-0.5c0-0.2,0-0.3,0.1-0.5c0.1-0.1,0.2-0.3,0.3-0.3c0.4-0.2,0.8-0.1,1.2,0.1c0.2,0.1,0.3,0.4,0.2,0.6
				c0,0.2,0,0.3-0.1,0.5c-0.1,0.2-0.2,0.4-0.4,0.5l-0.6,0.6h1.3L1420.4,592.3z M1421.7,590.8h0.3c0.1,0,0.2,0,0.3-0.1
				c0.1-0.1,0.1-0.2,0.1-0.3s0-0.2-0.1-0.3c-0.1-0.1-0.2-0.1-0.3-0.1c-0.1,0-0.2,0-0.3,0.1c-0.1,0.1-0.1,0.2-0.1,0.3h-0.5
				c0-0.1,0-0.3,0.1-0.4c0.1-0.1,0.2-0.2,0.3-0.3s0.3-0.1,0.5-0.1s0.5,0.1,0.6,0.2c0.2,0.1,0.3,0.4,0.2,0.6c0,0.1,0,0.3-0.1,0.4
				c-0.1,0.1-0.2,0.2-0.3,0.2c0.1,0,0.3,0.1,0.4,0.2c0.1,0.1,0.1,0.3,0.1,0.4c0,0.2-0.1,0.5-0.3,0.6c-0.2,0.2-0.4,0.2-0.6,0.2
				s-0.5-0.1-0.6-0.2c-0.2-0.1-0.3-0.4-0.3-0.6h0.5c0,0.1,0,0.2,0.1,0.3c0.1,0.1,0.2,0.1,0.3,0.1c0.1,0,0.3,0,0.3-0.1
				c0.1-0.1,0.1-0.2,0.1-0.3s0-0.3-0.1-0.3c-0.1-0.1-0.2-0.1-0.4-0.1h-0.3L1421.7,590.8z M1425.4,591.4h0.3v0.4h-0.3v0.6h-0.5v-0.6
				h-1.2v-0.3l1.2-1.8h0.5V591.4z M1424.2,591.4h0.6v-1.1v0.1L1424.2,591.4z M1428.1,591.4h0.4v0.4h-0.4v0.6h-0.5v-0.6h-1.2v-0.4
				l1.2-1.8h0.5V591.4z M1426.9,591.4h0.8v-1.1v0.1L1426.9,591.4z M1429.7,590.8h0.3c0.1,0,0.2,0,0.3-0.1s0.1-0.2,0.1-0.3
				s0-0.2-0.1-0.3c-0.1-0.1-0.2-0.1-0.3-0.1c-0.1,0-0.2,0-0.3,0.1s-0.1,0.2-0.1,0.3h-0.5c0-0.1,0-0.3,0.1-0.4
				c0.1-0.1,0.2-0.2,0.3-0.3c0.1-0.1,0.3-0.1,0.5-0.1s0.5,0.1,0.6,0.2c0.2,0.1,0.3,0.4,0.2,0.6c0,0.1,0,0.3-0.1,0.4
				c-0.1,0.1-0.2,0.2-0.3,0.2c0.1,0,0.3,0.1,0.4,0.2c0.1,0.1,0.1,0.3,0.1,0.4c0,0.2-0.1,0.5-0.3,0.6c-0.2,0.2-0.4,0.2-0.6,0.2
				s-0.5-0.1-0.6-0.2c-0.2-0.1-0.3-0.4-0.3-0.6h0.5c0,0.1,0,0.2,0.1,0.3c0.1,0.1,0.2,0.1,0.3,0.1c0.1,0,0.3,0,0.3-0.1
				c0.1-0.1,0.1-0.2,0.1-0.3s0-0.3-0.1-0.3c-0.1-0.1-0.2-0.1-0.4-0.1h-0.3L1429.7,590.8z M1433.4,591.4h0.3v0.4h-0.3v0.6h-0.5v-0.6
				h-1.2v-0.3l1.2-1.8h0.5V591.4z M1432.2,591.4h0.8v-1.1v0.1L1432.2,591.4z M1435.1,590.8h0.3c0.1,0,0.2,0,0.3-0.1
				c0.1-0.1,0.1-0.2,0.1-0.3s0-0.2-0.1-0.3c-0.1-0.1-0.2-0.1-0.3-0.1c-0.1,0-0.2,0-0.3,0.1s-0.1,0.2-0.1,0.3h-0.5
				c0-0.1,0-0.3,0.1-0.4c0.1-0.1,0.2-0.2,0.3-0.3c0.1-0.1,0.3-0.1,0.5-0.1s0.5,0.1,0.6,0.2c0.2,0.2,0.3,0.4,0.2,0.6
				c0,0.1,0,0.3-0.1,0.4c-0.1,0.1-0.2,0.2-0.3,0.2c0.1,0,0.3,0.1,0.3,0.2c0.1,0.1,0.1,0.3,0.1,0.4c0,0.2-0.1,0.5-0.3,0.6
				c-0.2,0.2-0.4,0.2-0.6,0.2s-0.5-0.1-0.6-0.2c-0.2-0.1-0.3-0.4-0.3-0.6h0.5c0,0.1,0,0.2,0.1,0.3c0.1,0.1,0.2,0.1,0.3,0.1
				c0.1,0,0.3,0,0.3-0.1c0.1-0.1,0.1-0.2,0.1-0.3s0-0.3-0.1-0.3c-0.1-0.1-0.2-0.1-0.4-0.1h-0.3L1435.1,590.8z M1439.5,591l0.4-0.6
				h0.5l-0.6,0.9l0.6,1h-0.5l-0.4-0.6l-0.4,0.6h-0.5l0.6-1l-0.6-0.9h0.5L1439.5,591z M1441.8,591.7l0.4-1.3h0.5l-0.8,2.2
				c-0.1,0.3-0.3,0.5-0.6,0.5h-0.2v-0.4h0.1c0.1,0,0.2,0,0.3-0.1c0.1-0.1,0.1-0.1,0.1-0.2l0.1-0.2l-0.6-1.9h0.5L1441.8,591.7z
				 M1445.3,592.3h-1.9V592l0.9-0.9c0.1-0.1,0.2-0.2,0.3-0.4c0.1-0.1,0.1-0.2,0.1-0.3s0-0.2-0.1-0.3c-0.1-0.1-0.2-0.1-0.3-0.1
				c-0.1,0-0.3,0-0.3,0.1c-0.1,0.1-0.1,0.2-0.1,0.4h-0.5c0-0.2,0-0.3,0.1-0.5c0.1-0.1,0.2-0.3,0.3-0.3c0.2-0.1,0.3-0.1,0.5-0.1
				s0.5,0.1,0.6,0.2c0.2,0.1,0.3,0.4,0.2,0.6c0,0.2,0,0.3-0.1,0.5c-0.1,0.2-0.2,0.4-0.4,0.5l-0.6,0.6h1.3v0.3H1445.3z M1446.7,590.8
				h0.3c0.1,0,0.2,0,0.3-0.1c0.1-0.1,0.1-0.2,0.1-0.3s0-0.2-0.1-0.3s-0.2-0.1-0.3-0.1s-0.2,0-0.3,0.1c-0.1,0.1-0.1,0.2-0.1,0.3h-0.6
				c0-0.1,0-0.3,0.1-0.4c0.1-0.1,0.2-0.2,0.3-0.3c0.1-0.1,0.3-0.1,0.5-0.1s0.5,0.1,0.6,0.2c0.2,0.1,0.3,0.4,0.2,0.6
				c0,0.1,0,0.3-0.1,0.4c-0.1,0.1-0.2,0.2-0.3,0.2c0.1,0,0.3,0.1,0.4,0.2c0.1,0.1,0.1,0.3,0.1,0.4c0,0.2-0.1,0.5-0.3,0.6
				c-0.2,0.2-0.4,0.2-0.6,0.2s-0.5-0.1-0.6-0.2c-0.2-0.1-0.3-0.4-0.3-0.6h0.5c0,0.1,0,0.2,0.1,0.3c0.1,0.1,0.2,0.1,0.3,0.1
				c0.1,0,0.3,0,0.3-0.1c0.1-0.1,0.1-0.2,0.1-0.3s0-0.3-0.1-0.3c-0.1-0.1-0.2-0.1-0.4-0.1h-0.3L1446.7,590.8z M1450,591.2l-1.2-0.5
				v-0.5l1.7,0.6v0.4l-1.7,0.6v-0.5L1450,591.2z"/>
		</g>
		<g id="Layer_2-2_1_">
			<path class="st0" d="M311.3,30.4h-0.2l-0.1,0.2l-53.7,76.5l-0.1,0.2v204.9l-75,104.8H78.9l-19.5-20.6l-0.1-0.2H4.9v1.1h53.9
				l19.5,20.6l0.1,0.2h104.3l0.1-0.2l75.2-105.2l17.6,23.7v140.4l-44.3,59.1h-91.8l-0.1,0.2l-13.8,18.4H3v1.1h123l0.2-0.2l13.9-18.4
				H232l0.1-0.2l23.1-30.9v77.3h362.5L597.3,613H206.8l-24-44.2l-0.1-0.3H4.9v1.1h177.2l24,44.3l0.1,0.3h391.6l0.2-0.2l33.9-49.7
				h678.9l23.9,23.2l0.2,0.2h61.8v-1.1h-61.5l-23.9-23.2l-0.2-0.2H632.5l20.5-28.1h443.5V534h-444l-0.2,0.2l-22.1,30.2l0.2,0.2
				l-12.1,17.6H256.2v-76.4h-0.8l21.3-28.3l0.1-0.2V336.1l-0.1-0.2l-18.6-24.8V107.6l53.3-76.2h999.3l12.9,17.9l0.2,0.2h282.6v57.8
				l-18.9,27l-0.1,0.2v144.2l0.1,0.2l18.9,26.4v207.8l-51.9,73.5h-43.4v1.1h43.9l0.2-0.2l52.1-73.8l0.1-0.2V304.9l-0.1-0.2
				l-18.9-26.4V134.7l18.9-27l0.1-0.2v-59h-283l-12.9-17.8l-0.2-0.2L311.3,30.4L311.3,30.4z"/>
		</g>
	</g>
</g>
<g id="Layer_2_1_">
</g>
</svg>
