<svg xmlns="http://www.w3.org/2000/svg" viewBox="0 0 1842.01 12"><defs><style>.cls-1{fill:#fff;fill-opacity:0.3;fill-rule:evenodd;}</style></defs><g id="Layer_2" data-name="Layer 2"><g id="Layer_1-2" data-name="Layer 1"><polygon class="cls-1" points="1841.98 1 1842.01 1 1842.01 0 1388.11 0 1387.82 0.28 1376.61 11 1326.91 11 1315.7 0.28 1315.41 0 893.61 0 893.32 0.28 882.11 11 620.47 11 611.27 0.35 610.97 0 296.57 0 296.27 0.33 286.57 11 234.5 11 226.3 0.39 226 0 0.01 0 0 1 0.08 1 0.27 1 0.41 1 1.01 1 225.51 1 234.01 12 287.01 12 297.01 1 610.51 1 620.01 12 882.51 12 894.01 1 1315.01 1 1326.51 12 1377.01 12 1388.51 1 1841.01 1 1841.98 1"/></g></g></svg>