<svg xmlns="http://www.w3.org/2000/svg" viewBox="0 0 1842.01 114.5"><defs><style>.cls-1{fill:#fff;fill-opacity:0.3;fill-rule:evenodd;}</style></defs><g id="Layer_2" data-name="Layer 2"><g id="Layer_1-2" data-name="Layer 1"><path class="cls-1" d="M1842,74H1445.75l-.15.2-21.85,28.3H932l-12.5,11H508l.36-.35L440.07,44l-.15-.15H282.22L239.14.15,239,0H0L0,113.5v1H245.36l.27-.22,13.23-10.78h61.79l13.73,10.79.27.21H919.88l.28-.25,12.22-10.75h491.25l12.72,10.77.28.23H1842V74ZM335,113.5l-14-11H258.5l-13.5,11H1V1H238.57l43.09,43.66.14.15H439.5l67.8,68.69Zm1506,0H1437L1424.62,103l21.63-28H1841Z"/></g></g></svg>