<svg xmlns="http://www.w3.org/2000/svg" viewBox="0 0 479.99 114.44"><defs><style>.cls-1{isolation:isolate;}.cls-2,.cls-3{fill:#fff;}.cls-3{fill-rule:evenodd;}</style></defs><title>Asset 1</title><g id="Layer_2" data-name="Layer 2"><g id="Layer_2-2" data-name="Layer 2"><g class="cls-1"><g class="cls-1"><path class="cls-2" d="M21.36,43.44C9.12,43.44,0,33.9,0,21.78S8.94,0,21.66,0A21.89,21.89,0,0,1,38.1,6.54L33.36,12C30,8.88,26.4,6.78,21.6,6.78c-8,0-13.86,6.6-13.86,14.88s5.82,15,13.86,15c5.16,0,8.46-2.1,12.06-5.46L38.4,36C34,40.56,29.22,43.44,21.36,43.44Z"/><path class="cls-2" d="M73.08,42.72,62.76,28.08H53.52V42.72H46.14V.72H64.86c9.66,0,15.6,5.1,15.6,13.32,0,7-4.14,11.16-10,12.78l11.34,15.9ZM64.26,7.44H53.52v14.1h10.8c5.28,0,8.64-2.76,8.64-7.08C73,9.84,69.72,7.44,64.26,7.44Z"/><path class="cls-2" d="M120.66,7.32H96.9V18.24H118v6.6H96.9V36.12H121v6.6H89.52V.72h31.14Z"/><path class="cls-2" d="M169.92,42.72h-7.8l-4.26-10.14H138l-4.32,10.14h-7.56L144.6.42h6.84Zm-22-33.48L140.7,26h14.46Z"/><path class="cls-2" d="M189.48,42.72H182V7.56H168.72V.72H202.8V7.56H189.48Z"/><path class="cls-2" d="M259.44.72h8L250,43h-6.48L226,.72h8.16L246.84,33Z"/><path class="cls-2" d="M305.76,7.32H282V18.24h21.06v6.6H282V36.12h24.06v6.6H274.62V.72h31.14Z"/></g></g><path class="cls-3" d="M209.54.69h9v113h-9Z"/><g class="cls-1"><g class="cls-1"><path class="cls-2" d="M178.61,113.72H163v-42h15.66c13.2,0,22.32,9.06,22.32,20.94S191.81,113.72,178.61,113.72Zm0-35.28h-8.28V107h8.28c8.82,0,14.58-5.94,14.58-14.22S187.43,78.44,178.61,78.44Z"/><path class="cls-2" d="M255.83,113.72,245.51,99.08h-9.24v14.64h-7.38v-42h18.72c9.66,0,15.6,5.1,15.6,13.32,0,7-4.14,11.16-10,12.78l11.34,15.9ZM247,78.44H236.27v14.1h10.8c5.28,0,8.64-2.76,8.64-7.08C255.71,80.84,252.47,78.44,247,78.44Z"/><path class="cls-2" d="M303.41,78.32H279.65V89.24h21.06v6.6H279.65v11.28h24.06v6.6H272.27v-42h31.14Z"/><path class="cls-2" d="M332,114.44c-12.24,0-21.36-9.54-21.36-21.66S319.55,71,332.27,71a21.89,21.89,0,0,1,16.44,6.54L344,83c-3.36-3.12-7-5.22-11.76-5.22-8,0-13.86,6.6-13.86,14.88s5.82,15,13.86,15c5.16,0,8.46-2.1,12.06-5.46L349,107C344.63,111.56,339.83,114.44,332,114.44Z"/><path class="cls-2" d="M374.51,113.72h-7.44V78.56H353.75V71.72h34.08v6.84H374.51Z"/><path class="cls-2" d="M413.39,114.44c-12.9,0-21.9-9.78-21.9-21.66a21.53,21.53,0,0,1,22-21.78c12.9,0,21.9,9.78,21.9,21.66A21.53,21.53,0,0,1,413.39,114.44Zm0-36.66c-8.34,0-14.16,6.66-14.16,14.88s5.94,15,14.28,15,14.16-6.66,14.16-14.88S421.73,77.78,413.39,77.78Z"/><path class="cls-2" d="M471.29,113.72,461,99.08h-9.24v14.64h-7.38v-42h18.72c9.66,0,15.6,5.1,15.6,13.32,0,7-4.14,11.16-10,12.78L480,113.72Zm-8.82-35.28H451.73v14.1h10.8c5.28,0,8.64-2.76,8.64-7.08C471.17,80.84,467.93,78.44,462.47,78.44Z"/></g></g></g></g></svg>