<?xml version="1.0" encoding="utf-8"?>
<!-- Generator: Adobe Illustrator 24.0.3, SVG Export Plug-In . SVG Version: 6.00 Build 0)  -->
<svg version="1.1" id="Layer_1" xmlns="http://www.w3.org/2000/svg" xmlns:xlink="http://www.w3.org/1999/xlink" x="0px" y="0px"
	 viewBox="0 0 1099.5 598.7" style="enable-background:new 0 0 1099.5 598.7;" xml:space="preserve">
<style type="text/css">
	.st0{fill:none;stroke:#FFFFFF;stroke-width:3;stroke-miterlimit:10;}
	.st1{fill:url(#SVGID_1_);}
	.st2{opacity:0.44;fill:#FFFFFF;enable-background:new    ;}
	.st3{fill:#FFFFFF;}
	.st4{fill:url(#SVGID_2_);}
	.st5{fill:#7DCAAA;}
</style>
<g id="Layer_1_1_">
	<title>Asset 1</title>
	<g id="Layer_2_1_">
		<g id="Layer_1-2">
			<polyline class="st0" points="404.3,77.1 5.9,458.4 268.4,593.7 			"/>
			<g>
				
					<linearGradient id="SVGID_1_" gradientUnits="userSpaceOnUse" x1="2832.9954" y1="-1036.1488" x2="2615.5732" y2="-910.619" gradientTransform="matrix(-7.323814e-02 -0.9973 0.9973 -7.323814e-02 1329.6935 2849.3828)">
					<stop  offset="0" style="stop-color:#8DB7E1"/>
					<stop  offset="0.54" style="stop-color:#84C2C1"/>
					<stop  offset="1" style="stop-color:#7DCAAA"/>
				</linearGradient>
				<polygon class="st1" points="361.2,55.3 366.5,58.2 264.8,177.9 265.2,221.9 401.5,74.8 246.8,0 3.1,158.2 4.4,460.8 
					259.2,227.3 258.7,175.3 				"/>
				<polygon class="st2" points="271.5,593.6 271.4,590.1 265.5,593.7 				"/>
				<polygon class="st3" points="265.3,236.9 265.2,221.9 259.2,227.3 259.3,231 262.3,228.2 				"/>
				
					<linearGradient id="SVGID_2_" gradientUnits="userSpaceOnUse" x1="2914.6179" y1="-897.1597" x2="2675.1538" y2="-758.9037" gradientTransform="matrix(-7.323814e-02 -0.9973 0.9973 -7.323814e-02 1329.6935 2849.3828)">
					<stop  offset="0" style="stop-color:#8DB7E1"/>
					<stop  offset="0.54" style="stop-color:#84C2C1"/>
					<stop  offset="1" style="stop-color:#7DCAAA"/>
				</linearGradient>
				<polygon class="st4" points="264.8,177.9 366.5,58.2 361.2,55.3 258.7,175.3 259.2,227.3 265.2,221.9 				"/>
				<polygon class="st3" points="264.8,177.9 367.5,58.2 361.2,55.3 258.7,175.3 259.2,227.3 265.2,221.9 				"/>
				<polygon class="st3" points="7.7,461.8 265.5,593.7 259.3,231 				"/>
				<polygon class="st3" points="262.3,228.2 259.3,231 265.5,593.7 271.2,594.1 265.3,236.9 				"/>
			</g>
			<path class="st3" d="M405,339.5c-13.3,0-25-2.9-35-8.6c-9.9-5.7-18-14.2-23.2-24.4c-5.5-10.5-8.2-22.7-8.2-36.6v-53.5
				c0-13.9,2.8-26.2,8.2-36.6c5.2-10.2,13.3-18.6,23.2-24.4c10-5.8,21.6-8.6,35-8.6s25,2.9,35,8.6c9.9,5.7,18,14.2,23.2,24.4
				c5.5,10.5,8.3,22.7,8.2,36.6v53.5c0,13.9-2.7,26.2-8.2,36.6c-5.2,10.2-13.3,18.6-23.2,24.4C430,336.6,418.3,339.5,405,339.5z
				 M405,313.3c11.9,0,21.4-3.9,28.5-11.7s10.7-18.1,10.7-30.9v-55.4c0-12.8-3.6-23.1-10.7-30.9s-16.7-11.7-28.5-11.7
				c-11.9,0-21.4,3.9-28.5,11.7s-10.7,18.1-10.7,30.9v55.3c0,12.8,3.6,23.1,10.7,30.9C383.6,309.4,393.1,313.3,405,313.3L405,313.3z
				"/>
			<path class="st3" d="M566.1,339.5c-18.5,0-32.9-5.1-43.1-15.3c-10.2-10.2-15.3-24.6-15.3-43.3v-22.2c0-18.4,5.1-32.7,15.3-42.8
				s24.5-15.1,43.1-15.1c9.8-0.1,19.5,1.8,28.5,5.6c8.1,3.4,15.1,8.9,20.4,15.9l-19.1,17.1c-7.9-9-17.7-13.5-29.4-13.5
				c-10.2,0-18.1,2.9-23.8,8.6s-8.4,13.8-8.4,24.2v22.2c0,11.1,2.8,19.6,8.4,25.7s13.6,9,23.8,9c11.9,0,21.7-4.8,29.4-14.4
				l19.1,17.2c-5.3,6.9-12.3,12.3-20.4,15.7C585.6,337.7,575.9,339.6,566.1,339.5z"/>
			<path class="st3" d="M695.4,339.5c-18.5,0-32.9-5.1-43.1-15.3C642.1,314,637,299.6,637,280.9v-22.2c0-18.4,5.1-32.7,15.3-42.8
				s24.5-15.1,43.1-15.1c9.8-0.1,19.5,1.8,28.5,5.6c8.1,3.4,15.1,8.9,20.3,15.9l-19.1,17.1c-7.9-9-17.7-13.5-29.4-13.5
				c-10.2,0-18.1,2.9-23.8,8.6c-5.6,5.7-8.4,13.8-8.4,24.2v22.2c0,11.1,2.8,19.6,8.4,25.7c5.6,6,13.6,9,23.8,9
				c11.9,0,21.7-4.8,29.4-14.4l19.1,17.1c-5.3,6.9-12.3,12.3-20.4,15.7C714.9,337.7,705.2,339.6,695.4,339.5z"/>
			<path class="st3" d="M813.4,339.5c-16.5,0-29-3.4-37.2-10.3c-8.3-6.8-12.4-17.3-12.4-31.4c0-13.3,3.8-23.3,11.3-30
				s18.9-10,34.2-10h38.3l1.8,21.3h-40c-6.8,0-12,1.5-15.5,4.6s-5.2,7.8-5.2,14.1c0,6.9,2.3,12,6.9,15.3c4.6,3.3,11.5,4.9,20.7,4.9
				c10,0,17.6-1.1,22.6-3.2c5-2.2,7.5-5.5,7.5-10.1l2.7,19c-2.3,3.6-5.2,6.6-8.7,9c-3.7,2.4-7.7,4.2-12,5.3
				C823.5,338.9,818.5,339.5,813.4,339.5z M846.4,337.5V252c0-8.8-2.4-15.7-7.1-20.6c-4.7-4.9-11.4-7.3-20.1-7.3
				c-11.3,0-21.1,3.1-29.5,9.4l-19.4-13.2c5.4-6.4,12.4-11.3,20.2-14.4c8.9-3.5,18.3-5.3,27.9-5.1c16.9,0,30,4.4,39.2,13.1
				c9.3,8.8,13.9,21.1,13.9,37v86.7L846.4,337.5L846.4,337.5z"/>
			<path class="st3" d="M911.9,337.5V202.6h26.5v134.9H911.9z M992.4,337.5v-81.7c0-9.4-2.3-16.8-7-22s-11.3-7.8-19.9-7.9
				c-8.7,0-15.4,2.3-20.1,6.9c-4.7,4.6-7.1,11-7.1,19.4l-2.7-26c4.2-8.1,9.6-14.4,16.3-18.8c6.6-4.4,14.4-6.7,22.3-6.6
				c14.2,0,25.2,4.8,33,14.4s11.7,23.1,11.7,40.6v81.9h-26.5V337.5z M1073,337.5v-81.7c0-9.4-2.5-16.8-7.4-22s-11.9-7.8-20.8-7.9
				c-8.2,0-14.6,2.5-19.1,7.5s-6.8,12.1-6.8,21.3l-5.3-26c4.2-8.9,9.8-15.8,16.8-20.7c6.7-4.8,14.8-7.4,23.1-7.3
				c14.7,0,26,4.8,34,14.4s12,23.1,12,40.6v81.9H1073V337.5z"/>
			<path class="st5" d="M426.7,376.9h14.9v134.9H499v14.4h-72.4V376.9H426.7z"/>
			<path class="st5" d="M630.4,415.8v110.4h-14v-19c-5.4,6.8-12.2,12.4-20,16.3c-7.6,3.7-15.9,5.6-24.3,5.5c-15.6,0-29-5.7-40-17
				s-16.6-25.1-16.6-41.4c-0.2-15.3,5.8-30.1,16.8-40.8c11.2-11.3,24.6-17,40.3-17c8.6-0.1,17,1.9,24.6,5.8
				c7.7,4.2,14.3,10.1,19.3,17.4v-20.3L630.4,415.8z M573.6,426.6c-15.7-0.1-30.3,8.4-37.9,22.2c-7.9,13.8-7.9,30.8,0,44.6
				c3.8,6.9,9.3,12.6,16.1,16.6c6.5,3.9,14,6,21.7,6c7.8,0,15.4-2,22.1-5.9c6.7-3.7,12.3-9.2,16.1-15.9c3.8-6.9,5.7-14.7,5.6-22.6
				c0-12.8-4.2-23.4-12.6-32S585.9,426.7,573.6,426.6L573.6,426.6z"/>
			<path class="st5" d="M663.3,526.2v-153h14.2v61.6c5.4-6.9,12.2-12.4,20-16.4c7.5-3.7,15.8-5.5,24.2-5.4c15.6,0,29,5.7,40,17
				s16.6,25.1,16.6,41.3c0.3,15.3-5.8,30.1-16.7,40.9c-11.1,11.3-24.6,17-40.2,17c-8.5,0.1-16.9-1.9-24.4-5.8
				c-7.7-4.2-14.3-10.2-19.4-17.4v20.3L663.3,526.2z M720.1,515.4c15.8,0.1,30.3-8.4,37.9-22.2c7.9-13.9,7.9-30.9,0-44.8
				c-3.8-6.9-9.3-12.6-16.1-16.6c-6.5-3.9-13.9-6-21.5-5.9c-7.8,0-15.4,2-22.1,5.9c-6.8,3.7-12.3,9.3-16.1,16
				c-3.8,6.9-5.7,14.7-5.6,22.6c0,12.8,4.2,23.5,12.6,32.1C697.6,511.1,707.9,515.4,720.1,515.4L720.1,515.4z"/>
			<path class="st5" d="M859.7,427.9l-9.1,9.4c-7.6-7.4-15-11.1-22.3-11.1c-4.4-0.1-8.7,1.6-11.9,4.6c-3.1,2.7-4.9,6.6-4.9,10.7
				c0.1,3.8,1.5,7.4,4.1,10.2c2.7,3.3,8.4,7.2,17.1,11.7c10.6,5.5,17.8,10.8,21.6,15.8c3.7,5,5.6,11.1,5.6,17.4
				c0.2,8.7-3.3,17-9.6,23c-6.4,6.3-14.3,9.4-23.9,9.4c-6.3,0-12.6-1.4-18.2-4.2c-5.6-2.6-10.6-6.6-14.4-11.5l8.9-10.1
				c7.3,8.2,15,12.3,23.1,12.3c5.4,0.1,10.6-1.8,14.5-5.5c3.8-3.2,6-7.9,6-12.9c0-4-1.4-7.8-4-10.9c-2.7-3.1-8.6-7-17.9-11.8
				c-10-5.1-16.7-10.2-20.3-15.2s-5.5-11-5.4-17.1c0-8.4,2.9-15.4,8.6-20.9c5.7-5.5,13-8.3,21.8-8.3
				C839.2,412.9,849.4,417.9,859.7,427.9z"/>
		</g>
	</g>
</g>
</svg>
