<svg width="17" height="17" viewBox="0 0 17 17" fill="none" xmlns="http://www.w3.org/2000/svg">
<path d="M1.07726 14.0773C0.567648 14.5869 0.567648 15.4131 1.07726 15.9227C1.58688 16.4324 2.41312 16.4324 2.92274 15.9227L1.07726 14.0773ZM14.9942 3.85132C15.5038 3.3417 15.5038 2.51546 14.9942 2.00584C14.4846 1.49623 13.6583 1.49623 13.1487 2.00584L14.9942 3.85132ZM3.85715 0.695051C3.13645 0.695051 2.5522 1.2793 2.5522 2C2.5522 2.7207 3.13645 3.30495 3.85715 3.30495V0.695051ZM13.6951 13.1429C13.6951 13.8636 14.2793 14.4478 15 14.4478C15.7207 14.4478 16.3049 13.8636 16.3049 13.1429H13.6951ZM2.92274 15.9227L14.9942 3.85132L13.1487 2.00584L1.07726 14.0773L2.92274 15.9227ZM3.85715 3.30495H13.6868V0.695051H3.85715V3.30495ZM13.6868 3.30495C13.688 3.30495 13.6888 3.30501 13.6892 3.30505C13.6896 3.30509 13.6898 3.30513 13.6899 3.30514C13.6899 3.30514 13.6898 3.30513 13.6897 3.30511C13.6897 3.3051 13.6897 3.30508 13.6897 3.30508C13.6896 3.30507 13.6896 3.30506 13.6896 3.30506C13.6897 3.30508 13.6909 3.30567 13.6926 3.30736C13.6943 3.30905 13.6949 3.31034 13.6949 3.31038C13.6949 3.31038 13.6949 3.31037 13.6949 3.31035C13.6949 3.31032 13.6949 3.31029 13.6949 3.31026C13.6949 3.31017 13.6949 3.31013 13.6949 3.31015C13.6949 3.31017 13.6949 3.31036 13.6949 3.31078C13.695 3.31119 13.6951 3.31198 13.6951 3.3132H16.3049C16.3049 1.86727 15.1328 0.695051 13.6868 0.695051V3.30495ZM13.6951 3.3132V13.1429H16.3049V3.3132H13.6951Z" fill="#1D7BFF"/>
</svg>
