<svg width="230" height="92" viewBox="0 0 230 92" fill="none" xmlns="http://www.w3.org/2000/svg">
<g clip-path="url(#clip0_0_2531)">
<path d="M62.2123 73C62.2123 73 61.9223 84.6785 70.3049 87.7887" stroke="#D6D6D6" stroke-width="0.5" stroke-dasharray="1"/>
<path d="M171.727 22C171.727 22 172.017 10.3215 163.635 7.21127" stroke="#D6D6D6" stroke-width="0.5"/>
<path d="M52.7271 20L54.0322 17.4251L51.1498 17.5823L52.7271 20ZM52.8532 17.727C52.6621 15.936 52.1816 13.3311 50.9769 10.8843C49.7707 8.43459 47.8314 6.13076 44.7215 4.97688L44.5476 5.44565C47.5049 6.5429 49.3611 8.73446 50.5284 11.1052C51.6971 13.479 52.1682 16.0196 52.356 17.7801L52.8532 17.727Z" fill="#D6D6D6"/>
<path d="M142.203 17.3521C142.203 17.3521 143.306 7.60017 151.52 7" stroke="#D6D6D6" stroke-width="0.5"/>
<path d="M89.8872 7.71728C89.8872 7.71728 89.4507 8.39821 89.6787 9.69126C89.9067 10.9843 90.7578 11.1924 91.2921 12.1804C91.8264 13.1683 91.7021 14.5053 91.7021 14.5053" stroke="#D6D6D6" stroke-width="0.5"/>
<path d="M91.7368 77.6479C91.7368 77.6479 90.6339 87.3998 82.4199 88" stroke="#D6D6D6" stroke-width="0.5" stroke-dasharray="1"/>
<path d="M73.7832 90.5693L75.3447 88.6826C75.3975 88.6201 75.4521 88.5527 75.5088 88.4805C75.5674 88.4082 75.6211 88.332 75.6699 88.252C75.7207 88.1719 75.7617 88.0889 75.793 88.0029C75.8262 87.915 75.8428 87.8242 75.8428 87.7305C75.8428 87.6328 75.8232 87.541 75.7842 87.4551C75.7451 87.3691 75.6914 87.2939 75.623 87.2295C75.5547 87.165 75.4727 87.1143 75.377 87.0771C75.2832 87.04 75.1797 87.0215 75.0664 87.0215C74.9648 87.0215 74.8682 87.0381 74.7764 87.0713C74.6865 87.1025 74.6074 87.1494 74.5391 87.2119C74.4707 87.2744 74.415 87.3525 74.3721 87.4463C74.3311 87.5381 74.3086 87.6445 74.3047 87.7656H73.7773C73.7793 87.5801 73.8154 87.4092 73.8857 87.2529C73.9561 87.0947 74.0498 86.959 74.167 86.8457C74.2861 86.7305 74.4238 86.6416 74.5801 86.5791C74.7363 86.5146 74.9004 86.4824 75.0723 86.4824C75.2715 86.4824 75.4521 86.5146 75.6143 86.5791C75.7764 86.6416 75.915 86.7285 76.0303 86.8398C76.1455 86.9512 76.2344 87.083 76.2969 87.2354C76.3613 87.3877 76.3936 87.5527 76.3936 87.7305C76.3936 87.8008 76.3848 87.876 76.3672 87.9561C76.3516 88.0342 76.3232 88.1191 76.2822 88.2109C76.2432 88.3008 76.1904 88.3975 76.124 88.501C76.0596 88.6045 75.9775 88.7158 75.8779 88.835L74.4922 90.4844H76.3877V91H73.7832V90.5693ZM77.0059 90.5693L78.5674 88.6826C78.6201 88.6201 78.6748 88.5527 78.7314 88.4805C78.79 88.4082 78.8438 88.332 78.8926 88.252C78.9434 88.1719 78.9844 88.0889 79.0156 88.0029C79.0488 87.915 79.0654 87.8242 79.0654 87.7305C79.0654 87.6328 79.0459 87.541 79.0068 87.4551C78.9678 87.3691 78.9141 87.2939 78.8457 87.2295C78.7773 87.165 78.6953 87.1143 78.5996 87.0771C78.5059 87.04 78.4023 87.0215 78.2891 87.0215C78.1875 87.0215 78.0908 87.0381 77.999 87.0713C77.9092 87.1025 77.8301 87.1494 77.7617 87.2119C77.6934 87.2744 77.6377 87.3525 77.5947 87.4463C77.5537 87.5381 77.5312 87.6445 77.5273 87.7656H77C77.002 87.5801 77.0381 87.4092 77.1084 87.2529C77.1787 87.0947 77.2725 86.959 77.3896 86.8457C77.5088 86.7305 77.6465 86.6416 77.8027 86.5791C77.959 86.5146 78.123 86.4824 78.2949 86.4824C78.4941 86.4824 78.6748 86.5146 78.8369 86.5791C78.999 86.6416 79.1377 86.7285 79.2529 86.8398C79.3682 86.9512 79.457 87.083 79.5195 87.2354C79.584 87.3877 79.6162 87.5527 79.6162 87.7305C79.6162 87.8008 79.6074 87.876 79.5898 87.9561C79.5742 88.0342 79.5459 88.1191 79.5049 88.2109C79.4658 88.3008 79.4131 88.3975 79.3467 88.501C79.2822 88.6045 79.2002 88.7158 79.1006 88.835L77.7148 90.4844H79.6104V91H77.0059V90.5693Z" fill="#D6D6D6"/>
<path d="M1.23438 19.4961H1.66504V16.2471L0.765625 16.7363V16.124L2.00195 15.4326H2.23633V19.4961H2.67285V20H1.23438V19.4961ZM3.74805 19.4961H4.17871V16.2471L3.2793 16.7363V16.124L4.51562 15.4326H4.75V19.4961H5.18652V20H3.74805V19.4961Z" fill="#D6D6D6"/>
<path d="M1.23438 54.4961H1.66504V51.2471L0.765625 51.7363V51.124L2.00195 50.4326H2.23633V54.4961H2.67285V55H1.23438V54.4961ZM4.95801 55.0527C4.6416 55.0527 4.37695 54.9941 4.16406 54.877C3.95117 54.7598 3.78027 54.5986 3.65137 54.3936C3.52441 54.1885 3.43359 53.9482 3.37891 53.6729C3.32422 53.3975 3.29688 53.1016 3.29688 52.7852C3.29688 52.4473 3.33398 52.1318 3.4082 51.8389C3.48242 51.5439 3.58203 51.3076 3.70703 51.1299C3.83203 50.9521 3.98926 50.8008 4.17871 50.6758C4.37012 50.5508 4.63184 50.4883 4.96387 50.4883C5.27832 50.4883 5.54004 50.5381 5.74902 50.6377C5.95801 50.7373 6.12988 50.8906 6.26465 51.0977C6.40137 51.3027 6.49707 51.5508 6.55176 51.8418C6.60645 52.1328 6.63379 52.4414 6.63379 52.7676C6.63379 53.0859 6.60645 53.3838 6.55176 53.6611C6.49707 53.9385 6.4043 54.1807 6.27344 54.3877C6.14453 54.5928 5.97266 54.7549 5.75781 54.874C5.54297 54.9932 5.27637 55.0527 4.95801 55.0527ZM4.95801 54.5312C5.18652 54.5312 5.37012 54.4854 5.50879 54.3936C5.64941 54.2998 5.75488 54.1729 5.8252 54.0127C5.89746 53.8525 5.95117 53.666 5.98633 53.4531C6.02148 53.2383 6.03906 53.0098 6.03906 52.7676C6.03906 52.5352 6.02539 52.3125 5.99805 52.0996C5.9707 51.8848 5.91797 51.6953 5.83984 51.5312C5.76172 51.3672 5.65234 51.2363 5.51172 51.1387C5.37109 51.041 5.18848 50.9922 4.96387 50.9922C4.73145 50.9922 4.54785 51.041 4.41309 51.1387C4.27832 51.2363 4.17773 51.3545 4.11133 51.4932C4.04492 51.6299 3.99219 51.8184 3.95312 52.0586C3.91602 52.2988 3.89746 52.5352 3.89746 52.7676C3.89746 53.0098 3.90918 53.2383 3.93262 53.4531C3.95801 53.666 4.00781 53.8525 4.08203 54.0127C4.1582 54.1729 4.26562 54.2998 4.4043 54.3936C4.54492 54.4854 4.72949 54.5312 4.95801 54.5312Z" fill="#D6D6D6"/>
<path d="M120.877 77.4366C120.877 77.4366 122.349 87.1446 133.308 87.7421" stroke="#D6D6D6" stroke-width="0.5"/>
<path d="M20.8217 29C20.8217 29 19.2511 18.6377 7.55322 18" stroke="#D6D6D6" stroke-width="0.5"/>
<path d="M135.709 89.4961H136.14V86.2471L135.24 86.7363V86.124L136.477 85.4326H136.711V89.4961H137.147V90H135.709V89.4961ZM138.223 89.4961H138.653V86.2471L137.754 86.7363V86.124L138.99 85.4326H139.225V89.4961H139.661V90H138.223V89.4961Z" fill="#D6D6D6"/>
<path d="M87.709 5.49609H88.1396V2.24707L87.2402 2.73633V2.12402L88.4766 1.43262H88.7109V5.49609H89.1475V6H87.709V5.49609ZM90.4424 3.38086C90.5518 3.30664 90.6641 3.25098 90.7793 3.21387C90.8945 3.1748 91.0264 3.15527 91.1748 3.15527C91.3936 3.15527 91.5947 3.19434 91.7783 3.27246C91.9619 3.35059 92.1191 3.45605 92.25 3.58887C92.3828 3.72168 92.4854 3.87695 92.5576 4.05469C92.6318 4.23047 92.6689 4.41699 92.6689 4.61426C92.6689 4.81348 92.6328 5.00293 92.5605 5.18262C92.4883 5.36035 92.3857 5.5166 92.2529 5.65137C92.1201 5.78613 91.96 5.89355 91.7725 5.97363C91.5869 6.05176 91.3799 6.09082 91.1514 6.09082C90.9775 6.09082 90.8154 6.06738 90.665 6.02051C90.5146 5.97559 90.3789 5.91211 90.2578 5.83008C90.1367 5.74609 90.0312 5.64648 89.9414 5.53125C89.8535 5.41602 89.7832 5.29004 89.7305 5.15332L90.2109 4.91309C90.2422 5.0127 90.2881 5.10547 90.3486 5.19141C90.4092 5.27539 90.4805 5.34863 90.5625 5.41113C90.6445 5.47168 90.7354 5.51953 90.835 5.55469C90.9346 5.58789 91.04 5.60449 91.1514 5.60449C91.292 5.60449 91.4219 5.5791 91.541 5.52832C91.6621 5.47559 91.7666 5.4043 91.8545 5.31445C91.9443 5.22461 92.0146 5.12012 92.0654 5.00098C92.1162 4.87988 92.1416 4.75098 92.1416 4.61426C92.1416 4.47559 92.1162 4.34766 92.0654 4.23047C92.0146 4.11133 91.9443 4.00879 91.8545 3.92285C91.7646 3.83496 91.6592 3.7666 91.5381 3.71777C91.4189 3.66699 91.29 3.6416 91.1514 3.6416C90.9951 3.6416 90.8506 3.66992 90.7178 3.72656C90.5869 3.78125 90.4775 3.85547 90.3896 3.94922L89.959 3.88184V1.55859H92.4609V2.04492H90.4424V3.38086Z" fill="#D6D6D6"/>
<path d="M40.5332 6.49609H40.876C40.9814 6.19531 41.0977 5.89062 41.2246 5.58203C41.3516 5.27148 41.4805 4.96973 41.6113 4.67676C41.7422 4.38379 41.8711 4.10547 41.998 3.8418C42.125 3.57617 42.2412 3.33691 42.3467 3.12402H40.6826V3.4668H40.1201V2.55859H43.0352V2.99805C42.9062 3.25195 42.7715 3.52148 42.6309 3.80664C42.4902 4.08984 42.3506 4.38086 42.2119 4.67969C42.0752 4.97852 41.9424 5.28125 41.8135 5.58789C41.6846 5.89453 41.5674 6.19727 41.4619 6.49609H41.8311V7H40.5332V6.49609Z" fill="#D6D6D6"/>
<path d="M155.709 7.49609H156.14V4.24707L155.24 4.73633V4.12402L156.477 3.43262H156.711V7.49609H157.147V8H155.709V7.49609ZM158.223 7.49609H158.653V4.24707L157.754 4.73633V4.12402L158.99 3.43262H159.225V7.49609H159.661V8H158.223V7.49609Z" fill="#D6D6D6"/>
<path d="M223.258 59.5693L224.819 57.6826C224.872 57.6201 224.927 57.5527 224.983 57.4805C225.042 57.4082 225.096 57.332 225.145 57.252C225.195 57.1719 225.236 57.0889 225.268 57.0029C225.301 56.915 225.317 56.8242 225.317 56.7305C225.317 56.6328 225.298 56.541 225.259 56.4551C225.22 56.3691 225.166 56.2939 225.098 56.2295C225.029 56.165 224.947 56.1143 224.852 56.0771C224.758 56.04 224.654 56.0215 224.541 56.0215C224.439 56.0215 224.343 56.0381 224.251 56.0713C224.161 56.1025 224.082 56.1494 224.014 56.2119C223.945 56.2744 223.89 56.3525 223.847 56.4463C223.806 56.5381 223.783 56.6445 223.779 56.7656H223.252C223.254 56.5801 223.29 56.4092 223.36 56.2529C223.431 56.0947 223.524 55.959 223.642 55.8457C223.761 55.7305 223.898 55.6416 224.055 55.5791C224.211 55.5146 224.375 55.4824 224.547 55.4824C224.746 55.4824 224.927 55.5146 225.089 55.5791C225.251 55.6416 225.39 55.7285 225.505 55.8398C225.62 55.9512 225.709 56.083 225.771 56.2354C225.836 56.3877 225.868 56.5527 225.868 56.7305C225.868 56.8008 225.859 56.876 225.842 56.9561C225.826 57.0342 225.798 57.1191 225.757 57.2109C225.718 57.3008 225.665 57.3975 225.599 57.501C225.534 57.6045 225.452 57.7158 225.353 57.835L223.967 59.4844H225.862V60H223.258V59.5693ZM227.151 57.3809C227.261 57.3066 227.373 57.251 227.488 57.2139C227.604 57.1748 227.735 57.1553 227.884 57.1553C228.103 57.1553 228.304 57.1943 228.487 57.2725C228.671 57.3506 228.828 57.4561 228.959 57.5889C229.092 57.7217 229.194 57.877 229.267 58.0547C229.341 58.2305 229.378 58.417 229.378 58.6143C229.378 58.8135 229.342 59.0029 229.27 59.1826C229.197 59.3604 229.095 59.5166 228.962 59.6514C228.829 59.7861 228.669 59.8936 228.481 59.9736C228.296 60.0518 228.089 60.0908 227.86 60.0908C227.687 60.0908 227.524 60.0674 227.374 60.0205C227.224 59.9756 227.088 59.9121 226.967 59.8301C226.846 59.7461 226.74 59.6465 226.65 59.5312C226.562 59.416 226.492 59.29 226.439 59.1533L226.92 58.9131C226.951 59.0127 226.997 59.1055 227.058 59.1914C227.118 59.2754 227.189 59.3486 227.271 59.4111C227.354 59.4717 227.444 59.5195 227.544 59.5547C227.644 59.5879 227.749 59.6045 227.86 59.6045C228.001 59.6045 228.131 59.5791 228.25 59.5283C228.371 59.4756 228.476 59.4043 228.563 59.3145C228.653 59.2246 228.724 59.1201 228.774 59.001C228.825 58.8799 228.851 58.751 228.851 58.6143C228.851 58.4756 228.825 58.3477 228.774 58.2305C228.724 58.1113 228.653 58.0088 228.563 57.9229C228.474 57.835 228.368 57.7666 228.247 57.7178C228.128 57.667 227.999 57.6416 227.86 57.6416C227.704 57.6416 227.56 57.6699 227.427 57.7266C227.296 57.7812 227.187 57.8555 227.099 57.9492L226.668 57.8818V55.5586H229.17V56.0449H227.151V57.3809Z" fill="#D6D6D6"/>
<path d="M219.709 24.4961H220.14V21.2471L219.24 21.7363V21.124L220.477 20.4326H220.711V24.4961H221.147V25H219.709V24.4961ZM221.771 24.5693L223.333 22.6826C223.386 22.6201 223.44 22.5527 223.497 22.4805C223.556 22.4082 223.609 22.332 223.658 22.252C223.709 22.1719 223.75 22.0889 223.781 22.0029C223.814 21.915 223.831 21.8242 223.831 21.7305C223.831 21.6328 223.812 21.541 223.772 21.4551C223.733 21.3691 223.68 21.2939 223.611 21.2295C223.543 21.165 223.461 21.1143 223.365 21.0771C223.271 21.04 223.168 21.0215 223.055 21.0215C222.953 21.0215 222.856 21.0381 222.765 21.0713C222.675 21.1025 222.596 21.1494 222.527 21.2119C222.459 21.2744 222.403 21.3525 222.36 21.4463C222.319 21.5381 222.297 21.6445 222.293 21.7656H221.766C221.768 21.5801 221.804 21.4092 221.874 21.2529C221.944 21.0947 222.038 20.959 222.155 20.8457C222.274 20.7305 222.412 20.6416 222.568 20.5791C222.725 20.5146 222.889 20.4824 223.061 20.4824C223.26 20.4824 223.44 20.5146 223.603 20.5791C223.765 20.6416 223.903 20.7285 224.019 20.8398C224.134 20.9512 224.223 21.083 224.285 21.2354C224.35 21.3877 224.382 21.5527 224.382 21.7305C224.382 21.8008 224.373 21.876 224.355 21.9561C224.34 22.0342 224.312 22.1191 224.271 22.2109C224.231 22.3008 224.179 22.3975 224.112 22.501C224.048 22.6045 223.966 22.7158 223.866 22.835L222.48 24.4844H224.376V25H221.771V24.5693Z" fill="#D6D6D6"/>
<path d="M204.915 58.7484C204.915 58.7484 206.273 60 209.271 60C212.269 60 213.075 58.1685 215.509 57.3587C217.942 56.5489 220.9 57.3587 220.9 57.3587" stroke="#D6D6D6" stroke-width="0.5"/>
</g>
<path d="M217.641 23C217.641 23 215.311 23.9753 213.669 26.4036C212.028 28.8319 211.955 32.1516 210.528 34.049C209.101 35.9463 207.199 35.9463 207.199 35.9463" stroke="#D6D6D6" stroke-width="0.5"/>
<path d="M21.0002 39C21.0002 39 20.6525 40.6175 17.8941 45.3643C15.1356 50.1111 8.80518 51.5 8.80518 51.5" stroke="#D6D6D6" stroke-width="0.5" stroke-dasharray="1"/>
<path d="M21.0002 64C15.3274 64 15.2069 58.8878 13.262 56.9784C11.3172 55.069 9.41357 54.9722 9.41357 54.9722" stroke="#D6D6D6" stroke-width="0.5" stroke-dasharray="1"/>
<defs>
<clipPath id="clip0_0_2531">
<rect width="229.475" height="92" fill="white" transform="translate(0.525391)"/>
</clipPath>
</defs>
</svg>
