<svg width="372" height="372" viewBox="0 0 372 372" fill="none" xmlns="http://www.w3.org/2000/svg">
<path d="M185.9 4.5C85.2001 4.6 3.6001 86.3 3.6001 187.1C3.6001 220.3 12.4001 251.4 27.9001 278.2" stroke="#D6D6D6" stroke-width="2.5" stroke-miterlimit="10"/>
<path d="M344.5 278.1C360 251.3 368.8 220.2 368.8 187C368.8 86.2 287 4.5 186.2 4.5C186.1 4.5 186 4.5 185.9 4.5" stroke="#D6D6D6" stroke-width="2.5" stroke-miterlimit="10"/>
<path d="M27.8999 278.1C29.2999 280.5 30.4999 282.4 30.4999 282.4C62.5999 334.7 120.3 369.6 186.2 369.6C252.1 369.6 309.8 334.7 341.9 282.4C341.9 282.4 343.9 279.2 344.5 278.1" stroke="#D6D6D6" stroke-width="2.5" stroke-miterlimit="10"/>
</svg>
