<svg width="376" height="143" viewBox="0 0 376 143" fill="none" xmlns="http://www.w3.org/2000/svg">
<g clip-path="url(#clip0_0_2350)">
<path d="M19.25 86.5V86.75H19.75V86.5H19.25ZM19.5 31.5L18.0566 34H20.9434L19.5 31.5ZM19.75 86.5V33.75H19.25V86.5H19.75Z" fill="#D6D6D6"/>
<path d="M0.5 72.5H32.5" stroke="white" stroke-width="0.5" stroke-linecap="square"/>
<path d="M20.8086 92.5312C20.8086 92.4043 20.7809 92.2692 20.7256 92.126C20.6735 91.9795 20.5905 91.846 20.4766 91.7256C20.3659 91.6019 20.2243 91.501 20.0518 91.4229C19.8825 91.3415 19.6823 91.3008 19.4512 91.3008C19.2591 91.3008 19.0833 91.335 18.9238 91.4033C18.7676 91.4684 18.6113 91.5921 18.4551 91.7744C18.2988 91.9567 18.2142 92.1585 18.2012 92.3799H17.2734C17.2897 92.0967 17.3597 91.8411 17.4834 91.6133C17.6104 91.3854 17.7699 91.1852 17.9619 91.0127C18.154 90.8402 18.3786 90.7035 18.6357 90.6025C18.8929 90.5016 19.1615 90.4512 19.4414 90.4512C19.7897 90.4512 20.1055 90.5098 20.3887 90.627C20.6719 90.7409 20.9128 90.8939 21.1113 91.0859C21.3132 91.2747 21.4678 91.4912 21.5752 91.7354C21.6859 91.9795 21.7412 92.2285 21.7412 92.4824C21.7412 92.6387 21.7217 92.7949 21.6826 92.9512C21.6436 93.1074 21.5817 93.2572 21.4971 93.4004C21.4157 93.5404 21.3099 93.6706 21.1797 93.791C21.0495 93.9115 20.8916 94.0173 20.7061 94.1084C20.859 94.167 21.0023 94.25 21.1357 94.3574C21.2725 94.4616 21.3913 94.5869 21.4922 94.7334C21.5931 94.8799 21.6729 95.0459 21.7314 95.2314C21.79 95.417 21.8193 95.6204 21.8193 95.8418C21.8193 96.1608 21.7575 96.457 21.6338 96.7305C21.5101 97.0007 21.3424 97.235 21.1309 97.4336C20.9193 97.6322 20.6702 97.7884 20.3838 97.9023C20.1006 98.013 19.7962 98.0684 19.4707 98.0684C19.1712 98.0684 18.8734 98.0163 18.5771 97.9121C18.2842 97.8047 18.0352 97.6533 17.8301 97.458C17.625 97.2627 17.4736 97.0592 17.376 96.8477C17.2783 96.6361 17.2197 96.4261 17.2002 96.2178H18.1377C18.2321 96.5205 18.3997 96.7581 18.6406 96.9307C18.8848 97.1032 19.194 97.1895 19.5684 97.1895C19.7376 97.1895 19.902 97.1553 20.0615 97.0869C20.2243 97.0186 20.3675 96.9242 20.4912 96.8037C20.6149 96.68 20.7142 96.5368 20.7891 96.374C20.8639 96.208 20.9014 96.0273 20.9014 95.832C20.9014 95.627 20.8639 95.4414 20.7891 95.2754C20.7142 95.1094 20.6133 94.9694 20.4863 94.8555C20.3594 94.7383 20.2113 94.6488 20.042 94.5869C19.876 94.5218 19.6986 94.4893 19.5098 94.4893H19.0898V93.752H19.4316C19.6465 93.752 19.8385 93.721 20.0078 93.6592C20.1803 93.5941 20.3252 93.5062 20.4424 93.3955C20.5596 93.2848 20.6491 93.1562 20.7109 93.0098C20.776 92.86 20.8086 92.7005 20.8086 92.5312Z" fill="#D6D6D6"/>
</g>
<g clip-path="url(#clip1_0_2350)">
<path d="M356.75 86.5V86.75H356.25V86.5H356.75ZM356.5 31.5L357.943 34H355.057L356.5 31.5ZM356.25 86.5V33.75H356.75V86.5H356.25Z" fill="#D6D6D6"/>
<path d="M375.5 72.5H343.5" stroke="white" stroke-width="0.5" stroke-linecap="square"/>
<path d="M357.809 92.5312C357.809 92.4043 357.781 92.2692 357.726 92.126C357.674 91.9795 357.59 91.846 357.477 91.7256C357.366 91.6019 357.224 91.501 357.052 91.4229C356.882 91.3415 356.682 91.3008 356.451 91.3008C356.259 91.3008 356.083 91.335 355.924 91.4033C355.768 91.4684 355.611 91.5921 355.455 91.7744C355.299 91.9567 355.214 92.1585 355.201 92.3799H354.273C354.29 92.0967 354.36 91.8411 354.483 91.6133C354.61 91.3854 354.77 91.1852 354.962 91.0127C355.154 90.8402 355.379 90.7035 355.636 90.6025C355.893 90.5016 356.161 90.4512 356.441 90.4512C356.79 90.4512 357.105 90.5098 357.389 90.627C357.672 90.7409 357.913 90.8939 358.111 91.0859C358.313 91.2747 358.468 91.4912 358.575 91.7354C358.686 91.9795 358.741 92.2285 358.741 92.4824C358.741 92.6387 358.722 92.7949 358.683 92.9512C358.644 93.1074 358.582 93.2572 358.497 93.4004C358.416 93.5404 358.31 93.6706 358.18 93.791C358.049 93.9115 357.892 94.0173 357.706 94.1084C357.859 94.167 358.002 94.25 358.136 94.3574C358.272 94.4616 358.391 94.5869 358.492 94.7334C358.593 94.8799 358.673 95.0459 358.731 95.2314C358.79 95.417 358.819 95.6204 358.819 95.8418C358.819 96.1608 358.757 96.457 358.634 96.7305C358.51 97.0007 358.342 97.235 358.131 97.4336C357.919 97.6322 357.67 97.7884 357.384 97.9023C357.101 98.013 356.796 98.0684 356.471 98.0684C356.171 98.0684 355.873 98.0163 355.577 97.9121C355.284 97.8047 355.035 97.6533 354.83 97.458C354.625 97.2627 354.474 97.0592 354.376 96.8477C354.278 96.6361 354.22 96.4261 354.2 96.2178H355.138C355.232 96.5205 355.4 96.7581 355.641 96.9307C355.885 97.1032 356.194 97.1895 356.568 97.1895C356.738 97.1895 356.902 97.1553 357.062 97.0869C357.224 97.0186 357.368 96.9242 357.491 96.8037C357.615 96.68 357.714 96.5368 357.789 96.374C357.864 96.208 357.901 96.0273 357.901 95.832C357.901 95.627 357.864 95.4414 357.789 95.2754C357.714 95.1094 357.613 94.9694 357.486 94.8555C357.359 94.7383 357.211 94.6488 357.042 94.5869C356.876 94.5218 356.699 94.4893 356.51 94.4893H356.09V93.752H356.432C356.646 93.752 356.839 93.721 357.008 93.6592C357.18 93.5941 357.325 93.5062 357.442 93.3955C357.56 93.2848 357.649 93.1562 357.711 93.0098C357.776 92.86 357.809 92.7005 357.809 92.5312Z" fill="#D6D6D6"/>
</g>
<path d="M248.493 110C248.493 110 247.947 131.989 263.73 137.845" stroke="#D6D6D6" stroke-width="0.5"/>
<path d="M349.025 15.3132C349.025 15.3132 327.036 14.7672 321.18 30.5502" stroke="#D6D6D6" stroke-width="0.5" stroke-dasharray="3"/>
<path d="M157.364 117C157.364 117 155.374 130.129 140.553 130.937" stroke="#D6D6D6" stroke-width="0.5"/>
<path d="M306.364 118C306.364 118 304.233 136.84 288.364 138" stroke="#D6D6D6" stroke-width="0.5"/>
<path d="M23.9819 9.23145C23.9819 9.23145 31.0048 9.23145 31.0048 25.6275C31.0048 42.0236 41.9819 42.0236 41.9819 42.0236" stroke="#D6D6D6" stroke-width="0.5"/>
<path d="M158.051 14.3223C158.051 14.3223 163.466 14.6211 163.758 21.529C164.051 28.4369 170.051 30.3223 170.051 30.3223" stroke="#D6D6D6" stroke-width="0.5"/>
<path d="M255.621 37.9252C255.621 37.9252 271.88 33.3852 271.88 14.9492" stroke="#D6D6D6" stroke-width="0.5"/>
<path d="M104.262 30.0002L105.551 27.4171L102.669 27.5924L104.262 30.0002ZM83.9209 6.62207C83.9113 6.87189 83.9113 6.87189 83.9113 6.87189C83.9114 6.87189 83.9115 6.87189 83.9116 6.8719C83.912 6.87191 83.9127 6.87194 83.9136 6.87198C83.9154 6.87206 83.9184 6.87219 83.9224 6.87238C83.9305 6.87276 83.9429 6.87338 83.9595 6.87431C83.9927 6.87617 84.0427 6.87929 84.1084 6.88422C84.2398 6.8941 84.4341 6.91128 84.6828 6.94038C85.1802 6.9986 85.8949 7.10447 86.7592 7.2949C88.4886 7.67592 90.8127 8.39445 93.1936 9.74362C97.9447 12.4359 102.943 17.6495 103.876 27.7757L104.374 27.7298C103.424 17.4259 98.3204 12.0741 93.4401 9.30861C91.0053 7.92888 88.6314 7.19539 86.8668 6.80661C85.9841 6.61214 85.2527 6.50367 84.7409 6.44377C84.4849 6.41381 84.2837 6.39599 84.1458 6.38563C84.0769 6.38045 84.0238 6.37713 83.9875 6.3751C83.9694 6.37408 83.9555 6.37338 83.9459 6.37293C83.9412 6.37271 83.9375 6.37254 83.9349 6.37243C83.9336 6.37238 83.9326 6.37234 83.9318 6.37231C83.9315 6.37229 83.9311 6.37228 83.9309 6.37227C83.9307 6.37226 83.9305 6.37225 83.9209 6.62207Z" fill="#D6D6D6"/>
<g clip-path="url(#clip2_0_2350)">
<path d="M272.43 140.282L275.032 137.138C275.12 137.034 275.211 136.921 275.306 136.801C275.403 136.68 275.493 136.553 275.574 136.42C275.659 136.286 275.727 136.148 275.779 136.005C275.835 135.858 275.862 135.707 275.862 135.551C275.862 135.388 275.83 135.235 275.765 135.092C275.7 134.949 275.61 134.823 275.496 134.716C275.382 134.608 275.245 134.524 275.086 134.462C274.93 134.4 274.757 134.369 274.568 134.369C274.399 134.369 274.238 134.397 274.085 134.452C273.935 134.504 273.803 134.582 273.689 134.687C273.576 134.791 273.483 134.921 273.411 135.077C273.343 135.23 273.305 135.408 273.299 135.609H272.42C272.423 135.3 272.483 135.015 272.601 134.755C272.718 134.491 272.874 134.265 273.069 134.076C273.268 133.884 273.497 133.736 273.758 133.632C274.018 133.524 274.292 133.471 274.578 133.471C274.91 133.471 275.211 133.524 275.481 133.632C275.752 133.736 275.983 133.881 276.175 134.066C276.367 134.252 276.515 134.472 276.619 134.726C276.727 134.979 276.78 135.255 276.78 135.551C276.78 135.668 276.766 135.793 276.736 135.927C276.71 136.057 276.663 136.199 276.595 136.352C276.53 136.501 276.442 136.662 276.331 136.835C276.224 137.007 276.087 137.193 275.921 137.392L273.611 140.141H276.771V141H272.43V140.282ZM277.801 140.282L280.403 137.138C280.491 137.034 280.582 136.921 280.677 136.801C280.774 136.68 280.864 136.553 280.945 136.42C281.03 136.286 281.098 136.148 281.15 136.005C281.206 135.858 281.233 135.707 281.233 135.551C281.233 135.388 281.201 135.235 281.136 135.092C281.071 134.949 280.981 134.823 280.867 134.716C280.753 134.608 280.617 134.524 280.457 134.462C280.301 134.4 280.128 134.369 279.939 134.369C279.77 134.369 279.609 134.397 279.456 134.452C279.306 134.504 279.174 134.582 279.061 134.687C278.947 134.791 278.854 134.921 278.782 135.077C278.714 135.23 278.676 135.408 278.67 135.609H277.791C277.794 135.3 277.854 135.015 277.972 134.755C278.089 134.491 278.245 134.265 278.44 134.076C278.639 133.884 278.868 133.736 279.129 133.632C279.389 133.524 279.663 133.471 279.949 133.471C280.281 133.471 280.582 133.524 280.853 133.632C281.123 133.736 281.354 133.881 281.546 134.066C281.738 134.252 281.886 134.472 281.99 134.726C282.098 134.979 282.151 135.255 282.151 135.551C282.151 135.668 282.137 135.793 282.107 135.927C282.081 136.057 282.034 136.199 281.966 136.352C281.901 136.501 281.813 136.662 281.702 136.835C281.595 137.007 281.458 137.193 281.292 137.392L278.982 140.141H282.142V141H277.801V140.282Z" fill="#D6D6D6"/>
<path d="M128.182 134.16H128.899V128.745L127.4 129.561V128.54L129.461 127.388H129.852V134.16H130.579V135H128.182V134.16ZM131.639 132.09L134.271 127.598H135.311L132.806 132.021H134.7V130.801L135.657 130.732V132.021H136.761V132.861H135.657V134.16H136.39V135H133.987V134.16H134.7V132.861H131.629L131.639 132.09Z" fill="#D6D6D6"/>
<path d="M16.8887 11.1602H17.46C17.6357 10.6589 17.8294 10.151 18.041 9.63672C18.2526 9.11914 18.4674 8.61621 18.6855 8.12793C18.9036 7.63965 19.1185 7.17578 19.3301 6.73633C19.5417 6.29362 19.7354 5.89486 19.9111 5.54004H17.1377V6.11133H16.2002V4.59766H21.0586V5.33008C20.8438 5.75326 20.6191 6.20247 20.3848 6.67773C20.1504 7.14974 19.9176 7.63477 19.6865 8.13281C19.4587 8.63086 19.2373 9.13542 19.0225 9.64648C18.8076 10.1576 18.6123 10.6621 18.4365 11.1602H19.0518V12H16.8887V11.1602Z" fill="#D6D6D6"/>
<path d="M76.4297 9.28223L79.0322 6.1377C79.1201 6.03353 79.2113 5.92122 79.3057 5.80078C79.4033 5.68034 79.4928 5.55339 79.5742 5.41992C79.6589 5.28646 79.7272 5.14811 79.7793 5.00488C79.8346 4.8584 79.8623 4.70703 79.8623 4.55078C79.8623 4.38802 79.8298 4.23503 79.7646 4.0918C79.6995 3.94857 79.61 3.82324 79.4961 3.71582C79.3822 3.6084 79.2454 3.52376 79.0859 3.46191C78.9297 3.40007 78.7572 3.36914 78.5684 3.36914C78.3991 3.36914 78.238 3.39681 78.085 3.45215C77.9352 3.50423 77.8034 3.58236 77.6895 3.68652C77.5755 3.79069 77.4827 3.9209 77.4111 4.07715C77.3428 4.23014 77.3053 4.40755 77.2988 4.60938H76.4199C76.4232 4.30013 76.4834 4.0153 76.6006 3.75488C76.7178 3.49121 76.874 3.26497 77.0693 3.07617C77.2679 2.88411 77.4974 2.736 77.7578 2.63184C78.0182 2.52441 78.2917 2.4707 78.5781 2.4707C78.9102 2.4707 79.2113 2.52441 79.4814 2.63184C79.7516 2.736 79.9827 2.88086 80.1748 3.06641C80.3669 3.25195 80.515 3.47168 80.6191 3.72559C80.7266 3.97949 80.7803 4.25456 80.7803 4.55078C80.7803 4.66797 80.7656 4.79329 80.7363 4.92676C80.7103 5.05697 80.6631 5.19857 80.5947 5.35156C80.5296 5.5013 80.4417 5.66243 80.3311 5.83496C80.2236 6.00749 80.0869 6.19303 79.9209 6.3916L77.6113 9.14062H80.7705V10H76.4297V9.28223Z" fill="#D6D6D6"/>
<path d="M149.182 15.1602H149.899V9.74512L148.4 10.5605V9.54004L150.461 8.3877H150.852V15.1602H151.579V16H149.182V15.1602ZM153.371 15.1602H154.089V9.74512L152.59 10.5605V9.54004L154.65 8.3877H155.041V15.1602H155.769V16H153.371V15.1602Z" fill="#D6D6D6"/>
<path d="M270.182 9.16016H270.899V3.74512L269.4 4.56055V3.54004L271.461 2.3877H271.852V9.16016H272.579V10H270.182V9.16016ZM274.737 5.63477C274.92 5.51107 275.107 5.41829 275.299 5.35645C275.491 5.29134 275.711 5.25879 275.958 5.25879C276.323 5.25879 276.658 5.32389 276.964 5.4541C277.27 5.58431 277.532 5.76009 277.75 5.98145C277.971 6.2028 278.142 6.46159 278.263 6.75781C278.386 7.05078 278.448 7.36165 278.448 7.69043C278.448 8.02246 278.388 8.33822 278.268 8.6377C278.147 8.93392 277.976 9.19434 277.755 9.41895C277.534 9.64355 277.267 9.82259 276.954 9.95605C276.645 10.0863 276.3 10.1514 275.919 10.1514C275.629 10.1514 275.359 10.1123 275.108 10.0342C274.858 9.95931 274.632 9.85352 274.43 9.7168C274.228 9.57682 274.052 9.41081 273.902 9.21875C273.756 9.02669 273.639 8.81673 273.551 8.58887L274.352 8.18848C274.404 8.35449 274.48 8.50911 274.581 8.65234C274.682 8.79232 274.801 8.91439 274.938 9.01855C275.074 9.11947 275.226 9.19922 275.392 9.25781C275.558 9.31315 275.733 9.34082 275.919 9.34082C276.153 9.34082 276.37 9.2985 276.568 9.21387C276.77 9.12598 276.944 9.00716 277.091 8.85742C277.241 8.70768 277.358 8.53353 277.442 8.33496C277.527 8.13314 277.569 7.91829 277.569 7.69043C277.569 7.45931 277.527 7.24609 277.442 7.05078C277.358 6.85221 277.241 6.68132 277.091 6.53809C276.941 6.3916 276.765 6.27767 276.563 6.19629C276.365 6.11165 276.15 6.06934 275.919 6.06934C275.659 6.06934 275.418 6.11654 275.196 6.21094C274.978 6.30208 274.796 6.42578 274.649 6.58203L273.932 6.46973V2.59766H278.102V3.4082H274.737V5.63477Z" fill="#D6D6D6"/>
<path d="M354.182 17.1602H354.899V11.7451L353.4 12.5605V11.54L355.461 10.3877H355.852V17.1602H356.579V18H354.182V17.1602ZM357.619 17.2822L360.222 14.1377C360.31 14.0335 360.401 13.9212 360.495 13.8008C360.593 13.6803 360.682 13.5534 360.764 13.4199C360.848 13.2865 360.917 13.1481 360.969 13.0049C361.024 12.8584 361.052 12.707 361.052 12.5508C361.052 12.388 361.019 12.235 360.954 12.0918C360.889 11.9486 360.799 11.8232 360.686 11.7158C360.572 11.6084 360.435 11.5238 360.275 11.4619C360.119 11.4001 359.947 11.3691 359.758 11.3691C359.589 11.3691 359.427 11.3968 359.274 11.4521C359.125 11.5042 358.993 11.5824 358.879 11.6865C358.765 11.7907 358.672 11.9209 358.601 12.0771C358.532 12.2301 358.495 12.4076 358.488 12.6094H357.609C357.613 12.3001 357.673 12.0153 357.79 11.7549C357.907 11.4912 358.063 11.265 358.259 11.0762C358.457 10.8841 358.687 10.736 358.947 10.6318C359.208 10.5244 359.481 10.4707 359.768 10.4707C360.1 10.4707 360.401 10.5244 360.671 10.6318C360.941 10.736 361.172 10.8809 361.364 11.0664C361.556 11.252 361.704 11.4717 361.809 11.7256C361.916 11.9795 361.97 12.2546 361.97 12.5508C361.97 12.668 361.955 12.7933 361.926 12.9268C361.9 13.057 361.853 13.1986 361.784 13.3516C361.719 13.5013 361.631 13.6624 361.521 13.835C361.413 14.0075 361.276 14.193 361.11 14.3916L358.801 17.1406H361.96V18H357.619V17.2822Z" fill="#D6D6D6"/>
</g>
<defs>
<clipPath id="clip0_0_2350">
<rect width="33" height="69" fill="white" transform="translate(0 31)"/>
</clipPath>
<clipPath id="clip1_0_2350">
<rect width="33" height="69" fill="white" transform="translate(343 31)"/>
</clipPath>
<clipPath id="clip2_0_2350">
<rect width="347" height="143" fill="white" transform="translate(16)"/>
</clipPath>
</defs>
</svg>
