<svg width="22" height="24" viewBox="0 0 22 24" fill="none" xmlns="http://www.w3.org/2000/svg">
<path fill-rule="evenodd" clip-rule="evenodd" d="M14.0323 2.18182C14.6459 2.18182 15.0419 2.18267 15.3435 2.20793C15.6325 2.23213 15.7397 2.27324 15.7924 2.30072C15.9926 2.40532 16.1554 2.5722 16.2574 2.77747C16.2842 2.8314 16.3243 2.94128 16.348 3.23765C16.3725 3.54673 16.3734 3.95286 16.3734 4.58182V7.63637V17.4545H5.73189V7.63637V4.58182C5.73189 3.95286 5.73272 3.54673 5.75735 3.23765C5.78097 2.94128 5.82106 2.8314 5.84787 2.77747C5.9499 2.5722 6.11269 2.40532 6.31292 2.30072C6.36554 2.27324 6.47272 2.23213 6.76182 2.20793C7.06332 2.18267 7.45948 2.18182 8.07302 2.18182H14.0323ZM3.60359 8.72728H4.66774C5.25545 8.72728 5.73189 8.23885 5.73189 7.63637C5.73189 7.03388 5.25545 6.54546 4.66774 6.54546H3.60359V4.58182L3.60358 4.53965C3.60357 3.96463 3.60355 3.46857 3.63612 3.05997C3.67049 2.62869 3.74638 2.19972 3.95154 1.78695C4.25761 1.17114 4.74599 0.670476 5.3467 0.356709C5.74935 0.146393 6.1678 0.0685892 6.5885 0.0333529C6.98709 -3.3663e-05 7.47103 -1.67616e-05 8.03199 2.82992e-06L8.07302 3.78364e-06H14.0323L14.0733 2.82991e-06C14.6343 -1.67616e-05 15.1182 -3.36617e-05 15.5168 0.0333529C15.9375 0.0685892 16.3559 0.146393 16.7586 0.356709C17.3593 0.670476 17.8477 1.17114 18.1537 1.78695C18.3589 2.19972 18.4348 2.62869 18.4691 3.05997C18.5017 3.46832 18.5017 3.96405 18.5017 4.53864L18.5017 4.58182V6.54546H17.4375C16.8498 6.54546 16.3734 7.03388 16.3734 7.63637C16.3734 8.23885 16.8498 8.72728 17.4375 8.72728H18.5017V17.4545H17.4375H16.3734V18.5455H17.4375H18.5017V17.4545H19.5658V19.6364H17.4375H4.66774H2.53943V17.4545H3.60359V18.5455H4.66774H5.73189V17.4545H4.66774H3.60359V8.72728ZM3.60359 8.72728C3.01588 8.72728 2.53943 9.2157 2.53943 9.81818V17.4545H1.47528V19.6364H2.53943V20.7273C2.53943 21.3298 3.01588 21.8182 3.60359 21.8182H18.5017C19.0894 21.8182 19.5658 21.3298 19.5658 20.7273V19.6364H20.63V17.4545H19.5658V9.81818C19.5658 9.21569 19.0894 8.72728 18.5017 8.72728V6.54546C20.2649 6.54546 21.6942 8.01071 21.6942 9.81818V20.7273C21.6942 22.5348 20.2649 24 18.5017 24H3.60359C1.84045 24 0.411133 22.5348 0.411133 20.7273V9.81818C0.411133 8.01071 1.84045 6.54546 3.60359 6.54546V8.72728ZM8.92434 4.36364C8.33663 4.36364 7.86019 4.85206 7.86019 5.45455C7.86019 6.05704 8.33663 6.54546 8.92434 6.54546H13.1809C13.7687 6.54546 14.2451 6.05704 14.2451 5.45455C14.2451 4.85206 13.7687 4.36364 13.1809 4.36364H8.92434ZM8.92434 8.72728C8.33663 8.72728 7.86019 9.2157 7.86019 9.81818C7.86019 10.4207 8.33663 10.9091 8.92434 10.9091H13.1809C13.7687 10.9091 14.2451 10.4207 14.2451 9.81818C14.2451 9.2157 13.7687 8.72728 13.1809 8.72728H8.92434ZM8.92434 13.0909C8.33663 13.0909 7.86019 13.5793 7.86019 14.1818C7.86019 14.7843 8.33663 15.2727 8.92434 15.2727H13.1809C13.7687 15.2727 14.2451 14.7843 14.2451 14.1818C14.2451 13.5793 13.7687 13.0909 13.1809 13.0909H8.92434Z" fill="white"/>
</svg>
