<svg width="24" height="24" viewBox="0 0 24 24" fill="none" xmlns="http://www.w3.org/2000/svg">
<path fill-rule="evenodd" clip-rule="evenodd" d="M10.0588 2C5.60806 2 2 5.60806 2 10.0588C2 14.5096 5.60806 18.1176 10.0588 18.1176C14.5096 18.1176 18.1176 14.5096 18.1176 10.0588C18.1176 5.60806 14.5096 2 10.0588 2ZM17.8436 16.4294C19.2648 14.6947 20.1176 12.4763 20.1176 10.0588C20.1176 4.50349 15.6142 0 10.0588 0C4.50349 0 0 4.50349 0 10.0588C0 15.6142 4.50349 20.1176 10.0588 20.1176C12.4763 20.1176 14.6947 19.2648 16.4294 17.8436L22.2929 23.7071C22.6834 24.0976 23.3166 24.0976 23.7071 23.7071C24.0976 23.3166 24.0976 22.6834 23.7071 22.2929L17.8436 16.4294ZM17.8436 16.4294C17.4201 16.9462 16.9462 17.4201 16.4294 17.8436L15.8223 17.2365L17.2365 15.8223L17.8436 16.4294Z" fill="white"/>
</svg>
