<svg width="28" height="27" viewBox="0 0 28 27" fill="none" xmlns="http://www.w3.org/2000/svg">
<circle cx="14" cy="12" r="2" fill="white"/>
<circle cx="20" cy="12" r="2" fill="white"/>
<circle cx="8" cy="12" r="2" fill="white"/>
<mask id="path-4-inside-1_0_1977" fill="white">
<path fill-rule="evenodd" clip-rule="evenodd" d="M14 24C21.732 24 28 18.6274 28 12C28 5.37258 21.732 0 14 0C6.26801 0 0 5.37258 0 12C0 15.7246 1.97971 19.0529 5.0864 21.2539L3.55236 25.3111C3.24624 26.1207 4.04347 26.9105 4.85018 26.5968L11.7587 23.9101L11.6041 23.825C12.3826 23.94 13.1831 24 14 24Z"/>
</mask>
<path d="M5.0864 21.2539L7.04132 21.9931C7.37777 21.1032 7.07085 20.0985 6.29462 19.5485L5.0864 21.2539ZM3.55236 25.3111L5.50729 26.0503L3.55236 25.3111ZM4.85018 26.5968L4.09266 24.6489H4.09266L4.85018 26.5968ZM11.7587 23.9101L12.5162 25.858C13.2726 25.5639 13.7903 24.8584 13.8441 24.0486C13.8979 23.2389 13.478 22.4711 12.7672 22.0795L11.7587 23.9101ZM11.6041 23.825L11.9097 21.7574C10.9094 21.6096 9.94664 22.1991 9.62361 23.1573C9.30058 24.1156 9.70992 25.1676 10.5956 25.6556L11.6041 23.825ZM25.91 12C25.91 17.1825 20.8916 21.91 14 21.91V26.09C22.5724 26.09 30.09 20.0723 30.09 12H25.91ZM14 2.09C20.8916 2.09 25.91 6.81751 25.91 12H30.09C30.09 3.92766 22.5724 -2.09 14 -2.09V2.09ZM2.09 12C2.09 6.81751 7.10842 2.09 14 2.09V-2.09C5.4276 -2.09 -2.09 3.92766 -2.09 12H2.09ZM6.29462 19.5485C3.64976 17.6747 2.09 14.9422 2.09 12H-2.09C-2.09 16.507 0.309663 20.4311 3.87817 22.9593L6.29462 19.5485ZM3.13147 20.5147L1.59743 24.572L5.50729 26.0503L7.04132 21.9931L3.13147 20.5147ZM1.59743 24.572C0.651518 27.0737 3.11497 29.5141 5.60769 28.5447L4.09266 24.6489C4.97197 24.3069 5.84096 25.1678 5.50729 26.0503L1.59743 24.572ZM5.60769 28.5447L12.5162 25.858L11.0012 21.9622L4.09266 24.6489L5.60769 28.5447ZM12.7672 22.0795L12.6126 21.9944L10.5956 25.6556L10.7502 25.7407L12.7672 22.0795ZM14 21.91C13.2855 21.91 12.5871 21.8575 11.9097 21.7574L11.2985 25.8925C12.1782 26.0225 13.0808 26.09 14 26.09V21.91Z" fill="white" mask="url(#path-4-inside-1_0_1977)"/>
</svg>
