<svg width="173" height="82" viewBox="0 0 173 82" fill="none" xmlns="http://www.w3.org/2000/svg">
<path fill-rule="evenodd" clip-rule="evenodd" d="M113.021 82C113.021 81.0501 112.966 80.3129 113.034 79.5867C113.132 78.5387 113.399 77.5031 113.451 76.4548C113.583 73.8327 113.816 73.4941 116.358 72.6073C119.775 71.4155 123.139 70.043 126.61 69.0406C132.091 67.4572 132.506 63.5 131.984 59.6292C131.48 55.8854 129.604 52.713 127.508 49.7088C126.41 51.3296 125.439 52.9835 124.241 54.4508C123.523 55.3298 122.535 56.0875 121.518 56.601C119.196 57.7742 116.929 57.0913 115.641 54.8438C114.028 52.0301 113.831 48.9445 114.33 45.8045C114.529 44.5534 115.319 43.9358 116.64 43.8398C119.643 43.6215 119.603 43.5855 120.14 46.6634C120.245 47.2666 120.764 47.7971 121.093 48.3611C121.552 47.8807 122.204 47.4782 122.433 46.9057C123.062 45.3336 123.507 43.6882 124.036 42.0752C124.526 40.5789 125.652 39.907 127.129 40.0103C128.556 40.1101 129.996 40.1761 130.753 41.9041C131.305 43.164 132.303 44.2296 133.119 45.3707C135.594 48.8355 137.508 52.5641 138.473 56.7435C139.838 62.6545 138.564 67.9323 134.517 72.4352C128.872 78.7168 121.602 81.4349 113.021 82Z" fill="#D8D8D8"/>
<mask id="mask0_0_79" style="mask-type:luminance" maskUnits="userSpaceOnUse" x="31" y="0" width="26" height="39">
<path fill-rule="evenodd" clip-rule="evenodd" d="M31 0H57V39H31V0Z" fill="white"/>
</mask>
<g mask="url(#mask0_0_79)">
<path fill-rule="evenodd" clip-rule="evenodd" d="M44.2192 7.42825C45.4305 6.33463 46.358 5.3269 47.4507 4.55033C49.2072 3.3026 51.0499 2.16939 52.9006 1.06199C54.1339 0.323952 55.1698 0.820924 55.9918 1.85163C57.6629 3.94591 57.2109 6.66971 54.9746 8.08074C54.8751 8.14366 54.7784 8.23662 54.6696 8.25642C50.3484 9.04217 49.3606 12.6139 48.1607 16.0051C47.298 18.4433 46.5274 20.9175 45.5691 23.3172C44.3833 26.2863 44.3833 29.2826 45.0259 32.3327C45.9843 36.8793 44.4095 38.9637 39.7396 38.9994C37.6327 39.0153 35.5158 38.7131 33.4199 38.4331C32.9289 38.3678 32.3216 37.8909 32.1165 37.4442C31.9911 37.1713 32.4169 36.3937 32.7886 36.1851C36.4852 34.1067 36.7612 30.5749 36.6857 26.9795C36.5762 21.7454 36.3385 16.5127 36.0785 11.2835C35.9913 9.52854 35.6296 7.78914 35.4684 6.03559C35.3557 4.80872 34.9245 4.2149 33.5556 4.45631C33.0543 4.54503 32.3889 4.26509 31.934 3.95475C30.6412 3.0732 30.7036 1.64768 32.0396 0.815269C33.9184 -0.355408 35.9045 -0.123888 37.8247 0.621216C40.1382 1.51866 42.0712 2.90531 43.0533 5.33008C43.3123 5.96985 43.7236 6.54812 44.2192 7.42825Z" fill="#D8D8D8"/>
</g>
<path fill-rule="evenodd" clip-rule="evenodd" d="M84.4509 53.1438C83.4036 57.0184 82.3474 60.8906 81.3141 64.7687C81.0325 65.8256 80.9546 66.958 80.5252 67.9452C80.2629 68.5478 79.4912 69.3504 78.9796 69.3288C78.2363 69.2975 77.0928 68.7558 76.8786 68.1626C76.3431 66.6779 75.8716 65.0042 76.0317 63.4739C76.3424 60.5018 77.1384 57.5824 77.6637 54.6291C77.9242 53.1647 78.0541 51.6756 78.2008 50.1934C78.4052 48.135 78.3002 46.0028 78.8216 44.0308C79.4297 41.7325 81.2909 41.3138 82.6546 43.1405C84.0935 45.0679 85.986 45.2389 88.0147 45.2678C91.2701 45.3148 94.6274 47.3659 95.6133 50.4585C97.1399 55.2468 98.4464 60.1065 99.7336 64.9655C100.19 66.6894 100.223 68.7116 98.4998 69.6803C96.7327 70.6734 95.3138 69.1345 94.0709 68.0386C90.2631 64.6813 87.8609 60.4217 86.2388 55.6843C85.9459 54.8291 85.585 53.9973 85.2553 53.1546C84.9874 53.1508 84.7192 53.1473 84.4509 53.1438Z" fill="#D8D8D8"/>
<mask id="mask1_0_79" style="mask-type:luminance" maskUnits="userSpaceOnUse" x="116" y="27" width="57" height="17">
<path fill-rule="evenodd" clip-rule="evenodd" d="M116 27H173V44H116V27Z" fill="white"/>
</mask>
<g mask="url(#mask1_0_79)">
<path fill-rule="evenodd" clip-rule="evenodd" d="M131.259 38.6332C128.744 36.7152 126.25 36.0802 123.339 36.8158C121.778 37.21 120.094 37.3203 118.479 37.2523C117.639 37.2169 116.299 36.6712 116.119 36.0822C115.809 35.0647 116.181 33.827 116.369 32.6978C116.412 32.4392 116.836 32.1892 117.137 32.0319C120.012 30.5273 122.856 28.9558 125.795 27.5797C128.497 26.3149 131.153 27.4241 133.814 28.0389C137.557 28.904 141.316 29.7151 145.09 30.4394C146.393 30.6894 147.762 30.6874 149.099 30.6671C152.023 30.6221 153.221 29.9978 155.092 27.5643C155.769 28.28 156.593 28.8621 156.996 29.6509C157.52 30.6764 158.279 31.0682 159.307 31.4779C162.538 32.7658 165.731 34.158 168.865 35.6584C171.04 36.6997 172.136 38.694 172.823 40.8778C173.006 41.4575 173.065 42.1533 172.915 42.7299C172.789 43.2162 172.358 43.7846 171.91 43.9765C171.623 44.0991 170.89 43.7183 170.646 43.369C167.376 38.6861 162.174 37.8498 157.089 36.8958C154.925 36.4895 152.656 36.6475 150.469 36.3257C147.842 35.9397 145.165 35.5654 142.668 34.7322C139.459 33.6614 136.301 33.4502 133.054 34.1532C132.632 34.2449 132.171 34.848 132.018 35.3068C131.682 36.3154 131.531 37.3835 131.259 38.6332Z" fill="#D8D8D8"/>
</g>
<path fill-rule="evenodd" clip-rule="evenodd" d="M68.7764 54.5562C68.7537 54.3837 68.8801 53.5528 68.5284 53.0558C67.8396 52.0819 67.0076 50.8574 65.9978 50.5762C65.2726 50.3742 63.7302 51.3166 63.3121 52.1329C62.3383 54.0349 61.5545 56.124 61.1989 58.2218C60.8538 60.2596 61.8873 61.0415 63.9747 60.9825C66.7847 60.9027 68.7166 58.5213 68.7764 54.5562ZM55.1017 58.8896C55.2285 55.1754 55.7985 51.5994 57.4779 48.1817C59.0724 44.9368 64.7218 42.6488 67.6768 43.0445C69.7512 43.3221 71.2898 44.3207 72.4111 46.1658C75.7855 51.7181 75.8474 57.2639 72.6779 62.8894C72.5078 63.1917 72.2878 63.4746 72.1683 63.795C70.235 68.9818 65.3917 69.4157 60.9987 68.7694C57.0975 68.1953 54.8851 64.7897 55.0046 60.2717C55.0168 59.8104 55.0685 59.3502 55.1017 58.8896Z" fill="#D8D8D8"/>
<mask id="mask2_0_79" style="mask-type:luminance" maskUnits="userSpaceOnUse" x="0" y="40" width="55" height="13">
<path fill-rule="evenodd" clip-rule="evenodd" d="M0 40H55V53H0V40Z" fill="white"/>
</mask>
<g mask="url(#mask2_0_79)">
<path fill-rule="evenodd" clip-rule="evenodd" d="M25.4144 43.0983C25.6832 42.0894 25.9399 41.1262 26.24 40C26.7556 40.2469 27.1162 40.3805 27.4342 40.5788C28.5774 41.291 29.7103 42.0186 30.8393 42.7523C34.9839 45.4451 39.2612 45.3507 43.6422 43.3407C47.6832 41.4869 51.4315 42.8559 55.0001 43.9715C54.7676 45.2369 54.6942 46.2062 54.3824 47.0985C54.2164 47.5741 53.7162 48.0832 53.2331 48.2938C49.7333 49.8187 46.2399 51.3743 42.6518 52.6859C41.5288 53.0961 40.0278 53.0886 38.8589 52.7559C32.9733 51.0817 27.1501 49.2057 21.2773 47.488C20.5008 47.2609 19.4494 47.2958 18.7256 47.6209C16.474 48.633 13.7717 49.1992 13.1579 52.5498C12.458 51.826 11.9698 51.5019 11.7427 51.0553C10.7326 49.0682 9.02367 48.1365 6.82837 47.8695C5.19489 47.6705 3.55535 47.5102 1.92935 47.2657C1.26712 47.1662 0.63374 46.8896 0 46.4595C8.2849 43.9681 16.6179 42.1276 25.4144 43.0983Z" fill="#D8D8D8"/>
</g>
<path fill-rule="evenodd" clip-rule="evenodd" d="M66.9583 40C64.72 39.9783 63.6647 38.694 64.094 36.9143C64.5459 35.043 65.6725 33.6482 67.3681 32.7136C69.8426 31.3492 71.8652 29.4772 73.2947 27.0113C74.6013 24.7579 74.6101 22.5184 73.0465 20.3505C72.5275 19.6308 72.0421 18.8873 71.5414 18.1545C68.9628 14.3798 68.7761 10.6286 71.4091 6.93051C73.372 4.17344 75.9432 1.95674 79.0461 0.497116C80.6086 -0.237864 82.1549 -0.254261 83.4259 1.10734C85.434 3.25846 85.6846 4.68315 83.2179 6.46108C81.2346 7.89041 79.6063 9.82196 77.8182 11.5286C76.8438 12.4585 77.0291 13.2848 77.8277 14.2949C79.4344 16.3274 81.0951 18.3551 82.3936 20.5868C83.882 23.1443 83.4527 24.795 81.4905 27.0177C78.7142 30.1633 76.047 33.4091 73.2272 36.5137C71.4398 38.4819 69.1605 39.6767 66.9583 40Z" fill="#D8D8D8"/>
<path fill-rule="evenodd" clip-rule="evenodd" d="M90.165 16.8062C90.5886 16.7374 90.7142 16.744 90.8147 16.697C93.1096 15.6274 94.7711 13.8818 95.9048 11.6766C96.2806 10.9463 95.7708 10.3347 94.9281 10.6789C92.5973 11.6303 90.6901 13.0887 89.9253 15.6198C89.8206 15.9661 90.0792 16.422 90.165 16.8062ZM100.233 11.598C100.352 13.7911 99.2848 15.5217 97.4624 16.7735C96.1794 17.6547 94.8123 18.4499 93.395 19.0915C92.0757 19.6889 91.4564 20.5192 91.7805 21.9373C92.2554 24.0153 92.6933 26.1065 93.2823 28.1532C93.754 29.7931 94.7307 30.2389 96.3196 29.5452C97.3699 29.0869 98.2488 28.228 99.3071 27.8003C100.087 27.4849 101.034 27.5763 101.906 27.4866C101.896 28.3528 102.17 29.3567 101.826 30.0612C100.404 32.9744 97.7945 34.6765 94.9023 35.8174C93.0066 36.5654 90.1109 34.9238 89.3949 32.5589C87.7571 27.1483 85.8722 21.7279 85.0861 16.1709C84.3837 11.2037 88.0331 5.79791 94.0813 5.0503C97.7781 4.59339 100.252 7.28687 100.233 11.598Z" fill="#D8D8D8"/>
<path fill-rule="evenodd" clip-rule="evenodd" d="M107.125 18.0104C107.792 18.6225 108.291 19.0169 108.713 19.4792C110.245 21.1599 111.994 22.7107 113.218 24.5887C115.84 28.6096 115.397 31.8873 111.662 34.9419C108.944 37.164 105.891 39.0119 102.877 40.8539C101.036 41.9798 99.0146 42.8393 97.0214 43.7006C95.9323 44.171 94.5174 44.1934 94.0981 42.9828C93.8022 42.1289 94.2258 40.8689 94.6995 39.9813C95.0304 39.3605 95.9391 38.9475 96.6756 38.6402C100.139 37.1941 103.484 35.5918 105.894 32.6082C107.569 30.5339 107.775 27.5821 106.448 25.2547C105.203 23.0729 103.86 20.9352 102.78 18.6767C102.339 17.7549 102.021 16.3434 102.429 15.5367C104.368 11.7061 107.854 8.12434 113.267 9.19074C115.032 9.53863 115.501 10.3985 114.433 11.8342C113.539 13.0357 112.356 14.0552 111.192 15.0309C109.985 16.0434 108.647 16.9065 107.125 18.0104Z" fill="#D8D8D8"/>
<path fill-rule="evenodd" clip-rule="evenodd" d="M63.4417 21.1908C63.4396 18.0135 61.9584 15.7378 59.3856 14.8535C58.3188 14.4868 57.567 14.72 57.1324 15.7932C56.1886 18.1224 55.9561 20.4584 57.153 22.7799C58.309 25.0221 59.7014 25.942 61.3021 25.5465C62.7837 25.1805 63.4435 23.8374 63.4417 21.1908ZM69 21.7645C68.9017 26.041 67.1006 29.0377 63.8868 31.046C61.4172 32.5892 58.8055 32.128 56.4589 30.6068C52.6741 28.1537 50.736 24.5436 51.029 20.0037C51.3391 15.2007 53.5074 11.4014 58.0352 9.44382C60.4559 8.39688 62.7798 9.30323 64.3942 11.1053C67.144 14.1744 68.8301 17.8533 69 21.7645Z" fill="#D8D8D8"/>
<path fill-rule="evenodd" clip-rule="evenodd" d="M109.672 52.6289C109.672 57.7819 109.691 62.9352 109.661 68.0881C109.651 69.8213 108.601 70.4888 107.23 69.6204C105.676 68.6358 104.619 67.2423 104.546 65.1977C104.357 59.926 104.091 54.656 104.003 49.3824C103.971 47.5102 104.226 45.5951 104.633 43.771C104.796 43.0411 105.746 41.9744 106.299 42.0005C107.187 42.0426 108.591 42.6754 108.809 43.3925C109.449 45.4931 109.65 47.7524 109.943 49.9614C110.059 50.8337 109.962 51.7377 109.962 52.6271C109.865 52.6278 109.769 52.6282 109.672 52.6289Z" fill="#D8D8D8"/>
</svg>
