<svg width="168" height="82" viewBox="0 0 168 82" fill="none" xmlns="http://www.w3.org/2000/svg">
<mask id="mask0_0_3" style="mask-type:luminance" maskUnits="userSpaceOnUse" x="45" y="0" width="66" height="42">
<path fill-rule="evenodd" clip-rule="evenodd" d="M45 0H111V42H45V0Z" fill="white"/>
</mask>
<g mask="url(#mask0_0_3)">
<path fill-rule="evenodd" clip-rule="evenodd" d="M60.2213 41.9255C57.7822 42.3052 55.1736 41.0963 52.4448 41.3584C51.5017 41.4491 47.2774 39.6542 46.4492 39.0956C45.5205 38.47 45.0485 37.4715 45.0041 36.4978C44.9554 35.4193 45.3441 34.2335 46.0579 33.3983C47.6335 31.554 49.4989 30.0088 51.6316 28.8251C53.5863 27.7407 55.565 26.6988 57.501 25.5817C57.9169 25.3411 58.0533 25.2669 58.0944 25.7986C58.2158 27.3492 58.1206 28.7848 56.615 29.7596C56.128 30.0754 55.6147 30.6077 55.4725 31.1378C55.3025 31.7742 55.3795 32.5632 55.6019 33.1964C55.8184 33.8129 56.5263 33.7958 57.1513 33.9139C58.2773 34.1277 59.3428 34.6438 60.4608 34.9231C60.9853 35.0536 61.2526 35.1229 60.9152 34.1943C59.5005 30.2956 59.2017 26.1187 59.8106 22.1095C60.4148 18.1308 62.7159 12.0494 66.6167 8.31404C68.5078 6.50301 70.4967 4.84343 72.6759 3.49053C74.3991 2.42121 76.427 1.80679 78.3742 1.1537C80.208 0.538207 82.1894 0.602119 84.0826 0.126267C85.0674 -0.121863 86.2046 -0.00639123 87.3584 0.489333C88.5304 0.992576 90.0124 0.777207 91.3822 1.04521C94.7601 1.70635 97.536 3.48999 100.351 5.23013C101.513 5.9482 102.524 6.9316 103.539 7.86504C105.999 10.1283 109.246 15.9502 110.003 19.9364C110.382 21.9333 111.098 23.8748 110.989 25.9388C110.931 27.0334 110.802 28.1709 110.431 29.1876C110.107 30.0727 109.239 30.6512 108.313 30.931C106.1 31.5991 103.958 32.5035 101.859 33.4107C98.8004 34.7324 95.6401 35.6261 92.4745 36.5606C90.9689 37.0053 89.4639 37.457 87.977 37.9603C86.4827 38.4662 84.8969 38.5183 83.3988 39.1628C82.3792 39.6016 81.0709 39.5097 79.9011 39.6805C77.2086 40.0726 74.5295 40.615 71.8279 40.9701C69.7471 41.2434 67.6914 41.2552 65.626 41.4083C64.8011 41.469 63.9991 41.8208 63.1736 41.9051C62.2925 41.9953 61.3953 41.9255 60.2213 41.9255Z" fill="#D8D8D8"/>
</g>
<mask id="mask1_0_3" style="mask-type:luminance" maskUnits="userSpaceOnUse" x="0" y="63" width="19" height="18">
<path fill-rule="evenodd" clip-rule="evenodd" d="M0 63H19V81H0V63Z" fill="white"/>
</mask>
<g mask="url(#mask1_0_3)">
<path fill-rule="evenodd" clip-rule="evenodd" d="M18.9981 72.0557C18.9981 74.6001 19.0039 77.1446 18.9954 79.6896C18.9912 81.0056 18.9801 81.005 17.7819 80.9982C17.6943 80.9977 17.6062 81.0008 17.5186 80.9977C16.2207 80.9492 15.8524 80.6191 15.8408 79.3231C15.816 76.6036 15.8392 73.8831 15.8223 71.163C15.8213 70.9337 15.6688 70.7049 15.5865 70.4755C15.4931 70.6885 15.4266 70.92 15.3015 71.1124C13.7255 73.5325 12.0736 75.9077 10.5967 78.3862C10.1156 79.194 9.57738 78.981 9.15371 78.7427C8.65563 78.4632 8.24936 77.9349 7.93437 77.4319C6.67125 75.4168 5.47144 73.3622 4.2157 71.3423C4.01573 71.0207 3.64798 70.8035 3.35779 70.5382C3.29606 70.8641 3.18367 71.1894 3.18156 71.5152C3.16732 74.1472 3.18842 76.7797 3.16679 79.4117C3.15729 80.5521 2.72306 80.9713 1.66307 80.9982C0.484362 81.0282 0.0263873 80.6892 0.0205835 79.5551C-0.00632523 74.2906 0.0153072 69.0261 6.22819e-06 63.7616C-0.00157664 63.1527 0.29864 63.1326 0.795659 63.0572C2.08411 62.8621 3.16257 63.3293 3.64745 64.3991C5.14167 67.6927 7.507 70.4781 8.98381 73.7718C9.08406 73.9954 9.2893 74.1757 9.4592 74.3639C9.79477 74.7356 9.83012 74.5948 10.057 74.182C11.9448 70.7455 13.8949 67.3426 15.8366 63.9351C16.2444 63.2196 18.2726 62.7034 18.815 63.1917C18.9653 63.3272 18.9896 63.6551 18.9907 63.8955C19.0023 66.6156 18.9981 69.3356 18.9981 72.0557Z" fill="#D8D8D8"/>
</g>
<path fill-rule="evenodd" clip-rule="evenodd" d="M86.3942 51C85.7069 50.7874 84.9008 50.5406 84.0962 50.2894C82.0814 49.66 81.6027 48.3195 82.3035 46.3009C83.2047 43.7026 85.373 42.6818 87.5418 42.0915C91.1062 41.1209 94.6566 40.1343 98.1767 38.9975C101.678 37.8667 105.129 36.6305 108.469 35.0724C108.868 34.8864 109.117 35.0702 108.944 35.4921C108.461 36.667 108.009 37.8894 107.312 38.9307C106.429 40.2486 105.386 41.4737 104.293 42.6199C101.023 46.0464 97.121 48.4553 92.5991 49.7147C90.6324 50.2618 88.5965 50.5522 86.3942 51Z" fill="#D8D8D8"/>
<mask id="mask2_0_3" style="mask-type:luminance" maskUnits="userSpaceOnUse" x="150" y="62" width="18" height="19">
<path fill-rule="evenodd" clip-rule="evenodd" d="M150 62H168V81H150V62Z" fill="white"/>
</mask>
<g mask="url(#mask2_0_3)">
<path fill-rule="evenodd" clip-rule="evenodd" d="M158.616 62.022C161.153 62.022 163.691 62.0046 166.229 62.0294C167.586 62.0425 167.941 62.4006 167.985 63.675C168.007 64.2879 167.961 64.9035 167.997 65.5154C168.031 66.091 167.778 66.2542 167.211 66.2426C165.762 66.2126 164.309 66.2753 162.862 66.2153C162.089 66.1837 161.988 66.5075 161.992 67.1347C162.014 70.8161 161.947 74.4986 162.021 78.1789C162.078 81.0599 161.727 81.0715 158.972 80.972C158.519 80.9562 158.065 80.9862 157.612 80.9667C156.435 80.9157 156.033 80.5628 156.024 79.4217C156.001 76.0905 156.029 72.7598 156.009 69.4285C156.003 68.3985 155.907 67.3685 155.853 66.3385C154.78 66.3032 153.708 66.2679 152.636 66.2326C151.831 66.2063 150.601 66.4722 150.32 66.0878C149.883 65.4917 150.091 64.4533 150.031 63.6023C150.019 63.428 150.05 63.249 150.026 63.0768C149.926 62.3511 150.089 61.9788 151.003 62.0009C153.539 62.062 156.078 62.022 158.616 62.022Z" fill="#D8D8D8"/>
</g>
<path fill-rule="evenodd" clip-rule="evenodd" d="M52.9727 77.8218C53.793 77.7933 54.5466 77.8966 55.2847 77.1489C56.0383 76.386 56.1391 75.3553 56.719 74.6108C57.4255 73.7035 56.2709 73.4995 56.2667 72.7898C56.2569 71.1263 55.0438 70.0815 53.4937 69.9208C51.2904 69.6932 49.3051 71.452 49.0906 73.6265C48.8611 75.9528 50.2747 78.1195 52.9727 77.8218ZM46.0132 71.0557C46.0132 68.3379 46.0308 65.6196 46.0003 62.9023C45.9925 62.2416 46.1507 61.937 46.8495 62.0108C47.3601 62.0646 47.8822 62.0487 48.3964 62.014C48.9516 61.9766 49.1314 62.2021 49.1232 62.7601C49.0968 64.5136 49.1593 66.2688 49.0983 68.0202C49.0508 69.3886 49.6328 68.5303 50.0246 68.3385C51.2785 67.7241 52.5148 67.2725 53.9837 67.2372C57.0017 67.1645 60.2218 70.0652 59.9597 73.4558C59.876 74.5349 60.32 75.7073 59.448 76.6573C58.8986 79.9853 53.1728 82.5171 49.8054 79.8304C49.4555 79.5511 49.2627 79.1559 49.0859 79.9832C48.9298 80.7119 48.367 81.0412 47.5669 80.9959C46.4892 80.9353 46.0333 80.5886 46.0225 79.4721C45.9941 76.6668 46.0132 73.861 46.0132 71.0557Z" fill="#D8D8D8"/>
<mask id="mask3_0_3" style="mask-type:luminance" maskUnits="userSpaceOnUse" x="122" y="68" width="15" height="14">
<path fill-rule="evenodd" clip-rule="evenodd" d="M122 68H137V82H122V68Z" fill="white"/>
</mask>
<g mask="url(#mask3_0_3)">
<path fill-rule="evenodd" clip-rule="evenodd" d="M129.584 73.4011C130.041 73.4011 130.501 73.4313 130.956 73.3942C131.654 73.3362 132.348 73.2321 133.043 73.1476C132.534 72.6486 132.064 72.105 131.507 71.6608C130.57 70.9131 129.428 71.3653 128.381 71.2963C127.723 71.2532 126.425 72.2326 126.488 72.8277C126.608 73.9463 127.617 73.2411 128.216 73.3814C128.648 73.4824 129.126 73.4011 129.584 73.4011ZM131.651 76.0569C130.09 76.0569 128.529 76.051 126.968 76.0654C126.813 76.067 126.546 76.1733 126.528 76.2673C126.482 76.4942 126.465 76.804 126.592 76.9719C127.613 78.3291 129.787 78.9253 131.479 78.3865C131.888 78.2563 132.498 78.3944 132.738 78.1532C133.427 77.4608 133.861 77.5979 134.508 78.2223C136.256 79.9115 136.37 80.1947 134.022 81.1518C131.208 82.299 128.31 82.3899 125.458 80.7575C123.918 79.877 123.034 78.7234 122.389 77.2132C121.557 75.2641 122.102 72.0413 123.617 70.5507C124.132 70.0449 124.611 69.4922 125.186 69.0613C125.94 68.497 126.749 68.0012 127.795 68.0809C128.434 68.1292 129.097 68.1803 129.719 68.0735C131.738 67.7265 133.3 68.6659 134.816 69.6931C136.232 70.6512 137.379 73.9824 136.882 75.6536C136.825 75.8475 136.347 76.0314 136.059 76.0388C134.59 76.0776 133.121 76.0569 131.651 76.0569Z" fill="#D8D8D8"/>
</g>
<path fill-rule="evenodd" clip-rule="evenodd" d="M29.0747 73.4288C30.1222 73.4288 31.1703 73.4325 32.2178 73.4272C32.6862 73.4246 32.6656 73.3307 32.4896 72.8631C31.4416 70.0726 27.592 70.3404 26.2141 71.8218C25.8606 72.2019 25.7157 72.7788 25.4749 73.2655C25.889 73.3201 26.3021 73.4081 26.7178 73.4214C27.5024 73.4468 28.2891 73.4288 29.0747 73.4288ZM30.577 76.0788C28.9999 76.0788 27.4223 76.0586 25.8458 76.0889C25.2657 76.1 25.5871 76.3412 25.6724 76.6869C26.0877 78.3703 27.5614 78.8168 28.8244 79.1879C30.1085 79.5649 31.4543 78.9594 32.5297 78.1132C32.947 77.785 33.1514 77.6789 33.4808 78.1328C33.925 78.7457 34.3965 79.339 34.856 79.9408C34.199 80.4196 33.5999 81.0293 32.8753 81.3559C29.5131 82.8702 25.0459 81.6178 22.9009 78.6116C22.619 78.2171 22.346 77.7728 22.2285 77.3104C21.2806 73.5948 23.3582 69.736 27.0377 68.3108C29.9399 67.1867 34.3249 69.2519 35.3771 72.255C35.5932 72.8726 35.8018 73.5068 35.8967 74.151C36.1591 75.933 36.0252 76.0676 34.2564 76.0772C33.0303 76.0841 31.8036 76.0788 30.577 76.0788Z" fill="#D8D8D8"/>
<path fill-rule="evenodd" clip-rule="evenodd" d="M69.7656 77.8226C70.7315 78.0677 71.4898 77.4654 72.3365 76.7237C73.2168 75.9517 72.9 74.7796 73.5981 74.0173C73.0866 72.8936 72.7492 71.6347 72.0045 70.6936C71.4936 70.0483 70.5254 69.6739 69.4835 69.7213C67.2049 69.8247 65.4492 71.6708 65.4644 74.1094C65.4796 76.6736 66.7466 77.8237 69.7656 77.8226ZM69.3783 67.0128C73.7532 66.8146 75.3559 69.0695 76.6295 71.9999C77.3866 73.7415 76.8768 75.6215 76.0562 77.1988C74.5852 80.028 71.8364 81.0181 68.8489 80.9998C66.2992 80.9836 64.0227 79.6552 62.8577 77.5037C61.9069 75.747 61.7122 73.4625 62.4471 71.4516C63.182 69.4412 64.7772 68.0228 66.7434 67.1949C67.5098 66.8722 68.4937 67.0586 69.3783 67.0128Z" fill="#D8D8D8"/>
<path fill-rule="evenodd" clip-rule="evenodd" d="M107.005 74.0603C107.005 72.3639 106.99 70.6671 107.013 68.9713C107.021 68.371 106.918 67.5309 107.239 67.238C107.587 66.9215 108.371 67.0948 108.965 67.0958C109.518 67.0974 110.266 66.8593 110.142 67.9188C110.438 67.9547 110.853 68.1387 111.009 68.0035C112.629 66.6001 114.555 67.0508 116.352 67.1377C118.013 67.2181 119.896 69.7256 119.956 71.7701C120.039 74.6246 119.983 77.4835 119.966 80.3407C119.964 80.5714 119.799 81.0011 119.715 81C118.789 80.9855 117.842 81.008 116.949 80.7983C116.487 80.6899 116.309 80.1046 116.324 79.4882C116.377 77.3467 116.355 75.2035 116.342 73.0603C116.328 70.8752 115.424 69.8495 113.585 69.7599C111.667 69.6666 110.115 71.1982 110.117 73.1799C110.12 75.3226 110.156 77.4668 110.087 79.6073C110.073 80.0537 109.744 80.7768 109.425 80.8664C108.723 81.0644 107.935 80.9603 107.185 80.9158C107.113 80.9115 107.014 80.4635 107.013 80.2205C106.999 78.1674 107.005 76.1139 107.005 74.0603Z" fill="#D8D8D8"/>
<path fill-rule="evenodd" clip-rule="evenodd" d="M91.9615 74.7406C91.9615 76.6084 91.9103 78.4783 91.9869 80.3429C92.0175 81.0879 91.7145 81.7035 91.2013 81.8371C90.5053 82.0183 89.7088 81.8419 88.9693 81.7233C88.8844 81.7099 88.9248 81.0772 88.8367 80.7517C88.8062 80.6389 88.5136 80.4824 88.423 80.5267C87.9885 80.7383 87.5788 81.0061 87.1666 81.2637C84.8714 82.6981 82.6658 81.7938 80.7301 80.6149C79.7254 80.003 79.0853 78.5157 79.0434 77.1417C78.959 74.3874 79.046 71.6276 79.0004 68.8711C78.9874 68.1032 79.3049 67.9872 79.9129 68.0289C80.4276 68.0636 80.9481 68.061 81.4634 68.0294C82.0703 67.992 82.1381 68.3287 82.133 68.8449C82.1128 70.9794 82.1174 73.1139 82.1262 75.2483C82.1392 78.396 84.2495 79.6487 87.0625 78.1838C87.4199 77.9979 87.9615 77.884 88.0869 77.588C88.4359 76.7612 88.7736 75.8656 88.8222 74.98C88.9289 73.0299 88.8808 71.0681 88.8419 69.1122C88.8274 68.3848 88.8963 67.8937 89.7751 68.0273C90.1128 68.0786 90.468 68.0716 90.8077 68.0289C91.6379 67.9241 92.0599 68.0631 91.9931 69.1394C91.8787 70.9997 91.9615 72.8728 91.9615 74.7406Z" fill="#D8D8D8"/>
<path fill-rule="evenodd" clip-rule="evenodd" d="M144.008 71.2262C144.008 68.4191 144.017 65.6125 144 62.8058C143.997 62.2963 144.061 61.9789 144.644 62.0011C146.039 62.0534 147.436 62.0703 148.832 62.1014C148.886 63.4812 148.98 64.861 148.986 66.2408C149.006 70.5387 149.002 74.837 148.989 79.1349C148.984 80.6689 148.707 80.9846 147.342 80.9989C146.279 81.01 145.216 80.935 144.154 80.8986C144.105 79.7796 144.027 78.6612 144.015 77.5417C143.992 75.4369 144.008 73.3315 144.008 71.2262Z" fill="#D8D8D8"/>
<path fill-rule="evenodd" clip-rule="evenodd" d="M96.0076 74.7471C96.0076 73.0466 95.9931 71.346 96.0166 69.6455C96.0239 69.1338 96.0844 68.1954 96.2128 68.1804C97.1969 68.0664 98.2045 68.1234 99.2036 68.161C99.2653 68.1632 99.373 68.4588 99.3618 68.6114C99.2541 70.0717 99.7548 69.5627 100.408 68.9479C100.703 68.6705 101.182 68.5824 101.544 68.3583C102.567 67.7257 103.676 68.1352 104.746 68.0793C104.822 68.8544 104.876 69.6326 104.983 70.4039C105.088 71.1606 104.689 71.2531 104.02 71.2756C103.057 71.3084 102.042 70.966 101.193 71.8824C100.224 72.9278 99.8597 74.0559 99.9152 75.4211C99.9841 77.1189 99.9679 78.8227 99.9197 80.5216C99.8843 81.7578 99.4745 82.0179 97.8983 81.9991C96.4646 81.9824 96.034 81.6422 96.0149 80.3856C95.9863 78.5066 96.0076 76.6266 96.0076 74.7471Z" fill="#D8D8D8"/>
<path fill-rule="evenodd" clip-rule="evenodd" d="M41.9982 71.7916C41.9982 74.416 42.0036 77.0404 41.9957 79.6648C41.9917 81.0365 41.9812 81.0365 40.616 80.9844C39.3801 80.937 39.0224 80.6067 39.0124 79.335C38.9894 76.4483 39.0054 73.561 39.0054 70.6743C39.0054 68.4877 38.9909 66.3005 39.0139 64.1138C39.0209 63.4406 38.961 62.2912 39.2244 62.1874C39.9509 61.9008 40.8346 62.0141 41.6504 62.0678C41.7816 62.0763 41.9807 62.5883 41.9832 62.8691C42.0076 65.8427 41.9982 68.8174 41.9982 71.7916Z" fill="#D8D8D8"/>
</svg>
