<svg width="182" height="46" viewBox="0 0 182 46" fill="none" xmlns="http://www.w3.org/2000/svg">
<path fill-rule="evenodd" clip-rule="evenodd" d="M10.0339 12.1778V17.1867C13.6977 17.1867 17.2644 17.2745 20.8233 17.1485C22.5045 17.0889 23.088 16.2339 23.0808 14.6287C23.0739 13.1175 22.4673 12.2666 20.8522 12.2139C17.2912 12.0976 13.7238 12.1778 10.0339 12.1778ZM9.93934 23.2164C9.93934 25.1963 9.98874 27.0581 9.91915 28.9153C9.88277 29.8868 10.2549 30.1245 11.1462 30.1085C13.9299 30.0582 16.7156 30.1063 19.499 30.0502C20.4169 30.0317 21.3577 29.91 22.2402 29.6627C23.7084 29.2511 24.3206 28.3481 24.3737 26.8273C24.4502 24.6299 23.4428 23.3643 21.0116 23.2573C17.4017 23.0987 13.7795 23.2164 9.93934 23.2164ZM25.7848 20.2542C26.521 20.5538 26.998 20.7479 27.4748 20.9418C33.6694 23.4608 32.7242 30.9508 29.2856 33.6707C27.5093 35.0759 25.4858 35.9041 23.3108 35.9378C16.245 36.0475 9.17629 35.9787 2 35.9787V6.08344C2.45921 6.06178 2.85069 6.02728 3.24244 6.02675C9.07962 6.01873 14.9176 5.96203 20.7534 6.04306C22.4556 6.06659 24.2253 6.25405 25.8361 6.7707C29.208 7.85212 30.8653 10.3158 30.9203 13.7716C30.9686 16.8244 29.4656 18.8009 25.7848 20.2542Z" fill="#D8D8D8"/>
<path fill-rule="evenodd" clip-rule="evenodd" d="M105 34.9777C103.142 34.9777 101.372 35.0512 99.6149 34.9315C99.1083 34.8969 98.5435 34.3891 98.1677 33.9574C93.1158 28.1549 88.093 22.3272 83.0605 16.508C82.8373 16.2494 82.5914 16.0102 82.1146 15.5074V34.8927H75V5.10054C76.7518 5.10054 78.5243 5.27708 80.2464 5.05859C82.7249 4.74372 84.2632 5.71142 85.7817 7.63726C89.3121 12.1142 93.1161 16.3758 96.8135 20.7213C97.091 21.047 97.4017 21.3449 97.9056 21.8753V5.15894H105V34.9777Z" fill="#D8D8D8"/>
<path fill-rule="evenodd" clip-rule="evenodd" d="M118.098 12.7471V29.3053C120.434 29.3053 122.693 29.3155 124.953 29.2989C125.618 29.2941 126.293 29.2723 126.946 29.1581C130.208 28.5868 132.229 26.7047 132.761 23.4247C133.012 21.8777 133.014 20.225 132.77 18.6766C132.219 15.1851 129.887 13.0192 126.373 12.7832C123.673 12.602 120.951 12.7471 118.098 12.7471ZM110 35.9905V6.10151C110.411 6.06443 110.791 6.00015 111.172 6.00015C116.252 5.99882 121.332 6.00655 126.412 6.01189C129.261 6.01509 132.007 6.47653 134.491 7.95343C139.098 10.6933 140.712 15.072 140.974 20.0969C141.458 29.3715 135.211 35.9342 125.904 35.9867C121.092 36.0139 116.279 35.991 111.466 35.9905C111.029 35.9905 110.592 35.9905 110 35.9905Z" fill="#D8D8D8"/>
<path fill-rule="evenodd" clip-rule="evenodd" d="M52.5072 29.1978C57.5642 29.2476 61.2157 25.8361 61.228 21.0503C61.24 16.2821 57.7164 12.8358 52.7508 12.759C47.5928 12.6791 43.8721 16.0674 43.8434 20.8707C43.8137 25.8046 47.2908 29.1466 52.5072 29.1978ZM52.9885 36C47.2918 35.867 42.542 34.4612 39.0576 30.1912C33.8341 23.7898 34.419 9.57158 47.8219 6.53771C51.2711 5.75699 54.7143 5.81944 58.1311 6.77088C66.7007 9.15676 70.3431 16.6212 68.557 24.7392C67.2736 30.5724 62.5471 34.6866 56.4735 35.6143C55.1888 35.8105 53.8882 35.9027 52.9885 36Z" fill="#D8D8D8"/>
<path fill-rule="evenodd" clip-rule="evenodd" d="M174.885 9.23266C174.063 10.9527 173.303 12.5424 172.554 14.1095C170.446 13.4369 168.465 12.6657 166.415 12.1839C163.439 11.4842 160.392 11.2208 157.357 11.7977C156.453 11.9697 155.502 12.3522 154.777 12.9049C153.682 13.7392 153.859 15.0863 155.133 15.6067C156.24 16.0585 157.462 16.2836 158.656 16.4614C162.133 16.9788 165.66 17.236 169.093 17.9489C172.353 18.6256 175.018 20.3576 175.779 23.9214C176.711 28.2873 174.64 32.281 170.553 34.1975C167.156 35.7908 163.531 36.0733 159.849 35.9857C155.409 35.8802 151.149 34.9307 147.048 33.2453C146.734 33.1164 146.44 32.941 146 32.7182C146.847 30.5021 147.676 28.3336 148.567 26.0013C149.362 26.3796 150.054 26.7007 150.738 27.0355C155.111 29.1753 159.696 30.1071 164.531 29.2422C165.602 29.0507 166.748 28.6062 167.57 27.9284C168.16 27.442 168.55 26.3515 168.489 25.5724C168.451 25.0802 167.468 24.3725 166.825 24.2649C163.786 23.757 160.707 23.4884 157.664 23.0029C155.742 22.6965 153.796 22.3325 151.967 21.6928C146.112 19.6452 144.928 13.1315 149.773 9.17794C151.296 7.93555 153.275 6.94565 155.193 6.54568C161.983 5.12975 168.457 6.62594 174.885 9.23266Z" fill="#D8D8D8"/>
<path fill-rule="evenodd" clip-rule="evenodd" d="M0 45.6556C1.02348 44.3247 1.98443 42.9447 3.10615 41.6917C3.4665 41.2892 4.24949 41.0328 4.8407 41.0301C13.7675 40.9891 22.6949 41.0019 32 41.0019C30.7162 42.6751 30.0739 44.4674 28.4105 45.5934C28.0489 45.8383 27.5246 45.9817 27.0746 45.9829C18.1473 46.005 9.21995 45.9994 0.29261 45.9994C0.19516 45.8849 0.0974498 45.7701 0 45.6556Z" fill="#D8D8D8"/>
<mask id="mask0_0_104" style="mask-type:luminance" maskUnits="userSpaceOnUse" x="36" y="41" width="32" height="5">
<path fill-rule="evenodd" clip-rule="evenodd" d="M36 41H68V46H36V41Z" fill="white"/>
</mask>
<g mask="url(#mask0_0_104)">
<path fill-rule="evenodd" clip-rule="evenodd" d="M68 41C67.049 42.3998 66.4066 43.6337 65.4677 44.6242C64.8602 45.2648 63.8232 45.9263 62.9711 45.9354C53.988 46.0291 45.0034 45.9934 36 45.9934C36.4714 43.1749 39.115 41.0015 41.9457 41.0015C50.1432 41.002 58.3408 41.0007 66.5384 41C66.9222 41 67.3058 41 68 41Z" fill="#D8D8D8"/>
</g>
<path fill-rule="evenodd" clip-rule="evenodd" d="M104 41.0012C102.891 42.5235 102.058 43.8822 100.98 45.0499C100.499 45.572 99.5289 45.9792 98.7781 45.9826C89.7175 46.0244 80.6566 45.9809 71.5957 45.9562C71.5124 45.956 71.4296 45.9108 71 45.786C72.1738 44.3172 73.2364 42.8879 74.431 41.5601C74.7439 41.2126 75.4668 41.0258 76.0025 41.0239C85.1947 40.9923 94.3868 41.0012 104 41.0012Z" fill="#D8D8D8"/>
<path fill-rule="evenodd" clip-rule="evenodd" d="M108 45.786C108.975 44.4248 109.779 43.114 110.795 41.9722C111.242 41.4714 112.121 41.0485 112.807 41.0439C121.749 40.9829 130.691 41.0033 140 41.0033C138.722 42.6757 138.12 44.5005 136.422 45.6032C136.021 45.8632 135.447 46 134.953 46C126.138 45.9993 117.323 45.9688 108.508 45.9412C108.428 45.941 108.349 45.8945 108 45.786Z" fill="#D8D8D8"/>
<path fill-rule="evenodd" clip-rule="evenodd" d="M144 45.6664C144.986 44.3559 145.892 42.9807 147 41.7681C147.412 41.317 148.294 41.0364 148.964 41.0327C157.748 40.9856 166.534 41.002 175.319 41.006C175.443 41.006 175.568 41.0486 176 41.1271C174.917 42.5758 173.98 43.9769 172.865 45.2379C172.481 45.6713 171.651 45.9632 171.022 45.9664C162.109 46.0125 153.196 45.9978 144.283 45.9978C144.189 45.8875 144.094 45.7769 144 45.6664Z" fill="#D8D8D8"/>
<mask id="mask1_0_104" style="mask-type:luminance" maskUnits="userSpaceOnUse" x="175" y="0" width="7" height="7">
<path fill-rule="evenodd" clip-rule="evenodd" d="M175 0H182V7H175V0Z" fill="white"/>
</mask>
<g mask="url(#mask1_0_104)">
<path fill-rule="evenodd" clip-rule="evenodd" d="M179.758 6.67977C177.893 7.48734 176.035 6.72854 175.26 4.84252C174.52 3.04384 175.414 0.984466 177.256 0.246027C179.02 -0.461331 181.006 0.407327 181.725 2.20144C182.482 4.08961 181.63 6.011 179.72 6.7213C179.954 6.47989 180.169 6.21999 180.421 6.00349C181.635 4.95961 181.963 3.38386 181.228 2.04524C180.456 0.636414 178.836 0.0220307 177.375 0.583898C175.971 1.12433 175.219 2.54173 175.483 4.14802C175.728 5.63106 176.987 6.64306 178.588 6.64923C178.978 6.65057 179.368 6.66905 179.758 6.67977Z" fill="#D8D8D8"/>
</g>
<path fill-rule="evenodd" clip-rule="evenodd" d="M177.411 3.9733C178.203 3.78781 178.879 3.65341 179.53 3.44361C179.602 3.42039 179.591 2.7705 179.505 2.74291C178.853 2.53557 178.172 2.411 177.411 2.23999V3.9733ZM177 5.88827V2.14083C178.047 2.21541 179.29 1.48958 179.958 2.7522C180.158 3.13 179.595 3.88151 179.382 4.46174C179.267 4.43852 179.151 4.41557 179.036 4.39235C179.315 4.89145 179.595 5.39027 179.875 5.88909C179.827 5.92597 179.779 5.96312 179.731 6C179.091 5.34 178.452 4.67974 177.812 4.01974C177.694 4.10333 177.576 4.18692 177.458 4.27052C177.387 4.81441 177.315 5.35803 177.244 5.90166C177.163 5.89729 177.081 5.89291 177 5.88827Z" fill="#D8D8D8"/>
</svg>
