<svg width="214" height="41" viewBox="0 0 214 41" fill="none" xmlns="http://www.w3.org/2000/svg">
<mask id="mask0_0_131" style="mask-type:luminance" maskUnits="userSpaceOnUse" x="0" y="0" width="63" height="41">
<path fill-rule="evenodd" clip-rule="evenodd" d="M0 0H63V41H0V0Z" fill="white"/>
</mask>
<g mask="url(#mask0_0_131)">
<path fill-rule="evenodd" clip-rule="evenodd" d="M27.1942 15.4064C30.0431 15.625 32.8394 15.6124 35.6497 15.4055C35.6549 15.3459 35.6724 15.2927 35.6614 15.2468C35.3984 14.1686 35.1712 13.0794 34.8524 12.0177C34.6579 11.37 34.3719 10.7361 34.0347 10.1483C33.6779 9.52647 33.2939 8.89621 32.6832 8.47031C32.2638 8.17753 31.799 7.94887 31.2718 8.02466C30.6384 8.11535 30.1207 8.45185 29.7223 8.94447C29.4993 9.22106 29.2399 9.47174 29.1192 9.83189C29.0484 10.0434 28.8433 10.2066 28.7394 10.4119C28.5644 10.7572 28.4105 11.1141 28.2693 11.4746C28.1167 11.8636 27.9804 12.2597 27.8522 12.6577C27.7463 12.9864 27.6499 13.3197 27.5717 13.6562C27.4383 14.2298 27.3224 14.8079 27.1942 15.4064ZM26.9127 20.7847C26.9127 21.4561 26.9056 22.076 26.9173 22.6956C26.9208 22.8876 26.9809 23.0781 27.0072 23.2704C27.0669 23.7067 27.1247 24.1433 27.177 24.5805C27.2062 24.8231 27.199 25.0718 27.2497 25.3092C27.373 25.8877 27.51 26.4639 27.6616 27.0355C27.8148 27.613 27.9797 28.1878 28.1658 28.7553C28.2482 29.0073 28.3966 29.2375 28.5115 29.4795C28.7309 29.94 28.9072 30.4274 29.1783 30.8556C29.4149 31.2297 29.7376 31.5578 30.0583 31.8697C30.4709 32.2713 30.9858 32.5038 31.5682 32.464C32.2577 32.4167 32.7913 32.0274 33.2257 31.5267C33.5068 31.2025 33.7412 30.8323 33.9584 30.4605C34.1535 30.1256 34.3051 29.7641 34.4593 29.4072C34.5547 29.1867 34.6128 28.9502 34.6998 28.7255C34.816 28.4243 34.9816 28.137 35.0601 27.827C35.2796 26.9584 35.4796 26.0843 35.6575 25.2062C35.7272 24.862 35.7048 24.5002 35.7487 24.1494C35.8142 23.6241 35.8931 23.1004 35.9821 22.579C36.0227 22.3429 35.9301 22.122 36.0158 21.8622C36.12 21.5458 36.0405 21.1688 36.0405 20.7721C35.685 20.8048 35.378 20.8424 35.0696 20.8595C34.2184 20.9065 33.3672 20.9755 32.5157 20.98C31.2727 20.9871 30.0301 20.9453 28.7871 20.9243C28.7556 20.9236 28.7244 20.9223 28.693 20.9201C28.094 20.8747 27.4951 20.8291 26.9127 20.7847ZM24.1459 15.0583C24.2005 14.5582 24.2206 14.0886 24.3099 13.6326C24.4027 13.1565 24.5634 12.6933 24.6907 12.2234C24.7092 12.1557 24.7046 12.0822 24.713 12.0116C24.7241 11.9186 24.7241 11.8215 24.7527 11.7334C24.8819 11.3347 25.0315 10.9421 25.15 10.5402C25.2357 10.25 25.2818 9.94816 25.3513 9.65311C25.3584 9.62137 25.4103 9.60258 25.4288 9.57052C25.4665 9.50509 25.5003 9.43643 25.5272 9.36583C25.5613 9.27579 25.5791 9.17895 25.6178 9.09118C25.6665 8.98042 25.7437 8.88034 25.7824 8.76698C25.859 8.54221 25.8921 8.3006 25.9882 8.08587C26.1745 7.66969 26.3651 7.25092 26.6027 6.86324C26.9971 6.21906 27.3646 5.54054 27.8622 4.98153C28.5754 4.17961 29.3516 3.40879 30.4456 3.10791C30.9527 2.96864 31.4467 2.89091 31.9947 3.00038C33.6344 3.32847 34.6579 4.43062 35.5399 5.70668C35.9603 6.31525 36.2671 7.00089 36.6599 7.62986C36.8177 7.88248 36.8615 8.16263 36.9764 8.42238C37.0894 8.67727 37.1926 8.93637 37.3036 9.19223C37.4176 9.45425 37.5607 9.70655 37.6458 9.97698C37.7581 10.3342 37.8117 10.7089 37.9175 11.0684C38.0194 11.4156 38.184 11.7463 38.2687 12.0964C38.3564 12.4585 38.3716 12.8371 38.4353 13.2054C38.5252 13.7236 38.6473 14.2369 38.7219 14.7571C38.755 14.987 38.8771 15.0139 39.0433 14.9799C39.9289 14.7992 40.8177 14.6307 41.6955 14.4183C43.5686 13.9649 45.3871 13.3547 47.0537 12.3691C47.5296 12.0877 48.0072 11.7738 48.3918 11.3845C48.6973 11.0752 49.0635 10.797 49.2294 10.3339C49.2956 10.1499 49.3832 9.95399 49.4414 9.7561C49.5063 9.53522 49.5965 9.3153 49.618 9.08956C49.6634 8.61249 49.3738 8.22805 49.2339 7.80119C49.0976 7.3863 48.8242 7.10485 48.5564 6.84219C47.9507 6.24853 47.2242 5.81842 46.471 5.40548C45.6095 4.93295 44.7122 4.58057 43.7978 4.26058C42.4785 3.79841 41.1215 3.4645 39.739 3.24523C38.6615 3.0739 37.5825 2.91391 36.5041 2.75003C35.7519 2.63602 34.9881 2.68201 34.233 2.57125C33.7519 2.50064 33.2565 2.49287 32.7686 2.50388C31.237 2.53854 29.6996 2.38405 28.1752 2.67132C27.8288 2.73675 27.4587 2.66517 27.1023 2.69108C26.4108 2.74096 25.7171 2.7863 25.0322 2.88638C24.0868 3.02402 23.1454 3.19471 22.2079 3.38061C20.787 3.66238 19.3863 4.03031 18.0427 4.57571C17.4106 4.8319 16.8279 5.21148 16.1926 5.45762C15.2321 5.82943 14.4965 6.49176 13.818 7.21368C13.5326 7.51715 13.3768 7.95308 13.2025 8.34659C12.9162 8.99305 13.0795 9.63659 13.4015 10.2014C13.6505 10.6387 14.0442 10.9956 14.3809 11.382C14.9834 12.0734 15.7865 12.4864 16.5913 12.8685C17.3678 13.2368 18.1754 13.5529 18.9935 13.8185C19.9378 14.1249 20.9036 14.3704 21.869 14.6045C22.6062 14.7836 23.3577 14.9035 24.1459 15.0583ZM7.84099 10.5664C7.81729 10.5538 7.7936 10.5412 7.7699 10.5285C7.47254 10.9972 7.17259 11.4642 6.87945 11.9355C6.74668 12.1486 6.65384 12.3918 6.49542 12.5829C6.31071 12.8057 6.15489 13.0285 6.05523 13.3051C5.98024 13.5121 5.81695 13.686 5.71697 13.8865C5.66503 13.9908 5.68321 14.1284 5.63646 14.2372C5.58907 14.3483 5.47902 14.4342 5.43584 14.5462C5.35144 14.7639 5.30372 14.9954 5.22484 15.2153C5.10148 15.5596 4.93138 15.8906 4.84243 16.2423C4.7379 16.6569 4.70349 17.0883 4.6298 17.511C4.55676 17.9301 4.42561 18.3449 4.40451 18.766C4.36718 19.5122 4.39218 20.2616 4.39607 21.0095C4.39672 21.1212 4.42042 21.2339 4.44282 21.3444C4.5045 21.653 4.57462 21.9604 4.63499 22.2693C4.72557 22.7322 4.80315 23.1976 4.90281 23.6584C4.92651 23.7669 5.05311 23.856 5.06869 23.9632C5.09629 24.1537 5.26185 24.7839 5.35274 24.9345C5.47545 25.1376 5.60497 25.339 5.70041 25.5551C5.78676 25.751 5.80429 25.9787 5.89973 26.1688C6.10977 26.5873 6.3383 26.9973 6.5808 27.3976C6.78499 27.7354 7.01612 28.057 7.24206 28.3812C7.95331 29.4024 8.81065 30.296 9.71181 31.1471C10.1747 31.5843 10.6519 32.0128 11.1622 32.3927C11.7823 32.8542 12.4451 33.2581 13.0869 33.6908C13.4749 33.9522 13.8472 34.2372 14.2449 34.4824C14.6442 34.7288 15.0558 34.9604 15.4804 35.1599C16.1303 35.4647 16.7941 35.7409 17.4554 36.0208C18.1316 36.3071 18.7977 36.6258 19.4937 36.8531C20.5156 37.1874 21.5541 37.4776 22.5971 37.7412C23.5415 37.9799 24.4946 38.1988 25.4555 38.3517C26.553 38.5266 27.6639 38.6192 28.7754 38.7481C28.7705 38.7025 28.7761 38.6749 28.7653 38.6642C27.9483 37.8814 27.248 37.0105 26.7316 35.9997C26.5579 35.6597 26.3696 35.3261 26.2089 34.9798C26.0226 34.5789 25.8609 34.1666 25.6853 33.7604C25.5694 33.4929 25.4191 33.2364 25.3344 32.9595C25.1743 32.4355 25.0549 31.8991 24.9088 31.3709C24.8633 31.206 24.7643 31.0548 24.728 30.889C24.6329 30.4569 24.566 30.0184 24.4725 29.5857C24.4342 29.4095 24.3277 29.2466 24.3001 29.0704C24.2229 28.5784 24.1437 28.0842 24.1154 27.588C24.0804 26.9791 23.8109 26.3997 23.9031 25.7779C23.9122 25.7167 23.9064 25.6525 23.9005 25.5904C23.8398 24.9232 23.7674 24.257 23.7197 23.5891C23.6908 23.1853 23.6944 22.7788 23.6918 22.3736C23.6879 21.7337 23.6908 21.094 23.6908 20.4463C23.5798 20.4155 23.4837 20.3805 23.3844 20.3624C22.7377 20.2438 22.0852 20.1528 21.4447 20.0077C20.3751 19.7658 19.3009 19.531 18.2514 19.2175C17.1629 18.892 16.0891 18.5092 15.0327 18.091C14.1007 17.7221 13.2051 17.2632 12.353 16.7298C11.3281 16.0882 10.3464 15.3944 9.53164 14.4873C9.22649 14.1475 8.92719 13.8107 8.70904 13.4055C8.52108 13.0564 8.27599 12.7338 8.12406 12.3711C8.00558 12.088 7.98123 11.7628 7.93448 11.4532C7.89001 11.1598 7.87118 10.8621 7.84099 10.5664ZM54.8285 10.1082C54.8285 10.2578 54.8243 10.3099 54.8288 10.3614C54.9467 11.6313 54.5068 12.7503 53.8105 13.7641C53.4654 14.2667 53.0031 14.6997 52.5487 15.1153C51.5553 16.0234 50.4253 16.7411 49.2271 17.3526C48.4172 17.7659 47.6004 18.1616 46.7317 18.4463C46.0549 18.6679 45.403 18.9775 44.7158 19.153C42.9083 19.6149 41.0875 20.0249 39.2325 20.4647C39.2325 20.9489 39.2407 21.5008 39.2306 22.0527C39.2173 22.7905 39.2199 23.5305 39.1608 24.2651C39.0894 25.1463 38.968 26.0237 38.8537 26.9008C38.7596 27.6227 38.6434 28.342 38.5395 29.063C38.5028 29.3178 38.4989 29.5802 38.4359 29.8283C38.3252 30.2626 38.1736 30.6869 38.0545 31.1192C38.022 31.2368 38.0753 31.3796 38.037 31.4933C37.9104 31.8677 37.7458 32.2292 37.6231 32.6045C37.5403 32.8585 37.5302 33.137 37.4377 33.3864C37.3319 33.6714 37.1588 33.9308 37.0365 34.2106C36.7232 34.9267 36.4447 35.6587 35.9831 36.3009C35.5808 36.8612 35.2033 37.4403 34.779 37.9828C34.5781 38.2396 34.2934 38.4307 34.0463 38.6516C34.0694 38.6775 34.0924 38.7038 34.1155 38.73C34.1765 38.7326 34.2385 38.7439 34.2986 38.7371C35.0157 38.6561 35.7341 38.582 36.4492 38.4864C37.1838 38.3886 37.9253 38.3115 38.6466 38.1499C39.8662 37.8772 41.0751 37.5556 42.2837 37.2353C43.7137 36.8567 45.0836 36.3087 46.4207 35.6862C47.1982 35.3248 47.9474 34.9015 48.6996 34.4882C49.1778 34.2252 49.6569 33.9567 50.1026 33.6435C50.8632 33.1095 51.6043 32.5472 52.3399 31.9788C52.6691 31.7246 52.9772 31.4396 53.2719 31.1458C53.6011 30.8174 53.9053 30.464 54.2185 30.1198C54.6383 29.6582 55.0713 29.2074 55.4693 28.7277C55.7164 28.4298 55.9111 28.0884 56.1254 27.7639C56.3692 27.3944 56.6286 27.0329 56.8441 26.6475C57.0428 26.2919 57.1989 25.912 57.3622 25.5376C57.5625 25.0793 57.7712 24.6229 57.9381 24.1524C58.0855 23.7372 58.1919 23.3064 58.2945 22.8776C58.3549 22.6259 58.3728 22.3642 58.4101 22.1074C58.4789 21.6313 58.5795 21.1572 58.6084 20.6791C58.6432 20.102 58.6185 19.5213 58.6149 18.9425C58.6143 18.8087 58.6081 18.6724 58.5818 18.5415C58.4984 18.1328 58.3939 17.728 58.3176 17.3179C58.2465 16.9358 58.2328 16.541 58.1371 16.1659C58.0215 15.7151 57.8709 15.2694 57.691 14.84C57.433 14.2246 57.159 13.6138 56.8464 13.0246C56.5873 12.5362 56.2796 12.0702 55.9631 11.6155C55.6216 11.1245 55.2447 10.6581 54.8285 10.1082ZM34.147 0C34.4352 0.0440471 34.7219 0.102021 35.0118 0.129226C35.7746 0.200479 36.5424 0.232219 37.302 0.328086C38.272 0.450511 39.2407 0.595283 40.2012 0.776329C41.3163 0.986524 42.4243 1.23753 43.5306 1.49047C43.8627 1.56626 44.1756 1.7214 44.5041 1.81662C45.056 1.97629 45.6205 2.0958 46.1662 2.27328C46.5804 2.40801 46.9674 2.62339 47.3771 2.7727C48.4879 3.17819 49.5657 3.65785 50.6081 4.21006C51.6676 4.77101 52.7223 5.34556 53.7459 5.9687C54.5649 6.46747 55.3479 7.03004 56.0692 7.6671C56.836 8.34465 57.618 9.00924 58.3403 9.73213C58.8681 10.2604 59.3272 10.8608 59.7846 11.4539C60.1303 11.9024 60.4163 12.3963 60.7458 12.8582C60.974 13.1782 61.1269 13.5403 61.332 13.8654C61.5979 14.2865 61.682 14.7872 61.9556 15.1787C62.1764 15.4945 62.1605 15.8508 62.3004 16.1743C62.4663 16.5585 62.5747 16.9737 62.6614 17.385C62.7776 17.9359 62.8747 18.4936 62.9324 19.0533C62.9876 19.589 63.0078 20.1314 62.9974 20.6701C62.9824 21.4525 62.9828 22.2373 62.7614 23.0036C62.6046 23.5464 62.5244 24.1116 62.3569 24.6502C62.1868 25.1965 61.9394 25.7186 61.7485 26.2595C61.5456 26.835 61.2233 27.3432 60.9259 27.8701C60.3556 28.8813 59.6281 29.7706 58.8798 30.6477C58.5685 31.0127 58.2783 31.3994 57.9378 31.7349C57.52 32.1463 57.0674 32.5242 56.6156 32.8993C56.0796 33.3439 55.543 33.7902 54.9795 34.1987C54.3812 34.632 53.7709 35.0566 53.1301 35.4229C52.053 36.0389 50.9788 36.675 49.8468 37.1764C48.3691 37.8312 46.8512 38.4058 45.3228 38.9363C43.752 39.4814 42.1318 39.8681 40.4931 40.1635C39.5039 40.3419 38.5138 40.5188 37.5185 40.6551C36.7803 40.7562 36.0308 40.7717 35.2903 40.8582C33.1526 41.1082 31.0085 40.9479 28.8676 40.9654C28.0456 40.9722 27.2214 40.8193 26.3992 40.7315C25.8759 40.6758 25.3519 40.6201 24.8322 40.5388C23.8875 40.3908 22.9448 40.2312 22.0034 40.0634C20.341 39.767 18.724 39.289 17.1214 38.7727C16.1852 38.4712 15.2658 38.1072 14.363 37.7166C13.3827 37.2926 12.4169 36.8305 11.4687 36.3395C10.214 35.6898 9.01159 34.9468 7.89585 34.0788C7.13526 33.4874 6.38667 32.8766 5.67087 32.2324C5.132 31.7479 4.64895 31.2009 4.15001 30.6733C3.8085 30.3118 3.4657 29.9488 3.15406 29.562C2.91968 29.2715 2.72977 28.9447 2.5285 28.629C2.25095 28.194 1.95424 27.7681 1.71499 27.3127C1.45659 26.8211 1.2537 26.3003 1.02971 25.7912C0.903431 25.5042 0.764816 25.2208 0.665806 24.9245C0.570041 24.6388 0.512258 24.3399 0.447982 24.0445C0.332741 23.5156 0.222043 22.9854 0.115891 22.4546C0.0691451 22.2204 0.0379811 21.9834 0 21.7473C0 20.9117 0 20.0761 0 19.2405C0.0655742 18.8638 0.121085 18.4852 0.198995 18.1111C0.33761 17.4446 0.456098 16.7712 0.646653 16.1193C0.807667 15.568 1.0375 15.0336 1.2761 14.5093C1.45886 14.1083 1.68708 13.7249 1.92308 13.3514C2.25517 12.8264 2.5996 12.3076 2.96318 11.804C3.54004 11.005 4.13605 10.2199 4.86288 9.54428C5.13005 9.2962 5.37482 9.02446 5.64166 8.77573C6.86679 7.63277 8.19873 6.63135 9.61896 5.7381C11.3041 4.67773 13.085 3.81234 14.9159 3.03957C15.2135 2.91391 15.4982 2.75488 15.8018 2.64606C16.1115 2.53497 16.4572 2.50841 16.7497 2.36785C17.0633 2.21693 17.3973 2.14762 17.7161 2.02454C18.0566 1.89338 18.3971 1.75476 18.7487 1.66083C19.2454 1.52837 19.7521 1.43315 20.255 1.32433C21.2178 1.11607 22.1774 0.889362 23.1454 0.708963C23.9846 0.552208 24.8315 0.429135 25.6795 0.327762C26.4394 0.236753 27.2062 0.201127 27.9687 0.129874C28.2687 0.102021 28.566 0.0440471 28.8647 0C30.6254 0 32.3862 0 34.147 0Z" fill="#D8D8D8"/>
</g>
<path fill-rule="evenodd" clip-rule="evenodd" d="M112.515 22.6779C112.483 20.0746 111.654 18.0104 109.972 16.4137C108.346 14.8707 106.405 14.2359 104.179 14.7231C102.049 15.1896 100.554 16.5116 99.5287 18.3853C98.635 20.018 98.3604 21.7792 98.5893 23.6185C98.8556 25.7591 99.7696 27.5648 101.445 28.9484C103.782 30.8797 107.03 30.9347 109.414 29.0661C111.548 27.3937 112.441 25.1186 112.515 22.6779ZM118 22.5074C118.057 29.3475 112.363 35.0746 105.347 34.9993C98.5422 34.9264 92.9788 29.3421 93.0001 22.4314C93.0211 15.4828 98.7815 9.88231 105.73 10.0019C112.486 10.1183 118.054 15.6988 118 22.5074Z" fill="#D8D8D8"/>
<path fill-rule="evenodd" clip-rule="evenodd" d="M148.497 22.5505C148.518 22.823 148.538 23.1598 148.572 23.4951C148.751 25.2363 149.394 26.7861 150.554 28.0971C151.93 29.651 153.655 30.5043 155.751 30.42C157.797 30.338 159.429 29.3819 160.688 27.7988C161.909 26.2626 162.485 24.4835 162.476 22.5254C162.465 20.0272 161.611 17.8839 159.73 16.1942C157.386 14.0881 153.844 14.0229 151.431 16.0504C149.436 17.7268 148.565 19.9229 148.497 22.5505ZM168 22.5212C167.937 29.6701 162.078 35.1772 155.136 34.9956C148.586 34.8242 142.825 29.3575 143.004 22.1396C143.17 15.4605 148.781 9.74691 155.978 10.0087C162.433 10.2434 167.951 15.5113 168 22.5212Z" fill="#D8D8D8"/>
<path fill-rule="evenodd" clip-rule="evenodd" d="M201.045 15.7795C201.019 15.7811 200.994 15.7827 200.969 15.7843C199.877 18.6935 198.786 21.6026 197.687 24.5325H204.328C203.226 21.5933 202.135 18.6864 201.045 15.7795ZM188 33.9945C188.343 33.1464 188.666 32.3497 188.988 31.5531C190.47 27.8975 191.95 24.2412 193.434 20.5862C194.679 17.5178 195.929 14.4513 197.177 11.3835C197.337 10.9896 197.482 10.5882 197.659 10.2026C197.701 10.111 197.847 10.013 197.945 10.0126C199.988 10.0016 202.031 10.0071 204.073 10C204.272 9.99936 204.331 10.1039 204.395 10.2609C206.294 14.9469 208.197 19.6306 210.098 24.3163C211.374 27.4627 212.646 30.6108 213.919 33.7585C213.945 33.8229 213.964 33.8902 214 33.9948H213.667C211.84 33.9948 210.013 33.9909 208.186 34C207.96 34.0013 207.846 33.9456 207.762 33.7161C207.165 32.0882 206.548 30.4677 205.948 28.8411C205.878 28.652 205.786 28.5947 205.593 28.5954C202.544 28.6012 199.496 28.6022 196.448 28.5941C196.222 28.5934 196.127 28.6766 196.052 28.8815C195.454 30.4984 194.848 32.1124 194.232 33.7232C194.19 33.8326 194.056 33.9825 193.963 33.9831C191.993 33.998 190.023 33.9945 188 33.9945Z" fill="#D8D8D8"/>
<path fill-rule="evenodd" clip-rule="evenodd" d="M118 10.0036C118.157 10.0036 118.257 10.0036 118.358 10.0036C120.208 10.0036 122.059 10.0062 123.909 10C124.114 9.99936 124.238 10.0444 124.351 10.2421C126.157 13.403 127.974 16.5574 129.789 19.7131C129.851 19.8196 129.914 19.9251 130.008 20.0863C130.31 19.5661 130.589 19.088 130.865 18.6076C132.476 15.8022 134.084 12.9955 135.7 10.1936C135.751 10.1055 135.885 10.0123 135.981 10.012C137.946 10.0019 139.911 10.0052 141.876 10.0068C141.905 10.0068 141.933 10.0207 142 10.0379C141.747 10.4467 141.505 10.8426 141.259 11.2355C138.812 15.1409 136.364 19.0459 133.916 22.9513C133.574 23.498 133.221 24.0382 132.895 24.5953C132.796 24.764 132.726 24.9782 132.725 25.1718C132.715 27.9688 132.718 30.7659 132.718 33.5629V33.9928C132.357 33.9928 132.009 33.9928 131.662 33.9928C130.323 33.9931 128.984 33.985 127.646 33.9999C127.372 34.0031 127.293 33.9335 127.294 33.6548C127.304 30.8371 127.304 28.019 127.293 25.2013C127.292 24.9977 127.228 24.7672 127.121 24.595C125.7 22.3058 124.266 20.0248 122.834 17.7418C121.32 15.3267 119.805 12.9119 118.291 10.4966C118.203 10.3561 118.122 10.2111 118 10.0036Z" fill="#D8D8D8"/>
<path fill-rule="evenodd" clip-rule="evenodd" d="M190 10V14.3849H189.64C187.449 14.3849 185.257 14.3849 183.065 14.3852C182.625 14.3852 182.625 14.3856 182.625 14.8224C182.625 21.0661 182.625 27.3094 182.625 33.5531C182.625 33.6958 182.625 33.8388 182.625 34H177.366V33.676C177.366 27.3967 177.366 21.1173 177.366 14.8383C177.366 14.3852 177.365 14.3852 176.906 14.3852C174.735 14.3849 172.563 14.3849 170.392 14.3849H170V10H190Z" fill="#D8D8D8"/>
<path fill-rule="evenodd" clip-rule="evenodd" d="M71 14.3814V10H91V14.3814H90.6403C88.4337 14.3814 86.2274 14.3814 84.0208 14.3814C83.6164 14.3814 83.6158 14.382 83.6158 14.7911C83.6155 21.0463 83.6155 27.3011 83.6155 33.5562V34H78.3395C78.3395 33.8573 78.3395 33.7346 78.3395 33.6123C78.3395 27.3413 78.3392 21.0706 78.3388 14.7999C78.3388 14.3824 78.3388 14.3817 77.9364 14.3814C75.7505 14.3814 73.5647 14.3814 71.3785 14.3814H71Z" fill="#D8D8D8"/>
</svg>
