<svg width="215" height="53" viewBox="0 0 215 53" fill="none" xmlns="http://www.w3.org/2000/svg">
<path fill-rule="evenodd" clip-rule="evenodd" d="M169.791 19.3493C170.278 19.3219 170.068 18.9493 170.117 18.7053V17.7397V17.0958C170.225 16.9884 170.333 16.8811 170.442 16.7741C170.442 16.26 170.464 15.7443 170.427 15.2329C170.417 15.0959 170.225 14.9721 170.117 14.8425C170.183 13.6072 169.431 12.8791 168.49 12.267C167.807 11.8197 166.897 11.8197 166.214 12.267C166.105 12.3744 165.997 12.4817 165.888 12.589C165.78 12.6702 165.672 12.7515 165.563 12.8323C165.672 12.9658 165.78 13.0995 165.888 13.233C165.937 13.477 165.727 13.8492 166.214 13.8766C166.341 13.9839 166.457 14.1615 166.598 14.1841C166.897 14.2318 167.209 14.1986 167.515 14.1986V18.0617V19.3493V20.9589V21.6028C167.054 22.2052 167.054 22.9317 167.515 23.5344C167.638 23.8512 167.213 24.3492 167.84 24.5C167.921 25.6561 168.445 26.3471 169.791 27.0752C170.322 27.538 170.887 27.538 171.417 27.0752C172.904 26.8296 173.975 25.8459 175.016 24.92C176.625 23.4876 178.163 21.9512 178.671 19.7348C178.747 19.8208 178.822 19.9069 178.898 19.9933V20.9589V25.7876V26.7535C177.568 27.9857 175.918 28.7731 174.498 29.9047C172.764 31.2874 170.925 32.5108 169.791 34.4794C169.738 34.4794 169.64 34.4682 169.636 34.481C169.357 35.5524 169.357 36.6256 169.636 37.697C169.64 37.7099 169.738 37.6986 169.791 37.6986C170.423 39.0887 171.325 40.0984 173.044 39.9521C173.653 40.4075 174.386 40.4075 174.995 39.9521C175.21 39.9521 175.463 40.0269 175.633 39.9402C176.934 39.2734 178.049 38.3803 178.557 36.9757C178.941 35.9117 179.612 34.949 179.744 33.7987C179.882 32.6023 180.491 31.5117 180.524 30.2943C181.011 30.2669 180.801 29.8947 180.849 29.6507V28.6848C180.798 28.3428 180.875 28.0485 181.194 27.8632C182.498 27.1045 183.809 26.3568 185.108 25.5894C185.48 25.3699 185.725 25.3899 185.718 25.8598C185.711 26.2894 185.741 26.6871 186.054 27.0104C186.702 27.6785 187.351 28.3454 188.013 28.9997C188.067 29.0532 188.222 29.0067 188.33 29.0067C188.483 29.6272 188.986 29.2063 189.306 29.3287C189.633 29.77 189.954 29.77 190.282 29.3287C190.528 29.2804 190.904 29.4883 190.932 29.0067C191.283 28.9587 191.61 28.9726 191.981 28.8205C193.144 28.3431 194.03 27.5074 194.971 26.751C195.535 26.2968 196.008 25.7131 196.454 25.1365C197.586 23.6727 198.475 22.0718 199.063 20.3149C199.388 20.3149 199.714 20.3149 200.039 20.3149C200.813 21.0275 201.697 21.6563 202.331 22.475C203.02 23.3642 203.769 24.2795 203.942 25.4656V26.7535C203.739 27.8349 203.261 28.8292 202.344 29.4087C201.482 29.9521 200.621 30.6444 199.488 30.616C198.913 30.6018 198.412 30.743 198.088 31.2603C197.62 31.7853 197.62 32.3448 198.088 32.8699C198.196 32.9772 198.304 33.0845 198.413 33.1918C198.448 33.2808 198.484 33.3697 198.52 33.4587C198.593 33.3697 198.665 33.2808 198.738 33.1918C199.058 33.069 199.561 33.4903 199.714 32.8699C200.089 32.8699 200.523 32.9936 200.829 32.8499C202.81 31.9181 204.534 30.6618 205.664 28.7412C205.786 28.5339 205.819 28.2758 205.893 28.0411C206.52 27.8903 206.095 27.392 206.218 27.0752C206.671 26.399 206.671 25.4982 206.218 24.822C206.17 24.578 206.38 24.2054 205.893 24.178C205.695 23.0899 205.046 22.2558 204.305 21.4865C203.602 20.7568 202.836 20.0845 202.157 19.3335C201.656 18.7795 201.105 18.2248 201.015 17.4177C200.966 17.1738 201.176 16.8015 200.69 16.7741V15.8082C201.02 14.8925 201.583 14.2511 202.641 14.1986C202.947 14.1986 203.259 14.2318 203.557 14.1841C203.698 14.1615 203.814 13.9839 203.942 13.8766C204.248 13.8766 204.56 13.9098 204.858 13.8621C204.999 13.8395 205.115 13.662 205.243 13.5546C205.683 13.1476 205.683 12.6744 205.243 12.267C205.215 11.7855 204.839 11.9937 204.592 11.9451C203.983 11.4896 203.25 11.4896 202.641 11.9451C202.394 11.9937 202.018 11.7855 201.99 12.267C199.787 12.473 198.395 13.9285 198.088 16.4521C197.461 16.603 197.886 17.1009 197.762 17.4177V17.7397C197.276 17.7671 197.486 18.1394 197.437 18.3837C197.462 19.4789 196.883 20.3939 196.529 21.3763C195.83 23.3146 194.316 24.6354 192.834 25.9275C192.281 26.4096 191.504 26.8947 190.607 26.7535H188.656C188.142 26.6272 187.953 26.2872 188.005 25.7876V24.178C188.205 24.141 188.459 24.1684 188.597 24.0559C189.448 23.3629 190.228 22.5775 191.116 21.9367C193.244 20.4013 193.894 19.5308 194.51 17.0958C194.97 16.4934 194.97 15.7669 194.51 15.1642C194.276 14.3475 193.731 13.7013 192.884 13.233C192.856 12.7511 192.48 12.9593 192.233 12.911C191.822 12.4756 191.344 12.4756 190.932 12.911C190.686 12.9593 190.309 12.7511 190.282 13.233C189.648 13.475 189.113 13.8502 188.658 14.353C187.464 15.6725 186.741 17.2534 186.045 18.8562C185.794 19.4353 185.687 20.0177 185.728 20.6369C185.102 20.788 185.527 21.286 185.403 21.6028C185.295 21.7311 185.107 21.8513 185.093 21.9889C185.051 22.3931 185.078 22.804 185.078 23.2124C184.745 23.4876 184.453 23.8963 184.072 24.0114C183.244 24.2609 182.735 25.0917 181.825 25.144C181.717 25.0157 181.529 24.8955 181.515 24.7575C181.473 24.3537 181.5 23.9424 181.5 23.5344V19.3493C181.5 18.9409 181.527 18.53 181.485 18.1262C181.471 17.9882 181.283 17.868 181.175 17.7397V17.0958V16.1301C181.051 15.8133 181.476 15.3154 180.849 15.1642V14.5206C180.801 14.2766 181.011 13.904 180.524 13.8766C180.328 12.774 179.761 11.8761 178.908 11.1693C178.595 10.9095 178.177 10.7251 177.922 11.3014C177.296 11.4523 177.721 11.9502 177.597 12.267V12.911C177.489 13.0393 177.301 13.1595 177.287 13.2971C177.245 13.7013 177.272 14.1122 177.272 14.5206V16.4521C176.785 16.4795 176.995 16.8518 176.947 17.0958C176.936 17.6521 176.909 18.1664 176.647 18.7179C175.746 20.6188 174.565 22.2948 173.018 23.7284C172.558 24.1551 172.067 24.4781 171.417 24.5H170.442C169.928 24.374 169.739 24.0336 169.791 23.5344V20.6369V19.6713V19.3493ZM186.704 47.678H186.379H185.078C184.558 47.678 184.037 47.6558 183.521 47.6928C183.382 47.7025 183.257 47.8927 183.126 48H181.5H180.199H176.621H174.345C174.192 47.3796 173.689 47.8005 173.369 47.678H172.068C171.052 47.5755 170.133 47.0988 169.099 47.0031C168.161 46.9164 167.362 46.2895 166.435 46.0204C165.544 45.7619 164.637 45.243 163.971 44.6C162.446 43.1255 160.663 41.8398 159.902 39.7062C159.772 39.342 159.757 39.0136 159.709 38.6642C159.66 38.4202 159.87 38.048 159.384 38.0206V37.0546V31.9042V31.2603C159.492 31.1304 159.684 31.0066 159.694 30.87C159.731 30.3585 159.709 29.8428 159.709 29.3287V28.3631C159.817 28.2368 159.997 28.122 160.019 27.9821C160.067 27.6869 160.034 27.3785 160.034 27.0752V25.7876C160.142 25.6593 160.33 25.5391 160.344 25.4015C160.386 24.9973 160.359 24.5864 160.359 24.178V20.9589C160.359 20.6559 160.393 20.3475 160.345 20.0519C160.322 19.912 160.142 19.7973 160.034 19.6713V19.0273C159.985 18.7833 160.195 18.4111 159.709 18.3837C159.139 15.872 158.012 14.4239 155.32 12.8572C154.189 12.199 153.015 11.6637 151.849 11.0971C151.673 11.0117 151.452 11.0165 151.252 10.9794C151.1 10.359 150.597 10.7803 150.277 10.6575H149.952C149.924 10.1759 149.547 10.3841 149.301 10.3355C148.746 10.3609 148.329 10.1128 148 9.69184V9.36986C148.111 8.99405 148.349 8.82485 148.749 8.70914C150.027 8.33946 151.128 7.51662 152.53 7.40446C153.293 7.34355 154.067 7.0119 154.76 6.65672C155.131 6.46656 155.458 6.52168 155.806 6.47269C156.052 6.42402 156.429 6.63223 156.456 6.15071C156.998 6.04338 157.54 5.93605 158.082 5.82873C158.329 5.78038 158.705 5.98827 158.733 5.50675C159.737 5.4194 160.626 4.81863 161.66 4.86311C161.907 4.81444 162.283 5.02265 162.31 4.54113H162.961C163.208 4.49246 163.584 4.70067 163.612 4.21915H163.937C164.257 4.09668 164.76 4.5176 164.913 3.89717H165.238C165.558 3.7747 166.061 4.19562 166.214 3.57519H167.515C167.761 3.52685 168.137 3.73505 168.165 3.25354C168.485 3.13074 168.988 3.55166 169.141 2.93156H170.442C170.762 2.80876 171.265 3.23001 171.417 2.60958H172.393C172.713 2.4871 173.216 2.90803 173.369 2.2876H174.019C174.34 2.16512 174.843 2.58605 174.995 1.96562H175.971H176.947C177.055 1.85829 177.163 1.75096 177.272 1.64396H178.247H179.223C179.543 1.52116 180.046 1.94209 180.199 1.32198H180.849H182.151C182.67 1.32198 183.191 1.3439 183.708 1.30715C183.846 1.29716 183.971 1.10733 184.102 1C185.945 1 187.788 1 189.631 1C189.764 1.10733 189.894 1.30167 190.031 1.30748C190.764 1.33809 191.499 1.32198 192.233 1.32198H193.534C193.662 1.42931 193.777 1.60657 193.919 1.62913C194.217 1.67716 194.529 1.64396 194.835 1.64396H196.461C196.57 1.75096 196.678 1.85829 196.786 1.96562H198.088C198.63 2.07294 199.172 2.18027 199.714 2.2876C199.866 2.90803 200.369 2.4871 200.689 2.60958C203.592 3.33991 206.403 4.40963 208.694 6.28543C210.57 7.82055 212.523 9.43851 213.441 11.8461C213.852 12.9248 214.432 13.9546 214.35 15.1642C214.399 15.4085 214.188 15.7808 214.675 15.8082V16.7741C214.799 17.0909 214.373 17.5889 215 17.7397V19.3493V23.856V25.144C214.373 25.2948 214.799 25.7928 214.675 26.1096V27.0752C213.967 29.624 212.982 32.0277 211.524 34.2828C210.377 36.0577 209.225 37.7995 207.706 39.2724C205.9 41.0238 203.849 42.4248 201.556 43.5158C200.023 44.2455 198.538 45.0583 196.881 45.4976C196.253 45.664 195.623 45.8409 195.02 46.0788C194.43 46.3115 193.84 46.442 193.209 46.3904C192.962 46.4388 192.586 46.2309 192.558 46.7124H192.233C191.913 46.8349 191.41 46.414 191.258 47.0344H190.932H189.631C189.523 47.1414 189.414 47.2487 189.306 47.356H187.68C187.36 47.4788 186.856 47.0579 186.704 47.678Z" fill="#D8D8D8"/>
<path fill-rule="evenodd" clip-rule="evenodd" d="M24.1036 35C24.2134 34.9151 24.4151 34.8332 24.4184 34.7444C24.4448 34.0426 24.4448 33.3391 24.4184 32.6375C24.4151 32.5484 24.2134 32.4668 24.1036 32.3819C24.1036 32.0028 24.1 31.6237 24.1043 31.2446C24.1158 30.2728 23.6425 29.4608 23.0874 28.7491C22.7371 28.3002 22.0706 28.1819 21.4677 28.1272C21.4397 27.6377 21.0583 27.8493 20.8088 27.7999H20.1496C20.0398 27.6908 19.93 27.5816 19.8203 27.4725H18.5021C18.4161 27.3634 18.3317 27.1609 18.2437 27.1596C16.9885 27.139 15.7327 27.139 14.4775 27.1596C14.3895 27.1609 14.3048 27.3634 14.2188 27.4725H13.2302C12.9807 27.522 12.5993 27.3103 12.5713 27.7999C12.1451 27.9506 11.7146 28.0895 11.2941 28.2537C10.4562 28.5807 9.98976 29.1879 9.93537 30.0909C9.44227 30.1188 9.65553 30.4972 9.60576 30.7453V32.3819C9.73134 32.704 9.30053 33.2103 9.93537 33.3636C9.99273 34.5878 10.384 35.6675 11.3036 36.5263C11.6599 36.8588 11.9774 37.2344 12.3465 37.5509C13.5457 38.5781 14.8414 39.3911 16.5254 39.2547C16.6352 39.3635 16.7449 39.4726 16.8547 39.5818H19.8203C20.0701 39.5326 20.4512 39.7443 20.4792 39.2547C20.8305 39.2043 21.1608 39.2819 21.5326 39.0601C23.0977 38.1269 24.135 36.9096 24.1036 35ZM11.2532 17.9817H11.5828C11.6926 17.8726 11.8027 17.7635 11.9124 17.6543H12.5713C12.8212 17.6052 13.2022 17.8169 13.2302 17.327H14.2188C14.5431 17.2025 15.0527 17.6304 15.2073 17H20.1496C20.3041 17.6304 20.8141 17.2025 21.1381 17.327H22.1266C22.155 17.8169 22.536 17.6052 22.7855 17.6543H23.4447C23.5545 17.7635 23.6643 17.8726 23.774 17.9817C24.5783 18.3985 25.3944 18.7946 26.1839 19.2373C27.4618 19.9533 28.4747 21.0136 29.3564 22.1224C30.0595 23.0068 30.7728 23.9717 31.0269 25.1454C31.1545 25.7346 31.7422 26.152 31.6822 26.8182C31.792 26.9273 31.9017 27.0364 32.0115 27.1455V27.7999C32.0613 28.0479 31.848 28.4267 32.3411 28.4545V29.4362C32.4664 29.7583 32.0356 30.2646 32.6704 30.4182V31.7273C32.6704 32.2499 32.648 32.7742 32.6856 33.2942C32.6958 33.4331 32.8903 33.5589 33 33.691V38.2727C32.8903 38.4031 32.7001 38.5254 32.6856 38.6656C32.643 39.0762 32.6704 39.4939 32.6704 39.9091C32.5606 40.2954 32.4107 40.6758 32.3527 41.0694C32.2983 41.439 32.3411 41.8227 32.3411 42.2001C31.848 42.228 32.0613 42.6064 32.0115 42.8545C31.6179 44.2857 30.9666 45.5905 30.1567 46.8379C28.5241 49.3524 26.1196 50.8518 23.4424 52.0134C23.3501 52.0534 23.2249 52.0183 23.1151 52.0183C23.0054 52.1274 22.8956 52.2365 22.7855 52.3456H22.1266C21.8771 52.3948 21.4957 52.1831 21.4677 52.673H20.8088C20.4844 52.7975 19.9745 52.3696 19.8203 53H18.5021H14.8777H13.5598C13.4053 52.3696 12.8957 52.7975 12.5713 52.673H11.9124C11.8841 52.1831 11.503 52.3948 11.2532 52.3456C10.7868 52.1549 10.325 51.9518 9.85297 51.7758C8.31761 51.2044 7.0944 50.1847 5.86888 49.1424C4.31902 47.8239 3.22008 46.1695 2.18903 44.465C1.82942 43.8702 1.63726 43.1759 1.36862 42.5275C1.31885 42.2791 1.53178 41.9006 1.039 41.8728V41.2181C0.929237 41.109 0.819475 40.9999 0.709382 40.8911V40.2364C0.65994 39.9884 0.872873 39.6099 0.380095 39.5818V38.9274V37.9454C0.348781 36.9555 -0.00325049 36.0204 4.56821e-05 35.0013C0.00301224 34.0858 0.417012 33.2732 0.380095 32.3819V32.0546V30.7453C0.489857 30.6365 0.59962 30.5274 0.709382 30.4182C0.709382 30.0909 0.709382 29.7636 0.709382 29.4362C0.819475 29.3271 0.929237 29.218 1.039 29.1089C1.039 28.891 1.039 28.6728 1.039 28.4545C1.14876 28.3454 1.25853 28.2363 1.36862 28.1272C2.06411 27.0102 2.49426 25.7683 3.29193 24.6772C4.44362 23.1018 5.60585 21.624 7.21702 20.4503C8.30542 19.6574 9.45842 19.0056 10.5943 18.309C10.8441 18.2595 11.2252 18.4712 11.2532 17.9817Z" fill="#D8D8D8"/>
<path fill-rule="evenodd" clip-rule="evenodd" d="M117.323 24.8544V23.8727C117.43 23.7443 117.608 23.6276 117.63 23.4854C117.679 23.1853 117.645 22.8717 117.645 22.5634V21.909C117.753 21.7999 117.86 21.6908 117.968 21.5817C118.444 19.8399 119.316 18.3814 120.906 17.4653C121.387 17.1881 122.037 17.4368 122.484 17H124.097C125.181 17.3513 126.117 17.9037 126.677 18.9634C126.785 19.0725 126.893 19.1816 127 19.2907V19.9454V24.5271V26.4908C126.893 26.5999 126.785 26.709 126.677 26.8181V29.1091V32.0545C126.57 32.1901 126.372 32.3235 126.369 32.4618C126.343 33.5257 126.355 34.5903 126.355 35.6545V38.9272V39.5815V41.8726V43.1816C125.872 43.2098 126.081 43.5882 126.032 43.8363V44.8179C125.925 44.927 125.817 45.0362 125.71 45.1453C124.967 48.4763 122.935 50.6847 119.896 52.0131C119.807 52.0521 119.686 52.018 119.581 52.018C119.473 52.1271 119.366 52.2362 119.258 52.3453H118.613C118.505 52.4544 118.398 52.5636 118.29 52.6727H117.323C117.005 52.7972 116.506 52.3692 116.355 53H115.065H112.484H110.871C110.72 52.3692 110.221 52.7972 109.903 52.6727H108.936C108.828 52.5636 108.72 52.4544 108.613 52.3453H107.968C107.86 52.2362 107.753 52.1271 107.645 52.018C106.538 51.9236 105.701 51.1929 104.863 50.614C102.802 49.189 101.09 47.392 99.8911 45.1197C99.1166 43.6528 98.3421 42.1986 97.9678 40.5636C97.8603 40.4544 97.7529 40.3453 97.6454 40.2362C97.6199 39.5678 97.798 38.8649 97.3227 38.2725C97.3227 37.9645 97.3559 37.651 97.3082 37.3508C97.2856 37.2086 97.1078 37.0916 97 36.9635V35.6545V30.4181V27.1454C97.1078 27.015 97.2937 26.8928 97.3079 26.7526C97.3495 26.342 97.3227 25.9239 97.3227 25.5091C97.2411 24.511 97.5838 23.5667 97.8055 22.6315C97.9178 22.1584 97.8816 21.7069 97.9678 21.2544C98.0752 21.1453 98.183 21.0362 98.2905 20.927C98.7865 19.0037 99.9056 17.7546 101.516 17.327C101.834 17.2025 102.333 17.6304 102.484 17H103.129H105.71H106.355C106.382 17.4895 106.756 17.2779 107 17.327C108.349 17.5236 109.078 18.4398 109.581 19.618C109.688 19.7271 109.796 19.8363 109.903 19.9454V20.6V21.2544C110.026 21.5765 109.604 22.0827 110.226 22.2364V26.1634C110.118 26.2938 109.932 26.416 109.918 26.5563C109.877 26.9669 109.903 27.3849 109.903 27.7998V29.1091V30.0908C109.796 30.2189 109.618 30.3359 109.595 30.4781C109.547 30.7782 109.581 31.0918 109.581 31.3998V33.0362V37.6182C109.581 38.033 109.554 38.4508 109.596 38.8617C109.61 39.0019 109.796 39.1241 109.903 39.2545C109.735 40.3627 110.29 41.1304 111.006 41.8778C111.373 42.2615 111.755 42.1802 112.161 42.1999C112.687 42.6704 113.248 42.6704 113.774 42.1999C114.326 42.1603 114.887 42.3451 115.358 41.7703C115.98 41.0128 116.806 40.404 116.678 39.2545C117.16 39.2264 116.951 38.8479 117 38.5999V37.9452C117.483 37.9173 117.274 37.5389 117.323 37.2909V36.6362V34.6725C117.376 34.6725 117.473 34.684 117.477 34.6709C117.753 33.5817 117.753 32.4906 117.477 31.4014C117.473 31.3883 117.376 31.3998 117.323 31.3998V29.7635V24.8544Z" fill="#D8D8D8"/>
<path fill-rule="evenodd" clip-rule="evenodd" d="M46.7628 27.7818C46.8713 27.8909 46.9798 28 47.0886 28.1091C47.0886 28.7635 47.0886 29.4181 47.0886 30.0728C47.1241 30.8176 47.1599 31.5627 47.1958 32.3078C47.9441 32.3265 48.6928 32.3507 49.4411 32.3605C49.7043 32.3638 49.9702 32.3451 50.2292 32.3025C50.281 32.2937 50.307 32.1292 50.3452 32.0365C51.6975 32.0532 52.9361 31.7206 54.1559 31.0892C54.9286 30.6888 55.156 30.1229 55.2183 29.4004C55.2743 28.7562 55.23 28.1035 55.23 27.4544C55.1215 27.3453 55.013 27.2362 54.9045 27.1271C55.0977 26.4407 54.6589 26.0537 54.2393 25.6294C53.606 24.9891 52.9671 24.3973 51.9734 24.5091C51.9457 24.0196 51.5691 24.2312 51.3222 24.1817H49.6939C49.5662 24.0726 49.4499 23.8924 49.3085 23.8692C49.0098 23.8207 48.6977 23.8544 48.3911 23.8544C48.193 23.8901 47.9917 23.9144 47.7969 23.9642C47.5581 24.0254 47.3245 24.1083 47.0886 24.1817C46.9798 24.3174 46.7807 24.4511 46.7771 24.5894C46.7511 25.653 46.7628 26.7175 46.7628 27.7818ZM40.5752 52C38.9941 51.6946 37.6007 51.0399 36.569 49.7562C36.4253 49.5773 36.4142 49.2912 36.3416 49.0546C36.2924 48.8063 36.5032 48.4278 36.0158 48.4C36.0891 48.1627 36.1712 47.9281 36.2321 47.688C36.2819 47.4923 36.3061 47.2902 36.3416 47.091V43.4909C36.2331 42.6134 36.0829 41.7389 36.0275 40.8585C35.9734 39.9934 36.0158 39.1228 36.0158 38.2545V33.6728V31.0545V28.1091V26.8001V26.1454C36.6432 25.9921 36.2174 25.4858 36.3416 25.1637V24.5091C36.8791 23.8069 36.6022 22.9881 36.667 22.2181C36.7758 22.1089 36.8843 21.9998 36.9928 21.8907C37.4232 20.5991 37.56 19.196 38.5843 18.1383C39.0645 17.6426 40.036 16.7743 40.5523 16.6579C41.0997 16.5341 41.6529 16.4364 42.2034 16.3273H43.5063C43.6147 16.2182 43.7232 16.1091 43.8317 16H45.46C45.5688 16.1091 45.6773 16.2182 45.7858 16.3273H47.7398H49.0423C49.1951 16.9578 49.6988 16.5298 50.0194 16.6547C50.9964 16.7635 51.9734 16.8726 52.9505 16.9817C52.9782 17.4715 53.3548 17.2599 53.6017 17.309H54.253C54.3618 17.4181 54.4703 17.5272 54.5788 17.6363C56.8596 18.3031 58.9407 19.2947 60.7022 20.9726C62.1657 22.3668 63.2065 24.0022 64.023 25.8181C64.1318 25.9272 64.2403 26.0363 64.3488 26.1454C64.3575 26.711 64.2465 27.3004 64.6745 27.7818C64.7983 28.1039 64.3725 28.6101 65 28.7635V29.7455V31.3818V32.6908C64.5129 32.7187 64.7234 33.0975 64.6745 33.3455V33.9998C64.5657 34.1089 64.4572 34.2181 64.3488 34.3272C64.4168 34.994 63.9614 35.475 63.6767 35.9766C62.3908 38.2395 60.4253 39.6953 57.9949 40.5433C57.9474 40.56 57.8887 40.5456 57.8353 40.5456C57.7268 40.6543 57.6183 40.7635 57.5098 40.8726C56.8446 40.8985 56.1451 40.7179 55.5558 41.1999H54.9045H53.2763C53.1674 41.309 53.059 41.4181 52.9505 41.5272H50.0194C49.4098 41.0642 48.6752 41.0642 48.0656 41.5272V48.7273V49.3816V50.0363C47.5411 50.9131 46.8446 51.5478 45.7858 51.6727C45.6773 51.7818 45.5688 51.8909 45.46 52H44.8087H43.8317H40.5752Z" fill="#D8D8D8"/>
<path fill-rule="evenodd" clip-rule="evenodd" d="M144.892 26.4066H143.594C143.486 26.5147 143.378 26.6228 143.27 26.7309C141.862 26.8417 141.318 27.23 141 28.3525C140.556 28.6788 140.556 28.9993 141 29.3253C140.954 30.4705 141.917 30.7793 142.639 31.2653C143.849 32.08 145.267 32.4995 146.521 33.2255C149.501 34.9497 150.68 35.8312 152.23 38.7821C152.321 38.9545 152.313 39.1789 152.351 39.3789C152.459 39.487 152.568 39.5952 152.676 39.7033V40.0277C152.799 40.3468 152.375 40.8485 153 41.0004V41.9736V45.2167V45.541C152.892 45.6492 152.784 45.7573 152.676 45.8651C152.742 46.5258 152.274 46.9885 152.007 47.5019C151.326 48.8101 149.811 50.2472 148.43 50.8986C147.587 51.2963 146.837 51.921 145.865 52.0272C145.619 52.0759 145.244 51.8662 145.216 52.3516C144.459 52.4597 143.703 52.5678 142.946 52.6756C142.7 52.7247 142.325 52.5149 142.297 53H141.324H140.676H140.027H139.378H138.405C138.253 52.3753 137.752 52.7993 137.433 52.6756C134.601 51.9662 132.966 51.2411 130.623 49.7667C129.748 49.2156 129.286 48.4279 129 47.4869V45.2167C129.392 43.5201 130.005 41.9603 131.595 41.0004C131.703 40.8923 131.811 40.7842 131.919 40.6764H132.892C133 40.7842 133.108 40.8923 133.216 41.0004C134.475 41.48 135.696 42.1093 137.108 41.9736C137.108 42.0271 137.097 42.1249 137.11 42.1281C138.189 42.4067 139.271 42.4067 140.35 42.1281C140.363 42.1249 140.351 42.0271 140.351 41.9736C141.165 42.1184 141.795 41.8473 142.292 41.1807C142.588 40.7826 142.837 39.1078 142.489 38.7935C141.953 38.308 141.516 37.7502 140.832 37.3635C139.084 36.3728 137.154 35.7933 135.415 34.8198C134.265 34.1766 133.148 33.4327 132.148 32.58C131.551 32.0709 131.217 31.2575 130.749 30.5926C130.34 30.0101 130.234 29.3655 130.297 28.6768V26.4066V25.7578C130.845 23.469 131.908 21.4426 133.725 19.9438C134.993 18.8966 136.461 18.0956 138.081 17.6501C138.189 17.542 138.297 17.4338 138.405 17.3257C139.313 17.5592 140.117 16.9647 141 17.0017H144.892H146.189C146.297 17.1095 146.405 17.2176 146.513 17.3257H147.486C147.594 17.4338 147.702 17.542 147.811 17.6501C149.939 18.2229 151.497 19.5418 152.657 21.3708C152.813 21.6176 152.887 21.916 153 22.1903V22.8391V23.8122V24.4606C152.676 24.785 152.351 25.1094 152.027 25.4338C151.919 25.5419 151.811 25.6497 151.703 25.7578H150.73C150.411 25.8815 149.909 25.4575 149.757 26.0822H146.838C146.32 26.0822 145.8 26.0601 145.285 26.0971C145.147 26.1069 145.023 26.2984 144.892 26.4066Z" fill="#D8D8D8"/>
<path fill-rule="evenodd" clip-rule="evenodd" d="M94.6743 23.8727C94.4646 25.2823 93.4267 26.0733 92.3822 26.7909C91.9224 27.1068 91.4215 27.5311 90.7676 27.4728H90.1165C90.0081 27.5819 89.8996 27.691 89.7912 27.8001H87.5121C86.5957 27.8001 86.5957 27.8001 86.5354 28.4544V30.7455C85.9082 30.8988 86.3339 31.405 86.2101 31.7271V35.6545V37.2909V40.5636C86.1013 40.6727 85.9929 40.7818 85.8844 40.8909V44.4909V46.4546C85.776 46.5893 85.5783 46.7207 85.5734 46.8589C85.5444 47.7053 85.5588 48.553 85.5588 49.4V50.0546C85.4503 50.1637 85.3419 50.2729 85.2334 50.3816C85.1588 50.6202 85.1487 50.9154 84.9986 51.0874C84.3749 51.8034 83.5288 52.134 82.629 52.3453C82.5206 52.4544 82.4118 52.5636 82.3033 52.6727C81.6383 52.6986 80.9394 52.5177 80.3499 53H78.3969C77.7068 52.6068 76.8988 52.5226 76.2188 52.0462C75.699 51.6821 75.1004 51.4895 75.1411 50.709C75.0327 50.5999 74.9242 50.4908 74.8158 50.3816V50.0546C74.8158 49.7463 74.8493 49.4327 74.8008 49.1326C74.778 48.9904 74.5986 48.8737 74.4901 48.7453V48.091V40.2362C74.5986 39.691 74.707 39.1454 74.8158 38.5999V37.9455V34.3455V31.4001C74.8158 30.3759 74.7959 29.3509 74.8249 28.3273C74.8373 27.8958 74.6894 27.7752 74.2791 27.7919C73.5831 27.8211 72.8852 27.8001 72.1879 27.8001C71.4373 27.8001 70.6833 27.8424 69.9366 27.7873C69.28 27.7388 68.6313 27.5819 67.979 27.4728H67.6536C66.6154 27.439 66.5988 27.4223 66.3512 26.1637C66.2428 26.0546 66.1343 25.9455 66.0259 25.8364V25.1817V21.2547C65.9275 20.0866 66.1011 18.967 66.688 17.945C66.83 17.6979 67.111 17.5311 67.3279 17.3273C67.6344 17.3273 67.9464 17.3611 68.245 17.3126C68.3864 17.2897 68.5026 17.1091 68.6303 17H70.258H78.0712H82.3033C82.4385 17.1091 82.571 17.3093 82.7088 17.3129C83.7669 17.3391 84.8257 17.3273 85.8844 17.3273H89.7912C90.7483 17.0793 91.5987 17.6701 92.535 17.6956C92.915 17.7058 93.3133 18.1373 93.6498 18.4381C94.39 19.0993 94.8075 19.9562 95 20.9274V22.8911V23.5454C94.8912 23.6545 94.7828 23.7636 94.6743 23.8727Z" fill="#D8D8D8"/>
<mask id="mask0_0_154" style="mask-type:luminance" maskUnits="userSpaceOnUse" x="184" y="0" width="6" height="2">
<path fill-rule="evenodd" clip-rule="evenodd" d="M184 0.950222H190V1.44977H184V0.950222Z" fill="white"/>
</mask>
<g mask="url(#mask0_0_154)">
<path fill-rule="evenodd" clip-rule="evenodd" d="M189.684 1.44952H184.316H184V0.950018H190V1.44952H189.684Z" fill="#D8D8D8"/>
</g>
<path fill-rule="evenodd" clip-rule="evenodd" d="M160.05 33V38H159.95V36.4375V35.8124V33H160.05Z" fill="#D8D8D8"/>
<mask id="mask1_0_154" style="mask-type:luminance" maskUnits="userSpaceOnUse" x="0" y="1" width="215" height="52">
<path fill-rule="evenodd" clip-rule="evenodd" d="M0 53H215V1H0V53Z" fill="white"/>
</mask>
<g mask="url(#mask1_0_154)">
<path fill-rule="evenodd" clip-rule="evenodd" d="M214.95 25H215.05V20H214.95V25Z" fill="#D8D8D8"/>
<path fill-rule="evenodd" clip-rule="evenodd" d="M36.05 34V39C36.0167 38.9067 35.9549 38.8148 35.9545 38.7197C35.9484 37.24 35.9484 35.76 35.9545 34.2803C35.9549 34.1852 36.0167 34.0933 36.05 34Z" fill="#D8D8D8"/>
<path fill-rule="evenodd" clip-rule="evenodd" d="M125.951 36C125.951 34.8175 125.947 33.6347 125.955 32.4529C125.956 32.2993 126.016 32.1507 126.049 32C126.049 33.1825 126.053 34.3653 126.045 35.5471C126.044 35.7007 125.984 35.8493 125.951 36Z" fill="#D8D8D8"/>
<path fill-rule="evenodd" clip-rule="evenodd" d="M36.0423 43V47C36.014 46.9578 35.9612 46.9166 35.961 46.8729C35.9566 45.6246 35.9566 44.3754 35.961 43.1271C35.9612 43.0834 36.014 43.0422 36.0423 43Z" fill="#D8D8D8"/>
<path fill-rule="evenodd" clip-rule="evenodd" d="M177 49.0499H181V48.95H177V49.0499Z" fill="#D8D8D8"/>
<path fill-rule="evenodd" clip-rule="evenodd" d="M86 16.95V17.0492C84.8174 17.0492 83.6348 17.0528 82.4529 17.0448C82.299 17.0437 82.151 16.9831 82 16.95H86Z" fill="#D8D8D8"/>
<path fill-rule="evenodd" clip-rule="evenodd" d="M159.95 25H160.05V22H159.95V25Z" fill="#D8D8D8"/>
<path fill-rule="evenodd" clip-rule="evenodd" d="M116.95 32.0042C116.965 32.0042 116.992 31.9938 116.993 32.0057C117.069 33.0013 117.069 33.9987 116.993 34.9943C116.992 35.0062 116.965 34.9958 116.95 34.9958V32.0042Z" fill="#D8D8D8"/>
<path fill-rule="evenodd" clip-rule="evenodd" d="M36.05 28V31C36.017 30.8628 35.957 30.729 35.9555 30.5882C35.9467 29.7264 35.951 28.8627 35.951 28H36.05Z" fill="#D8D8D8"/>
<path fill-rule="evenodd" clip-rule="evenodd" d="M190 0.949997H190.375H190.75H193V1.0487C192.154 1.0487 191.306 1.05364 190.461 1.04425C190.303 1.04247 190.153 0.982897 190 0.949997Z" fill="#D8D8D8"/>
<path fill-rule="evenodd" clip-rule="evenodd" d="M130.05 26V28C130.017 27.8839 129.958 27.7717 129.956 27.6507C129.946 27.1018 129.952 26.5503 129.952 26H130.05Z" fill="#D8D8D8"/>
<path fill-rule="evenodd" clip-rule="evenodd" d="M177 48.95V49.0484C176.449 49.0484 175.898 49.0541 175.349 49.0439C175.228 49.0417 175.116 48.9828 175 48.95H177Z" fill="#D8D8D8"/>
<path fill-rule="evenodd" clip-rule="evenodd" d="M182 48.95H183.667H184V49.0499H182V48.95Z" fill="#D8D8D8"/>
<path fill-rule="evenodd" clip-rule="evenodd" d="M48.3334 41.05H48C48.6242 40.9167 49.3761 40.9167 50 41.05H48.3334Z" fill="#D8D8D8"/>
<path fill-rule="evenodd" clip-rule="evenodd" d="M160.048 30C160.048 30.5323 160.055 31.0662 160.043 31.5959C160.04 31.7374 159.983 31.8655 159.95 32V31.3332V30H160.048Z" fill="#D8D8D8"/>
<path fill-rule="evenodd" clip-rule="evenodd" d="M183.333 49.05H183C183.134 49.0173 183.263 48.9595 183.404 48.9565C183.934 48.9453 184.468 48.952 185 48.952V49.05H183.667H183.333Z" fill="#D8D8D8"/>
<path fill-rule="evenodd" clip-rule="evenodd" d="M33.048 33C33.016 32.8655 32.9593 32.7374 32.9563 32.5959C32.9454 32.0662 32.9519 31.5323 32.9519 31C32.984 31.1345 33.0407 31.2626 33.0436 31.4041C33.0546 31.9338 33.048 32.4677 33.048 33Z" fill="#D8D8D8"/>
<path fill-rule="evenodd" clip-rule="evenodd" d="M183.667 0.949997C183.778 0.949997 183.889 0.949997 184 0.949997C183.866 0.982672 183.737 1.04056 183.596 1.04351C183.066 1.05469 182.532 1.04802 182 1.04802V0.949997H183.333H183.667Z" fill="#D8D8D8"/>
<path fill-rule="evenodd" clip-rule="evenodd" d="M145 26.048C145.134 26.016 145.262 25.9593 145.404 25.9564C145.934 25.9454 146.467 25.9519 147 25.9519C146.866 25.984 146.737 26.0407 146.596 26.0436C146.066 26.0547 145.532 26.048 145 26.048Z" fill="#D8D8D8"/>
<path fill-rule="evenodd" clip-rule="evenodd" d="M109.953 28C109.953 27.4926 109.944 26.982 109.957 26.4802C109.961 26.3088 110.017 26.1594 110.05 26V28H109.953Z" fill="#D8D8D8"/>
<path fill-rule="evenodd" clip-rule="evenodd" d="M159.95 24H160.047C160.047 24.5074 160.055 25.018 160.043 25.5202C160.039 25.6912 159.982 25.8406 159.95 26V25.5999V24Z" fill="#D8D8D8"/>
<path fill-rule="evenodd" clip-rule="evenodd" d="M32.9524 40C32.9524 39.4926 32.9446 38.982 32.9568 38.4798C32.961 38.3088 33.0157 38.1594 33.0475 38C33.0475 38.5074 33.0553 39.018 33.0431 39.5198C33.0389 39.6912 32.9841 39.8406 32.9524 40Z" fill="#D8D8D8"/>
<path fill-rule="evenodd" clip-rule="evenodd" d="M215.047 20H214.95V18C214.982 18.1594 215.039 18.3088 215.043 18.4798C215.055 18.982 215.047 19.4926 215.047 20Z" fill="#D8D8D8"/>
<path fill-rule="evenodd" clip-rule="evenodd" d="M114 41.95C113.348 42.0833 112.652 42.0833 112 41.95H114Z" fill="#D8D8D8"/>
<path fill-rule="evenodd" clip-rule="evenodd" d="M188 47.95H190C189.841 47.9825 189.691 48.0387 189.52 48.0429C189.018 48.0555 188.507 48.0474 188 48.0474V47.95Z" fill="#D8D8D8"/>
<path fill-rule="evenodd" clip-rule="evenodd" d="M197 2.05H195V1.95256C195.507 1.95256 196.018 1.94446 196.52 1.95705C196.691 1.96134 196.841 2.01752 197 2.05Z" fill="#D8D8D8"/>
<path fill-rule="evenodd" clip-rule="evenodd" d="M182 0.953371V1.05H181C181.098 1.01779 181.187 0.964494 181.296 0.957723C181.525 0.943408 181.765 0.953371 182 0.953371Z" fill="#D8D8D8"/>
<path fill-rule="evenodd" clip-rule="evenodd" d="M160.047 21H159.95V20C159.982 20.0979 160.035 20.187 160.042 20.2956C160.057 20.5252 160.047 20.7647 160.047 21Z" fill="#D8D8D8"/>
<path fill-rule="evenodd" clip-rule="evenodd" d="M198 2.05H197V1.95337C197.236 1.95337 197.475 1.94341 197.704 1.95772C197.813 1.96449 197.902 2.01779 198 2.05Z" fill="#D8D8D8"/>
<path fill-rule="evenodd" clip-rule="evenodd" d="M160.05 31V31.5001V32H159.953C159.953 31.7647 159.943 31.5252 159.958 31.2959C159.965 31.1872 160.018 31.0979 160.05 31Z" fill="#D8D8D8"/>
<path fill-rule="evenodd" clip-rule="evenodd" d="M109.05 31H108.953C108.953 30.7647 108.943 30.5252 108.958 30.2956C108.965 30.187 109.018 30.0979 109.05 30V31Z" fill="#D8D8D8"/>
<path fill-rule="evenodd" clip-rule="evenodd" d="M190 47.95C190.333 47.95 190.667 47.95 191 47.95C190.902 47.9822 190.813 48.0354 190.704 48.0423C190.475 48.0566 190.235 48.0466 190 48.0466V47.95Z" fill="#D8D8D8"/>
<path fill-rule="evenodd" clip-rule="evenodd" d="M160.047 28C160.047 28.2353 160.057 28.4748 160.042 28.7044C160.035 28.813 159.982 28.9021 159.95 29V28H160.047Z" fill="#D8D8D8"/>
<path fill-rule="evenodd" clip-rule="evenodd" d="M173 48.95H174V49.0466C173.764 49.0466 173.525 49.0566 173.296 49.0423C173.187 49.0355 173.098 48.9822 173 48.95Z" fill="#D8D8D8"/>
<path fill-rule="evenodd" clip-rule="evenodd" d="M195 1.95V2.04662C194.765 2.04662 194.525 2.05659 194.296 2.04227C194.187 2.0355 194.098 1.98221 194 1.95H194.25H195Z" fill="#D8D8D8"/>
<path fill-rule="evenodd" clip-rule="evenodd" d="M193 1.04995H194V0.950047H193V1.04995Z" fill="#D8D8D8"/>
<path fill-rule="evenodd" clip-rule="evenodd" d="M186 49.0466V48.95H187C186.902 48.9822 186.813 49.0355 186.704 49.0423C186.475 49.0566 186.235 49.0466 186 49.0466Z" fill="#D8D8D8"/>
<path fill-rule="evenodd" clip-rule="evenodd" d="M74.9532 49C74.9843 49.0979 75.0359 49.1872 75.0424 49.2959C75.0563 49.5252 75.0467 49.7647 75.0467 50C75.0155 49.9021 74.964 49.813 74.9574 49.7044C74.9436 49.4748 74.9532 49.2353 74.9532 49Z" fill="#D8D8D8"/>
<path fill-rule="evenodd" clip-rule="evenodd" d="M159.95 27H160.05V26H159.95V27Z" fill="#D8D8D8"/>
<path fill-rule="evenodd" clip-rule="evenodd" d="M181 49.0499H182V48.95H181V49.0499Z" fill="#D8D8D8"/>
<path fill-rule="evenodd" clip-rule="evenodd" d="M69 16.9533C68.902 16.9844 68.813 17.036 68.7042 17.0425C68.4749 17.0564 68.2356 17.0467 68 17.0467C68.098 17.0156 68.1873 16.964 68.2958 16.9575C68.5251 16.9436 68.7647 16.9533 69 16.9533Z" fill="#D8D8D8"/>
<path fill-rule="evenodd" clip-rule="evenodd" d="M214.95 24H215.047C215.047 24.2353 215.057 24.4748 215.042 24.7044C215.035 24.813 214.982 24.9021 214.95 25V24Z" fill="#D8D8D8"/>
<path fill-rule="evenodd" clip-rule="evenodd" d="M169 2.95728C168.844 3.12197 168.328 3.01015 168 3.04275C168.156 2.87806 168.672 2.98979 169 2.95728Z" fill="#D8D8D8"/>
<path fill-rule="evenodd" clip-rule="evenodd" d="M172 2.95728C171.844 3.12197 171.328 3.01015 171 3.04275C171.156 2.87806 171.672 2.98979 172 2.95728Z" fill="#D8D8D8"/>
<path fill-rule="evenodd" clip-rule="evenodd" d="M201 3.04272C200.672 3.01021 200.156 3.12194 200 2.95725C200.328 2.98984 200.844 2.87803 201 3.04272Z" fill="#D8D8D8"/>
<path fill-rule="evenodd" clip-rule="evenodd" d="M102 16.9573C101.844 17.122 101.328 17.0101 101 17.0427C101.156 16.8781 101.672 16.9898 102 16.9573Z" fill="#D8D8D8"/>
<path fill-rule="evenodd" clip-rule="evenodd" d="M36.0421 25C36.007 25.3281 36.1276 25.8438 35.95 26V25H36.0421Z" fill="#D8D8D8"/>
<path fill-rule="evenodd" clip-rule="evenodd" d="M174 2.95C173.844 3.12762 173.328 3.00702 173 3.04218V2.95H173.667H174Z" fill="#D8D8D8"/>
<path fill-rule="evenodd" clip-rule="evenodd" d="M153.043 41C152.878 40.8438 152.99 40.3281 152.957 40C153.122 40.1562 153.01 40.6719 153.043 41Z" fill="#D8D8D8"/>
<path fill-rule="evenodd" clip-rule="evenodd" d="M167 3.95728C166.844 4.12197 166.328 4.01015 166 4.04275C166.156 3.87806 166.672 3.98979 167 3.95728Z" fill="#D8D8D8"/>
<path fill-rule="evenodd" clip-rule="evenodd" d="M150 26.0427C150.156 25.878 150.672 25.9898 151 25.9572C150.844 26.1219 150.328 26.0102 150 26.0427Z" fill="#D8D8D8"/>
<path fill-rule="evenodd" clip-rule="evenodd" d="M214.958 27C214.993 26.6719 214.872 26.1562 215.05 26V27H214.958Z" fill="#D8D8D8"/>
<path fill-rule="evenodd" clip-rule="evenodd" d="M173 2.95785V3.05H172C172.156 2.87243 172.672 2.9929 173 2.95785Z" fill="#D8D8D8"/>
<path fill-rule="evenodd" clip-rule="evenodd" d="M179 2.05H178C178.156 1.87237 178.672 1.99297 179 1.95782V2.05Z" fill="#D8D8D8"/>
<path fill-rule="evenodd" clip-rule="evenodd" d="M165 3.95728C164.844 4.12197 164.328 4.01015 164 4.04275C164.156 3.87806 164.672 3.98979 165 3.95728Z" fill="#D8D8D8"/>
<path fill-rule="evenodd" clip-rule="evenodd" d="M159.958 38H160.05V39C159.872 38.8438 159.993 38.3281 159.958 38Z" fill="#D8D8D8"/>
<path fill-rule="evenodd" clip-rule="evenodd" d="M1.04995 38V39C0.916618 38.6649 0.916618 38.3354 1.04995 38Z" fill="#D8D8D8"/>
<path fill-rule="evenodd" clip-rule="evenodd" d="M179 2.04995H180V1.95005H179V2.04995Z" fill="#D8D8D8"/>
<path fill-rule="evenodd" clip-rule="evenodd" d="M13 51.9573C13.3281 51.9898 13.8436 51.8781 14 52.0427C13.6719 52.0101 13.1564 52.122 13 51.9573Z" fill="#D8D8D8"/>
<path fill-rule="evenodd" clip-rule="evenodd" d="M179 2.04215V1.95H180C179.844 2.12756 179.328 2.00709 179 2.04215Z" fill="#D8D8D8"/>
<path fill-rule="evenodd" clip-rule="evenodd" d="M215.05 18C214.872 17.8438 214.993 17.3281 214.958 17H215.05V18Z" fill="#D8D8D8"/>
<path fill-rule="evenodd" clip-rule="evenodd" d="M214.95 27H215.042C215.007 27.3281 215.128 27.8438 214.95 28V27Z" fill="#D8D8D8"/>
<path fill-rule="evenodd" clip-rule="evenodd" d="M175 1.95C174.844 2.12762 174.328 2.00702 174 2.04218V1.95H175Z" fill="#D8D8D8"/>
<path fill-rule="evenodd" clip-rule="evenodd" d="M20 52.0427C20.1564 51.878 20.6719 51.9898 21 51.9572C20.8436 52.1219 20.3281 52.0102 20 52.0427Z" fill="#D8D8D8"/>
<path fill-rule="evenodd" clip-rule="evenodd" d="M174 1.95785V2.05H173.333H173C173.156 1.87243 173.672 1.9929 174 1.95785Z" fill="#D8D8D8"/>
<path fill-rule="evenodd" clip-rule="evenodd" d="M151 10.9573C151.328 10.9898 151.844 10.8781 152 11.0427C151.672 11.0101 151.156 11.122 151 10.9573Z" fill="#D8D8D8"/>
<path fill-rule="evenodd" clip-rule="evenodd" d="M21 17.0427C20.6719 17.0102 20.1564 17.1219 20 16.9572C20.3281 16.9898 20.8436 16.878 21 17.0427Z" fill="#D8D8D8"/>
<path fill-rule="evenodd" clip-rule="evenodd" d="M110 52.9573C110.328 52.9898 110.844 52.8781 111 53.0427C110.672 53.0101 110.156 53.122 110 52.9573Z" fill="#D8D8D8"/>
<path fill-rule="evenodd" clip-rule="evenodd" d="M174 49.05V48.9578C174.328 48.993 174.844 48.8724 175 49.05H174Z" fill="#D8D8D8"/>
<path fill-rule="evenodd" clip-rule="evenodd" d="M15 16.9573C14.8436 17.122 14.3281 17.0101 14 17.0427C14.1564 16.8781 14.6719 16.9898 15 16.9573Z" fill="#D8D8D8"/>
<path fill-rule="evenodd" clip-rule="evenodd" d="M116 53.0427C116.156 52.878 116.672 52.9898 117 52.9572C116.844 53.1219 116.328 53.0102 116 53.0427Z" fill="#D8D8D8"/>
<path fill-rule="evenodd" clip-rule="evenodd" d="M176 2.05H175C175.156 1.87237 175.672 1.99297 176 1.95782V2.05Z" fill="#D8D8D8"/>
<path fill-rule="evenodd" clip-rule="evenodd" d="M188 47.9578V48.05H187C187.156 47.8724 187.672 47.9929 188 47.9578Z" fill="#D8D8D8"/>
<path fill-rule="evenodd" clip-rule="evenodd" d="M50 17.0427C49.6719 17.0102 49.1564 17.1219 49 16.9572C49.3281 16.9898 49.8436 16.878 50 17.0427Z" fill="#D8D8D8"/>
<path fill-rule="evenodd" clip-rule="evenodd" d="M215.042 17H214.95V16C215.128 16.1562 215.007 16.6719 215.042 17Z" fill="#D8D8D8"/>
<path fill-rule="evenodd" clip-rule="evenodd" d="M141.05 29C140.917 28.6646 140.917 28.3351 141.05 28V29Z" fill="#D8D8D8"/>
<path fill-rule="evenodd" clip-rule="evenodd" d="M110.05 22C109.872 21.8438 109.993 21.3281 109.958 21H110.05V22Z" fill="#D8D8D8"/>
<path fill-rule="evenodd" clip-rule="evenodd" d="M160.05 30H159.958C159.993 29.6719 159.872 29.1562 160.05 29V30Z" fill="#D8D8D8"/>
<path fill-rule="evenodd" clip-rule="evenodd" d="M32.0427 30C31.878 29.8438 31.9898 29.3281 31.9572 29C32.1219 29.1562 32.0101 29.6719 32.0427 30Z" fill="#D8D8D8"/>
<path fill-rule="evenodd" clip-rule="evenodd" d="M192 48.0427C192.156 47.878 192.672 47.9898 193 47.9572C192.844 48.1219 192.328 48.0102 192 48.0427Z" fill="#D8D8D8"/>
<path fill-rule="evenodd" clip-rule="evenodd" d="M86.05 32H85.9578C85.9929 31.6719 85.8724 31.1562 86.05 31V32Z" fill="#D8D8D8"/>
<path fill-rule="evenodd" clip-rule="evenodd" d="M176 2.04995H177V1.95005H176V2.04995Z" fill="#D8D8D8"/>
<path fill-rule="evenodd" clip-rule="evenodd" d="M215.049 16C214.903 15.9575 214.966 15.3789 214.951 15C215.097 15.043 215.034 15.6211 215.049 16Z" fill="#D8D8D8"/>
<path fill-rule="evenodd" clip-rule="evenodd" d="M12 17.9514C11.9575 18.0968 11.3787 18.0339 11 18.0486C11.0425 17.9032 11.6208 17.966 12 17.9514Z" fill="#D8D8D8"/>
<path fill-rule="evenodd" clip-rule="evenodd" d="M125.951 44C125.966 43.6211 125.903 43.043 126.049 43C126.034 43.3789 126.097 43.9575 125.951 44Z" fill="#D8D8D8"/>
<path fill-rule="evenodd" clip-rule="evenodd" d="M142 53.0486C142.043 52.9032 142.621 52.9661 143 52.9514C142.957 53.0968 142.379 53.034 142 53.0486Z" fill="#D8D8D8"/>
<path fill-rule="evenodd" clip-rule="evenodd" d="M159.951 19C160.097 19.0425 160.034 19.6211 160.049 20C159.903 19.957 159.966 19.3789 159.951 19Z" fill="#D8D8D8"/>
<path fill-rule="evenodd" clip-rule="evenodd" d="M35.9513 48C36.0968 48.0425 36.0339 48.6211 36.0486 49C35.9031 48.957 35.966 48.3789 35.9513 48Z" fill="#D8D8D8"/>
<path fill-rule="evenodd" clip-rule="evenodd" d="M32.0486 28C31.9031 27.9575 31.966 27.3789 31.9513 27C32.0968 27.043 32.0339 27.6211 32.0486 28Z" fill="#D8D8D8"/>
<path fill-rule="evenodd" clip-rule="evenodd" d="M64.9513 34C64.966 33.6211 64.9031 33.043 65.0486 33C65.0339 33.3789 65.0968 33.9575 64.9513 34Z" fill="#D8D8D8"/>
<path fill-rule="evenodd" clip-rule="evenodd" d="M152.95 23V22C152.983 22.2077 153.017 22.4149 153.05 22.6221C153.017 22.7482 152.983 22.8739 152.95 23Z" fill="#D8D8D8"/>
<path fill-rule="evenodd" clip-rule="evenodd" d="M149 10.9514C149.379 10.966 149.957 10.9032 150 11.0486C149.621 11.0339 149.043 11.0968 149 10.9514Z" fill="#D8D8D8"/>
<path fill-rule="evenodd" clip-rule="evenodd" d="M31.9513 43C31.966 42.6211 31.9031 42.043 32.0486 42C32.0339 42.3789 32.0968 42.9575 31.9513 43Z" fill="#D8D8D8"/>
<path fill-rule="evenodd" clip-rule="evenodd" d="M157 6.95139C156.957 7.09683 156.379 7.03394 156 7.04864C156.043 6.90321 156.621 6.96599 157 6.95139Z" fill="#D8D8D8"/>
<path fill-rule="evenodd" clip-rule="evenodd" d="M159 5.95139C158.957 6.09683 158.379 6.03394 158 6.04864C158.043 5.90321 158.621 5.96599 159 5.95139Z" fill="#D8D8D8"/>
<path fill-rule="evenodd" clip-rule="evenodd" d="M116.95 37H117.049C117.034 37.3789 117.097 37.957 116.95 38V37Z" fill="#D8D8D8"/>
<path fill-rule="evenodd" clip-rule="evenodd" d="M14 16.9514C13.9575 17.0968 13.3787 17.0339 13 17.0486C13.0425 16.9032 13.6208 16.966 14 16.9514Z" fill="#D8D8D8"/>
<path fill-rule="evenodd" clip-rule="evenodd" d="M163 4.95139C162.957 5.09683 162.379 5.03394 162 5.04864C162.043 4.90321 162.621 4.96599 163 4.95139Z" fill="#D8D8D8"/>
<path fill-rule="evenodd" clip-rule="evenodd" d="M152.95 25V24C152.983 24.2077 153.017 24.4149 153.05 24.6221C153.017 24.7482 152.983 24.8739 152.95 25Z" fill="#D8D8D8"/>
<path fill-rule="evenodd" clip-rule="evenodd" d="M164 4.95139C163.957 5.09683 163.379 5.03394 163 5.04864C163.043 4.90321 163.621 4.96599 164 4.95139Z" fill="#D8D8D8"/>
<path fill-rule="evenodd" clip-rule="evenodd" d="M74.9513 38H75.05V39C74.9024 38.957 74.9662 38.3789 74.9513 38Z" fill="#D8D8D8"/>
<path fill-rule="evenodd" clip-rule="evenodd" d="M117.049 38C117.034 38.3789 117.097 38.957 116.951 39C116.966 38.6211 116.903 38.0425 117.049 38Z" fill="#D8D8D8"/>
<path fill-rule="evenodd" clip-rule="evenodd" d="M159.951 38C160.097 38.0425 160.034 38.6211 160.049 39C159.903 38.957 159.966 38.3789 159.951 38Z" fill="#D8D8D8"/>
<path fill-rule="evenodd" clip-rule="evenodd" d="M23 17.0486C22.6208 17.034 22.0425 17.0968 22 16.9514C22.3787 16.9661 22.9575 16.9032 23 17.0486Z" fill="#D8D8D8"/>
<path fill-rule="evenodd" clip-rule="evenodd" d="M145 52.0486C145.043 51.9032 145.621 51.9661 146 51.9514C145.957 52.0968 145.379 52.034 145 52.0486Z" fill="#D8D8D8"/>
<path fill-rule="evenodd" clip-rule="evenodd" d="M126.049 40H125.95V39C126.097 39.043 126.034 39.6211 126.049 40Z" fill="#D8D8D8"/>
<path fill-rule="evenodd" clip-rule="evenodd" d="M0.951328 39C1.09676 39.0425 1.03392 39.6211 1.0486 40C0.903078 39.957 0.966016 39.3789 0.951328 39Z" fill="#D8D8D8"/>
<path fill-rule="evenodd" clip-rule="evenodd" d="M1.95133 41C2.09676 41.0425 2.03392 41.6211 2.0486 42C1.90308 41.957 1.96602 41.3789 1.95133 41Z" fill="#D8D8D8"/>
<path fill-rule="evenodd" clip-rule="evenodd" d="M54 17.0486C53.6208 17.034 53.0425 17.0968 53 16.9514C53.3787 16.9661 53.9575 16.9032 54 17.0486Z" fill="#D8D8D8"/>
<path fill-rule="evenodd" clip-rule="evenodd" d="M169 3.95139C168.957 4.09683 168.379 4.03394 168 4.04864C168.043 3.90321 168.621 3.96599 169 3.95139Z" fill="#D8D8D8"/>
<path fill-rule="evenodd" clip-rule="evenodd" d="M11 51.9514C11.3792 51.966 11.9575 51.9032 12 52.0486C11.6213 52.0339 11.0425 52.0968 11 51.9514Z" fill="#D8D8D8"/>
<path fill-rule="evenodd" clip-rule="evenodd" d="M107 17.0486C106.621 17.034 106.043 17.0968 106 16.9514C106.379 16.9661 106.957 16.9032 107 17.0486Z" fill="#D8D8D8"/>
<path fill-rule="evenodd" clip-rule="evenodd" d="M21 52.0486C21.0425 51.9032 21.6213 51.9661 22 51.9514C21.9575 52.0968 21.3792 52.034 21 52.0486Z" fill="#D8D8D8"/>
<path fill-rule="evenodd" clip-rule="evenodd" d="M193 47.0486C193.043 46.9032 193.621 46.9661 194 46.9514C193.957 47.0968 193.379 47.034 193 47.0486Z" fill="#D8D8D8"/>
<path fill-rule="evenodd" clip-rule="evenodd" d="M133.05 41.0499C133.017 41.0166 132.983 40.9833 132.95 40.95C132.983 40.9833 133.017 41.0166 133.05 41.0499Z" fill="#D8D8D8"/>
<path fill-rule="evenodd" clip-rule="evenodd" d="M132.05 40.95C132.017 40.9833 131.983 41.0166 131.95 41.0499C131.983 41.0166 132.017 40.9833 132.05 40.95Z" fill="#D8D8D8"/>
<path fill-rule="evenodd" clip-rule="evenodd" d="M86.05 41.0499H85.95C85.9834 41.0166 86.0167 40.9833 86.05 40.95V41.0499Z" fill="#D8D8D8"/>
<path fill-rule="evenodd" clip-rule="evenodd" d="M57.95 41.0499C57.9833 41.0166 58.0166 40.9833 58.05 40.95C58.0166 40.9833 57.9833 41.0166 57.95 41.0499Z" fill="#D8D8D8"/>
<path fill-rule="evenodd" clip-rule="evenodd" d="M53.05 40.95V41.0499H52.95C52.9834 41.0166 53.0167 40.9833 53.05 40.95Z" fill="#D8D8D8"/>
<path fill-rule="evenodd" clip-rule="evenodd" d="M0.949951 40.95C0.983251 40.9833 1.01655 41.0166 1.04995 41.0499C1.01655 41.0166 0.983251 40.9833 0.949951 40.95Z" fill="#D8D8D8"/>
<path fill-rule="evenodd" clip-rule="evenodd" d="M96.95 39.95C96.9833 39.9833 97.0166 40.0166 97.05 40.0499C97.0166 40.0166 96.9833 39.9833 96.95 39.95Z" fill="#D8D8D8"/>
<path fill-rule="evenodd" clip-rule="evenodd" d="M152.05 39.0499C152.017 39.0166 151.983 38.9833 151.95 38.95C151.983 38.9833 152.017 39.0166 152.05 39.0499Z" fill="#D8D8D8"/>
<path fill-rule="evenodd" clip-rule="evenodd" d="M64.95 34.0499C64.9833 34.0166 65.0166 33.9833 65.05 33.95C65.0166 33.9833 64.9833 34.0166 64.95 34.0499Z" fill="#D8D8D8"/>
<path fill-rule="evenodd" clip-rule="evenodd" d="M1.0414 31.95V32.0499C1.0138 32.0275 0.986101 32.0052 0.958501 31.9829C0.986101 31.9719 1.0138 31.961 1.0414 31.95Z" fill="#D8D8D8"/>
<path fill-rule="evenodd" clip-rule="evenodd" d="M197.05 1.95005V2.04995C197.017 2.01665 196.983 1.98335 196.95 1.95005H197.05Z" fill="#D8D8D8"/>
<path fill-rule="evenodd" clip-rule="evenodd" d="M125.95 45.0499C125.983 45.0166 126.017 44.9833 126.05 44.95C126.017 44.9833 125.983 45.0166 125.95 45.0499Z" fill="#D8D8D8"/>
<path fill-rule="evenodd" clip-rule="evenodd" d="M176.95 2.04995V1.95005H177.05C177.017 1.98335 176.983 2.01665 176.95 2.04995Z" fill="#D8D8D8"/>
<path fill-rule="evenodd" clip-rule="evenodd" d="M152.95 46.0499C152.983 46.0166 153.017 45.9833 153.05 45.95C153.017 45.9833 152.983 46.0166 152.95 46.0499Z" fill="#D8D8D8"/>
<path fill-rule="evenodd" clip-rule="evenodd" d="M1.04995 29.95C1.01665 29.9833 0.983351 30.0166 0.949951 30.0499C0.983351 30.0166 1.01665 29.9833 1.04995 29.95Z" fill="#D8D8D8"/>
<path fill-rule="evenodd" clip-rule="evenodd" d="M43.95 16.0499V15.95H44.05C44.0166 15.9833 43.9833 16.0166 43.95 16.0499Z" fill="#D8D8D8"/>
<path fill-rule="evenodd" clip-rule="evenodd" d="M46.05 15.95V16.0499C46.0167 16.0166 45.9834 15.9833 45.95 15.95H46.05Z" fill="#D8D8D8"/>
<path fill-rule="evenodd" clip-rule="evenodd" d="M190.05 47.95V48.0499H189.95C189.983 48.0166 190.017 47.9833 190.05 47.95Z" fill="#D8D8D8"/>
<path fill-rule="evenodd" clip-rule="evenodd" d="M1.04995 28.95C1.01665 28.9833 0.983351 29.0166 0.949951 29.0499C0.983351 29.0166 1.01665 28.9833 1.04995 28.95Z" fill="#D8D8D8"/>
<path fill-rule="evenodd" clip-rule="evenodd" d="M2.04995 27.95C2.01665 27.9833 1.98335 28.0166 1.94995 28.0499C1.98335 28.0166 2.01665 27.9833 2.04995 27.95Z" fill="#D8D8D8"/>
<path fill-rule="evenodd" clip-rule="evenodd" d="M90.05 27.95V28.0499H89.95C89.9834 28.0166 90.0167 27.9833 90.05 27.95Z" fill="#D8D8D8"/>
<path fill-rule="evenodd" clip-rule="evenodd" d="M67.95 27.9586H68.05C68.0276 27.9862 68.0053 28.0138 67.9829 28.0414C67.9719 28.0138 67.961 27.9862 67.95 27.9586Z" fill="#D8D8D8"/>
<path fill-rule="evenodd" clip-rule="evenodd" d="M146.05 17.0499C146.017 17.0166 145.983 16.9833 145.95 16.95C145.983 16.9833 146.017 17.0166 146.05 17.0499Z" fill="#D8D8D8"/>
<path fill-rule="evenodd" clip-rule="evenodd" d="M127.05 27.0499C127.017 27.0499 126.983 27.0499 126.95 27.0499C126.983 27.0166 127.017 26.9833 127.05 26.95V27.0499Z" fill="#D8D8D8"/>
<path fill-rule="evenodd" clip-rule="evenodd" d="M32.05 27.0499C32.0167 27.0166 31.9834 26.9833 31.95 26.95C31.9834 26.9833 32.0167 27.0166 32.05 27.0499Z" fill="#D8D8D8"/>
<path fill-rule="evenodd" clip-rule="evenodd" d="M142.95 26.0499C142.983 26.0166 143.017 25.9833 143.05 25.95C143.017 25.9833 142.983 26.0166 142.95 26.0499Z" fill="#D8D8D8"/>
<path fill-rule="evenodd" clip-rule="evenodd" d="M109.05 20.0499C109.017 20.0166 108.983 19.9833 108.95 19.95C108.983 19.9833 109.017 20.0166 109.05 20.0499Z" fill="#D8D8D8"/>
<path fill-rule="evenodd" clip-rule="evenodd" d="M65.95 25.95C65.9833 25.9833 66.0166 26.0166 66.05 26.0499C66.0166 26.0166 65.9833 25.9833 65.95 25.95Z" fill="#D8D8D8"/>
<path fill-rule="evenodd" clip-rule="evenodd" d="M64.05 26.0499C64.0167 26.0166 63.9834 25.9833 63.95 25.95C63.9834 25.9833 64.0167 26.0166 64.05 26.0499Z" fill="#D8D8D8"/>
<path fill-rule="evenodd" clip-rule="evenodd" d="M84.95 50.0499C84.9833 50.0166 85.0166 49.9833 85.05 49.95C85.0166 49.9833 84.9833 50.0166 84.95 50.0499Z" fill="#D8D8D8"/>
<path fill-rule="evenodd" clip-rule="evenodd" d="M74.95 49.95C74.9833 49.9833 75.0166 50.0166 75.05 50.0499C75.0166 50.0166 74.9833 49.9833 74.95 49.95Z" fill="#D8D8D8"/>
<path fill-rule="evenodd" clip-rule="evenodd" d="M22.95 52.0499C22.9833 52.0166 23.0166 51.9833 23.05 51.95C23.0166 51.9833 22.9833 52.0166 22.95 52.0499Z" fill="#D8D8D8"/>
<path fill-rule="evenodd" clip-rule="evenodd" d="M45.95 52.0499C45.9833 52.0166 46.0166 51.9833 46.05 51.95C46.0166 51.9833 45.9833 52.0166 45.95 52.0499Z" fill="#D8D8D8"/>
<path fill-rule="evenodd" clip-rule="evenodd" d="M151.95 25.0499C151.983 25.0166 152.017 24.9833 152.05 24.95C152.017 24.9833 151.983 25.0166 151.95 25.0499Z" fill="#D8D8D8"/>
<path fill-rule="evenodd" clip-rule="evenodd" d="M138.05 16.95C138.017 16.9833 137.983 17.0166 137.95 17.0499C137.983 17.0166 138.017 16.9833 138.05 16.95Z" fill="#D8D8D8"/>
<path fill-rule="evenodd" clip-rule="evenodd" d="M147.05 17.0499C147.017 17.0166 146.983 16.9833 146.95 16.95C146.983 16.9833 147.017 17.0166 147.05 17.0499Z" fill="#D8D8D8"/>
<path fill-rule="evenodd" clip-rule="evenodd" d="M107.95 51.95C107.983 51.9833 108.017 52.0166 108.05 52.0499C108.017 52.0166 107.983 51.9833 107.95 51.95Z" fill="#D8D8D8"/>
<path fill-rule="evenodd" clip-rule="evenodd" d="M118.95 52.0499C118.983 52.0166 119.017 51.9833 119.05 51.95C119.017 51.9833 118.983 52.0166 118.95 52.0499Z" fill="#D8D8D8"/>
<path fill-rule="evenodd" clip-rule="evenodd" d="M94.95 24.0499C94.9833 24.0166 95.0166 23.9833 95.05 23.95C95.0166 23.9833 94.9833 24.0166 94.95 24.0499Z" fill="#D8D8D8"/>
<path fill-rule="evenodd" clip-rule="evenodd" d="M12.05 17.95C12.0167 17.9833 11.9834 18.0166 11.95 18.0499C11.9834 18.0166 12.0167 17.9833 12.05 17.95Z" fill="#D8D8D8"/>
<path fill-rule="evenodd" clip-rule="evenodd" d="M81.95 52.0499C81.9833 52.0166 82.0166 51.9833 82.05 51.95C82.0166 51.9833 81.9833 52.0166 81.95 52.0499Z" fill="#D8D8D8"/>
<path fill-rule="evenodd" clip-rule="evenodd" d="M107.95 51.95C107.983 51.9833 108.017 52.0166 108.05 52.0499C108.017 52.0166 107.983 51.9833 107.95 51.95Z" fill="#D8D8D8"/>
<path fill-rule="evenodd" clip-rule="evenodd" d="M117.95 52.0499C117.983 52.0166 118.017 51.9833 118.05 51.95C118.017 51.9833 117.983 52.0166 117.95 52.0499Z" fill="#D8D8D8"/>
<path fill-rule="evenodd" clip-rule="evenodd" d="M37.05 21.95C37.0167 21.9833 36.9834 22.0166 36.95 22.0499C36.9834 22.0166 37.0167 21.9833 37.05 21.95Z" fill="#D8D8D8"/>
<path fill-rule="evenodd" clip-rule="evenodd" d="M118.05 21.95C118.017 21.9833 117.983 22.0166 117.95 22.0499C117.983 22.0166 118.017 21.9833 118.05 21.95Z" fill="#D8D8D8"/>
<path fill-rule="evenodd" clip-rule="evenodd" d="M24.05 18.0499C24.0167 18.0166 23.9834 17.9833 23.95 17.95C23.9834 17.9833 24.0167 18.0166 24.05 18.0499Z" fill="#D8D8D8"/>
<path fill-rule="evenodd" clip-rule="evenodd" d="M55.05 18.0499C55.0167 18.0166 54.9834 17.9833 54.95 17.95C54.9834 17.9833 55.0167 18.0166 55.05 18.0499Z" fill="#D8D8D8"/>
<path fill-rule="evenodd" clip-rule="evenodd" d="M98.05 20.95C98.0167 20.9833 97.9834 21.0166 97.95 21.0499C97.9834 21.0166 98.0167 20.9833 98.05 20.95Z" fill="#D8D8D8"/>
<path fill-rule="evenodd" clip-rule="evenodd" d="M127.05 19.0499C127.017 19.0166 126.983 18.9833 126.95 18.95C126.983 18.9833 127.017 19.0166 127.05 19.0499Z" fill="#D8D8D8"/>
<path fill-rule="evenodd" clip-rule="evenodd" d="M178.95 26H179.05V21H178.95V26Z" fill="#D8D8D8"/>
<path fill-rule="evenodd" clip-rule="evenodd" d="M181.95 24H182.05V20H181.95V24Z" fill="#D8D8D8"/>
<path fill-rule="evenodd" clip-rule="evenodd" d="M167.95 15C168.097 15.0284 168.034 15.4141 168.049 15.6668V18.6666V19H167.95V15Z" fill="#D8D8D8"/>
<path fill-rule="evenodd" clip-rule="evenodd" d="M168.05 21V25C167.872 24.8296 167.993 24.2668 167.958 23.9089V21.7274V21H168.05Z" fill="#D8D8D8"/>
<path fill-rule="evenodd" clip-rule="evenodd" d="M170.05 35.0042V37.9958C170.035 37.9958 170.008 38.0062 170.007 37.9943C169.931 36.9987 169.931 36.0013 170.007 35.0057C170.008 34.9938 170.035 35.0042 170.05 35.0042Z" fill="#D8D8D8"/>
<path fill-rule="evenodd" clip-rule="evenodd" d="M170.05 24C170.017 23.8628 169.957 23.729 169.955 23.5882C169.947 22.7261 169.951 21.8627 169.951 21H170.05V24Z" fill="#D8D8D8"/>
<path fill-rule="evenodd" clip-rule="evenodd" d="M193 13.05H190C190.032 12.9025 190.466 12.9663 190.75 12.9514H192.25C192.534 12.9663 192.968 12.9025 193 13.05Z" fill="#D8D8D8"/>
<path fill-rule="evenodd" clip-rule="evenodd" d="M206.95 26.4285V25.2858V25C207.083 25.6004 207.083 26.3996 206.95 27V26.4285Z" fill="#D8D8D8"/>
<path fill-rule="evenodd" clip-rule="evenodd" d="M169 12.05H167C167.6 11.9167 168.4 11.9167 169 12.05Z" fill="#D8D8D8"/>
<path fill-rule="evenodd" clip-rule="evenodd" d="M181.006 24H181.503C181.503 24.4228 181.462 24.8483 181.526 25.2665C181.548 25.4093 181.834 25.5338 182 25.6666C181.789 25.7777 181.578 25.8889 181.367 26C181.247 25.8832 181.031 25.7694 181.022 25.6493C180.985 25.1006 181.006 24.55 181.006 24Z" fill="#D8D8D8"/>
<path fill-rule="evenodd" clip-rule="evenodd" d="M178.048 13C178.048 13.5323 178.055 14.0662 178.043 14.5959C178.04 14.7374 177.983 14.8655 177.95 15V13.6668V13H178.048Z" fill="#D8D8D8"/>
<path fill-rule="evenodd" clip-rule="evenodd" d="M191 26.95C190.376 27.0833 189.624 27.0833 189 26.95H191Z" fill="#D8D8D8"/>
<path fill-rule="evenodd" clip-rule="evenodd" d="M173 40.95H175C174.376 41.0833 173.624 41.0833 173 40.95Z" fill="#D8D8D8"/>
<path fill-rule="evenodd" clip-rule="evenodd" d="M168.05 22V24C167.917 23.3759 167.917 22.6241 168.05 22Z" fill="#D8D8D8"/>
<path fill-rule="evenodd" clip-rule="evenodd" d="M205 12.05H203.333H203C203.624 11.9167 204.376 11.9167 205 12.05Z" fill="#D8D8D8"/>
<path fill-rule="evenodd" clip-rule="evenodd" d="M194.95 18V16C195.083 16.6241 195.083 17.3759 194.95 18Z" fill="#D8D8D8"/>
<path fill-rule="evenodd" clip-rule="evenodd" d="M170.95 17V15C170.983 15.1345 171.04 15.2626 171.043 15.4041C171.055 15.9338 171.048 16.4677 171.048 17H170.95Z" fill="#D8D8D8"/>
<path fill-rule="evenodd" clip-rule="evenodd" d="M178.048 15C178.048 15.5323 178.055 16.0662 178.043 16.5959C178.04 16.7374 177.983 16.8655 177.95 17V15H178.048Z" fill="#D8D8D8"/>
<path fill-rule="evenodd" clip-rule="evenodd" d="M178.05 15H177.953C177.953 14.4926 177.944 13.982 177.957 13.4798C177.961 13.3088 178.018 13.1594 178.05 13V14.5999V15Z" fill="#D8D8D8"/>
<path fill-rule="evenodd" clip-rule="evenodd" d="M198.05 32V34C197.917 33.3476 197.917 32.6524 198.05 32Z" fill="#D8D8D8"/>
<path fill-rule="evenodd" clip-rule="evenodd" d="M188.05 26C187.917 25.3476 187.917 24.6524 188.05 24V26Z" fill="#D8D8D8"/>
<path fill-rule="evenodd" clip-rule="evenodd" d="M166.05 12V14C165.902 13.966 165.966 13.5034 165.951 13.1998V12.4001C165.984 12.2667 166.017 12.1334 166.05 12Z" fill="#D8D8D8"/>
<path fill-rule="evenodd" clip-rule="evenodd" d="M186.047 22.4001C186.047 22.7765 186.056 23.1598 186.042 23.527C186.036 23.7008 185.984 23.8434 185.952 24C185.952 23.493 185.945 22.982 185.957 22.4802C185.961 22.3088 186.015 22.1594 186.047 22V22.4001Z" fill="#D8D8D8"/>
<path fill-rule="evenodd" clip-rule="evenodd" d="M170 27.95H172C171.348 28.0833 170.652 28.0833 170 27.95Z" fill="#D8D8D8"/>
<path fill-rule="evenodd" clip-rule="evenodd" d="M182.047 20H181.95V18.4001V18C181.982 18.1594 182.039 18.3088 182.043 18.4802C182.055 18.982 182.047 19.4926 182.047 20Z" fill="#D8D8D8"/>
<path fill-rule="evenodd" clip-rule="evenodd" d="M199 21C199.035 20.6665 199.07 20.3335 199.104 20C199.328 20.1171 199.569 20.1828 199.768 20.3705C199.881 20.4776 199.925 20.7835 200 21H199Z" fill="#D8D8D8"/>
<path fill-rule="evenodd" clip-rule="evenodd" d="M167.95 22H168.05V20H167.95V22Z" fill="#D8D8D8"/>
<path fill-rule="evenodd" clip-rule="evenodd" d="M205.95 14V13C206.083 13.3161 206.083 13.6836 205.95 14Z" fill="#D8D8D8"/>
<path fill-rule="evenodd" clip-rule="evenodd" d="M192 13.05H191C191.316 12.9167 191.684 12.9167 192 13.05Z" fill="#D8D8D8"/>
<path fill-rule="evenodd" clip-rule="evenodd" d="M167.95 20H168.05V19H167.95V20Z" fill="#D8D8D8"/>
<path fill-rule="evenodd" clip-rule="evenodd" d="M204 14.0467C204.098 14.0156 204.187 13.964 204.296 13.9575C204.525 13.9436 204.764 13.9533 205 13.9533C204.902 13.9844 204.813 14.036 204.704 14.0425C204.475 14.0564 204.235 14.0467 204 14.0467Z" fill="#D8D8D8"/>
<path fill-rule="evenodd" clip-rule="evenodd" d="M167 13.9533C167.235 13.9533 167.475 13.9436 167.704 13.9575C167.813 13.964 167.902 14.0156 168 14.0467C167.764 14.0467 167.525 14.0564 167.296 14.0425C167.187 14.036 167.098 13.9844 167 13.9533Z" fill="#D8D8D8"/>
<path fill-rule="evenodd" clip-rule="evenodd" d="M203 14.0467C203.098 14.0156 203.187 13.964 203.296 13.9575C203.525 13.9436 203.765 13.9533 204 13.9533C203.902 13.9844 203.813 14.036 203.704 14.0425C203.475 14.0564 203.235 14.0467 203 14.0467Z" fill="#D8D8D8"/>
<path fill-rule="evenodd" clip-rule="evenodd" d="M185.958 22V21.7499C185.992 21.5039 185.875 21.1171 186.047 21C186.047 21.2353 186.056 21.4748 186.043 21.7041C186.036 21.8128 185.987 21.9021 185.958 22Z" fill="#D8D8D8"/>
<path fill-rule="evenodd" clip-rule="evenodd" d="M203.95 26C204.083 26.3164 204.083 26.6839 203.95 27V26Z" fill="#D8D8D8"/>
<path fill-rule="evenodd" clip-rule="evenodd" d="M180.95 18H181.05V17H180.95V18Z" fill="#D8D8D8"/>
<path fill-rule="evenodd" clip-rule="evenodd" d="M172 24.95C171.665 25.0833 171.335 25.0833 171 24.95H172Z" fill="#D8D8D8"/>
<path fill-rule="evenodd" clip-rule="evenodd" d="M198.043 17C198.01 17.3281 198.122 17.8438 197.957 18C197.99 17.6719 197.878 17.1562 198.043 17Z" fill="#D8D8D8"/>
<path fill-rule="evenodd" clip-rule="evenodd" d="M178.95 26H179.042C179.007 26.3281 179.128 26.8438 178.95 27V26Z" fill="#D8D8D8"/>
<path fill-rule="evenodd" clip-rule="evenodd" d="M199 34.0427C199.156 33.878 199.672 33.9898 200 33.9572C199.844 34.1219 199.328 34.0102 199 34.0427Z" fill="#D8D8D8"/>
<path fill-rule="evenodd" clip-rule="evenodd" d="M178.05 13H177.958C177.993 12.6719 177.872 12.1562 178.05 12V13Z" fill="#D8D8D8"/>
<path fill-rule="evenodd" clip-rule="evenodd" d="M202.667 11.9513H203C202.844 12.1266 202.328 12.0076 202 12.0423C202.028 11.9062 202.414 11.965 202.667 11.9513Z" fill="#D8D8D8"/>
<path fill-rule="evenodd" clip-rule="evenodd" d="M169.95 21H170.05V20H169.95V21Z" fill="#D8D8D8"/>
<path fill-rule="evenodd" clip-rule="evenodd" d="M205.95 29V28H206.042C206.007 28.3281 206.128 28.8438 205.95 29Z" fill="#D8D8D8"/>
<path fill-rule="evenodd" clip-rule="evenodd" d="M179.042 21H178.95V20C179.128 20.1562 179.007 20.6719 179.042 21Z" fill="#D8D8D8"/>
<path fill-rule="evenodd" clip-rule="evenodd" d="M180.958 30C180.993 29.6719 180.872 29.1562 181.05 29V30H180.958Z" fill="#D8D8D8"/>
<path fill-rule="evenodd" clip-rule="evenodd" d="M190 29.95V30.0422C189.672 30.007 189.156 30.1276 189 29.95H190Z" fill="#D8D8D8"/>
<path fill-rule="evenodd" clip-rule="evenodd" d="M201.05 17C200.917 16.6646 200.917 16.3351 201.05 16V17Z" fill="#D8D8D8"/>
<path fill-rule="evenodd" clip-rule="evenodd" d="M169.95 19H170.05V18H169.95V19Z" fill="#D8D8D8"/>
<path fill-rule="evenodd" clip-rule="evenodd" d="M190 29.95H191C190.665 30.0833 190.335 30.0833 190 29.95Z" fill="#D8D8D8"/>
<path fill-rule="evenodd" clip-rule="evenodd" d="M181.042 17H180.95V16C181.128 16.1562 181.007 16.6719 181.042 17Z" fill="#D8D8D8"/>
<path fill-rule="evenodd" clip-rule="evenodd" d="M180.95 30H181.049C181.034 30.3789 181.097 30.957 180.95 31V30Z" fill="#D8D8D8"/>
<path fill-rule="evenodd" clip-rule="evenodd" d="M181.049 15C180.903 14.9575 180.966 14.3789 180.951 14C181.097 14.043 181.034 14.6211 181.049 15Z" fill="#D8D8D8"/>
<path fill-rule="evenodd" clip-rule="evenodd" d="M170.05 18H169.951C169.966 17.6211 169.902 17.043 170.05 17V18Z" fill="#D8D8D8"/>
<path fill-rule="evenodd" clip-rule="evenodd" d="M198.049 18C198.034 18.3789 198.097 18.957 197.951 19C197.966 18.6211 197.903 18.0425 198.049 18Z" fill="#D8D8D8"/>
<path fill-rule="evenodd" clip-rule="evenodd" d="M166.05 13V14C166.017 13.7923 165.983 13.5851 165.95 13.3779C165.983 13.2518 166.017 13.1261 166.05 13Z" fill="#D8D8D8"/>
<path fill-rule="evenodd" clip-rule="evenodd" d="M177.049 17C177.034 17.3789 177.097 17.957 176.951 18C176.966 17.6211 176.903 17.0425 177.049 17Z" fill="#D8D8D8"/>
<path fill-rule="evenodd" clip-rule="evenodd" d="M169.95 19H170.049C170.034 19.3789 170.097 19.957 169.95 20V19Z" fill="#D8D8D8"/>
<path fill-rule="evenodd" clip-rule="evenodd" d="M201.049 18C200.903 17.9575 200.966 17.3789 200.951 17C201.097 17.043 201.034 17.6211 201.049 18Z" fill="#D8D8D8"/>
<path fill-rule="evenodd" clip-rule="evenodd" d="M198.95 33.9586C198.983 33.9586 199.017 33.9586 199.05 33.9586C199.028 33.9862 199.005 34.0138 198.983 34.0414C198.972 34.0138 198.961 33.9862 198.95 33.9586Z" fill="#D8D8D8"/>
<path fill-rule="evenodd" clip-rule="evenodd" d="M170.95 16.95C170.983 16.95 171.017 16.95 171.05 16.95C171.017 16.9833 170.983 17.0166 170.95 17.0499V16.95Z" fill="#D8D8D8"/>
<path fill-rule="evenodd" clip-rule="evenodd" d="M23.95 35V32C23.9828 32.0972 24.0431 32.1907 24.044 32.2929C24.0519 33.0967 24.0519 33.9029 24.044 34.7071C24.0431 34.8089 23.9828 34.9028 23.95 35Z" fill="#D8D8D8"/>
<path fill-rule="evenodd" clip-rule="evenodd" d="M9.95719 32C10.1219 32.1562 10.0101 32.6719 10.0427 33C9.87799 32.8438 9.98977 32.3281 9.95719 32Z" fill="#D8D8D8"/>
<path fill-rule="evenodd" clip-rule="evenodd" d="M10.0486 30C10.0339 30.3789 10.0968 30.957 9.9513 31C9.96599 30.6211 9.90315 30.0425 10.0486 30Z" fill="#D8D8D8"/>
<path fill-rule="evenodd" clip-rule="evenodd" d="M22 28.0486C21.6208 28.034 21.0425 28.0968 21 27.9514C21.3787 27.9661 21.9575 27.9032 22 28.0486Z" fill="#D8D8D8"/>
<path fill-rule="evenodd" clip-rule="evenodd" d="M14 26.9514C13.9575 27.0968 13.3787 27.0339 13 27.0486C13.0425 26.9032 13.6208 26.966 14 26.9514Z" fill="#D8D8D8"/>
<path fill-rule="evenodd" clip-rule="evenodd" d="M20 39.0486C20.0425 38.9032 20.6213 38.9661 21 38.9514C20.9575 39.0968 20.3792 39.034 20 39.0486Z" fill="#D8D8D8"/>
<path fill-rule="evenodd" clip-rule="evenodd" d="M16.95 38.95C16.9833 38.9833 17.0166 39.0166 17.05 39.0499C17.0166 39.0166 16.9833 38.9833 16.95 38.95Z" fill="#D8D8D8"/>
<path fill-rule="evenodd" clip-rule="evenodd" d="M20.05 27.0499C20.0167 27.0166 19.9834 26.9833 19.95 26.95C19.9834 26.9833 20.0167 27.0166 20.05 27.0499Z" fill="#D8D8D8"/>
<path fill-rule="evenodd" clip-rule="evenodd" d="M50 24.0467C49.7647 24.0467 49.5251 24.0564 49.2958 24.0425C49.1873 24.036 49.098 23.9844 49 23.9533C49.2356 23.9533 49.4749 23.9436 49.7042 23.9575C49.813 23.964 49.902 24.0156 50 24.0467Z" fill="#D8D8D8"/>
<path fill-rule="evenodd" clip-rule="evenodd" d="M52 24.0486C51.6208 24.034 51.0425 24.0968 51 23.9514C51.3787 23.9661 51.9575 23.9032 52 24.0486Z" fill="#D8D8D8"/>
<path fill-rule="evenodd" clip-rule="evenodd" d="M46.95 27.95H47.05V28.0499C47.0166 28.0166 46.9833 27.9833 46.95 27.95Z" fill="#D8D8D8"/>
<path fill-rule="evenodd" clip-rule="evenodd" d="M55.05 27.0499C55.0167 27.0166 54.9834 26.9833 54.95 26.95C54.9834 26.9833 55.0167 27.0166 55.05 27.0499Z" fill="#D8D8D8"/>
<path fill-rule="evenodd" clip-rule="evenodd" d="M178.64 32.6666C178.055 34.8869 176.967 36.6364 175.323 38H173.664C173.442 37.7777 173.221 37.5555 173 37.3332V35.6665C173.707 34.0949 175.06 33.1058 176.285 32.0034C176.475 31.8319 176.724 31.7264 176.917 31.5572C177.499 31.0469 178.067 30.5203 178.64 30C179.279 30.1562 178.845 30.6718 178.972 30.9999V31.6667C178.333 31.8229 178.766 32.3385 178.64 32.6666Z" fill="#D8D8D8"/>
<path fill-rule="evenodd" clip-rule="evenodd" d="M188.019 20.587C187.876 19.4424 188.58 18.6306 188.972 17.7335C189.405 16.7428 190.036 15.8331 190.829 15.1332C190.964 15.0136 191.199 15.0406 191.387 15C191.489 15 191.591 15 191.694 15C191.796 15.1164 191.898 15.2328 192 15.3493V17.0952C192.019 18.123 191.34 18.7886 190.895 19.5081C190.248 20.5524 189.349 21.3868 188.32 21.9777C188.239 22.0242 188.12 21.9836 188.019 21.9836V20.587Z" fill="#D8D8D8"/>
<path fill-rule="evenodd" clip-rule="evenodd" d="M167.958 18V15C167.986 15.0387 168.039 15.0758 168.039 15.1161C168.043 16.0386 168.043 16.9614 168.039 17.8839C168.039 17.9242 167.986 17.9613 167.958 18Z" fill="#D8D8D8"/>
<path fill-rule="evenodd" clip-rule="evenodd" d="M173.05 36V38C173.017 37.8666 172.984 37.7333 172.951 37.5999V36.8002C172.966 36.497 172.902 36.034 173.05 36Z" fill="#D8D8D8"/>
<path fill-rule="evenodd" clip-rule="evenodd" d="M178.486 31C178.301 30.7573 178.936 30.3757 178 30.2602C178.023 29.9646 178.445 29.9579 178.767 30.0584C178.938 30.1117 178.979 30.3315 178.956 30.471C178.924 30.6651 179.256 30.9679 178.486 31Z" fill="#D8D8D8"/>
<path fill-rule="evenodd" clip-rule="evenodd" d="M173 37.95H175C174.867 37.9833 174.733 38.0166 174.6 38.0499H173.4C173.267 38.0166 173.133 37.9833 173 37.95Z" fill="#D8D8D8"/>
<path fill-rule="evenodd" clip-rule="evenodd" d="M192.95 18V16C193.083 16.6524 193.083 17.3476 192.95 18Z" fill="#D8D8D8"/>
<path fill-rule="evenodd" clip-rule="evenodd" d="M188.05 21V22C187.917 21.6839 187.917 21.3164 188.05 21Z" fill="#D8D8D8"/>
<path fill-rule="evenodd" clip-rule="evenodd" d="M174 38.95H175C174.665 39.0833 174.335 39.0833 174 38.95Z" fill="#D8D8D8"/>
<path fill-rule="evenodd" clip-rule="evenodd" d="M177.957 33C177.99 32.6719 177.878 32.1562 178.043 32C178.01 32.3281 178.122 32.8438 177.957 33Z" fill="#D8D8D8"/>
</g>
</svg>
