<svg width="219" height="42" viewBox="0 0 219 42" fill="none" xmlns="http://www.w3.org/2000/svg">
<mask id="mask0_0_34" style="mask-type:luminance" maskUnits="userSpaceOnUse" x="42" y="18" width="18" height="24">
<path fill-rule="evenodd" clip-rule="evenodd" d="M42 18H60V42H42V18Z" fill="white"/>
</mask>
<g mask="url(#mask0_0_34)">
<path fill-rule="evenodd" clip-rule="evenodd" d="M55.5456 26.4584C55.5659 25.446 55.2852 24.4768 54.6923 23.5942C52.9039 20.9319 48.9128 21.0538 47.4017 23.8471C46.4416 25.6221 46.5248 27.4192 47.6535 29.1116C48.998 31.1273 51.8023 31.5871 53.706 30.1194C54.9036 29.1961 55.4506 27.9444 55.5456 26.4584V26.4584ZM55.4931 42.0001C55.4861 40.7266 55.4757 39.4531 55.4732 38.1794C55.4698 36.4018 55.4723 34.624 55.4723 32.8462V32.3216C55.35 32.4041 55.2784 32.4379 55.2267 32.4897C51.4695 36.2396 45.0181 34.9886 42.9265 30.249C41.4671 26.9418 41.6562 23.7026 44.0357 20.7904C46.131 18.2264 50.0318 17.2952 52.9396 18.5618C53.804 18.9384 54.5472 19.4762 55.2021 20.1279C55.2996 20.2248 55.361 20.3549 55.4393 20.4695C55.4917 20.4422 55.5443 20.4149 55.5969 20.3874V18.496H59.9755C59.9838 18.6341 59.999 18.769 59.999 18.9041C60.0003 26.4632 60.0003 34.0223 59.9992 41.5812C59.9992 41.7209 59.9852 41.8604 59.9777 42.0001H55.4931Z" fill="#D8D8D8"/>
</g>
<mask id="mask1_0_34" style="mask-type:luminance" maskUnits="userSpaceOnUse" x="215" y="31" width="4" height="4">
<path fill-rule="evenodd" clip-rule="evenodd" d="M215 31H219V35H215V31Z" fill="white"/>
</mask>
<g mask="url(#mask1_0_34)">
<path fill-rule="evenodd" clip-rule="evenodd" d="M218.661 32.9301C218.652 31.9617 217.912 31.2181 216.959 31.2195C216.012 31.2208 215.255 31.9849 215.26 32.9337C215.265 33.901 216.051 34.6418 217.076 34.6454C217.946 34.6484 218.669 33.8661 218.661 32.9301V32.9301ZM219 33.5051C218.931 33.6382 218.863 33.7712 218.795 33.9045C218.379 34.7133 217.43 35.1575 216.562 34.9487C215.628 34.7242 214.974 33.8883 215.001 32.9551C215.029 32.0054 215.712 31.2409 216.713 31.0382C217.592 30.8606 218.442 31.3134 218.834 32.1665C218.884 32.2749 218.944 32.3785 219 32.4844V33.5051Z" fill="#D8D8D8"/>
</g>
<mask id="mask2_0_34" style="mask-type:luminance" maskUnits="userSpaceOnUse" x="0" y="0" width="37" height="37">
<path fill-rule="evenodd" clip-rule="evenodd" d="M0 0H37V37H0V0Z" fill="white"/>
</mask>
<g mask="url(#mask2_0_34)">
<path fill-rule="evenodd" clip-rule="evenodd" d="M19.4503 15.9902C19.4503 18.3731 19.4501 20.756 19.4503 23.1391C19.4505 23.8909 19.4529 24.6427 19.4512 25.3944C19.4507 25.6385 19.5137 25.8083 19.8068 25.8039C21.732 25.7753 23.6691 25.8791 25.5797 25.6998C29.6094 25.3218 32.546 21.5233 31.9052 17.3856C31.3433 13.7591 28.233 10.9679 23.9934 11.1877C23.7093 11.2023 23.5935 11.3048 23.6005 11.5998C23.6163 12.266 23.6211 12.9335 23.5989 13.5995C23.5873 13.9465 23.7361 14.0445 24.0496 14.0422C24.4884 14.0391 24.933 14.0208 25.3653 14.0805C27.3642 14.3568 29.0064 16.145 29.1438 18.0594C29.3339 20.712 27.53 22.4598 25.8027 22.8061C24.911 22.9849 23.9753 22.9624 23.0583 22.9925C22.249 23.019 22.3044 23.074 22.3044 22.2385C22.3039 17.9123 22.3074 13.5861 22.3022 9.26002C22.3003 7.69852 21.4521 6.58758 20.0748 6.3085C19.4932 6.19064 19.451 6.22441 19.4508 6.84142C19.4498 9.89096 19.4503 12.9407 19.4503 15.9902M17.5579 20.9752C17.5579 17.8982 17.5586 14.8211 17.5574 11.7441C17.557 11.2221 17.5264 11.1927 17.0033 11.1894C16.4511 11.1859 15.8984 11.181 15.3461 11.1899C13.9879 11.2117 12.616 11.1266 11.2739 11.2881C7.08989 11.7918 4.23144 16.0151 5.20179 20.1296C6.00704 23.5449 9.07296 26.0412 13.0776 25.8053C13.3473 25.7894 13.4056 25.658 13.4034 25.4242C13.3964 24.7295 13.3929 24.0345 13.4049 23.3399C13.4093 23.0827 13.3183 22.9995 13.061 22.9925C12.5243 22.9781 11.9788 22.9795 11.4545 22.8809C9.36551 22.4885 7.87378 20.6622 7.86093 18.5321C7.84809 16.3779 9.27905 14.536 11.3909 14.1515C12.2712 13.9914 13.1948 14.0619 14.099 14.0426C14.7015 14.0297 14.7018 14.0415 14.7034 14.6573C14.7036 14.7706 14.7034 14.8842 14.7034 14.9975C14.7036 19.2374 14.7003 23.4772 14.7053 27.7169C14.7072 29.2901 15.5234 30.3721 16.9164 30.6832C17.4858 30.8105 17.5572 30.7557 17.5574 30.1639C17.5586 27.1009 17.5579 24.0382 17.5579 20.9752M1.09116e-05 18.4875C0.0264009 8.53368 7.7901 0.55153 17.399 0.0297513C28.3509 -0.564975 36.297 7.84842 36.9493 17.0411C37.7403 28.1856 29.1643 36.3641 19.8035 36.9602C8.74726 37.6643 -0.00797554 28.9199 1.09116e-05 18.4875" fill="#D8D8D8"/>
</g>
<path fill-rule="evenodd" clip-rule="evenodd" d="M136.562 26.3768C136.518 26.1045 136.486 25.5935 136.348 25.1137C135.893 23.5276 134.933 22.4044 133.28 22.0591C131.702 21.7295 130.353 22.2053 129.32 23.4642C127.948 25.1361 127.841 27.6353 129.031 29.445C130.336 31.4283 133 31.9127 134.81 30.4627C136.028 29.4874 136.515 28.1454 136.562 26.3768V26.3768ZM128.318 20.4362C128.708 20.1248 129.024 19.8569 129.356 19.6098C130.425 18.8137 131.618 18.4131 132.953 18.3058C136.499 18.0208 140.234 20.5793 140.88 25.0714C141.249 27.6448 140.792 30.0295 139.173 32.1096C137.265 34.5596 133.784 35.6283 131.067 34.6254C130.02 34.2388 129.155 33.5985 128.468 32.7137C128.385 32.6066 128.3 32.5005 128.131 32.2857C128.131 33.0008 128.117 33.5959 128.137 34.1898C128.148 34.495 128.067 34.6087 127.743 34.604C126.505 34.586 125.267 34.5967 124 34.5967V10H128.318V20.4362Z" fill="#D8D8D8"/>
<path fill-rule="evenodd" clip-rule="evenodd" d="M107 9.03328C108.082 9.03328 109.13 9.0296 110.179 9.03521C110.554 9.03713 111.09 8.9156 111.264 9.11331C111.465 9.34254 111.369 9.86106 111.37 10.254C111.374 14.8201 111.372 19.3861 111.372 23.952V24.5784C111.551 24.3817 111.66 24.2672 111.763 24.1464C113.43 22.1815 115.1 20.2188 116.759 18.2461C116.967 17.9985 117.177 17.8885 117.505 17.892C119.201 17.9093 120.896 17.9001 122.714 17.9001C120.526 20.3808 118.403 22.7887 116.268 25.2091C118.507 28.1221 120.729 31.0133 123 33.9679C122.779 33.9786 122.646 33.9906 122.513 33.9908C120.915 33.992 119.316 33.9835 117.718 33.9985C117.407 34.0015 117.213 33.9122 117.021 33.6511C115.253 31.2393 113.469 28.8399 111.689 26.4376C111.616 26.339 111.535 26.2471 111.398 26.0788C111.387 26.3112 111.373 26.459 111.373 26.6068C111.372 28.9183 111.366 31.2299 111.38 33.5413C111.382 33.8927 111.291 34.0062 110.936 33.9997C109.759 33.9782 108.581 33.992 107.403 33.9908C107.28 33.9906 107.156 33.9794 107 33.9717V9.03328Z" fill="#D8D8D8"/>
<path fill-rule="evenodd" clip-rule="evenodd" d="M184 9H188.334V24.5773C188.524 24.3716 188.635 24.2601 188.737 24.1404C190.412 22.1605 192.09 20.1832 193.756 18.1945C193.956 17.9554 194.154 17.8545 194.466 17.8578C196.035 17.8747 197.604 17.8656 199.174 17.8656C199.309 17.8656 199.445 17.8656 199.697 17.8656C197.492 20.3559 195.359 22.7652 193.211 25.1911C195.464 28.1122 197.7 31.0125 200 33.9943H199.532C197.907 33.9943 196.281 33.9887 194.656 34C194.379 34.0019 194.203 33.922 194.03 33.6858C192.271 31.2814 190.497 28.8883 188.727 26.4924C188.63 26.3615 188.529 26.2339 188.359 26.0115V33.9589H184V9Z" fill="#D8D8D8"/>
<path fill-rule="evenodd" clip-rule="evenodd" d="M156.746 26.4282C156.593 25.7567 156.514 25.0558 156.272 24.4193C155.64 22.7524 154.418 21.8241 152.662 21.7583C151.002 21.6962 149.715 22.4206 148.986 23.9693C148.163 25.7178 148.216 27.4967 149.127 29.2022C150.448 31.6737 153.58 31.5894 155.035 30.3136C156.192 29.2998 156.618 27.9594 156.746 26.4282M152.52 34.9999C148.948 35.0127 145.938 33.0935 144.676 29.9385C143.183 26.2094 144.122 21.5045 147.904 19.2373C151.46 17.1056 156.362 17.7874 159.007 20.8272C160.557 22.6087 161.132 24.7414 160.975 27.0957C160.832 29.2471 160.061 31.1211 158.532 32.6255C156.856 34.2736 154.812 34.9739 152.52 34.9999" fill="#D8D8D8"/>
<path fill-rule="evenodd" clip-rule="evenodd" d="M175.599 26.1531C175.556 25.8762 175.515 25.3643 175.394 24.8729C174.941 23.0319 173.698 21.9429 171.855 21.7348C170.246 21.5531 168.715 22.3772 167.986 23.8997C167.125 25.6958 167.174 27.5093 168.156 29.237C169.335 31.3098 172.181 31.8158 173.969 30.2914C175.15 29.2846 175.558 27.9119 175.599 26.1531M171.656 35C168.14 34.8708 165.458 33.5364 163.891 30.3504C162.271 27.0572 162.916 22.9069 165.376 20.442C166.879 18.9359 168.726 18.2308 170.793 18.0432C172.487 17.8895 174.116 18.1358 175.625 18.9419C178.593 20.5268 180.027 23.107 180 26.4958C179.965 30.7917 177.417 33.9176 173.326 34.7964C172.733 34.9237 172.118 34.9459 171.656 35" fill="#D8D8D8"/>
<path fill-rule="evenodd" clip-rule="evenodd" d="M74.6004 18H79V34.4986H74.8167V32.1118C74.7855 32.0954 74.7543 32.0792 74.723 32.0628C74.6236 32.1866 74.5239 32.3102 74.4248 32.4343C73.5144 33.5735 72.4676 34.5533 71.035 34.8633C68.611 35.3877 65.237 34.4966 64.2818 30.5586C64.1114 29.8561 64.0238 29.1145 64.0176 28.3898C63.9895 25.0481 64.0035 21.7061 64.0034 18.3643C64.0034 18.2636 64.0134 18.1628 64.0204 18.0326H68.4193C68.4193 18.1873 68.4193 18.3548 68.4193 18.5223C68.4196 21.4098 68.4122 24.2973 68.4274 27.1848C68.4302 27.6932 68.4894 28.2096 68.5884 28.7081C68.9821 30.6889 70.5684 31.5539 72.3746 30.7646C73.7012 30.185 74.3268 29.049 74.5404 27.6346C74.5969 27.2606 74.5973 26.875 74.5979 26.4947C74.6025 23.8565 74.6004 21.2182 74.6004 18.5798V18Z" fill="#D8D8D8"/>
<path fill-rule="evenodd" clip-rule="evenodd" d="M200 32.4402C201.044 31.4688 201.983 30.5957 202.935 29.7103C203.756 30.5459 204.794 31.1448 206.031 31.4125C206.762 31.5707 207.478 31.5858 208.187 31.3244C208.859 31.0771 209.302 30.6431 209.344 29.9159C209.386 29.1888 208.929 28.7601 208.3 28.5479C207.323 28.2185 206.322 27.9552 205.326 27.6826C204.293 27.4005 203.282 27.0735 202.421 26.4254C200.536 25.0066 200.358 21.9541 202.048 20.1145C203.114 18.9537 204.505 18.3895 206.036 18.1446C208.075 17.8183 210.061 18.0338 211.946 18.897C212.706 19.245 213.389 19.7036 213.968 20.3802C213.073 21.2094 212.189 22.028 211.291 22.8605C210.484 22.1099 209.572 21.625 208.521 21.3999C207.667 21.2169 206.835 21.2826 206.043 21.6602C205.53 21.9045 205.211 22.293 205.221 22.8687C205.23 23.4299 205.594 23.772 206.095 23.9283C207.094 24.2399 208.12 24.4703 209.115 24.7934C209.943 25.0621 210.786 25.3361 211.544 25.7457C214.217 27.1899 214.803 30.5223 212.832 32.8141C211.811 34.0018 210.443 34.5744 208.921 34.8205C206.474 35.2161 204.103 34.9954 201.911 33.7791C201.259 33.4171 200.684 32.9249 200 32.4402" fill="#D8D8D8"/>
<path fill-rule="evenodd" clip-rule="evenodd" d="M102.158 29.855C103.095 30.8432 104.021 31.8206 105 32.8527C104.676 33.1182 104.387 33.3919 104.062 33.6142C102.815 34.467 101.397 34.8391 99.9055 34.957C97.3119 35.1623 94.913 34.6537 92.8815 32.9619C91.1721 31.5381 90.3027 29.6784 90.0629 27.5083C89.8805 25.8571 90.0839 24.257 90.8147 22.7607C92.2142 19.8957 94.6022 18.4069 97.7773 18.063C99.9926 17.8229 102.039 18.2608 103.882 19.5198C104.096 19.6659 104.3 19.8271 104.502 19.9892C104.624 20.0875 104.735 20.2006 104.845 20.3019C103.87 21.2254 102.905 22.1395 101.921 23.0708C101.365 22.4632 100.521 22.0692 99.5618 21.8928C97.9606 21.5984 96.6788 22.111 95.7256 23.3952C94.3852 25.2011 94.444 27.9948 95.8399 29.754C97.1786 31.4411 99.7233 31.6972 101.566 30.3281C101.76 30.1841 101.944 30.0264 102.158 29.855" fill="#D8D8D8"/>
<mask id="mask3_0_34" style="mask-type:luminance" maskUnits="userSpaceOnUse" x="0" y="0" width="219" height="42">
<path fill-rule="evenodd" clip-rule="evenodd" d="M0 42H219V0H0V42Z" fill="white"/>
</mask>
<g mask="url(#mask3_0_34)">
<path fill-rule="evenodd" clip-rule="evenodd" d="M83 34H87V18H83V34Z" fill="#D8D8D8"/>
<path fill-rule="evenodd" clip-rule="evenodd" d="M70.8105 6H73V13.7701H70.971V12.5627C70.8545 12.6796 70.8046 12.7208 70.7665 12.7693C69.9505 13.806 68.7784 14.1979 67.3609 13.9063C66.1899 13.6654 65.2515 12.7558 65.1019 11.5818C64.9965 10.7532 65.0165 9.9104 65.0054 9.07378C64.9925 8.08689 65.0063 7.09982 65.01 6.11292C65.0102 6.08785 65.028 6.06294 65.0496 6.00681H67.2361C67.2361 6.16423 67.2361 6.30804 67.2361 6.45202C67.2365 7.7365 67.2313 9.02114 67.2415 10.3056C67.2437 10.5869 67.2772 10.8722 67.3378 11.1484C67.4609 11.71 67.7493 12.1638 68.4289 12.3128C69.1372 12.4682 69.7564 12.3012 70.2368 11.8271C70.6992 11.3709 70.8449 10.8192 70.8246 10.1881C70.7795 8.80111 70.8105 7.41218 70.8105 6" fill="#D8D8D8"/>
<path fill-rule="evenodd" clip-rule="evenodd" d="M51.1642 12.9239H49V5.25407H51.0229V6.43529C51.5714 5.77518 52.2133 5.31765 53.0978 5.11194C55.3769 4.58161 56.8441 6.02651 56.9302 7.53366C57.0286 9.26035 56.9919 10.9931 56.9986 12.7234C56.999 12.8147 56.859 12.983 56.7787 12.9858C56.1457 13.0076 55.5117 12.9978 54.8155 12.9978C54.8155 12.7977 54.8164 12.6413 54.8153 12.4848C54.806 11.1028 54.827 9.72002 54.7772 8.33936C54.7376 7.23934 54.1614 6.67097 53.2034 6.6624C52.1474 6.65285 51.2802 7.34096 51.2142 8.34907C51.1443 9.41912 51.1751 10.4946 51.1649 11.5676C51.1606 12.0092 51.1642 12.4509 51.1642 12.9239" fill="#D8D8D8"/>
<path fill-rule="evenodd" clip-rule="evenodd" d="M80.3868 6.79834H78V5H85V6.78542H82.6257V13H80.3868V6.79834Z" fill="#D8D8D8"/>
<path fill-rule="evenodd" clip-rule="evenodd" d="M64 5V6.78427H61.6402V13H59.3887V6.81935H57V5H64Z" fill="#D8D8D8"/>
<path fill-rule="evenodd" clip-rule="evenodd" d="M75 13H77V5H75V13Z" fill="#D8D8D8"/>
<path fill-rule="evenodd" clip-rule="evenodd" d="M45 13H47V5H45V13Z" fill="#D8D8D8"/>
<path fill-rule="evenodd" clip-rule="evenodd" d="M60.4997 4C59.6795 3.99944 59.0086 3.55301 59.0001 3.00246C58.9922 2.47197 59.6974 2.00028 60.4993 2C61.2996 1.99972 61.9996 2.46748 62 3.00274C62.0006 3.54656 61.3174 4.00056 60.4997 4" fill="#D8D8D8"/>
<path fill-rule="evenodd" clip-rule="evenodd" d="M83 2.99103C83.0015 3.54526 82.5569 3.9969 82.0066 3.99999C81.4606 4.00293 81.0048 3.55086 81 3.0014C80.9953 2.44788 81.4379 2.00268 81.9959 2.00001C82.5573 1.99721 82.9985 2.4326 83 2.99103" fill="#D8D8D8"/>
<path fill-rule="evenodd" clip-rule="evenodd" d="M216.447 32.334C216.525 32.5695 216.258 32.8948 216.84 32.8385C217.051 32.8181 217.421 32.6453 217.404 32.5848C217.304 32.2138 216.877 32.3287 216.447 32.334M217.385 33.1211C217.614 33.4062 217.807 33.6453 218 33.8844C217.957 33.923 217.915 33.9616 217.872 34C217.664 33.9032 217.446 33.815 217.252 33.7053C217.172 33.6597 217.16 33.5581 217.088 33.4997C216.952 33.3895 216.795 33.2922 216.647 33.1896C216.585 33.3241 216.49 33.4559 216.468 33.5934C216.437 33.7923 216.506 34.027 216 33.9083V32.0008C216.294 32.0008 216.586 31.9987 216.879 32.0013C217.311 32.0051 217.723 32.0576 217.89 32.3874C218.057 32.7158 217.831 32.9482 217.385 33.1211" fill="#D8D8D8"/>
</g>
</svg>
