<svg width="151" height="44" viewBox="0 0 151 44" fill="none" xmlns="http://www.w3.org/2000/svg">
<mask id="mask0_0_419" style="mask-type:luminance" maskUnits="userSpaceOnUse" x="80" y="0" width="42" height="44">
<path fill-rule="evenodd" clip-rule="evenodd" d="M80 0H122V44H80V0Z" fill="white"/>
</mask>
<g mask="url(#mask0_0_419)">
<path fill-rule="evenodd" clip-rule="evenodd" d="M93.3191 21.9491C93.3191 25.213 93.3352 28.477 93.3073 31.7408C93.3008 32.5262 93.4333 32.9489 94.3748 32.8934C96.4314 32.7724 98.5025 32.8499 100.552 32.6701C103.591 32.4037 105.881 30.8641 107.2 28.0924C108.495 25.3697 108.746 22.474 108.307 19.5015C107.672 15.2026 104.899 12.2233 100.59 11.5362C98.6756 11.2311 96.701 11.28 94.7521 11.2191C93.3221 11.1745 93.3199 11.2113 93.3195 12.5924C93.3189 15.7114 93.3193 18.8303 93.3191 21.9491ZM80 0.0756273C80.3618 0.0538632 80.6791 0.0179523 80.9962 0.0177346C88.2849 0.0157759 95.5742 -0.0331935 102.862 0.040587C106.415 0.0764979 109.827 0.85805 112.922 2.72041C116.633 4.9532 119.031 8.2459 120.393 12.2842C122.341 18.0587 122.509 23.932 120.945 29.822C118.96 37.2996 113.973 41.6548 106.545 43.2827C104.582 43.713 102.537 43.9263 100.525 43.9516C93.9265 44.0347 87.3261 43.9853 80.7264 43.9868C80.5126 43.9868 80.2986 43.9868 80 43.9868V0.0756273Z" fill="#D8D8D8"/>
</g>
<path fill-rule="evenodd" clip-rule="evenodd" d="M77.9431 32.9224V44H41V0H77.9157C77.9423 0.327432 77.9852 0.610055 77.9856 0.892896C77.9902 3.99169 77.9719 7.09093 77.9998 10.1895C78.0064 10.9209 77.8359 11.1996 77.0257 11.1954C69.9133 11.1574 62.8003 11.1919 55.6879 11.141C54.6089 11.1333 54.3178 11.4697 54.3823 12.503C54.4678 13.8732 54.4033 15.2531 54.4033 16.7303H77.8797V27.2256C77.5032 27.2256 77.0885 27.2256 76.674 27.2256C69.6338 27.2256 62.5936 27.2404 55.5536 27.207C54.6631 27.2026 54.3211 27.4308 54.3856 28.3609C54.461 29.4492 54.4619 30.551 54.3863 31.6393C54.3176 32.6249 54.6124 32.9532 55.646 32.9464C62.6134 32.9008 69.5812 32.9226 76.5487 32.9224C76.9766 32.9224 77.4046 32.9224 77.9431 32.9224Z" fill="#D8D8D8"/>
<path fill-rule="evenodd" clip-rule="evenodd" d="M25.7038 44H12.2711C12.2489 43.5973 12.2124 43.2453 12.2124 42.8932C12.2094 32.953 12.2087 23.0129 12.2111 13.0727C12.2115 11.1682 12.2177 11.1675 10.2728 11.1675C7.25852 11.1675 4.24427 11.1686 1.2298 11.1692C0.838202 11.1692 0.446604 11.1692 0 11.1692V0H38V11.1679C36.3873 11.1679 34.7974 11.1686 33.2072 11.1677C31.1008 11.1666 28.9926 11.2162 26.8888 11.1395C25.905 11.1037 25.6802 11.4302 25.6835 12.3749C25.716 22.4243 25.7038 32.4737 25.7038 42.5231C25.7038 42.988 25.7038 43.4532 25.7038 44Z" fill="#D8D8D8"/>
<path fill-rule="evenodd" clip-rule="evenodd" d="M124.296 0.00620389C127.421 0.00620389 130.322 -0.0185408 133.221 0.0389797C133.563 0.0457085 134.021 0.427731 134.215 0.763086C135.273 2.59267 136.264 4.46198 137.37 6.48518C137.632 6.10902 137.821 5.87872 137.967 5.62281C138.892 3.99877 139.782 2.35304 140.746 0.75397C140.948 0.419483 141.408 0.0446232 141.756 0.0376773C144.654 -0.019409 147.555 0.00533566 150.614 0.00533566C150.4 0.377374 150.264 0.649565 150.097 0.899833C147.604 4.6328 145.132 8.38031 142.592 12.0801C142.044 12.8786 141.997 13.4132 142.567 14.2444C145.245 18.1531 147.844 22.1184 150.47 26.0647C150.624 26.2963 150.759 26.5405 151 26.9381C148.459 26.9381 146.062 26.8068 143.687 26.9829C142.01 27.1072 141.048 26.5644 140.314 25.0341C139.513 23.363 138.456 21.8199 137.423 20.0737C136.221 22.1648 135.086 24.0754 134.021 26.0259C133.648 26.7087 133.223 26.9737 132.442 26.9588C129.684 26.9054 126.925 26.9379 124 26.9379C124.208 26.5687 124.341 26.2961 124.506 26.0469C127.188 22.0077 129.859 17.9602 132.576 13.9463C133.004 13.3149 132.917 12.9142 132.524 12.3342C129.924 8.50122 127.36 4.64235 124.786 0.79087C124.653 0.592478 124.532 0.385405 124.296 0.00620389Z" fill="#D8D8D8"/>
</svg>
