<svg width="288" height="107" viewBox="0 0 288 107" fill="none" xmlns="http://www.w3.org/2000/svg">
<path d="M268.656 49.3387C269.196 50.5657 269.577 51.8093 269.792 53.067L268.314 53.32C268.438 54.0429 268.5 54.7695 268.5 55.5C268.5 56.2305 268.438 56.9571 268.314 57.68L269.792 57.933C269.577 59.1908 269.196 60.4343 268.656 61.6613L267.283 61.0572C266.712 62.3553 265.939 63.651 264.963 64.9403L266.159 65.8458C265.405 66.8407 264.546 67.8222 263.584 68.789L262.521 67.7312C261.478 68.7795 260.303 69.8167 258.998 70.8402L259.924 72.0205C258.931 72.7989 257.871 73.566 256.744 74.321L255.909 73.0751C254.647 73.9213 253.296 74.7544 251.86 75.573L252.603 76.8761C251.502 77.5037 250.354 78.1216 249.16 78.7293L248.48 77.3926C247.095 78.0975 245.647 78.7895 244.136 79.4678L244.751 80.8362C243.587 81.3584 242.389 81.872 241.157 82.3766L240.588 80.9885C239.134 81.5841 237.631 82.1674 236.08 82.7379L236.598 84.1456C235.397 84.5878 234.168 85.0221 232.912 85.4482L232.43 84.0277C230.931 84.5362 229.394 85.0333 227.819 85.5183L228.26 86.9518C227.031 87.3305 225.779 87.7017 224.506 88.0653L224.094 86.6229C222.564 87.0599 221.002 87.4859 219.41 87.9005L219.788 89.3521C218.538 89.6775 217.27 89.9959 215.984 90.307L215.632 88.8491C214.082 89.224 212.506 89.5884 210.905 89.942L211.228 91.4067C209.972 91.6842 208.7 91.9551 207.413 92.2191L207.112 90.7497C205.543 91.0715 203.953 91.3832 202.34 91.6844L202.616 93.1589C201.342 93.3969 200.055 93.6283 198.755 93.8531L198.5 92.375C196.918 92.6486 195.317 92.9123 193.698 93.1658L193.93 94.6477C192.656 94.8472 191.371 95.0404 190.076 95.2272L189.861 93.7425C188.27 93.9719 186.663 94.1917 185.039 94.4015L185.231 95.8891C183.942 96.0557 182.644 96.2161 181.336 96.3701L181.16 94.8804C179.565 95.0682 177.955 95.2466 176.332 95.4154L176.487 96.9073C175.2 97.0411 173.904 97.1689 172.599 97.2905L172.46 95.797C170.853 95.9469 169.234 96.0873 167.603 96.2182L167.723 97.7133C166.431 97.817 165.132 97.9146 163.826 98.0061L163.722 96.5098C162.113 96.6225 160.494 96.726 158.865 96.82L158.951 98.3175C157.653 98.3924 156.348 98.4613 155.037 98.5242L154.965 97.0259C153.354 97.1031 151.733 97.1712 150.103 97.2299L150.157 98.7289C148.861 98.7755 147.559 98.8163 146.252 98.8511L146.212 97.3516C144.594 97.3946 142.969 97.4284 141.335 97.4528L141.358 98.9526C140.061 98.972 138.76 98.9855 137.454 98.993L137.445 97.493C136.632 97.4977 135.817 97.5 135 97.5C134.183 97.5 133.368 97.4977 132.555 97.493L132.546 98.993C131.24 98.9855 129.939 98.972 128.642 98.9526L128.665 97.4528C127.031 97.4284 125.406 97.3946 123.788 97.3516L123.748 98.8511C122.441 98.8163 121.139 98.7755 119.843 98.7289L119.897 97.2299C118.267 97.1712 116.646 97.1031 115.035 97.0259L114.963 98.5242C113.652 98.4613 112.347 98.3924 111.049 98.3175L111.135 96.82C109.506 96.726 107.887 96.6225 106.278 96.5098L106.174 98.0061C104.868 97.9146 103.569 97.817 102.277 97.7133L102.397 96.2182C100.766 96.0873 99.1467 95.9469 97.5399 95.797L97.4006 97.2905C96.0965 97.1689 94.8005 97.0411 93.513 96.9073L93.668 95.4154C92.0448 95.2466 90.4352 95.0682 88.8398 94.8804L88.6644 96.3701C87.3562 96.2161 86.0575 96.0557 84.7687 95.8891L84.961 94.4015C83.3374 94.1917 81.7297 93.9719 80.1385 93.7425L79.9245 95.2272C78.6287 95.0404 77.3437 94.8472 76.0698 94.6477L76.3019 93.1658C74.6827 92.9123 73.0819 92.6486 71.5003 92.375L71.2447 93.8531C69.945 93.6283 68.6581 93.3969 67.3843 93.1589L67.6598 91.6844C66.0475 91.3832 64.4566 91.0715 62.8882 90.7497L62.5867 92.2191C61.3 91.9551 60.0282 91.6842 58.7716 91.4067L59.0951 89.942C57.4938 89.5884 55.918 89.224 54.3685 88.8491L54.0157 90.307C52.7299 89.9959 51.4618 89.6775 50.2121 89.3521L50.5901 87.9005C48.9977 87.4859 47.4358 87.0599 45.9058 86.6229L45.4939 88.0653C44.2207 87.7017 42.969 87.3305 41.7395 86.9518L42.181 85.5183C40.6061 85.0333 39.0686 84.5362 37.5701 84.0277L37.0881 85.4482C35.8325 85.0221 34.6033 84.5878 33.4016 84.1456L33.9195 82.7379C32.369 82.1674 30.8658 81.5841 29.4116 80.9885L28.8432 82.3766C27.611 81.872 26.4127 81.3584 25.2495 80.8362L25.8638 79.4678C24.3532 78.7895 22.9046 78.0975 21.5202 77.3926L20.8396 78.7293C19.6461 78.1216 18.4981 77.5037 17.3971 76.8761L18.1398 75.573C16.7037 74.7544 15.3531 73.9213 14.0909 73.0751L13.2556 74.321C12.1294 73.566 11.0689 72.7989 10.0763 72.0205L11.002 70.8402C9.69706 69.8167 8.52175 68.7795 7.47915 67.7312L6.41562 68.789C5.45407 67.8222 4.59463 66.8407 3.84138 65.8457L5.0373 64.9403C4.06117 63.651 3.28786 62.3552 2.7167 61.0572L1.34374 61.6613C0.803814 60.4343 0.42279 59.1907 0.207594 57.933L1.68611 57.68C1.56242 56.9571 1.5 56.2305 1.5 55.5C1.5 54.7695 1.56242 54.0429 1.68611 53.32L0.207598 53.067C0.422796 51.8092 0.80382 50.5657 1.34374 49.3387L2.71671 49.9428C3.28787 48.6447 4.06118 47.349 5.03731 46.0597L3.84139 45.1542C4.59464 44.1593 5.45408 43.1778 6.41562 42.211L7.47916 43.2688C8.52176 42.2205 9.69706 41.1833 11.002 40.1598L10.0763 38.9795C11.0689 38.2011 12.1294 37.434 13.2556 36.679L14.0909 37.9249C15.3531 37.0787 16.7037 36.2456 18.1398 35.427L17.3971 34.1239C18.4981 33.4963 19.6461 32.8784 20.8396 32.2707L21.5202 33.6074C22.9046 32.9025 24.3532 32.2105 25.8638 31.5322L25.2495 30.1638C26.4127 29.6416 27.611 29.128 28.8432 28.6234L29.4116 30.0115C30.8658 29.4159 32.369 28.8326 33.9195 28.2621L33.4016 26.8544C34.6033 26.4122 35.8324 25.9779 37.0881 25.5518L37.5701 26.9723C39.0686 26.4638 40.6061 25.9667 42.181 25.4817L41.7395 24.0482C42.969 23.6695 44.2207 23.2983 45.4939 22.9347L45.9058 24.3771C47.4358 23.9401 48.9976 23.5141 50.5901 23.0995L50.2121 21.6479C51.4618 21.3225 52.7299 21.0041 54.0157 20.693L54.3685 22.1509C55.9179 21.776 57.4938 21.4116 59.0951 21.058L58.7716 19.5933C60.0282 19.3158 61.3 19.0449 62.5867 18.7809L62.8882 20.2503C64.4566 19.9285 66.0474 19.6168 67.6598 19.3156L67.3843 17.8411C68.6581 17.6031 69.945 17.3717 71.2447 17.1469L71.5003 18.625C73.0819 18.3514 74.6827 18.0877 76.3019 17.8342L76.0698 16.3523C77.3436 16.1528 78.6287 15.9596 79.9245 15.7728L80.1385 17.2575C81.7297 17.0281 83.3374 16.8083 84.9609 16.5985L84.7687 15.1109C86.0575 14.9443 87.3562 14.7839 88.6644 14.6299L88.8398 16.1196C90.4352 15.9318 92.0448 15.7534 93.668 15.5846L93.5129 14.0927C94.8005 13.9588 96.0965 13.8311 97.4006 13.7095L97.5399 15.203C99.1467 15.0531 100.766 14.9127 102.397 14.7818L102.277 13.2867C103.569 13.183 104.868 13.0854 106.174 12.9939L106.278 14.4902C107.887 14.3775 109.506 14.274 111.135 14.18L111.049 12.6825C112.347 12.6076 113.652 12.5387 114.963 12.4758L115.035 13.9741C116.646 13.8969 118.267 13.8288 119.897 13.7702L119.843 12.2711C121.139 12.2245 122.441 12.1837 123.748 12.1489L123.788 13.6484C125.406 13.6054 127.031 13.5716 128.665 13.5472L128.642 12.0474C129.939 12.028 131.24 12.0145 132.546 12.007L132.555 13.507C133.368 13.5023 134.183 13.5 135 13.5C135.817 13.5 136.632 13.5023 137.445 13.507L137.454 12.007C138.76 12.0145 140.061 12.028 141.358 12.0474L141.335 13.5472C142.969 13.5716 144.594 13.6054 146.212 13.6484L146.252 12.1489C147.559 12.1837 148.861 12.2245 150.157 12.2711L150.103 13.7702C151.733 13.8288 153.354 13.8969 154.965 13.9741L155.037 12.4758C156.348 12.5387 157.653 12.6076 158.951 12.6825L158.865 14.18C160.494 14.274 162.113 14.3775 163.722 14.4902L163.826 12.9939C165.132 13.0854 166.431 13.183 167.723 13.2867L167.603 14.7818C169.234 14.9127 170.853 15.0531 172.46 15.203L172.599 13.7095C173.904 13.8311 175.2 13.9588 176.487 14.0927L176.332 15.5846C177.955 15.7534 179.565 15.9318 181.16 16.1196L181.336 14.6299C182.644 14.7839 183.942 14.9443 185.231 15.1109L185.039 16.5985C186.663 16.8083 188.27 17.0281 189.861 17.2575L190.076 15.7728C191.371 15.9596 192.656 16.1528 193.93 16.3523L193.698 17.8342C195.317 18.0877 196.918 18.3514 198.5 18.625L198.755 17.1469C200.055 17.3717 201.342 17.6031 202.616 17.8411L202.34 19.3156C203.953 19.6168 205.543 19.9285 207.112 20.2503L207.413 18.7809C208.7 19.0449 209.972 19.3158 211.228 19.5933L210.905 21.058C212.506 21.4116 214.082 21.776 215.632 22.1509L215.984 20.693C217.27 21.0041 218.538 21.3225 219.788 21.6479L219.41 23.0995C221.002 23.5141 222.564 23.9401 224.094 24.3771L224.506 22.9347C225.779 23.2983 227.031 23.6695 228.26 24.0482L227.819 25.4817C229.394 25.9667 230.931 26.4637 232.43 26.9723L232.912 25.5518C234.168 25.9779 235.397 26.4122 236.598 26.8544L236.08 28.2621C237.631 28.8326 239.134 29.4159 240.588 30.0115L241.157 28.6234C242.389 29.128 243.587 29.6416 244.751 30.1638L244.136 31.5322C245.647 32.2105 247.095 32.9025 248.48 33.6074L249.16 32.2707C250.354 32.8784 251.502 33.4963 252.603 34.1239L251.86 35.427C253.296 36.2456 254.647 37.0787 255.909 37.9249L256.744 36.679C257.871 37.434 258.931 38.2011 259.924 38.9795L258.998 40.1598C260.303 41.1833 261.478 42.2205 262.521 43.2688L263.584 42.211C264.546 43.1778 265.405 44.1593 266.159 45.1543L264.963 46.0597C265.939 47.349 266.712 48.6448 267.283 49.9428L268.656 49.3387Z" stroke="#1D7BFF" stroke-width="3" stroke-dasharray="5 4"/>
<path d="M282.806 44.0381C283.16 49.1028 280.252 54.5192 273.827 60.0264C267.437 65.503 257.879 70.7858 245.763 75.5433C221.556 85.0493 187.577 92.2892 149.584 94.9459C111.591 97.6027 76.9361 95.1621 51.6409 89.1177C38.9813 86.0926 28.7807 82.1915 21.6911 77.6574C14.562 73.098 10.9285 68.139 10.5743 63.0744C10.2201 58.0098 13.1281 52.5934 19.5533 47.0862C25.9429 41.6095 35.5014 36.3267 47.6168 31.5692C71.8245 22.0632 105.803 14.8233 143.796 12.1666C181.789 9.50984 216.444 11.9504 241.739 17.9948C254.399 21.0199 264.6 24.921 271.689 29.4551C278.818 34.0145 282.452 38.9735 282.806 44.0381Z" stroke="#1D7BFF" stroke-width="4"/>
</svg>
