<svg width="24" height="24" viewBox="0 0 24 24" fill="none" xmlns="http://www.w3.org/2000/svg">
<path d="M7 8L11.3753 11.5002C11.7405 11.7924 12.2595 11.7924 12.6247 11.5002L17 8M9.2 17H14.8C15.9201 17 16.4802 17 16.908 16.782C17.2843 16.5903 17.5903 16.2843 17.782 15.908C18 15.4802 18 14.9201 18 13.8V10.2C18 9.07989 18 8.51984 17.782 8.09202C17.5903 7.71569 17.2843 7.40973 16.908 7.21799C16.4802 7 15.9201 7 14.8 7H9.2C8.0799 7 7.51984 7 7.09202 7.21799C6.7157 7.40973 6.40973 7.71569 6.21799 8.09202C6 8.51984 6 9.07989 6 10.2V13.8C6 14.9201 6 15.4802 6.21799 15.908C6.40973 16.2843 6.7157 16.5903 7.09202 16.782C7.51984 17 8.0799 17 9.2 17ZM1 12C1 5.92487 5.92487 0.999999 12 1C18.0751 1 23 5.92487 23 12C23 18.0751 18.0751 23 12 23C5.92487 23 0.999999 18.0751 1 12Z" stroke="white" stroke-width="2"/>
</svg>
