<svg width="112" height="46" viewBox="0 0 112 46" fill="none" xmlns="http://www.w3.org/2000/svg">
<path d="M111.125 19.1453C111.323 21.9788 110.093 24.8523 107.542 27.6442C104.988 30.4379 101.156 33.0956 96.295 35.4583C86.576 40.1819 72.8844 43.6574 57.5294 44.7312C42.1744 45.8049 28.1323 44.2686 17.8505 40.9437C12.7076 39.2805 8.54324 37.182 5.62589 34.7708C2.7104 32.3612 1.09249 29.6869 0.894346 26.8534C0.696206 24.0199 1.92619 21.1464 4.47794 18.3545C7.03134 15.5608 10.8631 12.9031 15.7245 10.5403C25.4435 5.81681 39.1351 2.34124 54.4901 1.26752C69.8451 0.193789 83.8872 1.73003 94.169 5.05498C99.3119 6.71812 103.476 8.81667 106.394 11.2278C109.309 13.6374 110.927 16.3118 111.125 19.1453Z" stroke="#1D7BFF" stroke-width="1.5"/>
</svg>
