<svg width="37" height="33" viewBox="0 0 37 33" fill="none" xmlns="http://www.w3.org/2000/svg">
<path fill-rule="evenodd" clip-rule="evenodd" d="M2 17.1172H11.6666C14.2166 17.1172 15.9667 19.0505 15.9667 21.4172V26.7838C15.9667 29.1505 14.2166 31.0838 11.6666 31.0838H6.30004C3.93337 31.0838 2 29.1505 2 26.7838V17.1172Z" stroke="white" stroke-width="3" stroke-linecap="round" stroke-linejoin="round"/>
<path d="M2 17.1166C2 7.03323 3.88339 5.36667 9.55002 2" stroke="white" stroke-width="3" stroke-linecap="round" stroke-linejoin="round"/>
<path fill-rule="evenodd" clip-rule="evenodd" d="M21.3828 17.1172H31.0495C33.5995 17.1172 35.3495 19.0505 35.3495 21.4172V26.7838C35.3495 29.1505 33.5995 31.0838 31.0495 31.0838H25.6828C23.3161 31.0838 21.3828 29.1505 21.3828 26.7838V17.1172Z" stroke="white" stroke-width="3" stroke-linecap="round" stroke-linejoin="round"/>
<path d="M21.3828 17.1166C21.3828 7.03323 23.2661 5.36667 28.9328 2" stroke="white" stroke-width="3" stroke-linecap="round" stroke-linejoin="round"/>
</svg>
