<svg width="35" height="30" viewBox="0 0 35 30" fill="none" xmlns="http://www.w3.org/2000/svg">
<path fill-rule="evenodd" clip-rule="evenodd" d="M35 15C35 23.2843 28.2843 30 20 30C11.7157 30 5 23.2843 5 15C5 6.71573 11.7157 0 20 0C28.2843 0 35 6.71573 35 15Z" fill="#14136D"/>
<path fill-rule="evenodd" clip-rule="evenodd" d="M30 15C30 23.2843 23.2843 30 15 30C6.71573 30 0 23.2843 0 15C0 6.71573 6.71573 0 15 0C23.2843 0 30 6.71573 30 15Z" fill="#1D7BFF"/>
<path d="M21.6668 11.667L13.9228 19.411C13.5973 19.7365 13.0697 19.7365 12.7442 19.411L8.3335 15.0003" stroke="white" stroke-width="2" stroke-linecap="round"/>
</svg>
