<svg width="30" height="26" viewBox="0 0 30 26" fill="none" xmlns="http://www.w3.org/2000/svg">
<path fill-rule="evenodd" clip-rule="evenodd" d="M29.1665 12.6099C29.1665 19.5135 23.5701 25.1099 16.6665 25.1099C9.76294 25.1099 4.1665 19.5134 4.1665 12.6099C4.1665 5.70631 9.76295 0.109863 16.6665 0.109863C23.5701 0.109863 29.1665 5.70631 29.1665 12.6099Z" fill="#0B2AA9"/>
<path fill-rule="evenodd" clip-rule="evenodd" d="M25 12.6099C25 19.5135 19.4036 25.1099 12.5 25.1099C5.59644 25.1099 0 19.5134 0 12.6099C0 5.70631 5.59644 0.109863 12.5 0.109863C19.4036 0.109863 25 5.70631 25 12.6099Z" fill="#1D7BFF"/>
<path d="M18.0554 9.83203L11.6021 16.2854C11.3309 16.5566 10.8911 16.5566 10.6199 16.2854L6.94434 12.6098" stroke="white" stroke-width="2" stroke-linecap="round"/>
</svg>
