<svg width="19" height="18" viewBox="0 0 19 18" fill="none" xmlns="http://www.w3.org/2000/svg">
<path d="M13 2C13.5523 2 14 1.55228 14 1C14 0.447715 13.5523 0 13 0V2ZM2.09202 16.782L2.54601 15.891H2.54601L2.09202 16.782ZM1.21799 15.908L0.326981 16.362L1.21799 15.908ZM16.782 15.908L15.891 15.454L16.782 15.908ZM15.908 16.782L15.454 15.891L15.908 16.782ZM2.09202 1.21799L2.54601 2.10899L2.54601 2.10899L2.09202 1.21799ZM1.21799 2.09202L2.10899 2.54601L2.10899 2.54601L1.21799 2.09202ZM18 10C18 9.44771 17.5523 9 17 9C16.4477 9 16 9.44771 16 10H18ZM9.77207 11.2855L9.0625 10.5808L9.77207 11.2855ZM18.7096 3.70464C19.0987 3.31276 19.0965 2.67959 18.7046 2.29043C18.3128 1.90127 17.6796 1.90348 17.2904 2.29536L18.7096 3.70464ZM8.35293 11.2855L9.0625 10.5808L8.35293 11.2855ZM5.70957 7.20445C5.32041 6.81257 4.68724 6.81036 4.29536 7.19952C3.90348 7.58869 3.90127 8.22185 4.29043 8.61373L5.70957 7.20445ZM4.2 2H13V0H4.2V2ZM13.8 16H4.2V18H13.8V16ZM2 13.8V4.2H0V13.8H2ZM4.2 16C3.62345 16 3.25117 15.9992 2.96784 15.9761C2.69617 15.9539 2.59545 15.9162 2.54601 15.891L1.63803 17.673C2.01641 17.8658 2.40963 17.9371 2.80497 17.9694C3.18864 18.0008 3.65645 18 4.2 18V16ZM0 13.8C0 14.3436 -0.000777721 14.8114 0.0305694 15.195C0.0628704 15.5904 0.134186 15.9836 0.326981 16.362L2.10899 15.454C2.0838 15.4045 2.04612 15.3038 2.02393 15.0322C2.00078 14.7488 2 14.3766 2 13.8H0ZM2.54601 15.891C2.35785 15.7951 2.20487 15.6422 2.10899 15.454L0.326981 16.362C0.6146 16.9265 1.07354 17.3854 1.63803 17.673L2.54601 15.891ZM16 13.8C16 14.3766 15.9992 14.7488 15.9761 15.0322C15.9539 15.3038 15.9162 15.4045 15.891 15.454L17.673 16.362C17.8658 15.9836 17.9371 15.5904 17.9694 15.195C18.0008 14.8114 18 14.3436 18 13.8H16ZM13.8 18C14.3436 18 14.8114 18.0008 15.195 17.9694C15.5904 17.9371 15.9836 17.8658 16.362 17.673L15.454 15.891C15.4045 15.9162 15.3038 15.9539 15.0322 15.9761C14.7488 15.9992 14.3766 16 13.8 16V18ZM15.891 15.454C15.7951 15.6422 15.6422 15.7951 15.454 15.891L16.362 17.673C16.9265 17.3854 17.3854 16.9265 17.673 16.362L15.891 15.454ZM4.2 0C3.65645 0 3.18864 -0.000777721 2.80497 0.0305694C2.40963 0.0628704 2.01641 0.134186 1.63803 0.32698L2.54601 2.10899C2.59545 2.0838 2.69617 2.04612 2.96784 2.02393C3.25117 2.00078 3.62345 2 4.2 2V0ZM2 4.2C2 3.62345 2.00078 3.25117 2.02393 2.96784C2.04612 2.69617 2.0838 2.59545 2.10899 2.54601L0.32698 1.63803C0.134186 2.01641 0.0628704 2.40963 0.0305694 2.80497C-0.000777721 3.18864 0 3.65645 0 4.2H2ZM1.63803 0.32698C1.07354 0.614601 0.614601 1.07354 0.32698 1.63803L2.10899 2.54601C2.20487 2.35785 2.35785 2.20487 2.54601 2.10899L1.63803 0.32698ZM18 13.8V10H16V13.8H18ZM10.4816 11.9901L18.7096 3.70464L17.2904 2.29536L9.0625 10.5808L10.4816 11.9901ZM9.0625 10.5808L5.70957 7.20445L4.29043 8.61373L7.64337 11.9901L9.0625 10.5808ZM9.0625 10.5808L7.64337 11.9901C8.42553 12.7777 9.69947 12.7777 10.4816 11.9901L9.0625 10.5808Z" fill="white"/>
</svg>
