<svg width="338" height="110" viewBox="0 0 338 110" fill="none" xmlns="http://www.w3.org/2000/svg">
<path d="M310.458 50.7681C311.078 51.99 311.516 53.2282 311.765 54.4806L310.784 54.6756C310.933 55.425 311.008 56.1781 311.008 56.9351C311.008 57.6922 310.933 58.4453 310.784 59.1947L311.765 59.3896C311.516 60.642 311.078 61.8803 310.458 63.1022L309.566 62.6499C308.91 63.9442 308.03 65.2337 306.927 66.5141L307.684 67.1668C306.865 68.1187 305.933 69.0584 304.893 69.9847L304.228 69.2381C303.104 70.2395 301.846 71.2295 300.456 72.2057L301.031 73.0239C299.994 73.7528 298.888 74.4719 297.716 75.1807L297.199 74.3251C295.863 75.1332 294.437 75.9293 292.924 76.712L293.384 77.6002C292.249 78.1874 291.067 78.7666 289.84 79.3372L289.418 78.4305C287.984 79.0971 286.487 79.7526 284.927 80.3962L285.309 81.3206C284.121 81.8109 282.898 82.294 281.641 82.7698L281.287 81.8345C279.795 82.3992 278.255 82.9537 276.667 83.4974L276.991 84.4435C275.772 84.8611 274.525 85.2723 273.252 85.6769L272.949 84.7238C271.42 85.2096 269.853 85.6859 268.248 86.1523L268.527 87.1126C267.279 87.4749 266.01 87.8313 264.719 88.1814L264.457 87.2162C262.899 87.6387 261.31 88.0521 259.689 88.4563L259.931 89.4266C258.667 89.7419 257.384 90.0515 256.083 90.3553L255.855 89.3815C254.284 89.7484 252.686 90.1069 251.062 90.4566L251.272 91.4342C249.999 91.7085 248.71 91.9774 247.405 92.2408L247.207 91.2606C245.615 91.5822 243.999 91.8955 242.362 92.2004L242.545 93.1835C241.263 93.4221 239.968 93.6556 238.661 93.8837L238.489 92.8986C236.89 93.1774 235.272 93.4484 233.635 93.7113L233.794 94.6986C232.499 94.9065 231.192 95.1093 229.875 95.307L229.726 94.3181C228.118 94.5593 226.493 94.7929 224.851 95.0186L224.987 96.0092C223.694 96.187 222.391 96.3599 221.078 96.5278L220.951 95.5359C219.331 95.743 217.697 95.9426 216.047 96.1345L216.163 97.1278C214.865 97.2788 213.559 97.4249 212.244 97.5663L212.137 96.572C210.515 96.7463 208.881 96.9131 207.233 97.0725L207.329 98.0678C206.022 98.1943 204.706 98.316 203.383 98.433L203.295 97.4368C201.672 97.5802 200.038 97.7163 198.393 97.845L198.471 98.842C197.16 98.9445 195.843 99.0423 194.519 99.1354L194.449 98.1379C192.821 98.2523 191.182 98.3596 189.534 98.4596L189.594 99.4577C188.286 99.5371 186.971 99.6118 185.65 99.6819L185.597 98.6833C183.961 98.7701 182.316 98.8497 180.663 98.922L180.707 99.9211C179.399 99.9782 178.086 100.031 176.768 100.079L176.732 99.0795C175.093 99.1392 173.447 99.1917 171.792 99.2369L171.82 100.237C170.511 100.272 169.197 100.304 167.878 100.33L167.858 99.3305C166.22 99.3636 164.574 99.3897 162.922 99.4085L162.933 100.408C161.621 100.423 160.305 100.434 158.984 100.439L158.98 99.4395C158.156 99.4431 157.33 99.4449 156.503 99.4449C155.677 99.4449 154.851 99.4431 154.027 99.4395L154.023 100.439C152.702 100.434 151.386 100.423 150.073 100.408L150.085 99.4085C148.433 99.3897 146.787 99.3636 145.149 99.3305L145.129 100.33C143.81 100.304 142.496 100.272 141.187 100.237L141.214 99.2369C139.56 99.1917 137.914 99.1392 136.275 99.0795L136.239 100.079C134.921 100.031 133.608 99.9782 132.3 99.9211L132.344 98.922C130.691 98.8497 129.046 98.7701 127.41 98.6833L127.357 99.6819C126.036 99.6118 124.721 99.5371 123.412 99.4577L123.473 98.4596C121.825 98.3596 120.186 98.2523 118.558 98.1379L118.488 99.1354C117.164 99.0423 115.847 98.9445 114.536 98.842L114.614 97.845C112.969 97.7163 111.335 97.5802 109.712 97.4368L109.624 98.433C108.301 98.316 106.985 98.1943 105.678 98.0678L105.774 97.0725C104.126 96.9131 102.492 96.7463 100.87 96.572L100.763 97.5663C99.4482 97.4249 98.1416 97.2788 96.844 97.1278L96.9595 96.1345C95.3103 95.9426 93.6755 95.743 92.0557 95.5359L91.9288 96.5278C90.6159 96.3599 89.3127 96.187 88.0196 96.0092L88.1558 95.0186C86.5141 94.7929 84.8889 94.5593 83.2807 94.3181L83.1323 95.307C81.8145 95.1093 80.508 94.9065 79.2133 94.6986L79.3718 93.7113C77.7348 93.4484 76.1167 93.1774 74.5182 92.8986L74.3464 93.8837C73.0385 93.6556 71.7437 93.4221 70.4622 93.1835L70.6452 92.2004C69.0077 91.8955 67.3923 91.5822 65.7997 91.2606L65.6018 92.2408C64.2973 91.9774 63.0081 91.7085 61.7345 91.4342L61.945 90.4566C60.3212 90.1069 58.723 89.7484 57.1515 89.3815L56.9241 90.3553C55.6232 90.0515 54.3403 89.7419 53.0759 89.4266L53.3179 88.4563C51.6973 88.0521 50.1076 87.6387 48.5498 87.2162L48.2881 88.1814C46.997 87.8313 45.7276 87.4749 44.4803 87.1126L44.7593 86.1523C43.1542 85.6859 41.5865 85.2096 40.0577 84.7238L39.7548 85.6769C38.4817 85.2723 37.235 84.8611 36.0155 84.4435L36.3395 83.4974C34.752 82.9537 33.2116 82.3992 31.7199 81.8345L31.3659 82.7698C30.1092 82.294 28.8863 81.8109 27.6983 81.3206L28.0798 80.3962C26.5203 79.7526 25.0226 79.0971 23.5888 78.4305L23.1672 79.3372C21.9399 78.7666 20.7581 78.1874 19.6232 77.6002L20.0827 76.712C18.57 75.9292 17.1442 75.1332 15.8082 74.3251L15.2906 75.1807C14.1188 74.4719 13.0131 73.7528 11.9758 73.0239L12.5507 72.2057C11.1614 71.2295 9.9029 70.2395 8.77908 69.2381L8.11379 69.9847C7.07425 69.0583 6.14244 68.1187 5.32248 67.1668L6.08014 66.5141C4.97717 65.2337 4.09678 63.9442 3.44045 62.6499L2.54858 63.1022C1.92893 61.8803 1.49072 60.642 1.24181 59.3896L2.22263 59.1947C2.07368 58.4453 1.99854 57.6922 1.99854 56.9351C1.99854 56.1781 2.07368 55.425 2.22263 54.6756L1.24181 54.4806C1.49072 53.2282 1.92894 51.99 2.54858 50.7681L3.44046 51.2203C4.09678 49.9261 4.97717 48.6366 6.08015 47.3561L5.32249 46.7035C6.14245 45.7516 7.07425 44.8119 8.11379 43.8856L8.77908 44.6322C9.90291 43.6307 11.1614 42.6408 12.5508 41.6646L11.9758 40.8464C13.0131 40.1175 14.1188 39.3984 15.2907 38.6895L15.8082 39.5452C17.1442 38.737 18.57 37.941 20.0828 37.1582L19.6232 36.2701C20.7581 35.6828 21.9399 35.1037 23.1672 34.533L23.5888 35.4398C25.0226 34.7732 26.5203 34.1177 28.0798 33.4741L27.6983 32.5497C28.8863 32.0594 30.1092 31.5762 31.3659 31.1005L31.7199 32.0357C33.2115 31.471 34.7519 30.9166 36.3395 30.3729L36.0155 29.4268C37.235 29.0091 38.4817 28.5979 39.7548 28.1934L40.0576 29.1464C41.5865 28.6606 43.1542 28.1844 44.7593 27.718L44.4803 26.7577C45.7275 26.3953 46.997 26.039 48.2881 25.6889L48.5498 26.654C50.1076 26.2316 51.6973 25.8181 53.3179 25.414L53.0759 24.4437C54.3403 24.1284 55.6232 23.8188 56.9241 23.515L57.1515 24.4888C58.723 24.1218 60.3211 23.7634 61.945 23.4136L61.7344 22.436C63.0081 22.1617 64.2973 21.8928 65.6018 21.6294L65.7997 22.6097C67.3923 22.2881 69.0077 21.9747 70.6452 21.6698L70.4622 20.6867C71.7437 20.4481 73.0385 20.2147 74.3464 19.9865L74.5182 20.9717C76.1167 20.6928 77.7348 20.4219 79.3718 20.159L79.2132 19.1717C80.508 18.9638 81.8145 18.7609 83.1323 18.5632L83.2807 19.5522C84.8889 19.3109 86.5141 19.0774 88.1558 18.8517L88.0196 17.861C89.3127 17.6833 90.6159 17.5104 91.9288 17.3425L92.0557 18.3344C93.6755 18.1272 95.3103 17.9276 96.9595 17.7358L96.844 16.7425C98.1416 16.5915 99.4481 16.4453 100.763 16.304L100.87 17.2983C102.492 17.124 104.126 16.9571 105.774 16.7978L105.678 15.8025C106.985 15.676 108.301 15.5542 109.624 15.4373L109.712 16.4334C111.335 16.2901 112.969 16.154 114.614 16.0252L114.536 15.0283C115.847 14.9258 117.164 14.8279 118.488 14.7349L118.558 15.7324C120.186 15.6179 121.825 15.5107 123.473 15.4107L123.412 14.4125C124.721 14.3332 126.036 14.2584 127.357 14.1884L127.41 15.1869C129.046 15.1002 130.691 15.0206 132.344 14.9483L132.3 13.9492C133.608 13.892 134.921 13.8394 136.239 13.7914L136.275 14.7908C137.914 14.7311 139.56 14.6786 141.214 14.6334L141.187 13.6337C142.496 13.5979 143.81 13.5666 145.129 13.54L145.149 14.5398C146.787 14.5066 148.433 14.4806 150.085 14.4618L150.073 13.4619C151.386 13.4469 152.702 13.4366 154.023 13.4308L154.027 14.4308C154.851 14.4272 155.677 14.4254 156.503 14.4254C157.33 14.4254 158.156 14.4272 158.98 14.4308L158.984 13.4308C160.305 13.4366 161.621 13.4469 162.933 13.4619L162.922 14.4618C164.574 14.4806 166.22 14.5066 167.858 14.5398L167.878 13.54C169.197 13.5666 170.511 13.5979 171.82 13.6337L171.792 14.6334C173.447 14.6786 175.093 14.7311 176.732 14.7908L176.768 13.7914C178.086 13.8394 179.399 13.892 180.707 13.9492L180.663 14.9483C182.316 15.0206 183.961 15.1002 185.597 15.1869L185.65 14.1884C186.971 14.2584 188.286 14.3332 189.594 14.4125L189.534 15.4107C191.182 15.5107 192.821 15.6179 194.449 15.7324L194.519 14.7349C195.843 14.8279 197.16 14.9258 198.471 15.0283L198.393 16.0252C200.038 16.154 201.672 16.2901 203.295 16.4334L203.383 15.4373C204.706 15.5542 206.022 15.676 207.329 15.8025L207.233 16.7978C208.881 16.9571 210.515 17.124 212.137 17.2983L212.244 16.304C213.559 16.4453 214.865 16.5915 216.163 16.7425L216.047 17.7358C217.697 17.9276 219.331 18.1272 220.951 18.3344L221.078 17.3425C222.391 17.5104 223.694 17.6833 224.987 17.861L224.851 18.8517C226.493 19.0774 228.118 19.3109 229.726 19.5522L229.875 18.5632C231.192 18.7609 232.499 18.9638 233.794 19.1717L233.635 20.159C235.272 20.4219 236.89 20.6928 238.489 20.9717L238.661 19.9865C239.968 20.2147 241.263 20.4481 242.545 20.6867L242.362 21.6698C243.999 21.9747 245.615 22.2881 247.207 22.6097L247.405 21.6294C248.71 21.8928 249.999 22.1617 251.272 22.436L251.062 23.4136C252.686 23.7634 254.284 24.1218 255.855 24.4888L256.083 23.515C257.384 23.8188 258.667 24.1284 259.931 24.4437L259.689 25.414C261.31 25.8181 262.899 26.2316 264.457 26.654L264.719 25.6889C266.01 26.039 267.279 26.3953 268.527 26.7577L268.248 27.718C269.853 28.1844 271.42 28.6606 272.949 29.1464L273.252 28.1934C274.525 28.5979 275.772 29.0091 276.991 29.4268L276.667 30.3729C278.255 30.9166 279.795 31.471 281.287 32.0357L281.641 31.1005C282.898 31.5762 284.121 32.0594 285.309 32.5497L284.927 33.4741C286.487 34.1177 287.984 34.7732 289.418 35.4398L289.84 34.533C291.067 35.1037 292.249 35.6828 293.384 36.2701L292.924 37.1583C294.437 37.941 295.863 38.737 297.199 39.5452L297.716 38.6895C298.888 39.3984 299.994 40.1175 301.031 40.8464L300.456 41.6646C301.846 42.6408 303.104 43.6307 304.228 44.6322L304.893 43.8856C305.933 44.8119 306.865 45.7516 307.684 46.7035L306.927 47.3561C308.03 48.6366 308.91 49.9261 309.566 51.2203L310.458 50.7681Z" stroke="#1D7BFF" stroke-width="2" stroke-dasharray="5 4"/>
<path d="M333.114 43.9136C333.477 49.1142 329.967 54.7041 322.389 60.3773C314.875 66.0026 303.712 71.4328 289.659 76.3428C261.573 86.1555 222.273 93.7767 178.429 96.8426C134.585 99.9084 94.6071 97.8309 65.4288 92.0225C50.8287 89.1161 39.0193 85.2923 30.7954 80.7675C22.5015 76.2041 18.2471 71.1572 17.8835 65.9567C17.5198 60.7561 21.0304 55.1662 28.6085 49.493C36.1226 43.8676 47.2849 38.4375 61.3384 33.5275C89.4244 23.7148 128.724 16.0935 172.568 13.0277C216.412 9.96184 256.39 12.0394 285.568 17.8478C300.168 20.7541 311.978 24.578 320.202 29.1028C328.496 33.6662 332.75 38.7131 333.114 43.9136Z" stroke="#1D7BFF" stroke-width="3"/>
</svg>
