<svg width="22" height="16" viewBox="0 0 22 16" fill="none" xmlns="http://www.w3.org/2000/svg">
<path d="M8.83317 11.2503L14.4557 8.00033L8.83317 4.75033V11.2503ZM21.3565 2.76783C21.4973 3.27699 21.5948 3.95949 21.6598 4.82616C21.7357 5.69283 21.7682 6.44033 21.7682 7.09033L21.8332 8.00033C21.8332 10.3728 21.6598 12.117 21.3565 13.2328C21.0857 14.2078 20.4573 14.8362 19.4823 15.107C18.9732 15.2478 18.0415 15.3453 16.6115 15.4103C15.2032 15.4862 13.914 15.5187 12.7223 15.5187L10.9998 15.5837C6.46067 15.5837 3.63317 15.4103 2.51734 15.107C1.54234 14.8362 0.914004 14.2078 0.643171 13.2328C0.502337 12.7237 0.404837 12.0412 0.339837 11.1745C0.264004 10.3078 0.231504 9.56033 0.231504 8.91033L0.166504 8.00033C0.166504 5.62783 0.339837 3.88366 0.643171 2.76783C0.914004 1.79283 1.54234 1.16449 2.51734 0.893659C3.0265 0.752826 3.95817 0.655325 5.38817 0.590325C6.7965 0.514492 8.08567 0.481992 9.27734 0.481992L10.9998 0.416992C15.539 0.416992 18.3665 0.590326 19.4823 0.893659C20.4573 1.16449 21.0857 1.79283 21.3565 2.76783V2.76783Z" fill="white"/>
</svg>
