<svg width="51" height="50" viewBox="0 0 51 50" fill="none" xmlns="http://www.w3.org/2000/svg">
<rect x="1" y="27" width="21.5385" height="19.2308" rx="6" fill="#61F9CB"/>
<path d="M46.6044 15.0183V6C46.6044 4.89543 45.709 4 44.6044 4H5C3.89543 4 3 4.89543 3 6V15.0183V32.2491V33.5311C3 34.6357 3.89543 35.5311 5 35.5311H29.9892" stroke="#6E58F1" stroke-width="2"/>
<path d="M23.2636 20.8326L3.52759 4.56732H46.6045L27.0917 20.8225C25.9839 21.7453 24.3763 21.7496 23.2636 20.8326Z" fill="#6E58F1"/>
<path d="M47.4727 36H38.6301C35.4452 36 32.8633 33.4181 32.8633 30.2332V30.2332C32.8633 27.0482 35.4452 24.4663 38.6301 24.4663H49.8633M49.8633 24.4663L45.4559 20M49.8633 24.4663L45.4559 28.931" stroke="#6E58F1" stroke-width="2" stroke-linecap="round"/>
</svg>
