<svg width="232" height="232" viewBox="0 0 232 232" fill="none" xmlns="http://www.w3.org/2000/svg">
<g style="mix-blend-mode:plus-lighter" opacity="0.12">
<mask id="mask0_2065_1947" style="mask-type:alpha" maskUnits="userSpaceOnUse" x="0" y="0" width="232" height="232">
<path d="M230.726 115.854C230.726 179.287 179.3 230.709 115.863 230.709C52.426 230.709 1 179.287 1 115.854C1 52.4221 52.426 1 115.863 1C179.3 1 230.726 52.4221 230.726 115.854Z" fill="#C4C4C4" stroke="black"/>
</mask>
<g mask="url(#mask0_2065_1947)">
<path d="M382.63 43.0529L128.109 297.554L128.448 297.892L382.969 43.3915L382.63 43.0529Z" fill="white" stroke="white"/>
<path d="M371.905 38.8379L117.385 293.339L117.723 293.678L372.244 39.1765L371.905 38.8379Z" fill="white" stroke="white"/>
<path d="M361.128 34.6228L106.608 289.124L106.946 289.462L361.467 34.9614L361.128 34.6228Z" fill="white" stroke="white"/>
<path d="M350.404 30.4072L95.8838 284.908L96.2225 285.247L350.743 30.7459L350.404 30.4072Z" fill="white" stroke="white"/>
<path d="M339.653 26.2183L85.1323 280.719L85.471 281.058L339.991 26.5569L339.653 26.2183Z" fill="white" stroke="white"/>
<path d="M328.902 22.0293L74.3813 276.53L74.72 276.869L329.241 22.3679L328.902 22.0293Z" fill="white" stroke="white"/>
<path d="M318.178 17.8142L63.6576 272.315L63.9963 272.654L318.517 18.1529L318.178 17.8142Z" fill="white" stroke="white"/>
<path d="M307.426 13.6248L52.9058 268.126L53.2444 268.464L307.765 13.9634L307.426 13.6248Z" fill="white" stroke="white"/>
<path d="M296.703 9.40969L42.1821 263.911L42.5208 264.249L297.041 9.74833L296.703 9.40969Z" fill="white" stroke="white"/>
<path d="M285.952 5.22072L31.4312 259.722L31.7698 260.06L286.29 5.55937L285.952 5.22072Z" fill="white" stroke="white"/>
<path d="M275.226 1.00515L20.7058 255.506L21.0445 255.845L275.565 1.34378L275.226 1.00515Z" fill="white" stroke="white"/>
<path d="M264.475 -3.18382L9.95483 251.317L10.2935 251.656L264.814 -2.84518L264.475 -3.18382Z" fill="white" stroke="white"/>
<path d="M253.751 -7.39891L-0.769043 247.102L-0.43038 247.441L254.09 -7.06027L253.751 -7.39891Z" fill="white" stroke="white"/>
<path d="M243 -11.5881L-11.5209 242.913L-11.1822 243.251L243.338 -11.2495L243 -11.5881Z" fill="white" stroke="white"/>
<path d="M232.223 -15.8036L-22.2976 238.697L-21.9589 239.036L232.562 -15.4649L232.223 -15.8036Z" fill="white" stroke="white"/>
<path d="M221.499 -20.0184L-33.0215 234.483L-32.6828 234.821L221.838 -19.6798L221.499 -20.0184Z" fill="white" stroke="white"/>
<path d="M210.747 -24.2075L-43.7732 230.293L-43.4345 230.632L211.086 -23.8689L210.747 -24.2075Z" fill="white" stroke="white"/>
<path d="M200.023 -28.4227L-54.4978 226.078L-54.1591 226.417L200.361 -28.0841L200.023 -28.4227Z" fill="white" stroke="white"/>
<path d="M189.272 -32.6118L-65.248 221.889L-64.9094 222.228L189.611 -32.2732L189.272 -32.6118Z" fill="white" stroke="white"/>
<path d="M178.547 -36.827L-75.973 217.674L-75.6344 218.013L178.886 -36.4884L178.547 -36.827Z" fill="white" stroke="white"/>
<path d="M167.797 -41.0161L-86.7239 213.485L-86.3852 213.824L168.135 -40.6774L167.797 -41.0161Z" fill="white" stroke="white"/>
<path d="M157.071 -45.2315L-97.4492 209.269L-97.1106 209.608L157.41 -44.8929L157.071 -45.2315Z" fill="white" stroke="white"/>
<path d="M146.322 -49.4208L-108.199 205.08L-107.86 205.419L146.66 -49.0821L146.322 -49.4208Z" fill="white" stroke="white"/>
<path d="M135.57 -53.6096L-118.95 200.891L-118.612 201.23L135.909 -53.271L135.57 -53.6096Z" fill="white" stroke="white"/>
<path d="M124.845 -57.8248L-129.675 196.676L-129.337 197.015L125.184 -57.4862L124.845 -57.8248Z" fill="white" stroke="white"/>
<path d="M114.069 -62.0399L-140.452 192.461L-140.113 192.8L114.407 -61.7013L114.069 -62.0399Z" fill="white" stroke="white"/>
<path d="M103.343 -66.255L-151.177 188.246L-150.838 188.585L103.682 -65.9163L103.343 -66.255Z" fill="white" stroke="white"/>
</g>
</g>
</svg>
