<svg width="136" height="136" viewBox="0 0 136 136" fill="none" xmlns="http://www.w3.org/2000/svg">
<g style="mix-blend-mode:plus-lighter" opacity="0.05">
<mask id="mask0_2065_2004" style="mask-type:alpha" maskUnits="userSpaceOnUse" x="0" y="0" width="136" height="136">
<path d="M134.719 67.8544C134.719 104.777 104.785 134.709 67.8595 134.709C30.934 134.709 1 104.777 1 67.8544C1 30.9317 30.934 1 67.8595 1C104.785 1 134.719 30.9317 134.719 67.8544Z" fill="#C4C4C4" stroke="black"/>
</mask>
<g mask="url(#mask0_2065_2004)">
<path d="M223.139 25.4781L74.9878 173.618L75.1849 173.815L223.336 25.6752L223.139 25.4781Z" fill="white" stroke="white"/>
<path d="M216.896 23.0246L68.7451 171.164L68.9422 171.362L217.093 23.2218L216.896 23.0246Z" fill="white" stroke="white"/>
<path d="M210.623 20.5711L62.4722 168.711L62.6693 168.908L210.82 20.7682L210.623 20.5711Z" fill="white" stroke="white"/>
<path d="M204.381 18.1174L56.23 166.257L56.4271 166.454L204.578 18.3145L204.381 18.1174Z" fill="white" stroke="white"/>
<path d="M198.123 15.6791L49.9717 163.819L50.1688 164.016L198.32 15.8762L198.123 15.6791Z" fill="white" stroke="white"/>
<path d="M191.865 13.2407L43.7139 161.38L43.911 161.578L192.062 13.4378L191.865 13.2407Z" fill="white" stroke="white"/>
<path d="M185.623 10.7872L37.4717 158.927L37.6688 159.124L185.82 10.9843L185.623 10.7872Z" fill="white" stroke="white"/>
<path d="M179.365 8.34861L31.2134 156.488L31.4105 156.686L179.562 8.54573L179.365 8.34861Z" fill="white" stroke="white"/>
<path d="M173.122 5.89512L24.9712 154.035L25.1683 154.232L173.319 6.09224L173.122 5.89512Z" fill="white" stroke="white"/>
<path d="M166.865 3.45677L18.7134 151.597L18.9105 151.794L167.062 3.65389L166.865 3.45677Z" fill="white" stroke="white"/>
<path d="M160.622 1.00303L12.4705 149.143L12.6676 149.34L160.819 1.20015L160.622 1.00303Z" fill="white" stroke="white"/>
<path d="M154.364 -1.43532L6.2124 146.704L6.40953 146.902L154.561 -1.23821L154.364 -1.43532Z" fill="white" stroke="white"/>
<path d="M148.121 -3.88881L-0.0297852 144.251L0.167344 144.448L148.318 -3.6917L148.121 -3.88881Z" fill="white" stroke="white"/>
<path d="M141.863 -6.32729L-6.28809 141.812L-6.09095 142.01L142.06 -6.13017L141.863 -6.32729Z" fill="white" stroke="white"/>
<path d="M135.59 -8.78103L-12.561 139.359L-12.3639 139.556L135.787 -8.58391L135.59 -8.78103Z" fill="white" stroke="white"/>
<path d="M129.348 -11.2344L-18.8032 136.905L-18.6061 137.103L129.545 -11.0373L129.348 -11.2344Z" fill="white" stroke="white"/>
<path d="M123.09 -13.6727L-25.0615 134.467L-24.8644 134.664L123.287 -13.4756L123.09 -13.6727Z" fill="white" stroke="white"/>
<path d="M116.847 -16.1264L-31.3042 132.013L-31.1071 132.211L117.044 -15.9292L116.847 -16.1264Z" fill="white" stroke="white"/>
<path d="M110.59 -18.5647L-37.5615 129.575L-37.3644 129.772L110.787 -18.3676L110.59 -18.5647Z" fill="white" stroke="white"/>
<path d="M104.347 -21.0183L-43.8044 127.121L-43.6073 127.319L104.544 -20.8212L104.347 -21.0183Z" fill="white" stroke="white"/>
<path d="M98.0889 -23.4567L-50.0623 124.683L-49.8651 124.88L98.286 -23.2596L98.0889 -23.4567Z" fill="white" stroke="white"/>
<path d="M91.846 -25.9104L-56.3052 122.229L-56.108 122.426L92.0431 -25.7133L91.846 -25.9104Z" fill="white" stroke="white"/>
<path d="M85.5887 -28.3489L-62.5625 119.791L-62.3654 119.988L85.7858 -28.1518L85.5887 -28.3489Z" fill="white" stroke="white"/>
<path d="M79.3306 -30.7871L-68.8206 117.353L-68.6234 117.55L79.5277 -30.59L79.3306 -30.7871Z" fill="white" stroke="white"/>
<path d="M73.0877 -33.2407L-75.0635 114.899L-74.8663 115.096L73.2848 -33.0436L73.0877 -33.2407Z" fill="white" stroke="white"/>
<path d="M66.815 -35.6942L-81.3362 112.446L-81.1391 112.643L67.0121 -35.4971L66.815 -35.6942Z" fill="white" stroke="white"/>
<path d="M60.5721 -38.1477L-87.5791 109.992L-87.382 110.189L60.7692 -37.9506L60.5721 -38.1477Z" fill="white" stroke="white"/>
</g>
</g>
</svg>
