<svg class="loading" width="2053" height="221" viewBox="0 0 2053 221" fill="none"
            xmlns="http://www.w3.org/2000/svg">
            <g id="textTHINK">
                <path
                    d="M0 212.5V0H100.594C124.096 0 144.762 4.35119 162.591 13.0536C180.421 21.756 194.299 34 204.227 49.7857C214.357 65.5714 219.423 84.3929 219.423 106.25C219.423 127.905 214.357 146.726 204.227 162.714C194.299 178.5 180.421 190.744 162.591 199.446C144.762 208.149 124.096 212.5 100.594 212.5H0ZM60.174 164.536H98.1627C110.319 164.536 120.855 162.31 129.769 157.857C138.887 153.202 145.978 146.524 151.043 137.821C156.108 128.917 158.641 118.393 158.641 106.25C158.641 93.9048 156.108 83.381 151.043 74.6786C145.978 65.9762 138.887 59.3988 129.769 54.9464C120.855 50.2917 110.319 47.9643 98.1627 47.9643H60.174V164.536Z"
                    fill="white" />
                <path
                    d="M222.585 212.5L316.493 0H375.755L469.967 212.5H407.362L333.816 29.4464H357.521L283.975 212.5H222.585ZM273.946 171.214L289.445 126.893H393.382L408.881 171.214H273.946Z"
                    fill="white" />
                <path d="M487.026 212.5V0H547.201V212.5H487.026Z" fill="white" />
                <path d="M590.011 212.5V0H650.185V164.839H751.691V212.5H590.011Z" fill="white" />
                <path
                    d="M807.629 212.5V122.643L821.609 158.768L726.486 0H790.003L858.686 115.054H821.913L890.901 0H949.251L854.431 158.768L867.803 122.643V212.5H807.629Z"
                    fill="white" />
            </g>

            <g id="textCREATE">
                <path
                    d="M1180.39 216.75L1089.52 4.25H1154.56L1231.15 188.214H1192.85L1271.26 4.25H1330.83L1239.66 216.75H1180.39Z"
                    fill="white" />
                <path d="M1343.28 216.75V4.25H1403.46V216.75H1343.28Z" fill="white" />
                <path
                    d="M1446.27 216.75V4.25H1555.07C1583.03 4.25 1603.89 9.41071 1617.67 19.7321C1631.45 29.8512 1638.34 43.2083 1638.34 59.8036C1638.34 70.7321 1635.4 80.3452 1629.52 88.6429C1623.85 96.7381 1615.75 103.214 1605.21 108.071C1594.88 112.726 1582.52 115.054 1568.13 115.054L1574.21 100.482C1589.21 100.482 1602.27 102.81 1613.42 107.464C1624.56 111.917 1633.17 118.494 1639.25 127.196C1645.53 135.696 1648.67 146.119 1648.67 158.464C1648.67 176.881 1641.17 191.25 1626.18 201.571C1611.39 211.69 1589.71 216.75 1561.14 216.75H1446.27ZM1505.83 173.339H1556.28C1566.61 173.339 1574.41 171.619 1579.68 168.179C1585.15 164.536 1587.89 159.071 1587.89 151.786C1587.89 144.5 1585.15 139.137 1579.68 135.696C1574.41 132.054 1566.61 130.232 1556.28 130.232H1501.58V88.6429H1547.16C1557.29 88.6429 1564.89 86.9226 1569.96 83.4821C1575.02 80.0417 1577.56 74.8809 1577.56 68C1577.56 61.119 1575.02 56.0595 1569.96 52.8214C1564.89 49.381 1557.29 47.6607 1547.16 47.6607H1505.83V173.339Z"
                    fill="white" />
                <path
                    d="M1735.15 86.5179H1833.92V131.446H1735.15V86.5179ZM1739.4 170.304H1850.63V216.75H1679.84V4.25H1846.68V50.6964H1739.4V170.304Z"
                    fill="white" />
                <path
                    d="M1958.79 221C1941.36 221 1924.55 218.875 1908.34 214.625C1892.33 210.173 1879.27 204.506 1869.13 197.625L1888.89 153.304C1898.41 159.375 1909.35 164.435 1921.71 168.482C1934.27 172.327 1946.73 174.25 1959.09 174.25C1967.4 174.25 1974.08 173.542 1979.15 172.125C1984.22 170.506 1987.86 168.482 1990.09 166.054C1992.52 163.423 1993.74 160.387 1993.74 156.946C1993.74 152.089 1991.51 148.244 1987.05 145.411C1982.59 142.577 1976.82 140.25 1969.73 138.429C1962.64 136.607 1954.74 134.786 1946.02 132.964C1937.51 131.143 1928.9 128.815 1920.19 125.982C1911.68 123.149 1903.88 119.506 1896.79 115.054C1889.7 110.399 1883.92 104.429 1879.47 97.1429C1875.01 89.6548 1872.78 80.2441 1872.78 68.9107C1872.78 56.1607 1876.23 44.625 1883.11 34.3036C1890.21 23.9822 1900.74 15.6845 1914.72 9.41072C1928.7 3.13691 1946.13 0 1966.99 0C1980.97 0 1994.65 1.61905 2008.02 4.85715C2021.6 7.89286 2033.65 12.4464 2044.19 18.5179L2025.65 63.1429C2015.52 57.6786 2005.49 53.631 1995.56 51C1985.63 48.1667 1976.01 46.75 1966.69 46.75C1958.38 46.75 1951.7 47.6607 1946.63 49.4822C1941.57 51.1012 1937.92 53.3274 1935.69 56.1607C1933.46 58.994 1932.35 62.2321 1932.35 65.875C1932.35 70.5298 1934.48 74.2738 1938.73 77.1072C1943.19 79.7381 1948.96 81.9643 1956.05 83.7857C1963.35 85.4048 1971.25 87.125 1979.76 88.9464C1988.47 90.7679 1997.08 93.0952 2005.59 95.9286C2014.3 98.5595 2022.2 102.202 2029.3 106.857C2036.39 111.31 2042.06 117.28 2046.31 124.768C2050.77 132.054 2053 141.262 2053 152.393C2053 164.738 2049.45 176.173 2042.36 186.696C2035.47 197.018 2025.04 205.315 2011.06 211.589C1997.28 217.863 1979.86 221 1958.79 221Z"
                    fill="white" />
            </g>
        </svg>