<svg width="26" height="28" viewBox="0 0 26 28" fill="none" xmlns="http://www.w3.org/2000/svg">
<path d="M24.9673 5.34331C24.8513 4.61478 24.2134 4.0711 23.4776 4.0711H23.4631C18.8889 4.11822 14.4778 5.74927 10.9729 8.67065C10.8641 7.38756 10.4981 6.13709 9.89276 4.99173C9.06636 3.42955 7.82314 2.12472 6.30445 1.21858C5.6919 0.852498 4.92712 0.953985 4.44868 1.46505C2.17246 3.88987 0.947367 7.05773 1.00173 10.3851C1.05248 13.5892 2.28483 16.6048 4.4813 18.9209C4.2747 19.711 4.11885 20.5157 4.01374 21.3348C3.97024 21.6719 4.20584 21.98 4.54655 22.0271C4.57192 22.0307 4.60091 22.0307 4.62629 22.0307C4.93075 22.0307 5.19534 21.806 5.23521 21.4943C5.34757 20.6425 5.5143 19.8089 5.73902 19.0006C5.76439 18.9462 5.77889 18.8919 5.78614 18.8339C8.00799 11.0447 15.1919 5.39043 23.4848 5.30344H23.4884C23.6189 5.30344 23.7422 5.40856 23.7639 5.53542C24.2206 8.41693 24.2351 11.3383 23.8074 14.2235C23.8002 14.2452 23.7929 14.267 23.7893 14.2887C22.9375 17.9459 20.5598 21.0702 17.2578 22.8571C14.3473 24.4374 10.9584 24.8506 7.77964 24.0496C8.85251 23.3428 9.88188 22.5672 10.8641 21.7227C13.4557 19.4936 15.634 16.8585 17.3376 13.8973C17.5079 13.6037 17.4064 13.2267 17.1092 13.0564C16.8156 12.886 16.4387 12.9875 16.2683 13.2847C13.7819 17.5798 10.2262 21.1681 5.99999 23.698C5.98187 23.7053 5.96737 23.7162 5.94925 23.727C4.59366 24.5353 3.17284 25.2312 1.69402 25.8111C1.37869 25.9344 1.21921 26.2932 1.34607 26.6085C1.44031 26.8514 1.67228 27 1.91875 27C1.99486 27 2.07098 26.9855 2.14347 26.9565C3.60779 26.3838 5.01411 25.7024 6.36244 24.9159C7.86301 25.4233 9.42157 25.677 10.9765 25.677C13.347 25.677 15.7065 25.0935 17.8305 23.9373C21.4043 22.0017 23.9923 18.6309 24.9455 14.6838C24.9673 14.633 24.9854 14.5787 24.9926 14.5207C25.4602 11.4761 25.4493 8.38794 24.9673 5.34331ZM7.18884 12.8679C7.18159 12.2082 7.1526 11.5957 7.10185 11.0085C6.98949 9.75439 6.77564 8.43506 6.44943 6.96711C6.37694 6.63366 6.04711 6.42705 5.71365 6.49955C5.38019 6.57204 5.17359 6.90187 5.24608 7.23533C5.56142 8.6489 5.76802 9.9175 5.87313 11.1172C5.97462 12.2662 5.98549 13.5312 5.90213 15.0861C5.51068 15.8763 5.16997 16.6918 4.88725 17.5327C1.17571 13.1035 1.30257 6.60466 5.34032 2.30594C5.42006 2.21895 5.5578 2.20808 5.67016 2.27332C8.31245 3.84638 9.86738 6.69527 9.76952 9.75439C8.80489 10.7011 7.94012 11.7444 7.18884 12.8679Z" fill="white" stroke="white" stroke-width="1.2"/>
</svg>
