<svg width="29" height="30" viewBox="0 0 29 30" fill="none" xmlns="http://www.w3.org/2000/svg">
<path d="M28.4153 7.90542V5.24497C26.5182 5.30941 23.2988 4.82308 21.8868 6.39955L17.6869 4.24766C18.6493 -1.41781 9.80185 -1.41396 10.7656 4.24766L6.31358 6.52902C1.92147 2.05101 -3.21527 10.1635 2.69762 12.2273V18.0318C-0.104727 19.186 -0.0766447 22.1423 0.0371635 24.755C1.93424 24.6906 5.15369 25.1769 6.56568 23.6004L10.7656 25.7523C9.80315 31.4179 18.6508 31.4139 17.6869 25.7523L22.1389 23.471C26.531 27.949 31.6678 19.8365 25.7549 17.7727V11.9682C27.3193 11.2825 28.4153 9.71991 28.4153 7.90542ZM24.8681 7.01861H26.6417C26.8446 10.2301 24.9725 10.7483 22.2076 10.5659C21.9836 8.79065 22.9184 7.03362 24.8681 7.01861ZM14.2262 1.6977C16.5572 1.7395 16.5568 5.20353 14.2262 5.24497C11.8953 5.20317 11.8957 1.73915 14.2262 1.6977ZM1.8108 8.79224C1.8526 6.46133 5.31662 6.46168 5.35807 8.7923C5.31627 11.1232 1.85224 11.1228 1.8108 8.79224ZM3.58443 22.9813H1.8108C1.60789 19.7699 3.47997 19.2517 6.24489 19.4341C6.4689 21.2093 5.53413 22.9663 3.58443 22.9813ZM14.2262 28.3022C11.8953 28.2604 11.8957 24.7964 14.2263 24.755C16.5572 24.7968 16.5568 28.2607 14.2262 28.3022ZM26.6417 21.2077C26.5999 23.5386 23.1359 23.5382 23.0944 21.2076C23.1362 18.8768 26.6002 18.8771 26.6417 21.2077ZM23.9812 17.7726C22.2042 18.2317 21.0317 20.001 21.3829 21.8653L16.8766 24.1745C15.4641 22.586 12.9924 22.5812 11.5758 24.1745L7.62253 22.149C8.21321 21.0894 7.97495 18.8447 8.01852 17.6604H4.47125V12.2273C6.24826 11.7682 7.42075 9.9989 7.06957 8.13458L11.5758 5.82542C12.9884 7.41395 15.46 7.41868 16.8767 5.82542L20.83 7.85091C20.2393 8.91048 20.4775 11.1552 20.434 12.3395H23.9812V17.7726Z" fill="white"/>
<path d="M16.8866 11.4527C16.8866 9.98567 15.6932 8.79225 14.2262 8.79225C11.273 8.75826 10.5808 13.035 13.3394 13.9606V16.0393C10.5807 16.9656 11.2733 21.2418 14.2263 21.2076C17.179 21.2415 17.8718 16.965 15.113 16.0393V13.9606C16.1452 13.5945 16.8866 12.6088 16.8866 11.4527ZM14.2262 10.5659C15.3857 10.572 15.3856 12.3336 14.2261 12.3395C13.0667 12.3334 13.0668 10.5718 14.2262 10.5659ZM14.2262 19.4341C13.0667 19.428 13.0668 17.6664 14.2262 17.6604C15.3857 17.6665 15.3855 19.4281 14.2262 19.4341Z" fill="white"/>
</svg>
