<svg width="30" height="30" viewBox="0 0 30 30" fill="none" xmlns="http://www.w3.org/2000/svg">
<path d="M25.6066 4.39342C22.7735 1.56029 19.0066 0 15 0C10.9934 0 7.22654 1.56029 4.39342 4.39342C1.56029 7.22654 0 10.9934 0 15C0 19.0066 1.56029 22.7735 4.39336 25.6066C7.22654 28.4397 10.9934 30 15 30C19.0066 30 22.7735 28.4397 25.6066 25.6066C28.4397 22.7735 30 19.0066 30 15C30 10.9934 28.4397 7.22654 25.6066 4.39342ZM15 28.2422C11.7575 28.2422 8.69344 27.0839 6.27861 24.9643L10.8718 20.3711H8.38594L5.03566 23.7214C2.91609 21.3066 1.75781 18.2425 1.75781 15C1.75781 11.4629 3.13523 8.1375 5.63637 5.63637C8.1375 3.13523 11.4629 1.75781 15 1.75781C18.2425 1.75781 21.3066 2.91609 23.7214 5.03566L19.0311 9.72598H21.517L24.9643 6.27867C27.0839 8.69344 28.2422 11.7575 28.2422 15C28.2422 18.5371 26.8648 21.8625 24.3636 24.3636C21.8625 26.8648 18.5371 28.2422 15 28.2422Z" fill="white"/>
<path d="M12.8607 18.6133L13.3887 15.6795L14.2126 18.4722H15.7679L16.5513 15.6722L17.1265 18.6133H18.9176L17.5233 11.4838L15.8961 11.4897L14.966 14.8142L13.9843 11.4864H12.3572L11.0747 18.6133H12.8607ZM7.26768 18.5763C9.15615 18.5763 10.4751 17.1057 10.4751 15V14.1211H7.27916V15.8789H8.57291C8.3785 16.4096 7.97279 16.8185 7.26768 16.8185C6.26496 16.8185 5.44922 16.0027 5.44922 15C5.44922 13.9973 6.26496 13.1815 7.26768 13.1815C7.51564 13.1815 7.75559 13.2302 7.98076 13.3264L8.67094 11.7097C8.22633 11.5199 7.75424 11.4236 7.26768 11.4236C5.2957 11.4236 3.69141 13.028 3.69141 15C3.69141 16.9719 5.2957 18.5763 7.26768 18.5763ZM26.5431 15C26.5431 13.028 24.9388 11.4236 22.9668 11.4236C20.9948 11.4236 19.3905 13.028 19.3905 15C19.3905 16.9719 20.9948 18.5763 22.9668 18.5763C24.9388 18.5763 26.5431 16.9719 26.5431 15ZM22.9668 16.8185C21.9641 16.8185 21.1483 16.0027 21.1483 15C21.1483 13.9973 21.9641 13.1815 22.9668 13.1815C23.9695 13.1815 24.7853 13.9973 24.7853 15C24.7853 16.0027 23.9695 16.8185 22.9668 16.8185Z" fill="white"/>
</svg>
