<svg width="33" height="33" viewBox="0 0 33 33" fill="none" xmlns="http://www.w3.org/2000/svg">
<path d="M16.703 31.7143C24.9937 31.7143 31.7146 24.9934 31.7146 16.7027C31.7146 8.41208 24.9937 1.69116 16.703 1.69116C8.41232 1.69116 1.69141 8.41208 1.69141 16.7027C1.69141 24.9934 8.41232 31.7143 16.703 31.7143Z" stroke="white" stroke-width="1.8" stroke-miterlimit="10" stroke-linecap="round" stroke-linejoin="round"/>
<path d="M27.3178 6.0882L24.2089 9.19709M9.19727 24.2087L6.08838 27.3176M10.7014 17.4449C10.7014 17.4449 16.7031 17.4449 16.7031 22.3212V23.4466H15.5777C10.7014 23.4466 10.7014 17.4449 10.7014 17.4449Z" stroke="white" stroke-width="1.8" stroke-miterlimit="10" stroke-linecap="round" stroke-linejoin="round"/>
<path d="M10.7015 12.441C10.7015 12.441 16.7032 12.441 16.7032 17.3173V18.4427H15.5778C10.7015 18.4427 10.7015 12.441 10.7015 12.441Z" stroke="white" stroke-width="1.8" stroke-miterlimit="10" stroke-linecap="round" stroke-linejoin="round"/>
<path d="M16.703 6.95392C16.703 6.95392 20.9468 11.1982 17.4986 14.6458L16.703 15.4419L15.9074 14.6458C12.4592 11.1981 16.703 6.95392 16.703 6.95392ZM22.7046 17.445C22.7046 17.445 16.703 17.445 16.703 22.3212V23.4466H17.8283C22.7046 23.4466 22.7046 17.445 22.7046 17.445Z" stroke="white" stroke-width="1.8" stroke-miterlimit="10" stroke-linecap="round" stroke-linejoin="round"/>
<path d="M16.703 26.4518V23.4495M22.7046 12.441C22.7046 12.441 16.703 12.441 16.703 17.3173V18.4427H17.8284C22.7046 18.4427 22.7046 12.441 22.7046 12.441Z" stroke="white" stroke-width="1.8" stroke-miterlimit="10" stroke-linecap="round" stroke-linejoin="round"/>
</svg>
