<svg width="351" height="80" viewBox="0 0 351 80" fill="none" xmlns="http://www.w3.org/2000/svg">
<path d="M0 79.0456V0H37.3773C46.1099 0 53.7886 1.61855 60.4134 4.85566C67.0382 8.09276 72.195 12.6473 75.8838 18.5193C79.6478 24.3912 81.5299 31.3924 81.5299 39.5228C81.5299 47.5779 79.6478 54.5791 75.8838 60.5263C72.195 66.3983 67.0382 70.9528 60.4134 74.1899C53.7886 77.427 46.1099 79.0456 37.3773 79.0456H0ZM22.3586 61.2039H36.4739C40.9908 61.2039 44.9054 60.3758 48.2178 58.7196C51.6055 56.9881 54.2403 54.5038 56.1224 51.2667C58.0044 47.9543 58.9454 44.0397 58.9454 39.5228C58.9454 34.9306 58.0044 31.016 56.1224 27.7789C54.2403 24.5418 51.6055 22.0951 48.2178 20.4389C44.9054 18.7075 40.9908 17.8417 36.4739 17.8417H22.3586V61.2039Z" fill="white"/>
<path d="M82.705 79.0456L117.598 0H139.618L174.624 79.0456H151.362L124.035 10.9535H132.842L105.515 79.0456H82.705ZM101.789 63.6882L107.548 47.2015H146.167L151.926 63.6882H101.789Z" fill="white"/>
<path d="M180.962 79.0456V0H203.321V79.0456H180.962Z" fill="white"/>
<path d="M219.228 79.0456V0H241.587V61.3168H279.303V79.0456H219.228Z" fill="white"/>
<path d="M298.15 79.0456V45.6206L303.345 59.0583L268 0H291.601L317.121 42.7975H303.458L329.091 0H350.772L315.54 59.0583L320.509 45.6206V79.0456H298.15Z" fill="white"/>
</svg>
