<svg width="610" height="610" viewBox="0 0 610 610" fill="none" xmlns="http://www.w3.org/2000/svg">
<g filter="url(#filter0_f_2035_1166)">
<path d="M476.079 122.987C402.079 53.3872 285.246 55.3205 236.079 64.9872C471.838 16.2094 551.36 178.745 565.393 285.788C567.011 295.819 567.644 304.385 567.579 310.987C567.262 303.065 566.55 294.615 565.393 285.788C558.758 244.669 535.567 178.938 476.079 122.987Z" fill="white"/>
</g>
<g filter="url(#filter1_f_2035_1166)">
<path d="M476.079 122.987C402.079 53.3872 285.246 55.3205 236.079 64.9872C471.838 16.2094 551.36 178.745 565.393 285.788C567.011 295.819 567.644 304.385 567.579 310.987C567.262 303.065 566.55 294.615 565.393 285.788C558.758 244.669 535.567 178.938 476.079 122.987Z" fill="white"/>
</g>
<g filter="url(#filter2_f_2035_1166)">
<path d="M141.583 494.08C215.583 563.68 332.416 561.746 381.583 552.08C145.824 600.857 66.3022 438.322 52.2694 331.279C50.6509 321.248 50.0177 312.682 50.083 306.08C50.4004 314.002 51.1123 322.452 52.2694 331.279C58.9041 372.398 82.0948 438.129 141.583 494.08Z" fill="white"/>
</g>
<g opacity="0.7" filter="url(#filter3_f_2035_1166)">
<path d="M141.583 494.08C215.583 563.68 332.416 561.746 381.583 552.08C145.824 600.857 66.3022 438.322 52.2694 331.279C50.6509 321.248 50.0177 312.682 50.083 306.08C50.4004 314.002 51.1123 322.452 52.2694 331.279C58.9041 372.398 82.0948 438.129 141.583 494.08Z" fill="white"/>
</g>
<g filter="url(#filter4_f_2035_1166)">
<path d="M381.531 93.5796C453.855 118.354 511.531 209.48 494.079 209.48C474.192 209.48 430.896 157.024 358.571 132.25C286.247 107.476 145.086 131.894 151.531 113.08C157.976 94.2656 309.207 68.8054 381.531 93.5796Z" fill="url(#paint0_radial_2035_1166)"/>
</g>
<g opacity="0.7" filter="url(#filter5_f_2035_1166)">
<path d="M193.234 515.273C125.259 480.287 84.5951 394.192 92.2597 379.3C101.361 361.617 147.182 440.352 215.156 475.338C283.131 510.324 393.189 517.284 384.088 534.967C374.987 552.649 261.208 550.259 193.234 515.273Z" fill="url(#paint1_radial_2035_1166)"/>
</g>
<defs>
<filter id="filter0_f_2035_1166" x="222.079" y="42.0797" width="359.504" height="282.908" filterUnits="userSpaceOnUse" color-interpolation-filters="sRGB">
<feFlood flood-opacity="0" result="BackgroundImageFix"/>
<feBlend mode="normal" in="SourceGraphic" in2="BackgroundImageFix" result="shape"/>
<feGaussianBlur stdDeviation="7" result="effect1_foregroundBlur_2035_1166"/>
</filter>
<filter id="filter1_f_2035_1166" x="229.079" y="49.0797" width="345.504" height="268.908" filterUnits="userSpaceOnUse" color-interpolation-filters="sRGB">
<feFlood flood-opacity="0" result="BackgroundImageFix"/>
<feBlend mode="normal" in="SourceGraphic" in2="BackgroundImageFix" result="shape"/>
<feGaussianBlur stdDeviation="3.5" result="effect1_foregroundBlur_2035_1166"/>
</filter>
<filter id="filter2_f_2035_1166" x="35.0786" y="291.08" width="361.504" height="284.908" filterUnits="userSpaceOnUse" color-interpolation-filters="sRGB">
<feFlood flood-opacity="0" result="BackgroundImageFix"/>
<feBlend mode="normal" in="SourceGraphic" in2="BackgroundImageFix" result="shape"/>
<feGaussianBlur stdDeviation="7.5" result="effect1_foregroundBlur_2035_1166"/>
</filter>
<filter id="filter3_f_2035_1166" x="42.0786" y="298.08" width="347.504" height="270.908" filterUnits="userSpaceOnUse" color-interpolation-filters="sRGB">
<feFlood flood-opacity="0" result="BackgroundImageFix"/>
<feBlend mode="normal" in="SourceGraphic" in2="BackgroundImageFix" result="shape"/>
<feGaussianBlur stdDeviation="4" result="effect1_foregroundBlur_2035_1166"/>
</filter>
<filter id="filter4_f_2035_1166" x="115.318" y="47.309" width="417.904" height="198.171" filterUnits="userSpaceOnUse" color-interpolation-filters="sRGB">
<feFlood flood-opacity="0" result="BackgroundImageFix"/>
<feBlend mode="normal" in="SourceGraphic" in2="BackgroundImageFix" result="shape"/>
<feGaussianBlur stdDeviation="18" result="effect1_foregroundBlur_2035_1166"/>
</filter>
<filter id="filter5_f_2035_1166" x="47.3374" y="332.747" width="381.282" height="257.006" filterUnits="userSpaceOnUse" color-interpolation-filters="sRGB">
<feFlood flood-opacity="0" result="BackgroundImageFix"/>
<feBlend mode="normal" in="SourceGraphic" in2="BackgroundImageFix" result="shape"/>
<feGaussianBlur stdDeviation="22" result="effect1_foregroundBlur_2035_1166"/>
</filter>
<radialGradient id="paint0_radial_2035_1166" cx="0" cy="0" r="1" gradientUnits="userSpaceOnUse" gradientTransform="translate(362.961 161.154) rotate(-72.3517) scale(468.183 118.078)">
<stop stop-color="white"/>
<stop offset="1" stop-color="white" stop-opacity="0"/>
</radialGradient>
<radialGradient id="paint1_radial_2035_1166" cx="0" cy="0" r="1" gradientUnits="userSpaceOnUse" gradientTransform="translate(230.877 448.427) rotate(115.974) scale(468.183 118.078)">
<stop stop-color="white"/>
<stop offset="1" stop-color="white" stop-opacity="0"/>
</radialGradient>
</defs>
</svg>
