<svg width="358" height="83" viewBox="0 0 358 83" fill="none" xmlns="http://www.w3.org/2000/svg">
<path d="M33.7643 81.4038L0 1.59615H24.1657L52.6226 70.6868H38.3942L67.5286 1.59615H89.6617L55.7845 81.4038H33.7643Z" fill="white"/>
<path d="M94.2889 81.4038V1.59615H116.648V81.4038H94.2889Z" fill="white"/>
<path d="M132.555 81.4038V1.59615H172.982C183.371 1.59615 191.125 3.53434 196.244 7.41071C201.364 11.2111 203.923 16.2276 203.923 22.4602C203.923 26.5646 202.832 30.1749 200.648 33.2912C198.54 36.3315 195.529 38.7637 191.614 40.5879C187.775 42.3361 183.183 43.2102 177.838 43.2102L180.096 37.7376C185.667 37.7376 190.523 38.6117 194.663 40.3599C198.804 42.0321 202.003 44.5023 204.262 47.7706C206.596 50.9629 207.763 54.8773 207.763 59.5137C207.763 66.4304 204.977 71.8269 199.406 75.7033C193.911 79.5037 185.855 81.4038 175.24 81.4038H132.555ZM154.688 65.1003H173.434C177.273 65.1003 180.171 64.4542 182.129 63.1621C184.161 61.794 185.178 59.7418 185.178 57.0055C185.178 54.2692 184.161 52.255 182.129 50.9629C180.171 49.5948 177.273 48.9107 173.434 48.9107H153.107V33.2912H170.046C173.81 33.2912 176.633 32.6451 178.515 31.353C180.397 30.0609 181.338 28.1227 181.338 25.5385C181.338 22.9542 180.397 21.054 178.515 19.8379C176.633 18.5458 173.81 17.8997 170.046 17.8997H154.688V65.1003Z" fill="white"/>
<path d="M239.896 32.4931H276.596V49.3668H239.896V32.4931ZM241.477 63.9602H282.807V81.4038H219.343V1.59615H281.339V19.0398H241.477V63.9602Z" fill="white"/>
<path d="M322.994 83C316.519 83 310.271 82.2019 304.248 80.6058C298.301 78.9336 293.445 76.8054 289.681 74.2212L297.021 57.5755C300.559 59.8558 304.625 61.756 309.217 63.2761C313.884 64.7202 318.514 65.4423 323.106 65.4423C326.193 65.4423 328.677 65.1763 330.559 64.6442C332.442 64.0362 333.797 63.2761 334.625 62.364C335.528 61.3759 335.98 60.2358 335.98 58.9437C335.98 57.1195 335.152 55.6754 333.495 54.6113C331.839 53.5472 329.694 52.6731 327.059 51.989C324.424 51.3049 321.488 50.6209 318.251 49.9368C315.089 49.2527 311.889 48.3787 308.652 47.3146C305.49 46.2505 302.592 44.8823 299.957 43.2102C297.322 41.462 295.177 39.2198 293.52 36.4835C291.864 33.6712 291.036 30.1369 291.036 25.8805C291.036 21.092 292.316 16.7596 294.875 12.8832C297.51 9.00687 301.425 5.89057 306.62 3.53434C311.814 1.17811 318.288 0 326.042 0C331.237 0 336.319 0.60806 341.287 1.82418C346.331 2.96429 350.81 4.67445 354.725 6.95467L347.837 23.7143C344.073 21.6621 340.346 20.1419 336.657 19.1539C332.969 18.0897 329.393 17.5577 325.93 17.5577C322.843 17.5577 320.359 17.8997 318.477 18.5838C316.595 19.1919 315.239 20.0279 314.411 21.092C313.583 22.1561 313.169 23.3723 313.169 24.7404C313.169 26.4886 313.96 27.8947 315.541 28.9588C317.197 29.9469 319.342 30.783 321.977 31.467C324.687 32.0751 327.623 32.7212 330.785 33.4052C334.022 34.0893 337.222 34.9634 340.384 36.0275C343.621 37.0156 346.557 38.3837 349.192 40.1319C351.827 41.804 353.935 44.0462 355.516 46.8585C357.172 49.5948 358 53.0531 358 57.2335C358 61.87 356.683 66.1644 354.048 70.1168C351.488 73.9931 347.611 77.1094 342.416 79.4657C337.297 81.8219 330.823 83 322.994 83Z" fill="white"/>
</svg>
