<svg width="79" height="74" viewBox="0 0 79 74" fill="none" xmlns="http://www.w3.org/2000/svg">
<path d="M13.078 8.02319C9.78197 11.707 9.60286 15.3439 10.7869 18.4554C12.8236 23.8075 13.6272 26.0724 9.57792 22.0232C0.577917 13.0232 15.7649 -7.03973 29.578 2.52324C42.5779 11.5232 33.5779 26.0232 26.0779 28.0232C18.5779 30.0232 17.4125 26.1424 20.0779 26.5232C23.5779 27.0232 32.5779 22.0232 32.5779 14.5232C32.5779 7.02319 21.578 -1.47681 13.078 8.02319Z" fill="white"/>
<ellipse cx="25.3797" cy="9.62812" rx="2" ry="3" transform="rotate(-32.6133 25.3797 9.62812)" fill="white"/>
<path d="M24.4397 63.9907C28.7593 61.5873 30.1178 58.209 30.0164 54.8813C29.8419 49.1574 29.8233 46.7543 32.3257 51.9051C37.8876 63.3534 16.9747 77.3468 7.04838 63.7924C-2.29356 51.0361 10.9534 40.2765 18.6951 40.8391C26.4367 41.4018 26.2689 45.4503 23.8746 44.2188C20.7306 42.6017 10.5903 44.3836 8.13764 51.4712C5.68498 58.5588 13.3004 70.1887 24.4397 63.9907Z" fill="white"/>
<ellipse cx="13.3397" cy="58.4512" rx="2" ry="3" transform="rotate(166.475 13.3397 58.4512)" fill="white"/>
<path d="M74.763 61.2259C72.9978 59.4733 71.1748 59.2883 69.5803 59.802C66.8375 60.6858 65.6783 61.0304 67.8189 59.1013C72.5768 54.8136 82.2624 62.9696 77.0959 69.6614C72.2335 75.9592 65.1819 71.0576 64.3727 67.2363C63.5636 63.4151 65.5442 62.9308 65.2832 64.2603C64.9406 66.0061 67.2181 70.6596 70.9871 70.8555C74.7561 71.0514 79.315 65.7456 74.763 61.2259Z" fill="white"/>
<ellipse cx="73.6348" cy="67.3659" rx="1.00642" ry="1.50964" transform="rotate(60.3622 73.6348 67.3659)" fill="white"/>
</svg>
