<svg width="377" height="419" viewBox="0 0 377 419" fill="none" xmlns="http://www.w3.org/2000/svg">
<g opacity="0.4">
<path d="M93.9672 198.724C94.5608 198.714 95.1547 198.688 95.7476 198.695C102.399 198.767 109.051 198.947 115.702 198.892C124.776 198.819 133.768 197.766 142.674 196.049C146.465 195.319 150.139 194.126 153.571 192.337C155.388 191.39 157.069 190.18 158.99 188.976C158.706 189.313 158.555 189.549 158.354 189.727C156.153 191.667 153.689 193.172 150.966 194.281C146.056 196.281 140.916 197.273 135.698 198.04C124.703 199.66 113.664 199.902 102.588 199.363C100.109 199.242 97.628 199.168 95.1482 199.065C94.7503 199.049 94.3548 198.994 93.9581 198.957C93.961 198.879 93.9648 198.801 93.9672 198.724Z" fill="white"/>
<path d="M118.993 156.958C122.782 158.378 126.602 159.721 130.354 161.233C135.26 163.21 140.201 165.135 144.963 167.423C149.858 169.775 154.498 172.633 158.303 176.61C159.429 177.786 160.375 179.139 161.367 180.438C161.626 180.777 161.749 181.218 161.935 181.613C161.846 181.666 161.757 181.718 161.668 181.771C161.382 181.432 161.071 181.112 160.815 180.752C158.137 176.997 154.638 174.161 150.828 171.627C146.551 168.781 141.91 166.649 137.261 164.547C134.024 163.084 130.662 161.898 127.357 160.588C126.226 160.14 125.094 159.694 123.964 159.244C122.274 158.57 120.585 157.894 118.896 157.218C118.927 157.132 118.96 157.046 118.993 156.958Z" fill="white"/>
<path d="M88.6393 159.714C89.0696 159.89 89.3131 159.976 89.5449 160.087C93.1478 161.797 96.7119 163.596 100.362 165.198C103.66 166.646 107.047 167.893 110.405 169.203C112.584 170.053 114.771 170.884 116.973 171.674C119.524 172.59 122.084 173.483 124.659 174.329C127.542 175.278 130.444 176.169 133.342 177.077C134.856 177.55 136.378 178.003 137.895 178.471C138.248 178.58 138.596 178.709 139.202 178.917C129.9 177.816 92.4375 163.612 88.6393 159.714Z" fill="white"/>
<path d="M83.5424 134.504C87.4849 135.804 91.4293 137.098 95.3684 138.406C99.9097 139.912 104.367 141.635 108.596 143.887C110.326 144.809 111.967 145.901 113.64 146.929C113.804 147.029 113.91 147.227 113.949 147.521C109.052 144.985 104.231 142.343 99.055 140.451C93.8752 138.56 88.7022 136.649 83.5254 134.746C83.5312 134.667 83.5366 134.586 83.5424 134.504Z" fill="white"/>
<path d="M109.83 178.609C109.093 178.369 108.372 178.062 107.618 177.9C102.278 176.755 96.9366 175.612 91.5849 174.524C87.5164 173.697 83.431 172.954 79.3545 172.166C79.18 172.133 79.0185 172.029 78.8906 171.783C81.2213 172.149 83.5599 172.469 85.8818 172.887C91.9023 173.969 97.9233 175.05 103.925 176.227C105.703 176.576 107.421 177.23 109.157 177.776C109.446 177.866 109.686 178.113 109.948 178.286C109.908 178.394 109.869 178.501 109.83 178.609Z" fill="white"/>
<path d="M121.751 222.639C118.287 227.531 114.363 232.005 109.583 235.673C104.324 239.707 98.7902 243.26 92.3743 245.201C108.703 236.976 108.076 236.923 121.751 222.639Z" fill="white"/>
<path d="M76.6561 188.138C79.2596 187.948 81.8619 187.642 84.4679 187.588C93.0293 187.414 101.573 187.9 110.11 188.49C110.187 188.495 110.259 188.577 110.427 188.681C110.029 188.696 109.723 188.721 109.416 188.717C98.4948 188.607 87.5797 187.596 76.6493 188.633C76.6514 188.468 76.6535 188.304 76.6561 188.138Z" fill="white"/>
<path d="M134.989 145.099C134.726 144.792 134.433 144.506 134.204 144.175C131.472 140.231 127.899 137.135 124.039 134.391C120.083 131.578 115.983 128.965 111.932 126.285C110.803 125.538 109.627 124.859 108.541 124.025C110.907 125.398 113.304 126.721 115.632 128.157C118.295 129.799 120.943 131.477 123.517 133.257C127.176 135.787 130.697 138.503 133.428 142.082C134.1 142.964 134.656 143.937 135.265 144.868C135.173 144.945 135.081 145.023 134.989 145.099Z" fill="white"/>
<path d="M67.5563 141.709C68.7201 141.735 69.8017 142.145 70.8661 142.576C74.0326 143.857 77.1975 145.141 80.3455 146.466C83.9683 147.99 87.5728 149.561 91.1059 151.3C83.218 148.227 75.3297 145.153 67.4418 142.081C67.4796 141.956 67.5179 141.833 67.5563 141.709Z" fill="white"/>
<path d="M74.1856 178.408C69.171 178.319 56.0209 174.513 53.9371 172.05C54.5331 172.174 54.9424 172.177 55.2707 172.34C58.2506 173.83 61.3477 174.997 64.5705 175.843C67.7641 176.683 70.951 177.544 74.1856 178.408Z" fill="white"/>
<path d="M130.169 200.388C138.443 198.949 146.704 197.438 154.372 193.739C146.907 198.124 138.629 199.579 130.169 200.388Z" fill="white"/>
<path d="M55.2428 196.639C58.285 196.822 61.3257 197.047 64.3702 197.179C67.4402 197.312 70.5134 197.353 73.6655 197.437C70.7158 198.441 56.8655 198.045 55.2428 196.639Z" fill="white"/>
<path d="M131.539 174.019C123.966 171.966 116.581 169.371 109.441 166.117C109.477 166.016 109.514 165.916 109.55 165.815C113.201 167.198 116.847 168.595 120.505 169.96C124.177 171.33 127.86 172.667 131.539 174.019Z" fill="white"/>
<path d="M118.494 228.545C115.038 233.912 106.109 242.056 101.521 243.861C107.918 239.565 113.356 234.213 118.494 228.545Z" fill="white"/>
<path d="M83.1426 160.959C77.6066 159.605 72.135 158.267 66.7027 156.938C70.3174 156.804 81.5762 159.522 83.1426 160.959Z" fill="white"/>
<path d="M56.0139 160.833C61.1494 161.195 66.0846 162.579 71.0006 164.06C65.9688 163.173 60.9356 162.287 55.9033 161.401C55.9402 161.211 55.9765 161.022 56.0139 160.833Z" fill="white"/>
<path d="M131.778 193.031C124.13 193.05 116.482 193.069 108.834 193.089C108.834 192.971 108.833 192.852 108.832 192.734C116.494 192.712 124.155 192.692 131.815 192.67C131.803 192.79 131.791 192.91 131.778 193.031Z" fill="white"/>
<path d="M86.7168 171.431C90.158 171.431 100.194 173.747 101.268 174.895C96.417 173.741 91.5669 172.586 86.7168 171.431Z" fill="white"/>
<path d="M89.1185 234.997C89.3217 234.387 89.8794 234.317 90.3282 234.171C92.3826 233.506 94.445 232.868 96.51 232.238C97.9883 231.787 99.4731 231.364 100.99 230.918C99.106 232.223 90.8906 235.057 89.1185 234.997Z" fill="white"/>
<path d="M64.6584 138.459C68.7405 139.527 72.7242 140.87 76.7298 142.954C72.4846 141.566 68.4929 140.262 64.5022 138.959C64.5554 138.791 64.6072 138.625 64.6584 138.459Z" fill="white"/>
<path d="M67.0138 195.984C63.6396 196.381 60.2777 196.213 56.8485 195.524C57.1736 194.705 57.7073 195.018 58.0899 195.055C61.0665 195.346 64.0395 195.67 67.0138 195.984Z" fill="white"/>
<path d="M56.9639 159.216C60.0045 159.046 62.8369 160.116 65.7201 160.89C62.7704 160.476 59.8206 160.063 56.8699 159.649C56.9019 159.505 56.9329 159.36 56.9639 159.216Z" fill="white"/>
<path d="M97.2701 230.824C94.383 232.21 92.5282 232.809 91.5445 232.722C92.2016 231.901 94.3967 231.146 97.2701 230.824Z" fill="white"/>
<path d="M368.146 266.435C367.018 265.69 365.909 264.912 364.759 264.203C360.529 261.595 356.262 259.049 352.058 256.403C347.022 253.234 342.008 250.029 337.038 246.757C332.814 243.976 328.685 241.046 324.479 238.237C320.371 235.493 316.027 233.156 311.446 231.318C306.739 229.429 301.83 228.163 296.857 227.193C289.408 225.743 281.938 224.399 274.487 222.963C266.894 221.5 259.358 219.775 251.97 217.488C247.855 216.215 243.81 214.711 239.748 213.269C237.937 212.627 236.106 211.996 234.382 211.16C231.6 209.811 228.776 208.486 226.189 206.814C220.684 203.254 215.324 199.472 209.895 195.794C206.507 193.498 202.946 191.506 199.154 189.962C195.712 188.56 192.113 187.692 188.444 187.126C182.555 186.218 176.646 185.436 170.672 185.642C168.811 185.706 166.945 186.068 165.115 186.449C162.945 186.901 161.724 188.546 160.818 190.4C158.576 194.984 155.163 198.363 150.421 200.206C141.631 203.622 134.725 209.489 128.797 216.608C125.174 220.961 121.772 225.5 118.284 229.965C114.33 235.028 110.347 240.075 105.426 244.255C100.076 248.8 94.2003 252.43 87.2821 254.112C84.9344 254.683 82.5665 255.001 80.1845 254.386C79.425 254.19 78.6611 253.872 78.0016 253.451C76.3712 252.41 75.8245 250.649 76.4686 248.763C77.4716 245.824 79.1636 243.298 81.3096 241.095C82.6803 239.687 84.197 238.42 85.6552 237.099C88.1548 234.834 90.7466 232.661 93.1419 230.29C95.7878 227.669 98.7718 225.566 102.193 224.203C106.031 222.675 109.019 220.215 111.531 217.003C113.579 214.383 115.708 211.794 118.449 209.849C120.316 208.525 122.301 207.367 124.303 206.089C124.126 206.054 123.938 205.977 123.755 205.988C115.462 206.427 107.17 206.876 98.8781 207.318C92.8178 207.641 86.8396 208.575 80.8857 209.7C77.9345 210.258 74.9847 210.844 72.013 211.266C66.8353 212.001 61.7042 211.698 56.7313 209.999C54.3288 209.178 52.0117 208.09 50.2301 206.201C49.5028 205.43 48.8572 204.52 48.4085 203.563C47.6897 202.03 48.1577 200.584 49.5502 199.609C50.3167 199.072 51.1363 198.601 51.9665 198.167C54.4596 196.863 56.4761 195.001 58.3554 192.94C60.6602 190.413 62.9307 187.841 65.74 185.837C66.6851 185.162 67.6429 184.505 68.7192 183.751C66.8719 182.729 65.1706 181.776 63.457 180.843C60.2492 179.097 57.4691 176.826 55.1253 174.033C53.6857 172.317 52.694 170.369 52.2566 168.147C51.8457 166.058 52.4173 164.224 53.7171 162.625C55.1045 160.918 56.5604 159.264 58.0352 157.632C60.5197 154.882 63.5825 153.408 67.3475 153.398C70.416 153.39 73.4282 153.686 76.3714 154.581C76.7744 154.703 77.1903 154.783 77.6037 154.868C77.6752 154.882 77.7616 154.827 77.9309 154.778C77.6707 154.37 77.4289 153.98 77.1771 153.596C74.3842 149.338 71.0653 145.53 67.3549 142.049C66.4011 141.153 65.48 140.193 64.708 139.142C63.9662 138.133 63.3001 137.02 62.8439 135.857C61.6915 132.92 62.674 129.846 65.2425 128.009C66.9256 126.805 68.8324 126.193 70.8865 126.024C73.8288 125.782 76.6923 126.266 79.4935 127.091C83.5065 128.273 87.3882 129.806 91.0988 131.747C92.3384 132.396 93.5375 133.123 94.9334 133.63C94.7332 133.377 94.5694 133.079 94.3277 132.875C92.2532 131.124 90.1166 129.444 88.0969 127.633C86.5345 126.231 85.0409 124.736 83.6525 123.162C82.5543 121.918 81.8932 120.39 81.6978 118.709C81.464 116.699 82.4246 115.23 84.3643 114.638C85.7448 114.217 87.1678 114.203 88.5405 114.552C90.7622 115.118 92.9695 115.757 95.1478 116.47C98.6205 117.606 102.072 118.809 105.52 120.017C108.98 121.227 112.343 122.654 115.5 124.543C124.589 129.981 131.216 137.758 136.664 146.683C138.986 150.487 141.409 154.23 143.796 157.995C146.3 161.945 149.3 165.436 153.001 168.344C157.058 171.531 160.156 175.484 161.998 180.362C162.793 182.467 164.391 183.74 166.56 184.127C168.625 184.495 170.727 184.768 172.822 184.853C180.147 185.148 187.409 185.867 194.53 187.676C198.928 188.794 203.068 190.581 206.855 193.061C212.299 196.627 217.642 200.35 223.041 203.986C228.237 207.485 233.772 210.278 239.656 212.481C247.922 215.575 256.31 218.246 264.925 220.119C272.933 221.86 281.003 223.323 289.057 224.847C294.997 225.97 300.93 227.128 306.723 228.867C311.775 230.384 316.614 232.458 321.063 235.297C326.234 238.596 331.271 242.108 336.401 245.471C340.554 248.193 344.749 250.851 348.947 253.505C353.106 256.135 357.285 258.734 361.47 261.323C363.502 262.58 365.574 263.775 367.621 265.009C367.938 265.201 368.219 265.451 368.517 265.674C368.391 265.928 368.269 266.182 368.146 266.435ZM101.165 174.763C103.763 175.707 106.336 176.728 108.965 177.574C111.639 178.434 114.396 179.032 117.066 179.901C122.901 181.804 128.692 183.838 134.521 185.758C139.262 187.318 144.122 188.288 149.128 188.435C152.694 188.541 156.155 188.084 159.412 186.534C161.326 185.623 161.896 184.571 161.625 182.478C161.553 181.923 161.42 181.37 161.257 180.833C160.48 178.282 159.119 176.044 157.493 173.957C155.283 171.12 152.558 168.831 149.679 166.719C144.318 162.787 138.407 159.822 132.426 156.989C127.844 154.819 123.24 152.696 118.673 150.496C117.411 149.887 116.194 149.154 115.041 148.356C111.767 146.092 108.582 143.698 105.278 141.48C101.661 139.053 97.9875 136.707 94.274 134.428C89.6948 131.618 84.7969 129.488 79.6445 127.955C77.1614 127.216 74.6414 126.727 72.0362 126.764C69.8281 126.795 67.752 127.288 65.8974 128.522C63.4264 130.168 62.5129 132.915 63.6255 135.666C64.0593 136.739 64.6815 137.764 65.3755 138.695C66.1273 139.705 67.002 140.64 67.9266 141.498C72.0431 145.317 75.5668 149.621 78.6432 154.307C79.3637 155.405 80.1588 156.454 80.8922 157.543C86.0335 165.183 93.0288 170.616 101.165 174.763ZM160.153 187.628C159.364 187.773 158.563 187.827 157.828 188.074C154.936 189.046 151.964 189.33 148.943 189.219C144.152 189.043 139.411 188.362 134.751 187.321C126.113 185.392 117.478 183.474 108.74 182.043C102.125 180.96 95.5045 179.902 88.7951 179.66C80.9783 179.379 73.6733 181.078 67.2689 185.753C65.272 187.21 63.4401 188.906 61.6165 190.585C60.4129 191.693 59.3465 192.95 58.2448 194.164C56.5576 196.022 54.6368 197.572 52.4286 198.77C51.6046 199.217 50.7819 199.68 50.0113 200.209C48.8573 201.002 48.5552 201.986 49.0953 203.267C49.3648 203.906 49.7031 204.583 50.1963 205.044C51.2126 205.999 52.2643 206.975 53.4594 207.666C57.1927 209.827 61.3094 210.652 65.5811 210.828C69.4072 210.986 73.1642 210.455 76.8968 209.696C84.953 208.061 93.0477 206.722 101.281 206.402C105.5 206.239 109.717 206.072 113.935 205.888C123.187 205.485 132.37 204.514 141.402 202.396C145.345 201.471 149.173 200.18 152.715 198.188C156.134 196.266 158.59 193.432 160.187 189.855C160.474 189.211 160.728 188.547 160.153 187.628ZM69.6287 183.254C70.2285 182.944 70.7299 182.694 71.224 182.431C73.8122 181.046 76.567 180.157 79.443 179.6C83.6207 178.79 87.8199 178.675 92.05 179.053C103.221 180.051 114.205 182.203 125.178 184.413C127.076 184.796 128.948 185.306 130.832 185.757C130.364 185.275 129.823 185.016 129.26 184.814C128.07 184.387 126.875 183.97 125.67 183.585C121.477 182.253 117.311 180.816 113.073 179.641C106.716 177.879 100.623 175.614 95.0103 172.044C89.9265 168.809 85.4484 164.989 81.8463 160.155C80.8669 158.84 79.8969 157.519 78.9756 156.272C75.1903 154.712 71.3472 154.11 67.3559 154.15C63.6149 154.188 60.67 155.73 58.2656 158.482C57.0344 159.892 55.8392 161.334 54.5932 162.731C52.9879 164.53 52.5295 166.56 53.2079 168.869C53.8298 170.985 54.9674 172.793 56.4411 174.409C60.0909 178.411 64.7231 180.933 69.6287 183.254ZM133.258 210.55C133.227 210.483 133.196 210.418 133.166 210.351C132.889 210.512 132.604 210.66 132.336 210.836C125.371 215.43 117.935 219.077 110.102 221.935C108.252 222.61 106.409 223.311 104.577 224.035C100.578 225.617 96.8761 227.635 93.7796 230.725C91.3302 233.17 88.6701 235.404 86.094 237.723C85.1183 238.6 84.0841 239.414 83.1353 240.318C80.5686 242.764 78.349 245.466 77.2154 248.9C76.5726 250.845 77.2085 252.261 79.0518 253.185C80.9042 254.114 82.8882 254.151 84.8275 253.776C86.9824 253.36 89.14 252.821 91.1987 252.067C96.7328 250.04 101.526 246.759 105.885 242.847C110.296 238.89 113.969 234.269 117.602 229.615C121.114 225.114 124.599 220.59 128.184 216.148C129.764 214.193 131.561 212.411 133.258 210.55ZM145.241 162.724C143.402 160.171 141.734 157.856 140.066 155.541C138.578 153.474 136.9 151.559 134.76 150.174C131.54 148.089 128.214 146.165 124.945 144.154C122.075 142.388 119.095 140.766 116.39 138.772C113.46 136.612 110.741 134.152 108.025 131.717C104.748 128.777 101.556 125.741 98.3547 122.718C94.973 119.526 91.1785 117.017 86.7844 115.425C84.3524 114.544 82.0667 116.277 82.447 118.809C82.6479 120.144 83.2065 121.252 84.2379 122.208C87.6844 125.4 91.6539 127.77 95.8811 129.717C98.7881 131.056 101.728 132.36 104.071 134.567C105.902 136.294 107.56 138.228 109.137 140.197C112.568 144.486 116.477 148.246 121.31 150.873C124.686 152.708 128.263 154.173 131.739 155.824C133.985 156.89 136.232 157.96 138.446 159.091C140.653 160.217 142.819 161.425 145.241 162.724ZM89.2539 115.404C89.2159 115.516 89.1764 115.629 89.1385 115.742C89.5122 115.922 89.884 116.108 90.2611 116.281C93.1412 117.601 95.7219 119.367 98.0325 121.527C100.771 124.087 103.499 126.655 106.225 129.227C111.352 134.066 117.442 137.497 123.455 141.042C125.352 142.161 127.257 143.272 129.097 144.481C132.714 146.858 135.896 149.757 138.907 152.854C139.104 153.057 139.345 153.216 139.565 153.396C137.679 149.888 135.688 146.488 133.498 143.221C128.695 136.06 122.881 129.898 115.431 125.393C112.158 123.415 108.679 121.926 105.08 120.682C101.671 119.504 98.2662 118.313 94.8479 117.162C92.9954 116.54 91.1194 115.988 89.2539 115.404ZM109.368 220.484C121.536 217.197 131.832 210.974 141.423 203.421C141.189 203.304 141.01 203.307 140.836 203.337C137.003 204.003 133.167 204.655 129.339 205.351C128.375 205.526 127.399 205.745 126.49 206.1C122.783 207.548 119.364 209.525 116.581 212.382C114.11 214.921 111.856 217.671 109.368 220.484ZM86.7316 125.195C86.6611 125.248 86.5892 125.302 86.5188 125.355C87.1055 125.871 87.6622 126.428 88.2858 126.895C91.3217 129.172 94.2467 131.579 96.8015 134.395C98.0451 135.766 99.5302 136.786 101.071 137.776C103.705 139.47 106.299 141.23 108.896 142.982C109.987 143.716 111.048 144.498 112.123 145.259C109.946 142.764 107.667 140.421 105.305 138.164C102.663 135.638 99.8289 133.346 96.7019 131.433C94.6274 130.164 92.568 128.869 90.5068 127.581C89.2436 126.79 87.9888 125.99 86.7316 125.195Z" fill="white"/>
</g>
<g opacity="0.4">
<path d="M252.735 137.747C252.637 123.985 249.007 111.565 239.147 101.349C240.266 100.91 241.102 101.302 241.929 101.493C244.638 102.123 247.133 103.316 249.634 104.5C259.787 109.311 267.681 116.749 274.321 125.653C274.375 125.727 274.398 125.823 274.529 126.117C274.246 125.878 274.107 125.774 273.984 125.653C273.851 125.522 273.731 125.377 273.612 125.233C270.287 121.237 266.879 117.323 262.924 113.917C259.973 111.376 256.82 109.127 253.42 107.236C251.25 106.031 249.084 104.795 246.818 103.795C244.694 102.857 242.441 102.212 240.125 101.607C241.828 103.588 243.738 105.344 245.031 107.576C246.367 109.886 247.74 112.197 248.804 114.635C249.85 117.033 250.681 119.552 251.328 122.089C251.986 124.67 252.393 127.326 252.745 129.971C253.09 132.562 253.092 135.178 252.735 137.747Z" fill="white"/>
<path d="M241.506 163.859C242.004 162.019 242.486 160.175 243.002 158.342C245.603 149.115 247.348 139.767 247.002 130.125C246.75 123.1 245.411 116.343 242.013 110.1C241.812 109.73 241.657 109.335 241.496 108.945C241.468 108.876 241.508 108.779 241.547 108.428C242.82 110.78 244.028 112.913 244.893 115.227C247.025 120.934 247.73 126.867 247.696 132.913C247.653 140.686 246.353 148.269 244.19 155.717C243.397 158.45 242.573 161.174 241.764 163.902C241.677 163.888 241.591 163.874 241.506 163.859Z" fill="white"/>
<path d="M227.467 94.7343C221.577 90.356 214.96 89.0258 208.096 87.8722C214.623 87.8106 225.425 91.1974 228.872 95.4737C228.489 95.2892 228.277 95.1869 228.012 95.0594C225.861 95.7415 223.652 96.3583 221.503 97.1397C216.319 99.0248 211.829 102.077 207.656 105.621C205.054 107.831 202.497 110.095 199.823 112.255C200.275 111.767 200.714 111.266 201.181 110.795C204.583 107.36 208.241 104.219 212.157 101.385C216.47 98.2624 221.215 96.0813 226.435 94.9624C226.659 94.915 226.883 94.8636 227.467 94.7343Z" fill="white"/>
<path d="M214.153 103.119C211.988 104.953 209.759 106.718 207.669 108.634C203.375 112.57 199.637 117.013 196.453 121.88C194.405 125.009 192.597 128.3 190.767 131.566C188.343 135.896 186.004 140.271 183.832 144.252C185.641 140.5 187.51 136.291 189.67 132.236C191.714 128.397 193.909 124.619 196.312 120.997C200.531 114.639 205.627 109.049 211.825 104.531C212.56 103.994 213.354 103.537 214.12 103.043C214.131 103.068 214.142 103.094 214.153 103.119Z" fill="white"/>
<path d="M209.515 141.856C210.826 137.92 212.047 133.951 213.473 130.058C214.855 126.281 216.267 122.497 217.992 118.872C220.026 114.597 222.774 110.744 226.033 107.281C226.156 107.149 226.305 107.041 226.589 107.021C226.299 107.429 226.018 107.844 225.716 108.242C225.378 108.688 225.021 109.119 224.671 109.557C220.952 114.204 218.201 119.424 215.952 124.888C214.157 129.251 212.656 133.737 211.056 138.178C210.614 139.404 210.281 140.67 209.898 141.917C209.769 141.897 209.642 141.877 209.515 141.856Z" fill="white"/>
<path d="M199.585 106.443C194.247 110.08 189.167 114.016 185.149 119.174C181.171 124.281 177.785 129.755 174.857 135.856C174.934 133.555 180.855 123.57 184.631 118.811C188.746 113.626 193.912 109.754 199.585 106.443Z" fill="white"/>
<path d="M205.717 81.0228C202.357 81.1382 199.319 82.5203 196.141 83.3688C199.116 81.8512 202.152 80.5093 205.554 80.3241C206.169 80.2906 206.8 80.5437 207.692 80.7163C209.448 80.5133 211.505 80.2763 213.562 80.0379C213.564 80.085 213.565 80.1316 213.568 80.1787C210.042 81.0298 206.45 81.6721 203.011 82.7892C199.574 83.9067 196.291 85.4994 192.908 86.8113C196.985 84.4638 201.293 82.6331 205.717 81.0228Z" fill="white"/>
<path d="M232.643 152.333C234.989 141.074 237.524 129.85 236.746 118.2C236.842 118.197 236.939 118.194 237.035 118.192C237.094 118.519 237.182 118.845 237.208 119.175C237.791 126.471 236.997 133.655 235.412 140.77C234.61 144.369 233.755 147.956 232.917 151.548C232.853 151.817 232.735 152.072 232.643 152.333Z" fill="white"/>
<path d="M197.654 158.452C198.812 147.087 200.446 135.815 206.033 125.538C201.107 135.969 199.393 147.201 197.654 158.452Z" fill="white"/>
<path d="M247.162 178.353C250.122 170.793 252.619 163.092 254.456 155.16C254.366 155.938 254.298 156.719 254.181 157.494C254.062 158.277 253.908 159.054 253.749 159.83C252.843 164.223 251.603 168.522 250.078 172.738C249.523 174.275 248.971 175.815 248.365 177.333C248.181 177.795 247.817 178.186 247.537 178.608C247.411 178.523 247.287 178.437 247.162 178.353Z" fill="white"/>
<path d="M224.982 146.014C223.753 153.629 222.576 161.242 222.066 168.941C222.063 168.981 221.911 169.01 221.828 169.044C220.82 166.786 222.857 151.655 224.982 146.014Z" fill="white"/>
<path d="M175.039 155.002C174.804 153.198 179.035 142.218 181.476 138.739C180.405 141.437 179.292 144.12 178.271 146.838C177.245 149.567 176.309 152.331 175.334 155.08C175.237 155.054 175.138 155.029 175.039 155.002Z" fill="white"/>
<path d="M225.422 125.226C225.956 122.972 226.375 120.682 227.052 118.471C227.912 115.663 228.936 112.902 229.986 110.158C230.302 109.331 230.939 108.625 231.606 107.978C230.525 110.815 229.38 113.629 228.383 116.495C227.375 119.391 226.514 122.34 225.59 125.265C225.533 125.252 225.478 125.239 225.422 125.226Z" fill="white"/>
<path d="M202.071 177.769C201.406 175.714 204.239 164.899 206.118 161.106C204.775 166.629 203.424 172.199 202.071 177.769Z" fill="white"/>
<path d="M286.71 146.284C286.212 145.829 285.887 145.605 285.656 145.308C282.597 141.362 279.551 137.405 276.504 133.45C276.456 133.387 276.44 133.301 276.406 133.219C279.094 135.351 286.131 144.124 286.71 146.284Z" fill="white"/>
<path d="M267.94 129.121C264.344 124.808 260.749 120.495 257.154 116.181C261.465 119.897 264.769 124.453 267.94 129.121Z" fill="white"/>
<path d="M218.263 87.0833C224.044 89.5179 229.781 93.5103 230.933 95.9448C228.991 94.287 227.107 92.5647 224.894 91.2518C222.65 89.9198 220.471 88.4775 218.263 87.0833Z" fill="white"/>
<path d="M241.575 102.566C246.587 104.183 250.733 107.259 254.854 110.377C250.439 107.754 246.3 104.661 241.575 102.566Z" fill="white"/>
<path d="M211.35 129.219C214.51 120.624 216.879 115.925 218.303 114.792C216.046 119.476 213.698 124.347 211.35 129.219Z" fill="white"/>
<path d="M237.263 139.54C237.618 134.856 237.989 129.987 238.33 125.488C238.986 127.356 238.335 136.763 237.263 139.54Z" fill="white"/>
<path d="M245.167 179.15C245.607 177.144 246.564 175.543 247.126 173.811C247.699 172.047 248.418 170.33 249.074 168.592C248.919 171.412 246.509 178.232 245.167 179.15Z" fill="white"/>
<path d="M253.67 102.971C257.623 104.383 262.602 107.511 263.469 109.025C260.191 107 256.93 104.985 253.67 102.971Z" fill="white"/>
<path d="M178.396 125.625C180.449 121.308 183.394 118.072 186.413 114.889C183.803 118.387 181.19 121.883 178.396 125.625Z" fill="white"/>
<path d="M176.227 145.845C175.198 149.08 174.264 152.02 173.328 154.961C173.191 154.914 173.055 154.867 172.918 154.821C173.512 151.752 174.568 148.84 176.227 145.845Z" fill="white"/>
<path d="M212.376 172.507C212.224 175.202 211.852 177.845 210.548 180.265C210.259 178.876 211.034 177.675 211.284 176.388C211.541 175.074 212.003 173.8 212.376 172.507Z" fill="white"/>
<path d="M228.938 178.83C229.052 176.315 229.742 173.944 230.641 171.488C230.814 172.804 229.696 177.99 228.938 178.83Z" fill="white"/>
<path d="M183.078 126.388C184.616 123.638 186.454 121.102 188.737 118.885C186.928 121.442 185.118 123.998 183.31 126.555C183.232 126.499 183.155 126.442 183.078 126.388Z" fill="white"/>
<path d="M279.972 140.023C281.688 141.76 283.215 143.643 284.362 145.812C282.459 144.219 281.336 142.029 279.972 140.023Z" fill="white"/>
<path d="M234.736 98.2035C233.341 96.1806 231.947 94.1583 230.552 92.1365C232.428 93.8248 233.956 95.7675 235.112 97.9828C234.987 98.0569 234.862 98.1309 234.736 98.2035Z" fill="white"/>
<path d="M201.657 170.345C201.217 172.8 200.834 174.929 200.422 177.23C199.749 176.222 200.405 172.776 201.657 170.345Z" fill="white"/>
<path d="M275.527 29.1169C274.765 30.9278 274.062 32.7659 273.228 34.5432C270.834 39.6455 268.018 44.5202 265.167 49.3769C262.031 54.7211 259.045 60.1489 256.817 65.9533C255.625 69.0603 254.502 72.1958 253.224 75.2669C251.758 78.7931 249.54 81.9024 247.429 85.0563C245.21 88.3743 243.074 91.7346 241.409 95.3695C241.208 95.8112 241.112 96.3552 241.146 96.8382C241.201 97.6267 241.405 98.4056 241.571 99.3319C242.071 99.287 242.569 99.2668 243.06 99.1935C247.917 98.4691 252.697 98.836 257.389 100.261C261.948 101.646 265.932 104.064 269.563 107.111C275.093 111.75 279.876 117.042 283.975 122.998C286.739 127.014 289.815 130.811 292.715 134.733C293.689 136.048 294.681 137.378 295.444 138.818C296.574 140.955 296.767 143.182 295.494 145.406C294.46 147.212 293.298 147.938 291.231 147.651C290.083 147.492 288.978 147.042 287.844 146.763C285.71 146.239 283.561 145.766 281.429 145.232C277.146 144.16 273.477 141.997 270.282 138.969C266.228 135.129 262.825 130.806 260.273 125.826C259.909 125.118 259.465 124.45 259.046 123.771C258.901 123.534 258.72 123.319 258.339 123.175C258.52 123.605 258.697 124.036 258.882 124.466C262.812 133.574 264.226 143.093 263.476 152.95C263.15 157.237 261.926 161.322 260.486 165.348C259.966 166.805 259.436 168.258 258.884 169.702C257.784 172.579 256.237 175.176 254.113 177.429C252.733 178.892 251.141 179.548 249.176 178.898C247.993 178.507 247.008 178.846 245.966 179.398C243.897 180.493 241.842 181.671 239.657 182.48C236.279 183.732 233.107 182.986 230.259 180.824C230.037 180.656 229.843 180.444 229.664 180.23C227.629 177.784 225.6 175.333 223.567 172.887C223.51 172.819 223.414 172.783 223.259 172.681C222.796 173.311 222.395 174.009 221.85 174.565C220.738 175.701 219.634 176.874 218.375 177.833C214.324 180.917 209.894 181.267 205.21 179.44C203.289 178.691 201.38 177.886 199.407 177.304C197.684 176.795 196.416 175.794 195.375 174.418C193.769 172.296 192.622 169.952 191.989 167.358C190.883 162.826 190.816 158.256 191.478 153.66C191.671 152.316 191.923 150.98 192.134 149.637C192.181 149.329 192.168 149.012 192.188 148.559C190.927 149.628 189.824 150.643 188.636 151.548C187.52 152.399 186.351 153.193 185.143 153.907C182.373 155.544 179.412 156.146 176.21 155.467C175.401 155.295 174.525 155.346 173.69 155.413C170.861 155.637 168.807 154.347 167.25 152.141C165.782 150.06 165.219 147.681 165.524 145.186C165.779 143.102 166.162 141.01 166.739 138.994C167.694 135.653 168.971 132.415 170.696 129.384C174.571 122.572 179.368 116.471 185.141 111.173C193.468 103.531 203.184 98.4311 214.127 95.65C214.577 95.5357 215.027 95.4228 215.771 95.235C215.262 95.0478 215.01 94.908 214.742 94.8648C208.801 93.9104 202.845 93.2677 196.824 94.0847C194.435 94.4082 192.197 95.0063 190.08 96.3058C186.719 98.3676 183.005 99.5463 179.017 99.6703C176.87 99.7371 174.808 99.409 172.961 98.2111C170.751 96.7778 169.973 93.9482 171.016 91.5259C171.773 89.7708 173.047 88.4895 174.527 87.3979C179.59 83.6621 185.119 80.9365 191.441 80.2169C194.462 79.8732 197.523 79.7229 200.563 79.753C206.377 79.8096 212.184 80.0147 218.005 79.8646C225.301 79.677 231.422 82.4888 236.307 87.9413C237.943 89.768 239.479 91.6509 240.227 94.0467C240.318 94.3382 240.504 94.6008 240.781 95.1399C241.083 94.5127 241.287 94.1156 241.468 93.7077C242.868 90.5661 244.745 87.703 246.647 84.856C249.097 81.1902 251.565 77.5291 253.247 73.4246C254.154 71.214 254.908 68.9403 255.779 66.7136C257.246 62.9547 258.717 59.1993 260.745 55.6881C262.668 52.3569 264.453 48.9454 266.423 45.6431C269.265 40.8779 271.765 35.944 274.069 30.9048C274.38 30.2232 274.7 29.5471 275.015 28.8675C275.189 28.9538 275.357 29.0351 275.527 29.1169ZM236.823 100.582C236.523 101.018 236.333 101.274 236.165 101.546C234.927 103.535 233.717 105.54 232.453 107.513C231.243 109.405 229.927 111.233 228.75 113.145C227.277 115.539 225.908 117.997 224.476 120.417C222.046 124.524 220.36 128.936 219.089 133.515C217.033 140.921 217.032 148.425 218.097 155.972C218.855 161.346 220.912 166.258 223.364 171.046C225.173 174.58 228.352 176.989 230.626 180.134C230.68 180.206 230.771 180.253 230.846 180.309C233.47 182.283 236.394 182.895 239.461 181.742C241.642 180.921 243.699 179.753 245.766 178.656C246.9 178.053 248.002 177.733 249.259 178.162C250.975 178.748 252.455 178.273 253.553 176.911C254.753 175.425 256.02 173.927 256.87 172.238C258.066 169.862 258.966 167.329 259.88 164.821C261.229 161.119 262.336 157.339 262.67 153.39C263.972 137.987 259.879 124.142 250.584 111.814C247.378 107.564 243.447 104.142 238.825 101.513C238.196 101.156 237.51 100.898 236.823 100.582ZM235.777 100.69C234.812 100.158 233.972 100.385 233.158 100.502C229.713 100.995 226.577 102.343 223.557 104.007C214.437 109.034 207.657 116.416 202.294 125.203C200.165 128.693 198.393 132.36 196.916 136.182C195.036 141.05 193.567 146.025 192.65 151.157C191.76 156.13 191.471 161.113 192.518 166.114C193.135 169.063 194.299 171.743 196.136 174.124C197.041 175.297 198.158 176.128 199.634 176.578C201.602 177.177 203.531 177.928 205.43 178.726C207.752 179.699 210.135 179.96 212.591 179.572C216.397 178.972 219.102 176.627 221.464 173.802C221.996 173.167 222.396 172.421 222.849 171.74C222.575 171.208 222.355 170.796 222.147 170.378C220.404 166.883 218.814 163.306 217.995 159.482C215.369 147.229 216.395 135.323 221.817 123.934C223.064 121.315 224.517 118.782 226.032 116.305C228.452 112.351 231.014 108.485 233.491 104.566C234.285 103.311 235.004 102.007 235.777 100.69ZM235.048 99.5525C235.105 99.4579 235.161 99.3643 235.217 99.2707C234.853 98.9359 234.51 98.5763 234.124 98.2705C232.437 96.9324 230.507 96.1229 228.408 95.7011C224.189 94.8526 219.985 95.1789 215.844 96.1015C203.793 98.7833 193.281 104.391 184.379 112.965C180.042 117.143 176.297 121.813 173.061 126.885C171.011 130.097 169.265 133.484 168.142 137.131C167.387 139.583 166.797 142.103 166.357 144.631C165.935 147.053 166.387 149.415 167.769 151.506C169.151 153.596 170.989 154.836 173.644 154.642C174.751 154.561 175.888 154.683 176.994 154.837C179.294 155.155 181.47 154.842 183.572 153.851C186.717 152.369 189.327 150.177 191.787 147.775C192.511 147.067 192.897 146.207 193.156 145.217C194.221 141.133 195.565 137.134 197.249 133.261C199.294 128.56 201.858 124.153 204.842 119.979C209.653 113.248 215.508 107.678 222.732 103.589C226.566 101.415 230.565 99.7579 235.048 99.5525ZM239.289 100.582C239.285 100.712 239.28 100.842 239.275 100.972C239.415 101.084 239.542 101.221 239.698 101.303C244.221 103.684 247.909 107.052 250.957 111.1C253.353 114.283 255.596 117.583 257.859 120.865C259.004 122.524 260.137 124.204 261.109 125.966C263.738 130.734 267.066 134.937 271.025 138.661C274.167 141.616 277.821 143.622 281.998 144.668C284.084 145.19 286.188 145.644 288.28 146.148C289.234 146.378 290.163 146.742 291.128 146.889C292.438 147.086 293.656 146.856 294.48 145.631C295.381 144.294 295.811 142.934 294.808 141.458C294.308 140.722 293.886 139.901 293.262 139.288C291.829 137.881 290.38 136.465 288.779 135.263C286.16 133.296 283.422 131.488 280.724 129.626C277.213 127.205 274.516 123.94 271.64 120.863C268.363 117.354 265.716 113.358 262.912 109.484C260.841 106.622 258.573 103.934 255.645 101.916C254.703 101.268 253.587 100.79 252.482 100.484C249.556 99.6745 246.539 99.7288 243.542 99.9177C242.115 100.008 240.705 100.352 239.289 100.582ZM233.794 86.6643C233.786 86.6519 233.742 86.5222 233.655 86.4342C233.426 86.2018 233.189 85.973 232.936 85.7666C228.544 82.1709 223.482 80.5514 217.835 80.6102C213.571 80.6546 209.305 80.6698 205.041 80.6534C202.651 80.645 200.261 80.5026 197.87 80.4967C190.156 80.4787 183.018 82.4554 176.641 86.8697C175.264 87.823 173.907 88.8838 172.791 90.1221C170.014 93.2014 171.19 97.2193 175.143 98.4227C176.029 98.6932 176.969 98.8786 177.893 98.9194C181.798 99.0924 185.423 98.0183 188.809 96.1663C190.78 95.0876 192.651 93.8233 194.559 92.6296C197.713 90.6571 200.954 88.8775 204.611 87.9925C208.577 87.0327 212.534 86.0285 216.511 85.1138C220.302 84.2423 224.136 84.0418 227.948 84.9308C229.939 85.3948 231.879 86.0883 233.794 86.6643ZM240.752 99.4215C240.624 97.5238 240.076 95.79 239.424 94.0754C237.817 89.8541 234.522 87.5529 230.414 86.256C225.542 84.718 220.618 84.8069 215.697 86.0684C213.06 86.744 210.447 87.5196 207.793 88.1183C205.184 88.7068 202.844 89.8495 200.582 91.2073C199.858 91.6425 199.142 92.0917 198.435 92.5523C198.192 92.7093 197.985 92.9204 197.611 93.2343C198.028 93.2437 198.214 93.2661 198.397 93.2484C204.386 92.656 210.273 93.3825 216.137 94.5376C217.217 94.7506 218.368 94.765 219.47 94.6778C222.614 94.4271 225.748 94.2808 228.847 95.0142C231.595 95.6639 234.104 96.8049 235.919 99.0524C236.525 99.8038 237.181 100.26 238.021 100.178C238.877 99.9392 239.732 99.7031 240.752 99.4215ZM295.037 140.181C294.605 138.429 293.588 137.03 292.499 135.685C288.748 131.051 285.281 126.21 281.819 121.358C276.852 114.394 270.904 108.373 263.606 103.805C261.654 102.583 259.535 101.671 257.004 101.058C257.741 101.567 258.25 101.896 258.733 102.257C261.672 104.454 263.861 107.32 265.863 110.34C267.446 112.726 268.973 115.148 270.515 117.56C274.377 123.596 279.553 128.292 285.519 132.153C289.032 134.426 292.499 136.728 295.037 140.181Z" fill="white"/>
</g>
<g opacity="0.4">
<path d="M130.85 286.503C133.708 285.799 136.553 285.029 139.429 284.405C144.695 283.263 149.966 282.135 155.38 281.906C161.184 281.661 166.868 282.295 172.382 284.177C174.107 284.765 175.816 285.401 177.501 286.091C178.084 286.329 178.57 286.798 179.01 287.391C178.817 287.37 178.599 287.402 178.435 287.322C168.089 282.233 157.234 281.627 146.094 283.695C141.028 284.635 135.983 285.694 130.929 286.698C130.903 286.633 130.876 286.568 130.85 286.503Z" fill="white"/>
<path d="M164.45 348.267C168.212 343.93 172.095 339.69 175.697 335.224C178.536 331.702 181.081 327.938 183.648 324.206C184.705 322.671 185.536 320.969 186.366 319.291C188.268 315.445 189.483 311.385 189.923 307.105C189.966 306.688 190.03 306.272 190.1 305.859C190.114 305.778 190.198 305.708 190.374 305.458C190.395 306.001 190.438 306.38 190.42 306.757C190.195 311.213 189.039 315.448 187.081 319.426C184.866 323.924 182.14 328.123 179.101 332.119C174.791 337.787 169.852 342.891 164.948 348.029C164.825 348.158 164.684 348.27 164.552 348.389C164.516 348.349 164.483 348.308 164.45 348.267Z" fill="white"/>
<path d="M175.857 306.477C164.746 318.423 152.958 329.548 137.601 336.073C152.318 328.75 164.258 317.858 175.857 306.477Z" fill="white"/>
<path d="M184.071 292C182.501 291.802 181.172 291.535 179.835 291.485C176.703 291.369 173.633 291.912 170.736 293.049C166.635 294.659 162.605 296.456 158.564 298.219C157.065 298.872 155.624 299.654 154.042 300.185C155.512 299.353 156.953 298.466 158.457 297.699C163.184 295.289 167.974 293.011 173.109 291.582C175.563 290.899 178.075 290.598 180.628 290.79C182.11 290.901 183.053 291.223 184.071 292Z" fill="white"/>
<path d="M151.548 285.088C140.295 287.187 129.498 291.081 118.182 293.547C121.454 291.698 147.755 285.008 151.548 285.088Z" fill="white"/>
<path d="M178.66 347.19C178.054 352.921 176.802 358.499 174.235 363.674C171.524 369.139 168.01 374.074 163.73 378.445C167.371 373.851 170.823 369.148 173.457 363.864C176.094 358.571 177.479 352.922 178.66 347.19Z" fill="white"/>
<path d="M123.995 309.549C123.945 309.673 123.929 309.873 123.842 309.911C116.024 313.301 108.2 316.679 100.378 320.057C100.325 319.951 100.272 319.844 100.218 319.738C101.155 319.279 102.082 318.801 103.03 318.367C108.83 315.703 114.626 313.031 120.442 310.404C121.532 309.913 122.706 309.607 123.841 309.217C123.893 309.327 123.944 309.437 123.995 309.549Z" fill="white"/>
<path d="M138.908 344.24C137.423 345.815 135.55 346.934 133.849 348.265C132.154 349.591 130.426 350.874 128.734 352.204C127.006 353.563 125.298 354.95 123.594 356.338C121.93 357.693 120.282 359.067 118.542 360.503C120.659 357.463 135.869 345.173 138.908 344.24Z" fill="white"/>
<path d="M162.223 354.905C155.555 364.785 149.144 374.82 144.256 385.745C146.581 377.843 156.527 362.035 162.223 354.905Z" fill="white"/>
<path d="M104.982 345.138C105.377 344.736 105.717 344.251 106.176 343.943C109.284 341.863 112.388 339.776 115.551 337.781C117.407 336.61 119.368 335.602 121.285 334.528C121.505 334.405 121.754 334.336 122.057 334.392C116.453 338.05 110.848 341.708 105.244 345.366C105.156 345.29 105.068 345.214 104.982 345.138Z" fill="white"/>
<path d="M135.988 310.724C141.952 304.626 149.195 300.389 156.542 296.3C149.618 301.013 142.318 305.19 135.988 310.724Z" fill="white"/>
<path d="M138.291 375.72C138.369 375.386 138.36 374.993 138.537 374.724C141.853 369.681 145.402 364.814 149.384 360.272C149.472 360.173 149.585 360.095 149.784 360.083C146.073 365.335 142.362 370.588 138.65 375.84C138.531 375.8 138.411 375.761 138.291 375.72Z" fill="white"/>
<path d="M188.673 302.171C188.716 302.749 188.882 303.352 188.777 303.903C188.413 305.826 188.158 307.806 187.487 309.627C186.469 312.389 185.232 315.08 183.91 317.713C182.97 319.587 181.745 321.318 180.632 323.103C180.496 323.32 180.264 323.478 180.006 323.613C182.242 320.398 183.918 316.891 185.489 313.34C187.059 309.789 187.906 306.021 188.265 302.133C188.401 302.145 188.538 302.157 188.673 302.171Z" fill="white"/>
<path d="M102.047 302.883C98.9239 303.666 95.8005 304.449 92.677 305.23C91.8605 305.434 91.0451 305.643 90.2249 305.832C89.8471 305.919 89.4438 305.983 89.4795 305.266C93.5689 304.069 97.7705 303.288 102.047 302.883Z" fill="white"/>
<path d="M128.254 359.643C129.689 357.514 137.589 348.764 138.461 348.336C138.199 349.431 130.782 357.648 128.254 359.643Z" fill="white"/>
<path d="M119.044 356.08C116.372 359.211 113.475 362.142 110.489 364.986C110.396 364.924 110.302 364.861 110.209 364.799C110.281 364.575 110.289 364.29 110.435 364.136C113.147 361.296 115.886 358.484 119.044 356.08Z" fill="white"/>
<path d="M148.508 372.655C150.837 368.204 153.45 363.93 156.694 360.049C154.062 364.297 151.429 368.543 148.796 372.79C148.699 372.745 148.603 372.7 148.508 372.655Z" fill="white"/>
<path d="M87.5488 321.057C88.0438 319.777 94.2413 316.122 97.2906 315.312C95.2183 316.892 88.3933 320.916 87.5488 321.057Z" fill="white"/>
<path d="M172.535 361.846C173.517 359.328 174.562 356.832 175.464 354.284C176.364 351.742 177.12 349.149 178.009 346.602C176.91 351.942 175.202 357.066 172.535 361.846Z" fill="white"/>
<path d="M115.512 311.883C112.115 313.311 108.718 314.739 105.322 316.168C107.515 314.313 114.175 311.461 115.512 311.883Z" fill="white"/>
<path d="M100.882 346.068C101.148 345.712 101.348 345.263 101.692 345.015C104.146 343.25 106.629 341.523 109.108 339.791C109.155 339.758 109.262 339.812 109.457 339.845C106.643 342.004 103.896 344.111 101.149 346.219C101.06 346.168 100.971 346.118 100.882 346.068Z" fill="white"/>
<path d="M85.7007 304.307C87.9561 303.458 90.3058 302.95 92.7023 302.6C90.4838 303.541 88.1632 304.144 85.8725 304.842C85.8153 304.664 85.758 304.486 85.7007 304.307Z" fill="white"/>
<path d="M276.862 158.133C275.533 160.928 274.158 163.701 272.889 166.524C271.465 169.691 270.123 172.895 268.772 176.095C266.857 180.634 264.97 185.184 263.066 189.728C261.525 193.408 260.009 197.098 258.425 200.758C256.803 204.505 255.214 208.273 253.427 211.942C250.983 216.96 248.56 222.007 245.777 226.838C241.663 233.981 236.356 240.245 230.51 246.042C226.581 249.937 222.538 253.718 218.656 257.657C214.272 262.105 210.498 267.068 206.855 272.133C204.694 275.137 202.361 278.019 200.26 281.063C197.682 284.793 194.706 288.292 192.96 292.538C191.53 296.016 191.115 299.642 192.495 303.23C194.201 307.66 193.86 312.074 192.649 316.49C191.568 320.433 189.576 323.972 187.076 327.153C183.924 331.164 182.018 335.705 180.943 340.591C179.697 346.26 178.699 351.984 177.623 357.69C176.875 361.661 175.973 365.59 174.271 369.273C171.268 375.773 167.139 381.277 160.468 384.457C158.144 385.564 155.654 386.009 153.125 386.286C152.906 386.309 152.674 386.222 152.117 386.132C152.052 385.75 151.967 385.251 151.826 384.422C151.479 385.511 151.239 386.323 150.964 387.121C150.278 389.112 149.674 391.138 148.853 393.074C148.062 394.938 146.412 395.791 144.387 395.502C141.825 395.136 139.536 394.063 137.582 392.371C135.701 390.741 135.066 388.58 135.233 386.155C135.406 383.651 136.149 381.283 137.006 378.946C137.258 378.261 137.496 377.571 137.78 376.771C137.476 376.854 137.368 376.851 137.305 376.904C135.418 378.472 133.762 377.97 132.676 375.75C132.124 374.621 131.732 373.416 131.226 372.145C130.49 372.314 129.723 372.504 128.949 372.666C125.536 373.381 122.109 373.977 118.637 373.107C116.107 372.472 113.947 371.256 112.496 368.972C111.342 367.155 110.075 365.407 108.968 363.562C108.577 362.911 108.341 362.071 108.322 361.31C108.257 358.609 108.738 355.979 109.87 353.514C110.63 351.859 111.517 350.263 112.401 348.534C112.16 348.392 111.87 348.16 111.54 348.037C109.958 347.448 108.39 346.799 106.769 346.35C105.798 346.081 104.737 346.08 103.714 346.073C102.828 346.066 101.938 346.295 101.052 346.283C99.9351 346.267 98.768 346.292 97.7134 345.986C94.0718 344.926 92.6544 341.662 94.0014 337.754C95.0158 334.813 96.8097 332.369 98.8365 330.067C99.1941 329.661 99.5392 329.245 99.8908 328.833C99.8369 328.753 99.7827 328.675 99.7288 328.595C99.1926 328.724 98.6553 328.845 98.1217 328.983C95.6377 329.628 93.1391 329.893 90.6062 329.283C90.3788 329.228 90.1456 329.193 89.9238 329.118C86.9556 328.123 85.7743 325.613 86.6985 322.363C88.2326 316.973 91.6071 313.065 96.3706 310.261C96.7271 310.05 97.0832 309.841 97.5958 309.539C97.2433 309.295 97.0162 309.097 96.757 308.963C93.7443 307.423 90.6863 306.046 87.3117 305.416C85.86 305.146 84.4283 304.565 83.0939 303.91C80.3204 302.547 79.8186 299.273 82.0264 297.112C82.7503 296.403 83.6178 295.739 84.5445 295.356C86.6197 294.498 88.7258 293.627 90.9029 293.116C101.001 290.739 111.139 288.525 121.241 286.167C125.627 285.143 129.977 283.957 134.32 282.763C142.535 280.501 150.882 279.46 159.394 279.985C164.491 280.3 169.409 281.409 174.001 283.741C176.659 285.09 179.028 286.826 181.094 288.973C182.331 290.258 183.707 291.259 185.606 291.194C187.66 291.123 189.598 290.668 191.334 289.5C193.771 287.859 195.823 285.838 197.551 283.46C200.744 279.064 204.017 274.726 207.196 270.32C211.014 265.027 215.123 259.98 219.752 255.376C223.508 251.64 227.374 248.015 231.117 244.265C235.396 239.978 239.268 235.336 242.666 230.317C245.962 225.448 248.704 220.261 251.185 214.943C253.368 210.264 255.505 205.561 257.543 200.817C259.968 195.169 262.244 189.458 264.624 183.791C266.46 179.42 268.321 175.061 270.234 170.724C272.148 166.387 274.141 162.085 276.1 157.767C276.354 157.888 276.608 158.01 276.862 158.133ZM179.492 290.013C177.561 289.002 174.797 288.468 172.033 288C167.178 287.178 162.416 287.769 157.702 289.086C149.743 291.309 142.812 295.4 136.394 300.509C126.819 308.132 117.178 315.671 107.576 323.261C103.636 326.375 99.7662 329.577 96.9176 333.79C95.6255 335.701 94.5063 337.716 94.3684 340.104C94.2004 343.009 95.7792 345.015 98.6689 345.375C99.9089 345.529 101.204 345.489 102.446 345.327C104.901 345.005 107.185 345.426 109.429 346.424C112.814 347.93 116.355 348.755 120.087 348.486C123.557 348.237 127 347.779 130.346 346.793C141.013 343.651 150.97 339.033 159.963 332.436C166.623 327.55 173.124 322.482 178.649 316.277C181.394 313.194 184.074 310.072 186.174 306.495C187.371 304.456 188.354 302.365 188.592 299.962C188.739 298.472 188.405 297.21 187.467 296.038C185.462 293.534 182.943 291.718 179.492 290.013ZM139.298 373.913C139.398 374.001 139.5 374.09 139.601 374.177C139.555 374.436 139.551 374.712 139.455 374.951C138.843 376.473 138.168 377.971 137.597 379.508C136.796 381.664 136.14 383.866 135.992 386.179C135.861 388.231 136.309 390.115 137.854 391.585C139.709 393.352 141.961 394.372 144.465 394.759C146.169 395.023 147.469 394.244 148.23 392.665C148.615 391.867 148.925 391.026 149.204 390.183C150.407 386.538 151.558 382.874 152.779 379.235C154.189 375.034 156.245 371.118 158.395 367.273C160.497 363.514 162.781 359.848 165.159 356.255C167.948 352.041 170.821 347.872 173.844 343.822C178.774 337.219 183.857 330.73 188.376 323.83C190.452 320.659 191.976 317.242 192.552 313.476C193.001 310.54 193.155 307.581 192.164 304.705C191.835 303.754 191.537 302.611 190.232 302.571C189.042 302.534 188.585 303.482 188.163 304.399C186.939 307.054 185.331 309.473 183.53 311.761C178.987 317.53 173.841 322.701 168.08 327.259C167.684 327.572 167.262 327.925 167.029 328.354C166.249 329.788 165.639 331.318 164.802 332.714C163.456 334.959 162.047 337.173 160.544 339.315C157.986 342.963 154.55 345.734 151.097 348.478C146.326 352.27 141.603 356.135 137.691 360.841C134.792 364.327 132.708 368.192 132.799 372.951C132.831 374.642 133.423 375.923 134.58 376.944C135.554 377.161 136.249 376.817 136.84 376.221C137.4 375.656 137.92 375.051 138.486 374.491C138.719 374.261 139.024 374.104 139.298 373.913ZM179.813 289.015C179.723 288.851 179.666 288.676 179.551 288.554C178.158 287.074 176.513 285.925 174.743 284.945C169.888 282.255 164.626 281.022 159.137 280.72C150.723 280.257 142.476 281.318 134.363 283.57C130.116 284.749 125.856 285.906 121.564 286.904C111.282 289.294 100.975 291.578 90.6819 293.925C89.5868 294.175 88.5212 294.558 87.4515 294.905C87.1361 295.007 86.8505 295.199 86.5508 295.351C88.7354 295.152 90.8574 295.232 92.9073 295.739C95.767 296.445 98.5841 297.325 101.408 298.173C103.649 298.846 105.842 299.689 108.103 300.274C114.396 301.9 120.739 301.546 127.093 300.626C133.301 299.727 138.843 297.117 144.176 294.006C147.846 291.866 151.703 290.189 155.721 288.853C161.236 287.019 166.865 286.231 172.634 287.285C175.017 287.721 177.351 288.414 179.813 289.015ZM142.86 343.509C142.78 343.439 142.7 343.368 142.621 343.297C142.187 343.461 141.756 343.636 141.318 343.789C137.69 345.067 134.1 346.474 130.421 347.58C126.319 348.814 122.082 349.42 117.779 349.274C116.336 349.225 114.901 348.976 113.241 348.793C112.676 349.756 112.036 350.779 111.462 351.838C109.938 354.646 109.114 357.648 109.049 360.852C109.03 361.816 109.233 362.684 109.814 363.496C110.739 364.788 111.676 366.086 112.438 367.475C113.806 369.967 115.814 371.65 118.53 372.326C122.871 373.405 127.069 372.386 131.21 371.3C131.426 360.409 134.573 350.893 142.86 343.509ZM134.53 300.898C134.489 300.828 134.447 300.76 134.406 300.69C134.182 300.745 133.952 300.783 133.735 300.858C127.795 302.899 121.699 303.075 115.533 302.379C109.82 301.732 104.368 300.074 98.9724 298.164C96.1485 297.164 93.2611 296.347 90.2481 296.101C87.5951 295.883 85.112 296.384 82.8429 297.809C81.5269 298.636 81.1853 299.526 81.5642 301.033C81.8223 302.06 82.447 302.845 83.3992 303.212C85.0967 303.866 86.8198 304.487 88.5801 304.939C90.4012 305.406 92.2004 305.877 93.8902 306.728C95.5659 307.571 97.2937 308.314 98.9577 309.18C103.528 311.558 108.367 312.182 113.425 311.527C117.124 311.048 120.682 310.036 124.159 308.723C124.81 308.477 125.469 308.164 126.014 307.74C128.718 305.644 131.388 303.502 134.066 301.371C134.237 301.236 134.376 301.058 134.53 300.898ZM122.791 310.316C122.76 310.225 122.73 310.134 122.699 310.042C122.213 310.196 121.726 310.347 121.239 310.505C118.194 311.487 115.092 312.206 111.895 312.456C107.712 312.783 103.669 312.194 99.8366 310.445C99.0142 310.07 98.3261 310.134 97.5742 310.534C92.7878 313.084 89.2806 316.725 87.617 322C87.2372 323.203 87.1716 324.383 87.3673 325.601C87.5432 326.693 88.0673 327.565 89.1386 327.951C90.0561 328.281 91.0007 328.583 91.9594 328.74C94.7739 329.202 97.4435 328.42 100.116 327.679C101.133 327.397 101.984 326.919 102.783 326.215C104.399 324.791 106.078 323.436 107.773 322.106C112.418 318.461 117.085 314.844 121.741 311.212C122.104 310.929 122.442 310.615 122.791 310.316ZM180.656 338.395C179.98 339.514 179.293 340.626 178.63 341.753C177.511 343.649 176.398 345.549 175.3 347.458C173.802 350.063 172.322 352.684 171.594 355.633C171.157 357.405 170.796 359.196 170.438 360.985C169.992 363.21 169.314 365.308 167.977 367.206C166.532 369.258 164.836 371.056 162.964 372.689C160.273 375.039 157.773 377.568 155.539 380.352C154.634 381.482 153.796 382.67 152.987 383.872C152.659 384.357 152.375 384.949 152.897 385.56C153.096 385.57 153.282 385.607 153.462 385.584C156.519 385.199 159.431 384.399 162.093 382.764C168.759 378.667 172.632 372.478 175.01 365.268C176.002 362.257 176.599 359.103 177.199 355.979C178.322 350.144 179.094 344.238 180.656 338.395ZM163.021 331.276C162.644 331.529 162.255 331.766 161.892 332.039C157.305 335.484 152.476 338.535 147.312 341.048C147.06 341.17 146.805 341.297 146.578 341.46C142.264 344.561 138.566 348.222 136.24 353.08C135.473 354.682 134.817 356.343 134.179 358.002C132.907 361.307 132.311 364.76 132.076 368.281C132.061 368.514 132.046 368.751 132.068 368.983C132.089 369.209 132.16 369.429 132.209 369.652C132.964 366.623 134.427 364.039 136.212 361.601C138.86 357.987 142.079 354.921 145.429 351.987C149.201 348.683 152.938 345.347 156.156 341.479C158.78 338.324 161.147 334.992 163.021 331.276ZM152.423 383.23C152.616 383.043 152.833 382.874 153.002 382.667C154.743 380.531 156.374 378.294 158.243 376.277C160.147 374.221 162.284 372.381 164.32 370.446C167.328 367.588 169.362 364.229 169.924 360.031C170.387 356.577 171.462 353.303 172.995 350.151C173.894 348.3 174.428 346.281 174.888 343.943C174.469 344.341 174.24 344.498 174.091 344.712C171.281 348.741 168.439 352.747 165.691 356.816C162.306 361.828 159.227 367.023 156.555 372.455C154.857 375.905 153.307 379.408 152.423 383.23ZM175.193 346.338C177.183 342.916 179.172 339.495 181.161 336.072C181.076 336.015 180.991 335.959 180.905 335.901C179.9 337.177 178.973 338.523 177.876 339.712C176.142 341.589 175.44 343.848 175.193 346.338Z" fill="white"/>
<path d="M110.015 265.836C110.251 265.561 110.46 265.257 110.725 265.016C111.839 264.009 112.926 262.965 114.102 262.034C125.508 253.005 138.522 247.678 152.816 245.379C159.497 244.303 166.255 243.959 172.999 243.504C178.24 243.15 183.489 242.871 188.723 242.434C194.063 241.99 199.342 241.074 204.476 239.533C213.17 236.926 221.242 233.023 228.535 227.577C237.841 220.63 246.406 212.821 254.912 204.942C255.474 204.42 256.056 203.92 256.63 203.41C256.715 203.491 256.802 203.572 256.886 203.654C256.384 204.294 255.952 205.006 255.37 205.559C251.963 208.798 248.761 212.206 245.837 215.903C241.092 221.903 236.205 227.794 231.36 233.717C223.911 242.823 214.731 249.502 203.6 253.424C198.873 255.09 194.106 256.647 189.63 258.957C182.271 262.757 174.419 265.023 166.274 266.357C158.108 267.695 149.944 267.845 141.794 266.254C134.463 264.823 127.106 263.753 119.598 264.233C116.629 264.422 113.722 264.81 110.991 266.077C110.747 266.191 110.434 266.156 110.153 266.19C110.109 266.073 110.062 265.954 110.015 265.836ZM119.762 261.801C123.495 260.735 127.228 259.621 131.022 258.818C136.021 257.761 141.073 256.96 146.111 256.096C150.735 255.304 155.356 254.467 160.005 253.846C166.378 252.995 172.77 252.274 179.165 251.6C183.746 251.117 188.266 250.355 192.757 249.335C197.104 248.348 201.39 247.179 205.552 245.586C214.568 242.136 222.444 236.827 229.553 230.402C233.551 226.789 237.226 222.816 241.043 219.003C241.168 218.878 241.257 218.72 241.212 218.399C240.767 218.768 240.317 219.133 239.875 219.507C235.364 223.333 230.825 227.128 225.894 230.408C219.09 234.933 211.744 238.292 203.866 240.487C196.593 242.512 189.155 243.392 181.641 243.798C177.753 244.008 173.866 244.236 169.985 244.55C164.608 244.985 159.203 245.273 153.869 246.042C139.339 248.137 126.143 253.523 114.57 262.673C114.239 262.934 113.92 263.211 113.605 263.494C113.504 263.583 113.439 263.712 113.248 263.97C115.526 263.207 117.618 262.413 119.762 261.801ZM240.106 220.837C236.79 224.157 233.599 227.612 230.131 230.765C223.395 236.893 215.956 242.012 207.498 245.528C203.382 247.238 199.11 248.448 194.792 249.545C187.164 251.486 179.386 252.298 171.577 253.017C166.908 253.448 162.264 254.172 157.619 254.828C154.042 255.333 150.474 255.902 146.912 256.51C141.735 257.392 136.529 258.167 131.406 259.302C126.437 260.403 121.56 261.903 116.642 263.228C116.651 263.336 116.661 263.444 116.669 263.553C116.85 263.58 117.036 263.645 117.213 263.629C124.646 262.968 131.991 263.604 139.308 264.986C142.709 265.628 146.153 266.071 149.595 266.451C154.679 267.009 159.457 265.754 164.059 263.692C170.429 260.839 176.781 257.953 182.946 254.663C186.691 252.665 190.724 251.425 194.904 250.707C197.815 250.207 200.742 249.81 203.662 249.358C206.49 248.922 209.344 248.606 212.13 247.982C213.65 247.643 215.14 246.926 216.488 246.12C220.544 243.692 224.101 240.609 227.21 237.073C231.083 232.669 234.787 228.118 238.55 223.617C239.541 222.433 240.48 221.207 241.443 220C241.35 219.922 241.255 219.844 241.162 219.767C240.808 220.123 240.46 220.482 240.106 220.837ZM205.942 250.729C202.683 251.406 199.427 252.093 196.166 252.754C188.977 254.21 181.993 256.286 175.316 259.368C170.978 261.369 166.594 263.271 162.221 265.196C161.374 265.569 160.482 265.837 159.637 266.351C161.059 266.216 162.488 266.133 163.901 265.936C173.07 264.654 181.865 262.152 190.106 257.853C194.154 255.743 198.514 254.416 202.784 252.864C204.5 252.239 206.18 251.518 207.871 250.826C208.206 250.688 208.515 250.483 208.836 250.309C208.813 250.25 208.791 250.19 208.768 250.132C207.826 250.33 206.886 250.533 205.942 250.729Z" fill="white"/>
<path d="M221.197 254.578C221.069 254.873 220.984 255.2 220.805 255.46C219.775 256.968 218.717 258.457 217.684 259.963C217.369 260.425 217.023 260.891 216.827 261.406C214.852 266.591 213.516 271.814 214.632 277.483C215.843 283.626 218.021 289.361 220.951 294.857C224.753 301.986 227.593 309.443 228.585 317.526C229.812 327.515 228.745 337.205 224.758 346.492C222.982 350.628 221.1 354.723 219.187 358.798C217.17 363.093 215.359 367.463 213.841 371.96C213.332 373.469 212.699 374.937 212.069 376.401C211.883 376.833 211.515 377.186 211.035 377.842C210.816 377.193 210.631 376.873 210.611 376.545C210.542 375.374 210.481 374.199 210.504 373.028C210.632 366.311 211.081 359.616 211.83 352.938C212.764 344.606 213.074 336.262 211.75 327.944C211.16 324.24 210.347 320.568 209.564 316.899C207.904 309.113 206.949 301.242 206.935 293.288C206.912 281.1 210.246 269.858 216.905 259.635C218.026 257.914 219.312 256.3 220.531 254.641C220.606 254.541 220.755 254.496 220.871 254.424C220.978 254.475 221.088 254.527 221.197 254.578ZM213.142 271.766C213.002 272.439 212.866 272.933 212.799 273.438C211.919 280.087 211.714 286.724 213.198 293.327C214.556 299.37 215.949 305.406 217.252 311.461C218.684 318.126 219.703 324.855 219.797 331.688C219.88 337.636 218.996 343.496 217.76 349.285C216.222 356.492 214.483 363.654 212.832 370.836C212.71 371.368 212.61 371.905 212.5 372.44C212.601 372.46 212.703 372.48 212.804 372.5C213.04 371.848 213.258 371.188 213.515 370.545C214.945 366.976 216.31 363.378 217.841 359.853C219.84 355.251 222.052 350.739 224.032 346.127C227.943 337.02 228.991 327.507 227.803 317.709C226.83 309.673 223.993 302.268 220.235 295.164C217.663 290.3 215.39 285.307 214.384 279.85C213.902 277.231 213.57 274.586 213.142 271.766ZM211.227 373.421C211.343 373.427 211.46 373.434 211.577 373.44C211.871 372.211 212.186 370.987 212.454 369.753C214.217 361.685 216.053 353.631 217.706 345.539C219.395 337.273 219.524 328.944 218.133 320.612C217.554 317.143 216.968 313.67 216.243 310.229C215.015 304.399 213.552 298.617 212.41 292.772C210.821 284.635 211.098 276.525 213.345 268.513C213.408 268.288 213.425 268.051 213.465 267.82C213.191 267.985 213.071 268.182 212.982 268.389C210.135 274.994 208.378 281.859 207.8 289.047C207.458 293.289 208.244 297.265 209.984 301.084C211.147 303.64 212.397 306.156 213.614 308.688C215.913 313.473 217.417 318.497 217.728 323.8C218.053 329.341 217.862 334.885 216.779 340.35C215.922 344.676 214.88 348.966 214.007 353.29C213.152 357.52 212.297 361.755 211.657 366.02C211.292 368.455 211.356 370.953 211.227 373.421ZM212.317 355.987C212.425 356.003 212.534 356.019 212.643 356.034C212.857 355.085 213.086 354.137 213.284 353.183C214.334 348.131 215.527 343.101 216.38 338.015C217.374 332.084 217.301 326.137 215.571 320.303C214.624 317.111 213.5 313.987 212.06 310.972C210.911 308.565 209.932 306.077 208.88 303.624C208.725 303.263 208.575 302.9 208.423 302.536C208.271 303.14 208.279 303.699 208.367 304.246C209.077 308.691 209.766 313.14 210.536 317.575C211.266 321.779 212.264 325.943 212.831 330.167C213.873 337.934 213.444 345.718 212.578 353.481C212.484 354.316 212.403 355.152 212.317 355.987Z" fill="white"/>
</g>
<g opacity="0.4">
<path d="M16.1528 325.567C18.0303 322.923 19.9207 320.287 21.7817 317.633C24.2628 314.093 26.7924 310.585 29.171 306.979C32.4669 301.981 35.0248 296.594 37.2151 291.029C37.6056 290.038 38.0281 289.06 38.5832 288.119C38.4616 288.507 38.3518 288.899 38.2155 289.281C35.2607 297.586 31.225 305.321 26.0095 312.436C23.2504 316.201 20.537 319.998 17.7926 323.773C17.3216 324.42 16.7939 325.027 16.2928 325.651C16.2452 325.624 16.1986 325.595 16.1528 325.567Z" fill="white"/>
<path d="M24.5688 334.401C30.7693 325.959 36.1128 317.062 39.1051 306.916C36.6835 317.356 31.2156 326.189 24.5688 334.401Z" fill="white"/>
<path d="M2.875 329.642C2.95914 327.711 10.246 314.87 12.9365 311.901C11.2566 314.835 9.58844 317.776 7.89384 320.702C6.18095 323.658 4.71043 326.754 2.875 329.642Z" fill="white"/>
<path d="M35.3 284.476C35.0997 284.649 34.8857 284.808 34.7 284.995C32.0434 287.688 30.1147 290.902 28.2116 294.128C26.7173 296.661 25.3034 299.241 23.8512 301.799C23.7478 301.981 23.6216 302.149 23.3198 302.216C24.4118 300.133 25.4342 298.011 26.6112 295.978C28.2564 293.137 29.9665 290.331 31.7553 287.579C32.454 286.504 33.4326 285.608 34.3077 284.652C34.4888 284.455 34.7769 284.357 35.0156 284.214C35.1107 284.3 35.2049 284.388 35.3 284.476Z" fill="white"/>
<path d="M26.3213 316.359C29.3611 311.145 32.5839 305.619 35.5954 300.453C35.1445 302.555 29.2862 313.205 26.3213 316.359Z" fill="white"/>
<path d="M10.3462 344.212C13.1922 340.83 16.0391 337.448 18.7268 334.254C17.4245 337.161 12.1396 343.684 10.3462 344.212Z" fill="white"/>
<path d="M25.5723 295.587C27.1864 291.552 29.7159 287.795 30.8554 287.474C29.1279 290.127 27.3501 292.857 25.5723 295.587Z" fill="white"/>
<path d="M12.1912 344.415C9.6982 344.636 7.22991 344.872 4.73968 344.564C1.97052 344.223 0.350916 342.433 0.0646722 339.476C-0.149325 337.262 0.168001 335.109 1.01301 333.07C2.74877 328.882 3.87821 324.531 4.84668 320.112C6.83392 311.049 11.8254 303.74 18.3706 297.355C22.1942 293.626 26.5518 290.57 30.776 287.346C35.0989 284.047 39.3011 280.612 43.1841 276.796C43.945 276.048 44.7507 275.325 45.6213 274.712C46.7526 273.915 47.4933 274.267 47.6908 275.626C47.7668 276.149 47.8061 276.706 47.7137 277.221C46.5614 283.664 46.3868 290.207 45.6799 296.696C44.3895 308.542 40.1324 319.202 33.0476 328.766C29.0813 334.12 24.3743 338.645 18.5772 341.982C16.5772 343.133 14.4354 343.932 12.1912 344.415ZM46.6126 274.853C46.1416 275.174 45.6405 275.438 45.2354 275.806C43.8764 277.042 42.5577 278.322 41.2115 279.572C36.3206 284.112 30.9525 288.061 25.6227 292.052C22.6093 294.309 19.8008 296.785 17.1789 299.473C13.3498 303.397 10.2469 307.84 7.92586 312.816C6.36021 316.171 5.50878 319.746 4.75888 323.346C4.25864 325.748 3.65138 328.112 2.70211 330.385C2.17169 331.655 1.73095 332.964 1.28284 334.266C0.675598 336.03 0.483511 337.855 0.729516 339.699C1.03131 341.958 2.16073 343.429 4.27327 343.81C7.17137 344.331 10.0814 344.171 12.9347 343.573C15.0719 343.125 17.0591 342.188 18.9339 341.044C24.2673 337.79 28.6716 333.547 32.4065 328.556C40.5631 317.654 44.812 305.383 45.5207 291.82C45.7064 288.276 46.0813 284.74 46.4334 281.207C46.577 279.766 46.9126 278.346 47.1156 276.909C47.2098 276.24 47.2427 275.546 46.6126 274.853Z" fill="white"/>
</g>
</svg>
