<svg width="253" height="253" viewBox="0 0 253 253" fill="none" xmlns="http://www.w3.org/2000/svg">
<g style="mix-blend-mode:plus-lighter" opacity="0.12">
<mask id="mask0_2056_803" style="mask-type:alpha" maskUnits="userSpaceOnUse" x="34" y="34" width="184" height="184">
<path d="M176.787 202.256C134.867 230.112 78.3002 218.708 50.442 176.785C22.5837 134.861 33.9832 78.294 75.9034 50.4379C117.824 22.5818 174.39 33.9856 202.248 75.9091C230.107 117.832 218.707 174.4 176.787 202.256Z" fill="#C4C4C4" stroke="black"/>
</mask>
<g mask="url(#mask0_2056_803)">
<path d="M291.607 270.673L11.644 214.233L11.569 214.605L291.532 271.046L291.607 270.673Z" fill="white" stroke="white"/>
<path d="M289.682 261.735L9.71924 205.294L9.64417 205.667L289.607 262.107L289.682 261.735Z" fill="white" stroke="white"/>
<path d="M287.736 252.761L7.77295 196.321L7.69788 196.694L287.661 253.134L287.736 252.761Z" fill="white" stroke="white"/>
<path d="M285.811 243.822L5.84814 187.382L5.77307 187.755L285.736 244.195L285.811 243.822Z" fill="white" stroke="white"/>
<path d="M283.859 234.878L3.896 178.438L3.82092 178.81L283.784 235.251L283.859 234.878Z" fill="white" stroke="white"/>
<path d="M281.906 225.934L1.94287 169.493L1.8678 169.866L281.83 226.306L281.906 225.934Z" fill="white" stroke="white"/>
<path d="M279.982 216.995L0.019043 160.555L-0.0560276 160.927L279.907 217.368L279.982 216.995Z" fill="white" stroke="white"/>
<path d="M278.03 208.051L-1.93311 151.61L-2.00818 151.983L277.954 208.423L278.03 208.051Z" fill="white" stroke="white"/>
<path d="M276.105 199.112L-3.85791 142.671L-3.93298 143.044L276.03 199.484L276.105 199.112Z" fill="white" stroke="white"/>
<path d="M274.153 190.167L-5.81006 133.727L-5.88513 134.1L274.077 190.54L274.153 190.167Z" fill="white" stroke="white"/>
<path d="M272.228 181.229L-7.73486 124.788L-7.80993 125.161L272.153 181.601L272.228 181.229Z" fill="white" stroke="white"/>
<path d="M270.276 172.284L-9.68701 115.844L-9.76208 116.217L270.201 172.657L270.276 172.284Z" fill="white" stroke="white"/>
<path d="M268.352 163.346L-11.6108 106.905L-11.6859 107.278L268.277 163.718L268.352 163.346Z" fill="white" stroke="white"/>
<path d="M266.399 154.401L-13.564 97.9607L-13.639 98.3332L266.324 154.774L266.399 154.401Z" fill="white" stroke="white"/>
<path d="M264.451 145.428L-15.5112 88.9875L-15.5863 89.3601L264.376 145.8L264.451 145.428Z" fill="white" stroke="white"/>
<path d="M262.528 136.489L-17.4351 80.0488L-17.5101 80.4214L262.452 136.862L262.528 136.489Z" fill="white" stroke="white"/>
<path d="M260.574 127.545L-19.3882 71.1044L-19.4633 71.4769L260.499 127.917L260.574 127.545Z" fill="white" stroke="white"/>
<path d="M258.651 118.606L-21.312 62.1658L-21.3871 62.5383L258.576 118.979L258.651 118.606Z" fill="white" stroke="white"/>
<path d="M256.698 109.662L-23.2642 53.2213L-23.3392 53.5938L256.623 110.034L256.698 109.662Z" fill="white" stroke="white"/>
<path d="M254.774 100.723L-25.189 44.2825L-25.264 44.655L254.699 101.095L254.774 100.723Z" fill="white" stroke="white"/>
<path d="M252.821 91.7785L-27.1411 35.3381L-27.2162 35.7107L252.746 92.1511L252.821 91.7785Z" fill="white" stroke="white"/>
<path d="M250.897 82.8397L-29.0659 26.3993L-29.141 26.7718L250.822 83.2122L250.897 82.8397Z" fill="white" stroke="white"/>
<path d="M248.945 73.8952L-31.0181 17.4548L-31.0931 17.8274L248.869 74.2678L248.945 73.8952Z" fill="white" stroke="white"/>
<path d="M246.991 64.951L-32.9712 8.51062L-33.0463 8.88315L246.916 65.3235L246.991 64.951Z" fill="white" stroke="white"/>
<path d="M245.068 56.0121L-34.895 -0.428345L-34.9701 -0.0558187L244.993 56.3846L245.068 56.0121Z" fill="white" stroke="white"/>
<path d="M243.12 47.039L-36.8423 -9.40137L-36.9174 -9.02884L243.045 47.4116L243.12 47.039Z" fill="white" stroke="white"/>
<path d="M241.196 38.1002L-38.7661 -18.3402L-38.8412 -17.9677L241.121 38.4727L241.196 38.1002Z" fill="white" stroke="white"/>
</g>
</g>
</svg>
