<svg width="290" height="245" viewBox="0 0 290 245" fill="none" xmlns="http://www.w3.org/2000/svg">
<g style="mix-blend-mode:plus-lighter" opacity="0.1">
<path d="M80.3408 68.1919C75.7176 63.5851 70.7542 59.5357 65.3859 55.9567C61.3231 53.2465 57.2235 50.6042 52.9168 48.2927C52.0356 47.8197 51.241 47.1874 50.4275 46.5874C52.2442 47.238 53.9204 48.1654 55.6103 49.0962C59.7152 51.3566 63.7695 53.7033 67.5431 56.4776C72.0748 59.8091 76.5465 63.2322 80.0328 67.7349C80.146 67.8774 80.2394 68.0385 80.3408 68.1919Z" fill="white"/>
<path d="M36.2097 131.955C37.9 130.347 40.0585 129.369 41.9118 127.98C43.8029 126.563 45.7463 125.217 47.6514 123.818C49.5549 122.419 51.4497 121.007 53.3292 119.574C55.2026 118.147 57.0534 116.688 58.9549 115.292C55.6497 118.671 51.9943 121.642 48.2094 124.464C44.4282 127.282 40.6859 130.161 36.6169 132.545C36.4808 132.348 36.3448 132.152 36.2097 131.955Z" fill="white"/>
<path d="M102.635 79.4841C104.601 77.9721 106.591 76.4926 108.525 74.9412C110.52 73.3401 112.477 71.6903 114.421 70.0257C116.325 68.3958 118.213 66.7441 120.068 65.058C121.918 63.3782 123.719 61.6439 125.434 60.0348C123.577 63.4787 106.709 78.2997 102.916 79.7494C102.821 79.6614 102.729 79.5731 102.635 79.4841Z" fill="white"/>
<path d="M114.056 58.0209C108.559 65.1726 102.613 71.9742 97.5915 79.4935C97.4715 79.4479 97.3518 79.4039 97.232 79.3599C97.316 78.9772 97.2977 78.5246 97.5026 78.223C98.6607 76.5159 99.8435 74.8239 101.073 73.1687C102.031 71.8784 103.096 70.6668 104.068 69.3853C107.123 65.3533 110.541 61.6459 114.056 58.0209Z" fill="white"/>
<path d="M60.1177 122.968C67.268 116.09 74.9013 109.825 81.511 102.476C81.597 102.38 81.7739 102.366 82.1346 102.457C81.8368 102.912 81.5913 103.417 81.2312 103.816C76.3567 109.226 70.8278 113.942 65.3345 118.693C63.6332 120.162 61.8576 121.545 60.1177 122.968Z" fill="white"/>
<path d="M105.743 96.053C113.598 103.981 122.764 110.143 132.256 115.865C122.397 111.196 106.911 99.3796 105.743 96.053Z" fill="white"/>
<path d="M108.333 93.1359C110.654 93.1629 126.723 100.666 130.887 103.752C127.135 102.009 123.396 100.233 119.626 98.5315C115.821 96.8145 111.984 95.171 108.161 93.496C108.218 93.3753 108.275 93.2556 108.333 93.1359Z" fill="white"/>
<path d="M63.5386 62.409C72.6297 67.4347 82.1371 75.1237 83.4641 78.5768C81.7936 77.4809 80.9602 75.9766 79.6837 74.9606C78.3516 73.9002 77.1156 72.7201 75.816 71.6177C74.5154 70.5145 73.2047 69.4221 71.8669 68.3636C70.5278 67.3028 69.1736 66.258 67.7839 65.2661C66.3953 64.275 64.9554 63.3581 63.5386 62.409Z" fill="white"/>
<path d="M115.81 111.541C122.461 116.353 129.131 120.943 137.147 123.242C136.97 123.904 136.426 123.812 135.977 123.676C134.59 123.257 133.166 122.901 131.855 122.303C127.404 120.271 123.357 117.55 119.413 114.686C118.128 113.754 117.006 112.596 115.81 111.541Z" fill="white"/>
<path d="M58.6118 107.89C64.9625 103.9 71.7281 100.829 78.9191 98.1327C78.8292 99.2226 78.1799 99.2295 77.7295 99.4261C72.851 101.551 67.9609 103.652 63.0857 105.785C61.5778 106.447 60.1028 107.187 58.6118 107.89Z" fill="white"/>
<path d="M35.7773 104.901C36.0694 103.676 36.8006 103.46 37.3974 103.149C42.4908 100.487 47.7684 98.2747 53.2986 96.682C54.1907 96.425 55.0881 96.1903 56.0084 96.0362C49.2119 98.6 42.5015 101.336 35.7773 104.901Z" fill="white"/>
<path d="M91.3218 104.462C92.2003 105.058 92.0743 105.724 92.0767 106.263C92.0937 109.684 92.1537 113.108 92.0145 116.525C91.8711 120.03 91.5143 123.527 91.2514 127.029C91.1483 127.025 91.0441 127.02 90.941 127.017C91.0049 125.163 91.0699 123.31 91.1311 121.457C91.1918 119.595 91.2587 117.735 91.302 115.874C91.3457 113.962 91.351 112.049 91.3931 110.137C91.4336 108.323 91.1783 106.501 91.3218 104.462Z" fill="white"/>
<path d="M135.07 88.7954C137.631 89.2549 140.221 89.5922 142.745 90.2054C145.861 90.9618 148.93 91.921 152.001 92.8529C152.696 93.0634 153.316 93.5204 153.97 93.8631C153.943 93.9681 153.916 94.0722 153.889 94.1773C153.588 94.1883 153.244 94.2997 152.992 94.1943C147.216 91.7956 141.075 90.6959 135.073 89.0985C135.072 88.9981 135.071 88.8959 135.07 88.7954Z" fill="white"/>
<path d="M95.1046 49.9101C95.2703 43.217 98.1147 33.8031 100.681 31.5765C100.597 32.0443 100.635 32.4176 100.473 32.6509C98.4024 35.6183 97.7713 39.1096 96.8741 42.4966C96.2479 44.8628 95.7325 47.2582 95.1046 49.9101Z" fill="white"/>
<path d="M98.135 139.785C98.2818 141.875 98.5291 143.964 98.5504 146.056C98.5766 148.659 98.4412 151.266 98.3188 153.868C98.2855 154.569 98.1956 155.343 97.3435 155.78C97.5543 150.369 97.7598 145.102 97.965 139.833C98.0224 139.816 98.0792 139.801 98.135 139.785Z" fill="white"/>
<path d="M108.557 91.4906C110.458 91.3934 121.047 95.0684 125.029 97.3165C119.491 95.4965 113.952 93.6765 108.414 91.8565C108.462 91.7351 108.51 91.6127 108.557 91.4906Z" fill="white"/>
<path d="M117.524 35.8882C114.775 40.6215 112.026 45.3555 109.277 50.0888C109.224 50.0636 109.17 50.0378 109.118 50.0126C110.307 47.5169 111.369 44.9484 112.722 42.5435C114.061 40.1639 115.131 37.5471 117.125 35.6122C117.259 35.7047 117.392 35.7964 117.524 35.8882Z" fill="white"/>
<path d="M125.051 84.1603C119.5 84.3718 114.028 84.5807 108.434 84.7937C108.647 84.5826 108.802 84.2898 109.012 84.2439C109.843 84.0589 110.687 83.8852 111.533 83.8264C115.747 83.5365 119.958 83.5326 124.161 84.0221C124.436 84.0528 124.709 84.1065 125.051 84.1603Z" fill="white"/>
<path d="M140.102 49.5956C139.844 53.5728 132.172 62.7958 127.535 65.5217C132.698 60.9872 137.248 55.9725 140.102 49.5956Z" fill="white"/>
<path d="M54.0033 99.2062C60.6942 97.2583 67.3167 95.0125 74.3693 94.6352C70.9603 95.3646 67.5347 96.0277 64.1456 96.8399C60.7821 97.646 57.4557 98.6045 54.1128 99.4969C54.0763 99.4 54.0398 99.3031 54.0033 99.2062Z" fill="white"/>
<path d="M52.5921 72.0975C47.7377 70.6706 43.3324 69.0188 39.2683 66.5699C39.2856 66.4598 39.3039 66.3503 39.3211 66.2402C39.5639 66.1914 39.8594 66.0272 40.0431 66.1097C44.1356 67.9648 48.2159 69.8466 52.2959 71.7267C52.3369 71.7455 52.3585 71.8019 52.5921 72.0975Z" fill="white"/>
<path d="M80.7005 127.895C79.9638 132.954 79.3817 137.777 78.6372 142.578C77.8444 141.129 79.3729 130.746 80.7005 127.895Z" fill="white"/>
<path d="M96.1779 79.0063C95.9511 77.1826 99.0971 71.6865 103.47 66.1214C101.203 70.1288 98.6907 74.5679 96.1779 79.0063Z" fill="white"/>
<path d="M40.2949 133.003C43.139 130.399 46.1053 127.965 49.4424 125.968C47.9941 127.261 46.5975 128.617 45.0853 129.827C43.5929 131.023 42.3333 132.603 40.2949 133.003Z" fill="white"/>
<path d="M71.3916 69.9951C76.0219 72.8465 81.1574 77.2228 81.8801 79.2816C78.0495 75.8896 74.3884 72.6489 71.3916 69.9951Z" fill="white"/>
<path d="M142.977 88.2256C146.762 88.6504 150.535 89.3662 153.83 91.5637C152.5 91.6948 151.505 90.7767 150.302 90.4835C149.086 90.1871 147.908 89.7328 146.709 89.3599C145.467 88.9739 144.221 88.6026 142.977 88.2256Z" fill="white"/>
<path d="M39.8701 105.321C36.6265 107.005 33.3849 108.691 30.1346 110.364C30.0354 110.415 29.8627 110.323 29.7116 110.295C30.2738 109.19 36.2021 106.171 39.8701 105.321Z" fill="white"/>
<path d="M94.7574 157.045C95.2053 153.689 95.6236 150.552 96.0419 147.415C96.1524 147.425 96.2635 147.434 96.374 147.445C96.2187 150.126 96.0831 152.811 95.8928 155.491C95.8511 156.074 95.8968 156.823 94.7574 157.045Z" fill="white"/>
<path d="M97.3835 34.1463C96.346 37.4682 95.3084 40.7901 94.2724 44.1116C94.7624 40.6126 95.1118 37.0702 97.3835 34.1463Z" fill="white"/>
<path d="M78.7908 100.097C78.2234 100.974 73.7233 103.14 69.8931 104.463C72.6594 102.624 75.6184 101.172 78.7908 100.097Z" fill="white"/>
<path d="M111.368 42.4802C112.545 39.3822 113.391 36.4288 115.348 33.6243C115.378 35.0617 112.847 40.5405 111.368 42.4802Z" fill="white"/>
<path d="M40.5569 68.8909C43.3021 70.1709 46.0483 71.4515 48.7628 72.7167C46.4463 72.5699 41.5655 70.5184 40.4136 69.1933C40.4623 69.0926 40.5092 68.9923 40.5569 68.8909Z" fill="white"/>
<path d="M89.6066 114.06C89.212 111.59 89.61 105.454 90.3616 104.174C90.4457 107.724 90.0794 110.896 89.6066 114.06Z" fill="white"/>
<path d="M89.6819 78.8318C92.3248 78.5714 94.6198 81.4402 94.4518 84.4566C92.8637 80.8374 92.1774 80.0067 89.6819 78.8318Z" fill="white"/>
<path d="M91.7595 89.0522C90.9582 90.3435 87.8303 91.3147 84.3569 91.2969C86.9914 90.4977 89.3035 89.797 91.7595 89.0522Z" fill="white"/>
<path d="M100.422 92.8887C98.6293 90.9617 96.4098 90.1469 94.2515 89.1152C95.6458 88.353 98.9574 90.3702 100.422 92.8887Z" fill="white"/>
<path d="M98.746 93.4364C99.8235 94.8898 100.169 96.4628 100.029 98.1491C99.9711 98.8406 99.8043 99.5285 98.7567 99.4771C99.9957 97.4287 98.9419 95.477 98.746 93.4364Z" fill="white"/>
<path d="M92.2997 90.5014C91.301 91.8213 89.8254 92.0843 88.2949 92.2324C89.5075 91.402 90.821 90.7885 92.2997 90.5014Z" fill="white"/>
<path d="M94.7512 87.3058C96.1356 87.2221 97.2248 87.9403 98.4908 88.8854C97.0508 88.4509 95.8439 88.0857 94.6374 87.7221C94.6751 87.5837 94.7135 87.4442 94.7512 87.3058Z" fill="white"/>
<path d="M93.4022 78.8275C94.8916 79.2792 95.3536 80.4274 95.4282 81.8319C94.7522 80.83 94.0766 79.8297 93.4022 78.8275Z" fill="white"/>
<path d="M147.794 83.7087C147.05 84.3449 146.69 83.9312 146.342 83.7165C143.552 82.0011 150.442 86.2261 147.618 84.5715C144.058 82.4863 146.463 83.4502 142.785 81.5913C138.019 80.069 139.361 79.1254 134.08 78.7803C129.387 78.4743 129.228 77.0765 138.17 79.4987C130.926 78.7643 127.846 76.875 134.891 78.5305C134.891 78.5305 135.033 78.4437 134.685 78.5594C135.243 78.7639 135.711 78.7034 136.089 78.8308C138.521 79.6427 141.009 80.3159 143.376 81.2862C150.307 84.1244 154.1 89.2597 154.205 96.8484C154.25 100.118 154.249 103.41 153.93 106.658C153.22 113.907 149.494 119.184 142.848 122.209C138.804 124.05 134.562 125.412 130.144 126.023C123.17 126.988 116.708 125.538 110.954 121.417C109.62 120.461 108.522 119.173 107.328 118.025C106.938 117.649 106.589 117.232 106.061 116.66C106.026 117.049 105.96 117.226 106.004 117.369C108.187 124.436 107.909 131.598 106.754 138.771C105.943 143.805 104.227 148.509 101.157 152.641C98.9102 155.667 96.0206 157.716 92.2207 158.32C89.8279 158.7 87.6208 158.251 85.5894 156.918C80.8566 153.811 77.9545 149.599 77.4231 143.839C77.24 141.846 76.8409 139.849 76.3092 137.918C74.8929 132.771 75.026 127.642 76.342 122.534C77.0441 119.81 77.9851 117.149 78.8106 114.457C78.9078 114.142 78.9579 113.812 78.8637 113.409C77.9778 114.47 77.1065 115.544 76.2032 116.591C71.1584 122.448 65.3067 127.304 58.4083 130.844C54.3239 132.94 49.9963 134.262 45.3982 134.461C37.763 134.791 32.063 131.329 28.2502 124.933C24.8268 119.19 26.0957 111.869 31.3968 107.388C35.8661 103.61 40.0276 99.5688 44.058 95.3431C47.3747 91.8648 51.5538 89.7957 56.2678 88.818C62.9268 87.4368 69.6392 87.0461 76.4114 87.6775C76.7481 87.709 77.0879 87.7165 77.679 87.7489C76.785 86.5966 75.7141 86.0414 74.6378 85.6651C71.9369 84.719 69.2123 83.815 66.4454 83.0884C61.9219 81.9006 57.328 80.9713 52.8216 79.7211C50.7107 79.1355 48.6838 78.1586 46.7197 77.1614C45.6215 76.6039 44.5759 75.773 43.7786 74.8333C42.3201 73.116 40.9564 71.294 39.7517 69.3904C38.4841 67.3881 38.0323 65.1109 38.2052 62.725C38.3183 61.1682 38.3261 59.6017 38.4899 58.0513C38.7668 55.428 39.6251 54.6442 42.2574 54.4926C43.0603 54.4466 43.8693 54.5019 44.6748 54.478C45.2112 54.4622 45.7451 54.3896 46.5577 54.3184C46.2015 53.6002 46.0018 53.055 45.6847 52.5877C45.0367 51.6306 44.2773 50.7466 43.6516 49.7755C41.9432 47.1274 42.4509 44.0647 44.9024 42.0768C46.6714 40.6428 48.7369 39.8928 50.9638 39.5377C56.3408 38.6796 61.5063 39.5081 66.4915 41.5658C74.6491 44.9319 81.3335 50.1705 86.4185 57.4116C86.6115 57.6857 86.8432 57.9322 87.2829 58.4673C87.2161 57.7475 87.194 57.3763 87.144 57.0097C87.0019 55.9612 86.8514 54.9145 86.7009 53.8677C85.7622 47.3633 88.0952 42.0105 92.5376 37.4249C95.4073 34.4627 98.7511 32.1657 102.525 30.4943C108.12 28.0152 113.572 28.4564 118.983 31.1483C121.89 32.5942 124.113 34.843 126.394 37.0388C128.899 39.4498 131.509 41.7174 134.331 43.7656C136.522 45.3564 138.622 47.1056 140.582 48.9746C142.868 51.1554 143.487 53.9643 142.895 57.0385C142.332 59.9629 140.988 62.5291 139.283 64.9419C136.03 69.5449 131.499 72.4443 126.453 74.6639C125.278 75.1807 124.064 75.6089 122.898 76.3399C124.673 76.5442 126.449 76.7415 128.224 76.9544C133.685 77.8895 132.319 78.1956 134.177 78.5597C131.843 77.72 117.69 76.9894 122.671 76.808C128.501 76.5952 131.466 77.3709 139.689 79.739C142.714 80.9498 142.083 80.356 144.91 81.9773C149.54 84.6317 142.066 80.1339 146.619 82.9233C146.981 83.1468 147.332 83.3993 147.794 83.7087ZM99.1342 103.545C99.7609 104.649 100.519 105.949 101.244 107.269C103.309 111.029 105.52 114.7 108.472 117.836C109.738 119.181 111.134 120.489 112.692 121.459C118.309 124.952 124.453 126.085 130.963 124.919C135.095 124.179 139.111 122.942 142.894 121.133C148.855 118.283 152.278 113.455 152.932 106.894C153.281 103.397 153.276 99.8477 153.181 96.329C153.001 89.6391 149.565 85.0093 143.528 82.4108C136.781 79.5059 129.717 77.7168 122.354 77.281C116.359 76.9263 110.476 77.5225 104.79 79.5685C104.285 79.7499 103.798 79.9815 103.314 80.1846C103.361 80.368 103.357 80.4364 103.386 80.4575C103.755 80.7134 104.11 80.9962 104.503 81.2074C107.754 82.9565 109.067 85.7426 108.887 89.3375C108.865 89.7904 108.838 90.2423 108.809 90.6948C108.673 92.7186 107.782 94.3408 106.216 95.6201C104.983 96.628 103.659 97.3964 102.018 97.3259C101.391 98.0615 100.806 98.7461 100.222 99.4308C100.285 99.4573 100.348 99.4821 100.41 99.508C100.007 100.785 99.6028 102.063 99.1342 103.545ZM95.2109 76.9145C96.3742 78.7804 97.8393 79.9299 100.078 79.6376C100.174 79.6255 100.282 79.6457 100.376 79.6783C101.192 79.9639 101.947 79.78 102.713 79.4506C107.162 77.54 111.828 76.61 116.646 76.3064C118.095 76.2152 119.564 76.0299 120.966 75.6659C124.947 74.6328 128.632 72.9095 132.049 70.612C135.892 68.0281 138.939 64.7515 140.805 60.4712C141.761 58.2793 142.425 56.0151 141.979 53.5797C141.805 52.6303 141.572 51.6598 140.698 51.1004C139.644 50.4248 138.594 49.6607 137.43 49.2602C135.586 48.6245 133.664 48.1785 131.747 47.7913C125.979 46.6274 121.401 43.7528 118.286 38.6848C117.917 38.0855 117.53 37.4914 117.092 36.942C115.485 34.9226 113.783 32.9768 111.323 31.9788C107.449 30.4066 103.673 31.087 100.09 32.8717C96.9063 34.4587 94.1868 36.7537 91.9149 39.4703C89.1342 42.795 87.3672 46.5959 87.4939 51.0643C87.6145 55.3388 88.3602 59.4758 90.263 63.3537C91.0169 64.8902 91.7585 66.4344 92.4799 67.9868C93.8203 70.8751 94.9535 73.8304 95.2109 76.9145ZM81.1019 90.6315C79.457 88.9849 77.5173 88.5416 75.3916 88.4386C69.124 88.1351 62.9118 88.4495 56.7505 89.7106C51.7056 90.7433 47.4161 93.0832 43.8864 96.8317C41.8882 98.9538 39.9506 101.141 37.8435 103.151C36.2108 104.708 34.3386 106.011 32.6059 107.466C26.7515 112.382 25.9226 119.652 29.4488 125.094C33.1636 130.828 38.4804 133.883 45.4699 133.463C47.2693 133.355 49.0738 133.035 50.8338 132.631C55.5143 131.554 59.6834 129.325 63.6299 126.658C68.7524 123.196 73.214 118.997 77.0862 114.194C78.9171 111.924 80.5702 109.509 82.2315 107.109C82.8705 106.185 83.3055 105.121 83.8664 104.061C83.3358 103.843 83.014 103.711 82.6928 103.579C80.0306 102.482 78.3926 100.449 77.6407 97.7462C77.399 96.8787 77.4821 95.8509 77.6681 94.9484C78.0292 93.2028 79.3827 92.309 80.99 91.6981C81.0333 91.2809 81.0749 90.8945 81.1019 90.6315ZM77.0142 85.7636C77.185 83.0156 78.7119 81.318 80.5415 79.8131C81.8227 78.7592 83.1604 77.7678 84.3783 76.644C86.9481 74.2719 89.7833 74.2997 92.8017 75.5395C93.1558 75.6855 93.513 75.8249 94.0162 76.0273C93.9969 75.5783 94.0216 75.2906 93.9684 75.0175C93.4946 72.6111 91.8788 70.9492 90.1994 69.3475C88.0101 67.2594 85.2495 66.1212 82.5851 64.8157C78.401 62.7645 74.5015 60.3273 71.5201 56.6192C68.8746 53.3287 66.1856 50.0728 63.4263 46.8785C61.4048 44.5378 59.0641 42.5394 56.1116 41.4392C52.2375 39.9955 48.5829 40.3865 45.3068 43.0257C43.5452 44.4443 43.088 46.7441 44.1393 48.7406C44.5348 49.4908 45.0944 50.154 45.5818 50.8557C46.0686 51.5585 46.6265 52.222 47.0318 52.9686C47.7767 54.3411 47.3003 55.2316 45.7509 55.354C44.6499 55.4406 43.5359 55.3606 42.4299 55.4005C41.5263 55.4325 40.6066 55.4755 39.7223 56.3738C39.2128 59.5583 38.7839 62.9316 39.4888 66.3446C39.6097 66.9297 39.8447 67.5043 40.1109 68.0433C42.3976 72.6782 45.682 76.2345 50.6805 78.0432C54.7661 79.5215 58.9922 80.4203 63.2031 81.4175C66.5275 82.2047 69.8257 83.1134 73.1037 84.0781C74.3806 84.4512 75.571 85.1285 77.0142 85.7636ZM84.8444 104.339C83.9157 105.868 83.0202 107.315 82.154 108.779C81.7975 109.381 81.4613 110.001 81.1848 110.643C79.3859 114.81 78.082 119.145 77.0603 123.553C75.9406 128.381 75.9136 133.217 77.3287 138.037C77.8355 139.763 78.2196 141.571 78.333 143.36C78.6279 148.021 80.7068 151.732 84.0859 154.779C86.9073 157.323 90.1839 158.311 93.8623 156.965C95.2577 156.455 96.6379 155.731 97.8109 154.827C99.1842 153.77 100.552 152.589 101.04 150.773C102.321 146.004 102.4 141.248 101.044 136.463C100.385 134.142 99.8294 131.781 99.4289 129.403C99.19 127.989 99.1397 126.474 99.3672 125.062C99.7975 122.39 100.413 119.739 101.09 117.116C102.345 112.25 100.975 108.017 98.1898 103.99C93.7693 106.097 89.3034 105.275 84.8444 104.339ZM91.6376 69.2593C91.7201 69.2031 91.8017 69.1462 91.8836 69.091C90.385 66.0908 89.1811 62.9491 87.3316 60.118C82.977 53.456 77.3282 48.1854 70.3187 44.4181C66.3927 42.308 62.2438 40.7945 57.7673 40.3408C57.1953 40.2821 56.6175 40.2818 56.0431 40.2548C57.0025 40.9569 57.9992 41.4175 58.9386 41.9743C61.658 43.589 63.7496 45.9116 65.8476 48.2225C68.6875 51.3505 71.4898 54.5216 75.0768 56.8479C77.2313 58.2463 79.3945 59.6318 81.5624 61.0102C84.4975 62.8781 87.3262 64.8832 89.7923 67.3582C90.4151 67.9854 91.0232 68.626 91.6376 69.2593ZM91.341 90.7521C91.3004 90.3759 91.2108 90.0319 91.2362 89.6955C91.3184 88.6322 90.8179 87.8029 90.075 87.1864C89.2677 86.5166 88.3688 85.9188 87.4279 85.4594C85.8901 84.7102 84.9346 84.9624 83.8205 86.2513C83.4935 86.6291 83.1905 87.0533 82.9838 87.5045C81.48 90.7936 81.6625 93.9594 83.7953 96.9339C85.2251 98.9276 87.2998 99.7554 89.65 99.8972C91.0327 99.9804 92.1573 99.3548 93.0054 98.2034C93.9781 96.8835 94.2696 95.3651 94.3973 93.8036C94.489 92.6786 93.919 91.8838 92.8929 91.4239C92.3944 91.2015 91.8902 90.9897 91.341 90.7521ZM102.447 148.467C102.74 148.144 102.908 148.026 102.981 147.867C103.314 147.136 103.653 146.405 103.934 145.653C106.482 138.823 106.997 131.74 106.513 124.54C106.292 121.246 105.511 118.078 104.215 115.039C104.068 114.698 103.869 114.38 103.693 114.051C103.686 117.725 102.685 121.165 101.906 124.631C101.005 128.642 101.003 132.615 102.031 136.593C102.106 136.885 102.156 137.184 102.217 137.48C102.898 140.81 103.235 144.149 102.505 147.52C102.454 147.748 102.472 147.993 102.447 148.467ZM93.4048 99.6183C95.1005 100.499 97.047 100.42 98.8479 99.187C101.3 97.5079 102.623 95.0872 103.175 92.2032C103.889 88.4576 100.258 85.2647 96.2953 86.0705C95.749 86.1811 95.1483 86.7275 94.8564 87.2346C94.3273 88.1563 94.1811 89.1897 94.4857 90.2919C94.9916 92.1229 95.6626 93.9777 94.9687 95.9001C94.5142 97.1601 93.9327 98.3741 93.4048 99.6183ZM136.869 46.8596C136.562 46.6192 136.264 46.3659 135.947 46.1405C132.498 43.6864 129.153 41.112 126.127 38.1317C124.087 36.1217 122.088 34.0496 119.575 32.5876C116.318 30.693 112.829 29.7268 109.052 29.8668C108.573 29.8844 108.096 29.9925 107.618 30.0592C107.899 30.3098 108.175 30.3438 108.452 30.3785C110.332 30.6097 112.166 31.0982 113.594 32.3602C115.431 33.9852 117.093 35.8071 118.862 37.5118C120.306 38.904 121.642 40.4815 123.297 41.565C127.413 44.2647 132.251 45.2827 136.869 46.8596ZM101.662 86.305C101.841 84.2509 101.002 82.8137 99.5231 81.817C96.7855 79.97 93.7389 79.1009 90.4041 79.2092C87.8854 79.2906 85.1097 81.1569 84.5014 84.4781C85.9734 84.0431 87.3122 84.3519 88.5432 85.1201C89.4388 85.6795 90.3184 86.2717 91.1675 86.8985C92.0185 87.5266 92.8659 87.7495 93.8196 87.1238C95.6752 84.7106 97.3811 84.5062 101.662 86.305ZM95.738 103.918C93.8061 103.128 92.0795 102.49 90.4099 101.723C87.9531 100.594 85.4306 99.901 82.698 99.971C81.9202 99.9902 81.1335 99.679 80.3514 99.523C80.0905 99.4714 79.8273 99.4297 79.4292 99.3601C80.0945 101.107 81.3614 102.057 82.8118 102.614C86.4647 104.018 90.2566 104.709 94.1921 104.251C94.6572 104.195 95.1101 104.055 95.738 103.918ZM84.3082 81.7933C81.853 82.2968 79.4725 82.8488 78.0543 85.2015C78.1463 87.1768 79.3867 88.7871 81.2533 89.3524C82.2779 86.8824 83.8952 84.663 84.3082 81.7933ZM99.3618 80.6414C102.043 82.2897 102.97 84.5899 102.636 87.3737C105.158 90.287 103.968 93.24 102.775 96.2882C104.231 96.1296 105.117 95.3282 106.007 94.5338C106.926 93.7137 107.063 92.7046 106.544 91.6577C106.17 90.9015 105.661 90.2007 105.144 89.5273C104.232 88.3352 103.663 87.0398 103.573 85.5196C103.526 84.722 103.413 83.91 103.189 83.1448C102.782 81.7479 101.236 80.7047 99.3618 80.6414ZM81.0957 92.9003C79.659 93.2328 78.6553 94.29 78.3865 95.66C78.1389 96.9225 78.5481 97.8253 79.7004 98.406C81.0827 99.1018 82.5446 99.309 84.3368 98.9973C82.5279 97.2278 81.5492 95.1815 81.0957 92.9003ZM78.8688 82.6732C80.6029 82.059 82.195 81.4771 83.7995 80.931C84.8163 80.5851 85.7692 80.1617 86.3965 79.2362C87.1903 78.0643 87.9737 76.8842 88.8029 75.6463C87.4075 75.5604 86.3171 76.1264 85.3296 76.9366C83.7792 78.2085 82.2316 79.4851 80.7162 80.7978C80.0794 81.3505 79.5269 82.0001 78.8688 82.6732ZM107.758 90.1938C108.348 86.3792 107.164 83.4929 103.839 81.9763C104.557 84.9764 105.208 87.9419 107.758 90.1938ZM88.948 78.2018C91.104 78.3612 93.2098 78.5176 95.4866 78.6869C94.4097 77.5483 93.4295 76.4469 91.7662 76.4364C90.4547 76.4285 89.5277 77.0619 88.948 78.2018ZM99.2436 100.298C96.1681 101.029 96.1691 101.025 92.5374 100.325C92.3515 100.289 92.1299 100.44 91.7621 100.555C94.0742 101.899 96.2095 103.095 98.9113 101.843C99.0085 101.386 99.1182 100.879 99.2436 100.298Z" fill="white"/>
</g>
<g style="mix-blend-mode:plus-lighter" opacity="0.12">
<path d="M248.742 186.275C251.914 184.02 254.792 181.51 257.435 178.714C259.436 176.598 261.4 174.453 263.191 172.154C263.558 171.683 264.009 171.28 264.443 170.862C263.879 171.864 263.165 172.757 262.449 173.656C260.708 175.842 258.921 177.99 256.912 179.929C254.499 182.258 252.038 184.543 249.041 186.14C248.946 186.192 248.842 186.231 248.742 186.275Z" fill="white"/>
<path d="M215.694 153.935C216.469 155.09 216.827 156.457 217.457 157.685C218.101 158.939 218.697 160.217 219.328 161.477C219.959 162.736 220.599 163.992 221.252 165.24C221.903 166.485 222.575 167.719 223.205 168.977C221.55 166.695 220.171 164.248 218.892 161.74C217.615 159.235 216.299 156.746 215.306 154.115C215.435 154.055 215.565 153.995 215.694 153.935Z" fill="white"/>
<path d="M239.866 198.245C240.558 199.553 241.228 200.871 241.945 202.163C242.686 203.497 243.459 204.813 244.243 206.123C245.009 207.406 245.791 208.681 246.596 209.941C247.397 211.196 248.236 212.429 249.009 213.599C247.172 212.162 240.154 200.759 239.682 198.384C239.743 198.337 239.805 198.292 239.866 198.245Z" fill="white"/>
<path d="M251.335 207.113C247.683 203.164 244.282 198.986 240.367 195.28C240.406 195.214 240.444 195.148 240.481 195.082C240.698 195.17 240.966 195.205 241.123 195.355C242.01 196.207 242.885 197.073 243.735 197.961C244.397 198.654 245.002 199.402 245.658 200.102C247.721 202.302 249.557 204.683 251.335 207.113Z" fill="white"/>
<path d="M218.576 168.89C221.901 173.783 224.817 178.899 228.473 183.522C228.521 183.582 228.511 183.687 228.421 183.89C228.183 183.669 227.911 183.474 227.713 183.223C225.022 179.814 222.806 176.091 220.565 172.385C219.872 171.238 219.237 170.055 218.576 168.89Z" fill="white"/>
<path d="M229.815 198.409C224.367 202.23 219.825 206.998 215.509 212.003C219.243 206.678 227.743 198.761 229.815 198.409Z" fill="white"/>
<path d="M231.27 200.224C231.021 201.586 224.998 210.278 222.766 212.415C224.167 210.384 225.586 208.365 226.965 206.32C228.356 204.256 229.707 202.166 231.075 200.087C231.141 200.133 231.205 200.178 231.27 200.224Z" fill="white"/>
<path d="M253.827 176.98C249.961 181.819 244.487 186.635 242.324 187.069C243.136 186.197 244.104 185.858 244.829 185.21C245.586 184.533 246.404 183.925 247.182 183.272C247.961 182.618 248.735 181.957 249.491 181.277C250.249 180.597 250.999 179.906 251.722 179.188C252.444 178.472 253.127 177.717 253.827 176.98Z" fill="white"/>
<path d="M219.702 202.771C216.205 206.197 212.838 209.657 210.682 214.138C210.31 213.967 210.419 213.657 210.544 213.406C210.929 212.633 211.282 211.832 211.765 211.121C213.406 208.709 215.412 206.604 217.491 204.573C218.168 203.911 218.961 203.369 219.702 202.771Z" fill="white"/>
<path d="M227.589 169.518C229.297 173.651 230.423 177.936 231.286 182.434C230.654 182.271 230.715 181.889 230.645 181.605C229.886 178.524 229.142 175.439 228.377 172.359C228.14 171.406 227.853 170.465 227.589 169.518Z" fill="white"/>
<path d="M231.639 156.397C232.329 156.691 232.383 157.143 232.506 157.525C233.559 160.786 234.33 164.11 234.711 167.52C234.772 168.071 234.82 168.622 234.818 169.178C233.994 164.926 233.059 160.707 231.639 156.397Z" fill="white"/>
<path d="M226.321 189.088C225.883 189.545 225.504 189.404 225.187 189.351C223.174 189.018 221.155 188.709 219.161 188.284C217.115 187.848 215.096 187.288 213.064 186.781C213.076 186.721 213.089 186.66 213.102 186.6C214.185 186.824 215.267 187.048 216.351 187.27C217.439 187.493 218.525 187.719 219.615 187.931C220.735 188.149 221.858 188.344 222.978 188.56C224.04 188.766 225.137 188.799 226.321 189.088Z" fill="white"/>
<path d="M231.137 216.375C230.61 217.834 230.152 219.323 229.538 220.745C228.78 222.501 227.909 224.208 227.053 225.92C226.859 226.307 226.528 226.625 226.261 226.975C226.202 226.949 226.144 226.923 226.084 226.896C226.108 226.718 226.077 226.505 226.165 226.367C228.154 223.213 229.417 219.714 230.959 216.347C231.018 216.356 231.078 216.366 231.137 216.375Z" fill="white"/>
<path d="M258.005 196.788C261.922 197.558 267.17 200.175 268.221 201.907C267.955 201.81 267.731 201.795 267.61 201.676C266.074 200.161 264.085 199.44 262.185 198.573C260.857 197.967 259.5 197.424 258.005 196.788Z" fill="white"/>
<path d="M204.875 189.547C203.632 189.423 202.379 189.359 201.147 189.161C199.615 188.916 198.096 188.574 196.579 188.241C196.17 188.151 195.724 188.021 195.553 187.476C198.712 188.143 201.788 188.793 204.864 189.442C204.868 189.478 204.871 189.512 204.875 189.547Z" fill="white"/>
<path d="M232.215 200.521C232.081 201.648 228.858 207.503 227.137 209.618C228.763 206.545 230.388 203.473 232.014 200.4C232.081 200.44 232.148 200.481 232.215 200.521Z" fill="white"/>
<path d="M263.996 211.374C261.49 209.282 258.983 207.192 256.477 205.101C256.497 205.072 256.518 205.043 256.538 205.015C257.885 205.964 259.288 206.846 260.566 207.883C261.83 208.909 263.261 209.8 264.198 211.167C264.13 211.236 264.063 211.305 263.996 211.374Z" fill="white"/>
<path d="M234.867 210.951C235.3 207.668 235.727 204.43 236.163 201.121C236.266 201.267 236.422 201.388 236.428 201.516C236.454 202.023 236.471 202.536 236.421 203.04C236.168 205.546 235.747 208.021 235.038 210.442C234.992 210.601 234.933 210.756 234.867 210.951Z" fill="white"/>
<path d="M253.673 223.268C251.361 222.717 246.71 217.282 245.573 214.283C247.72 217.773 250.211 220.951 253.673 223.268Z" fill="white"/>
<path d="M233.156 167.681C233.629 171.81 234.285 175.928 233.798 180.111C233.712 178.034 233.666 175.954 233.529 173.88C233.393 171.822 233.163 169.771 232.974 167.716C233.035 167.705 233.096 167.693 233.156 167.681Z" fill="white"/>
<path d="M249.232 169.573C250.558 166.863 251.971 164.44 253.818 162.297C253.881 162.318 253.944 162.34 254.007 162.361C254.011 162.508 254.078 162.699 254.011 162.798C252.51 165.017 250.994 167.227 249.479 169.436C249.464 169.458 249.429 169.465 249.232 169.573Z" fill="white"/>
<path d="M213.614 180.493C210.714 179.552 207.938 178.726 205.191 177.806C206.122 177.486 212.072 179.427 213.614 180.493Z" fill="white"/>
<path d="M240.795 194.498C241.89 194.548 244.805 196.949 247.637 200.078C245.509 198.343 243.152 196.421 240.795 194.498Z" fill="white"/>
<path d="M214.667 156.231C215.913 158.164 217.045 160.152 217.884 162.314C217.27 161.333 216.613 160.376 216.053 159.366C215.5 158.368 214.698 157.469 214.667 156.231Z" fill="white"/>
<path d="M248.58 180.834C246.439 183.269 243.351 185.848 242.069 186.067C244.447 184.156 246.719 182.329 248.58 180.834Z" fill="white"/>
<path d="M230.678 221.08C230.049 223.262 229.249 225.408 227.627 227.124C227.683 226.329 228.323 225.837 228.616 225.159C228.912 224.474 229.297 223.827 229.637 223.16C229.988 222.469 230.332 221.773 230.678 221.08Z" fill="white"/>
<path d="M230.981 158.76C230.317 156.684 229.651 154.61 228.994 152.531C228.974 152.468 229.046 152.376 229.077 152.29C229.67 152.731 230.85 156.519 230.981 158.76Z" fill="white"/>
<path d="M195.069 185.829C196.996 186.429 198.798 186.99 200.6 187.551C200.583 187.615 200.566 187.679 200.549 187.743C198.989 187.383 197.424 187.033 195.868 186.652C195.529 186.569 195.085 186.521 195.069 185.829Z" fill="white"/>
<path d="M267.042 199.711C265.193 198.767 263.345 197.824 261.497 196.882C263.504 197.521 265.551 198.082 267.042 199.711Z" fill="white"/>
<path d="M230.144 182.161C229.686 181.74 228.865 178.877 228.471 176.493C229.275 178.304 229.831 180.189 230.144 182.161Z" fill="white"/>
<path d="M260.739 207.093C262.442 208.096 264.093 208.89 265.545 210.322C264.697 210.195 261.731 208.157 260.739 207.093Z" fill="white"/>
<path d="M252.325 162.821C251.297 164.306 250.269 165.792 249.252 167.26C249.571 165.913 251.267 163.251 252.162 162.707C252.216 162.745 252.27 162.783 252.325 162.821Z" fill="white"/>
<path d="M220.851 187.116C222.343 187.132 225.909 187.982 226.586 188.553C224.491 188.246 222.663 187.712 220.851 187.116Z" fill="white"/>
<path d="M241.55 190.698C241.438 192.277 239.521 193.338 237.765 192.937C240.052 192.367 240.609 192.047 241.55 190.698Z" fill="white"/>
<path d="M235.334 190.893C234.655 190.292 234.399 188.356 234.758 186.316C234.963 187.945 235.143 189.374 235.334 190.893Z" fill="white"/>
<path d="M232.209 195.599C233.522 194.739 234.224 193.516 235.047 192.351C235.355 193.247 233.837 194.991 232.209 195.599Z" fill="white"/>
<path d="M232.056 194.559C231.093 195.046 230.134 195.092 229.157 194.84C228.756 194.736 228.369 194.569 228.504 193.959C229.584 194.893 230.837 194.469 232.056 194.559Z" fill="white"/>
<path d="M234.428 191.065C233.752 190.345 233.746 189.452 233.812 188.537C234.179 189.333 234.408 190.167 234.428 191.065Z" fill="white"/>
<path d="M236.06 192.826C235.97 193.648 235.439 194.216 234.756 194.866C235.156 194.063 235.492 193.39 235.827 192.718C235.905 192.754 235.983 192.79 236.06 192.826Z" fill="white"/>
<path d="M241.179 192.885C240.764 193.715 240.043 193.871 239.21 193.774C239.867 193.477 240.522 193.18 241.179 192.885Z" fill="white"/>
<path d="M232.849 224.365C232.55 223.864 232.829 223.693 232.991 223.51C234.279 222.043 231.104 225.668 232.36 224.174C233.943 222.291 233.135 223.609 234.597 221.633C235.97 218.985 236.39 219.868 237.123 216.799C237.774 214.071 238.612 214.118 236.29 219.13C237.449 214.946 238.869 213.326 237.188 217.301C237.188 217.301 237.225 217.393 237.192 217.176C237.016 217.484 237.004 217.765 236.892 217.974C236.17 219.322 235.525 220.717 234.717 222.011C232.353 225.8 228.954 227.514 224.483 226.813C222.557 226.512 220.622 226.181 218.744 225.667C214.555 224.522 211.827 221.803 210.716 217.592C210.04 215.031 209.666 212.4 209.75 209.742C209.883 205.547 211.384 201.894 214.384 198.926C215.08 198.238 215.947 197.721 216.742 197.135C217.002 196.943 217.282 196.78 217.671 196.527C217.446 196.467 217.348 196.411 217.26 196.423C212.887 196.996 208.706 196.114 204.605 194.715C201.728 193.733 199.135 192.252 197.015 190.033C195.462 188.408 194.547 186.504 194.574 184.21C194.591 182.765 195.076 181.513 196.064 180.453C198.365 177.983 201.132 176.7 204.571 176.966C205.761 177.058 206.975 177.024 208.163 176.906C211.33 176.59 214.332 177.183 217.202 178.469C218.733 179.155 220.202 179.976 221.701 180.731C221.877 180.82 222.066 180.883 222.312 180.868C221.778 180.24 221.234 179.62 220.709 178.984C217.773 175.431 215.506 171.504 214.118 167.094C213.296 164.483 212.954 161.807 213.298 159.084C213.87 154.563 216.478 151.56 220.62 149.961C224.339 148.526 228.515 150.007 230.617 153.572C232.389 156.579 234.346 159.43 236.425 162.223C238.137 164.522 238.933 167.186 239.035 170.055C239.178 174.108 238.734 178.092 237.683 182.009C237.63 182.204 237.592 182.403 237.514 182.747C238.281 182.338 238.714 181.764 239.044 181.169C239.871 179.676 240.676 178.166 241.381 176.612C242.533 174.073 243.54 171.466 244.728 168.943C245.284 167.761 246.061 166.667 246.845 165.613C247.283 165.024 247.876 164.492 248.508 164.118C249.664 163.433 250.872 162.815 252.112 162.298C253.416 161.754 254.8 161.717 256.185 162.058C257.088 162.281 258.008 162.442 258.903 162.694C260.417 163.12 260.792 163.704 260.617 165.266C260.563 165.743 260.449 166.213 260.383 166.688C260.338 167.005 260.327 167.326 260.287 167.811C260.745 167.674 261.086 167.611 261.392 167.472C262.02 167.187 262.616 166.829 263.249 166.559C264.977 165.821 266.727 166.427 267.649 168.067C268.314 169.251 268.548 170.54 268.533 171.885C268.497 175.131 267.492 178.084 265.782 180.808C262.984 185.265 259.234 188.668 254.468 190.93C254.287 191.016 254.119 191.127 253.76 191.332C254.19 191.365 254.411 191.389 254.631 191.397C255.262 191.418 255.892 191.435 256.522 191.451C260.44 191.553 263.352 193.461 265.601 196.533C267.054 198.517 268.068 200.713 268.672 203.099C269.567 206.636 268.761 209.797 266.635 212.707C265.494 214.27 263.949 215.351 262.429 216.471C260.761 217.702 259.166 219.009 257.678 220.461C256.523 221.589 255.284 222.648 253.989 223.613C252.478 224.738 250.765 224.819 249.017 224.162C247.355 223.538 245.981 222.491 244.734 221.246C242.355 218.872 241.106 215.918 240.308 212.729C240.122 211.986 239.993 211.23 239.68 210.471C239.382 211.494 239.087 212.518 238.784 213.54C237.686 216.656 237.643 215.822 237.243 216.878C237.971 215.59 239.821 207.345 239.428 210.291C238.967 213.739 238.214 215.404 235.996 219.999C234.981 221.655 235.393 221.345 234.157 222.843C232.132 225.298 235.526 221.357 233.429 223.753C233.261 223.943 233.078 224.124 232.849 224.365ZM226.075 193.772C225.364 194.03 224.523 194.345 223.674 194.639C221.257 195.475 218.878 196.406 216.738 197.826C215.82 198.435 214.911 199.125 214.185 199.943C211.568 202.894 210.285 206.391 210.317 210.335C210.337 212.838 210.661 215.322 211.344 217.727C212.421 221.517 214.915 224.014 218.706 225.057C220.726 225.613 222.813 225.966 224.891 226.264C228.841 226.83 231.907 225.275 234.041 221.988C236.425 218.313 238.186 214.341 239.181 210.057C239.992 206.569 240.232 203.051 239.6 199.504C239.544 199.188 239.457 198.879 239.386 198.574C239.274 198.583 239.234 198.574 239.218 198.589C239.031 198.78 238.829 198.961 238.666 199.171C237.311 200.906 235.542 201.398 233.447 200.931C233.183 200.872 232.92 200.812 232.657 200.749C231.481 200.466 230.617 199.779 230.022 198.731C229.554 197.905 229.235 197.049 229.441 196.092C229.072 195.649 228.728 195.237 228.384 194.824C228.362 194.859 228.341 194.894 228.32 194.928C227.61 194.562 226.899 194.197 226.075 193.772ZM242.122 194.14C240.908 194.636 240.085 195.382 240.033 196.727C240.03 196.785 240.007 196.846 239.979 196.898C239.729 197.349 239.761 197.811 239.878 198.295C240.554 201.101 240.633 203.937 240.327 206.8C240.235 207.661 240.197 208.542 240.27 209.403C240.478 211.847 241.121 214.186 242.128 216.425C243.261 218.943 244.881 221.063 247.209 222.59C248.402 223.371 249.666 223.989 251.142 223.971C251.718 223.964 252.312 223.925 252.728 223.467C253.231 222.915 253.786 222.375 254.138 221.731C254.697 220.711 255.152 219.626 255.572 218.538C256.835 215.265 258.984 212.863 262.276 211.54C262.665 211.384 263.053 211.216 263.42 211.014C264.768 210.272 266.083 209.467 266.916 208.121C268.229 206.002 268.208 203.714 267.519 201.429C266.906 199.398 265.83 197.57 264.461 195.961C262.786 193.993 260.73 192.573 258.09 192.199C255.566 191.841 253.059 191.864 250.589 192.593C249.61 192.882 248.628 193.163 247.643 193.431C245.811 193.929 243.96 194.298 242.122 194.14ZM235.476 184.47C236.609 183.668 237.064 182.573 237.338 181.334C238.145 177.68 238.584 173.997 238.462 170.249C238.361 167.18 237.416 164.424 235.567 161.973C234.521 160.586 233.43 159.227 232.46 157.787C231.708 156.671 231.131 155.44 230.449 154.275C228.148 150.341 223.958 149.123 220.405 150.65C216.662 152.258 214.333 155.076 213.877 159.226C213.76 160.295 213.767 161.388 213.828 162.463C213.991 165.322 214.883 167.996 216.054 170.583C217.575 173.942 219.595 176.986 222.029 179.744C223.18 181.048 224.434 182.262 225.677 183.48C226.156 183.948 226.738 184.31 227.305 184.746C227.486 184.456 227.596 184.281 227.706 184.105C228.618 182.65 229.977 181.892 231.641 181.721C232.175 181.666 232.771 181.818 233.283 182.018C234.273 182.406 234.662 183.291 234.86 184.297C235.101 184.364 235.324 184.428 235.476 184.47ZM238.747 182.556C240.345 182.932 241.19 184 241.891 185.226C242.381 186.085 242.83 186.971 243.368 187.8C244.504 189.548 244.203 191.212 243.172 192.862C243.05 193.055 242.933 193.251 242.763 193.527C243.029 193.56 243.196 193.604 243.361 193.6C244.823 193.563 245.962 192.78 247.072 191.954C248.52 190.877 249.466 189.368 250.501 187.933C252.126 185.68 253.95 183.633 256.429 182.252C258.629 181.028 260.812 179.774 262.967 178.473C264.546 177.52 265.955 176.345 266.898 174.72C268.136 172.587 268.273 170.4 267.051 168.21C266.394 167.032 265.088 166.532 263.809 166.95C263.328 167.107 262.882 167.369 262.421 167.585C261.959 167.801 261.513 168.062 261.033 168.225C260.152 168.525 259.676 168.156 259.76 167.233C259.819 166.577 259.978 165.93 260.066 165.276C260.138 164.742 260.205 164.197 259.766 163.587C257.945 162.968 256.005 162.377 253.928 162.449C253.572 162.461 253.211 162.542 252.867 162.644C249.914 163.523 247.494 165.096 245.929 167.853C244.65 170.106 243.697 172.499 242.688 174.874C241.892 176.749 241.027 178.597 240.13 180.427C239.783 181.14 239.265 181.771 238.747 182.556ZM227.043 185.293C226.237 184.594 225.477 183.922 224.703 183.266C224.386 182.996 224.055 182.736 223.705 182.51C221.437 181.034 219.019 179.832 216.531 178.789C213.806 177.646 210.966 177.145 207.99 177.493C206.925 177.617 205.824 177.662 204.761 177.549C201.992 177.254 199.602 178.104 197.472 179.784C195.694 181.187 194.784 183.014 195.205 185.311C195.366 186.182 195.652 187.066 196.066 187.846C196.549 188.76 197.106 189.682 198.124 190.151C200.799 191.383 203.586 191.907 206.535 191.59C207.965 191.436 209.409 191.346 210.847 191.35C211.702 191.351 212.597 191.474 213.404 191.749C214.932 192.27 216.428 192.898 217.902 193.559C220.637 194.786 223.262 194.405 225.908 193.173C225.114 190.363 226.045 187.82 227.043 185.293ZM246.98 192.808C247.005 192.862 247.03 192.916 247.054 192.969C248.968 192.39 250.936 191.998 252.785 191.195C257.138 189.304 260.803 186.513 263.721 182.771C265.356 180.675 266.662 178.389 267.378 175.803C267.47 175.473 267.528 175.133 267.601 174.798C267.092 175.292 266.722 175.831 266.3 176.328C265.078 177.764 263.503 178.76 261.934 179.761C259.81 181.116 257.665 182.445 255.938 184.32C254.899 185.446 253.868 186.578 252.84 187.714C251.447 189.252 249.985 190.713 248.283 191.914C247.851 192.217 247.414 192.51 246.98 192.808ZM234.377 190.476C234.602 190.49 234.813 190.472 235.008 190.52C235.625 190.675 236.163 190.465 236.6 190.09C237.074 189.683 237.516 189.214 237.881 188.707C238.475 187.879 238.423 187.292 237.777 186.507C237.588 186.277 237.369 186.057 237.125 185.89C235.342 184.676 233.463 184.465 231.501 185.42C230.185 186.06 229.491 187.197 229.171 188.564C228.984 189.368 229.238 190.092 229.83 190.706C230.508 191.41 231.371 191.734 232.276 191.966C232.928 192.133 233.453 191.878 233.826 191.321C234.007 191.05 234.182 190.775 234.377 190.476ZM199.339 191.21C199.499 191.414 199.551 191.525 199.638 191.584C200.034 191.853 200.43 192.126 200.843 192.366C204.602 194.549 208.714 195.563 212.994 196.001C214.953 196.202 216.893 196.062 218.809 195.605C219.025 195.553 219.231 195.467 219.442 195.397C217.283 195.024 215.362 194.091 213.403 193.285C211.136 192.352 208.801 191.952 206.36 192.157C206.18 192.172 206 192.171 205.82 192.178C203.794 192.243 201.798 192.106 199.889 191.339C199.76 191.286 199.615 191.272 199.339 191.21ZM228.958 190.799C228.27 191.707 228.121 192.859 228.665 194.042C229.406 195.651 230.696 196.672 232.336 197.286C234.466 198.082 236.707 196.268 236.631 193.858C236.621 193.526 236.36 193.118 236.091 192.895C235.603 192.492 235.01 192.302 234.332 192.37C233.205 192.484 232.047 192.692 230.987 192.091C230.292 191.698 229.637 191.234 228.958 190.799ZM255.605 221.643C255.777 221.486 255.956 221.337 256.12 221.173C257.909 219.392 259.758 217.684 261.814 216.205C263.2 215.207 264.618 214.241 265.73 212.91C267.17 211.186 268.089 209.232 268.386 206.999C268.423 206.715 268.408 206.424 268.416 206.136C268.241 206.276 268.193 206.435 268.145 206.594C267.82 207.676 267.349 208.705 266.464 209.417C265.324 210.334 264.087 211.128 262.907 211.997C261.944 212.706 260.883 213.333 260.08 214.196C258.08 216.345 256.995 219.087 255.605 221.643ZM235.955 196.989C237.144 197.3 238.073 196.951 238.807 196.182C240.168 194.758 240.984 193.055 241.256 191.084C241.46 189.595 240.642 187.777 238.751 187.086C238.859 187.995 238.543 188.75 237.968 189.397C237.549 189.867 237.113 190.325 236.659 190.761C236.205 191.198 235.989 191.674 236.261 192.297C237.493 193.63 237.442 194.653 235.955 196.989ZM226.197 191.739C226.855 190.682 227.404 189.732 228.022 188.827C228.932 187.497 229.593 186.083 229.826 184.47C229.893 184.011 230.155 183.58 230.325 183.136C230.381 182.988 230.432 182.837 230.513 182.61C229.42 182.826 228.734 183.475 228.261 184.272C227.069 186.278 226.282 188.437 226.156 190.797C226.143 191.076 226.179 191.356 226.197 191.739ZM240.349 187.242C240.299 185.748 240.214 184.293 238.973 183.224C237.803 183.079 236.732 183.647 236.212 184.687C237.561 185.537 238.703 186.711 240.349 187.242ZM239.514 196.205C238.276 197.616 236.831 197.93 235.229 197.454C233.263 198.644 231.647 197.648 229.975 196.64C229.922 197.512 230.304 198.114 230.682 198.717C231.072 199.339 231.651 199.521 232.318 199.321C232.8 199.177 233.263 198.948 233.711 198.712C234.503 198.295 235.322 198.091 236.224 198.191C236.698 198.244 237.187 198.258 237.659 198.204C238.521 198.105 239.289 197.301 239.514 196.205ZM234.143 184.238C234.091 183.361 233.571 182.664 232.793 182.369C232.075 182.097 231.504 182.247 231.047 182.866C230.499 183.608 230.23 184.447 230.234 185.531C231.455 184.646 232.756 184.276 234.143 184.238ZM240.377 183.956C240.564 185.037 240.747 186.031 240.907 187.029C241.008 187.662 241.161 188.264 241.642 188.726C242.251 189.31 242.866 189.889 243.51 190.501C243.701 189.689 243.478 188.991 243.101 188.33C242.509 187.291 241.914 186.253 241.294 185.23C241.033 184.801 240.707 184.411 240.377 183.956ZM233.057 200.182C235.24 200.911 237.055 200.505 238.28 198.703C236.445 198.824 234.636 198.909 233.057 200.182ZM241.994 190.329C241.684 191.581 241.38 192.803 241.052 194.124C241.83 193.605 242.575 193.14 242.749 192.163C242.885 191.393 242.606 190.785 241.994 190.329ZM227.973 194.163C227.852 192.281 227.854 192.282 228.63 190.218C228.67 190.112 228.603 189.967 228.573 189.739C227.55 190.963 226.633 192.098 227.098 193.812C227.357 193.915 227.644 194.031 227.973 194.163Z" fill="white"/>
</g>
</svg>
