<svg width="365" height="247" viewBox="0 0 365 247" fill="none" xmlns="http://www.w3.org/2000/svg">
<g style="mix-blend-mode:plus-lighter" opacity="0.05">
<path d="M1.40625 113.637L3.84711 113.415C35.2456 110.581 66.9063 113.529 97.2056 122.108V122.108" stroke="white" stroke-width="2" stroke-miterlimit="10"/>
<path d="M2.82568 102.712H5.26655C36.804 102.654 68.0757 108.382 97.4769 119.601V119.601" stroke="white" stroke-width="2" stroke-miterlimit="10"/>
<path d="M5.22168 91.9558L7.66254 92.1692C39.0728 94.8922 69.6911 103.351 97.9473 117.113V117.113" stroke="white" stroke-width="2" stroke-miterlimit="10"/>
<path d="M8.60303 81.4574L11.0077 81.8841C42.0578 87.3612 71.7964 98.4853 98.698 114.686V114.686" stroke="white" stroke-width="2" stroke-miterlimit="10"/>
<path d="M12.9146 71.2969L15.2741 71.928C45.6834 80.1268 74.2718 93.8282 99.5742 112.33V112.33" stroke="white" stroke-width="2" stroke-miterlimit="10"/>
<path d="M18.1411 61.5542L20.4373 62.4431C49.9764 73.2876 77.2005 89.4519 100.715 110.108V110.108" stroke="white" stroke-width="2" stroke-miterlimit="10"/>
<path d="M24.2324 52.3181L26.4382 53.3848C54.8724 66.789 80.5149 85.2899 102.051 107.939V107.939" stroke="white" stroke-width="2" stroke-miterlimit="10"/>
<path d="M31.1489 43.651L33.2463 44.8777C60.3423 60.7357 84.1941 81.422 103.579 105.876V105.876" stroke="white" stroke-width="2" stroke-miterlimit="10"/>
<path d="M38.8154 35.6061L40.7952 37.0106C66.3381 55.1933 88.2095 77.8994 105.288 103.965V103.965" stroke="white" stroke-width="2" stroke-miterlimit="10"/>
<path d="M47.1865 28.3169L48.9946 29.8992C72.7784 50.2545 92.4918 74.794 107.123 102.258V102.258" stroke="white" stroke-width="2" stroke-miterlimit="10"/>
<path d="M56.2002 21.7745L57.8726 23.508C79.7024 45.8804 97.0978 72.0595 109.167 100.703V100.703" stroke="white" stroke-width="2" stroke-miterlimit="10"/>
<path d="M65.7646 16.0496L67.2924 17.9252C86.9941 42.1337 101.934 69.7415 111.345 99.3338V99.3338" stroke="white" stroke-width="2" stroke-miterlimit="10"/>
<path d="M75.8169 11.1871L77.1639 13.1961C94.5796 39.0433 106.941 67.8572 113.614 98.1604V98.1604" stroke="white" stroke-width="2" stroke-miterlimit="10"/>
<path d="M86.2676 7.23145L87.4247 9.34711C102.415 36.625 112.1 66.4128 115.983 97.1827" stroke="white" stroke-width="2" stroke-miterlimit="10"/>
<path d="M97.0347 4.21802L98.002 6.43146C110.442 34.9208 117.374 65.4404 118.442 96.4272V96.4272" stroke="white" stroke-width="2" stroke-miterlimit="10"/>
<path d="M108.037 2.16455L108.796 4.49356C118.592 33.9643 122.712 64.973 120.946 95.9293V95.9293" stroke="white" stroke-width="2" stroke-miterlimit="10"/>
<path d="M119.183 1.08899L119.726 3.42689C126.797 33.6449 128.076 64.8948 123.495 95.5738V95.5738" stroke="white" stroke-width="2" stroke-miterlimit="10"/>
<path d="M130.383 1L130.709 3.38234C134.995 34.1003 133.419 65.3348 126.062 95.4848V95.4848" stroke="white" stroke-width="2" stroke-miterlimit="10"/>
<path d="M141.539 1.89783L141.657 4.29795C143.124 35.2696 138.707 66.2388 128.63 95.6181V95.6181" stroke="white" stroke-width="2" stroke-miterlimit="10"/>
<path d="M152.578 3.77356L152.469 6.17368C151.11 37.1432 143.887 67.5915 131.17 95.956V95.956" stroke="white" stroke-width="2" stroke-miterlimit="10"/>
<path d="M163.399 6.61816L163.073 9.00051C158.891 39.7325 148.921 69.4291 133.674 96.5694V96.5694" stroke="white" stroke-width="2" stroke-miterlimit="10"/>
<path d="M173.912 10.4049L173.369 12.7428C166.407 42.9844 153.769 71.6839 136.105 97.3693V97.3693" stroke="white" stroke-width="2" stroke-miterlimit="10"/>
<path d="M184.038 15.0986L183.288 17.3832C173.594 46.8864 158.394 74.3551 138.466 98.3829V98.3829" stroke="white" stroke-width="2" stroke-miterlimit="10"/>
<path d="M193.702 20.672L192.744 22.8766C180.405 51.4126 162.761 77.4352 140.717 99.6093V99.6093" stroke="white" stroke-width="2" stroke-miterlimit="10"/>
<path d="M202.814 27.0636L201.657 29.1882C186.765 56.5159 166.822 80.874 142.851 101.014V101.014" stroke="white" stroke-width="2" stroke-miterlimit="10"/>
<path d="M211.304 34.2461L209.966 36.2551C192.647 62.1539 170.574 84.6543 144.876 102.605V102.605" stroke="white" stroke-width="2" stroke-miterlimit="10"/>
<path d="M219.114 42.1399L217.586 44.0244C197.971 68.2997 173.923 88.7634 146.675 104.365V104.365" stroke="white" stroke-width="2" stroke-miterlimit="10"/>
<path d="M226.165 50.718L224.474 52.4959C202.725 74.9454 176.908 93.2083 148.347 106.348V106.348" stroke="white" stroke-width="2" stroke-miterlimit="10"/>
<path d="M232.411 59.8296L230.54 61.3852C206.831 81.8239 179.453 97.7353 149.811 108.303V108.303" stroke="white" stroke-width="2" stroke-miterlimit="10"/>
<path d="M237.773 69.4835L235.794 70.9058C210.316 89.1715 181.599 102.608 151.114 110.526V110.526" stroke="white" stroke-width="2" stroke-miterlimit="10"/>
<path d="M242.293 79.5817L240.196 80.8173C213.155 96.7652 183.329 107.618 152.244 112.819V112.819" stroke="white" stroke-width="2" stroke-miterlimit="10"/>
<path d="M245.827 90.0178L243.631 91.0668C215.244 104.569 184.546 112.748 153.111 115.184V115.184" stroke="white" stroke-width="2" stroke-miterlimit="10"/>
<path d="M248.413 100.738L246.126 101.627C216.622 112.569 185.302 118.011 153.771 117.672V117.672" stroke="white" stroke-width="2" stroke-miterlimit="10"/>
<path d="M250.004 111.637L247.654 112.277C217.271 120.579 185.58 123.238 154.205 120.117V120.117" stroke="white" stroke-width="2" stroke-miterlimit="10"/>
<path d="M250.6 122.633L248.195 123.069C217.178 128.654 185.374 128.506 154.412 122.633" stroke="white" stroke-width="2" stroke-miterlimit="10"/>
<path d="M250.184 133.638L247.753 133.86C216.353 136.687 184.694 133.736 154.394 125.157V125.157" stroke="white" stroke-width="2" stroke-miterlimit="10"/>
<path d="M248.775 144.563H246.334C214.797 144.621 183.525 138.893 154.124 127.673V127.673" stroke="white" stroke-width="2" stroke-miterlimit="10"/>
<path d="M246.37 155.319L243.938 155.106C212.543 152.37 181.942 143.908 153.698 130.153V130.153" stroke="white" stroke-width="2" stroke-miterlimit="10"/>
<path d="M242.997 165.817L240.593 165.391C209.541 159.914 179.802 148.787 152.902 132.58V132.58" stroke="white" stroke-width="2" stroke-miterlimit="10"/>
<path d="M238.677 175.978L236.318 175.338C205.909 167.142 177.32 153.444 152.018 134.944V134.944" stroke="white" stroke-width="2" stroke-miterlimit="10"/>
<path d="M233.461 185.72L231.165 184.832C201.628 173.984 174.404 157.82 150.888 137.167V137.167" stroke="white" stroke-width="2" stroke-miterlimit="10"/>
<path d="M227.368 194.956L225.162 193.916C196.728 180.512 171.085 162.011 149.549 139.362V139.362" stroke="white" stroke-width="2" stroke-miterlimit="10"/>
<path d="M220.452 203.615L218.355 202.379C191.259 186.524 167.408 165.841 148.022 141.389V141.389" stroke="white" stroke-width="2" stroke-miterlimit="10"/>
<path d="M212.777 211.615L210.797 210.202C185.257 192.022 163.389 169.319 146.313 143.256V143.256" stroke="white" stroke-width="2" stroke-miterlimit="10"/>
<path d="M204.406 218.958L202.598 217.375C178.817 197.016 159.107 172.474 144.479 145.007V145.007" stroke="white" stroke-width="2" stroke-miterlimit="10"/>
<path d="M195.401 225.5L193.71 223.722C171.878 201.348 154.483 175.166 142.416 146.518V146.518" stroke="white" stroke-width="2" stroke-miterlimit="10"/>
<path d="M185.836 231.225L184.308 229.394C164.606 205.185 149.667 177.578 140.255 147.985V147.985" stroke="white" stroke-width="2" stroke-miterlimit="10"/>
<path d="M175.783 236.079L174.436 234.079C157.018 208.232 144.657 179.418 137.986 149.114V149.114" stroke="white" stroke-width="2" stroke-miterlimit="10"/>
<path d="M165.333 240.061L164.176 237.945C149.18 210.66 139.495 180.863 135.618 150.083V150.083" stroke="white" stroke-width="2" stroke-miterlimit="10"/>
<path d="M154.603 243.057L153.635 240.843C141.195 212.354 134.263 181.834 133.195 150.848V150.848" stroke="white" stroke-width="2" stroke-miterlimit="10"/>
<path d="M143.565 245.11L142.806 242.825C133.006 213.353 128.885 182.34 130.656 151.381V151.381" stroke="white" stroke-width="2" stroke-miterlimit="10"/>
<path d="M132.418 246.186L131.867 243.839C124.798 213.623 123.522 182.376 128.106 151.701V151.701" stroke="white" stroke-width="2" stroke-miterlimit="10"/>
<path d="M121.218 246.283L120.883 243.901C116.6 213.183 118.178 181.948 125.539 151.799V151.799" stroke="white" stroke-width="2" stroke-miterlimit="10"/>
<path d="M110.06 245.395L109.943 242.994C108.47 212.017 112.885 181.042 122.961 151.656V151.656" stroke="white" stroke-width="2" stroke-miterlimit="10"/>
<path d="M99.0229 243.501L99.1314 241.101C100.491 210.132 107.714 179.683 120.43 151.319V151.319" stroke="white" stroke-width="2" stroke-miterlimit="10"/>
<path d="M88.2026 240.657L88.5281 238.274C92.7058 207.541 102.676 177.844 117.927 150.705V150.705" stroke="white" stroke-width="2" stroke-miterlimit="10"/>
<path d="M77.688 236.87L78.2304 234.523C85.193 204.284 97.8304 175.588 115.494 149.905V149.905" stroke="white" stroke-width="2" stroke-miterlimit="10"/>
<path d="M67.564 232.176L68.3143 229.883C78.0026 200.38 93.2031 172.913 113.136 148.892V148.892" stroke="white" stroke-width="2" stroke-miterlimit="10"/>
<path d="M57.8721 226.603L58.8303 224.389C71.1729 195.86 88.8165 169.844 110.857 147.674V147.674" stroke="white" stroke-width="2" stroke-miterlimit="10"/>
<path d="M48.832 220.202L49.9892 218.086C64.8837 190.76 84.8264 166.403 108.796 146.261V146.261" stroke="white" stroke-width="2" stroke-miterlimit="10"/>
<path d="M40.2896 213.029L41.6004 211.02C58.9141 185.117 80.9879 162.616 106.69 144.67V144.67" stroke="white" stroke-width="2" stroke-miterlimit="10"/>
<path d="M32.4873 205.135L34.0061 203.25C53.6125 178.978 77.6481 158.512 104.881 142.9V142.9" stroke="white" stroke-width="2" stroke-miterlimit="10"/>
<path d="M25.4351 196.574L27.1165 194.796C48.8652 172.346 74.6829 154.083 103.244 140.945V140.945" stroke="white" stroke-width="2" stroke-miterlimit="10"/>
<path d="M19.188 187.436L20.996 185.854C44.7062 165.414 72.0836 149.5 101.725 138.927V138.927" stroke="white" stroke-width="2" stroke-miterlimit="10"/>
<path d="M13.8008 177.782L15.7806 176.369C41.2563 158.1 69.974 144.663 100.46 136.749V136.749" stroke="white" stroke-width="2" stroke-miterlimit="10"/>
<path d="M9.31641 167.693L11.4137 166.457C38.4519 150.504 68.2797 139.651 99.3661 134.456V134.456" stroke="white" stroke-width="2" stroke-miterlimit="10"/>
<path d="M5.77246 157.248L7.96924 156.199C36.3571 142.703 67.0546 134.527 98.4891 132.091V132.091" stroke="white" stroke-width="2" stroke-miterlimit="10"/>
<path d="M3.1875 146.536L5.47468 145.647C34.9806 134.715 66.3008 129.289 97.8297 129.647V129.647" stroke="white" stroke-width="2" stroke-miterlimit="10"/>
<path d="M1.59668 135.638L3.94714 134.989C34.3293 126.697 66.0166 124.044 97.387 127.166V127.166" stroke="white" stroke-width="2" stroke-miterlimit="10"/>
<path d="M1 124.642L3.4047 124.206C34.4184 118.616 66.2204 118.764 97.179 124.642V124.642" stroke="white" stroke-width="2" stroke-miterlimit="10"/>
</g>
<g style="mix-blend-mode:plus-lighter" opacity="0.12">
<path d="M328.092 70.6896C330.888 68.7014 333.426 66.4876 335.756 64.0223C337.521 62.1566 339.253 60.2659 340.832 58.2385C341.155 57.8237 341.553 57.4679 341.936 57.0994C341.438 57.9833 340.809 58.7699 340.177 59.5633C338.642 61.4906 337.067 63.384 335.295 65.0941C333.168 67.1477 330.998 69.1622 328.356 70.5704C328.272 70.6165 328.18 70.6506 328.092 70.6896Z" fill="white"/>
<path d="M298.953 42.1745C299.636 43.1929 299.952 44.398 300.508 45.4815C301.075 46.587 301.601 47.7133 302.157 48.8245C302.714 49.9348 303.278 51.0418 303.854 52.1426C304.428 53.2399 305.02 54.3282 305.575 55.4372C304.117 53.4252 302.9 51.2677 301.773 49.0565C300.647 46.8474 299.486 44.6531 298.611 42.3333C298.725 42.2802 298.839 42.2271 298.953 42.1745Z" fill="white"/>
<path d="M320.266 81.2439C320.876 82.3967 321.466 83.5593 322.099 84.6985C322.752 85.8743 323.434 87.0346 324.125 88.1893C324.801 89.3207 325.49 90.445 326.199 91.5558C326.906 92.663 327.645 93.7498 328.327 94.7812C326.707 93.5141 320.519 83.4604 320.104 81.3663C320.158 81.325 320.212 81.2847 320.266 81.2439Z" fill="white"/>
<path d="M330.379 89.0624C327.159 85.5807 324.16 81.8972 320.708 78.6292C320.742 78.5711 320.775 78.5129 320.809 78.4548C321 78.5322 321.236 78.5627 321.374 78.6956C322.156 79.4469 322.928 80.2097 323.677 80.9932C324.261 81.6041 324.795 82.2634 325.373 82.8804C327.192 84.8203 328.811 86.9199 330.379 89.0624Z" fill="white"/>
<path d="M301.494 55.3605C304.426 59.675 306.997 64.1855 310.221 68.2615C310.263 68.3145 310.254 68.4074 310.175 68.5862C309.965 68.3916 309.726 68.2197 309.551 67.9978C307.178 64.9927 305.224 61.7099 303.248 58.4425C302.637 57.4308 302.078 56.3882 301.494 55.3605Z" fill="white"/>
<path d="M311.405 81.3877C306.601 84.7569 302.596 88.9616 298.79 93.3746C302.083 88.6786 309.577 81.6988 311.405 81.3877Z" fill="white"/>
<path d="M312.687 82.9882C312.467 84.1889 307.156 91.8528 305.188 93.7371C306.424 91.947 307.675 90.1667 308.891 88.3632C310.117 86.5438 311.309 84.7006 312.515 82.8674C312.573 82.9079 312.63 82.9481 312.687 82.9882Z" fill="white"/>
<path d="M332.576 62.4938C329.167 66.7604 324.341 71.007 322.434 71.3891C323.149 70.6203 324.003 70.3216 324.642 69.75C325.31 69.1535 326.031 68.6174 326.717 68.0414C327.404 67.465 328.086 66.8825 328.753 66.2828C329.421 65.6827 330.083 65.0734 330.72 64.441C331.356 63.8091 331.959 63.144 332.576 62.4938Z" fill="white"/>
<path d="M302.487 85.2342C299.404 88.2552 296.435 91.3055 294.534 95.2564C294.206 95.106 294.302 94.8323 294.412 94.6115C294.752 93.9299 295.063 93.2232 295.489 92.5967C296.936 90.4699 298.704 88.6136 300.538 86.8231C301.134 86.2396 301.834 85.7609 302.487 85.2342Z" fill="white"/>
<path d="M309.442 55.9144C310.947 59.5588 311.94 63.3369 312.701 67.3023C312.144 67.1592 312.198 66.8222 312.136 66.5714C311.467 63.855 310.811 61.1347 310.137 58.4193C309.927 57.5793 309.674 56.7494 309.442 55.9144Z" fill="white"/>
<path d="M313.012 44.3452C313.621 44.6051 313.668 45.0031 313.777 45.34C314.705 48.2152 315.385 51.1461 315.721 54.1531C315.775 54.6382 315.817 55.1241 315.815 55.6147C315.088 51.8655 314.264 48.1456 313.012 44.3452Z" fill="white"/>
<path d="M308.323 73.1699C307.937 73.5725 307.603 73.4482 307.323 73.4018C305.549 73.1077 303.769 72.8357 302.01 72.4611C300.206 72.0765 298.426 71.5821 296.634 71.1359C296.645 71.0828 296.657 71.0292 296.668 70.9761C297.623 71.1733 298.577 71.371 299.533 71.5668C300.492 71.763 301.45 71.9623 302.411 72.1495C303.398 72.3414 304.389 72.5135 305.376 72.7045C306.312 72.886 307.279 72.9151 308.323 73.1699Z" fill="white"/>
<path d="M312.57 97.2294C312.105 98.5157 311.701 99.8282 311.16 101.082C310.492 102.63 309.723 104.135 308.968 105.645C308.798 105.986 308.506 106.267 308.27 106.575C308.218 106.552 308.167 106.529 308.115 106.506C308.136 106.349 308.108 106.161 308.185 106.039C309.94 103.258 311.053 100.173 312.412 97.204C312.464 97.2124 312.517 97.2209 312.57 97.2294Z" fill="white"/>
<path d="M336.259 79.9591C339.713 80.6374 344.34 82.9449 345.267 84.4721C345.032 84.3869 344.835 84.3736 344.729 84.269C343.374 82.9333 341.621 82.2972 339.945 81.5324C338.774 80.9984 337.578 80.5192 336.259 79.9591Z" fill="white"/>
<path d="M289.414 73.5743C288.318 73.4654 287.213 73.4086 286.127 73.2345C284.775 73.0176 283.437 72.7167 282.099 72.4229C281.739 72.3437 281.345 72.2286 281.194 71.7482C283.98 72.3365 286.691 72.9092 289.404 73.4819C289.407 73.5131 289.41 73.5439 289.414 73.5743Z" fill="white"/>
<path d="M313.519 83.2503C313.402 84.2438 310.56 89.4061 309.042 91.2711C310.476 88.5619 311.909 85.8527 313.343 83.1435C313.401 83.1791 313.46 83.2151 313.519 83.2503Z" fill="white"/>
<path d="M341.542 92.8194C339.332 90.9755 337.122 89.1321 334.912 87.2882C334.93 87.2632 334.948 87.2376 334.966 87.2125C336.154 88.05 337.391 88.8275 338.518 89.7417C339.632 90.6464 340.894 91.4322 341.72 92.6371C341.66 92.6982 341.601 92.7588 341.542 92.8194Z" fill="white"/>
<path d="M315.859 92.4469C316.241 89.5516 316.617 86.697 317.001 83.7792C317.092 83.908 317.23 84.0145 317.235 84.1276C317.258 84.5746 317.273 85.0271 317.228 85.4709C317.006 87.6805 316.635 89.8631 316.009 91.9982C315.969 92.1379 315.917 92.2745 315.859 92.4469Z" fill="white"/>
<path d="M332.44 103.307C330.401 102.821 326.301 98.0283 325.298 95.3842C327.191 98.4613 329.387 101.263 332.44 103.307Z" fill="white"/>
<path d="M314.35 54.2948C314.767 57.9348 315.345 61.5657 314.916 65.2541C314.84 63.4228 314.8 61.5888 314.679 59.7605C314.559 57.9461 314.356 56.1373 314.19 54.3259C314.243 54.3155 314.297 54.3052 314.35 54.2948Z" fill="white"/>
<path d="M328.524 55.9631C329.693 53.5736 330.939 51.4368 332.568 49.5474C332.623 49.5661 332.678 49.5852 332.734 49.6039C332.738 49.7341 332.797 49.9017 332.738 49.9896C331.414 51.9463 330.077 53.8944 328.742 55.8425C328.729 55.862 328.697 55.8682 328.524 55.9631Z" fill="white"/>
<path d="M297.119 65.5912C294.562 64.7616 292.114 64.033 289.692 63.2223C290.513 62.9396 295.759 64.6509 297.119 65.5912Z" fill="white"/>
<path d="M321.085 77.9398C322.05 77.9837 324.62 80.1006 327.117 82.8595C325.241 81.3296 323.163 79.635 321.085 77.9398Z" fill="white"/>
<path d="M298.048 44.1989C299.146 45.9033 300.145 47.656 300.884 49.5623C300.343 48.6973 299.763 47.8535 299.27 46.9626C298.782 46.0833 298.075 45.2907 298.048 44.1989Z" fill="white"/>
<path d="M327.949 65.8919C326.062 68.0391 323.339 70.3132 322.208 70.5055C324.305 68.8206 326.309 67.2101 327.949 65.8919Z" fill="white"/>
<path d="M312.165 101.378C311.61 103.301 310.905 105.194 309.474 106.707C309.524 106.006 310.088 105.572 310.346 104.974C310.608 104.37 310.947 103.8 311.247 103.211C311.557 102.602 311.86 101.989 312.165 101.378Z" fill="white"/>
<path d="M312.432 46.429C311.846 44.5989 311.259 42.7697 310.68 40.9372C310.662 40.8812 310.726 40.7999 310.753 40.724C311.276 41.1133 312.316 44.4528 312.432 46.429Z" fill="white"/>
<path d="M280.768 70.2961C282.468 70.8253 284.056 71.3198 285.645 71.8143C285.63 71.8706 285.615 71.9274 285.6 71.9837C284.224 71.6659 282.845 71.358 281.473 71.0221C281.174 70.9489 280.782 70.9063 280.768 70.2961Z" fill="white"/>
<path d="M344.227 82.5357C342.598 81.7039 340.968 80.8721 339.338 80.0413C341.108 80.6049 342.913 81.0995 344.227 82.5357Z" fill="white"/>
<path d="M311.694 67.0621C311.29 66.6904 310.566 64.1665 310.219 62.0643C310.928 63.6608 311.418 65.3228 311.694 67.0621Z" fill="white"/>
<path d="M338.671 89.045C340.172 89.9293 341.628 90.6291 342.908 91.8915C342.16 91.7803 339.545 89.9832 338.671 89.045Z" fill="white"/>
<path d="M331.251 50.0097C330.345 51.3191 329.438 52.629 328.542 53.9238C328.823 52.7363 330.318 50.3884 331.107 49.9087C331.155 49.9428 331.203 49.976 331.251 50.0097Z" fill="white"/>
<path d="M303.5 71.4313C304.816 71.4455 307.96 72.195 308.557 72.6977C306.71 72.4271 305.098 71.9564 303.5 71.4313Z" fill="white"/>
<path d="M321.751 74.5889C321.652 75.9816 319.962 76.917 318.414 76.5629C320.43 76.0603 320.921 75.7781 321.751 74.5889Z" fill="white"/>
<path d="M316.27 74.7609C315.672 74.2313 315.445 72.5243 315.762 70.7258C315.943 72.1619 316.102 73.4221 316.27 74.7609Z" fill="white"/>
<path d="M313.515 78.9106C314.673 78.1519 315.291 77.0737 316.017 76.0465C316.289 76.8366 314.95 78.3743 313.515 78.9106Z" fill="white"/>
<path d="M313.38 77.9934C312.531 78.4232 311.685 78.4631 310.824 78.2411C310.47 78.15 310.129 78.0027 310.248 77.4643C311.2 78.2877 312.305 77.9144 313.38 77.9934Z" fill="white"/>
<path d="M315.471 74.9126C314.876 74.2782 314.87 73.4902 314.929 72.684C315.252 73.3859 315.453 74.1209 315.471 74.9126Z" fill="white"/>
<path d="M316.91 76.4657C316.831 77.1906 316.363 77.6916 315.761 78.264C316.113 77.5561 316.41 76.963 316.705 76.3699C316.773 76.4017 316.842 76.434 316.91 76.4657Z" fill="white"/>
<path d="M321.424 76.5171C321.058 77.2489 320.422 77.3868 319.687 77.3011C320.266 77.0394 320.845 76.7778 321.424 76.5171Z" fill="white"/>
<path d="M314.079 104.274C313.816 103.832 314.062 103.682 314.204 103.52C315.34 102.226 312.54 105.423 313.648 104.106C315.044 102.445 314.331 103.607 315.62 101.865C316.831 99.53 317.201 100.309 317.847 97.6027C318.421 95.1977 319.16 95.2387 317.113 99.6585C318.135 95.9693 319.387 94.5403 317.905 98.0453C317.905 98.0453 317.938 98.1263 317.908 97.9355C317.753 98.2067 317.743 98.4546 317.644 98.6393C317.008 99.8276 316.438 101.057 315.726 102.198C313.642 105.539 310.644 107.05 306.702 106.433C305.004 106.167 303.298 105.875 301.643 105.422C297.949 104.412 295.544 102.015 294.564 98.3025C293.968 96.0438 293.638 93.7246 293.712 91.381C293.83 87.6815 295.153 84.4609 297.798 81.8437C298.411 81.237 299.176 80.7816 299.877 80.2648C300.106 80.096 300.353 79.9517 300.697 79.7288C300.498 79.6763 300.412 79.6261 300.334 79.6367C296.478 80.1423 292.791 79.3644 289.176 78.1308C286.639 77.2649 284.353 75.9592 282.483 74.0026C281.114 72.5702 280.308 70.8912 280.332 68.8685C280.346 67.5948 280.774 66.4907 281.645 65.5559C283.674 63.3782 286.114 62.2469 289.146 62.4815C290.195 62.563 291.265 62.5329 292.313 62.4283C295.106 62.1499 297.752 62.6728 300.283 63.807C301.632 64.412 302.928 65.1352 304.25 65.8013C304.405 65.8796 304.572 65.9348 304.789 65.9216C304.317 65.3685 303.838 64.8219 303.375 64.2611C300.786 61.1282 298.788 57.6658 297.564 53.7773C296.839 51.4751 296.537 49.1153 296.841 46.7147C297.345 42.7285 299.644 40.0809 303.297 38.6711C306.576 37.4052 310.258 38.7109 312.111 41.8549C313.673 44.5055 315.399 47.0199 317.232 49.4827C318.741 51.5095 319.444 53.8584 319.533 56.388C319.66 59.9612 319.268 63.4745 318.341 66.9283C318.295 67.1001 318.261 67.2755 318.192 67.579C318.868 67.2177 319.251 66.7118 319.541 66.1873C320.27 64.8713 320.98 63.5393 321.602 62.1697C322.618 59.9305 323.506 57.632 324.553 55.4072C325.043 54.3651 325.729 53.4011 326.419 52.4715C326.805 51.9517 327.329 51.4834 327.886 51.1533C328.905 50.5495 329.97 50.004 331.063 49.5482C332.213 49.0685 333.433 49.0359 334.655 49.3367C335.451 49.5331 336.263 49.6758 337.052 49.8979C338.387 50.2737 338.717 50.7879 338.562 52.1655C338.515 52.5856 338.415 53 338.356 53.4195C338.317 53.699 338.307 53.9821 338.272 54.4095C338.676 54.2885 338.976 54.2332 339.246 54.1103C339.8 53.8592 340.325 53.5438 340.884 53.3055C342.407 52.6546 343.95 53.1888 344.763 54.6352C345.349 55.6789 345.555 56.8158 345.542 58.0013C345.511 60.8639 344.624 63.4676 343.117 65.869C340.65 69.7987 337.343 72.7992 333.141 74.7935C332.981 74.8693 332.833 74.9676 332.517 75.1481C332.896 75.1772 333.09 75.1985 333.285 75.2051C333.841 75.2243 334.396 75.2389 334.952 75.2536C338.406 75.3429 340.974 77.0257 342.957 79.7339C344.238 81.4833 345.133 83.4196 345.665 85.5232C346.454 88.6424 345.743 91.4291 343.869 93.9949C342.862 95.3731 341.5 96.3265 340.16 97.3142C338.689 98.3988 337.283 99.5511 335.972 100.832C334.953 101.827 333.861 102.76 332.719 103.611C331.386 104.602 329.876 104.674 328.335 104.095C326.869 103.545 325.658 102.621 324.559 101.524C322.461 99.4308 321.36 96.8259 320.656 94.0142C320.492 93.3596 320.378 92.6926 320.102 92.0235C319.839 92.9254 319.58 93.8282 319.312 94.7294C318.344 97.4766 318.306 96.7417 317.953 97.6726C318.595 96.537 320.226 89.2668 319.88 91.8645C319.474 94.9047 318.809 96.3726 316.854 100.424C315.959 101.885 316.322 101.611 315.232 102.932C313.447 105.097 316.439 101.622 314.59 103.734C314.443 103.902 314.281 104.062 314.079 104.274ZM308.107 77.2999C307.479 77.527 306.738 77.8049 305.99 78.0638C303.858 78.8008 301.76 79.622 299.874 80.8741C299.065 81.4111 298.263 82.0191 297.623 82.7407C295.315 85.3424 294.184 88.426 294.212 91.9033C294.23 94.1103 294.516 96.3009 295.118 98.4215C296.067 101.763 298.266 103.964 301.609 104.884C303.39 105.374 305.23 105.686 307.062 105.948C310.545 106.447 313.249 105.076 315.13 102.178C317.232 98.9382 318.785 95.4355 319.662 91.6585C320.377 88.5826 320.589 85.4812 320.032 82.3533C319.982 82.0753 319.905 81.8025 319.843 81.5338C319.744 81.5418 319.709 81.5337 319.695 81.547C319.53 81.7156 319.352 81.8746 319.208 82.0596C318.013 83.5896 316.453 84.0235 314.606 83.6118C314.374 83.5601 314.142 83.5066 313.91 83.4513C312.873 83.2017 312.111 82.5962 311.587 81.6717C311.173 80.9435 310.892 80.1891 311.074 79.3451C310.749 78.9548 310.445 78.5912 310.142 78.2276C310.123 78.2581 310.105 78.2886 310.086 78.3186C309.46 77.9965 308.833 77.6739 308.107 77.2999ZM322.255 77.6238C321.185 78.0616 320.46 78.7191 320.413 79.9051C320.411 79.9561 320.391 80.0104 320.365 80.0562C320.145 80.4536 320.174 80.861 320.277 81.2876C320.873 83.7619 320.942 86.2625 320.673 88.7866C320.592 89.5455 320.558 90.3229 320.622 91.0821C320.805 93.2365 321.372 95.2989 322.261 97.2729C323.259 99.4933 324.688 101.362 326.741 102.709C327.792 103.398 328.907 103.942 330.209 103.927C330.716 103.921 331.24 103.886 331.607 103.482C332.05 102.996 332.539 102.52 332.85 101.952C333.342 101.052 333.744 100.096 334.114 99.1366C335.228 96.2504 337.123 94.1321 340.025 92.9664C340.368 92.8281 340.71 92.6801 341.034 92.502C342.223 91.8481 343.382 91.1382 344.117 89.9514C345.274 88.0831 345.256 86.0659 344.648 84.0511C344.108 82.2606 343.159 80.648 341.952 79.2301C340.475 77.4948 338.662 76.2426 336.335 75.9127C334.109 75.5968 331.899 75.6171 329.721 76.26C328.858 76.5147 327.992 76.7623 327.124 76.9988C325.508 77.4378 323.876 77.7634 322.255 77.6238ZM316.395 69.0977C317.394 68.391 317.795 67.425 318.037 66.3325C318.749 63.1112 319.136 59.8638 319.028 56.5591C318.939 53.8532 318.106 51.423 316.476 49.262C315.553 48.0386 314.591 46.8408 313.736 45.5709C313.073 44.5869 312.564 43.5013 311.963 42.4746C309.934 39.0054 306.239 37.9323 303.107 39.278C299.807 40.6957 297.753 43.1807 297.352 46.8401C297.248 47.7823 297.254 48.7457 297.308 49.6936C297.452 52.2146 298.238 54.5726 299.271 56.8539C300.612 59.8151 302.393 62.499 304.539 64.9308C305.554 66.0807 306.659 67.1512 307.756 68.2246C308.178 68.6375 308.691 68.9572 309.191 69.3417C309.35 69.086 309.447 68.9308 309.544 68.7761C310.348 67.4936 311.547 66.8246 313.014 66.6742C313.485 66.6257 314.011 66.7598 314.462 66.936C315.334 67.2777 315.678 68.0583 315.852 68.9453C316.065 69.0047 316.261 69.0604 316.395 69.0977ZM319.28 67.4102C320.689 67.7419 321.433 68.6835 322.051 69.7649C322.484 70.5221 322.879 71.3032 323.354 72.0338C324.356 73.5756 324.091 75.0425 323.181 76.497C323.074 76.6676 322.97 76.8404 322.821 77.0833C323.055 77.113 323.202 77.1512 323.348 77.1479C324.637 77.1153 325.641 76.425 326.62 75.6965C327.896 74.7467 328.73 73.4168 329.643 72.1515C331.076 70.1647 332.684 68.3595 334.87 67.1426C336.81 66.0628 338.735 64.9574 340.635 63.8102C342.027 62.9698 343.269 61.9336 344.101 60.5008C345.192 58.6209 345.313 56.6923 344.235 54.7608C343.656 53.7223 342.505 53.2818 341.377 53.6499C340.953 53.7885 340.56 54.0198 340.153 54.2103C339.746 54.4003 339.352 54.6308 338.93 54.7747C338.152 55.0392 337.733 54.7135 337.807 53.8997C337.859 53.3215 337.999 52.7512 338.077 52.1745C338.14 51.7034 338.199 51.2229 337.812 50.6852C336.207 50.1392 334.496 49.6183 332.665 49.6816C332.351 49.6924 332.033 49.7633 331.73 49.8536C329.125 50.6284 326.992 52.0158 325.612 54.4461C324.484 56.4326 323.644 58.5432 322.755 60.6372C322.052 62.2905 321.289 63.9193 320.499 65.5327C320.193 66.1614 319.737 66.7184 319.28 67.4102ZM308.96 69.8239C308.249 69.2072 307.579 68.6151 306.897 68.0366C306.617 67.7986 306.325 67.5694 306.017 67.3693C304.017 66.0683 301.885 65.0087 299.691 64.0891C297.288 63.0814 294.784 62.6393 292.161 62.946C291.222 63.0559 290.251 63.095 289.313 62.9954C286.872 62.7357 284.765 63.4846 282.887 64.966C281.319 66.2031 280.516 67.8137 280.888 69.8392C281.029 70.6075 281.282 71.3869 281.647 72.0748C282.073 72.88 282.564 73.6935 283.462 74.107C285.82 75.1933 288.278 75.6549 290.877 75.3757C292.139 75.24 293.412 75.1608 294.679 75.1637C295.434 75.1652 296.223 75.2731 296.934 75.516C298.282 75.9756 299.601 76.529 300.9 77.112C303.311 78.1933 305.626 77.858 307.959 76.7711C307.259 74.2936 308.08 72.0519 308.96 69.8239ZM326.539 76.4496C326.56 76.4974 326.583 76.5447 326.604 76.592C328.292 76.0809 330.026 75.7351 331.657 75.0272C335.495 73.3601 338.727 70.8991 341.3 67.6C342.741 65.7521 343.892 63.7359 344.524 61.4561C344.605 61.1649 344.656 60.8655 344.721 60.5702C344.272 61.0052 343.945 61.481 343.573 61.9185C342.496 63.1849 341.107 64.0633 339.724 64.9461C337.851 66.1409 335.96 67.3126 334.437 68.9656C333.521 69.9584 332.612 70.9568 331.705 71.9583C330.478 73.3141 329.188 74.6026 327.687 75.6616C327.307 75.9288 326.921 76.1872 326.539 76.4496ZM315.426 74.3934C315.625 74.4057 315.811 74.3897 315.983 74.4327C316.527 74.5694 317.001 74.3834 317.386 74.0529C317.805 73.6939 318.194 73.2809 318.516 72.834C319.04 72.1033 318.994 71.5858 318.424 70.8943C318.258 70.6914 318.065 70.4968 317.849 70.3498C316.278 69.2793 314.621 69.0936 312.89 69.9357C311.731 70.5002 311.118 71.5021 310.836 72.7076C310.671 73.4168 310.896 74.055 311.417 74.5965C312.015 75.2174 312.776 75.5029 313.574 75.7073C314.149 75.8544 314.612 75.6293 314.941 75.1383C315.1 74.8996 315.254 74.657 315.426 74.3934ZM284.533 75.0406C284.674 75.2209 284.72 75.3181 284.796 75.3703C285.146 75.6078 285.494 75.8481 285.859 76.0601C289.173 77.985 292.799 78.8791 296.573 79.2653C298.3 79.4424 300.01 79.3183 301.7 78.9155C301.89 78.8698 302.072 78.7944 302.258 78.7327C300.355 78.4035 298.661 77.5806 296.933 76.8699C294.934 76.0478 292.876 75.6953 290.723 75.8756C290.565 75.8887 290.406 75.8883 290.247 75.8938C288.461 75.9518 286.7 75.8311 285.018 75.1542C284.904 75.1075 284.776 75.0956 284.533 75.0406ZM310.649 74.6782C310.042 75.479 309.911 76.4948 310.39 77.5373C311.044 78.9566 312.181 79.8566 313.627 80.3978C315.505 81.0996 317.481 79.5005 317.414 77.3754C317.405 77.0825 317.175 76.7228 316.938 76.5267C316.507 76.1708 315.985 76.0036 315.386 76.0639C314.393 76.164 313.372 76.3476 312.437 75.8178C311.824 75.4707 311.247 75.0619 310.649 74.6782ZM334.143 101.874C334.295 101.736 334.453 101.604 334.598 101.459C336.175 99.8891 337.805 98.3832 339.618 97.0789C340.84 96.1995 342.091 95.3471 343.071 94.174C344.341 92.6542 345.151 90.9311 345.412 88.9617C345.446 88.7115 345.432 88.455 345.439 88.2015C345.285 88.325 345.243 88.4648 345.2 88.6051C344.914 89.5592 344.498 90.4664 343.718 91.0945C342.713 91.903 341.622 92.6031 340.582 93.3686C339.733 93.994 338.797 94.5469 338.089 95.3082C336.325 97.2025 335.369 99.62 334.143 101.874ZM316.817 80.1359C317.866 80.4107 318.685 80.103 319.333 79.4247C320.532 78.1694 321.252 76.6675 321.491 74.9296C321.672 73.6171 320.95 72.0134 319.283 71.4042C319.378 72.2055 319.1 72.8721 318.593 73.442C318.223 73.8566 317.839 74.2601 317.439 74.6446C317.038 75.0301 316.847 75.4495 317.087 75.9991C318.174 77.1744 318.129 78.0766 316.817 80.1359ZM308.214 75.5068C308.794 74.5755 309.278 73.7372 309.823 72.9398C310.625 71.7665 311.208 70.5205 311.414 69.0982C311.472 68.6934 311.703 68.3132 311.853 67.9217C311.903 67.7911 311.948 67.6583 312.02 67.4582C311.055 67.6484 310.451 68.2209 310.034 68.9232C308.983 70.692 308.289 72.5961 308.178 74.6761C308.166 74.9222 308.198 75.1693 308.214 75.5068ZM320.692 71.5417C320.648 70.2247 320.573 68.9422 319.479 67.9989C318.447 67.8718 317.503 68.372 317.045 69.2894C318.234 70.039 319.241 71.0736 320.692 71.5417ZM319.956 79.4452C318.865 80.6887 317.59 80.9657 316.177 80.5463C314.444 81.5953 313.019 80.717 311.545 79.8288C311.498 80.5976 311.835 81.1277 312.168 81.6593C312.512 82.2081 313.023 82.3684 313.611 82.1925C314.036 82.0655 314.444 81.8633 314.839 81.6553C315.538 81.288 316.259 81.1077 317.055 81.1958C317.473 81.2422 317.904 81.2552 318.32 81.2072C319.08 81.1199 319.757 80.4108 319.956 79.4452ZM315.22 68.8937C315.175 68.1197 314.716 67.5059 314.029 67.2453C313.397 67.0053 312.893 67.1374 312.49 67.6832C312.007 68.338 311.77 69.0773 311.773 70.0337C312.85 69.2529 313.997 68.9268 315.22 68.8937ZM320.717 68.6448C320.882 69.5979 321.043 70.4745 321.184 71.3544C321.273 71.912 321.408 72.4433 321.832 72.8503C322.369 73.3654 322.911 73.8759 323.479 74.4152C323.647 73.6996 323.451 73.0844 323.118 72.5009C322.596 71.5849 322.072 70.6698 321.525 69.7683C321.295 69.3893 321.008 69.0455 320.717 68.6448ZM314.262 82.9512C316.187 83.5945 317.788 83.2365 318.868 81.6473C317.25 81.7538 315.655 81.8288 314.262 82.9512ZM322.142 74.2642C321.869 75.3674 321.601 76.4449 321.312 77.6098C321.997 77.1525 322.655 76.742 322.808 75.881C322.928 75.202 322.682 74.6655 322.142 74.2642ZM309.78 77.644C309.673 75.9854 309.675 75.9862 310.359 74.1661C310.394 74.073 310.336 73.9447 310.309 73.744C309.407 74.8232 308.599 75.824 309.008 77.3351C309.236 77.4258 309.49 77.5276 309.78 77.644Z" fill="white"/>
</g>
</svg>
