<svg width="351" height="166" viewBox="0 0 351 166" fill="none" xmlns="http://www.w3.org/2000/svg">
<g style="mix-blend-mode:plus-lighter" opacity="0.1">
<mask id="mask0_2056_807" style="mask-type:alpha" maskUnits="userSpaceOnUse" x="0" y="52" width="114" height="114">
<path d="M112.742 108.867C112.742 139.721 87.7276 164.733 56.8709 164.733C26.0143 164.733 1 139.721 1 108.867C1 78.0124 26.0143 53 56.8709 53C87.7276 53 112.742 78.0124 112.742 108.867Z" fill="#C4C4C4" stroke="black"/>
</mask>
<g mask="url(#mask0_2056_807)">
<path d="M186.63 73.4551L62.8276 197.248L62.9924 197.412L186.794 73.6199L186.63 73.4551Z" fill="white" stroke="white"/>
<path d="M181.413 71.4048L57.6108 195.197L57.7756 195.362L181.578 71.5696L181.413 71.4048Z" fill="white" stroke="white"/>
<path d="M176.171 69.3545L52.3687 193.147L52.5334 193.312L176.335 69.5193L176.171 69.3545Z" fill="white" stroke="white"/>
<path d="M170.954 67.3041L47.1523 191.097L47.3171 191.261L171.119 67.4689L170.954 67.3041Z" fill="white" stroke="white"/>
<path d="M165.725 65.2665L41.9229 189.059L42.0876 189.224L165.89 65.4313L165.725 65.2665Z" fill="white" stroke="white"/>
<path d="M160.495 63.2289L36.6934 187.021L36.8581 187.186L160.66 63.3936L160.495 63.2289Z" fill="white" stroke="white"/>
<path d="M155.279 61.1786L31.4771 184.971L31.6418 185.136L155.444 61.3434L155.279 61.1786Z" fill="white" stroke="white"/>
<path d="M150.05 59.1409L26.2476 182.933L26.4123 183.098L150.214 59.3056L150.05 59.1409Z" fill="white" stroke="white"/>
<path d="M144.833 57.0906L21.0312 180.883L21.196 181.048L144.998 57.2554L144.833 57.0906Z" fill="white" stroke="white"/>
<path d="M139.604 55.053L15.8018 178.846L15.9665 179.01L139.769 55.2178L139.604 55.053Z" fill="white" stroke="white"/>
<path d="M134.387 53.0026L10.585 176.795L10.7497 176.96L134.552 53.1673L134.387 53.0026Z" fill="white" stroke="white"/>
<path d="M129.158 50.965L5.35547 174.758L5.5202 174.922L129.322 51.1297L129.158 50.965Z" fill="white" stroke="white"/>
<path d="M123.941 48.9147L0.13916 172.707L0.30389 172.872L124.106 49.0794L123.941 48.9147Z" fill="white" stroke="white"/>
<path d="M118.712 46.877L-5.09033 170.67L-4.9256 170.834L118.876 47.0417L118.712 46.877Z" fill="white" stroke="white"/>
<path d="M113.47 44.8266L-10.3325 168.619L-10.1678 168.784L113.634 44.9913L113.47 44.8266Z" fill="white" stroke="white"/>
<path d="M108.253 42.7764L-15.5488 166.569L-15.3841 166.734L108.418 42.9411L108.253 42.7764Z" fill="white" stroke="white"/>
<path d="M103.024 40.7388L-20.7783 164.531L-20.6136 164.696L103.188 40.9035L103.024 40.7388Z" fill="white" stroke="white"/>
<path d="M97.8069 38.6884L-25.9951 162.481L-25.8304 162.646L97.9717 38.8531L97.8069 38.6884Z" fill="white" stroke="white"/>
<path d="M92.5779 36.6508L-31.2241 160.443L-31.0594 160.608L92.7427 36.8155L92.5779 36.6508Z" fill="white" stroke="white"/>
<path d="M87.3611 34.6005L-36.4409 158.393L-36.2762 158.558L87.5259 34.7652L87.3611 34.6005Z" fill="white" stroke="white"/>
<path d="M82.1316 32.5629L-41.6704 156.355L-41.5057 156.52L82.2964 32.7276L82.1316 32.5629Z" fill="white" stroke="white"/>
<path d="M76.9148 30.5125L-46.8872 154.305L-46.7225 154.47L77.0796 30.6772L76.9148 30.5125Z" fill="white" stroke="white"/>
<path d="M71.6858 28.4748L-52.1162 152.267L-51.9515 152.432L71.8506 28.6395L71.6858 28.4748Z" fill="white" stroke="white"/>
<path d="M66.4563 26.4372L-57.3457 150.23L-57.181 150.394L66.6211 26.6019L66.4563 26.4372Z" fill="white" stroke="white"/>
<path d="M61.2395 24.3869L-62.5625 148.179L-62.3978 148.344L61.4043 24.5516L61.2395 24.3869Z" fill="white" stroke="white"/>
<path d="M55.9978 22.3366L-67.8042 146.129L-67.6395 146.294L56.1626 22.5013L55.9978 22.3366Z" fill="white" stroke="white"/>
<path d="M50.781 20.2863L-73.021 144.079L-72.8563 144.244L50.9458 20.451L50.781 20.2863Z" fill="white" stroke="white"/>
</g>
</g>
<g style="mix-blend-mode:plus-lighter" opacity="0.1">
<path d="M302.477 79.2451C308.541 79.4582 314.485 79.0765 320.407 78.1181C324.89 77.3938 329.354 76.5999 333.751 75.4497C334.651 75.2144 335.592 75.1424 336.526 75.0364C334.876 75.7426 333.148 76.1714 331.408 76.6066C327.181 77.6639 322.934 78.6305 318.608 79.1281C313.412 79.7258 308.2 80.2232 302.976 79.3615C302.809 79.3361 302.643 79.2854 302.477 79.2451Z" fill="white"/>
<path d="M292.197 7.88152C292.063 10.0468 291.211 12.0785 290.827 14.1975C290.436 16.3596 289.963 18.5064 289.551 20.6651C289.139 22.8225 288.742 24.9834 288.368 27.1484C287.995 29.3065 287.657 31.4715 287.245 33.6256C287.359 29.2324 287.969 24.8949 288.762 20.5779C289.555 16.2656 290.283 11.9364 291.546 7.7372C291.763 7.78524 291.981 7.8333 292.197 7.88152Z" fill="white"/>
<path d="M280.144 85.6582C279.761 87.9323 279.341 90.1998 279.005 92.48C278.659 94.8332 278.37 97.1955 278.099 99.5594C277.832 101.875 277.592 104.194 277.395 106.517C277.197 108.832 277.068 111.153 276.917 113.334C276.003 109.813 278.117 89.0432 279.784 85.6555C279.904 85.6556 280.023 85.657 280.144 85.6582Z" fill="white"/>
<path d="M285.944 107.507C285.163 99.1563 284.91 90.7605 283.574 82.4605C283.684 82.4156 283.794 82.3698 283.903 82.324C284.088 82.6379 284.387 82.9347 284.438 83.2698C284.729 85.1656 284.994 87.0667 285.204 88.972C285.367 90.4575 285.408 91.9569 285.557 93.4448C286.028 98.1244 286.045 102.813 285.944 107.507Z" fill="white"/>
<path d="M281.595 29.1322C281.076 38.3425 279.84 47.4405 279.987 56.6295C279.989 56.7492 279.877 56.8702 279.574 57.0365C279.488 56.5379 279.336 56.0387 279.329 55.539C279.227 48.7689 280.01 42.0582 280.746 35.3458C280.976 33.2684 281.31 31.2026 281.595 29.1322Z" fill="white"/>
<path d="M267.542 76.3369C257.175 75.9061 247.031 77.5074 236.944 79.6154C246.615 76.5586 264.642 74.8099 267.542 76.3369Z" fill="white"/>
<path d="M267.624 79.9629C266.025 81.4134 250.33 86.4694 245.541 87.0011C249.2 85.8145 252.87 84.6589 256.516 83.4325C260.194 82.1953 263.848 80.8871 267.513 79.6089C267.55 79.7277 267.587 79.8453 267.624 79.9629Z" fill="white"/>
<path d="M317.582 72.554C308.209 74.8824 296.867 75.6597 293.778 74.1469C295.609 73.8365 297.129 74.334 298.641 74.2185C300.22 74.0981 301.809 74.12 303.391 74.0487C304.976 73.9773 306.56 73.8922 308.141 73.7669C309.724 73.6423 311.308 73.4973 312.882 73.2937C314.456 73.0903 316.017 72.8038 317.582 72.554Z" fill="white"/>
<path d="M250.885 72.1553C243.309 73.0854 235.86 74.1785 228.944 77.6842C228.646 77.121 229.075 76.8396 229.467 76.6479C230.677 76.056 231.872 75.3972 233.144 74.9756C237.462 73.5434 241.941 72.8367 246.44 72.2923C247.905 72.1141 249.402 72.1936 250.885 72.1553Z" fill="white"/>
<path d="M292.162 38.4512C290.36 45.1874 287.694 51.5606 284.501 57.9476C283.873 57.1481 284.311 56.7327 284.493 56.3138C286.472 51.7793 288.474 47.2537 290.446 42.7159C291.055 41.3111 291.591 39.8737 292.162 38.4512Z" fill="white"/>
<path d="M309.609 26.0393C310.186 27.059 309.824 27.6685 309.614 28.2583C307.829 33.2945 305.633 38.1411 302.873 42.7253C302.428 43.4649 301.965 44.1925 301.436 44.8798C304.444 38.8328 307.284 32.723 309.609 26.0393Z" fill="white"/>
<path d="M272.047 61.4837C271.071 61.6337 270.736 61.1003 270.393 60.7346C268.216 58.4144 266.009 56.1196 263.942 53.7038C261.822 51.225 259.852 48.6169 257.815 46.0648C257.888 46.0022 257.962 45.9395 258.035 45.8769C259.164 47.18 260.292 48.4833 261.423 49.785C262.56 51.0914 263.691 52.401 264.839 53.6966C266.019 55.0267 267.226 56.3333 268.407 57.6622C269.527 58.9237 270.854 60.0037 272.047 61.4837Z" fill="white"/>
<path d="M252.155 99.8379C250.12 101.145 248.142 102.554 246.034 103.733C243.433 105.19 240.735 106.478 238.053 107.786C237.447 108.083 236.735 108.163 236.073 108.344C236.025 108.255 235.977 108.167 235.929 108.079C236.127 107.881 236.291 107.587 236.53 107.499C241.982 105.479 246.862 102.342 251.961 99.6331C252.025 99.701 252.091 99.7699 252.155 99.8379Z" fill="white"/>
<path d="M303.986 101.042C308.108 105.706 312.127 113.92 311.787 117.06C311.549 116.688 311.287 116.458 311.249 116.197C310.782 112.865 309.003 110.087 307.471 107.212C306.401 105.204 305.236 103.246 303.986 101.042Z" fill="white"/>
<path d="M245.055 41.7301C243.633 40.399 242.142 39.132 240.804 37.7206C239.139 35.9636 237.582 34.1021 236.019 32.2518C235.598 31.7535 235.17 31.1692 235.474 30.332C238.754 34.152 241.946 37.8703 245.14 41.5896C245.112 41.6372 245.083 41.6838 245.055 41.7301Z" fill="white"/>
<path d="M268.512 81.226C267.279 82.4947 257.74 86.6909 253.604 87.6793C258.529 85.4149 263.454 83.1504 268.379 80.8859C268.423 80.999 268.467 81.1131 268.512 81.226Z" fill="white"/>
<path d="M297.585 124.78C296.463 119.816 295.34 114.852 294.218 109.887C294.27 109.871 294.323 109.855 294.375 109.839C295.144 112.291 296.045 114.713 296.645 117.208C297.238 119.676 298.166 122.136 298.031 124.716C297.882 124.737 297.733 124.759 297.585 124.78Z" fill="white"/>
<path d="M261.913 96.656C265.561 92.9998 269.157 89.395 272.833 85.7104C272.822 85.9887 272.901 86.2865 272.787 86.451C272.338 87.1028 271.873 87.7548 271.334 88.3304C268.646 91.1943 265.78 93.8612 262.607 96.1873C262.4 96.3404 262.18 96.4763 261.913 96.656Z" fill="white"/>
<path d="M273.53 129.727C271.189 126.854 270.581 115.716 272.015 110.926C271.366 117.282 271.439 123.577 273.53 129.727Z" fill="white"/>
<path d="M300.796 41.4518C297.47 47.0124 294.379 52.7327 289.813 57.4521C291.674 54.7982 293.589 52.179 295.384 49.4813C297.165 46.8039 298.825 44.0462 300.537 41.323C300.624 41.3659 300.71 41.4089 300.796 41.4518Z" fill="white"/>
<path d="M318.91 59.0267C323.12 56.9273 327.166 55.2652 331.485 54.3621C331.543 54.4481 331.599 54.5342 331.657 54.6201C331.523 54.807 331.425 55.1059 331.248 55.1659C327.286 56.4915 323.316 57.7912 319.346 59.0919C319.307 59.1051 319.256 59.0803 318.91 59.0267Z" fill="white"/>
<path d="M264.456 38.7991C261.757 34.8864 259.101 31.2319 256.571 27.4906C258.027 27.9755 263.556 36.0169 264.456 38.7991Z" fill="white"/>
<path d="M284.845 81.8983C286.153 82.9972 287.488 88.7321 288.03 95.2904C287.039 91.1255 285.941 86.512 284.845 81.8983Z" fill="white"/>
<path d="M288.75 9.75244C288.461 13.3262 287.98 16.8612 286.97 20.3333C287.139 18.5364 287.232 16.7289 287.497 14.9474C287.756 13.1881 287.615 11.3149 288.75 9.75244Z" fill="white"/>
<path d="M307.433 72.3542C302.475 73.3414 296.207 73.6093 294.412 72.664C299.168 72.5511 303.712 72.4424 307.433 72.3542Z" fill="white"/>
<path d="M247.128 105.229C244.281 107.334 241.258 109.234 237.622 109.822C238.446 108.891 239.704 108.887 240.709 108.326C241.726 107.758 242.815 107.322 243.868 106.818C244.959 106.295 246.042 105.759 247.128 105.229Z" fill="white"/>
<path d="M306.556 28.343C307.7 25.143 308.841 21.9433 309.997 18.747C310.033 18.6496 310.209 18.6033 310.329 18.5264C310.645 19.6351 308.517 25.4432 306.556 28.343Z" fill="white"/>
<path d="M236.435 27.8342C238.253 30.4041 239.953 32.8059 241.653 35.2078C241.571 35.2707 241.49 35.3347 241.408 35.3976C239.817 33.4724 238.211 31.5576 236.645 29.6115C236.304 29.1876 235.799 28.7062 236.435 27.8342Z" fill="white"/>
<path d="M312.408 113.223C311.013 110.304 309.618 107.384 308.222 104.466C310.102 107.159 312.105 109.794 312.408 113.223Z" fill="white"/>
<path d="M283.345 56.5285C283.177 55.5718 284.873 51.2491 286.645 47.924C285.924 50.9273 284.827 53.789 283.345 56.5285Z" fill="white"/>
<path d="M297.609 116.393C298.767 119.249 300.059 121.796 300.5 124.945C299.57 123.985 297.828 118.651 297.609 116.393Z" fill="white"/>
<path d="M329.138 53.5963C326.458 54.4613 323.777 55.3265 321.127 56.1821C322.798 54.8163 327.421 53.1258 329.044 53.2996C329.075 53.399 329.106 53.4971 329.138 53.5963Z" fill="white"/>
<path d="M267.142 53.8591C268.974 55.2926 272.586 59.7248 272.883 61.0722C270.58 58.7067 268.822 56.314 267.142 53.8591Z" fill="white"/>
<path d="M289.381 77.9071C287.745 79.7567 284.366 79.2544 282.572 77.0931C285.944 78.554 286.937 78.6856 289.381 77.9071Z" fill="white"/>
<path d="M281.498 72.2591C281.227 70.8724 282.743 68.2316 285.121 66.046C283.832 68.2573 282.7 70.1977 281.498 72.2591Z" fill="white"/>
<path d="M273.17 75.1264C275.61 75.3047 277.638 74.4554 279.761 73.7926C279.294 75.1941 275.761 75.9152 273.17 75.1264Z" fill="white"/>
<path d="M273.965 73.6923C272.312 73.3839 271.081 72.531 270.109 71.2934C269.711 70.7858 269.39 70.2116 270.136 69.5838C270.588 71.7632 272.541 72.4262 273.965 73.6923Z" fill="white"/>
<path d="M280.214 71.6131C280.059 70.082 280.898 68.9691 281.847 67.8999C281.546 69.2328 281.039 70.482 280.214 71.6131Z" fill="white"/>
<path d="M280.566 75.341C279.676 76.274 278.479 76.474 277.019 76.6311C278.275 76.0159 279.328 75.5011 280.38 74.9854C280.442 75.1036 280.504 75.2229 280.566 75.341Z" fill="white"/>
<path d="M286.849 80.2638C285.549 80.8985 284.508 80.4086 283.568 79.499C284.663 79.7538 285.756 80.0077 286.849 80.2638Z" fill="white"/>
<path d="M246.705 111.354C246.809 110.45 247.316 110.504 247.69 110.43C250.676 109.833 243.308 111.315 246.279 110.655C250.024 109.823 247.775 110.688 251.457 109.627C255.667 107.649 255.35 109.141 259.166 106.035C262.557 103.274 263.55 104.125 255.926 108.133C261.325 104.05 264.619 103.388 258.772 106.718C258.772 106.718 258.73 106.867 258.894 106.568C258.385 106.781 258.104 107.119 257.766 107.271C255.596 108.257 253.474 109.372 251.248 110.209C244.73 112.661 238.897 111.562 234.024 106.459C231.925 104.26 229.842 102.017 228.004 99.6016C223.901 94.2143 223.1 88.2617 225.714 81.9954C227.304 78.1826 229.333 74.5705 231.956 71.3588C236.096 66.2892 241.416 63.1878 247.943 62.3548C249.457 62.162 251.021 62.3443 252.56 62.3717C253.064 62.3809 253.566 62.4436 254.287 62.4996C254.065 62.2122 253.998 62.0495 253.877 61.9804C247.918 58.5469 243.576 53.4924 239.825 47.8746C237.192 43.932 235.385 39.6414 234.861 34.8841C234.478 31.4008 235.15 28.1763 237.357 25.3608C238.746 23.5878 240.534 22.497 242.761 22.12C247.952 21.2421 252.593 22.2749 256.601 25.8633C257.986 27.1051 259.522 28.2131 261.106 29.1921C265.327 31.8024 268.482 35.3807 270.817 39.6935C272.062 41.9935 273.105 44.4016 274.246 46.7578C274.379 47.0345 274.554 47.2911 274.873 47.5054C274.805 46.2221 274.719 44.9395 274.672 43.6542C274.403 36.4722 275.317 29.4617 277.777 22.6852C279.233 18.6727 281.345 15.0338 284.352 11.9887C289.344 6.93264 295.418 5.6848 302.063 7.62976C308.029 9.37593 311.797 15.1668 311.021 21.5738C310.366 26.9757 310.088 32.3617 310.016 37.7907C309.957 42.259 308.419 46.3128 305.826 49.9616C302.164 55.116 297.838 59.6293 292.825 63.4841C292.576 63.6757 292.339 63.8857 291.916 64.2376C293.254 64.457 294.335 64.1576 295.306 63.733C297.745 62.6685 300.173 61.5604 302.518 60.3047C306.351 58.2518 310.069 55.9782 313.93 53.9786C315.739 53.0419 317.738 52.4249 319.707 51.8615C320.808 51.5465 322.046 51.4509 323.184 51.5867C325.264 51.8338 327.346 52.2121 329.371 52.7468C331.501 53.3088 333.25 54.5743 334.642 56.3092C335.55 57.4414 336.536 58.5135 337.405 59.6734C338.876 61.6358 338.788 62.7129 337.09 64.4817C336.572 65.021 335.986 65.4952 335.453 66.0212C335.097 66.3714 334.779 66.7586 334.271 67.3213C334.968 67.5852 335.449 67.8302 335.961 67.948C337.008 68.19 338.084 68.3117 339.125 68.5774C341.964 69.3006 343.557 71.7083 343.144 74.6138C342.846 76.71 341.914 78.5279 340.621 80.1789C337.501 84.1656 333.458 86.8696 328.759 88.6221C321.072 91.4905 313.204 92.151 305.158 90.4353C304.853 90.3706 304.539 90.3493 303.901 90.263C304.402 90.7111 304.652 90.95 304.918 91.1682C305.678 91.7925 306.443 92.4104 307.208 93.0283C311.963 96.8657 313.76 101.989 313.635 107.923C313.554 111.757 312.73 115.438 311.216 118.964C308.973 124.194 304.979 127.343 299.59 128.932C296.695 129.786 293.757 129.661 290.814 129.609C287.582 129.551 284.369 129.658 281.15 130.048C278.651 130.35 276.114 130.488 273.596 130.454C270.658 130.415 268.46 128.893 266.918 126.424C265.451 124.076 264.743 121.477 264.378 118.755C263.681 113.56 264.934 108.718 266.967 104.013C267.441 102.918 267.997 101.858 268.329 100.622C266.99 101.606 265.655 102.595 264.311 103.573C259.999 106.391 260.736 105.319 259.24 106.246C261.362 105.341 271.466 96.8838 268.187 100.159C264.35 103.993 261.839 105.341 254.739 108.93C251.912 110.019 252.717 110.025 249.765 110.709C244.931 111.83 252.869 110.166 248.002 111.146C247.614 111.223 247.216 111.273 246.705 111.354ZM267.305 67.0516C266.179 66.6963 264.84 66.2902 263.511 65.8495C259.725 64.594 255.896 63.4928 251.901 63.2237C250.187 63.1084 248.408 63.1011 246.733 63.4261C240.696 64.6001 235.794 67.7154 232.096 72.6294C229.75 75.7482 227.796 79.1317 226.364 82.7575C224.106 88.4707 224.829 93.9258 228.535 98.8099C230.509 101.413 232.759 103.828 235.05 106.165C239.405 110.609 244.676 111.589 250.433 109.539C256.867 107.249 262.812 103.998 268.104 99.6367C272.413 96.0846 276.043 91.9564 278.622 86.9647C278.852 86.5213 279.037 86.0555 279.238 85.611C279.09 85.5156 279.049 85.4666 279.016 85.4707C278.603 85.5299 278.182 85.5619 277.781 85.6667C274.459 86.5321 271.802 85.4649 269.65 82.9017C269.379 82.579 269.11 82.2546 268.844 81.9277C267.656 80.4628 267.237 78.7938 267.494 76.9318C267.696 75.465 268.112 74.1034 269.275 73.1134C269.237 72.2152 269.202 71.3789 269.167 70.5425C269.107 70.5646 269.048 70.5875 268.989 70.6094C268.456 69.4842 267.923 68.358 267.305 67.0516ZM286.827 82.7117C284.854 82.1767 283.129 82.3205 281.789 83.936C281.731 84.0053 281.644 84.0599 281.56 84.0972C280.823 84.4187 280.425 85.0215 280.111 85.7311C278.29 89.8472 275.7 93.4333 272.609 96.689C271.679 97.6679 270.796 98.7232 270.071 99.8588C268.013 103.081 266.593 106.587 265.719 110.314C264.735 114.506 264.733 118.666 266.17 122.763C266.905 124.861 267.886 126.824 269.731 128.201C270.45 128.738 271.223 129.251 272.172 129.079C273.318 128.873 274.516 128.729 275.563 128.265C277.221 127.531 278.813 126.619 280.364 125.67C285.03 122.814 289.968 121.875 295.296 123.357C295.927 123.532 296.567 123.691 297.212 123.789C299.585 124.148 301.976 124.397 304.283 123.52C307.917 122.14 310.059 119.287 311.371 115.804C312.536 112.708 312.936 109.424 312.765 106.136C312.556 102.112 311.355 98.404 308.441 95.44C305.654 92.6042 302.529 90.2576 298.779 88.8196C297.293 88.2499 295.811 87.6671 294.337 87.066C291.596 85.9463 288.954 84.65 286.827 82.7117ZM287.76 64.4395C289.923 64.5205 291.525 63.5952 293.038 62.3204C297.5 58.5615 301.533 54.4166 304.933 49.6589C307.716 45.7632 309.158 41.455 309.191 36.668C309.21 33.9579 309.146 31.2418 309.309 28.5392C309.436 26.4453 309.888 24.3733 310.147 22.2854C311.025 15.2321 306.99 9.75468 301.144 8.2783C294.986 6.72267 289.431 8.00556 284.934 12.7139C283.777 13.9263 282.75 15.2856 281.806 16.6746C279.299 20.3698 277.869 24.5265 276.868 28.8404C275.569 34.4403 275.186 40.124 275.587 45.8458C275.776 48.5511 276.178 51.2427 276.565 53.9288C276.714 54.9623 277.091 55.9627 277.38 57.0396C277.879 56.8523 278.181 56.7383 278.484 56.6255C280.992 55.6883 283.394 56.037 285.617 57.4025C286.33 57.8405 286.924 58.5934 287.368 59.3259C288.227 60.7436 287.87 62.2089 287.162 63.6421C287.396 63.9537 287.612 64.2433 287.76 64.4395ZM293.625 65.1695C295.248 67.1497 295.281 69.2723 294.987 71.4552C294.781 72.9838 294.497 74.5056 294.379 76.0418C294.129 79.284 292.18 81.0589 289.339 82.1241C289.005 82.2487 288.674 82.3798 288.203 82.5603C288.5 82.8539 288.665 83.0655 288.874 83.218C290.72 84.5576 292.872 84.6674 295.03 84.696C297.842 84.7334 300.443 83.762 303.084 82.9656C307.233 81.7156 311.431 80.9086 315.809 81.5484C319.693 82.1162 323.585 82.6329 327.486 83.0632C330.344 83.3789 333.204 83.2592 335.911 82.1406C339.464 80.6729 341.706 78.0942 342.268 74.2232C342.571 72.1421 341.427 70.286 339.448 69.5911C338.704 69.3302 337.903 69.2325 337.127 69.0628C336.35 68.8921 335.55 68.7931 334.802 68.5408C333.426 68.0771 333.187 67.169 334.165 66.1053C334.86 65.3496 335.67 64.6992 336.398 63.9723C336.994 63.3787 337.593 62.7675 337.627 61.5961C335.959 59.1041 334.117 56.5346 331.477 54.6555C331.025 54.3334 330.501 54.0906 329.979 53.8918C325.488 52.181 321 51.8364 316.451 53.7669C312.732 55.3449 309.284 57.4066 305.784 59.3916C303.021 60.9587 300.199 62.4265 297.356 63.8434C296.25 64.3972 295.01 64.689 293.625 65.1695ZM276.537 57.4687C276.202 55.8394 275.897 54.287 275.561 52.7417C275.423 52.1065 275.259 51.4709 275.042 50.8586C273.631 46.882 271.776 43.1032 269.683 39.4541C267.391 35.4561 264.349 32.1442 260.335 29.7557C258.898 28.9006 257.493 27.9124 256.283 26.7649C253.133 23.7763 249.369 22.5638 245.139 22.6257C241.607 22.6781 238.75 24.0779 237.095 27.3221C236.468 28.553 235.986 29.9195 235.758 31.2771C235.491 32.8663 235.307 34.5365 236.123 36.0822C238.268 40.1422 241.223 43.4316 245.175 45.8334C247.092 46.9983 248.965 48.2553 250.742 49.6216C251.8 50.4342 252.792 51.4339 253.531 52.5399C254.929 54.633 256.187 56.8277 257.386 59.0432C259.61 63.153 263.221 65.1694 267.666 66.1508C269.345 61.9182 272.907 59.6524 276.537 57.4687ZM294.106 85.6661C294.085 85.7566 294.065 85.847 294.044 85.9365C296.964 87.0322 299.772 88.4108 302.823 89.1692C310.005 90.9525 317.188 90.9691 324.347 89.1005C328.357 88.054 332.141 86.4598 335.478 83.9365C335.905 83.6146 336.299 83.2492 336.707 82.9042C335.609 83.0329 334.639 83.3498 333.647 83.5647C330.772 84.1854 327.878 83.9265 324.986 83.6796C321.072 83.3455 317.157 82.9583 313.241 83.6431C310.888 84.0536 308.538 84.4784 306.189 84.911C303.007 85.4956 299.812 85.9194 296.566 85.7937C295.744 85.7604 294.925 85.7087 294.106 85.6661ZM280.708 70.836C280.974 71.0666 281.253 71.2443 281.448 71.4896C282.065 72.2659 282.931 72.5142 283.827 72.4642C284.801 72.4096 285.791 72.2482 286.723 71.9658C288.245 71.5032 288.736 70.7268 288.68 69.1438C288.663 68.6795 288.601 68.1987 288.457 67.7606C287.4 64.5683 285.273 62.527 281.938 61.8501C279.702 61.3966 277.765 62.1453 276.074 63.5357C275.079 64.3539 274.709 65.4918 274.86 66.8127C275.032 68.3274 275.794 69.5463 276.695 70.6909C277.345 71.5154 278.236 71.6961 279.226 71.3603C279.706 71.1964 280.184 71.0216 280.708 70.836ZM236.624 38.544C236.628 38.9489 236.589 39.1353 236.64 39.2904C236.875 39.9996 237.107 40.7116 237.391 41.4016C239.977 47.6667 244.108 52.8183 248.994 57.4168C251.228 59.5214 253.765 61.1858 256.57 62.4356C256.886 62.5756 257.224 62.6657 257.551 62.7789C255.231 60.2708 253.737 57.2946 252.074 54.4402C250.15 51.137 247.638 48.4297 244.421 46.3696C244.185 46.218 243.961 46.0463 243.732 45.8834C241.162 44.0454 238.819 41.9841 237.184 39.2252C237.074 39.0375 236.907 38.8829 236.624 38.544ZM273.692 66.1015C271.98 66.5742 270.704 67.8599 270.257 69.8394C269.649 72.5347 270.279 75.0211 271.728 77.335C273.611 80.3387 278.105 80.2167 280.295 77.1602C280.597 76.7392 280.661 75.9868 280.539 75.4567C280.316 74.494 279.762 73.6974 278.857 73.1392C277.354 72.2119 275.723 71.373 274.98 69.6242C274.492 68.4782 274.12 67.2832 273.692 66.1015ZM277.464 129.546C277.825 129.516 278.188 129.5 278.547 129.453C282.449 128.942 286.357 128.579 290.304 128.695C292.966 128.773 295.639 128.92 298.276 128.326C301.693 127.557 304.682 126.007 307.166 123.522C307.482 123.206 307.738 122.831 308.022 122.484C307.671 122.491 307.462 122.642 307.252 122.793C305.824 123.826 304.266 124.653 302.495 124.697C300.215 124.752 297.93 124.563 295.646 124.52C293.781 124.486 291.873 124.257 290.06 124.565C285.548 125.33 281.607 127.698 277.464 129.546ZM276.491 80.3961C277.668 81.909 279.149 82.3572 280.788 82.1003C283.821 81.6265 286.447 80.2909 288.65 78.107C290.315 76.4579 291.025 73.4302 289.338 70.7827C288.61 72.0104 287.503 72.6471 286.178 72.9027C285.214 73.0882 284.24 73.2413 283.265 73.3516C282.288 73.4622 281.569 73.8464 281.316 74.8762C281.578 77.6943 280.545 78.9129 276.491 80.3961ZM269.382 64.6487C271.198 63.9646 272.779 63.3069 274.401 62.7726C276.789 61.9871 278.946 60.8633 280.763 59.0867C281.281 58.5814 282.014 58.2957 282.646 57.9071C282.856 57.7772 283.062 57.639 283.377 57.4346C281.819 56.6657 280.354 56.82 279.013 57.358C275.636 58.7127 272.616 60.6415 270.225 63.4435C269.943 63.7762 269.723 64.158 269.382 64.6487ZM291.168 72.4895C292.522 70.593 293.795 68.7107 293.272 66.2105C291.96 64.923 290.096 64.6108 288.466 65.4067C289.331 67.7378 289.634 70.2731 291.168 72.4895ZM281.641 82.7992C278.772 83.3726 276.685 82.3923 275.151 80.2847C271.589 79.8953 270.532 77.1304 269.416 74.2988C268.524 75.3283 268.428 76.4349 268.324 77.5393C268.217 78.6793 268.762 79.4535 269.778 79.8388C270.511 80.1173 271.302 80.2721 272.08 80.4041C273.455 80.639 274.663 81.1614 275.686 82.1403C276.222 82.6542 276.813 83.1355 277.45 83.5156C278.611 84.2096 280.325 83.9419 281.641 82.7992ZM286.329 62.89C287.097 61.7543 287.112 60.399 286.429 59.2956C285.798 58.2789 284.948 57.9227 283.796 58.2562C282.414 58.6568 281.287 59.4406 280.263 60.7869C282.615 60.8479 284.577 61.6228 286.329 62.89ZM294.317 68.4483C293.524 69.964 292.808 71.3678 292.06 72.7551C291.586 73.6341 291.205 74.5255 291.363 75.5529C291.564 76.8535 291.777 78.1532 291.995 79.5212C293 78.6968 293.385 77.6213 293.545 76.4445C293.797 74.597 294.043 72.748 294.245 70.8949C294.329 70.1154 294.295 69.3232 294.317 68.4483ZM269.877 81.6043C271.889 84.5762 274.521 85.7935 277.747 84.7226C275.359 83.133 273.039 81.5247 269.877 81.6043ZM290.28 77.872C288.71 79.1275 287.176 80.3535 285.518 81.6787C286.972 81.773 288.337 81.9032 289.477 80.8579C290.375 80.0335 290.606 79.0154 290.28 77.872ZM269.284 69.3329C270.917 66.8888 270.919 66.8919 273.836 65.0712C273.986 64.9783 274.041 64.7349 274.219 64.4243C271.793 64.9712 269.582 65.5075 268.533 68.0702C268.756 68.4427 269.002 68.8577 269.284 69.3329Z" fill="white"/>
</g>
</svg>
