<svg width="49" height="44" viewBox="0 0 49 44" fill="none" xmlns="http://www.w3.org/2000/svg">
<path d="M18.9416 44.0004C29.4028 44.0004 37.8832 35.5199 37.8832 25.0588C37.8832 14.5976 29.4028 6.11719 18.9416 6.11719C8.48044 6.11719 0 14.5976 0 25.0588C0 35.5199 8.48044 44.0004 18.9416 44.0004Z" fill="white" fill-opacity="0.2"/>
<path d="M19.1554 39.6984L18.9151 39.289C15.2452 33.0363 5.49309 19.7671 5.39458 19.6338L5.25391 19.4427L8.57641 16.1592L19.0937 23.5031C25.7156 14.9101 31.8934 9.0081 35.9232 5.56155C40.3314 1.79136 43.2009 0.0556919 43.2298 0.0390595L43.2951 0H48.931L48.3926 0.479442C34.5471 12.8117 19.5399 39.0226 19.3905 39.2859L19.1554 39.6984Z" fill="white"/>
</svg>
