<svg id="net_connect2" xmlns="http://www.w3.org/2000/svg" viewBox="0 0 1600 668"><defs><style>.cls-1{fill:none;stroke:#000;stroke-miterlimit:10;}.cls-2{fill:#ffde16;}</style></defs><title>Artboard 1</title>

<g id="connector">

<line class="cls-1" x1="65.67" y1="425.04" x2="224" y2="305.25"/><line class="cls-1" x1="224" y1="305.25" x2="200" y2="221.29"/><line class="cls-1" x1="200" y1="221.29" x2="859.24" y2="614.59"/>

</g>

<g id="points">

<circle class="cls-2" cx="69.67" cy="422.04" r="5"/><circle class="cls-2" cx="222.68" cy="304.29" r="5"/><circle class="cls-2" cx="201.67" cy="222.29" r="5"/><circle class="cls-2" cx="858.68" cy="614.29" r="5"/>

</g>

<g id="connector2">

<line class="cls-1" x1="-1.75" y1="314" x2="200.38" y2="221.75"/><line class="cls-1" x1="200.38" y1="221.75" x2="241.63" y2="245.75"/><line class="cls-1" x1="241.63" y1="245.75" x2="404" y2="166.25"/><line class="cls-1" x1="404" y1="166.25" x2="422.5" y2="170.75"/><line class="cls-1" x1="422.5" y1="170.75" x2="495.75" y2="141.5"/><line class="cls-1" x1="495.75" y1="141.5" x2="572.75" y2="237"/><line class="cls-1" x1="572.75" y1="237" x2="617.75" y2="242.25"/><line class="cls-1" x1="617.75" y1="242.25" x2="639" y2="277.25"/><line class="cls-1" x1="639" y1="277.25" x2="1104.15" y2="495.71"/><line class="cls-1" x1="639" y1="277.25" x2="828.5" y2="243.5"/><line class="cls-1" x1="828.5" y1="243.5" x2="935.14" y2="258.46"/><line class="cls-1" x1="935.14" y1="258.46" x2="1018.15" y2="227.49"/><line class="cls-1" x1="1018.15" y1="227.49" x2="1177.75" y2="224.5"/><line class="cls-1" x1="1177.75" y1="224.5" x2="1442.75" y2="242"/><line class="cls-1" x1="1104.15" y1="495.71" x2="1442.75" y2="242"/><line class="cls-1" x1="1442.75" y1="242" x2="1489.88" y2="200.5"/><line class="cls-1" x1="1489.88" y1="200.5" x2="1494.75" y2="155.5"/><line class="cls-1" x1="1494.75" y1="155.5" x2="1563" y2="78.5"/><line class="cls-1" x1="1563" y1="78.5" x2="1600" y2="67.5"/>

</g>

<g id="points2">

<circle class="cls-2" cx="199.84" cy="222.21" r="5"/><circle class="cls-2" cx="240.84" cy="245.21" r="5"/><circle class="cls-2" cx="403.84" cy="166.21" r="5"/><circle class="cls-2" cx="495.84" cy="142.21" r="5"/><circle class="cls-2" cx="572.84" cy="236.21" r="5"/><circle class="cls-2" cx="617.84" cy="242.21" r="5"/><circle class="cls-2" cx="639.84" cy="277.21" r="5"/><circle class="cls-2" cx="1104.37" cy="493.88" r="5"/><circle class="cls-2" cx="827.84" cy="243.21" r="5"/><circle class="cls-2" cx="935.84" cy="257.21" r="5"/><circle class="cls-2" cx="1016.84" cy="227.21" r="5"/><circle class="cls-2" cx="1203.84" cy="226.21" r="5"/><circle class="cls-2" cx="1441.84" cy="241.21" r="5"/><circle class="cls-2" cx="1489.93" cy="198.29" r="5"/><circle class="cls-2" cx="1494.93" cy="154.29" r="5"/><circle class="cls-2" cx="1564.93" cy="78.29" r="5"/>

</g>
</svg>