<svg xmlns="http://www.w3.org/2000/svg" viewBox="0 0 364.25 263.75"><defs><style>.cls-1{fill:none;stroke:#ababab;stroke-width:0.5px;}.cls-2{fill:#ffde16;}</style></defs>
<g id="network">
    <g id="lines">
        <line class="cls-1" x1="28" y1="142" x2="76.25" y2="60.25"/><line class="cls-1" x1="108.5" y1="109.75" x2="49.62" y2="156.88"/><line class="cls-1" x1="108.5" y1="109.75" x2="76.25" y2="60.25"/><line class="cls-1" x1="129.5" y1="85" x2="108.5" y2="109.75"/><line class="cls-1" x1="176.72" y1="70.5" x2="129.5" y2="85"/><line class="cls-1" x1="216.5" y1="167.75" x2="176.72" y2="70.5"/><line class="cls-1" x1="137.25" y1="127.5" x2="113.78" y2="141"/><line class="cls-1" x1="216.5" y1="167.75" x2="137.25" y2="127.5"/><line class="cls-1" x1="176.72" y1="70.5" x2="137.25" y2="127.5"/><line class="cls-1" x1="129.5" y1="85" x2="137.25" y2="127.5"/><line class="cls-1" x1="108.5" y1="109.75" x2="137.25" y2="127.5"/><line class="cls-1" x1="113.78" y1="141" x2="108.5" y2="109.75"/><line class="cls-1" x1="82.75" y1="172.25" x2="113.78" y2="141"/><line class="cls-1" x1="110.25" y1="202" x2="82.75" y2="172.25"/><line class="cls-1" x1="44.25" y1="209" x2="82.75" y2="172.25"/><line class="cls-1" x1="110.25" y1="202" x2="113.78" y2="141"/><line class="cls-1" x1="176.72" y1="192.13" x2="113.78" y2="141"/><line class="cls-1" x1="49.62" y1="156.88" x2="113.78" y2="141"/><line class="cls-1" x1="137.25" y1="127.5" x2="176.72" y2="192.13"/><line class="cls-1" x1="216.5" y1="167.75" x2="176.72" y2="192.13"/><line class="cls-1" x1="49.62" y1="156.88" x2="82.75" y2="172.25"/><line class="cls-1" x1="44.25" y1="209" x2="49.62" y2="156.88"/><line class="cls-1" x1="28" y1="142" x2="49.62" y2="156.88"/><line class="cls-1" x1="76.25" y1="60.25" x2="49.62" y2="156.88"/><line class="cls-1" x1="28" y1="142" x2="1.62" y2="158.88"/><line class="cls-1" x1="23.75" y1="171.5" x2="1.62" y2="158.88"/><line class="cls-1" x1="49.62" y1="156.88" x2="23.75" y2="171.5"/><line class="cls-1" x1="28" y1="142" x2="23.75" y2="171.5"/><line class="cls-1" x1="27.75" y1="71.5" x2="28" y2="142"/><line class="cls-1" x1="76.25" y1="60.25" x2="27.75" y2="71.5"/><line class="cls-1" x1="23.75" y1="171.5" x2="44.25" y2="209"/><line class="cls-1" x1="110.25" y1="202" x2="17.5" y2="239.25"/><line class="cls-1" x1="44.25" y1="209" x2="17.5" y2="239.25"/><line class="cls-1" x1="44.25" y1="209" x2="66.19" y2="219.7"/><line class="cls-1" x1="82.75" y1="172.25" x2="66.19" y2="219.7"/><line class="cls-1" x1="176.72" y1="192.13" x2="110.25" y2="202"/><line class="cls-1" x1="148.63" y1="246.88" x2="110.25" y2="202"/><line class="cls-1" x1="175.25" y1="220.63" x2="148.63" y2="246.88"/><line class="cls-1" x1="217.12" y1="259.75" x2="175.25" y2="220.63"/><line class="cls-1" x1="175" y1="263.75" x2="175.25" y2="220.63"/><line class="cls-1" x1="217.12" y1="259.75" x2="175" y2="263.75"/><line class="cls-1" x1="218.75" y1="227" x2="217.12" y2="259.75"/><line class="cls-1" x1="175.25" y1="220.63" x2="218.75" y2="227"/><line class="cls-1" x1="176.72" y1="192.13" x2="175.25" y2="220.63"/><line class="cls-1" x1="131.63" y1="227" x2="175.25" y2="220.63"/><line class="cls-1" x1="176.72" y1="192.13" x2="131.63" y2="227"/><line class="cls-1" x1="62.94" y1="255.5" x2="108.63" y2="202.65"/><line class="cls-1" x1="62.94" y1="255.5" x2="148.63" y2="246.88"/><line class="cls-1" x1="117.34" y1="43.53" x2="76.25" y2="60.25"/><line class="cls-1" x1="129.5" y1="85" x2="117.34" y2="43.53"/><line class="cls-1" x1="76.25" y1="60.25" x2="129.5" y2="85"/><line class="cls-1" x1="163" x2="129.5" y2="85"/><line class="cls-1" x1="176.72" y1="70.5" x2="163"/><line class="cls-1" x1="63.19" y1="31.97" x2="117.34" y2="43.53"/><line class="cls-1" x1="76.25" y1="60.25" x2="63.19" y2="31.97"/><line class="cls-1" x1="202.25" y1="8" x2="176.72" y2="70.5"/><line class="cls-1" x1="219" y1="39.25" x2="202.25" y2="8"/><line class="cls-1" x1="176.72" y1="70.5" x2="204.09" y2="62.25"/><line class="cls-1" x1="219" y1="39.25" x2="204.09" y2="62.25"/><line class="cls-1" x1="176.72" y1="70.5" x2="219" y2="39.25"/><line class="cls-1" x1="264.63" y1="88.75" x2="204.09" y2="62.25"/><line class="cls-1" x1="229.75" y1="139.25" x2="264.63" y2="88.75"/><line class="cls-1" x1="203.82" y1="136.75" x2="229.75" y2="139.25"/><line class="cls-1" x1="204.09" y1="62.25" x2="203.82" y2="136.75"/><line class="cls-1" x1="229.75" y1="139.25" x2="204.09" y2="62.25"/><line class="cls-1" x1="260.75" y1="57.25" x2="204.09" y2="62.25"/><line class="cls-1" x1="264.63" y1="88.75" x2="260.75" y2="57.25"/><line class="cls-1" x1="219" y1="39.25" x2="260.75" y2="57.25"/><line class="cls-1" x1="202.25" y1="8" x2="260.75" y2="57.25"/><line class="cls-1" x1="362.75" y1="105.37" x2="311.25" y2="98"/><line class="cls-1" x1="310" y1="32.62" x2="311.25" y2="98"/><line class="cls-1" x1="260.75" y1="57.25" x2="311.25" y2="98"/><line class="cls-1" x1="310" y1="32.62" x2="260.75" y2="57.25"/><line class="cls-1" x1="272" y1="128.25" x2="264.63" y2="87.25"/><line class="cls-1" x1="311.25" y1="98" x2="272" y2="128.25"/><line class="cls-1" x1="264.63" y1="88.75" x2="311.25" y2="98"/><line class="cls-1" x1="364.25" y1="105.37" x2="324.25" y2="117.5"/><line class="cls-1" x1="311.25" y1="98" x2="324.25" y2="117.5"/><line class="cls-1" x1="293.75" y1="159.25" x2="272" y2="128.25"/><line class="cls-1" x1="229.75" y1="139.25" x2="272" y2="128.25"/><line class="cls-1" x1="292.25" y1="159.25" x2="324.25" y2="117.5"/><line class="cls-1" x1="334.87" y1="183.38" x2="321.75" y2="159.25"/><line class="cls-1" x1="324.25" y1="117.5" x2="321.75" y2="159.25"/><line class="cls-1" x1="302.75" y1="181.37" x2="218.75" y2="227"/><line class="cls-1" x1="216.5" y1="167.75" x2="259.34" y2="189.5"/><line class="cls-1" x1="292.25" y1="159.25" x2="259.34" y2="189.5"/><line class="cls-1" x1="229.75" y1="139.25" x2="292.25" y2="159.25"/><line class="cls-1" x1="216.5" y1="167.75" x2="229.75" y2="139.25"/><line class="cls-1" x1="293.75" y1="159.25" x2="302.75" y2="181.37"/><line class="cls-1" x1="218.75" y1="225.37" x2="259.34" y2="189.5"/><line class="cls-1" x1="266.75" y1="242.19" x2="218.75" y2="225.37"/><line class="cls-1" x1="302.75" y1="181.37" x2="266.75" y2="242.19"/><line class="cls-1" x1="216.5" y1="167.75" x2="218.75" y2="227"/><line class="cls-1" x1="302.75" y1="181.37" x2="334.87" y2="183.38"/><line class="cls-1" x1="321.75" y1="159.25" x2="302.75" y2="181.37"/><line class="cls-1" x1="292.25" y1="159.25" x2="216.5" y2="167.75"/><line class="cls-1" x1="259.34" y1="189.5" x2="266.75" y2="242.19"/><line class="cls-1" x1="216.5" y1="167.75" x2="175.25" y2="220.63"/><line class="cls-1" x1="324.25" y1="117.5" x2="272" y2="128.25"/><line class="cls-1" x1="292.25" y1="159.25" x2="321.75" y2="159.25"/>
    </g>
    <g id="dots">
        <circle class="cls-2" cx="108.5" cy="109.75" r="5.28"/><circle class="cls-2" cx="63.19" cy="31.97" r="1.36"/><circle class="cls-2" cx="292.25" cy="159.25" r="5.28"/><circle class="cls-2" cx="49.62" cy="156.88" r="3.73"/><circle class="cls-2" cx="148.63" cy="246.88" r="3.73"/><circle class="cls-2" cx="117.34" cy="43.53" r="3.22"/><circle class="cls-2" cx="1.62" cy="158.88" r="1.62"/><circle class="cls-2" cx="176.72" cy="192.13" r="5.28"/><circle class="cls-2" cx="362.75" cy="105.37" r="1.5"/><circle class="cls-2" cx="311.25" cy="98" r="2.25"/><circle class="cls-2" cx="202.25" cy="8" r="1.84"/><circle class="cls-2" cx="264.63" cy="88.75" r="5.28"/><circle class="cls-2" cx="218.75" cy="227" r="1.63"/><circle class="cls-2" cx="334.87" cy="183.38" r="2"/><circle class="cls-2" cx="44.25" cy="209" r="1.88"/><circle class="cls-2" cx="110.25" cy="202" r="1.75"/>
    </g>
</g>
</svg>