 <svg xmlns="http://www.w3.org/2000/svg" viewBox="0 0 282.52 280.37">
                    <defs>
                        <style>
                            .round-cls-1 {
                                fill: #fff;
                            }

                            .round-cls-2 {
                                fill: #244b5a;
                            }

                            .round-cls-3 {
                                fill: #c1531b;
                            }

                            .round-cls-4 {
                                fill: #80c7bc;
                            }

                            .round-cls-5 {
                                fill: #d9d8d6;
                            }

                            .round-cls-6 {
                                fill: #dab38d;
                            }

                            .round-cls-7 {
                                fill: #132b33;
                            }
                        </style>
                    </defs>
                    <g id="round_Layer_1-2">
                        <circle class="round-cls-1" cx="190.08" cy="127.42" r="91.25" />
                        <path
                            d="M190.08,219.86a92.45,92.45,0,1,1,92.44-92.44A92.55,92.55,0,0,1,190.08,219.86Zm0-182.5a90.06,90.06,0,1,0,90,90.06A90.16,90.16,0,0,0,190.08,37.36Z" />
                        <circle class="round-cls-2" cx="190.08" cy="127.42" r="79.51" />
                        <path class="round-cls-3"
                            d="M190.08,211.71a84.29,84.29,0,1,1,84.28-84.29A84.39,84.39,0,0,1,190.08,211.71Zm0-159a74.73,74.73,0,1,0,74.73,74.73A74.81,74.81,0,0,0,190.08,52.69Z" />
                        <circle class="round-cls-4" cx="190.08" cy="127.42" r="50.73" />
                        <path class="round-cls-5"
                            d="M190.08,179.34A51.93,51.93,0,1,1,242,127.42,52,52,0,0,1,190.08,179.34Zm0-101.46a49.54,49.54,0,1,0,49.53,49.54A49.59,49.59,0,0,0,190.08,77.88Z" />
                        <circle class="round-cls-6" cx="190.08" cy="127.42" r="28.84" />
                        <path
                            d="M190.08,157.45a30,30,0,1,1,30-30A30.07,30.07,0,0,1,190.08,157.45Zm0-57.68a27.65,27.65,0,1,0,27.64,27.65A27.68,27.68,0,0,0,190.08,99.77Z" />
                        <circle class="round-cls-7" cx="190.08" cy="127.42" r="21.81" />
                        <path class="round-cls-3"
                            d="M190.08,150.42a23,23,0,1,1,23-23A23,23,0,0,1,190.08,150.42Zm0-43.62a20.62,20.62,0,1,0,20.61,20.62A20.64,20.64,0,0,0,190.08,106.8Z" />
                        <circle class="round-cls-1" cx="106.83" cy="191.3" r="87.92" />
                        <path
                            d="M106.82,280.37A89.07,89.07,0,1,1,195.9,191.3,89.17,89.17,0,0,1,106.82,280.37Zm0-175.84a86.77,86.77,0,1,0,86.77,86.77A86.86,86.86,0,0,0,106.82,104.53Z" />
                        <circle class="round-cls-2" cx="106.83" cy="191.3" r="76.61" />
                        <path class="round-cls-3"
                            d="M106.82,272.51A81.21,81.21,0,1,1,188,191.3,81.31,81.31,0,0,1,106.82,272.51Zm0-153.21a72,72,0,1,0,72,72A72.08,72.08,0,0,0,106.82,119.3Z" />
                        <circle class="round-cls-4" cx="106.83" cy="191.3" r="48.88" />
                        <path class="round-cls-5"
                            d="M106.82,241.33a50,50,0,1,1,50-50A50.08,50.08,0,0,1,106.82,241.33Zm0-97.76a47.73,47.73,0,1,0,47.73,47.73A47.78,47.78,0,0,0,106.82,143.57Z" />
                        <circle class="round-cls-6" cx="106.83" cy="191.3" r="27.79" />
                        <path
                            d="M106.82,220.24a28.94,28.94,0,1,1,28.94-28.94A29,29,0,0,1,106.82,220.24Zm0-55.57a26.63,26.63,0,1,0,26.64,26.63A26.66,26.66,0,0,0,106.82,164.67Z" />
                        <circle class="round-cls-7" cx="106.83" cy="191.3" r="21.01" />
                        <path class="round-cls-3"
                            d="M106.82,213.46A22.16,22.16,0,1,1,129,191.3,22.19,22.19,0,0,1,106.82,213.46Zm0-42a19.86,19.86,0,1,0,19.87,19.86A19.88,19.88,0,0,0,106.82,171.44Z" />
                        <circle class="round-cls-1" cx="89.07" cy="89.07" r="87.92" />
                        <path
                            d="M89.07,178.14a89.07,89.07,0,1,1,89.07-89.07A89.18,89.18,0,0,1,89.07,178.14Zm0-175.84a86.77,86.77,0,1,0,86.77,86.77A86.87,86.87,0,0,0,89.07,2.3Z" />
                        <circle class="round-cls-2" cx="89.07" cy="89.07" r="76.61" />
                        <path class="round-cls-3"
                            d="M89.07,170.28a81.21,81.21,0,1,1,81.21-81.21A81.3,81.3,0,0,1,89.07,170.28Zm0-153.21a72,72,0,1,0,72,72A72.08,72.08,0,0,0,89.07,17.07Z" />
                        <circle class="round-cls-4" cx="89.07" cy="89.07" r="48.88" />
                        <path class="round-cls-5"
                            d="M89.07,139.1a50,50,0,1,1,50-50A50.08,50.08,0,0,1,89.07,139.1Zm0-97.76A47.73,47.73,0,1,0,136.8,89.07,47.78,47.78,0,0,0,89.07,41.34Z" />
                        <circle class="round-cls-6" cx="89.07" cy="89.07" r="27.79" />
                        <path
                            d="M89.07,118A28.94,28.94,0,1,1,118,89.07,29,29,0,0,1,89.07,118Zm0-55.57A26.64,26.64,0,1,0,115.7,89.07,26.65,26.65,0,0,0,89.07,62.44Z" />
                        <circle class="round-cls-7" cx="89.07" cy="89.07" r="21.01" />
                        <path class="round-cls-3"
                            d="M89.07,111.23a22.16,22.16,0,1,1,22.16-22.16A22.18,22.18,0,0,1,89.07,111.23Zm0-42a19.86,19.86,0,1,0,19.86,19.86A19.88,19.88,0,0,0,89.07,69.21Z" />
                        <circle class="round-cls-1" cx="134.73" cy="69.97" r="50.43" />
                        <path
                            d="M134.73,121.06A51.09,51.09,0,1,1,185.82,70,51.15,51.15,0,0,1,134.73,121.06Zm0-100.86A49.77,49.77,0,1,0,184.5,70,49.83,49.83,0,0,0,134.73,20.2Z" />
                        <circle class="round-cls-2" cx="134.73" cy="69.97" r="43.94" />
                        <path class="round-cls-3"
                            d="M134.73,116.55A46.58,46.58,0,1,1,181.32,70,46.63,46.63,0,0,1,134.73,116.55Zm0-87.88A41.3,41.3,0,1,0,176,70,41.35,41.35,0,0,0,134.73,28.67Z" />
                        <circle class="round-cls-4" cx="134.73" cy="69.97" r="28.04" />
                        <path class="round-cls-5"
                            d="M134.73,98.67A28.7,28.7,0,1,1,163.43,70,28.73,28.73,0,0,1,134.73,98.67Zm0-56.08A27.38,27.38,0,1,0,162.11,70,27.41,27.41,0,0,0,134.73,42.59Z" />
                        <circle class="round-cls-6" cx="134.73" cy="69.97" r="15.94" />
                        <path
                            d="M134.73,86.57A16.6,16.6,0,1,1,151.33,70,16.61,16.61,0,0,1,134.73,86.57Zm0-31.88A15.28,15.28,0,1,0,150,70,15.3,15.3,0,0,0,134.73,54.69Z" />
                        <circle class="round-cls-7" cx="134.73" cy="69.97" r="12.05" />
                        <path class="round-cls-3"
                            d="M134.73,82.68A12.71,12.71,0,1,1,147.45,70,12.72,12.72,0,0,1,134.73,82.68Zm0-24.1A11.39,11.39,0,1,0,146.13,70,11.4,11.4,0,0,0,134.73,58.58Z" />
                        <circle class="round-cls-1" cx="92.79" cy="154.96" r="65.86" />
                        <path
                            d="M92.79,221.68A66.72,66.72,0,1,1,159.51,155,66.79,66.79,0,0,1,92.79,221.68ZM92.79,90a65,65,0,1,0,65,65A65.07,65.07,0,0,0,92.79,90Z" />
                        <circle class="round-cls-2" cx="92.79" cy="154.96" r="57.38" />
                        <path class="round-cls-3"
                            d="M92.79,215.79A60.83,60.83,0,1,1,153.62,155,60.9,60.9,0,0,1,92.79,215.79Zm0-114.77A53.94,53.94,0,1,0,146.72,155,54,54,0,0,0,92.79,101Z" />
                        <circle class="round-cls-4" cx="92.79" cy="154.96" r="36.61" />
                        <path class="round-cls-5"
                            d="M92.79,192.43A37.48,37.48,0,1,1,130.26,155,37.51,37.51,0,0,1,92.79,192.43Zm0-73.22A35.75,35.75,0,1,0,128.54,155,35.79,35.79,0,0,0,92.79,119.21Z" />
                        <circle class="round-cls-6" cx="92.79" cy="154.96" r="20.81" />
                        <path
                            d="M92.79,176.63A21.68,21.68,0,1,1,114.46,155,21.7,21.7,0,0,1,92.79,176.63Zm0-41.62a19.95,19.95,0,1,0,19.95,20A20,20,0,0,0,92.79,135Z" />
                        <circle class="round-cls-7" cx="92.79" cy="154.96" r="15.74" />
                        <path class="round-cls-3"
                            d="M92.79,171.56a16.6,16.6,0,1,1,16.6-16.6A16.62,16.62,0,0,1,92.79,171.56Zm0-31.48A14.88,14.88,0,1,0,107.67,155,14.9,14.9,0,0,0,92.79,140.08Z" />
                        <circle class="round-cls-1" cx="156.01" cy="194.5" r="58.69" />
                        <path
                            d="M156,254a59.46,59.46,0,1,1,59.45-59.46A59.52,59.52,0,0,1,156,254Zm0-117.37a57.92,57.92,0,1,0,57.92,57.91A58,58,0,0,0,156,136.59Z" />
                        <circle class="round-cls-2" cx="156.01" cy="194.5" r="51.14" />
                        <path class="round-cls-3"
                            d="M156,248.71a54.21,54.21,0,1,1,54.21-54.21A54.27,54.27,0,0,1,156,248.71Zm0-102.27a48.07,48.07,0,1,0,48.06,48.06A48.11,48.11,0,0,0,156,146.44Z" />
                        <circle class="round-cls-4" cx="156.01" cy="194.5" r="32.63" />
                        <path class="round-cls-5"
                            d="M156,227.9a33.4,33.4,0,1,1,33.39-33.4A33.43,33.43,0,0,1,156,227.9Zm0-65.25a31.86,31.86,0,1,0,31.86,31.85A31.89,31.89,0,0,0,156,162.65Z" />
                        <circle class="round-cls-6" cx="156.01" cy="194.5" r="18.55" />
                        <path
                            d="M156,213.82a19.32,19.32,0,1,1,19.32-19.32A19.35,19.35,0,0,1,156,213.82Zm0-37.09a17.78,17.78,0,1,0,17.78,17.77A17.8,17.8,0,0,0,156,176.73Z" />
                        <circle class="round-cls-7" cx="156.01" cy="194.5" r="14.03" />
                        <path class="round-cls-3"
                            d="M156,209.3a14.8,14.8,0,1,1,14.79-14.8A14.81,14.81,0,0,1,156,209.3Zm0-28.05a13.26,13.26,0,1,0,13.26,13.25A13.27,13.27,0,0,0,156,181.25Z" />
                        <circle class="round-cls-1" cx="181.71" cy="124.41" r="42.11" />
                        <path
                            d="M181.71,167.06a42.66,42.66,0,1,1,42.66-42.65A42.7,42.7,0,0,1,181.71,167.06Zm0-84.21a41.56,41.56,0,1,0,41.55,41.56A41.6,41.6,0,0,0,181.71,82.85Z" />
                        <circle class="round-cls-2" cx="181.71" cy="124.41" r="36.69" />
                        <path class="round-cls-3"
                            d="M181.71,163.3a38.9,38.9,0,1,1,38.89-38.89A38.94,38.94,0,0,1,181.71,163.3Zm0-73.38a34.49,34.49,0,1,0,34.48,34.49A34.53,34.53,0,0,0,181.71,89.92Z" />
                        <circle class="round-cls-4" cx="181.71" cy="124.41" r="23.41" />
                        <path class="round-cls-5"
                            d="M181.71,148.37a24,24,0,1,1,24-24A24,24,0,0,1,181.71,148.37Zm0-46.82a22.86,22.86,0,1,0,22.85,22.86A22.88,22.88,0,0,0,181.71,101.55Z" />
                        <circle class="round-cls-6" cx="181.71" cy="124.41" r="13.31" />
                        <path
                            d="M181.71,138.26a13.86,13.86,0,1,1,13.86-13.85A13.87,13.87,0,0,1,181.71,138.26Zm0-26.61a12.76,12.76,0,1,0,12.75,12.76A12.77,12.77,0,0,0,181.71,111.65Z" />
                        <circle class="round-cls-7" cx="181.71" cy="124.41" r="10.06" />
                        <path class="round-cls-3"
                            d="M181.71,135a10.62,10.62,0,1,1,10.61-10.61A10.62,10.62,0,0,1,181.71,135Zm0-20.13a9.52,9.52,0,1,0,9.51,9.52A9.52,9.52,0,0,0,181.71,114.89Z" />
                        <circle class="round-cls-1" cx="168.24" cy="157.24" r="26.69" />
                        <path
                            d="M168.24,184.28a27,27,0,1,1,27-27A27.07,27.07,0,0,1,168.24,184.28Zm0-53.37a26.34,26.34,0,1,0,26.34,26.33A26.37,26.37,0,0,0,168.24,130.91Z" />
                        <circle class="round-cls-2" cx="168.24" cy="157.24" r="23.25" />
                        <path class="round-cls-3"
                            d="M168.24,181.9a24.66,24.66,0,1,1,24.65-24.66A24.68,24.68,0,0,1,168.24,181.9Zm0-46.51a21.86,21.86,0,1,0,21.85,21.85A21.88,21.88,0,0,0,168.24,135.39Z" />
                        <circle class="round-cls-4" cx="168.24" cy="157.24" r="14.84" />
                        <path class="round-cls-5"
                            d="M168.24,172.43a15.19,15.19,0,1,1,15.19-15.19A15.21,15.21,0,0,1,168.24,172.43Zm0-29.67a14.49,14.49,0,1,0,14.49,14.48A14.5,14.5,0,0,0,168.24,142.76Z" />
                        <circle class="round-cls-6" cx="168.24" cy="157.24" r="8.43" />
                        <path
                            d="M168.24,166a8.79,8.79,0,1,1,8.78-8.79A8.79,8.79,0,0,1,168.24,166Zm0-16.87a8.09,8.09,0,1,0,8.08,8.08A8.1,8.1,0,0,0,168.24,149.16Z" />
                        <circle class="round-cls-7" cx="168.24" cy="157.24" r="6.38" />
                        <path class="round-cls-3"
                            d="M168.24,164a6.73,6.73,0,1,1,6.73-6.73A6.74,6.74,0,0,1,168.24,164Zm0-12.75a6,6,0,1,0,6,6A6,6,0,0,0,168.24,151.22Z" />
                        <circle class="round-cls-1" cx="124.54" cy="126.69" r="41.14"
                            transform="translate(-18.69 21.59) rotate(-9.22)" />
                        <path
                            d="M124.54,168.37a41.68,41.68,0,1,1,41.68-41.68A41.72,41.72,0,0,1,124.54,168.37Zm0-82.28a40.61,40.61,0,1,0,40.6,40.6A40.64,40.64,0,0,0,124.54,86.09Z" />
                        <circle class="round-cls-2" cx="124.54" cy="126.69" r="35.85" />
                        <path class="round-cls-3"
                            d="M124.54,164.7a38,38,0,1,1,38-38A38,38,0,0,1,124.54,164.7Zm0-71.7a33.7,33.7,0,1,0,33.69,33.69A33.72,33.72,0,0,0,124.54,93Z" />
                        <circle class="round-cls-4" cx="124.54" cy="126.69" r="22.87" />
                        <path class="round-cls-5"
                            d="M124.54,150.1A23.41,23.41,0,1,1,148,126.69,23.43,23.43,0,0,1,124.54,150.1Zm0-45.74a22.34,22.34,0,1,0,22.33,22.33A22.35,22.35,0,0,0,124.54,104.36Z" />
                        <circle class="round-cls-6" cx="124.54" cy="126.69" r="13" />
                        <path
                            d="M124.54,140.23a13.54,13.54,0,1,1,13.54-13.54A13.55,13.55,0,0,1,124.54,140.23Zm0-26A12.47,12.47,0,1,0,137,126.69,12.47,12.47,0,0,0,124.54,114.23Z" />
                        <circle class="round-cls-7" cx="124.54" cy="126.69" r="9.83" />
                        <path class="round-cls-3"
                            d="M124.54,137.06a10.37,10.37,0,1,1,10.37-10.37A10.38,10.38,0,0,1,124.54,137.06Zm0-19.66a9.3,9.3,0,1,0,9.29,9.29A9.3,9.3,0,0,0,124.54,117.4Z" />
                        <circle class="round-cls-1" cx="85.53" cy="85.53" r="32.91" />
                        <path
                            d="M85.53,118.87a33.34,33.34,0,1,1,33.34-33.34A33.38,33.38,0,0,1,85.53,118.87Zm0-65.82A32.48,32.48,0,1,0,118,85.53,32.52,32.52,0,0,0,85.53,53.05Z" />
                        <circle class="round-cls-2" cx="85.53" cy="85.53" r="28.68" />
                        <path class="round-cls-3"
                            d="M85.53,115.93a30.4,30.4,0,1,1,30.4-30.4A30.44,30.44,0,0,1,85.53,115.93Zm0-57.35a27,27,0,1,0,27,27A27,27,0,0,0,85.53,58.58Z" />
                        <circle class="round-cls-4" cx="85.53" cy="85.53" r="18.3" />
                        <path class="round-cls-5"
                            d="M85.53,104.26a18.73,18.73,0,1,1,18.73-18.73A18.75,18.75,0,0,1,85.53,104.26Zm0-36.59A17.87,17.87,0,1,0,103.4,85.53,17.88,17.88,0,0,0,85.53,67.67Z" />
                        <circle class="round-cls-6" cx="85.53" cy="85.53" r="10.4" />
                        <path
                            d="M85.53,96.36A10.83,10.83,0,1,1,96.36,85.53,10.84,10.84,0,0,1,85.53,96.36Zm0-20.8a10,10,0,1,0,10,10A10,10,0,0,0,85.53,75.56Z" />
                        <circle class="round-cls-7" cx="85.53" cy="85.53" r="7.87" />
                        <path class="round-cls-3"
                            d="M85.53,93.83a8.3,8.3,0,1,1,8.3-8.3A8.3,8.3,0,0,1,85.53,93.83Zm0-15.73A7.44,7.44,0,1,0,93,85.53,7.43,7.43,0,0,0,85.53,78.1Z" />
                        <circle class="round-cls-1" cx="119.18" cy="78.79" r="27.88" />
                        <path
                            d="M119.18,107a28.25,28.25,0,1,1,28.24-28.25A28.28,28.28,0,0,1,119.18,107Zm0-55.77a27.52,27.52,0,1,0,27.51,27.52A27.55,27.55,0,0,0,119.18,51.27Z" />
                        <circle class="round-cls-2" cx="119.18" cy="78.79" r="24.3" />
                        <path class="round-cls-3"
                            d="M119.18,104.54a25.76,25.76,0,1,1,25.75-25.75A25.79,25.79,0,0,1,119.18,104.54Zm0-48.59A22.84,22.84,0,1,0,142,78.79,22.87,22.87,0,0,0,119.18,56Z" />
                        <circle class="round-cls-4" cx="119.18" cy="78.79" r="15.5" />
                        <path class="round-cls-5"
                            d="M119.18,94.66A15.87,15.87,0,1,1,135,78.79,15.89,15.89,0,0,1,119.18,94.66Zm0-31a15.14,15.14,0,1,0,15.13,15.14A15.15,15.15,0,0,0,119.18,63.65Z" />
                        <circle class="round-cls-6" cx="119.18" cy="78.79" r="8.81" />
                        <path
                            d="M119.18,88a9.18,9.18,0,1,1,9.17-9.18A9.19,9.19,0,0,1,119.18,88Zm0-17.63a8.45,8.45,0,1,0,8.44,8.45A8.46,8.46,0,0,0,119.18,70.34Z" />
                        <circle class="round-cls-7" cx="119.18" cy="78.79" r="6.66" />
                        <path class="round-cls-3"
                            d="M119.18,85.82a7,7,0,1,1,7-7A7,7,0,0,1,119.18,85.82Zm0-13.33a6.3,6.3,0,1,0,6.3,6.3A6.31,6.31,0,0,0,119.18,72.49Z" />
                        <circle class="round-cls-1" cx="155.76" cy="87.94" r="20.98" />
                        <path
                            d="M155.76,109.19A21.26,21.26,0,1,1,177,87.94,21.28,21.28,0,0,1,155.76,109.19Zm0-42a20.71,20.71,0,1,0,20.71,20.71A20.73,20.73,0,0,0,155.76,67.23Z" />
                        <circle class="round-cls-2" cx="155.76" cy="87.94" r="18.28" />
                        <path class="round-cls-3"
                            d="M155.76,107.31a19.38,19.38,0,1,1,19.38-19.37A19.39,19.39,0,0,1,155.76,107.31Zm0-36.55a17.18,17.18,0,1,0,17.18,17.18A17.2,17.2,0,0,0,155.76,70.76Z" />
                        <circle class="round-cls-4" cx="155.76" cy="87.94" r="11.66" />
                        <path class="round-cls-5"
                            d="M155.76,99.87A11.94,11.94,0,1,1,167.7,87.94,11.94,11.94,0,0,1,155.76,99.87Zm0-23.32a11.39,11.39,0,1,0,11.39,11.39A11.39,11.39,0,0,0,155.76,76.55Z" />
                        <circle class="round-cls-6" cx="155.76" cy="87.94" r="6.63" />
                        <path
                            d="M155.76,94.84a6.91,6.91,0,1,1,6.91-6.9A6.91,6.91,0,0,1,155.76,94.84Zm0-13.26a6.36,6.36,0,1,0,6.36,6.36A6.36,6.36,0,0,0,155.76,81.58Z" />
                        <circle class="round-cls-7" cx="155.76" cy="87.94" r="5.01" />
                        <path class="round-cls-3"
                            d="M155.76,93.22a5.29,5.29,0,1,1,5.29-5.28A5.29,5.29,0,0,1,155.76,93.22Zm0-10a4.74,4.74,0,1,0,4.74,4.74A4.74,4.74,0,0,0,155.76,83.2Z" />
                        <circle class="round-cls-1" cx="146.06" cy="58.36" r="18.31" />
                        <path
                            d="M146.06,76.91a18.55,18.55,0,1,1,18.55-18.55A18.57,18.57,0,0,1,146.06,76.91Zm0-36.62a18.07,18.07,0,1,0,18.07,18.07A18.09,18.09,0,0,0,146.06,40.29Z" />
                        <circle class="round-cls-2" cx="146.06" cy="58.36" r="15.95" />
                        <path class="round-cls-3"
                            d="M146.06,75.27A16.91,16.91,0,1,1,163,58.36,16.93,16.93,0,0,1,146.06,75.27Zm0-31.9a15,15,0,1,0,15,15A15,15,0,0,0,146.06,43.37Z" />
                        <circle class="round-cls-4" cx="146.06" cy="58.36" r="10.18" />
                        <path class="round-cls-5"
                            d="M146.06,68.78a10.42,10.42,0,1,1,10.42-10.42A10.43,10.43,0,0,1,146.06,68.78Zm0-20.36A9.94,9.94,0,1,0,156,58.36,9.94,9.94,0,0,0,146.06,48.42Z" />
                        <circle class="round-cls-6" cx="146.06" cy="58.36" r="5.79" />
                        <path
                            d="M146.06,64.39a6,6,0,1,1,6-6A6,6,0,0,1,146.06,64.39Zm0-11.58a5.55,5.55,0,1,0,5.55,5.55A5.55,5.55,0,0,0,146.06,52.81Z" />
                        <circle class="round-cls-7" cx="146.06" cy="58.36" r="4.37" />
                        <path class="round-cls-3"
                            d="M146.06,63a4.62,4.62,0,1,1,4.62-4.62A4.63,4.63,0,0,1,146.06,63Zm0-8.75a4.14,4.14,0,1,0,4.14,4.13A4.13,4.13,0,0,0,146.06,54.23Z" />
                        <circle class="round-cls-1" cx="123.46" cy="48.14" r="15.65" />
                        <path
                            d="M123.46,64a15.86,15.86,0,1,1,15.86-15.85A15.87,15.87,0,0,1,123.46,64Zm0-31.3a15.45,15.45,0,1,0,15.45,15.45A15.46,15.46,0,0,0,123.46,32.69Z" />
                        <circle class="round-cls-2" cx="123.46" cy="48.14" r="13.64" />
                        <path class="round-cls-3"
                            d="M123.46,62.59a14.46,14.46,0,1,1,14.46-14.45A14.46,14.46,0,0,1,123.46,62.59Zm0-27.27a12.82,12.82,0,1,0,12.82,12.82A12.83,12.83,0,0,0,123.46,35.32Z" />
                        <circle class="round-cls-4" cx="123.46" cy="48.14" r="8.7" />
                        <path class="round-cls-5"
                            d="M123.46,57a8.91,8.91,0,1,1,8.91-8.9A8.91,8.91,0,0,1,123.46,57Zm0-17.4a8.5,8.5,0,1,0,8.5,8.5A8.5,8.5,0,0,0,123.46,39.64Z" />
                        <circle class="round-cls-6" cx="123.46" cy="48.14" r="4.95" />
                        <path
                            d="M123.46,53.29a5.15,5.15,0,1,1,5.16-5.15A5.16,5.16,0,0,1,123.46,53.29Zm0-9.89a4.74,4.74,0,1,0,4.75,4.74A4.74,4.74,0,0,0,123.46,43.4Z" />
                        <circle class="round-cls-7" cx="123.46" cy="48.14" r="3.74" />
                        <path class="round-cls-3"
                            d="M123.46,52.08a3.95,3.95,0,1,1,4-3.94A3.95,3.95,0,0,1,123.46,52.08Zm0-7.48A3.54,3.54,0,1,0,127,48.14,3.54,3.54,0,0,0,123.46,44.6Z" />
                        <circle class="round-cls-1" cx="103.57" cy="56.19" r="12.48" />
                        <path
                            d="M103.57,68.84a12.65,12.65,0,1,1,12.65-12.65A12.66,12.66,0,0,1,103.57,68.84Zm0-25a12.32,12.32,0,1,0,12.32,12.32A12.33,12.33,0,0,0,103.57,43.87Z" />
                        <circle class="round-cls-2" cx="103.57" cy="56.19" r="10.87" />
                        <path class="round-cls-3"
                            d="M103.57,67.72A11.53,11.53,0,1,1,115.1,56.19,11.54,11.54,0,0,1,103.57,67.72Zm0-21.75a10.22,10.22,0,1,0,10.22,10.22A10.23,10.23,0,0,0,103.57,46Z" />
                        <circle class="round-cls-4" cx="103.57" cy="56.19" r="6.94" />
                        <path class="round-cls-5"
                            d="M103.57,63.29a7.1,7.1,0,1,1,7.11-7.1A7.11,7.11,0,0,1,103.57,63.29Zm0-13.87a6.78,6.78,0,1,0,6.78,6.77A6.78,6.78,0,0,0,103.57,49.42Z" />
                        <circle class="round-cls-6" cx="103.57" cy="56.19" r="3.94" />
                        <path
                            d="M103.57,60.3a4.11,4.11,0,1,1,4.11-4.11A4.11,4.11,0,0,1,103.57,60.3Zm0-7.89a3.78,3.78,0,1,0,3.78,3.78A3.79,3.79,0,0,0,103.57,52.41Z" />
                        <circle class="round-cls-7" cx="103.57" cy="56.19" r="2.98" />
                        <path class="round-cls-3"
                            d="M103.57,59.34a3.15,3.15,0,1,1,3.15-3.15A3.15,3.15,0,0,1,103.57,59.34Zm0-6a2.82,2.82,0,1,0,2.82,2.82A2.83,2.83,0,0,0,103.57,53.37Z" />
                    </g>
                </svg>