<svg xmlns="http://www.w3.org/2000/svg" xmlns:xlink="http://www.w3.org/1999/xlink" viewBox="0 0 105.19 92.25"><defs><style>.cls-1{fill:none;}.cls-2{fill:#c1531b;}.cls-3{clip-path:url(#clip-path);}.cls-4{fill:#fff;}</style><clipPath id="clip-path"><rect class="cls-1" width="105.19" height="92.25"/></clipPath></defs><title>logo_icon</title><g id="Layer_2" data-name="Layer 2"><g id="Layer_1-2" data-name="Layer 1"><rect class="cls-2" width="105.19" height="92.25"/><g class="cls-3"><path class="cls-4" d="M50.66,56.67A29.07,29.07,0,0,0,44.22,45.5C39.19,39.91,30.45,34.26,16,34l-.87,0v6.24h1.71V35.68c13.5.53,21.46,5.8,26.13,11a29.79,29.79,0,0,1,4.82,7.23c.41.86.69,1.59.89,2.14H12.53V10.16H10.82V57.73h40.1Z"/><path class="cls-4" d="M55.29,34.1h-.85V81.67h1.71V35.81H92.27a29.32,29.32,0,0,1-6.65,10.36c-4.78,4.83-12.55,9.48-25.19,10V51.67H58.72V57.9l.87,0c14.47-.32,23.21-6,28.24-11.56a29.07,29.07,0,0,0,6.44-11.16l.26-1.06Z"/><path class="cls-4" d="M3.5,88.3V3.47h98V88.3Zm96.65-1.39v0ZM6.28,85.52H98.76V6.25H6.28Z"/></g></g></g></svg>