<svg xmlns="http://www.w3.org/2000/svg" viewBox="0 0 1476.19 1120.53">
                    <defs>
                        <style>
                            .trib-cls-1 {
                                fill: #81c7bc;
                            }

                            .trib-cls-2 {
                                fill: #d9d8d6;
                            }

                            .trib-cls-3 {
                                fill: #dab38d;
                            }

                            .trib-cls-4 {
                                fill: #c15527;
                            }

                            .trib-cls-5 {
                                fill: #244c5a;
                            }
                        </style>
                    </defs>
                    <g id="Layer_24">
                        <path class="trib-cls-1"
                            d="M928.28,815.57q-12,5.32-23.78,11.17a212.18,212.18,0,0,1,12.92,23.8c6.5-4,13-8,19.66-11.77Q955.91,828,975.57,819a492.09,492.09,0,0,1,76.81-28.19q3.8-7.85,7.37-15.84-14.91,2.55-29.4,5.93A575.39,575.39,0,0,0,928.28,815.57Z" />
                        <path class="trib-cls-1"
                            d="M1299.5,804.56q-13.07.09-25.53-1c-5.4-.48-10.64-1.22-15.87-2.08a328.37,328.37,0,0,1-35-8c-16.41-4.62-32.48-10.12-48.94-14.57-18.59-5-37.9-8.71-58.73-9.06-7.19-.11-14.37.12-21.33.58-6.21.41-12.27,1.17-18.28,2-1.79,4.69-3.63,9.35-5.57,14l14.83-3.29L1111,779.8c2.46-.16,5-.25,7.49-.34a180.35,180.35,0,0,1,26.77,1.12c8.49,1,16.84,2.23,24.94,4,25.38,5.55,49.57,13.07,75.4,17.71,6.65,1.19,13.36,2.1,20.23,2.78,6.09.61,12.28,1,18.64,1.12a251.18,251.18,0,0,0,66.55-7.54l23.85-7.1-34.94,8.92A230.46,230.46,0,0,1,1299.5,804.56Z" />
                        <path class="trib-cls-1"
                            d="M908.56,850.9A201.23,201.23,0,0,0,898,830.09q-23.72,12.07-46.42,26.18,17.55,7.46,35.16,14.78,11.58-8.26,23.47-15.92C909.64,853.73,909.16,852.29,908.56,850.9Z" />
                        <path class="trib-cls-1" d="M1379.34,790.21l3.61-1.07c10.43-3.6,20.67-7.6,30.77-11.89Z" />
                        <path class="trib-cls-1"
                            d="M888.21,1093.16A265.24,265.24,0,0,1,935,1105.91a57.75,57.75,0,0,1,6.75-18.15,297.22,297.22,0,0,0-46.53-17.54A73.11,73.11,0,0,0,888.21,1093.16Z" />
                        <path class="trib-cls-1"
                            d="M855.46,1067.72c.33-.63.64-1.28,1-1.92.73-1.4,1.56-2.77,2.33-4.16-2.51-.45-5-.84-7.58-1.24C852.67,1062.8,854.06,1065.27,855.46,1067.72Z" />
                        <path class="trib-cls-1"
                            d="M835.12,1058.19c-2.08-.24-4.14-.53-6.24-.74a356.13,356.13,0,0,0-42.44-1.86c-5.05.1-10.07.32-15,.6a270.39,270.39,0,0,0-34.3,4.19,166.33,166.33,0,0,0-30,8.24,209,209,0,0,0-24.9,11.63,449.82,449.82,0,0,0,46-45.33c8.5-9.63,16.7-19.37,24.71-29.23,2.82-3.47,5.6-6.94,8.39-10.41a1.15,1.15,0,0,1-.17-.06,59.55,59.55,0,0,0-8-1.74c-17.92-2.67-35,2.41-48.4,11.37-13.71,9.18-25.13,22.5-30.39,37.67a47.34,47.34,0,0,0-2.95,14.62c-.21,9.95,2.24,18.13,7.3,25.12.15.21.28.43.44.64a44.52,44.52,0,0,0,6.19,6.62,37.27,37.27,0,0,0,5.27,3.94,72.12,72.12,0,0,0,15.09,7.14,109.94,109.94,0,0,0,25,4.94c3.82-1.72,7.7-3.27,11.67-4.67l-.36.1a253.26,253.26,0,0,1,44.45-10.18c1.49-.21,3-.34,4.53-.52l1.12-.88.24.73c7.16-.84,14.4-1.51,21.82-1.85,3-.13,6.06-.26,9.11-.31,8.07-.12,16,.1,23.86.51,0-.07,0-.14,0-.2.42-1.55.92-3.07,1.43-4.58-3.13-7-6.49-13.78-10.27-20.39C837.33,1061.57,836.17,1059.9,835.12,1058.19Z" />
                        <path class="trib-cls-1"
                            d="M958.37,1116.57q3.52,1.93,7,4h26.32a261.24,261.24,0,0,0-28.78-21.1C960,1104.21,959,1110.64,958.37,1116.57Z" />
                        <path class="trib-cls-1"
                            d="M300.42,1120.53c.26-.4.5-.81.77-1.21,1.28-1.89,2.68-3.71,4.11-5.51-12.64,2-25.15,4.3-37.58,6.72Z" />
                        <path class="trib-cls-1"
                            d="M817.63,879a564,564,0,0,0-54.69,44.86c-23.07,21.53-45.37,45-68.53,66.32-9.11,8.38-18.4,16.53-28,24-8.8,6.85-17.75,13.3-27,19.21a271.82,271.82,0,0,1-24.35,13.77l.31-.18c-11.36,5.62-23.11,10.54-35.07,15.06-2.44,4.73-4.78,9.5-6.88,14.35-.71,1.64-1.41,3.32-2.1,5q21.43,3.46,42.86,6.92c14.82,2.4,29.49,4.94,44.25,7.32l3.35.54c7.74,1.23,15.49,2.43,23.33,3.49,14.93,2,29.91,4,44.78,6.16.2-.1.42-.18.63-.28a109.7,109.7,0,0,1-25.35-4.82,70.64,70.64,0,0,1-15.71-7.3,43.82,43.82,0,0,1-11.12-10c-.18-.23-.39-.44-.57-.68a40,40,0,0,1-8-26.78,59.43,59.43,0,0,1,2.55-14.11,73.61,73.61,0,0,1,16.45-28,82.85,82.85,0,0,1,11.7-10.76c8.57-6.36,17.94-11.35,28.37-13.9a66.55,66.55,0,0,1,10.93-1.94,82.37,82.37,0,0,1,9.33-.28,74.52,74.52,0,0,1,16.73,2.69c15.6-19.38,31.21-38.64,48.85-57l-.2.17c11.64-11.87,23.55-23,35.87-33.55,2.52-2.15,5.12-4.12,7.66-6.2Q837.83,886,817.63,879Z" />
                        <polygon class="trib-cls-1"
                            points="1377.78 790.8 1379.34 790.22 1374.85 791.55 1377.78 790.8" />
                    </g>
                    <g id="Layer_23">
                        <path class="trib-cls-2"
                            d="M523.52,848.14a97.7,97.7,0,0,0-35.66,19.06c.65.33,1.26.73,1.92,1-.65-.3-1.28-.71-1.93-1a120.8,120.8,0,0,0-10.46,9.73c-3.18,3.32-6.19,6.69-8.95,10.19-6.63,8.41-12.88,17.23-17.61,26.63a109.54,109.54,0,0,0-5.56,13.15c-5.18,14.67-7.23,31.35-6.42,48.72.86,18.78,4.2,36.3,8.18,53.56.41,1.8.86,3.59,1.28,5.39,1.66,1.39,3.3,2.82,4.94,4.23q8-6.16,15.88-12.54c-1-2.86-1.95-5.71-2.86-8.59-4.68-14.82-8.74-29.9-10.66-46.1a121.88,121.88,0,0,1-.49-23.81c.26-3.19.66-6.4,1.21-9.45a96.21,96.21,0,0,1,3.8-14.49L466,910.38l10.53-17.26A129.56,129.56,0,0,1,489.61,877a91.81,91.81,0,0,1,37.22-23.77,89,89,0,0,1,11.77-3c-.6-1.63-1.25-3.23-1.87-4.84A111.55,111.55,0,0,0,523.52,848.14Z" />
                        <path class="trib-cls-2"
                            d="M630.19,853.94c-10.54-1.87-21-3.93-31.59-5.77-.46.76-.9,1.53-1.37,2.28l.41,0c15.63,2,31.07,4.93,46.74,7,2.58.33,5.16.63,7.75.93,0-.29.07-.58.1-.88C644.81,856.48,637.49,855.25,630.19,853.94Z" />
                        <path class="trib-cls-2"
                            d="M563.51,844a135.8,135.8,0,0,0-22,.69c.44,1,.92,2.06,1.37,3.09.23.54.43,1.11.66,1.65,1.38-.21,2.72-.5,4.13-.67A158.73,158.73,0,0,1,571,848c4.4.14,8.74.46,13,.88.66-.92,1.3-1.86,2-2.78-3.46-.5-6.94-.93-10.45-1.27C571.54,844.5,567.59,844.17,563.51,844Z" />
                        <path class="trib-cls-2"
                            d="M472.05,1056.5c2.78,2.89,5.5,5.83,8.11,8.84l2.49.48c-1.68-5-3.37-10-5.11-15Z" />
                    </g>
                    <g id="Layer_22">
                        <path class="trib-cls-3"
                            d="M369.82,978.22c-.73-.51-1.45-1.05-2.17-1.57,1.32,4.18,2.53,8.43,3.49,12.86a128.06,128.06,0,0,1,2.49,27.37c8.48,7.73,16.9,15.54,25.14,23.66,2.79-6.87,5.56-13.75,8.21-20.69q2.41-6.36,4.71-12.83C397.78,997.32,383.69,988,369.82,978.22Z" />
                        <path class="trib-cls-3"
                            d="M443.51,767.28c-6.69-.21-13.57-.46-20.29-.14a109.91,109.91,0,0,0-21.44,3.08,113.57,113.57,0,0,0-14.16,4.72,120.56,120.56,0,0,0-19.1,9.76,142.6,142.6,0,0,0-18.59,13.69,162.55,162.55,0,0,0-28.87,33.24h0c-.56.85-1.3,1.85-1.84,2.71a144.78,144.78,0,0,0-7.87,14.49q7-6.37,14.35-12.23c.54-1,1.24-2.25,1.83-3.3h0A140.25,140.25,0,0,1,352,801.45c2.32-2.25,4.66-4.38,7.07-6.46,2.93-2.53,6-4.89,9.13-7.11a120.59,120.59,0,0,1,19.06-11.1c2.19-1,4.43-1.95,6.7-2.83.79-.3,1.59-.58,2.38-.87l.69-.25s.4-.12.32-.12A105.6,105.6,0,0,1,411.64,769a134.08,134.08,0,0,1,16.14-1.6c6-.29,12.14,0,18.12.06,7.64.12,15.37.18,22.76-.41A231.48,231.48,0,0,1,443.51,767.28Z" />
                        <path class="trib-cls-3"
                            d="M341.13,984.21c-2.09-7.78-4.09-15.53-7-23a122.63,122.63,0,0,0-5.32-11.65,122.25,122.25,0,0,0-6.8,17.1c3.76,4.44,7.87,8.73,12.08,13,2.49,2.51,5,4.91,7.57,7.36-.21-1.07-.42-2.14-.62-3.2C341,983.93,341.09,984.08,341.13,984.21Z" />
                        <path class="trib-cls-3"
                            d="M422.94,1015c-3.41,11.62-7.26,23.06-11.3,34.43q10.32,2.83,20.77,5.39,8.76-6.69,17.53-13.42l3.31-2.59c-1.64-1.41-3.28-2.84-4.94-4.23C440,1027.7,431.55,1021.23,422.94,1015Z" />
                        <path class="trib-cls-3"
                            d="M472.05,1056.5l-5.73,6c4.6,1,9.21,2,13.84,2.88C477.55,1062.33,474.83,1059.39,472.05,1056.5Z" />
                    </g>
                    <g id="Layer_21">
                        <path class="trib-cls-4"
                            d="M369,695.52l55.68-17.77L410,682.05C396.3,686.48,382.7,691.13,369,695.52Z" />
                        <polygon class="trib-cls-4" points="424.72 677.75 434.45 674.9 429.73 676.15 424.72 677.75" />
                        <path class="trib-cls-4"
                            d="M625.65,689.67a64.71,64.71,0,0,0-6.42-7.21,64,64,0,0,0-9.49-7.51,86.78,86.78,0,0,0-21.08-9.77c-2.75-.91-5.56-1.61-8.4-2.31-18.09-4.5-39.14-4.85-59.18-3.72a371.54,371.54,0,0,0-69.39,10.71l-17.24,5,17.34-4.57c4.5-1.11,9-2.05,13.63-3,10.63-2.13,21.52-3.87,32.64-5l26.83-1.79,22.33.3a159.66,159.66,0,0,1,37.22,6.29,80.74,80.74,0,0,1,26.17,13.29,49.73,49.73,0,0,1,5.55,5A59.85,59.85,0,0,1,624,695.49a62.05,62.05,0,0,1,8.26,24.85,73.76,73.76,0,0,1,.57,9.94,124.81,124.81,0,0,1-.81,12.57A146.11,146.11,0,0,1,628.18,762c0,.12-.07.24-.1.36,2.12,1.76,4.2,3.58,6.25,5.44.11-.41.25-.81.36-1.23a139.75,139.75,0,0,0,3.33-18,124.68,124.68,0,0,0,.94-14.51C638.83,717,635,702.19,625.65,689.67Z" />
                        <path class="trib-cls-4"
                            d="M600.17,824.6c-2.71,4.47-5.49,8.9-8.4,13.26-1.86,2.8-3.84,5.53-5.78,8.28-.65.92-1.29,1.86-2,2.78a350.83,350.83,0,0,1-29.14,35.45c.81,3.93,1.48,7.91,1.93,12,.26,2.38.38,4.82.5,7.27l1.92-2.15c5.18-5.79,10.08-11.74,14.82-17.76a362,362,0,0,0,23.16-33.26c.47-.75.91-1.52,1.37-2.28q6.74-11,12.74-22.39c-3.19-.34-6.34-.8-9.57-1.06C601.24,824.67,600.7,824.64,600.17,824.6Z" />
                        <path class="trib-cls-4"
                            d="M492.62,1034.69a133.24,133.24,0,0,0,7.69,13.59c4.58-7.53,9.64-14.82,15-22a71.28,71.28,0,0,1-5.56-11.08C504.23,1021.81,498.5,1028.28,492.62,1034.69Z" />
                        <path class="trib-cls-4"
                            d="M549.15,890.44c-.56.56-1.06,1.15-1.63,1.71l0,0c-11.62,11.63-23.26,23.2-33.13,35.69-10.57,13.36-19,27.67-24.63,43.52-3.41,9.65-6,19.54-5.62,31,.06,1.93.21,3.83.43,5.68.18,1.62.45,3.2.73,4.77,7.05-6.14,14.11-12.63,20.8-19.47l.87-6.81,4.53-16.09a115.22,115.22,0,0,1,6.72-15.29,183.81,183.81,0,0,1,19.36-28.73c3.72-4.64,7.64-9.18,11.63-13.68,0-.56.16-1.08.19-1.64a140.84,140.84,0,0,0,.18-15.12C549.51,894.08,549.34,892.25,549.15,890.44Z" />
                    </g>
                    <g id="Layer_20">
                        <path class="trib-cls-4" d="M1315.64,708.78l34.9.57-20.22-.59Q1323,708.75,1315.64,708.78Z" />
                        <path class="trib-cls-4"
                            d="M1315.64,708.78l-29.63-.49C1295.72,708.79,1305.68,708.8,1315.64,708.78Z" />
                        <path class="trib-cls-4"
                            d="M932.82,889.67l-1.76-.7a185.91,185.91,0,0,1,4.9,30.1c18.45,5.69,37.14,10.9,56.15,15.42.85-5.12,1.83-10.18,3-15.15.6-2.45,1.31-4.86,2-7.28-5.15-1.56-10.29-3.14-15.36-4.8C965.23,901.87,949,895.9,932.82,889.67Z" />
                        <path class="trib-cls-4"
                            d="M919.6,884.39q-16.5-6.54-32.87-13.34-17.61-7.34-35.16-14.78c-19-8.06-38-16.14-57-23.95q-8.7-3.55-17.44-7a260.39,260.39,0,0,1-19.37,33.82q19.23,6.06,38.26,12.51c7.23,2.44,14.44,4.93,21.65,7.42q20.21,7,40.39,14c18.36,6.4,36.73,12.75,55.23,18.8,3.67,1.2,7.38,2.33,11.06,3.51-.08-1.14-.09-2.32-.19-3.44A181.68,181.68,0,0,0,919.6,884.39Z" />
                        <path class="trib-cls-4"
                            d="M1113.37,936.61a706.77,706.77,0,0,1-97.57-19.28c-.63,2.61-1.3,5.2-1.84,7.86-.91,4.44-1.58,9.07-2.1,13.77a772,772,0,0,0,101.88,14.36,31.29,31.29,0,0,0,.63-4.28,40.68,40.68,0,0,0-.42-9.71C1113.8,938.4,1113.56,937.51,1113.37,936.61Z" />
                        <path class="trib-cls-4"
                            d="M1474.74,779.32a50.72,50.72,0,0,0-7.86-17.19,85.28,85.28,0,0,0-5.93-7.45c-1.51-1.72-3.18-3.33-4.84-4.88a115.94,115.94,0,0,0-14.1-11.06,174.48,174.48,0,0,0-17.5-10.17,147.73,147.73,0,0,0-15.55-7,211.37,211.37,0,0,0-20.8-6.49c-4.22-1.09-8.47-2.09-12.79-3a166.34,166.34,0,0,0-21.3-2.73l-3.53-.06a164,164,0,0,1,19.77,2.19c3.45.6,6.8,1.34,10.16,2,2.86.74,5.73,1.44,8.56,2.19,5.15,1.37,10.24,3,15.21,4.73s9.58,3.81,14.26,5.94l.09,0,.08,0h-.05l.21.1.17.09.18.09,1.22.6c1.25.62,2.5,1.27,3.74,1.92,4,2.12,8,4.37,11.92,6.81,9.46,5.95,18.82,13.13,26.13,22.25,5.3,6.62,9.36,14.11,11,22.55a41.32,41.32,0,0,1,.88,7.22,57.32,57.32,0,0,1-5.79,26,87.62,87.62,0,0,1-7.57,13.08c-8.9,12.65-20.84,24.55-33.15,34.4a353.31,353.31,0,0,1-55.7,36.34c-9.65,5.11-19.38,9.92-29.41,14.27-7.62,3.3-15.34,6.43-23.18,9.19-3.83,1.36-7.6,2.62-11.53,3.74l-3.47,1-1,.28-.47.12c-37,9.52-76.11,14.41-117.84,14.56-8.21,0-16.31-.15-24.33-.49-9.87-.43-19.6-1.07-29.25-2l-2.4-.26c.36,1,.75,2,1,3.07a47.61,47.61,0,0,1,1.73,12.9c1.71.07,3.39.2,5.1.26,6,.21,12.07.3,18.16.34a553.56,553.56,0,0,0,97.71-8c11-1.89,21.88-4.3,32.54-6.93a286.12,286.12,0,0,0,39.2-12.34,438.7,438.7,0,0,0,54.37-27c8-4.64,15.9-9.68,23.62-15,8.22-5.62,16.27-11.55,24.07-18a230.11,230.11,0,0,0,22.21-20.81c10.61-11.44,19.55-23.91,24.41-38.25a62.41,62.41,0,0,0,2.92-14.42A46,46,0,0,0,1474.74,779.32Z" />
                        <path class="trib-cls-4"
                            d="M727.18,806.41c-1.92,3.62-3.85,7.24-5.86,10.83-2.38,4.27-4.89,8.47-7.37,12.7a204.57,204.57,0,0,0,15.49-22.74Z" />
                        <path class="trib-cls-4"
                            d="M667.64,813a105.7,105.7,0,0,1,6.57,21.94c.08.45.12.93.2,1.38,4.85,1.08,9.7,2.17,14.51,3.34,1.14-1.82,2.38-3.6,3.51-5.43Q702.5,817.84,711.68,801c-20.53-6.88-41.4-13.07-62.77-18.18.13.16.28.31.41.46A119.46,119.46,0,0,1,667.64,813Z" />
                        <path class="trib-cls-4"
                            d="M377.27,886.77l17.41-13.57,6.75-3.87c-.21-.2-.38-.42-.59-.61a102,102,0,0,0-14.77-11.67,179,179,0,0,0-42.47-19.42c-4.66-1.47-9.39-2.71-14.16-3.87-1.25,1-2.52,1.85-3.75,2.84q-7.32,5.83-14.35,12.23a292.91,292.91,0,0,0-25.87,26.63A258.82,258.82,0,0,0,261.1,909a74.32,74.32,0,0,1,7-3.2,66.77,66.77,0,0,1,19.27-4.53,51.55,51.55,0,0,1,11.05.31,58.91,58.91,0,0,1,9.52,2c1.31.4,2.59.9,3.86,1.39,11.57,4.45,21.72,12.42,30,22.19a222,222,0,0,1,19.39-24.48A205.08,205.08,0,0,1,377.27,886.77Z" />
                        <path class="trib-cls-4"
                            d="M333.24,1022.45a167.38,167.38,0,0,1-38.52,12.67c-16.89,3.55-34.9,5.13-53,6.6A127.1,127.1,0,0,0,252,1062.79a144.67,144.67,0,0,0,30.94,36,131.22,131.22,0,0,0,22.44,14.93c.35-.45.66-.93,1-1.37a68.11,68.11,0,0,1,20-17.13q3.09-13.49,6.6-26.77a366,366,0,0,0,8.7-40.47l-7.55-4.56Z" />
                        <path class="trib-cls-4"
                            d="M318.17,1026.05a120.93,120.93,0,0,0,14-4.8l-6.82-7.46a41,41,0,0,1-5.77-12.28,46.38,46.38,0,0,1-1.5-11c0-1.31,0-2.6.06-3.93a65.52,65.52,0,0,1,2.36-15c.43-1.68,1-3.28,1.51-4.92a122.25,122.25,0,0,1,6.8-17.1,89.36,89.36,0,0,0-7.94-12.63,48.26,48.26,0,0,0-7.1-7.71c-3.43-2.89-7-5.9-11.15-7.47-.83-.32-1.67-.67-2.52-1a28,28,0,0,0-3.55-1.21,45.92,45.92,0,0,0-15.33-1.22,52.21,52.21,0,0,0-17.58,5.09,94.8,94.8,0,0,1,2,14.44,87.78,87.78,0,0,1-.75,17.83c-3.57,23.65-14.88,43.57-29.43,61.9a125.46,125.46,0,0,0,2.85,13.22c4.29.18,8.57.35,12.79.49C274.42,1032.11,297.65,1031.6,318.17,1026.05Z" />
                        <path class="trib-cls-4"
                            d="M249.93,931.61c-.45.33-.89.67-1.33,1a177.35,177.35,0,0,0-9.71,26.77,142.32,142.32,0,0,0-4.74,27.25c-.11,1.68-.1,3.44-.17,5.15,7.43-11.56,13.08-24,15.45-37.75A85.8,85.8,0,0,0,249.93,931.61Z" />
                        <path class="trib-cls-4"
                            d="M372.29,1038.72c-2.11,17.89-6.37,34.87-10.72,51.74a48,48,0,0,1,5,1.42,58.89,58.89,0,0,1,9.7,4.67c6.45-17.27,13.56-34.24,20.53-51.27-3.53-1-7.06-2.07-10.63-3C381.61,1041,377,1039.86,372.29,1038.72Z" />
                        <path class="trib-cls-4"
                            d="M432.41,1054.82q-10.46-2.55-20.77-5.39c-.37,1-.71,2-1.08,3.07q-5,13.88-10.22,27.63c3.51-2.9,7-5.81,10.57-8.64,3.29-2.61,6.63-5.16,9.94-7.73C424.7,1060.78,428.54,1057.77,432.41,1054.82Z" />
                        <path class="trib-cls-4"
                            d="M480.16,1065.34c-4.63-.93-9.24-1.9-13.84-2.88q-4.57,4.76-9.11,9.5-5.93,6.21-11.74,12.44c-1.63,1.76-3.2,3.53-4.81,5.29q-2.85,3.11-5.66,6.22c-5.4,6-10.68,12.1-15.6,18.39-1.6,2-3.2,4.14-4.76,6.23h58.65c.73-4.9,1.59-9.73,2.68-14.36a181.51,181.51,0,0,1,5.23-17.7c1.45-4.2,3-8.35,4.73-12.41.34-.81.74-1.6,1.09-2.41,1-2.17,2-4.27,3.06-6.4-2.48-.48-5-.94-7.43-1.43Z" />
                        <path class="trib-cls-4"
                            d="M771.46,1112.87c-3.07,2.71-6.2,5.25-9.4,7.66h42c-2.09-.57-4.19-1.14-6.3-1.69C789.15,1116.6,780.35,1114.64,771.46,1112.87Z" />
                        <path class="trib-cls-4"
                            d="M729.94,1105.86c-14.87-2.17-29.85-4.13-44.78-6.16-7.84-1.06-15.59-2.26-23.33-3.49l-3.35-.54c-14.76-2.38-29.43-4.92-44.25-7.32q-21.4-3.48-42.86-6.92c-.41,1-.79,2-1.19,3.07-3.34,8.65-6.11,18-6.92,27.69.32-.16.63-.34,1-.49a134.67,134.67,0,0,1,23.69-8.64c.29-.08.57-.19.86-.27a118.46,118.46,0,0,1,16-2.88,91.37,91.37,0,0,1,24.15.73,115.62,115.62,0,0,1,17.37,4.57c.54.18,1.09.34,1.63.53,12.6,4.36,24.52,10.07,36.93,14.79h66.37a109.5,109.5,0,0,0,13.59-8.91C753.34,1109.46,741.68,1107.58,729.94,1105.86Z" />
                        <path class="trib-cls-4"
                            d="M369.42,846.29A129.71,129.71,0,0,1,388.55,856a138.37,138.37,0,0,1,15.82,11.63l23.87-13.71a299.71,299.71,0,0,1,30.17-12.67,51.66,51.66,0,0,1-7.13-32.14A66.61,66.61,0,0,1,459,784.61a78.44,78.44,0,0,1,5.69-9.11,366.73,366.73,0,0,0-48.39,13,360.18,360.18,0,0,0-43.19,18.18,257.79,257.79,0,0,0-32.26,18.66c-3.83,2.66-7.6,5.55-11.36,8.46,2.58.59,5.2,1.15,7.76,1.78A219.21,219.21,0,0,1,369.42,846.29Z" />
                        <path class="trib-cls-4"
                            d="M600.17,824.6c.53,0,1.07.07,1.6.12,3.23.26,6.38.72,9.57,1.06C624.78,827.19,638,829,651,831.46l.25,0a85.91,85.91,0,0,0-6-19,100.6,100.6,0,0,0-13.12-21.91l-3.47-4.13-4.79-5.7-1.35-1.3-2.9-2.78a454.27,454.27,0,0,0-95-8c-7.23.18-14.4.66-21.43,1.25-11.46,1-22.57,2.65-33.53,4.65A75.69,75.69,0,0,0,457.3,794a62,62,0,0,0-4.82,19.64,43.3,43.3,0,0,0,.45,10.23A49.92,49.92,0,0,0,459,841.05c1.75-.64,3.46-1.36,5.23-2a268.19,268.19,0,0,1,28.64-8,310.22,310.22,0,0,1,35.77-5.81c1.37-.15,2.75-.29,4.13-.42,7.13-.67,14.34-1.22,21.71-1.49A397.51,397.51,0,0,1,600.17,824.6Z" />
                    </g>
                    <g id="Layer_19">
                        <path class="trib-cls-5"
                            d="M792.82,1091.57c-.17-.48-.33-1-.5-1.45l-.24-.73-1.12.88c-8.93,7-17.29,14.68-26.11,21.35a109.5,109.5,0,0,1-13.59,8.91h10.8c3.2-2.41,6.33-5,9.4-7.66,5.26-4.64,10.39-9.56,15.58-14.26,1.86-1.7,3.79-3.35,5.67-5,.07-.06.61-.46.61-.54A5.67,5.67,0,0,0,792.82,1091.57Z" />
                    </g>
                    <g id="Layer_18">
                        <path class="trib-cls-5"
                            d="M1045.67,1113.27c-3.32-12.49-8.82-25.13-19.39-33.74a54.14,54.14,0,0,0-7-4.86c-6.2-3.56-13-5.43-20.49-6.37-9.54-1.19-19.35.06-28.22,1.65a58.43,58.43,0,0,0-12.18,3.21,32.66,32.66,0,0,0-8,4.66,38.06,38.06,0,0,0-8.56,9.94,57.75,57.75,0,0,0-6.75,18.15c-1,4.78-1.72,9.69-2.27,14.62h25.3c.1-1.26.15-2.54.29-3.79,0-.06,0-.11,0-.17.64-5.93,1.6-12.36,4.53-17.14,0,0,.05-.12.09-.17a10.69,10.69,0,0,1,3.24-3.65l3.19-1.42,6.18-1.6a82.24,82.24,0,0,1,17-2.2c9.8-.21,18.57,2.69,24.42,10.08a39,39,0,0,1,3.23,4.64,72.25,72.25,0,0,1,6.3,15.42h20.74C1046.78,1118.1,1046.3,1115.65,1045.67,1113.27Z" />
                    </g>
                    <g id="Layer_17">
                        <path class="trib-cls-5"
                            d="M851.18,1060.4c-2.81-4.51-5.77-8.94-9-13.22-2.53-3.31-5.08-6.48-7.78-9.75-10.49-12.68-23.64-23.53-36.87-32.12a176.35,176.35,0,0,0-19.6-11.19,72.72,72.72,0,0,0-12.08-4.46A74.52,74.52,0,0,0,749.11,987a82.37,82.37,0,0,0-9.33.28,66.55,66.55,0,0,0-10.93,1.94c-10.43,2.55-19.8,7.54-28.37,13.9a82.85,82.85,0,0,0-11.7,10.76,73.61,73.61,0,0,0-16.45,28,59.43,59.43,0,0,0-2.55,14.11,40,40,0,0,0,8,26.78c.18.24.39.45.57.68a43.82,43.82,0,0,0,11.12,10,70.64,70.64,0,0,0,15.71,7.3,109.7,109.7,0,0,0,25.35,4.82c5.23.45,10.54.73,15.95.73-5.41,0-10.67-.3-15.85-.77a109.94,109.94,0,0,1-25-4.94,72.12,72.12,0,0,1-15.09-7.14,37.27,37.27,0,0,1-5.27-3.94,44.52,44.52,0,0,1-6.19-6.62c-.16-.21-.29-.43-.44-.64-5.06-7-7.51-15.17-7.3-25.12a47.34,47.34,0,0,1,2.95-14.62c5.26-15.17,16.68-28.49,30.39-37.67,13.37-9,30.48-14,48.4-11.37a59.55,59.55,0,0,1,8,1.74,1.15,1.15,0,0,0,.17.06,88.59,88.59,0,0,1,16.13,7c-.12,0-.33-.18.13.1.23.16.48.31.72.45s.65.41,1,.6c1.76,1.07,3.5,2.15,5.25,3.27a186.48,186.48,0,0,1,17.83,13.17,156.81,156.81,0,0,1,32.78,38.32c1,1.71,2.21,3.38,3.2,5.11,3.78,6.61,7.14,13.44,10.27,20.39a121.55,121.55,0,0,1,6.87-16C854.06,1065.27,852.67,1062.8,851.18,1060.4Z" />
                    </g>
                    <g id="Layer_16">
                        <path class="trib-cls-5"
                            d="M1130,941.38c-.3-1-.69-2-1-3.07-4.41-12.45-13.38-23.12-24.14-31.6-2.66-2.09-5.42-3.89-8.19-5.79,6.81,11.22,13.91,22.52,16.75,35.69.19.9.43,1.79.58,2.72a40.68,40.68,0,0,1,.42,9.71,31.29,31.29,0,0,1-.63,4.28c-2.12,9.72-8.55,17.67-16.12,24.15L1089,984l-13.61,7.09a77.87,77.87,0,0,1-15,4.27c-13.18,2.37-27.47,2.61-41.82,2.31-8-.17-16-.5-23.82-.75h-.13c-11.39-.35-23.14-.69-34.14.46-18,1.88-34.62,6-49.56,13.52a104.44,104.44,0,0,0-24.61,17.21,96,96,0,0,0-14.15,17.11,89.19,89.19,0,0,0-8.13,15.26l-.65,2.06-3.93,12.53-1.65-3.35c-.74-1.36-1.58-2.66-2.34-4a121.55,121.55,0,0,0-6.87,16c-.51,1.51-1,3-1.43,4.58,0,.06,0,.13,0,.2a68.08,68.08,0,0,0-2.56,15.64,55.67,55.67,0,0,0,2,16.42h41.69a92.87,92.87,0,0,1-1-11.54,100.52,100.52,0,0,1,1-15.83,73.11,73.11,0,0,1,7-22.94,66.6,66.6,0,0,1,14.31-18.86c1.82-1.68,3.79-3.14,5.68-4.58a72.26,72.26,0,0,1,16-8.81,117.43,117.43,0,0,1,29.38-7.38l19.43-1.26,26.34,0h.44c9.09,0,18-.23,26.8-.77,19.58-1.22,38-4.41,54-12.94a98.88,98.88,0,0,0,29.52-24.22,77.5,77.5,0,0,0,9.62-15.12,50.11,50.11,0,0,0,4.9-22A47.61,47.61,0,0,0,1130,941.38Z" />
                    </g>
                    <g id="Layer_15">
                        <path class="trib-cls-5"
                            d="M936,919.07a185.91,185.91,0,0,0-4.9-30.1c-1-4-2.06-7.91-3.27-11.74a224.08,224.08,0,0,0-10.37-26.69,210.31,210.31,0,0,0-48.11-66.17,128.08,128.08,0,0,0-36.78-24.32,78.09,78.09,0,0,0-20.64-5.8,52.49,52.49,0,0,0-15.69.31c-1.09.2-2.09.5-3.12.77a51.89,51.89,0,0,0-7.07,2.36,42.08,42.08,0,0,0-15.41,11.77c-5.35,6.37-8.9,13.48-11.76,21.18A97,97,0,0,0,755.52,802,134.94,134.94,0,0,0,753,815.86c-.09.68-.21,1.32-.29,2q-.78,6.54-1.15,13.32v.16L752.7,819c.14-1,.34-2,.5-3,.81-5.27,1.79-10.35,3-15.43a85.81,85.81,0,0,1,4.15-12.29,61.65,61.65,0,0,1,5.74-11.08,64.24,64.24,0,0,1,4.12-5.63c6.19-7.26,13.85-12.41,22.85-14.44a38.88,38.88,0,0,1,4.65-.78,56,56,0,0,1,16.51.87,74.09,74.09,0,0,1,20.88,7.71,155.31,155.31,0,0,1,16.24,10.41c9.13,6.71,17.45,15.25,25.08,23.89A183.38,183.38,0,0,1,893.28,822c1.69,2.63,3.16,5.38,4.71,8.08a201.23,201.23,0,0,1,10.57,20.81c.6,1.39,1.08,2.83,1.64,4.23a203.35,203.35,0,0,1,9.4,29.26,181.68,181.68,0,0,1,4.52,27.54c.1,1.12.11,2.3.19,3.44a155.71,155.71,0,0,1,.24,19.68c-.23,3.63-.57,7.16-1,10.64l-1.34,10.16,0,.16c0,.18-.08.36-.11.53-.1.46-.17.93-.27,1.38-.27,1.19-.6,2.37-.91,3.49a69.4,69.4,0,0,1-2.49,7.11,143.15,143.15,0,0,1-11,20.86c-15.17,24.59-34.63,47.05-48.63,72.26-.77,1.39-1.6,2.76-2.33,4.16-.33.64-.64,1.29-1,1.92.76,1.34,1.6,2.64,2.34,4l1.65,3.35,3.93-12.53.65-2.06a89.19,89.19,0,0,1,8.13-15.26,96,96,0,0,1,14.15-17.11,104.44,104.44,0,0,1,24.61-17.21c.3-.47.62-.93.92-1.4,8.43-13.18,16.72-27,21-42.06,2.35-8.31,3.18-17.43,3.57-26.79A179.48,179.48,0,0,0,936,919.07Z" />
                        <path class="trib-cls-5"
                            d="M751.19,844.9l.37-13.56,0,.39C751.29,836.06,751.19,840.46,751.19,844.9Z" />
                    </g>
                    <g id="Layer_14">
                        <path class="trib-cls-5"
                            d="M1101.58,1090.54c-18.31-11.52-36.71-24.39-52-41.46-3.06-3.4-6-6.84-8.77-10.37-2.56-3.29-4.89-6.68-7.11-10.11-8.76.54-17.71.74-26.8.77h-.44c10.92,22.3,27.08,42.19,46.73,59.39a350.72,350.72,0,0,0,43.18,31.77h57.55C1136.28,1110.82,1118.6,1101.26,1101.58,1090.54Z" />
                        <path class="trib-cls-5"
                            d="M1014,982.43c0,.12.1.45.07.33-.12-.48-.23-1-.33-1.44-.25-1.09-.51-2.18-.71-3.3a118.08,118.08,0,0,1-1.8-13,137.2,137.2,0,0,1,.61-26.07c.52-4.7,1.19-9.33,2.1-13.77.54-2.66,1.21-5.25,1.84-7.86,7.28-29.83,20.4-57.05,33.2-84.26,7.28-15.5,14.65-30.92,21.29-46.7,1.94-4.61,3.78-9.27,5.57-14,.6-1.59,1.27-3.15,1.86-4.75,7.29-19.92,13.49-40.62,15.52-63.16,1-11,1.67-22.25,1.73-33.81.27-53.55-12.2-100.62-38.21-141.05a179.52,179.52,0,0,0-19-24.42,197.48,197.48,0,0,0-56.87-42.86,207.71,207.71,0,0,0-33.58-12.84c-10.86-3.24-22.36-5-34.19-6.38-20.17-2.3-41.92-.63-60.68,3-29.2,5.72-55.19,17.17-79.55,32.56a198.24,198.24,0,0,0-18.34,13.14c-1.55,1.25-3.08,2.55-4.63,3.83-3,2.46-5.93,5-8.84,7.65-1.83,1.65-3.69,3.26-5.47,5a299.45,299.45,0,0,0-42.8,52.46c-1.7,2.65-3.34,5.31-4.94,8-.51.86-1,1.73-1.5,2.58-.13.22-.6.78-.6,1a8.08,8.08,0,0,0,.78,2.17A308,308,0,0,1,725,522.48c5.45-5.91,11.17-11.42,17-16.7q4.4-4,8.94-7.71A229.47,229.47,0,0,1,822.08,458a207.44,207.44,0,0,1,51.33-10.94c6.13-.47,12.41-.75,18.79-.7a189.34,189.34,0,0,1,94.06,25.22,177.17,177.17,0,0,1,46,37.67,197,197,0,0,1,21.91,30.49,219.61,219.61,0,0,1,19.08,44c7.27,23.49,10.7,48.69,11,75.72.17,15.44-1.27,30.23-2.84,44.78,0-.17-.19,1.17-.22,1.47-.13.83-.25,1.67-.36,2.5-.29,2.08-.67,4.22-1.07,6.24a255,255,0,0,1-6.3,24.92,301.75,301.75,0,0,1-13.71,35.56q-3.59,8-7.37,15.84c-.7,1.44-1.37,2.89-2.07,4.33-13.25,27.09-27.8,53.37-40,80.95a272.88,272.88,0,0,0-13.17,36c-.68,2.42-1.39,4.83-2,7.28-1.21,5-2.19,10-3,15.15a156.41,156.41,0,0,0-2.28,26.92,146.54,146.54,0,0,0,4.92,35.51c7.84.25,15.84.58,23.82.75Q1016,990.25,1014,982.43Z" />
                    </g>
                    <g id="Layer_13">
                        <path class="trib-cls-5"
                            d="M315.39,224.37c-1.81,5.85-3.34,11.91-4.76,17.9l-1.58,8.7,6.62-27.32Z" />
                        <path class="trib-cls-5" d="M315.67,223.65l10.74-27.59A201.37,201.37,0,0,0,315.67,223.65Z" />
                        <polygon class="trib-cls-5" points="308.54 253.05 308.03 256.5 309.05 250.97 308.54 253.05" />
                        <path class="trib-cls-5"
                            d="M387.57,430.36a57,57,0,0,1-20.82,1.71,45.65,45.65,0,0,1-8.56-1.94L345.7,423.9l-10.38-8.55c-9.42-9.52-16.05-21.64-20.57-33.62-1.43-3.75-2.71-7.58-3.81-11.45-5.82-20.36-8-42.41-7.63-65.75.14-9.35.81-18.44,1.71-27.4l3-20.63-2.75,15.12c-1.31,10.05-2.12,20.33-2.43,30.78-.77,26.54,1.63,51.54,8.69,74.28,5.38,17.35,14.26,34,29,46.08,9.7,7.95,20.86,12.59,34.58,12.28a70,70,0,0,0,17.57-3,190,190,0,0,0,19.34-6.89c-.23-1.12-.48-2.22-.7-3.34C403.59,425,395.84,428.25,387.57,430.36Z" />
                        <path class="trib-cls-5"
                            d="M751,498.07q-4.54,3.74-8.94,7.71a327.73,327.73,0,0,1,17.16,59.64,291,291,0,0,1,3.86,77.07c-.73,8.49-1.84,16.77-3.16,24.93,1.86,2,3.7,3.93,5.45,5.94a91.59,91.59,0,0,1,6.76,9.1c1.14-6.19,2.14-12.44,2.91-18.79a317.32,317.32,0,0,0,2.58-39.32C777.43,577.56,767.35,536.45,751,498.07Z" />
                        <path class="trib-cls-5"
                            d="M700.83,434.08a179.36,179.36,0,0,1,20.31,27.67c2.4,4,4.48,8.14,6.72,12.22-.11-.19.39.82.48,1,.33.66.65,1.33,1,2,.91,1.85,1.8,3.65,2.67,5.48,3.29,6.88,6.27,13.81,9.13,20.91,2.91-2.63,5.85-5.19,8.84-7.65-.86-2-1.66-4-2.56-6-8.31-18.28-17.76-35.55-30.39-51.68a156.61,156.61,0,0,0-14.25-15.56c-25-24.22-56.45-36.77-92.15-39.67-4.19-.34-8.49-.57-12.81-.65-27.94-.51-53.66,3.68-78.88,8.88-20.07,4.15-39.69,9.61-59.16,15.05-9,2.52-18.1,4.89-26.95,7.68-2.43.76-4.81,1.69-7.22,2.54.28,1.13.57,2.26.86,3.39,1.15-.39,2.29-.8,3.46-1.17,1-.3,2-.6,3-.89l1.1-.31s.36-.07.25-.07c26.11-6.92,52.14-14,78.89-19.48a418,418,0,0,1,48.77-7.52c8.16-.69,16.51-1.23,25-1.23C632.57,389,671.6,401.72,700.83,434.08Z" />
                        <path class="trib-cls-5"
                            d="M744.27,728.82c-8.77,25.12-19.95,49-32.59,72.21q-9.16,16.82-19.25,33.19c-1.13,1.83-2.37,3.61-3.51,5.43-4.21,6.71-8.49,13.39-12.92,20l-.15.23-.26.4q-11,16.31-22.64,32.28,11.14-10,22-20.43c2.25-2.16,4.54-4.22,6.77-6.41,1.82-1.79,3.6-3.61,5.39-5.43l.55-.55c5.29-5.39,10.42-10.9,15.31-16.51,2.9-3.33,5.74-6.68,8.45-10.07.85-1.07,1.66-2.15,2.49-3.22,2.48-4.23,5-8.43,7.37-12.7,2-3.59,3.94-7.21,5.86-10.83q9.11-17.17,16.86-35a91.79,91.79,0,0,0,2.53-25.7Z" />
                    </g>
                    <g id="Layer_12">
                        <path class="trib-cls-5"
                            d="M487.85,867.21c.65.32,1.28.73,1.93,1-.66-.31-1.27-.71-1.92-1-1.7-.87-3.4-1.74-5-2.72l-3.78-2.5,3.6,2.45C484.37,865.45,486.11,866.32,487.85,867.21Z" />
                        <path class="trib-cls-5"
                            d="M676,850.62a119.79,119.79,0,0,0-1.55-14.31c-.08-.45-.12-.93-.2-1.38A105.7,105.7,0,0,0,667.64,813a119.46,119.46,0,0,0-18.32-29.68c-.13-.15-.28-.3-.41-.46a140.4,140.4,0,0,0-11.69-12.39c-1-.89-1.92-1.75-2.89-2.62-2.05-1.86-4.13-3.68-6.25-5.44a123.91,123.91,0,0,0-12.2-9.11c-20.18-13-42.42-21.93-69.52-20.95A110.85,110.85,0,0,0,515,738.26a101.73,101.73,0,0,0-34.08,19.46,99.13,99.13,0,0,0-16.24,17.78,78.44,78.44,0,0,0-5.69,9.11,66.61,66.61,0,0,0-7.69,24.51,51.66,51.66,0,0,0,7.13,32.14,59.8,59.8,0,0,0,11.91,14.21l5.5,4.33.45.33,2.79,1.85-3.24-2.21-6.37-5.4a65.41,65.41,0,0,1-5.69-6.19,52.2,52.2,0,0,1-4.78-7.13,49.92,49.92,0,0,1-6.05-17.17,43.3,43.3,0,0,1-.45-10.23A62,62,0,0,1,457.3,794a75.69,75.69,0,0,1,12.35-19.43,81.51,81.51,0,0,1,6.46-6.7,95.59,95.59,0,0,1,28.16-18.3,104.53,104.53,0,0,1,28.26-7.38,91.13,91.13,0,0,1,28,1.1,106.86,106.86,0,0,1,38.57,16,119.62,119.62,0,0,1,11.45,8.6l9.1,8.73,2.9,2.78,1.35,1.3,4.79,5.7,3.47,4.13a100.6,100.6,0,0,1,13.12,21.91,85.91,85.91,0,0,1,6,19c.36,2,.68,3.92.89,5.93.27,2.5.43,5.17.56,7.79a76.91,76.91,0,0,1-.45,12.28c0,.3-.07.59-.1.88-.34,2.84-.76,5.64-1.27,8.32a132.2,132.2,0,0,1-6.7,23.29c-2.28,5.8-4.84,11.48-7.54,17.09-4,8.3-8.38,16.42-13.06,24.4,10-12.88,19.85-25.83,29.39-38.93q11.65-16,22.64-32.28l.26-.4.15-.23C676.09,856.67,676.1,853.66,676,850.62Z" />
                    </g>
                    <g id="Layer_11">
                        <path class="trib-cls-5"
                            d="M770.26,771.51a64.24,64.24,0,0,0-4.12,5.63,61.65,61.65,0,0,0-5.74,11.08,85.81,85.81,0,0,0-4.15,12.29c-1.26,5.08-2.24,10.16-3,15.43-.16,1-.36,2-.5,3l-1.14,12.37-.37,13.56c0-4.44.1-8.84.33-13.17l0-.39v-.16q.38-6.78,1.15-13.32c.08-.68.2-1.32.29-2A134.94,134.94,0,0,1,755.52,802a97,97,0,0,1,3.32-11.34c2.86-7.7,6.41-14.81,11.76-21.18A42.08,42.08,0,0,1,786,757.69a51.89,51.89,0,0,1,7.07-2.36,144,144,0,0,0-2.35-25.39c-3.06-16.11-8.08-30.93-16.48-44.31-.68-1.06-1.42-2.11-2.13-3.17a91.59,91.59,0,0,0-6.76-9.1c-1.75-2-3.59-4-5.45-5.94a121.13,121.13,0,0,0-8.84-8.58c-13-11.21-27.18-19.41-42.17-26.49q-12.15-5.73-24.87-10.28c-37.5-13.49-77.24-22.87-115-36-24.1-8.32-47.42-18.32-68.28-33.08a136.44,136.44,0,0,1-27.41-25.66,90.42,90.42,0,0,1-7.22-10.06,10.28,10.28,0,0,1-.68-1.05l-1-1.53c-1-1.57-1.94-3.14-2.87-4.75-3.69-6.33-7.06-12.56-10.23-19.13-9.41-19.49-16.53-40.2-22.42-61.49-.88-3.19-1.63-6.45-2.45-9.66-.29-1.13-.58-2.26-.86-3.39C412,361.68,406,303.21,394.3,247.5c-6.2-29.6-13.76-58.34-24.85-85.48-12-29.44-28.51-57-52.35-80.4-4.26-4.17-8.53-8.08-13-11.79A239.83,239.83,0,0,0,257.4,39.72l-18.06-7.39,12.25,5.3c-.05,0-.42-.2.21.11l.66.33c.95.47,1.92,1,2.88,1.41,2,1,4.06,2,6.06,3.1a251.58,251.58,0,0,1,21.79,13.11c18.69,12.62,36.85,29.6,50.34,48.16a222.07,222.07,0,0,1,17.34,27.38,305.4,305.4,0,0,1,14.89,33.13c10.92,28.9,17.41,59.93,22.56,91.71,8.87,54.82,12.47,112,23,165.71.22,1.12.47,2.22.7,3.34a439.4,439.4,0,0,0,12.32,48A322.64,322.64,0,0,0,439.68,512c7.46,15.84,16.32,30.66,28.82,44S495,579.65,509.6,588.8C529.91,601.5,552,611,574.46,619.63c22.17,8.55,44.67,16.37,66.88,24.66,15.42,5.76,30.81,11.9,45.22,19.48,16.24,8.55,33,18.86,44.72,34.37a75.53,75.53,0,0,1,10,18.33l2.36,8,.6,4.36,2.3,16.9a91.79,91.79,0,0,1-2.53,25.7c-.12.49-.21,1-.33,1.5a131.88,131.88,0,0,1-14.27,34.28A204.57,204.57,0,0,1,714,829.94c-.83,1.07-1.64,2.15-2.49,3.22-2.71,3.39-5.55,6.74-8.45,10.07-4.89,5.61-10,11.12-15.31,16.51l-.55.55c-1.79,1.82-3.57,3.64-5.39,5.43-2.23,2.19-4.52,4.25-6.77,6.41q-10.9,10.44-22,20.43c-9.54,13.1-19.41,26.05-29.39,38.93,4.68-8,9.06-16.1,13.06-24.4-19.46,17-39.17,33.71-58.16,51.3-12.79,11.85-25.59,24.09-37.41,37-9.18,10-17.8,20.32-25.75,30.95-5.35,7.15-10.41,14.44-15,22-3.74,6.16-7.11,12.51-10.23,19-1,2.13-2.1,4.23-3.06,6.4-.35.81-.75,1.6-1.09,2.41-1.73,4.06-3.28,8.21-4.73,12.41a181.51,181.51,0,0,0-5.23,17.7c-1.09,4.63-2,9.46-2.68,14.36h211.6c-12.41-4.72-24.33-10.43-36.93-14.79-.54-.19-1.09-.35-1.63-.53a115.62,115.62,0,0,0-17.37-4.57,91.37,91.37,0,0,0-24.15-.73,118.46,118.46,0,0,0-16,2.88c-.29.08-.57.19-.86.27a134.67,134.67,0,0,0-23.69,8.64c-.33.15-.64.33-1,.49.81-9.74,3.58-19,6.92-27.69.4-1,.78-2.06,1.19-3.07.69-1.69,1.39-3.37,2.1-5,2.1-4.85,4.44-9.62,6.88-14.35,5.89-11.43,12.55-22.56,19.27-33.51.89-1.45,1.81-2.9,2.71-4.34,9.7-10.57,19.86-20.89,30.16-31.14,25.78-25.65,52.78-50.13,77.84-76.51,17-17.92,33.21-36.35,46.53-56.16.29-.43.57-.88.86-1.31a260.39,260.39,0,0,0,19.37-33.82,168.83,168.83,0,0,0,12-34.14,164.92,164.92,0,0,0,3.54-21.78c.37-4.05.49-8.17.51-12.29C784.11,759.1,776.45,764.25,770.26,771.51Z" />
                        <polygon class="trib-cls-5" points="236.37 31.12 239.34 32.33 237.37 31.48 236.37 31.12" />
                        <polygon class="trib-cls-5" points="181.87 11.97 190.15 14.73 180.01 11.3 181.87 11.97" />
                        <polygon class="trib-cls-5"
                            points="190.15 14.73 205.87 20.05 236.37 31.12 223.4 25.8 190.15 14.73" />
                        <path class="trib-cls-5" d="M167.15,6.93,180,11.3,149,0C154.87,2.61,161,4.76,167.15,6.93Z" />
                    </g>
                    <g id="Layer_10">
                        <path class="trib-cls-5"
                            d="M557.33,903.62c-.12-2.45-.24-4.89-.5-7.27-.45-4.07-1.12-8.05-1.93-12a187,187,0,0,0-11.31-35c-.23-.54-.43-1.11-.66-1.65-.45-1-.93-2-1.37-3.09q-4.32-10-8.81-19.87c-1.38.13-2.76.27-4.13.42,1.39,3.33,2.81,6.65,4.18,10s2.63,6.79,3.93,10.19c.62,1.61,1.27,3.21,1.87,4.84,2.48,6.8,4.81,13.67,6.76,20.73a121.09,121.09,0,0,1,3.79,19.49c.19,1.81.36,3.64.45,5.49a140.84,140.84,0,0,1-.18,15.12c0,.56-.14,1.08-.19,1.64a89.45,89.45,0,0,1-2.17,12.73c-2.5,10.49-6.6,19.82-11.24,29.11.13-.34-.37.64-.46.81-.4.76-.82,1.5-1.24,2.22-1.39,2.39-2.8,4.76-4.34,7.06a200.65,200.65,0,0,1-12.63,16.63c-3.46,4.14-7.2,8.13-11,12-6.69,6.84-13.75,13.33-20.8,19.47-.71.61-1.42,1.26-2.13,1.87-4.63,4-9.34,7.82-14.06,11.64q-7.89,6.38-15.88,12.54l-3.31,2.59q-8.76,6.74-17.53,13.42c-3.87,3-7.71,6-11.56,8.94-3.31,2.57-6.65,5.12-9.94,7.73-3.54,2.83-7.06,5.74-10.57,8.64-6.63,5.46-13.18,11-19.49,17l-1.37,1.34a64.51,64.51,0,0,1,5.5,4.16c1.47,1.24,2.91,2.51,4.29,3.89.27.27.49.57.75.84a107.16,107.16,0,0,1,10.69,13.14h13.93c1.56-2.09,3.16-4.18,4.76-6.23,4.92-6.29,10.2-12.37,15.6-18.39q2.81-3.12,5.66-6.22c1.61-1.76,3.18-3.53,4.81-5.29q5.8-6.24,11.74-12.44,4.53-4.76,9.11-9.5l5.73-6,5.49-5.72q7.63-8,15.08-16.09c5.88-6.41,11.61-12.88,17.12-19.46s10.9-13.35,15.86-20.25c4.45-6.2,8.55-12.41,12.36-18.84a152.14,152.14,0,0,0,11.25-23.79c5.31-14.05,8.76-29.47,8.29-46.33C557.47,905.21,557.37,904.42,557.33,903.62Z" />
                    </g>
                    <g id="Layer_9">
                        <path class="trib-cls-5"
                            d="M416,879.83a88,88,0,0,0-10.83-11.54c-.27-.23-.55-.42-.82-.65A138.37,138.37,0,0,0,388.55,856a129.71,129.71,0,0,0-19.13-9.72,219.21,219.21,0,0,0-32.2-10.76c-2.56-.63-5.18-1.19-7.76-1.78l-1.92-.44c-2.2-.5-4.39-1-6.6-1.52l-3.87-.89c1.3.29,2.57.6,3.87.9q3.31.74,6.59,1.52l1.91.44c4.77,1.16,9.5,2.4,14.16,3.87a179,179,0,0,1,42.47,19.42,102,102,0,0,1,14.77,11.67c.21.19.38.41.59.61,17.18,16.43,25.81,37.92,25.81,62.86,0,5.11-.23,10-.7,14.85a204.2,204.2,0,0,1-5.06,27.86,321.42,321.42,0,0,1-9.79,32.12q-2.29,6.47-4.71,12.83c-2.65,6.94-5.42,13.82-8.21,20.69q-1,2.37-1.93,4.74c-7,17-14.08,34-20.53,51.27,1.07.63,2.14,1.25,3.17,2l1.37-1.34c6.31-6,12.86-11.57,19.49-17q5.22-13.76,10.22-27.63c.37-1,.71-2,1.08-3.07,4-11.37,7.89-22.81,11.3-34.43.16-.55.35-1.09.51-1.64,3.12-10.79,5.78-21.75,8.12-33a181.36,181.36,0,0,0,3.82-30.55C436.38,922.88,431.22,899,416,879.83Z" />
                    </g>
                    <g id="Layer_8">
                        <path class="trib-cls-5"
                            d="M390,1107.39c-.26-.27-.48-.57-.75-.84-1.38-1.38-2.82-2.65-4.29-3.89a64.51,64.51,0,0,0-5.5-4.16c-1-.7-2.1-1.32-3.17-2a58.89,58.89,0,0,0-9.7-4.67,48,48,0,0,0-5-1.42c4.35-16.87,8.61-33.85,10.72-51.74.39-3.26.71-6.53.94-9.85.27-4,.38-8,.4-12a128.06,128.06,0,0,0-2.49-27.37c-1-4.43-2.17-8.68-3.49-12.86a182.13,182.13,0,0,0-8-20.64A130.2,130.2,0,0,0,344.83,931c-1-1.3-2-2.55-3.08-3.79-8.26-9.77-18.41-17.74-30-22.19-1.27-.49-2.55-1-3.86-1.39a58.91,58.91,0,0,0-9.52-2,51.55,51.55,0,0,0-11.05-.31,66.77,66.77,0,0,0-19.27,4.53,74.32,74.32,0,0,0-7,3.2c-.58.3-1.13.67-1.7,1a81.6,81.6,0,0,0-12.33,8.4c-1.39,1.15-2.8,2.28-4.14,3.53a122.18,122.18,0,0,0-25.18,33.54,143.38,143.38,0,0,0-14.4,45,149.33,149.33,0,0,0-1.32,29.53c0,.09,0,.19,0,.29.22,4.59.58,9.13,1.18,13.44.08.6.22,1.18.31,1.78.29,1.9.63,3.78,1,5.65a144.21,144.21,0,0,0,9.85,31.89,123.6,123.6,0,0,1-7.88-24.75c-.53-2.52-1-5.1-1.4-7.71-.27-1.72-.5-3.45-.7-5.2a114.52,114.52,0,0,1-.78-15.4c0-.11,0-.22,0-.33,0-.35,0-.68,0-1a144.24,144.24,0,0,1,1.58-18.41,132.22,132.22,0,0,1,10.47-34.75,114.13,114.13,0,0,1,8.66-15.87c6.53-9.8,14.69-19.43,24.23-26.88.44-.35.88-.69,1.33-1a73.59,73.59,0,0,1,6.12-4.19,80.18,80.18,0,0,1,7.56-4,52.21,52.21,0,0,1,17.58-5.09,45.92,45.92,0,0,1,15.33,1.22,28,28,0,0,1,3.55,1.21c.85.34,1.69.69,2.52,1,4.11,1.57,7.72,4.58,11.15,7.47a48.26,48.26,0,0,1,7.1,7.71,89.36,89.36,0,0,1,7.94,12.63,122.63,122.63,0,0,1,5.32,11.65c2.94,7.46,4.94,15.21,7,23,0-.13-.09-.28-.12-.42.2,1.06.41,2.13.62,3.2a83.11,83.11,0,0,1,1.31,8.42,135,135,0,0,1,0,20.8l-.06,1c-.12,1.6-.13,3.25-.31,4.8-.23,2-.57,4-.86,6a366,366,0,0,1-8.7,40.47q-3.5,13.27-6.6,26.77a68.11,68.11,0,0,0-20,17.13c-.36.44-.67.92-1,1.37l.07,0-.11,0c-1.43,1.8-2.83,3.62-4.11,5.51-.27.4-.51.81-.77,1.21H400.71A107.16,107.16,0,0,0,390,1107.39Zm-30.25-102.32.48-.42,0,0Z" />
                    </g>
                    <g id="Layer_7">
                        <path class="trib-cls-5"
                            d="M227.18,1108.11a68,68,0,0,0-30.36-4.11,67.18,67.18,0,0,0-26.47,8.37,76,76,0,0,0-11.55,8.16h90.78A88.65,88.65,0,0,0,227.18,1108.11Z" />
                    </g>
                    <g id="Layer_6">
                        <path class="trib-cls-5"
                            d="M332.14,1021.25a120.93,120.93,0,0,1-14,4.8c-20.52,5.55-43.75,6.06-67.12,5.24-4.22-.14-8.5-.31-12.79-.49-4.51-.18-9-.35-13.59-.5-7-.23-14.06-.39-21.06-.39a114.52,114.52,0,0,0,.78,15.4c.6-.08,1.19-.19,1.8-.26,1.62-.2,3.27-.36,4.9-.54,10.11-1.11,20.39-2,30.68-2.79,18-1.47,36.06-3,53-6.6a167.38,167.38,0,0,0,38.52-12.67c3.28-1.58,6.46-3.39,9.63-5.26l.06-1A112.51,112.51,0,0,1,332.14,1021.25Z" />
                        <path class="trib-cls-5"
                            d="M202,1030.21c0-.1,0-.2,0-.29a253.12,253.12,0,0,0-37.95,2.56c-32.63,5.11-60.9,20.19-83.05,45.54a111.71,111.71,0,0,0-20.47,33.6c-1.12,2.91-2.1,5.88-3,8.91H91.76c.59-1.62,1.21-3.24,1.91-4.82A103.85,103.85,0,0,1,107,1093.6l5.67-6.78,9-8.87a112.79,112.79,0,0,1,31.76-20.16,167,167,0,0,1,29.48-8.86q10.09-2.15,20.62-3.5c-.09-.6-.23-1.18-.31-1.78C202.62,1039.34,202.26,1034.8,202,1030.21Z" />
                    </g>
                    <g id="Layer_4">
                        <path class="trib-cls-5"
                            d="M204.39,1045.31c.2,1.75.43,3.48.7,5.2,2-2,4-4,6-6-1.63.18-3.28.34-4.9.54C205.58,1045.12,205,1045.23,204.39,1045.31Z" />
                        <path class="trib-cls-5"
                            d="M237.84,565.22c-4.3,4.87-8.74,9.68-13.22,14.48L226,580c4-4.47,8-9,11.81-13.5a291,291,0,0,0,29.76-41.83c3-5.12,5.56-10.43,8-15.81C266,529.13,253.25,547.77,237.84,565.22Z" />
                        <path class="trib-cls-5"
                            d="M215.73,881.43a133,133,0,0,1,11.81,9.08,73.61,73.61,0,0,1,9.63,9.71c1.63,2.14,3.2,4.16,4.61,6.4a53.42,53.42,0,0,1,5.29,11.73A81.6,81.6,0,0,1,259.4,910c-.54-1.3-1-2.62-1.63-3.88-5.15-10.52-13.88-20-23.56-27.43-4.46-3.4-9.06-6.51-13.71-9.52-3.47,2.87-7,5.66-10.46,8.47C211.94,878.86,213.85,880.1,215.73,881.43Z" />
                        <path class="trib-cls-5"
                            d="M136.16,793.73c4.8,22.21,16.37,41.15,34.3,56.21,3.77,3.16,7.64,6.09,11.56,8.89,3.24-2.47,6.48-4.92,9.7-7.42a160.7,160.7,0,0,1-15.24-10.95c-2.39-2-4.65-3.93-6.89-6.08A86.52,86.52,0,0,1,144,788a3.73,3.73,0,0,1-.13-.62c-.1-.41-.18-.83-.27-1.25-.16-.76-.31-1.53-.46-2.3-.76-3.67-1.32-7.33-1.92-11.13a228.29,228.29,0,0,1-2.39-26c-1.51-36.2,9-67.59,26.51-94.46,13.25-20.34,30.27-39,47.29-57.56l-1.77-.45c-1.09,1.14-2.17,2.29-3.27,3.43C191,614.79,174.67,632,161.82,650.82A174.38,174.38,0,0,0,139,697.34c-5.4,17.29-7.66,36.08-7.27,56.15a220.22,220.22,0,0,0,1.64,22.19C134.07,781.82,134.88,787.85,136.16,793.73Z" />
                        <path class="trib-cls-5"
                            d="M182.91,1048.93c-13.08,12.43-26.22,24.67-38.94,37.59a320.07,320.07,0,0,0-29.67,34h17.61c5.4-5.88,11-11.65,16.83-17.34,18.18-17.9,37.5-34.34,55.78-52.11-.36-1.87-.7-3.75-1-5.65Q193,1046.79,182.91,1048.93Z" />
                        <path class="trib-cls-5"
                            d="M263.61,923.41a80.18,80.18,0,0,0-7.56,4,73.59,73.59,0,0,0-6.12,4.19,85.8,85.8,0,0,1-.5,22.44c-2.37,13.78-8,26.19-15.45,37.75-7.87,12.24-17.75,23.53-28,34.38-.76.8-1.55,1.57-2.31,2.36,0,.36,0,.69,0,1,0,.11,0,.22,0,.33,7,0,14,.16,21.06.39q5.61-6.24,10.74-12.72c14.55-18.33,25.86-38.25,29.43-61.9a87.78,87.78,0,0,0,.75-17.83A94.8,94.8,0,0,0,263.61,923.41Z" />
                    </g>
                    <g id="Layer_3">
                        <path class="trib-cls-5"
                            d="M77.9,940.91c3.72-12.45,7.4-24.92,10.76-37.51,6.23-23.36,11.75-47.15,13.23-72.9a281.17,281.17,0,0,0-.07-29.89,115.12,115.12,0,0,0-2.33-17.75C97,771.09,93,760.48,85,751.48,77.6,743.24,68.12,739.22,57.79,737a63.82,63.82,0,0,0-13-1.27l-1.91,0c-.06,0-.6,0-.61,0a6.27,6.27,0,0,0-.13.71c-.06.23-.09.48-.13.71s-.09.48-.13.71-.09.47-.13.7-.09.48-.13.71c3.24.27,6.45.33,9.61.76a55.93,55.93,0,0,1,16.68,4.72,43.1,43.1,0,0,1,6.18,3.62,42.17,42.17,0,0,1,14.07,17.88,83.62,83.62,0,0,1,5.89,26.32c.81,11.14.09,22.61-.83,33.37,0-.16,0-.35,0,.2,0,.31-.08.64-.11,1-.11,1-.21,1.9-.32,2.84-.28,2.36-.64,4.63-1,6.92q-1.19,7.92-3,15.57A454.76,454.76,0,0,1,69,913.27c-8.41,21.26-17.71,42.09-26.6,63.11,5.53-6.33,11.26-12.56,17.34-18.52S71.78,946.41,77.9,940.91Z" />
                    </g>
                    <g id="Layer_2-2">
                        <polygon class="trib-cls-5" points="158.03 274.46 156.29 274.98 165.93 273.17 158.03 274.46" />
                        <path class="trib-cls-5"
                            d="M174.11,271.82l-1.72.29L191,270.74C185.22,270.9,179.59,271.23,174.11,271.82Z" />
                        <polygon class="trib-cls-5" points="171.06 272.2 165.93 273.17 172.39 272.11 171.06 272.2" />
                        <path class="trib-cls-5"
                            d="M332.34,639.77a69.15,69.15,0,0,0-6.53-12.65,71.5,71.5,0,0,0-7.33-9.55,95,95,0,0,0-17-14c-16.28-10.32-36-14.93-55.44-19.29-6.67-1.49-13.39-2.9-20.13-4.28l-1.34-.27c-6.61-1.36-13.25-2.69-19.89-4.05-19.6-4-39-8.14-58-13.18-11.21-3-22.33-6.32-33.1-10.11C95,545.82,76.79,537.7,61,525.71c-2.26-1.71-4.47-3.53-6.59-5.43-11.29-10.07-19.18-21.85-23.13-35.8.07.35-.09-.3-.18-.66-.21-.8-.41-1.61-.62-2.42-.58-2.18-1.08-4.44-1.56-6.67a175.52,175.52,0,0,1-3.46-25.38,163.51,163.51,0,0,1,10.76-69.13c9.68-25.55,26.26-49,48.09-68a170.71,170.71,0,0,1,53.6-31.82L156.29,275l-4.08.77a176.68,176.68,0,0,0-59.89,28.51,181.25,181.25,0,0,0-37.48,36.79,192.19,192.19,0,0,0-15,23.31,144.07,144.07,0,0,0-7.27,15.2,174.74,174.74,0,0,0-6.77,19.38,168.1,168.1,0,0,0-5.07,24.78,187,187,0,0,0-1.25,29.09c.19,5.46.8,10.81,1.4,16.05,1.57,13.84,4.88,27.22,11.52,38.51,6.21,10.56,15.19,20.09,25.1,27.94,16,12.7,34.41,21.68,53.1,29.08,22.62,9,46.39,16,70.35,22.24,10,2.61,19.92,5.1,29.86,7.62l1.77.45c13,3.29,26,6.61,38.75,10.17,7,2,13.72,4.41,20.48,6.7-.37-.11,1.21.51,1.59.66,1.06.42,2.13.87,3.18,1.35a95.16,95.16,0,0,1,10.46,5.48c7.81,4.86,15.8,12,20.17,20.25a63.41,63.41,0,0,1,5.34,13.4c2.47,9.13,2.28,19.89,1.31,29.75a118.72,118.72,0,0,1-3.62,19l-5.52,17.82-6.49,15.62A152.69,152.69,0,0,1,290.39,750a211.25,211.25,0,0,1-12.25,18.64,339.72,339.72,0,0,1-34,38.34c-14.95,14.64-31.07,27.79-47.23,40.45-1.73,1.36-3.48,2.65-5.22,4-3.22,2.5-6.46,5-9.7,7.42-13.67,10.44-27.42,20.73-41.19,31.09-21.48,16.16-42.61,32.74-62.93,51-6.12,5.5-12.19,11.11-18.15,17s-11.81,12.19-17.34,18.52c-2.24,2.55-4.53,5.07-6.66,7.67C30.46,990.48,25,997,20.83,1004c-5.64,9.31-9.52,19.64-12.67,30.32a201.05,201.05,0,0,0-7.8,68.61,138.37,138.37,0,0,0,2.17,17.62H57.28a84.79,84.79,0,0,1-3.93-11c-4.43-15.83-5.09-34.84-3.23-52.62a358.62,358.62,0,0,1,8.12-46.07c.39-1.62.86-3.21,1.26-4.82,5.29-6.13,10.77-12.16,16.57-18.09,8.19-8.37,16.77-16.32,25.4-23.87,27.69-24.2,56.7-45.81,85.38-68.14q11.64-9.06,23.19-18.34c3.5-2.81,7-5.6,10.46-8.47,10.81-8.94,21.45-18.18,31.73-28,23.9-22.79,45.23-47.1,60.3-74.48a226.76,226.76,0,0,0,19.86-49.22,159,159,0,0,0,6.12-46.69A87.92,87.92,0,0,0,332.34,639.77Z" />
                    </g>
                </svg>