<svg xmlns="http://www.w3.org/2000/svg" xmlns:xlink="http://www.w3.org/1999/xlink" viewBox="0 0 70.5 71.5"  height="100" width="100"><defs><style>.cls-1{stroke:#000;fill:url(#linear-gradient);}.cls-1,.cls-2{stroke-miterlimit:10;}.cls-2{fill:none;stroke:#ae7b1b;stroke-width:1.5px;}</style><linearGradient id="linear-gradient" x1="-189.13" y1="236.03" x2="-184.82" y2="238.04" gradientTransform="translate(885.28 -1041.19) scale(4.55)" gradientUnits="userSpaceOnUse"><stop offset="0" stop-color="#e2cf8c" stop-opacity="0"/><stop offset="1" stop-color="#bc943d" stop-opacity="0.8"/></linearGradient></defs><path class="cls-1" d="M44.5,33l-9.2-9.2a.54.54,0,0,0-.73,0L25.37,33a6,6,0,0,0,4.22,10.19,7.16,7.16,0,0,0,4.32-1.43c-.71,2.09-2.1,3.49-3.6,3.49a.52.52,0,0,0,0,1h9.26a.52.52,0,0,0,0-1c-1.51,0-2.89-1.4-3.61-3.49a7.16,7.16,0,0,0,4.32,1.43A6,6,0,0,0,44.5,33Z"/><ellipse class="cls-2" cx="35.25" cy="35.75" rx="34.5" ry="35"/></svg>