<svg id="Layer_1" data-name="Layer 1" xmlns="http://www.w3.org/2000/svg" xmlns:xlink="http://www.w3.org/1999/xlink" viewBox="0 0 220 220"><defs><style>.cls-1{fill:url(#linear-gradient);}.cls-2{fill:url(#linear-gradient-2);}</style><linearGradient id="linear-gradient" x1="1.3" y1="179.69" x2="219.69" y2="179.69" gradientUnits="userSpaceOnUse"><stop offset="0" stop-color="#b3862a"/><stop offset="0.98" stop-color="#ecdea0"/></linearGradient><linearGradient id="linear-gradient-2" x1="63.41" y1="68.47" x2="189.16" y2="68.47" xlink:href="#linear-gradient"/></defs><title>available</title><path class="cls-1" d="M1.3,166.41c0,1,1,2,4,1,2.48-.78,20.73-7.35,22.78-8.61l7.52-4.63c14.17-7.28,32.43-7.38,47.26-.25l2.91,1.39a45,45,0,0,0,16.08,4.21l29.05,2.11c9.14.68,16.55,6.6,17.52,14L127,173.29a155.28,155.28,0,0,0-22.91-.8c-1.61,0-2.82,1.14-2.71,2.45a2.86,2.86,0,0,0,3.1,2.27h.06a147.73,147.73,0,0,1,21.85.77l24.71,2.71a2.75,2.75,0,0,0,3.2-2s0-.07,0-.1a14,14,0,0,0,0-1.44l3.71-1.28,37-13.07c6.14-2.18,13.44-.6,17.64,3.81l-75.83,35.24a61.15,61.15,0,0,1-31.15,1.24l-43.09-9.67a23.12,23.12,0,0,0-14,.52L3.47,211a2.13,2.13,0,0,0-1.33,3.12A3.3,3.3,0,0,0,6,215.25h0l45.09-17a16,16,0,0,1,9.83-.34l.18,0,43.19,9.69a68.22,68.22,0,0,0,35-1.44c.13,0,.25-.09.37-.15l78.58-36.51a2.09,2.09,0,0,0,1.07-3.09c-5.06-8-16.84-11.5-26.74-8L191,159c-4.69-5.52-13.5-8.2-20.5-5.9l-.07,0-3.35,1.18c-6.95-5.65-17.4-7.23-26.07-3.93l-17,6-21.87-1.59a38.43,38.43,0,0,1-13.58-3.56l-2.91-1.39c-16.77-8.07-37.42-7.93-53.42.34l-.2.11L24.48,155c-6.2,2.33-14,5.07-20.18,7.4C1.3,163.41,1.3,165.43,1.3,166.41Zm142.24-11.73.08,0a20.37,20.37,0,0,1,17.69,1.68l-15.77,5.56a27.66,27.66,0,0,0-10-4.35Zm12.07,16.81-2.11.72a19.1,19.1,0,0,0-3.8-6.57l23.17-8.17c4.15-1.34,9.52.22,12.75,3.42Z"/><path class="cls-2" d="M185,33.39a14.09,14.09,0,0,0-10-4.17l-11.65,0,1.58-1.61A13.5,13.5,0,1,0,146.06,8.25l-.21.2L126.63,27.6l-14.1-14.15a13.38,13.38,0,0,0-9.54-4h0a13.51,13.51,0,0,0-12,19.58L77.67,29h0A14.21,14.21,0,0,0,63.44,43.21l0,15.65A3.16,3.16,0,0,0,66.56,62h4.67v56.3a14.22,14.22,0,0,0,14.21,14.2h81.69a14.22,14.22,0,0,0,14.21-14.2V62H186a3.16,3.16,0,0,0,3.16-3.15l0-15.42A14.17,14.17,0,0,0,185,33.39ZM150.3,12.92a7.19,7.19,0,1,1,10.13,10.22l-5.87,6H134Zm-52.41,5a7.14,7.14,0,0,1,5.07-2.1h0a7.13,7.13,0,0,1,5.08,2.12l11.17,11.21-20.49-.18-.87-.88a7.18,7.18,0,0,1,0-10.17Zm11.53,108.34h-24a7.92,7.92,0,0,1-7.9-7.9V62h31.92Zm0-70.51H69.73l0-12.48a7.9,7.9,0,0,1,7.9-7.89h0l31.81.06Zm28.06,70.51H115.73l0-64.2h21.79Zm0-70.51H115.77V35.41l21.78,0ZM175,118.32a7.91,7.91,0,0,1-7.9,7.9H143.82l0-64.2H175Zm7.8-62.61h-39V35.46l31.1.06a7.9,7.9,0,0,1,7.88,7.91h0Z"/></svg>