<svg id="Layer_1" data-name="Layer 1" xmlns="http://www.w3.org/2000/svg" xmlns:xlink="http://www.w3.org/1999/xlink" viewBox="0 0 730 220"><defs><style>.cls-1,.cls-10,.cls-11,.cls-12,.cls-13,.cls-14,.cls-15,.cls-16,.cls-17,.cls-18,.cls-19,.cls-2,.cls-20,.cls-21,.cls-22,.cls-23,.cls-24,.cls-25,.cls-26,.cls-27,.cls-28,.cls-29,.cls-3,.cls-30,.cls-31,.cls-32,.cls-33,.cls-34,.cls-35,.cls-36,.cls-37,.cls-38,.cls-39,.cls-4,.cls-40,.cls-41,.cls-5,.cls-6,.cls-7,.cls-8,.cls-9{stroke:#e3d08e;}.cls-1,.cls-2,.cls-3,.cls-4,.cls-5,.cls-6,.cls-7,.cls-8,.cls-9{stroke-width:0.82px;}.cls-1{fill:url(#linear-gradient);}.cls-2{fill:url(#linear-gradient-2);}.cls-3{fill:url(#linear-gradient-3);}.cls-4{fill:url(#linear-gradient-4);}.cls-5{fill:url(#linear-gradient-5);}.cls-6{fill:url(#linear-gradient-6);}.cls-7{fill:url(#linear-gradient-7);}.cls-8{fill:url(#linear-gradient-8);}.cls-9{fill:url(#linear-gradient-9);}.cls-10,.cls-11,.cls-12,.cls-13,.cls-14,.cls-15,.cls-16,.cls-17,.cls-18{stroke-width:0.85px;}.cls-10{fill:url(#linear-gradient-11);}.cls-11{fill:url(#linear-gradient-12);}.cls-12{fill:url(#linear-gradient-13);}.cls-13{fill:url(#linear-gradient-14);}.cls-14{fill:url(#linear-gradient-15);}.cls-15{fill:url(#linear-gradient-16);}.cls-16{fill:url(#linear-gradient-17);}.cls-17{fill:url(#linear-gradient-18);}.cls-18{fill:url(#linear-gradient-19);}.cls-19,.cls-20,.cls-21,.cls-22,.cls-23,.cls-24,.cls-25,.cls-26,.cls-27,.cls-28,.cls-29,.cls-30,.cls-31,.cls-32,.cls-33,.cls-34,.cls-35,.cls-36,.cls-37,.cls-38,.cls-39,.cls-40,.cls-41{stroke-width:0.83px;}.cls-19{fill:url(#linear-gradient-20);}.cls-20{fill:url(#linear-gradient-21);}.cls-21{fill:url(#linear-gradient-22);}.cls-22{fill:url(#linear-gradient-23);}.cls-23{fill:url(#linear-gradient-24);}.cls-24{fill:url(#linear-gradient-25);}.cls-25{fill:url(#linear-gradient-26);}.cls-26{fill:url(#linear-gradient-27);}.cls-27{fill:url(#linear-gradient-28);}.cls-28{fill:url(#linear-gradient-29);}.cls-29{fill:url(#linear-gradient-30);}.cls-30{fill:url(#linear-gradient-31);}.cls-31{fill:url(#linear-gradient-32);}.cls-32{fill:url(#linear-gradient-33);}.cls-33{fill:url(#linear-gradient-34);}.cls-34{fill:url(#linear-gradient-35);}.cls-35{fill:url(#linear-gradient-36);}.cls-36{fill:url(#linear-gradient-37);}.cls-37{fill:url(#linear-gradient-39);}.cls-38{fill:url(#linear-gradient-40);}.cls-39{fill:url(#linear-gradient-41);}.cls-40{fill:url(#linear-gradient-42);}.cls-41{fill:url(#linear-gradient-43);}.cls-42{fill:url(#linear-gradient-45);}.cls-43{fill:url(#linear-gradient-46);}.cls-44,.cls-47{fill:none;}.cls-44{stroke-width:5.83px;stroke:url(#linear-gradient-47);}.cls-45{fill:url(#linear-gradient-48);}.cls-46{fill:url(#linear-gradient-49);}.cls-47{stroke-width:2px;stroke:url(#linear-gradient-50);}</style><linearGradient id="linear-gradient" x1="210.77" y1="26.88" x2="210.77" y2="26.88" gradientUnits="userSpaceOnUse"><stop offset="0" stop-color="#b3862a"/><stop offset="0.98" stop-color="#ecdea0"/></linearGradient><linearGradient id="linear-gradient-2" x1="199.17" y1="31.53" x2="199.17" y2="31.53" xlink:href="#linear-gradient"/><linearGradient id="linear-gradient-3" x1="187.57" y1="35.41" x2="187.57" y2="35.41" xlink:href="#linear-gradient"/><linearGradient id="linear-gradient-4" x1="175.97" y1="37.45" x2="175.97" y2="37.45" xlink:href="#linear-gradient"/><linearGradient id="linear-gradient-5" x1="164.38" y1="40.03" x2="164.38" y2="40.03" xlink:href="#linear-gradient"/><linearGradient id="linear-gradient-6" x1="152.78" y1="42.74" x2="152.78" y2="42.74" xlink:href="#linear-gradient"/><linearGradient id="linear-gradient-7" x1="141.18" y1="43.98" x2="141.18" y2="43.98" xlink:href="#linear-gradient"/><linearGradient id="linear-gradient-8" x1="129.58" y1="45.52" x2="129.58" y2="45.52" xlink:href="#linear-gradient"/><linearGradient id="linear-gradient-9" x1="118.16" y1="46.41" x2="118.16" y2="46.41" xlink:href="#linear-gradient"/><linearGradient id="linear-gradient-11" x1="521.41" y1="27.4" x2="521.41" y2="27.4" xlink:href="#linear-gradient"/><linearGradient id="linear-gradient-12" x1="534.01" y1="32.23" x2="534.01" y2="32.23" xlink:href="#linear-gradient"/><linearGradient id="linear-gradient-13" x1="546.61" y1="36.13" x2="546.61" y2="36.13" xlink:href="#linear-gradient"/><linearGradient id="linear-gradient-14" x1="559.21" y1="38.17" x2="559.21" y2="38.17" xlink:href="#linear-gradient"/><linearGradient id="linear-gradient-15" x1="571.8" y1="40.72" x2="571.8" y2="40.72" xlink:href="#linear-gradient"/><linearGradient id="linear-gradient-16" x1="584.4" y1="43.24" x2="584.4" y2="43.24" xlink:href="#linear-gradient"/><linearGradient id="linear-gradient-17" x1="597" y1="44.45" x2="597" y2="44.45" xlink:href="#linear-gradient"/><linearGradient id="linear-gradient-18" x1="609.6" y1="45.9" x2="609.6" y2="45.9" xlink:href="#linear-gradient"/><linearGradient id="linear-gradient-19" x1="622" y1="46.67" x2="622" y2="46.67" xlink:href="#linear-gradient"/><linearGradient id="linear-gradient-20" x1="489.25" y1="30.23" x2="489.25" y2="30.23" xlink:href="#linear-gradient"/><linearGradient id="linear-gradient-21" x1="476.91" y1="33.16" x2="476.91" y2="33.16" xlink:href="#linear-gradient"/><linearGradient id="linear-gradient-22" x1="464.57" y1="34.51" x2="464.57" y2="34.51" xlink:href="#linear-gradient"/><linearGradient id="linear-gradient-23" x1="452.22" y1="36.58" x2="452.22" y2="36.58" xlink:href="#linear-gradient"/><linearGradient id="linear-gradient-24" x1="439.88" y1="39.01" x2="439.88" y2="39.01" xlink:href="#linear-gradient"/><linearGradient id="linear-gradient-25" x1="427.54" y1="40.18" x2="427.54" y2="40.18" xlink:href="#linear-gradient"/><linearGradient id="linear-gradient-26" x1="415.19" y1="41.64" x2="415.19" y2="41.64" xlink:href="#linear-gradient"/><linearGradient id="linear-gradient-27" x1="403.04" y1="42.48" x2="403.04" y2="42.48" xlink:href="#linear-gradient"/><linearGradient id="linear-gradient-28" x1="501.6" y1="26.62" x2="501.6" y2="26.62" xlink:href="#linear-gradient"/><linearGradient id="linear-gradient-29" x1="229.74" y1="26.62" x2="229.74" y2="26.62" xlink:href="#linear-gradient"/><linearGradient id="linear-gradient-30" x1="242.09" y1="30.23" x2="242.09" y2="30.23" xlink:href="#linear-gradient"/><linearGradient id="linear-gradient-31" x1="254.43" y1="33.16" x2="254.43" y2="33.16" xlink:href="#linear-gradient"/><linearGradient id="linear-gradient-32" x1="266.77" y1="34.51" x2="266.77" y2="34.51" xlink:href="#linear-gradient"/><linearGradient id="linear-gradient-33" x1="279.12" y1="36.58" x2="279.12" y2="36.58" xlink:href="#linear-gradient"/><linearGradient id="linear-gradient-34" x1="291.46" y1="39.01" x2="291.46" y2="39.01" xlink:href="#linear-gradient"/><linearGradient id="linear-gradient-35" x1="303.8" y1="40.18" x2="303.8" y2="40.18" xlink:href="#linear-gradient"/><linearGradient id="linear-gradient-36" x1="316.15" y1="41.64" x2="316.15" y2="41.64" xlink:href="#linear-gradient"/><linearGradient id="linear-gradient-37" x1="328.3" y1="42.48" x2="328.3" y2="42.48" xlink:href="#linear-gradient"/><linearGradient id="linear-gradient-39" x1="340.76" y1="43.24" x2="340.76" y2="43.24" xlink:href="#linear-gradient"/><linearGradient id="linear-gradient-40" x1="353.21" y1="43.61" x2="353.21" y2="43.61" xlink:href="#linear-gradient"/><linearGradient id="linear-gradient-41" x1="365.67" y1="43.75" x2="365.67" y2="43.75" xlink:href="#linear-gradient"/><linearGradient id="linear-gradient-42" x1="378.13" y1="43.61" x2="378.13" y2="43.61" xlink:href="#linear-gradient"/><linearGradient id="linear-gradient-43" x1="390.58" y1="43.24" x2="390.58" y2="43.24" xlink:href="#linear-gradient"/><linearGradient id="linear-gradient-45" x1="209.57" y1="76.53" x2="228.87" y2="76.53" xlink:href="#linear-gradient"/><linearGradient id="linear-gradient-46" x1="502.1" y1="76.5" x2="521.4" y2="76.5" xlink:href="#linear-gradient"/><linearGradient id="linear-gradient-47" x1="79" y1="47.79" x2="652.13" y2="47.79" gradientUnits="userSpaceOnUse"><stop offset="0" stop-color="#b3862a"/><stop offset="0.5" stop-color="#ecdea0"/><stop offset="1" stop-color="#be9741"/></linearGradient><linearGradient id="linear-gradient-48" x1="215.46" y1="36.87" x2="223.45" y2="36.87" xlink:href="#linear-gradient"/><linearGradient id="linear-gradient-49" x1="507.67" y1="36.87" x2="515.66" y2="36.87" xlink:href="#linear-gradient"/><linearGradient id="linear-gradient-50" x1="86.74" y1="23.52" x2="649.53" y2="23.52" xlink:href="#linear-gradient"/></defs><title>Artboard 1</title><g id="bridge"><g id="left_sub_piller"><path id="path3914" class="cls-1" d="M210.77,7V46.76"/><path id="path3916" class="cls-2" d="M199.17,15.07V48"/><path id="path3918" class="cls-3" d="M187.57,22.2V48.62"/><path id="path3920" class="cls-4" d="M176,28.14V46.76"/><path id="path3922" class="cls-5" d="M164.38,33V47.07"/><path id="path3924" class="cls-6" d="M152.78,37.18V48.31"/><g id="g3930"><path id="path3926" class="cls-7" d="M141.18,40.28v7.41"/><path id="path3928" class="cls-8" d="M129.58,42.79v5.46"/></g><path id="path3938" class="cls-9" d="M118.16,44.58v3.67"/><path id="path3976" class="cls-1" d="M210.77,7V46.76"/></g><g id="right_sub_piller"><path id="path3956" class="cls-10" d="M521.41,8V46.8"/><path id="path3958" class="cls-11" d="M534,16.44V48"/><path id="path3960" class="cls-12" d="M546.61,23.63v25"/><path id="path3962" class="cls-13" d="M559.21,29.54V46.8"/><path id="path3964" class="cls-14" d="M571.8,34.35V47.1"/><path id="path3966" class="cls-15" d="M584.4,38.17V48.31"/><g id="g3968"><path id="path3970" class="cls-16" d="M597,41.18v6.53"/><path id="path3972" class="cls-17" d="M609.6,43.55v4.7"/></g><path id="path3974" class="cls-18" d="M622,45.09v3.16"/></g><g id="center_sub_piller"><path id="path3984" class="cls-19" d="M489.25,12V48.41"/><path id="path3986" class="cls-20" d="M476.91,17.31V49"/><path id="path3988" class="cls-21" d="M464.57,21.79V47.24"/><path id="path3990" class="cls-22" d="M452.22,25.64V47.53"/><path id="path3992" class="cls-23" d="M439.88,29.31v19.4"/><path id="path3996" class="cls-24" d="M427.54,32.25V48.12"/><path id="path3998" class="cls-25" d="M415.19,34.63v14"/><path id="path4000" class="cls-26" d="M403,36.31V48.65"/><path id="path4002" class="cls-27" d="M501.6,6V47.24"/><path id="path4031" class="cls-28" d="M229.74,6V47.24"/><path id="path4033" class="cls-29" d="M242.09,12V48.41"/><path id="path4035" class="cls-30" d="M254.43,17.31V49"/><path id="path4037" class="cls-31" d="M266.77,21.79V47.24"/><path id="path4039" class="cls-32" d="M279.12,25.64V47.53"/><path id="path4041" class="cls-33" d="M291.46,29.31v19.4"/><path id="path4043" class="cls-34" d="M303.8,32.25V48.12"/><path id="path4045" class="cls-35" d="M316.15,34.63v14"/><path id="path4047" class="cls-36" d="M328.3,36.31V48.65"/><path id="path4049" class="cls-28" d="M229.74,6V47.24"/><path id="path4061" class="cls-37" d="M340.76,37.84V48.65"/><path id="path4063" class="cls-38" d="M353.21,38.56V48.65"/><path id="path4065" class="cls-39" d="M365.67,38.84v9.81"/><path id="path4067" class="cls-40" d="M378.13,38.56V48.65"/><path id="path4071" class="cls-41" d="M390.58,37.84V48.65"/><path id="path3982" class="cls-27" d="M501.6,6V47.24"/></g><rect id="left_bottom" class="cls-42" x="209.57" y="72.28" width="19.3" height="8.5"/><rect id="right_bottom" class="cls-43" x="502.1" y="72.25" width="19.3" height="8.5"/><path id="road" class="cls-44" d="M79,47.79H652.13"/><path id="pillar2" class="cls-45" d="M218,1h5l.45,71.74h-8Z"/><path id="pillar1" class="cls-46" d="M514,1h-5l-1.33,71.74h8Z"/><path id="wave" class="cls-47" d="M86.78,47C155,43.94,189.07,22.87,220.16.24c0,0,61.46,39.26,145.65,39.26S511.47.24,511.47.24c31.51,24,66.42,46.1,138,46.77"/></g></svg>