<svg xmlns="http://www.w3.org/2000/svg" xmlns:xlink="http://www.w3.org/1999/xlink" viewBox="0 0 730 220"><defs><style>.cls-1{fill:url(#linear-gradient);}</style><linearGradient id="linear-gradient" y1="134.5" x2="730" y2="134.5" gradientUnits="userSpaceOnUse"><stop offset="0" stop-color="#333333"/><stop offset="0.5" stop-color="#000000"/><stop offset="1" stop-color="#333333"/></linearGradient></defs><path class="cls-1" d="M0,45l42,.28L80,45s35.46,15.59,55.85,21.44c26.4,7.58,33.31-10.41,53,0,12.85,6.79,18.79,12.49,32,13.11,8.32.39,9.28.68,14,2,10.4,2.94,8.55,22.4,20,26.21,4.41,1.47,5.7-1,11,1,6,2.3,7,6.54,13,12.09,6.58,6.11,8.87,4.25,17,10.08,11.46,8.21,8.23,12.82,17,18.15,8.41,5.11,12.36,1.47,30,7.05,8,2.53,7.46,3.37,13,5,15.14,4.58,40.08,4.73,54-9.07,6.54-6.46,8.27-7.62,17-13.1,3.84-2.41,9.28-.63,18-3,19.09-5.23,17.88-10.13,23-14.11,7.67-5.93,7.22-.83,16-6,5.7-3.39,6.71-9.09,10-13.11,4-4.87-1.3-17.5,3-21.17.74-.63.53-2.12,9-4,8.23-1.85,14.24-3,18-4,6.42-1.72,9.85,2.72,13,1,13-7.06,23.59-4,42.89-5.51,3-.23,15.35-4.12,30-8,20.34-5.38,3.73,3.28,26.18-3.63,2.84-.87,4.18-3.71,6-5S652,45,652,45h78V224H0Z"/></svg>