<svg
 xmlns="http://www.w3.org/2000/svg"
 xmlns:xlink="http://www.w3.org/1999/xlink"
 width="39px" height="40px">
<defs>
<linearGradient id="PSgrad_0" x1="0%" x2="96.593%" y1="0%" y2="25.882%">
  <stop offset="0%" stop-color="rgb(173,122,25)" stop-opacity="1" />
  <stop offset="100%" stop-color="rgb(250,239,174)" stop-opacity="1" />
</linearGradient>

</defs>
<path fill-rule="evenodd"  fill="rgb(255, 255, 255)"
 d="M38.328,24.666 L35.638,24.666 C35.267,24.666 34.965,24.368 34.965,24.000 C34.965,23.631 35.267,23.333 35.638,23.333 L38.328,23.333 C38.699,23.333 39.000,23.631 39.000,24.000 C39.000,24.368 38.699,24.666 38.328,24.666 ZM36.113,19.804 C35.987,19.929 35.816,19.999 35.638,19.999 C35.460,19.999 35.289,19.930 35.163,19.804 C34.900,19.544 34.900,19.122 35.162,18.862 L37.180,16.861 C37.440,16.612 37.853,16.612 38.114,16.861 C38.381,17.117 38.389,17.539 38.130,17.804 L36.113,19.804 ZM30.259,37.266 L30.259,40.000 L26.224,40.000 L26.224,37.333 L12.776,37.333 L12.776,40.000 L8.741,40.000 L8.741,37.266 C7.177,36.947 6.054,35.583 6.052,34.000 L6.052,3.333 C6.054,1.493 7.558,0.002 9.414,-0.001 L29.586,-0.001 C31.442,0.002 32.946,1.493 32.948,3.333 L32.948,34.000 C32.946,35.583 31.823,36.947 30.259,37.266 ZM27.569,38.666 L28.914,38.666 L28.914,37.333 L27.569,37.333 L27.569,38.666 ZM10.086,38.666 L11.431,38.666 L11.431,37.333 L10.086,37.333 L10.086,38.666 ZM31.603,3.333 C31.603,2.228 30.700,1.333 29.586,1.333 L9.414,1.333 C8.300,1.333 7.397,2.228 7.397,3.333 L7.397,34.000 C7.397,35.104 8.300,36.000 9.414,36.000 L29.586,36.000 C30.700,36.000 31.603,35.104 31.603,34.000 L31.603,3.333 ZM28.914,33.333 L30.259,33.333 L30.259,34.666 L28.914,34.666 L28.914,33.333 ZM19.500,34.666 C13.561,34.659 8.748,29.888 8.741,24.000 C8.741,18.109 13.558,13.333 19.500,13.333 C25.442,13.333 30.259,18.109 30.259,24.000 C30.259,29.891 25.442,34.666 19.500,34.666 ZM19.500,14.666 C14.303,14.672 10.092,18.847 10.086,24.000 C10.086,29.154 14.301,33.333 19.500,33.333 C24.699,33.333 28.914,29.154 28.914,24.000 C28.914,18.845 24.699,14.666 19.500,14.666 ZM19.500,32.000 C15.046,31.995 11.436,28.416 11.431,24.000 C11.431,19.581 15.044,15.999 19.500,15.999 C23.956,15.999 27.569,19.581 27.569,24.000 C27.569,28.418 23.956,32.000 19.500,32.000 ZM19.500,17.333 C15.788,17.337 12.780,20.319 12.776,24.000 C12.776,27.681 15.786,30.666 19.500,30.666 C23.214,30.666 26.224,27.681 26.224,24.000 C26.224,20.318 23.214,17.333 19.500,17.333 ZM19.500,27.333 C17.644,27.331 16.140,25.840 16.138,24.000 C16.138,22.159 17.643,20.666 19.500,20.666 C21.357,20.666 22.862,22.159 22.862,24.000 C22.862,25.840 21.357,27.333 19.500,27.333 ZM19.500,21.999 C18.386,21.999 17.483,22.895 17.483,24.000 C17.483,25.104 18.386,26.000 19.500,26.000 C20.614,26.000 21.517,25.104 21.517,24.000 C21.517,22.895 20.614,21.999 19.500,21.999 ZM28.914,2.666 L30.259,2.666 L30.259,3.999 L28.914,3.999 L28.914,2.666 ZM19.500,11.999 C16.902,11.997 14.796,9.909 14.793,7.333 C14.793,4.756 16.900,2.666 19.500,2.666 C22.100,2.666 24.207,4.756 24.207,7.333 C24.207,9.910 22.100,11.999 19.500,11.999 ZM19.500,3.999 C17.644,4.002 16.140,5.493 16.138,7.333 C16.138,9.174 17.643,10.666 19.500,10.666 C21.357,10.666 22.862,9.174 22.862,7.333 C22.862,5.492 21.357,3.999 19.500,3.999 ZM19.500,9.333 C18.386,9.333 17.483,8.437 17.483,7.333 C17.483,6.228 18.386,5.333 19.500,5.333 C20.614,5.333 21.517,6.228 21.517,7.333 C21.517,8.437 20.614,9.333 19.500,9.333 ZM19.500,6.666 C19.129,6.666 18.828,6.965 18.828,7.333 C18.828,7.701 19.129,7.999 19.500,7.999 C19.871,7.999 20.172,7.701 20.172,7.333 C20.172,6.965 19.871,6.666 19.500,6.666 ZM8.741,2.666 L10.086,2.666 L10.086,3.999 L8.741,3.999 L8.741,2.666 ZM10.086,34.666 L8.741,34.666 L8.741,33.333 L10.086,33.333 L10.086,34.666 ZM3.362,24.666 L0.672,24.666 C0.301,24.666 -0.000,24.368 -0.000,24.000 C-0.000,23.631 0.301,23.333 0.672,23.333 L3.362,23.333 C3.733,23.333 4.034,23.631 4.034,24.000 C4.034,24.368 3.733,24.666 3.362,24.666 ZM2.887,19.804 L0.869,17.804 C0.618,17.546 0.618,17.136 0.869,16.878 C1.127,16.613 1.553,16.606 1.820,16.861 L3.837,18.862 C4.089,19.120 4.089,19.530 3.837,19.788 C3.579,20.053 3.154,20.060 2.887,19.804 ZM2.887,28.195 C3.147,27.945 3.560,27.945 3.821,28.195 C4.088,28.451 4.095,28.873 3.837,29.138 L1.820,31.138 C1.815,31.143 1.809,31.149 1.804,31.154 C1.537,31.410 1.111,31.403 0.853,31.138 C0.595,30.872 0.602,30.451 0.869,30.195 L2.887,28.195 ZM36.113,28.195 L38.130,30.195 C38.382,30.453 38.382,30.863 38.130,31.121 C37.873,31.386 37.447,31.393 37.180,31.138 L35.162,29.138 C34.911,28.879 34.911,28.469 35.162,28.211 C35.421,27.946 35.846,27.939 36.113,28.195 Z"/>
<path fill="url(#PSgrad_0)"
 d="M38.328,24.666 L35.638,24.666 C35.267,24.666 34.965,24.368 34.965,24.000 C34.965,23.631 35.267,23.333 35.638,23.333 L38.328,23.333 C38.699,23.333 39.000,23.631 39.000,24.000 C39.000,24.368 38.699,24.666 38.328,24.666 ZM36.113,19.804 C35.987,19.929 35.816,19.999 35.638,19.999 C35.460,19.999 35.289,19.930 35.163,19.804 C34.900,19.544 34.900,19.122 35.162,18.862 L37.180,16.861 C37.440,16.612 37.853,16.612 38.114,16.861 C38.381,17.117 38.389,17.539 38.130,17.804 L36.113,19.804 ZM30.259,37.266 L30.259,40.000 L26.224,40.000 L26.224,37.333 L12.776,37.333 L12.776,40.000 L8.741,40.000 L8.741,37.266 C7.177,36.947 6.054,35.583 6.052,34.000 L6.052,3.333 C6.054,1.493 7.558,0.002 9.414,-0.001 L29.586,-0.001 C31.442,0.002 32.946,1.493 32.948,3.333 L32.948,34.000 C32.946,35.583 31.823,36.947 30.259,37.266 ZM27.569,38.666 L28.914,38.666 L28.914,37.333 L27.569,37.333 L27.569,38.666 ZM10.086,38.666 L11.431,38.666 L11.431,37.333 L10.086,37.333 L10.086,38.666 ZM31.603,3.333 C31.603,2.228 30.700,1.333 29.586,1.333 L9.414,1.333 C8.300,1.333 7.397,2.228 7.397,3.333 L7.397,34.000 C7.397,35.104 8.300,36.000 9.414,36.000 L29.586,36.000 C30.700,36.000 31.603,35.104 31.603,34.000 L31.603,3.333 ZM28.914,33.333 L30.259,33.333 L30.259,34.666 L28.914,34.666 L28.914,33.333 ZM19.500,34.666 C13.561,34.659 8.748,29.888 8.741,24.000 C8.741,18.109 13.558,13.333 19.500,13.333 C25.442,13.333 30.259,18.109 30.259,24.000 C30.259,29.891 25.442,34.666 19.500,34.666 ZM19.500,14.666 C14.303,14.672 10.092,18.847 10.086,24.000 C10.086,29.154 14.301,33.333 19.500,33.333 C24.699,33.333 28.914,29.154 28.914,24.000 C28.914,18.845 24.699,14.666 19.500,14.666 ZM19.500,32.000 C15.046,31.995 11.436,28.416 11.431,24.000 C11.431,19.581 15.044,15.999 19.500,15.999 C23.956,15.999 27.569,19.581 27.569,24.000 C27.569,28.418 23.956,32.000 19.500,32.000 ZM19.500,17.333 C15.788,17.337 12.780,20.319 12.776,24.000 C12.776,27.681 15.786,30.666 19.500,30.666 C23.214,30.666 26.224,27.681 26.224,24.000 C26.224,20.318 23.214,17.333 19.500,17.333 ZM19.500,27.333 C17.644,27.331 16.140,25.840 16.138,24.000 C16.138,22.159 17.643,20.666 19.500,20.666 C21.357,20.666 22.862,22.159 22.862,24.000 C22.862,25.840 21.357,27.333 19.500,27.333 ZM19.500,21.999 C18.386,21.999 17.483,22.895 17.483,24.000 C17.483,25.104 18.386,26.000 19.500,26.000 C20.614,26.000 21.517,25.104 21.517,24.000 C21.517,22.895 20.614,21.999 19.500,21.999 ZM28.914,2.666 L30.259,2.666 L30.259,3.999 L28.914,3.999 L28.914,2.666 ZM19.500,11.999 C16.902,11.997 14.796,9.909 14.793,7.333 C14.793,4.756 16.900,2.666 19.500,2.666 C22.100,2.666 24.207,4.756 24.207,7.333 C24.207,9.910 22.100,11.999 19.500,11.999 ZM19.500,3.999 C17.644,4.002 16.140,5.493 16.138,7.333 C16.138,9.174 17.643,10.666 19.500,10.666 C21.357,10.666 22.862,9.174 22.862,7.333 C22.862,5.492 21.357,3.999 19.500,3.999 ZM19.500,9.333 C18.386,9.333 17.483,8.437 17.483,7.333 C17.483,6.228 18.386,5.333 19.500,5.333 C20.614,5.333 21.517,6.228 21.517,7.333 C21.517,8.437 20.614,9.333 19.500,9.333 ZM19.500,6.666 C19.129,6.666 18.828,6.965 18.828,7.333 C18.828,7.701 19.129,7.999 19.500,7.999 C19.871,7.999 20.172,7.701 20.172,7.333 C20.172,6.965 19.871,6.666 19.500,6.666 ZM8.741,2.666 L10.086,2.666 L10.086,3.999 L8.741,3.999 L8.741,2.666 ZM10.086,34.666 L8.741,34.666 L8.741,33.333 L10.086,33.333 L10.086,34.666 ZM3.362,24.666 L0.672,24.666 C0.301,24.666 -0.000,24.368 -0.000,24.000 C-0.000,23.631 0.301,23.333 0.672,23.333 L3.362,23.333 C3.733,23.333 4.034,23.631 4.034,24.000 C4.034,24.368 3.733,24.666 3.362,24.666 ZM2.887,19.804 L0.869,17.804 C0.618,17.546 0.618,17.136 0.869,16.878 C1.127,16.613 1.553,16.606 1.820,16.861 L3.837,18.862 C4.089,19.120 4.089,19.530 3.837,19.788 C3.579,20.053 3.154,20.060 2.887,19.804 ZM2.887,28.195 C3.147,27.945 3.560,27.945 3.821,28.195 C4.088,28.451 4.095,28.873 3.837,29.138 L1.820,31.138 C1.815,31.143 1.809,31.149 1.804,31.154 C1.537,31.410 1.111,31.403 0.853,31.138 C0.595,30.872 0.602,30.451 0.869,30.195 L2.887,28.195 ZM36.113,28.195 L38.130,30.195 C38.382,30.453 38.382,30.863 38.130,31.121 C37.873,31.386 37.447,31.393 37.180,31.138 L35.162,29.138 C34.911,28.879 34.911,28.469 35.162,28.211 C35.421,27.946 35.846,27.939 36.113,28.195 Z"/>
</svg>