<svg
 xmlns="http://www.w3.org/2000/svg"
 xmlns:xlink="http://www.w3.org/1999/xlink"
 width="41px" height="25px">
<defs>
<linearGradient id="PSgrad_0" x1="0%" x2="96.593%" y1="0%" y2="25.882%">
  <stop offset="0%" stop-color="rgb(173,122,25)" stop-opacity="1" />
  <stop offset="100%" stop-color="rgb(250,239,174)" stop-opacity="1" />
</linearGradient>

</defs>
<path fill-rule="evenodd"  fill="rgb(0, 0, 0)"
 d="M38.950,15.540 L38.267,15.540 L38.267,18.918 C38.267,20.036 37.347,20.946 36.217,20.946 L34.850,20.946 C34.610,20.946 34.381,20.897 34.167,20.821 L34.167,22.972 C34.167,24.090 33.247,25.000 32.117,25.000 L30.750,25.000 C29.620,25.000 28.700,24.090 28.700,22.972 L28.700,15.540 L12.300,15.540 L12.300,22.972 C12.300,24.090 11.380,25.000 10.250,25.000 L8.883,25.000 C7.753,25.000 6.833,24.090 6.833,22.972 L6.833,20.821 C6.619,20.897 6.390,20.946 6.150,20.946 L4.783,20.946 C3.653,20.946 2.733,20.036 2.733,18.918 L2.733,15.540 L2.050,15.540 C0.920,15.540 -0.000,14.631 -0.000,13.513 L-0.000,10.810 C-0.000,9.693 0.920,8.783 2.050,8.783 L2.733,8.783 L2.733,6.081 C2.733,4.963 3.653,4.054 4.783,4.054 L6.150,4.054 C6.390,4.054 6.619,4.102 6.833,4.178 L6.833,2.026 C6.833,0.909 7.753,-0.001 8.883,-0.001 L10.250,-0.001 C11.380,-0.001 12.300,0.909 12.300,2.026 L12.300,8.783 L28.700,8.783 L28.700,2.026 C28.700,0.909 29.620,-0.001 30.750,-0.001 L32.117,-0.001 C33.247,-0.001 34.167,0.909 34.167,2.026 L34.167,4.178 C34.381,4.102 34.609,4.054 34.850,4.054 L36.217,4.054 C37.347,4.054 38.267,4.963 38.267,6.081 L38.267,8.783 L38.950,8.783 C40.080,8.783 41.000,9.693 41.000,10.810 L41.000,13.513 C41.000,14.631 40.080,15.540 38.950,15.540 ZM2.733,10.135 L2.050,10.135 C1.673,10.135 1.367,10.438 1.367,10.810 L1.367,13.513 C1.367,13.886 1.673,14.189 2.050,14.189 L2.733,14.189 L2.733,10.135 ZM6.833,6.081 C6.833,5.708 6.527,5.405 6.150,5.405 L4.783,5.405 C4.406,5.405 4.100,5.708 4.100,6.081 L4.100,9.459 L4.100,14.864 L4.100,18.918 C4.100,19.291 4.406,19.594 4.783,19.594 L6.150,19.594 C6.527,19.594 6.833,19.291 6.833,18.918 L6.833,6.081 ZM10.933,2.026 C10.933,1.654 10.627,1.351 10.250,1.351 L8.883,1.351 C8.506,1.351 8.200,1.654 8.200,2.026 L8.200,6.081 L8.200,18.918 L8.200,22.972 C8.200,23.345 8.506,23.648 8.883,23.648 L10.250,23.648 C10.627,23.648 10.933,23.345 10.933,22.972 L10.933,2.026 ZM28.700,10.135 L12.300,10.135 L12.300,14.189 L28.700,14.189 L28.700,10.135 ZM32.800,18.918 L32.800,6.081 L32.800,2.026 C32.800,1.654 32.494,1.351 32.117,1.351 L30.750,1.351 C30.373,1.351 30.067,1.654 30.067,2.026 L30.067,22.972 C30.067,23.345 30.373,23.648 30.750,23.648 L32.117,23.648 C32.494,23.648 32.800,23.345 32.800,22.972 L32.800,18.918 ZM36.900,14.864 L36.900,9.459 L36.900,6.081 C36.900,5.708 36.594,5.405 36.217,5.405 L34.850,5.405 C34.473,5.405 34.167,5.708 34.167,6.081 L34.167,18.918 C34.167,19.291 34.473,19.594 34.850,19.594 L36.217,19.594 C36.594,19.594 36.900,19.291 36.900,18.918 L36.900,14.864 ZM39.633,10.810 C39.633,10.437 39.327,10.135 38.950,10.135 L38.267,10.135 L38.267,14.189 L38.950,14.189 C39.327,14.189 39.633,13.886 39.633,13.513 L39.633,10.810 ZM15.717,12.837 L14.350,12.837 L14.350,11.486 L15.717,11.486 L15.717,12.837 ZM18.450,12.837 L17.083,12.837 L17.083,11.486 L18.450,11.486 L18.450,12.837 ZM21.183,12.837 L19.817,12.837 L19.817,11.486 L21.183,11.486 L21.183,12.837 ZM23.917,12.837 L22.550,12.837 L22.550,11.486 L23.917,11.486 L23.917,12.837 ZM26.650,12.837 L25.283,12.837 L25.283,11.486 L26.650,11.486 L26.650,12.837 Z"/>
<path fill="url(#PSgrad_0)"
 d="M38.950,15.540 L38.267,15.540 L38.267,18.918 C38.267,20.036 37.347,20.946 36.217,20.946 L34.850,20.946 C34.610,20.946 34.381,20.897 34.167,20.821 L34.167,22.972 C34.167,24.090 33.247,25.000 32.117,25.000 L30.750,25.000 C29.620,25.000 28.700,24.090 28.700,22.972 L28.700,15.540 L12.300,15.540 L12.300,22.972 C12.300,24.090 11.380,25.000 10.250,25.000 L8.883,25.000 C7.753,25.000 6.833,24.090 6.833,22.972 L6.833,20.821 C6.619,20.897 6.390,20.946 6.150,20.946 L4.783,20.946 C3.653,20.946 2.733,20.036 2.733,18.918 L2.733,15.540 L2.050,15.540 C0.920,15.540 -0.000,14.631 -0.000,13.513 L-0.000,10.810 C-0.000,9.693 0.920,8.783 2.050,8.783 L2.733,8.783 L2.733,6.081 C2.733,4.963 3.653,4.054 4.783,4.054 L6.150,4.054 C6.390,4.054 6.619,4.102 6.833,4.178 L6.833,2.026 C6.833,0.909 7.753,-0.001 8.883,-0.001 L10.250,-0.001 C11.380,-0.001 12.300,0.909 12.300,2.026 L12.300,8.783 L28.700,8.783 L28.700,2.026 C28.700,0.909 29.620,-0.001 30.750,-0.001 L32.117,-0.001 C33.247,-0.001 34.167,0.909 34.167,2.026 L34.167,4.178 C34.381,4.102 34.609,4.054 34.850,4.054 L36.217,4.054 C37.347,4.054 38.267,4.963 38.267,6.081 L38.267,8.783 L38.950,8.783 C40.080,8.783 41.000,9.693 41.000,10.810 L41.000,13.513 C41.000,14.631 40.080,15.540 38.950,15.540 ZM2.733,10.135 L2.050,10.135 C1.673,10.135 1.367,10.438 1.367,10.810 L1.367,13.513 C1.367,13.886 1.673,14.189 2.050,14.189 L2.733,14.189 L2.733,10.135 ZM6.833,6.081 C6.833,5.708 6.527,5.405 6.150,5.405 L4.783,5.405 C4.406,5.405 4.100,5.708 4.100,6.081 L4.100,9.459 L4.100,14.864 L4.100,18.918 C4.100,19.291 4.406,19.594 4.783,19.594 L6.150,19.594 C6.527,19.594 6.833,19.291 6.833,18.918 L6.833,6.081 ZM10.933,2.026 C10.933,1.654 10.627,1.351 10.250,1.351 L8.883,1.351 C8.506,1.351 8.200,1.654 8.200,2.026 L8.200,6.081 L8.200,18.918 L8.200,22.972 C8.200,23.345 8.506,23.648 8.883,23.648 L10.250,23.648 C10.627,23.648 10.933,23.345 10.933,22.972 L10.933,2.026 ZM28.700,10.135 L12.300,10.135 L12.300,14.189 L28.700,14.189 L28.700,10.135 ZM32.800,18.918 L32.800,6.081 L32.800,2.026 C32.800,1.654 32.494,1.351 32.117,1.351 L30.750,1.351 C30.373,1.351 30.067,1.654 30.067,2.026 L30.067,22.972 C30.067,23.345 30.373,23.648 30.750,23.648 L32.117,23.648 C32.494,23.648 32.800,23.345 32.800,22.972 L32.800,18.918 ZM36.900,14.864 L36.900,9.459 L36.900,6.081 C36.900,5.708 36.594,5.405 36.217,5.405 L34.850,5.405 C34.473,5.405 34.167,5.708 34.167,6.081 L34.167,18.918 C34.167,19.291 34.473,19.594 34.850,19.594 L36.217,19.594 C36.594,19.594 36.900,19.291 36.900,18.918 L36.900,14.864 ZM39.633,10.810 C39.633,10.437 39.327,10.135 38.950,10.135 L38.267,10.135 L38.267,14.189 L38.950,14.189 C39.327,14.189 39.633,13.886 39.633,13.513 L39.633,10.810 ZM15.717,12.837 L14.350,12.837 L14.350,11.486 L15.717,11.486 L15.717,12.837 ZM18.450,12.837 L17.083,12.837 L17.083,11.486 L18.450,11.486 L18.450,12.837 ZM21.183,12.837 L19.817,12.837 L19.817,11.486 L21.183,11.486 L21.183,12.837 ZM23.917,12.837 L22.550,12.837 L22.550,11.486 L23.917,11.486 L23.917,12.837 ZM26.650,12.837 L25.283,12.837 L25.283,11.486 L26.650,11.486 L26.650,12.837 Z"/>
</svg>