<svg
 xmlns="http://www.w3.org/2000/svg"
 xmlns:xlink="http://www.w3.org/1999/xlink"
 width="44px" height="30px">
<defs>
<linearGradient id="PSgrad_0" x1="0%" x2="96.593%" y1="0%" y2="25.882%">
  <stop offset="0%" stop-color="rgb(173,122,25)" stop-opacity="1" />
  <stop offset="100%" stop-color="rgb(250,239,174)" stop-opacity="1" />
</linearGradient>

</defs>
<path fill-rule="evenodd"  fill="rgb(0, 0, 0)"
 d="M42.984,15.400 L39.975,15.400 C39.428,15.400 38.959,14.943 38.959,14.409 C38.959,13.875 39.428,13.418 39.975,13.418 L42.984,13.418 C43.531,13.418 44.000,13.837 44.000,14.409 C44.000,14.943 43.531,15.400 42.984,15.400 ZM37.513,7.662 C37.123,8.043 36.497,8.043 36.107,7.662 C35.716,7.280 35.716,6.670 36.107,6.289 L38.256,4.193 C38.647,3.811 39.272,3.811 39.663,4.193 C40.053,4.574 40.053,5.184 39.663,5.565 L37.513,7.662 ZM35.989,17.229 C35.716,17.916 35.286,18.563 34.778,19.136 C35.130,19.974 35.286,20.927 35.286,21.880 C35.286,24.129 34.348,26.150 32.863,27.598 C31.378,29.084 29.307,29.961 26.963,29.999 L7.307,29.999 C5.275,29.999 3.478,29.199 2.149,27.903 C0.820,26.607 -0.000,24.815 -0.000,22.871 C-0.000,20.889 0.820,19.136 2.149,17.840 C3.282,16.734 4.767,16.009 6.448,15.819 C6.995,13.646 8.206,11.740 9.847,10.368 C11.684,8.805 14.106,7.890 16.685,7.890 C18.874,7.890 20.945,8.538 22.664,9.720 C22.821,9.834 23.016,9.987 23.172,10.101 C23.758,9.339 24.501,8.691 25.321,8.195 C26.455,7.547 27.783,7.166 29.151,7.166 C31.183,7.166 33.059,8.005 34.387,9.301 C35.755,10.597 36.576,12.426 36.576,14.409 C36.576,15.362 36.380,16.352 35.989,17.229 ZM20.710,16.658 C21.492,15.781 22.469,15.095 23.524,14.637 C23.719,14.523 23.915,14.447 24.149,14.371 C23.524,13.189 22.586,12.159 21.492,11.436 C20.085,10.482 18.405,9.949 16.646,9.949 C14.536,9.949 12.582,10.673 11.098,11.931 C9.613,13.189 8.558,14.943 8.245,16.963 C8.206,17.229 8.050,17.458 7.815,17.611 C7.698,17.687 7.503,17.725 7.346,17.725 C5.900,17.725 4.572,18.335 3.634,19.250 C2.657,20.165 2.071,21.461 2.071,22.871 C2.071,24.281 2.696,25.578 3.634,26.492 C4.611,27.445 5.900,28.017 7.385,28.169 L26.884,28.169 C28.643,28.169 30.206,27.483 31.339,26.378 C32.472,25.272 33.176,23.748 33.176,22.033 C33.176,20.317 32.472,18.792 31.339,17.687 C30.206,16.581 28.604,15.895 26.884,15.895 C25.986,15.895 25.087,16.086 24.305,16.429 C23.524,16.772 22.781,17.306 22.195,17.954 C21.844,18.335 21.218,18.373 20.789,18.030 C20.398,17.687 20.359,17.077 20.710,16.658 ZM33.059,10.635 C32.082,9.682 30.714,9.110 29.229,9.110 C28.213,9.110 27.236,9.377 26.416,9.873 C25.751,10.292 25.165,10.825 24.735,11.474 C25.360,12.198 25.908,12.960 26.298,13.837 C26.533,13.799 26.806,13.799 27.041,13.799 C29.346,13.799 31.417,14.714 32.902,16.162 C33.215,16.467 33.527,16.810 33.801,17.191 C33.957,16.925 34.075,16.696 34.192,16.429 C34.465,15.781 34.622,15.095 34.622,14.371 C34.622,12.922 34.035,11.588 33.059,10.635 ZM29.229,4.917 C28.682,4.917 28.213,4.459 28.213,3.926 L28.213,0.952 C28.213,0.419 28.682,-0.000 29.229,-0.000 C29.776,-0.000 30.245,0.457 30.245,0.991 L30.245,3.926 C30.245,4.459 29.776,4.917 29.229,4.917 ZM20.906,7.662 L18.757,5.565 C18.366,5.184 18.366,4.574 18.757,4.193 C19.147,3.811 19.812,3.811 20.163,4.193 L22.313,6.289 C22.703,6.670 22.703,7.280 22.313,7.662 C21.922,8.043 21.297,8.043 20.906,7.662 ZM37.513,21.118 L39.663,23.214 C40.053,23.595 40.053,24.206 39.663,24.587 C39.272,24.968 38.647,24.968 38.256,24.587 L36.107,22.490 C35.716,22.109 35.716,21.499 36.107,21.118 C36.497,20.737 37.123,20.737 37.513,21.118 Z"/>
<path fill="url(#PSgrad_0)"
 d="M42.984,15.400 L39.975,15.400 C39.428,15.400 38.959,14.943 38.959,14.409 C38.959,13.875 39.428,13.418 39.975,13.418 L42.984,13.418 C43.531,13.418 44.000,13.837 44.000,14.409 C44.000,14.943 43.531,15.400 42.984,15.400 ZM37.513,7.662 C37.123,8.043 36.497,8.043 36.107,7.662 C35.716,7.280 35.716,6.670 36.107,6.289 L38.256,4.193 C38.647,3.811 39.272,3.811 39.663,4.193 C40.053,4.574 40.053,5.184 39.663,5.565 L37.513,7.662 ZM35.989,17.229 C35.716,17.916 35.286,18.563 34.778,19.136 C35.130,19.974 35.286,20.927 35.286,21.880 C35.286,24.129 34.348,26.150 32.863,27.598 C31.378,29.084 29.307,29.961 26.963,29.999 L7.307,29.999 C5.275,29.999 3.478,29.199 2.149,27.903 C0.820,26.607 -0.000,24.815 -0.000,22.871 C-0.000,20.889 0.820,19.136 2.149,17.840 C3.282,16.734 4.767,16.009 6.448,15.819 C6.995,13.646 8.206,11.740 9.847,10.368 C11.684,8.805 14.106,7.890 16.685,7.890 C18.874,7.890 20.945,8.538 22.664,9.720 C22.821,9.834 23.016,9.987 23.172,10.101 C23.758,9.339 24.501,8.691 25.321,8.195 C26.455,7.547 27.783,7.166 29.151,7.166 C31.183,7.166 33.059,8.005 34.387,9.301 C35.755,10.597 36.576,12.426 36.576,14.409 C36.576,15.362 36.380,16.352 35.989,17.229 ZM20.710,16.658 C21.492,15.781 22.469,15.095 23.524,14.637 C23.719,14.523 23.915,14.447 24.149,14.371 C23.524,13.189 22.586,12.159 21.492,11.436 C20.085,10.482 18.405,9.949 16.646,9.949 C14.536,9.949 12.582,10.673 11.098,11.931 C9.613,13.189 8.558,14.943 8.245,16.963 C8.206,17.229 8.050,17.458 7.815,17.611 C7.698,17.687 7.503,17.725 7.346,17.725 C5.900,17.725 4.572,18.335 3.634,19.250 C2.657,20.165 2.071,21.461 2.071,22.871 C2.071,24.281 2.696,25.578 3.634,26.492 C4.611,27.445 5.900,28.017 7.385,28.169 L26.884,28.169 C28.643,28.169 30.206,27.483 31.339,26.378 C32.472,25.272 33.176,23.748 33.176,22.033 C33.176,20.317 32.472,18.792 31.339,17.687 C30.206,16.581 28.604,15.895 26.884,15.895 C25.986,15.895 25.087,16.086 24.305,16.429 C23.524,16.772 22.781,17.306 22.195,17.954 C21.844,18.335 21.218,18.373 20.789,18.030 C20.398,17.687 20.359,17.077 20.710,16.658 ZM33.059,10.635 C32.082,9.682 30.714,9.110 29.229,9.110 C28.213,9.110 27.236,9.377 26.416,9.873 C25.751,10.292 25.165,10.825 24.735,11.474 C25.360,12.198 25.908,12.960 26.298,13.837 C26.533,13.799 26.806,13.799 27.041,13.799 C29.346,13.799 31.417,14.714 32.902,16.162 C33.215,16.467 33.527,16.810 33.801,17.191 C33.957,16.925 34.075,16.696 34.192,16.429 C34.465,15.781 34.622,15.095 34.622,14.371 C34.622,12.922 34.035,11.588 33.059,10.635 ZM29.229,4.917 C28.682,4.917 28.213,4.459 28.213,3.926 L28.213,0.952 C28.213,0.419 28.682,-0.000 29.229,-0.000 C29.776,-0.000 30.245,0.457 30.245,0.991 L30.245,3.926 C30.245,4.459 29.776,4.917 29.229,4.917 ZM20.906,7.662 L18.757,5.565 C18.366,5.184 18.366,4.574 18.757,4.193 C19.147,3.811 19.812,3.811 20.163,4.193 L22.313,6.289 C22.703,6.670 22.703,7.280 22.313,7.662 C21.922,8.043 21.297,8.043 20.906,7.662 ZM37.513,21.118 L39.663,23.214 C40.053,23.595 40.053,24.206 39.663,24.587 C39.272,24.968 38.647,24.968 38.256,24.587 L36.107,22.490 C35.716,22.109 35.716,21.499 36.107,21.118 C36.497,20.737 37.123,20.737 37.513,21.118 Z"/>
</svg>