<svg xmlns="http://www.w3.org/2000/svg" xmlns:xlink="http://www.w3.org/1999/xlink" width="30px" height="31px">
    <defs>
        <linearGradient id="PSgrad_0" x1="0%" x2="96.593%" y1="0%" y2="25.882%">
            <stop offset="0%" stop-color="rgb(173,122,25)" stop-opacity="1" />
            <stop offset="100%" stop-color="rgb(250,239,174)" stop-opacity="1" />
        </linearGradient>

    </defs>
    <path fill-rule="evenodd" fill="rgb(255, 255, 255)"
        d="M29.643,0.679 C29.416,0.477 29.113,0.380 28.811,0.412 L9.525,2.555 C8.982,2.615 8.571,3.074 8.571,3.620 L8.571,22.713 C7.600,22.133 6.489,21.829 5.357,21.834 C2.403,21.834 -0.000,23.756 -0.000,26.120 C-0.000,28.484 2.403,30.406 5.357,30.406 C8.311,30.406 10.714,28.484 10.714,26.120 L10.714,9.941 L27.857,8.031 L27.857,20.567 C26.885,19.988 25.774,19.685 24.643,19.692 C21.689,19.692 19.286,21.614 19.286,23.977 C19.286,26.341 21.689,28.263 24.643,28.263 C27.597,28.263 30.000,26.341 30.000,23.977 L30.000,1.477 C30.000,1.172 29.870,0.882 29.643,0.679 ZM5.357,28.263 C3.615,28.263 2.143,27.282 2.143,26.120 C2.143,24.958 3.615,23.977 5.357,23.977 C7.099,23.977 8.571,24.958 8.571,26.120 C8.571,27.282 7.099,28.263 5.357,28.263 ZM24.643,26.120 C22.901,26.120 21.429,25.139 21.429,23.977 C21.429,22.816 22.901,21.834 24.643,21.834 C26.385,21.834 27.857,22.816 27.857,23.977 C27.857,25.139 26.385,26.120 24.643,26.120 ZM27.857,5.876 L10.714,7.781 L10.714,4.584 L27.857,2.674 L27.857,5.876 Z" />
    <path fill="url(#PSgrad_0)"
        d="M29.643,0.679 C29.416,0.477 29.113,0.380 28.811,0.412 L9.525,2.555 C8.982,2.615 8.571,3.074 8.571,3.620 L8.571,22.713 C7.600,22.133 6.489,21.829 5.357,21.834 C2.403,21.834 -0.000,23.756 -0.000,26.120 C-0.000,28.484 2.403,30.406 5.357,30.406 C8.311,30.406 10.714,28.484 10.714,26.120 L10.714,9.941 L27.857,8.031 L27.857,20.567 C26.885,19.988 25.774,19.685 24.643,19.692 C21.689,19.692 19.286,21.614 19.286,23.977 C19.286,26.341 21.689,28.263 24.643,28.263 C27.597,28.263 30.000,26.341 30.000,23.977 L30.000,1.477 C30.000,1.172 29.870,0.882 29.643,0.679 ZM5.357,28.263 C3.615,28.263 2.143,27.282 2.143,26.120 C2.143,24.958 3.615,23.977 5.357,23.977 C7.099,23.977 8.571,24.958 8.571,26.120 C8.571,27.282 7.099,28.263 5.357,28.263 ZM24.643,26.120 C22.901,26.120 21.429,25.139 21.429,23.977 C21.429,22.816 22.901,21.834 24.643,21.834 C26.385,21.834 27.857,22.816 27.857,23.977 C27.857,25.139 26.385,26.120 24.643,26.120 ZM27.857,5.876 L10.714,7.781 L10.714,4.584 L27.857,2.674 L27.857,5.876 Z" />
</svg>