 <svg class="graph_anim" xmlns="http://www.w3.org/2000/svg" viewBox="0 0 1111 509">
                  <defs>
                    <style>
                      .grph-1 {
                        fill: #dece9f;
                      }

                      .grph-1,
                      .grph-2 {
                        fill-rule: evenodd;
                      }

                      .grph-2 {
                        fill: #2a2a2a;
                      }
                    </style>
                  </defs>
                  <path class="grph-1"
                    d="M404.92,780.17s56.93-22.52,92.46-30.84,74.52-12.2,93.48-9.49,71.14-11.52,81.3-19.65S732.45,706.63,746,706s50.81-23.72,73.84-56.93,52.84-4.74,65.71-1.35,29.81,11.52,89.42-70.49,156.49-35.25,193.75-10.85S1277.11,485,1302.85,436.88s44.71-52.19,96.2-48.12,61.65-84,116.52-84.72V812.36h-1111Z"
                    transform="translate(-404.57 -304.04)" />
                  <path class="grph-2"
                    d="M404.57,782.23s91-9.2,130.34-17.48,59.65,8.28,106.89-.69,46.9-22.42,117.93-15.18c0,0,23.45,0,53.1-29.66s64.48-9.31,81.38-3.45S1009,642.31,1081.1,658.52s127.58,79.67,222.75-8.28,63.79,33.46,211.72-50.35V813h-1111Z"
                    transform="translate(-404.57 -304.04)" />
                </svg>