<svg xmlns="http://www.w3.org/2000/svg" xmlns:xlink="http://www.w3.org/1999/xlink" viewBox="0 0 292.83 291"><defs><style>.cls-1,.cls-2,.cls-3,.cls-4,.cls-5{fill:none;stroke-miterlimit:10;}.cls-1{stroke:#b6b6b3;}.cls-2{stroke:#000;}.cls-2,.cls-3{stroke-width:0.67px;}.cls-3{stroke:url(#linear-gradient);}.cls-4{stroke:url(#linear-gradient-2);}.cls-5{stroke:url(#linear-gradient-3);}</style><linearGradient id="linear-gradient" x1="55.76" y1="29.89" x2="60.42" y2="29.89" gradientTransform="translate(120.89 4.07) rotate(130.35)" gradientUnits="userSpaceOnUse"><stop offset="0" stop-color="#ecdea0"/><stop offset="1" stop-color="#b3862a"/></linearGradient><linearGradient id="linear-gradient-2" x1="283" y1="104" x2="288" y2="104" gradientUnits="userSpaceOnUse"><stop offset="0" stop-color="#ccc"/><stop offset="1"/></linearGradient><linearGradient id="linear-gradient-3" x1="0" y1="132" x2="5" y2="132" xlink:href="#linear-gradient-2"/></defs><title>Asset 2</title><g id="Layer_2" data-name="Layer 2"><g id="Layer_2-2" data-name="Layer 2"><path class="cls-1" d="M290.75,126.38A147,147,0,0,1,292,145.5a145,145,0,0,1-289.83,7c0-.51,0-1-.07-1.54"/><circle class="cls-2" cx="290.5" cy="124" r="2"/><path class="cls-1" d="M62.1,27.94A144.36,144.36,0,0,1,147,.5C212,.5,266.1,43,284.5,102"/><circle class="cls-3" cx="60.5" cy="29" r="2"/><circle class="cls-4" cx="285.5" cy="104" r="2"/><path class="cls-1" d="M2.83,129.88A144.4,144.4,0,0,1,36.06,52.13"/><circle class="cls-5" cx="2.5" cy="132" r="2"/></g></g></svg>