<svg xmlns="http://www.w3.org/2000/svg" viewBox="0 0 70.5 71.5" height="100" width="100"><defs><style>.cls-1{fill:#e69567;}.cls-2{fill:none;stroke:#e69567;stroke-miterlimit:10;stroke-width:1.5px;}</style></defs><path class="cls-1" d="M44.91,42.37,28.85,26.31a1.8,1.8,0,0,0-2.54,0l-.85.84a1.8,1.8,0,0,0,0,2.54L41.53,45.76a1.8,1.8,0,0,0,2.54,0l.84-.85A1.8,1.8,0,0,0,44.91,42.37Z"/><path class="cls-1" d="M41.53,26.31,25.46,42.37a1.8,1.8,0,0,0,0,2.54l.85.85a1.79,1.79,0,0,0,2.53,0L44.91,29.69a1.79,1.79,0,0,0,0-2.53l-.84-.85A1.8,1.8,0,0,0,41.53,26.31Z"/><ellipse class="cls-2" cx="35.25" cy="35.75" rx="34.5" ry="35"/></svg>