<?xml version="1.0" encoding="utf-8"?>
<!-- Generator: Adobe Illustrator 24.0.1, SVG Export Plug-In . SVG Version: 6.00 Build 0)  -->
<svg version="1.1" id="Layer_1" xmlns="http://www.w3.org/2000/svg" xmlns:xlink="http://www.w3.org/1999/xlink" x="0px" y="0px"
	 viewBox="0 0 82 74.3" style="enable-background:new 0 0 82 74.3;" xml:space="preserve">
<style type="text/css">
	.st0{fill:url(#SVGID_1_);}
</style>
<title>Asset 1</title>
<g id="Layer_2_1_">
	<g id="Layer_1-2">
		<linearGradient id="SVGID_1_" gradientUnits="userSpaceOnUse" x1="0" y1="37.17" x2="82" y2="37.17">
			<stop  offset="0" style="stop-color:#AD7A19"/>
			<stop  offset="1" style="stop-color:#FAEFAE"/>
		</linearGradient>
		<path class="st0" d="M58,0l-1.6,2.1l-15,20l3.2,2.4l12-16c0.1,1.3,0.2,2.7,0.2,4.1c0,31.3-25.3,56.7-56.7,56.7c0,0-0.1,0-0.1,0v4
			c33.5,0,60.7-27.2,60.8-60.7c0-0.8,0-1.5,0-2.3l10.7,14.3l3.2-2.4l-15-20L58,0z M22,1.3c-7.2,0-13,5.8-13,13s5.8,13,13,13
			s13-5.8,13-13S29.2,1.3,22,1.3L22,1.3z M22,5.3c5,0,9,4,9,9s-4,9-9,9s-9-4-9-9S17,5.3,22,5.3z M3.4,32.9l-2.8,2.8l8.6,8.6
			l-8.6,8.6l2.8,2.8l8.6-8.6l8.6,8.6l2.8-2.8l-8.6-8.6l8.6-8.6l-2.8-2.8L12,41.5L3.4,32.9z M69,48.3c-7.2,0-13,5.8-13,13
			c0,7.2,5.8,13,13,13s13-5.8,13-13C82,54.2,76.2,48.3,69,48.3z M69,52.3c5,0,9,4,9,9s-4,9-9,9s-9-4-9-9l0,0
			C60,56.4,64,52.3,69,52.3z"/>
	</g>
</g>
</svg>
