<?xml version="1.0" encoding="utf-8"?>
<!-- Generator: Adobe Illustrator 24.0.1, SVG Export Plug-In . SVG Version: 6.00 Build 0)  -->
<svg version="1.1" id="Layer_1" xmlns="http://www.w3.org/2000/svg" xmlns:xlink="http://www.w3.org/1999/xlink" x="0px" y="0px"
	 viewBox="0 0 58.5 86.8" style="enable-background:new 0 0 58.5 86.8;" xml:space="preserve">
<style type="text/css">
	.st0{fill:none;stroke:url(#SVGID_1_);stroke-width:2;stroke-miterlimit:10;}
	.st1{fill:none;stroke:url(#SVGID_2_);stroke-width:2;stroke-miterlimit:10;}
	.st2{fill:none;stroke:url(#SVGID_3_);stroke-width:2;stroke-miterlimit:10;}
	.st3{fill:none;stroke:url(#SVGID_4_);stroke-width:2;stroke-miterlimit:10;}
	.st4{fill:none;stroke:url(#SVGID_5_);stroke-width:2;stroke-miterlimit:10;}
	.st5{fill:none;stroke:url(#SVGID_6_);stroke-width:2;stroke-miterlimit:10;}
	.st6{fill:none;stroke:url(#SVGID_7_);stroke-width:2;stroke-miterlimit:10;}
	.st7{fill:none;stroke:url(#SVGID_8_);stroke-width:2;stroke-miterlimit:10;}
	.st8{fill:none;stroke:url(#SVGID_9_);stroke-width:2;stroke-miterlimit:10;}
	.st9{fill:none;stroke:url(#SVGID_10_);stroke-width:2;stroke-miterlimit:10;}
	.st10{fill:none;stroke:url(#SVGID_11_);stroke-width:2;stroke-miterlimit:10;}
	.st11{fill:none;stroke:url(#SVGID_12_);stroke-width:2;stroke-miterlimit:10;}
	.st12{fill:none;stroke:url(#SVGID_13_);stroke-width:2;stroke-miterlimit:10;}
	.st13{fill:url(#SVGID_14_);stroke:url(#SVGID_15_);stroke-width:2;stroke-miterlimit:10;}
</style>
<title>Asset 1</title>
<g id="Layer_2_1_">
	<g id="Layer_1-2">
		<linearGradient id="SVGID_1_" gradientUnits="userSpaceOnUse" x1="0" y1="43.4" x2="58.5" y2="43.4">
			<stop  offset="0" style="stop-color:#AD7A19"/>
			<stop  offset="1" style="stop-color:#FAEFAE"/>
		</linearGradient>
		<rect x="1" y="1" class="st0" width="56.5" height="84.8"/>
		<linearGradient id="SVGID_2_" gradientUnits="userSpaceOnUse" x1="9.7" y1="28.4" x2="18.5" y2="28.4">
			<stop  offset="0" style="stop-color:#AD7A19"/>
			<stop  offset="1" style="stop-color:#FAEFAE"/>
		</linearGradient>
		<rect x="10.7" y="25" class="st1" width="6.8" height="6.8"/>
		<linearGradient id="SVGID_3_" gradientUnits="userSpaceOnUse" x1="24.9" y1="28.4" x2="33.7" y2="28.4">
			<stop  offset="0" style="stop-color:#AD7A19"/>
			<stop  offset="1" style="stop-color:#FAEFAE"/>
		</linearGradient>
		<rect x="25.9" y="25" class="st2" width="6.8" height="6.8"/>
		<linearGradient id="SVGID_4_" gradientUnits="userSpaceOnUse" x1="40.1" y1="28.4" x2="48.9" y2="28.4">
			<stop  offset="0" style="stop-color:#AD7A19"/>
			<stop  offset="1" style="stop-color:#FAEFAE"/>
		</linearGradient>
		<rect x="41.1" y="25" class="st3" width="6.8" height="6.8"/>
		<linearGradient id="SVGID_5_" gradientUnits="userSpaceOnUse" x1="9.7" y1="44.9" x2="18.5" y2="44.9">
			<stop  offset="0" style="stop-color:#AD7A19"/>
			<stop  offset="1" style="stop-color:#FAEFAE"/>
		</linearGradient>
		<rect x="10.7" y="41.5" class="st4" width="6.8" height="6.8"/>
		<linearGradient id="SVGID_6_" gradientUnits="userSpaceOnUse" x1="24.9" y1="44.9" x2="33.7" y2="44.9">
			<stop  offset="0" style="stop-color:#AD7A19"/>
			<stop  offset="1" style="stop-color:#FAEFAE"/>
		</linearGradient>
		<rect x="25.9" y="41.5" class="st5" width="6.8" height="6.8"/>
		<linearGradient id="SVGID_7_" gradientUnits="userSpaceOnUse" x1="40.1" y1="44.9" x2="48.9" y2="44.9">
			<stop  offset="0" style="stop-color:#AD7A19"/>
			<stop  offset="1" style="stop-color:#FAEFAE"/>
		</linearGradient>
		<rect x="41.1" y="41.5" class="st6" width="6.8" height="6.8"/>
		<linearGradient id="SVGID_8_" gradientUnits="userSpaceOnUse" x1="9.7" y1="61.3" x2="18.5" y2="61.3">
			<stop  offset="0" style="stop-color:#AD7A19"/>
			<stop  offset="1" style="stop-color:#FAEFAE"/>
		</linearGradient>
		<rect x="10.7" y="57.9" class="st7" width="6.8" height="6.8"/>
		<linearGradient id="SVGID_9_" gradientUnits="userSpaceOnUse" x1="24.9" y1="61.3" x2="33.7" y2="61.3">
			<stop  offset="0" style="stop-color:#AD7A19"/>
			<stop  offset="1" style="stop-color:#FAEFAE"/>
		</linearGradient>
		<rect x="25.9" y="57.9" class="st8" width="6.8" height="6.8"/>
		<linearGradient id="SVGID_10_" gradientUnits="userSpaceOnUse" x1="9.7" y1="77.7" x2="18.5" y2="77.7">
			<stop  offset="0" style="stop-color:#AD7A19"/>
			<stop  offset="1" style="stop-color:#FAEFAE"/>
		</linearGradient>
		<rect x="10.7" y="74.3" class="st9" width="6.8" height="6.8"/>
		<linearGradient id="SVGID_11_" gradientUnits="userSpaceOnUse" x1="24.9" y1="77.7" x2="33.7" y2="77.7">
			<stop  offset="0" style="stop-color:#AD7A19"/>
			<stop  offset="1" style="stop-color:#FAEFAE"/>
		</linearGradient>
		<rect x="25.9" y="74.3" class="st10" width="6.8" height="6.8"/>
		<linearGradient id="SVGID_12_" gradientUnits="userSpaceOnUse" x1="40.1" y1="69.5" x2="48.9" y2="69.5">
			<stop  offset="0" style="stop-color:#AD7A19"/>
			<stop  offset="1" style="stop-color:#FAEFAE"/>
		</linearGradient>
		<rect x="41.1" y="57.9" class="st11" width="6.8" height="23.2"/>
		<linearGradient id="SVGID_13_" gradientUnits="userSpaceOnUse" x1="3" y1="9.8" x2="55.6129" y2="9.8">
			<stop  offset="0" style="stop-color:#AD7A19"/>
			<stop  offset="1" style="stop-color:#FAEFAE"/>
		</linearGradient>
		<path class="st12" d="M53.7,14.1H4.9c-0.5,0-0.9-0.4-0.9-0.9V6.4c0-0.5,0.4-0.9,0.9-0.9c0,0,0,0,0,0h48.8c0.5,0,0.9,0.4,0.9,0.9
			c0,0,0,0,0,0v6.8C54.7,13.7,54.2,14.1,53.7,14.1z"/>
		<linearGradient id="SVGID_14_" gradientUnits="userSpaceOnUse" x1="1" y1="17.4" x2="57.6" y2="17.4">
			<stop  offset="0" style="stop-color:#AD7A19"/>
			<stop  offset="1" style="stop-color:#FAEFAE"/>
		</linearGradient>
		<linearGradient id="SVGID_15_" gradientUnits="userSpaceOnUse" x1="1" y1="17.4" x2="57.6" y2="17.4">
			<stop  offset="0" style="stop-color:#AD7A19"/>
			<stop  offset="1" style="stop-color:#FAEFAE"/>
		</linearGradient>
		<line class="st13" x1="1" y1="17.4" x2="57.6" y2="17.4"/>
	</g>
</g>
</svg>
