<svg xmlns="http://www.w3.org/2000/svg" xmlns:xlink="http://www.w3.org/1999/xlink" viewBox="0 0 568.61 588.52"><defs><style>.cls-1{fill:#cbd1d3;}.cls-2{fill:#bcc0c1;}.cls-3{fill:url(#New_Gradient_Swatch_copy_3);}.cls-4{fill:#e0e0e0;}.cls-5{fill:#d5dadb;}.cls-6{fill:url(#New_Gradient_Swatch_copy_2);}.cls-7{fill:url(#New_Gradient_Swatch_copy_2-2);}.cls-8{fill:url(#New_Gradient_Swatch_copy_3-2);}.cls-9{fill:url(#New_Gradient_Swatch_copy_3-3);}.cls-10{fill:url(#New_Gradient_Swatch_copy_3-4);}</style><linearGradient id="New_Gradient_Swatch_copy_3" x1="-1016.01" y1="267.73" x2="-854.79" y2="267.73" gradientTransform="matrix(0.7, 0, 0, -1, 743.42, 667.04)" gradientUnits="userSpaceOnUse"><stop offset="0" stop-color="#c7c7c7" stop-opacity="0.88"/><stop offset="0.27" stop-color="#cbcbcb" stop-opacity="0.9"/><stop offset="0.68" stop-color="#d5d5d5" stop-opacity="0.95"/><stop offset="1" stop-color="#e0e0e0"/></linearGradient><radialGradient id="New_Gradient_Swatch_copy_2" cx="1053.51" cy="-106.19" r="79.57" gradientTransform="matrix(-0.83, -0.56, 0.56, -0.83, 1326.96, 671.77)" gradientUnits="userSpaceOnUse"><stop offset="0" stop-color="#fff" stop-opacity="0"/><stop offset="0.38" stop-color="#fff" stop-opacity="0"/><stop offset="0.47" stop-color="#fefefe" stop-opacity="0.02"/><stop offset="0.56" stop-color="#f9f9f9" stop-opacity="0.08"/><stop offset="0.65" stop-color="#f2f2f2" stop-opacity="0.19"/><stop offset="0.74" stop-color="#e9e9e9" stop-opacity="0.34"/><stop offset="0.83" stop-color="#dcdcdc" stop-opacity="0.53"/><stop offset="0.92" stop-color="#cdcdcd" stop-opacity="0.76"/><stop offset="1" stop-color="#bdbdbd"/></radialGradient><radialGradient id="New_Gradient_Swatch_copy_2-2" cx="1053.51" cy="-106.19" r="30.41" xlink:href="#New_Gradient_Swatch_copy_2"/><linearGradient id="New_Gradient_Swatch_copy_3-2" x1="-840.96" y1="458.52" x2="-669.58" y2="458.52" xlink:href="#New_Gradient_Swatch_copy_3"/><linearGradient id="New_Gradient_Swatch_copy_3-3" x1="-360.23" y1="380.29" x2="-248.59" y2="380.29" xlink:href="#New_Gradient_Swatch_copy_3"/><linearGradient id="New_Gradient_Swatch_copy_3-4" x1="660.52" y1="8.62" x2="698.19" y2="8.62" gradientTransform="matrix(-0.58, -0.56, 0.39, -0.83, 923.04, 671.77)" xlink:href="#New_Gradient_Swatch_copy_3"/></defs><title>Asset 2</title><g id="Layer_2" data-name="Layer 2"><g id="OBJECTS"><path class="cls-1" d="M398.31,587.52V441.36l-56.66-56.49V340.2a2,2,0,0,0,1,.52v43.73L399.31,441V587.52Z"/><path class="cls-1" d="M402.86,587.52V439l-56.67-56.49v-41l1,.35v40.2l56.66,56.49v149Z"/><path class="cls-1" d="M407.4,587.52V436.6l-56.66-56.5V343l.17,0,.83.14v36.55l56.66,56.49V587.52Z"/><path class="cls-1" d="M412,587.52V434.21l-56.67-56.49v-34l1,.16v33.47L413,433.8V587.52Z"/><path class="cls-1" d="M416.49,587.52V431.83l-56.66-56.49V344.56l1,.23v30.14l56.66,56.49v156.1Z"/><path class="cls-1" d="M421,587.52V429.45L364.37,373V345.51l1,.17v26.86L422,429V587.52Z"/><path class="cls-1" d="M425.58,587.52V427.07l-56.66-56.49V346l.59,0a1.84,1.84,0,0,0,.41,0v24.19l56.66,56.49V587.52Z"/><path class="cls-1" d="M351.74,539.23v49.29h-1V538.81l21.18-21.11V448.27l-61-60.5v-59.3a2,2,0,0,0,1,.3v58.58l61,60.5v70.26Z"/><path class="cls-2" d="M93.79,190.7l.6-.49L123,231.06l-.35.42a24.39,24.39,0,0,0-3.58,5.59l-.23.49-49.23-8.7.2-.75A73.37,73.37,0,0,1,93.79,190.7ZM118,236a25.5,25.5,0,0,1,3.2-5L94.11,192.3a71.78,71.78,0,0,0-22.69,35.43Z"/><path class="cls-2" d="M77.17,284.18a73.12,73.12,0,0,1-9.6-43.34l.07-.77,49.23,8.7,0,.55a24.22,24.22,0,0,0,1.44,6.47l.19.51-41,28.55Zm39.65-28.42a25.67,25.67,0,0,1-1.28-5.78l-46.62-8.24A71.72,71.72,0,0,0,78,282.79Z"/><path class="cls-2" d="M125.49,266a24.43,24.43,0,0,0,5.61,3.56l.5.23-8.73,49.08-.75-.2a73.6,73.6,0,0,1-37.53-23.88l-.49-.6,41-28.55Zm-39.3,28.47a72.12,72.12,0,0,0,35.54,22.62L130,270.61a25.23,25.23,0,0,1-5-3.19Z"/><path class="cls-2" d="M134.88,320.92l-.77-.07,8.72-49.08.55,0a24.57,24.57,0,0,0,6.49-1.43l.52-.2L179,311l-.68.39A73.81,73.81,0,0,1,134.88,320.92Zm15-49.11a25.84,25.84,0,0,1-5.8,1.28l-8.27,46.48A72.26,72.26,0,0,0,177,310.5Z"/><path class="cls-2" d="M152.77,224a25.6,25.6,0,0,1,5,3.19L173.83,216v1.74L157.69,229l-.41-.35a24.29,24.29,0,0,0-5.6-3.57l-.5-.23,8.72-49.08.76.2a74.08,74.08,0,0,1,15.51,6.08v1.62A72.65,72.65,0,0,0,161,177.57Z"/><path class="cls-2" d="M173.83,233.4,166,238.89a25.67,25.67,0,0,1,1.28,5.78l46.62,8.24c.12-1.58.18-3.15.2-4.72h1.44c0,1.87-.12,3.74-.29,5.62l-.07.77-49.23-8.7,0-.55a24.22,24.22,0,0,0-1.44-6.47l-.19-.51,9.6-6.69Z"/><path class="cls-2" d="M96,329.23l.58.32L91.8,339.64l10.34,4.82,4.73-10.09.62.24a96.37,96.37,0,0,0,11.27,3.53l.65.15-2,11,11.24,2,2-11,.66.07a93.38,93.38,0,0,0,11.8.56l.67,0,1,11.1,11.38-1-1-11.1.66-.1a93.31,93.31,0,0,0,11.54-2.54l.64-.19,3.81,10.48,10.73-3.89-3.81-10.47.61-.27a95.66,95.66,0,0,0,10.47-5.44l.57-.35,6.41,9.15,9.36-6.52-6.41-9.15.52-.42a93.24,93.24,0,0,0,8.73-7.93l.46-.47L218,319l7.35-8.71-8.56-7.17.4-.54a93.56,93.56,0,0,0,6.36-9.93l.32-.58L234,296.76l4.83-10.31-10.11-4.72.24-.62a93.85,93.85,0,0,0,3.53-11.23l.16-.65,11,1.95.54-3.05a8.91,8.91,0,0,0,1.06,2.18l-.45,2.52-11.12-2A97.88,97.88,0,0,1,230.51,281l10.2,4.75-6,12.89-10.2-4.76a96.94,96.94,0,0,1-5.75,9l8.63,7.23L218.17,321l-8.63-7.23a96.43,96.43,0,0,1-7.88,7.16l6.47,9.22-11.7,8.15L190,329.05a94.33,94.33,0,0,1-9.45,4.91l3.85,10.56-13.42,4.86-3.84-10.57a91.72,91.72,0,0,1-10.41,2.3l1,11.19-14.22,1.23-1-11.19a99.47,99.47,0,0,1-10.65-.5l-2,11.09-14-2.49,2-11.09a96.6,96.6,0,0,1-10.17-3.17l-4.77,10.17-12.93-6,4.77-10.18a94.22,94.22,0,0,1-9-5.73L78.44,333l-10.92-9.16,7.25-8.6a94.28,94.28,0,0,1-7.18-7.85l-9.26,6.45L50.16,302.2l9.26-6.44a93.16,93.16,0,0,1-4.93-9.43l-10.6,3.84L39,276.79,49.62,273a94.77,94.77,0,0,1-2.31-10.38l-11.22,1-1.23-14.17,11.22-1a96.22,96.22,0,0,1,.51-10.62l-11.12-2,2.49-14,11.12,2a96.07,96.07,0,0,1,3.19-10.14l-10.21-4.75,6-12.89,10.21,4.76a92.13,92.13,0,0,1,5.74-9l-8.63-7.23,9.19-10.89,8.62,7.23a98.28,98.28,0,0,1,7.88-7.16l-6.46-9.23,11.69-8.14,6.47,9.22a97.52,97.52,0,0,1,9.45-4.91l-3.85-10.57,13.42-4.85,3.84,10.57a93.49,93.49,0,0,1,10.41-2.31l-1-11.18,14.22-1.23,1,11.19a99.35,99.35,0,0,1,10.65.5l2-11.08L167,144.21l-2,11.09a95.87,95.87,0,0,1,10.17,3.17l4.77-10.17,12.93,6-4.77,10.17a96.24,96.24,0,0,1,9,5.73l7.25-8.6,6.65,5.57h-2.22l-4.25-3.56-7.19,8.53-.54-.4a92.58,92.58,0,0,0-10-6.34l-.58-.32L191,155l-10.34-4.82-4.73,10.09-.62-.24A95.78,95.78,0,0,0,164,156.51l-.65-.16,2-11-11.25-2-1.95,11-.66-.07a95.29,95.29,0,0,0-11.8-.56H139l-1-11.09-11.37,1,1,11.09-.66.11a93.78,93.78,0,0,0-11.53,2.54l-.65.19L111,147.09,100.24,151l3.81,10.47-.61.27A94.76,94.76,0,0,0,93,167.16l-.57.35L86,158.36l-9.36,6.52L83.05,174l-.52.41a93.49,93.49,0,0,0-8.73,7.93l-.47.48-8.55-7.17-7.35,8.71L66,191.56l-.39.54A91.86,91.86,0,0,0,59.23,202l-.32.59-10.12-4.72L44,208.2l10.11,4.72-.24.61a94.59,94.59,0,0,0-3.53,11.24l-.16.65-11-1.95-2,11.2,11,2-.07.67a92.5,92.5,0,0,0-.56,11.76v.66l-11.13,1,1,11.34,11.12-1,.11.66a94.2,94.2,0,0,0,2.55,11.5l.18.63-10.5,3.81,3.89,10.69,10.51-3.79.27.6A94.47,94.47,0,0,0,61,295.59l.35.57-9.18,6.4,6.53,9.32,9.19-6.39.41.52a94.42,94.42,0,0,0,8,8.7l.48.46-7.19,8.53L78.26,331l7.2-8.53"/><path class="cls-2" d="M147.89,173.73l.77.07-8.73,49.08-.54.05a24.25,24.25,0,0,0-6.49,1.42l-.52.19-28.64-40.85.68-.39A73.81,73.81,0,0,1,147.89,173.73Zm-15,49.1a26.38,26.38,0,0,1,5.8-1.27L147,175.08a72.28,72.28,0,0,0-41.18,9.07Z"/><path class="cls-2" d="M153.52,238.87a14.79,14.79,0,1,1-20.61-3.64A14.75,14.75,0,0,1,153.52,238.87Zm-19.8-2.48a13.35,13.35,0,1,0,18.63,3.3A13.34,13.34,0,0,0,133.72,236.39Z"/><path class="cls-2" d="M163.68,257.58l.23-.49,49.23,8.69-.2.76a73.3,73.3,0,0,1-24,37.4l-.6.5-28.63-40.85.35-.42A24.06,24.06,0,0,0,163.68,257.58Zm25,44.77a71.82,71.82,0,0,0,22.69-35.43l-46.61-8.24a26,26,0,0,1-3.2,5Z"/><path class="cls-3" d="M35.78,426.26l7.32,10.45,7.78-5.42A47.07,47.07,0,0,0,60,439l-4,8.55,11.59,5.39,4-8.56A47.19,47.19,0,0,0,83.3,446.4l.81,9.42,12.74-1.1-.82-9.4a47.07,47.07,0,0,0,11.19-4.07l5.44,7.75,10.48-7.3L117.7,434a46.41,46.41,0,0,0,7.68-9.08l8.58,4,5.41-11.55-8.59-4a47.35,47.35,0,0,0,2.08-11.69l9.45-.82-1.1-12.69-9.44.81a46.6,46.6,0,0,0-4.08-11.16l7.78-5.41-7.32-10.45-7.78,5.42a47.07,47.07,0,0,0-9.1-7.66l4-8.55-11.58-5.4-4,8.56A48.21,48.21,0,0,0,88,352.21l-.82-9.42-12.73,1.1.81,9.41A46.72,46.72,0,0,0,64,357.37l-5.44-7.76-10.48,7.31,5.43,7.75a46.94,46.94,0,0,0-7.67,9.07l-8.58-4L31.88,381.3l8.59,4A46.9,46.9,0,0,0,38.39,397l-9.45.82L30,410.5l9.43-.81a47.4,47.4,0,0,0,4.08,11.15Zm7.67,8.47-5.68-8.12,7.64-5.32-.3-.56a45.19,45.19,0,0,1-4.37-12l-.13-.62-9.27.8-.86-9.86,9.28-.81,0-.62A46,46,0,0,1,42,385.14l.2-.6-8.44-3.93,4.21-9,8.42,3.92.34-.53A45.66,45.66,0,0,1,55,365.3l.47-.42-5.33-7.61,8.14-5.68,5.34,7.62.56-.3a45.69,45.69,0,0,1,12-4.35l.62-.13-.8-9.24,9.9-.86.8,9.25.63,0a46,46,0,0,1,12.57,2.22l.6.19,3.94-8.41,9,4.2-3.94,8.39.54.34a45.38,45.38,0,0,1,9.75,8.2l.42.47,7.64-5.32,5.69,8.11-7.64,5.33.3.55a45.61,45.61,0,0,1,4.37,12l.13.61,9.27-.8.86,9.87-9.28.8,0,.63a46,46,0,0,1-2.23,12.53l-.2.6,8.44,3.93-4.21,9-8.42-3.93-.34.54a45.6,45.6,0,0,1-8.23,9.72l-.47.43,5.34,7.61L113,447l-5.34-7.61-.56.29a45.42,45.42,0,0,1-12,4.36l-.62.13.81,9.24-9.9.85-.8-9.25L84,445a46.29,46.29,0,0,1-12.57-2.22l-.6-.2L66.87,451l-9-4.19,3.94-8.4-.54-.33a45.43,45.43,0,0,1-9.75-8.21l-.42-.47Zm11.68-14.18A38.51,38.51,0,0,0,58.82,425a37.24,37.24,0,0,0,6,5l.69.47,3.38-7.21-.48-.35a28.21,28.21,0,0,1-3.2-2.68,29.18,29.18,0,0,1-6.36-9.07,28.22,28.22,0,0,1-1.43-3.92l-.16-.56-7.95.68.2.81a36.58,36.58,0,0,0,2.68,7.34A37.12,37.12,0,0,0,55.13,420.55Zm9.8,7.85A35.39,35.39,0,0,1,59.85,424a36.06,36.06,0,0,1-6.38-9.1,34.9,34.9,0,0,1-2.36-6.26l5.11-.44a30.48,30.48,0,0,0,8,13.06,30.87,30.87,0,0,0,2.89,2.47Zm9.58,6.31.8.23a37.37,37.37,0,0,0,26.62-2.29l.75-.37-4.57-6.52-.54.24a28.08,28.08,0,0,1-3.94,1.42,29.22,29.22,0,0,1-11,.95,29.84,29.84,0,0,1-4.12-.73l-.57-.14Zm26-3a36.46,36.46,0,0,1-6.33,2.2,36,36,0,0,1-17.71-.14l2.17-4.63a31.53,31.53,0,0,0,3.75.62,30.44,30.44,0,0,0,11.59-1,29.41,29.41,0,0,0,3.59-1.26ZM48.46,397.54l7.95-.68.07-.59a28.39,28.39,0,0,1,.73-4.1,28.93,28.93,0,0,1,4.68-10,30.85,30.85,0,0,1,2.7-3.2l.41-.42L60.43,372l-.6.57A37.19,37.19,0,0,0,49.89,389a37.14,37.14,0,0,0-1.37,7.69Zm6.66-2L50,396a35.7,35.7,0,0,1,10.21-21.79l2.94,4.2a31,31,0,0,0-2.42,2.92,30.51,30.51,0,0,0-4.92,10.51A31.25,31.25,0,0,0,55.12,395.54ZM74.3,407.2A13.8,13.8,0,1,0,77.71,388,13.86,13.86,0,0,0,74.3,407.2Zm21.48-15a12.38,12.38,0,1,1-17.25-3.05A12.34,12.34,0,0,1,95.78,392.23Zm10.47,27.86,4.57,6.52.6-.58a36.28,36.28,0,0,0,5-6,36.76,36.76,0,0,0,4.9-10.46,37.81,37.81,0,0,0,1.37-7.69l.06-.83-8,.69-.06.58a29.22,29.22,0,0,1-5.42,14.13,29.21,29.21,0,0,1-2.69,3.2Zm4.78,4.33-2.94-4.19a32,32,0,0,0,2.42-2.92,30.59,30.59,0,0,0,4.92-10.51,33.57,33.57,0,0,0,.7-3.73l5.11-.44a35.81,35.81,0,0,1-6,16.63A35.89,35.89,0,0,1,111,424.42ZM68.57,366.34l4.57,6.52.54-.24A29.41,29.41,0,0,1,92.79,371l.57.14,3.38-7.21-.8-.23a37.47,37.47,0,0,0-19.26-.37A36.93,36.93,0,0,0,69.32,366Zm5.07,4.74-2.94-4.19a35.95,35.95,0,0,1,24-2.06l-2.18,4.63a29.64,29.64,0,0,0-3.75-.63,30.77,30.77,0,0,0-11.58,1A32.49,32.49,0,0,0,73.64,371.08ZM114,391.89l8-.68-.2-.81a36.88,36.88,0,0,0-9.31-16.81,37.21,37.21,0,0,0-6-5l-.69-.46-3.38,7.21.48.34a29.49,29.49,0,0,1,9.56,11.75,28.83,28.83,0,0,1,1.43,3.93Zm-3.17-10.14a29.93,29.93,0,0,0-3.78-4.43,30.87,30.87,0,0,0-2.89-2.47l2.17-4.63a35.39,35.39,0,0,1,5.08,4.36,36.06,36.06,0,0,1,6.38,9.1,34.52,34.52,0,0,1,2.36,6.25l-5.11.44a29.69,29.69,0,0,0-1.33-3.55A30.43,30.43,0,0,0,110.82,381.75Z"/><path class="cls-4" d="M261,383.39,263.16,396l-9.34,1.62a47.41,47.41,0,0,1-1.06,11.82l8.9,3.26-4.4,12-8.89-3.25a47.17,47.17,0,0,1-6.87,9.7l6.09,7.26-9.82,8.17-6.08-7.26a46.85,46.85,0,0,1-10.8,5l1.63,9.3-12.6,2.19-1.62-9.31a48.16,48.16,0,0,1-11.86-1.06l-3.26,8.87-12-4.38,3.26-8.87a46.69,46.69,0,0,1-9.73-6.84l-7.28,6.06-8.2-9.78,7.28-6.06a47.12,47.12,0,0,1-5-10.77l-9.32,1.62L150,402.66l9.34-1.62a47.42,47.42,0,0,1,1.07-11.82L151.45,386l4.4-12,8.89,3.24a47.17,47.17,0,0,1,6.87-9.7l-6.08-7.25,9.81-8.18,6.08,7.26a47.39,47.39,0,0,1,10.79-5l-1.62-9.3,12.6-2.19,1.62,9.31a48.16,48.16,0,0,1,11.86,1.06l3.26-8.87,12,4.39-3.25,8.86a47.22,47.22,0,0,1,9.73,6.84l7.27-6.06,8.2,9.78-7.28,6.07a46.44,46.44,0,0,1,5,10.76ZM229.2,422a31.66,31.66,0,0,0,8.94-17l.14-.77-22.05-2-.18.51a9.92,9.92,0,0,1-1.27,2.41l-.32.45,14.19,16.93Zm-22.7,9.33a31.89,31.89,0,0,0,18.39-5.74l.64-.44-14.19-16.94-.5.24a9.94,9.94,0,0,1-2.6.81l-.54.09-2,22Zm-22.67-9.41a31.79,31.79,0,0,0,17.08,8.91l.76.14,2-22-.52-.18a10.53,10.53,0,0,1-2.42-1.26l-.45-.32-17,14.14Zm-9.36-22.63a31.75,31.75,0,0,0,5.76,18.34l.45.63,17-14.14-.23-.5a10,10,0,0,1-.82-2.6l-.09-.54-22.05-2Zm9.44-22.6a31.69,31.69,0,0,0-8.94,17l-.13.76,22,2,.19-.52a9.9,9.9,0,0,1,1.26-2.41l.32-.44L184.46,376.1Zm22.71-9.33a31.9,31.9,0,0,0-18.4,5.74l-.64.45,14.19,16.93.5-.23a9.71,9.71,0,0,1,2.6-.82l.55-.09,2-22Zm.54,25.3A6.72,6.72,0,0,0,201,403.15a5.19,5.19,0,0,0,.36.46,6.73,6.73,0,1,0,5.77-11Zm22.12-15.89a31.89,31.89,0,0,0-17.08-8.91l-.76-.14-2,22,.52.19a9.79,9.79,0,0,1,2.42,1.26l.45.32,17-14.15Zm3.6,4.3-.44-.64-17,14.15.24.49a10.06,10.06,0,0,1,.81,2.6l.1.54,22,2v-.77A31.59,31.59,0,0,0,232.88,381Z"/><path class="cls-5" d="M107.44,502.66l6.21,7.41,5.33-4.43a34.15,34.15,0,0,0,6.85,4.82l-2.38,6.48,9.11,3.33,2.38-6.49a34.49,34.49,0,0,0,8.35.75l1.19,6.81,9.56-1.66-1.19-6.8a34.58,34.58,0,0,0,7.61-3.53l4.45,5.31,7.44-6.2-4.45-5.31a34.41,34.41,0,0,0,4.84-6.83l6.5,2.37,3.34-9.08-6.51-2.38a35.26,35.26,0,0,0,.75-8.33l6.83-1.18L182,468.19l-6.82,1.18a34.61,34.61,0,0,0-3.54-7.58l5.32-4.43-6.22-7.42-5.32,4.43a34.15,34.15,0,0,0-6.85-4.82l2.38-6.48-9.11-3.33-2.38,6.49a35.56,35.56,0,0,0-8.36-.75l-1.19-6.8-9.55,1.66,1.18,6.8a34.22,34.22,0,0,0-7.6,3.52l-4.45-5.3-7.44,6.2,4.44,5.31a34.48,34.48,0,0,0-4.83,6.83l-6.5-2.38-3.34,9.09,6.51,2.37a34.79,34.79,0,0,0-.75,8.33l-6.83,1.19,1.67,9.52,6.82-1.18a34.36,34.36,0,0,0,3.53,7.58Zm6.39,5.41-4.38-5.24,5.19-4.32-.35-.53a33.32,33.32,0,0,1-3.9-8.36l-.18-.6-6.65,1.16-1.18-6.73L109,482.3l0-.63a33.33,33.33,0,0,1,.83-9.18l.14-.61-6.35-2.32,2.36-6.41,6.34,2.31.29-.56a33.21,33.21,0,0,1,5.32-7.52l.43-.46L114,451.74l5.25-4.38,4.34,5.18.53-.34a32.89,32.89,0,0,1,8.38-3.89l.6-.18L132,441.49l6.74-1.17,1.16,6.64.63,0a33.51,33.51,0,0,1,9.21.82l.61.14,2.33-6.32,6.43,2.35-2.32,6.32.56.28a32.94,32.94,0,0,1,7.55,5.32l.46.43,5.19-4.33,4.39,5.24-5.19,4.32.34.53a32.79,32.79,0,0,1,3.9,8.36l.19.6,6.65-1.15,1.17,6.72-6.65,1.16,0,.62a33.4,33.4,0,0,1-.83,9.19l-.14.61,6.35,2.32-2.36,6.41-6.34-2.32-.29.56a33,33,0,0,1-5.33,7.53l-.43.46,4.34,5.18-5.26,4.37-4.33-5.17-.53.34a33.23,33.23,0,0,1-8.38,3.89l-.61.18,1.16,6.63-6.75,1.17-1.15-6.64-.64,0a33.12,33.12,0,0,1-9.2-.82l-.62-.14-2.32,6.32-6.43-2.34,2.32-6.32-.56-.29a32.9,32.9,0,0,1-7.55-5.31l-.46-.43Z"/><path class="cls-5" d="M144.1,473.11l.52.19a7.32,7.32,0,0,1,1.71.89l.45.32L159.43,464l-.55-.55a23.36,23.36,0,0,0-12.54-6.55l-.77-.14Zm2.6-.38a11.13,11.13,0,0,0-1.08-.57l1.23-13.73a21.93,21.93,0,0,1,10.46,5.46Z"/><path class="cls-5" d="M149.33,479.36l16.42,1.47v-.78a23.21,23.21,0,0,0-4.23-13.47l-.44-.64-12.65,10.54.24.49a7.38,7.38,0,0,1,.57,1.84Zm15-.09L150.54,478a8.17,8.17,0,0,0-.36-1.16L160.79,468A22,22,0,0,1,164.32,479.27Z"/><path class="cls-5" d="M147.7,484.59l10.57,12.6.55-.54a23.28,23.28,0,0,0,6.56-12.51l.14-.76-16.42-1.47-.18.52a7,7,0,0,1-.9,1.71Zm10.66,10.49-8.87-10.58a9.93,9.93,0,0,0,.57-1.07l13.77,1.23A21.82,21.82,0,0,1,158.36,495.08Z"/><path class="cls-5" d="M141.37,503.5h.78a23.47,23.47,0,0,0,13.51-4.22l.63-.44-10.56-12.61-.5.23a7.11,7.11,0,0,1-1.85.58l-.54.09Zm12.82-4.95a21.87,21.87,0,0,1-11.26,3.51l1.23-13.73a7.91,7.91,0,0,0,1.17-.36Z"/><path class="cls-5" d="M125,496l.55.55A23.34,23.34,0,0,0,138,503.13l.77.14,1.47-16.37-.52-.18a7.24,7.24,0,0,1-1.72-.9l-.44-.32Zm12.58,5.54a22,22,0,0,1-10.46-5.45l10.61-8.85a8,8,0,0,0,1.08.57Z"/><path class="cls-5" d="M138,482.92a4.11,4.11,0,0,0,.27.35,5.06,5.06,0,1,0-.27-.35Zm7.19-5a3.66,3.66,0,0,1-3.34,5.74,3.58,3.58,0,0,1-2.49-1.3,3.67,3.67,0,0,1,5.64-4.69C145.08,477.74,145.14,477.83,145.2,477.91Z"/><path class="cls-5" d="M123.3,494.07,136,483.54l-.24-.5a7.57,7.57,0,0,1-.58-1.84l-.09-.54-16.41-1.47V480a23.31,23.31,0,0,0,4.23,13.47Zm10.9-10.93L123.59,492a21.82,21.82,0,0,1-3.53-11.23L133.84,482A8.59,8.59,0,0,0,134.2,483.14Z"/><path class="cls-5" d="M118.86,476.63l16.41,1.47.19-.51a7,7,0,0,1,.9-1.71l.32-.45-10.57-12.61-.55.55a23.27,23.27,0,0,0-6.57,12.5Zm15.46,0-13.77-1.23A21.85,21.85,0,0,1,126,464.93l8.87,10.58A8,8,0,0,0,134.32,476.59Z"/><path class="cls-5" d="M128.08,461.18l10.57,12.61.5-.24A7.08,7.08,0,0,1,141,473l.54-.1L143,456.52h-.78a23.45,23.45,0,0,0-13.51,4.22Zm11,10.87-8.87-10.59A22,22,0,0,1,141.45,458l-1.24,13.73A8.22,8.22,0,0,0,139.05,472.05Z"/><path class="cls-6" d="M323.17,129.8A79.74,79.74,0,1,1,345.1,240.19,80,80,0,0,1,323.17,129.8Z"/><path class="cls-7" d="M364.14,157.14a30.48,30.48,0,1,1,8.39,42.19A30.57,30.57,0,0,1,364.14,157.14Z"/><path class="cls-4" d="M361.55,134.44l-4.32-13.76,9.52-4.67,8.3,11.81a48.39,48.39,0,0,1,10.11-2l3.16-14.08,10.59.7,1.27,14.36a48,48,0,0,1,9.76,3.31l9.79-10.61,8.82,5.88-6.11,13.07a47.22,47.22,0,0,1,6.79,7.74L443,141.89l4.68,9.49-11.85,8.28a48.8,48.8,0,0,1,2,10.08L452,172.89l-.71,10.55-14.4,1.27a48.41,48.41,0,0,1-3.32,9.73l10.64,9.76-5.9,8.79-13.11-6.08a48.61,48.61,0,0,1-7.76,6.77l4.32,13.76-9.52,4.67-8.3-11.81a49.71,49.71,0,0,1-10.11,2l-3.16,14.08-10.59-.7-1.27-14.36a48.85,48.85,0,0,1-9.76-3.31l-9.79,10.61-8.82-5.88,6.11-13.07a47.63,47.63,0,0,1-6.79-7.74L336,206.23l-4.69-9.49,11.85-8.28a48.78,48.78,0,0,1-2-10.08L327,175.23l.7-10.56,14.4-1.26a48.41,48.41,0,0,1,3.32-9.73l-10.64-9.76,5.9-8.8,13.11,6.09A48.61,48.61,0,0,1,361.55,134.44Zm2.88,22.89a30.13,30.13,0,1,0,41.84-8.27A30,30,0,0,0,364.43,157.33Z"/><path class="cls-4" d="M332.3,93l-8.85-28.16,19.49-9.56,17,24.18a99.92,99.92,0,0,1,20.68-4.09l6.47-28.82L408.76,48l2.6,29.39a99.31,99.31,0,0,1,20,6.77l20-21.71,18,12L456.93,101.2A98.53,98.53,0,0,1,470.83,117l28.25-8.82,9.59,19.42-24.26,17a98.7,98.7,0,0,1,4.1,20.63l28.91,6.44L516,193.27l-29.49,2.58a98.12,98.12,0,0,1-6.79,19.93l21.78,20-12.08,18-26.83-12.45a98,98,0,0,1-15.88,13.85l8.85,28.17-19.49,9.56-17-24.18a100.45,100.45,0,0,1-20.68,4.09l-6.47,28.81-21.67-1.43-2.6-29.4a98.68,98.68,0,0,1-20-6.77l-20,21.71-18-12,12.49-26.74a98.47,98.47,0,0,1-13.9-15.84l-28.24,8.82-9.6-19.42,24.26-16.95a98.7,98.7,0,0,1-4.1-20.63l-28.9-6.44L263,154.85l29.49-2.58a98.12,98.12,0,0,1,6.79-19.93l-21.78-20,12.08-18,26.83,12.46A98.53,98.53,0,0,1,332.3,93Zm-7.09,38.19A77.28,77.28,0,1,0,432.52,110,77,77,0,0,0,325.21,131.16Z"/><path class="cls-4" d="M275,97.64c-42.27,63-25.27,148.46,37.88,190.6S461.76,313.44,504,250.48,529.29,102,466.14,59.88,317.23,34.68,275,97.64Zm.73.49c42-62.56,127.21-79.4,190-37.53S545.29,187.43,503.29,250s-127.21,79.39-190,37.52S233.7,160.69,275.7,98.13Z"/><path class="cls-4" d="M300.44,306.72a158.87,158.87,0,0,1-58.16-70.05l-1.17,1.74a160.52,160.52,0,0,0,58.36,69.76c64,42.73,147.87,33.73,201.53-17.12l-1.2-1.28C446.73,340.08,363.8,349,300.44,306.72Z"/><path class="cls-4" d="M227.7,172.38l1.76,1.17a158.2,158.2,0,0,1,27-88.27C305.54,12.13,405.18-7.56,478.55,41.4c69.65,46.48,91,138.37,50.92,210.15l1.08,1.67c41.11-72.68,19.66-166.11-51-213.27C405.35-9.54,304.62,10.35,255,84.3A160.06,160.06,0,0,0,227.7,172.38Z"/><path class="cls-4" d="M419.15,337l.34,1.71a168.09,168.09,0,0,0,85.64-43.23l-1.2-1.27A166.4,166.4,0,0,1,419.15,337Z"/><path class="cls-4" d="M533.16,257.28l1.07,1.66a166.8,166.8,0,0,0,15.41-135l-1.73.34A165.09,165.09,0,0,1,533.16,257.28Z"/><path class="cls-4" d="M221.74,168.4l1.72,1.15A165.42,165.42,0,0,1,354.6,12.18l-.34-1.71A167.15,167.15,0,0,0,221.74,168.4Z"/><path class="cls-4" d="M232.79,250.8a173.3,173.3,0,0,0,59.57,68,175.23,175.23,0,0,0,177.56,9.81l-.8-1.56a173.45,173.45,0,0,1-175.78-9.71,171.33,171.33,0,0,1-59.42-68.18Z"/><path class="cls-4" d="M485.65,30.81a171.92,171.92,0,0,1,75.5,123.47l1.75-.18A174.51,174.51,0,0,0,311.45,18.34l.8,1.56A173.45,173.45,0,0,1,485.65,30.81Z"/><path class="cls-4" d="M249.59,212.42a144.12,144.12,0,0,0,58.29,81.33l.49-.73a143.18,143.18,0,0,1-58.13-81.57Z"/><path class="cls-4" d="M245.41,190.85l1,.64A143.2,143.2,0,0,1,253,127.23l-.75-.51A144,144,0,0,0,245.41,190.85Z"/><path class="cls-4" d="M374.2,30.19l.17.86a144.12,144.12,0,0,1,144.49,79.34l.83-.31A145,145,0,0,0,374.2,30.19Z"/><polygon class="cls-4" points="310.54 286.17 315.64 289.58 304.96 305.49 299.86 302.09 310.54 286.17"/><polygon class="cls-4" points="326.02 295.56 316.77 312.34 311.39 309.39 320.64 292.61 326.02 295.56"/><polygon class="cls-4" points="336.88 300.61 329.14 318.13 323.52 315.66 331.27 298.14 336.88 300.61"/><polygon class="cls-4" points="348.15 304.7 341.96 322.83 336.15 320.85 342.34 302.73 348.15 304.7"/><polygon class="cls-4" points="359.73 307.79 355.15 326.39 349.19 324.93 353.76 306.33 359.73 307.79"/><rect class="cls-4" x="357.46" y="315.8" width="19.15" height="6.14" transform="translate(-4.31 632.71) rotate(-81.19)"/><rect class="cls-4" x="370.2" y="317.2" width="19.15" height="6.14" transform="matrix(0.07, -1, 1, 0.07, 35.05, 677.99)"/><rect class="cls-4" x="389.52" y="310.98" width="6.14" height="19.15" transform="translate(-6.7 8.39) rotate(-1.21)"/><rect class="cls-4" x="402.32" y="310.15" width="6.14" height="19.15" transform="translate(-32.3 45.87) rotate(-6.23)"/><rect class="cls-4" x="370.53" y="18.81" width="6.14" height="19.14" transform="translate(-0.87 40.69) rotate(-6.23)"/><polygon class="cls-4" points="419.21 307.81 422.94 326.59 416.92 327.78 413.18 309 419.21 307.81"/><polygon class="cls-4" points="362.07 20.34 365.81 39.12 359.78 40.31 356.05 21.53 362.07 20.34"/><polygon class="cls-4" points="430.79 304.72 436.15 323.1 430.25 324.81 424.89 306.43 430.79 304.72"/><polygon class="cls-4" points="348.74 23.31 354.1 41.69 348.2 43.4 342.85 25.01 348.74 23.31"/><polygon class="cls-4" points="442.05 300.63 449 318.48 443.27 320.7 436.33 302.85 442.05 300.63"/><polygon class="cls-4" points="335.72 27.42 342.66 45.27 336.94 47.48 329.99 29.64 335.72 27.42"/><polygon class="cls-4" points="452.92 295.58 461.4 312.76 455.89 315.46 447.41 298.29 452.92 295.58"/><polygon class="cls-4" points="323.1 32.65 331.58 49.83 326.07 52.53 317.59 35.35 323.1 32.65"/><polygon class="cls-4" points="463.3 289.61 473.25 305.99 468 309.16 458.05 292.78 463.3 289.61"/><polygon class="cls-4" points="310.99 38.96 320.94 55.33 315.69 58.5 305.74 42.13 310.99 38.96"/><polygon class="cls-4" points="473.12 282.76 484.46 298.21 479.51 301.82 468.17 286.37 473.12 282.76"/><polygon class="cls-4" points="299.48 46.29 310.82 61.74 305.87 65.36 294.53 49.91 299.48 46.29"/><polygon class="cls-4" points="288.65 54.6 301.31 69 296.69 73.04 284.04 58.63 288.65 54.6"/><polygon class="cls-4" points="278.6 63.82 292.46 77.07 288.21 81.49 274.35 68.24 278.6 63.82"/><polygon class="cls-4" points="265.04 116 262.56 121.61 244.99 113.88 247.47 108.28 265.04 116"/><polygon class="cls-4" points="538.71 221.44 536.74 227.24 518.56 221.07 520.53 215.28 538.71 221.44"/><polygon class="cls-4" points="260.44 127.04 258.46 132.84 240.28 126.67 242.26 120.87 260.44 127.04"/><polygon class="cls-4" points="542.29 208.3 540.83 214.24 522.18 209.68 523.64 203.74 542.29 208.3"/><rect class="cls-4" x="531.68" y="186.85" width="6.12" height="19.2" transform="translate(258.57 694.72) rotate(-81.17)"/><rect class="cls-4" x="533.09" y="174.15" width="6.12" height="19.2" transform="translate(317.29 706.55) rotate(-86.2)"/><rect class="cls-4" x="526.83" y="167.91" width="19.2" height="6.12" transform="translate(-3.52 11.46) rotate(-1.22)"/><rect class="cls-4" x="526.01" y="155.15" width="19.2" height="6.12" transform="translate(-14.02 59.12) rotate(-6.24)"/><polygon class="cls-4" points="542.49 140.71 543.68 146.72 524.84 150.44 523.65 144.44 542.49 140.71"/><polygon class="cls-4" points="538.99 127.54 540.71 133.42 522.26 138.77 520.55 132.89 538.99 127.54"/><polygon class="cls-4" points="534.36 114.73 536.58 120.44 518.67 127.37 516.45 121.66 534.36 114.73"/><polygon class="cls-4" points="528.62 102.37 531.33 107.86 514.1 116.32 511.39 110.83 528.62 102.37"/><path class="cls-8" d="M185.35,170.32l-4.16-13.26,9.17-4.51,8,11.39a46.88,46.88,0,0,1,9.75-1.92l3-13.58,10.21.68L222.59,163a46.09,46.09,0,0,1,9.42,3.19l9.43-10.23L250,161.6l-5.89,12.6a46.58,46.58,0,0,1,6.55,7.46l13.3-4.15,4.52,9.15-11.42,8a47.32,47.32,0,0,1,1.93,9.71l13.61,3-.67,10.18L258,218.79a46.39,46.39,0,0,1-3.2,9.38l10.26,9.41-5.69,8.48-12.64-5.87a46.58,46.58,0,0,1-7.48,6.53L243.4,260l-9.17,4.51-8-11.39a46.88,46.88,0,0,1-9.75,1.92l-3,13.58-10.21-.68L202,254.07a46.7,46.7,0,0,1-9.42-3.19l-9.43,10.23-8.5-5.67,5.88-12.6a46.58,46.58,0,0,1-6.55-7.46l-13.3,4.16-4.52-9.15,11.42-8a47.32,47.32,0,0,1-1.93-9.71l-13.61-3,.67-10.18,13.89-1.21a46.89,46.89,0,0,1,3.2-9.39l-10.26-9.41,5.69-8.48,12.64,5.87A46.58,46.58,0,0,1,185.35,170.32Zm-3.34,18a36.41,36.41,0,1,0,50.55-10A36.26,36.26,0,0,0,182,188.31Z"/><path class="cls-9" d="M511.8,261.87l-2.71-8.64,6-2.94,5.22,7.42a30.64,30.64,0,0,1,6.35-1.25l2-8.85,6.65.44.79,9a30.87,30.87,0,0,1,6.14,2.08l6.14-6.66,5.54,3.7-3.83,8.2a31,31,0,0,1,4.26,4.86l8.67-2.7,2.95,6-7.45,5.2a31,31,0,0,1,1.26,6.33l8.87,2-.44,6.63-9,.79a29.81,29.81,0,0,1-2.09,6.11l6.69,6.13L560,311.21l-8.23-3.83a30.67,30.67,0,0,1-4.88,4.26l2.72,8.64-6,2.93-5.22-7.42a31.06,31.06,0,0,1-6.35,1.26l-2,8.84-6.65-.44-.79-9a30.65,30.65,0,0,1-6.14-2.08L510.36,321l-5.53-3.69,3.83-8.21a30.11,30.11,0,0,1-4.27-4.86L495.73,307l-3-6,7.44-5.2a30.58,30.58,0,0,1-1.25-6.33l-8.87-2,.44-6.63,9-.8a30.19,30.19,0,0,1,2.08-6.11L495,267.82l3.7-5.52,8.24,3.82A29.63,29.63,0,0,1,511.8,261.87Zm-2.17,11.72a23.71,23.71,0,1,0,32.92-6.51A23.61,23.61,0,0,0,509.63,273.59Z"/><path class="cls-10" d="M517.36,278.75a14.41,14.41,0,1,1,4,19.95A14.46,14.46,0,0,1,517.36,278.75Z"/><polygon class="cls-5" points="291.5 457.24 274.12 474.57 292.21 492.61 283.93 492.61 265.84 474.57 283.22 457.24 291.5 457.24"/><polygon class="cls-5" points="307.3 457.24 289.91 474.57 308.01 492.61 299.73 492.61 281.63 474.57 299.02 457.24 307.3 457.24"/><polygon class="cls-5" points="323.09 457.24 305.71 474.57 323.8 492.61 315.52 492.61 297.43 474.57 314.81 457.24 323.09 457.24"/><polygon class="cls-5" points="338.89 457.24 321.5 474.57 339.6 492.61 331.32 492.61 313.22 474.57 330.61 457.24 338.89 457.24"/><polygon class="cls-5" points="354.68 457.24 337.3 474.57 355.39 492.61 347.11 492.61 329.02 474.57 346.4 457.24 354.68 457.24"/><polygon class="cls-5" points="198.42 129.43 211.23 116.66 197.9 103.36 204 103.36 217.34 116.66 204.52 129.43 198.42 129.43"/><polygon class="cls-5" points="186.78 129.43 199.59 116.66 186.25 103.36 192.36 103.36 205.69 116.66 192.88 129.43 186.78 129.43"/><polygon class="cls-5" points="472.94 379.48 485.75 366.7 472.42 353.4 478.52 353.4 491.86 366.7 479.04 379.48 472.94 379.48"/><polygon class="cls-5" points="461.3 379.48 474.11 366.7 460.77 353.4 466.88 353.4 480.21 366.7 467.4 379.48 461.3 379.48"/><rect class="cls-5" x="379.57" y="365.94" width="96.74" height="1"/><rect class="cls-5" x="280.63" y="434.22" width="2.01" height="3.5"/><path class="cls-5" d="M282.64,311.48h-2v6.82h2Zm0,13.63h-2v6.82h2Zm0,13.64h-2v6.82h2Zm0,13.64h-2v6.82h2Zm0,13.64h-2v6.82h2Zm0,13.64h-2v6.82h2Zm0,13.64h-2v6.81h2Zm0,13.63h-2v6.82h2Zm0,13.64h-2v6.82h2Z"/><polygon class="cls-5" points="273.24 433.14 281.63 451.02 290.03 433.14 281.56 437.71 273.24 433.14"/><rect class="cls-5" x="298.86" y="407.13" width="2.01" height="3.5"/><path class="cls-5" d="M300.86,325.3h-2v6.82h2Zm0,13.64h-2v6.82h2Zm0,13.64h-2v6.81h2Zm0,13.63h-2V373h2Zm0,13.64h-2v6.82h2Zm0,13.64h-2v6.82h2Z"/><polygon class="cls-5" points="291.46 406.05 299.86 423.93 308.26 406.05 299.79 410.61 291.46 406.05"/><rect class="cls-5" x="13.35" y="487.27" width="3.51" height="2"/><path class="cls-5" d="M92.09,487.27v2h6.84v-2Zm-13.68,0v2h6.84v-2Zm-13.68,0v2h6.84v-2Zm-13.67,0v2h6.83v-2Zm-13.68,0v2h6.84v-2Zm-13.68,0v2h6.84v-2Z"/><polygon class="cls-5" points="17.94 496.64 0 488.27 17.94 479.9 13.36 488.35 17.94 496.64"/><rect class="cls-5" x="40.52" y="469.1" width="3.51" height="2"/><path class="cls-5" d="M91.91,469.1v2h6.84v-2Zm-13.68,0v2h6.84v-2Zm-13.68,0v2h6.84v-2Zm-13.68,0v2h6.84v-2Z"/><polygon class="cls-5" points="45.12 478.47 27.17 470.1 45.12 461.73 40.53 470.17 45.12 478.47"/></g></g></svg>