<svg xmlns="http://www.w3.org/2000/svg" xmlns:xlink="http://www.w3.org/1999/xlink" viewBox="0 0 800 500"
  height="500" width="800">
  <defs>
    <style>
      .cls-1,
      .cls-5 {
        fill: none;
      }

      .cls-2 {
        clip-path: url(#clip-path);
      }

      .cls-3 {
        fill: #89dff8;
      }

      .cls-19,
      .cls-20,
      .cls-24,
      .cls-26,
      .cls-4 {
        opacity: 0.7;
      }

      .cls-5 {
        stroke: #9bb9d3;
        stroke-miterlimit: 10;
        stroke-width: 1.07px;
      }

      .cls-19,
      .cls-6 {
        fill: #f93;
      }

      .cls-20,
      .cls-7 {
        fill: #7f9eb5;
      }

      .cls-8 {
        fill: #9bb9d3;
      }

      .cls-9 {
        fill: url(#radial-gradient);
      }

      .cls-10 {
        fill: url(#linear-gradient);
      }

      .cls-11 {
        fill: url(#linear-gradient-2);
      }

      .cls-12 {
        fill: url(#radial-gradient-2);
      }

      .cls-13 {
        fill: url(#linear-gradient-3);
      }

      .cls-14,
      .cls-26 {
        fill: #a3bacc;
      }

      .cls-15 {
        fill: url(#linear-gradient-4);
      }

      .cls-16 {
        fill: url(#linear-gradient-5);
      }

      .cls-17 {
        fill: #ffbc45;
      }

      .cls-18 {
        fill: #b7cde2;
      }

      .cls-19,
      .cls-20,
      .cls-24,
      .cls-26 {
        isolation: isolate;
      }

      .cls-21 {
        fill: #d5e3ef;
      }

      .cls-22 {
        fill: url(#radial-gradient-3);
      }

      .cls-23 {
        fill: url(#linear-gradient-6);
      }

      .cls-24 {
        fill: url(#radial-gradient-4);
      }

      .cls-25 {
        fill: url(#linear-gradient-7);
      }

      .cls-27 {
        fill: url(#linear-gradient-8);
      }

      .cls-28 {
        opacity: 0.5;
      }
    </style>
    <radialGradient id="radial-gradient" cx="133.31" cy="-7.8" r="171.23"
      gradientTransform="translate(211.3 199.14) rotate(90)" gradientUnits="userSpaceOnUse">
      <stop offset="0" stop-color="#4d7ea3" />
      <stop offset="0.13" stop-color="#5b88aa" stop-opacity="0.92" />
      <stop offset="0.36" stop-color="#80a3bd" stop-opacity="0.71" />
      <stop offset="0.68" stop-color="#bccedc" stop-opacity="0.38" />
      <stop offset="1" stop-color="#fff" stop-opacity="0" />
    </radialGradient>
    <linearGradient id="linear-gradient" x1="-696.09" y1="25.46" x2="-472.82" y2="25.46"
      gradientTransform="matrix(0, -1, -1, 0, 211.3, -276.05)" gradientUnits="userSpaceOnUse">
      <stop offset="0" stop-color="#e2e7e7" />
      <stop offset="0.44" stop-color="#f0f3f3" />
      <stop offset="1" stop-color="#fff" />
    </linearGradient>
    <linearGradient id="linear-gradient-2" x1="-686.94" y1="25.46" x2="-481.97" y2="25.46"
      gradientTransform="matrix(0, -1, -1, 0, 211.3, -276.05)" gradientUnits="userSpaceOnUse">
      <stop offset="0" stop-color="#fff" />
      <stop offset="0.56" stop-color="#f0f3f3" />
      <stop offset="1" stop-color="#e2e7e7" />
    </linearGradient>
    <radialGradient id="radial-gradient-2" cx="113.83" cy="28.06" r="106.67"
      gradientTransform="translate(211.3 199.14) rotate(90)" gradientUnits="userSpaceOnUse">
      <stop offset="0" stop-color="#8498a6" />
      <stop offset="0.16" stop-color="#879aa8" stop-opacity="0.98" />
      <stop offset="0.32" stop-color="#8fa2ae" stop-opacity="0.91" />
      <stop offset="0.47" stop-color="#9eaeb9" stop-opacity="0.79" />
      <stop offset="0.62" stop-color="#b2bfc7" stop-opacity="0.63" />
      <stop offset="0.77" stop-color="#ccd4da" stop-opacity="0.41" />
      <stop offset="0.92" stop-color="#ebeff1" stop-opacity="0.16" />
      <stop offset="1" stop-color="#fff" stop-opacity="0" />
    </radialGradient>
    <linearGradient id="linear-gradient-3" x1="-608.1" y1="24.78" x2="-561.27" y2="24.78"
      xlink:href="#linear-gradient" />
    <linearGradient id="linear-gradient-4" x1="-628.86" y1="24.78" x2="-540.55" y2="24.78"
      xlink:href="#linear-gradient-2" />
    <linearGradient id="linear-gradient-5" x1="-675.06" y1="24.78" x2="-494.37" y2="24.78"
      gradientTransform="matrix(0, -1, -1, 0, 211.3, -276.05)" gradientUnits="userSpaceOnUse">
      <stop offset="0" stop-color="#fff" />
      <stop offset="0.84" stop-color="#f0f5f5" />
      <stop offset="1" stop-color="#edf2f2" />
    </linearGradient>
    <radialGradient id="radial-gradient-3" cx="-289.22" cy="-81.63" r="67.78"
      gradientTransform="translate(68.01 334.93) rotate(108.07)" gradientUnits="userSpaceOnUse">
      <stop offset="0" stop-color="#4d7ea3" />
      <stop offset="0.34" stop-color="#96b3c9" stop-opacity="0.59" />
      <stop offset="0.65" stop-color="#cfdce6" stop-opacity="0.27" />
      <stop offset="0.87" stop-color="#f2f5f8" stop-opacity="0.07" />
      <stop offset="1" stop-color="#fff" stop-opacity="0" />
    </radialGradient>
    <linearGradient id="linear-gradient-6" x1="-212.43" y1="-70.7" x2="-153.6" y2="-70.7"
      gradientTransform="matrix(0.31, -0.95, -0.95, -0.31, 215.21, -114.94)" xlink:href="#linear-gradient" />
    <radialGradient id="radial-gradient-4" cx="202.15" cy="116.73" r="57.46"
      gradientTransform="matrix(1, 0, 0, -1, 49.24, 535.83)" xlink:href="#radial-gradient" />
    <linearGradient id="linear-gradient-7" x1="-476.86" y1="-90.22" x2="-430.03" y2="-90.22"
      xlink:href="#linear-gradient" />
    <linearGradient id="linear-gradient-8" x1="-497.6" y1="-90.22" x2="-409.34" y2="-90.22"
      gradientTransform="matrix(0, -1, -1, 0, 211.3, -276.05)" gradientUnits="userSpaceOnUse">
      <stop offset="0" stop-color="#fff" />
      <stop offset="0.77" stop-color="#f0f4f4" />
      <stop offset="1" stop-color="#ebf0f0" />
    </linearGradient>
  </defs>
  <g id="OBJECTS" style="&#10;    transform: translateX(-45px);&#10;">
    <g class="cls-2">
      <g class="cls-4">
        <line class="cls-5" x1="145.73" y1="358.85" x2="0.38" y2="507.24" />
        <line class="cls-5" x1="182.46" y1="377.91" x2="59.2" y2="541.04" />
        <line class="cls-5" x1="217.89" y1="394.92" x2="116.49" y2="569.31" />
        <path id="dot" class="cls-6" d="M63.57,474.27a6.28,6.28,0,1,1-6.28,6.28h0A6.28,6.28,0,0,1,63.57,474.27Z"
          transform="translate(45.56 -6.53)" />
        <path id="dot-2" data-name="dot" class="cls-7"
          d="M18.56,442.44a6.28,6.28,0,1,1-6.28,6.28h0A6.28,6.28,0,0,1,18.56,442.44Z"
          transform="translate(45.56 -6.53)" />
        <path id="dot-3" data-name="dot" class="cls-7"
          d="M124.74,476.08a6.28,6.28,0,1,1-6.28,6.28h0A6.28,6.28,0,0,1,124.74,476.08Z"
          transform="translate(45.56 -6.53)" />
      </g>
      <g class="cls-4">
        <path class="cls-8" d="M102.8,172.46-2,24.19l-1.56,1.07,104.66,148C101.63,173,102.22,172.73,102.8,172.46Z"
          transform="translate(45.56 -6.53)" />
        <path class="cls-8" d="M94.4,176.82-2,40.42l-1.56,1.07L92.76,177.81Z" transform="translate(45.56 -6.53)" />
        <path class="cls-8" d="M86.52,181.89-2,56.66l-1.56,1.07L85,183Z" transform="translate(45.56 -6.53)" />
        <path class="cls-8" d="M79.08,187.62-2,72.87l-1.56,1.07L77.62,188.81C78.1,188.44,78.59,188,79.08,187.62Z"
          transform="translate(45.56 -6.53)" />
        <path class="cls-8" d="M72.06,194-2,89.13-3.61,90.2l74.3,105Z" transform="translate(45.56 -6.53)" />
        <path class="cls-8" d="M65.44,200.79-2.08,105.36l-1.56,1.07,67.74,95.8Z" transform="translate(45.56 -6.53)" />
        <path class="cls-8" d="M59.18,208.18-2,121.59l-1.56,1.07L58,209.74C58.36,209.24,58.76,208.71,59.18,208.18Z"
          transform="translate(45.56 -6.53)" />
        <path class="cls-8" d="M53.29,216.09-2,137.86l-1.56,1.07,55.73,78.84Z" transform="translate(45.56 -6.53)" />
      </g>
      <g class="cls-4">
        <path class="cls-8"
          d="M381.68,123.84A100.07,100.07,0,0,0,254.34,89.71v.76a99.38,99.38,0,1,1-5.71,174.93v.79A100,100,0,0,0,381.68,123.84Z"
          transform="translate(45.56 -6.53)" />
        <path class="cls-8"
          d="M443.78,153v-.26L423.89,151a127.54,127.54,0,0,0-8.58-25.36L430,112.13l-.13-.24a148.05,148.05,0,0,0-18.75-28l-.17-.19-18.13,8.42a127.68,127.68,0,0,0-20.16-17.63l6-19-.22-.14a146.57,146.57,0,0,0-30.19-14.88l-.25-.09L336.5,56.73a129.6,129.6,0,0,0-26.24-5.2L306,32.31l-.06-.26h-.26c-2.43-.11-4.82-.17-7.09-.17A149.23,149.23,0,0,0,272,34.29l-.25.06-1.73,19.82a133.9,133.9,0,0,0-15.7,4.63v.74a128.36,128.36,0,0,1,16.08-4.75l.24,0,1.75-19.87a148.37,148.37,0,0,1,26.1-2.31c2.15,0,4.47,0,6.81.16l4.37,19.45H310a129,129,0,0,1,26.54,5.29l.24.08L348.2,41.18a147,147,0,0,1,29.62,14.55l-5.89,18.78-.07.24.2.15a127.7,127.7,0,0,1,20.43,17.86l.17.19,18-8.41a147.58,147.58,0,0,1,18.37,27.4l-14.67,13.5.11.22a127,127,0,0,1,8.73,25.72l.06.25,19.85,1.75a147.35,147.35,0,0,1,2.32,26.1c0,2.15,0,4.48-.15,6.81l-19.46,4.35v.26a129.4,129.4,0,0,1-5.26,26.58l-.08.25,16.34,11.46a146.14,146.14,0,0,1-14.57,29.57l-19-5.94-.14.2a128.19,128.19,0,0,1-17.88,20.42l-.18.17,8.4,18A146.69,146.69,0,0,1,366.07,310l-13.49-14.66-.23.11a128.26,128.26,0,0,1-25.72,8.73h-.24l-1.75,19.86a149.36,149.36,0,0,1-26.11,2.32c-2.19,0-4.48,0-6.79-.17l-4.36-19.45h-.25a128.28,128.28,0,0,1-26.6-5.27l-.23-.07-11.47,16.35-.2-.09v.74l.22.08.25.1,11.48-16.38a129.62,129.62,0,0,0,26.24,5.21l4.36,19.47h.31c2.43.12,4.82.17,7.1.17A148.45,148.45,0,0,0,325,324.71h.25L327,304.84a128.5,128.5,0,0,0,25.37-8.58l13.5,14.68.23-.11a147.71,147.71,0,0,0,27.95-18.76l.21-.17-8.41-18a128.05,128.05,0,0,0,17.63-20.15l19,5.95.15-.21a147.55,147.55,0,0,0,14.87-30.19l.09-.25-16.37-11.47a128.38,128.38,0,0,0,5.23-26.32L446,186.85v-.26c.1-2.43.17-4.82.17-7.11A149.9,149.9,0,0,0,443.78,153Z"
          transform="translate(45.56 -6.53)" />
      </g>
      <g class="cls-4">
        <path class="cls-9" d="M219.1,503.68A171.23,171.23,0,1,0,47.87,332.43,171.23,171.23,0,0,0,219.1,503.68Z"
          transform="translate(45.56 -6.53)" />
        <path class="cls-10" d="M185.84,196.77A111.64,111.64,0,1,1,74.2,308.4,111.63,111.63,0,0,1,185.84,196.77Z"
          transform="translate(45.56 -6.53)" />
        <path class="cls-11" d="M185.84,205.92A102.49,102.49,0,1,1,83.35,308.4,102.48,102.48,0,0,1,185.84,205.92Z"
          transform="translate(45.56 -6.53)" />
        <path class="cls-12" d="M183.25,419.64a106.66,106.66,0,1,0-.05,0Z" transform="translate(45.56 -6.53)" />
        <path class="cls-13" d="M186.47,285.22a23.42,23.42,0,1,1-23.36,23.47v-.05A23.41,23.41,0,0,1,186.47,285.22Z"
          transform="translate(45.56 -6.53)" />
        <path class="cls-14" d="M186.47,300.15a8.49,8.49,0,1,1-8.48,8.5v0a8.48,8.48,0,0,1,8.48-8.48Z"
          transform="translate(45.56 -6.53)" />
        <path id="gear" class="cls-15"
          d="M214.58,328.37l9.74,3.05,3.31-6.73-8.37-5.86a34,34,0,0,0,1.42-7.14l10-2.22-.5-7.51L220,301.07a33.81,33.81,0,0,0-2.34-6.9l7.51-6.91L221,281l-9.26,4.29a34.73,34.73,0,0,0-5.48-4.79l3-9.75-6.75-3.26-5.86,8.37a33.35,33.35,0,0,0-7.13-1.41l-2.23-10-7.51.49-.88,10.18a33.69,33.69,0,0,0-6.91,2.34l-6.91-7.5-6.22,4.17,4.28,9.25a35.18,35.18,0,0,0-4.79,5.48l-9.74-3.05-3.24,6.7,8.36,5.88a33.93,33.93,0,0,0-1.4,7.14l-10,2.22.49,7.51,10.19.89a33.78,33.78,0,0,0,2.33,6.9l-7.5,6.91,4.17,6.23,9.26-4.29a34.66,34.66,0,0,0,5.47,4.79l-3,9.74,6.73,3.31,5.86-8.37a34.09,34.09,0,0,0,7.14,1.42l2.23,10,7.5-.49.89-10.18A33.72,33.72,0,0,0,201,339.8l6.91,7.51,6.24-4.17-4.29-9.26A34.13,34.13,0,0,0,214.58,328.37Zm-16.21-2A21.29,21.29,0,0,1,174.67,291c11.79-7.88,23.9-2.6,29.55,5.85a21.3,21.3,0,0,1-5.85,29.51Z"
          transform="translate(45.56 -6.53)" />
        <path id="gear-2" data-name="gear" class="cls-16"
          d="M244,349l19.95,6.25,6.77-13.76-17.15-12a70.68,70.68,0,0,0,2.9-14.61l20.36-4.57-1-15.3-20.7-1.83a70.81,70.81,0,0,0-4.8-14.12l15.38-14.14-8.57-12.74L238.12,261a69,69,0,0,0-11.22-9.82l6.25-19.95-13.76-6.77-12,17.15a69.88,69.88,0,0,0-14.61-2.89l-4.56-20.42-15.31,1.07-1.83,20.82A70.33,70.33,0,0,0,157,245l-14.15-15.39-12.74,8.57,8.82,18.95a69.91,69.91,0,0,0-9.82,11.22l-19.94-6.25-6.77,13.76,17.14,12a71.33,71.33,0,0,0-2.89,14.61l-20.36,4.56,1.07,15.31,20.82,1.83A69.47,69.47,0,0,0,123,338.3l-15.39,14.15,8.58,12.74,18.94-8.82a69.78,69.78,0,0,0,11.21,9.82l-6.23,19.94,13.75,6.78,12-17.15a69.88,69.88,0,0,0,14.61,2.89L185,399l15.3-1,1.84-20.83a69.68,69.68,0,0,0,14.11-4.8l14.15,15.38,12.74-8.52-8.82-18.95A69.1,69.1,0,0,0,244,349Zm-27.06,5a54.65,54.65,0,1,1,15-75.84l0,.06A54.66,54.66,0,0,1,216.89,354Z"
          transform="translate(45.56 -6.53)" />
        <path class="cls-8"
          d="M304.77,308.4A119,119,0,1,1,185.82,189.45h0A119.06,119.06,0,0,1,304.77,308.4Zm-237.18,0A118.25,118.25,0,1,0,185.84,190.16h0A118.38,118.38,0,0,0,67.59,308.4Z"
          transform="translate(45.56 -6.53)" />
        <path class="cls-8"
          d="M89.91,212.37a134.6,134.6,0,0,0-29.79,45l.61.25a134.23,134.23,0,0,1,124.38-84.08h1.42V173h-1.42A133.75,133.75,0,0,0,89.91,212.37Z"
          transform="translate(45.56 -6.53)" />
        <path class="cls-8"
          d="M319.14,307.57a133.66,133.66,0,0,1-42.34,97.67l.45.47c1.07-1,2.05-1.95,3.06-2.95a134.78,134.78,0,0,0,21.2-162.89l-.58.34A133.23,133.23,0,0,1,319.14,307.57Z"
          transform="translate(45.56 -6.53)" />
        <path class="cls-8"
          d="M185.11,441.6a134.28,134.28,0,0,1-126.9-90.82l-.6.2a134.86,134.86,0,0,0,171.25,83.95q4.8-1.64,9.47-3.64l-.26-.6A133.24,133.24,0,0,1,185.11,441.6Z"
          transform="translate(45.56 -6.53)" />
        <path class="cls-8"
          d="M258.87,429.9l1,1.59A145.9,145.9,0,0,0,321,357.27l-1.73-.63A143.57,143.57,0,0,1,258.87,429.9Z"
          transform="translate(45.56 -6.53)" />
        <path class="cls-8"
          d="M40.44,307.57A143.72,143.72,0,0,0,82.82,409.85a146.24,146.24,0,0,0,12.4,11.07l1.14-1.45a142.8,142.8,0,0,1-45.6-160.58L49,258.27A144.61,144.61,0,0,0,40.44,307.57Z"
          transform="translate(45.56 -6.53)" />
        <path class="cls-8" d="M237.41,174.6a143,143,0,0,1,36.35,21l1.14-1.45a143.66,143.66,0,0,0-36.84-21.26Z"
          transform="translate(45.56 -6.53)" />
        <path class="cls-8"
          d="M185.11,162.89a144.08,144.08,0,0,0-58.88,12.45L127,177a142.19,142.19,0,0,1,58.13-12.37,143.77,143.77,0,0,1,19.11,1.28l.23-1.77A147.12,147.12,0,0,0,185.11,162.89Z"
          transform="translate(45.56 -6.53)" />
        <path id="dot-4" data-name="dot" class="cls-17"
          d="M301.51,236.22a3.63,3.63,0,1,1-3.59,3.67v0A3.62,3.62,0,0,1,301.51,236.22Z"
          transform="translate(45.56 -6.53)" />
        <path id="dot-5" data-name="dot" class="cls-3"
          d="M57.6,347.16A3.63,3.63,0,1,1,54,350.8v0a3.62,3.62,0,0,1,3.62-3.62Z" transform="translate(45.56 -6.53)" />
        <path id="dot-6" data-name="dot" class="cls-8" d="M51,252.5a3.62,3.62,0,1,1-3.62,3.63A3.62,3.62,0,0,1,51,252.5Z"
          transform="translate(45.56 -6.53)" />
        <path id="dot-7" data-name="dot" class="cls-6"
          d="M274.9,187.86a6.29,6.29,0,1,1-6.28,6.3h0A6.29,6.29,0,0,1,274.9,187.86Z"
          transform="translate(45.56 -6.53)" />
        <path class="cls-18"
          d="M31.32,339.1l-11.07,2a168,168,0,0,0,6.06,22.59L36.9,359.8A159.27,159.27,0,0,1,31.32,339.1Z"
          transform="translate(45.56 -6.53)" />
        <path class="cls-18" d="M28.4,311.7H17.15a171.44,171.44,0,0,0,2,23.3l11.05-1.94A159,159,0,0,1,28.4,311.7Z"
          transform="translate(45.56 -6.53)" />
        <path class="cls-18"
          d="M156.08,154.07l-2-11.07a168.65,168.65,0,0,0-137,162.56H28.4C29.85,230.29,84.4,167.8,156.08,154.07Z"
          transform="translate(45.56 -6.53)" />
        <path class="cls-18" d="M296.85,181.84l-7.24,8.64a160.35,160.35,0,0,1,14.95,15l8.65-7.25"
          transform="translate(45.56 -6.53)" />
        <path class="cls-18"
          d="M343.09,305.56h11.2a169.76,169.76,0,0,0-2-23.06l-11.05,1.95A157.15,157.15,0,0,1,343.09,305.56Z"
          transform="translate(45.56 -6.53)" />
        <path class="cls-18"
          d="M39,365.56,28.4,369.42a168.09,168.09,0,0,0,9.94,21.18l9.8-5.66A155.57,155.57,0,0,1,39,365.56Z"
          transform="translate(45.56 -6.53)" />
        <path class="cls-18"
          d="M189.51,466v11.21A169.56,169.56,0,0,0,212.67,475l-1.95-11A158.64,158.64,0,0,1,189.51,466Z"
          transform="translate(45.56 -6.53)" />
        <path class="cls-18"
          d="M332.65,252.15l10.6-3.86a166.68,166.68,0,0,0-9.77-21l-9.84,5.65A157.7,157.7,0,0,1,332.65,252.15Z"
          transform="translate(45.56 -6.53)" />
        <path class="cls-18" d="M246.92,151.45l-3.87,10.61a154.77,154.77,0,0,1,19.22,9.1l5.66-9.8"
          transform="translate(45.56 -6.53)" />
        <path class="cls-18"
          d="M67.51,412.42l-8.57,7.24q3.69,4.2,7.64,8.18,4.29,4.29,8.92,8.31l7.25-8.65A160.68,160.68,0,0,1,67.51,412.42Z"
          transform="translate(45.56 -6.53)" />
        <path class="cls-18"
          d="M87.42,431.42l-7.26,8.66a167.52,167.52,0,0,0,19.13,13.36l5.66-9.77A157.62,157.62,0,0,1,87.42,431.42Z"
          transform="translate(45.56 -6.53)" />
        <rect class="cls-18" x="264.67" y="456.7" width="26.79" height="11.87" />
        <rect class="cls-18" x="299.53" y="456.7" width="26.79" height="11.87" />
        <rect class="cls-18" x="334.4" y="456.7" width="26.79" height="11.87" />
        <rect class="cls-18" x="369.26" y="456.7" width="26.79" height="11.87" />
        <rect class="cls-18" x="404.13" y="456.7" width="26.79" height="11.87" />
        <rect class="cls-18" x="438.99" y="456.7" width="26.8" height="11.87" />
        <rect class="cls-18" x="473.86" y="456.7" width="26.8" height="11.87" />
        <rect class="cls-18" x="508.73" y="456.7" width="26.8" height="11.87" />
        <rect class="cls-18" x="543.59" y="456.7" width="26.8" height="11.87" />
        <rect class="cls-18" x="578.46" y="456.7" width="26.8" height="11.87" />
        <rect class="cls-18" x="613.32" y="456.7" width="26.8" height="11.87" />
        <rect class="cls-18" x="648.18" y="456.7" width="26.8" height="11.87" />
        <rect class="cls-18" x="683.06" y="456.7" width="26.8" height="11.87" />
        <rect class="cls-18" x="717.92" y="456.7" width="26.79" height="11.87" />
        <rect class="cls-18" x="752.79" y="456.7" width="26.79" height="11.87" />
        <rect class="cls-18" x="787.65" y="456.7" width="26.79" height="11.87" />
        <rect class="cls-18" x="822.52" y="456.7" width="26.79" height="11.87" />
        <path class="cls-18"
          d="M110.27,446.7l-5.65,9.83a166.38,166.38,0,0,0,21.17,9.8l3.87-10.61A155.76,155.76,0,0,1,110.27,446.7Z"
          transform="translate(45.56 -6.53)" />
        <path class="cls-18"
          d="M162.12,464.25l-2,11.06a171.69,171.69,0,0,0,23.2,1.88V466A157.61,157.61,0,0,1,162.12,464.25Z"
          transform="translate(45.56 -6.53)" />
        <path class="cls-18" d="M189.51,151.3a158.79,158.79,0,0,1,21.22,1.94l1.94-11.05a168,168,0,0,0-23.16-2.14Z"
          transform="translate(45.56 -6.53)" />
        <path class="cls-18"
          d="M51.21,390.25l-9.78,5.65A170.31,170.31,0,0,0,54.92,415l8.65-7.26A161.22,161.22,0,0,1,51.21,390.25Z"
          transform="translate(45.56 -6.53)" />
        <path class="cls-18"
          d="M135.92,458.81l-3.86,10.59a168.23,168.23,0,0,0,22.51,5.91l2-11.06A155.75,155.75,0,0,1,135.92,458.81Z"
          transform="translate(45.56 -6.53)" />
      </g>
      <path id="dot-8" data-name="dot" class="cls-19"
        d="M258.27,425.21a6.28,6.28,0,1,1-6.28,6.28h0A6.28,6.28,0,0,1,258.27,425.21Z"
        transform="translate(45.56 -6.53)" />
      <path id="dot-9" data-name="dot" class="cls-20"
        d="M240.05,422.71a6.28,6.28,0,1,1-6.28,6.28h0A6.28,6.28,0,0,1,240.05,422.71Z"
        transform="translate(45.56 -6.53)" />
      <g id="gear-3" data-name="gear" class="cls-4">
        <path class="cls-21"
          d="M258.54,130.53a59.35,59.35,0,1,1,16.29-82.34l0,0A59.43,59.43,0,0,1,258.54,130.53Zm-.21-.32A58.94,58.94,0,1,0,176.52,114,58.95,58.95,0,0,0,258.33,130.21Z"
          transform="translate(45.56 -6.53)" />
        <path class="cls-21"
          d="M168.25,119.56a68.57,68.57,0,0,0,30.25,25l-.75.5A69.66,69.66,0,0,1,175,33.22l.56.52A69.07,69.07,0,0,0,168.25,119.56Z"
          transform="translate(45.56 -6.53)" />
        <path class="cls-21"
          d="M226.26,150.88l-.51-.75a68.94,68.94,0,1,0-33.7-129.21l-.71-.46a69.66,69.66,0,1,1,34.92,130.42Z"
          transform="translate(45.56 -6.53)" />
        <path class="cls-21"
          d="M155.16,68.43l-.74-.14A72.19,72.19,0,0,1,173.1,31.4l.54.52A71.65,71.65,0,0,0,155.16,68.43Z"
          transform="translate(45.56 -6.53)" />
        <path class="cls-21"
          d="M189.58,19.29l-.72-.46a72.22,72.22,0,0,1,58.3-6.63l-.14.74A71.48,71.48,0,0,0,189.58,19.29Z"
          transform="translate(45.56 -6.53)" />
        <path class="cls-21" d="M228,153.45l-.5-.75a71.37,71.37,0,0,0,68-56.48l.74.15A72.17,72.17,0,0,1,228,153.45Z"
          transform="translate(45.56 -6.53)" />
        <path class="cls-21"
          d="M192.37,148.68A75.11,75.11,0,0,1,158,48.18c.27-.54.54-1.08.82-1.62l.67.35a74.39,74.39,0,0,0,31.68,100.31c.65.34,1.31.66,2,1Z"
          transform="translate(45.56 -6.53)" />
        <path class="cls-21"
          d="M287.41,39.79A74.27,74.27,0,0,0,234.07,7.28l.08-.75a75.14,75.14,0,0,1,58.64,108.23l-.66-.33A74.51,74.51,0,0,0,287.41,39.79Z"
          transform="translate(45.56 -6.53)" />
        <rect class="cls-21" x="168.79" y="115.11" width="8.27" height="2.65"
          transform="translate(10.02 109.32) rotate(-33.79)" />
        <rect class="cls-21" x="165.94" y="110.36" width="8.27" height="2.65"
          transform="translate(12.8 89.19) rotate(-28.79)" />
        <rect class="cls-21" x="163.48" y="105.42" width="8.27" height="2.65"
          transform="translate(16.75 70.16) rotate(-23.79)" />
        <rect class="cls-21" x="161.47" y="100.29" width="8.27" height="2.65"
          transform="translate(21.67 52.2) rotate(-18.78)" />
        <rect class="cls-21" x="159.91" y="94.54" width="8.27" height="2.65"
          transform="translate(27.34 35.68) rotate(-13.9)" />
        <rect class="cls-21" x="158.85" y="89.55" width="8.27" height="2.65"
          transform="translate(33.59 19.45) rotate(-8.79)" />
        <rect class="cls-21" x="158.24" y="84.06" width="8.27" height="2.65"
          transform="translate(40.28 4.39) rotate(-3.79)" />
        <rect class="cls-21" x="160.94" y="75.74" width="2.65" height="8.27"
          transform="translate(124.54 233.89) rotate(-88.79)" />
        <rect class="cls-21" x="161.29" y="70.22" width="2.65" height="8.27"
          transform="translate(116.67 221.44) rotate(-83.79)" />
        <rect class="cls-21" x="287.13" y="83.9" width="2.65" height="8.27"
          transform="translate(215.29 358.75) rotate(-83.79)" />
        <rect class="cls-21" x="162.1" y="64.76" width="2.65" height="8.27"
          transform="translate(109.67 209.3) rotate(-78.8)" />
        <rect class="cls-21" x="286.28" y="89.36" width="2.65" height="8.27"
          transform="translate(185.59 350.93) rotate(-78.8)" />
        <rect class="cls-21" x="163.42" y="59.39" width="2.65" height="8.27"
          transform="translate(103.32 197.46) rotate(-73.79)" />
        <rect class="cls-21" x="285" y="94.74" width="2.65" height="8.27"
          transform="translate(157.01 339.68) rotate(-73.79)" />
        <rect class="cls-21" x="165.21" y="54.18" width="2.65" height="8.27"
          transform="translate(97.49 185.95) rotate(-68.79)" />
        <rect class="cls-21" x="283.2" y="99.95" width="2.65" height="8.27"
          transform="translate(130.12 325.16) rotate(-68.79)" />
        <rect class="cls-21" x="167.41" y="49.1" width="2.65" height="8.27"
          transform="translate(92.03 174.61) rotate(-63.8)" />
        <rect class="cls-21" x="280.99" y="105.02" width="2.65" height="8.27"
          transform="translate(105.3 307.74) rotate(-63.8)" />
        <rect class="cls-21" x="170.07" y="44.26" width="2.65" height="8.27"
          transform="translate(86.75 163.38) rotate(-58.79)" />
        <rect class="cls-21" x="279.43" y="108.79" width="2.66" height="8.31"
          transform="translate(84.4 288.24) rotate(-58.84)" />
        <rect class="cls-21" x="173.13" y="39.67" width="2.65" height="8.27"
          transform="translate(81.61 152.16) rotate(-53.79)" />
        <rect class="cls-21" x="275.29" y="114.46" width="2.65" height="8.27"
          transform="translate(63.07 265.2) rotate(-53.79)" />
        <rect class="cls-21" x="271.82" y="118.74" width="2.65" height="8.27"
          transform="translate(46.31 240.88) rotate(-48.79)" />
        <rect class="cls-21" x="268.02" y="122.76" width="2.65" height="8.27"
          transform="translate(32.66 215.15) rotate(-43.79)" />
        <rect class="cls-21" x="249.74" y="135" width="2.65" height="8.27"
          transform="translate(10.78 106.42) rotate(-23.76)" />
        <rect class="cls-21" x="203.82" y="17.13" width="2.65" height="8.27"
          transform="translate(49.66 60.75) rotate(-18.81)" />
        <rect class="cls-21" x="244.6" y="137.02" width="2.65" height="8.27"
          transform="translate(13.21 80.16) rotate(-18.78)" />
        <rect class="cls-21" x="209.12" y="15.6" width="2.65" height="8.27"
          transform="translate(46.92 44.17) rotate(-13.78)" />
        <rect class="cls-21" x="214.86" y="15.17" width="2.65" height="8.28"
          transform="translate(45.11 26.08) rotate(-8.62)" />
        <rect class="cls-21" x="220.02" y="13.9" width="2.65" height="8.27"
          transform="translate(44.86 8.11) rotate(-3.78)" />
        <rect class="cls-21" x="222.72" y="16.6" width="8.27" height="2.65"
          transform="translate(249.67 237.82) rotate(-88.78)" />
        <rect class="cls-21" x="228.22" y="16.95" width="8.27" height="2.65"
          transform="matrix(0.11, -0.99, 0.99, 0.11, 234.63, 240.76)" />
        <rect class="cls-21" x="233.71" y="17.79" width="8.27" height="2.65"
          transform="translate(218.31 242.14) rotate(-78.76)" />
        <rect class="cls-21" x="239.23" y="19.17" width="8.27" height="2.65"
          transform="translate(201.12 241.86) rotate(-73.74)" />
        <rect class="cls-21" x="244.29" y="20.86" width="8.27" height="2.65"
          transform="matrix(0.36, -0.93, 0.93, 0.36, 183.43, 239.23)" />
        <rect class="cls-21" x="249.35" y="23.09" width="8.27" height="2.65"
          transform="translate(165.19 234.53) rotate(-63.79)" />
      </g>
      <g class="cls-4">
        <rect class="cls-8" x="50.09" y="64.52" width="1.07" height="1.61"
          transform="translate(16.78 35.9) rotate(-36.14)" />
        <polygon class="cls-8" points="96.25 59.81 96.2 59.71 97.06 59.08 97.13 59.17 97.09 59.21 96.25 59.81" />
        <polygon class="cls-8" points="109.76 78.28 111.77 81.04 112.6 80.43 112.63 80.4 110.63 77.65 109.76 78.28" />
        <polygon class="cls-8" points="105.89 72.98 107.89 75.72 108.72 75.12 108.75 75.09 106.75 72.35 105.89 72.98" />
        <polygon class="cls-8"
          points="113.64 83.59 115.61 86.29 115.65 86.33 116.47 85.73 116.51 85.7 114.5 82.96 113.64 83.59" />
        <polygon class="cls-8" points="117.5 88.88 119.52 91.64 120.34 91.04 120.38 91 118.37 88.25 117.5 88.88" />
        <polygon class="cls-8"
          points="98.14 62.37 100.11 65.06 100.14 65.11 100.97 64.51 101 64.48 99 61.74 98.14 62.37" />
        <polygon class="cls-8" points="102.01 67.68 104.02 70.42 104.84 69.82 104.88 69.79 102.88 67.04 102.01 67.68" />
        <polygon class="cls-8"
          points="140.76 120.71 142.73 123.41 142.78 123.47 143.59 122.87 143.63 122.82 141.63 120.08 140.76 120.71" />
        <polygon class="cls-8"
          points="136.88 115.41 138.86 118.11 138.9 118.16 139.72 117.56 139.75 117.52 137.75 114.78 136.88 115.41" />
        <polygon class="cls-8"
          points="121.39 94.2 123.36 96.9 123.4 96.94 124.21 96.34 124.26 96.31 122.25 93.57 121.39 94.2" />
        <polygon class="cls-8"
          points="133.01 110.1 135.02 112.86 135.84 112.26 135.88 112.21 133.88 109.47 133.01 110.1" />
        <polygon class="cls-8"
          points="125.26 99.49 127.27 102.25 128.09 101.65 128.13 101.61 126.12 98.86 125.26 99.49" />
        <polygon class="cls-8" points="129.13 104.81 131.15 107.55 131.97 106.95 132 106.91 130 104.18 129.13 104.81" />
        <polygon class="cls-8" points="182.08 97.41 182 97.34 182.77 96.59 182.84 96.66 182.81 96.72 182.08 97.41" />
        <path class="cls-8"
          d="M134.24,101.57l-2.36-2.45h0l.74-.71h0l2.41,2.42Zm-4.57-4.74-2.36-2.45h0l.73-.69h0l2.33,2.41Zm-4.55-4.74-2.37-2.47.77-.74,2.37,2.47Zm-4.56-4.75-2.36-2.46.77-.73h0l2.32,2.42ZM116,82.6l-2.36-2.45h0l.74-.72h0l2.42,2.42Zm-4.56-4.74-2.37-2.46.79-.75h0l2.37,2.51Zm-4.55-4.74-2.37-2.45h0l.73-.7h0l2.31,2.41Zm-4.55-4.75L100,65.91l.76-.73h0l2.31,2.41ZM97.8,63.64l-2.36-2.47.77-.75h0l2.38,2.48Zm-4.57-4.7-2.35-2.46.76-.73h0L94,58.17ZM88.68,54.2l-2.36-2.45h0l.73-.71h0l2.32,2.41Zm-4.54-4.8-2.36-2.46.76-.74,2.37,2.46Zm-4.56-4.73-.17-.17.78-.75.18.19Z"
          transform="translate(45.56 -6.53)" />
        <rect class="cls-8" x="78.75" y="42.78" width="1.07" height="1.61"
          transform="translate(37.47 60.54) rotate(-43.84)" />
        <path class="cls-22" d="M214,150.3a67.75,67.75,0,1,0-43.3-85.47A67.74,67.74,0,0,0,214,150.3Z"
          transform="translate(45.56 -6.53)" />
        <path class="cls-23" d="M234.62,53A29.41,29.41,0,1,1,197.5,71.82v0A29.42,29.42,0,0,1,234.62,53Z"
          transform="translate(45.56 -6.53)" />
        <circle class="cls-8" cx="105" cy="40.63" r="5.3" />
        <circle class="cls-8" cx="162.12" cy="109.01" r="5.3" />
      </g>
      <path id="gear-4" data-name="gear" class="cls-18"
        d="M251.26,115.55l10.45,7.5,6.58-6.73L260.6,106a43.32,43.32,0,0,0,4.48-8l12.77,1.24,2.34-9.13-11.79-5a41.79,41.79,0,0,0-.11-9.15L280,70.61l-2.54-9.06L264.7,63.08A42.26,42.26,0,0,0,260,55.2l7.5-10.45-6.73-6.58-10.28,7.71a42.19,42.19,0,0,0-8-4.48l1.23-12.79-9.12-2.33-5,11.79a42.5,42.5,0,0,0-9.16.09L215.1,26.48,206,29l1.5,12.77a42.56,42.56,0,0,0-7.87,4.68L189.22,39l-6.58,6.73L190.34,56a43.32,43.32,0,0,0-4.48,8l-12.79-1.2-2.32,9.13,11.79,5a42.5,42.5,0,0,0,.09,9.16L171,91.43l2.54,9.07L186.24,99a43.49,43.49,0,0,0,4.67,7.88l-7.5,10.43,6.74,6.59,10.27-7.7a43.41,43.41,0,0,0,8,4.48l-1.24,12.78,9.12,2.34L221.33,124a43.06,43.06,0,0,0,9.15-.11l5.36,11.69,9.07-2.54-1.52-12.75A43.31,43.31,0,0,0,251.26,115.55Zm-18.57-8.77a26.79,26.79,0,0,1-14.45-51.56c17.15-4.8,29.56,6.25,33,18.55A26.79,26.79,0,0,1,232.69,106.78Z"
        transform="translate(45.56 -6.53)" />
      <path id="gear-5" data-name="gear" class="cls-8"
        d="M132.76,136.61l6.56,4.68,4.13-4.29-4.83-6.43a27.17,27.17,0,0,0,2.84-5l8,.78,1.46-5.73-7.41-3.22a26.23,26.23,0,0,0-.07-5.74l7.35-3.34-1.6-5.7-8,1a25.5,25.5,0,0,0-3-4.9l4.7-6.56L138.71,88l-6.43,4.83a27.71,27.71,0,0,0-5-2.85l.77-8-5.72-1.45-3.22,7.4a26.32,26.32,0,0,0-5.75.07L110,80.68l-5.69,1.59,1,8a26.84,26.84,0,0,0-4.9,3L93.8,88.55l-4.13,4.22L94.5,99.2a27.7,27.7,0,0,0-2.81,5l-8-.78-1.47,5.73,7.41,3.21a27,27,0,0,0,.07,5.75l-7.34,3.34,1.59,5.69,8-1a26.42,26.42,0,0,0,2.92,4.94l-4.68,6.57,4.23,4.12,6.43-4.83a27.74,27.74,0,0,0,5,2.82l-.77,8,5.73,1.46,3.22-7.4a27,27,0,0,0,5.75-.07l3.33,7.33,5.7-1.59-1-8A27.44,27.44,0,0,0,132.76,136.61ZM121.1,131.1A16.81,16.81,0,0,1,112,98.73c10.72-3,18.56,3.92,20.73,11.65a16.79,16.79,0,0,1-11.63,20.71Z"
        transform="translate(45.56 -6.53)" />
      <path id="gear-6" data-name="gear" class="cls-8"
        d="M72.19,64.3,77.35,68l3.22-3.34-3.81-5.08A21.79,21.79,0,0,0,79,55.63l6.32.61,1.15-4.51-5.83-2.5a21.44,21.44,0,0,0,0-4.53l5.78-2.63-1.27-4.56-6.3.76a21.53,21.53,0,0,0-2.31-3.9L80.2,29.2,76.87,26,71.8,29.78a21.2,21.2,0,0,0-3.94-2.22l.61-6.32L64,20.08l-2.5,5.84a21.44,21.44,0,0,0-4.53,0L54.3,20.15l-4.49,1.28.75,6.3a20.94,20.94,0,0,0-3.89,2.32l-5.16-3.7-3.22,3.34,3.81,5.09a20.65,20.65,0,0,0-2.22,3.94l-6.33-.61-1.19,4.53,5.83,2.5a21.34,21.34,0,0,0,0,4.52L32.47,52.3l1.26,4.5,6.3-.75a22.16,22.16,0,0,0,2.31,3.89L38.66,65.1,42,68.32l5.08-3.82A20.12,20.12,0,0,0,51,66.72l-.64,6.35,4.51,1.15,2.5-5.84a21.34,21.34,0,0,0,4.52,0l2.64,5.78,4.51-1.29-.75-6.3A21,21,0,0,0,72.19,64.3ZM63,59.91A13.25,13.25,0,0,1,55.86,34.4C64.3,32,70.47,37.51,72.18,43.58A13.24,13.24,0,0,1,63,59.9Z"
        transform="translate(45.56 -6.53)" />
      <g id="arrow" class="cls-4">
        <polygon class="cls-8" points="589.93 445.28 589.92 428.97 604.04 437.11 589.93 445.28" />
        <line class="cls-5" x1="313.49" y1="437.18" x2="591.86" y2="437.18" />
      </g>
      <g id="arrow-2" data-name="arrow" class="cls-4">
        <polygon class="cls-8" points="548.13 428.97 548.12 412.66 562.25 420.81 548.13 428.97" />
        <line class="cls-5" x1="340.54" y1="420.88" x2="550.06" y2="420.88" />
      </g>
      <g id="arrow-3" data-name="arrow" class="cls-4">
        <polygon class="cls-8" points="457.93 391.88 457.92 375.57 472.05 383.72 457.93 391.88" />
        <line class="cls-5" x1="365.3" y1="383.77" x2="459.86" y2="383.77" />
      </g>
      <g id="step" class="cls-4">
        <polygon class="cls-8" points="356.78 411.91 346.78 411.91 357.27 396.82 367.27 396.82 356.78 411.91" />
        <polygon class="cls-8" points="373.39 411.91 363.39 411.91 373.88 396.82 383.88 396.82 373.39 411.91" />
        <polygon class="cls-8" points="390 411.91 380 411.91 390.49 396.82 400.49 396.82 390 411.91" />
        <polygon class="cls-8" points="406.61 411.91 396.61 411.91 407.1 396.82 417.1 396.82 406.61 411.91" />
        <polygon class="cls-8" points="423.22 411.91 413.22 411.91 423.71 396.82 433.71 396.82 423.22 411.91" />
        <polygon class="cls-8" points="439.83 411.91 429.83 411.91 440.32 396.82 450.33 396.82 439.83 411.91" />
        <polygon class="cls-8" points="456.44 411.91 446.44 411.91 456.93 396.82 466.94 396.82 456.44 411.91" />
      </g>
      <path class="cls-24" d="M301.51,239.29a57.46,57.46,0,1,0-57.46-57.46h0A57.46,57.46,0,0,0,301.51,239.29Z"
        transform="translate(45.56 -6.53)" />
      <path class="cls-25" d="M301.51,154a23.42,23.42,0,1,1-23.4,23.42v0A23.4,23.4,0,0,1,301.51,154Z"
        transform="translate(45.56 -6.53)" />
      <path class="cls-26" d="M301.51,168.89a8.49,8.49,0,1,1-8.48,8.49A8.49,8.49,0,0,1,301.51,168.89Z"
        transform="translate(45.56 -6.53)" />
      <path id="gear-7" data-name="gear" class="cls-27"
        d="M329.58,197.11l9.74,3.06,3.31-6.72-8.37-5.91a34,34,0,0,0,1.42-7.14l10-2.22-.49-7.51-10.17-.9a33.75,33.75,0,0,0-2.35-6.89l7.51-6.91L336,149.74,326.72,154a34.73,34.73,0,0,0-5.48-4.79l3.05-9.75-6.72-3.31-5.85,8.49a35.54,35.54,0,0,0-7.14-1.41l-2.23-10-7.5.5L294,144a33.89,33.89,0,0,0-6.89,2.33l-6.92-7.5L273.92,143l4.28,9.25a33.87,33.87,0,0,0-4.79,5.49l-9.75-3.06-3.25,6.67,8.37,5.87a35.3,35.3,0,0,0-1.41,7.13l-10,2.24.5,7.5,10.18.89a34.31,34.31,0,0,0,2.33,6.89l-7.5,6.91,4.17,6.23,9.26-4.29a32.52,32.52,0,0,0,5.48,4.8l-3.06,9.74,6.72,3.31,5.87-8.36a34.85,34.85,0,0,0,7.14,1.41l2.23,10,7.5-.5.9-10.17a33.32,33.32,0,0,0,6.89-2.34l6.92,7.5,6.22-4.16-4.29-9.26A33.18,33.18,0,0,0,329.58,197.11ZM313.37,195a21.3,21.3,0,1,1-25.24-34.33c.5-.36,1-.71,1.54-1,11.79-7.87,23.9-2.6,29.55,5.86A21.29,21.29,0,0,1,313.37,195Z"
        transform="translate(45.56 -6.53)" />
      <g id="line" class="cls-28">
        <path class="cls-3" d="M624.1,371.35a6,6,0,1,1,6,6h0a5.94,5.94,0,0,1-6-5.95Z"
          transform="translate(45.56 -6.53)" />
        <path class="cls-3" d="M742.91,335.84a6,6,0,1,1,6,6h0A6,6,0,0,1,742.91,335.84Z"
          transform="translate(45.56 -6.53)" />
        <polygon class="cls-18"
          points="794.54 328.86 865.48 328.86 865.48 329.76 794.92 329.76 759.39 365.28 675.63 365.28 675.63 364.38 759.03 364.38 794.54 328.86" />
      </g>
      <g id="line-2" data-name="line" class="cls-28">
        <path class="cls-3" d="M760.88,357.8a6,6,0,1,1,6,6h0A6,6,0,0,1,760.88,357.8Z"
          transform="translate(45.56 -6.53)" />
        <path class="cls-3" d="M582.15,414.85a6,6,0,1,1,6,6h0A6,6,0,0,1,582.15,414.85Z"
          transform="translate(45.56 -6.53)" />
        <polygon class="cls-18"
          points="813.21 350.82 756.29 407.73 637.45 407.73 637.45 408.63 756.67 408.63 813.59 351.72 875.82 351.72 875.82 350.82 813.21 350.82" />
      </g>
      <g id="line-3" data-name="line" class="cls-28">
        <path class="cls-3" d="M634.61,428.36a6,6,0,1,1,6,5.95h0A6,6,0,0,1,634.61,428.36Z"
          transform="translate(45.56 -6.53)" />
        <polygon class="cls-18"
          points="818.21 360.14 879.92 360.14 879.92 361.04 818.59 361.04 757.36 422.28 684.87 422.28 684.87 421.38 756.98 421.38 818.21 360.14" />
      </g>
      <g id="line-4" data-name="line" class="cls-28">
        <rect class="cls-18" x="683.46" y="381.96" width="72.39" height="0.9" />
        <path class="cls-3" d="M633.35,388.94a6,6,0,1,1,6,6h0A6,6,0,0,1,633.35,388.94Z"
          transform="translate(45.56 -6.53)" />
        <path class="cls-3" d="M704.34,388.94a6,6,0,1,1,6,6h0A6,6,0,0,1,704.34,388.94Z"
          transform="translate(45.56 -6.53)" />
      </g>
    </g>
  </g>
</svg>