<svg xmlns="http://www.w3.org/2000/svg" xmlns:xlink="http://www.w3.org/1999/xlink" viewBox="0 0 848.83 537.58"><defs><style>.cls-1,.cls-10{fill:none;}.cls-2{isolation:isolate;}.cls-3{mix-blend-mode:overlay;}.cls-4{fill:#fff;}.cls-5{fill:url(#radial-gradient);}.cls-6{fill:url(#radial-gradient-2);}.cls-7{clip-path:url(#clip-path);}.cls-8{fill:#89dff8;}.cls-25,.cls-26,.cls-30,.cls-32,.cls-9{opacity:0.7;}.cls-10{stroke:#9bb9d3;stroke-miterlimit:10;}.cls-11,.cls-25{fill:#f93;}.cls-12,.cls-26{fill:#7f9eb5;}.cls-13{fill:#9bb9d3;}.cls-14,.cls-15,.cls-18,.cls-28,.cls-30{mix-blend-mode:multiply;}.cls-14{fill:url(#radial-gradient-3);}.cls-15{opacity:0.6;fill:url(#New_Gradient_Swatch_copy_6);}.cls-16{fill:url(#linear-gradient);}.cls-17{fill:url(#linear-gradient-2);}.cls-18{fill:url(#New_Gradient_Swatch_copy_5);}.cls-19{fill:url(#New_Gradient_Swatch_copy_4);}.cls-20,.cls-32{fill:#a3bacc;}.cls-21{fill:url(#New_Gradient_Swatch_copy_2);}.cls-22{fill:url(#linear-gradient-3);}.cls-23{fill:#ffbc45;}.cls-24{fill:#b7cde2;}.cls-27{fill:#d5e3ef;}.cls-28{fill:url(#radial-gradient-4);}.cls-29{fill:url(#linear-gradient-4);}.cls-30{fill:url(#radial-gradient-5);}.cls-31{fill:url(#linear-gradient-5);}.cls-33{fill:url(#linear-gradient-6);}.cls-34{opacity:0.5;}</style><radialGradient id="radial-gradient" cx="181.25" cy="326.5" r="1088.5" gradientUnits="userSpaceOnUse"><stop offset="0" stop-color="#e2e7e7"/><stop offset="0.03" stop-color="#e4e9e9"/><stop offset="0.28" stop-color="#f3f5f5"/><stop offset="0.57" stop-color="#fcfdfd"/><stop offset="1" stop-color="#fff"/></radialGradient><radialGradient id="radial-gradient-2" cx="132.01" cy="335.87" r="1084.31" gradientUnits="userSpaceOnUse"><stop offset="0" stop-color="#fff"/><stop offset="0.43" stop-color="#fcfdfd"/><stop offset="0.72" stop-color="#f3f5f5"/><stop offset="0.97" stop-color="#e4e9e9"/><stop offset="1" stop-color="#e2e7e7"/></radialGradient><clipPath id="clip-path" transform="translate(49.24)"><rect class="cls-1" width="750" height="500"/></clipPath><radialGradient id="radial-gradient-3" cx="375.1" cy="314.18" r="159.78" gradientTransform="matrix(0, 1, 1, 0, -109.73, -64.9)" gradientUnits="userSpaceOnUse"><stop offset="0" stop-color="#4d7ea3"/><stop offset="0.13" stop-color="#5b88aa" stop-opacity="0.92"/><stop offset="0.36" stop-color="#80a3bd" stop-opacity="0.71"/><stop offset="0.68" stop-color="#bccedc" stop-opacity="0.38"/><stop offset="1" stop-color="#fff" stop-opacity="0"/></radialGradient><radialGradient id="New_Gradient_Swatch_copy_6" cx="418.97" cy="220.27" r="159.78" xlink:href="#radial-gradient-3"/><linearGradient id="linear-gradient" x1="140.21" y1="283.14" x2="348.55" y2="283.14" gradientTransform="translate(-109.73 532.16) rotate(-90)" gradientUnits="userSpaceOnUse"><stop offset="0" stop-color="#e2e7e7"/><stop offset="0.44" stop-color="#f0f3f3"/><stop offset="1" stop-color="#fff"/></linearGradient><linearGradient id="linear-gradient-2" x1="148.75" y1="283.14" x2="340.01" y2="283.14" gradientTransform="translate(-109.73 532.16) rotate(-90)" gradientUnits="userSpaceOnUse"><stop offset="0" stop-color="#fff"/><stop offset="0.56" stop-color="#f0f3f3"/><stop offset="1" stop-color="#e2e7e7"/></linearGradient><radialGradient id="New_Gradient_Swatch_copy_5" cx="356.94" cy="280.72" r="99.53" gradientTransform="matrix(0, 1, 1, 0, -109.73, -64.9)" gradientUnits="userSpaceOnUse"><stop offset="0" stop-color="#8498a6"/><stop offset="0.16" stop-color="#879aa8" stop-opacity="0.98"/><stop offset="0.32" stop-color="#8fa2ae" stop-opacity="0.91"/><stop offset="0.47" stop-color="#9eaeb9" stop-opacity="0.79"/><stop offset="0.62" stop-color="#b2bfc7" stop-opacity="0.63"/><stop offset="0.77" stop-color="#ccd4da" stop-opacity="0.41"/><stop offset="0.92" stop-color="#ebeff1" stop-opacity="0.16"/><stop offset="1" stop-color="#fff" stop-opacity="0"/></radialGradient><linearGradient id="New_Gradient_Swatch_copy_4" x1="222.32" y1="283.77" x2="266.01" y2="283.77" xlink:href="#linear-gradient"/><linearGradient id="New_Gradient_Swatch_copy_2" x1="202.98" y1="283.77" x2="285.35" y2="283.77" xlink:href="#linear-gradient-2"/><linearGradient id="linear-gradient-3" x1="159.88" y1="283.77" x2="328.46" y2="283.77" gradientTransform="translate(-109.73 532.16) rotate(-90)" gradientUnits="userSpaceOnUse"><stop offset="0" stop-color="#fff"/><stop offset="0.84" stop-color="#f0f5f5"/><stop offset="1" stop-color="#edf2f2"/></linearGradient><radialGradient id="radial-gradient-4" cx="138.65" cy="325.09" r="63.22" gradientTransform="matrix(-0.31, 0.95, 0.95, 0.31, -46.43, -152.76)" gradientUnits="userSpaceOnUse"><stop offset="0" stop-color="#4d7ea3"/><stop offset="0.34" stop-color="#96b3c9" stop-opacity="0.59"/><stop offset="0.65" stop-color="#cfdce6" stop-opacity="0.27"/><stop offset="0.87" stop-color="#f2f5f8" stop-opacity="0.07"/><stop offset="1" stop-color="#fff" stop-opacity="0"/></radialGradient><linearGradient id="linear-gradient-4" x1="433.21" y1="315.24" x2="488.12" y2="315.24" gradientTransform="translate(-232.54 415.25) rotate(-71.87)" xlink:href="#linear-gradient"/><radialGradient id="radial-gradient-5" cx="234.58" cy="391.08" r="53.62" xlink:href="#radial-gradient-3"/><linearGradient id="linear-gradient-5" x1="344.8" y1="391.08" x2="388.48" y2="391.08" xlink:href="#linear-gradient"/><linearGradient id="linear-gradient-6" x1="325.46" y1="391.08" x2="407.82" y2="391.08" gradientTransform="translate(-109.73 532.16) rotate(-90)" gradientUnits="userSpaceOnUse"><stop offset="0" stop-color="#fff"/><stop offset="0.77" stop-color="#f0f4f4"/><stop offset="1" stop-color="#ebf0f0"/></linearGradient></defs><title>gear1</title><g class="cls-2"><g id="BACKGROUND"><g class="cls-3"><path class="cls-4" d="M254.34,461.55a3.58,3.58,0,0,1,6.1-2.53,3.71,3.71,0,0,1,0,5.06,3.57,3.57,0,0,1-6.1-2.53Z" transform="translate(49.24)"/><path class="cls-4" d="M114.11,458a3.58,3.58,0,0,1,3.59,3.57h0a3.58,3.58,0,0,1-3.59,3.57h0a3.57,3.57,0,0,1-3.57-3.57h0A3.57,3.57,0,0,1,114.11,458Zm20.55,0a3.57,3.57,0,0,1,3.57,3.57h0a3.57,3.57,0,0,1-3.57,3.57h0a3.57,3.57,0,0,1-3.57-3.57h0A3.57,3.57,0,0,1,134.66,458Zm20.54,0a3.57,3.57,0,0,1,3.57,3.57h0a3.57,3.57,0,0,1-3.57,3.57h0a3.58,3.58,0,0,1-3.58-3.57h0A3.58,3.58,0,0,1,155.2,458Zm20.55,0a3.57,3.57,0,0,1,3.57,3.57h0a3.57,3.57,0,0,1-3.57,3.57h0a3.57,3.57,0,0,1-3.57-3.57h0A3.57,3.57,0,0,1,175.75,458Zm20.54,0a3.57,3.57,0,0,1,3.57,3.57h0a3.57,3.57,0,0,1-3.57,3.57h0a3.57,3.57,0,0,1-3.58-3.57h0A3.57,3.57,0,0,1,196.29,458Zm20.53,0a3.57,3.57,0,0,1,3.58,3.57h0a3.57,3.57,0,0,1-3.58,3.57h0a3.59,3.59,0,0,1-3.57-3.57h0A3.59,3.59,0,0,1,216.82,458Zm20.56,0a3.57,3.57,0,0,1,3.57,3.57h0a3.57,3.57,0,0,1-3.57,3.57h0a3.57,3.57,0,0,1-3.58-3.57h0A3.57,3.57,0,0,1,237.38,458Z" transform="translate(49.24)"/><path class="cls-4" d="M93.57,443.33a3.57,3.57,0,0,1,3.57,3.57h0a3.57,3.57,0,0,1-3.57,3.57h0A3.57,3.57,0,0,1,90,446.9h0A3.57,3.57,0,0,1,93.57,443.33Zm20.55,0a3.57,3.57,0,0,1,3.58,3.57h0a3.57,3.57,0,0,1-3.58,3.57h0a3.57,3.57,0,0,1-3.57-3.57h0A3.57,3.57,0,0,1,114.12,443.33Zm20.54,0a3.57,3.57,0,0,1,3.57,3.57h0a3.57,3.57,0,0,1-3.57,3.57h0a3.57,3.57,0,0,1-3.57-3.57h0A3.57,3.57,0,0,1,134.66,443.33Zm20.54,0a3.57,3.57,0,0,1,3.57,3.57h0a3.57,3.57,0,0,1-3.57,3.57h0a3.58,3.58,0,0,1-3.58-3.57h0A3.58,3.58,0,0,1,155.2,443.33Zm20.55,0a3.57,3.57,0,0,1,3.57,3.57h0a3.57,3.57,0,0,1-3.57,3.57h0a3.57,3.57,0,0,1-3.57-3.57h0A3.57,3.57,0,0,1,175.75,443.33Zm20.54,0a3.57,3.57,0,0,1,3.57,3.57h0a3.57,3.57,0,0,1-3.57,3.57h0a3.57,3.57,0,0,1-3.58-3.57h0A3.57,3.57,0,0,1,196.29,443.33Zm20.53,0a3.57,3.57,0,0,1,3.58,3.57h0a3.57,3.57,0,0,1-3.58,3.57h0a3.57,3.57,0,0,1-3.57-3.57h0A3.57,3.57,0,0,1,216.82,443.33Zm20.56,0A3.57,3.57,0,0,1,241,446.9h0a3.57,3.57,0,0,1-3.57,3.57h0a3.57,3.57,0,0,1-3.58-3.57h0A3.57,3.57,0,0,1,237.38,443.33Z" transform="translate(49.24)"/><path class="cls-4" d="M73,428.68a3.57,3.57,0,0,1,3.58,3.57h0A3.58,3.58,0,0,1,73,435.83h0a3.58,3.58,0,0,1-3.57-3.58h0A3.57,3.57,0,0,1,73,428.68Zm20.54,0a3.57,3.57,0,0,1,3.57,3.57h0a3.58,3.58,0,0,1-3.57,3.58h0A3.58,3.58,0,0,1,90,432.25h0A3.57,3.57,0,0,1,93.57,428.68Zm20.55,0a3.56,3.56,0,0,1,3.56,3.57h0a3.57,3.57,0,0,1-3.56,3.58h0a3.58,3.58,0,0,1-3.57-3.58h0A3.57,3.57,0,0,1,114.12,428.68Zm20.54,0a3.57,3.57,0,0,1,3.57,3.57h0a3.58,3.58,0,0,1-3.57,3.58h0a3.58,3.58,0,0,1-3.57-3.58h0A3.57,3.57,0,0,1,134.66,428.68Zm20.54,0a3.57,3.57,0,0,1,3.57,3.57h0a3.58,3.58,0,0,1-3.57,3.58h0a3.59,3.59,0,0,1-3.58-3.58h0A3.58,3.58,0,0,1,155.2,428.68Zm20.55,0a3.57,3.57,0,0,1,3.57,3.57h0a3.58,3.58,0,0,1-3.57,3.58h0a3.58,3.58,0,0,1-3.57-3.58h0A3.57,3.57,0,0,1,175.75,428.68Zm20.54,0a3.57,3.57,0,0,1,3.57,3.57h0a3.58,3.58,0,0,1-3.57,3.58h0a3.58,3.58,0,0,1-3.58-3.58h0A3.57,3.57,0,0,1,196.29,428.68Zm20.53,0a3.57,3.57,0,0,1,3.58,3.57h0a3.58,3.58,0,0,1-3.58,3.58h0a3.58,3.58,0,0,1-3.57-3.58h0A3.57,3.57,0,0,1,216.82,428.68Z" transform="translate(49.24)"/><path class="cls-4" d="M73,414a3.57,3.57,0,0,1,3.58,3.57h0A3.58,3.58,0,0,1,73,421.18h0a3.58,3.58,0,0,1-3.57-3.58h0A3.57,3.57,0,0,1,73,414Zm20.54,0a3.57,3.57,0,0,1,3.57,3.57h0a3.58,3.58,0,0,1-3.57,3.58h0A3.58,3.58,0,0,1,90,417.6h0A3.57,3.57,0,0,1,93.57,414Zm20.55,0a3.56,3.56,0,0,1,3.56,3.57h0a3.57,3.57,0,0,1-3.56,3.58h0a3.58,3.58,0,0,1-3.57-3.58h0A3.57,3.57,0,0,1,114.12,414Zm20.54,0a3.57,3.57,0,0,1,3.57,3.57h0a3.58,3.58,0,0,1-3.57,3.58h0a3.58,3.58,0,0,1-3.57-3.58h0A3.57,3.57,0,0,1,134.66,414Zm20.54,0a3.57,3.57,0,0,1,3.57,3.57h0a3.58,3.58,0,0,1-3.57,3.58h0a3.59,3.59,0,0,1-3.58-3.58h0A3.58,3.58,0,0,1,155.2,414Zm20.55,0a3.57,3.57,0,0,1,3.57,3.57h0a3.58,3.58,0,0,1-3.57,3.58h0a3.58,3.58,0,0,1-3.57-3.58h0A3.57,3.57,0,0,1,175.75,414Zm20.54,0a3.57,3.57,0,0,1,3.57,3.57h0a3.58,3.58,0,0,1-3.57,3.58h0a3.58,3.58,0,0,1-3.58-3.58h0A3.57,3.57,0,0,1,196.29,414Z" transform="translate(49.24)"/><path class="cls-4" d="M48.91,417.6a3.58,3.58,0,0,1,6.1-2.53,3.71,3.71,0,0,1,0,5.06,3.58,3.58,0,0,1-6.1-2.53Z" transform="translate(49.24)"/><path class="cls-4" d="M73,399.38A3.58,3.58,0,0,1,76.61,403h0A3.57,3.57,0,0,1,73,406.53h0A3.57,3.57,0,0,1,69.46,403h0A3.57,3.57,0,0,1,73,399.38Zm20.54,0A3.57,3.57,0,0,1,97.14,403h0a3.57,3.57,0,0,1-3.57,3.57h0A3.57,3.57,0,0,1,90,403h0A3.57,3.57,0,0,1,93.57,399.38Zm20.55,0a3.56,3.56,0,0,1,3.56,3.58h0a3.56,3.56,0,0,1-3.56,3.57h0a3.57,3.57,0,0,1-3.57-3.57h0A3.57,3.57,0,0,1,114.12,399.38Zm20.54,0a3.57,3.57,0,0,1,3.57,3.58h0a3.57,3.57,0,0,1-3.57,3.57h0a3.57,3.57,0,0,1-3.57-3.57h0A3.57,3.57,0,0,1,134.66,399.38Zm20.54,0a3.57,3.57,0,0,1,3.57,3.58h0a3.57,3.57,0,0,1-3.57,3.57h0a3.58,3.58,0,0,1-3.58-3.57h0A3.58,3.58,0,0,1,155.2,399.38Zm20.55,0a3.57,3.57,0,0,1,3.57,3.58h0a3.57,3.57,0,0,1-3.57,3.57h0a3.57,3.57,0,0,1-3.57-3.57h0A3.57,3.57,0,0,1,175.75,399.38Z" transform="translate(49.24)"/><path class="cls-4" d="M48.91,403a3.58,3.58,0,0,1,6.1-2.54,3.71,3.71,0,0,1,0,5.06,3.58,3.58,0,0,1-6.1-2.52Z" transform="translate(49.24)"/></g><g class="cls-3"><path class="cls-4" d="M636.35,223.59a3.57,3.57,0,0,1,3.59,3.57h0a3.58,3.58,0,0,1-3.59,3.57h0a3.57,3.57,0,0,1-3.57-3.57h0A3.57,3.57,0,0,1,636.35,223.59Zm20.56,0a3.57,3.57,0,0,1,3.57,3.57h0a3.57,3.57,0,0,1-3.57,3.57h0a3.57,3.57,0,0,1-3.58-3.57h0A3.57,3.57,0,0,1,656.91,223.59Zm20.53,0a3.57,3.57,0,0,1,3.58,3.57h0a3.57,3.57,0,0,1-3.58,3.57h0a3.57,3.57,0,0,1-3.57-3.57h0A3.57,3.57,0,0,1,677.44,223.59Zm20.55,0a3.57,3.57,0,0,1,3.58,3.57h0a3.57,3.57,0,0,1-3.58,3.57h0a3.57,3.57,0,0,1-3.57-3.57h0A3.57,3.57,0,0,1,698,223.59Zm20.54,0a3.57,3.57,0,0,1,3.58,3.57h0a3.58,3.58,0,0,1-3.58,3.57h0a3.57,3.57,0,0,1-3.57-3.57h0A3.57,3.57,0,0,1,718.53,223.59Zm20.54,0a3.57,3.57,0,0,1,3.57,3.57h0a3.57,3.57,0,0,1-3.57,3.57h0a3.58,3.58,0,0,1-3.57-3.57h0A3.57,3.57,0,0,1,739.07,223.59Z" transform="translate(49.24)"/><path class="cls-4" d="M615.82,208.94a3.57,3.57,0,0,1,3.57,3.57h0a3.57,3.57,0,0,1-3.57,3.57h0a3.58,3.58,0,0,1-3.58-3.57h0A3.58,3.58,0,0,1,615.82,208.94Zm20.55,0a3.57,3.57,0,0,1,3.57,3.57h0a3.57,3.57,0,0,1-3.57,3.57h0a3.58,3.58,0,0,1-3.58-3.57h0A3.58,3.58,0,0,1,636.37,208.94Zm20.54,0a3.57,3.57,0,0,1,3.57,3.57h0a3.57,3.57,0,0,1-3.57,3.57h0a3.57,3.57,0,0,1-3.58-3.57h0A3.57,3.57,0,0,1,656.91,208.94Zm20.53,0a3.57,3.57,0,0,1,3.58,3.57h0a3.57,3.57,0,0,1-3.58,3.57h0a3.57,3.57,0,0,1-3.57-3.57h0A3.57,3.57,0,0,1,677.44,208.94Zm20.55,0a3.57,3.57,0,0,1,3.58,3.57h0a3.57,3.57,0,0,1-3.58,3.57h0a3.57,3.57,0,0,1-3.57-3.57h0A3.57,3.57,0,0,1,698,208.94Zm20.54,0a3.58,3.58,0,0,1,3.58,3.57h0a3.58,3.58,0,0,1-3.58,3.57h0a3.57,3.57,0,0,1-3.57-3.57h0A3.57,3.57,0,0,1,718.53,208.94Zm20.54,0a3.57,3.57,0,0,1,3.57,3.57h0a3.57,3.57,0,0,1-3.57,3.57h0a3.57,3.57,0,0,1-3.57-3.57h0A3.57,3.57,0,0,1,739.07,208.94Z" transform="translate(49.24)"/><path class="cls-4" d="M595.28,194.29a3.57,3.57,0,0,1,3.57,3.57h0a3.57,3.57,0,0,1-3.57,3.57h0a3.57,3.57,0,0,1-3.57-3.57h0A3.57,3.57,0,0,1,595.28,194.29Zm20.54,0a3.57,3.57,0,0,1,3.57,3.57h0a3.57,3.57,0,0,1-3.57,3.57h0a3.58,3.58,0,0,1-3.58-3.57h0A3.58,3.58,0,0,1,615.82,194.29Zm20.55,0a3.56,3.56,0,0,1,3.56,3.57h0a3.56,3.56,0,0,1-3.56,3.57h0a3.58,3.58,0,0,1-3.58-3.57h0A3.58,3.58,0,0,1,636.37,194.29Zm20.54,0a3.57,3.57,0,0,1,3.57,3.57h0a3.57,3.57,0,0,1-3.57,3.57h0a3.57,3.57,0,0,1-3.58-3.57h0A3.57,3.57,0,0,1,656.91,194.29Zm20.53,0a3.57,3.57,0,0,1,3.58,3.57h0a3.57,3.57,0,0,1-3.58,3.57h0a3.57,3.57,0,0,1-3.57-3.57h0A3.57,3.57,0,0,1,677.44,194.29Zm20.55,0a3.57,3.57,0,0,1,3.58,3.57h0a3.57,3.57,0,0,1-3.58,3.57h0a3.57,3.57,0,0,1-3.57-3.57h0A3.57,3.57,0,0,1,698,194.29Zm20.54,0a3.58,3.58,0,0,1,3.58,3.57h0a3.58,3.58,0,0,1-3.58,3.57h0a3.57,3.57,0,0,1-3.57-3.57h0A3.57,3.57,0,0,1,718.53,194.29Zm20.54,0a3.57,3.57,0,0,1,3.57,3.57h0a3.57,3.57,0,0,1-3.57,3.57h0a3.57,3.57,0,0,1-3.57-3.57h0A3.57,3.57,0,0,1,739.07,194.29Z" transform="translate(49.24)"/><path class="cls-4" d="M595.28,179.64a3.57,3.57,0,0,1,3.57,3.57h0a3.57,3.57,0,0,1-3.57,3.57h0a3.57,3.57,0,0,1-3.57-3.57h0A3.57,3.57,0,0,1,595.28,179.64Zm20.54,0a3.57,3.57,0,0,1,3.57,3.57h0a3.57,3.57,0,0,1-3.57,3.57h0a3.58,3.58,0,0,1-3.58-3.57h0A3.58,3.58,0,0,1,615.82,179.64Zm20.55,0a3.56,3.56,0,0,1,3.56,3.57h0a3.56,3.56,0,0,1-3.56,3.57h0a3.58,3.58,0,0,1-3.58-3.57h0A3.58,3.58,0,0,1,636.37,179.64Zm20.54,0a3.57,3.57,0,0,1,3.57,3.57h0a3.57,3.57,0,0,1-3.57,3.57h0a3.57,3.57,0,0,1-3.58-3.57h0A3.57,3.57,0,0,1,656.91,179.64Zm20.53,0a3.57,3.57,0,0,1,3.58,3.57h0a3.57,3.57,0,0,1-3.58,3.57h0a3.57,3.57,0,0,1-3.57-3.57h0A3.57,3.57,0,0,1,677.44,179.64Zm20.55,0a3.57,3.57,0,0,1,3.58,3.57h0a3.57,3.57,0,0,1-3.58,3.57h0a3.57,3.57,0,0,1-3.57-3.57h0A3.57,3.57,0,0,1,698,179.64Zm20.54,0a3.58,3.58,0,0,1,3.58,3.57h0a3.58,3.58,0,0,1-3.58,3.57h0a3.57,3.57,0,0,1-3.57-3.57h0A3.57,3.57,0,0,1,718.53,179.64Z" transform="translate(49.24)"/><path class="cls-4" d="M571.16,183.21a3.58,3.58,0,0,1,6.1-2.53,3.71,3.71,0,0,1,0,5.06,3.58,3.58,0,0,1-6.1-2.53Z" transform="translate(49.24)"/><path class="cls-4" d="M595.28,165a3.57,3.57,0,0,1,3.57,3.57h0a3.58,3.58,0,0,1-3.57,3.58h0a3.58,3.58,0,0,1-3.57-3.58h0A3.57,3.57,0,0,1,595.28,165Zm20.54,0a3.57,3.57,0,0,1,3.57,3.57h0a3.58,3.58,0,0,1-3.57,3.58h0a3.59,3.59,0,0,1-3.58-3.58h0A3.58,3.58,0,0,1,615.82,165Zm20.55,0a3.56,3.56,0,0,1,3.56,3.57h0a3.57,3.57,0,0,1-3.56,3.58h0a3.59,3.59,0,0,1-3.58-3.58h0A3.58,3.58,0,0,1,636.37,165Zm20.54,0a3.57,3.57,0,0,1,3.57,3.57h0a3.58,3.58,0,0,1-3.57,3.58h0a3.58,3.58,0,0,1-3.58-3.58h0A3.57,3.57,0,0,1,656.91,165Zm20.53,0a3.57,3.57,0,0,1,3.58,3.57h0a3.58,3.58,0,0,1-3.58,3.58h0a3.58,3.58,0,0,1-3.57-3.58h0A3.57,3.57,0,0,1,677.44,165ZM698,165a3.57,3.57,0,0,1,3.58,3.57h0a3.58,3.58,0,0,1-3.58,3.58h0a3.58,3.58,0,0,1-3.57-3.58h0A3.57,3.57,0,0,1,698,165Z" transform="translate(49.24)"/><path class="cls-4" d="M571.16,168.56a3.6,3.6,0,0,1,1.05-2.53,3.59,3.59,0,0,1,5,0,3.71,3.71,0,0,1,0,5.06,3.56,3.56,0,0,1-5,0A3.58,3.58,0,0,1,571.16,168.56Z" transform="translate(49.24)"/></g><rect class="cls-5" x="49.24" width="750" height="500"/><path class="cls-6" d="M425.92,379.37a248.68,248.68,0,0,1-28.23-7.87c-81.86-28.09-120-64.79-186.79-159C184.4,175.13,125.33,44.67,0,27V500H750V258.32c0,3.5-40.5,40.07-51.21,49.5C625.68,372.2,523,400.34,425.92,379.37Z" transform="translate(49.24)"/></g><g id="OBJECTS"><g class="cls-7"><path class="cls-8" d="M792.78,21.92A6.81,6.81,0,1,1,786,28.73,6.81,6.81,0,0,1,792.78,21.92Z" transform="translate(49.24)"/><circle class="cls-8" cx="785.04" cy="285.39" r="3.38" transform="translate(272.05 903.15) rotate(-67.67)"/><g class="cls-9"><line class="cls-10" x1="142.71" y1="340.94" x2="7.08" y2="479.41"/><line class="cls-10" x1="176.98" y1="358.73" x2="61.96" y2="510.95"/><line class="cls-10" x1="210.04" y1="374.6" x2="115.42" y2="537.33"/><path class="cls-11" d="M59.32,442.55a5.86,5.86,0,1,1-5.86,5.86A5.86,5.86,0,0,1,59.32,442.55Z" transform="translate(49.24)"/><path class="cls-12" d="M17.32,412.85a5.86,5.86,0,1,1-5.86,5.86A5.86,5.86,0,0,1,17.32,412.85Z" transform="translate(49.24)"/><path class="cls-12" d="M116.4,444.24a5.86,5.86,0,1,1-5.86,5.86A5.86,5.86,0,0,1,116.4,444.24Z" transform="translate(49.24)"/></g><g class="cls-9"><path class="cls-13" d="M95.93,160.93-1.91,22.57l-1.46,1L94.29,161.71C94.83,161.44,95.38,161.18,95.93,160.93Z" transform="translate(49.24)"/><path class="cls-13" d="M88.09,165l-90-127.28-1.46,1L86.56,165.92Z" transform="translate(49.24)"/><path class="cls-13" d="M80.73,169.73-1.91,52.87l-1.46,1L79.28,170.78Z" transform="translate(49.24)"/><path class="cls-13" d="M73.79,175.07-1.91,68l-1.46,1,75.8,107.18C72.88,175.84,73.33,175.45,73.79,175.07Z" transform="translate(49.24)"/><path class="cls-13" d="M67.24,181-1.91,83.17l-1.46,1,69.33,98Z" transform="translate(49.24)"/><path class="cls-13" d="M61.06,187.36l-63-89.05-1.46,1,63.21,89.4Z" transform="translate(49.24)"/><path class="cls-13" d="M55.22,194.26l-57.13-80.8-1.46,1,57.45,81.25C54.46,195.25,54.83,194.75,55.22,194.26Z" transform="translate(49.24)"/><path class="cls-13" d="M49.73,201.64l-51.64-73-1.46,1,52,73.57C49,202.69,49.36,202.16,49.73,201.64Z" transform="translate(49.24)"/></g><g class="cls-9"><path class="cls-13" d="M356.16,115.56A93.38,93.38,0,0,0,237.33,83.71v.71A92.73,92.73,0,1,1,232,247.65v.74A93.35,93.35,0,0,0,356.16,115.56Z" transform="translate(49.24)"/><path class="cls-13" d="M414.1,142.76l0-.24-18.56-1.63a119.06,119.06,0,0,0-8-23.66l13.7-12.6-.12-.22a138,138,0,0,0-17.49-26.09l-.16-.18L366.55,86a118.78,118.78,0,0,0-18.81-16.45l5.57-17.77-.21-.13a136.87,136.87,0,0,0-28.17-13.89l-.23-.08L314,52.94a121,121,0,0,0-24.49-4.86l-4-17.93-.06-.24h-.24c-2.27-.11-4.5-.16-6.62-.16A139,139,0,0,0,253.85,32l-.24.05L252,50.55a123.36,123.36,0,0,0-14.65,4.32v.69a118.37,118.37,0,0,1,15-4.43l.23-.05,1.63-18.54a138.77,138.77,0,0,1,24.36-2.16c2,0,4.17.05,6.35.15L289,48.68l.23,0A120.18,120.18,0,0,1,314,53.62l.22.07,10.69-15.26A137,137,0,0,1,352.55,52l-5.49,17.53-.07.22.19.14a119.1,119.1,0,0,1,19.06,16.67l.16.17,16.83-7.84a137.75,137.75,0,0,1,17.14,25.56l-13.69,12.6.1.21a118.61,118.61,0,0,1,8.15,24l.05.23,18.53,1.63a137.9,137.9,0,0,1,2.16,24.36c0,2,0,4.18-.14,6.35l-18.16,4.06,0,.24a120.33,120.33,0,0,1-4.91,24.81l-.07.23,15.25,10.69a136.66,136.66,0,0,1-13.6,27.6l-17.75-5.55-.13.19a119.27,119.27,0,0,1-16.68,19.05l-.17.16,7.84,16.83a137.09,137.09,0,0,1-25.56,17.14L329,275.6l-.21.1a119.31,119.31,0,0,1-24,8.15l-.23,0-1.63,18.53a138.77,138.77,0,0,1-24.36,2.16c-2.05,0-4.18,0-6.34-.15l-4.07-18.15-.23,0a119.92,119.92,0,0,1-24.82-4.92l-.22-.07-10.7,15.26-.19-.08v.69l.21.07.23.09L243.15,282a120.73,120.73,0,0,0,24.49,4.86l4.07,18.17H272c2.26.11,4.49.16,6.62.16A139.07,139.07,0,0,0,303.29,303l.24,0,1.63-18.55a119.81,119.81,0,0,0,23.67-8l12.6,13.7.22-.11a138,138,0,0,0,26.08-17.5l.19-.16-7.85-16.84a119.47,119.47,0,0,0,16.46-18.81l17.76,5.56.14-.2a137.84,137.84,0,0,0,13.88-28.17l.08-.23-15.27-10.71A120.16,120.16,0,0,0,398,178.42l18.17-4.07,0-.24c.1-2.27.16-4.5.16-6.63A139.17,139.17,0,0,0,414.1,142.76Z" transform="translate(49.24)"/></g><g class="cls-9"><path class="cls-14" d="M204.45,470A159.78,159.78,0,1,0,44.67,310.2,159.78,159.78,0,0,0,204.45,470Z" transform="translate(49.24)"/><path class="cls-15" d="M110.53,513.84A159.78,159.78,0,1,0-49.24,354.06,159.77,159.77,0,0,0,110.53,513.84Z" transform="translate(49.24)"/><path class="cls-16" d="M173.41,183.61A104.17,104.17,0,1,1,69.24,287.78,104.17,104.17,0,0,1,173.41,183.61Z" transform="translate(49.24)"/><path class="cls-17" d="M173.41,192.15a95.63,95.63,0,1,1-95.63,95.63A95.64,95.64,0,0,1,173.41,192.15Z" transform="translate(49.24)"/><path class="cls-18" d="M171,391.58A99.54,99.54,0,1,0,71.45,292,99.54,99.54,0,0,0,171,391.58Z" transform="translate(49.24)"/><path class="cls-19" d="M174,266.15A21.85,21.85,0,1,1,152.2,288,21.84,21.84,0,0,1,174,266.15Z" transform="translate(49.24)"/><path class="cls-20" d="M174,280.08a7.92,7.92,0,1,1-7.91,7.91A7.91,7.91,0,0,1,174,280.08Z" transform="translate(49.24)"/><path class="cls-21" d="M200.23,306.41l9.09,2.85,3.09-6.28-7.81-5.47a31.56,31.56,0,0,0,1.32-6.66l9.31-2.08-.47-7-9.49-.83a31.75,31.75,0,0,0-2.18-6.44l7-6.45-3.89-5.81-8.64,4a32.18,32.18,0,0,0-5.11-4.47l2.84-9.1L189,249.63l-5.47,7.81a31.56,31.56,0,0,0-6.66-1.32l-2.08-9.31-7,.46-.83,9.5a31.75,31.75,0,0,0-6.44,2.18l-6.45-7-5.81,3.89,4,8.64a32.18,32.18,0,0,0-4.47,5.11l-9.09-2.85L135.68,273l7.8,5.48a32.18,32.18,0,0,0-1.31,6.66l-9.31,2.08.46,7,9.5.83a31.75,31.75,0,0,0,2.18,6.44l-7,6.45,3.89,5.81,8.64-4a32.18,32.18,0,0,0,5.11,4.47l-2.85,9.09,6.28,3.09,5.47-7.81a31.56,31.56,0,0,0,6.66,1.32l2.08,9.31,7-.46.83-9.5a31.46,31.46,0,0,0,6.43-2.18l6.45,7,5.82-3.89-4-8.64A31.75,31.75,0,0,0,200.23,306.41Zm-15.13-1.9a19.87,19.87,0,0,1-22.11-33c11-7.35,22.3-2.42,27.57,5.46A19.87,19.87,0,0,1,185.1,304.51Z" transform="translate(49.24)"/><path class="cls-22" d="M227.64,325.68l18.61,5.83,6.32-12.84-16-11.2a66,66,0,0,0,2.7-13.63l19-4.26-.95-14.28L238,273.59a65.2,65.2,0,0,0-4.48-13.17l14.36-13.2-8-11.89-17.68,8.23a65.12,65.12,0,0,0-10.47-9.16l5.83-18.61-12.84-6.32-11.2,16a66.08,66.08,0,0,0-13.63-2.7l-4.26-19.05-14.28,1-1.71,19.43a65.2,65.2,0,0,0-13.17,4.48l-13.2-14.36-11.89,8,8.23,17.68a65.12,65.12,0,0,0-9.16,10.47l-18.61-5.83-6.32,12.84,16,11.2a66,66,0,0,0-2.7,13.63l-19,4.26,1,14.28,19.43,1.71a64.58,64.58,0,0,0,4.48,13.17l-14.36,13.2,8,11.89,17.68-8.23a65.05,65.05,0,0,0,10.46,9.16l-5.82,18.61,12.83,6.32,11.21-16a65.82,65.82,0,0,0,13.63,2.7l4.26,19,14.28-.94,1.71-19.43a65.41,65.41,0,0,0,13.17-4.48l13.2,14.35,11.89-7.95-8.23-17.68A64.69,64.69,0,0,0,227.64,325.68Zm-25.25,4.67a51,51,0,1,1,14-70.71A51,51,0,0,1,202.39,330.35Z" transform="translate(49.24)"/><path class="cls-13" d="M284.39,287.78a111,111,0,1,1-111-111A111.11,111.11,0,0,1,284.39,287.78Zm-221.32,0A110.34,110.34,0,1,0,173.41,177.44,110.47,110.47,0,0,0,63.07,287.78Z" transform="translate(49.24)"/><path class="cls-13" d="M83.9,198.17a125.45,125.45,0,0,0-27.8,42l.57.23a125.26,125.26,0,0,1,116.06-78.46l1.33,0v-.55l-1.33,0A124.78,124.78,0,0,0,83.9,198.17Z" transform="translate(49.24)"/><path class="cls-13" d="M297.8,287a124.77,124.77,0,0,1-39.51,91.14l.42.44c1-.9,1.91-1.82,2.85-2.75a125.77,125.77,0,0,0,19.79-152l-.54.32A124.34,124.34,0,0,1,297.8,287Z" transform="translate(49.24)"/><path class="cls-13" d="M172.73,412.07A125.3,125.3,0,0,1,54.32,327.32l-.56.19a125.84,125.84,0,0,0,168.63,74.94l-.24-.56A124.38,124.38,0,0,1,172.73,412.07Z" transform="translate(49.24)"/><path class="cls-13" d="M241.56,401.15l.89,1.48a136.09,136.09,0,0,0,57.11-69.25l-1.61-.59A134,134,0,0,1,241.56,401.15Z" transform="translate(49.24)"/><path class="cls-13" d="M37.74,287a134.11,134.11,0,0,0,39.54,95.44,137.12,137.12,0,0,0,11.57,10.33l1.07-1.35A133.24,133.24,0,0,1,47.37,241.58L45.76,241A134.94,134.94,0,0,0,37.74,287Z" transform="translate(49.24)"/><path class="cls-13" d="M221.53,162.92a133.66,133.66,0,0,1,33.92,19.59l1.07-1.35a134,134,0,0,0-34.38-19.84Z" transform="translate(49.24)"/><path class="cls-13" d="M172.73,152a134.55,134.55,0,0,0-54.94,11.61l.7,1.58a132.59,132.59,0,0,1,54.24-11.54,134.5,134.5,0,0,1,17.83,1.19l.22-1.65A136.8,136.8,0,0,0,172.73,152Z" transform="translate(49.24)"/><path class="cls-23" d="M281.35,220.42A3.39,3.39,0,1,1,278,223.8,3.38,3.38,0,0,1,281.35,220.42Z" transform="translate(49.24)"/><path class="cls-8" d="M53.75,323.94a3.39,3.39,0,1,1-3.38,3.38A3.38,3.38,0,0,1,53.75,323.94Z" transform="translate(49.24)"/><path class="cls-13" d="M47.61,235.61A3.38,3.38,0,1,1,44.23,239,3.38,3.38,0,0,1,47.61,235.61Z" transform="translate(49.24)"/><path class="cls-11" d="M256.52,175.3a5.87,5.87,0,1,1-5.86,5.87A5.87,5.87,0,0,1,256.52,175.3Z" transform="translate(49.24)"/><path class="cls-24" d="M29.23,316.42,18.9,318.25a155.88,155.88,0,0,0,5.65,21.08l9.88-3.59A148.08,148.08,0,0,1,29.23,316.42Z" transform="translate(49.24)"/><path class="cls-24" d="M26.5,290.86H16a159.93,159.93,0,0,0,1.88,21.74l10.31-1.81A148.8,148.8,0,0,1,26.5,290.86Z" transform="translate(49.24)"/><path class="cls-24" d="M145.64,143.77l-1.83-10.33A157.38,157.38,0,0,0,16,285.13H26.5C27.85,214.89,78.76,156.58,145.64,143.77Z" transform="translate(49.24)"/><path class="cls-24" d="M277,169.68l-6.76,8.06a149.08,149.08,0,0,1,13.95,14l8.07-6.77" transform="translate(49.24)"/><path class="cls-24" d="M320.15,285.13H330.6a159.9,159.9,0,0,0-1.84-21.52l-10.31,1.82A147,147,0,0,1,320.15,285.13Z" transform="translate(49.24)"/><path class="cls-24" d="M36.41,341.11l-9.91,3.61a156.54,156.54,0,0,0,9.28,19.76l9.14-5.28A145.7,145.7,0,0,1,36.41,341.11Z" transform="translate(49.24)"/><path class="cls-24" d="M176.84,434.81v10.46a157.92,157.92,0,0,0,21.61-2L196.63,433A148.21,148.21,0,0,1,176.84,434.81Z" transform="translate(49.24)"/><path class="cls-24" d="M310.4,235.29l9.9-3.6a156.27,156.27,0,0,0-9.12-19.6L302,217.36A146.28,146.28,0,0,1,310.4,235.29Z" transform="translate(49.24)"/><path class="cls-24" d="M230.41,141.32l-3.61,9.9a144.88,144.88,0,0,1,17.93,8.49l5.28-9.14" transform="translate(49.24)"/><path class="cls-24" d="M63,384.84,55,391.6q3.44,3.91,7.13,7.63,4,4,8.32,7.75l6.77-8.07A148,148,0,0,1,63,384.84Z" transform="translate(49.24)"/><path class="cls-24" d="M81.57,402.57l-6.77,8.08a156.13,156.13,0,0,0,17.85,12.47L97.93,414A147.6,147.6,0,0,1,81.57,402.57Z" transform="translate(49.24)"/><rect class="cls-24" x="253.69" y="432.25" width="25" height="11.08"/><rect class="cls-24" x="286.22" y="432.25" width="25" height="11.08"/><rect class="cls-24" x="318.76" y="432.25" width="25" height="11.08"/><rect class="cls-24" x="351.29" y="432.25" width="25" height="11.08"/><rect class="cls-24" x="383.83" y="432.25" width="25" height="11.08"/><rect class="cls-24" x="416.36" y="432.25" width="25.01" height="11.08"/><rect class="cls-24" x="448.89" y="432.25" width="25.01" height="11.08"/><rect class="cls-24" x="481.43" y="432.25" width="25.01" height="11.08"/><rect class="cls-24" x="513.96" y="432.25" width="25.01" height="11.08"/><rect class="cls-24" x="546.5" y="432.25" width="25.01" height="11.08"/><rect class="cls-24" x="579.03" y="432.25" width="25.01" height="11.08"/><rect class="cls-24" x="611.56" y="432.25" width="25.01" height="11.08"/><rect class="cls-24" x="644.1" y="432.25" width="25.01" height="11.08"/><rect class="cls-24" x="676.63" y="432.25" width="25" height="11.08"/><rect class="cls-24" x="709.17" y="432.25" width="25" height="11.08"/><rect class="cls-24" x="741.7" y="432.25" width="25" height="11.08"/><rect class="cls-24" x="774.24" y="432.25" width="25" height="11.08"/><path class="cls-24" d="M102.9,416.83,97.62,426a155.67,155.67,0,0,0,19.76,9.14l3.61-9.9A145,145,0,0,1,102.9,416.83Z" transform="translate(49.24)"/><path class="cls-24" d="M151.28,433.2l-1.82,10.32a160.17,160.17,0,0,0,21.65,1.76V434.83A147.19,147.19,0,0,1,151.28,433.2Z" transform="translate(49.24)"/><path class="cls-24" d="M176.84,141.18a148.36,148.36,0,0,1,19.8,1.81l1.81-10.31a157.92,157.92,0,0,0-21.61-2Z" transform="translate(49.24)"/><path class="cls-24" d="M47.79,364.15l-9.13,5.27a158.11,158.11,0,0,0,12.59,17.82l8.07-6.78A148.38,148.38,0,0,1,47.79,364.15Z" transform="translate(49.24)"/><path class="cls-24" d="M126.83,428.13l-3.6,9.88a155.25,155.25,0,0,0,21,5.51l1.82-10.32A145.69,145.69,0,0,1,126.83,428.13Z" transform="translate(49.24)"/></g><path class="cls-25" d="M241,396.77a5.86,5.86,0,1,1-5.86,5.86A5.86,5.86,0,0,1,241,396.77Z" transform="translate(49.24)"/><path class="cls-26" d="M224,394.44a5.86,5.86,0,1,1-5.86,5.86A5.86,5.86,0,0,1,224,394.44Z" transform="translate(49.24)"/><g class="cls-9"><path class="cls-27" d="M241.25,121.8A55.38,55.38,0,1,1,256.47,45,55.45,55.45,0,0,1,241.25,121.8Zm-.2-.3a55,55,0,1,0-76.33-15.12A55.08,55.08,0,0,0,241.05,121.5Z" transform="translate(49.24)"/><path class="cls-27" d="M157,111.56a63.92,63.92,0,0,0,28.23,23.37l-.7.47A65,65,0,0,1,163.29,31l.52.48A64.45,64.45,0,0,0,157,111.56Z" transform="translate(49.24)"/><path class="cls-27" d="M211.13,140.79l-.48-.7A64.33,64.33,0,1,0,179.21,19.52l-.67-.43a65,65,0,1,1,32.59,121.7Z" transform="translate(49.24)"/><path class="cls-27" d="M144.78,63.85l-.69-.13A67.46,67.46,0,0,1,161.52,29.3l.51.49A66.82,66.82,0,0,0,144.78,63.85Z" transform="translate(49.24)"/><path class="cls-27" d="M176.9,18l-.67-.43a67.39,67.39,0,0,1,54.4-6.19l-.13.69A66.72,66.72,0,0,0,176.9,18Z" transform="translate(49.24)"/><path class="cls-27" d="M212.73,143.19l-.46-.7a66.6,66.6,0,0,0,63.43-52.7l.69.14a67.35,67.35,0,0,1-63.66,53.26Z" transform="translate(49.24)"/><path class="cls-27" d="M179.51,138.74a70.09,70.09,0,0,1-31.34-95.29l.63.32a69.41,69.41,0,0,0,31.39,94.52Z" transform="translate(49.24)"/><path class="cls-27" d="M268.19,37.13A69.34,69.34,0,0,0,218.42,6.79l.07-.7a70.12,70.12,0,0,1,54.72,101l-.62-.31A69.54,69.54,0,0,0,268.19,37.13Z" transform="translate(49.24)"/><rect class="cls-27" x="157.5" y="107.39" width="7.72" height="2.47" transform="translate(16.09 108.11) rotate(-33.79)"/><rect class="cls-27" x="154.83" y="102.99" width="7.72" height="2.47" transform="translate(18.67 89.3) rotate(-28.79)"/><rect class="cls-27" x="152.55" y="98.37" width="7.72" height="2.47" transform="translate(22.35 71.56) rotate(-23.79)"/><rect class="cls-27" x="150.67" y="93.57" width="7.72" height="2.47" transform="translate(26.95 54.81) rotate(-18.78)"/><rect class="cls-27" x="149.23" y="88.62" width="7.72" height="2.47" transform="matrix(0.97, -0.24, 0.24, 0.97, 32.25, 39.03)"/><rect class="cls-27" x="148.22" y="83.57" width="7.72" height="2.47" transform="translate(38.07 24.23) rotate(-8.79)"/><rect class="cls-27" x="147.65" y="78.45" width="7.72" height="2.47" transform="translate(44.31 10.18) rotate(-3.79)"/><rect class="cls-27" x="150.16" y="70.67" width="2.47" height="7.72" transform="translate(122.94 224.32) rotate(-88.79)"/><rect class="cls-27" x="150.5" y="65.53" width="2.47" height="7.72" transform="translate(115.58 212.72) rotate(-83.79)"/><rect class="cls-27" x="267.93" y="78.3" width="2.47" height="7.72" transform="translate(207.61 340.85) rotate(-83.79)"/><rect class="cls-27" x="151.28" y="60.43" width="2.47" height="7.72" transform="translate(109.05 201.41) rotate(-78.8)"/><rect class="cls-27" x="267.15" y="83.39" width="2.47" height="7.72" transform="translate(179.89 333.57) rotate(-78.8)"/><rect class="cls-27" x="152.5" y="55.43" width="2.47" height="7.72" transform="translate(103.12 190.35) rotate(-73.79)"/><rect class="cls-27" x="265.93" y="88.4" width="2.47" height="7.72" transform="translate(153.24 323.05) rotate(-73.79)"/><rect class="cls-27" x="154.15" y="50.55" width="2.47" height="7.72" transform="translate(97.7 179.59) rotate(-68.79)"/><rect class="cls-27" x="264.28" y="93.28" width="2.47" height="7.72" transform="translate(128.12 309.51) rotate(-68.79)"/><rect class="cls-27" x="156.22" y="45.83" width="2.47" height="7.72" transform="translate(92.59 169.02) rotate(-63.8)"/><rect class="cls-27" x="262.2" y="98" width="2.47" height="7.72" transform="translate(104.97 293.25) rotate(-63.8)"/><rect class="cls-27" x="158.7" y="41.31" width="2.47" height="7.72" transform="translate(87.66 158.54) rotate(-58.79)"/><rect class="cls-27" x="259.73" y="102.52" width="2.47" height="7.72" transform="matrix(0.52, -0.86, 0.86, 0.52, 84.04, 274.51)"/><rect class="cls-27" x="161.56" y="37.02" width="2.47" height="7.72" transform="translate(82.87 148.08) rotate(-53.79)"/><rect class="cls-27" x="256.87" y="106.8" width="2.47" height="7.72" transform="translate(65.59 253.55) rotate(-53.79)"/><rect class="cls-27" x="253.65" y="110.82" width="2.47" height="7.72" transform="translate(49.92 230.86) rotate(-48.79)"/><rect class="cls-27" x="250.09" y="114.55" width="2.47" height="7.72" transform="translate(37.2 206.85) rotate(-43.79)"/><rect class="cls-27" x="233.04" y="125.96" width="2.47" height="7.72" transform="translate(16.79 105.41) rotate(-23.76)"/><rect class="cls-27" x="190.19" y="16" width="2.47" height="7.72" transform="translate(53.06 62.77) rotate(-18.81)"/><rect class="cls-27" x="228.24" y="127.83" width="2.47" height="7.72" transform="translate(19.06 80.91) rotate(-18.78)"/><rect class="cls-27" x="195.13" y="14.55" width="2.47" height="7.72" transform="translate(50.51 47.31) rotate(-13.78)"/><rect class="cls-27" x="200.19" y="13.54" width="2.47" height="7.72" transform="matrix(0.99, -0.15, 0.15, 0.99, 48.95, 31.01)"/><rect class="cls-27" x="205.31" y="12.98" width="2.47" height="7.72" transform="translate(48.58 13.64) rotate(-3.78)"/><rect class="cls-27" x="207.83" y="15.49" width="7.72" height="2.47" transform="translate(239.7 228.01) rotate(-88.78)"/><rect class="cls-27" x="212.98" y="15.82" width="7.72" height="2.47" transform="translate(225.65 230.77) rotate(-83.79)"/><rect class="cls-27" x="218.07" y="16.6" width="7.72" height="2.47" transform="translate(210.43 232.03) rotate(-78.76)"/><rect class="cls-27" x="223.07" y="17.82" width="7.72" height="2.47" transform="matrix(0.28, -0.96, 0.96, 0.28, 194.5, 231.64)"/><rect class="cls-27" x="227.96" y="19.48" width="7.72" height="2.47" transform="translate(177.87 229.32) rotate(-68.79)"/><rect class="cls-27" x="232.67" y="21.55" width="7.72" height="2.47" transform="translate(160.87 224.93) rotate(-63.79)"/></g><g class="cls-9"><rect class="cls-13" x="46.74" y="60.2" width="1" height="1.5" transform="translate(22.38 39.59) rotate(-36.14)"/><polygon class="cls-13" points="96.54 61.9 96.49 61.81 97.29 61.22 97.36 61.3 97.32 61.34 96.54 61.9"/><polygon class="cls-13" points="109.14 79.14 111.02 81.71 111.79 81.14 111.82 81.11 109.95 78.55 109.14 79.14"/><polygon class="cls-13" points="105.53 74.19 107.4 76.75 108.17 76.19 108.2 76.16 106.33 73.6 105.53 74.19"/><polygon class="cls-13" points="112.76 84.09 114.6 86.61 114.64 86.65 115.4 86.09 115.44 86.06 113.57 83.5 112.76 84.09"/><polygon class="cls-13" points="116.37 89.03 118.25 91.6 119.02 91.04 119.05 91 117.18 88.44 116.37 89.03"/><polygon class="cls-13" points="98.3 64.29 100.14 66.8 100.17 66.85 100.94 66.29 100.97 66.26 99.1 63.7 98.3 64.29"/><polygon class="cls-13" points="101.91 69.24 103.79 71.8 104.55 71.24 104.59 71.21 102.72 68.65 101.91 69.24"/><polygon class="cls-13" points="138.07 118.73 139.91 121.25 139.95 121.3 140.71 120.74 140.75 120.7 138.88 118.14 138.07 118.73"/><polygon class="cls-13" points="134.45 113.78 136.3 116.3 136.33 116.35 137.1 115.79 137.13 115.75 135.26 113.19 134.45 113.78"/><polygon class="cls-13" points="119.99 93.99 121.83 96.51 121.87 96.55 122.63 95.99 122.67 95.96 120.8 93.4 119.99 93.99"/><polygon class="cls-13" points="130.84 108.83 132.71 111.4 133.48 110.84 133.52 110.8 131.65 108.24 130.84 108.83"/><polygon class="cls-13" points="123.61 98.93 125.48 101.5 126.25 100.94 126.28 100.9 124.41 98.34 123.61 98.93"/><polygon class="cls-13" points="127.22 103.89 129.1 106.45 129.87 105.89 129.9 105.85 128.03 103.3 127.22 103.89"/><polygon class="cls-13" points="176.63 96.99 176.55 96.92 177.27 96.22 177.34 96.29 177.31 96.34 176.63 96.99"/><path class="cls-13" d="M125.26,94.78l-2.2-2.29,0,0,.69-.66,0,0L126,94.09ZM121,90.35l-2.2-2.28,0,0,.68-.65,0,0,2.17,2.25Zm-4.25-4.42-2.21-2.3.72-.69,2.21,2.3Zm-4.25-4.43-2.2-2.3.71-.68,0,0,2.17,2.26Zm-4.25-4.42-2.2-2.29,0,0,.69-.67,0,0L109,76.38ZM104,72.65l-2.21-2.29.73-.7,0,0L104.73,72Zm-4.25-4.42-2.21-2.29,0,0,.68-.65,0,0,2.16,2.25ZM95.51,63.8l-2.2-2.3.71-.68,0,0,2.16,2.25Zm-4.25-4.42-2.2-2.3.72-.7,0,0L92,58.69ZM87,55l-2.2-2.3.71-.68,0,0,2.17,2.26Zm-4.25-4.42-2.2-2.29,0,0,.68-.66,0,0,2.16,2.25ZM78.51,46.1l-2.2-2.3.71-.69,2.21,2.3Zm-4.25-4.42-.16-.16.73-.7L75,41Z" transform="translate(49.24)"/><rect class="cls-13" x="73.48" y="39.92" width="1" height="1.5" transform="translate(41.69 62.58) rotate(-43.84)"/><path class="cls-28" d="M199.67,140.25a63.22,63.22,0,1,0-40.4-79.76A63.21,63.21,0,0,0,199.67,140.25Z" transform="translate(49.24)"/><path class="cls-29" d="M218.93,49.49A27.45,27.45,0,1,1,184.3,67,27.46,27.46,0,0,1,218.93,49.49Z" transform="translate(49.24)"/><path class="cls-24" d="M234.46,107.82l9.75,7,6.14-6.28-7.18-9.6a40.55,40.55,0,0,0,4.18-7.44l11.92,1.16,2.18-8.52-11-4.71a39.39,39.39,0,0,0-.1-8.54l10.9-5-2.37-8.46L247,58.86a39.68,39.68,0,0,0-4.36-7.35l7-9.75-6.28-6.14-9.59,7.19a39.73,39.73,0,0,0-7.44-4.18l1.15-11.93-8.51-2.18-4.71,11a39.37,39.37,0,0,0-8.54.09l-5-10.9-8.46,2.37L193.66,39a39.6,39.6,0,0,0-7.34,4.36l-9.75-7-6.14,6.28,7.18,9.6a40.8,40.8,0,0,0-4.18,7.43L161.5,58.55l-2.17,8.52,11,4.71a40,40,0,0,0,.09,8.54l-10.89,5,2.37,8.46,11.89-1.43a40.19,40.19,0,0,0,4.35,7.35l-7,9.74,6.29,6.15,9.59-7.19a40.3,40.3,0,0,0,7.44,4.18l-1.15,11.93,8.51,2.18,4.71-11a40.7,40.7,0,0,0,8.54-.1l5,10.9,8.46-2.37-1.42-11.89A39.93,39.93,0,0,0,234.46,107.82Zm-17.33-8.18a25,25,0,0,1-13.48-48.11c16-4.48,27.58,5.83,30.79,17.31A25,25,0,0,1,217.13,99.64Z" transform="translate(49.24)"/><path class="cls-13" d="M123.88,127.47l6.12,4.37,3.86-4-4.51-6A25.17,25.17,0,0,0,132,117.2l7.49.73,1.37-5.35-6.92-3a24.66,24.66,0,0,0-.06-5.36l6.85-3.12-1.49-5.31-7.47.9A24.35,24.35,0,0,0,129,92.12L133.38,86l-3.95-3.85-6,4.51A25.55,25.55,0,0,0,118.74,84l.72-7.49-5.34-1.36-3,6.91a24.76,24.76,0,0,0-5.37.06l-3.11-6.84-5.31,1.49.89,7.46A25,25,0,0,0,93.65,87l-6.12-4.37-3.86,3.94,4.51,6a25.76,25.76,0,0,0-2.62,4.67l-7.49-.73-1.37,5.35,6.92,3a24.66,24.66,0,0,0,.06,5.36l-6.85,3.12,1.49,5.31,7.47-.9a24.89,24.89,0,0,0,2.73,4.61l-4.37,6.13,3.95,3.85,6-4.51a25.88,25.88,0,0,0,4.67,2.63l-.72,7.48,5.35,1.37,3-6.91a25.4,25.4,0,0,0,5.37-.06l3.11,6.84,5.32-1.49-.9-7.46A25.26,25.26,0,0,0,123.88,127.47ZM113,122.33a15.68,15.68,0,1,1-8.47-30.2c10-2.82,17.32,3.66,19.34,10.87A15.67,15.67,0,0,1,113,122.33Z" transform="translate(49.24)"/><path class="cls-13" d="M67.36,60l4.82,3.44,3-3.11-3.55-4.74a20.79,20.79,0,0,0,2.07-3.68l5.9.57,1.07-4.21-5.44-2.33a20,20,0,0,0,0-4.23l5.39-2.45L79.44,35l-5.88.71a20.31,20.31,0,0,0-2.16-3.64l3.44-4.82-3.11-3L67,27.79a19.85,19.85,0,0,0-3.68-2.07l.57-5.9-4.21-1.08-2.33,5.45a20,20,0,0,0-4.23,0l-2.45-5.39L46.48,20l.7,5.88a19.12,19.12,0,0,0-3.63,2.16l-4.82-3.45-3,3.11,3.55,4.75a19.85,19.85,0,0,0-2.07,3.68l-5.9-.57L30.2,39.79l5.44,2.33a19.88,19.88,0,0,0,0,4.22L30.3,48.8,31.47,53l5.88-.7a20.58,20.58,0,0,0,2.16,3.63l-3.44,4.82,3.11,3,4.74-3.56a19.3,19.3,0,0,0,3.68,2.07L47,68.18l4.21,1.08,2.33-5.45a19.86,19.86,0,0,0,4.22,0l2.46,5.39L64.43,68l-.7-5.88A19.62,19.62,0,0,0,67.36,60ZM58.79,55.9a12.36,12.36,0,0,1-6.67-23.8C60,29.89,65.76,35,67.35,40.67A12.35,12.35,0,0,1,58.79,55.9Z" transform="translate(49.24)"/><circle class="cls-13" cx="104.7" cy="44" r="4.95"/><circle class="cls-13" cx="108.77" cy="107.81" r="4.95" transform="translate(34.16 197.9) rotate(-80.78)"/></g><g class="cls-9"><polygon class="cls-13" points="557.2 421.59 557.19 406.37 570.37 413.97 557.2 421.59"/><line class="cls-10" x1="299.25" y1="414.03" x2="559" y2="414.03"/></g><g class="cls-9"><polygon class="cls-13" points="518.2 406.37 518.19 391.15 531.37 398.76 518.2 406.37"/><line class="cls-10" x1="324.49" y1="398.82" x2="520" y2="398.82"/></g><g class="cls-9"><polygon class="cls-13" points="434.03 371.76 434.02 356.54 447.2 364.15 434.03 371.76"/><line class="cls-10" x1="347.59" y1="364.2" x2="435.83" y2="364.2"/></g><g class="cls-9"><polygon class="cls-13" points="339.64 390.45 330.31 390.45 340.1 376.37 349.43 376.37 339.64 390.45"/><polygon class="cls-13" points="355.14 390.45 345.81 390.45 355.6 376.37 364.93 376.37 355.14 390.45"/><polygon class="cls-13" points="370.64 390.45 361.31 390.45 371.1 376.37 380.43 376.37 370.64 390.45"/><polygon class="cls-13" points="386.14 390.45 376.81 390.45 386.6 376.37 395.93 376.37 386.14 390.45"/><polygon class="cls-13" points="401.64 390.45 392.31 390.45 402.1 376.37 411.43 376.37 401.64 390.45"/><polygon class="cls-13" points="417.14 390.45 407.81 390.45 417.6 376.37 426.94 376.37 417.14 390.45"/><polygon class="cls-13" points="432.64 390.45 423.31 390.45 433.1 376.37 442.44 376.37 432.64 390.45"/></g><path class="cls-30" d="M281.35,223.29a53.62,53.62,0,1,0-53.62-53.61A53.62,53.62,0,0,0,281.35,223.29Z" transform="translate(49.24)"/><path class="cls-31" d="M281.35,143.68a21.85,21.85,0,1,1-21.84,21.84A21.85,21.85,0,0,1,281.35,143.68Z" transform="translate(49.24)"/><path class="cls-32" d="M281.35,157.6a7.92,7.92,0,1,1-7.92,7.92A7.93,7.93,0,0,1,281.35,157.6Z" transform="translate(49.24)"/><path class="cls-33" d="M307.54,183.93l9.09,2.85,3.09-6.27L311.91,175a32.2,32.2,0,0,0,1.32-6.66l9.3-2.08-.46-7-9.49-.84a31.3,31.3,0,0,0-2.19-6.43l7-6.45-3.88-5.81-8.64,4a32.18,32.18,0,0,0-5.11-4.47l2.84-9.1-6.27-3.09L290.87,135a32.87,32.87,0,0,0-6.66-1.32l-2.08-9.3-7,.46-.84,9.5a31.87,31.87,0,0,0-6.43,2.18l-6.45-7-5.81,3.89,4,8.63a31.33,31.33,0,0,0-4.47,5.12l-9.1-2.85L243,150.53l7.81,5.48a32.78,32.78,0,0,0-1.32,6.65l-9.3,2.09.46,7,9.5.83a31.46,31.46,0,0,0,2.18,6.43l-7,6.45,3.89,5.81,8.64-4a30.91,30.91,0,0,0,5.11,4.48l-2.85,9.09,6.27,3.09,5.48-7.81a32.07,32.07,0,0,0,6.66,1.32l2.08,9.3,7-.46.84-9.49a31.1,31.1,0,0,0,6.43-2.19l6.45,7,5.81-3.88-4-8.64A31.39,31.39,0,0,0,307.54,183.93ZM292.41,182a19.88,19.88,0,1,1-22.11-33c11-7.34,22.3-2.42,27.57,5.47A19.87,19.87,0,0,1,292.41,182Z" transform="translate(49.24)"/><g class="cls-34"><polygon class="cls-24" points="748.13 312.96 814.32 312.96 814.32 313.8 748.48 313.8 715.33 346.94 637.17 346.94 637.17 346.1 714.99 346.1 748.13 312.96"/></g><g class="cls-34"><polygon class="cls-24" points="765.55 333.45 712.44 386.55 601.54 386.55 601.54 387.39 712.79 387.39 765.9 334.29 823.97 334.29 823.97 333.45 765.55 333.45"/></g><g class="cls-34"><polygon class="cls-24" points="770.22 342.15 827.8 342.15 827.8 342.99 770.57 342.99 713.43 400.13 645.79 400.13 645.79 399.29 713.08 399.29 770.22 342.15"/></g><path class="cls-8" d="M582.36,346.52a5.57,5.57,0,1,1,5.57,5.56A5.56,5.56,0,0,1,582.36,346.52Z" transform="translate(49.24)"/><path class="cls-8" d="M592.17,399.71a5.56,5.56,0,1,1,5.56,5.56A5.56,5.56,0,0,1,592.17,399.71Z" transform="translate(49.24)"/><path class="cls-8" d="M543.22,387.11a5.56,5.56,0,1,1,5.56,5.56A5.56,5.56,0,0,1,543.22,387.11Z" transform="translate(49.24)"/><path class="cls-8" d="M710,333.87a5.56,5.56,0,1,1,5.56,5.56A5.56,5.56,0,0,1,710,333.87Z" transform="translate(49.24)"/><path class="cls-8" d="M693.23,313.38a5.56,5.56,0,1,1,5.56,5.56A5.56,5.56,0,0,1,693.23,313.38Z" transform="translate(49.24)"/><g class="cls-34"><rect class="cls-24" x="644.48" y="362.51" width="67.55" height="0.84"/><path class="cls-8" d="M591,362.93a5.56,5.56,0,1,1,5.56,5.56A5.56,5.56,0,0,1,591,362.93Z" transform="translate(49.24)"/><path class="cls-8" d="M657.24,362.93a5.56,5.56,0,1,1,5.56,5.56A5.56,5.56,0,0,1,657.24,362.93Z" transform="translate(49.24)"/></g></g></g></g></svg>