<svg xmlns="http://www.w3.org/2000/svg" xmlns:xlink="http://www.w3.org/1999/xlink" viewBox="0 0 800 500"
  height="500" width="800">
  <defs>
    <style>
      .cls-15 {
        fill: url(#linear-gradient-4);
      }.cls-16 {
        fill: url(#linear-gradient-5);
      }
      .cls-18 {
        fill: #b7cde2;
      }   .cls-8 {
        fill: #9bb9d3;
      } .cls-27 {
        fill: url(#linear-gradient-8);
      }
    </style>
    <radialGradient id="radial-gradient" cx="133.31" cy="-7.8" r="171.23"
      gradientTransform="translate(211.3 199.14) rotate(90)" gradientUnits="userSpaceOnUse">
      <stop offset="0" stop-color="#4d7ea3" />
      <stop offset="0.13" stop-color="#5b88aa" stop-opacity="0.92" />
      <stop offset="0.36" stop-color="#80a3bd" stop-opacity="0.71" />
      <stop offset="0.68" stop-color="#bccedc" stop-opacity="0.38" />
      <stop offset="1" stop-color="#fff" stop-opacity="0" />
    </radialGradient>
    <linearGradient id="linear-gradient" x1="-696.09" y1="25.46" x2="-472.82" y2="25.46"
      gradientTransform="matrix(0, -1, -1, 0, 211.3, -276.05)" gradientUnits="userSpaceOnUse">
      <stop offset="0" stop-color="#e2e7e7" />
      <stop offset="0.44" stop-color="#f0f3f3" />
      <stop offset="1" stop-color="#fff" />
    </linearGradient>
    <linearGradient id="linear-gradient-2" x1="-686.94" y1="25.46" x2="-481.97" y2="25.46"
      gradientTransform="matrix(0, -1, -1, 0, 211.3, -276.05)" gradientUnits="userSpaceOnUse">
      <stop offset="0" stop-color="#fff" />
      <stop offset="0.56" stop-color="#f0f3f3" />
      <stop offset="1" stop-color="#e2e7e7" />
    </linearGradient>
    <radialGradient id="radial-gradient-2" cx="113.83" cy="28.06" r="106.67"
      gradientTransform="translate(211.3 199.14) rotate(90)" gradientUnits="userSpaceOnUse">
      <stop offset="0" stop-color="#8498a6" />
      <stop offset="0.16" stop-color="#879aa8" stop-opacity="0.98" />
      <stop offset="0.32" stop-color="#8fa2ae" stop-opacity="0.91" />
      <stop offset="0.47" stop-color="#9eaeb9" stop-opacity="0.79" />
      <stop offset="0.62" stop-color="#b2bfc7" stop-opacity="0.63" />
      <stop offset="0.77" stop-color="#ccd4da" stop-opacity="0.41" />
      <stop offset="0.92" stop-color="#ebeff1" stop-opacity="0.16" />
      <stop offset="1" stop-color="#fff" stop-opacity="0" />
    </radialGradient>
    <linearGradient id="linear-gradient-3" x1="-608.1" y1="24.78" x2="-561.27" y2="24.78"
      xlink:href="#linear-gradient" />
    <linearGradient id="linear-gradient-4" x1="-628.86" y1="24.78" x2="-540.55" y2="24.78"
      xlink:href="#linear-gradient-2" />
    <linearGradient id="linear-gradient-5" x1="-675.06" y1="24.78" x2="-494.37" y2="24.78"
      gradientTransform="matrix(0, -1, -1, 0, 211.3, -276.05)" gradientUnits="userSpaceOnUse">
      <stop offset="0" stop-color="#fff" />
      <stop offset="0.84" stop-color="#f0f5f5" />
      <stop offset="1" stop-color="#edf2f2" />
    </linearGradient>
    <radialGradient id="radial-gradient-3" cx="-289.22" cy="-81.63" r="67.78"
      gradientTransform="translate(68.01 334.93) rotate(108.07)" gradientUnits="userSpaceOnUse">
      <stop offset="0" stop-color="#4d7ea3" />
      <stop offset="0.34" stop-color="#96b3c9" stop-opacity="0.59" />
      <stop offset="0.65" stop-color="#cfdce6" stop-opacity="0.27" />
      <stop offset="0.87" stop-color="#f2f5f8" stop-opacity="0.07" />
      <stop offset="1" stop-color="#fff" stop-opacity="0" />
    </radialGradient>
    <linearGradient id="linear-gradient-6" x1="-212.43" y1="-70.7" x2="-153.6" y2="-70.7"
      gradientTransform="matrix(0.31, -0.95, -0.95, -0.31, 215.21, -114.94)" xlink:href="#linear-gradient" />
    <radialGradient id="radial-gradient-4" cx="202.15" cy="116.73" r="57.46"
      gradientTransform="matrix(1, 0, 0, -1, 49.24, 535.83)" xlink:href="#radial-gradient" />
    <linearGradient id="linear-gradient-7" x1="-476.86" y1="-90.22" x2="-430.03" y2="-90.22"
      xlink:href="#linear-gradient" />
    <linearGradient id="linear-gradient-8" x1="-497.6" y1="-90.22" x2="-409.34" y2="-90.22"
      gradientTransform="matrix(0, -1, -1, 0, 211.3, -276.05)" gradientUnits="userSpaceOnUse">
      <stop offset="0" stop-color="#fff" />
      <stop offset="0.77" stop-color="#f0f4f4" />
      <stop offset="1" stop-color="#ebf0f0" />
    </linearGradient>
  </defs>
        <path id="gear" class="cls-15"
          d="M214.58,328.37l9.74,3.05,3.31-6.73-8.37-5.86a34,34,0,0,0,1.42-7.14l10-2.22-.5-7.51L220,301.07a33.81,33.81,0,0,0-2.34-6.9l7.51-6.91L221,281l-9.26,4.29a34.73,34.73,0,0,0-5.48-4.79l3-9.75-6.75-3.26-5.86,8.37a33.35,33.35,0,0,0-7.13-1.41l-2.23-10-7.51.49-.88,10.18a33.69,33.69,0,0,0-6.91,2.34l-6.91-7.5-6.22,4.17,4.28,9.25a35.18,35.18,0,0,0-4.79,5.48l-9.74-3.05-3.24,6.7,8.36,5.88a33.93,33.93,0,0,0-1.4,7.14l-10,2.22.49,7.51,10.19.89a33.78,33.78,0,0,0,2.33,6.9l-7.5,6.91,4.17,6.23,9.26-4.29a34.66,34.66,0,0,0,5.47,4.79l-3,9.74,6.73,3.31,5.86-8.37a34.09,34.09,0,0,0,7.14,1.42l2.23,10,7.5-.49.89-10.18A33.72,33.72,0,0,0,201,339.8l6.91,7.51,6.24-4.17-4.29-9.26A34.13,34.13,0,0,0,214.58,328.37Zm-16.21-2A21.29,21.29,0,0,1,174.67,291c11.79-7.88,23.9-2.6,29.55,5.85a21.3,21.3,0,0,1-5.85,29.51Z"
          transform="translate(45.56 -6.53)" />
        <path id="gear-2" data-name="gear" class="cls-16"
          d="M244,349l19.95,6.25,6.77-13.76-17.15-12a70.68,70.68,0,0,0,2.9-14.61l20.36-4.57-1-15.3-20.7-1.83a70.81,70.81,0,0,0-4.8-14.12l15.38-14.14-8.57-12.74L238.12,261a69,69,0,0,0-11.22-9.82l6.25-19.95-13.76-6.77-12,17.15a69.88,69.88,0,0,0-14.61-2.89l-4.56-20.42-15.31,1.07-1.83,20.82A70.33,70.33,0,0,0,157,245l-14.15-15.39-12.74,8.57,8.82,18.95a69.91,69.91,0,0,0-9.82,11.22l-19.94-6.25-6.77,13.76,17.14,12a71.33,71.33,0,0,0-2.89,14.61l-20.36,4.56,1.07,15.31,20.82,1.83A69.47,69.47,0,0,0,123,338.3l-15.39,14.15,8.58,12.74,18.94-8.82a69.78,69.78,0,0,0,11.21,9.82l-6.23,19.94,13.75,6.78,12-17.15a69.88,69.88,0,0,0,14.61,2.89L185,399l15.3-1,1.84-20.83a69.68,69.68,0,0,0,14.11-4.8l14.15,15.38,12.74-8.52-8.82-18.95A69.1,69.1,0,0,0,244,349Zm-27.06,5a54.65,54.65,0,1,1,15-75.84l0,.06A54.66,54.66,0,0,1,216.89,354Z"
          transform="translate(45.56 -6.53)" />
<path id="gear-4" data-name="gear" class="cls-18"
        d="M251.26,115.55l10.45,7.5,6.58-6.73L260.6,106a43.32,43.32,0,0,0,4.48-8l12.77,1.24,2.34-9.13-11.79-5a41.79,41.79,0,0,0-.11-9.15L280,70.61l-2.54-9.06L264.7,63.08A42.26,42.26,0,0,0,260,55.2l7.5-10.45-6.73-6.58-10.28,7.71a42.19,42.19,0,0,0-8-4.48l1.23-12.79-9.12-2.33-5,11.79a42.5,42.5,0,0,0-9.16.09L215.1,26.48,206,29l1.5,12.77a42.56,42.56,0,0,0-7.87,4.68L189.22,39l-6.58,6.73L190.34,56a43.32,43.32,0,0,0-4.48,8l-12.79-1.2-2.32,9.13,11.79,5a42.5,42.5,0,0,0,.09,9.16L171,91.43l2.54,9.07L186.24,99a43.49,43.49,0,0,0,4.67,7.88l-7.5,10.43,6.74,6.59,10.27-7.7a43.41,43.41,0,0,0,8,4.48l-1.24,12.78,9.12,2.34L221.33,124a43.06,43.06,0,0,0,9.15-.11l5.36,11.69,9.07-2.54-1.52-12.75A43.31,43.31,0,0,0,251.26,115.55Zm-18.57-8.77a26.79,26.79,0,0,1-14.45-51.56c17.15-4.8,29.56,6.25,33,18.55A26.79,26.79,0,0,1,232.69,106.78Z"
        transform="translate(45.56 -6.53)" />
      <path id="gear-5" data-name="gear" class="cls-8"
        d="M132.76,136.61l6.56,4.68,4.13-4.29-4.83-6.43a27.17,27.17,0,0,0,2.84-5l8,.78,1.46-5.73-7.41-3.22a26.23,26.23,0,0,0-.07-5.74l7.35-3.34-1.6-5.7-8,1a25.5,25.5,0,0,0-3-4.9l4.7-6.56L138.71,88l-6.43,4.83a27.71,27.71,0,0,0-5-2.85l.77-8-5.72-1.45-3.22,7.4a26.32,26.32,0,0,0-5.75.07L110,80.68l-5.69,1.59,1,8a26.84,26.84,0,0,0-4.9,3L93.8,88.55l-4.13,4.22L94.5,99.2a27.7,27.7,0,0,0-2.81,5l-8-.78-1.47,5.73,7.41,3.21a27,27,0,0,0,.07,5.75l-7.34,3.34,1.59,5.69,8-1a26.42,26.42,0,0,0,2.92,4.94l-4.68,6.57,4.23,4.12,6.43-4.83a27.74,27.74,0,0,0,5,2.82l-.77,8,5.73,1.46,3.22-7.4a27,27,0,0,0,5.75-.07l3.33,7.33,5.7-1.59-1-8A27.44,27.44,0,0,0,132.76,136.61ZM121.1,131.1A16.81,16.81,0,0,1,112,98.73c10.72-3,18.56,3.92,20.73,11.65a16.79,16.79,0,0,1-11.63,20.71Z"
        transform="translate(45.56 -6.53)" />
      <path id="gear-6" data-name="gear" class="cls-8"
        d="M72.19,64.3,77.35,68l3.22-3.34-3.81-5.08A21.79,21.79,0,0,0,79,55.63l6.32.61,1.15-4.51-5.83-2.5a21.44,21.44,0,0,0,0-4.53l5.78-2.63-1.27-4.56-6.3.76a21.53,21.53,0,0,0-2.31-3.9L80.2,29.2,76.87,26,71.8,29.78a21.2,21.2,0,0,0-3.94-2.22l.61-6.32L64,20.08l-2.5,5.84a21.44,21.44,0,0,0-4.53,0L54.3,20.15l-4.49,1.28.75,6.3a20.94,20.94,0,0,0-3.89,2.32l-5.16-3.7-3.22,3.34,3.81,5.09a20.65,20.65,0,0,0-2.22,3.94l-6.33-.61-1.19,4.53,5.83,2.5a21.34,21.34,0,0,0,0,4.52L32.47,52.3l1.26,4.5,6.3-.75a22.16,22.16,0,0,0,2.31,3.89L38.66,65.1,42,68.32l5.08-3.82A20.12,20.12,0,0,0,51,66.72l-.64,6.35,4.51,1.15,2.5-5.84a21.34,21.34,0,0,0,4.52,0l2.64,5.78,4.51-1.29-.75-6.3A21,21,0,0,0,72.19,64.3ZM63,59.91A13.25,13.25,0,0,1,55.86,34.4C64.3,32,70.47,37.51,72.18,43.58A13.24,13.24,0,0,1,63,59.9Z"
        transform="translate(45.56 -6.53)" />
        <path id="gear-7" data-name="gear" class="cls-27"
        d="M329.58,197.11l9.74,3.06,3.31-6.72-8.37-5.91a34,34,0,0,0,1.42-7.14l10-2.22-.49-7.51-10.17-.9a33.75,33.75,0,0,0-2.35-6.89l7.51-6.91L336,149.74,326.72,154a34.73,34.73,0,0,0-5.48-4.79l3.05-9.75-6.72-3.31-5.85,8.49a35.54,35.54,0,0,0-7.14-1.41l-2.23-10-7.5.5L294,144a33.89,33.89,0,0,0-6.89,2.33l-6.92-7.5L273.92,143l4.28,9.25a33.87,33.87,0,0,0-4.79,5.49l-9.75-3.06-3.25,6.67,8.37,5.87a35.3,35.3,0,0,0-1.41,7.13l-10,2.24.5,7.5,10.18.89a34.31,34.31,0,0,0,2.33,6.89l-7.5,6.91,4.17,6.23,9.26-4.29a32.52,32.52,0,0,0,5.48,4.8l-3.06,9.74,6.72,3.31,5.87-8.36a34.85,34.85,0,0,0,7.14,1.41l2.23,10,7.5-.5.9-10.17a33.32,33.32,0,0,0,6.89-2.34l6.92,7.5,6.22-4.16-4.29-9.26A33.18,33.18,0,0,0,329.58,197.11ZM313.37,195a21.3,21.3,0,1,1-25.24-34.33c.5-.36,1-.71,1.54-1,11.79-7.87,23.9-2.6,29.55,5.86A21.29,21.29,0,0,1,313.37,195Z"
        transform="translate(45.56 -6.53)"/>
  </svg>