<svg id="Layer_1" data-name="Layer 1" xmlns="http://www.w3.org/2000/svg" xmlns:xlink="http://www.w3.org/1999/xlink" viewBox="0 0 220 220"><defs><style>.cls-1{fill:url(#linear-gradient);}.cls-2{fill:url(#linear-gradient-2);}.cls-3{fill:url(#linear-gradient-3);}.cls-4{fill:url(#linear-gradient-4);}.cls-5{fill:url(#linear-gradient-5);}.cls-6{fill:url(#linear-gradient-6);}.cls-7{fill:url(#linear-gradient-7);}.cls-8{fill:url(#linear-gradient-8);}.cls-9{fill:url(#linear-gradient-9);}.cls-10{fill:url(#linear-gradient-10);}</style><linearGradient id="linear-gradient" x1="190.39" y1="150.29" x2="212.17" y2="150.29" gradientUnits="userSpaceOnUse"><stop offset="0" stop-color="#b3862a"/><stop offset="0.98" stop-color="#ecdea0"/></linearGradient><linearGradient id="linear-gradient-2" x1="161.35" y1="159.37" x2="183.13" y2="159.37" xlink:href="#linear-gradient"/><linearGradient id="linear-gradient-3" x1="132.3" y1="164.81" x2="154.08" y2="164.81" xlink:href="#linear-gradient"/><linearGradient id="linear-gradient-4" x1="103.26" y1="164.81" x2="125.04" y2="164.81" xlink:href="#linear-gradient"/><linearGradient id="linear-gradient-5" x1="74.22" y1="168.44" x2="96" y2="168.44" xlink:href="#linear-gradient"/><linearGradient id="linear-gradient-6" x1="45.18" y1="182.96" x2="66.96" y2="182.96" xlink:href="#linear-gradient"/><linearGradient id="linear-gradient-7" x1="16.14" y1="186.6" x2="37.92" y2="186.6" xlink:href="#linear-gradient"/><linearGradient id="linear-gradient-8" x1="16.14" y1="123.07" x2="37.92" y2="123.07" xlink:href="#linear-gradient"/><linearGradient id="linear-gradient-9" x1="41.55" y1="101.29" x2="63.33" y2="101.29" xlink:href="#linear-gradient"/><linearGradient id="linear-gradient-10" x1="1.62" y1="94.03" x2="219.36" y2="94.03" xlink:href="#linear-gradient"/></defs><title>innovation</title><path class="cls-1" d="M208.54,95.84H194a3.63,3.63,0,0,0-3.63,3.63V201.12a3.63,3.63,0,0,0,3.63,3.63h14.52a3.64,3.64,0,0,0,3.63-3.63V99.47A3.64,3.64,0,0,0,208.54,95.84Zm-3.63,101.64h-7.26V103.1h7.26Z"/><path class="cls-2" d="M179.5,114H165a3.63,3.63,0,0,0-3.63,3.63v83.5a3.63,3.63,0,0,0,3.63,3.63H179.5a3.64,3.64,0,0,0,3.63-3.63v-83.5A3.64,3.64,0,0,0,179.5,114Zm-3.63,83.49h-7.26V121.25h7.26Z"/><path class="cls-3" d="M150.45,124.88a3.79,3.79,0,0,0-.88.11l-14.52,3.63a3.65,3.65,0,0,0-2.75,3.52v69a3.64,3.64,0,0,0,3.63,3.63h14.52a3.63,3.63,0,0,0,3.63-3.63V128.51A3.62,3.62,0,0,0,150.45,124.88Zm-3.62,72.6h-7.26V135l7.26-1.82Z"/><path class="cls-4" d="M122.3,128.62,107.78,125a3.65,3.65,0,0,0-4.41,2.64,3.79,3.79,0,0,0-.11.88v72.61a3.64,3.64,0,0,0,3.63,3.63h14.52a3.63,3.63,0,0,0,3.63-3.63v-69A3.64,3.64,0,0,0,122.3,128.62Zm-4.52,68.86h-7.26V133.16l7.26,1.82Z"/><path class="cls-5" d="M93.76,132.42a3.62,3.62,0,0,0-4,.79L75.29,147.73a3.63,3.63,0,0,0-1.07,2.56v50.83a3.64,3.64,0,0,0,3.63,3.63H92.37A3.63,3.63,0,0,0,96,201.12V135.77A3.63,3.63,0,0,0,93.76,132.42Zm-5,65.06H81.48V151.8l7.26-7.26Z"/><path class="cls-6" d="M64.72,161.46a3.62,3.62,0,0,0-3.95.79L46.25,176.77a3.63,3.63,0,0,0-1.07,2.56v21.79a3.64,3.64,0,0,0,3.63,3.63H63.33A3.63,3.63,0,0,0,67,201.12V164.81A3.63,3.63,0,0,0,64.72,161.46Zm-5,36H52.44V180.84l7.26-7.26Z"/><path class="cls-7" d="M36.86,184,22.34,169.51a3.64,3.64,0,0,0-6.2,2.56v29.05a3.64,3.64,0,0,0,3.63,3.63H34.29a3.63,3.63,0,0,0,3.63-3.63V186.59A3.62,3.62,0,0,0,36.86,184Zm-6.2,13.45H23.4V180.84l7.26,7.26Z"/><path class="cls-8" d="M34.29,99.47H19.77a3.64,3.64,0,0,0-3.63,3.63V143a3.63,3.63,0,0,0,6.2,2.57l14.52-14.52a3.62,3.62,0,0,0,1.06-2.57V103.1A3.63,3.63,0,0,0,34.29,99.47ZM30.66,127l-7.26,7.26V106.73h7.26Z"/><path class="cls-9" d="M59.7,81.32H45.18A3.64,3.64,0,0,0,41.55,85v32.67a3.63,3.63,0,0,0,6.2,2.57l14.52-14.52a3.62,3.62,0,0,0,1.06-2.57V85A3.63,3.63,0,0,0,59.7,81.32ZM56.07,101.6l-7.26,7.26V88.58h7.26Z"/><path class="cls-10" d="M218.34,71.51l-24.6-24.63A6.93,6.93,0,0,0,194,45a7.26,7.26,0,0,0-14.52,0,6.91,6.91,0,0,0,.27,1.86L173,53.68A50.74,50.74,0,0,0,85.75,38.24L66.87,24.08a5.83,5.83,0,0,0,.09-.84,7.26,7.26,0,1,0-14.52,0,7.89,7.89,0,0,0,.11,1.09L3,64a3.63,3.63,0,0,0,4.54,5.67L57.08,30a7.11,7.11,0,0,0,5.47-.07l19,14.28a50.47,50.47,0,0,0,5.18,59.57,2.73,2.73,0,0,0-.6.4L76,114.31l-2.88-2.88a3.62,3.62,0,0,0-5.13,0L24.47,155a3.62,3.62,0,0,0,0,5.13L35.36,171a3.62,3.62,0,0,0,5.13,0l43.56-43.56a3.62,3.62,0,0,0,0-5.13l-2.88-2.88L91.31,109.3a3.91,3.91,0,0,0,.4-.6,50.65,50.65,0,0,0,83.37-46.87l9.8-9.8a6.51,6.51,0,0,0,3.71,0l24.62,24.62a3.63,3.63,0,0,0,5.13-5.14ZM37.92,163.31l-5.75-5.76,38.42-38.42,5.76,5.75ZM125,26.87a43.6,43.6,0,0,1,42.11,32.62L140.24,86.41a6.91,6.91,0,0,0-6.19-1.17l-9.15-16a14.46,14.46,0,1,0-21.43-19.43,13.44,13.44,0,0,0-.89,1.08l-11-8.26A43.47,43.47,0,0,1,125,26.87Zm-3.63,32.67a7.26,7.26,0,1,1-7.26-7.26A7.26,7.26,0,0,1,121.41,59.54ZM125,114A43.48,43.48,0,0,1,87.43,48.57l12.38,9.28a14.31,14.31,0,0,0,19,15.37l10,17.5a7.23,7.23,0,0,0,5.57,8.56,6.74,6.74,0,0,0,1,.14s0,0,.06,0a3.91,3.91,0,0,0,.49,0A7.24,7.24,0,0,0,143,94L168.5,68.41c0,.67.11,1.34.11,2A43.61,43.61,0,0,1,125,114Z"/></svg>