<svg id="Layer_1" data-name="Layer 1" xmlns="http://www.w3.org/2000/svg" xmlns:xlink="http://www.w3.org/1999/xlink" viewBox="0 0 220 220"><defs><style>.cls-1{fill:url(#linear-gradient);}.cls-2{fill:url(#linear-gradient-2);}.cls-3{fill:url(#linear-gradient-3);}</style><linearGradient id="linear-gradient" x1="2.54" y1="110.06" x2="218.44" y2="110.06" gradientUnits="userSpaceOnUse"><stop offset="0" stop-color="#b3862a"/><stop offset="0.98" stop-color="#ecdea0"/></linearGradient><linearGradient id="linear-gradient-2" x1="52.05" y1="119.54" x2="74.49" y2="119.54" xlink:href="#linear-gradient"/><linearGradient id="linear-gradient-3" x1="96.11" y1="50.66" x2="124.7" y2="50.66" xlink:href="#linear-gradient"/></defs><title>invest</title><path class="cls-1" d="M210.42,60.88a4.37,4.37,0,1,0-6.18,6.18,18.42,18.42,0,0,1-26.05,26,.82.82,0,0,0-.22-.17,81.33,81.33,0,0,0-24.73-22.71A46.57,46.57,0,1,0,63.88,49.08a39,39,0,0,0-11.26-1.84c-4.65,0-8.07,2.94-8.6,7.24-.31,1.88-.09,4.64.92,13.63l.92,8.6A77.83,77.83,0,0,0,26,100.47l-12.71,2.59A13.44,13.44,0,0,0,2.54,116.34v28.24a13.39,13.39,0,0,0,10.79,13.24l12.76,2.54a70.05,70.05,0,0,0,9.16,13.73,29,29,0,0,0,8.6,33.28,32.6,32.6,0,0,0,20.69,7.28,33.73,33.73,0,0,0,23.06-9.12l3.07-2.9a95,95,0,0,0,34.12-1l4.34,4.12a32,32,0,0,0,22.23,8.73h.92s.09,0,.13,0a32.56,32.56,0,0,0,22.71-10c9.21-9.73,10.31-24.38,3-35.87a65.16,65.16,0,0,0,12.54-38.23v-3.46a59.58,59.58,0,0,0-5.09-20.13,27.18,27.18,0,0,0,24.82-45.86Zm-100-46.57a37.73,37.73,0,0,1,21.1,69.06c-.36.26-.71.83-1,.83H90.45c-.17,0-.39-.3-.61-.44a37.7,37.7,0,0,1-17.14-29c-.09-1-.09-1.84-.09-2.67A37.86,37.86,0,0,1,110.4,14.31Zm59.2,151a4.83,4.83,0,0,0-.48,5.61,4.1,4.1,0,0,0,.43.7c6.36,8.29,6,19.51-.83,26.75a23,23,0,0,1-16.57,7.28h-.84a23.29,23.29,0,0,1-16.18-6.27l-5.7-5.44a5.2,5.2,0,0,0-3.72-1.45,3.9,3.9,0,0,0-1,.14,86.57,86.57,0,0,1-34.38,1.09,4.59,4.59,0,0,0-.74,0,5.11,5.11,0,0,0-3.73,1.44l-4.3,4.08a25.06,25.06,0,0,1-16,6.67,24.05,24.05,0,0,1-16.18-5.22A20.24,20.24,0,0,1,44,176a4.8,4.8,0,0,0,.48-3.73,4.31,4.31,0,0,0-1-2.06,64.1,64.1,0,0,1-10.26-15.17,4.42,4.42,0,0,0-.83-1.18,5.7,5.7,0,0,0-3.11-1.71l-14.12-2.85a4.67,4.67,0,0,1-3.73-4.65V116.3a4.66,4.66,0,0,1,3.73-4.65l14.16-2.85a5.52,5.52,0,0,0,3.11-1.71,4.26,4.26,0,0,0,.84-1.14A67.46,67.46,0,0,1,52.92,82.32c.13-.13.27-.22.4-.35a5.1,5.1,0,0,0,1.49-3.77,1.63,1.63,0,0,0-.05-.49L53.62,67.19c-.39-3.38-1-9.47-1-11.14h.17c1.76,0,5.13.27,11.4,2.33a46.44,46.44,0,0,0,12.5,25.87H72.57a4.39,4.39,0,1,0,0,8.77h76a4.39,4.39,0,1,0,0-8.77H144A35.27,35.27,0,0,0,149.08,78a72.06,72.06,0,0,1,24.24,23.85l3.07,6a54.14,54.14,0,0,1,5.48,19.46v3h0A56.67,56.67,0,0,1,169.6,165.32Z"/><path class="cls-2" d="M63.27,108.32a11.23,11.23,0,1,0,11.22,11.22A11.21,11.21,0,0,0,63.27,108.32Zm0,13.72a2.46,2.46,0,1,1,2.46-2.45A2.45,2.45,0,0,1,63.27,122Z"/><path class="cls-3" d="M110.4,46.5A5.53,5.53,0,1,1,115.93,41a4.39,4.39,0,1,0,8.77,0,14.41,14.41,0,0,0-9.91-13.59V25.45a4.39,4.39,0,1,0-8.77,0v1.93a14.28,14.28,0,0,0,4.38,27.88,5.53,5.53,0,1,1-5.52,5.53,4.39,4.39,0,0,0-8.77-.18v.22A14.41,14.41,0,0,0,106,74.47v1.4a4.39,4.39,0,1,0,8.77,0v-1.4a14.34,14.34,0,0,0-4.39-28Z"/></svg>