<svg id="Layer_1" data-name="Layer 1" xmlns="http://www.w3.org/2000/svg" xmlns:xlink="http://www.w3.org/1999/xlink" viewBox="0 0 220 220"><defs><style>.cls-1{fill:url(#linear-gradient);}.cls-2{fill:url(#linear-gradient-2);}.cls-3{fill:url(#linear-gradient-3);}.cls-4{fill:url(#linear-gradient-4);}.cls-5{fill:url(#linear-gradient-5);}.cls-6{fill:url(#linear-gradient-6);}.cls-7{fill:url(#linear-gradient-7);}.cls-8{fill:url(#linear-gradient-8);}.cls-9{fill:url(#linear-gradient-9);}.cls-10{fill:url(#linear-gradient-10);}.cls-11{fill:url(#linear-gradient-11);}.cls-12{fill:url(#linear-gradient-12);}.cls-13{fill:url(#linear-gradient-13);}</style><linearGradient id="linear-gradient" x1="51.55" y1="118.67" x2="61.93" y2="118.67" gradientUnits="userSpaceOnUse"><stop offset="0" stop-color="#b3862a"/><stop offset="0.98" stop-color="#ecdea0"/></linearGradient><linearGradient id="linear-gradient-2" x1="75.77" y1="135.97" x2="86.15" y2="135.97" xlink:href="#linear-gradient"/><linearGradient id="linear-gradient-3" x1="51.55" y1="135.97" x2="68.85" y2="135.97" xlink:href="#linear-gradient"/><linearGradient id="linear-gradient-4" x1="23.87" y1="135.97" x2="44.63" y2="135.97" xlink:href="#linear-gradient"/><linearGradient id="linear-gradient-5" x1="44.63" y1="153.27" x2="86.15" y2="153.27" xlink:href="#linear-gradient"/><linearGradient id="linear-gradient-6" x1="23.87" y1="153.27" x2="37.71" y2="153.27" xlink:href="#linear-gradient"/><linearGradient id="linear-gradient-7" x1="65.39" y1="170.56" x2="86.15" y2="170.56" xlink:href="#linear-gradient"/><linearGradient id="linear-gradient-8" x1="23.87" y1="170.56" x2="58.47" y2="170.56" xlink:href="#linear-gradient"/><linearGradient id="linear-gradient-9" x1="44.63" y1="187.86" x2="65.39" y2="187.86" xlink:href="#linear-gradient"/><linearGradient id="linear-gradient-10" x1="23.87" y1="187.86" x2="37.71" y2="187.86" xlink:href="#linear-gradient"/><linearGradient id="linear-gradient-11" x1="6.57" y1="153.27" x2="214.16" y2="153.27" xlink:href="#linear-gradient"/><linearGradient id="linear-gradient-12" x1="6.57" y1="59.84" x2="120.75" y2="59.84" xlink:href="#linear-gradient"/><linearGradient id="linear-gradient-13" x1="68.84" y1="94.34" x2="214.42" y2="94.34" xlink:href="#linear-gradient"/></defs><title>values</title><path class="cls-1" d="M51.55,115.21H61.93v6.92H51.55Z"/><path class="cls-2" d="M75.77,132.51H86.15v6.92H75.77Z"/><path class="cls-3" d="M51.55,132.51h17.3v6.92H51.55Z"/><path class="cls-4" d="M23.87,132.51H44.63v6.92H23.87Z"/><path class="cls-5" d="M44.63,149.81H86.15v6.92H44.63Z"/><path class="cls-6" d="M23.87,149.81H37.71v6.92H23.87Z"/><path class="cls-7" d="M65.39,167.11H86.15V174H65.39Z"/><path class="cls-8" d="M23.87,167.11h34.6V174H23.87Z"/><path class="cls-9" d="M44.63,184.4H65.39v6.92H44.63Z"/><path class="cls-10" d="M23.87,184.4H37.71v6.92H23.87Z"/><path class="cls-11" d="M207.24,104.83a3.46,3.46,0,0,0-3.46-3.46H183a3.46,3.46,0,0,0-3.46,3.46v17.3h-17.3a3.46,3.46,0,0,0-3.46,3.46v17.3H141.51a3.45,3.45,0,0,0-3.46,3.46v17.3h-17.3a3.45,3.45,0,0,0-3.46,3.46v20.75H92.47a10.39,10.39,0,1,0,0,6.92h4.06v10.38a3.47,3.47,0,0,1-3.46,3.46H17a3.46,3.46,0,0,1-3.46-3.46V125.59h17.3a10.4,10.4,0,0,0,10.38-10.38V97.91h51.9a3.47,3.47,0,0,1,3.46,3.46v3.46h6.92v-3.46A10.39,10.39,0,0,0,93.07,91H40.57a10.25,10.25,0,0,0-7.33,3L9.61,117.65a10.34,10.34,0,0,0-3,7.34v80.17A10.39,10.39,0,0,0,17,215.54H93.07a10.39,10.39,0,0,0,10.38-10.38V194.78H214.16v-6.92h-6.92Zm-173-2v12.41a3.47,3.47,0,0,1-3.46,3.46H18.38Zm48.44,92a3.46,3.46,0,1,1,3.46-3.46A3.45,3.45,0,0,1,82.69,194.78Zm41.52-24.22h13.84v17.3H124.21ZM145,149.81H158.8v38.05H145Zm20.75-20.76h13.84v58.81H165.72Zm20.76,58.81V108.29h13.84v79.57Z"/><path class="cls-12" d="M17,94.45A10.37,10.37,0,0,0,26.31,79.6L36.7,69.21a10.37,10.37,0,0,0,13.83-4.88,9.1,9.1,0,0,0,.42-1H66a10.38,10.38,0,0,0,20-1.75l19.54-16.74a10.39,10.39,0,1,0-4.7-5.08L84.28,53.92A10.38,10.38,0,0,0,66,56.39H51A10.38,10.38,0,1,0,31.38,63.3a9.1,9.1,0,0,0,.42,1L21.42,74.7A10.38,10.38,0,1,0,17,94.45Zm93.42-62.28a3.46,3.46,0,1,1-3.46,3.46A3.46,3.46,0,0,1,110.37,32.17ZM75.77,56.39a3.46,3.46,0,1,1-3.46,3.46A3.46,3.46,0,0,1,75.77,56.39Zm-34.6,0a3.46,3.46,0,1,1-3.46,3.46A3.46,3.46,0,0,1,41.17,56.39ZM17,80.61a3.46,3.46,0,1,1-3.46,3.46A3.46,3.46,0,0,1,17,80.61Z"/><path class="cls-13" d="M142.18,88.88l-22.87,22.87H89a10.37,10.37,0,1,0,0,6.92h7.52v62.27h6.92V118.67h17.3a3.46,3.46,0,0,0,2.44-1l25-25a45.07,45.07,0,1,0-6-3.8ZM79.23,118.67a3.46,3.46,0,1,1,3.46-3.46A3.46,3.46,0,0,1,79.23,118.67ZM196.94,78.94,176.89,56.39h30.19A37.9,37.9,0,0,1,196.94,78.94Zm10.14-29.47H172.64V15A38.11,38.11,0,0,1,207.08,49.47ZM165.72,15v37.9a3.45,3.45,0,0,0,.88,2.29h0l25.17,28.31A38.05,38.05,0,1,1,165.72,15Z"/></svg>