<?xml version="1.0" encoding="utf-8"?>
<!-- Generator: Adobe Illustrator 24.0.1, SVG Export Plug-In . SVG Version: 6.00 Build 0)  -->
<svg version="1.1" id="Layer_1" xmlns="http://www.w3.org/2000/svg" xmlns:xlink="http://www.w3.org/1999/xlink" x="0px" y="0px"
	 viewBox="0 0 55.9 64" style="enable-background:new 0 0 55.9 64;" xml:space="preserve">
<style type="text/css">
	.st0{stroke:url(#SVGID_1_);stroke-width:0.9815;stroke-miterlimit:10;}
	.st1{stroke:url(#SVGID_2_);stroke-width:0.9815;stroke-miterlimit:10;}
	.st2{stroke:url(#SVGID_3_);stroke-width:0.9815;stroke-miterlimit:10;}
	.st3{stroke:url(#SVGID_4_);stroke-width:0.9815;stroke-miterlimit:10;}
	.st4{stroke:url(#SVGID_5_);stroke-width:0.9815;stroke-miterlimit:10;}
</style>
<title>Asset 1</title>
<g id="Layer_2_1_">
	<g id="Layer_1-2">
		
			<linearGradient id="SVGID_1_" gradientUnits="userSpaceOnUse" x1="3.4605" y1="16.912" x2="54.342" y2="16.912" gradientTransform="matrix(1 0 0 -1 0 66.462)">
			<stop  offset="0" style="stop-color:#AD7A19"/>
			<stop  offset="1" style="stop-color:#FAEFAE"/>
		</linearGradient>
		<path class="st0" d="M20.7,49.1c1.2,1,2.6,1.8,4.1,2.2V59h-2.4c-0.9,0-1.6,0.7-1.6,1.6v1.8H4.4c-0.3,0-0.5,0.2-0.5,0.5
			s0.2,0.5,0.5,0.5h48.9c0.3,0,0.5-0.2,0.5-0.5s-0.2-0.5-0.5-0.5H35.1v-1.8c0-0.9-0.7-1.6-1.6-1.6h-2.4v-7.7c4.8-1.5,8-6,8-11v-4.1
			c0-0.3-0.2-0.5-0.5-0.5s-0.5,0.2-0.5,0.5v4.1c0,8.9-10.1,13.7-16.7,8c-2.2-1.9-3.5-4.7-3.5-7.7v-4.4c0-0.3-0.2-0.5-0.5-0.5
			s-0.5,0.2-0.5,0.5v4.4C16.8,44,18.2,47,20.7,49.1z M34.1,60.6v1.8H21.8v-1.8c0-0.3,0.3-0.6,0.6-0.6l0,0h11.2
			C33.8,60,34.1,60.3,34.1,60.6L34.1,60.6z M30.1,51.6V59h-4.3v-7.4c0.7,0.1,1.5,0.2,2.2,0.2C28.7,51.9,29.4,51.8,30.1,51.6z"/>
		
			<linearGradient id="SVGID_2_" gradientUnits="userSpaceOnUse" x1="19.4342" y1="34.2997" x2="36.3366" y2="34.2997" gradientTransform="matrix(1 0 0 -1 0 66.462)">
			<stop  offset="0" style="stop-color:#AD7A19"/>
			<stop  offset="1" style="stop-color:#FAEFAE"/>
		</linearGradient>
		<path class="st1" d="M20,25.4v14.4c0.3,4.4,4.2,7.7,8.6,7.3c3.9-0.3,7-3.4,7.3-7.3V25.4c0.2-4.4-3.3-8.1-7.7-8.2
			c-4.4-0.2-8.1,3.3-8.2,7.7C19.9,25,19.9,25.2,20,25.4L20,25.4z M34.9,25.4v2.1h-3.4c-0.3,0-0.5,0.2-0.5,0.5s0.2,0.5,0.5,0.5h3.4
			v3.6h-3.4c-0.3,0-0.5,0.2-0.5,0.5s0.2,0.5,0.5,0.5h3.4v3.6h-3.4c-0.3,0-0.5,0.2-0.5,0.5s0.2,0.5,0.5,0.5h3.4v2.1
			c-0.1,3.9-3.4,6.9-7.2,6.7c-3.6-0.1-6.6-3.1-6.7-6.7v-2.1h3.3c0.3,0,0.5-0.2,0.5-0.5s-0.2-0.5-0.5-0.5H21v-3.6h3.3
			c0.3,0,0.5-0.2,0.5-0.5s-0.2-0.5-0.5-0.5H21v-3.6h3.3c0.3,0,0.5-0.2,0.5-0.5s-0.2-0.5-0.5-0.5H21v-2.1c-0.1-3.9,2.9-7.1,6.7-7.2
			c3.9-0.1,7.1,2.9,7.2,6.7C34.9,25.1,34.9,25.2,34.9,25.4z"/>
		
			<linearGradient id="SVGID_3_" gradientUnits="userSpaceOnUse" x1="9.249985e-03" y1="38.7008" x2="55.8993" y2="38.7008" gradientTransform="matrix(1 0 0 -1 0 66.462)">
			<stop  offset="0" style="stop-color:#AD7A19"/>
			<stop  offset="1" style="stop-color:#FAEFAE"/>
		</linearGradient>
		<path class="st2" d="M0.5,28c0,13.2,9.4,24.5,22.3,27h0.1c0.3,0,0.5-0.2,0.5-0.4c0-0.3-0.2-0.5-0.4-0.5C8.7,51.3-0.8,37.4,2,23.1
			s16.6-23.8,30.9-21s23.8,16.6,21,30.9c-2,10.7-10.4,19-21,21c-0.3,0-0.4,0.3-0.4,0.6s0.3,0.4,0.6,0.4l0,0
			C48,52.2,57.8,37.8,54.9,22.9C52.1,8,37.7-1.8,22.8,1C9.9,3.5,0.5,14.8,0.5,28z"/>
		
			<linearGradient id="SVGID_4_" gradientUnits="userSpaceOnUse" x1="5.9299" y1="40.412" x2="49.8908" y2="40.412" gradientTransform="matrix(1 0 0 -1 0 66.462)">
			<stop  offset="0" style="stop-color:#AD7A19"/>
			<stop  offset="1" style="stop-color:#FAEFAE"/>
		</linearGradient>
		<path class="st3" d="M27.9,7.5c11.3,0,20.5,9.2,20.5,20.5c0,5.4-2.2,10.6-6,14.5c-0.8,0.8-1.7,1.6-2.7,2.2
			c-0.2,0.1-0.3,0.4-0.1,0.7l0,0c0.1,0.1,0.2,0.2,0.4,0.2c0.1,0,0.2,0,0.3-0.1c1-0.7,1.9-1.5,2.8-2.3c8.4-8.4,8.4-22,0-30.4
			c-4-4-9.5-6.3-15.2-6.3c-20.7,0-29.5,26.8-12.5,39c0.2,0.1,0.5,0.1,0.7-0.1c0.2-0.2,0.1-0.5-0.1-0.7C-0.2,33.1,8.2,7.5,27.9,7.5z"
			/>
		
			<linearGradient id="SVGID_5_" gradientUnits="userSpaceOnUse" x1="11.9045" y1="41.9075" x2="43.9287" y2="41.9075" gradientTransform="matrix(1 0 0 -1 0 66.462)">
			<stop  offset="0" style="stop-color:#AD7A19"/>
			<stop  offset="1" style="stop-color:#FAEFAE"/>
		</linearGradient>
		<path class="st4" d="M27.9,13.4L27.9,13.4C36,13.4,42.5,20,42.4,28c0,2.8-0.8,5.6-2.4,7.9c-0.1,0.2-0.1,0.5,0.1,0.7
			c0.1,0.1,0.2,0.1,0.3,0.1c0.2,0,0.3-0.1,0.4-0.2c4.7-7.2,2.7-16.8-4.5-21.6c-2.5-1.7-5.5-2.5-8.5-2.5l0,0c-8.6,0-15.6,7-15.5,15.6
			c0,3,0.9,6,2.5,8.5c0.1,0.2,0.4,0.3,0.7,0.1l0,0c0.2-0.1,0.3-0.5,0.1-0.7c-4.4-6.7-2.5-15.8,4.2-20.2
			C22.3,14.3,25.1,13.4,27.9,13.4z"/>
	</g>
</g>
</svg>
