<?xml version="1.0" encoding="utf-8"?>
<!-- Generator: Adobe Illustrator 24.0.1, SVG Export Plug-In . SVG Version: 6.00 Build 0)  -->
<svg version="1.1" id="Layer_1" xmlns="http://www.w3.org/2000/svg" xmlns:xlink="http://www.w3.org/1999/xlink" x="0px" y="0px"
	 viewBox="0 0 24 18.3" style="enable-background:new 0 0 24 18.3;" xml:space="preserve">
<style type="text/css">
	.st0{fill-rule:evenodd;clip-rule:evenodd;fill:url(#SVGID_1_);}
</style>
<title>Asset 1</title>
<g id="Layer_2_1_">
	<g id="Layer_1-2">
		<linearGradient id="SVGID_1_" gradientUnits="userSpaceOnUse" x1="7.748604e-07" y1="9.1137" x2="24" y2="9.1137">
			<stop  offset="0" style="stop-color:#AD7A19"/>
			<stop  offset="1" style="stop-color:#FAEFAE"/>
		</linearGradient>
		<path class="st0" d="M3.4,10l8.1,8.1c0.2,0.2,0.5,0.2,0.7,0l8.3-8.1h-1.4L12,17.1L4.9,10H3.4z M22.2,7c0.6-3.1-1.4-6.2-4.5-6.9
			c-1.9-0.4-4,0.2-5.4,1.6C12.2,1.8,12,2,11.9,2.1c0,0-0.2-0.3-0.4-0.4c-2.1-2.2-5.8-2.2-8,0C2,3.1,1.4,5.1,1.8,7.1h1
			C2.1,4.5,3.6,1.8,6.2,1.2c1.7-0.4,3.4,0,4.7,1.3c0.2,0.2,0.4,0.5,0.6,0.9c0.1,0.2,0.4,0.3,0.6,0.2c0.1,0,0.1-0.1,0.2-0.2
			c0.2-0.3,0.4-0.6,0.6-0.9c1.9-1.9,4.9-1.8,6.8,0c1.2,1.2,1.7,2.9,1.3,4.6h1.1V7z M8,7.6L7.4,8.8C7.4,8.9,7.3,9,7.1,9H0.5
			C0.2,9,0,8.8,0,8.5C0,8.1,0.2,8,0.5,8h6.1l0.9-1.7c0.3-0.5,0.7-0.5,1,0l2,4.1l3.1-6.1c0.2-0.5,0.6-0.5,0.9,0L16.3,8h7.2
			C23.8,8,24,8.2,24,8.6C24,8.9,23.8,9,23.5,9h-7.6c-0.1,0-0.2-0.1-0.3-0.2l-1.6-3.2l-3,6.2c-0.2,0.5-0.6,0.5-0.9,0L8,7.6z"/>
	</g>
</g>
</svg>
