<svg id="Layer_1" data-name="Layer 1" xmlns="http://www.w3.org/2000/svg" xmlns:xlink="http://www.w3.org/1999/xlink" viewBox="0 0 220 220"><defs><style>.cls-1{fill:url(#linear-gradient);}.cls-2{fill:url(#linear-gradient-2);}.cls-3{fill:url(#linear-gradient-3);}.cls-4{fill:url(#linear-gradient-4);}.cls-5{fill:url(#linear-gradient-5);}</style><linearGradient id="linear-gradient" x1="18.96" y1="135.69" x2="44.35" y2="135.69" gradientUnits="userSpaceOnUse"><stop offset="0" stop-color="#b3862a"/><stop offset="0.98" stop-color="#ecdea0"/></linearGradient><linearGradient id="linear-gradient-2" x1="163.3" y1="89.37" x2="191.46" y2="89.37" xlink:href="#linear-gradient"/><linearGradient id="linear-gradient-3" x1="128.09" y1="54.16" x2="156.26" y2="54.16" xlink:href="#linear-gradient"/><linearGradient id="linear-gradient-4" x1="129.1" y1="71.78" x2="190.4" y2="71.78" xlink:href="#linear-gradient"/><linearGradient id="linear-gradient-5" x1="4.88" y1="110.49" x2="216.09" y2="110.49" xlink:href="#linear-gradient"/></defs><title>percentage</title><g id="coupon"><path class="cls-1" d="M19,155.14h7a38.49,38.49,0,0,1,18.35-32.92l-3.71-6A45.5,45.5,0,0,0,19,155.14Z"/><path class="cls-2" d="M177.38,75.29a14.08,14.08,0,1,0,14.08,14.08A14.08,14.08,0,0,0,177.38,75.29Zm0,21.12a7,7,0,1,1,7-7A7,7,0,0,1,177.38,96.41Z"/><path class="cls-3" d="M142.18,68.24a14.08,14.08,0,1,0-14.09-14.08A14.08,14.08,0,0,0,142.18,68.24Zm0-21.12a7,7,0,1,1-7,7A7,7,0,0,1,142.18,47.12Z"/><path class="cls-4" d="M129.1,97.45l56.32-56.32,5,5-56.32,56.31Z"/><path class="cls-5" d="M215.12,69.3l-6.06-6.23,3.56-7.92a3.52,3.52,0,0,0-1.69-4.61l-7.82-3.8.64-8.66a3.54,3.54,0,0,0-3.17-3.77l-8.66-.88-2.36-8.35a3.45,3.45,0,0,0-4.21-2.46h0l-4.44,1.13V15.44A10.59,10.59,0,0,0,170.34,4.88H85.85A10.59,10.59,0,0,0,75.29,15.44V80.32L26.57,109.19a45.45,45.45,0,0,0-21.69,38.9v36.33A31.74,31.74,0,0,0,36.57,216.1h52.8A17.6,17.6,0,0,0,107,198.5V178.68l26.37-30.91a22.56,22.56,0,0,0,1.69-2.08h35.31a10.59,10.59,0,0,0,10.56-10.56V119.78l4.44,1.13a3.51,3.51,0,0,0,4.22-2.47l2.36-8.34,8.66-.88a3.54,3.54,0,0,0,3.17-3.77l-.64-8.66,7.82-3.8a3.52,3.52,0,0,0,1.69-4.61l-3.56-7.92,6.06-6.23a3.6,3.6,0,0,0,0-4.93Zm-87,73.68-27.38,32.11a3.37,3.37,0,0,0-.85,2.29V198.5a10.59,10.59,0,0,1-10.56,10.56H36.57a24.68,24.68,0,0,1-24.65-24.64V148.09a38.5,38.5,0,0,1,18.27-32.88l45.1-26.72v46.64a10.55,10.55,0,0,0,9.79,10.49L62.26,167.8l4.93,5.07,46.22-45a10.85,10.85,0,0,1,14.93,0,10.67,10.67,0,0,1-.11,15.08l-.07.06Zm45.7-7.85a3.52,3.52,0,0,1-3.52,3.52H138.16a17.62,17.62,0,0,0-29.71-15.84L92.22,138.65H85.85a3.52,3.52,0,0,1-3.52-3.52V15.44a3.52,3.52,0,0,1,3.52-3.52h84.49a3.52,3.52,0,0,1,3.52,3.52v5.1l-2-2.85a3.52,3.52,0,0,0-4.86-.84l-7.18,4.89-7.18-4.89a3.56,3.56,0,0,0-4.86.84l-5.07,7-8.45-2.11A3.48,3.48,0,0,0,130,25.08l-2.36,8.35-8.66.88a3.54,3.54,0,0,0-3.17,3.77l.63,8.66-7.81,3.8a3.52,3.52,0,0,0-1.69,4.61l3.55,7.92-6,6.23a3.6,3.6,0,0,0,0,4.93l6,6.23-3.55,7.92A3.52,3.52,0,0,0,108.63,93l7.81,3.8-.63,8.66a3.54,3.54,0,0,0,3.17,3.77l8.66.88,2.36,8.34a3.51,3.51,0,0,0,4.22,2.47l8.45-2.11,5.07,7a3.59,3.59,0,0,0,2.88,1.44,3.4,3.4,0,0,0,2-.6l7.18-4.89,7.18,4.89a3.52,3.52,0,0,0,4.86-.84l2-2.85Zm27.77-54,3.17,7-6.9,3.35a3.51,3.51,0,0,0-2,3.41l.56,7.68-7.6.74a3.59,3.59,0,0,0-3.07,2.57l-2.07,7.35-7.43-1.86a3.52,3.52,0,0,0-3.7,1.34l-4.5,6.23-6.34-4.33a3.53,3.53,0,0,0-3.94,0l-6.34,4.33L147,112.71a3.46,3.46,0,0,0-3.69-1.34l-7.43,1.86-2.08-7.35a3.58,3.58,0,0,0-3-2.57l-7.63-.74.56-7.68a3.52,3.52,0,0,0-2-3.41l-6.9-3.35,3.17-7a3.52,3.52,0,0,0-.7-3.9l-5.35-5.5,5.35-5.49a3.52,3.52,0,0,0,.7-3.9l-3.17-7,6.9-3.35a3.52,3.52,0,0,0,2-3.41L123.1,41l7.6-.74a3.57,3.57,0,0,0,3.06-2.57l2.08-7.35,7.43,1.86A3.5,3.5,0,0,0,147,30.82l4.51-6.23,6.34,4.33a3.5,3.5,0,0,0,3.94,0l6.34-4.33,4.5,6.23a3.48,3.48,0,0,0,3.7,1.34l7.43-1.86,2.07,7.35a3.59,3.59,0,0,0,3,2.57l7.64.74-.56,7.68a3.51,3.51,0,0,0,2,3.41l6.9,3.35-3.17,7a3.51,3.51,0,0,0,.71,3.9l5.35,5.49-5.35,5.5a3.51,3.51,0,0,0-.71,3.9Z"/></g></svg>