<svg enable-background="new 0 0 512 512" height="20" viewBox="0 0 512 512" width="20" xmlns="http://www.w3.org/2000/svg"><path d="m377 330.986c41.355 0 75-33.645 75-75v-120c0-41.355-33.645-75-75-75s-75 33.645-75 75v120c0 41.355 33.645 75 75 75zm-45-195c0-24.813 20.187-45 45-45s45 20.187 45 45v120c0 24.813-20.187 45-45 45s-45-20.187-45-45z"/><path d="m497 180.986c-8.284 0-15 6.716-15 15v60c0 57.897-47.103 105-105 105s-105-47.103-105-105v-60c0-8.284-6.716-15-15-15s-15 6.716-15 15v60c0 69.369 52.594 126.676 120 134.162v60.838h-45c-8.284 0-15 6.716-15 15s6.716 15 15 15h120c8.284 0 15-6.716 15-15s-6.716-15-15-15h-45v-60.838c67.406-7.486 120-64.793 120-134.162v-60c0-8.285-6.716-15-15-15z"/><path d="m272 135.986c0-8.284-6.716-15-15-15h-21.729l-25.854-51.708c-5.772-11.544-22.544-10.862-27.343 1.137l-44.792 111.979-47.052-141.152c-4.541-13.622-23.91-13.653-28.461 0l-26.581 79.743h-20.188c-8.284 0-15 6.716-15 15s6.716 15 15 15h31c6.456 0 12.188-4.131 14.23-10.257l15.77-47.308 45.77 137.309c4.431 13.287 22.985 13.761 28.157.828l47.595-118.986 15.063 30.124c2.54 5.082 7.734 8.292 13.416 8.292h31c8.283-.001 14.999-6.717 14.999-15.001z"/></svg>