<?xml version="1.0" encoding="utf-8"?>
<!-- Generator: Adobe Illustrator 24.0.1, SVG Export Plug-In . SVG Version: 6.00 Build 0)  -->
<svg version="1.1" id="Layer_1" xmlns="http://www.w3.org/2000/svg" xmlns:xlink="http://www.w3.org/1999/xlink" x="0px" y="0px"
	 viewBox="0 0 72 80" style="enable-background:new 0 0 72 80;" xml:space="preserve">
<style type="text/css">
	.st0{fill:url(#SVGID_1_);}
	.st1{fill:url(#SVGID_2_);}
	.st2{fill:url(#SVGID_3_);}
	.st3{fill:url(#SVGID_4_);}
</style>
<title>Asset 1</title>
<g id="Layer_2_1_">
	<g id="Layer_1-2">
		<linearGradient id="SVGID_1_" gradientUnits="userSpaceOnUse" x1="28" y1="64" x2="44" y2="64">
			<stop  offset="0" style="stop-color:#AD7A19"/>
			<stop  offset="1" style="stop-color:#FAEFAE"/>
		</linearGradient>
		<path class="st0" d="M36,52c3,0,4,1,4,4c0,8.3-0.7,14.2-2,17.6C37,76,36.3,76,36,76c-0.6,0-1.3,0-2.1-2.3C32.6,70.4,32,64.5,32,56
			C32,53,33,52,36,52 M36,48c-4.4,0-8,2-8,8c0,19,3,24,8,24c4.5,0,8-5,8-24C44,50,40.4,48,36,48z"/>
		<linearGradient id="SVGID_2_" gradientUnits="userSpaceOnUse" x1="14.0069" y1="34.24" x2="57.9957" y2="34.24">
			<stop  offset="0" style="stop-color:#AD7A19"/>
			<stop  offset="1" style="stop-color:#FAEFAE"/>
		</linearGradient>
		<path class="st1" d="M36,14c-12.2,0-22,9.9-22,22c0,7.5,3.8,14.4,10.1,18.5c0.1-1.4,0.5-2.8,1.1-4.2c-7.9-6-9.5-17.3-3.5-25.2
			s17.3-9.5,25.2-3.5s9.5,17.3,3.5,25.2c-1,1.3-2.2,2.5-3.5,3.5c0.6,1.3,0.9,2.7,1.1,4.2c10.2-6.6,13.1-20.2,6.5-30.4
			C50.4,17.8,43.5,14,36,14z"/>
		<linearGradient id="SVGID_3_" gradientUnits="userSpaceOnUse" x1="-1.070566e-02" y1="35.12" x2="71.9513" y2="35.12">
			<stop  offset="0" style="stop-color:#AD7A19"/>
			<stop  offset="1" style="stop-color:#FAEFAE"/>
		</linearGradient>
		<path class="st2" d="M36,0C16.1,0,0,16.1,0,36c0,15.6,10,29.4,24.9,34.2c-0.2-1.3-0.4-2.8-0.5-4.4C7.9,59.4-0.3,40.8,6.2,24.3
			s25-24.6,41.5-18.2s24.6,25,18.2,41.5C62.5,56,56,62.5,47.6,65.8c-0.1,1.5-0.3,3-0.6,4.4C66,64.1,76.3,43.8,70.2,24.9
			C65.4,10.1,51.6,0,36,0z"/>
		<linearGradient id="SVGID_4_" gradientUnits="userSpaceOnUse" x1="28" y1="36" x2="44" y2="36">
			<stop  offset="0" style="stop-color:#AD7A19"/>
			<stop  offset="1" style="stop-color:#FAEFAE"/>
		</linearGradient>
		<path class="st3" d="M36,32c2.2,0,4,1.8,4,4s-1.8,4-4,4s-4-1.8-4-4S33.8,32,36,32 M36,28c-4.4,0-8,3.6-8,8s3.6,8,8,8s8-3.6,8-8
			S40.4,28,36,28z"/>
	</g>
</g>
</svg>
