<svg id="Layer_1" data-name="Layer 1" xmlns="http://www.w3.org/2000/svg" xmlns:xlink="http://www.w3.org/1999/xlink" viewBox="0 0 220 220"><defs><style>.cls-1{fill:url(#linear-gradient);}.cls-2{fill:url(#linear-gradient-2);}.cls-3{fill:url(#linear-gradient-3);}</style><linearGradient id="linear-gradient" x1="65.57" y1="152.51" x2="98.83" y2="152.51" gradientUnits="userSpaceOnUse"><stop offset="0" stop-color="#b3862a"/><stop offset="0.98" stop-color="#ecdea0"/></linearGradient><linearGradient id="linear-gradient-2" x1="8.89" y1="110.79" x2="212.09" y2="110.79" xlink:href="#linear-gradient"/><linearGradient id="linear-gradient-3" x1="144.57" y1="158.36" x2="191.81" y2="158.36" xlink:href="#linear-gradient"/></defs><title>security</title><g id="Layer_14" data-name="Layer 14"><path class="cls-1" d="M92.17,155.72V130.05a10,10,0,0,0-20,0v25.67A15.67,15.67,0,0,0,69,178.2a16.75,16.75,0,0,0,9.26,5.9,18.94,18.94,0,0,0,4,.51c9.2,0,16.65-7.18,16.65-16.05A15.87,15.87,0,0,0,92.17,155.72ZM88.37,176a10.24,10.24,0,0,1-14.08-1.1,9.38,9.38,0,0,1,1.14-13.57,10.16,10.16,0,0,1,1.75-1.15,3.22,3.22,0,0,0,1.67-2.8V130.05a3.33,3.33,0,0,1,6.66,0v27.44a3.17,3.17,0,0,0,1.66,2.79,9.44,9.44,0,0,1,3.58,13.18,9.84,9.84,0,0,1-2.38,2.65Z"/><path class="cls-2" d="M209.49,130.05l-11-2.35a42,42,0,0,1-26.65-18.61,3.41,3.41,0,0,0-4.57-1.13,3.31,3.31,0,0,0-1.16,1.13,41.25,41.25,0,0,1-17.29,15.28V110.79a16,16,0,0,0-10-14.7V65.85c0-30.13-25.36-54.56-56.63-54.56S25.55,35.72,25.55,65.85V96.09a16,16,0,0,0-10,14.7v9.63H12.22a3.27,3.27,0,0,0-3.33,3.21V181.4a3.27,3.27,0,0,0,3.33,3.21h3.33v9.63c0,8.86,7.46,16,16.66,16h99.93c9.2,0,16.66-7.19,16.66-16v-.42a95.46,95.46,0,0,0,15.32,13.9l2.67,1.93a3.46,3.46,0,0,0,4,0l2.66-1.93c24.27-17.63,38.56-45.18,38.64-74.46A3.23,3.23,0,0,0,209.49,130.05ZM32.21,65.85c0-26.59,22.37-48.14,50-48.14s50,21.55,50,48.14V94.74H118.82V65.85c0-19.5-16.41-35.3-36.64-35.3s-36.65,15.8-36.65,35.3V94.74H32.21Zm79.95,28.89h-60V65.85C52.2,49.9,65.62,37,82.18,37s30,12.93,30,28.88Zm-63.29,32.1v12.84H15.55V126.84ZM15.55,178.19V165.35H48.87v12.84Zm33.32-19.26H15.55V146.09H48.87Zm93.27,35.31a9.82,9.82,0,0,1-10,9.63H32.21a9.81,9.81,0,0,1-10-9.63h0v-9.63h30a3.27,3.27,0,0,0,3.33-3.21V123.63a3.27,3.27,0,0,0-3.33-3.21h-30v-9.63a9.81,9.81,0,0,1,10-9.63h99.93a9.82,9.82,0,0,1,10,9.63v16c-1,.29-2,.57-3,.8l-11,2.41a3.23,3.23,0,0,0-2.6,3.21,91.2,91.2,0,0,0,16.66,52.12Zm27.31,8.35-.66.48-.67-.48a86.24,86.24,0,0,1-36-66.77l8.37-1.79a49,49,0,0,0,28.28-17.5A49,49,0,0,0,197,134l8.39,1.79C204.54,162.18,191.31,186.72,169.45,202.59Z"/><path class="cls-3" d="M188.41,137.91,182.48,135l-2.27,4.33c-11.23-6.39-25.71-2.8-32.35,8a22.3,22.3,0,0,0,8.32,31.16c11.23,6.4,25.71,2.81,32.35-8a22.12,22.12,0,0,0-3.09-27.12Zm-3,21c.1,8.95-7.36,16.29-16.65,16.38s-16.9-7.1-17-16.05,7.36-16.28,16.65-16.37a17.41,17.41,0,0,1,8.77,2.27l-9,17.34-6.66-8.7-5.33,3.85,10,12.84a3.38,3.38,0,0,0,2.67,1.28h.3a3.32,3.32,0,0,0,2.66-1.76l10.56-20.35A15.36,15.36,0,0,1,185.44,158.93Z"/></g></svg>