<?xml version="1.0" encoding="utf-8"?>
<!-- Generator: Adobe Illustrator 24.0.1, SVG Export Plug-In . SVG Version: 6.00 Build 0)  -->
<svg version="1.1" id="Layer_1" xmlns="http://www.w3.org/2000/svg" xmlns:xlink="http://www.w3.org/1999/xlink" x="0px" y="0px"
	 viewBox="0 0 58.7 58" style="enable-background:new 0 0 58.7 58;" xml:space="preserve">
<style type="text/css">
	.st0{fill:url(#SVGID_1_);}
	.st1{fill:url(#SVGID_2_);}
	.st2{fill:url(#SVGID_3_);}
	.st3{fill:url(#SVGID_4_);}
	.st4{fill:url(#SVGID_5_);}
	.st5{fill:url(#SVGID_6_);}
	.st6{fill:url(#SVGID_7_);}
</style>
<title>Asset 1</title>
<g id="Layer_2_1_">
	<g id="Layer_1-2">
		<linearGradient id="SVGID_1_" gradientUnits="userSpaceOnUse" x1="11.72" y1="21.5" x2="21.72" y2="21.5">
			<stop  offset="0" style="stop-color:#AD7A19"/>
			<stop  offset="1" style="stop-color:#FAEFAE"/>
		</linearGradient>
		<path class="st0" d="M12.7,28h3v5h2v-5h3c0.6,0,1-0.4,1-1V16c0-0.6-0.4-1-1-1h-3v-5h-2v5h-3c-0.6,0-1,0.4-1,1v11
			C11.7,27.6,12.2,28,12.7,28z M13.7,17h6v9h-6L13.7,17z"/>
		<linearGradient id="SVGID_2_" gradientUnits="userSpaceOnUse" x1="25.72" y1="18.5" x2="35.72" y2="18.5">
			<stop  offset="0" style="stop-color:#AD7A19"/>
			<stop  offset="1" style="stop-color:#FAEFAE"/>
		</linearGradient>
		<path class="st1" d="M26.7,25h3v5h2v-5h3c0.6,0,1-0.4,1-1V13c0-0.6-0.4-1-1-1h-3V7h-2v5h-3c-0.6,0-1,0.4-1,1v11
			C25.7,24.6,26.2,25,26.7,25z M27.7,14h6v9h-6L27.7,14z"/>
		<linearGradient id="SVGID_3_" gradientUnits="userSpaceOnUse" x1="45.72" y1="30" x2="51.72" y2="30">
			<stop  offset="0" style="stop-color:#AD7A19"/>
			<stop  offset="1" style="stop-color:#FAEFAE"/>
		</linearGradient>
		<path class="st2" d="M46.7,34h1v2h2v-2h1c0.6,0,1-0.4,1-1v-6c0-0.6-0.4-1-1-1h-1v-2h-2v2h-1c-0.6,0-1,0.4-1,1v6
			C45.7,33.6,46.2,34,46.7,34z M47.7,28h2v4h-2V28z"/>
		<linearGradient id="SVGID_4_" gradientUnits="userSpaceOnUse" x1="-2.150052e-03" y1="28.8446" x2="43.6552" y2="28.8446">
			<stop  offset="0" style="stop-color:#AD7A19"/>
			<stop  offset="1" style="stop-color:#FAEFAE"/>
		</linearGradient>
		<path class="st3" d="M6.3,57.2L16.8,39c10.4,3.7,21.9-1.7,25.7-12.1c3.7-10.4-1.7-21.9-12.1-25.7S8.4,2.9,4.7,13.3
			c-2.8,7.9-0.5,16.7,6,22.2L0.1,53.7C-0.1,54.1,0,54.7,0.5,55l4.4,2.5C5.4,57.8,6,57.7,6.3,57.2z M5.5,20.1C5.5,10.1,13.6,2,23.6,2
			s18.1,8.1,18.1,18.1s-8.1,18.1-18.1,18.1S5.5,30.1,5.5,20.1z M12.2,36.7c0.9,0.6,1.8,1.1,2.7,1.5L5,55.3l-2.7-1.5L12.2,36.7z"/>
		<linearGradient id="SVGID_5_" gradientUnits="userSpaceOnUse" x1="52.72" y1="25" x2="58.72" y2="25">
			<stop  offset="0" style="stop-color:#AD7A19"/>
			<stop  offset="1" style="stop-color:#FAEFAE"/>
		</linearGradient>
		<path class="st4" d="M53.7,29h1v2h2v-2h1c0.6,0,1-0.4,1-1v-6c0-0.6-0.4-1-1-1h-1v-2h-2v2h-1c-0.6,0-1,0.4-1,1v6
			C52.7,28.6,53.2,29,53.7,29z M54.7,23h2v4h-2V23z"/>
		<linearGradient id="SVGID_6_" gradientUnits="userSpaceOnUse" x1="17.72" y1="57" x2="53.72" y2="57">
			<stop  offset="0" style="stop-color:#AD7A19"/>
			<stop  offset="1" style="stop-color:#FAEFAE"/>
		</linearGradient>
		<rect x="17.7" y="56" class="st5" width="36" height="2"/>
		<linearGradient id="SVGID_7_" gradientUnits="userSpaceOnUse" x1="17.72" y1="48.5" x2="53.72" y2="48.5">
			<stop  offset="0" style="stop-color:#AD7A19"/>
			<stop  offset="1" style="stop-color:#FAEFAE"/>
		</linearGradient>
		<path class="st6" d="M53.7,44c-5.6,0-6.5,7-12,7s-6.4-7-12-7s-6.4,5-12,5v2c6.3,0,7.6-5,12-5s5.5,7,12,7s7.7-7,12-7V44z"/>
	</g>
</g>
</svg>
