<?xml version="1.0" encoding="utf-8"?>
<!-- Generator: Adobe Illustrator 24.0.1, SVG Export Plug-In . SVG Version: 6.00 Build 0)  -->
<svg version="1.1" id="Layer_1" xmlns="http://www.w3.org/2000/svg" xmlns:xlink="http://www.w3.org/1999/xlink" x="0px" y="0px"
	 viewBox="0 0 28.6 31.3" style="enable-background:new 0 0 28.6 31.3;" xml:space="preserve">
<style type="text/css">
	.st0{fill:url(#SVGID_1_);}
	.st1{fill:url(#SVGID_2_);}
	.st2{fill:url(#SVGID_3_);}
</style>
<title>Asset 1</title>
<g id="Layer_2_1_">
	<g id="Layer_1-2">
		<linearGradient id="SVGID_1_" gradientUnits="userSpaceOnUse" x1="22" y1="11.625" x2="28.58" y2="11.625">
			<stop  offset="0" style="stop-color:#AD7A19"/>
			<stop  offset="1" style="stop-color:#FAEFAE"/>
		</linearGradient>
		<path class="st0" d="M28.1,7.3h-2.3V0.5c0-0.3-0.2-0.5-0.5-0.5s-0.5,0.2-0.5,0.5v6.8h-2.3c-0.3,0-0.5,0.2-0.5,0.5v10.7
			c0,0.3,0.2,0.5,0.5,0.5h2.3v3.7c0,0.3,0.2,0.5,0.5,0.5s0.5-0.2,0.5-0.5v-3.7h2.3c0.3,0,0.5-0.2,0.5-0.5V7.8
			C28.6,7.6,28.4,7.3,28.1,7.3L28.1,7.3z M27.6,18.1H23V8.3h4.6V18.1z"/>
		<linearGradient id="SVGID_2_" gradientUnits="userSpaceOnUse" x1="11" y1="19.02" x2="17.58" y2="19.02">
			<stop  offset="0" style="stop-color:#AD7A19"/>
			<stop  offset="1" style="stop-color:#FAEFAE"/>
		</linearGradient>
		<path class="st1" d="M17.1,12.3h-2.3v-5c0-0.3-0.2-0.5-0.5-0.5S13.8,7,13.8,7.3v5h-2.3c-0.3,0-0.5,0.2-0.5,0.5v10.7
			c0,0.3,0.2,0.5,0.5,0.5h2.3v6.8c0,0.3,0.2,0.5,0.5,0.5s0.5-0.2,0.5-0.5V24h2.3c0.3,0,0.5-0.2,0.5-0.5V12.8
			C17.6,12.5,17.4,12.3,17.1,12.3z M16.6,23H12v-9.7h4.6V23z"/>
		<linearGradient id="SVGID_3_" gradientUnits="userSpaceOnUse" x1="0" y1="16.005" x2="6.58" y2="16.005">
			<stop  offset="0" style="stop-color:#AD7A19"/>
			<stop  offset="1" style="stop-color:#FAEFAE"/>
		</linearGradient>
		<path class="st2" d="M6.1,7.3H3.8V4.2c0-0.3-0.2-0.5-0.5-0.5S2.8,3.9,2.8,4.2v3.2H0.5C0.2,7.3,0,7.6,0,7.8v10.7
			c0,0.3,0.2,0.5,0.5,0.5h2.3v8.8c0,0.3,0.2,0.5,0.5,0.5s0.5-0.2,0.5-0.5v-8.8h2.3c0.3,0,0.5-0.2,0.5-0.5V7.8
			C6.6,7.6,6.4,7.3,6.1,7.3z M5.6,18.1H1V8.3h4.6V18.1z"/>
	</g>
</g>
</svg>
