<svg id="Layer_1" data-name="Layer 1" xmlns="http://www.w3.org/2000/svg" xmlns:xlink="http://www.w3.org/1999/xlink" viewBox="0 0 220 220"><defs><style>.cls-1{fill:url(#linear-gradient);}</style><linearGradient id="linear-gradient" x1="4.49" y1="110.91" x2="216.49" y2="110.91" gradientUnits="userSpaceOnUse"><stop offset="0" stop-color="#b3862a"/><stop offset="0.98" stop-color="#ecdea0"/></linearGradient></defs><title>transparent</title><path class="cls-1" d="M215.23,68.23a1.89,1.89,0,0,0,0-.23,72.21,72.21,0,0,0-5.8-17.61,3.41,3.41,0,0,0-.29-.61,74.51,74.51,0,0,0-9-14.08,3.29,3.29,0,0,0-.47-.59l-.08-.07a76.14,76.14,0,0,0-11.62-11.29l-.07-.08a3.23,3.23,0,0,0-.63-.47,76.83,76.83,0,0,0-14.46-8.71,3.11,3.11,0,0,0-.62-.28A76.85,76.85,0,0,0,154,8.61l-.24,0a77.86,77.86,0,0,0-13.41-1.16,77,77,0,0,0-10.36.7h0C97.81,12.42,72,36.4,65.71,67.18a76.84,76.84,0,0,0-23.49,8.71A3,3,0,0,0,41.1,80a3.15,3.15,0,0,0,4.26,1.09,70.24,70.24,0,0,1,19.33-7.51,72.63,72.63,0,0,0,.72,21.2c0,.09,0,.17,0,.25a72.6,72.6,0,0,0,5.73,17.7,3.08,3.08,0,0,0,.29.61A74.75,74.75,0,0,0,80.4,127.5a3.18,3.18,0,0,0,.49.62l.07.06a76.06,76.06,0,0,0,11.56,11.34l.07.08a3,3,0,0,0,.62.46,76.47,76.47,0,0,0,14.41,8.79,3,3,0,0,0,.63.28,76.59,76.59,0,0,0,18,5.67l.23,0a78,78,0,0,0,13.84,1.24,76.26,76.26,0,0,0,8.33-.45c-7.22,30.17-35,52.71-68.07,52.71-38.55,0-69.9-30.62-69.9-68.26A66.87,66.87,0,0,1,32.64,90.44a3,3,0,0,0,.13-4.3,3.17,3.17,0,0,0-4.4-.12,74.15,74.15,0,0,0-17.45,24.12,72.44,72.44,0,0,0-6.43,29.94c0,41,34.15,74.33,76.13,74.33,36.88,0,67.71-25.73,74.66-59.77C187,148.47,211.66,123,215.86,91.35a.07.07,0,0,1,0,0,73.53,73.53,0,0,0,.62-9.55A72.65,72.65,0,0,0,215.23,68.23ZM197.07,41.88a66.91,66.91,0,0,1,5.57,8.89L147.51,104.6a75.42,75.42,0,0,0-5.73-8.73Zm-3.88-4.8-55.34,54A76.36,76.36,0,0,0,130.5,84l55.33-54A70.94,70.94,0,0,1,193.19,37.08ZM180.9,26.17l-55.29,54a77.65,77.65,0,0,0-9-5.55l55.13-53.83A70.79,70.79,0,0,1,180.9,26.17ZM154.34,14.86a71.56,71.56,0,0,1,11.33,3.26l-55,53.68a77.37,77.37,0,0,0-10.92-3.67ZM131.75,14a72,72,0,0,1,8.61-.52c2.13,0,4.22.1,6.3.28L92.5,66.65a78.81,78.81,0,0,0-11.88-.9q-.95,0-1.89,0Zm-11.11,2.25L73.3,62.49A69.4,69.4,0,0,1,120.64,16.26ZM70.74,87.89c-.18-2-.28-4.07-.28-6.14A66.9,66.9,0,0,1,71,73.33l1-1a70.74,70.74,0,0,1,8.62-.53c2.12,0,4.22.1,6.3.28Zm1.12,7.5L94.6,73.19a71.56,71.56,0,0,1,11.33,3.26l-30.73,30A66.77,66.77,0,0,1,71.86,95.39Zm11.58,25.94a68.74,68.74,0,0,1-5.52-8.93L112,79.1a70.79,70.79,0,0,1,9.14,5.4Zm3.87,4.81,38.78-37.86a67.92,67.92,0,0,1,7.35,7.14l-38.82,37.9A68.84,68.84,0,0,1,87.31,126.14Zm12.23,11,37.79-36.9a66.81,66.81,0,0,1,5.57,8.88l-34.27,33.46A69.79,69.79,0,0,1,99.54,137.12ZM126,148.55a70.8,70.8,0,0,1-11.28-3.31L145.64,115A65.42,65.42,0,0,1,149,126Zm24.09-.61-1.65,1.61a71.2,71.2,0,0,1-8,.45q-3.42,0-6.75-.32l16.59-16.2c.21,2.17.33,4.37.33,6.6A65.83,65.83,0,0,1,150.06,147.94Zm4.14-27a73.12,73.12,0,0,0-3.8-10.61l55-53.69a67.5,67.5,0,0,1,3.39,11Zm5.17,26.46,48.27-47.13A69.4,69.4,0,0,1,159.37,147.44ZM209.8,89.6l-53.07,51.82c0-.44,0-.89,0-1.34a72.21,72.21,0,0,0-1-12l54.19-52.91a66,66,0,0,1-.14,14.45Z"/></svg>