<svg id="Layer_1" data-name="Layer 1" xmlns="http://www.w3.org/2000/svg" xmlns:xlink="http://www.w3.org/1999/xlink" viewBox="0 0 220 220"><defs><style>.cls-1{fill:url(#linear-gradient);}.cls-2{fill:url(#linear-gradient-2);}.cls-3{fill:url(#linear-gradient-3);}.cls-4{fill:url(#linear-gradient-4);}.cls-5{fill:url(#linear-gradient-5);}.cls-6{fill:url(#linear-gradient-6);}.cls-7{fill:url(#linear-gradient-7);}</style><linearGradient id="linear-gradient" x1="15.6" y1="85.41" x2="105.46" y2="85.41" gradientUnits="userSpaceOnUse"><stop offset="0" stop-color="#b3862a"/><stop offset="0.98" stop-color="#ecdea0"/></linearGradient><linearGradient id="linear-gradient-2" x1="45.18" y1="85.42" x2="77.01" y2="85.42" xlink:href="#linear-gradient"/><linearGradient id="linear-gradient-3" x1="15.6" y1="172.46" x2="111.91" y2="172.46" xlink:href="#linear-gradient"/><linearGradient id="linear-gradient-4" x1="109.11" y1="87.04" x2="205.38" y2="87.04" xlink:href="#linear-gradient"/><linearGradient id="linear-gradient-5" x1="131.66" y1="178.9" x2="182.83" y2="178.9" xlink:href="#linear-gradient"/><linearGradient id="linear-gradient-6" x1="131.66" y1="195.02" x2="182.83" y2="195.02" xlink:href="#linear-gradient"/><linearGradient id="linear-gradient-7" x1="131.66" y1="211.14" x2="182.83" y2="211.14" xlink:href="#linear-gradient"/></defs><title>values</title><path class="cls-1" d="M60.53,40.48a44.94,44.94,0,1,0,44.93,44.93A45,45,0,0,0,60.53,40.48Zm0,83.82A38.89,38.89,0,1,1,99.42,85.41,38.92,38.92,0,0,1,60.53,124.3Z"/><path class="cls-2" d="M74,78.77a3,3,0,0,0,3-3V72.52A12.7,12.7,0,0,0,64.32,59.83h-.2V53.18a3,3,0,0,0-6,0V59.9a14.3,14.3,0,0,0,1.41,28.54h3.22a8.26,8.26,0,0,1,0,16.52H57.87a6.66,6.66,0,0,1-6.65-6.65,3,3,0,1,0-6,0A12.71,12.71,0,0,0,57.87,111h.21v6.65a3,3,0,0,0,6,0v-6.72a14.31,14.31,0,0,0-1.41-28.54H59.49a8.26,8.26,0,1,1,0-16.52h4.83A6.65,6.65,0,0,1,71,72.52v3.22A3,3,0,0,0,74,78.77Z"/><path class="cls-3" d="M108.89,156.14a3,3,0,0,0,3-3V133.77a3,3,0,0,0-3-3H25.07a3,3,0,0,0-3,3v16.32H18.63a3,3,0,0,0-3,3v19.35a3,3,0,0,0,3,3h3.42v13.3H18.63a3,3,0,0,0-3,3v19.34a3,3,0,0,0,3,3h83.81a3,3,0,0,0,3-3V194.82h3.43a3,3,0,0,0,3-3V172.46a3,3,0,0,0-3-3h-3.43V156.14ZM21.65,169.43V156.14H99.42v13.29Zm77.77,38.69H21.65v-13.3H99.42Zm6.45-32.64v13.3H28.09v-13.3ZM28.09,150.09v-13.3h77.78v13.3Z"/><path class="cls-4" d="M204.71,64.15,159.58,9.35a3.05,3.05,0,0,0-4.67,0l-45.13,54.8a3.05,3.05,0,0,0,2.33,4.95h19.55v93.68a3,3,0,0,0,3,3h45.13a3,3,0,0,0,3-3V150.09a3,3,0,1,0-6,0v9.67H137.7V66.07a3,3,0,0,0-3-3H118.52l38.73-47,38.72,47H179.81a3,3,0,0,0-3,3v69.72a3,3,0,1,0,6,0V69.1h19.55A3.05,3.05,0,0,0,204.71,64.15Z"/><path class="cls-5" d="M179.81,175.88H134.68a3,3,0,0,0,0,6.05h45.13a3,3,0,0,0,0-6.05Z"/><path class="cls-6" d="M179.81,192H134.68a3,3,0,0,0,0,6h45.13a3,3,0,0,0,0-6Z"/><path class="cls-7" d="M179.81,208.12H134.68a3,3,0,1,0,0,6h45.13a3,3,0,1,0,0-6Z"/></svg>