{
  "accessors": [
    {
      "bufferView": 2,
      "componentType": 5126,
      "count": 1342,
      "max": [
        2.194486379623413,
        3.0327866077423096,
        -1.5403966903686523
      ],
      "min": [
        1.922792673110962,
        2.9485604763031006,
        -1.8179019689559937
      ],
      "type": "VEC3"
    },
    {
      "bufferView": 2,
      "byteOffset": 16104,
      "componentType": 5126,
      "count": 1342,
      "max": [
        0.9967405796051025,
        1.0,
        0.9981388449668884
      ],
      "min": [
        -0.9967381358146667,
        -0.4306250810623169,
        -0.9981424808502197
      ],
      "type": "VEC3"
    },
    {
      "bufferView": 1,
      "componentType": 5126,
      "count": 1342,
      "max": [
        0.65625,
        0.9998230338096619
      ],
      "min": [
        0.34375014901161194,
        0.3125
      ],
      "type": "VEC2"
    },
    {
      "bufferView": 0,
      "componentType": 5125,
      "count": 4365,
      "type": "SCALAR"
    },
    {
      "bufferView": 2,
      "byteOffset": 32208,
      "componentType": 5126,
      "count": 584,
      "max": [
        2.5666747093200684,
        3.004110097885132,
        -1.1533015966415405
      ],
      "min": [
        1.551912784576416,
        0.012708746828138828,
        -2.198348045349121
      ],
      "type": "VEC3"
    },
    {
      "bufferView": 2,
      "byteOffset": 39216,
      "componentType": 5126,
      "count": 584,
      "max": [
        1.0,
        1.0,
        1.0
      ],
      "min": [
        -1.0,
        -1.0,
        -1.0
      ],
      "type": "VEC3"
    },
    {
      "bufferView": 1,
      "byteOffset": 10736,
      "componentType": 5126,
      "count": 584,
      "max": [
        1.0,
        1.0
      ],
      "min": [
        0.0,
        -7.450580596923828e-08
      ],
      "type": "VEC2"
    },
    {
      "bufferView": 0,
      "byteOffset": 17460,
      "componentType": 5125,
      "count": 2274,
      "type": "SCALAR"
    },
    {
      "bufferView": 2,
      "byteOffset": 46224,
      "componentType": 5126,
      "count": 42,
      "max": [
        2.5666747093200684,
        2.051032066345215,
        -1.1533015966415405
      ],
      "min": [
        1.551912784576416,
        1.5306196212768555,
        -2.198348045349121
      ],
      "type": "VEC3"
    },
    {
      "bufferView": 2,
      "byteOffset": 46728,
      "componentType": 5126,
      "count": 42,
      "max": [
        1.0,
        0.1582975834608078,
        1.0
      ],
      "min": [
        -1.0,
        0.0,
        -1.0
      ],
      "type": "VEC3"
    },
    {
      "bufferView": 1,
      "byteOffset": 15408,
      "componentType": 5126,
      "count": 42,
      "max": [
        1.5733826160430908,
        0.8044459819793701
      ],
      "min": [
        -0.4266173839569092,
        0.20089417695999146
      ],
      "type": "VEC2"
    },
    {
      "bufferView": 0,
      "byteOffset": 26556,
      "componentType": 5125,
      "count": 120,
      "type": "SCALAR"
    },
    {
      "bufferView": 3,
      "componentType": 5126,
      "count": 1,
      "max": [
        0.2083333283662796
      ],
      "min": [
        0.2083333283662796
      ],
      "type": "SCALAR"
    },
    {
      "bufferView": 4,
      "componentType": 5126,
      "count": 1,
      "max": [
        0.0,
        0.0,
        0.0
      ],
      "min": [
        0.0,
        0.0,
        0.0
      ],
      "type": "VEC3"
    }
  ],
  "animations": [
    {
      "channels": [
        {
          "sampler": 0,
          "target": {
            "node": 4,
            "path": "translation"
          }
        }
      ],
      "name": "Take 001",
      "samplers": [
        {
          "input": 12,
          "interpolation": "LINEAR",
          "output": 13
        }
      ]
    }
  ],
  "asset": {
    "extras": {
      "author": "Ziid.Hs (https://sketchfab.com/Ziid.Hs)",
      "license": "CC-BY-4.0 (http://creativecommons.org/licenses/by/4.0/)",
      "source": "https://sketchfab.com/3d-models/cola-bottle-7e8abdf61efb441082f6ca216543a3f2",
      "title": "Cola_Bottle"
    },
    "generator": "Sketchfab-12.68.0",
    "version": "2.0"
  },
  "bufferViews": [
    {
      "buffer": 0,
      "byteLength": 27036,
      "name": "floatBufferViews",
      "target": 34963
    },
    {
      "buffer": 0,
      "byteLength": 15744,
      "byteOffset": 27036,
      "byteStride": 8,
      "name": "floatBufferViews",
      "target": 34962
    },
    {
      "buffer": 0,
      "byteLength": 47232,
      "byteOffset": 42780,
      "byteStride": 12,
      "name": "floatBufferViews",
      "target": 34962
    },
    {
      "buffer": 0,
      "byteLength": 4,
      "byteOffset": 90012,
      "name": "floatBufferViews"
    },
    {
      "buffer": 0,
      "byteLength": 12,
      "byteOffset": 90016,
      "byteStride": 12,
      "name": "floatBufferViews"
    }
  ],
  "buffers": [
    {
      "byteLength": 90028,
      "uri": "scene.bin"
    }
  ],
  "extensionsUsed": [
    "KHR_materials_clearcoat"
  ],
  "images": [
    {
      "uri": "textures/blinn1_baseColor.jpeg"
    }
  ],
  "materials": [
    {
      "doubleSided": true,
      "name": "material",
      "pbrMetallicRoughness": {
        "baseColorFactor": [
          0.240964,
          0.0,
          0.0,
          1.0
        ],
        "metallicFactor": 0.0,
        "roughnessFactor": 0.6
      }
    },
    {
      "doubleSided": true,
      "extensions": {
        "KHR_materials_clearcoat": {
          "clearcoatFactor": 1.0,
          "clearcoatRoughnessFactor": 0.04
        }
      },
      "name": "Bottle",
      "pbrMetallicRoughness": {
        "baseColorFactor": [
          0.011851275308051972,
          0.007887180077036846,
          0.007887180077036846,
          1.0
        ],
        "metallicFactor": 0.0,
        "roughnessFactor": 0.0
      }
    },
    {
      "doubleSided": true,
      "name": "blinn1",
      "pbrMetallicRoughness": {
        "baseColorTexture": {
          "index": 0
        },
        "metallicFactor": 0.0,
        "roughnessFactor": 0.9207483815999999
      }
    }
  ],
  "meshes": [
    {
      "name": "pCylinder3_cap_0",
      "primitives": [
        {
          "attributes": {
            "NORMAL": 1,
            "POSITION": 0,
            "TEXCOORD_0": 2
          },
          "indices": 3,
          "material": 0,
          "mode": 4
        }
      ]
    },
    {
      "name": "pCylinder3_Bottle_0",
      "primitives": [
        {
          "attributes": {
            "NORMAL": 5,
            "POSITION": 4,
            "TEXCOORD_0": 6
          },
          "indices": 7,
          "material": 1,
          "mode": 4
        }
      ]
    },
    {
      "name": "pCylinder3_blinn1_0",
      "primitives": [
        {
          "attributes": {
            "NORMAL": 9,
            "POSITION": 8,
            "TEXCOORD_0": 10
          },
          "indices": 11,
          "material": 2,
          "mode": 4
        }
      ]
    }
  ],
  "nodes": [
    {
      "children": [
        1
      ],
      "matrix": [
        1.0,
        0.0,
        0.0,
        0.0,
        0.0,
        2.220446049250313e-16,
        -1.0,
        0.0,
        0.0,
        1.0,
        2.220446049250313e-16,
        0.0,
        0.0,
        0.0,
        0.0,
        1.0
      ],
      "name": "Sketchfab_model"
    },
    {
      "children": [
        2
      ],
      "matrix": [
        1.0,
        0.0,
        0.0,
        0.0,
        0.0,
        0.0,
        1.0,
        0.0,
        0.0,
        -1.0,
        0.0,
        0.0,
        0.0,
        0.0,
        0.0,
        1.0
      ],
      "name": "7f79eee9fa9241ca94bdb48b26cc149a.fbx"
    },
    {
      "children": [
        3
      ],
      "name": "Object_2"
    },
    {
      "children": [
        4,
        6,
        8
      ],
      "name": "RootNode"
    },
    {
      "children": [
        5
      ],
      "name": "pCylinder1",
      "scale": [
        0.5304054021835327,
        0.06319279223680496,
        0.48054802417755127
      ],
      "translation": [
        2.0592939853668213,
        0.02205558493733406,
        -1.6758248805999756
      ]
    },
    {
      "name": "transform1"
    },
    {
      "children": [
        7
      ],
      "name": "pCylinder2",
      "scale": [
        0.12627629935741425,
        0.01938881352543831,
        0.12941952049732208
      ],
      "translation": [
        2.058638572692871,
        2.9769482612609863,
        -1.679149866104126
      ]
    },
    {
      "name": "transform2"
    },
    {
      "children": [
        9,
        10,
        11
      ],
      "name": "pCylinder3"
    },
    {
      "mesh": 0,
      "name": "pCylinder3_cap_0"
    },
    {
      "mesh": 1,
      "name": "pCylinder3_Bottle_0"
    },
    {
      "mesh": 2,
      "name": "pCylinder3_blinn1_0"
    }
  ],
  "samplers": [
    {
      "magFilter": 9729,
      "minFilter": 9987,
      "wrapS": 10497,
      "wrapT": 10497
    }
  ],
  "scene": 0,
  "scenes": [
    {
      "name": "Sketchfab_Scene",
      "nodes": [
        0
      ]
    }
  ],
  "textures": [
    {
      "sampler": 0,
      "source": 0
    }
  ]
}
