<svg xmlns="http://www.w3.org/2000/svg" xmlns:xlink="http://www.w3.org/1999/xlink" viewBox="0 0 316.43 133.49"><defs><style>.cls-1{fill:none;}.cls-2{clip-path:url(#clip-path);}.cls-3{fill:#dbb38d;}.cls-4{fill:#c1531b;}</style><clipPath id="clip-path" transform="translate(0 0)"><rect class="cls-1" width="316.43" height="133.49"/></clipPath></defs><title>logo_text</title><g id="Layer_2" data-name="Layer 2"><g id="Layer_1-2" data-name="Layer 1"><g class="cls-2"><path class="cls-3" d="M74.35,86.82c0-.16-2.61-10.4-12-20.84S36.64,45,9.63,44.41L8,44.37V56h3.2V47.65C36.4,48.63,51.24,58.47,60,68.13a55.65,55.65,0,0,1,9,13.48c.76,1.61,1.29,3,1.66,4H3.19V0H0V88.8H74.84Z" transform="translate(0 0)"/><path class="cls-4" d="M82.34,58.44a1.8,1.8,0,1,1-1.8-1.8,1.59,1.59,0,0,1,1.8,1.8m9,30.6a12.65,12.65,0,0,1-12.6-12.6V63.84h3.6v12.6a9.1,9.1,0,0,0,9,9Z" transform="translate(0 0)"/><path class="cls-4" d="M102.14,98.05a12.58,12.58,0,0,1-12.6,12.59v-3.59a9,9,0,0,0,9-9V63.84h3.6Zm0-39.6a1.8,1.8,0,1,1-1.8-1.81,1.59,1.59,0,0,1,1.8,1.81" transform="translate(0 0)"/><path class="cls-4" d="M130.94,76.45a12.6,12.6,0,0,1-25.2,0V63.84h3.6V76.45a9,9,0,1,0,18,0V63.84h3.6Z" transform="translate(0 0)"/><path class="cls-3" d="M137.89,44.69H136.3v88.8h3.19V47.88h67.42A54.15,54.15,0,0,1,194.5,67.21c-8.91,9-23.42,17.71-47,18.63V77.49h-3.2V89.12l1.64,0c27-.59,43.3-11.13,52.69-21.58s12-20.68,12-20.83l.49-2Z" transform="translate(0 0)"/><path class="cls-4" d="M226.43,89.05h-3.6V85.3a12.61,12.61,0,1,1-17.89-17.78,12.54,12.54,0,0,1,17.89.14V63.84h3.6Zm-3.6-12.6a9,9,0,1,0-2.63,6.37,8.68,8.68,0,0,0,2.63-6.37" transform="translate(0 0)"/><path class="cls-4" d="M255.23,89h-3.6V76.44a9,9,0,1,0-18,0V89H230V63.84h3.6v3.82a12.57,12.57,0,0,1,21.6,8.78Z" transform="translate(0 0)"/><path class="cls-4" d="M284,89.05h-3.6V85.3a12.61,12.61,0,1,1-17.89-17.78,12.54,12.54,0,0,1,17.89.14V31.45H284Zm-3.6-12.6a9,9,0,1,0-2.63,6.37,8.68,8.68,0,0,0,2.63-6.37" transform="translate(0 0)"/><path class="cls-4" d="M291.23,58.44a1.8,1.8,0,1,1-1.8-1.8,1.59,1.59,0,0,1,1.8,1.8m9,30.6a12.65,12.65,0,0,1-12.6-12.6V63.84h3.6v12.6a9.08,9.08,0,0,0,9,9Z" transform="translate(0 0)"/><path class="cls-4" d="M316.43,89a12.65,12.65,0,0,1-12.6-12.6V53h-3.6v-3.6h3.6v-18h3.6v18h9V53h-9v23.4a9.08,9.08,0,0,0,9,9Z" transform="translate(0 0)"/></g></g></g></svg>