<svg width="412" height="537" viewBox="0 0 412 537" fill="none" xmlns="http://www.w3.org/2000/svg">
<circle cx="35" cy="502" r="34.5" fill="#0A0819" stroke="white" stroke-dasharray="6 6"/>
<path d="M23.104 503.344C23.104 500.848 23.616 498.888 24.64 497.464C25.68 496.04 27.008 495.328 28.624 495.328C30.24 495.328 31.552 496.04 32.56 497.464C33.584 498.888 34.096 500.848 34.096 503.344C34.096 505.824 33.592 507.76 32.584 509.152C31.576 510.544 30.256 511.24 28.624 511.24C27.008 511.24 25.68 510.544 24.64 509.152C23.616 507.76 23.104 505.824 23.104 503.344ZM24.832 503.32C24.832 505.464 25.192 507.208 25.912 508.552C26.648 509.88 27.552 510.544 28.624 510.544C29.712 510.544 30.608 509.88 31.312 508.552C32.016 507.224 32.368 505.488 32.368 503.344C32.368 501.184 32.016 499.416 31.312 498.04C30.608 496.648 29.712 495.952 28.624 495.952C27.552 495.952 26.648 496.648 25.912 498.04C25.192 499.416 24.832 501.176 24.832 503.32ZM35.9873 507.64V506.896L44.0993 495.304L44.7953 495.424V506.92H47.7713V507.64H44.8193C44.8673 508.968 45.0673 509.816 45.4193 510.184C45.7713 510.536 46.5073 510.712 47.6273 510.712L47.6753 511H40.2353L40.2833 510.712C41.4033 510.712 42.1313 510.536 42.4673 510.184C42.8193 509.832 43.0273 508.984 43.0913 507.64H35.9873ZM43.1153 505.576V498.016L36.8753 506.92H43.0913C43.1073 506.648 43.1153 506.2 43.1153 505.576Z" fill="#756BD1"/>
<path d="M410.399 1C415.121 46.4778 394.108 154.798 272.28 224.255C119.996 311.076 36.7707 344.741 35 467" stroke="white" stroke-dasharray="6 6"/>
</svg>
