<svg width="58" height="51" viewBox="0 0 58 51" fill="none" xmlns="http://www.w3.org/2000/svg">
<g clip-path="url(#clip0_12_1090)">
<path d="M2.44931 51V43.7143C4.73536 42.4672 6.44987 40.2191 7.5929 36.9701C8.73592 33.721 9.30743 29.4382 9.30743 24.1216V21.8571H0V0H21.75V16.3436C21.75 26.2549 20.1498 34.0984 16.9493 39.8745C13.7488 45.6506 8.91556 49.3591 2.44931 51ZM38.6993 51V43.7143C40.9854 42.4672 42.6999 40.2191 43.8429 36.9701C44.9859 33.721 45.5574 29.4382 45.5574 24.1216V21.8571H36.25V0H58V16.3436C58 26.2549 56.3998 34.0984 53.1993 39.8745C49.9988 45.6506 45.1656 49.3591 38.6993 51Z" fill="#756BD1"/>
</g>
<defs>
<clipPath id="clip0_12_1090">
<rect width="58" height="51" fill="white"/>
</clipPath>
</defs>
</svg>
