<svg width="58" height="51" viewBox="0 0 58 51" fill="none" xmlns="http://www.w3.org/2000/svg">
<path d="M55.5507 0V7.28571C53.2646 8.53282 51.5501 10.7809 50.4071 14.0299C49.2641 17.279 48.6926 21.5618 48.6926 26.8784V29.1429H58V51H36.25V34.6564C36.25 24.7451 37.8502 16.9016 41.0507 11.1255C44.2512 5.3494 49.0844 1.64093 55.5507 0ZM19.3007 0V7.28571C17.0146 8.53282 15.3001 10.7809 14.1571 14.0299C13.0141 17.279 12.4426 21.5618 12.4426 26.8784V29.1429H21.75V51H0V34.6564C0 24.7451 1.60022 16.9016 4.80069 11.1255C8.00116 5.3494 12.8344 1.64093 19.3007 0Z" fill="#756BD1"/>
</svg>
