<svg width="835" height="1089" viewBox="0 0 835 1089" fill="none" xmlns="http://www.w3.org/2000/svg">
<circle cx="800" cy="1054" r="34.5" fill="#0A0819" stroke="white" stroke-dasharray="6 6"/>
<path d="M788.104 1055.34C788.104 1052.85 788.616 1050.89 789.64 1049.46C790.68 1048.04 792.008 1047.33 793.624 1047.33C795.24 1047.33 796.552 1048.04 797.56 1049.46C798.584 1050.89 799.096 1052.85 799.096 1055.34C799.096 1057.82 798.592 1059.76 797.584 1061.15C796.576 1062.54 795.256 1063.24 793.624 1063.24C792.008 1063.24 790.68 1062.54 789.64 1061.15C788.616 1059.76 788.104 1057.82 788.104 1055.34ZM789.832 1055.32C789.832 1057.46 790.192 1059.21 790.912 1060.55C791.648 1061.88 792.552 1062.54 793.624 1062.54C794.712 1062.54 795.608 1061.88 796.312 1060.55C797.016 1059.22 797.368 1057.49 797.368 1055.34C797.368 1053.18 797.016 1051.42 796.312 1050.04C795.608 1048.65 794.712 1047.95 793.624 1047.95C792.552 1047.95 791.648 1048.65 790.912 1050.04C790.192 1051.42 789.832 1053.18 789.832 1055.32ZM811.307 1059.57H811.595V1063H801.971V1062.69C804.259 1060.43 806.075 1058.26 807.419 1056.18C808.763 1054.1 809.435 1052.37 809.435 1050.98C809.435 1050.08 809.203 1049.35 808.739 1048.79C808.275 1048.23 807.611 1047.95 806.747 1047.95C806.203 1047.95 805.731 1048.08 805.331 1048.34C804.931 1048.59 804.635 1048.87 804.443 1049.18C804.251 1049.48 804.035 1049.76 803.795 1050.02C803.571 1050.27 803.339 1050.4 803.099 1050.4C802.859 1050.4 802.659 1050.33 802.499 1050.18C802.355 1050.02 802.283 1049.83 802.283 1049.61C802.283 1049 802.723 1048.47 803.603 1048.02C804.483 1047.56 805.539 1047.33 806.771 1047.33C808.003 1047.33 809.051 1047.62 809.915 1048.22C810.779 1048.81 811.211 1049.76 811.211 1051.07C811.211 1052.58 810.451 1054.28 808.931 1056.18C808.115 1057.19 807.339 1058.1 806.603 1058.9C805.867 1059.68 804.843 1060.73 803.531 1062.04C806.123 1062.04 808.067 1061.87 809.363 1061.54C810.659 1061.2 811.307 1060.54 811.307 1059.57Z" fill="#756BD1"/>
<path d="M0 1C30 1 168.569 51.9865 172 203C176.226 389 26 535 108 723C141.398 799.571 262.271 892.744 498 821C682 765 800 873 800 1019" stroke="white" stroke-dasharray="6 6"/>
<circle cx="112" cy="65" r="34.5" fill="#0A0819" stroke="white" stroke-dasharray="6 6"/>
<path d="M100.104 66.344C100.104 63.848 100.616 61.888 101.64 60.464C102.68 59.04 104.008 58.328 105.624 58.328C107.24 58.328 108.552 59.04 109.56 60.464C110.584 61.888 111.096 63.848 111.096 66.344C111.096 68.824 110.592 70.76 109.584 72.152C108.576 73.544 107.256 74.24 105.624 74.24C104.008 74.24 102.68 73.544 101.64 72.152C100.616 70.76 100.104 68.824 100.104 66.344ZM101.832 66.32C101.832 68.464 102.192 70.208 102.912 71.552C103.648 72.88 104.552 73.544 105.624 73.544C106.712 73.544 107.608 72.88 108.312 71.552C109.016 70.224 109.368 68.488 109.368 66.344C109.368 64.184 109.016 62.416 108.312 61.04C107.608 59.648 106.712 58.952 105.624 58.952C104.552 58.952 103.648 59.648 102.912 61.04C102.192 62.416 101.832 64.176 101.832 66.32ZM120.163 68.576C120.163 70.816 120.259 72.144 120.451 72.56C120.547 72.768 120.651 72.968 120.763 73.16C120.891 73.336 121.067 73.456 121.291 73.52C121.739 73.648 122.307 73.712 122.995 73.712L123.043 74H115.603L115.651 73.712C116.131 73.712 116.507 73.696 116.779 73.664C117.067 73.632 117.323 73.544 117.547 73.4C117.787 73.256 117.955 73.096 118.051 72.92C118.163 72.728 118.259 72.408 118.339 71.96C118.435 71.32 118.483 70.192 118.483 68.576V62.24C118.483 61.152 118.131 60.608 117.427 60.608C116.915 60.608 116.011 60.896 114.715 61.472L114.523 61.016C117.291 59.768 119.083 58.864 119.899 58.304L120.163 58.424V68.576Z" fill="#756BD1"/>
</svg>
