<?xml version="1.0" standalone="no"?>
<!DOCTYPE svg PUBLIC "-//W3C//DTD SVG 1.1//EN" "http://www.w3.org/Graphics/SVG/1.1/DTD/svg11.dtd" >
<svg xmlns="http://www.w3.org/2000/svg" xmlns:xlink="http://www.w3.org/1999/xlink" version="1.1">
<metadata>
Created by FontForge 20170731 at Fri Apr  8 10:39:44 2022
 By Aleksey,,,
Created by Fabian De Smet
</metadata>
<defs>
<font id="Butler-ExtraBold" horiz-adv-x="1349" >
  <font-face 
    font-family="Butler"
    font-weight="800"
    font-stretch="normal"
    units-per-em="2048"
    panose-1="2 0 5 3 9 0 0 2 0 3"
    ascent="1505"
    descent="-543"
    x-height="946"
    cap-height="1442"
    bbox="-301 -696 2392 2013"
    underline-thickness="102"
    underline-position="-307"
    unicode-range="U+0020-FB02"
  />
<missing-glyph horiz-adv-x="1038" 
d="M594 721l315 -485v974zM213 1313l305 -471l305 471h-610zM-2 1442h1040v-1442h-1040v1442zM127 236l313 485l-313 489v-974zM823 129l-305 475l-305 -475h610z" />
    <glyph glyph-name="f_i" unicode="fi" horiz-adv-x="1267" 
d="M1192 16v-16h-467v16q28 8 45 27t24.5 52t9 60t1.5 76v523q0 166 -88 166h-242v-689q0 -97 16.5 -149t67.5 -66v-16h-467v16q28 8 45 27t24.5 52t9 60t1.5 76v689h-131l-2 26h133v23q0 124 27 220.5t74 159t116 103t149 57.5t177 17q112 0 217 -41.5t139 -104.5
q22 -39 22.5 -90.5t-22.5 -93.5q-32 -57 -97.5 -74t-123.5 15q-58 34 -74.5 97.5t17.5 123.5q32 60 94 72q26 7 1 26q-40 33 -132 41l-41 2q-36 0 -68.5 -14.5t-64.5 -51t-55 -92t-37.5 -144.5t-14.5 -202v-49h244q64 0 161.5 8t162.5 16l65 7v-746q0 -98 16.5 -150.5
t67.5 -64.5z" />
    <glyph glyph-name="f_l" unicode="fl" horiz-adv-x="1224" 
d="M1194 25v-25h-467v25q53 16 66.5 63t13.5 143v1063q0 25 -2 42t-8.5 38t-22 36t-39.5 24q-36 13 -68.5 14.5t-65.5 -10t-59.5 -44.5t-47 -84t-32 -133.5t-11.5 -189.5v-41h219l-2 -26h-217v-689q0 -96 16.5 -144t67.5 -62v-25h-467v25q53 17 67.5 64.5t14.5 141.5v689
h-134l-2 26h136v164q0 92 23 165.5t59 119t84 76.5t94.5 43t93.5 12q27 0 59.5 -3.5t84.5 -19.5t87 -43l375 68v-1297q0 -96 16.5 -144.5t67.5 -61.5z" />
    <glyph glyph-name=".notdef" horiz-adv-x="1038" 
d="M594 721l315 -485v974zM213 1313l305 -471l305 471h-610zM-2 1442h1040v-1442h-1040v1442zM127 236l313 485l-313 489v-974zM823 129l-305 475l-305 -475h610z" />
    <glyph glyph-name=".null" horiz-adv-x="0" 
 />
    <glyph glyph-name="nonmarkingreturn" horiz-adv-x="682" 
 />
    <glyph glyph-name="space" unicode=" " horiz-adv-x="557" 
 />
    <glyph glyph-name="exclam" unicode="!" horiz-adv-x="729" 
d="M463 496h-184l-70 1030h332zM547 158q0 73 -52 124.5t-124 51.5t-124 -51.5t-52 -124.5t52 -124.5t124 -51.5t124 51.5t52 124.5z" />
    <glyph glyph-name="quotedbl" unicode="&#x22;" horiz-adv-x="1142" 
d="M723 770l-66 672h306l-64 -672h-176zM274 770l-67 672h305l-63 -672h-175z" />
    <glyph glyph-name="numbersign" unicode="#" horiz-adv-x="1495" 
d="M934 942h-279l-67 -295h276zM1417 942h-272l-70 -295h213v-213h-260l-100 -434h-213l100 434h-278l-101 -434h-211l101 434h-236v213h285l67 295h-223v213h273l88 373h211l-86 -373h276l88 373h213l-88 -373h223v-213z" />
    <glyph glyph-name="dollar" unicode="$" horiz-adv-x="1230" 
d="M616 8q79 0 132.5 32t72 84.5t12 113.5t-47.5 124.5t-107 112.5l-62 37v-504zM590 981v453q-65 0 -113.5 -28t-68 -75t-14.5 -102t48.5 -116.5t120.5 -111.5zM879 793q206 -136 263 -305t-55 -338q-18 -22 -34.5 -38t-57 -42.5t-87 -43.5t-123.5 -30.5t-169 -13.5v-250
h-26v250q-101 3 -190 15.5t-144 29t-95.5 32t-57.5 26.5l-17 11v393h16q13 -45 35.5 -96t65 -117.5t94.5 -120t129 -95.5t164 -52v520l-228 146q-221 139 -277.5 301t69.5 330q4 6 13.5 16.5t45.5 37.5t81 47t124.5 37t171.5 17v250h26v-250q93 -1 176.5 -11.5t136.5 -24.5
t93 -27.5t57 -22.5l17 -10v-344h-19q-15 47 -33 90.5t-57 104t-86.5 104.5t-122 77.5t-162.5 37.5v-469z" />
    <glyph glyph-name="percent" unicode="%" horiz-adv-x="2162" 
d="M502 1012q0 -90 2 -142.5t8 -94.5t18 -60.5t29.5 -27.5t46.5 -9q24 0 40 4.5t28.5 20.5t18.5 36.5t10 62.5t5 87.5t1 122.5q0 90 -2 144.5t-8 98.5t-18 64.5t-29.5 30.5t-45.5 10q-24 0 -40.5 -5.5t-28.5 -23t-18.5 -39.5t-10.5 -65.5t-5 -90.5t-1 -124zM920 1012
q0 -163 -76 -262t-238 -99q-84 0 -146.5 27.5t-99 78t-54 114t-17.5 141.5q0 79 17.5 144.5t54 118t99 82t146.5 29.5q83 0 145 -29.5t98 -82t53.5 -118t17.5 -144.5zM1589 74q25 0 40.5 4.5t28 20.5t18.5 36t10 62t5 88t1 123q0 90 -2 144t-8 97.5t-18 64t-29.5 30.5
t-45.5 10q-24 0 -40.5 -5.5t-28.5 -22.5t-18.5 -39.5t-10.5 -65.5t-5 -90t-1 -123q0 -91 2 -143.5t7.5 -94.5t18 -60.5t30 -27t46.5 -8.5zM1589 780q83 0 145.5 -29t99 -81t54 -117.5t17.5 -144.5t-17.5 -142.5t-54 -113.5t-99 -77.5t-145.5 -27.5q-164 0 -240.5 98.5
t-76.5 262.5q0 79 17.5 144.5t54 117.5t99 81t146.5 29zM1552 1442h168l-1056 -1442h-168z" />
    <glyph glyph-name="ampersand" unicode="&#x26;" horiz-adv-x="1687" 
d="M926 1317q-31 64 -82.5 101t-110.5 28q-51 -7 -89.5 -53t-43.5 -115t49 -152l135 -202q61 41 100 90t53 91t14.5 85.5t-6.5 72.5t-19 54zM1546 264h29q1 -128 -74 -204t-201 -78q-25 -1 -53.5 1t-69 9.5t-81.5 27t-70 48.5q-25 22 -123 157q-19 -58 -66 -107.5
t-108 -82.5t-134.5 -46.5t-143 -5.5t-135.5 47.5t-111 106.5q-40 60 -55 120t-8 109.5t32.5 98.5t57.5 86.5t75.5 75t78.5 61t75 47.5l59 37l-90 135q-75 102 -93 210t15 192.5t112 142.5t189 66q112 8 195.5 -42t116.5 -147q85 -251 -164 -430l254 -381q94 184 250 225
q35 12 82 6t79 -32q47 -38 52.5 -100.5t-35.5 -112.5q-40 -47 -103 -52.5t-110 35.5q-51 41 -51 101q-1 28 -36 18q-47 -13 -87 -68q-15 -20 -25 -42q24 -39 82 -123.5t72 -102.5q76 -108 178 -108q130 0 143 102zM885 250l-346 498l-60 -39q-48 -38 -70 -103.5t-2.5 -157
t89.5 -180.5q36 -46 88.5 -78t108 -42t108.5 15t84 87z" />
    <glyph glyph-name="quotesingle" unicode="'" horiz-adv-x="602" 
d="M219 770l-65 672h305l-64 -672h-176z" />
    <glyph glyph-name="parenleft" unicode="(" horiz-adv-x="720" 
d="M692 1526l29 -27q-256 -301 -256 -985q0 -680 252 -909l-29 -27q-85 48 -157 106t-122.5 113t-91.5 120.5t-66 118.5t-43.5 118t-27 108t-13 100t-5 81.5t-0.5 63.5v13q0 159 19 261q81 445 511 745z" />
    <glyph glyph-name="parenright" unicode=")" horiz-adv-x="714" 
d="M-4 1499l29 27q110 -76 197 -164t141.5 -165t93.5 -167t57.5 -152t28.5 -141t11 -114t1 -88v-15q0 -165 -22 -275q-88 -432 -504 -667l-29 27q252 229 252 909q0 684 -256 985z" />
    <glyph glyph-name="asterisk" unicode="*" horiz-adv-x="1153" 
d="M1008 1034l-367 -37l274 -245l-198 -144l-150 338l-147 -338l-199 144l275 245l-367 37l78 234l315 -187l-78 361h246l-78 -361l320 187z" />
    <glyph glyph-name="plus" unicode="+" horiz-adv-x="1464" 
d="M1346 750v-232h-500v-518h-232v518h-499v232h499v518h232v-518h500z" />
    <glyph glyph-name="comma" unicode="," horiz-adv-x="587" 
d="M213 -270l-18 24q53 41 87.5 98.5t35 91t-12.5 42.5q-85 11 -129 53q-57 55 -57.5 135t55.5 137q56 55 135 55t135 -55q41 -41 51 -99t-7 -118t-40 -109t-53 -94q-65 -96 -182 -161z" />
    <glyph glyph-name="hyphen" unicode="-" horiz-adv-x="909" 
d="M776 401h-645v238h645v-238z" />
    <glyph glyph-name="period" unicode="." horiz-adv-x="612" 
d="M313 -10q-80 0 -136 55.5t-56 134.5q0 80 56.5 137.5t135.5 57.5q78 0 134.5 -57.5t56.5 -137.5q0 -79 -56.5 -134.5t-134.5 -55.5z" />
    <glyph glyph-name="slash" unicode="/" horiz-adv-x="915" 
d="M881 1485l-631 -1528h-221l630 1528h222z" />
    <glyph glyph-name="zero" unicode="0" horiz-adv-x="1357" 
d="M680 1434q-45 0 -76.5 -14t-55.5 -49.5t-38.5 -87t-23.5 -137t-12 -187.5t-3 -250q0 -176 5.5 -289.5t18 -198.5t37 -129t59.5 -64t89 -20q44 0 75 12.5t55 45.5t38 81.5t23 131t12.5 183t3.5 247.5q0 176 -5.5 292.5t-18.5 204.5t-37.5 135.5t-59 70t-86.5 22.5z
M680 -18q-133 0 -237.5 37t-174.5 101.5t-116 157.5t-66 199.5t-20 231.5q0 126 20 235t66 205.5t116 164t175 107t237 39.5t236.5 -39.5t174 -107t115.5 -164t66 -205.5t20 -235q0 -125 -20 -231.5t-66 -199.5t-115.5 -157.5t-174 -101.5t-236.5 -37z" />
    <glyph glyph-name="one" unicode="1" horiz-adv-x="858" 
d="M727 25v-25h-575v25q68 0 105.5 36t37.5 123v889q0 38 -11 61.5t-28 30t-37.5 5t-41.5 -10t-38 -17.5t-28 -16l-11 -8l-16 25l393 317h129v-1276q0 -91 30.5 -125t90.5 -34z" />
    <glyph glyph-name="two" unicode="2" horiz-adv-x="1017" 
d="M932 408h26l-112 -408h-789l441 612q158 250 100 417q-36 101 -139 141q-99 38 -197 0q-100 -40 -130 -139q-6 -20 -9 -42l-33 -4q-12 90 8.5 169.5t63 134t99.5 94.5t116.5 58.5t114.5 18.5q152 0 261 -106.5t109 -247.5q0 -78 -44.5 -164.5t-97.5 -147t-133.5 -146
t-115.5 -130.5l-168 -227h434q57 0 110 29.5t85 87.5z" />
    <glyph glyph-name="three" unicode="3" horiz-adv-x="1097" 
d="M469 -18q-127 0 -215 33t-150 104q-27 31 -32.5 80t14.5 92q29 63 93 86t124 -6q63 -29 87 -92.5t-5 -126.5q-32 -66 -90 -80q-12 -2 -2 -17q25 -36 122 -45q24 -2 52 -2q87 0 141 53t69.5 136t0.5 186q-5 38 -14.5 72t-34.5 81.5t-61 82.5t-99.5 62.5t-144.5 33.5v26
q88 22 146.5 66.5t80 97.5t21.5 108t-23 102t-60 75q-47 35 -116 40.5t-133 -28t-86 -100.5l-25 2q-1 71 23 131.5t62.5 101t88 69t99 41.5t96.5 13q84 0 158 -31t124.5 -82t75.5 -119.5t18.5 -140t-55.5 -147.5t-137 -139q146 -36 236.5 -134.5t93.5 -209.5t-30.5 -197
t-87.5 -137t-129 -84t-146.5 -45t-149.5 -12z" />
    <glyph glyph-name="four" unicode="4" horiz-adv-x="1126" 
d="M535 545v526l-289 -416q-22 -31 -32.5 -53t-11 -33t9 -16.5t18 -6.5t24.5 -1h281zM1061 401h-193v-112q0 -76 6.5 -126t15 -77.5t28.5 -40.5t35.5 -15.5t47.5 -2.5v-27h-600v27q31 0 47.5 2.5t36 15.5t28.5 39.5t15.5 74.5t6.5 120v122h-476v35l713 1024l96 -18v-897h193
v-144z" />
    <glyph glyph-name="five" unicode="5" horiz-adv-x="1120" 
d="M1034 436q-3 -92 -32.5 -168t-79.5 -128.5t-117 -88.5t-144 -52.5t-163 -16.5q-219 0 -340 100q-34 28 -50 76.5t-6 95.5q15 68 77 105t132 22q67 -15 104.5 -75.5t22.5 -131.5q-18 -72 -71 -102q-18 -8 -7 -26q21 -38 138 -38q67 0 121 21t87 56.5t54.5 81.5t21.5 96.5
t-12 101.5q-6 21 -16 41.5t-29 48.5t-44.5 51t-63 48.5t-85 41t-110 28.5t-138 11t-169.5 -12l155 819h736l-95 -305h-669l-47 -234q184 31 324.5 15.5t239.5 -59t160.5 -113.5t89 -147.5t25.5 -162.5z" />
    <glyph glyph-name="six" unicode="6" horiz-adv-x="1222" 
d="M805 406q0 405 -164 405q-27 0 -56 -7.5t-59 -23.5t-49.5 -46.5t-19.5 -71.5q0 -103 1.5 -176t5.5 -146.5t12 -121.5t20.5 -91t31 -67.5t43.5 -38t58 -13.5q113 0 144.5 76.5t31.5 321.5zM1147 446q0 -154 -68 -260t-182.5 -155t-267.5 -49q-265 0 -404 178t-139 491
q0 186 47.5 338.5t132 255.5t201 159t252.5 56q69 0 128 -17.5t96 -44.5t56.5 -47.5t30.5 -37.5q22 -35 21 -85t-27 -91q-38 -60 -106 -76.5t-130 20.5q-60 37 -75 107.5t24 128.5q40 62 103 74q10 1 -1 13q-30 30 -120 30q-259 0 -262 -707q26 82 112 126t183 44
q91 0 161.5 -25.5t114 -68t71 -102t38 -121.5t10.5 -134z" />
    <glyph glyph-name="seven" unicode="7" horiz-adv-x="1153" 
d="M162 1442h923l-176 -305q-61 -115 -104.5 -258t-64 -255t-31.5 -255.5t-12 -207t-1 -161.5h-342q7 109 22 200t50.5 201.5t92 219t147.5 240t215 276.5h-553q-58 0 -117.5 -31t-89.5 -88h-27z" />
    <glyph glyph-name="eight" unicode="8" horiz-adv-x="1167" 
d="M578 1434q-79 0 -132 -53.5t-57 -143.5q-7 -100 66 -178q37 -43 102 -78q17 -10 82.5 -43t87.5 -41q86 51 86 248q0 151 -76 227q-62 62 -159 62zM74 330q0 67 28.5 128.5t73.5 104t93 71.5t93 42q-249 165 -249 395q0 177 127 283t338 106q204 0 316 -80.5t112 -220.5
q0 -54 -23 -103.5t-60 -84t-79.5 -57.5t-85.5 -33q161 -75 252.5 -201t91.5 -262q0 -216 -130.5 -326t-377.5 -110q-256 0 -388 84t-132 264zM418 643q-43 -31 -71 -105.5t-28 -193.5q0 -162 70.5 -249t204.5 -87q98 0 159.5 58.5t67.5 160.5q6 96 -61 180t-174 146
q-10 5 -86.5 46.5t-81.5 43.5z" />
    <glyph glyph-name="nine" unicode="9" horiz-adv-x="1200" 
d="M418 1038q0 -405 155 -405q74 0 134.5 39t60.5 116q0 360 -33 503t-137 143q-73 0 -110.5 -34t-53.5 -117t-16 -245zM76 997q0 154 68.5 260t183 154.5t266.5 48.5q184 0 307 -82.5t179.5 -229.5t56.5 -355q0 -156 -20 -278.5t-65.5 -224t-118 -168.5t-180.5 -103.5
t-249 -36.5q-76 0 -137.5 17.5t-98 45.5t-54.5 47t-28 37q-24 36 -23 86.5t27 91.5q38 61 106.5 76t129.5 -23q60 -37 75 -106t-22 -129q-44 -64 -104 -72q-11 -1 3 -13q34 -32 126 -32q180 0 220.5 133.5t43.5 579.5q-30 -83 -113 -128.5t-170 -45.5q-409 0 -409 450z" />
    <glyph glyph-name="colon" unicode=":" horiz-adv-x="598" 
d="M305 588q-81 0 -137.5 56t-56.5 136t56.5 137.5t137.5 57.5q78 0 135.5 -58t57.5 -137t-57.5 -135.5t-135.5 -56.5zM305 -23q-82 0 -138 56.5t-56 138.5q0 80 56.5 137.5t137.5 57.5q78 0 135.5 -58t57.5 -137q0 -81 -57 -138t-136 -57z" />
    <glyph glyph-name="semicolon" unicode=";" horiz-adv-x="593" 
d="M305 590q-82 0 -138 56t-56 138q0 80 56.5 137.5t137.5 57.5q79 0 136 -57.5t57 -137.5q0 -81 -56.5 -137.5t-136.5 -56.5zM438 309q41 -41 52 -98.5t-5 -117.5t-38.5 -109t-51.5 -93q-60 -87 -188 -159l-19 24q55 38 90 95.5t35.5 91t-12.5 41.5q-85 11 -129 55
q-57 56 -58 134.5t56 135.5q56 57 134 56.5t134 -56.5z" />
    <glyph glyph-name="less" unicode="&#x3c;" horiz-adv-x="1228" 
d="M457 545l676 -346v-232l-1039 533v88l1039 532v-233z" />
    <glyph glyph-name="equal" unicode="=" horiz-adv-x="1255" 
d="M1161 674h-1046v205h1046v-205zM1161 213h-1046v205h1046v-205z" />
    <glyph glyph-name="greater" unicode="&#x3e;" horiz-adv-x="1228" 
d="M772 543l-676 346v231l1039 -532v-88l-1039 -533v234z" />
    <glyph glyph-name="question" unicode="?" horiz-adv-x="1228" 
d="M754 166q0 -73 -52.5 -124.5t-126.5 -51.5q-72 0 -124 51.5t-52 124.5t52 124.5t124 51.5q74 0 126.5 -51.5t52.5 -124.5zM760 705q-89 -23 -141.5 -81.5t-45.5 -146.5l-36 -4q-1 4 -5.5 31.5t-5.5 40t-2.5 40.5t4 47.5t14 46.5t27 52t43.5 49q69 65 92 153t11 224
q-7 77 -39.5 138.5t-81.5 95.5t-109.5 43.5t-122.5 -17.5q-49 -19 -58 -61q-6 -28 12 -34q3 -1 6 -1q56 0 100 -47q44 -46 41.5 -110t-47.5 -107q-45 -42 -108.5 -37t-108.5 51q-49 54 -37 152q7 56 55 118.5t127 98.5q120 53 249 58t232 -32.5t171.5 -117.5t72.5 -187
q4 -86 -15.5 -159t-52.5 -122t-77 -87t-84.5 -58t-79.5 -30z" />
    <glyph glyph-name="at" unicode="@" horiz-adv-x="1921" 
d="M1184 528q5 33 7.5 64t0 74.5t-21.5 70t-54 27.5q-84 1 -149.5 -100t-98.5 -244q-35 -160 5 -239.5t114 -84.5q25 -2 47 6t36 21t24.5 26.5t15.5 22.5l4 10q3 15 16 76.5t28 135.5t26 134zM1819 485q-9 -94 -35.5 -172t-63 -131.5t-83.5 -95t-94 -65.5t-98 -38.5
t-92 -19.5t-79 -4q-92 1 -137 47t-37 105q-8 -12 -20 -26.5t-39 -38t-57.5 -42t-75.5 -32t-93 -13.5q-54 0 -97 26t-67.5 67t-41.5 92t-17.5 101.5t4.5 94.5q7 51 23 105.5t51.5 123t83.5 120.5t125.5 88t171.5 36q34 0 64 -9t48.5 -22t32 -27t19.5 -23t6 -11l10 53l227 -4
q-105 -534 -121 -606q-10 -55 -2 -71q11 -19 43 -19q28 0 63.5 14.5t75.5 49t73 83t56 123.5t25 164q1 63 -2 116t-16 114t-35.5 109.5t-61.5 96t-92.5 81.5t-131.5 58t-175 33q-121 10 -230 -12.5t-193.5 -71t-153.5 -116.5t-117 -149.5t-78.5 -168t-42.5 -174.5
q-2 -9 -4 -24.5t-4 -63t0.5 -94.5t15 -111.5t35 -121.5t65 -117t100 -105t145.5 -79t196 -46q80 -8 149 -1t126 24t97.5 34.5t62.5 30.5l22 14l14 -22q-6 -7 -18.5 -18t-59.5 -39t-103 -49t-152 -38t-204 -16q-67 0 -136.5 11t-146 37.5t-145 65.5t-130 101.5t-105 140.5
t-67 186.5t-17.5 235.5q7 171 66.5 320t158.5 259.5t229 188t284 113t317 27.5q115 -6 219.5 -38t197 -95t157 -151.5t95.5 -217t17 -281.5z" />
    <glyph glyph-name="A" unicode="A" horiz-adv-x="1499" 
d="M797 426l-226 530l-202 -530h428zM1475 25v-25h-652v25q45 0 66.5 23.5t20 57.5t-9.5 67.5t-19 56.5l-11 24l-63 145h-445q-6 -14 -10 -45t-5.5 -74.5t11 -88t36 -83t72 -62t116.5 -21.5v-25h-547v25q25 2 38.5 5t45.5 25.5t61.5 64t75 127t96.5 206.5l385 989h23
l536 -1258q12 -27 23 -48.5t23.5 -37t21 -27.5t22 -19.5t19 -12.5t20 -7.5t17 -3.5t18.5 -2z" />
    <glyph glyph-name="B" unicode="B" horiz-adv-x="1411" 
d="M608 1415h-53v-672h70q38 0 69 6.5t66 28.5t59 58.5t39.5 102.5t15.5 155q0 64 -10 115t-25.5 84t-39.5 57t-45.5 36t-51 19t-49 8.5t-45.5 1.5zM1323 367q0 -75 -21 -133t-52 -96.5t-88 -65t-106.5 -40.5t-131 -21.5t-138.5 -9t-151 -1.5h-559v18q42 0 69.5 38
t38.5 94.5t11 130.5v878q0 51 -6 96t-19.5 84.5t-37.5 62.5t-56 23v17h559h7q63 0 95.5 -0.5t91.5 -3.5t91.5 -9t81 -18.5t75.5 -30t60 -44.5t50 -62t28.5 -83t11.5 -106q0 -62 -20.5 -115t-53 -87.5t-74.5 -61.5t-82 -42t-79.5 -24.5t-63 -12.5t-35.5 -3q36 0 70.5 -2
t87 -10.5t97 -23.5t92.5 -43t81 -66t54.5 -96.5t21.5 -130.5zM950 375q0 69 -12 124t-29.5 90t-47.5 60.5t-55.5 38t-64 19.5t-63 8.5t-62.5 1.5h-61v-690h55q127 0 176 14q104 29 140 143q24 75 24 191z" />
    <glyph glyph-name="C" unicode="C" horiz-adv-x="1433" 
d="M1307 461h24l25 -369q-77 -51 -210 -80.5t-294 -29.5q-217 0 -392.5 93t-276.5 262.5t-101 383.5q0 213 101 382.5t276.5 263t392.5 93.5q370 0 504 -110l-25 -367h-24q-113 451 -455 451q-89 0 -148.5 -32.5t-103 -113t-63 -219.5t-19.5 -348t20.5 -348.5t64.5 -219.5
t103 -112.5t146 -32.5q74 0 144 27t132.5 80.5t109.5 142.5t69 203z" />
    <glyph glyph-name="D" unicode="D" horiz-adv-x="1605" 
d="M1096 715q0 135 -13 242t-34 180t-55 125t-68.5 81.5t-83 46t-89 21t-96.5 4.5h-90v-1388h90q56 0 94.5 3.5t88.5 19t83.5 42.5t68.5 78t56 122.5t34.5 179t13.5 243.5zM1532 715q0 -125 -27.5 -228t-74 -175.5t-114.5 -128.5t-142.5 -90t-165 -55.5t-174 -29.5
t-177.5 -8h-573v27q64 0 100.5 72.5t36.5 181.5v878q0 103 -36.5 179.5t-100.5 76.5v27h573q93 0 177.5 -8.5t174 -31t164.5 -57.5t143 -92t114.5 -131t74 -178t27.5 -229z" />
    <glyph glyph-name="E" unicode="E" 
d="M1204 424h27v-424h-1176v27q61 0 90 70.5t29 183.5v878q0 69 -10.5 123.5t-38 93.5t-70.5 39v27h1149v-406h-26q-5 77 -40 139.5t-86.5 101t-113 67t-121.5 41.5t-109.5 20.5t-80.5 8.5l-31 1h-74v-674h121q6 0 15.5 0.5t37 4.5t53.5 11.5t58 24.5t56.5 40.5t43 61.5
t23.5 85h26v-482h-26q-6 64 -38 111t-73 68.5t-81 33.5t-68 14l-27 1h-121v-688h74h19.5t51.5 3t77.5 8.5t90.5 19t98 32t94 49.5t83.5 69.5t61 94t32.5 121.5z" />
    <glyph glyph-name="F" unicode="F" horiz-adv-x="1249" 
d="M51 1442h1170v-406h-27q-7 79 -44 142.5t-90.5 102t-117 67t-125 40.5t-112 19t-81.5 7l-32 1h-72v-674h127q6 0 15.5 0.5t37.5 4.5t54.5 11.5t59.5 24.5t58 40t45.5 61t26.5 86h27v-482h-27q-6 47 -26 85t-46.5 61t-57.5 40t-60 24t-53.5 11.5t-38.5 4.5h-15h-127v-447
q0 -50 8.5 -89.5t20.5 -64t31.5 -42t34.5 -25.5t37 -12.5t31 -5t24 -0.5v-27h-656v27q62 0 90.5 70t28.5 184v878q0 69 -10.5 123.5t-38 93.5t-70.5 39v27z" />
    <glyph glyph-name="G" unicode="G" horiz-adv-x="1548" 
d="M922 555h577v-27q-68 0 -91 -20q-34 -30 -41 -150q-5 -75 -5 -276q-89 -46 -228.5 -73t-299.5 -27q-217 0 -390 96.5t-268.5 265t-95.5 377.5t95.5 377.5t268.5 265t390 96.5q188 0 307 -25t213 -87l-27 -377h-43q-9 114 -41.5 200t-75.5 135t-103 79t-113.5 39.5
t-116.5 9.5q-120 0 -186 -61.5t-97 -215t-31 -436.5q0 -282 32 -436.5t97.5 -215.5t184.5 -61q148 0 196.5 51.5t48.5 202.5q0 76 -6 124.5t-15.5 77.5t-31 43t-43 17.5t-61.5 3.5v27z" />
    <glyph glyph-name="H" unicode="H" horiz-adv-x="1452" 
d="M1317 1198v-960v-29.5v-30t0.5 -27.5t2 -27t5 -23.5t8 -22.5t11 -17.5t15.5 -16t21 -10.5t27 -7v-27h-477v27q18 3 28.5 17.5t15 46.5t5 52.5t0.5 67.5v27v436h-496v-436q0 -123 6 -154q11 -51 43 -57v-27h-479v27q15 2 27.5 7t22 10.5t16.5 15.5t11.5 18t7.5 22.5
t4.5 24t2 27t0.5 27v30v29.5v960q0 107 -11 144q-19 68 -81 73v27h479v-27q-12 -2 -21 -9t-14.5 -22.5t-8.5 -28.5t-4 -37t-1.5 -38t0 -42.5t0.5 -39.5v-493h496v493v30.5v32.5v31t-1.5 31t-3.5 27.5t-6 25t-9 19t-12.5 14.5t-16.5 6v27h477v-27q-22 -2 -38 -11t-25.5 -27
t-15.5 -34t-8 -44t-2.5 -44t-0.5 -46v-11z" />
    <glyph glyph-name="I" unicode="I" horiz-adv-x="815" 
d="M80 1442h661v-27q-75 0 -114 -37.5t-39 -144.5v-993q0 -118 40.5 -165.5t112.5 -47.5v-27h-661v27q73 0 113 47.5t40 165.5v993q0 107 -38.5 144.5t-114.5 37.5v27z" />
    <glyph glyph-name="J" unicode="J" horiz-adv-x="921" 
d="M213 1442h623v-25q-74 0 -106 -32t-32 -125v-887q0 -143 -40.5 -259t-105.5 -192.5t-157.5 -132.5t-186 -85.5t-200.5 -45.5l-8 25q70 25 128 73t107.5 127.5t77 204.5t27.5 285v635q0 294 -17 351.5t-110 57.5v25z" />
    <glyph glyph-name="K" unicode="K" horiz-adv-x="1699" 
d="M1657 27v-27h-344q-43 0 -73 1.5t-61.5 10.5t-51.5 16.5t-48.5 31t-47.5 43t-53 63t-60 80t-74 104.5q-52 75 -103.5 146.5t-77.5 105.5l-26 35l315 354q24 26 51 74.5t46 108.5t21.5 113t-31 90t-103.5 38v27h676v-27q-54 0 -115.5 -22.5t-148 -79t-203.5 -171
t-256 -280.5l520 -694q37 -48 73.5 -79t72 -43t54 -15t48.5 -4zM86 1442h602v-27q-39 0 -60.5 -4.5t-42 -20t-28.5 -49t-8 -88.5v-1052q0 -101 28.5 -137.5t96.5 -36.5v-27h-588v27q66 0 90.5 36t24.5 138v1052q0 95 -24.5 128.5t-90.5 33.5v27z" />
    <glyph glyph-name="L" unicode="L" 
d="M1192 444h27v-444h-1125v27q64 0 89.5 46.5t25.5 153.5v1039q0 89 -30 119t-101 30v27h631v-27q-37 0 -61 -5t-45.5 -21.5t-31.5 -50.5t-10 -87v-1224h37q27 0 59.5 2t90 11.5t110.5 26t112.5 48t104 74t77.5 108.5t40 147z" />
    <glyph glyph-name="M" unicode="M" horiz-adv-x="2062" 
d="M2032 27v-27h-623v27q69 0 98 44t29 148v1147l-539 -1384h-26l-619 1230v-682q0 -39 4 -84t14.5 -105t32.5 -113t53 -99.5t81 -74t112 -27.5v-27h-631v27q75 0 133 40t90 97.5t52.5 131t26.5 129.5t6 105v725q-28 49 -58 82.5t-60 48.5t-51.5 21t-47.5 8v27h550l494 -991
l383 991h475v-27q-71 0 -99 -36.5t-28 -129.5v-1030q0 -101 37.5 -146.5t110.5 -45.5z" />
    <glyph glyph-name="N" unicode="N" horiz-adv-x="1720" 
d="M1376 0h-168l-833 1112v-620q0 -28 1 -52.5t7 -75t16.5 -91t32.5 -88.5t52 -81t78 -55t108 -22v-27h-637v27q61 0 111 22t81.5 55.5t56 80t36.5 89.5t19.5 90.5t9 75.5t1.5 52v651l-88 119q-23 29 -45.5 52.5t-39.5 39t-36.5 27t-31 17.5t-29 9.5t-24.5 4.5t-24 2t-20 1
v27h578l762 -1012v522q0 37 -5 85t-23.5 118t-47.5 125.5t-84 95.5t-127 39v27h620v-27q-58 0 -106 -20.5t-79 -53.5t-54.5 -78.5t-36 -88t-20 -89.5t-9.5 -77t-2 -56v-952z" />
    <glyph glyph-name="O" unicode="O" horiz-adv-x="1615" 
d="M1112 711q0 174 -8.5 291.5t-27.5 204.5t-54.5 135t-86 70t-124.5 22q-75 0 -125.5 -22t-87 -70t-56 -135t-28 -204.5t-8.5 -291.5q0 -175 8.5 -290.5t28 -199.5t56 -128.5t86.5 -64.5t126 -20q62 0 106.5 12.5t79 45t56 82.5t35 131t19 184t5.5 248zM1538 711
q0 -153 -51 -286t-143 -231.5t-230 -155t-303 -56.5t-303 56.5t-230 155t-143 231.5t-51 286q0 152 51 288t143 238.5t230 162.5t303 60t303 -60t230 -162.5t143 -238.5t51 -288z" />
    <glyph glyph-name="P" unicode="P" horiz-adv-x="1382" 
d="M537 643h36q58 0 88 1t72 6t62 15t46 28.5t37.5 46t23.5 68.5t16 95t4 125q0 72 -4 127.5t-17.5 96t-24.5 69t-38.5 46.5t-46 27.5t-61.5 14t-69.5 5.5t-83.5 1h-4h-36v-772zM537 616v-335q0 -52 6.5 -92t16 -66.5t26.5 -45.5t31.5 -28.5t39 -14.5t41 -6t43.5 -1v-27
h-673v27q62 0 88 51.5t26 159.5v972q0 205 -127 205v27h518q96 0 171 -3.5t156 -14.5t141.5 -30t116.5 -50t91.5 -74t56.5 -104t21 -138q0 -76 -21 -136.5t-56.5 -103.5t-91.5 -74t-116.5 -50t-141.5 -30t-156.5 -14.5t-170.5 -3.5h-36z" />
    <glyph glyph-name="Q" unicode="Q" horiz-adv-x="1601" 
d="M1112 711q0 174 -8.5 291.5t-27.5 204.5t-54.5 135t-86 70t-124.5 22q-75 0 -125.5 -22t-87 -70t-56 -135t-28 -204.5t-8.5 -291.5q0 -175 8.5 -290.5t28 -199.5t56 -128.5t86.5 -64.5t126 -20q62 0 106.5 12.5t79 45t56 82.5t35 131t19 184t5.5 248zM1538 711
q0 -153 -51 -286t-143 -231.5t-230 -155t-303 -56.5t-303 56.5t-230 155t-143 231.5t-51 286q0 152 51 288t143 238.5t230 162.5t303 60t303 -60t230 -162.5t143 -238.5t51 -288zM948 -115l350 -118q24 -8 46.5 -12.5t41 -7t38.5 -0.5t33 3.5t30 7.5t26 9.5t23.5 12t19 11.5
t17.5 11.5t14 9.5l17 -21l-238 -205q-49 -40 -105 -58.5t-113.5 -19.5t-136.5 18.5t-154.5 47t-186.5 74.5l-176 73q-22 9 -42 14.5t-36 9t-33.5 3t-28.5 -0.5t-26.5 -5t-22 -7t-20.5 -9.5t-17 -9t-16 -10t-14 -9.5l-19 20q75 63 156 107t150 62.5t135.5 27t117.5 3.5
t90 -11.5t60 -13.5z" />
    <glyph glyph-name="R" unicode="R" horiz-adv-x="1548" 
d="M920 1051q0 78 -7.5 135t-17 96.5t-34 65t-42.5 39t-59.5 20t-68 7.5t-84.5 1h-5h-5h-5h-64v-727h64q141 0 189 13q77 21 108 99q31 80 31 251zM1534 27v-27h-297q-177 0 -224 61t-111 342q-3 12 -4.5 19t-4 17.5t-4.5 19.5q-13 59 -45 101t-68.5 61t-71 29.5t-56.5 11.5
h-23h-97v-422q0 -123 28 -168t95 -45v-27h-604v27q47 0 73 16.5t40 63.5t14 133v993q0 96 -30 139t-97 43v27h545q112 0 197 -5.5t173.5 -20t151 -42t113 -70t75.5 -106t25 -147.5q0 -343 -440 -371q59 2 106 -7t95 -36.5t86 -75t74 -126.5t65 -187q14 -55 43.5 -99t63 -69
t63 -38t51.5 -15z" />
    <glyph glyph-name="S" unicode="S" horiz-adv-x="1269" 
d="M1090 150q-2 -4 -6.5 -10t-22.5 -23.5t-39.5 -33t-59 -35t-81 -33.5t-106 -23.5t-132.5 -9.5q-111 0 -209 11.5t-158.5 28.5t-105.5 34t-64 28l-18 12v393h27q15 -49 37 -101.5t67.5 -123.5t101 -125t140.5 -92.5t182 -38.5q53 0 95.5 22t67 58.5t31 85t-6.5 99.5
t-51.5 104.5t-98.5 97.5l-315 199q-222 139 -278.5 301t69.5 330q4 6 13.5 16.5t45.5 37.5t81 47t124.5 37t171.5 17q98 0 186 -10t144 -24t98 -28t60 -24l18 -10v-344h-27q-134 414 -479 414q-65 0 -113.5 -28t-68 -75t-14.5 -102t48.5 -116.5t120.5 -111.5l316 -208
q206 -136 263.5 -305t-54.5 -338z" />
    <glyph glyph-name="T" unicode="T" horiz-adv-x="1488" 
d="M39 1442h1407v-436h-27q-3 72 -33 134.5t-75 105.5t-98 77t-105.5 53t-92.5 29t-63 10h-30v-1175q0 -103 34.5 -158t98.5 -55v-27h-625v27q64 0 98.5 55t34.5 158v1175h-31q-30 0 -80.5 -13t-117 -45t-124 -76.5t-99.5 -117t-45 -157.5h-27v436z" />
    <glyph glyph-name="U" unicode="U" horiz-adv-x="1556" 
d="M707 -18q-106 0 -200.5 32t-168.5 92.5t-117 158t-43 218.5v752q0 95 -28 137.5t-95 42.5v27h619v-27q-71 0 -104 -38t-33 -142v-766q0 -177 91 -271t242 -94q143 0 238.5 100.5t95.5 264.5v571q0 27 -3 57.5t-11.5 76.5t-27.5 85.5t-46.5 76t-73 58t-102.5 21.5v27h578
l2 -27q-55 0 -100.5 -16.5t-75 -42.5t-51.5 -62.5t-33.5 -70.5t-18.5 -72.5t-8.5 -63t-1.5 -47.5v-571q0 -102 -29 -185t-77.5 -138.5t-116.5 -93t-143 -54t-158 -16.5z" />
    <glyph glyph-name="V" unicode="V" horiz-adv-x="1619" 
d="M977 1442h600v-27q-33 0 -58.5 -6t-64.5 -32.5t-76 -73.5t-86 -134.5t-102 -210.5l-387 -958h-47l-551 1249q-20 47 -40.5 79.5t-35.5 49t-36 25t-32 10t-34 2.5v27h667v-27q-44 0 -66 -24.5t-22.5 -59.5t5.5 -69.5t15 -59.5l9 -24l315 -744l213 531q9 22 17 60t13.5 90
t-3 103.5t-29 96.5t-68 72.5t-116.5 27.5v27z" />
    <glyph glyph-name="W" unicode="W" horiz-adv-x="2330" 
d="M1710 1442h592v-27q-30 0 -58 -8.5t-67 -37t-77.5 -76.5t-87 -133.5t-97.5 -201.5l-356 -958h-54q-54 125 -210 496t-171 405l-327 -901h-56q-115 268 -247 580t-206 490l-75 179q-20 48 -39.5 80.5t-33.5 49t-34.5 25t-30 9.5t-32.5 2v27h647v-27q-44 0 -66 -24.5
t-22.5 -59.5t5.5 -69.5t15 -59.5l9 -24l301 -725l178 485q-28 64 -59.5 142t-49.5 124l-18 45q-20 48 -39.5 80.5t-33.5 49t-34.5 25t-30 9.5t-32.5 2v27h645v-27q-44 0 -66.5 -24.5t-23 -59.5t6 -69.5t15.5 -59.5l9 -24l299 -729l190 516q10 28 18.5 75t9 114t-14.5 123.5
t-63.5 97t-127.5 40.5v27z" />
    <glyph glyph-name="X" unicode="X" horiz-adv-x="1708" 
d="M1679 25v-25h-686v25q36 5 48.5 29t5 54t-20 60t-24.5 50l-13 20l-225 321l-111 -151q-13 -18 -28 -50t-31 -76.5t-19 -88.5t7 -82t49 -62t104 -24v-25h-622v25q55 2 89 13q176 60 431 392l112 154q-68 100 -182.5 262t-194.5 274l-81 111q-83 108 -140.5 145t-107.5 39
v27h723v-27q-30 0 -51.5 -13t-30.5 -37.5t3.5 -65t47.5 -89.5l236 -327q77 104 110 149q7 10 18 29.5t25.5 49.5t25 62.5t17 67t1 65.5t-21.5 55.5t-52.5 39t-90.5 14.5v27h619v-27q-20 -1 -29.5 -1.5t-43 -8.5t-60 -22t-73 -44t-91 -71.5t-104 -108t-121.5 -149.5
l-113 -152l457 -651q137 -178 239 -182z" />
    <glyph glyph-name="Y" unicode="Y" horiz-adv-x="1613" 
d="M977 1442h604v-27q-31 0 -64 -9t-80.5 -38t-94.5 -75t-104 -127t-110 -187l-151 -309v-430q0 -213 123 -213v-27h-598v27q125 0 125 213v325q-134 236 -234 408.5t-133 226.5l-33 55q-26 45 -49.5 76.5t-40 47.5t-36 25t-31 10.5t-31.5 2.5v25h635v-25h-2q-25 0 -38 -1.5
t-28.5 -13.5t-14 -35t19.5 -69.5t57 -113.5l295 -490q118 244 147 307q10 20 22.5 62.5t19 104.5t-2.5 116t-52 92.5t-120 38.5v27z" />
    <glyph glyph-name="Z" unicode="Z" horiz-adv-x="1300" 
d="M1255 1442l-743 -1415h59q256 0 427.5 129.5t205.5 320.5h27l-41 -477h-1145l799 1415h-96q-234 0 -406.5 -109t-210.5 -278h-29l33 414h1120z" />
    <glyph glyph-name="bracketleft" unicode="[" horiz-adv-x="731" 
d="M233 1505h461v-26q-31 0 -48 -0.5t-43.5 -4t-41.5 -10t-33 -19.5t-28 -31t-16.5 -46.5t-6.5 -64.5v-1420q0 -43 13.5 -73.5t31.5 -46t50.5 -24t57 -10t64.5 -1.5v-27h-461v1804z" />
    <glyph glyph-name="backslash" unicode="\" horiz-adv-x="940" 
d="M666 -41l-637 1546h231l639 -1546h-233z" />
    <glyph glyph-name="bracketright" unicode="]" horiz-adv-x="716" 
d="M23 1505h460v-1804h-460v27q40 0 64.5 1.5t57 10t50.5 24t31.5 46t13.5 73.5v1420q0 36 -6.5 64.5t-16.5 46.5t-28 31t-33 19.5t-41.5 10t-43.5 4t-48 0.5v26z" />
    <glyph glyph-name="asciicircum" unicode="^" horiz-adv-x="1200" 
d="M641 1442l379 -672h-98l-322 305l-315 -305h-103l381 672h78z" />
    <glyph glyph-name="underscore" unicode="_" horiz-adv-x="1146" 
d="M0 -121h1147v-166h-1147v166z" />
    <glyph glyph-name="grave" unicode="`" horiz-adv-x="808" 
d="M289 1475l401 -334h-121l-561 245z" />
    <glyph glyph-name="a" unicode="a" horiz-adv-x="1116" 
d="M614 494q-66 -15 -111 -42t-67 -63t-30.5 -70.5t-8.5 -76.5q0 -6 0.5 -15t6.5 -32.5t16 -41.5t32 -32.5t52 -14.5q73 0 110 91v297zM1071 141l23 -12q-18 -61 -88 -104t-164 -43q-4 0 -11.5 0.5t-29.5 4t-42 9.5t-45.5 19t-44.5 30.5t-34 46t-19 64.5
q-22 -75 -100.5 -124.5t-185.5 -49.5q-18 0 -41 2.5t-61.5 15t-68.5 33.5t-52.5 62t-22.5 95q0 60 22 104.5t49.5 72.5t102.5 56t128 42t179 45q32 8 49 12v129q0 159 -77 231.5t-183 18.5q-13 -6 -23 -14.5t-14.5 -17.5t0 -17t19.5 -12q49 -12 76 -62q25 -47 8 -98.5
t-64 -77.5q-47 -25 -99 -8.5t-77 63.5q-17 35 -14.5 73.5t24.5 64.5q19 26 29 38t43 39.5t76 49.5q41 22 90 32.5t78 10.5h29q193 0 285.5 -109.5t92.5 -300.5v-305q0 -6 0.5 -16t6 -35t15 -44t30 -34.5t47.5 -14.5q5 0 13.5 1t24.5 9.5t21 24.5z" />
    <glyph glyph-name="b" unicode="b" horiz-adv-x="1277" 
d="M846 453q0 218 -53.5 328t-169.5 110q-66 0 -110.5 -42.5t-62.5 -106t-18 -144.5v-240q0 -177 56 -263.5t151 -86.5q102 0 154.5 105.5t52.5 339.5zM1198 475q0 -108 -28 -193t-75.5 -140.5t-114.5 -92t-141 -52t-159 -15.5q-206 0 -305 96q-34 -25 -94.5 -48.5
t-101.5 -28.5t-48 9v1280q0 54 -21 81t-83 50v25l405 82v-729q44 82 132.5 124t201.5 42q192 0 312 -136.5t120 -353.5z" />
    <glyph glyph-name="c" unicode="c" horiz-adv-x="1046" 
d="M928 856q26 -25 36.5 -66t0.5 -79q-19 -57 -72.5 -85.5t-110.5 -9.5t-84 71t-8 108q17 60 70 82q14 7 -3 26q-34 35 -114 35q-38 0 -75.5 -24t-71 -72.5t-54 -135t-20.5 -198.5q0 -160 70.5 -245.5t193.5 -98.5q78 -8 154.5 22t103.5 82l23 -12q-5 -46 -33.5 -92.5
t-77 -88t-125.5 -67.5t-168 -26q-131 0 -240 68.5t-170 182t-61 244.5q0 99 34 185.5t99.5 155t171.5 108t240 39.5q182 0 291 -109z" />
    <glyph glyph-name="d" unicode="d" horiz-adv-x="1286" 
d="M854 270v351q0 157 -63.5 237t-155.5 80q-66 0 -107.5 -37.5t-65.5 -133.5t-24 -257q0 -225 50 -326.5t167 -101.5q80 0 135.5 54.5t63.5 133.5zM1257 57v-26l-346 -47q-25 -4 -39.5 5t-15.5 20l-2 11v154q-23 -63 -79.5 -108t-120.5 -64.5t-128 -19.5q-199 0 -320.5 129
t-121.5 366q0 122 38.5 216.5t107.5 153t161 88.5t203 30q174 0 260 -76v405q0 54 -20.5 79t-83.5 48v25l403 82v-1338q0 -74 20.5 -99.5t83.5 -33.5z" />
    <glyph glyph-name="e" unicode="e" horiz-adv-x="1085" 
d="M397 518h332q0 196 -41 308t-117 112q-52 0 -93 -64.5t-61 -159.5t-20 -196zM1001 492h-604q3 -93 22 -162t53 -112.5t75.5 -68t95.5 -36.5q87 -20 179 23t124 138l27 -10q-11 -51 -42.5 -99t-82.5 -90t-130.5 -67.5t-174.5 -25.5q-131 0 -239.5 68t-169 179.5
t-60.5 239.5q0 116 40 211.5t109 157t158 94.5t190 33q100 0 176.5 -25t134.5 -79t88.5 -147t30.5 -222z" />
    <glyph glyph-name="f" unicode="f" horiz-adv-x="741" 
d="M545 25v-25h-467v25q53 16 66.5 63t13.5 143v689h-131l-2 26h133q0 139 21 242t57 167t92 102t118 52.5t144 14.5q73 0 134.5 -34t86.5 -79q19 -31 20 -73t-18 -76q-26 -45 -79 -59.5t-99 11.5q-46 28 -59.5 80t12.5 99q23 45 78 55q23 5 16 22q-11 24 -64 27h-10
q-90 0 -118.5 -120.5t-28.5 -430.5h219l-4 -26h-215v-689q0 -96 16.5 -144t67.5 -62z" />
    <glyph glyph-name="g" unicode="g" horiz-adv-x="1189" 
d="M649 657q0 113 -13.5 175t-38 84t-67.5 22q-46 0 -70 -23t-35 -82.5t-11 -175.5q0 -164 27.5 -223t88.5 -59q42 0 66.5 22t38.5 85t14 175zM1145 784q-37 -33 -88 -29.5t-84 40.5q-36 39 -29 86q2 8 -9 9q-27 2 -62 -29l-5 -5q72 -75 72 -199q0 -43 -13 -84.5
t-43.5 -82.5t-76 -71.5t-117 -49.5t-160.5 -19q-118 0 -192 29q-18 -9 -36.5 -27.5t-29.5 -41t-8.5 -42.5t33.5 -33.5t90 -13.5h287q55 0 93 -3.5t95.5 -23t91 -55t53 -107t7.5 -171.5q-1 -7 -3 -18.5t-15 -47t-34.5 -69t-65.5 -78t-103 -80.5q-124 -77 -285.5 -101.5
t-291 9.5t-167.5 116q-24 50 -23.5 100.5t18.5 90.5t49 76t65 60t69 40q-110 54 -110 174q0 7 0.5 19.5t10.5 47t27.5 65.5t57 66.5t94.5 57.5q-94 37 -139 112.5t-45 155.5q0 135 100.5 221.5t306.5 86.5q208 0 320 -93q73 98 180 121q32 6 66.5 -3.5t58.5 -33.5
q34 -37 31 -87.5t-41 -84.5zM254 -57q-41 -34 -58 -68.5t-12 -62.5t21 -54t40 -44.5t46 -33t37 -21.5l16 -7q131 -65 265 -70.5t220 53.5q40 27 56.5 69.5t12.5 71.5l-3 29q-1 4 -3.5 11.5t-14.5 26t-29.5 32.5t-51 25.5t-75.5 11.5h-279q-113 0 -188 31z" />
    <glyph glyph-name="h" unicode="h" horiz-adv-x="1159" 
d="M1126 25v-25h-467v25q53 16 67.5 68t14.5 149v399q0 89 -37 130.5t-118 41.5q-41 0 -82.5 -29t-67.5 -77v-465q0 -98 16.5 -150.5t67.5 -64.5v-27h-467v27q53 16 67.5 67.5t14.5 147.5v1046q0 54 -21 79t-85 48v27l407 86v-778q34 85 126 150t183 65q297 0 297 -316v-407
q0 -97 17 -151t67 -66z" />
    <glyph glyph-name="i" unicode="i" horiz-adv-x="620" 
d="M121 1239q0 71 48.5 119.5t119.5 48.5q69 0 118.5 -49t49.5 -119q0 -69 -49.5 -117.5t-118.5 -48.5q-70 0 -119 48.5t-49 117.5zM545 25v-25h-467v25q53 17 67.5 68t14.5 147v477q0 54 -22 81.5t-85 55.5v27l408 84v-725q0 -97 16.5 -149t67.5 -66z" />
    <glyph glyph-name="j" unicode="j" horiz-adv-x="610" 
d="M125 1243q0 69 49.5 117.5t118.5 48.5t118.5 -48.5t49.5 -117.5q0 -70 -49.5 -119t-118.5 -49t-118.5 49t-49.5 119zM59 854v27l404 84v-863q0 -462 -426 -569v25q35 9 60.5 63t37.5 125.5t18.5 142t7.5 118.5l1 48v647q0 54 -21 86.5t-82 65.5z" />
    <glyph glyph-name="k" unicode="k" horiz-adv-x="1234" 
d="M1212 27v-27h-333q-96 0 -139 35t-137 175q-14 21 -21 32l-117 174l217 227q21 22 47.5 64t46.5 92.5t0 86t-88 34.5v26h526v-26q-34 -1 -86.5 -16.5t-126 -50t-161.5 -103.5t-168 -162q68 -95 149 -203t129 -169l47 -60q48 -66 105.5 -97.5t109.5 -31.5zM510 25v-25
h-467v25q53 16 67.5 66.5t14.5 148.5v1048q0 54 -22 82t-85 51v25l408 82v-1288q0 -97 16.5 -149t67.5 -66z" />
    <glyph glyph-name="l" unicode="l" horiz-adv-x="589" 
d="M535 25v-25h-467v25q53 16 67.5 66.5t14.5 148.5v1048q0 54 -22 82t-85 51v25l408 82v-1288q0 -97 16.5 -149t67.5 -66z" />
    <glyph glyph-name="m" unicode="m" horiz-adv-x="1658" 
d="M1628 25v-25h-467v25q53 16 67.5 68t14.5 149v403q0 172 -121 172q-48 0 -93 -41.5t-46 -91.5v-37v-405q0 -97 17 -151t67 -66v-25h-467v25q53 16 67.5 68t14.5 149v403q0 88 -29 130t-90 42q-44 0 -86 -39t-51 -84v-456q0 -97 16.5 -148t67.5 -65v-25h-467v25
q28 8 45 26.5t24.5 51.5t9 59.5t1.5 75.5v475q0 55 -21.5 84.5t-83.5 56.5v27l408 84v-203q40 88 115.5 145.5t163.5 57.5q240 0 274 -215q34 93 114 154t173 61q64 0 112 -14.5t87 -48.5t59 -96.5t20 -152.5v-411q0 -97 17 -151t67 -66z" />
    <glyph glyph-name="n" unicode="n" horiz-adv-x="1157" 
d="M1112 25v-25h-467v25q53 16 67.5 68t14.5 149v403q0 82 -39.5 127t-114.5 45q-47 0 -91.5 -38.5t-55.5 -86.5v-454q0 -97 16.5 -148t67.5 -65v-25h-467v25q28 8 45 26.5t24.5 51.5t9 59.5t1.5 75.5v481q0 54 -21 80.5t-84 54.5v27l408 84v-209q37 88 125.5 148.5
t179.5 60.5q65 0 115.5 -14.5t93 -48.5t65.5 -97t23 -152v-411q0 -98 16.5 -151.5t67.5 -65.5z" />
    <glyph glyph-name="o" unicode="o" horiz-adv-x="1165" 
d="M741 473q0 99 -2 164t-8 121t-16 87.5t-27 54t-40 30.5t-56 8q-40 0 -65.5 -13.5t-43 -42t-26 -86.5t-12 -131.5t-3.5 -191.5t3.5 -191.5t12 -131.5t26 -86.5t43 -42t65.5 -13.5q33 0 56 8t40 30.5t27 54t16 87.5t8 121t2 164zM1100 473q0 -102 -32 -190t-94 -155.5
t-160 -106.5t-222 -39q-123 0 -221.5 39t-160 106.5t-94 155.5t-32.5 190q0 103 32.5 191t94.5 156t160 106.5t221 38.5q124 0 222 -38.5t160 -106.5t94 -156t32 -191z" />
    <glyph glyph-name="p" unicode="p" horiz-adv-x="1294" 
d="M852 453q0 218 -54 328t-169 110q-87 0 -134 -66.5t-57 -171.5v-364q10 -141 65.5 -211t139.5 -70q209 0 209 445zM1204 477q0 -108 -28 -193t-75.5 -141t-114 -93t-141 -52.5t-159.5 -15.5q-152 0 -248 55v-348q0 -95 17 -143.5t67 -61.5v-27h-465v27q53 16 66.5 62.5
t13.5 142.5v1042q0 53 -20 76t-84 47v27l405 84v-164q44 81 132.5 122.5t199.5 41.5q192 0 313 -136.5t121 -351.5z" />
    <glyph glyph-name="q" unicode="q" horiz-adv-x="1288" 
d="M846 238v409q-4 147 -61.5 219t-143.5 72q-49 0 -84 -21t-62 -69t-40 -132t-13 -206q0 -229 51.5 -349t165.5 -120q81 0 134 56t53 141zM1233 -516v-27h-467v27q53 16 66.5 62.5t13.5 142.5v409q-42 -52 -127.5 -84t-175.5 -32q-199 0 -321 129.5t-122 365.5
q0 123 38.5 217.5t108 153t161 88t202.5 29.5q192 0 305 -74q53 38 109.5 56.5t90.5 15.5t34 -23v-1251q0 -96 16.5 -144t67.5 -61z" />
    <glyph glyph-name="r" unicode="r" horiz-adv-x="948" 
d="M887 680q-47 -54 -117.5 -59.5t-124.5 41.5q-57 48 -57 112q0 16 -27 7q-55 -18 -116 -108q-6 -8 -11 -16v-417q0 -97 16.5 -149t67.5 -66v-25h-469v25q29 9 46.5 28t24.5 52t9 59.5t2 75.5v477q0 54 -21.5 81.5t-84.5 55.5v27l409 84v-260q36 56 71 98.5t56.5 65t51 42
t39 24.5t36.5 17q41 19 93 10.5t89 -40.5q54 -45 58.5 -117.5t-41.5 -124.5z" />
    <glyph glyph-name="s" unicode="s" horiz-adv-x="917" 
d="M766 92q-3 -4 -9.5 -11.5t-32 -26.5t-57 -33.5t-86 -26.5t-116.5 -12q-69 0 -133 8.5t-105 20t-72 23.5t-45 20l-14 9v263h27q15 -54 43.5 -107t70 -102t101.5 -79t127 -30q53 0 85.5 29.5t37 71.5t-22 91.5t-82.5 86.5l-207 125q-147 94 -183 219.5t54 232.5q3 4 9.5 11
t31.5 24.5t55.5 30.5t84 24t114.5 11q105 0 189 -15t115 -30l32 -15v-219h-26q-25 103 -108.5 177.5t-201.5 74.5q-39 0 -69.5 -15.5t-44 -43t-11 -60t31 -70t79.5 -69.5l207 -129q90 -55 139 -136.5t46.5 -167t-54.5 -155.5z" />
    <glyph glyph-name="t" unicode="t" horiz-adv-x="768" 
d="M723 195l22 -13q-26 -80 -111 -140t-188 -60q-303 0 -303 313v625h-114l-4 26h118v275l301 43v-318h254l-4 -26h-250v-619q0 -88 37 -130t119 -42q40 0 72.5 20t50.5 46z" />
    <glyph glyph-name="u" unicode="u" horiz-adv-x="1202" 
d="M1167 61v-24l-348 -53q-24 -4 -38.5 6t-16.5 22l-2 11v174q-25 -87 -116.5 -151t-201.5 -64q-65 0 -115 15t-92 49t-64.5 97t-22.5 152v446q0 89 -8 109q-11 30 -60 41q-18 4 -47 8v25l418 41v-664q0 -88 35 -129t118 -41q46 0 89.5 31.5t66.5 91.5v481q0 95 -5 114
q-9 32 -50 43q-16 4 -41 7v25l397 41v-781q0 -72 19 -93.5t85 -29.5z" />
    <glyph glyph-name="v" unicode="v" horiz-adv-x="1126" 
d="M690 946h438v-26q-37 0 -65.5 -11t-63 -44t-71 -99.5t-80.5 -171.5l-238 -612h-73q-80 175 -178 380t-156 323l-58 118q-19 37 -40 62t-42.5 36t-36.5 14.5t-34 4.5v26h563v-26q-36 0 -53.5 -16.5t-17 -40.5t6 -48t13.5 -41l8 -16l205 -422q86 215 102 264q8 21 15 52.5
t9 80.5t-8 89t-47 69t-98 29v26z" />
    <glyph glyph-name="w" unicode="w" horiz-adv-x="1703" 
d="M1262 946h419v-26q-34 0 -61 -11.5t-59.5 -44t-68 -100t-73.5 -170.5l-225 -612h-68l-284 620l-219 -620h-72l-383 831q-52 102 -141 107v26h518v-26q-29 0 -42.5 -15.5t-12 -38t7 -45t12.5 -37.5l8 -16l203 -428l106 293l-84 180q-34 66 -58.5 85.5t-57.5 21.5v26h499
v-26q-32 0 -47 -15.5t-14 -38t7 -45t14 -37.5l8 -16l200 -428q81 209 97 258q5 16 10 41t9.5 63.5t-1 75t-19 69.5t-46.5 53t-82 20v26z" />
    <glyph glyph-name="x" unicode="x" horiz-adv-x="1224" 
d="M1208 25v-25h-563v25q73 0 15 104q-21 39 -31 49l-127 184l-78 -108q-3 -5 -8 -13t-16 -32t-16 -45.5t-2 -48t18 -45.5t52.5 -32t94.5 -13v-25h-508v25q35 0 72.5 11t84 37.5t99.5 77.5t106 123l84 113l-315 453q-22 24 -41.5 40.5t-39 24t-29.5 10t-29.5 4t-20.5 1.5v26
h596v-26q-28 0 -46 -15t-15 -49.5t37 -79.5l112 -158l68 93q3 4 7.5 11.5t14.5 29.5t15.5 41.5t4.5 44t-12 41.5t-40.5 29t-75.5 12v26h487v-26q-217 -5 -381 -222l-71 -104l325 -473q66 -90 172 -96z" />
    <glyph glyph-name="y" unicode="y" horiz-adv-x="1167" 
d="M694 946h441v-24q-40 0 -69.5 -11t-64 -45t-72 -100t-81.5 -172l-285 -780q-64 -192 -162 -277q-31 -25 -83.5 -31.5t-92.5 11.5q-60 28 -83.5 89.5t3.5 121.5q26 60 87.5 83t121.5 -4t80 -90q6 -21 26 -18q43 8 78 121q1 1 1 2l39 106q-28 64 -135 286.5t-200 412.5
l-93 190q-48 100 -148 105v24h563v-24q-34 0 -52 -15.5t-19 -37.5t3 -44t11 -37l6 -16l213 -434l96 262q2 7 6 18.5t11.5 45t10 64t-2 67.5t-20 63.5t-49.5 45t-85 18.5v24z" />
    <glyph glyph-name="z" unicode="z" horiz-adv-x="1007" 
d="M946 946l-497 -919q87 0 159.5 22.5t116 53t78 74t49 73t25.5 61.5h26l-18 -311h-826l531 920q-358 0 -443 -244h-26l10 270h815z" />
    <glyph glyph-name="braceleft" unicode="{" horiz-adv-x="722" 
d="M621 -315l-3 -21q-356 17 -356 342v240q0 45 -2.5 82t-6.5 65t-11.5 50.5t-13.5 37.5t-17.5 27.5t-19 19t-21.5 12.5t-22 8.5t-24.5 6.5t-23.5 6v23q7 2 24 6.5t24 7t22 9.5t22 14t18.5 20.5t17.5 30t14 41t11.5 54t6 69.5t2.5 88v239q0 171 91.5 252.5t264.5 89.5l3 -20
q-69 -12 -96 -85.5t-27 -236.5v-295q0 -162 -80 -228.5t-242 -66.5q82 0 137.5 -11.5t99.5 -40.5t64.5 -83.5t20.5 -136.5v-295q0 -160 28.5 -235.5t94.5 -85.5z" />
    <glyph glyph-name="bar" unicode="|" horiz-adv-x="493" 
d="M150 -336v1841h192v-1841h-192z" />
    <glyph glyph-name="braceright" unicode="}" horiz-adv-x="729" 
d="M109 -336l-3 21q66 10 94.5 85.5t28.5 235.5v295q0 82 20.5 136.5t64.5 83.5t99.5 40.5t137.5 11.5q-162 0 -242 66.5t-80 228.5v295q0 163 -27 236.5t-96 85.5l3 20q173 -8 264.5 -89.5t91.5 -252.5v-239q0 -48 2.5 -88t6 -69.5t11.5 -54t14 -41t17.5 -30t18.5 -20.5
t22 -14t22 -9.5t24 -7t24 -6.5v-23q-7 -2 -23.5 -6t-24.5 -6.5t-22 -8.5t-21.5 -12.5t-19 -19t-17.5 -27.5t-13.5 -37.5t-11.5 -50.5t-6.5 -65t-2.5 -82v-240q0 -325 -356 -342z" />
    <glyph glyph-name="asciitilde" unicode="~" horiz-adv-x="1273" 
d="M735 377l-246 92q-41 16 -106.5 24t-138 -9.5t-97.5 -69.5l-20 8q33 77 73.5 134t80 86t79.5 46.5t73.5 19.5t59.5 0.5t41 -6.5l15 -4l246 -92q41 -17 106.5 -24t137 11.5t96.5 70.5l18 -9q-33 -75 -73.5 -131t-79.5 -85t-78.5 -47t-72.5 -21t-59 -2.5t-40 4.5z" />
    <glyph glyph-name="uni007F" horiz-adv-x="0" 
 />
    <glyph glyph-name="uni00A0" unicode="&#xa0;" horiz-adv-x="557" 
 />
    <glyph glyph-name="exclamdown" unicode="&#xa1;" horiz-adv-x="692" 
d="M266 666h183l71 -1024h-330zM358 825q-72 0 -124 51t-52 123q0 73 52 125t124 52t123 -52t51 -125q0 -72 -51 -123t-123 -51z" />
    <glyph glyph-name="cent" unicode="&#xa2;" horiz-adv-x="1116" 
d="M481 510q0 -257 189 -330v756q-78 -19 -133.5 -126.5t-55.5 -299.5zM750 797q18 57 69 82q14 6 -1 23q-31 36 -122 36v-764q80 -25 179 3.5t129 90.5l22 -12q-5 -41 -29 -83.5t-63 -82.5t-101.5 -69.5t-136.5 -38.5v-224h-26v224q-238 0 -378 139t-140 356q0 96 32.5 181
t94.5 152.5t163 109t228 45.5v249h26v-249q103 0 177 -32.5t114 -74.5q27 -27 37 -67.5t0 -79.5q-19 -57 -72 -85.5t-110 -9.5q-57 17 -84.5 70.5t-7.5 110.5z" />
    <glyph glyph-name="sterling" unicode="&#xa3;" horiz-adv-x="1396" 
d="M309 8q87 0 153 39.5t101 99.5q-131 83 -192 109q-86 36 -143.5 21.5t-85.5 -55t-21 -85.5q6 -36 26 -62t41.5 -38.5t50 -19.5t42.5 -8t28 -1zM74 131q-12 35 -7 78t30 87.5t78 71t137 29.5t206 -37l70 -22q-3 59 -105 227q-43 72 -108 176h-187v27h174q-46 105 -65 199
t-11 166.5t33.5 134.5t68 105.5t93.5 76t109 49t115 22t111.5 -2.5t98.5 -27q90 -38 135 -82t68 -100q15 -40 4 -87.5t-45 -82.5q-47 -49 -115.5 -49.5t-117.5 47.5q-51 47 -51.5 115.5t47.5 117.5q45 45 114 45q26 0 9 19q-23 24 -58 32q-92 19 -167.5 13.5t-116 -59
t-48 -135.5t37 -216.5t139.5 -300.5h319v-27h-303q7 -9 25.5 -36.5t21.5 -34.5q43 -75 57.5 -153t4.5 -141t-39 -118l102 -33q79 -25 153 -27t126 25t57 82l29 -4q7 -71 -10 -128.5t-46.5 -89t-60 -53.5t-52.5 -29l-22 -7q-87 -26 -211 2.5t-233 89.5q-124 -104 -357 -104
q-16 0 -40 4t-65 17t-77.5 46t-54.5 82z" />
    <glyph glyph-name="currency" unicode="&#xa4;" horiz-adv-x="1253" 
d="M897 707q0 114 -80 195t-194 81q-115 0 -196 -81t-81 -195t81 -194.5t196 -80.5q114 0 194 80.5t80 194.5zM1026 422l182 -180l-118 -121l-183 182q-126 -90 -284 -90q-160 0 -289 90l-180 -182l-119 121l182 180q-90 129 -90 285q0 160 90 286l-182 181l119 118
l180 -180q129 90 289 90q158 0 284 -90l183 180l118 -118l-182 -181q90 -126 90 -286q0 -156 -90 -285z" />
    <glyph glyph-name="yen" unicode="&#xa5;" horiz-adv-x="1480" 
d="M907 1442h604v-27q-31 0 -64 -9t-80.5 -38t-94 -75t-103.5 -127t-110 -187l-152 -309h330v-27h-330v-166h330v-26h-330v-211q0 -213 123 -213v-27h-598v27q125 0 125 213v211h-336v26h336v88q-4 7 -22.5 39t-22.5 39h-291v27h277q-114 200 -199 346t-113 192l-28 47
q-26 45 -49.5 76.5t-40 47.5t-36.5 25t-31.5 10.5t-31.5 2.5v25h635v-25h-2q-25 0 -38 -1.5t-28 -13.5t-13.5 -35t19 -69.5t56.5 -113.5l293 -490q120 244 149 307q10 20 22.5 62.5t19 104.5t-2.5 116t-52 92.5t-120 38.5v27z" />
    <glyph glyph-name="brokenbar" unicode="&#xa6;" horiz-adv-x="487" 
d="M342 1505v-768h-197v768h197zM342 381v-772h-197v772h197z" />
    <glyph glyph-name="section" unicode="&#xa7;" horiz-adv-x="1159" 
d="M381 772q-166 -123 -90 -240q14 -23 41.5 -48.5t44 -37.5t61.5 -42t49 -33q1 0 5 -4q91 -60 237 -148q46 -27 72 -49q159 127 80 246q-12 18 -29 35.5t-41 35.5t-39 29t-45 31l-39 26q-4 1 -14 11q-44 28 -137 85.5t-105 65.5q-32 18 -51 37zM981 -205q-7 -68 -30.5 -122
t-56 -88t-76.5 -57.5t-85 -34t-89.5 -15t-82 -3.5t-69.5 5q-78 8 -140.5 40.5t-87.5 63.5q-24 30 -29 71t13 79q25 54 79.5 74.5t110.5 -5.5q54 -25 75 -80.5t-5 -109.5q-24 -52 -82 -70q-11 -3 4 -16q22 -16 64 -21q112 -12 181.5 41t80.5 150q6 75 -29 136.5t-129 121.5
l-254 156q-78 50 -133.5 113t-81 136t-15 146t71.5 148.5t170 138.5q-180 134 -159 360q7 69 30.5 122.5t54.5 87.5t75 57.5t84 34.5t88 15.5t81 3.5t70 -4q76 -8 136.5 -41t88.5 -65q24 -30 30 -71t-11 -79q-26 -55 -82.5 -75t-110.5 6q-56 25 -76.5 80.5t7.5 109.5
q25 54 73 68q11 4 -1 17q-16 19 -56 24q-115 13 -188 -41.5t-82 -151.5q-16 -148 163 -260l254 -153q78 -50 134.5 -114t82.5 -138t17 -148.5t-69 -150t-167 -137.5q180 -146 158 -355z" />
    <glyph glyph-name="dieresis" unicode="&#xa8;" horiz-adv-x="679" 
d="M401 1303q0 54 40 92.5t94 38.5t93.5 -38.5t39.5 -92.5q0 -55 -39.5 -94.5t-93.5 -39.5t-94 39.5t-40 94.5zM16 1303q0 54 40 92.5t94 38.5t92.5 -38.5t38.5 -92.5q0 -55 -38.5 -94.5t-92.5 -39.5t-94 39.5t-40 94.5z" />
    <glyph glyph-name="copyright" unicode="&#xa9;" horiz-adv-x="1669" 
d="M1102 588h26l9 -203q-91 -63 -283 -63q-188 0 -312 117t-124 300t124 300.5t312 117.5q210 0 283 -61l-9 -205h-26q-10 61 -31 106t-45 69.5t-55.5 39.5t-58 19.5t-58.5 4.5q-46 0 -78.5 -17t-58.5 -59t-38.5 -120.5t-12.5 -194.5t13.5 -195t39.5 -120.5t58 -58.5t77 -17
q205 0 248 240zM1606 754q0 -157 -61 -300t-164.5 -246.5t-246.5 -164.5t-300 -61q-158 0 -301 61t-246.5 164.5t-164.5 246.5t-61 300t61 300t164.5 246.5t246.5 164.5t301 61q157 0 300 -61t246.5 -164.5t164.5 -246.5t61 -300zM1446 754q0 166 -82.5 308t-223.5 225
t-306 83q-166 0 -308 -83t-224.5 -225t-82.5 -308q0 -124 49 -238t131.5 -196.5t196.5 -131.5t238 -49q165 0 306 82.5t223.5 224.5t82.5 308z" />
    <glyph glyph-name="ordfeminine" unicode="&#xaa;" horiz-adv-x="677" 
d="M322 1186q-66 -16 -90.5 -47t-24.5 -76q0 -3 0.5 -7.5t3.5 -15.5t8.5 -20t17 -16t27.5 -7q38 0 58 50v139zM553 1014l20 -8q-8 -33 -43.5 -55.5t-87.5 -22.5q-4 0 -11.5 0.5t-26.5 5t-34 12t-29 24t-17 38.5q-11 -35 -53 -57.5t-99 -22.5q-13 0 -29.5 3.5t-41.5 12.5
t-41.5 33t-16.5 59q0 52 32.5 84t72 45.5t147.5 39.5q18 5 27 7v66q0 82 -41 116t-99 7q-18 -8 -18 -17q0 -6 10 -8q26 -6 41 -30q12 -26 4 -53t-33 -40q-26 -12 -53 -3t-39 32q-17 36 4 72q19 39 72 67q20 11 47 16.5t45 4.5h17q101 0 149.5 -57t48.5 -156v-160
q0 -3 0.5 -8.5t3 -19t7.5 -23.5t16 -18t26 -7q17 1 23 21z" />
    <glyph glyph-name="guillemotleft" unicode="&#xab;" horiz-adv-x="1363" 
d="M1182 1034v-90l-246 -399l246 -387v-90l-531 477zM707 1034v-90l-246 -399l246 -387v-90l-529 477z" />
    <glyph glyph-name="logicalnot" unicode="&#xac;" horiz-adv-x="1366" 
d="M84 842h1200v-707h-211v498h-989v209z" />
    <glyph glyph-name="uni00AD" unicode="&#xad;" horiz-adv-x="909" 
d="M776 401h-645v238h645v-238z" />
    <glyph glyph-name="registered" unicode="&#xae;" horiz-adv-x="1677" 
d="M944 934q0 31 -2.5 55.5t-5.5 43t-11.5 32.5t-14.5 23.5t-20 15.5t-22.5 9t-28.5 4.5t-32 2t-37 0.5h-35v-370h35q89 0 116 11q45 20 54 99q4 30 4 74zM1608 754q0 -157 -61 -300t-164.5 -246.5t-246.5 -164.5t-300 -61t-300 61t-246.5 164.5t-165 246.5t-61.5 300
t61.5 300t165 246.5t246.5 164.5t300 61t300 -61t246.5 -164.5t164.5 -246.5t61 -300zM1448 754q0 166 -82 307.5t-223 224t-307 82.5t-307.5 -82.5t-223.5 -224t-82 -307.5q0 -124 48.5 -238t130.5 -196t196 -130.5t238 -48.5q166 0 307 82t223 223.5t82 307.5zM1274 401
v-26h-160q-93 1 -117.5 33t-58.5 179q-5 22 -8 34q-11 45 -46.5 70.5t-65.5 28.5l-30 3h-53v-207q0 -65 15.5 -90t52.5 -25v-26h-324v26q37 0 52.5 24t15.5 91v518q0 51 -16 70.5t-52 19.5v23h291q73 0 126 -4t106 -17t86.5 -35.5t54 -61t20.5 -91.5q0 -183 -235 -199
q39 2 69.5 -7t60 -33.5t54 -72.5t43.5 -120q15 -55 51 -79t68 -26z" />
    <glyph glyph-name="macron" unicode="&#xaf;" horiz-adv-x="737" 
d="M-33 1360h805v-174h-805v174z" />
    <glyph glyph-name="degree" unicode="&#xb0;" horiz-adv-x="780" 
d="M385 1397q-65 0 -111.5 -45.5t-46.5 -108.5q0 -64 46.5 -108.5t111.5 -44.5q63 0 108.5 44.5t45.5 108.5q0 63 -45.5 108.5t-108.5 45.5zM649 1243q0 -108 -78.5 -185t-187.5 -77q-110 0 -188 76.5t-78 185.5q0 112 77.5 189t188.5 77q110 0 188 -77t78 -189z" />
    <glyph glyph-name="plusminus" unicode="&#xb1;" horiz-adv-x="1245" 
d="M707 788h440v-186h-440v-321h-185v321h-438v186h438v297h185v-297zM84 -10v184h1063v-184h-1063z" />
    <glyph glyph-name="twosuperior" unicode="&#xb2;" horiz-adv-x="552" 
d="M430 963h27l-51 -187h-361l201 281q84 131 37 209q-29 49 -91 52q-61 2 -92 -42q-15 -21 -18 -49h-25q-7 51 9 93.5t46.5 68t65 39.5t66.5 14q70 0 119 -48t49 -112q0 -46 -24.5 -89.5t-78.5 -104t-65 -74.5l-74 -105h176q55 0 84 54z" />
    <glyph glyph-name="threesuperior" unicode="&#xb3;" horiz-adv-x="577" 
d="M248 764q-103 0 -162 65q-29 36 -10 78q14 28 42.5 39t57.5 -2q28 -12 38.5 -41t-1.5 -57q-15 -31 -43 -39q-9 -2 1 -9q19 -14 77 -14q55 0 81 50t15 118q-4 23 -11 41t-23 43t-48.5 40.5t-77.5 19.5v22q65 15 92.5 55.5t19.5 80t-38 61.5q-31 27 -79 16.5t-64 -55.5
l-21 2q-1 76 53.5 119t114.5 43q57 0 101.5 -30.5t62 -75t-1.5 -99t-78 -96.5q68 -13 109 -59t43 -97q1 -62 -22.5 -107.5t-63.5 -68.5t-80.5 -33t-83.5 -10z" />
    <glyph glyph-name="acute" unicode="&#xb4;" horiz-adv-x="872" 
d="M178 1143l402 334l280 -88l-561 -246h-121z" />
    <glyph glyph-name="mu" unicode="&#xb5;" horiz-adv-x="1198" 
d="M1057 965v-783q0 -72 20 -93.5t86 -29.5v-26l-350 -51q-24 -4 -38.5 5.5t-16.5 20.5l-2 12v181q-19 -68 -76 -120t-118.5 -75.5t-115.5 -23.5v-316q0 -74 21 -99.5t86 -31.5v-24l-356 -54q-26 -4 -41 5.5t-17 21.5l-2 12v1241q0 93 -6 112q-11 32 -56 43q-17 4 -44 7v25
l415 41v-666q0 -88 37.5 -129t124.5 -41q43 0 85 37t63 96v473v22v41.5t-1.5 31t-5.5 25t-10.5 16.5t-17.5 14t-26 8t-36 6v25z" />
    <glyph glyph-name="paragraph" unicode="&#xb6;" horiz-adv-x="1474" 
d="M1161 1122v-1337q0 -126 41.5 -213.5t112.5 -87.5v-27h-348v1985h362v-29q-73 0 -120.5 -89t-47.5 -202zM606 1442h195v-1985h-471v27q35 0 67 5.5t71.5 24.5t68 50t48 88t19.5 133v782q-91 0 -162.5 9.5t-143 37.5t-118 74.5t-75.5 125t-29 185.5q0 439 528 443h2z" />
    <glyph glyph-name="periodcentered" unicode="&#xb7;" horiz-adv-x="579" 
d="M289 483q-53 0 -91 37.5t-38 91.5q0 52 38 90.5t91 38.5q54 0 91.5 -38t37.5 -91q0 -54 -37.5 -91.5t-91.5 -37.5z" />
    <glyph glyph-name="cedilla" unicode="&#xb8;" horiz-adv-x="573" 
d="M254 -8h27l-43 -121q132 30 204 -27t62 -149q-6 -49 -29.5 -83t-58.5 -50.5t-68 -23.5t-67 -7q-95 0 -144 43q-14 11 -21 30.5t-3 39.5q4 28 29.5 42.5t54.5 6.5q28 -6 43.5 -29t9.5 -51q-5 -26 -27 -37q-9 -4 4 -12q14 -8 47 -8q44 0 68.5 30t24.5 72q0 17 -8.5 39.5
t-27.5 48.5t-59 39t-94 4z" />
    <glyph glyph-name="onesuperior" unicode="&#xb9;" horiz-adv-x="495" 
d="M385 805v-27h-272v27q69 0 69 76v374q0 33 -20 37.5t-40 -6.5l-20 -12l-20 24l184 144h62v-561q0 -76 57 -76z" />
    <glyph glyph-name="ordmasculine" unicode="&#xba;" horiz-adv-x="704" 
d="M446 1098q0 185 -19.5 254t-70.5 69q-53 0 -72.5 -68.5t-19.5 -254.5q0 -123 9 -189.5t28.5 -92t54.5 -25.5q36 0 55 26t27 91t8 190zM641 1098q0 -70 -15.5 -128t-47.5 -105.5t-89 -74t-133 -26.5t-133 26.5t-89.5 74t-48 105.5t-15.5 128q0 71 15.5 131.5t48 110.5
t89.5 79t133 29t133 -29t89 -79t47.5 -110.5t15.5 -131.5z" />
    <glyph glyph-name="guillemotright" unicode="&#xbb;" horiz-adv-x="1339" 
d="M170 944v90l530 -489l-530 -477v90l246 387zM645 944v90l529 -489l-529 -477v90l246 387z" />
    <glyph glyph-name="onequarter" unicode="&#xbc;" horiz-adv-x="1355" 
d="M915 283v249l-135 -192q-18 -26 -19.5 -39.5t4 -15.5t19.5 -2h131zM1167 1454h170l-1142 -1380h-168zM438 795v-27h-293v27q36 0 55 18.5t19 65.5v442q0 22 -9 32t-22 8t-26 -7t-22 -11l-9 -6l-18 25l198 164h68v-647q0 -48 15 -66t44 -18zM1188 209h-101v-47
q0 -49 4 -77t15 -40.5t20.5 -15t30.5 -2.5v-27h-311v27q27 0 39 5.5t21 34.5t9 89v53h-247v18l368 525l51 -9v-460h101v-74z" />
    <glyph glyph-name="onehalf" unicode="&#xbd;" horiz-adv-x="1347" 
d="M1247 217h21l-60 -217h-401l225 319q92 144 41 229q-32 54 -101 58q-68 4 -108 -43q-18 -22 -24 -51h-25q-9 59 10 108t54 78t73 45t72 17q78 3 135.5 -51t57.5 -127q0 -41 -21 -88t-41.5 -75t-65 -81t-55.5 -68q-12 -15 -32 -43t-34 -49l-14 -20h187q30 0 59 15t47 44z
M1174 1454h169l-1142 -1380h-168zM444 795v-27h-292v27q36 0 54.5 18.5t18.5 65.5v442q0 22 -9 32t-22 8t-26 -7t-22 -11l-9 -6l-18 25l198 164h68v-647q0 -48 15 -66t44 -18z" />
    <glyph glyph-name="threequarters" unicode="&#xbe;" horiz-adv-x="1343" 
d="M918 283v249l-136 -192q-18 -26 -19.5 -39.5t4 -15.5t19.5 -2h132zM1169 1454h170l-1142 -1380h-168zM270 762q-121 0 -186 74q-30 39 -10 88q15 32 47.5 44.5t64.5 -1.5q32 -15 45 -48.5t-2 -64.5q-16 -30 -39 -37q-11 -4 -1 -13q17 -16 81 -16q67 0 93.5 54t13.5 135
q-5 29 -12 48.5t-25.5 49t-55 47t-89.5 21.5v24q57 14 90 44.5t38.5 63.5t-6 64.5t-36.5 49.5q-24 18 -56 19.5t-61 -16t-41 -51.5l-27 5q-1 86 59.5 134t129.5 48q52 0 96.5 -22t68.5 -59.5t30 -81t-19.5 -91.5t-79.5 -86q76 -13 122 -65t48 -113q1 -72 -25.5 -123.5
t-71.5 -77t-90 -36.5t-94 -11zM1190 209h-100v-47q0 -64 9 -94t21 -35.5t39 -5.5v-27h-311v27q20 0 30.5 3t21 14.5t14.5 38.5t4 73v53h-248v18l368 525l52 -9v-460h100v-74z" />
    <glyph glyph-name="questiondown" unicode="&#xbf;" horiz-adv-x="1267" 
d="M700 971q74 0 125.5 -51.5t51.5 -124.5t-51.5 -125t-125.5 -52q-72 0 -124 52t-52 125t52 124.5t124 51.5zM518 250q89 23 141.5 81t45.5 146l34 6q1 -6 5.5 -31.5t6 -39.5t2.5 -41t-4 -47.5t-14 -46.5t-27 -51.5t-44 -49.5q-67 -65 -90.5 -153.5t-12.5 -223.5
q7 -77 40.5 -138.5t83 -94.5t111 -42.5t124.5 17.5q49 19 53 61q3 26 -13 31h-4q-54 0 -102 48q-43 47 -40.5 110.5t46.5 106.5q45 42 109.5 37.5t107.5 -50.5q49 -51 37 -151q-5 -55 -54 -117t-130 -98q-120 -54 -249 -58t-231 34t-170 117.5t-73 182.5q-3 86 17 159
t53 121.5t77 86.5t84.5 58t79.5 30z" />
    <glyph glyph-name="Agrave" unicode="&#xc0;" horiz-adv-x="1499" 
d="M571 956l226 -530h-428zM1475 25l-15 1q-16 1 -18.5 2t-17 3.5t-20 7.5t-19 12.5t-22 19.5t-21 27.5t-23.5 37t-23 48.5q-27 64 -536 1258h-23l-385 -989q-51 -121 -96.5 -206.5t-75 -127t-61.5 -64t-45.5 -25.5t-38.5 -5v-25h547v25q-68 -2 -116.5 21.5t-72 62t-36 83
t-11 88t5.5 74.5t10 45h445l63 -145q2 -5 6 -13t12.5 -32t14 -45.5t6.5 -48t-5.5 -45.5t-27 -32t-53.5 -13v-25h652v25zM633 1839l401 -334h-121l-561 246z" />
    <glyph glyph-name="Aacute" unicode="&#xc1;" horiz-adv-x="1499" 
d="M797 426l-226 530l-202 -530h428zM1475 25v-25h-652v25q45 0 66.5 23.5t20 57.5t-9.5 67.5t-19 56.5l-11 24l-63 145h-445q-6 -14 -10 -45t-5.5 -74.5t11 -88t36 -83t72 -62t116.5 -21.5v-25h-547v25q25 2 38.5 5t45.5 25.5t61.5 64t75 127t96.5 206.5l385 989h23
l536 -1258q12 -27 23 -48.5t23.5 -37t21 -27.5t22 -19.5t19 -12.5t20 -7.5t17 -3.5t18.5 -2zM489 1505l402 334l280 -88l-561 -246h-121z" />
    <glyph glyph-name="Acircumflex" unicode="&#xc2;" horiz-adv-x="1499" 
d="M571 956l226 -530h-428zM1475 25l-15 1q-16 1 -18.5 2t-17 3.5t-20 7.5t-19 12.5t-22 19.5t-21 27.5t-23.5 37t-23 48.5q-27 64 -536 1258h-23l-385 -989q-51 -121 -96.5 -206.5t-75 -127t-61.5 -64t-45.5 -25.5t-38.5 -5v-25h547v25q-68 -2 -116.5 21.5t-72 62t-36 83
t-11 88t5.5 74.5t10 45h445l63 -145q2 -5 6 -13t12.5 -32t14 -45.5t6.5 -48t-5.5 -45.5t-27 -32t-53.5 -13v-25h652v25zM504 1505h-80l328 389l327 -389h-80l-247 162z" />
    <glyph glyph-name="Atilde" unicode="&#xc3;" horiz-adv-x="1499" 
d="M844 1507l-246 92q-41 16 -106 23.5t-136.5 -10t-95.5 -68.5l-20 6q32 77 72.5 134t79.5 86.5t78.5 47.5t72.5 20.5t59 1t40 -5.5l15 -5l244 -92q42 -17 108 -23.5t137.5 12.5t96.5 70l19 -10q-33 -75 -73.5 -131t-79.5 -85t-78.5 -47.5t-72.5 -21.5t-59 -2.5t-41 4.5z
M797 426l-226 530l-202 -530h428zM1475 25v-25h-652v25q45 0 66.5 23.5t20 57.5t-9.5 67.5t-19 56.5l-11 24l-63 145h-445q-6 -14 -10 -45t-5.5 -74.5t11 -88t36 -83t72 -62t116.5 -21.5v-25h-547v25q25 2 38.5 5t45.5 25.5t61.5 64t75 127t96.5 206.5l385 989h23l536 -1258
q12 -27 23 -48.5t23.5 -37t21 -27.5t22 -19.5t19 -12.5t20 -7.5t17 -3.5t18.5 -2z" />
    <glyph glyph-name="Adieresis" unicode="&#xc4;" horiz-adv-x="1499" 
d="M807 1706q0 54 39.5 92.5t93.5 38.5t93.5 -38.5t39.5 -92.5q0 -55 -39.5 -94t-93.5 -39t-93.5 39t-39.5 94zM422 1706q0 54 39.5 92.5t93.5 38.5t92.5 -38.5t38.5 -92.5q0 -55 -38.5 -94t-92.5 -39t-93.5 39t-39.5 94zM797 426l-226 530l-202 -530h428zM1475 25v-25h-652
v25q45 0 66.5 23.5t20 57.5t-9.5 67.5t-19 56.5l-11 24l-63 145h-445q-6 -14 -10 -45t-5.5 -74.5t11 -88t36 -83t72 -62t116.5 -21.5v-25h-547v25q25 2 38.5 5t45.5 25.5t61.5 64t75 127t96.5 206.5l385 989h23l536 -1258q12 -27 23 -48.5t23.5 -37t21 -27.5t22 -19.5
t19 -12.5t20 -7.5t17 -3.5t18.5 -2z" />
    <glyph glyph-name="Aring" unicode="&#xc5;" horiz-adv-x="1499" 
d="M745 2013q90 0 153 -61t63 -150q0 -88 -63.5 -149.5t-152.5 -61.5q-88 0 -150.5 61.5t-62.5 149.5q0 89 62.5 150t150.5 61zM745 1700q43 0 73 30t30 72q0 43 -30 73t-73 30q-41 0 -70.5 -30t-29.5 -73q0 -41 29.5 -71.5t70.5 -30.5zM571 956l226 -530h-428zM1475 25
l-15 1q-16 1 -18.5 2t-17 3.5t-20 7.5t-19 12.5t-22 19.5t-21 27.5t-23.5 37t-23 48.5q-27 64 -536 1258h-23l-385 -989q-51 -121 -96.5 -206.5t-75 -127t-61.5 -64t-45.5 -25.5t-38.5 -5v-25h547v25q-68 -2 -116.5 21.5t-72 62t-36 83t-11 88t5.5 74.5t10 45h445l63 -145
q2 -5 6 -13t12.5 -32t14 -45.5t6.5 -48t-5.5 -45.5t-27 -32t-53.5 -13v-25h652v25z" />
    <glyph glyph-name="AE" unicode="&#xc6;" horiz-adv-x="2064" 
d="M930 473v686q0 71 -10 115l-461 -801h471zM1919 422h27v-422h-1153v27q137 0 137 252v167h-484q-46 -83 -64 -153.5t-10 -119t35 -82.5t67.5 -50t90.5 -16v-25h-561v25q23 2 43 8t59 33t81 72.5t105.5 133t135.5 207.5l481 836q-36 100 -133 100v27h1141v-406h-27
q-4 61 -25.5 113t-54.5 88t-75 65.5t-87.5 47.5t-91 31.5t-86 19.5t-71.5 9.5t-49 3.5l-19 1h-53v-676h100h14.5t34.5 4.5t50 12t53.5 24.5t52.5 40t39.5 61t22.5 86h26v-482h-26q-5 48 -22.5 86t-39.5 61t-52.5 40t-53.5 24.5t-50 12t-34.5 4.5h-14.5h-100v-686h53
q11 0 31 0.5t77.5 7t110.5 19.5t119.5 42.5t116 69.5t87.5 106.5t46 149.5z" />
    <glyph glyph-name="Ccedilla" unicode="&#xc7;" horiz-adv-x="1433" 
d="M1331 461l25 -367q-163 -112 -527 -112l-36 -107q132 30 204 -27t62 -149q-6 -49 -30 -83.5t-58.5 -51.5t-67.5 -24t-67 -7q-99 0 -144 45q-13 9 -20 28.5t-4 39.5q6 28 30.5 42.5t53.5 8.5q28 -6 43 -29.5t10 -52.5q-9 -28 -27 -37q-9 -5 5 -11q14 -7 46 -7
q44 0 68.5 29t24.5 71q0 13 -4.5 30t-18 39.5t-33.5 39t-54.5 24.5t-78.5 0l70 189q-154 7 -287 65t-229 154t-150.5 230.5t-54.5 289.5q0 214 101 383.5t276.5 262.5t392.5 93q372 0 504 -108l-25 -369h-24q-26 103 -63 182t-80 129t-95.5 82t-104.5 45t-112 13
q-119 0 -189 -60t-107.5 -217.5t-37.5 -435.5q0 -209 20.5 -348.5t64.5 -219.5t103 -112.5t146 -32.5q74 0 144 27t132.5 80.5t109.5 142.5t69 203h24z" />
    <glyph glyph-name="Egrave" unicode="&#xc8;" 
d="M1231 424h-27q-7 -66 -32 -121.5t-62 -94t-82.5 -69.5t-94.5 -49.5t-97.5 -32t-91.5 -19t-76 -8.5t-52 -3h-20h-74v688h121q6 0 15.5 -0.5t37 -5t53.5 -12t58 -24.5t56.5 -40.5t43 -61t23.5 -84.5h26v482h-26q-5 -47 -23 -85t-44 -61.5t-55.5 -40.5t-58.5 -24.5
t-53 -11.5t-38 -4l-15 -1h-121v674h74q12 0 32 -1t78.5 -8.5t111.5 -20.5t119.5 -41.5t115 -67t84.5 -101t41 -139.5h26v406h-1149v-27q43 0 70.5 -39t38 -93.5t10.5 -123.5v-878q0 -113 -29 -183.5t-90 -70.5v-27h1176v424zM549 1839l401 -334h-121l-561 246z" />
    <glyph glyph-name="Eacute" unicode="&#xc9;" 
d="M1204 424h27v-424h-1176v27q61 0 90 70.5t29 183.5v878q0 69 -10.5 123.5t-38 93.5t-70.5 39v27h1149v-406h-26q-5 77 -40 139.5t-86.5 101t-113 67t-121.5 41.5t-109.5 20.5t-80.5 8.5l-31 1h-74v-674h121q6 0 15.5 0.5t37 4.5t53.5 11.5t58 24.5t56.5 40.5t43 61.5
t23.5 85h26v-482h-26q-6 64 -38 111t-73 68.5t-81 33.5t-68 14l-27 1h-121v-688h74h19.5t51.5 3t77.5 8.5t90.5 19t98 32t94 49.5t83.5 69.5t61 94t32.5 121.5zM375 1505l401 334l281 -88l-561 -246h-121z" />
    <glyph glyph-name="Ecircumflex" unicode="&#xca;" 
d="M1231 424h-27q-7 -66 -32 -121.5t-62 -94t-82.5 -69.5t-94.5 -49.5t-97.5 -32t-91.5 -19t-76 -8.5t-52 -3h-20h-74v688h121q6 0 15.5 -0.5t37 -5t53.5 -12t58 -24.5t56.5 -40.5t43 -61t23.5 -84.5h26v482h-26q-5 -47 -23 -85t-44 -61.5t-55.5 -40.5t-58.5 -24.5
t-53 -11.5t-38 -4l-15 -1h-121v674h74q12 0 32 -1t78.5 -8.5t111.5 -20.5t119.5 -41.5t115 -67t84.5 -101t41 -139.5h26v406h-1149v-27q43 0 70.5 -39t38 -93.5t10.5 -123.5v-878q0 -113 -29 -183.5t-90 -70.5v-27h1176v424zM434 1505h-80l328 389l328 -389h-80l-248 162z
" />
    <glyph glyph-name="Edieresis" unicode="&#xcb;" 
d="M725 1706q0 54 39.5 92.5t93.5 38.5t93.5 -38.5t39.5 -92.5q0 -55 -39.5 -94t-93.5 -39t-93.5 39t-39.5 94zM340 1706q0 54 39.5 92.5t93.5 38.5t92.5 -38.5t38.5 -92.5q0 -55 -38.5 -94t-92.5 -39t-93.5 39t-39.5 94zM1204 424h27v-424h-1176v27q61 0 90 70.5t29 183.5
v878q0 69 -10.5 123.5t-38 93.5t-70.5 39v27h1149v-406h-26q-5 77 -40 139.5t-86.5 101t-113 67t-121.5 41.5t-109.5 20.5t-80.5 8.5l-31 1h-74v-674h121q6 0 15.5 0.5t37 4.5t53.5 11.5t58 24.5t56.5 40.5t43 61.5t23.5 85h26v-482h-26q-6 64 -38 111t-73 68.5t-81 33.5
t-68 14l-27 1h-121v-688h74h19.5t51.5 3t77.5 8.5t90.5 19t98 32t94 49.5t83.5 69.5t61 94t32.5 121.5z" />
    <glyph glyph-name="Igrave" unicode="&#xcc;" horiz-adv-x="815" 
d="M741 1442h-661v-27q76 0 114.5 -37.5t38.5 -144.5v-993q0 -118 -40 -165.5t-113 -47.5v-27h661v27q-72 0 -112.5 47.5t-40.5 165.5v993q0 107 39 144.5t114 37.5v27zM283 1839l401 -334h-121l-561 246z" />
    <glyph glyph-name="Iacute" unicode="&#xcd;" horiz-adv-x="815" 
d="M80 1442h661v-27q-75 0 -114 -37.5t-39 -144.5v-993q0 -118 40.5 -165.5t112.5 -47.5v-27h-661v27q73 0 113 47.5t40 165.5v993q0 107 -38.5 144.5t-114.5 37.5v27zM111 1505l401 334l281 -88l-562 -246h-120z" />
    <glyph glyph-name="Icircumflex" unicode="&#xce;" horiz-adv-x="815" 
d="M741 1442h-661v-27q76 0 114.5 -37.5t38.5 -144.5v-993q0 -118 -40 -165.5t-113 -47.5v-27h661v27q-72 0 -112.5 47.5t-40.5 165.5v993q0 107 39 144.5t114 37.5v27zM166 1505h-80l328 389l327 -389h-79l-248 162z" />
    <glyph glyph-name="Idieresis" unicode="&#xcf;" horiz-adv-x="815" 
d="M471 1706q0 54 39.5 92.5t93.5 38.5t93.5 -38.5t39.5 -92.5q0 -55 -39.5 -94t-93.5 -39t-93.5 39t-39.5 94zM86 1706q0 54 39.5 92.5t93.5 38.5t92.5 -38.5t38.5 -92.5q0 -55 -38.5 -94t-92.5 -39t-93.5 39t-39.5 94zM80 1442h661v-27q-75 0 -114 -37.5t-39 -144.5v-993
q0 -118 40.5 -165.5t112.5 -47.5v-27h-661v27q73 0 113 47.5t40 165.5v993q0 107 -38.5 144.5t-114.5 37.5v27z" />
    <glyph glyph-name="Eth" unicode="&#xd0;" horiz-adv-x="1636" 
d="M1098 715q0 135 -13 242t-34 180t-55 125t-68.5 81.5t-83 46t-89 21t-96.5 4.5h-90v-680h285v-26h-285v-682h90q56 0 94.5 3.5t88.5 19t83.5 42.5t68.5 78t56 122.5t34.5 179t13.5 243.5zM1534 715q0 -125 -27.5 -228t-74 -175.5t-114.5 -128.5t-142.5 -90t-165 -55.5
t-174 -29.5t-177.5 -8h-573v27q64 0 100.5 72.5t36.5 181.5v428h-160v26h160v424q0 103 -36.5 179.5t-100.5 76.5v27h573q93 0 177.5 -8.5t174 -31t164.5 -57.5t143 -92t114.5 -131t74 -178t27.5 -229z" />
    <glyph glyph-name="Ntilde" unicode="&#xd1;" horiz-adv-x="1720" 
d="M956 1559l-245 92q-28 11 -74.5 16.5t-99.5 2.5t-99 -24.5t-65 -60.5l-21 6q32 77 72.5 133.5t79.5 85t78.5 45.5t73 18t59.5 -1t41 -7l14 -5l244 -93q41 -16 108 -20.5t138 17.5t96 73l18 -10q-33 -75 -73.5 -130t-79.5 -83.5t-78.5 -45.5t-72.5 -19t-59 -0.5t-41 5.5z
M1378 0h-168l-833 1112v-620q0 -28 1 -52.5t7 -75t16.5 -91t32.5 -88.5t52 -81t78 -55t108 -22v-27h-637v27q61 0 111 22t81.5 55.5t56 80t36.5 89.5t19.5 90.5t9 75.5t1.5 52v651l-88 119q-23 29 -45.5 52.5t-39.5 39t-36.5 27t-31 17.5t-29 9.5t-24.5 4.5t-24 2t-20 1v27
h578l762 -1012v522q0 37 -5 85t-23.5 118t-47.5 125.5t-84 95.5t-127 39v27h621v-27q-67 0 -120.5 -26.5t-85.5 -72.5t-54 -96t-31.5 -106.5t-13 -93.5t-3.5 -68v-952z" />
    <glyph glyph-name="Ograve" unicode="&#xd2;" horiz-adv-x="1615" 
d="M1112 711q0 -145 -5.5 -248t-19 -184t-35 -131t-56 -82.5t-79 -45t-106.5 -12.5q-76 0 -126 20t-86.5 64.5t-56 128.5t-28 199.5t-8.5 290.5q0 174 8.5 291.5t28 204.5t56 135t87 70t125.5 22q74 0 124.5 -22t86 -70t54.5 -135t27.5 -204.5t8.5 -291.5zM1538 711
q0 152 -51 288t-143 238.5t-230 162.5t-303 60t-303 -60t-230 -162.5t-143 -238.5t-51 -288q0 -153 51 -286t143 -231.5t230 -155t303 -56.5t303 56.5t230 155t143 231.5t51 286zM713 1839l401 -334h-121l-561 246z" />
    <glyph glyph-name="Oacute" unicode="&#xd3;" horiz-adv-x="1615" 
d="M1112 711q0 174 -8.5 291.5t-27.5 204.5t-54.5 135t-86 70t-124.5 22q-75 0 -125.5 -22t-87 -70t-56 -135t-28 -204.5t-8.5 -291.5q0 -175 8.5 -290.5t28 -199.5t56 -128.5t86.5 -64.5t126 -20q62 0 106.5 12.5t79 45t56 82.5t35 131t19 184t5.5 248zM1538 711
q0 -153 -51 -286t-143 -231.5t-230 -155t-303 -56.5t-303 56.5t-230 155t-143 231.5t-51 286q0 152 51 288t143 238.5t230 162.5t303 60t303 -60t230 -162.5t143 -238.5t51 -288zM520 1505l402 334l280 -88l-561 -246h-121z" />
    <glyph glyph-name="Ocircumflex" unicode="&#xd4;" horiz-adv-x="1615" 
d="M1112 711q0 -145 -5.5 -248t-19 -184t-35 -131t-56 -82.5t-79 -45t-106.5 -12.5q-76 0 -126 20t-86.5 64.5t-56 128.5t-28 199.5t-8.5 290.5q0 174 8.5 291.5t28 204.5t56 135t87 70t125.5 22q74 0 124.5 -22t86 -70t54.5 -135t27.5 -204.5t8.5 -291.5zM1538 711
q0 152 -51 288t-143 238.5t-230 162.5t-303 60t-303 -60t-230 -162.5t-143 -238.5t-51 -288q0 -153 51 -286t143 -231.5t230 -155t303 -56.5t303 56.5t230 155t143 231.5t51 286zM578 1505h-80l327 389l328 -389h-80l-248 162z" />
    <glyph glyph-name="Otilde" unicode="&#xd5;" horiz-adv-x="1615" 
d="M915 1559l-245 92q-28 11 -74.5 16.5t-99.5 2.5t-99 -24.5t-65 -60.5l-21 6q32 77 72.5 133.5t79.5 85t78.5 45.5t73 18t59.5 -1t40 -7l15 -5l244 -93q41 -16 108 -20.5t138 17.5t96 73l18 -10q-33 -75 -73.5 -130t-79.5 -83.5t-78.5 -45.5t-72.5 -19t-59 -0.5t-40 5.5z
M1112 711q0 174 -8.5 291.5t-27.5 204.5t-54.5 135t-86 70t-124.5 22q-75 0 -125.5 -22t-87 -70t-56 -135t-28 -204.5t-8.5 -291.5q0 -175 8.5 -290.5t28 -199.5t56 -128.5t86.5 -64.5t126 -20q62 0 106.5 12.5t79 45t56 82.5t35 131t19 184t5.5 248zM1538 711
q0 -153 -51 -286t-143 -231.5t-230 -155t-303 -56.5t-303 56.5t-230 155t-143 231.5t-51 286q0 152 51 288t143 238.5t230 162.5t303 60t303 -60t230 -162.5t143 -238.5t51 -288z" />
    <glyph glyph-name="Odieresis" unicode="&#xd6;" horiz-adv-x="1615" 
d="M872 1706q0 54 40 92.5t94 38.5t93.5 -38.5t39.5 -92.5q0 -55 -39.5 -94t-93.5 -39t-94 39t-40 94zM487 1706q0 54 40 92.5t94 38.5t92.5 -38.5t38.5 -92.5q0 -55 -38.5 -94t-92.5 -39t-94 39t-40 94zM1112 711q0 174 -8.5 291.5t-27.5 204.5t-54.5 135t-86 70t-124.5 22
q-75 0 -125.5 -22t-87 -70t-56 -135t-28 -204.5t-8.5 -291.5q0 -175 8.5 -290.5t28 -199.5t56 -128.5t86.5 -64.5t126 -20q62 0 106.5 12.5t79 45t56 82.5t35 131t19 184t5.5 248zM1538 711q0 -153 -51 -286t-143 -231.5t-230 -155t-303 -56.5t-303 56.5t-230 155
t-143 231.5t-51 286q0 152 51 288t143 238.5t230 162.5t303 60t303 -60t230 -162.5t143 -238.5t51 -288z" />
    <glyph glyph-name="multiply" unicode="&#xd7;" horiz-adv-x="1284" 
d="M1184 885l-365 -365l365 -364l-166 -168l-365 364l-364 -364l-168 168l364 364l-364 365l168 168l364 -365l365 365z" />
    <glyph glyph-name="Oslash" unicode="&#xd8;" horiz-adv-x="1619" 
d="M813 8q62 0 106.5 12.5t79 45t56 82.5t35 131t19 184t5.5 248q0 284 -31 448l-538 -926q29 -126 90 -175.5t178 -49.5zM508 711q0 -299 27 -439l538 930q-27 126 -88.5 179t-171.5 53q-75 0 -125.5 -22t-87 -70t-56 -135t-28 -204.5t-8.5 -291.5zM1198 1358
q161 -99 251.5 -271.5t90.5 -375.5q0 -153 -51 -286t-143 -231.5t-230 -155t-303 -56.5q-202 0 -364 84l-80 -138h-33l88 152q-161 93 -249.5 259.5t-88.5 371.5q0 152 51 288t143 238.5t230 162.5t303 60q198 0 361 -88l90 154h32z" />
    <glyph glyph-name="Ugrave" unicode="&#xd9;" horiz-adv-x="1556" 
d="M684 1839l401 -334h-120l-562 246zM707 -18q83 0 158 16.5t143 54t116.5 93t77.5 138.5t29 185v571q0 23 1.5 47.5t8.5 63t18.5 72.5t33.5 70.5t51.5 62.5t75 42.5t100.5 16.5l-2 27h-578v-27q57 0 102.5 -21.5t73 -58t46.5 -76t27.5 -85.5t11.5 -76.5t3 -57.5v-571
q0 -164 -95.5 -264.5t-238.5 -100.5q-151 0 -242 94t-91 271v766q0 104 33 142t104 38v27h-619v-27q67 0 95 -42.5t28 -137.5v-752q0 -121 43 -218.5t117 -158t168.5 -92.5t200.5 -32z" />
    <glyph glyph-name="Uacute" unicode="&#xda;" horiz-adv-x="1556" 
d="M707 -18q-106 0 -200.5 32t-168.5 92.5t-117 158t-43 218.5v752q0 95 -28 137.5t-95 42.5v27h619v-27q-71 0 -104 -38t-33 -142v-766q0 -177 91 -271t242 -94q143 0 238.5 100.5t95.5 264.5v571q0 27 -3 57.5t-11.5 76.5t-27.5 85.5t-46.5 76t-73 58t-102.5 21.5v27h578
l2 -27q-55 0 -100.5 -16.5t-75 -42.5t-51.5 -62.5t-33.5 -70.5t-18.5 -72.5t-8.5 -63t-1.5 -47.5v-571q0 -102 -29 -185t-77.5 -138.5t-116.5 -93t-143 -54t-158 -16.5zM530 1505l402 334l280 -88l-561 -246h-121z" />
    <glyph glyph-name="Ucircumflex" unicode="&#xdb;" horiz-adv-x="1556" 
d="M569 1505h-80l328 389l328 -389h-80l-248 162zM707 -18q83 0 158 16.5t143 54t116.5 93t77.5 138.5t29 185v571q0 23 1.5 47.5t8.5 63t18.5 72.5t33.5 70.5t51.5 62.5t75 42.5t100.5 16.5l-2 27h-578v-27q57 0 102.5 -21.5t73 -58t46.5 -76t27.5 -85.5t11.5 -76.5
t3 -57.5v-571q0 -164 -95.5 -264.5t-238.5 -100.5q-151 0 -242 94t-91 271v766q0 104 33 142t104 38v27h-619v-27q67 0 95 -42.5t28 -137.5v-752q0 -121 43 -218.5t117 -158t168.5 -92.5t200.5 -32z" />
    <glyph glyph-name="Udieresis" unicode="&#xdc;" horiz-adv-x="1556" 
d="M981 1561q-58 0 -99.5 42.5t-41.5 102.5q0 58 41 98.5t100 40.5t101 -40.5t42 -98.5q0 -60 -42 -102.5t-101 -42.5zM553 1561q-60 0 -102.5 42.5t-42.5 102.5q0 58 42.5 98.5t102.5 40.5q59 0 100 -40.5t41 -98.5q0 -60 -41.5 -102.5t-99.5 -42.5zM707 -18
q-106 0 -200.5 32t-168.5 92.5t-117 158t-43 218.5v752q0 95 -28 137.5t-95 42.5v27h619v-27q-71 0 -104 -38t-33 -142v-766q0 -177 91 -271t242 -94q143 0 238.5 100.5t95.5 264.5v571q0 27 -3 57.5t-11.5 76.5t-27.5 85.5t-46.5 76t-73 58t-102.5 21.5v27h578l2 -27
q-55 0 -100.5 -16.5t-75 -42.5t-51.5 -62.5t-33.5 -70.5t-18.5 -72.5t-8.5 -63t-1.5 -47.5v-571q0 -102 -29 -185t-77.5 -138.5t-116.5 -93t-143 -54t-158 -16.5z" />
    <glyph glyph-name="Yacute" unicode="&#xdd;" horiz-adv-x="1613" 
d="M977 1442h604v-27q-31 0 -64 -9t-80.5 -38t-94.5 -75t-104 -127t-110 -187l-151 -309v-430q0 -213 123 -213v-27h-598v27q125 0 125 213v325q-134 236 -234 408.5t-133 226.5l-33 55q-26 45 -49.5 76.5t-40 47.5t-36 25t-31 10.5t-31.5 2.5v25h635v-25h-2q-25 0 -38 -1.5
t-28.5 -13.5t-14 -35t19.5 -69.5t57 -113.5l295 -490q118 244 147 307q10 20 22.5 62.5t19 104.5t-2.5 116t-52 92.5t-120 38.5v27zM555 1505l401 334l281 -88l-561 -246h-121z" />
    <glyph glyph-name="Thorn" unicode="&#xde;" horiz-adv-x="1411" 
d="M573 1159v-768h37q58 0 87.5 1t71.5 5.5t61.5 14.5t45.5 28t37 45.5t23 68t16 94t4 124.5q0 83 -8 143.5t-17.5 102.5t-36 69t-46 41.5t-65 21.5t-75.5 8t-94 1h-4h-37zM610 365h-37v-125q0 -117 40.5 -165t111.5 -48v-27h-662v27q73 0 113.5 48t40.5 165v993
q0 108 -38.5 145t-115.5 37v27h662v-27q-36 0 -61.5 -7t-47 -25.5t-32.5 -55.5t-11 -94v-47h37q96 0 171 -3.5t156 -14.5t141 -30t116 -50t91 -74t56 -104t21 -138q0 -76 -21 -136t-56 -102t-91 -73t-116 -49t-141 -29t-156 -14.5t-171 -3.5z" />
    <glyph glyph-name="germandbls" unicode="&#xdf;" horiz-adv-x="1402" 
d="M1354 410q0 -218 -132 -323t-411 -105q-140 0 -197 69q-25 28 -35 67.5t-1 74.5q13 53 60.5 78t102.5 10q50 -15 75.5 -62t10.5 -98q-16 -56 -59 -78q-18 -8 -14 -20q6 -15 57 -15q45 0 77.5 20.5t51.5 54t30.5 87.5t15 109.5t3.5 130.5q0 95 -24 171.5t-61.5 123t-86 78
t-93.5 43.5t-89 12v26q44 0 76 13.5t59 48t41 101t14 165.5q0 66 -8 117.5t-19 83.5t-30 55t-32 33t-34 15.5t-28 6t-21 0.5q-50 0 -86.5 -40.5t-52 -98.5t-24 -115.5t-8.5 -98.5l-1 -40v-1110h-438v25q100 17 100 215v759q0 264 138 397.5t372 133.5q53 0 97 -2.5
t96.5 -11.5t93.5 -24t81 -42t66.5 -63t43 -88.5t16.5 -118.5q0 -81 -31 -143t-73 -94t-93 -52.5t-82.5 -25.5t-50.5 -5q37 0 79.5 -5t96 -19t102.5 -35.5t97 -57t83.5 -81t57 -110.5t21.5 -142z" />
    <glyph glyph-name="agrave" unicode="&#xe0;" horiz-adv-x="1116" 
d="M614 494v-297q-37 -91 -110 -91q-30 0 -52 14t-32 34t-16 40t-6 34l-1 14q0 42 8.5 76.5t30.5 70.5t67 63t111 42zM1094 129l-23 12q-5 -16 -20 -24.5t-27 -9.5l-12 -1q-27 -1 -47.5 14t-30 36t-15 42.5t-5.5 36.5l-1 15v305q0 191 -92.5 300.5t-285.5 109.5
q-12 1 -32 0.5t-72 -11t-93 -32.5q-43 -22 -76 -49.5t-43 -39.5t-29 -38q-22 -26 -24.5 -64.5t14.5 -73.5q25 -47 77 -63.5t99 8.5q47 26 64 77.5t-8 98.5q-27 50 -76 62q-15 4 -19.5 12t0 17t14.5 17.5t23 14.5q106 54 183 -18.5t77 -231.5v-129q-255 -62 -324 -87
q-134 -47 -177 -121q-29 -49 -29 -124q0 -54 22.5 -95t52.5 -62t68.5 -33.5t61.5 -15t41 -2.5q107 0 185.5 49.5t100.5 124.5q6 -49 31 -84.5t57.5 -52t63.5 -26t52 -10.5l22 -1q94 0 164 43t88 104zM483 1442l402 -334h-121l-561 246z" />
    <glyph glyph-name="aacute" unicode="&#xe1;" horiz-adv-x="1116" 
d="M614 494q-66 -15 -111 -42t-67 -63t-30.5 -70.5t-8.5 -76.5q0 -6 0.5 -15t6.5 -32.5t16 -41.5t32 -32.5t52 -14.5q73 0 110 91v297zM1071 141l23 -12q-18 -61 -88 -104t-164 -43q-4 0 -11.5 0.5t-29.5 4t-42 9.5t-45.5 19t-44.5 30.5t-34 46t-19 64.5
q-22 -75 -100.5 -124.5t-185.5 -49.5q-18 0 -41 2.5t-61.5 15t-68.5 33.5t-52.5 62t-22.5 95q0 60 22 104.5t49.5 72.5t102.5 56t128 42t179 45q32 8 49 12v129q0 159 -77 231.5t-183 18.5q-13 -6 -23 -14.5t-14.5 -17.5t0 -17t19.5 -12q49 -12 76 -62q25 -47 8 -98.5
t-64 -77.5q-47 -25 -99 -8.5t-77 63.5q-17 35 -14.5 73.5t24.5 64.5q19 26 29 38t43 39.5t76 49.5q41 22 90 32.5t78 10.5h29q193 0 285.5 -109.5t92.5 -300.5v-305q0 -6 0.5 -16t6 -35t15 -44t30 -34.5t47.5 -14.5q5 0 13.5 1t24.5 9.5t21 24.5zM303 1108l402 334l280 -88
l-561 -246h-121z" />
    <glyph glyph-name="acircumflex" unicode="&#xe2;" horiz-adv-x="1116" 
d="M614 494v-297q-37 -91 -110 -91q-30 0 -52 14t-32 34t-16 40t-6 34l-1 14q0 42 8.5 76.5t30.5 70.5t67 63t111 42zM1094 129l-23 12q-5 -16 -20 -24.5t-27 -9.5l-12 -1q-27 -1 -47.5 14t-30 36t-15 42.5t-5.5 36.5l-1 15v305q0 191 -92.5 300.5t-285.5 109.5
q-12 1 -32 0.5t-72 -11t-93 -32.5q-43 -22 -76 -49.5t-43 -39.5t-29 -38q-22 -26 -24.5 -64.5t14.5 -73.5q25 -47 77 -63.5t99 8.5q47 26 64 77.5t-8 98.5q-27 50 -76 62q-15 4 -19.5 12t0 17t14.5 17.5t23 14.5q106 54 183 -18.5t77 -231.5v-129q-255 -62 -324 -87
q-134 -47 -177 -121q-29 -49 -29 -124q0 -54 22.5 -95t52.5 -62t68.5 -33.5t61.5 -15t41 -2.5q107 0 185.5 49.5t100.5 124.5q6 -49 31 -84.5t57.5 -52t63.5 -26t52 -10.5l22 -1q94 0 164 43t88 104zM352 1059h-80l328 389l328 -389h-80l-248 162z" />
    <glyph glyph-name="atilde" unicode="&#xe3;" horiz-adv-x="1116" 
d="M670 1094l-246 92q-28 11 -74.5 16.5t-99.5 2.5t-99 -24.5t-65 -60.5l-20 6q32 77 72.5 133.5t79.5 85t78.5 45.5t72.5 18t59 -1t40 -7l15 -5l244 -92q41 -16 108 -20.5t138 17t96 72.5l18 -10q-33 -75 -73.5 -130t-79.5 -83.5t-78.5 -45.5t-72 -19t-58.5 -0.5t-41 6.5z
M614 494q-66 -15 -111 -42t-67 -63t-30.5 -70.5t-8.5 -76.5q0 -6 0.5 -15t6.5 -32.5t16 -41.5t32 -32.5t52 -14.5q73 0 110 91v297zM1071 141l23 -12q-18 -61 -88 -104t-164 -43q-4 0 -11.5 0.5t-29.5 4t-42 9.5t-45.5 19t-44.5 30.5t-34 46t-19 64.5q-22 -75 -100.5 -124.5
t-185.5 -49.5q-18 0 -41 2.5t-61.5 15t-68.5 33.5t-52.5 62t-22.5 95q0 60 22 104.5t49.5 72.5t102.5 56t128 42t179 45q32 8 49 12v129q0 159 -77 231.5t-183 18.5q-13 -6 -23 -14.5t-14.5 -17.5t0 -17t19.5 -12q49 -12 76 -62q25 -47 8 -98.5t-64 -77.5q-47 -25 -99 -8.5
t-77 63.5q-17 35 -14.5 73.5t24.5 64.5q19 26 29 38t43 39.5t76 49.5q41 22 90 32.5t78 10.5h29q193 0 285.5 -109.5t92.5 -300.5v-305q0 -6 0.5 -16t6 -35t15 -44t30 -34.5t47.5 -14.5q5 0 13.5 1t24.5 9.5t21 24.5z" />
    <glyph glyph-name="adieresis" unicode="&#xe4;" horiz-adv-x="1116" 
d="M770 1120q-56 0 -94.5 39t-38.5 94q0 54 39 92.5t94 38.5q54 0 92.5 -38.5t38.5 -92.5q0 -55 -38.5 -94t-92.5 -39zM385 1120q-55 0 -94 39t-39 94q0 54 39 92.5t94 38.5q54 0 92.5 -38.5t38.5 -92.5q0 -55 -38.5 -94t-92.5 -39zM614 494q-66 -15 -111 -42t-67 -63
t-30.5 -70.5t-8.5 -76.5q0 -6 0.5 -15t6.5 -32.5t16 -41.5t32 -32.5t52 -14.5q73 0 110 91v297zM1071 141l23 -12q-18 -61 -88 -104t-164 -43q-4 0 -11.5 0.5t-29.5 4t-42 9.5t-45.5 19t-44.5 30.5t-34 46t-19 64.5q-22 -75 -100.5 -124.5t-185.5 -49.5q-18 0 -41 2.5
t-61.5 15t-68.5 33.5t-52.5 62t-22.5 95q0 60 22 104.5t49.5 72.5t102.5 56t128 42t179 45q32 8 49 12v129q0 159 -77 231.5t-183 18.5q-13 -6 -23 -14.5t-14.5 -17.5t0 -17t19.5 -12q49 -12 76 -62q25 -47 8 -98.5t-64 -77.5q-47 -25 -99 -8.5t-77 63.5q-17 35 -14.5 73.5
t24.5 64.5q19 26 29 38t43 39.5t76 49.5q41 22 90 32.5t78 10.5h29q193 0 285.5 -109.5t92.5 -300.5v-305q0 -6 0.5 -16t6 -35t15 -44t30 -34.5t47.5 -14.5q5 0 13.5 1t24.5 9.5t21 24.5z" />
    <glyph glyph-name="aring" unicode="&#xe5;" horiz-adv-x="1116" 
d="M475 1307q0 -43 29.5 -73t70.5 -30q43 0 72 30t29 73q0 41 -29 70.5t-72 29.5q-41 0 -70.5 -29.5t-29.5 -70.5zM362 1307q0 88 62.5 150.5t150.5 62.5q89 0 151 -62.5t62 -150.5t-62 -150.5t-151 -62.5q-88 0 -150.5 62.5t-62.5 150.5zM614 494q-66 -15 -111 -42t-67 -63
t-30.5 -70.5t-8.5 -76.5q0 -6 0.5 -15t6.5 -32.5t16 -41.5t32 -32.5t52 -14.5q73 0 110 91v297zM1071 141l23 -12q-18 -61 -88 -104t-164 -43q-4 0 -11.5 0.5t-29.5 4t-42 9.5t-45.5 19t-44.5 30.5t-34 46t-19 64.5q-22 -75 -100.5 -124.5t-185.5 -49.5q-18 0 -41 2.5
t-61.5 15t-68.5 33.5t-52.5 62t-22.5 95q0 60 22 104.5t49.5 72.5t102.5 56t128 42t179 45q32 8 49 12v129q0 159 -77 231.5t-183 18.5q-13 -6 -23 -14.5t-14.5 -17.5t0 -17t19.5 -12q49 -12 76 -62q25 -47 8 -98.5t-64 -77.5q-47 -25 -99 -8.5t-77 63.5q-17 35 -14.5 73.5
t24.5 64.5q19 26 29 38t43 39.5t76 49.5q41 22 90 32.5t78 10.5h29q193 0 285.5 -109.5t92.5 -300.5v-305q0 -6 0.5 -16t6 -35t15 -44t30 -34.5t47.5 -14.5q5 0 13.5 1t24.5 9.5t21 24.5z" />
    <glyph glyph-name="ae" unicode="&#xe6;" horiz-adv-x="1503" 
d="M883 518h272q0 70 -1.5 121t-6 102t-13 84.5t-22 60.5t-33 39.5t-45.5 12.5q-44 0 -75 -36.5t-47 -100.5t-22.5 -133t-6.5 -150zM1364 279l29 -11q-7 -42 -22 -79.5t-44 -76.5t-69 -67t-102 -45.5t-138 -17.5q-115 0 -216.5 54t-154.5 142q-28 -80 -120 -138t-218 -58
q-5 0 -13 0.5t-32 4.5t-45.5 11t-48 22.5t-45.5 36.5t-32 55.5t-13 77.5q0 52 10.5 91t43.5 70t63.5 51.5t101 43.5t124 37.5t163.5 40.5v125q0 160 -72 232.5t-178 17.5q-28 -13 -35 -30t21 -27q47 -15 71 -64q26 -47 10 -99t-65 -77q-47 -25 -98 -8.5t-76 63.5
q-18 34 -15.5 72t23.5 66q17 23 28.5 36.5t44 39.5t74.5 49q41 22 86 33t70 11l25 1q160 0 258 -113q71 58 132 85.5t140 27.5q133 0 216 -44.5t127 -149.5t44 -279h-534q4 -187 56 -272.5t163 -106.5q85 -15 162 33.5t100 132.5zM586 373v123q-83 -22 -146 -98t-63 -158
q0 -6 0.5 -15t5.5 -32.5t14.5 -41.5t30.5 -32.5t51 -14.5q51 0 89 32t61 73q-36 65 -43 164z" />
    <glyph glyph-name="ccedilla" unicode="&#xe7;" horiz-adv-x="1044" 
d="M942 268l23 -12q-5 -45 -33.5 -91.5t-77 -88t-125.5 -68t-168 -26.5h-26l-37 -107q133 30 204.5 -27t61.5 -149q-6 -49 -29.5 -83t-58.5 -50.5t-68 -23.5t-67 -7q-89 0 -144 43q-13 11 -20.5 31t-3.5 39q6 28 30.5 42t53.5 7q29 -6 44 -29t9 -51q-5 -26 -27 -37
q-8 -4 5 -12q15 -8 49 -8q42 0 66 30t24 72q0 17 -8.5 39.5t-27 48.5t-59 39t-94.5 4l72 191q-180 20 -300 162.5t-120 330.5q0 99 34 185.5t99.5 155t171.5 108t240 39.5q103 0 176 -32.5t115 -74.5q27 -27 37 -67.5t0 -79.5q-19 -57 -72.5 -84.5t-110.5 -10.5
q-57 19 -84 71.5t-8 109.5q19 60 70 82q14 5 -2 23q-33 36 -115 36q-38 0 -75.5 -24t-71 -72t-54 -134t-20.5 -198q0 -160 70.5 -247t193.5 -99q77 -8 153.5 22.5t104.5 81.5z" />
    <glyph glyph-name="egrave" unicode="&#xe8;" horiz-adv-x="1085" 
d="M729 518h-332q0 101 20 196t61 159.5t93 64.5q76 0 117 -112t41 -308zM1001 492q0 129 -30.5 222t-88.5 147t-134.5 79t-176.5 25q-101 0 -190 -33t-158 -94.5t-109 -157t-40 -211.5q0 -128 60.5 -239.5t169 -179.5t239.5 -68q95 0 174.5 25.5t130.5 67.5t82.5 90
t42.5 99l-27 10q-32 -95 -124 -138t-179 -23q-54 12 -95.5 36.5t-75.5 68t-53 112.5t-22 162h604zM444 1442l402 -334h-121l-561 246z" />
    <glyph glyph-name="eacute" unicode="&#xe9;" horiz-adv-x="1085" 
d="M397 518h332q0 196 -41 308t-117 112q-52 0 -93 -64.5t-61 -159.5t-20 -196zM1001 492h-604q3 -93 22 -162t53 -112.5t75.5 -68t95.5 -36.5q87 -20 179 23t124 138l27 -10q-11 -51 -42.5 -99t-82.5 -90t-130.5 -67.5t-174.5 -25.5q-131 0 -239.5 68t-169 179.5
t-60.5 239.5q0 116 40 211.5t109 157t158 94.5t190 33q100 0 176.5 -25t134.5 -79t88.5 -147t30.5 -222zM291 1108l401 334l281 -88l-561 -246h-121z" />
    <glyph glyph-name="ecircumflex" unicode="&#xea;" horiz-adv-x="1085" 
d="M729 518h-332q0 101 20 196t61 159.5t93 64.5q76 0 117 -112t41 -308zM1001 492q0 129 -30.5 222t-88.5 147t-134.5 79t-176.5 25q-101 0 -190 -33t-158 -94.5t-109 -157t-40 -211.5q0 -128 60.5 -239.5t169 -179.5t239.5 -68q95 0 174.5 25.5t130.5 67.5t82.5 90
t42.5 99l-27 10q-32 -95 -124 -138t-179 -23q-54 12 -95.5 36.5t-75.5 68t-53 112.5t-22 162h604zM332 1059h-80l328 389l327 -389h-80l-247 162z" />
    <glyph glyph-name="edieresis" unicode="&#xeb;" horiz-adv-x="1085" 
d="M741 1120q-55 0 -94 39t-39 94q0 54 39 92.5t94 38.5q54 0 92.5 -38.5t38.5 -92.5q0 -55 -38.5 -94t-92.5 -39zM1001 492h-604q3 -93 22 -162t53 -112.5t75.5 -68t95.5 -36.5q87 -20 179 23t124 138l27 -10q-11 -51 -42.5 -99t-82.5 -90t-130.5 -67.5t-174.5 -25.5
q-131 0 -239.5 68t-169 179.5t-60.5 239.5q0 116 40 211.5t109 157t158 94.5t190 33q100 0 176.5 -25t134.5 -79t88.5 -147t30.5 -222zM356 1120q-56 0 -94.5 39t-38.5 94q0 54 39 92.5t94 38.5q54 0 92.5 -38.5t38.5 -92.5q0 -55 -38.5 -94t-92.5 -39zM397 518h332
q0 196 -41 308t-117 112q-52 0 -93 -64.5t-61 -159.5t-20 -196z" />
    <glyph glyph-name="igrave" unicode="&#xec;" horiz-adv-x="620" 
d="M545 25q-51 14 -67.5 66t-16.5 149v725l-408 -84v-27q63 -28 85 -55.5t22 -81.5v-477q0 -96 -14.5 -147t-67.5 -68v-25h467v25zM180 1442l402 -334h-121l-561 246z" />
    <glyph glyph-name="iacute" unicode="&#xed;" horiz-adv-x="620" 
d="M545 25v-25h-467v25q53 17 67.5 68t14.5 147v477q0 54 -22 81.5t-85 55.5v27l408 84v-725q0 -97 16.5 -149t67.5 -66zM49 1108l402 334l280 -88l-561 -246h-121z" />
    <glyph glyph-name="icircumflex" unicode="&#xee;" horiz-adv-x="620" 
d="M545 25q-51 14 -67.5 66t-16.5 149v725l-408 -84v-27q63 -28 85 -55.5t22 -81.5v-477q0 -96 -14.5 -147t-67.5 -68v-25h467v25zM74 1059h-80l328 389l327 -389h-80l-247 162z" />
    <glyph glyph-name="idieresis" unicode="&#xef;" horiz-adv-x="620" 
d="M494 1120q-56 0 -95 39t-39 94q0 54 39.5 92.5t94.5 38.5q54 0 92.5 -38.5t38.5 -92.5q0 -55 -38.5 -94t-92.5 -39zM109 1120q-56 0 -95 39t-39 94q0 54 39.5 92.5t94.5 38.5q54 0 92.5 -38.5t38.5 -92.5q0 -55 -38.5 -94t-92.5 -39zM545 25v-25h-465v25q28 9 45 28
t24.5 52t9 59.5t1.5 75.5v477q0 54 -21 81.5t-84 55.5v27l406 84v-725q0 -97 16.5 -149t67.5 -66z" />
    <glyph glyph-name="eth" unicode="&#xf0;" horiz-adv-x="1208" 
d="M594 821q-79 0 -129.5 -110.5t-50.5 -304.5q0 -99 4.5 -163.5t15.5 -113t32 -73.5t51 -36.5t75 -11.5q108 0 145 155.5t37 518.5q0 47 -29.5 80t-69 46t-81.5 13zM1143 651q0 -311 -143 -490t-408 -179q-112 0 -205 28.5t-162.5 84.5t-108 145.5t-38.5 205.5
q0 71 12.5 133.5t43.5 121.5t79 101t123.5 67.5t171.5 25.5q82 0 159 -34.5t107 -104.5q-6 323 -86 487l-354 -180l-19 22l359 185q-95 164 -301 164v26q263 0 450 -114l197 102l20 -23l-190 -98q137 -97 215 -266t78 -410z" />
    <glyph glyph-name="ntilde" unicode="&#xf1;" horiz-adv-x="1161" 
d="M670 1094l-246 92q-28 11 -75 16.5t-99.5 2.5t-99.5 -24.5t-66 -60.5l-18 6q32 77 72.5 133.5t79.5 85t78.5 45.5t72.5 18t59 -1t40 -7l15 -5l244 -92q41 -16 108 -20.5t138 17t96 72.5l18 -10q-33 -75 -73.5 -130t-79.5 -83.5t-78.5 -45.5t-72 -19t-58.5 -0.5t-41 6.5z
M1112 25v-25h-467v25q53 16 67.5 68t14.5 149v403q0 82 -39.5 127t-114.5 45q-47 0 -91.5 -38.5t-55.5 -86.5v-454q0 -97 16.5 -148t67.5 -65v-25h-467v25q28 8 45 26.5t24.5 51.5t9 59.5t1.5 75.5v481q0 54 -21 80.5t-84 54.5v27l408 84v-209q37 88 125.5 148.5t179.5 60.5
q65 0 115.5 -14.5t93 -48.5t65.5 -97t23 -152v-411q0 -98 16.5 -151.5t67.5 -65.5z" />
    <glyph glyph-name="ograve" unicode="&#xf2;" horiz-adv-x="1165" 
d="M741 473q0 -99 -2 -164t-8 -121t-16 -87.5t-27 -54t-40 -30.5t-56 -8q-40 0 -65.5 13.5t-43 42t-26 86.5t-12 131.5t-3.5 191.5t3.5 191.5t12 131.5t26 86.5t43 42t65.5 13.5q33 0 56 -8t40 -30.5t27 -54t16 -87.5t8 -121t2 -164zM1100 473q0 103 -32 191t-94 156
t-160 106.5t-222 38.5q-123 0 -221 -38.5t-160 -106.5t-94.5 -156t-32.5 -191q0 -102 32.5 -190t94 -155.5t160 -106.5t221.5 -39q124 0 222 39t160 106.5t94 155.5t32 190zM471 1442l401 -334h-120l-562 246z" />
    <glyph glyph-name="oacute" unicode="&#xf3;" horiz-adv-x="1165" 
d="M741 473q0 99 -2 164t-8 121t-16 87.5t-27 54t-40 30.5t-56 8q-40 0 -65.5 -13.5t-43 -42t-26 -86.5t-12 -131.5t-3.5 -191.5t3.5 -191.5t12 -131.5t26 -86.5t43 -42t65.5 -13.5q33 0 56 8t40 30.5t27 54t16 87.5t8 121t2 164zM1100 473q0 -102 -32 -190t-94 -155.5
t-160 -106.5t-222 -39q-123 0 -221.5 39t-160 106.5t-94 155.5t-32.5 190q0 103 32.5 191t94.5 156t160 106.5t221 38.5q124 0 222 -38.5t160 -106.5t94 -156t32 -191zM315 1108l402 334l280 -88l-561 -246h-121z" />
    <glyph glyph-name="ocircumflex" unicode="&#xf4;" horiz-adv-x="1165" 
d="M741 473q0 -99 -2 -164t-8 -121t-16 -87.5t-27 -54t-40 -30.5t-56 -8q-40 0 -65.5 13.5t-43 42t-26 86.5t-12 131.5t-3.5 191.5t3.5 191.5t12 131.5t26 86.5t43 42t65.5 13.5q33 0 56 -8t40 -30.5t27 -54t16 -87.5t8 -121t2 -164zM1100 473q0 103 -32 191t-94 156
t-160 106.5t-222 38.5q-123 0 -221 -38.5t-160 -106.5t-94.5 -156t-32.5 -191q0 -102 32.5 -190t94 -155.5t160 -106.5t221.5 -39q124 0 222 39t160 106.5t94 155.5t32 190zM354 1059h-80l328 389l328 -389h-80l-248 162z" />
    <glyph glyph-name="otilde" unicode="&#xf5;" horiz-adv-x="1165" 
d="M444 1186q-29 11 -75.5 16.5t-99.5 2.5t-99.5 -24.5t-65.5 -60.5l-18 6q32 77 72.5 133.5t79.5 85t78.5 45.5t73 18t59.5 -1t41 -7l14 -5l244 -92q40 -16 106 -20.5t137 17t96 72.5l21 -10q-33 -75 -74 -130t-80 -83.5t-79 -45.5t-73 -19t-59 -0.5t-41 6.5l-14 4z
M741 473q0 -99 -2 -164t-8 -121t-16 -87.5t-27 -54t-40 -30.5t-56 -8q-40 0 -65.5 13.5t-43 42t-26 86.5t-12 131.5t-3.5 191.5t3.5 191.5t12 131.5t26 86.5t43 42t65.5 13.5q33 0 56 -8t40 -30.5t27 -54t16 -87.5t8 -121t2 -164zM1100 473q0 103 -32 191t-94 156
t-160 106.5t-222 38.5q-123 0 -221 -38.5t-160 -106.5t-94.5 -156t-32.5 -191q0 -102 32.5 -190t94 -155.5t160 -106.5t221.5 -39q124 0 222 39t160 106.5t94 155.5t32 190z" />
    <glyph glyph-name="odieresis" unicode="&#xf6;" horiz-adv-x="1165" 
d="M784 1120q-56 0 -94.5 39t-38.5 94q0 54 39 92.5t94 38.5q54 0 92.5 -38.5t38.5 -92.5q0 -55 -38.5 -94t-92.5 -39zM399 1120q-55 0 -94 39t-39 94q0 54 39 92.5t94 38.5q54 0 92.5 -38.5t38.5 -92.5q0 -55 -38.5 -94t-92.5 -39zM741 473q0 99 -2 164t-8 121t-16 87.5
t-27 54t-40 30.5t-56 8q-40 0 -65.5 -13.5t-43 -42t-26 -86.5t-12 -131.5t-3.5 -191.5t3.5 -191.5t12 -131.5t26 -86.5t43 -42t65.5 -13.5q33 0 56 8t40 30.5t27 54t16 87.5t8 121t2 164zM1100 473q0 -102 -32 -190t-94 -155.5t-160 -106.5t-222 -39q-123 0 -221.5 39
t-160 106.5t-94 155.5t-32.5 190q0 103 32.5 191t94.5 156t160 106.5t221 38.5q124 0 222 -38.5t160 -106.5t94 -156t32 -191z" />
    <glyph glyph-name="divide" unicode="&#xf7;" horiz-adv-x="1280" 
d="M639 860q-61 0 -104 44t-43 106q0 61 43 105t104 44t105 -44.5t44 -104.5q0 -62 -44 -106t-105 -44zM639 -27q-62 0 -104.5 43.5t-42.5 106.5q0 60 43 103.5t104 43.5t105 -43.5t44 -103.5q0 -63 -43.5 -106.5t-105.5 -43.5zM1190 455h-1098v221h1098v-221z" />
    <glyph glyph-name="oslash" unicode="&#xf8;" horiz-adv-x="1165" 
d="M741 473q0 137 -8 213l-280 -479q10 -114 40.5 -156.5t98.5 -42.5q33 0 56 8t40 30.5t27 54t16 87.5t8 121t2 164zM223 -137l105 178q-120 60 -182 174t-62 258q0 103 32.5 191t94.5 156t160 106.5t221 38.5q132 0 246 -52l94 162h31l-103 -172q119 -61 179.5 -174
t60.5 -256q0 -102 -32 -190t-94 -155.5t-160 -106.5t-222 -39q-138 0 -244 47l-96 -166h-29zM446 252l285 477q-11 117 -41.5 163t-97.5 46q-40 0 -65.5 -13.5t-43 -42t-26 -86.5t-12 -131.5t-3.5 -191.5q0 -164 4 -221z" />
    <glyph glyph-name="ugrave" unicode="&#xf9;" horiz-adv-x="1202" 
d="M1167 61q-66 8 -85 29.5t-19 93.5v781l-397 -41v-25q19 -2 32 -5t24 -7t17 -9.5t11 -13t7 -17.5t3.5 -23t1.5 -29v-35v-25v-481q-23 -60 -66.5 -91.5t-89.5 -31.5q-83 0 -118 41t-35 129v664l-418 -41v-25q30 -4 48.5 -7.5t32.5 -13t20 -16t9.5 -26t4 -34t0.5 -49.5v-12
v-446q0 -89 22.5 -152t64.5 -97t92 -49t115 -15q110 0 201.5 64t116.5 151v-174q0 -2 0.5 -5t4 -10.5t9 -13t17 -9t26.5 -1.5l348 53v24zM471 1442l401 -334h-120l-562 246z" />
    <glyph glyph-name="uacute" unicode="&#xfa;" horiz-adv-x="1202" 
d="M1167 61v-24l-348 -53q-24 -4 -38.5 6t-16.5 22l-2 11v174q-25 -87 -116.5 -151t-201.5 -64q-65 0 -115 15t-92 49t-64.5 97t-22.5 152v446q0 89 -8 109q-11 30 -60 41q-18 4 -47 8v25l418 41v-664q0 -88 35 -129t118 -41q46 0 89.5 31.5t66.5 91.5v481q0 95 -5 114
q-9 32 -50 43q-16 4 -41 7v25l397 41v-781q0 -72 19 -93.5t85 -29.5zM324 1108l401 334l281 -88l-562 -246h-120z" />
    <glyph glyph-name="ucircumflex" unicode="&#xfb;" horiz-adv-x="1202" 
d="M1167 61q-66 8 -85 29.5t-19 93.5v781l-397 -41v-25q19 -2 32 -5t24 -7t17 -9.5t11 -13t7 -17.5t3.5 -23t1.5 -29v-35v-25v-481q-23 -60 -66.5 -91.5t-89.5 -31.5q-83 0 -118 41t-35 129v664l-418 -41v-25q30 -4 48.5 -7.5t32.5 -13t20 -16t9.5 -26t4 -34t0.5 -49.5v-12
v-446q0 -89 22.5 -152t64.5 -97t92 -49t115 -15q110 0 201.5 64t116.5 151v-174q0 -2 0.5 -5t4 -10.5t9 -13t17 -9t26.5 -1.5l348 53v24zM360 1059h-79l327 389l328 -389h-80l-248 162z" />
    <glyph glyph-name="udieresis" unicode="&#xfc;" horiz-adv-x="1202" 
d="M793 1118q-56 0 -95 39t-39 94q0 54 39.5 92.5t94.5 38.5q54 0 92.5 -38.5t38.5 -92.5q0 -55 -38.5 -94t-92.5 -39zM408 1118q-56 0 -95 39t-39 94q0 54 39.5 92.5t94.5 38.5q54 0 92.5 -38.5t38.5 -92.5q0 -55 -38.5 -94t-92.5 -39zM1167 61v-24l-348 -53
q-24 -4 -38.5 6t-16.5 22l-2 11v174q-25 -87 -116.5 -151t-201.5 -64q-65 0 -115 15t-92 49t-64.5 97t-22.5 152v446q0 89 -8 109q-11 30 -60 41q-18 4 -47 8v25l418 41v-664q0 -88 35 -129t118 -41q46 0 89.5 31.5t66.5 91.5v481q0 95 -5 114q-9 32 -50 43q-16 4 -41 7v25
l397 41v-781q0 -72 19 -93.5t85 -29.5z" />
    <glyph glyph-name="yacute" unicode="&#xfd;" horiz-adv-x="1167" 
d="M692 946h441v-24q-40 0 -69.5 -11t-64 -45t-72 -100t-81.5 -172l-285 -780q-66 -199 -162 -277q-31 -25 -83.5 -31.5t-92.5 11.5q-61 28 -84 89.5t4 121.5q28 60 88.5 82.5t120.5 -3.5q60 -27 80 -90q6 -21 26 -18q43 8 78 121q1 1 1 2l38 106q-28 64 -135 286.5
t-200 412.5l-93 190q-48 100 -147 105v24h563v-24q-34 0 -52 -15.5t-19 -37.5t3 -44t11 -37l6 -16l213 -434l96 262q2 7 6 18.5t11.5 45t10 64t-2 67.5t-20 63.5t-49.5 45t-85 18.5v24zM227 1108l402 334l280 -88l-561 -246h-121z" />
    <glyph glyph-name="thorn" unicode="&#xfe;" horiz-adv-x="1298" 
d="M848 453q0 218 -54 328t-169 110q-87 0 -134 -66.5t-57 -171.5v-364q10 -141 65.5 -211t139.5 -70q209 0 209 445zM1200 477q0 -108 -28 -193t-75.5 -141t-114 -93t-141 -52.5t-159.5 -15.5q-152 0 -248 55v-348q0 -95 17 -143.5t67 -61.5v-27h-465v27q53 16 66.5 62.5
t13.5 142.5v1577q0 54 -20 78t-84 47v24l405 84v-694q44 80 132 120t200 40q192 0 313 -136.5t121 -351.5z" />
    <glyph glyph-name="ydieresis" unicode="&#xff;" horiz-adv-x="1167" 
d="M397 1120q-55 0 -94 39.5t-39 95.5q0 54 39 92.5t94 38.5q54 0 92.5 -38.5t38.5 -92.5q0 -56 -38.5 -95.5t-92.5 -39.5zM782 1120q-55 0 -94 39.5t-39 95.5q0 54 39 92.5t94 38.5q54 0 92.5 -38.5t38.5 -92.5q0 -56 -38.5 -95.5t-92.5 -39.5zM694 922v24h441v-24
q-40 0 -69.5 -11t-64 -45t-72 -100t-81.5 -172l-285 -780q-66 -199 -162 -277q-31 -25 -83.5 -31.5t-92.5 11.5q-61 28 -84 89.5t4 121.5q28 60 88.5 82.5t120.5 -3.5q60 -27 80 -90q6 -21 26 -18q43 8 78 121q1 1 1 2l39 106q-28 64 -135 286.5t-200 412.5l-93 190
q-48 100 -148 105v24h563v-24q-34 0 -52 -15.5t-19 -37.5t3 -44t11 -37l6 -16l213 -434l96 262q2 7 6 18.5t11.5 45t10 64t-2 67.5t-20 63.5t-49.5 45t-85 18.5z" />
    <glyph glyph-name="Abreve" unicode="&#x102;" horiz-adv-x="1499" 
d="M797 426l-226 530l-202 -530h428zM1475 25v-25h-652v25q45 0 66.5 23.5t20 57.5t-9.5 67.5t-19 56.5l-11 24l-63 145h-445q-6 -14 -10 -45t-5.5 -74.5t11 -88t36 -83t72 -62t116.5 -21.5v-25h-547v25q25 2 38.5 5t45.5 25.5t61.5 64t75 127t96.5 206.5l385 989h23
l536 -1258q12 -27 23 -48.5t23.5 -37t21 -27.5t22 -19.5t19 -12.5t20 -7.5t17 -3.5t18.5 -2zM1012 1876h18q0 -136 -67 -221.5t-205 -85.5q-141 0 -210 85.5t-69 221.5h21q0 -63 57.5 -98t200.5 -35q140 0 197 35t57 98z" />
    <glyph glyph-name="abreve" unicode="&#x103;" horiz-adv-x="1116" 
d="M614 494q-66 -15 -111 -42t-67 -63t-30.5 -70.5t-8.5 -76.5q0 -6 0.5 -15t6.5 -32.5t16 -41.5t32 -32.5t52 -14.5q73 0 110 91v297zM1071 141l23 -12q-18 -61 -88 -104t-164 -43q-4 0 -11.5 0.5t-29.5 4t-42 9.5t-45.5 19t-44.5 30.5t-34 46t-19 64.5
q-22 -75 -100.5 -124.5t-185.5 -49.5q-18 0 -41 2.5t-61.5 15t-68.5 33.5t-52.5 62t-22.5 95q0 60 22 104.5t49.5 72.5t102.5 56t128 42t179 45q32 8 49 12v129q0 159 -77 231.5t-183 18.5q-13 -6 -23 -14.5t-14.5 -17.5t0 -17t19.5 -12q49 -12 76 -62q25 -47 8 -98.5
t-64 -77.5q-47 -25 -99 -8.5t-77 63.5q-17 35 -14.5 73.5t24.5 64.5q19 26 29 38t43 39.5t76 49.5q41 22 90 32.5t78 10.5h29q193 0 285.5 -109.5t92.5 -300.5v-305q0 -6 0.5 -16t6 -35t15 -44t30 -34.5t47.5 -14.5q5 0 13.5 1t24.5 9.5t21 24.5zM842 1442h18
q0 -136 -67 -221.5t-205 -85.5q-141 0 -210 85.5t-69 221.5h21q0 -63 57.5 -98t200.5 -35q140 0 197 35t57 98z" />
    <glyph glyph-name="Aogonek" unicode="&#x104;" horiz-adv-x="1499" 
d="M1475 25v-25h-166q-80 -44 -113 -97t-20 -106q10 -37 37.5 -55t50.5 -17l22 1q64 14 64 57h26q0 -30 -3 -51.5t-14.5 -48.5t-38.5 -45t-69 -25q-57 -8 -97.5 -1t-65.5 25t-38.5 36t-18.5 32l-5 14q-49 182 174 281h-377v25q45 0 66.5 23.5t20 57.5t-9.5 67.5t-19 56.5
l-11 24l-63 145h-445q-6 -14 -10 -45t-5.5 -74.5t11 -88t36 -83t72 -62t116.5 -21.5v-25h-547v25q25 2 38.5 5t45.5 25.5t61.5 64t75 127t96.5 206.5l385 989h23l536 -1258q12 -27 23 -48.5t23.5 -37t21 -27.5t22 -19.5t19 -12.5t20 -7.5t17 -3.5t18.5 -2zM797 426l-226 530
l-202 -530h428z" />
    <glyph glyph-name="aogonek" unicode="&#x105;" horiz-adv-x="1116" 
d="M1071 141l23 -12q-15 -52 -69.5 -91.5t-129.5 -51.5q-70 -43 -98.5 -93.5t-16.5 -99.5q10 -37 38 -55t50 -18l23 1q13 3 25 8t25 18.5t13 31.5h27q0 -30 -3 -51.5t-14.5 -48.5t-38.5 -45t-69 -25q-57 -8 -97.5 -1t-65.5 25t-38.5 36t-18.5 32l-5 14q-47 175 157 273
q-27 5 -52 15.5t-52 29t-45.5 50.5t-22.5 73q-22 -75 -100.5 -124.5t-185.5 -49.5q-18 0 -41 2.5t-61.5 15t-68.5 33.5t-52.5 62t-22.5 95q0 60 22 104.5t49.5 72.5t102.5 56t128 42t179 45q32 8 49 12v129q0 159 -77 231.5t-183 18.5q-13 -6 -23 -14.5t-14.5 -17.5t0 -17
t19.5 -12q49 -12 76 -62q25 -47 8 -98.5t-64 -77.5q-47 -25 -99 -8.5t-77 63.5q-17 35 -14.5 73.5t24.5 64.5q19 26 29 38t43 39.5t76 49.5q41 22 90 32.5t78 10.5h29q193 0 285.5 -109.5t92.5 -300.5v-305q0 -6 0.5 -16t6 -35t15 -44t30 -34.5t47.5 -14.5q5 0 13.5 1
t24.5 9.5t21 24.5zM614 197v297q-66 -15 -111 -42t-67 -63t-30.5 -70.5t-8.5 -76.5q0 -6 0.5 -15t6.5 -32.5t16 -41.5t32 -32.5t52 -14.5q73 0 110 91z" />
    <glyph glyph-name="Cacute" unicode="&#x106;" horiz-adv-x="1433" 
d="M1307 459h24l25 -367q-76 -52 -208.5 -81t-295.5 -29q-217 0 -392.5 93t-276.5 262t-101 382q0 214 101 383.5t276.5 262.5t392.5 93q372 0 504 -108l-25 -369h-24q-113 451 -455 451q-89 0 -148.5 -32.5t-103 -113t-63 -219.5t-19.5 -348t20.5 -348.5t64.5 -219.5
t103 -112.5t146 -32.5q74 0 144 27t132.5 80.5t109.5 142.5t69 203zM455 1503l401 334l281 -88l-562 -246h-120z" />
    <glyph glyph-name="cacute" unicode="&#x107;" horiz-adv-x="1046" 
d="M928 856q26 -25 36.5 -66t0.5 -79q-19 -57 -72.5 -85.5t-110.5 -9.5t-84 71t-8 108q17 60 70 82q14 7 -3 26q-34 35 -114 35q-38 0 -75.5 -24t-71 -72.5t-54 -135t-20.5 -198.5q0 -160 70.5 -245.5t193.5 -98.5q78 -8 154.5 22t103.5 82l23 -12q-5 -46 -33.5 -92.5
t-77 -88t-125.5 -67.5t-168 -26q-131 0 -240 68.5t-170 182t-61 244.5q0 99 34 185.5t99.5 155t171.5 108t240 39.5q182 0 291 -109zM283 1108l401 334l281 -88l-562 -246h-120z" />
    <glyph glyph-name="Ccaron" unicode="&#x10c;" horiz-adv-x="1433" 
d="M1307 459h24l25 -367q-76 -52 -208.5 -81t-295.5 -29q-217 0 -392.5 93t-276.5 262t-101 382q0 214 101 383.5t276.5 262.5t392.5 93q372 0 504 -108l-25 -369h-24q-113 451 -455 451q-89 0 -148.5 -32.5t-103 -113t-63 -219.5t-19.5 -348t20.5 -348.5t64.5 -219.5
t103 -112.5t146 -32.5q74 0 144 27t132.5 80.5t109.5 142.5t69 203zM537 1888h79l248 -162l248 162h80l-328 -389z" />
    <glyph glyph-name="ccaron" unicode="&#x10d;" horiz-adv-x="1046" 
d="M928 856q26 -25 36.5 -66t0.5 -79q-19 -57 -72.5 -85.5t-110.5 -9.5t-84 71t-8 108q17 60 70 82q14 7 -3 26q-34 35 -114 35q-38 0 -75.5 -24t-71 -72.5t-54 -135t-20.5 -198.5q0 -160 70.5 -245.5t193.5 -98.5q78 -8 154.5 22t103.5 82l23 -12q-5 -46 -33.5 -92.5
t-77 -88t-125.5 -67.5t-168 -26q-131 0 -240 68.5t-170 182t-61 244.5q0 99 34 185.5t99.5 155t171.5 108t240 39.5q182 0 291 -109zM289 1442h80l247 -162l248 162h80l-328 -389z" />
    <glyph glyph-name="Dcaron" unicode="&#x10e;" horiz-adv-x="1605" 
d="M1096 715q0 135 -13 242t-34 180t-55 125t-68.5 81.5t-83 46t-89 21t-96.5 4.5h-90v-1388h90q56 0 94.5 3.5t88.5 19t83.5 42.5t68.5 78t56 122.5t34.5 179t13.5 243.5zM1532 715q0 -125 -27.5 -228t-74 -175.5t-114.5 -128.5t-142.5 -90t-165 -55.5t-174 -29.5
t-177.5 -8h-573v27q64 0 100.5 72.5t36.5 181.5v878q0 103 -36.5 179.5t-100.5 76.5v27h573q93 0 177.5 -8.5t174 -31t164.5 -57.5t143 -92t114.5 -131t74 -178t27.5 -229zM399 1888h80l248 -162l248 162h80l-328 -389z" />
    <glyph glyph-name="dcaron" unicode="&#x10f;" horiz-adv-x="1587" 
d="M1298 1442h224q0 -59 -16.5 -115t-43 -98.5t-58.5 -80t-63.5 -63.5t-58 -44.5t-42.5 -27.5l-17 -9l-23 28q4 3 10.5 10.5t23.5 39.5t30 73.5t23.5 118t10.5 168.5zM1253 57v-26l-346 -47q-25 -4 -39.5 5t-15.5 20l-2 11v154q-23 -63 -79.5 -108t-120.5 -64.5t-128 -19.5
q-199 0 -320.5 129t-121.5 366q0 122 38.5 216.5t107.5 153t161 88.5t203 30q162 0 260 -76v405q0 54 -21 79t-84 48v25l404 82v-1338q0 -74 20.5 -99.5t83.5 -33.5zM850 270v351q0 157 -63.5 237t-155.5 80q-66 0 -107.5 -37.5t-65.5 -133.5t-24 -257q0 -225 50 -326.5
t167 -101.5q80 0 135.5 54.5t63.5 133.5z" />
    <glyph glyph-name="Dcroat" unicode="&#x110;" horiz-adv-x="1636" 
d="M1098 715q0 135 -13 242t-34 180t-55 125t-68.5 81.5t-83 46t-89 21t-96.5 4.5h-90v-680h285v-26h-285v-682h90q56 0 94.5 3.5t88.5 19t83.5 42.5t68.5 78t56 122.5t34.5 179t13.5 243.5zM1534 715q0 -125 -27.5 -228t-74 -175.5t-114.5 -128.5t-142.5 -90t-165 -55.5
t-174 -29.5t-177.5 -8h-573v27q64 0 100.5 72.5t36.5 181.5v428h-160v26h160v424q0 103 -36.5 179.5t-100.5 76.5v27h573q93 0 177.5 -8.5t174 -31t164.5 -57.5t143 -92t114.5 -131t74 -178t27.5 -229z" />
    <glyph glyph-name="dcroat" unicode="&#x111;" horiz-adv-x="1320" 
d="M850 270v351q0 157 -63.5 237t-155.5 80q-66 0 -107.5 -37.5t-65.5 -133.5t-24 -257q0 -225 50 -326.5t167 -101.5q80 0 135.5 54.5t63.5 133.5zM664 1167v27h186v100q0 54 -21 79t-84 48v25l404 82v-334h170v-27h-170v-977q0 -74 20.5 -99.5t83.5 -33.5v-26l-346 -47
q-25 -4 -39.5 5t-15.5 20l-2 11v154q-23 -63 -79.5 -108t-120.5 -64.5t-128 -19.5q-199 0 -320.5 129t-121.5 366q0 122 38.5 216.5t107.5 153t161 88.5t203 30q162 0 260 -76v278h-186z" />
    <glyph glyph-name="Eogonek" unicode="&#x118;" 
d="M1204 424h27v-424h-90q-82 -44 -116 -98t-21 -107q10 -37 37.5 -55t50.5 -17l22 1q64 14 64 57h26q0 -30 -3 -51.5t-14.5 -48.5t-38.5 -45t-69 -25q-57 -8 -97.5 -1t-65.5 25t-38.5 36t-18.5 32l-5 14q-50 185 180 283h-979v27q61 0 90 70.5t29 183.5v878
q0 69 -10.5 123.5t-38 93.5t-70.5 39v27h1149v-406h-26q-5 77 -40 139.5t-86.5 101t-113 67t-121.5 41.5t-109.5 20.5t-80.5 8.5l-31 1h-74v-674h121q6 0 15.5 0.5t37 4.5t53.5 11.5t58 24.5t56.5 40.5t43 61.5t23.5 85h26v-482h-26q-6 64 -38 111t-73 68.5t-81 33.5t-68 14
l-27 1h-121v-688h74h19.5t51.5 3t77.5 8.5t90.5 19t98 32t94 49.5t83.5 69.5t61 94t32.5 121.5z" />
    <glyph glyph-name="eogonek" unicode="&#x119;" horiz-adv-x="1085" 
d="M485 -213q10 -37 38 -55t51 -18l22 1q13 3 25 8t25 18.5t13 31.5h27q0 -30 -3 -51.5t-14.5 -48.5t-38.5 -45t-69 -25q-57 -8 -97.5 -1t-65.5 25t-38.5 36t-18.5 32l-5 14q-47 176 162 275q-182 17 -303 158t-121 327q0 116 40 211.5t109 157t158 94.5t190 33
q100 0 176.5 -25t134.5 -79t88.5 -147t30.5 -222h-604q3 -93 22 -162t53 -112.5t75.5 -68t95.5 -36.5q87 -20 179 23t124 138l27 -10q-11 -47 -38 -91t-70 -83.5t-109.5 -67.5t-145.5 -36q-76 -44 -106.5 -96t-18.5 -103zM397 518h332q0 196 -41 308t-117 112
q-52 0 -93 -64.5t-61 -159.5t-20 -196z" />
    <glyph glyph-name="Ecaron" unicode="&#x11a;" 
d="M1204 424h27v-424h-1176v27q61 0 90 70.5t29 183.5v878q0 69 -10.5 123.5t-38 93.5t-70.5 39v27h1149v-406h-26q-5 77 -40 139.5t-86.5 101t-113 67t-121.5 41.5t-109.5 20.5t-80.5 8.5l-31 1h-74v-674h121q6 0 15.5 0.5t37 4.5t53.5 11.5t58 24.5t56.5 40.5t43 61.5
t23.5 85h26v-482h-26q-6 64 -38 111t-73 68.5t-81 33.5t-68 14l-27 1h-121v-688h74h19.5t51.5 3t77.5 8.5t90.5 19t98 32t94 49.5t83.5 69.5t61 94t32.5 121.5zM393 1888h80l248 -162l248 162h80l-328 -389z" />
    <glyph glyph-name="ecaron" unicode="&#x11b;" horiz-adv-x="1085" 
d="M397 518h332q0 196 -41 308t-117 112q-52 0 -93 -64.5t-61 -159.5t-20 -196zM1001 492h-604q3 -93 22 -162t53 -112.5t75.5 -68t95.5 -36.5q87 -20 179 23t124 138l27 -10q-11 -51 -42.5 -99t-82.5 -90t-130.5 -67.5t-174.5 -25.5q-131 0 -239.5 68t-169 179.5
t-60.5 239.5q0 116 40 211.5t109 157t158 94.5t190 33q100 0 176.5 -25t134.5 -79t88.5 -147t30.5 -222zM258 1442h80l248 -162l248 162h79l-327 -389z" />
    <glyph glyph-name="dotlessi" unicode="&#x131;" horiz-adv-x="620" 
d="M545 25v-25h-467v25q53 17 67.5 68t14.5 147v477q0 54 -22 81.5t-85 55.5v27l408 84v-725q0 -97 16.5 -149t67.5 -66z" />
    <glyph glyph-name="Lacute" unicode="&#x139;" 
d="M1192 444h27v-444h-1125v27q64 0 89.5 46.5t25.5 153.5v1039q0 89 -30 119t-101 30v27h631v-27q-37 0 -61 -5t-45.5 -21.5t-31.5 -50.5t-10 -87v-1224h37q27 0 59.5 2t90 11.5t110.5 26t112.5 48t104 74t77.5 108.5t40 147zM293 1505l401 334l281 -88l-561 -246h-121z
" />
    <glyph glyph-name="lacute" unicode="&#x13a;" horiz-adv-x="589" 
d="M535 25v-25h-467v25q53 16 67.5 66.5t14.5 148.5v1048q0 54 -22 82t-85 51v25l408 82v-1288q0 -97 16.5 -149t67.5 -66zM20 1565l402 333l280 -88l-561 -245h-121z" />
    <glyph glyph-name="Lcaron" unicode="&#x13d;" 
d="M778 1442h223q0 -81 -31 -156t-74.5 -124t-87.5 -86.5t-75 -54.5l-31 -17l-20 28q4 3 10.5 10.5t23 39.5t29 73.5t23 118t10.5 168.5zM1192 444h27v-444h-1125v27q64 0 89.5 46.5t25.5 153.5v1039q0 89 -30 119t-101 30v27h631v-27q-37 0 -61 -5t-45.5 -21.5t-31.5 -50.5
t-10 -87v-1224h37q27 0 59.5 2t90 11.5t110.5 26t112.5 48t104 74t77.5 108.5t40 147z" />
    <glyph glyph-name="lcaron" unicode="&#x13e;" horiz-adv-x="933" 
d="M614 1442h226q0 -59 -16.5 -115t-43 -98.5t-58.5 -80t-64.5 -63.5t-59 -44.5t-42.5 -27.5l-17 -9l-21 28q4 3 10.5 10.5t23 39.5t29 73.5t23 118t10.5 168.5zM535 25v-25h-467v25q23 7 38.5 22t23.5 32t12 47.5t4.5 52t0.5 61.5v1048q0 54 -21.5 82t-82.5 51v25l408 82
v-1288q0 -97 16.5 -149t67.5 -66z" />
    <glyph glyph-name="Lslash" unicode="&#x141;" 
d="M1194 444h27v-444h-1127v27q64 0 89.5 51t25.5 160v333l-264 -145v33l264 145v662q0 89 -30 119t-101 30v27h633v-27q-39 0 -62 -5t-45 -20.5t-31.5 -49.5t-9.5 -89v-454l350 192v-33l-350 -192v-737h37q133 0 247.5 38.5t188.5 99t116 134t42 145.5z" />
    <glyph glyph-name="lslash" unicode="&#x142;" horiz-adv-x="718" 
d="M14 559v33l193 113v583q0 54 -22 82t-83 51v25l408 82v-647l178 106v-33l-178 -106v-608q0 -97 16 -149t66 -66v-25h-465v25q28 8 45 26.5t24.5 51.5t9 60t1.5 77v432z" />
    <glyph glyph-name="Nacute" unicode="&#x143;" horiz-adv-x="1720" 
d="M1376 0h-168l-833 1112v-620q0 -28 1 -52.5t7 -75t16.5 -91t32.5 -88.5t52 -81t78 -55t108 -22v-27h-637v27q61 0 111 22t81.5 55.5t56 80t36.5 89.5t19.5 90.5t9 75.5t1.5 52v651l-88 119q-23 29 -45.5 52.5t-39.5 39t-36.5 27t-31 17.5t-29 9.5t-24.5 4.5t-24 2t-20 1
v27h578l762 -1012v522q0 37 -5 85t-23.5 118t-47.5 125.5t-84 95.5t-127 39v27h620v-27q-58 0 -106 -20.5t-79 -53.5t-54.5 -78.5t-36 -88t-20 -89.5t-9.5 -77t-2 -56v-952zM559 1505l402 334l280 -88l-561 -246h-121z" />
    <glyph glyph-name="nacute" unicode="&#x144;" horiz-adv-x="1157" 
d="M1112 25v-25h-467v25q53 16 67.5 68t14.5 149v403q0 82 -39.5 127t-114.5 45q-47 0 -91.5 -38.5t-55.5 -86.5v-454q0 -97 16.5 -148t67.5 -65v-25h-467v25q28 8 45 26.5t24.5 51.5t9 59.5t1.5 75.5v481q0 54 -21 80.5t-84 54.5v27l408 84v-209q37 88 125.5 148.5
t179.5 60.5q65 0 115.5 -14.5t93 -48.5t65.5 -97t23 -152v-411q0 -98 16.5 -151.5t67.5 -65.5zM352 1108l402 334l280 -88l-561 -246h-121z" />
    <glyph glyph-name="Ncaron" unicode="&#x147;" horiz-adv-x="1720" 
d="M1376 0h-168l-833 1112v-620q0 -28 1 -52.5t7 -75t16.5 -91t32.5 -88.5t52 -81t78 -55t108 -22v-27h-637v27q61 0 111 22t81.5 55.5t56 80t36.5 89.5t19.5 90.5t9 75.5t1.5 52v651l-88 119q-23 29 -45.5 52.5t-39.5 39t-36.5 27t-31 17.5t-29 9.5t-24.5 4.5t-24 2t-20 1
v27h578l762 -1012v522q0 37 -5 85t-23.5 118t-47.5 125.5t-84 95.5t-127 39v27h620v-27q-58 0 -106 -20.5t-79 -53.5t-54.5 -78.5t-36 -88t-20 -89.5t-9.5 -77t-2 -56v-952zM518 1888h80l248 -162l248 162h80l-328 -389z" />
    <glyph glyph-name="ncaron" unicode="&#x148;" horiz-adv-x="1157" 
d="M1112 25v-25h-467v25q53 16 67.5 68t14.5 149v403q0 82 -39.5 127t-114.5 45q-47 0 -91.5 -38.5t-55.5 -86.5v-454q0 -97 16.5 -148t67.5 -65v-25h-467v25q28 8 45 26.5t24.5 51.5t9 59.5t1.5 75.5v481q0 54 -21 80.5t-84 54.5v27l408 84v-209q37 88 125.5 148.5
t179.5 60.5q65 0 115.5 -14.5t93 -48.5t65.5 -97t23 -152v-411q0 -98 16.5 -151.5t67.5 -65.5zM319 1442h80l248 -162l248 162h80l-328 -389z" />
    <glyph glyph-name="Ohungarumlaut" unicode="&#x150;" horiz-adv-x="1615" 
d="M1112 711q0 174 -8.5 291.5t-27.5 204.5t-54.5 135t-86 70t-124.5 22q-75 0 -125.5 -22t-87 -70t-56 -135t-28 -204.5t-8.5 -291.5q0 -175 8.5 -290.5t28 -199.5t56 -128.5t86.5 -64.5t126 -20q62 0 106.5 12.5t79 45t56 82.5t35 131t19 184t5.5 248zM1538 711
q0 -153 -51 -286t-143 -231.5t-230 -155t-303 -56.5t-303 56.5t-230 155t-143 231.5t-51 286q0 152 51 288t143 238.5t230 162.5t303 60t303 -60t230 -162.5t143 -238.5t51 -288zM883 1505l403 334l281 -86l-563 -248h-121zM401 1505l404 334l280 -86l-561 -248h-123z" />
    <glyph glyph-name="ohungarumlaut" unicode="&#x151;" horiz-adv-x="1165" 
d="M741 473q0 99 -2 164t-8 121t-16 87.5t-27 54t-40 30.5t-56 8q-40 0 -65.5 -13.5t-43 -42t-26 -86.5t-12 -131.5t-3.5 -191.5t3.5 -191.5t12 -131.5t26 -86.5t43 -42t65.5 -13.5q33 0 56 8t40 30.5t27 54t16 87.5t8 121t2 164zM1100 473q0 -102 -32 -190t-94 -155.5
t-160 -106.5t-222 -39q-123 0 -221.5 39t-160 106.5t-94 155.5t-32.5 190q0 103 32.5 191t94.5 156t160 106.5t221 38.5q124 0 222 -38.5t160 -106.5t94 -156t32 -191zM639 1108l403 334l281 -86l-563 -248h-121zM158 1108l403 334l281 -86l-561 -248h-123z" />
    <glyph glyph-name="OE" unicode="&#x152;" horiz-adv-x="2127" 
d="M1004 1133q0 93 -15.5 154t-48 92.5t-71 43t-95.5 11.5q-65 0 -109 -22t-75 -70t-48 -135t-24.5 -204.5t-7.5 -291.5q0 -288 23 -435.5t78 -207.5t163 -60q45 0 76 5.5t61.5 23t49 49t29.5 84.5t11 127q0 28 1.5 419.5t1.5 416.5zM1978 424h27v-424h-1085
q-99 -18 -146 -18q-165 0 -297 56.5t-216 155.5t-128.5 231t-44.5 286q0 123 27.5 234t84.5 205t137.5 163t192.5 108t244 39q58 0 141 -18h1063v-406h-26q-7 79 -39.5 142t-78.5 101.5t-100.5 67t-107 41t-96 19.5t-70.5 7l-26 1h-74v-674h98h14t32 4.5t46 12t49 24.5
t48.5 40t36.5 61t20 86h27v-482h-27q-4 48 -20 86t-36.5 61t-48.5 40t-49 24.5t-46 12t-32 4.5h-14h-98v-688h74h17.5t46.5 3t69 8.5t81 19t87.5 32t83.5 49.5t75 69.5t55 94t29 121.5z" />
    <glyph glyph-name="oe" unicode="&#x153;" horiz-adv-x="1636" 
d="M1028 516h262q0 208 -27.5 315t-97.5 107q-40 0 -68 -37t-42.5 -101.5t-20.5 -133.5t-6 -150zM1501 276l29 -10q-68 -284 -373 -284q-147 0 -276 104q-119 -104 -310 -104q-123 0 -218 38.5t-153 106t-87 154.5t-29 190q0 104 29 191.5t87 156t153 107.5t218 39
q182 0 312 -111q140 111 278 111q194 0 292.5 -110.5t98.5 -365.5h-524q3 -188 50.5 -270t154.5 -106q81 -19 157 26.5t111 136.5zM571 938q-23 0 -40 -4t-31 -17t-23 -28t-16 -46t-10.5 -61t-5.5 -82.5t-2.5 -101.5t-0.5 -127q0 -295 20.5 -379t108.5 -84q23 0 40 4
t31 16.5t23 27.5t16 45t10.5 60t5.5 82t2.5 101t0.5 127q0 102 -1.5 164.5t-6 120.5t-13 88.5t-23 54t-35 31.5t-50.5 8z" />
    <glyph glyph-name="Racute" unicode="&#x154;" horiz-adv-x="1548" 
d="M920 1051q0 78 -7.5 135t-17 96.5t-34 65t-42.5 39t-59.5 20t-68 7.5t-84.5 1h-5h-5h-5h-64v-727h64q141 0 189 13q77 21 108 99q31 80 31 251zM1534 27v-27h-297q-177 0 -224 61t-111 342q-3 12 -4.5 19t-4 17.5t-4.5 19.5q-13 59 -45 101t-68.5 61t-71 29.5t-56.5 11.5
h-23h-97v-422q0 -123 28 -168t95 -45v-27h-604v27q47 0 73 16.5t40 63.5t14 133v993q0 96 -30 139t-97 43v27h545q112 0 197 -5.5t173.5 -20t151 -42t113 -70t75.5 -106t25 -147.5q0 -343 -440 -371q59 2 106 -7t95 -36.5t86 -75t74 -126.5t65 -187q14 -55 43.5 -99t63 -69
t63 -38t51.5 -15zM408 1505l401 334l281 -88l-562 -246h-120z" />
    <glyph glyph-name="racute" unicode="&#x155;" horiz-adv-x="948" 
d="M887 680q-47 -54 -117.5 -59.5t-124.5 41.5q-57 48 -57 112q0 16 -27 7q-55 -18 -116 -108q-6 -8 -11 -16v-417q0 -97 16.5 -149t67.5 -66v-25h-469v25q29 9 46.5 28t24.5 52t9 59.5t2 75.5v477q0 54 -21.5 81.5t-84.5 55.5v27l409 84v-260q36 56 71 98.5t56.5 65t51 42
t39 24.5t36.5 17q41 19 93 10.5t89 -40.5q54 -45 58.5 -117.5t-41.5 -124.5zM223 1108l402 334l280 -88l-561 -246h-121z" />
    <glyph glyph-name="Rcaron" unicode="&#x158;" horiz-adv-x="1548" 
d="M920 1051q0 78 -7.5 135t-17 96.5t-34 65t-42.5 39t-59.5 20t-68 7.5t-84.5 1h-5h-5h-5h-64v-727h64q141 0 189 13q77 21 108 99q31 80 31 251zM1534 27v-27h-297q-177 0 -224 61t-111 342q-3 12 -4.5 19t-4 17.5t-4.5 19.5q-13 59 -45 101t-68.5 61t-71 29.5t-56.5 11.5
h-23h-97v-422q0 -123 28 -168t95 -45v-27h-604v27q47 0 73 16.5t40 63.5t14 133v993q0 96 -30 139t-97 43v27h545q112 0 197 -5.5t173.5 -20t151 -42t113 -70t75.5 -106t25 -147.5q0 -343 -440 -371q59 2 106 -7t95 -36.5t86 -75t74 -126.5t65 -187q14 -55 43.5 -99t63 -69
t63 -38t51.5 -15zM369 1888h80l247 -162l248 162h80l-328 -389z" />
    <glyph glyph-name="rcaron" unicode="&#x159;" horiz-adv-x="948" 
d="M887 680q-47 -54 -117.5 -59.5t-124.5 41.5q-57 48 -57 112q0 16 -27 7q-55 -18 -116 -108q-6 -8 -11 -16v-417q0 -97 16.5 -149t67.5 -66v-25h-469v25q29 9 46.5 28t24.5 52t9 59.5t2 75.5v477q0 54 -21.5 81.5t-84.5 55.5v27l409 84v-260q36 56 71 98.5t56.5 65t51 42
t39 24.5t36.5 17q41 19 93 10.5t89 -40.5q54 -45 58.5 -117.5t-41.5 -124.5zM115 1444h80l247 -162l248 162h80l-328 -389z" />
    <glyph glyph-name="Sacute" unicode="&#x15a;" horiz-adv-x="1269" 
d="M1090 150q-2 -4 -6.5 -10t-22.5 -23.5t-39.5 -33t-59 -35t-81 -33.5t-106 -23.5t-132.5 -9.5q-111 0 -209 11.5t-158.5 28.5t-105.5 34t-64 28l-18 12v393h27q15 -49 37 -101.5t67.5 -123.5t101 -125t140.5 -92.5t182 -38.5q53 0 95.5 22t67 58.5t31 85t-6.5 99.5
t-51.5 104.5t-98.5 97.5l-315 199q-222 139 -278.5 301t69.5 330q4 6 13.5 16.5t45.5 37.5t81 47t124.5 37t171.5 17q98 0 186 -10t144 -24t98 -28t60 -24l18 -10v-344h-27q-134 414 -479 414q-65 0 -113.5 -28t-68 -75t-14.5 -102t48.5 -116.5t120.5 -111.5l316 -208
q206 -136 263.5 -305t-54.5 -338zM340 1505l401 334l281 -88l-561 -246h-121z" />
    <glyph glyph-name="sacute" unicode="&#x15b;" horiz-adv-x="917" 
d="M766 92q-3 -4 -9.5 -11.5t-32 -26.5t-57 -33.5t-86 -26.5t-116.5 -12q-69 0 -133 8.5t-105 20t-72 23.5t-45 20l-14 9v263h27q15 -54 43.5 -107t70 -102t101.5 -79t127 -30q53 0 85.5 29.5t37 71.5t-22 91.5t-82.5 86.5l-207 125q-147 94 -183 219.5t54 232.5q3 4 9.5 11
t31.5 24.5t55.5 30.5t84 24t114.5 11q105 0 189 -15t115 -30l32 -15v-219h-26q-25 103 -108.5 177.5t-201.5 74.5q-39 0 -69.5 -15.5t-44 -43t-11 -60t31 -70t79.5 -69.5l207 -129q90 -55 139 -136.5t46.5 -167t-54.5 -155.5zM186 1108l402 334l280 -88l-561 -246h-121z" />
    <glyph glyph-name="Scedilla" unicode="&#x15e;" horiz-adv-x="1269" 
d="M1090 150q-2 -4 -6.5 -10t-22.5 -23.5t-39.5 -33t-59 -35t-81 -33.5t-106 -23.5t-132.5 -9.5h-41l-39 -111q132 30 204 -27t62 -149q-6 -49 -29.5 -83t-58.5 -50.5t-68 -23.5t-67 -7q-94 0 -143 43q-14 11 -21.5 31t-3.5 39q4 28 29.5 42.5t54.5 6.5q28 -6 43.5 -29
t9.5 -51q-5 -27 -26 -37q-9 -4 4 -12q14 -8 47 -8q44 0 68 30t24 72q0 17 -8.5 39.5t-27 48.5t-58.5 39t-94 4l71 193q-97 3 -182.5 16t-139 29.5t-93 32t-56.5 26.5l-16 10v393h27q15 -49 37 -101.5t67.5 -123.5t101 -125t140.5 -92.5t182 -38.5q53 0 95.5 22t67 58.5
t31 85t-6.5 99.5t-51.5 104.5t-98.5 97.5l-315 199q-222 139 -278.5 301t69.5 330q4 6 13.5 16.5t45.5 37.5t81 47t124.5 37t171.5 17q98 0 186 -10t144 -24t98 -28t60 -24l18 -10v-344h-27q-134 414 -479 414q-65 0 -113.5 -28t-68 -75t-14.5 -102t48.5 -116.5
t120.5 -111.5l316 -208q206 -136 263.5 -305t-54.5 -338z" />
    <glyph glyph-name="scedilla" unicode="&#x15f;" horiz-adv-x="917" 
d="M766 92q-3 -4 -9.5 -11.5t-32 -26.5t-57 -33.5t-86 -26.5t-116.5 -12h-45l-39 -111q132 30 204 -27t62 -149q-6 -49 -29.5 -83t-58.5 -50.5t-68 -23.5t-67 -7q-94 0 -143 43q-14 11 -21.5 31t-3.5 39q4 28 29.5 42.5t54.5 6.5q28 -6 43.5 -29t9.5 -51q-5 -27 -26 -37
q-9 -4 4 -12q15 -8 47 -8q44 0 68 30t24 72q0 17 -8.5 39.5t-27 48.5t-58.5 39t-94 4l71 195q-88 6 -162.5 26t-104.5 36l-30 17v263h27q15 -54 43.5 -107t70 -102t101.5 -79t127 -30q53 0 85.5 29.5t37 71.5t-22 91.5t-82.5 86.5l-207 125q-147 94 -183 219.5t54 232.5
q3 4 9.5 11t31.5 24.5t55.5 30.5t84 24t114.5 11q105 0 189 -15t115 -30l32 -15v-219h-26q-25 103 -108.5 177.5t-201.5 74.5q-39 0 -69.5 -15.5t-44 -43t-11 -60t31 -70t79.5 -69.5l207 -129q90 -55 139 -136.5t46.5 -167t-54.5 -155.5z" />
    <glyph glyph-name="Scaron" unicode="&#x160;" horiz-adv-x="1269" 
d="M1090 150q-2 -4 -6.5 -10t-22.5 -23.5t-39.5 -33t-59 -35t-81 -33.5t-106 -23.5t-132.5 -9.5q-111 0 -209 11.5t-158.5 28.5t-105.5 34t-64 28l-18 12v393h27q15 -49 37 -101.5t67.5 -123.5t101 -125t140.5 -92.5t182 -38.5q53 0 95.5 22t67 58.5t31 85t-6.5 99.5
t-51.5 104.5t-98.5 97.5l-315 199q-222 139 -278.5 301t69.5 330q4 6 13.5 16.5t45.5 37.5t81 47t124.5 37t171.5 17q98 0 186 -10t144 -24t98 -28t60 -24l18 -10v-344h-27q-134 414 -479 414q-65 0 -113.5 -28t-68 -75t-14.5 -102t48.5 -116.5t120.5 -111.5l316 -208
q206 -136 263.5 -305t-54.5 -338zM305 1888h80l248 -162l248 162h80l-328 -389z" />
    <glyph glyph-name="scaron" unicode="&#x161;" horiz-adv-x="917" 
d="M766 92q-3 -4 -9.5 -11.5t-32 -26.5t-57 -33.5t-86 -26.5t-116.5 -12q-69 0 -133 8.5t-105 20t-72 23.5t-45 20l-14 9v263h27q15 -54 43.5 -107t70 -102t101.5 -79t127 -30q53 0 85.5 29.5t37 71.5t-22 91.5t-82.5 86.5l-207 125q-147 94 -183 219.5t54 232.5q3 4 9.5 11
t31.5 24.5t55.5 30.5t84 24t114.5 11q105 0 189 -15t115 -30l32 -15v-219h-26q-25 103 -108.5 177.5t-201.5 74.5q-39 0 -69.5 -15.5t-44 -43t-11 -60t31 -70t79.5 -69.5l207 -129q90 -55 139 -136.5t46.5 -167t-54.5 -155.5zM139 1397h80l248 -162l248 162h80l-328 -389z
" />
    <glyph glyph-name="uni0162" unicode="&#x162;" horiz-adv-x="1488" 
d="M39 1442h1407v-436h-27q-3 72 -33 134.5t-75 105.5t-98 77t-105.5 53t-92.5 29t-63 10h-30v-1175q0 -103 34.5 -158t98.5 -55v-27h-320l-41 -119q132 30 204.5 -27.5t62.5 -148.5q-6 -48 -30 -82.5t-59 -51t-67.5 -23.5t-67.5 -7q-94 0 -143 43q-14 11 -21.5 31t-3.5 39
q4 28 29.5 42.5t54.5 6.5q28 -6 44 -29.5t10 -50.5q-5 -26 -27 -37q-9 -4 4 -12q14 -8 47 -8q44 0 68 30t24 72q0 17 -8.5 39.5t-27 48.5t-58.5 39t-94 4l74 201h-279v27q64 0 98.5 55t34.5 158v1175h-31q-30 0 -80.5 -13t-117 -45t-124 -76.5t-99.5 -117t-45 -157.5h-27
v436z" />
    <glyph glyph-name="uni0163" unicode="&#x163;" horiz-adv-x="768" 
d="M608 131q78 0 131 62l13 -9q-26 -79 -115.5 -140.5t-190.5 -61.5q-42 0 -86 6l-41 -111q136 30 208.5 -27t60.5 -149q-6 -48 -29.5 -82t-59 -49t-67.5 -21t-67 -6q-96 0 -144 37q-30 26 -24 68q7 28 31.5 42.5t52.5 8.5q29 -6 44 -30t9 -52q-8 -32 -33 -41q-9 -4 1 -14
q15 -14 52 -13q50 0 74.5 34t22.5 79q0 13 -4.5 30t-17.5 39.5t-32.5 39t-54 24.5t-78.5 0l74 199q-195 47 -195 301v616h-114l-4 35h118v275l301 43v-318h254l-4 -35h-250v-610q0 -88 38 -129t126 -41z" />
    <glyph glyph-name="Tcaron" unicode="&#x164;" horiz-adv-x="1488" 
d="M39 1442h1407v-436h-27q-3 72 -33 134.5t-75 105.5t-98 77t-105.5 53t-92.5 29t-63 10h-30v-1175q0 -103 34.5 -158t98.5 -55v-27h-625v27q64 0 98.5 55t34.5 158v1175h-31q-30 0 -80.5 -13t-117 -45t-124 -76.5t-99.5 -117t-45 -157.5h-27v436zM426 1888h80l248 -162
l247 162h80l-327 -389z" />
    <glyph glyph-name="tcaron" unicode="&#x165;" horiz-adv-x="864" 
d="M592 1442h223q0 -81 -31 -156t-74.5 -124t-87.5 -86.5t-75 -54.5l-31 -17l-20 28q4 3 10.5 10.5t23 39.5t29 73.5t23 118t10.5 168.5zM723 195l22 -13q-26 -80 -111 -140t-188 -60q-303 0 -303 313v625h-114l-4 26h118v275l301 43v-318h254l-4 -26h-250v-619
q0 -88 37 -130t119 -42q40 0 72.5 20t50.5 46z" />
    <glyph glyph-name="Uring" unicode="&#x16e;" horiz-adv-x="1556" 
d="M707 -18q-106 0 -200.5 32t-168.5 92.5t-117 158t-43 218.5v752q0 95 -28 137.5t-95 42.5v27h619v-27q-71 0 -104 -38t-33 -142v-766q0 -177 91 -271t242 -94q143 0 238.5 100.5t95.5 264.5v571q0 27 -3 57.5t-11.5 76.5t-27.5 85.5t-46.5 76t-73 58t-102.5 21.5v27h578
l2 -27q-55 0 -100.5 -16.5t-75 -42.5t-51.5 -62.5t-33.5 -70.5t-18.5 -72.5t-8.5 -63t-1.5 -47.5v-571q0 -102 -29 -185t-77.5 -138.5t-116.5 -93t-143 -54t-158 -16.5zM723 1802q0 -40 27 -68t67 -28q41 0 68.5 28t27.5 68q0 41 -27.5 68.5t-68.5 27.5q-40 0 -67 -27.5
t-27 -68.5zM1022 1802q0 -83 -60 -141.5t-145 -58.5q-84 0 -143.5 58.5t-59.5 141.5q0 84 59.5 142.5t143.5 58.5q85 0 145 -58.5t60 -142.5z" />
    <glyph glyph-name="uring" unicode="&#x16f;" horiz-adv-x="1202" 
d="M1167 61v-24l-348 -53q-24 -4 -38.5 6t-16.5 22l-2 11v174q-25 -87 -116.5 -151t-201.5 -64q-65 0 -115 15t-92 49t-64.5 97t-22.5 152v446q0 89 -8 109q-11 30 -60 41q-18 4 -47 8v25l418 41v-664q0 -88 35 -129t118 -41q46 0 89.5 31.5t66.5 91.5v481q0 95 -5 114
q-9 32 -50 43q-16 4 -41 7v25l397 41v-781q0 -72 19 -93.5t85 -29.5zM537 1260q0 -40 27.5 -68.5t66.5 -28.5q41 0 68.5 28.5t27.5 68.5q0 41 -27.5 68.5t-68.5 27.5q-40 0 -67 -27.5t-27 -68.5zM836 1260q0 -83 -60 -142t-145 -59q-83 0 -143 59t-60 142q0 84 59.5 142
t143.5 58q85 0 145 -58t60 -142z" />
    <glyph glyph-name="Uhungarumlaut" unicode="&#x170;" horiz-adv-x="1556" 
d="M707 -18q-106 0 -200.5 32t-168.5 92.5t-117 158t-43 218.5v752q0 95 -28 137.5t-95 42.5v27h619v-27q-71 0 -104 -38t-33 -142v-766q0 -177 91 -271t242 -94q143 0 238.5 100.5t95.5 264.5v571q0 27 -3 57.5t-11.5 76.5t-27.5 85.5t-46.5 76t-73 58t-102.5 21.5v27h578
l2 -27q-55 0 -100.5 -16.5t-75 -42.5t-51.5 -62.5t-33.5 -70.5t-18.5 -72.5t-8.5 -63t-1.5 -47.5v-571q0 -102 -29 -185t-77.5 -138.5t-116.5 -93t-143 -54t-158 -16.5zM909 1505l404 334l280 -86l-563 -248h-121zM428 1505l403 334l281 -86l-561 -248h-123z" />
    <glyph glyph-name="uhungarumlaut" unicode="&#x171;" horiz-adv-x="1202" 
d="M1167 61v-24l-348 -53q-24 -4 -38.5 6t-16.5 22l-2 11v174q-25 -87 -116.5 -151t-201.5 -64q-65 0 -115 15t-92 49t-64.5 97t-22.5 152v446q0 89 -8 109q-11 30 -60 41q-18 4 -47 8v25l418 41v-664q0 -88 35 -129t118 -41q46 0 89.5 31.5t66.5 91.5v481q0 95 -5 114
q-9 32 -50 43q-16 4 -41 7v25l397 41v-781q0 -72 19 -93.5t85 -29.5zM643 1108l404 334l280 -86l-563 -248h-121zM162 1108l403 334l281 -86l-561 -248h-123z" />
    <glyph glyph-name="Ydieresis" unicode="&#x178;" horiz-adv-x="1613" 
d="M870 1706q0 54 39.5 92.5t94.5 38.5q54 0 92.5 -38.5t38.5 -92.5q0 -55 -38.5 -94t-92.5 -39q-56 0 -95 39t-39 94zM979 1442h604v-27q-31 0 -64 -9t-80.5 -38t-94.5 -75t-104 -127t-110 -187l-151 -309v-430q0 -213 123 -213v-27h-598v27q125 0 125 213v325
q-134 236 -234 408.5t-133 226.5l-33 55q-26 45 -49.5 76.5t-40 47.5t-36 25t-31 10.5t-31.5 2.5v25h635v-25h-2q-25 0 -38 -1.5t-28.5 -13.5t-14 -35t19.5 -69.5t57 -113.5l295 -490q118 244 147 307q10 20 22.5 62.5t19 104.5t-2.5 116t-52 92.5t-120 38.5v27zM485 1706
q0 54 39 92.5t94 38.5q54 0 93 -38.5t39 -92.5q0 -55 -39 -94t-93 -39q-56 0 -94.5 38.5t-38.5 94.5z" />
    <glyph glyph-name="Zacute" unicode="&#x179;" horiz-adv-x="1300" 
d="M1255 1442l-743 -1415h59q256 0 427.5 129.5t205.5 320.5h27l-41 -477h-1145l799 1415h-96q-234 0 -406.5 -109t-210.5 -278h-29l33 414h1120zM424 1505l401 334l281 -88l-561 -246h-121z" />
    <glyph glyph-name="zacute" unicode="&#x17a;" horiz-adv-x="1007" 
d="M946 946l-497 -919q87 0 159.5 22.5t116 53t78 74t49 73t25.5 61.5h26l-18 -311h-826l531 920q-358 0 -443 -244h-26l10 270h815zM240 1108l401 334l281 -88l-562 -246h-120z" />
    <glyph glyph-name="Zdotaccent" unicode="&#x17b;" horiz-adv-x="1300" 
d="M1255 1442l-743 -1415h59q256 0 427.5 129.5t205.5 320.5h27l-41 -477h-1145l799 1415h-96q-234 0 -406.5 -109t-210.5 -278h-29l33 414h1120zM739 1569q-60 0 -102.5 42.5t-42.5 102.5q0 58 42.5 98.5t102.5 40.5q59 0 100.5 -40.5t41.5 -98.5q0 -60 -41.5 -102.5
t-100.5 -42.5z" />
    <glyph glyph-name="zdotaccent" unicode="&#x17c;" horiz-adv-x="1007" 
d="M946 946l-497 -919q87 0 159.5 22.5t116 53t78 74t49 73t25.5 61.5h26l-18 -311h-826l531 920q-358 0 -443 -244h-26l10 270h815zM565 1118q-60 0 -102.5 43t-42.5 103q0 58 42.5 98.5t102.5 40.5q59 0 100.5 -40.5t41.5 -98.5q0 -60 -42 -103t-100 -43z" />
    <glyph glyph-name="Zcaron" unicode="&#x17d;" horiz-adv-x="1300" 
d="M1255 1442l-743 -1415h59q256 0 427.5 129.5t205.5 320.5h27l-41 -477h-1145l799 1415h-96q-234 0 -406.5 -109t-210.5 -278h-29l33 414h1120zM403 1888h80l248 -162l248 162h80l-328 -389z" />
    <glyph glyph-name="zcaron" unicode="&#x17e;" horiz-adv-x="1007" 
d="M178 1397h80l248 -162l248 162h80l-328 -389zM946 946l-497 -919q87 0 159.5 22.5t116 53t78 74t49 73t25.5 61.5h26l-18 -311h-826l531 920q-358 0 -443 -244h-26l10 270h815z" />
    <glyph glyph-name="florin" unicode="&#x192;" horiz-adv-x="1480" 
d="M1393 1251q-25 -49 -77 -67t-99 6q-51 25 -69 77t7 101q26 54 74 66q12 3 9 17q-11 29 -77 30q-40 0 -76.5 -47.5t-60.5 -115.5t-42 -135.5t-26 -114.5l-8 -48l-33 -242h256l-8 -26h-250l-75 -551q-49 -365 -180 -528.5t-357 -161.5q-84 0 -145.5 33.5t-85.5 70.5
q-19 32 -22.5 73t13.5 76q25 51 77 70t102 -6t67 -77t-8 -103q-27 -52 -74 -64q-12 -3 -10 -17q6 -28 70 -32h16q38 0 74 47.5t59.5 115t41.5 134.5t26 114l8 48l96 758h-194l4 26h192q57 361 198 544t355 183q71 0 134.5 -34.5t86.5 -69.5q20 -31 23.5 -73t-12.5 -77z" />
    <glyph glyph-name="uni0218" unicode="&#x218;" horiz-adv-x="1269" 
d="M532 -696l-18 24q53 41 87.5 98.5t35.5 91t-12 42.5q-85 11 -129 53q-57 55 -57.5 135t55.5 137q56 55 135 55t135 -55q41 -41 51 -99t-7 -118t-40 -109t-53 -94q-64 -96 -183 -161zM1090 150q-2 -4 -6.5 -10t-22.5 -23.5t-39.5 -33t-59 -35t-81 -33.5t-106 -23.5
t-132.5 -9.5q-111 0 -209 11.5t-158.5 28.5t-105.5 34t-64 28l-18 12v393h27q15 -49 37 -101.5t67.5 -123.5t101 -125t140.5 -92.5t182 -38.5q53 0 95.5 22t67 58.5t31 85t-6.5 99.5t-51.5 104.5t-98.5 97.5l-315 199q-222 139 -278.5 301t69.5 330q4 6 13.5 16.5t45.5 37.5
t81 47t124.5 37t171.5 17q98 0 186 -10t144 -24t98 -28t60 -24l18 -10v-344h-27q-134 414 -479 414q-65 0 -113.5 -28t-68 -75t-14.5 -102t48.5 -116.5t120.5 -111.5l316 -208q206 -136 263.5 -305t-54.5 -338z" />
    <glyph glyph-name="uni0219" unicode="&#x219;" horiz-adv-x="917" 
d="M356 -696l-18 24q53 41 87.5 98.5t35.5 91t-12 42.5q-86 11 -130 53q-57 55 -57.5 135t55.5 137q55 55 135 55t136 -55q41 -41 51 -99t-7 -118t-40 -109t-53 -94q-64 -96 -183 -161zM766 92q-3 -4 -9.5 -11.5t-32 -26.5t-57 -33.5t-86 -26.5t-116.5 -12q-69 0 -133 8.5
t-105 20t-72 23.5t-45 20l-14 9v263h27q15 -54 43.5 -107t70 -102t101.5 -79t127 -30q53 0 85.5 29.5t37 71.5t-22 91.5t-82.5 86.5l-207 125q-147 94 -183 219.5t54 232.5q3 4 9.5 11t31.5 24.5t55.5 30.5t84 24t114.5 11q105 0 189 -15t115 -30l32 -15v-219h-26
q-25 103 -108.5 177.5t-201.5 74.5q-39 0 -69.5 -15.5t-44 -43t-11 -60t31 -70t79.5 -69.5l207 -129q90 -55 139 -136.5t46.5 -167t-54.5 -155.5z" />
    <glyph glyph-name="uni021A" unicode="&#x21a;" horiz-adv-x="1488" 
d="M647 -696l-18 24q53 41 87.5 98.5t35 91t-12.5 42.5q-85 11 -129 53q-57 55 -57.5 135t55.5 137q56 55 136 55t135 -55q41 -41 51 -99t-7.5 -118t-40.5 -109t-53 -94q-65 -96 -182 -161zM39 1442h1407v-436h-27q-3 72 -33 134.5t-75 105.5t-98 77t-105.5 53t-92.5 29
t-63 10h-30v-1175q0 -103 34.5 -158t98.5 -55v-27h-625v27q64 0 98.5 55t34.5 158v1175h-31q-30 0 -80.5 -13t-117 -45t-124 -76.5t-99.5 -117t-45 -157.5h-27v436z" />
    <glyph glyph-name="uni021B" unicode="&#x21b;" horiz-adv-x="768" 
d="M328 -696l-19 24q53 41 87.5 98.5t35.5 91t-12 42.5q-85 11 -129 53q-57 55 -57.5 135t55.5 137q55 55 135 55t135 -55q41 -41 51 -99t-7 -118t-40 -109t-53 -94q-65 -96 -182 -161zM723 195l22 -13q-26 -80 -111 -140t-188 -60q-303 0 -303 313v625h-114l-4 26h118v275
l301 43v-318h254l-4 -26h-250v-619q0 -88 37 -130t119 -42q40 0 72.5 20t50.5 46z" />
    <glyph glyph-name="circumflex" unicode="&#x2c6;" horiz-adv-x="655" 
d="M655 1087h-77l-250 164l-248 -164h-80l328 392z" />
    <glyph glyph-name="caron" unicode="&#x2c7;" horiz-adv-x="659" 
d="M0 1475h80l248 -162l247 162h80l-327 -390z" />
    <glyph glyph-name="uni02C9" unicode="&#x2c9;" horiz-adv-x="624" 
d="M-51 1362h727v-180h-727v180z" />
    <glyph glyph-name="breve" unicode="&#x2d8;" horiz-adv-x="546" 
d="M530 1442h19q0 -136 -67.5 -221.5t-205.5 -85.5q-141 0 -209.5 85.5t-68.5 221.5h20q0 -63 57.5 -98t200.5 -35q140 0 197 35t57 98z" />
    <glyph glyph-name="dotaccent" unicode="&#x2d9;" horiz-adv-x="593" 
d="M309 1157q-60 0 -102.5 43t-42.5 103q0 58 42.5 98.5t102.5 40.5q59 0 100.5 -40.5t41.5 -98.5q0 -60 -42 -103t-100 -43z" />
    <glyph glyph-name="ring" unicode="&#x2da;" horiz-adv-x="569" 
d="M195 1305q0 -40 27.5 -68.5t66.5 -28.5q41 0 68.5 28.5t27.5 68.5q0 41 -27.5 68.5t-68.5 27.5q-40 0 -67 -27.5t-27 -68.5zM494 1305q0 -83 -60 -142t-145 -59q-83 0 -143 59t-60 142q0 84 59.5 142t143.5 58q85 0 145 -58t60 -142z" />
    <glyph glyph-name="ogonek" unicode="&#x2db;" horiz-adv-x="569" 
d="M369 -244q10 -37 37.5 -55t49.5 -17l23 1q64 14 64 57h26q0 -30 -3 -51.5t-14.5 -48.5t-38.5 -45t-69 -25q-57 -8 -97.5 -1t-65.5 25t-38.5 36t-18.5 32l-5 14q-57 218 287 322v-39q-82 -44 -116 -98t-21 -107z" />
    <glyph glyph-name="tilde" unicode="&#x2dc;" horiz-adv-x="946" 
d="M565 1098l-246 92q-41 16 -105.5 23.5t-136 -10t-95.5 -68.5l-21 6q32 77 72.5 134t79.5 86.5t78.5 47t73 20t59.5 1t40 -5.5l15 -5l244 -92q42 -17 108 -23.5t137.5 12.5t96.5 70l18 -10q-33 -75 -73.5 -131t-79.5 -85t-78.5 -47t-72.5 -21t-59 -2.5t-40 4.5z" />
    <glyph glyph-name="hungarumlaut" unicode="&#x2dd;" 
d="M659 1141l404 334l280 -86l-563 -248h-121zM178 1141l404 334l280 -86l-561 -248h-123z" />
    <glyph glyph-name="uni03A9" unicode="&#x3a9;" horiz-adv-x="1542" 
d="M1456 379h27l-74 -379h-551q3 18 32 116t56.5 203.5t51.5 271t24 320.5q0 147 -12 251t-32 165t-54 95.5t-69 45.5t-85 11t-85 -11t-68.5 -45.5t-53 -95.5t-31.5 -165t-12 -251q0 -155 24 -320.5t51.5 -271t56.5 -203.5t32 -116h-551l-74 379h27q28 -61 86.5 -88
t118.5 -27h276q-13 31 -121 109q-138 101 -220.5 239t-82.5 310q0 269 168 426t459 157t460 -157t169 -426q0 -172 -82.5 -310t-220.5 -239q-110 -81 -121 -109h276q60 0 118.5 27t86.5 88z" />
    <glyph glyph-name="uni03BC" unicode="&#x3bc;" horiz-adv-x="1208" 
d="M1057 965v-783q0 -72 20 -93.5t86 -29.5v-26l-350 -51q-24 -4 -38.5 5.5t-16.5 20.5l-2 12v181q-19 -68 -76 -120t-118.5 -75.5t-115.5 -23.5v-316q0 -74 21 -99.5t86 -31.5v-24l-356 -54q-26 -4 -41 5.5t-17 21.5l-2 12v1241q0 93 -6 112q-11 32 -56 43q-17 4 -44 7v25
l415 41v-666q0 -88 37.5 -129t124.5 -41q43 0 85 37t63 96v473v22v41.5t-1.5 31t-5.5 25t-10.5 16.5t-17.5 14t-26 8t-36 6v25z" />
    <glyph glyph-name="pi" unicode="&#x3c0;" horiz-adv-x="1210" 
d="M1100 135l22 -14q-14 -55 -65.5 -97t-134.5 -42q-57 0 -99 21t-60 50.5t-28.5 59t-10.5 50.5l-1 21v555h-207l-24 -381q-3 -80 -41.5 -155.5t-89 -125.5t-103.5 -88.5t-86.5 -56.5t-36.5 -18l-14 20q90 70 142 194.5t59 242.5l24 368q-47 -2 -77.5 -6t-74.5 -16
t-82 -39.5t-71 -69.5l-27 15q1 7 4 19t15.5 47.5t28 67.5t44 71.5t62 67.5t83.5 48t107 21h551q50 0 81.5 2t64.5 8.5t51.5 18.5t31.5 33t17 52h27q0 -43 -1.5 -74t-6.5 -69t-14 -64.5t-25.5 -53t-39.5 -43t-57 -26.5t-77 -10v-503q0 -39 8 -67.5t19.5 -42t22.5 -21t19 -8.5
l8 -1q21 0 36.5 10t20.5 20z" />
    <glyph glyph-name="uni2010" unicode="&#x2010;" horiz-adv-x="915" 
d="M776 403h-645v232h645v-232z" />
    <glyph glyph-name="endash" unicode="&#x2013;" horiz-adv-x="1148" 
d="M0 606h1149v-180h-1149v180z" />
    <glyph glyph-name="emdash" unicode="&#x2014;" horiz-adv-x="2160" 
d="M0 606h2161v-180h-2161v180z" />
    <glyph glyph-name="quoteleft" unicode="&#x2018;" horiz-adv-x="583" 
d="M408 1499l18 -24q-52 -41 -86.5 -98.5t-36 -91t11.5 -42.5q80 -7 129 -53q57 -56 58 -135.5t-56 -136.5q-56 -56 -134 -56t-134 56q-41 41 -51.5 99t6.5 118.5t40 109t52 92.5q71 99 183 162z" />
    <glyph glyph-name="quoteright" unicode="&#x2019;" horiz-adv-x="591" 
d="M207 864l-19 25q52 41 86.5 98.5t36 90.5t-11.5 42q-79 7 -129 54q-57 56 -58 135.5t56 136.5q56 56 134 56t134 -56q41 -41 51.5 -99t-6.5 -118.5t-40 -109.5t-52 -93q-72 -100 -182 -162z" />
    <glyph glyph-name="quotesinglbase" unicode="&#x201a;" horiz-adv-x="587" 
d="M213 -270l-18 24q52 41 86.5 98.5t35.5 91t-12 42.5q-80 7 -129 53q-57 56 -58 135.5t56 136.5q56 55 134 55t134 -55q41 -41 51.5 -99t-6.5 -118.5t-40 -109.5t-52 -93q-71 -98 -182 -161z" />
    <glyph glyph-name="quotedblleft" unicode="&#x201c;" horiz-adv-x="1128" 
d="M926 1509l18 -24q-52 -41 -86.5 -98.5t-35.5 -91t12 -42.5q80 -7 129 -53q57 -56 58 -135.5t-56 -136.5q-55 -56 -134 -56t-135 56q-41 41 -51.5 99t6.5 118.5t40 109.5t52 93q70 97 183 161zM387 1509l19 -24q-53 -41 -87.5 -98.5t-35.5 -91t12 -42.5q81 -7 129 -53
q57 -55 57.5 -135t-55.5 -137q-56 -56 -135 -56t-135 56q-41 41 -51 99.5t7 118.5t40.5 109.5t52.5 92.5q65 96 182 161z" />
    <glyph glyph-name="quotedblright" unicode="&#x201d;" horiz-adv-x="1134" 
d="M207 864l-19 25q52 41 86.5 98.5t36 90.5t-11.5 42q-79 7 -129 54q-57 56 -58 135.5t56 136.5q56 56 134 56t134 -56q41 -41 51.5 -99t-6.5 -118.5t-40 -109.5t-52 -93q-72 -100 -182 -162zM745 864l-18 25q53 41 87.5 98.5t35.5 90.5t-12 42q-79 7 -129 54
q-57 55 -57.5 135t55.5 137q55 56 135 56t135 -56q41 -41 51 -99.5t-7 -118.5t-40.5 -109.5t-52.5 -92.5q-66 -97 -183 -162z" />
    <glyph glyph-name="quotedblbase" unicode="&#x201e;" horiz-adv-x="1138" 
d="M213 -270l-18 24q52 41 86.5 98.5t35.5 91t-12 42.5q-80 7 -129 53q-57 56 -58 135.5t56 136.5q56 55 134 55t134 -55q41 -41 51.5 -99t-6.5 -118.5t-40 -109.5t-52 -93q-71 -98 -182 -161zM752 -270l-19 24q53 41 87.5 98.5t35.5 91t-12 42.5q-81 7 -129 53
q-57 55 -57.5 135t55.5 137q55 55 135 55t135 -55q41 -41 51 -99.5t-7 -118.5t-40.5 -109.5t-52.5 -92.5q-65 -96 -182 -161z" />
    <glyph glyph-name="dagger" unicode="&#x2020;" horiz-adv-x="919" 
d="M850 827q-28 -28 -65.5 -27t-65.5 29q-20 23 -27 62q-5 6 -23 5t-49 -19.5t-53 -45.5l-12 9q42 69 90 96q32 21 65.5 34.5t73 12.5t66.5 -27q27 -27 27 -64t-27 -65zM264 936q44 -27 86 -96l-10 -9q-22 27 -53 45.5t-49 19.5t-23 -5q-3 -35 -27 -62q-28 -28 -65.5 -29
t-65.5 27q-26 26 -26 64.5t26 64.5q27 26 67.5 27.5t75.5 -12t64 -35.5zM578 592q-45 -233 -74 -516.5t-35 -451.5l-6 -167h-19q0 25 -1.5 69.5t-9 178t-19 263t-33.5 303.5t-51 321q49 60 74.5 109.5t29.5 71.5t4 52q0 54 -29.5 142.5t-29.5 142.5v14t4 31.5t11 40t23 31.5
t38 14q36 0 54.5 -32.5t19.5 -65.5l1 -33q0 -54 -30.5 -140.5t-30.5 -144.5q0 -29 4.5 -52.5t30.5 -73t74 -107.5zM455 1321q-44 0 -76.5 32.5t-32.5 76.5q0 43 32.5 73.5t76.5 30.5q43 0 74.5 -30.5t31.5 -73.5q0 -44 -31.5 -76.5t-74.5 -32.5z" />
    <glyph glyph-name="daggerdbl" unicode="&#x2021;" horiz-adv-x="1165" 
d="M713 799l-11 8q48 84 105 119q37 27 79.5 43.5t92 15t82.5 -34.5t33 -78.5t-33 -78.5q-34 -34 -81 -34t-81 34q-27 27 -31 75q-5 7 -27 6.5t-61.5 -22t-66.5 -53.5zM88 793q-32 32 -32 78.5t32 78.5q33 33 82 34.5t91 -15t81 -43.5q51 -32 104 -119l-12 -8
q-26 32 -64 53.5t-59.5 22t-27.5 -6.5q-3 -45 -33 -75q-34 -34 -80.5 -34t-81.5 34zM434 221l12 -8q-41 -73 -104 -123q-37 -25 -80 -41.5t-92.5 -14.5t-81.5 34q-32 34 -32 79.5t32 77.5q34 35 81 35t81 -35q30 -35 33 -78q5 -5 26.5 -4.5t60 22.5t64.5 56zM592 293
q0 -67 37 -145t37 -144q0 -6 -0.5 -16.5t-5 -37t-13 -47t-27.5 -37t-45 -16.5q-27 0 -46.5 16t-27.5 38.5t-13 45t-5 38.5v16q0 66 37 142t37 147q0 5 -1 14t-7.5 35.5t-18.5 51t-38 55.5t-62 55q36 23 62 53.5t38 57.5t18.5 50.5t7.5 37.5l1 14q0 65 -37 143t-37 146v16.5
t4.5 37t13 46.5t28 36.5t46.5 16.5q42 0 64.5 -38.5t24.5 -76.5l2 -38q0 -67 -37 -143t-37 -146q0 -5 0.5 -15t7 -37.5t18.5 -52.5t37.5 -55.5t61.5 -52.5q-36 -25 -61.5 -55.5t-37.5 -57t-18.5 -49.5t-7.5 -36v-13zM442 1393q0 54 39 92.5t94 38.5q53 0 91.5 -38.5
t38.5 -92.5q0 -55 -38.5 -93t-91.5 -38q-56 0 -94.5 38t-38.5 93zM705 -379q0 -55 -38.5 -93t-91.5 -38q-56 0 -94.5 38t-38.5 93q0 54 39 92.5t94 38.5q53 0 91.5 -38.5t38.5 -92.5zM1061 68q-33 -33 -83 -35t-92.5 14.5t-78.5 42.5q-69 54 -105 123l11 8q27 -34 66.5 -56
t61.5 -22.5t27 4.5q3 46 31 78q34 35 80.5 35t81.5 -35q32 -32 32 -78.5t-32 -78.5z" />
    <glyph glyph-name="bullet" unicode="&#x2022;" horiz-adv-x="1058" 
d="M530 428q-113 0 -192.5 79t-79.5 191q0 115 79.5 194t192.5 79q115 0 195 -79t80 -194q0 -112 -80.5 -191t-194.5 -79z" />
    <glyph glyph-name="ellipsis" unicode="&#x2026;" horiz-adv-x="1941" 
d="M1565 -16q-82 0 -138.5 55.5t-56.5 136.5q0 80 57 136.5t138 56.5q78 0 134 -57t56 -136q0 -81 -55.5 -136.5t-134.5 -55.5zM956 -16q-82 0 -138 55t-56 137q0 80 56.5 136.5t137.5 56.5q78 0 134.5 -57t56.5 -136q0 -81 -56 -136.5t-135 -55.5zM369 -16
q-80 0 -136.5 55.5t-56.5 136.5q0 80 57 136.5t136 56.5q78 0 134 -57t56 -136q0 -81 -55.5 -136.5t-134.5 -55.5z" />
    <glyph glyph-name="perthousand" unicode="&#x2030;" horiz-adv-x="2465" 
d="M248 1008q0 -90 2 -142.5t8 -94.5t18 -60.5t29.5 -27.5t46.5 -9q24 0 40 4.5t28.5 20.5t18.5 36.5t10 62.5t5 87.5t1 122.5q0 90 -2 144t-8 97.5t-18 64t-29.5 30.5t-45.5 10q-24 0 -40.5 -5.5t-28.5 -22.5t-18.5 -39.5t-10.5 -65.5t-5 -90t-1 -123zM666 1008
q0 -79 -17.5 -142.5t-53.5 -113.5t-98 -77.5t-145 -27.5q-164 0 -240.5 98.5t-76.5 262.5q0 78 17.5 143.5t54 117.5t99 81.5t146.5 29.5q83 0 145 -29.5t98 -81.5t53.5 -117.5t17.5 -143.5zM2079 70q24 0 40 4.5t28 20.5t18.5 36t10 62.5t4.5 87.5t1 122q0 215 -18 281
t-84 66q-24 0 -40.5 -5.5t-28.5 -23t-19 -40t-11 -65t-5 -90t-1 -123.5q0 -90 2.5 -143t8 -94t18 -60t30 -27.5t46.5 -8.5zM2079 776q83 0 145 -29.5t98 -82t53 -118t17 -143.5q0 -79 -17 -142.5t-53 -113t-98 -77t-145 -27.5q-164 0 -241 98t-77 262q0 62 10.5 116t35 102
t60.5 82t90.5 53.5t121.5 19.5zM1335 70q25 0 40.5 4.5t28 20.5t18.5 36.5t10 62t5 87t1 122.5q0 215 -18.5 281t-84.5 66q-24 0 -40.5 -5.5t-28.5 -23t-18.5 -40t-10.5 -65.5t-5 -90t-1 -123q0 -90 2 -142.5t8 -94.5t18 -60.5t29.5 -27t46.5 -8.5zM1335 776q83 0 145 -29.5
t98 -82t53.5 -118t17.5 -143.5q0 -79 -17.5 -142.5t-53.5 -113t-98 -77t-145 -27.5q-164 0 -240.5 98t-76.5 262q0 78 17.5 143.5t54 118t99 82t146.5 29.5zM1298 1442h170l-1060 -1442h-168z" />
    <glyph glyph-name="guilsinglleft" unicode="&#x2039;" horiz-adv-x="745" 
d="M631 1034v-90l-246 -399l246 -387v-90l-529 477z" />
    <glyph glyph-name="guilsinglright" unicode="&#x203a;" horiz-adv-x="739" 
d="M98 944v90l531 -489l-531 -477v90l246 387z" />
    <glyph glyph-name="fraction" unicode="&#x2044;" horiz-adv-x="749" 
d="M936 1503h164l-1239 -1503h-162z" />
    <glyph glyph-name="Euro" unicode="&#x20ac;" horiz-adv-x="1329" 
d="M1184 362h26l11 -292q-61 -43 -137 -65.5t-203 -22.5q-286 0 -443 164.5t-186 447.5h-215l16 27h197q-6 49 -6 100q0 47 6 100h-213l16 27h199q15 138 60 248t120.5 192.5t189.5 127t259 44.5q78 0 133.5 -6t94.5 -20.5t60 -26.5t52 -35l-11 -293h-26q-19 195 -95 275
t-208 80q-65 0 -108.5 -19t-72.5 -57t-45.5 -111t-23.5 -164.5t-10 -234.5h421l-18 -27h-406v-100v-100h392l-19 -27h-370q3 -143 10.5 -234.5t23.5 -164.5t45.5 -111t73 -57t107.5 -19q125 0 203 82.5t100 271.5z" />
    <glyph glyph-name="afii61289" unicode="&#x2113;" horiz-adv-x="763" 
d="M459 760v270q0 416 87 426q27 3 54 -31q17 -26 33.5 -68.5t27 -110t4.5 -136.5t-44 -150t-109 -149zM727 188l-27 13q-7 -51 -36 -76t-62 -27q-81 -6 -117 58t-32 219l4 241l92 97q98 102 137 250.5t18 280t-88 204.5q-29 32 -67.5 49.5t-80 16.5t-83.5 -18t-80 -58
t-67.5 -98.5t-46.5 -144t-17 -191.5v-420l-129 -99v-127l129 99v-70q0 -100 17.5 -174t46 -117.5t71.5 -69.5t87 -35t100 -9q86 0 158 58t73 148z" />
    <glyph glyph-name="trademark" unicode="&#x2122;" horiz-adv-x="1511" 
d="M1466 881v-27h-254v27q30 0 41 14.5t11 56.5v408l-201 -512h-31l-241 491v-260q0 -29 3.5 -55.5t13 -62.5t34.5 -58t61 -22v-27h-256v27q37 0 62.5 22t36 57.5t14.5 63t4 55.5v295q-25 41 -80 41v27h223l199 -402l158 402h194v-27q-28 0 -39.5 -15.5t-11.5 -53.5v-394
q0 -41 14 -56t45 -15zM27 1442h573v-172h-27q-1 45 -24 76.5t-55.5 45t-55 18.5t-35.5 5h-16v-448q0 -86 53 -86v-27h-254v27q54 0 54 86v448h-19q-13 0 -35.5 -5t-54.5 -18.5t-54.5 -45t-23.5 -76.5h-26v172z" />
    <glyph glyph-name="Omega" unicode="&#x2126;" horiz-adv-x="1542" 
d="M1456 379h27l-74 -379h-551q3 18 32 116t56.5 203.5t51.5 271t24 320.5q0 147 -12 251t-32 165t-54 95.5t-69 45.5t-85 11t-85 -11t-68.5 -45.5t-53 -95.5t-31.5 -165t-12 -251q0 -155 24 -320.5t51.5 -271t56.5 -203.5t32 -116h-551l-74 379h27q28 -61 86.5 -88
t118.5 -27h276q-13 31 -121 109q-138 101 -220.5 239t-82.5 310q0 269 168 426t459 157t460 -157t169 -426q0 -172 -82.5 -310t-220.5 -239q-110 -81 -121 -109h276q60 0 118.5 27t86.5 88z" />
    <glyph glyph-name="estimated" unicode="&#x212e;" horiz-adv-x="1826" 
d="M1409 1286q-217 164 -502 164q-275 0 -491 -156v-491h993v483zM907 1505q172 0 328.5 -59.5t270 -160.5t180.5 -240.5t67 -292.5h-1337v-541q216 -156 491 -156q171 0 323.5 62t262.5 170h78q-120 -134 -293 -210.5t-371 -76.5q-230 0 -424.5 100.5t-308 273.5
t-113.5 378q0 153 67 292.5t180.5 240.5t270 160.5t328.5 59.5z" />
    <glyph glyph-name="partialdiff" unicode="&#x2202;" horiz-adv-x="1232" 
d="M797 690q-26 73 -75.5 114.5t-98.5 41.5q-86 0 -142 -108t-73 -316q-9 -124 -9 -204t19 -126.5t50.5 -65t86.5 -18.5q101 0 155.5 162.5t86.5 519.5zM1135 674q-27 -329 -172 -510.5t-408 -181.5q-153 0 -262 52t-165.5 163t-43.5 272q8 95 33.5 174.5t73.5 148.5
t129.5 108.5t189.5 39.5q38 0 80.5 -10.5t86 -32t78 -61.5t48.5 -91q16 175 10 304t-23 215t-52.5 137.5t-78.5 73.5t-100 22q-72 0 -144 -52.5t-116 -131t-43 -150.5l-27 -8l-96 211q63 74 172 116t254 42q139 0 252.5 -59.5t190.5 -168t113 -269t20 -353.5z" />
    <glyph glyph-name="Delta" unicode="&#x2206;" horiz-adv-x="1466" 
d="M786 1511l592 -1445l-30 -66h-1270l-12 53l579 1422zM176 90h850l-426 989z" />
    <glyph glyph-name="product" unicode="&#x220f;" horiz-adv-x="1753" 
d="M1516 1212v-1120q0 -114 49.5 -176.5t126.5 -62.5v-27h-727v27q77 0 126.5 62.5t49.5 176.5v1084q0 239 -176 239h-172q-175 0 -175 -239v-1084q0 -114 49.5 -176.5t125.5 -62.5v-27h-725v27q77 0 125.5 62.5t48.5 176.5v1120q0 102 -47 152.5t-127 50.5v27h1624v-27
q-79 0 -127.5 -51t-48.5 -152z" />
    <glyph glyph-name="summation" unicode="&#x2211;" horiz-adv-x="1439" 
d="M492 1415l413 -719l-512 -870h70q128 0 241.5 21.5t196 55.5t153.5 82t118 94.5t84.5 99.5t57 91t32.5 74h28l-55 -545h-1161l395 693l-514 950h1255l45 -473h-30q-40 116 -159.5 219t-282.5 165t-324 62h-51z" />
    <glyph glyph-name="minus" unicode="&#x2212;" horiz-adv-x="1282" 
d="M1190 406h-1092v231h1092v-231z" />
    <glyph glyph-name="uni2215" unicode="&#x2215;" horiz-adv-x="751" 
d="M938 1503h164l-1239 -1503h-162z" />
    <glyph glyph-name="uni2219" unicode="&#x2219;" horiz-adv-x="591" 
d="M297 473q-58 0 -97.5 40t-39.5 97q0 59 39.5 99.5t97.5 40.5t98.5 -40.5t40.5 -99.5q0 -57 -40.5 -97t-98.5 -40z" />
    <glyph glyph-name="radical" unicode="&#x221a;" horiz-adv-x="1247" 
d="M797 160l280 1616l111 -31l-365 -2083l-133 -43l-389 897q-36 84 -94.5 130t-114.5 24l-10 22l414 166z" />
    <glyph glyph-name="infinity" unicode="&#x221e;" horiz-adv-x="1581" 
d="M1391 852q104 -104 104 -252t-104 -252t-252 -104t-252 104l-92 92l-93 -92q-104 -104 -251 -104q-151 0 -252 104q-104 104 -104.5 252t102.5 252h2q101 104 252 104q147 0 251 -104l93 -92l92 92q104 104 252 104t252 -104zM1231 508q38 38 38 92t-38 92q-37 37 -92 37
t-92 -37l-93 -92l93 -92q39 -39 92 -39t92 39zM543 508l92 92l-94 92q-34 37 -90 37t-93 -37q-38 -38 -38 -92t38 -92q39 -39 93 -39q53 0 92 39z" />
    <glyph glyph-name="integral" unicode="&#x222b;" horiz-adv-x="851" 
d="M803 1485q-19 -45 -64 -65t-90 -1q-46 19 -66 63.5t-1 88.5q17 47 63 63q10 3 0 14q-15 17 -57 17q-9 0 -17.5 -3.5t-31 -23.5t-32.5 -63t-20.5 -123t5.5 -203l98 -903q18 -216 4.5 -364t-62.5 -239.5t-116.5 -132t-157.5 -40.5q-66 0 -115.5 20.5t-74.5 53.5
q-19 27 -25 63.5t6 67.5q17 47 61.5 66.5t90.5 0.5t65 -63t2 -88q-19 -50 -61 -64q-12 -3 -4 -16q14 -19 57 -19q37 0 65 52q55 103 29 366l-98 901q-21 209 -6.5 357t64 241.5t118 137t156.5 43.5q66 0 117 -20t79 -52q20 -24 25 -63.5t-6 -69.5z" />
    <glyph glyph-name="approxequal" unicode="&#x2248;" horiz-adv-x="1136" 
d="M659 604l-245 92q-41 16 -106 23.5t-136.5 -10t-95.5 -68.5l-21 6q32 77 72.5 134t79.5 86.5t78.5 47.5t73 20.5t59.5 1t40 -6.5l15 -4l244 -92q42 -17 108 -23.5t137.5 12.5t96.5 70l18 -10q-33 -75 -73.5 -131t-79.5 -85t-78.5 -47.5t-72.5 -21.5t-59 -2.5t-40 4.5z
M659 225l-245 92q-41 16 -106 23.5t-136.5 -10t-95.5 -68.5l-21 6q32 77 72.5 134t79.5 86.5t78.5 47.5t73 20.5t59.5 1t40 -5.5l15 -5l244 -92q42 -17 108 -23.5t137.5 12.5t96.5 70l18 -10q-33 -75 -73.5 -131t-79.5 -85t-78.5 -47.5t-72.5 -21.5t-59 -2.5t-40 4.5z" />
    <glyph glyph-name="notequal" unicode="&#x2260;" horiz-adv-x="1093" 
d="M1004 690h-306l-104 -231h410v-160h-486l-115 -252l-147 68l84 184h-246v160h320l104 231h-424v160h500l125 270l145 -69l-92 -201h232v-160z" />
    <glyph glyph-name="lessequal" unicode="&#x2264;" horiz-adv-x="1167" 
d="M492 750l575 -291v-242l-952 488v92l952 487v-244zM96 162h971v-199h-971v199z" />
    <glyph glyph-name="greaterequal" unicode="&#x2265;" horiz-adv-x="1169" 
d="M96 459l576 291l-576 290v244l953 -487v-92l-953 -488v242zM96 162h971v-199h-971v199z" />
    <glyph glyph-name="lozenge" unicode="&#x25ca;" horiz-adv-x="1144" 
d="M831 670l-262 516l-260 -516l260 -514zM616 1501l426 -831l-426 -832h-92l-426 832l426 831h92z" />
    <glyph glyph-name="zero.taboldstyle" unicode="&#xf643;" horiz-adv-x="1255" 
d="M797 475q0 153 -8.5 246.5t-30 140.5t-47.5 61.5t-70 14.5q-35 0 -57 -8.5t-43 -35.5t-32.5 -77.5t-18.5 -134.5t-7 -207q0 -202 18 -304.5t49 -132.5t91 -30q43 0 69 15.5t47.5 63t30.5 142t9 246.5zM1167 475q0 -111 -28.5 -198.5t-89.5 -155t-164 -103.5t-244 -36
q-139 0 -242 36.5t-164.5 103.5t-90.5 155t-29 198q0 109 29 196.5t90 154.5t164 103t243 36q274 0 400 -130t126 -360z" />
    <glyph glyph-name="one.taboldstyle" unicode="&#xf644;" horiz-adv-x="1054" 
d="M403 188v537q0 71 -33 90t-120 19v26l465 105v-777q0 -46 8.5 -77.5t19.5 -47.5t33 -24.5t37 -10t43 -1.5v-27h-620v27q38 0 62 4t51 18.5t40.5 49t13.5 89.5z" />
    <glyph glyph-name="two.taboldstyle" unicode="&#xf645;" horiz-adv-x="1105" 
d="M926 371h26l-98 -371h-707l222 227q88 80 144.5 152t79.5 129t29 111.5t-8 101.5q-24 105 -108 157t-172 11q-56 -26 -54 -56q2 -12 11 -12q50 3 86 -33q35 -37 34 -88t-38 -86t-87.5 -35t-84.5 37q-26 26 -33.5 61.5t4.5 65.5q25 86 150 168q36 24 103.5 39t148.5 14
t155 -20.5t128.5 -73.5t64.5 -135q9 -82 -16.5 -148.5t-71 -108t-106.5 -77.5t-117 -58t-108 -47.5t-75 -47.5l303 6q57 0 111 29.5t84 87.5z" />
    <glyph glyph-name="three.taboldstyle" unicode="&#xf646;" horiz-adv-x="1155" 
d="M539 -543q-133 0 -218.5 32.5t-146.5 104.5q-27 33 -32.5 81.5t14.5 91.5q29 63 93 86t124 -7q63 -29 86 -92.5t-6 -126.5q-31 -63 -95 -78q-14 -4 0 -20q32 -36 138 -44q20 -1 41 -1q65 0 113 32.5t71 86.5t31.5 124.5t-4.5 145.5q-5 37 -14.5 71t-35 80t-62 80
t-99.5 61t-144 34v26q87 22 145.5 68t80.5 100.5t22 111t-23 105t-61 76.5q-45 35 -114.5 38.5t-133 -30t-84.5 -96.5l-28 2q-1 74 22.5 136.5t62.5 103.5t89 70t99.5 42t96.5 13q83 0 157 -32.5t124.5 -85.5t75.5 -124t18.5 -144.5t-55.5 -151t-137 -140.5
q147 -29 236.5 -128t92.5 -212q3 -110 -31 -198t-90 -141.5t-130.5 -88.5t-145.5 -48.5t-143 -13.5z" />
    <glyph glyph-name="four.taboldstyle" unicode="&#xf647;" horiz-adv-x="1224" 
d="M600 45v539l-309 -428q-23 -32 -33.5 -54.5t-12 -33.5t7.5 -17t17.5 -7t24.5 -1zM1124 -98h-192v-156q0 -76 6.5 -126t15 -77.5t28.5 -40.5t35.5 -15.5t47.5 -2.5v-27h-598v27q26 0 40 2t32 9t27 23.5t18 44t12.5 70.5t3.5 103v166l-500 -2v34l744 1031l88 -19v-901h192
v-143z" />
    <glyph glyph-name="five.taboldstyle" unicode="&#xf648;" horiz-adv-x="1171" 
d="M1075 -88q-4 -115 -48.5 -203.5t-119 -142.5t-167.5 -81.5t-201 -27.5q-218 0 -340 101q-34 28 -50 76.5t-6 95.5q15 68 77 105t132 22q68 -15 106 -76t21 -131q-19 -74 -73 -103q-18 -10 -6 -28q25 -35 139 -35q67 0 121 21t87 56t54.5 81t21.5 96.5t-12 101.5
q-6 21 -16 42t-29 49.5t-44.5 52t-63 50t-85 42.5t-110 29.5t-138 12t-169.5 -11.5l155 840h736l-95 -305h-667l-47 -254q184 31 324 15t239 -60.5t160.5 -116t88.5 -150t25 -163.5z" />
    <glyph glyph-name="six.taboldstyle" unicode="&#xf649;" horiz-adv-x="1236" 
d="M811 432q0 207 -41 327t-121 120q-39 0 -80 -18t-73.5 -62t-32.5 -103q0 -124 2 -209t8.5 -169.5t18 -136.5t30.5 -94t47 -60.5t66 -18.5q47 0 77.5 14.5t50.5 42.5t30.5 82t14 118t3.5 167zM1153 473q0 -232 -143.5 -361.5t-374.5 -129.5q-265 0 -404 175.5t-139 487.5
q0 186 47.5 339.5t132 257.5t201 161t252.5 57q69 0 126.5 -16.5t92.5 -43t52.5 -44.5t27.5 -35q20 -31 20 -75t-22 -79q-34 -54 -93.5 -68t-113.5 19q-53 32 -66.5 93.5t19.5 113.5q33 50 92 59q10 3 -6 17q-39 33 -129 33q-47 0 -84 -16.5t-71 -60.5t-56.5 -117t-36 -191
t-14.5 -277q19 68 70 113.5t104 62.5t106 17q96 0 170 -30t118.5 -78t72.5 -114.5t38.5 -131.5t10.5 -138z" />
    <glyph glyph-name="seven.taboldstyle" unicode="&#xf64a;" horiz-adv-x="1138" 
d="M170 946h924l-174 -301q-45 -84 -79.5 -178t-56.5 -171.5t-37 -180.5t-22.5 -167t-11 -171.5t-4 -152t-0.5 -148.5h-344q5 153 28.5 276.5t80.5 264.5t159 293t258 335h-561q-57 0 -113 -30.5t-86 -88.5h-27z" />
    <glyph glyph-name="eight.taboldstyle" unicode="&#xf64b;" horiz-adv-x="1187" 
d="M592 1434q-79 0 -132 -53.5t-57 -143.5q-6 -99 64 -178q38 -41 102 -78q15 -9 82 -42t88 -42q88 49 88 248q0 152 -75 227q-62 62 -160 62zM88 330q0 68 28.5 128t74.5 101t95 69t99 42q-260 169 -260 401q0 177 128 283t339 106q204 0 316 -80.5t112 -220.5
q0 -54 -23.5 -103t-61.5 -82.5t-80.5 -56.5t-86.5 -34q163 -75 255.5 -202t92.5 -263q0 -216 -130.5 -326t-377.5 -110q-256 0 -388 84t-132 264zM428 645q-94 -72 -94 -301q0 -162 70 -249t204 -87q98 0 160 58.5t68 160.5q6 96 -61.5 180t-174.5 144q-5 3 -46.5 25.5
t-80 43.5t-45.5 25z" />
    <glyph glyph-name="nine.taboldstyle" unicode="&#xf64c;" horiz-adv-x="1198" 
d="M420 512q0 -206 40 -325t115 -119q72 0 133.5 46t61.5 124q0 97 -1.5 170t-6 149t-12.5 130.5t-21 104.5t-31 80.5t-44 48t-58 17.5q-39 0 -66.5 -9t-47.5 -31.5t-32 -53t-18.5 -82t-9 -108.5t-2.5 -142zM78 471q0 124 39 219.5t109 155t163.5 89.5t206.5 30
q138 0 242.5 -47.5t170 -137t98 -212t32.5 -277.5q0 -156 -20 -281t-66 -230t-118 -175t-180 -109t-249 -39q-61 0 -113.5 12.5t-84.5 29t-58 39t-36.5 36t-18.5 27.5q-21 33 -20.5 79.5t24.5 83.5q35 57 98.5 72t122.5 -20q55 -34 69 -99t-22 -120q-33 -53 -105 -64
q-10 -1 7 -15q45 -34 137 -34q182 0 221.5 121t42.5 559q-15 -51 -48 -88.5t-74.5 -56.5t-81.5 -28t-79 -9q-96 0 -169.5 30t-118 77t-72.5 113t-38.5 131t-10.5 138z" />
    <glyph glyph-name="dollar.taboldstyle" unicode="&#xf653;" horiz-adv-x="1251" 
d="M616 8q79 0 132.5 32t72 84.5t12 113.5t-47.5 124.5t-107 112.5l-62 37v-504zM590 981v453q-65 0 -113.5 -28t-68 -75t-14.5 -102t48.5 -116.5t120.5 -111.5zM879 793q206 -136 263 -305t-55 -338q-18 -22 -34.5 -38t-57 -42.5t-87 -43.5t-123.5 -30.5t-169 -13.5v-250
h-26v250q-101 3 -190 15.5t-144 29t-95.5 32t-57.5 26.5l-17 11v393h16q13 -45 35.5 -96t65 -117.5t94.5 -120t129 -95.5t164 -52v520l-228 146q-221 139 -277.5 301t69.5 330q4 6 13.5 16.5t45.5 37.5t81 47t124.5 37t171.5 17v250h26v-250q93 -1 176.5 -11.5t136.5 -24.5
t93 -27.5t57 -22.5l17 -10v-344h-19q-15 47 -33 90.5t-57 104t-86.5 104.5t-122 77.5t-162.5 37.5v-469z" />
    <glyph glyph-name="cent.taboldstyle" unicode="&#xf654;" horiz-adv-x="1116" 
d="M481 510q0 -257 189 -330v756q-78 -19 -133.5 -126.5t-55.5 -299.5zM750 797q18 57 69 82q14 6 -1 23q-31 36 -122 36v-764q80 -25 179 3.5t129 90.5l22 -12q-5 -41 -29 -83.5t-63 -82.5t-101.5 -69.5t-136.5 -38.5v-224h-26v224q-238 0 -378 139t-140 356q0 96 32.5 181
t94.5 152.5t163 109t228 45.5v249h26v-249q103 0 177 -32.5t114 -74.5q27 -27 37 -67.5t0 -79.5q-19 -57 -72 -85.5t-110 -9.5q-57 17 -84.5 70.5t-7.5 110.5z" />
    <glyph glyph-name="dollar.oldstyle" unicode="&#xf724;" horiz-adv-x="1251" 
d="M616 8q79 0 132.5 32t72 84.5t12 113.5t-47.5 124.5t-107 112.5l-62 37v-504zM590 981v453q-65 0 -113.5 -28t-68 -75t-14.5 -102t48.5 -116.5t120.5 -111.5zM879 793q206 -136 263 -305t-55 -338q-18 -22 -34.5 -38t-57 -42.5t-87 -43.5t-123.5 -30.5t-169 -13.5v-250
h-26v250q-101 3 -190 15.5t-144 29t-95.5 32t-57.5 26.5l-17 11v393h16q13 -45 35.5 -96t65 -117.5t94.5 -120t129 -95.5t164 -52v520l-228 146q-221 139 -277.5 301t69.5 330q4 6 13.5 16.5t45.5 37.5t81 47t124.5 37t171.5 17v250h26v-250q93 -1 176.5 -11.5t136.5 -24.5
t93 -27.5t57 -22.5l17 -10v-344h-19q-15 47 -33 90.5t-57 104t-86.5 104.5t-122 77.5t-162.5 37.5v-469z" />
    <glyph glyph-name="zero.oldstyle" unicode="&#xf730;" horiz-adv-x="1255" 
d="M797 475q0 153 -8.5 246.5t-30 140.5t-47.5 61.5t-70 14.5q-35 0 -57 -8.5t-43 -35.5t-32.5 -77.5t-18.5 -134.5t-7 -207q0 -202 18 -304.5t49 -132.5t91 -30q43 0 69 15.5t47.5 63t30.5 142t9 246.5zM1167 475q0 -111 -28.5 -198.5t-89.5 -155t-164 -103.5t-244 -36
q-139 0 -242 36.5t-164.5 103.5t-90.5 155t-29 198q0 109 29 196.5t90 154.5t164 103t243 36q274 0 400 -130t126 -360z" />
    <glyph glyph-name="one.oldstyle" unicode="&#xf731;" horiz-adv-x="1054" 
d="M403 188v537q0 71 -33 90t-120 19v26l465 105v-777q0 -46 8.5 -77.5t19.5 -47.5t33 -24.5t37 -10t43 -1.5v-27h-620v27q38 0 62 4t51 18.5t40.5 49t13.5 89.5z" />
    <glyph glyph-name="two.oldstyle" unicode="&#xf732;" horiz-adv-x="1105" 
d="M926 371h26l-98 -371h-707l222 227q88 80 144.5 152t79.5 129t29 111.5t-8 101.5q-24 105 -108 157t-172 11q-56 -26 -54 -56q2 -12 11 -12q50 3 86 -33q35 -37 34 -88t-38 -86t-87.5 -35t-84.5 37q-26 26 -33.5 61.5t4.5 65.5q25 86 150 168q36 24 103.5 39t148.5 14
t155 -20.5t128.5 -73.5t64.5 -135q9 -82 -16.5 -148.5t-71 -108t-106.5 -77.5t-117 -58t-108 -47.5t-75 -47.5l303 6q57 0 111 29.5t84 87.5z" />
    <glyph glyph-name="three.oldstyle" unicode="&#xf733;" horiz-adv-x="1155" 
d="M539 -543q-133 0 -218.5 32.5t-146.5 104.5q-27 33 -32.5 81.5t14.5 91.5q29 63 93 86t124 -7q63 -29 86 -92.5t-6 -126.5q-31 -63 -95 -78q-14 -4 0 -20q32 -36 138 -44q20 -1 41 -1q65 0 113 32.5t71 86.5t31.5 124.5t-4.5 145.5q-5 37 -14.5 71t-35 80t-62 80
t-99.5 61t-144 34v26q87 22 145.5 68t80.5 100.5t22 111t-23 105t-61 76.5q-45 35 -114.5 38.5t-133 -30t-84.5 -96.5l-28 2q-1 74 22.5 136.5t62.5 103.5t89 70t99.5 42t96.5 13q83 0 157 -32.5t124.5 -85.5t75.5 -124t18.5 -144.5t-55.5 -151t-137 -140.5
q147 -29 236.5 -128t92.5 -212q3 -110 -31 -198t-90 -141.5t-130.5 -88.5t-145.5 -48.5t-143 -13.5z" />
    <glyph glyph-name="four.oldstyle" unicode="&#xf734;" horiz-adv-x="1224" 
d="M600 45v539l-309 -428q-23 -32 -33.5 -54.5t-12 -33.5t7.5 -17t17.5 -7t24.5 -1zM1124 -98h-192v-156q0 -76 6.5 -126t15 -77.5t28.5 -40.5t35.5 -15.5t47.5 -2.5v-27h-598v27q26 0 40 2t32 9t27 23.5t18 44t12.5 70.5t3.5 103v166l-500 -2v34l744 1031l88 -19v-901h192
v-143z" />
    <glyph glyph-name="five.oldstyle" unicode="&#xf735;" horiz-adv-x="1171" 
d="M1075 -88q-4 -115 -48.5 -203.5t-119 -142.5t-167.5 -81.5t-201 -27.5q-218 0 -340 101q-34 28 -50 76.5t-6 95.5q15 68 77 105t132 22q68 -15 106 -76t21 -131q-19 -74 -73 -103q-18 -10 -6 -28q25 -35 139 -35q67 0 121 21t87 56t54.5 81t21.5 96.5t-12 101.5
q-6 21 -16 42t-29 49.5t-44.5 52t-63 50t-85 42.5t-110 29.5t-138 12t-169.5 -11.5l155 840h736l-95 -305h-667l-47 -254q184 31 324 15t239 -60.5t160.5 -116t88.5 -150t25 -163.5z" />
    <glyph glyph-name="six.oldstyle" unicode="&#xf736;" horiz-adv-x="1236" 
d="M811 432q0 207 -41 327t-121 120q-39 0 -80 -18t-73.5 -62t-32.5 -103q0 -124 2 -209t8.5 -169.5t18 -136.5t30.5 -94t47 -60.5t66 -18.5q47 0 77.5 14.5t50.5 42.5t30.5 82t14 118t3.5 167zM1153 473q0 -232 -143.5 -361.5t-374.5 -129.5q-265 0 -404 175.5t-139 487.5
q0 186 47.5 339.5t132 257.5t201 161t252.5 57q69 0 126.5 -16.5t92.5 -43t52.5 -44.5t27.5 -35q20 -31 20 -75t-22 -79q-34 -54 -93.5 -68t-113.5 19q-53 32 -66.5 93.5t19.5 113.5q33 50 92 59q10 3 -6 17q-39 33 -129 33q-47 0 -84 -16.5t-71 -60.5t-56.5 -117t-36 -191
t-14.5 -277q19 68 70 113.5t104 62.5t106 17q96 0 170 -30t118.5 -78t72.5 -114.5t38.5 -131.5t10.5 -138z" />
    <glyph glyph-name="seven.oldstyle" unicode="&#xf737;" horiz-adv-x="1138" 
d="M170 946h924l-174 -301q-45 -84 -79.5 -178t-56.5 -171.5t-37 -180.5t-22.5 -167t-11 -171.5t-4 -152t-0.5 -148.5h-344q5 153 28.5 276.5t80.5 264.5t159 293t258 335h-561q-57 0 -113 -30.5t-86 -88.5h-27z" />
    <glyph glyph-name="eight.oldstyle" unicode="&#xf738;" horiz-adv-x="1187" 
d="M592 1434q-79 0 -132 -53.5t-57 -143.5q-6 -99 64 -178q38 -41 102 -78q15 -9 82 -42t88 -42q88 49 88 248q0 152 -75 227q-62 62 -160 62zM88 330q0 68 28.5 128t74.5 101t95 69t99 42q-260 169 -260 401q0 177 128 283t339 106q204 0 316 -80.5t112 -220.5
q0 -54 -23.5 -103t-61.5 -82.5t-80.5 -56.5t-86.5 -34q163 -75 255.5 -202t92.5 -263q0 -216 -130.5 -326t-377.5 -110q-256 0 -388 84t-132 264zM428 645q-94 -72 -94 -301q0 -162 70 -249t204 -87q98 0 160 58.5t68 160.5q6 96 -61.5 180t-174.5 144q-5 3 -46.5 25.5
t-80 43.5t-45.5 25z" />
    <glyph glyph-name="nine.oldstyle" unicode="&#xf739;" horiz-adv-x="1198" 
d="M420 512q0 -206 40 -325t115 -119q72 0 133.5 46t61.5 124q0 97 -1.5 170t-6 149t-12.5 130.5t-21 104.5t-31 80.5t-44 48t-58 17.5q-39 0 -66.5 -9t-47.5 -31.5t-32 -53t-18.5 -82t-9 -108.5t-2.5 -142zM78 471q0 124 39 219.5t109 155t163.5 89.5t206.5 30
q138 0 242.5 -47.5t170 -137t98 -212t32.5 -277.5q0 -156 -20 -281t-66 -230t-118 -175t-180 -109t-249 -39q-61 0 -113.5 12.5t-84.5 29t-58 39t-36.5 36t-18.5 27.5q-21 33 -20.5 79.5t24.5 83.5q35 57 98.5 72t122.5 -20q55 -34 69 -99t-22 -120q-33 -53 -105 -64
q-10 -1 7 -15q45 -34 137 -34q182 0 221.5 121t42.5 559q-15 -51 -48 -88.5t-74.5 -56.5t-81.5 -28t-79 -9q-96 0 -169.5 30t-118 77t-72.5 113t-38.5 131t-10.5 138z" />
    <glyph glyph-name="cent.oldstyle" unicode="&#xf7a2;" horiz-adv-x="1116" 
d="M481 510q0 -257 189 -330v756q-78 -19 -133.5 -126.5t-55.5 -299.5zM750 797q18 57 69 82q14 6 -1 23q-31 36 -122 36v-764q80 -25 179 3.5t129 90.5l22 -12q-5 -41 -29 -83.5t-63 -82.5t-101.5 -69.5t-136.5 -38.5v-224h-26v224q-238 0 -378 139t-140 356q0 96 32.5 181
t94.5 152.5t163 109t228 45.5v249h26v-249q103 0 177 -32.5t114 -74.5q27 -27 37 -67.5t0 -79.5q-19 -57 -72 -85.5t-110 -9.5q-57 17 -84.5 70.5t-7.5 110.5z" />
    <glyph glyph-name="fi" unicode="&#xfb01;" horiz-adv-x="1267" 
d="M1192 16v-16h-467v16q28 8 45 27t24.5 52t9 60t1.5 76v523q0 166 -88 166h-242v-689q0 -97 16.5 -149t67.5 -66v-16h-467v16q28 8 45 27t24.5 52t9 60t1.5 76v689h-131l-2 26h133v23q0 124 27 220.5t74 159t116 103t149 57.5t177 17q112 0 217 -41.5t139 -104.5
q22 -39 22.5 -90.5t-22.5 -93.5q-32 -57 -97.5 -74t-123.5 15q-58 34 -74.5 97.5t17.5 123.5q32 60 94 72q26 7 1 26q-40 33 -132 41l-41 2q-36 0 -68.5 -14.5t-64.5 -51t-55 -92t-37.5 -144.5t-14.5 -202v-49h244q64 0 161.5 8t162.5 16l65 7v-746q0 -98 16.5 -150.5
t67.5 -64.5z" />
    <glyph glyph-name="fl" unicode="&#xfb02;" horiz-adv-x="1224" 
d="M1194 25v-25h-467v25q53 16 66.5 63t13.5 143v1063q0 25 -2 42t-8.5 38t-22 36t-39.5 24q-36 13 -68.5 14.5t-65.5 -10t-59.5 -44.5t-47 -84t-32 -133.5t-11.5 -189.5v-41h219l-2 -26h-217v-689q0 -96 16.5 -144t67.5 -62v-25h-467v25q53 17 67.5 64.5t14.5 141.5v689
h-134l-2 26h136v164q0 92 23 165.5t59 119t84 76.5t94.5 43t93.5 12q27 0 59.5 -3.5t84.5 -19.5t87 -43l375 68v-1297q0 -96 16.5 -144.5t67.5 -61.5z" />
    <glyph glyph-name="NULL" horiz-adv-x="0" 
 />
    <glyph glyph-name="CR" horiz-adv-x="569" 
 />
    <glyph glyph-name="two.superior" horiz-adv-x="532" 
d="M430 963h27l-51 -187h-361l201 281q84 131 37 209q-29 49 -91 52q-61 2 -92 -42q-15 -21 -18 -49h-25q-7 51 9 93.5t46.5 68t65 39.5t66.5 14q70 0 119 -48t49 -112q0 -46 -24.5 -89.5t-78.5 -104t-65 -74.5l-74 -105h176q55 0 84 54z" />
    <glyph glyph-name="one.superior" horiz-adv-x="479" 
d="M385 805v-27h-272v27q69 0 69 76v374q0 33 -20 37.5t-40 -6.5l-20 -12l-20 24l184 144h62v-561q0 -76 57 -76z" />
    <glyph glyph-name="a.superior" horiz-adv-x="657" 
d="M322 1186q-66 -16 -90.5 -47t-24.5 -76q0 -3 0.5 -7.5t3.5 -15.5t8.5 -20t17 -16t27.5 -7q38 0 58 50v139zM553 1014l20 -8q-8 -33 -43.5 -55.5t-87.5 -22.5q-4 0 -11.5 0.5t-26.5 5t-34 12t-29 24t-17 38.5q-11 -35 -53 -57.5t-99 -22.5q-13 0 -29.5 3.5t-41.5 12.5
t-41.5 33t-16.5 59q0 52 32.5 84t72 45.5t147.5 39.5q18 5 27 7v66q0 82 -41 116t-99 7q-18 -8 -18 -17q0 -6 10 -8q26 -6 41 -30q12 -26 4 -53t-33 -40q-26 -12 -53 -3t-39 32q-17 36 4 72q19 39 72 67q20 11 47 16.5t45 4.5h17q101 0 149.5 -57t48.5 -156v-160
q0 -3 0.5 -8.5t3 -19t7.5 -23.5t16 -18t26 -7q17 1 23 21z" />
    <glyph glyph-name="three.superior" horiz-adv-x="565" 
d="M248 764q-103 0 -162 65q-29 36 -10 78q14 28 42.5 39t57.5 -2q28 -12 38.5 -41t-1.5 -57q-15 -31 -43 -39q-9 -2 1 -9q19 -14 77 -14q55 0 81 50t15 118q-4 23 -11 41t-23 43t-48.5 40.5t-77.5 19.5v22q65 15 92.5 55.5t19.5 80t-38 61.5q-31 27 -79 16.5t-64 -55.5
l-21 2q-1 76 53.5 119t114.5 43q57 0 101.5 -30.5t62 -75t-1.5 -99t-78 -96.5q68 -13 109 -59t43 -97q1 -62 -22.5 -107.5t-63.5 -68.5t-80.5 -33t-83.5 -10z" />
    <glyph glyph-name="o.superior" horiz-adv-x="692" 
d="M406 1184q0 139 -21.5 186t-75.5 47q-36 0 -55 -17t-29 -67.5t-10 -148.5q0 -94 10 -143.5t29 -67t55 -17.5q57 0 77 45t20 183zM563 1184q0 -131 -63 -192.5t-191 -61.5q-252 0 -252 254q0 133 62.5 196.5t189.5 63.5q254 0 254 -260z" />
    </font>
</defs>
</svg>
