<svg width="100" height="65" viewBox="0 0 100 65" fill="none" xmlns="http://www.w3.org/2000/svg">
<path d="M86.6705 15.6016C77.1699 26.9552 66.3602 37.4315 53.6175 43.755C37.724 51.6409 19.8595 51.153 4.86737 41.1079C4.64922 40.9585 4.59532 40.739 4.64928 40.5319C4.01675 40.7976 3.37435 40.9914 2.83747 41.4807C2.47255 41.8093 2.16619 42.2178 1.95688 42.6801C1.8328 42.9432 1.77128 43.222 1.65429 43.47C18.2528 52.9834 38.7707 53.501 55.5508 44.1061C65.3998 38.5962 74.0049 30.2351 81.644 21.623C83.3736 19.6617 85.048 17.6508 86.674 15.5941L86.6705 15.6016ZM0.814864 43.4882C0.583133 42.4591 1.53353 41.2414 2.22451 40.6479C2.99979 39.9684 4.05254 39.4237 5.01347 39.8711C5.0828 39.9095 5.12408 39.9703 5.14087 40.046C5.2629 40.0283 5.40558 40.041 5.54408 40.1367C8.07211 41.8414 10.6862 43.2525 13.3547 44.3998C18.1765 27.8171 33.9395 20.5415 48.2602 16.6759C57.171 14.2676 66.1864 12.268 75.1509 10.098C83.4141 8.0986 91.4199 6.05139 98.6277 1.13477C100.046 -0.240652 99.6325 1.34089 99.3765 1.54981C93.9526 12.6412 90.3803 24.7021 84.686 35.6437C79.9331 44.7748 73.3444 52.7176 64.9867 58.1251C48.9961 68.4791 27.2951 67.0023 14.9515 50.8785C14.7793 50.6503 14.7952 50.4126 14.8943 50.2211C10.1511 48.9667 5.52453 47.0943 1.18171 44.6017C0.841994 44.4134 0.800147 44.0015 0.924537 43.7007C0.879709 43.6474 0.835034 43.5752 0.818409 43.4807L0.814864 43.4882ZM49.2792 17.6863C34.6887 21.7342 19.6709 28.1903 14.4373 44.8671C15.0066 45.0879 15.5899 45.2975 16.1663 45.5032C19.0353 43.4813 21.2787 41.3022 22.8362 37.8518C22.8858 37.7466 23.042 37.8047 23.0027 37.9252C21.8408 41.1303 19.6146 44.1627 16.7114 45.701C19.7847 46.7504 22.9236 47.4379 26.0931 47.8011C31.8305 42.5719 35.7608 36.0376 37.8529 28.1905C37.8816 28.0927 38.0204 28.1507 37.9917 28.2485C36.224 36.0384 32.3163 42.7843 26.6324 47.863C31.2532 48.3386 35.9251 48.1124 40.5504 47.2062C46.2428 39.8473 48.723 29.2859 50.0156 20.0001C50.0267 19.921 50.0827 19.8951 50.1348 19.9145C50.1694 19.9337 50.197 19.968 50.1965 20.0246C49.6189 28.7586 47.0267 40.225 41.3703 47.0255C46.2021 45.9968 50.9632 44.2463 55.5387 41.7956C55.6051 41.766 55.6681 41.7251 55.7276 41.6917C58.6583 36.016 60.2615 30.0027 61.0221 23.5507C61.0298 23.4602 61.1446 23.4764 61.1335 23.5556C60.809 29.9174 59.0218 35.8572 56.2246 41.3983C60.1673 39.2321 63.8171 36.7044 67.2603 33.8916C70.1085 27.2411 71.0508 20.7191 71.247 13.4613C71.2473 13.4236 71.2718 13.4087 71.2858 13.3975C71.3347 13.3867 71.3867 13.4061 71.3898 13.4552C72.1456 20.1409 70.7229 27.0696 68.1439 33.1678C71.044 30.746 73.8203 28.1418 76.4862 25.4195C77.8745 21.79 78.2976 18.2417 78.2325 14.3375C78.2302 14.194 78.4391 14.196 78.4624 14.3322C78.938 17.8666 78.3436 21.5001 77.0904 24.7874C81.1756 20.5765 85.047 16.0954 88.9014 11.5763C89.1755 10.4389 89.2856 9.35272 89.0762 8.14638C89.0596 8.05184 89.1921 8.03048 89.2087 8.12502C89.4093 9.12742 89.4352 10.2036 89.2039 11.2131C91.0467 9.04904 92.8965 6.88882 94.7566 4.7438C90.4635 7.15196 85.6807 8.57755 80.9971 9.79271C77.6885 10.6513 74.3768 11.4797 71.0582 12.2854C66.0856 13.5015 61.1063 14.676 56.1406 15.8959C53.8968 16.4441 51.5936 17.0256 49.2758 17.6749L49.2792 17.6863ZM20.9365 51.4656C19.3469 51.2386 17.765 50.9211 16.1905 50.5509C27.6802 65.092 46.5496 66.6015 61.5833 58.6657C63.9234 57.4314 66.1608 55.9696 68.2712 54.2952C73.06 50.4837 76.7992 45.9862 79.9221 41.0712C82.1804 37.5257 84.12 33.7656 85.911 29.8758C83.0148 28.0618 80.2238 27.8231 77.0805 28.0718C74.1017 31.161 70.9808 34.162 67.6982 36.9311C71.7378 36.0985 75.8227 37.3578 78.9466 40.284C78.9743 40.2993 78.9706 40.3257 78.9669 40.3521C78.9527 40.3822 78.9247 40.4045 78.8936 40.3778C75.4425 37.441 71.3584 36.495 67.0984 37.4425C65.1417 39.0693 63.1265 40.5975 61.0566 42.0194C63.983 42.3047 66.8321 43.9219 69.0199 45.9215C69.0718 45.9598 69.0154 46.0423 68.9635 46.004C66.2368 43.9048 63.5061 43.1117 60.3527 42.492C58.059 44.0174 55.7002 45.4025 53.2596 46.5905C51.4239 47.4786 49.5543 48.2531 47.6507 48.9329C52.5813 49.8456 57.0885 52.6758 60.1167 57.0469C60.1546 57.0963 60.1401 57.1642 60.1155 57.1979C60.0768 57.2428 59.9931 57.2533 59.9413 57.1962C56.2509 52.8941 51.9269 50.2319 46.5468 49.345C46.5468 49.345 46.533 49.3373 46.5191 49.3296C42.6603 50.6132 38.7009 51.424 34.6997 51.8228C35.9286 52.2954 37.1471 53.1794 38.1277 53.7703C41.0523 55.5242 43.6985 57.683 46.105 60.1831C46.1603 60.2327 46.0968 60.3302 46.0415 60.2806C44.1886 58.6278 42.2687 57.0801 40.222 55.7086C38.4558 54.521 34.85 51.7638 32.521 52.0846C32.4338 52.1027 32.3645 52.0642 32.3232 52.0034C28.9645 52.1896 25.584 52.0697 22.2409 51.6482C25.6226 53.7123 28.5608 56.3459 30.9461 59.7254C31.0046 59.8052 30.8924 59.8947 30.8373 59.8262C27.9992 56.4612 24.7804 53.6437 21.0263 51.5533C20.9916 51.534 20.9674 51.5112 20.9468 51.4808L20.9365 51.4656ZM78.4155 26.6691C78.1591 26.9347 77.9027 27.2002 77.6532 27.4696C80.5372 26.9919 83.6249 27.9734 86.0457 29.5902C87.2837 26.8728 88.4699 24.0983 89.6215 21.3046C92.1515 15.2361 94.6057 9.06872 97.5764 3.17821C94.4198 6.29212 92.0026 10.1003 89.3117 13.7473C89.4482 13.6618 89.5952 13.5727 89.7389 13.4721C90.8382 12.7731 91.9715 12.1689 93.1565 11.6406C93.2264 11.6035 93.2708 11.7134 93.1973 11.758C92.0743 12.3775 90.9717 13.0463 89.9035 13.772C89.4308 14.0883 88.982 14.4463 88.5194 14.7966C87.111 16.6516 85.6611 18.4647 84.1663 20.2433C85.9236 19.9849 87.6972 20.2853 89.3551 21.0905C89.3898 21.1098 89.3928 21.1589 89.3579 21.1774C89.3579 21.1774 89.3335 21.1734 89.3266 21.1695C87.4833 20.4607 85.6246 20.3406 83.7618 20.7301C82.0315 22.7669 80.2494 24.7466 78.4225 26.673L78.4155 26.6691Z" fill="white" fill-opacity="0.4"/>
</svg>
