<svg width="26" height="28" viewBox="0 0 26 28" fill="none" xmlns="http://www.w3.org/2000/svg">
<path d="M4.94999 28H20.2165C22.8958 28 25.0755 25.8203 25.0755 23.1409V8.61539C25.0755 8.14154 24.6878 7.75385 24.214 7.75385H19.0448V6.46154C19.0448 2.89908 16.1457 0 12.5832 0C9.02076 0 6.12168 2.89908 6.12168 6.46154V7.75385H0.95245C0.478604 7.75385 0.0909119 8.14154 0.0909119 8.61539V23.1409C0.0909119 25.8203 2.2706 28 4.94999 28ZM7.84476 6.46154C7.84476 3.84677 9.96845 1.72308 12.5832 1.72308C15.198 1.72308 17.3217 3.84677 17.3217 6.46154V7.75385H7.84476V6.46154ZM1.81399 9.47692H6.12168V11.6308C6.12168 12.1046 6.50937 12.4923 6.98322 12.4923C7.45707 12.4923 7.84476 12.1046 7.84476 11.6308V9.47692H17.3217V11.6308C17.3217 12.1046 17.7094 12.4923 18.1832 12.4923C18.6571 12.4923 19.0448 12.1046 19.0448 11.6308V9.47692H23.3525V23.1409C23.3525 24.8683 21.9438 26.2769 20.2165 26.2769H4.94999C3.2226 26.2769 1.81399 24.8683 1.81399 23.1409V9.47692Z" fill="white"/>
</svg>
