<svg width="98" height="82" viewBox="0 0 98 82" fill="none" xmlns="http://www.w3.org/2000/svg">
<circle opacity="0.11" cx="58.6387" cy="39.208" r="39" fill="#CA382F"/>
<path d="M60.3164 21.3632C53.6481 14.695 44.7822 11.0226 35.3519 11.0226C25.9216 11.0226 17.0557 14.695 10.3875 21.3632C3.71928 28.0315 0.046875 36.8973 0.046875 46.3276C0.046875 55.7579 3.71928 64.6237 10.3874 71.2919C17.0557 77.9602 25.9216 81.6326 35.3519 81.6326C44.7822 81.6326 53.6481 77.9602 60.3164 71.2919C66.9845 64.6237 70.6569 55.7579 70.6569 46.3276C70.6569 36.8973 66.9845 28.0315 60.3164 21.3632ZM35.3519 77.4953C27.7201 77.4953 20.5083 74.7691 14.8246 69.7803L25.6356 58.9694H19.7846L11.8991 66.8548C6.91039 61.1711 4.18418 53.9594 4.18418 46.3276C4.18418 38.0024 7.42617 30.1755 13.313 24.2887C19.1998 18.4019 27.0267 15.1599 35.3519 15.1599C42.9837 15.1599 50.1954 17.8861 55.8791 22.8749L44.8398 33.9143H50.6908L58.8046 25.8005C63.7934 31.484 66.5196 38.6958 66.5196 46.3276C66.5196 54.6528 63.2776 62.4796 57.3907 68.3665C51.5039 74.2533 43.6771 77.4953 35.3519 77.4953Z" fill="#490D00"/>
<path d="M30.3159 54.832L31.5585 47.927L33.4977 54.5001H37.1585L39.0023 47.9096L40.3561 54.832H44.5717L41.2901 38.0515L37.4601 38.0656L35.271 45.8902L32.9604 38.0577H29.1307L26.1122 54.832H30.3159ZM17.1517 54.745C21.5966 54.745 24.7009 51.2836 24.7009 46.3275V44.2589H17.1788V48.3962H20.2238C19.7662 49.6452 18.8113 50.6077 17.1517 50.6077C14.7917 50.6077 12.8717 48.6876 12.8717 46.3275C12.8717 43.9675 14.7917 42.0473 17.1517 42.0473C17.7354 42.0473 18.3001 42.1621 18.8301 42.3884L20.4545 38.5833C19.4081 38.1366 18.2969 37.91 17.1517 37.91C12.5104 37.91 8.73438 41.6862 8.73438 46.3275C8.73438 50.9689 12.5104 54.745 17.1517 54.745ZM62.5196 46.3275C62.5196 41.6862 58.7436 37.91 54.1023 37.91C49.4609 37.91 45.6848 41.6862 45.6848 46.3275C45.6848 50.9689 49.4609 54.745 54.1023 54.745C58.7436 54.745 62.5196 50.9689 62.5196 46.3275ZM54.1023 50.6077C51.7422 50.6077 49.8221 48.6876 49.8221 46.3275C49.8221 43.9675 51.7422 42.0473 54.1023 42.0473C56.4623 42.0473 58.3823 43.9675 58.3823 46.3275C58.3823 48.6876 56.4623 50.6077 54.1023 50.6077Z" fill="#490D00"/>
</svg>
