<svg width="379" height="362" viewBox="0 0 379 362" fill="none" xmlns="http://www.w3.org/2000/svg">
<g opacity="0.5">
<path d="M173.576 158.226C159.998 151.215 149.624 138.533 140.416 126.644C131.084 114.61 122.866 101.355 118.229 86.7578C116.092 80.0284 114.75 73.0605 114.451 65.9925C114.116 57.8767 115.324 49.8384 113.311 41.8588C113.129 41.1497 113.96 40.4821 114.611 40.7628C130.181 47.2231 147.237 47.551 163.212 52.5417C178.159 57.2199 191.966 65.4482 203.282 76.274C213.865 86.407 225.187 100.448 226.074 115.717C226.905 130.053 218.425 134.878 219.222 158.073C226.146 167.173 231.053 177.444 231.949 189.651C231.972 190.013 228.894 193.155 224.731 192.233C226.072 182.837 214.819 162.813 214.626 162.859C200.854 166.27 186.238 164.781 173.576 158.226ZM142.472 125.973C149.756 135.501 157.957 145.268 167.743 152.172C169.144 153.165 170.578 154.098 172.053 154.962C184.635 162.348 199.607 164.2 213.73 160.91C210.507 157.087 206.894 153.51 203.283 150.131C202.783 149.656 202.272 149.207 201.78 148.742C190.467 147.391 179.929 148.141 168.838 150.951C168.755 150.971 168.685 150.947 168.636 150.889C168.546 150.782 168.545 150.584 168.702 150.534C178.868 146.96 190.403 146.133 201.045 148.067C197.06 144.422 193.015 140.844 188.941 137.291C179.012 135.869 170.076 136.53 160.264 139.008C160.016 139.068 159.905 138.68 160.129 138.591C168.616 135.172 178.936 134.538 187.994 136.463C182.88 132.01 177.767 127.54 172.792 122.937C163.892 121.693 152.86 119.69 144.981 124.323C144.868 124.385 144.754 124.348 144.688 124.271C144.598 124.164 144.586 123.992 144.711 123.903C148.364 121.189 152.853 121.04 157.24 121.027C162.321 121.009 167.389 121.45 172.35 122.53C171.49 121.728 170.622 120.933 169.772 120.122C165.539 116.105 161.53 111.9 157.712 107.567C154.29 107.347 150.878 107.021 147.438 107.115C143.331 107.224 139.381 107.932 135.315 108.504C135.023 108.551 134.977 108.142 135.245 108.066C142.063 106.152 150.244 105.796 157.309 107.109C154.815 104.249 152.397 101.341 150.057 98.3681C142.107 96.6548 134.908 97.113 127.057 99.6319C126.917 99.6831 126.79 99.5912 126.744 99.4972C126.707 99.395 126.734 99.2893 126.866 99.2284C133.797 96.0907 142.352 95.6851 149.676 97.8763C146.566 93.8918 143.573 89.8093 140.695 85.6464C137.827 85.375 134.984 84.7005 132.093 84.499C128.895 84.2896 125.715 84.4148 122.522 84.4669C122.279 84.4731 122.233 84.163 122.388 84.0322C122.417 84.0076 122.446 83.9831 122.5 83.9877C125.685 83.4937 128.948 83.4655 132.172 83.6683C134.698 83.8295 137.46 83.9749 139.989 84.6317C137.762 81.3799 135.584 78.0873 133.472 74.7553C132.747 73.7568 132.031 72.7502 131.325 71.7354C129.497 71.3184 127.69 70.7501 125.829 70.3934C123.596 69.9689 121.339 69.7136 119.071 69.4843C118.759 69.4486 118.805 69.0113 119.112 69.0014C122.765 68.9435 126.972 69.3471 130.572 70.6445C127.541 66.2615 124.698 61.7865 122.07 57.2307C122.008 57.2164 121.956 57.1939 121.915 57.1454C121.358 56.6026 120.935 56.0623 120.167 55.7807C119.451 55.5215 118.646 55.4529 117.927 55.6438C117.724 55.6986 117.643 55.3854 117.811 55.3097C118.751 54.8495 120.055 54.8795 121.039 55.3777C119.273 52.2192 117.601 49.0147 116.048 45.7754C116.713 50.7583 116.469 55.7447 116.393 60.8536C116.258 68.47 117.194 75.9796 119.251 83.3236C119.5 84.2094 119.759 85.0869 120.035 85.966C121.542 90.7865 123.476 95.4633 125.72 99.9953C129.567 107.789 134.335 115.139 139.509 122.064C140.48 123.354 141.467 124.663 142.472 125.973ZM151.4 98.5636C159.874 109.03 169.315 118.516 179.504 127.454C190.977 137.501 203.415 146.999 213.582 158.412C221.598 167.389 227.501 178.429 226.19 190.754C229.595 191.585 230.585 189.058 230.723 189.024C225.938 155.565 194.559 137.734 171.648 116.815C161.287 107.358 151.093 96.8804 141.869 85.6024C141.84 85.627 141.827 85.6709 141.798 85.6955C143.089 87.5616 144.398 89.4293 145.745 91.2642C147.529 93.6947 149.389 96.0597 151.279 98.4002C151.297 98.4017 151.323 98.413 151.349 98.4242C151.419 98.4482 151.423 98.5115 151.4 98.5636ZM141.341 85.0351L141.419 85.0688C141.305 84.9329 141.19 84.7971 141.085 84.653C141.164 84.7858 141.253 84.9105 141.341 85.0351ZM144.507 85.7191C148.865 91.0078 153.418 96.1329 158.128 101.091C152.519 87.2306 151.016 72.4319 153.553 57.6624C153.574 57.5291 153.78 57.5377 153.758 57.6889C151.494 73.058 153.627 88.3877 159.744 102.634C159.775 102.691 159.771 102.744 159.784 102.799C162.474 105.577 165.214 108.296 168.005 110.957C172.169 114.932 176.443 118.782 180.854 122.499C182.501 123.882 184.176 125.258 185.875 126.664C178.949 107.126 176.328 86.4139 178.404 65.7602C178.424 65.6269 178.621 65.6436 178.618 65.7785C177.187 86.9013 179.993 107.773 187.131 127.681C190.869 130.737 194.692 133.855 198.461 137.067C193.053 120.215 189.539 102.381 189.364 84.6701C189.367 84.6343 189.44 84.6225 189.446 84.668C191.066 102.953 193.981 120.529 199.658 138.033C199.674 138.053 199.663 138.079 199.662 138.097C204.872 142.584 209.929 147.284 214.443 152.325C208.304 134.43 206.119 115.475 208.408 96.6498C208.419 96.5246 208.598 96.5399 208.597 96.6569C206.936 116.148 209.28 135.35 215.924 153.766C215.952 153.858 215.954 153.94 215.938 154.019C216.576 154.776 217.214 155.533 217.832 156.306C216.134 144.211 222.632 132.958 223.824 121.082C225.515 104.205 213.237 88.5959 201.73 77.5827C189.656 66.0348 174.657 57.5158 158.499 53.2118C150.326 51.0383 141.955 49.8295 133.692 48.1977C127.571 47.0006 121.516 45.548 115.64 43.282C115.73 43.7039 115.802 44.1243 115.874 44.5448C119.072 49.4012 122.196 54.2695 125.369 59.0969C124.651 56.0008 124.409 52.8191 124.646 49.6152C124.663 49.5176 124.788 49.5283 124.789 49.6274C124.845 53.2976 125.358 56.8985 126.262 60.4518C128.797 64.3063 131.389 68.1295 134.048 71.9134C132.072 64.6664 131.782 56.8607 133.334 49.5451C133.346 49.5011 133.385 49.4684 133.439 49.473C133.484 49.4678 133.527 49.4984 133.512 49.5603C132.636 57.834 133.179 65.6253 135.271 73.6207C137.798 77.1502 140.411 80.624 143.165 84.0288C141.759 78.1272 140.686 72.11 140.037 66.1017C140.027 66.0108 140.164 65.9775 140.183 66.0782C141.169 72.4663 142.417 78.7507 143.946 85.0139C144.132 85.255 144.319 85.496 144.507 85.7191Z" fill="#FEFAE8"/>
<path d="M168.005 110.957C168.005 110.957 167.972 110.918 167.965 110.891C164.712 102.463 162.759 93.786 162.311 84.7691C162.311 84.67 162.467 84.6382 162.467 84.7373C163.263 93.6759 165.166 102.313 168.406 110.685C168.51 110.946 168.16 111.141 168.005 110.957Z" fill="#FEFAE8"/>
<path d="M43.0704 223.799C63.304 212.769 85.1189 203.686 107.857 201.534C136.216 198.852 163.471 209.116 181.582 231.409C181.844 231.738 181.819 232.079 181.633 232.344C182.738 232.306 183.823 232.375 184.891 231.967C185.615 231.696 186.288 231.28 186.839 230.736C187.16 230.429 187.392 230.066 187.695 229.777C166.849 207.378 135.524 195.651 105.055 200C87.1726 202.547 69.7963 209.808 53.7827 217.943C50.1512 219.801 46.5803 221.759 43.0613 223.808L43.0704 223.799ZM188.996 230.201C188.844 231.786 186.779 233.006 185.423 233.478C183.894 234.028 182.004 234.237 180.746 233.087C180.658 232.995 180.616 232.878 180.636 232.77C180.44 232.73 180.227 232.636 180.061 232.426C177.012 228.651 173.686 225.247 170.146 222.189C154.529 243.15 126.672 245.035 102.72 242.851C87.8152 241.497 72.9511 239.506 58.081 237.785C44.3747 236.197 31.0408 234.814 17.5172 237.933C14.6545 239.126 16.0727 237.103 16.5699 236.943C30.3992 224.101 41.8578 208.891 56.0293 196.407C67.8572 185.989 81.9234 178.241 97.4594 175.041C127.188 168.907 159.859 182.629 170.89 212.135C171.042 212.551 170.9 212.88 170.653 213.099C177.333 217.421 183.529 222.558 188.982 228.423C189.411 228.873 189.272 229.48 188.932 229.84C188.975 229.94 189.008 230.066 188.987 230.21L188.996 230.201ZM101.651 240.871C126.109 242.94 152.414 241.819 168.71 220.945C167.943 220.327 167.149 219.717 166.364 219.116C160.949 220.449 156.419 222.341 152.316 226.406C152.188 226.529 151.976 226.362 152.096 226.213C155.469 222.284 160.394 219.172 165.622 218.543C161.411 215.407 156.919 212.749 152.22 210.535C140.806 214.886 131.527 222.058 124.429 232.078C124.337 232.202 124.152 232.045 124.244 231.922C130.815 221.808 140.163 214.324 151.421 210.158C144.544 207.008 137.241 204.826 129.675 203.635C117.276 211.033 108.24 224.7 101.661 237.191C101.605 237.298 101.506 237.304 101.436 237.249C101.392 237.203 101.366 237.14 101.395 237.059C106.6 224.968 116.248 210.068 128.323 203.452C120.378 202.324 112.185 202.259 103.931 203.287C103.815 203.293 103.697 203.318 103.589 203.333C96.2737 209.822 90.8345 217.501 86.4754 226.254C86.4188 226.378 86.2501 226.293 86.3063 226.187C89.9498 217.328 95.6358 209.852 102.679 203.484C95.5405 204.447 88.6738 206.081 81.9842 208.23C74.3137 216.146 69.6404 224.901 65.7518 235.101C65.7327 235.154 65.6876 235.162 65.6605 235.171C65.58 235.16 65.5094 235.104 65.5289 235.033C67.6696 225.136 73.2834 216.06 80.2665 208.784C74.606 210.669 69.0459 212.879 63.5975 215.316C59.6669 219.725 57.2623 224.536 55.433 230.114C55.3657 230.319 55.0451 230.205 55.0766 229.999C56.0913 224.726 58.8017 219.885 62.3551 215.889C53.9864 219.68 45.8132 223.968 37.6475 228.319C36.6635 229.787 35.9574 231.27 35.6835 233.095C35.6623 233.239 35.4478 233.198 35.469 233.055C35.6556 231.524 36.1476 229.982 37.0024 228.673C33.0966 230.758 29.182 232.834 25.2591 234.883C33.0567 233.764 41.1228 234.302 48.932 235.086C54.4486 235.639 59.9553 236.238 65.4612 236.871C73.7158 237.809 81.96 238.809 90.2058 239.737C93.9303 240.161 97.7627 240.569 101.651 240.889L101.651 240.871ZM161.968 208.095C164.303 209.269 166.58 210.567 168.821 211.936C158.323 185.135 130.026 172.883 102.965 176.097C98.7532 176.595 94.587 177.472 90.5114 178.719C81.2572 181.565 73.2793 185.947 66.0439 191.253C60.8159 195.077 55.9723 199.376 51.2934 203.94C54.8548 208.067 59.0325 209.901 63.9933 211.232C70.1048 208.441 76.3914 205.853 82.8123 203.68C76.1832 202.698 70.5183 198.721 67.1563 192.893C67.1212 192.856 67.1399 192.821 67.1587 192.785C67.1953 192.75 67.2496 192.734 67.2843 192.788C71.1446 198.807 76.9631 202.338 83.9881 203.275C87.8038 202.013 91.6606 200.923 95.5492 200.013C91.1861 198.04 87.6 194.218 85.2209 190.207C85.1599 190.125 85.2875 190.038 85.3485 190.12C88.5079 194.561 92.3188 197.15 96.8662 199.719C101.15 198.782 105.465 198.079 109.809 197.7C113.073 197.423 116.333 197.325 119.599 197.379C112.462 193.442 106.923 187.009 104.422 179.181C104.388 179.09 104.444 179.002 104.499 178.967C104.58 178.924 104.714 178.954 104.766 179.063C108.32 187.148 113.66 193.244 121.502 197.386C121.502 197.386 121.52 197.404 121.537 197.422C128.111 197.667 134.605 198.637 140.961 200.214C139.303 198.885 137.864 196.977 136.647 195.613C133.013 191.556 130.007 187.073 127.538 182.234C127.477 182.134 127.623 182.03 127.684 182.13C129.719 185.469 131.918 188.704 134.382 191.739C136.513 194.371 140.701 200.218 144.444 201.01C144.587 201.031 144.675 201.123 144.708 201.231C149.97 202.766 155.113 204.747 160.051 207.137C155.866 202.394 152.645 197.081 150.644 191.005C150.593 190.86 150.81 190.793 150.861 190.92C153.566 197.218 157.128 202.943 161.873 207.922C161.917 207.968 161.943 208.014 161.96 208.068L161.968 208.095ZM61.2454 212.508C61.7713 212.268 62.2972 212.029 62.8144 211.78C58.1394 210.913 53.872 207.865 50.945 204.273C47.6966 207.468 44.4997 210.772 41.3467 214.121C34.4538 221.382 27.6286 228.824 20.1451 235.595C26.5425 232.865 32.1449 228.753 38.0889 225.017C37.8365 225.065 37.5662 225.113 37.2954 225.179C35.258 225.582 33.215 225.833 31.1301 225.948C31.0041 225.964 30.9902 225.784 31.1253 225.76C33.16 225.482 35.1874 225.123 37.1902 224.665C38.0741 224.469 38.9417 224.201 39.8269 223.952C42.9113 222.072 46.0389 220.275 49.2186 218.551C46.3861 217.976 43.8048 216.599 41.651 214.568C41.6071 214.522 41.6266 214.451 41.6896 214.443C41.6896 214.443 41.7251 214.462 41.7339 214.471C44.2207 216.465 47.0221 217.631 50.0818 218.076C53.7516 216.111 57.4728 214.255 61.2366 212.499L61.2454 212.508Z" fill="#FEFAE8"/>
<path d="M46.8679 201.822C46.8013 201.991 46.507 201.904 46.5648 201.725C47.5939 198.23 49.4507 195.049 51.7836 192.256C51.8757 192.15 52.0431 192.288 51.9598 192.403C49.8299 195.354 48.253 198.46 46.877 201.813L46.8679 201.822Z" fill="#FEFAE8"/>
<path d="M277.765 149.813C278.277 149.387 279.259 150.172 278.758 150.712C243.09 189.254 202.353 228.197 188.683 244.532C159.99 278.849 116.746 358.795 116.275 358.916C112.969 359.502 107.43 357.727 108.543 354.592C120.882 319.777 144.583 277.753 171.796 246.351C187.62 228.098 204.939 211.22 222.885 195.072C240.215 179.501 277.523 149.886 277.765 149.813ZM229.983 198.133C245.741 183.547 261.57 169.47 275.193 152.881C240.659 180.61 206.78 211.19 177.378 244.293C148.528 276.794 119.913 322.508 111.121 355.623C112.023 356.648 113.31 357.285 114.654 357.414C114.483 356.79 156.308 280.141 183.808 246.966C198.123 229.686 213.507 213.358 229.983 198.12L229.983 198.133Z" fill="#FEFAE8"/>
<path d="M337.012 4.39365C338.262 3.87442 339.509 3.53284 340.839 3.80133C349.766 5.57505 352.753 17.8802 355.075 22.4619C359.807 31.8293 366.187 40.2503 370.714 49.7169C385.129 79.7886 377.864 117.172 352.86 139.296C341.248 149.561 327.066 155.865 311.775 158.031C306.373 158.796 301.629 159.721 296.641 162.077C293.375 163.615 290.143 165.521 286.508 166.014C282.378 166.578 278.176 166.62 274.305 160.905C274.268 160.866 274.23 160.828 274.192 160.776C272.935 160.826 271.545 160.366 270.585 159.899C268.793 158.991 267.553 157.556 267.04 155.672C266.274 154.965 265.662 154.032 265.344 152.975C264.39 149.767 266.719 146.81 267.387 143.835C268.548 138.619 266.07 133.224 265.365 128.114C262.848 110.027 266.708 90.3224 271.798 72.9539C279.896 45.3262 296.311 21.788 324.099 11.8911C328.023 10.4877 335.84 4.87566 337.012 4.39365ZM345.463 11.4288C342.861 1.08237 331.839 10.9232 326.589 12.845C321.059 14.8526 315.67 16.6588 310.598 19.7374C288.788 32.9873 277.203 57.023 271.468 81.0598C268.381 93.9959 265.972 107.587 266.561 120.919C266.844 127.496 269.514 133.896 269.671 140.358C269.712 142.465 269.185 144.159 268.516 146.157C268.123 147.308 267.373 148.569 267.194 149.76C266.016 157.678 273.678 154.463 273.871 154.224C274.412 153.57 275.493 154.458 275.029 155.138C273.558 157.317 274.623 165.451 286.032 157.404C288.974 155.33 291.902 153.37 295.068 151.628C300.635 148.58 306.301 145.775 311.694 142.433C323.68 135.001 334.809 125.873 343.146 114.416C350.453 104.382 355.433 92.393 356.535 79.9807C357.649 67.5178 353.669 56.7754 349.455 45.3197C347.545 40.1334 345.751 34.8087 345.215 29.2696C344.647 23.2986 346.922 17.2193 345.463 11.4288ZM346.823 8.98179C347.219 9.84915 347.501 10.7533 347.682 11.6437C348.704 16.7568 346.64 22.1149 346.862 27.2699C347.034 31.2695 347.968 35.1759 349.144 38.9834C351.386 46.2928 354.736 53.2337 356.685 60.6286C364.394 89.9537 347.064 118.241 324.51 135.658C312.324 145.08 298.279 151.651 285.47 160.076C284.818 160.513 284.115 160.937 283.4 161.309C281.741 162.192 279.944 162.832 278.219 162.737C285.093 168.93 297.423 159.104 304.903 157.498C313.986 155.543 322.662 154.775 331.295 151C346.993 144.155 360.364 132.056 368.261 116.812C373.551 106.604 376.266 95.1737 376.418 83.7027C376.523 75.3913 375.282 67.0651 372.704 59.1682C370.47 52.3412 367.035 46.1482 363.384 40.0544C361.926 37.6016 360.43 35.1611 358.96 32.7082C356.742 28.9907 354.55 25.2481 352.74 21.3193C351.153 17.9006 350.015 11.8217 346.823 8.98179ZM272.874 156.041C272.747 156.09 272.619 156.139 272.504 156.189C272.313 156.263 272.135 156.337 271.944 156.411C270.769 157.071 269.525 157.057 268.426 156.575C269.127 157.484 269.994 158.268 270.991 158.787C271.698 159.137 272.457 159.374 273.242 159.471C272.645 158.361 272.506 157.192 272.874 156.041Z" fill="#FEFAE8"/>
<path d="M325.159 20.5073C326.877 20.0821 328.891 20.3708 330.133 21.7425C331.437 23.1656 331.453 25.1202 331.192 26.9321C337.278 27.4561 337.574 37.4472 336.179 41.9624C340.792 45.9983 339.601 56.2014 337.102 60.7045C337.101 60.7425 337.05 60.7674 337.024 60.8052C340.926 67.2064 338.102 79.2951 332.739 83.4112C333.697 85.1731 334.182 87.2471 334.147 89.2392C334.035 94.7459 330.035 99.6258 325.848 102.93C327.056 105.012 327.627 107.391 326.981 109.58C325.649 114.108 320.252 117.818 315.781 119.304C317.804 124.594 312.685 129.651 308.495 132.093C306.758 133.101 304.263 133.772 302.095 133.596C300.189 136.126 297.381 138.709 294.115 139.117C291.84 139.397 288.626 138.523 287.994 136.029C285.027 138.078 281.964 137.384 279.48 134.691C278.551 133.793 278.175 132.215 278.259 130.401C276.848 130.538 275.463 129.609 274.767 128.243C273.587 125.958 274.055 122.664 274.842 120.338C275.629 117.948 277.214 115.782 279.611 114.844C279.904 114.733 280.209 114.635 280.527 114.562C278.916 109.963 278.927 104.329 282.231 100.456C283.659 98.7587 285.55 97.5993 287.599 97.0762C285.528 91.5201 285.934 84.6587 291.165 80.9599C292.189 80.2352 293.475 79.7671 294.848 79.5665C293.056 74.0769 293.628 67.0905 298.693 63.5041C299.115 63.2042 299.588 62.9429 300.072 62.7325C298.302 58.7026 298.397 53.5131 301.493 50.1207C302.521 48.9898 303.863 48.1797 305.315 47.7008C303.291 42.5005 306.586 37.1687 311.425 35.623C310.191 30.1904 314.437 24.8817 319.838 24.2179C320.181 24.1836 320.395 24.3509 320.494 24.5804C321.379 22.6485 322.83 21.0908 325.159 20.5073ZM327.82 21.9708C326.467 21.5244 324.825 21.9885 323.7 22.7756C320.95 24.687 320.831 28.5691 320.417 31.5977C321.908 31.0431 323.495 30.959 324.78 31.8235C325.022 30.6078 325.516 29.5218 326.312 28.6676C325.317 27.984 324.208 27.2865 323.47 26.3773C323.307 26.1978 323.5 25.9588 323.714 26.0627C324.787 26.5822 325.754 27.5194 326.671 28.3417C327.466 27.6271 328.512 27.1309 329.859 26.9681C330.109 25.0292 329.983 22.68 327.82 21.9708ZM320.063 25.6925C319.987 25.717 319.91 25.7542 319.821 25.7659C315.208 26.3115 312.138 30.8464 312.647 35.3192C313.715 35.128 314.82 35.102 315.947 35.3048C316.27 34.7754 316.618 34.2716 317.042 33.8194L317.35 33.5182C316.732 33.1307 316.115 32.7304 315.549 32.2673C315.385 32.1259 315.591 31.8998 315.755 31.9904C316.436 32.3533 317.053 32.7915 317.67 33.2425C318.17 32.8039 318.758 32.3916 319.384 32.0559C319.359 31.9921 319.335 31.9157 319.336 31.8395C319.256 29.8715 319.42 27.6525 320.063 25.6925ZM330.694 28.4241C327.18 28.2584 325.789 32.393 326.051 35.1118C326.267 37.3732 327.388 39.3272 327.872 41.49C329.049 40.5639 330.552 40.1109 332.478 40.3479C333.467 40.4731 334.314 40.7616 335.071 41.1761C335.15 40.8724 335.217 40.5431 335.285 40.1885C334.539 38.797 333.497 37.6941 332.342 36.628C332.203 36.5122 332.383 36.2985 332.522 36.3888C333.782 37.1769 334.695 38.3926 335.366 39.7071C335.53 38.6683 335.619 37.4891 335.607 36.2833C335.154 35.8976 334.715 35.4993 334.262 35.1135C333.722 34.638 333.117 34.1872 332.705 33.5988C332.605 33.4581 332.797 33.3207 332.936 33.3857C333.554 33.7224 334.081 34.2867 334.609 34.7621C334.935 35.0702 335.262 35.3657 335.589 35.6612C335.537 34.6199 335.396 33.5778 335.127 32.6357C334.233 31.9532 333.314 31.2831 332.472 30.5378C332.321 30.4092 332.527 30.1576 332.678 30.2608C333.459 30.8151 334.201 31.4071 334.931 32.0116C334.229 30.0241 332.926 28.5376 330.694 28.4241ZM324.628 32.9767C321.508 32.79 319.028 33.2576 317.218 36.2454C315.654 38.8298 315.759 41.9782 315.397 44.9185C318.596 43.6467 322.578 43.9444 324.963 46.3312C325.134 45.7366 325.356 45.168 325.591 44.6122C324.525 43.4456 323.434 42.2786 322.483 40.9991C322.371 40.8455 322.614 40.6833 322.739 40.8116C323.819 41.8768 324.796 43.0679 325.773 44.2462C326.201 43.3372 326.73 42.5435 327.385 41.9035C327.234 41.7242 327.097 41.5196 326.947 41.3276C326.946 41.4418 326.792 41.567 326.679 41.4769C325.194 40.3564 323.504 39.3224 322.199 37.9882C322.024 37.8086 322.255 37.5193 322.482 37.6487C324.033 38.5796 325.389 39.9271 326.772 41.0972C326.023 39.9721 325.429 38.5823 325.052 37.1059C324.21 36.3098 323.278 35.665 322.296 34.9942C322.132 34.8782 322.237 34.5874 322.439 34.6658C323.349 35.0185 324.142 35.5984 324.858 36.2916C324.641 35.1851 324.552 34.0546 324.628 32.9767ZM315.259 36.6552C309.056 36.3964 305.231 41.456 306.498 47.3839C308.152 47.0722 309.889 47.2056 311.429 47.9079C311.751 47.5054 312.085 47.1156 312.457 46.7516C312.624 46.6012 312.803 46.4636 312.97 46.3258C311.949 45.6293 310.93 44.8185 310.077 43.9461C309.964 43.8052 310.132 43.5914 310.283 43.6946C311.329 44.3787 312.322 45.2399 313.226 46.1256C313.571 45.8629 313.955 45.6133 314.351 45.402C314.291 45.0206 314.257 44.6394 314.224 44.2456C313.345 43.411 312.402 42.5884 311.676 41.6286C311.564 41.4878 311.719 41.2229 311.882 41.3643C312.726 42.0082 313.465 42.8159 314.193 43.6108C314.079 41.2871 314.347 38.8026 315.259 36.6552ZM334.088 42.8404C329.32 40.1989 327.148 43.8045 326.324 48.3261C326.324 48.3261 326.324 48.3515 326.349 48.3644C326.473 48.6577 326.381 48.9485 326.188 49.1241C325.749 52.1651 325.864 55.466 326.197 57.5003C327.384 56.9042 328.758 56.6148 330.292 56.7459C332.942 56.9655 334.897 58.0785 336.275 59.7308C336.513 58.8831 336.765 57.896 336.992 56.8579C336.979 56.8577 336.967 56.8322 336.967 56.8196C336.251 54.9588 334.947 53.523 333.322 52.4009C333.083 52.2333 333.303 51.8677 333.555 52.0101C335.271 52.9301 336.447 54.504 337.099 56.3134C338.093 51.4002 338.339 45.1971 334.088 42.8404ZM324.509 48.3187C320.989 45.3102 316.439 44.765 312.957 48.6608C312.918 48.7111 312.892 48.7617 312.841 48.7992C308.971 54.5182 310.916 58.7403 312.685 62.9605C315.677 62.0671 318.919 62.7121 320.767 65.461C321.046 64.2838 321.452 63.1461 321.958 62.111C321.134 60.909 320.015 59.9575 318.664 59.3842C318.474 59.2933 318.554 58.9895 318.756 59.0552C320.21 59.5282 321.367 60.4928 322.101 61.8207C322.789 60.4958 323.652 59.3377 324.702 58.4736C324.605 58.003 324.51 57.4562 324.427 56.8969C323.373 55.8573 322.242 54.8549 321.315 53.7025C321.202 53.5744 321.369 53.4112 321.508 53.5143C322.539 54.3886 323.441 55.4266 324.369 56.4267C324.24 55.4227 324.164 54.3177 324.151 53.1627C323.033 52.1605 321.838 51.1574 320.937 49.9926C320.812 49.839 320.98 49.5489 321.169 49.6906C322.264 50.4895 323.205 51.5151 324.146 52.5281C324.161 51.1323 324.266 49.6993 324.509 48.3187ZM310.487 49.3189C307.555 48.2205 304.194 49.2113 302.236 51.8041C299.905 54.9003 300.256 58.7876 301.41 62.2523C304.325 61.4722 307.694 62.1059 309.507 64.588C309.942 64.2501 310.402 63.976 310.874 63.7274C310.823 63.7268 310.773 63.7263 310.735 63.6878C309.345 61.9465 307.699 60.5069 305.924 59.1675C305.735 59.0258 305.904 58.7358 306.105 58.8649C308.059 60.0413 309.64 61.6705 310.978 63.5128C311.015 63.5767 310.977 63.6397 310.938 63.69C311.193 63.5533 311.449 63.4165 311.716 63.3052C310.339 61.6402 309.498 59.613 309.153 57.5152C308.046 56.6146 306.863 55.7386 305.885 54.6998C305.747 54.546 305.94 54.2562 306.129 54.3979C307.187 55.1584 308.128 56.1079 309.07 57.0194C308.965 56.1806 308.924 55.3172 308.984 54.4675C308.933 54.467 308.882 54.4664 308.832 54.4278C307.99 53.657 307.059 52.9234 306.307 52.0648C306.157 51.8982 306.363 51.5959 306.552 51.7502C307.445 52.4454 308.222 53.3169 309.026 54.1253C309.197 52.4393 309.659 50.7819 310.487 49.3189ZM331.258 58.9394C321.64 56.4854 319.455 73.9114 325.036 78.8209C325.607 78.7892 326.178 78.8335 326.773 78.9162C328.977 79.2832 330.728 80.5335 331.966 82.2097C333.122 80.9153 334.221 79.0492 335.12 76.9397C334.343 74.8879 333.193 73.365 331.303 72.1131C331.076 71.971 331.27 71.6559 331.51 71.7728C333.315 72.6303 334.818 74.4236 335.342 76.3965C335.734 75.3982 336.088 74.3487 336.366 73.2858C336.366 73.2858 336.379 73.2606 336.379 73.2479C336.632 72.2354 336.846 71.2097 336.972 70.1831C335.838 68.2289 334.332 66.7148 332.827 65.061C332.664 64.8816 332.871 64.5793 333.085 64.7213C334.773 65.844 336.061 67.5969 337.057 69.3846C337.452 64.5918 336.054 60.1852 331.258 58.9521L331.258 58.9394ZM308.315 65.6662C305.046 62.8508 300.819 62.9692 297.898 66.5539C294.862 70.2896 295.356 74.9907 295.954 79.4391C299.014 79.2952 302.173 80.4976 303.195 83.377C303.717 83.2305 304.226 83.1093 304.747 83.0389C304.133 82.296 303.89 81.3669 303.812 80.3888C303.438 79.7121 303.04 79.0604 302.526 78.4456C301.824 77.6256 300.969 76.9817 300.1 76.3248C299.949 76.209 300.078 75.9819 300.255 76.0727C301.695 76.7231 302.963 77.9935 303.797 79.4368C303.806 78.6501 303.916 77.8391 304.026 77.0661C303.355 75.7516 302.389 74.751 301.168 73.8873C301.004 73.7712 301.109 73.4805 301.311 73.5589C302.587 74.0679 303.565 75.1321 304.122 76.3819C304.232 75.6344 304.355 74.8869 304.503 74.1398C303.894 72.9782 303.003 72.0546 301.946 71.2434C301.719 71.0759 301.926 70.7102 302.178 70.8526C303.301 71.4614 304.09 72.46 304.61 73.5953C304.784 72.7723 304.984 71.9496 305.246 71.1403C304.795 69.5108 303.714 68.509 302.381 67.479C302.179 67.3118 302.298 66.9324 302.576 67.0243C304.068 67.523 305.054 68.9807 305.482 70.4829C306.032 68.928 306.772 67.464 307.839 66.1686C307.981 65.9798 308.148 65.8294 308.315 65.6536L308.315 65.6662ZM320.019 67.6737C315.17 59.7264 309.073 65.9411 307.181 70.6539C305.98 73.6738 304.07 79.9982 306.347 82.9296C310.192 82.9466 313.799 84.9916 315.192 88.7635C315.219 88.6242 315.336 88.3971 315.517 88.0818C315.405 85.517 314.324 83.4745 312.286 81.8403C312.085 81.6731 312.342 81.3967 312.544 81.5004C314.675 82.6661 315.968 85.1678 315.827 87.5903C317.157 85.5236 320.221 81.5344 322.171 79.6269C322.146 79.6266 322.121 79.601 322.109 79.5627C321.352 77.9934 320.261 76.8011 319.133 75.4815C318.958 75.2892 319.203 74.9239 319.429 75.104C320.826 76.1601 321.76 77.7948 322.415 79.3884C322.71 79.1252 322.966 78.8869 323.196 78.7499C323.004 77.7579 319.947 74.2087 320.019 67.6737ZM330.146 82.6339C326.121 78.2238 320.005 81.5701 317.899 86.0775C317.016 87.9714 315.182 95.4007 317.623 97.3313C318.676 97.3429 319.765 97.5707 320.838 98.0902C322.416 98.8691 323.924 100.193 325.099 101.792C325.459 101.39 325.832 100.975 326.205 100.548C325.736 98.1316 324.625 96.4822 323.072 94.6248C322.934 94.4583 323.102 94.2064 323.304 94.3228C325.207 95.4733 326.374 97.8595 326.642 100.045C327.798 98.7255 328.957 97.2788 329.95 95.7668C329.925 95.7665 329.9 95.7282 329.888 95.6773C329.703 94.0127 328.982 92.6341 327.931 91.3407C327.793 91.1615 328.024 90.923 328.187 91.0898C329.38 92.2705 329.971 93.8761 330.105 95.5274C332.727 91.4318 333.983 86.8515 330.146 82.6339ZM301.64 83.9818C298.57 80.4198 294.034 79.7225 290.45 83.7187C287.16 87.4008 287.574 92.4056 288.565 96.8965C290.167 96.6603 291.828 96.8183 293.394 97.4828C293.44 96.798 293.549 96.0758 293.709 95.3669C293.1 94.2307 292.107 93.3821 290.907 92.8993C290.78 92.8472 290.833 92.6573 290.972 92.6969C292.225 93.028 293.18 93.9015 293.802 95.0125C294.028 94.114 294.33 93.2035 294.695 92.3192C293.843 91.3072 292.876 90.4082 291.998 89.4214C291.86 89.2675 292.054 89.0031 292.23 89.132C293.301 89.8164 294.14 90.8283 294.877 91.8771C295.307 90.8919 295.825 89.9458 296.368 89.0635C296.33 89.063 296.279 89.0624 296.229 89.0365C295.763 88.7141 295.297 88.3917 294.818 88.0691C294.39 87.7725 293.91 87.5134 293.559 87.1415C293.384 86.9492 293.615 86.7106 293.817 86.8017C294.296 87.0354 294.711 87.4207 295.126 87.7425C295.567 88.0647 295.995 88.3994 296.423 88.7214C296.473 88.76 296.485 88.8109 296.484 88.8743C296.962 88.1055 297.478 87.4005 297.992 86.797C298.686 85.9798 299.379 85.3147 300.044 84.8652C300.555 84.5155 301.092 84.2296 301.64 83.9818ZM314.211 91.4178C313.48 84.0363 304.926 82.8886 300.059 86.9721C296.626 89.8658 293.07 98.1392 296.412 102.313C296.948 102.091 297.483 101.894 298.03 101.76C302.076 100.802 305.329 102.729 306.947 105.666C306.998 105.603 307.113 105.515 307.254 105.415C306.227 101.914 304.162 99.2768 300.933 97.4644C300.693 97.3349 300.863 96.918 301.115 97.0223C304.463 98.4045 306.979 101.618 307.549 105.177C308.022 104.827 308.701 104.289 309.47 103.549C309.095 101.882 308.172 100.451 306.851 99.3699C306.65 99.2027 306.933 98.8632 307.134 99.005C308.557 100.049 309.429 101.543 309.765 103.247C310.523 102.469 311.32 101.488 312.044 100.278C311.168 99.2273 310.291 98.1895 309.478 97.0892C309.34 96.91 309.647 96.6849 309.785 96.8514C310.637 97.8634 311.438 98.913 312.238 99.9625C313.106 98.411 313.799 96.5023 314.079 94.2083C312.944 93.4724 311.901 92.598 311.062 91.5354C310.875 91.2922 311.208 90.9405 311.421 91.1839C312.236 92.1067 313.128 92.9414 314.135 93.6505C314.194 92.9405 314.24 92.205 314.211 91.4178ZM292.984 98.9758C288.981 97.2056 284.466 99.2117 282.382 102.894C280.376 106.413 280.762 110.593 281.595 114.384C283.374 114.213 285.26 114.64 286.195 116.173C286.208 116.199 286.207 116.224 286.22 116.25C286.292 115.451 286.453 114.653 286.665 113.856C285.841 112.591 284.824 111.627 283.539 110.776C283.413 110.685 283.492 110.433 283.656 110.498C284.983 111.045 286.1 112.124 286.81 113.375C287.086 112.465 287.464 111.568 287.918 110.684C287.855 110.684 287.791 110.683 287.767 110.619C286.971 109.151 285.75 108.224 284.312 107.434C284.085 107.304 284.254 106.951 284.494 107.017C286.164 107.492 287.392 108.889 288.035 110.457C288.554 109.448 289.186 108.478 289.882 107.571C289.568 107.289 289.253 107.006 288.952 106.724C288.512 106.325 288.022 105.926 287.71 105.415C287.623 105.275 287.802 105.112 287.941 105.189C288.445 105.5 288.846 105.999 289.247 106.422C289.523 106.73 289.812 107.025 290.087 107.333C290.873 106.339 291.758 105.422 292.693 104.633C291.85 104.002 291.02 103.307 290.318 102.551C290.117 102.32 290.401 101.917 290.665 102.11C291.534 102.742 292.35 103.512 293.103 104.307C293.82 103.744 294.549 103.245 295.302 102.834C294.158 101.882 293.148 99.0537 292.984 98.9758ZM322.988 102.2C319.168 97.653 314.233 98.6138 311.235 103.441C308.884 107.223 307.813 111.094 310.931 114.911C312.588 115.411 314.062 116.379 315.061 117.875C315.406 117.701 315.75 117.527 316.108 117.341C316.108 117.341 316.108 117.341 316.108 117.316C315.695 115.661 314.731 114.42 313.474 113.314C313.311 113.173 313.517 112.921 313.693 113.025C315.181 113.917 316.09 115.501 316.427 117.167C317.282 116.707 318.151 116.209 318.982 115.659C318.716 114.464 317.938 113.63 316.879 113.022C316.639 112.88 316.808 112.501 317.074 112.58C318.352 112.937 319.189 114.101 319.429 115.36C320.017 114.96 320.58 114.548 321.118 114.109C320.612 112.847 319.861 111.836 319.049 110.711C318.874 110.455 319.257 110.243 319.446 110.41C320.465 111.234 321.098 112.51 321.502 113.784C322.22 113.157 322.862 112.504 323.415 111.812C322.28 110.023 320.784 108.712 319.136 107.387C318.91 107.194 319.218 106.893 319.445 106.997C321.301 107.905 322.716 109.596 323.724 111.397C325.58 108.803 325.945 105.71 323.001 102.201L322.988 102.2ZM305.598 114.04C310.236 106.603 300.93 100.066 294.473 105.541C290.361 109.023 286.698 114.301 287.627 119.857C288.487 120.107 289.383 120.574 290.301 121.333C291.785 122.542 292.607 123.973 292.933 125.474C294.225 124.562 295.916 124.263 297.501 124.42C297.608 123.876 297.779 123.332 297.976 122.788C296.725 121.087 295.205 119.712 293.518 118.462C293.241 118.269 293.487 117.827 293.79 118.008C295.58 119.056 297.022 120.62 298.133 122.359C298.602 121.196 299.224 120.086 299.984 119.079C298.222 117.715 296.371 116.425 294.738 114.91C294.562 114.743 294.806 114.453 294.995 114.582C296.834 115.846 298.505 117.362 300.215 118.777C300.936 117.884 301.732 117.093 302.602 116.443C301.595 115.62 300.487 114.833 299.61 113.859C299.459 113.705 299.653 113.428 299.854 113.557C300.95 114.306 301.904 115.306 302.896 116.205C302.909 116.205 302.909 116.231 302.908 116.243C303.151 116.081 303.382 115.906 303.624 115.769C304.122 115.483 305.146 114.733 305.275 114.531C305.301 114.493 305.34 114.443 305.366 114.392C305.315 114.392 305.251 114.391 305.201 114.314C304.073 113.058 302.83 111.852 301.855 110.47C301.693 110.227 302.051 109.99 302.252 110.17C303.471 111.3 304.496 112.695 305.573 113.963C305.586 113.989 305.585 114.014 305.598 114.04ZM285.577 116.953C283.897 116.262 282.56 115.511 280.676 116.036C278.881 116.537 277.572 117.855 276.729 119.47C275.537 121.754 274.258 129.519 278.359 129.323C278.956 124.749 282.124 119.352 286.449 119.628C286.218 118.674 285.843 117.07 285.577 116.953ZM312.523 117.822C305.321 111.549 297.53 122.923 299.347 129.593C299.384 129.708 299.37 129.822 299.344 129.923C300.167 131.239 301.519 131.787 303.08 131.792C301.922 130.903 300.662 130.014 299.774 128.9C299.636 128.733 299.817 128.443 300.031 128.573C301.38 129.387 302.495 130.669 303.625 131.772C304.311 131.717 305.036 131.56 305.762 131.326C304.992 129.858 303.836 128.792 302.437 127.901C302.172 127.733 302.405 127.368 302.683 127.485C304.261 128.213 305.439 129.622 306.158 131.179C307.024 130.858 307.904 130.436 308.735 129.912C307.994 129.257 307.151 128.562 306.576 127.744C306.476 127.603 306.681 127.415 306.82 127.518C307.638 128.111 308.327 128.982 308.991 129.75C309.86 129.189 310.679 128.538 311.411 127.823C310.664 126.482 309.751 125.266 308.646 124.188C307.453 123.007 306.053 122.256 304.706 121.276C304.504 121.122 304.623 120.742 304.901 120.834C307.911 121.807 310.328 124.727 311.757 127.484C312.489 126.705 313.133 125.862 313.599 124.991C312.599 123.648 311.38 122.543 310.046 121.538C309.794 121.345 310.014 120.954 310.292 121.122C311.742 121.963 312.883 123.169 313.82 124.55C314.899 122.252 314.799 119.801 312.523 117.822ZM289.835 123.282C282.889 115.629 276.038 131.506 282.014 135.125C284.824 136.921 288.301 134.675 290.088 131.445C290.062 131.445 290.024 131.445 289.999 131.419C289.245 130.725 288.466 130.082 287.635 129.489C286.955 129 286.122 128.597 285.557 127.982C285.394 127.789 285.55 127.486 285.803 127.565C286.638 127.803 287.367 128.458 288.034 128.986C288.826 129.617 289.593 130.298 290.308 131.016C290.685 130.259 290.973 129.45 291.134 128.64C289.751 127.469 288.266 126.362 287.075 125.003C286.925 124.837 287.144 124.522 287.345 124.664C288.755 125.694 289.959 127.002 291.202 128.221C291.45 126.447 291.102 124.667 289.835 123.282ZM297.349 125.523C295.852 125.468 294.59 125.949 293.174 126.644C293.149 126.644 293.123 126.669 293.098 126.669C293.252 129.932 291.323 133.325 288.787 135.429C290.784 137.342 292.594 137.768 294.325 137.368C293.822 136.88 293.307 136.392 292.767 135.942C292.113 135.402 291.381 134.975 290.74 134.435C290.577 134.294 290.795 134.106 290.946 134.171C292.36 134.808 293.692 136.067 294.668 137.27C295.139 137.136 295.611 136.938 296.084 136.689C296.058 136.689 296.02 136.663 295.995 136.625C295.247 135.398 294.217 134.511 293.045 133.712C292.844 133.582 292.975 133.216 293.214 133.32C294.617 133.907 295.67 135.086 296.327 136.438C296.34 136.477 296.339 136.527 296.326 136.565C296.862 136.267 297.387 135.904 297.899 135.517C297.292 134.127 296.196 133.353 294.923 132.616C294.696 132.486 294.864 132.158 295.105 132.211C296.612 132.52 297.701 133.89 298.193 135.279C298.987 134.666 299.756 133.976 300.55 133.287C298.856 132.722 297.601 131.414 297.514 128.976C297.515 128.85 297.542 128.748 297.594 128.66C297.313 127.642 297.249 126.575 297.349 125.523Z" fill="#FEFAE8"/>
<path d="M349.671 24.5471C349.7 24.2174 350.195 24.2102 350.191 24.5528C350.05 43.1562 366.767 60.08 360.494 78.8442C360.493 78.8949 360.405 78.8686 360.418 78.8433C365.977 59.2718 347.58 43.8142 349.671 24.5597L349.671 24.5471Z" fill="#FEFAE8"/>
<path d="M326.011 24.8825C325.95 24.7296 326.116 24.6045 326.255 24.6441C326.686 24.7504 327.036 25.173 327.414 25.4183C327.881 25.7154 328.373 25.9366 328.892 26.1073C329.17 26.1865 329.051 26.604 328.773 26.5375C328.203 26.3789 327.647 26.1697 327.13 25.8848C326.726 25.6519 326.171 25.3539 326.011 24.8825Z" fill="#FEFAE8"/>
<path d="M316.321 27.8086C316.158 27.6672 316.377 27.3903 316.553 27.5192C317.208 28.0086 317.824 28.5485 318.44 29.0756C318.616 29.2299 318.359 29.4682 318.183 29.3266C317.554 28.8374 316.912 28.3481 316.321 27.8086Z" fill="#FEFAE8"/>
<path d="M352.72 28.8447C352.597 28.5388 353.107 28.3541 353.243 28.6348C354.968 32.1312 356.654 35.8174 358.223 39.6293C364.266 54.3922 368.461 71.0635 366.284 86.6113C365.333 93.4412 363.154 100.042 359.367 106.168C359.342 106.206 359.279 106.167 359.292 106.129C372.679 79.8288 362.606 54.2088 352.72 28.8447Z" fill="#FEFAE8"/>
<path d="M316.259 30.0416C316.197 29.914 316.3 29.7629 316.452 29.8026C316.882 29.9343 317.233 30.3316 317.572 30.6145C317.974 30.987 318.376 31.3467 318.791 31.7067C319.005 31.8994 318.684 32.2004 318.47 32.0204C318.068 31.686 317.665 31.3643 317.276 31.03C316.923 30.7469 316.457 30.4499 316.259 30.0416Z" fill="#FEFAE8"/>
<path d="M359.702 39.0239C359.703 38.9351 359.831 38.8477 359.906 38.9374C360.469 39.667 360.981 40.434 361.442 41.2133C362.85 43.5893 363.874 46.1896 364.581 48.8371C364.606 48.9262 364.479 48.9502 364.454 48.8738C363.313 45.3331 361.659 42.231 359.714 39.0876C359.702 39.062 359.702 39.0493 359.702 39.0239Z" fill="#FEFAE8"/>
<path d="M311.697 38.6337C311.597 38.493 311.777 38.3173 311.889 38.4454C312.667 39.2916 313.38 40.2005 314.119 41.0844C314.232 41.2252 314.027 41.4133 313.914 41.2852C313.175 40.4014 312.41 39.5426 311.697 38.6337Z" fill="#FEFAE8"/>
<path d="M333.424 46.6784C333.311 46.5756 333.464 46.4377 333.578 46.5151C335.087 47.7247 336.378 49.2492 337.579 50.76C337.642 50.8368 337.539 50.9499 337.464 50.873C336.211 49.3743 334.792 48.0641 333.424 46.6784Z" fill="#FEFAE8"/>
<path d="M319.323 56.0158C319.159 55.849 319.391 55.5343 319.593 55.6888C320.952 56.7064 322.157 57.9126 323.375 59.0936C323.476 59.1835 323.334 59.3851 323.221 59.295C321.887 58.2396 320.515 57.2219 319.323 56.0158Z" fill="#FEFAE8"/>
<path d="M367.582 58.693C367.496 58.3875 367.942 58.2781 368.053 58.5586C369.126 61.3624 369.83 64.2511 370.204 67.1741C371.058 73.7701 370.171 80.512 367.855 86.8446C367.816 86.9457 367.651 86.9057 367.691 86.8046C370.892 77.3091 370.587 68.1683 367.582 58.693Z" fill="#FEFAE8"/>
<path d="M371.87 66.9259C371.874 66.5452 372.446 66.4247 372.569 66.8321C374.208 72.3327 374.945 78.0137 374.883 83.6732C374.752 95.5759 371.08 107.452 364.863 117.625C364.824 117.688 364.736 117.624 364.775 117.573C373.921 101.836 375.545 84.5942 371.881 67.0149C371.882 66.9895 371.882 66.9641 371.882 66.926L371.87 66.9259Z" fill="#FEFAE8"/>
<path d="M332.705 69.2603C332.542 69.1316 332.76 68.8549 332.924 68.9709C334.422 70.0535 335.548 71.5254 336.355 73.1714C336.355 73.1968 336.38 73.2224 336.38 73.2351C336.38 73.2478 336.367 73.2603 336.367 73.273C336.327 73.3741 336.175 73.4232 336.113 73.2956C335.267 71.6999 334.088 70.4052 332.705 69.2477L332.705 69.2603Z" fill="#FEFAE8"/>
<path d="M326.246 72.6156C326.02 72.3974 326.329 71.9947 326.568 72.1877C328.594 73.733 330.415 75.5425 332.082 77.4518C332.909 78.4001 334.023 79.783 332.906 80.9129C332.752 81.0635 332.501 80.8703 332.617 80.6812C333.573 79.1308 330.49 76.7616 329.574 75.8505C328.469 74.7595 327.338 73.7064 326.246 72.6156Z" fill="#FEFAE8"/>
<path d="M314.603 75.4696C314.389 75.2769 314.685 74.8994 314.912 75.0796C317.189 76.8434 318.799 79.3359 319.848 81.9999C319.91 82.1655 319.629 82.2766 319.555 82.1235C318.353 79.534 316.624 77.4463 314.603 75.4696Z" fill="#FEFAE8"/>
<path d="M315.7 80.6978C315.562 80.5186 315.73 80.254 315.957 80.3707C317.446 81.1866 317.918 83.197 317.521 84.7409C317.454 84.994 317.023 84.9385 317.052 84.6723C317.247 83.0881 316.638 81.9138 315.7 80.6978Z" fill="#FEFAE8"/>
<path d="M295.068 84.9245C294.868 84.7319 295.125 84.4428 295.352 84.5595C296.285 85.0648 297.114 85.8227 297.958 86.4539C298.084 86.5441 298.069 86.709 297.992 86.797C297.941 86.8725 297.839 86.8967 297.738 86.8322C296.844 86.2131 295.86 85.6566 295.068 84.9245Z" fill="#FEFAE8"/>
<path d="M327.946 87.6225C327.796 87.4305 328.003 87.1155 328.242 87.2704C329.994 88.3558 331.009 90.6768 331.419 92.623C331.467 92.8393 331.149 92.9246 331.088 92.7082C330.832 91.7282 330.437 90.7973 329.888 89.941C329.326 89.0718 328.585 88.4164 327.946 87.6225Z" fill="#FEFAE8"/>
<path d="M361.377 90.8594C361.442 90.6571 361.733 90.7491 361.68 90.9389C360.472 95.7482 358.796 100.413 356.679 104.869C348.024 123.239 332.261 138.243 313.806 146.479C313.806 146.479 313.781 146.479 313.768 146.479C313.705 146.478 313.655 146.363 313.732 146.326C337.293 135.317 353.491 115.38 361.377 90.8467L361.377 90.8594Z" fill="#FEFAE8"/>
<path d="M325.29 93.7102C325.126 93.5941 325.219 93.2779 325.434 93.3564C327.216 94.0233 328.399 96.0416 328.277 97.9185C328.275 98.0961 327.982 98.1563 327.946 97.9529C327.675 96.097 326.775 94.818 325.29 93.7102Z" fill="#FEFAE8"/>
<path d="M310.327 93.7354C310.126 93.5682 310.408 93.3175 310.609 93.472C311.767 94.3858 312.63 95.5502 313.236 96.9022C313.336 97.119 313.003 97.3184 312.892 97.0888C312.284 95.7876 311.408 94.6738 310.327 93.7354Z" fill="#FEFAE8"/>
<path d="M368.975 94.6237C369.093 94.2697 369.624 94.4278 369.532 94.7822C366.064 109.986 357.594 124.271 346.76 135.37C341.228 141.046 334.85 146.28 327.493 149.372C319.805 152.599 311.275 152.708 303.415 155.413C303.365 155.413 303.327 155.336 303.378 155.324C310.123 152.492 317.424 152.154 324.315 149.857C332.506 147.117 339.483 141.597 345.514 135.572C357.089 124.012 364.21 110.105 368.975 94.6237Z" fill="#FEFAE8"/>
<path d="M320.67 105.233C320.431 105.04 320.651 104.637 320.929 104.805C322.656 105.852 323.843 107.502 324.521 109.388C324.619 109.643 324.212 109.74 324.101 109.497C323.397 107.738 322.168 106.354 320.67 105.233Z" fill="#FEFAE8"/>
<path d="M355.162 115.831C355.162 115.831 355.25 115.781 355.25 115.832C355.249 115.882 355.161 115.881 355.162 115.831Z" fill="#FEFAE8"/>
<path d="M352.41 120.204C352.41 120.204 352.461 120.204 352.448 120.204C345.034 131.925 334.309 141.287 321.532 146.755C314.353 149.836 306.07 150.595 299.338 154.62C294.061 157.772 289.936 162.486 283.472 162.871C283.459 162.871 283.446 162.871 283.447 162.846C283.447 162.82 283.447 162.82 283.472 162.82C290.795 161.683 295.287 155.958 301.717 152.907C305.761 150.985 310.2 150.145 314.515 148.962C315.953 148.572 317.379 148.143 318.768 147.625C332.735 142.424 344.329 132.628 352.41 120.191L352.41 120.204Z" fill="#FEFAE8"/>
<path d="M278.792 120.051C278.667 119.834 278.886 119.595 279.101 119.649C279.556 119.768 279.92 120.165 280.272 120.461C280.7 120.808 281.102 121.168 281.504 121.528C281.692 121.695 281.448 121.984 281.246 121.855C280.78 121.571 280.339 121.274 279.886 120.964C279.508 120.694 279.028 120.46 278.792 120.051Z" fill="#FEFAE8"/>
<path d="M291.942 120.996C291.69 120.777 292.025 120.362 292.302 120.543C293.688 121.421 294.829 122.677 295.638 124.108C295.75 124.312 295.469 124.537 295.306 124.358C294.279 123.128 293.149 122.037 291.942 120.996Z" fill="#FEFAE8"/>
<path d="M277.076 121.428C276.926 121.249 277.119 121.022 277.321 121.114C277.775 121.36 278.177 121.745 278.567 122.066C279.007 122.427 279.46 122.774 279.9 123.134C280.063 123.276 279.832 123.565 279.656 123.436L278.296 122.406C277.881 122.097 277.415 121.813 277.076 121.428Z" fill="#FEFAE8"/>
<path d="M276.204 124.528C276.016 124.323 276.21 123.995 276.476 124.061C276.956 124.206 277.346 124.541 277.736 124.824L279.059 125.752C279.273 125.907 279.091 126.235 278.852 126.105C278.385 125.846 277.906 125.587 277.439 125.328C277.01 125.095 276.53 124.9 276.204 124.528Z" fill="#FEFAE8"/>
<path d="M285.161 131.696C285.01 131.516 285.217 131.227 285.431 131.369C286.414 132.001 287.255 132.836 288.096 133.644C288.285 133.824 288.027 134.151 287.813 133.997C286.895 133.276 285.938 132.58 285.161 131.696Z" fill="#FEFAE8"/>
<path d="M282.179 132.856C281.965 132.688 282.095 132.385 282.361 132.426C283.767 132.695 285.085 134.03 285.859 135.168C285.971 135.321 285.729 135.484 285.603 135.355C285.076 134.842 284.523 134.354 283.918 133.941C283.351 133.554 282.707 133.268 282.179 132.856Z" fill="#FEFAE8"/>
<path d="M187.4 266.461C198.795 256.269 214.335 251.097 228.724 246.738C243.291 242.305 258.604 239.352 273.899 240.218C280.951 240.626 287.943 241.846 294.644 244.09C302.345 246.675 309.433 250.662 317.595 251.628C318.318 251.712 318.649 252.718 318.161 253.233C306.579 265.479 300.186 281.297 289.837 294.445C280.145 306.75 267.535 316.713 253.386 323.422C240.144 329.698 222.988 335.27 208.406 330.655C194.709 326.328 193.229 316.68 171.268 309.153C160.293 312.382 148.95 313.297 137.224 309.792C136.883 309.687 135.036 305.694 137.385 302.129C145.685 306.726 168.401 303.359 168.428 303.157C170.145 289.076 176.749 275.95 187.388 266.448L187.4 266.461ZM228.624 248.894C217.126 252.308 205.074 256.49 195.14 263.17C193.708 264.132 192.326 265.132 190.994 266.208C179.611 275.335 172.548 288.658 170.587 303.028C175.314 301.392 179.931 299.273 184.384 297.114C185.009 296.816 185.609 296.493 186.222 296.208C191.511 286.114 194.567 276.007 195.898 264.638C195.899 264.549 195.95 264.499 196.026 264.475C196.154 264.425 196.343 264.503 196.329 264.668C196.045 275.44 192.712 286.508 187.102 295.761C191.926 293.339 196.713 290.829 201.487 288.292C206.356 279.526 208.925 270.937 210.102 260.886C210.13 260.633 210.536 260.662 210.546 260.904C210.712 270.056 207.633 279.921 202.598 287.695C208.585 284.5 214.585 281.317 220.659 278.313C224.997 270.442 230.802 260.848 229.277 251.833C229.253 251.706 229.33 251.605 229.432 251.581C229.559 251.532 229.724 251.584 229.773 251.737C231.006 256.116 229.551 260.365 227.995 264.472C226.204 269.224 223.983 273.806 221.208 278.053C222.267 277.531 223.313 277.01 224.372 276.501C229.629 273.983 234.996 271.732 240.4 269.711C241.83 266.592 243.349 263.525 244.489 260.276C245.851 256.394 246.593 252.456 247.513 248.456C247.567 248.164 247.972 248.27 247.943 248.549C247.307 255.598 244.721 263.375 240.973 269.501C244.528 268.195 248.108 266.966 251.725 265.838C256.153 259.021 258.298 252.128 258.744 243.897C258.745 243.744 258.873 243.657 258.975 243.658C259.089 243.659 259.177 243.724 259.188 243.863C259.65 251.458 256.984 259.601 252.323 265.654C257.149 264.172 262.038 262.83 266.95 261.628C268.222 259.04 269.873 256.634 271.082 253.995C272.422 251.078 273.432 248.069 274.518 245.061C274.597 244.833 274.901 244.9 274.975 245.091C274.987 245.129 274.987 245.167 274.974 245.205C274.304 248.358 273.167 251.416 271.827 254.359C270.774 256.657 269.654 259.195 268.146 261.323C271.976 260.401 275.831 259.543 279.698 258.76C280.894 258.444 282.09 258.127 283.287 257.836C284.332 256.273 285.503 254.789 286.498 253.175C287.687 251.234 288.737 249.228 289.762 247.183C289.905 246.906 290.296 247.1 290.204 247.391C288.961 250.829 287.079 254.616 284.585 257.507C289.764 256.232 294.954 255.172 300.153 254.341C300.192 254.291 300.23 254.253 300.294 254.229C300.996 253.906 301.658 253.698 302.198 253.082C302.699 252.504 303.05 251.772 303.121 251.036C303.136 250.833 303.466 250.862 303.477 251.04C303.567 252.082 303.084 253.295 302.263 254.035C305.848 253.516 309.432 253.086 313.014 252.795C308.115 251.637 303.543 249.632 298.805 247.74C291.742 244.895 284.388 243.101 276.794 242.408C275.881 242.322 274.968 242.248 274.042 242.2C269.008 241.89 263.942 242.025 258.911 242.515C250.26 243.333 241.686 245.168 233.372 247.538C231.819 247.991 230.24 248.443 228.662 248.907L228.624 248.894ZM251.052 267.011C238.251 271.197 226.021 276.633 214.047 282.974C200.566 290.11 187.264 298.352 172.977 303.778C161.737 308.07 149.308 309.646 138.265 304.029C136.279 306.914 138.289 308.738 138.262 308.877C171.227 316.335 199.071 293.367 226.789 279.421C239.322 273.113 252.736 267.321 266.569 262.727C266.557 262.689 266.519 262.663 266.507 262.625C264.305 263.172 262.091 263.719 259.902 264.329C256.999 265.135 254.121 266.029 251.268 266.962C251.268 266.975 251.242 267 251.217 267.025C251.165 267.088 251.115 267.062 251.064 267.024L251.052 267.011ZM267.283 262.431C267.283 262.431 267.245 262.468 267.219 262.493C267.385 262.432 267.551 262.37 267.729 262.334C267.576 262.358 267.423 262.394 267.283 262.431ZM265.515 265.14C259.018 267.327 252.608 269.756 246.297 272.39C261.25 272.085 275.612 275.962 288.51 283.592C288.624 283.657 288.545 283.847 288.407 283.769C274.848 276.17 259.771 272.704 244.281 273.345C244.218 273.344 244.167 273.331 244.116 273.318C240.559 274.84 237.039 276.438 233.568 278.087C228.376 280.556 223.245 283.177 218.201 285.977C216.324 287.022 214.434 288.092 212.518 289.188C233.237 289.683 253.527 294.616 272.08 303.907C272.193 303.972 272.115 304.148 271.989 304.096C252.758 295.229 232.265 290.409 211.114 289.985C206.925 292.388 202.646 294.854 198.305 297.23C215.973 298.186 233.897 301.252 250.505 307.4C250.543 307.413 250.516 307.489 250.478 307.476C232.817 302.471 215.355 298.928 196.976 298.002C196.951 298.002 196.938 298.001 196.913 297.988C190.861 301.259 184.673 304.313 178.351 306.731C197.254 307.371 215.743 312.093 232.524 320.933C232.638 320.985 232.56 321.149 232.446 321.11C214.824 312.616 196.054 307.954 176.476 307.598C176.375 307.597 176.299 307.571 176.236 307.52C175.306 307.852 174.363 308.172 173.421 308.478C185.333 311.199 193.521 321.29 204.199 326.636C219.37 334.228 238.319 328.32 252.722 321.499C267.815 314.33 281.122 303.36 290.904 289.787C295.853 282.925 299.958 275.533 304.427 268.399C307.722 263.105 311.243 257.966 315.458 253.279C315.027 253.211 314.609 253.13 314.191 253.049C308.517 254.307 302.857 255.488 297.208 256.733C300.351 257.161 303.412 258.07 306.328 259.435C306.417 259.487 306.365 259.6 306.264 259.561C302.813 258.305 299.268 257.504 295.63 257.083C291.127 258.074 286.635 259.142 282.143 260.272C289.622 261.015 297.019 263.52 303.294 267.575C303.332 267.6 303.344 267.651 303.318 267.702C303.318 267.74 303.267 267.777 303.216 267.739C295.796 263.976 288.32 261.698 280.106 260.808C275.906 261.917 271.73 263.114 267.565 264.477C273.585 265.267 279.588 266.412 285.434 267.949C285.523 267.975 285.508 268.114 285.407 268.088C279.089 266.736 272.768 265.664 266.368 264.857C266.075 264.943 265.783 265.029 265.515 265.127L265.515 265.14Z" fill="#FEFAE8"/>
<path d="M233.543 278.1C233.543 278.1 233.594 278.088 233.619 278.088C242.656 278.048 251.462 279.325 260.035 282.11C260.124 282.15 260.097 282.302 260.008 282.262C251.367 279.819 242.625 278.517 233.652 278.558C233.373 278.555 233.314 278.161 233.543 278.087L233.543 278.1Z" fill="#FEFAE8"/>
</g>
</svg>
