<svg width="364" height="357" viewBox="0 0 364 357" fill="none" xmlns="http://www.w3.org/2000/svg">
<g opacity="0.1">
<path d="M193.846 157.066C203.982 149.183 210.592 137.139 216.362 125.927C222.21 114.578 226.95 102.398 228.523 89.6743C229.247 83.8084 229.278 77.8706 228.431 72.0134C227.451 65.289 225.21 58.869 225.638 51.9948C225.679 51.3834 224.889 50.9642 224.394 51.2967C212.527 59.0373 198.483 61.9684 186.055 68.5641C174.427 74.7425 164.29 83.6617 156.614 94.3276C149.437 104.309 142.255 117.62 143.885 130.31C145.416 142.226 153.171 144.869 156.102 164.063C151.789 172.625 149.324 181.834 150.473 192.01C150.509 192.311 153.539 194.414 156.837 193.006C154.274 185.491 160.474 167.272 160.641 167.281C172.55 167.935 184.397 164.43 193.846 157.066ZM214.558 125.697C210.013 134.666 204.749 143.976 197.73 151.179C196.726 152.214 195.685 153.204 194.6 154.145C185.345 162.18 173.26 166.039 161.08 165.538C163.151 161.892 165.583 158.388 168.045 155.046C168.384 154.578 168.737 154.129 169.071 153.67C178.211 150.794 187.035 149.766 196.636 150.345C196.708 150.349 196.762 150.318 196.793 150.263C196.851 150.161 196.821 149.998 196.684 149.982C187.73 148.63 178.07 149.75 169.574 153C172.303 149.382 175.092 145.81 177.909 142.253C185.894 139.534 193.381 138.683 201.873 139.189C202.087 139.2 202.119 138.863 201.92 138.825C194.378 137.338 185.751 138.428 178.564 141.424C182.101 136.966 185.634 132.493 189.033 127.932C196.195 125.52 205.002 122.152 212.229 124.731C212.333 124.765 212.421 124.717 212.463 124.643C212.521 124.541 212.505 124.398 212.388 124.344C208.949 122.683 205.216 123.261 201.589 123.934C197.388 124.713 193.267 125.867 189.335 127.529C189.921 126.735 190.516 125.946 191.093 125.147C193.969 121.184 196.631 117.101 199.116 112.943C201.91 112.228 204.679 111.427 207.536 110.968C210.946 110.417 214.321 110.382 217.769 110.218C218.018 110.212 217.992 109.868 217.759 109.847C211.829 109.338 205.013 110.321 199.378 112.504C200.996 109.763 202.544 106.995 204.018 104.186C210.323 101.537 216.342 100.79 223.221 101.636C223.344 101.656 223.435 101.561 223.458 101.476C223.472 101.387 223.434 101.304 223.316 101.274C217.102 99.7764 209.97 100.778 204.257 103.722C206.21 99.9611 208.052 96.1377 209.786 92.2662C212.114 91.5956 214.358 90.5975 216.717 89.9807C219.326 89.3095 221.974 88.9161 224.62 88.4608C224.823 88.4279 224.813 88.1658 224.664 88.0825C224.636 88.0669 224.608 88.0513 224.565 88.0634C221.856 88.1543 219.156 88.6402 216.522 89.3101C214.46 89.8368 212.2 90.3872 210.212 91.3218C211.549 88.301 212.839 85.2543 214.068 82.1855C214.513 81.2515 214.949 80.3122 215.375 79.3677C216.822 78.7395 218.227 77.9905 219.71 77.4068C221.49 76.7094 223.315 76.1473 225.154 75.6049C225.406 75.5269 225.3 75.1745 225.045 75.2143C222.018 75.7366 218.603 76.7249 215.829 78.3533C217.655 74.2771 219.312 70.1545 220.779 65.9989C220.828 65.9775 220.868 65.9509 220.894 65.9047C221.27 65.3715 221.536 64.8614 222.127 64.51C222.679 64.1851 223.333 64.0031 223.957 64.0479C224.133 64.0613 224.152 63.7912 224.001 63.7552C223.153 63.5235 222.08 63.7516 221.344 64.3147C222.315 61.4425 223.201 58.5471 223.982 55.6419C224.204 59.8421 225.178 63.9033 226.031 68.0916C227.322 74.332 227.71 80.6518 227.146 87.0105C227.078 87.7775 227 88.5393 226.908 89.3051C226.408 93.5033 225.534 97.6499 224.381 101.726C222.408 108.734 219.605 115.52 216.402 122.021C215.799 123.232 215.186 124.462 214.558 125.697ZM202.938 104.556C197.555 114.483 191.222 123.755 184.185 132.693C176.259 142.743 167.451 152.492 160.815 163.461C155.581 172.092 152.411 182.09 155.402 192.018C152.717 193.232 151.507 191.309 151.388 191.303C150.164 163.049 173.335 143.493 189.031 122.72C196.129 113.329 202.931 103.125 208.808 92.4133C208.836 92.4289 208.854 92.4631 208.882 92.4787C208.104 94.2144 207.311 95.954 206.481 97.6729C205.384 99.9492 204.212 102.184 203.013 104.403C202.998 104.407 202.979 104.42 202.959 104.434C202.905 104.464 202.911 104.517 202.938 104.556ZM209.157 91.8645L209.098 91.9044C209.171 91.7749 209.245 91.6453 209.309 91.5105C209.265 91.632 209.211 91.7483 209.157 91.8645ZM206.647 92.9209C203.864 97.9488 200.895 102.873 197.769 107.684C200.259 95.4138 199.212 83.013 194.829 71.2668C194.791 71.1603 194.622 71.1996 194.663 71.3205C198.913 83.6023 199.523 96.538 196.673 109.204C196.656 109.256 196.668 109.299 196.666 109.347C194.872 112.05 193.029 114.713 191.135 117.336C188.309 121.254 185.373 125.085 182.303 128.83C181.156 130.224 179.985 131.617 178.798 133.038C181.498 115.894 180.458 98.4576 175.546 81.8019C175.509 81.6954 175.349 81.7399 175.372 81.8504C179.823 98.9924 180.736 116.589 177.918 134.069C175.302 137.165 172.625 140.325 170.007 143.554C171.868 128.856 172.012 113.646 169.415 99.0582C169.407 99.0293 169.345 99.031 169.348 99.0692C170.838 114.354 171.15 129.258 169.168 144.535C169.157 144.554 169.171 144.573 169.175 144.588C165.564 149.09 162.112 153.743 159.162 158.592C161.465 142.922 160.337 126.998 155.532 111.879C155.504 111.777 155.358 111.818 155.377 111.914C159.767 127.679 160.801 143.831 158.161 160.007C158.152 160.088 158.163 160.155 158.189 160.218C157.779 160.94 157.369 161.661 156.977 162.393C156.508 152.185 149.397 143.947 146.574 134.37C142.565 120.759 150.295 106.011 158.1 95.1612C166.29 83.7834 177.366 74.4395 190.053 68.3795C196.47 65.3175 203.201 63.0174 209.777 60.3863C214.65 58.447 219.428 56.3081 223.934 53.5281C223.925 53.8891 223.93 54.246 223.936 54.6029C222.045 59.0944 220.216 63.5843 218.342 68.048C218.456 65.3906 218.163 62.7371 217.471 60.1402C217.442 60.0626 217.34 60.091 217.355 60.1725C217.877 63.1986 218.01 66.239 217.813 69.3013C216.315 72.8657 214.764 76.4133 213.153 79.9389C213.664 73.6727 212.695 67.2104 210.281 61.4382C210.264 61.404 210.227 61.3832 210.183 61.3953C210.145 61.3982 210.115 61.43 210.136 61.4786C212.141 68.1438 212.898 74.6338 212.406 81.5334C210.864 84.8294 209.243 88.093 207.494 91.3218C207.743 86.2506 207.698 81.1364 207.305 76.0956C207.299 76.0193 207.18 76.0134 207.18 76.099C207.354 81.5048 207.295 86.8659 207.001 92.2535C206.885 92.4808 206.768 92.708 206.647 92.9209Z" fill="#593401"/>
<path d="M191.129 117.346C191.129 117.346 191.15 117.309 191.151 117.286C192.535 109.849 192.806 102.41 191.78 94.9264C191.766 94.8448 191.632 94.843 191.647 94.9246C192.372 102.398 192.137 109.796 190.755 117.185C190.709 117.416 191.029 117.522 191.129 117.346Z" fill="#593401"/>
<path d="M312.062 190.723C293.618 184.806 274.169 180.737 255.031 182.513C231.162 184.73 210.214 197.422 198.693 218.583C198.527 218.894 198.601 219.17 198.796 219.359C197.876 219.5 196.99 219.726 196.044 219.558C195.403 219.448 194.781 219.211 194.241 218.849C193.928 218.646 193.68 218.384 193.385 218.193C207.151 196.519 231.238 181.989 257.111 180.814C272.294 180.12 287.79 183.383 302.295 187.576C305.586 188.538 308.843 189.592 312.071 190.728L312.062 190.723ZM192.375 218.745C192.746 220.025 194.643 220.706 195.838 220.883C197.188 221.097 198.783 220.974 199.645 219.832C199.703 219.743 199.72 219.64 199.686 219.555C199.843 219.491 200.004 219.38 200.109 219.181C202.045 215.601 204.268 212.283 206.721 209.215C222.886 224.02 246.216 221.226 265.686 215.695C277.802 212.257 289.786 208.301 301.817 204.566C312.905 201.123 323.718 197.906 335.386 198.363C337.938 198.898 336.451 197.454 336.016 197.401C322.587 188.995 310.753 178.272 297.097 170.213C285.7 163.489 272.866 159.31 259.522 159.101C233.986 158.692 209.094 175.074 204.547 201.062C204.486 201.428 204.654 201.676 204.892 201.818C200.038 206.415 195.711 211.606 192.111 217.281C191.825 217.717 192.034 218.195 192.371 218.438C192.352 218.527 192.344 218.636 192.384 218.751L192.375 218.745ZM266.263 213.9C246.357 219.416 224.429 222.596 207.715 207.969C208.254 207.34 208.816 206.715 209.373 206.098C214.058 206.35 218.097 207.2 222.12 209.903C222.245 209.984 222.394 209.815 222.272 209.71C218.874 207.005 214.318 205.213 209.897 205.511C212.894 202.275 216.196 199.388 219.739 196.835C229.853 198.633 238.638 203.085 246.062 210.22C246.158 210.307 246.286 210.149 246.191 210.062C239.189 202.769 230.298 198.071 220.341 196.4C225.54 192.736 231.241 189.803 237.314 187.643C248.714 191.795 258.307 201.626 265.684 210.875C265.747 210.953 265.83 210.943 265.879 210.887C265.909 210.842 265.92 210.786 265.884 210.725C259.704 201.592 249.415 190.841 238.403 187.282C244.799 185.116 251.564 183.784 258.549 183.343C258.647 183.33 258.748 183.332 258.839 183.327C265.896 187.523 271.584 192.991 276.547 199.51C276.613 199.604 276.739 199.508 276.676 199.429C272.289 192.711 266.428 187.449 259.615 183.309C265.669 182.988 271.601 183.261 277.466 183.985C285.037 189.3 290.259 195.773 295.057 203.555C295.081 203.596 295.119 203.596 295.143 203.598C295.208 203.577 295.258 203.52 295.23 203.465C291.926 195.658 285.876 189.069 278.972 184.173C283.946 184.841 288.887 185.791 293.771 186.946C297.705 189.96 300.439 193.542 302.817 197.845C302.905 198.003 303.152 197.858 303.094 197.694C301.437 193.515 298.445 189.957 294.887 187.224C302.395 189.037 309.82 191.289 317.247 193.595C318.289 194.649 319.103 195.758 319.612 197.217C319.652 197.331 319.823 197.264 319.783 197.15C319.392 195.92 318.746 194.728 317.836 193.785C321.389 194.891 324.948 195.988 328.51 197.062C321.888 197.357 315.301 199.058 308.964 200.92C304.488 202.236 300.027 203.586 295.572 204.966C288.89 207.025 282.227 209.133 275.552 211.182C272.538 212.111 269.432 213.045 266.266 213.914L266.263 213.9ZM211.299 196.348C209.55 197.677 207.868 199.1 206.227 200.576C210.754 176.895 232.255 162.405 255.133 160.828C258.693 160.582 262.274 160.653 265.838 161.043C273.933 161.941 281.21 164.301 288.016 167.536C292.933 169.866 297.605 172.647 302.182 175.671C299.877 179.621 296.706 181.781 292.81 183.649C287.323 182.307 281.723 181.158 276.076 180.372C281.406 178.531 285.474 174.377 287.351 169.059C287.374 169.023 287.353 168.997 287.332 168.971C287.296 168.947 287.249 168.942 287.229 168.992C284.969 174.545 280.705 178.356 275.041 180.223C271.689 179.78 268.331 179.485 264.974 179.343C268.276 177.04 270.649 173.337 271.995 169.667C272.033 169.589 271.914 169.538 271.876 169.615C269.952 173.761 267.201 176.484 263.839 179.307C260.151 179.204 256.473 179.299 252.823 179.664C250.08 179.945 247.368 180.373 244.676 180.927C249.969 176.575 253.551 170.421 254.406 163.592C254.42 163.512 254.36 163.448 254.309 163.428C254.235 163.405 254.129 163.451 254.103 163.549C252.418 170.753 248.947 176.6 243.104 181.229C243.104 181.229 243.092 181.247 243.08 181.265C237.682 182.491 232.461 184.302 227.45 186.59C228.615 185.238 229.509 183.445 230.304 182.133C232.681 178.229 234.471 174.073 235.762 169.709C235.797 169.617 235.66 169.554 235.626 169.645C234.46 172.709 233.144 175.713 231.577 178.593C230.222 181.091 227.666 186.552 224.693 187.788C224.578 187.827 224.519 187.916 224.509 188.011C220.395 190.094 216.449 192.526 212.736 195.261C215.462 190.708 217.301 185.835 218.014 180.526C218.034 180.399 217.844 180.378 217.821 180.49C216.561 186.092 214.503 191.356 211.351 196.191C211.321 196.236 211.307 196.277 211.302 196.324L211.299 196.348ZM295.28 184.27C294.808 184.155 294.336 184.04 293.87 183.916C297.602 182.474 300.658 179.302 302.522 175.89C305.704 178.012 308.86 180.23 311.987 182.494C318.813 187.391 325.611 192.447 332.85 196.85C327.136 195.602 321.865 193.094 316.37 190.947C316.586 190.948 316.817 190.945 317.051 190.957C318.799 190.971 320.527 190.859 322.269 190.628C322.376 190.621 322.36 190.471 322.244 190.472C320.518 190.561 318.786 190.582 317.059 190.518C316.297 190.494 315.538 190.409 314.768 190.342C311.925 189.278 309.06 188.287 306.163 187.364C308.417 186.45 310.338 184.915 311.804 182.909C311.833 182.864 311.806 182.808 311.753 182.812C311.753 182.812 311.726 182.833 311.721 182.842C309.973 184.87 307.837 186.266 305.376 187.109C302.036 186.065 298.671 185.119 295.286 184.261L295.28 184.27Z" fill="#593401"/>
<path d="M305.482 173.291C305.563 173.42 305.793 173.302 305.717 173.164C304.324 170.448 302.294 168.12 299.931 166.186C299.838 166.113 299.721 166.253 299.808 166.335C302.028 168.43 303.814 170.74 305.473 173.285L305.482 173.291Z" fill="#593401"/>
<path d="M106.433 166.201C105.944 165.93 105.256 166.727 105.754 167.094C141.256 193.309 181.008 219.071 194.859 230.404C223.937 254.217 272.181 313.336 272.59 313.364C275.412 313.335 279.71 311.02 278.3 308.612C262.654 281.864 236.493 250.937 209.094 229.294C193.163 216.715 176.213 205.498 158.859 194.978C142.104 184.838 106.645 166.224 106.433 166.201ZM153.474 198.593C138.172 189.021 122.891 179.879 109.039 168.329C141.91 185.82 174.687 205.757 204.161 228.462C233.084 250.757 263.882 283.962 276.332 309.858C275.747 310.841 274.783 311.563 273.693 311.877C273.736 311.337 227.181 254.712 199.268 231.654C184.735 219.643 169.469 208.58 153.472 198.582L153.474 198.593Z" fill="#593401"/>
<path d="M34.7278 55.8609C33.6145 55.6265 32.5305 55.5379 31.4743 55.964C24.3777 58.8014 23.8379 69.3883 22.6367 73.517C20.1949 81.9558 16.2439 89.8701 13.9862 98.359C6.78786 125.33 18.6431 154.972 42.7613 169.319C53.9599 175.975 66.6614 178.973 79.6314 178.396C84.2135 178.192 88.2769 178.221 92.7661 179.39C95.7046 180.151 98.6726 181.221 101.752 181.066C105.253 180.892 108.73 180.279 111.032 174.978C111.057 174.94 111.082 174.903 111.105 174.855C112.151 174.702 113.228 174.109 113.948 173.576C115.286 172.552 116.086 171.18 116.214 169.551C116.736 168.851 117.095 167.989 117.193 167.07C117.479 164.282 115.091 162.209 114.074 159.863C112.298 155.75 113.501 150.928 113.283 146.614C112.529 131.342 106.256 115.723 99.3313 102.215C88.3168 80.73 71.0717 63.8935 46.5685 60.0378C43.1071 59.4885 35.7721 56.0766 34.7278 55.8609ZM28.849 62.9544C29.3779 54.0387 40.0239 60.4357 44.6614 61.207C49.5436 62.0056 54.2772 62.6603 58.9491 64.411C79.039 71.9486 92.3725 89.9398 100.874 108.835C105.449 119.004 109.567 129.816 111.168 140.878C111.964 146.334 110.761 152.013 111.643 157.354C111.939 159.095 112.64 160.408 113.505 161.949C114.01 162.835 114.827 163.756 115.161 164.709C117.375 171.044 110.542 169.58 110.345 169.414C109.796 168.959 109.042 169.856 109.532 170.344C111.088 171.911 111.482 178.768 100.797 173.907C98.0427 172.654 95.3173 171.493 92.4289 170.549C87.3533 168.9 82.234 167.465 77.2564 165.547C66.192 161.282 55.5696 155.487 46.8888 147.346C39.2823 140.216 33.2913 131.119 30.4379 121.075C27.5656 110.991 29.1716 101.537 30.8586 91.4596C31.6241 86.897 32.2723 82.2384 31.8471 77.5975C31.3819 72.5961 28.5505 67.9446 28.849 62.9544ZM27.3428 61.1505C27.1511 61.9255 27.0598 62.7131 27.0501 63.4736C27.0062 67.839 29.5504 71.9297 30.174 76.2061C30.6585 79.5238 30.4986 82.8826 30.1231 86.1974C29.4159 92.5583 27.7356 98.7871 27.2836 105.173C25.507 130.495 44.2519 151.098 65.6089 161.95C77.1499 167.823 89.7805 171.063 101.68 176.019C102.287 176.278 102.934 176.518 103.583 176.715C105.092 177.185 106.676 177.434 108.086 177.09C103.378 183.247 91.6549 177.064 85.2249 176.897C77.416 176.689 70.129 177.397 62.4064 175.622C48.3677 172.412 35.4291 164.519 26.5191 153.194C20.5505 145.61 16.518 136.623 14.5963 127.207C13.2086 120.383 12.9297 113.34 13.8226 106.444C14.5993 100.481 16.4664 94.8545 18.5282 89.2763C19.3483 87.033 20.2018 84.7938 21.0324 82.5484C22.2824 79.1469 23.5072 75.7287 24.3868 72.2164C25.1621 69.1583 25.1507 63.9802 27.3428 61.1505ZM111.453 170.754C111.566 170.775 111.679 170.796 111.781 170.819C111.951 170.851 112.11 170.884 112.28 170.916C113.353 171.277 114.378 171.074 115.211 170.508C114.774 171.364 114.181 172.143 113.438 172.723C112.909 173.121 112.32 173.433 111.686 173.634C112.005 172.628 111.937 171.645 111.453 170.754Z" fill="#593401"/>
<path d="M47.0654 67.2894C45.5801 67.2046 43.9615 67.753 43.1512 69.0731C42.2969 70.4453 42.5893 72.0561 43.0886 73.5067C38.1447 74.877 39.4645 83.1434 41.3234 86.6433C38.1457 90.6759 40.7267 98.8872 43.4955 102.207C43.5018 102.238 43.5478 102.251 43.575 102.278C41.355 108.147 45.5796 117.658 50.6528 120.217C50.1377 121.814 50.062 123.596 50.4025 125.229C51.3567 129.743 55.4245 133.141 59.399 135.214C58.7273 137.113 58.6289 139.159 59.505 140.86C61.3137 144.381 66.3511 146.6 70.2759 147.133C69.4333 151.798 74.453 155.169 78.295 156.531C79.8874 157.093 82.0527 157.26 83.8157 156.781C85.7859 158.568 88.5091 160.26 91.2702 160.092C93.1925 159.971 95.7099 158.757 95.8417 156.607C98.6125 157.835 101.034 156.791 102.663 154.192C103.29 153.31 103.353 151.953 103 150.474C104.186 150.369 105.185 149.39 105.546 148.159C106.163 146.097 105.261 143.459 104.247 141.666C103.222 139.821 101.574 138.284 99.4485 137.882C99.189 137.836 98.9212 137.802 98.6472 137.792C99.2582 133.759 98.3667 129.124 95.0317 126.448C93.5872 125.271 91.844 124.609 90.07 124.495C90.9103 119.604 89.5011 114.021 84.6018 111.785C83.6433 111.346 82.5072 111.16 81.3421 111.207C81.9629 106.413 80.3968 100.753 75.6523 98.5836C75.2568 98.402 74.8257 98.2599 74.3926 98.1615C75.2237 94.5725 74.3326 90.3172 71.2448 88.0037C70.219 87.2318 68.9844 86.7722 67.7103 86.6022C68.5676 82.0111 65.0118 78.1325 60.7731 77.6075C60.9422 72.947 56.6042 69.2342 52.04 69.5214C51.7513 69.5462 51.6009 69.7168 51.5551 69.921C50.5223 68.4678 49.08 67.4101 47.0654 67.2894ZM45.0964 68.9042C46.1439 68.3281 47.5728 68.4566 48.6255 68.9305C51.1954 70.0789 51.9014 73.2549 52.7175 75.6829C51.3994 75.4566 50.0754 75.6323 49.1496 76.5419C48.7596 75.579 48.1814 74.7617 47.3901 74.1817C48.1048 73.4657 48.9116 72.7207 49.3793 71.8586C49.4858 71.6857 49.289 71.5189 49.1281 71.6375C48.3233 72.2305 47.6715 73.1508 47.0427 73.9689C46.2745 73.5036 45.3329 73.2568 44.195 73.3307C43.6851 71.7738 43.4218 69.8214 45.0964 68.9042ZM52.0851 70.7694C52.1521 70.7778 52.2211 70.7967 52.2964 70.7926C56.1912 70.5297 59.4369 73.7872 59.7167 77.546C58.8046 77.5535 57.8885 77.7026 56.9894 78.0434C56.6396 77.6576 56.2732 77.2968 55.8524 76.9901L55.551 76.7898C56.0004 76.3757 56.4476 75.9511 56.8425 75.4827C56.9553 75.3411 56.7502 75.1867 56.6289 75.2866C56.1231 75.6903 55.6822 76.1461 55.2433 76.6124C54.7619 76.3286 54.2115 76.0802 53.6424 75.9005C53.6528 75.8442 53.661 75.7775 53.6484 75.715C53.4063 74.0834 52.9234 72.2828 52.0851 70.7694ZM43.734 74.6574C46.6097 73.9789 48.4056 77.1663 48.6149 79.4437C48.7904 81.3377 48.1708 83.1185 48.1099 84.9727C46.9923 84.3924 45.6805 84.2516 44.1268 84.7438C43.33 84.9993 42.6756 85.3675 42.1155 85.8253C42.0023 85.5877 41.8953 85.3271 41.7842 85.0457C42.1825 83.7856 42.8697 82.7175 43.6573 81.6619C43.7534 81.5454 43.5712 81.3973 43.4709 81.493C42.5534 82.3359 41.9897 83.4771 41.6415 84.6622C41.3437 83.8327 41.0854 82.8762 40.9066 81.8822C41.22 81.495 41.5209 81.0994 41.8343 80.7122C42.2062 80.2375 42.6345 79.7733 42.8829 79.2256C42.9435 79.0944 42.7635 79.0109 42.659 79.0858C42.2012 79.4583 41.8545 80.0038 41.4931 80.4764C41.2716 80.7804 41.0481 81.0739 40.8245 81.3675C40.7044 80.5027 40.6576 79.6235 40.7321 78.8069C41.3631 78.1074 42.0172 77.4143 42.5959 76.671C42.7004 76.542 42.491 76.3667 42.3823 76.4749C41.8244 77.0515 41.3041 77.6531 40.7964 78.2631C41.0645 76.5195 41.9082 75.0952 43.734 74.6574ZM49.456 77.4673C52.0032 76.8322 54.1244 76.8343 56.0866 79.0134C57.7829 80.8985 58.1892 83.5053 58.9488 85.8687C56.1075 85.3159 52.8659 86.1753 51.27 88.5072C51.0353 88.0445 50.7629 87.6108 50.4822 87.1897C51.1798 86.0653 51.8982 84.9368 52.4828 83.7373C52.5517 83.5936 52.3257 83.4976 52.2421 83.6225C51.5173 84.6656 50.8971 85.7963 50.2748 86.9166C49.7784 86.2348 49.2172 85.6634 48.5767 85.2378C48.6727 85.067 48.7541 84.8775 48.8481 84.6963C48.867 84.7901 49.0135 84.8694 49.0929 84.7778C50.144 83.6267 51.3771 82.5153 52.246 81.2161C52.363 81.0412 52.1264 80.8389 51.9592 80.9804C50.8243 81.9856 49.9156 83.3035 48.9566 84.4798C49.3991 83.4385 49.6719 82.2032 49.7522 80.9303C50.3225 80.1454 50.9913 79.471 51.6976 78.7675C51.8147 78.6467 51.6826 78.4237 51.5279 78.5194C50.8318 78.95 50.2676 79.5495 49.785 80.2303C49.7904 79.2865 49.6869 78.3426 49.456 77.4673ZM57.7685 79.0484C62.8506 77.8782 66.8015 81.4511 66.6831 86.5242C65.269 86.5228 63.8552 86.9006 62.693 87.7162C62.3643 87.4346 62.0272 87.1655 61.663 86.9235C61.5018 86.8254 61.3323 86.7398 61.1732 86.6522C61.9067 85.9216 62.6213 85.0972 63.1895 84.2477C63.2605 84.1144 63.0888 83.9643 62.9801 84.0725C62.2236 84.7968 61.5383 85.6587 60.9304 86.5269C60.6039 86.3641 60.2482 86.2179 59.8883 86.1051C59.8775 85.7821 59.8458 85.4633 59.812 85.1341C60.4074 84.3117 61.0571 83.4894 61.506 82.5877C61.577 82.4544 61.4074 82.2604 61.2945 82.402C60.699 83.0619 60.2145 83.8406 59.7383 84.6069C59.4686 82.6773 58.8579 80.6745 57.7685 79.0484ZM43.1877 87.0431C46.7117 84.1338 49.0698 86.7654 50.4581 90.3587C50.4581 90.3587 50.4623 90.3795 50.4435 90.394C50.3873 90.6544 50.5088 90.8795 50.6951 90.9943C51.5343 93.4286 51.9553 96.1626 51.9989 97.8877C50.9254 97.5804 49.7456 97.5542 48.4992 97.8989C46.3451 98.4885 44.905 99.7059 44.0259 101.278C43.6968 100.617 43.3341 99.844 42.984 99.0248C42.9945 99.0227 43.0007 98.9999 42.9986 98.9894C43.2982 97.348 44.1504 95.9654 45.3165 94.7914C45.4878 94.6166 45.2491 94.3497 45.0631 94.5057C43.7901 95.5275 43.0657 97.0039 42.81 98.5934C41.2205 94.7041 40.0461 89.6381 43.1877 87.0431ZM51.9556 90.0726C54.3917 87.0539 58.0639 85.9032 61.5495 88.5714C61.5893 88.6068 61.6186 88.6444 61.6668 88.6674C65.7583 92.7758 64.8123 96.55 64.0128 100.295C61.4018 100.022 58.8257 101.053 57.73 103.6C57.3149 102.674 56.8015 101.801 56.2213 101.027C56.7139 99.9111 57.489 98.9556 58.5154 98.2753C58.6576 98.1713 58.5444 97.9336 58.3876 98.0189C57.2606 98.6324 56.4562 99.6046 56.0579 100.811C55.2829 99.8264 54.3889 99.0067 53.3863 98.4578C53.3922 98.0557 53.3855 97.5911 53.3662 97.1181C54.0743 96.1 54.8515 95.1007 55.4362 94.0095C55.5093 93.8867 55.346 93.7782 55.2478 93.8843C54.5332 94.7629 53.9506 95.7561 53.3407 96.7222C53.2897 95.8763 53.18 94.9553 53.0096 94.003C53.7763 93.0058 54.6058 91.9961 55.1675 90.8987C55.2468 90.7529 55.0625 90.5402 54.9288 90.686C54.1493 91.5123 53.5332 92.5013 52.9149 93.48C52.6837 92.3338 52.373 91.171 51.9556 90.0726ZM63.6918 88.7318C65.9413 87.3756 68.8723 87.6722 70.8949 89.5034C73.3048 91.6913 73.6238 94.9439 73.2126 97.9728C70.6834 97.7808 68.0005 98.822 66.892 101.144C66.4797 100.933 66.057 100.779 65.628 100.647C65.6699 100.639 65.7117 100.63 65.7368 100.593C66.6116 98.9457 67.7461 97.5071 69.002 96.1312C69.1357 95.9855 68.9514 95.7728 68.8051 95.9102C67.3755 97.1797 66.3249 98.7642 65.5086 100.486C65.4878 100.545 65.5297 100.591 65.5694 100.626C65.3372 100.553 65.1049 100.48 64.8664 100.43C65.7434 98.847 66.1203 97.0493 66.0767 95.2699C66.8498 94.3581 67.6898 93.4547 68.3352 92.449C68.425 92.3012 68.2198 92.0927 68.0861 92.2384C67.3317 93.0273 66.7029 93.9538 66.0679 94.8491C66.0233 94.1428 65.9222 93.426 65.7395 92.7362C65.7813 92.7279 65.8232 92.7195 65.8587 92.68C66.4332 91.9159 67.0872 91.1686 67.5738 90.3461C67.672 90.1858 67.4542 89.9689 67.3226 90.125C66.6936 90.8349 66.1882 91.6719 65.6514 92.461C65.2463 91.1001 64.6049 89.8078 63.6918 88.7318ZM48.045 99.8527C55.6037 96.3494 60.136 110.351 56.2959 115.251C55.819 115.313 55.3548 115.438 54.8759 115.598C53.1131 116.24 51.8634 117.539 51.1035 119.109C49.9458 118.222 48.7459 116.857 47.6732 115.26C47.9936 113.451 48.7055 112.021 50.0702 110.699C50.2353 110.547 50.0259 110.318 49.8461 110.451C48.4895 111.435 47.5289 113.143 47.4051 114.847C46.9253 114.086 46.4685 113.277 46.0723 112.445C46.0723 112.445 46.0576 112.427 46.0555 112.416C45.6887 111.622 45.3511 110.811 45.0867 109.986C45.7167 108.203 46.7235 106.725 47.7072 105.132C47.8137 104.959 47.5959 104.742 47.4413 104.892C46.2229 106.076 45.4338 107.717 44.8915 109.342C43.8146 105.459 44.2793 101.618 48.0472 99.8631L48.045 99.8527ZM68.0453 101.847C70.3039 99.0263 73.8135 98.4714 76.7864 100.97C79.8787 103.576 80.2068 107.52 80.4092 111.272C77.8596 111.626 75.4386 113.103 75.0457 115.63C74.5918 115.59 74.1525 115.569 73.7111 115.591C74.1016 114.885 74.1573 114.083 74.0686 113.266C74.2709 112.652 74.4983 112.054 74.8262 111.469C75.2773 110.686 75.8833 110.024 76.4976 109.35C76.6042 109.231 76.4618 109.064 76.3301 109.166C75.2431 109.923 74.395 111.164 73.9319 112.481C73.8015 111.835 73.5834 111.184 73.3715 110.565C73.7196 109.38 74.3609 108.408 75.2344 107.509C75.3514 107.388 75.2194 107.165 75.0647 107.261C74.0905 107.876 73.4493 108.903 73.1847 110.017C72.9771 109.419 72.7589 108.823 72.5199 108.231C72.841 107.181 73.4321 106.284 74.1781 105.453C74.339 105.281 74.1107 105.012 73.9247 105.168C73.0928 105.842 72.5979 106.785 72.3458 107.8C72.0732 107.149 71.7797 106.503 71.436 105.878C71.5539 104.468 72.2893 103.477 73.2296 102.423C73.3695 102.255 73.2124 101.961 72.997 102.079C71.8429 102.72 71.2565 104.071 71.1385 105.373C70.4407 104.179 69.6008 103.088 68.5163 102.187C68.3698 102.054 68.2086 101.956 68.0432 101.837L68.0453 101.847ZM58.6939 105.305C61.4543 98.0177 67.462 102.19 69.7624 105.776C71.2269 108.076 73.7943 112.985 72.3725 115.748C69.1997 116.356 66.541 118.595 65.9816 121.913C65.9376 121.803 65.8056 121.634 65.6067 121.402C65.2971 119.275 65.8705 117.427 67.2976 115.768C67.4376 115.6 67.1822 115.412 67.0317 115.528C65.4536 116.816 64.778 119.074 65.2737 121.046C63.8518 119.551 60.6966 116.741 58.7876 115.472C58.8085 115.468 58.8252 115.443 58.8294 115.41C59.2087 114.002 59.923 112.853 60.6476 111.593C60.7625 111.407 60.5028 111.145 60.344 111.328C59.3556 112.412 58.8404 113.902 58.5489 115.314C58.2643 115.143 58.0152 114.986 57.8039 114.909C57.8072 114.063 59.7765 110.671 58.6939 105.305ZM52.6725 119.177C55.3062 114.927 60.8807 116.737 63.3252 120.121C64.3516 121.543 67.0287 127.373 65.3153 129.338C64.4473 129.51 63.5838 129.865 62.779 130.458C61.5979 131.343 60.5596 132.665 59.8394 134.162C59.4793 133.887 59.1067 133.603 58.7319 133.309C58.7404 131.248 59.3999 129.72 60.3918 127.952C60.4795 127.794 60.3015 127.612 60.1531 127.739C58.7611 128.979 58.1713 131.123 58.2923 132.963C57.1304 132.055 55.9475 131.044 54.89 129.953C54.911 129.949 54.9255 129.913 54.9276 129.87C54.8195 128.471 55.199 127.226 55.8651 125.999C55.9507 125.831 55.7226 125.67 55.6139 125.833C54.8139 126.988 54.5768 128.4 54.7246 129.78C51.9186 126.814 50.1642 123.24 52.6725 119.177ZM76.4246 115.888C78.4022 112.483 82.0387 111.209 85.6248 113.944C88.9178 116.466 89.3591 120.648 89.2437 124.496C87.884 124.549 86.5372 124.935 85.3477 125.724C85.2028 125.167 84.9994 124.59 84.7561 124.032C85.0815 123.003 85.7689 122.151 86.6845 121.569C86.7807 121.506 86.7073 121.358 86.5986 121.412C85.6159 121.878 84.9641 122.744 84.6241 123.754C84.297 123.05 83.9052 122.347 83.4652 121.676C84.0103 120.712 84.6683 119.823 85.2385 118.875C85.3283 118.728 85.1273 118.54 85.0019 118.673C84.2244 119.402 83.6899 120.364 83.2453 121.34C82.7362 120.596 82.1602 119.898 81.5739 119.255C81.6053 119.249 81.6471 119.241 81.6847 119.212C82.0191 118.874 82.3534 118.537 82.6983 118.198C83.0055 117.888 83.3608 117.601 83.5927 117.24C83.7075 117.055 83.4793 116.894 83.3267 117.001C82.9672 117.267 82.6852 117.648 82.3926 117.977C82.0792 118.31 81.7783 118.651 81.4753 118.982C81.4398 119.022 81.4377 119.065 81.4482 119.118C80.9331 118.559 80.3971 118.058 79.8779 117.641C79.1765 117.076 78.5004 116.635 77.881 116.368C77.4038 116.159 76.9163 116.007 76.4246 115.888ZM67.2074 123.946C66.6553 117.759 73.5395 115.495 78.1986 118.104C81.4867 119.955 85.7185 126.214 83.6117 130.164C83.1346 130.064 82.6618 129.984 82.189 129.959C78.6975 129.795 76.3127 131.882 75.4367 134.548C75.3844 134.504 75.2756 134.45 75.1437 134.389C75.444 131.35 76.7365 128.862 79.1192 126.872C79.2969 126.728 79.0916 126.412 78.8993 126.536C76.3509 128.19 74.7766 131.222 74.8633 134.239C74.4175 134.024 73.7729 133.686 73.0214 133.196C73.0702 131.766 73.6086 130.446 74.53 129.353C74.67 129.185 74.3832 128.949 74.239 129.097C73.2276 130.175 72.7415 131.539 72.7304 132.993C71.9831 132.47 71.1708 131.786 70.3834 130.901C70.943 129.902 71.5047 128.913 72.0037 127.882C72.0893 127.713 71.8005 127.575 71.7128 127.734C71.1678 128.698 70.6708 129.685 70.174 130.672C69.2147 129.529 68.3431 128.066 67.7535 126.221C68.5748 125.441 69.2998 124.56 69.826 123.557C69.9429 123.328 69.6121 123.09 69.4743 123.323C68.9459 124.208 68.3401 125.032 67.6191 125.771C67.4596 125.196 67.3063 124.598 67.2074 123.946ZM85.9199 126.889C88.949 124.815 92.9915 125.769 95.2889 128.477C97.4963 131.063 97.8323 134.562 97.7372 137.81C96.2417 137.944 94.7508 138.586 94.2187 139.992C94.2125 140.015 94.2167 140.035 94.2105 140.058C94.0257 139.412 93.7678 138.781 93.4681 138.158C93.9501 136.989 94.6395 136.04 95.5674 135.141C95.6573 135.047 95.5525 134.851 95.4271 134.93C94.4173 135.585 93.6632 136.645 93.2732 137.784C92.9022 137.078 92.4497 136.398 91.9365 135.741C91.9888 135.731 92.0411 135.721 92.0515 135.664C92.479 134.333 93.342 133.382 94.4059 132.51C94.5731 132.369 94.3783 132.104 94.1902 132.195C92.8855 132.844 92.0898 134.183 91.8046 135.572C91.2181 134.822 90.5438 134.121 89.8278 133.483C90.043 133.202 90.2581 132.921 90.4629 132.642C90.7637 132.246 91.1064 131.842 91.2837 131.374C91.3338 131.245 91.1601 131.138 91.0577 131.223C90.6898 131.556 90.4372 132.029 90.1719 132.439C89.9923 132.735 89.8001 133.022 89.6205 133.318C88.8166 132.621 87.9416 132.004 87.0457 131.499C87.6434 130.849 88.22 130.15 88.6816 129.419C88.8111 129.198 88.5138 128.91 88.3257 129.11C87.7071 129.764 87.1535 130.524 86.6564 131.294C85.9762 130.941 85.2961 130.643 84.6097 130.421C85.4058 129.462 85.7966 126.979 85.9199 126.889ZM61.6468 134.172C64.09 129.841 68.3156 129.87 71.5468 133.38C74.0807 136.128 75.571 139.149 73.5935 142.77C72.3035 143.437 71.2376 144.461 70.647 145.846C70.3352 145.756 70.0235 145.666 69.6991 145.568C69.6991 145.568 69.6991 145.568 69.6949 145.547C69.7772 144.122 70.3785 142.952 71.2434 141.849C71.3563 141.707 71.1469 141.532 71.0173 141.644C69.9284 142.608 69.4257 144.051 69.4083 145.474C68.6299 145.228 67.8347 144.952 67.0625 144.628C67.0949 143.603 67.6066 142.797 68.3862 142.133C68.5618 141.979 68.3628 141.694 68.1558 141.8C67.1564 142.291 66.647 143.378 66.646 144.451C66.0977 144.213 65.5682 143.96 65.0554 143.682C65.276 142.566 65.7374 141.618 66.2322 140.567C66.3365 140.329 65.9871 140.214 65.8575 140.381C65.145 141.216 64.8219 142.363 64.687 143.474C63.9963 143.069 63.3641 142.631 62.7988 142.147C63.4562 140.499 64.4862 139.19 65.6396 137.845C65.7963 137.651 65.4948 137.451 65.3234 137.572C63.9333 138.606 63.0291 140.216 62.4785 141.853C60.5396 140.005 59.7548 137.516 61.6363 134.174L61.6468 134.172ZM77.8615 141.23C72.8671 135.827 79.5293 129.012 85.7184 132.52C89.6596 134.752 93.5103 138.528 93.6132 143.243C92.9421 143.582 92.2753 144.105 91.6359 144.871C90.5995 146.095 90.1448 147.399 90.1105 148.684C88.9009 148.133 87.4575 148.148 86.1734 148.522C85.9994 148.09 85.7731 147.669 85.5258 147.252C86.292 145.659 87.3324 144.294 88.5297 143.005C88.7283 142.803 88.456 142.478 88.2344 142.674C86.9198 143.812 85.9737 145.322 85.3288 146.923C84.759 146.039 84.072 145.222 83.2869 144.511C84.5281 143.116 85.8551 141.769 86.9665 140.27C87.0856 140.106 86.8385 139.905 86.7027 140.041C85.3819 141.364 84.2392 142.87 83.0482 144.298C82.3133 143.674 81.5326 143.146 80.7122 142.745C81.4142 141.913 82.2062 141.095 82.7785 140.158C82.8787 140.008 82.6756 139.81 82.5293 139.947C81.7415 140.732 81.1107 141.702 80.4317 142.595C80.4212 142.597 80.4254 142.618 80.4275 142.628C80.2015 142.532 79.9839 142.424 79.762 142.349C79.3059 142.19 78.3432 141.731 78.2049 141.585C78.1777 141.557 78.1379 141.522 78.1086 141.484C78.1504 141.476 78.2027 141.466 78.232 141.395C78.9671 140.187 79.8048 139.003 80.3934 137.716C80.4894 137.491 80.1567 137.351 80.0188 137.53C79.1894 138.648 78.561 139.954 77.8698 141.163C77.8636 141.186 77.8678 141.207 77.8615 141.23ZM94.851 140.538C96.1305 139.71 97.117 138.886 98.7551 139.027C100.316 139.162 101.603 140.045 102.552 141.244C103.894 142.939 106.166 149.131 102.748 149.603C101.54 145.93 98.0781 141.979 94.55 142.873C94.591 142.053 94.6504 140.675 94.851 140.538ZM72.7343 145.411C77.7005 139.138 85.9149 147.294 85.4583 153.063C85.4459 153.163 85.4752 153.255 85.513 153.334C85.0393 154.544 84.0086 155.204 82.7203 155.448C83.5373 154.538 84.438 153.612 84.9976 152.559C85.0853 152.4 84.8905 152.19 84.7338 152.329C83.7473 153.207 83.0268 154.434 82.2664 155.516C81.6912 155.576 81.0678 155.559 80.4318 155.479C80.8384 154.152 81.626 153.097 82.6417 152.148C82.834 151.969 82.5848 151.704 82.3737 151.843C81.1842 152.686 80.4325 154.027 80.0824 155.418C79.3167 155.289 78.5236 155.077 77.7556 154.775C78.2654 154.121 78.8525 153.419 79.199 152.657C79.2596 152.526 79.0607 152.403 78.9625 152.509C78.3795 153.123 77.9473 153.945 77.5192 154.681C76.7135 154.353 75.9349 153.944 75.219 153.468C75.6257 152.249 76.1894 151.108 76.933 150.051C77.7331 148.895 78.7719 148.061 79.7311 147.047C79.8732 146.889 79.716 146.595 79.5007 146.713C77.1674 147.978 75.6284 150.753 74.8799 153.242C74.1535 152.715 73.4898 152.12 72.9683 151.476C73.5841 150.216 74.4177 149.119 75.3622 148.086C75.5398 147.889 75.2969 147.601 75.0941 147.782C74.0282 148.698 73.2742 149.866 72.7169 151.147C71.4664 149.422 71.1652 147.391 72.7343 145.411ZM92.3256 146.403C96.864 139.034 105.007 151.04 100.639 154.941C98.599 156.851 95.3762 155.54 93.395 153.158C93.4159 153.154 93.4473 153.148 93.464 153.123C93.9779 152.436 94.5211 151.786 95.1146 151.17C95.5994 150.662 96.2245 150.203 96.5941 149.609C96.6985 149.426 96.5226 149.201 96.3261 149.305C95.6737 149.629 95.1744 150.281 94.7064 150.818C94.1506 151.459 93.6241 152.138 93.1457 152.839C92.7163 152.274 92.3517 151.653 92.0917 151.011C93.0507 149.835 94.1039 148.694 94.8745 147.393C94.9727 147.232 94.7424 147.007 94.5982 147.155C93.5951 148.221 92.8056 149.483 91.9701 150.678C91.4875 149.256 91.4965 147.737 92.3256 146.403ZM86.4714 149.406C87.699 149.13 88.8163 149.331 90.0948 149.684C90.1157 149.68 90.1408 149.697 90.1617 149.693C90.5451 152.401 92.6687 154.895 95.0924 156.235C93.7429 158.117 92.3148 158.747 90.8232 158.685C91.1616 158.207 91.5105 157.726 91.8866 157.272C92.3421 156.726 92.8792 156.262 93.3243 155.719C93.4371 155.577 93.2278 155.456 93.1128 155.533C92.0446 156.276 91.1421 157.517 90.5241 158.658C90.114 158.62 89.6935 158.53 89.2645 158.398C89.2854 158.394 89.3126 158.367 89.3272 158.332C89.7528 157.207 90.4653 156.318 91.3075 155.479C91.4538 155.342 91.2882 155.061 91.1064 155.183C90.0402 155.882 89.3552 157.015 89.0238 158.229C89.0196 158.263 89.028 158.304 89.0448 158.334C88.5551 158.171 88.0654 157.954 87.582 157.713C87.8652 156.476 88.6489 155.671 89.5853 154.867C89.7525 154.726 89.5619 154.482 89.3716 154.563C88.1755 155.049 87.4907 156.345 87.3015 157.563C86.5501 157.181 85.8071 156.732 85.0431 156.288C86.354 155.562 87.1853 154.292 86.8758 152.273C86.8548 152.169 86.8171 152.089 86.7605 152.025C86.8329 151.144 86.719 150.256 86.4714 149.406Z" fill="#593401"/>
<path d="M27.4164 74.4504C27.3409 74.1837 26.9314 74.2541 26.9881 74.5353C30.0146 89.8164 18.8689 106.317 26.9793 120.784C26.9877 120.826 27.0566 120.791 27.042 120.772C19.3948 105.53 32.1548 89.9767 27.4185 74.4607L27.4164 74.4504Z" fill="#593401"/>
<path d="M47.0569 71.0577C47.084 70.9222 46.9269 70.8449 46.8181 70.899C46.4791 71.053 46.2555 71.4552 45.9815 71.7155C45.6426 72.0321 45.2702 72.2903 44.8685 72.511C44.6509 72.6192 44.8145 72.9446 45.0342 72.8468C45.4799 72.6283 45.9068 72.3702 46.2896 72.0557C46.5866 71.8017 46.9987 71.4705 47.0569 71.0577Z" fill="#593401"/>
<path d="M55.5273 71.9609C55.6402 71.8193 55.4161 71.6252 55.2906 71.7585C54.8264 72.2625 54.402 72.8019 53.9755 73.331C53.8542 73.4851 54.1035 73.6417 54.2269 73.498C54.6701 72.9982 55.1239 72.4962 55.5273 71.9609Z" fill="#593401"/>
<path d="M25.5574 78.4566C25.6114 78.1859 25.1622 78.1125 25.0935 78.3645C24.217 81.5066 23.4033 84.7987 22.7046 88.1764C20.0286 101.252 19.1756 115.612 23.402 128.065C25.2543 133.536 28.084 138.629 32.1646 143.084C32.1918 143.112 32.2377 143.07 32.221 143.041C17.0669 123.473 21.3695 100.845 25.5574 78.4566Z" fill="#593401"/>
<path d="M55.9267 73.7883C55.958 73.6737 55.8491 73.5652 55.7298 73.6214C55.3951 73.7961 55.1673 74.1774 54.9311 74.4627C54.6572 74.8314 54.3813 75.1896 54.0948 75.55C53.9485 75.7416 54.2606 75.9399 54.409 75.7587C54.6892 75.4213 54.9714 75.0943 55.2411 74.759C55.4878 74.4716 55.8266 74.1551 55.9267 73.7883Z" fill="#593401"/>
<path d="M21.3972 87.9127C21.3824 87.8397 21.2632 87.7876 21.2151 87.873C20.8644 88.5601 20.5618 89.2702 20.3032 89.9825C19.5125 92.1547 19.0734 94.4523 18.9042 96.7397C18.898 96.8167 19.0068 96.8169 19.0151 96.7502C19.4032 93.6609 20.2831 90.8534 21.3972 87.9669C21.4035 87.944 21.4014 87.9335 21.3972 87.9127Z" fill="#593401"/>
<path d="M61.0387 80.1463C61.0993 80.0151 60.9234 79.8982 60.8502 80.0211C60.3404 80.8375 59.8934 81.6957 59.4213 82.5372C59.3502 82.6705 59.5492 82.7937 59.6223 82.6708C60.0944 81.8293 60.5917 81.0045 61.0387 80.1463Z" fill="#593401"/>
<path d="M44.3255 90.1314C44.4029 90.0294 44.2542 89.9396 44.1726 90.0208C43.1148 91.2494 42.2874 92.7034 41.5312 94.1324C41.4915 94.2053 41.5941 94.2825 41.6443 94.2075C42.4445 92.7807 43.4122 91.4831 44.3255 90.1314Z" fill="#593401"/>
<path d="M57.4426 95.6241C57.5513 95.4616 57.3103 95.2383 57.1682 95.3966C56.2042 96.4441 55.3975 97.6231 54.576 98.7833C54.507 98.8728 54.6557 99.0169 54.7352 98.9252C55.6719 97.8506 56.6463 96.801 57.4426 95.6241Z" fill="#593401"/>
<path d="M17.9451 105.309C17.9678 105.044 17.5836 105.023 17.5359 105.271C17.0894 107.743 16.9603 110.227 17.1089 112.689C17.4359 118.246 19.2201 123.654 22.1186 128.505C22.1667 128.582 22.2961 128.524 22.248 128.447C18.1256 121.131 16.949 113.566 17.9451 105.309Z" fill="#593401"/>
<path d="M15.6854 112.74C15.6224 112.428 15.1314 112.417 15.0941 112.771C14.6016 117.549 14.882 122.335 15.8184 126.981C17.7878 136.751 22.6733 145.953 29.3914 153.362C29.4332 153.408 29.4959 153.342 29.4561 153.306C19.4517 141.772 15.4161 127.84 15.6896 112.815C15.6854 112.794 15.6812 112.774 15.6749 112.742L15.6854 112.74Z" fill="#593401"/>
<path d="M48.4394 108.591C48.5544 108.46 48.3303 108.265 48.2132 108.386C47.1449 109.508 46.4452 110.894 46.0365 112.373C46.0407 112.394 46.024 112.419 46.0261 112.429C46.0282 112.44 46.0408 112.448 46.0429 112.458C46.0911 112.535 46.225 112.552 46.2563 112.438C46.7048 110.994 47.4758 109.746 48.4374 108.58L48.4394 108.591Z" fill="#593401"/>
<path d="M54.3008 110.35C54.4534 110.136 54.135 109.852 53.9678 110.048C52.5359 111.632 51.3155 113.402 50.2375 115.231C49.7026 116.139 48.9987 117.449 50.0981 118.207C50.2489 118.307 50.4266 118.109 50.3009 117.971C49.268 116.843 51.4442 114.417 52.0585 113.526C52.8004 112.458 53.5695 111.416 54.3008 110.35Z" fill="#593401"/>
<path d="M64.3764 110.892C64.5227 110.701 64.219 110.436 64.0601 110.619C62.4549 112.422 61.5155 114.721 61.0658 117.076C61.0408 117.222 61.2899 117.27 61.3274 117.132C61.9152 114.816 63.0161 112.831 64.3764 110.892Z" fill="#593401"/>
<path d="M64.2864 115.361C64.372 115.192 64.192 115 64.0227 115.131C62.9214 116.032 62.8457 117.759 63.4158 118.968C63.5101 119.166 63.8571 119.054 63.7921 118.839C63.383 117.566 63.702 116.506 64.2864 115.361Z" fill="#593401"/>
<path d="M82.0073 115.638C82.1431 115.448 81.8854 115.25 81.716 115.381C81.0237 115.941 80.4571 116.693 79.8591 117.343C79.7691 117.437 79.807 117.57 79.8845 117.631C79.9389 117.685 80.0269 117.689 80.1001 117.621C80.7421 116.973 81.4679 116.363 82.0073 115.638Z" fill="#593401"/>
<path d="M55.2379 122.955C55.3319 122.774 55.112 122.546 54.9385 122.711C53.6613 123.874 53.1863 125.941 53.1524 127.606C53.1463 127.791 53.4225 127.812 53.4391 127.625C53.4968 126.779 53.678 125.952 53.9974 125.162C54.325 124.36 54.8349 123.707 55.2379 122.955Z" fill="#593401"/>
<path d="M28.1008 130.766C28.0148 130.61 27.7889 130.731 27.8623 130.879C29.6134 134.65 31.7285 138.23 34.176 141.571C44.2032 155.354 59.5755 165.27 76.1118 169.199C76.1118 169.199 76.1327 169.195 76.1432 169.193C76.1955 169.183 76.2184 169.081 76.1493 169.062C54.9595 163.638 38.4553 149.73 28.0987 130.756L28.1008 130.766Z" fill="#593401"/>
<path d="M58.3845 127.551C58.5015 127.431 58.3757 127.185 58.2105 127.282C56.843 128.106 56.1816 129.95 56.5764 131.475C56.6058 131.621 56.8569 131.625 56.8547 131.453C56.7883 129.883 57.3311 128.692 58.3845 127.551Z" fill="#593401"/>
<path d="M70.7628 125.251C70.9029 125.083 70.6307 124.92 70.4885 125.078C69.6754 126.009 69.145 127.1 68.8553 128.306C68.8074 128.5 69.113 128.613 69.1693 128.407C69.4674 127.242 70.0167 126.19 70.7628 125.251Z" fill="#593401"/>
<path d="M22.4038 135.03C22.2507 134.757 21.8365 134.969 21.9687 135.247C27.2152 147.226 36.4517 157.677 47.142 165.141C52.6024 168.958 58.6923 172.282 65.2554 173.691C72.1138 175.161 79.1787 173.934 86.0973 174.948C86.1391 174.939 86.1579 174.871 86.114 174.868C80.0972 173.579 74.0114 174.427 67.9575 173.6C60.7606 172.609 54.1305 169.143 48.2032 165.115C36.8281 157.386 28.766 147.038 22.4038 135.03Z" fill="#593401"/>
<path d="M64.0006 136.311C64.1678 136.115 63.9227 135.817 63.7199 135.998C62.457 137.126 61.7345 138.668 61.4703 140.324C61.4287 140.549 61.7803 140.566 61.8345 140.35C62.1406 138.793 62.9386 137.464 64.0006 136.311Z" fill="#593401"/>
<path d="M37.1334 150.373C37.1334 150.373 37.0529 150.346 37.0613 150.388C37.0696 150.429 37.1417 150.415 37.1334 150.373Z" fill="#593401"/>
<path d="M40.0907 153.501C40.0907 153.501 40.0488 153.51 40.0593 153.508C48.0232 162.014 58.3545 168.066 69.7711 170.596C76.1871 172.024 83.1517 171.37 89.3467 173.644C94.2013 175.425 98.3497 178.669 103.753 177.989C103.763 177.986 103.773 177.984 103.769 177.964C103.765 177.943 103.765 177.943 103.744 177.947C97.5139 178.141 92.9041 174.121 87.1118 172.601C83.4681 171.643 79.6683 171.637 75.9163 171.329C74.6664 171.23 73.4206 171.097 72.1915 170.886C59.8332 168.76 48.7166 162.483 40.0886 153.491L40.0907 153.501Z" fill="#593401"/>
<path d="M100.945 142.003C101.013 141.805 100.796 141.642 100.626 141.719C100.268 141.887 100.03 142.271 99.7854 142.568C99.4864 142.92 99.2105 143.279 98.9345 143.637C98.8049 143.804 99.0521 144.004 99.1985 143.867C99.5394 143.56 99.8573 143.248 100.184 142.923C100.453 142.642 100.813 142.376 100.945 142.003Z" fill="#593401"/>
<path d="M90.216 144.819C90.3895 144.6 90.0481 144.31 89.8474 144.501C88.8395 145.438 88.0935 146.648 87.649 147.951C87.5885 148.136 87.8565 148.278 87.9631 148.105C88.6191 146.934 89.382 145.862 90.216 144.819Z" fill="#593401"/>
<path d="M102.578 142.869C102.674 142.698 102.48 142.541 102.327 142.648C101.99 142.92 101.718 143.299 101.447 143.624C101.139 143.989 100.819 144.345 100.512 144.71C100.399 144.851 100.636 145.054 100.761 144.92L101.723 143.862C102.018 143.544 102.359 143.238 102.578 142.869Z" fill="#593401"/>
<path d="M103.783 145.284C103.906 145.086 103.694 144.846 103.485 144.941C103.11 145.135 102.841 145.47 102.562 145.764L101.615 146.733C101.462 146.893 101.664 147.135 101.841 146.991C102.187 146.706 102.542 146.419 102.887 146.133C103.205 145.875 103.571 145.64 103.783 145.284Z" fill="#593401"/>
<path d="M97.4932 152.568C97.5894 152.397 97.3736 152.19 97.2188 152.34C96.5057 153.013 95.9414 153.829 95.3728 154.625C95.2453 154.802 95.5092 155.032 95.6619 154.871C96.308 154.136 96.9896 153.416 97.4932 152.568Z" fill="#593401"/>
<path d="M100.141 153.059C100.291 152.888 100.136 152.659 99.9227 152.733C98.8032 153.172 97.9232 154.474 97.4616 155.531C97.3927 155.674 97.6189 155.771 97.7025 155.646C98.0578 155.141 98.4383 154.654 98.8733 154.221C99.2811 153.815 99.7686 153.48 100.141 153.059Z" fill="#593401"/>
<path d="M199.32 248.241C188.304 241.607 174.649 239.748 162.072 238.381C149.337 236.979 136.217 236.912 123.71 239.989C117.945 241.414 112.357 243.498 107.169 246.381C101.209 249.699 95.9752 254.078 89.3798 256.134C88.7958 256.315 88.6794 257.195 89.1634 257.543C100.656 265.84 108.419 277.88 119.033 287.11C128.972 295.747 140.957 302.004 153.703 305.345C165.632 308.468 180.686 310.408 192.015 304.354C202.659 298.676 202.37 290.501 219.343 280.91C228.921 281.874 238.44 280.876 247.583 276.178C247.849 276.039 248.75 272.465 246.25 269.891C240.109 274.959 220.806 275.695 220.751 275.533C217.126 264.201 209.61 254.411 199.328 248.228L199.32 248.241ZM162.493 240.141C172.531 241.177 183.148 242.759 192.407 246.727C193.741 247.297 195.04 247.907 196.309 248.588C207.148 254.346 215.074 264.228 218.946 275.76C214.783 275.143 210.635 274.111 206.616 273.021C206.052 272.872 205.506 272.698 204.955 272.558C199.001 265.062 194.892 257.21 192.01 248.052C191.995 247.979 191.945 247.946 191.878 247.938C191.765 247.917 191.621 248.01 191.658 248.144C193.581 256.971 198.07 265.572 204.157 272.326C199.79 271.077 195.44 269.748 191.096 268.397C185.699 261.929 182.229 255.252 179.681 247.156C179.618 246.952 179.287 247.039 179.317 247.239C180.614 254.802 184.705 262.451 190.085 268.077C184.635 266.37 179.177 264.675 173.686 263.139C168.866 257.327 162.566 250.322 162.414 242.662C162.414 242.554 162.334 242.483 162.246 242.478C162.133 242.458 162.005 242.526 161.989 242.66C161.655 246.457 163.524 249.731 165.453 252.873C167.678 256.51 170.232 259.941 173.191 263.009C172.234 262.744 171.288 262.476 170.333 262.221C165.593 260.958 160.804 259.934 156.021 259.104C154.35 256.756 152.614 254.464 151.163 251.965C149.428 248.979 148.198 245.849 146.811 242.697C146.721 242.466 146.403 242.615 146.47 242.841C148.1 248.548 151.456 254.553 155.514 259.02C152.371 258.493 149.219 258.033 146.053 257.663C141.325 252.733 138.472 247.387 136.813 240.677C136.788 240.552 136.669 240.5 136.585 240.516C136.491 240.535 136.428 240.602 136.441 240.718C137.249 247.044 140.729 253.339 145.53 257.604C141.308 257.129 137.057 256.779 132.809 256.547C131.352 254.613 129.61 252.886 128.197 250.9C126.633 248.704 125.326 246.382 123.957 244.072C123.856 243.897 123.615 243.999 123.584 244.168C123.58 244.201 123.586 244.232 123.603 244.262C124.65 246.755 126.07 249.098 127.639 251.314C128.869 253.044 130.192 254.962 131.773 256.482C128.462 256.314 125.141 256.202 121.823 256.155C120.784 256.079 119.745 256.003 118.711 255.948C117.602 254.822 116.402 253.781 115.326 252.606C114.039 251.19 112.857 249.7 111.689 248.175C111.528 247.968 111.235 248.189 111.357 248.414C112.923 251.054 115.072 253.882 117.587 255.878C113.106 255.627 108.65 255.556 104.222 255.675C104.182 255.639 104.144 255.614 104.088 255.604C103.458 255.447 102.878 255.377 102.335 254.954C101.83 254.555 101.425 254.006 101.251 253.411C101.207 253.247 100.939 253.321 100.958 253.47C101.047 254.341 101.636 255.266 102.43 255.748C99.3856 255.875 96.3561 256.074 93.3498 256.388C97.2174 254.678 100.682 252.32 104.302 250.03C109.695 246.596 115.492 243.983 121.66 242.239C122.401 242.027 123.144 241.825 123.902 241.643C128.015 240.61 132.223 239.939 136.458 239.565C143.738 238.903 151.112 239.089 158.355 239.757C159.71 239.89 161.086 240.019 162.464 240.158L162.493 240.141ZM146.793 258.525C158.03 259.996 168.991 262.584 179.882 265.956C192.142 269.751 204.429 274.485 217.088 276.747C227.052 278.546 237.573 277.924 245.82 271.593C247.914 273.661 246.538 275.474 246.582 275.585C220.503 286.819 193.889 272.203 168.792 264.999C157.445 261.739 145.449 259.041 133.296 257.394C133.3 257.361 133.327 257.334 133.331 257.301C135.237 257.411 137.152 257.519 139.058 257.684C141.583 257.899 144.102 258.191 146.607 258.519C146.609 258.529 146.634 258.546 146.659 258.563C146.712 258.607 146.749 258.577 146.785 258.538L146.793 258.525ZM132.659 257.26C132.659 257.26 132.697 257.285 132.722 257.302C132.575 257.277 132.429 257.252 132.276 257.25C132.406 257.245 132.538 257.252 132.659 257.26ZM134.545 259.218C140.258 260.016 145.937 261.027 151.566 262.221C139.159 264.28 127.895 269.691 118.429 277.967C118.346 278.038 118.44 278.182 118.542 278.096C128.559 269.744 140.478 264.561 153.382 262.696C153.434 262.686 153.474 262.667 153.514 262.648C156.693 263.352 159.853 264.125 162.98 264.947C167.659 266.178 172.31 267.544 176.918 269.071C178.633 269.642 180.363 270.232 182.119 270.838C165.071 274.446 149.073 281.642 135.193 292.16C135.11 292.231 135.202 292.364 135.298 292.302C149.804 282.029 165.988 274.893 183.405 271.278C187.244 272.61 191.167 273.979 195.127 275.266C180.673 278.782 166.338 284.076 153.574 291.704C153.545 291.721 153.578 291.779 153.608 291.763C167.422 284.913 181.3 279.298 196.346 275.697C196.367 275.693 196.378 275.69 196.397 275.676C201.911 277.435 207.505 278.994 213.109 280.009C197.585 283.456 183.042 290.2 170.556 300.073C170.471 300.133 170.561 300.256 170.649 300.206C183.884 290.489 198.668 283.751 214.795 280.434C214.879 280.417 214.937 280.384 214.981 280.332C215.802 280.462 216.631 280.58 217.458 280.687C208.038 284.767 202.851 294.342 194.863 300.395C183.513 308.99 166.924 307.051 153.95 303.658C140.352 300.085 127.634 293.106 117.421 283.438C112.255 278.551 107.704 273.098 102.892 267.913C99.3392 264.062 95.6234 260.373 91.4055 257.164C91.7508 257.041 92.0836 256.91 92.4164 256.779C97.3034 256.938 102.167 257.037 107.031 257.19C104.501 258.027 102.113 259.249 99.916 260.824C99.8512 260.88 99.912 260.966 99.9894 260.918C102.645 259.35 105.449 258.143 108.39 257.235C112.268 257.355 116.148 257.54 120.038 257.778C113.972 259.544 108.251 262.75 103.699 267.059C103.672 267.086 103.67 267.129 103.699 267.167C103.706 267.198 103.754 267.221 103.789 267.182C109.334 262.937 115.156 259.906 121.806 257.905C125.451 258.169 129.09 258.51 132.746 258.989C127.895 260.569 123.112 262.44 118.521 264.608C118.452 264.643 118.485 264.756 118.565 264.719C123.575 262.63 128.632 260.77 133.796 259.117C134.051 259.143 134.307 259.168 134.543 259.208L134.545 259.218Z" fill="#593401"/>
<path d="M163.003 264.967C163.003 264.967 162.959 264.965 162.938 264.969C155.46 266.334 148.379 268.75 141.727 272.373C141.66 272.419 141.706 272.54 141.773 272.494C148.535 269.142 155.559 266.716 162.985 265.362C163.215 265.316 163.202 264.982 163.001 264.956L163.003 264.967Z" fill="#593401"/>
</g>
</svg>
