<svg width="93" height="86" viewBox="0 0 93 86" fill="none" xmlns="http://www.w3.org/2000/svg">
<circle opacity="0.11" cx="53.6387" cy="46.2079" r="39" fill="#CA382F"/>
<path d="M68.859 35.1828C68.859 25.986 65.2776 17.3402 58.7747 10.8373C52.2719 4.3344 43.626 0.753052 34.4298 0.753052C25.233 0.753052 16.5871 4.3344 10.0842 10.8373C3.58135 17.3402 0 25.986 0 35.1828C0 44.3791 3.58135 53.0249 10.0842 59.5278C16.5871 66.0307 25.233 69.6121 34.4298 69.6121C37.4906 69.6121 40.4895 69.2125 43.3695 68.4428C44.2532 68.8934 45.2027 69.2298 46.2011 69.4344C46.9503 69.5873 47.7026 69.6631 48.4497 69.6631C50.6016 69.6631 52.7082 69.0348 54.5452 67.8219C57.0204 66.1879 58.7106 63.6875 59.3052 60.7822C59.444 60.1045 59.5166 59.4237 59.5292 58.7471C65.5531 52.3404 68.859 44.0158 68.859 35.1828ZM4.03454 35.1828C4.03454 18.4227 17.6696 4.78759 34.4298 4.78759C51.1894 4.78759 64.8245 18.4227 64.8245 35.1828C64.8245 42.1831 62.4439 48.6376 58.4514 53.782C58.2311 53.3209 57.9793 52.8719 57.6928 52.4382L53.8302 46.5883C54.6203 45.3144 55.2891 43.9601 55.8206 42.5358L52.0411 41.1247C49.3119 48.4352 42.2349 53.3467 34.4298 53.3467C26.6246 53.3467 19.5476 48.4352 16.8185 41.1247L13.0389 42.5358C14.6493 46.8501 17.4962 50.5408 21.2715 53.2089C25.1115 55.9223 29.6313 57.3639 34.3462 57.3807L39.162 64.6743C39.2697 64.8373 39.3817 64.9966 39.4969 65.1527C37.8487 65.4308 36.1558 65.577 34.4298 65.577C17.6696 65.5775 4.03454 51.9424 4.03454 35.1828ZM55.3522 59.9731C54.9736 61.8232 53.8974 63.4146 52.3223 64.4551C49.0696 66.6027 44.6759 65.7037 42.5283 62.4509L38.8933 56.9459C40.8512 56.5584 42.7444 55.916 44.5345 55.0296L47.7363 59.879L51.1031 57.6562L47.9776 52.9224C49.1663 52.0449 50.2583 51.0649 51.244 49.9935L54.3259 54.6615C55.3664 56.2372 55.7307 58.1236 55.3522 59.9731Z" fill="#490D00"/>
<path d="M23.116 27.2516C25.0192 27.2516 26.568 28.7999 26.568 30.7036H30.6026C30.6026 26.5755 27.2441 23.217 23.116 23.217C18.9879 23.217 15.6289 26.5755 15.6289 30.7031H19.664C19.664 28.7999 21.2123 27.2516 23.116 27.2516Z" fill="#490D00"/>
<path d="M45.7434 27.2516C47.6471 27.2516 49.1954 28.7999 49.1954 30.7036H53.23C53.23 26.5755 49.8715 23.217 45.7434 23.217C41.6153 23.217 38.2568 26.5755 38.2568 30.7031H42.2914C42.2914 28.7999 43.8402 27.2516 45.7434 27.2516Z" fill="#490D00"/>
</svg>
