<svg width="42" height="28" viewBox="0 0 42 28" fill="none" xmlns="http://www.w3.org/2000/svg">
<path opacity="0.2" d="M4.54954 24.7368C3.91807 24.2595 3.23067 23.7915 2.60373 23.2579C0.338809 21.3308 -0.267978 18.8509 1.51668 16.4754C7.80677 8.11451 15.6749 2.02864 26.3502 0.590565C30.599 0.0160864 34.5677 1.00988 37.8329 4.0177C41.8553 7.73011 42.6366 12.3962 39.8507 17.1351C37.253 21.5539 33.672 24.8938 28.6099 26.3222C21.7505 28.2588 14.8728 28.7664 7.99561 26.422C7.51644 26.2574 7.03707 26.0791 6.58351 25.8537C5.9042 25.514 5.24541 25.1283 4.54539 24.7433L4.54954 24.7368ZM37.5244 13.8742C37.9519 12.9572 38.5065 11.7445 39.0888 10.545C40.0343 8.59202 39.64 6.96513 38.1896 5.36505C34.7132 1.52331 30.3467 0.590797 25.5315 1.50925C15.7693 3.37471 8.23393 8.81036 2.33459 16.6634C0.693237 18.8446 1.04394 21.3911 3.404 22.7692C4.9571 23.6749 6.95122 24.1918 8.75898 24.2234C12.6812 24.2895 16.6161 24.0403 20.5342 23.7256C27.5835 23.1559 33.1641 19.8808 37.5329 13.8751L37.5244 13.8742ZM7.76435 25.0419C7.75417 25.1492 7.74399 25.2566 7.73382 25.3639C8.19416 25.5436 8.63718 25.7712 9.11166 25.9008C15.9125 27.7584 22.6621 27.5551 29.3293 25.248C33.5249 23.7915 36.6334 20.9385 38.905 17.1878C40.3034 14.8767 41.1463 12.3788 40.2671 9.30783C39.7362 10.5542 39.3925 11.5664 38.8921 12.4908C34.538 20.5154 27.6116 24.2175 18.6917 24.5645C15.0483 24.7063 11.4064 24.881 7.76435 25.0419Z" fill="white"/>
</svg>
