<svg width="42" height="42" viewBox="0 0 42 42" fill="none" xmlns="http://www.w3.org/2000/svg">
<path d="M41.7734 26.2307C40.9971 21.8764 37.6987 18.0692 33.3701 16.5306C33.3666 16.5297 33.2222 16.4793 33.2187 16.4776C29.5792 15.2295 26.7757 12.4275 25.4737 8.63906C23.9449 4.34292 20.1369 1.046 15.7732 0.239881C11.5899 -0.535396 3.27542 0.70746 1.9904 1.98706C0.708007 3.26249 -0.535095 11.577 0.239444 15.7664C1.04737 20.1276 4.34585 23.9331 8.79416 25.5145C12.4337 26.7626 15.2371 29.5646 16.5384 33.353C18.0885 37.7073 21.8041 40.9257 26.237 41.7514C27.1673 41.9249 28.259 42.0001 29.4157 42.0001C33.7872 42.0001 39.0776 40.9222 40.0112 39.9948C41.2767 38.7356 42.5232 30.4338 41.7734 26.2307ZM26.5551 40.0262C22.7927 39.3255 19.5089 36.4758 18.1434 32.6331C16.7189 28.482 13.5206 25.2853 9.23532 23.8139C5.51824 22.492 2.66683 19.2099 1.97129 15.4536C1.29076 11.77 2.32427 5.73811 2.97158 3.80857C3.99541 4.20741 5.62373 4.47237 8.08007 4.84159C9.30111 5.02534 10.6265 5.22443 11.9595 5.47052C15.7184 6.16525 19.0014 9.01493 20.3694 12.8644C21.7947 17.0147 24.9931 20.2122 29.2775 21.6828C33.0219 23.0132 35.8733 26.2928 36.5407 30.038C36.7903 31.4385 36.8996 32.4613 36.9953 33.3628C37.1821 35.1087 37.3309 36.427 38.2894 38.9635C36.4207 39.6402 30.2738 40.7232 26.5551 40.0262ZM39.3947 36.7924C38.9802 35.4065 38.8697 34.4321 38.7359 33.1774C38.6368 32.2468 38.524 31.1924 38.2634 29.7304C37.4875 25.3775 34.19 21.5717 29.7125 19.9806C26.0758 18.7331 23.2738 15.932 21.9725 12.1449C20.4446 7.85107 16.6396 4.5553 12.2774 3.74951C10.9247 3.49997 9.57977 3.29751 8.33987 3.11122C7.32506 2.95848 6.19245 2.78761 5.24499 2.60533C7.14328 2.17401 10.0229 1.74909 12.6175 1.74909C13.6369 1.74909 14.6102 1.81488 15.4578 1.97123C19.2167 2.66596 22.4997 5.51654 23.8685 9.36602C25.293 13.5163 28.4922 16.7138 32.6424 18.1374L32.7757 18.1836L32.7766 18.1844C36.521 19.5148 39.3715 22.7944 40.0389 26.5396C40.5815 29.5808 39.9817 34.1799 39.3947 36.7924Z" fill="white"/>
<path d="M27.3895 35.0417C25.883 34.564 24.7423 33.4481 24.4825 32.1979C24.3834 31.7245 23.916 31.4212 23.4477 31.5186C22.9743 31.6169 22.6701 32.0809 22.7684 32.5534C23.1606 34.4419 24.7294 36.0347 26.8614 36.7097C26.9494 36.7379 27.0383 36.7507 27.1255 36.7507C27.4972 36.7507 27.8415 36.5124 27.9595 36.1398C28.1057 35.6792 27.8501 35.1878 27.3895 35.0417ZM25.3755 28.0006C25.7472 28.0006 26.0916 27.7622 26.2095 27.3897C26.3556 26.9291 26.1002 26.4378 25.6396 26.2917C24.1331 25.814 22.9923 24.6981 22.7325 23.4479C22.6335 22.9737 22.1643 22.6694 21.6977 22.7686C21.2243 22.8669 20.9201 23.3308 21.0184 23.8034C21.4106 25.6919 22.9795 27.2847 25.1115 27.9597C25.1996 27.9878 25.2884 28.0006 25.3755 28.0006ZM15.1396 19.2917C13.6331 18.814 12.4923 17.6981 12.2325 16.4479C12.1335 15.9745 11.6678 15.6704 11.1977 15.7686C10.7243 15.8669 10.4201 16.3309 10.5184 16.8034C10.9106 18.6919 12.4795 20.2847 14.6115 20.9597C14.6995 20.9879 14.7883 21.0007 14.8755 21.0007C15.2472 21.0007 15.5916 20.7624 15.7095 20.3898C15.8556 19.9292 15.6002 19.4378 15.1396 19.2917ZM13.3896 8.7917C12.9264 8.64388 12.4377 8.90195 12.2916 9.36166C12.1455 9.82226 12.401 10.3135 12.8616 10.4596C14.3681 10.9373 15.5088 12.0533 15.7686 13.3034C15.8158 13.5307 15.9514 13.7299 16.1454 13.8572C16.3394 13.9846 16.5761 14.0297 16.8034 13.9827C17.2768 13.8844 17.581 13.4205 17.4827 12.9479C17.0904 11.0595 15.5215 9.46674 13.3896 8.7917ZM32.6395 29.7917C32.1764 29.6439 31.6877 29.9002 31.5416 30.3617C31.3955 30.8223 31.6509 31.3135 32.1115 31.4596C32.7165 31.651 33.1702 32.0809 33.2685 32.5534C33.3157 32.7806 33.4513 32.9798 33.6453 33.1072C33.8393 33.2345 34.076 33.2797 34.3033 33.2327C34.7767 33.1344 35.0809 32.6704 34.9826 32.1978C34.7545 31.099 33.8564 30.1771 32.6395 29.7917ZM6.38954 12.2916C5.78456 12.1003 5.33085 11.6704 5.23257 11.1979C5.13258 10.7237 4.66861 10.4221 4.19775 10.5186C3.72435 10.6169 3.42017 11.0809 3.51845 11.5534C3.74748 12.6532 4.64465 13.5752 5.86151 13.9597C5.94952 13.9879 6.03836 14.0007 6.12556 14.0007C6.49725 14.0007 6.84161 13.7623 6.95958 13.3897C7.10567 12.9291 6.85015 12.4369 6.38954 12.2916Z" fill="white"/>
</svg>
