<svg width="71" height="62" viewBox="0 0 71 62" fill="none" xmlns="http://www.w3.org/2000/svg">
<circle opacity="0.19" cx="43.6391" cy="34.3573" r="27.2241" fill="white"/>
<path d="M2.06941 40.2279C1.34462 40.95 0.831502 41.8568 0.585779 42.8499C0.340056 43.843 0.371122 44.8845 0.675603 45.8612L4.28811 57.8595C4.47136 58.4434 4.81201 58.9654 5.27262 59.3682C5.73323 59.7711 6.29597 60.0392 6.89901 60.143C7.50205 60.2468 8.12205 60.1824 8.69087 59.9569C9.2597 59.7313 9.75533 59.3533 10.1233 58.8644L12.9739 55.0819C13.2997 54.5759 13.7282 54.1441 14.2317 53.8146C14.7352 53.4851 15.3025 53.2652 15.8965 53.1692H36.8477C38.27 53.1288 39.622 52.5415 40.6222 51.5294L55.1302 36.8314C55.9166 36.0377 56.3774 34.9784 56.4218 33.8619C56.4663 32.7455 56.0911 31.6529 55.3702 30.7992C54.6 29.8877 53.5012 29.3172 52.3126 29.2116C51.124 29.106 49.9418 29.4739 49.023 30.2353L39.3873 38.2812C38.9507 37.6317 38.3596 37.1007 37.6671 36.736C36.9747 36.3713 36.2025 36.1842 35.4199 36.1915H23.5755C23.2969 36.1998 23.0238 36.1127 22.8016 35.9445C21.1941 34.5863 19.1608 33.8355 17.0564 33.8228C14.3229 33.7436 11.6036 34.2441 9.07743 35.2911C6.55123 36.3382 4.27531 37.9083 2.39937 39.898L2.06941 40.2279ZM3.48622 41.6378L3.81118 41.3138C5.50636 39.5156 7.56301 38.0966 9.84588 37.1501C12.1288 36.2037 14.5861 35.7512 17.0564 35.8225C18.6975 35.8378 20.2813 36.4283 21.5318 37.4913C22.112 37.9531 22.834 38.2003 23.5755 38.1912H35.4199C36.0828 38.1659 36.7287 38.405 37.2154 38.8558C37.7021 39.3067 37.9897 39.9324 38.015 40.5954C38.0404 41.2583 37.8013 41.9042 37.3504 42.3909C36.8995 42.8776 36.2738 43.1652 35.6109 43.1905H22.8216C22.5564 43.1905 22.3021 43.2959 22.1146 43.4834C21.9271 43.6709 21.8217 43.9252 21.8217 44.1904C21.8217 44.4556 21.9271 44.7099 22.1146 44.8974C22.3021 45.0849 22.5564 45.1903 22.8216 45.1903H35.6109C36.217 45.1908 36.8167 45.0668 37.3729 44.826C37.9291 44.5852 38.43 44.2327 38.8444 43.7905C39.2686 43.343 39.5979 42.8143 39.8125 42.2363C40.0271 41.6583 40.1226 41.0428 40.0932 40.4269C40.0932 40.3849 40.0882 40.3429 40.0842 40.2999L50.3039 31.7711C50.7951 31.3617 51.4245 31.1561 52.0627 31.1966C52.7009 31.2371 53.2992 31.5207 53.7347 31.989C54.1702 32.4572 54.4096 33.0746 54.4038 33.714C54.398 34.3535 54.1473 34.9663 53.7034 35.4266L39.1974 50.1246C38.5669 50.763 37.7164 51.1364 36.8197 51.1685H15.8935C13.6578 51.1685 11.9881 53.0622 11.3741 53.8761L8.52354 57.6606C8.37712 57.8541 8.18055 58.0038 7.95513 58.0936C7.7297 58.1834 7.48401 58.2098 7.24466 58.1699C7.00531 58.13 6.78143 58.0255 6.59726 57.8675C6.41309 57.7095 6.27566 57.5041 6.19985 57.2736L2.58734 45.2753C2.39059 44.6447 2.37034 43.9723 2.52881 43.331C2.68728 42.6897 3.0184 42.1041 3.48622 41.6378ZM28.4388 1.03927C26.5651 2.91002 23.4215 6.7185 23.4215 11.1949C23.4215 15.6713 26.5651 19.4798 28.4388 21.3505C28.7184 21.6318 29.0525 21.853 29.4207 22.0004V26.1929C29.4207 26.458 29.526 26.7124 29.7135 26.8999C29.9011 27.0874 30.1554 27.1927 30.4206 27.1927C30.6857 27.1927 30.9401 27.0874 31.1276 26.8999C31.3151 26.7124 31.4204 26.458 31.4204 26.1929V22.0004C31.7886 21.853 32.1227 21.6318 32.4023 21.3505C34.276 19.4798 37.4196 15.6713 37.4196 11.1949C37.4196 6.7185 34.276 2.91002 32.4023 1.03927C32.1465 0.771269 31.8389 0.55794 31.4983 0.412187C31.1577 0.266433 30.7911 0.191284 30.4206 0.191284C30.0501 0.191284 29.6834 0.266433 29.3428 0.412187C29.0022 0.55794 28.6946 0.771269 28.4388 1.03927ZM31.4204 19.4938V7.19543C31.4204 6.93025 31.3151 6.67593 31.1276 6.48842C30.9401 6.30091 30.6857 6.19557 30.4206 6.19557C30.1554 6.19557 29.9011 6.30091 29.7135 6.48842C29.526 6.67593 29.4207 6.93025 29.4207 7.19543V19.4938C27.7569 17.731 25.4212 14.6434 25.4212 11.1949C25.4212 7.4394 28.1969 4.10585 29.8526 2.45308C29.9236 2.37231 30.0109 2.30761 30.1089 2.26328C30.2068 2.21895 30.3131 2.19603 30.4206 2.19603C30.5281 2.19603 30.6343 2.21895 30.7323 2.26328C30.8302 2.30761 30.9175 2.37231 30.9885 2.45308C32.6443 4.10585 35.4199 7.4394 35.4199 11.1949C35.4199 14.6404 33.0842 17.728 31.4204 19.4938ZM23.0636 21.3745C22.6966 18.7519 21.5478 13.9505 17.9693 11.2569C14.3907 8.56325 9.46141 8.78122 6.83876 9.15717C6.4709 9.2008 6.11568 9.31845 5.7945 9.50303C5.47332 9.6876 5.19283 9.93528 4.96992 10.2312C4.74702 10.527 4.58631 10.865 4.49749 11.2246C4.40866 11.5842 4.39356 11.9581 4.45309 12.3237C4.82104 14.9464 5.97188 19.7477 9.5524 22.4414C11.9246 24.0586 14.7535 24.8711 17.6223 24.759C18.6463 24.7574 19.669 24.6846 20.6829 24.5411C21.0765 24.4848 21.4546 24.3487 21.7937 24.1411L25.3073 26.9687C25.4094 27.0519 25.5271 27.1141 25.6534 27.1517C25.7797 27.1892 25.9121 27.2015 26.0432 27.1876C26.1742 27.1738 26.3012 27.1343 26.4169 27.0712C26.5326 27.0082 26.6347 26.9229 26.7173 26.8202C26.8 26.7176 26.8615 26.5996 26.8983 26.4731C26.9352 26.3466 26.9467 26.2141 26.9322 26.0831C26.9177 25.9521 26.8774 25.8253 26.8137 25.71C26.75 25.5946 26.6642 25.493 26.5611 25.411L22.9926 22.5433C23.0946 22.1625 23.1187 21.7649 23.0636 21.3745ZM11.2802 13.1156C11.1779 13.0331 11.0603 12.9715 10.9343 12.9344C10.8082 12.8973 10.676 12.8854 10.5453 12.8994C10.4147 12.9134 10.288 12.953 10.1726 13.0159C10.0572 13.0788 9.95538 13.1638 9.87285 13.2661C9.79033 13.3684 9.72876 13.4859 9.69166 13.612C9.65456 13.7381 9.64266 13.8702 9.65663 14.0009C9.6706 14.1316 9.71018 14.2583 9.7731 14.3736C9.83602 14.489 9.92105 14.5909 10.0233 14.6734L19.899 22.6243C17.4993 22.9053 13.5439 22.9483 10.7462 20.8396C7.74664 18.5809 6.75478 14.3585 6.42982 12.0408C6.4074 11.9353 6.40784 11.8262 6.43112 11.7209C6.4544 11.6156 6.49998 11.5165 6.56478 11.4303C6.62959 11.344 6.71211 11.2727 6.8068 11.2211C6.9015 11.1694 7.00615 11.1387 7.11373 11.1309C8.04118 10.9996 8.97664 10.9327 9.91335 10.9309C12.3422 10.8262 14.7411 11.4998 16.7604 12.8537C19.468 14.8924 20.5339 18.5149 20.9598 20.9086L11.2802 13.1156ZM35.5679 27.0457C35.664 27.1353 35.7769 27.205 35.9 27.2509C36.0231 27.2968 36.154 27.318 36.2853 27.3133C36.4166 27.3085 36.5457 27.278 36.6652 27.2233C36.7847 27.1686 36.8922 27.091 36.9817 26.9947L40.1462 23.5952C40.4456 23.7269 40.7691 23.795 41.0961 23.7952C41.1471 23.7952 41.1961 23.7952 41.2491 23.7902C43.2278 23.6742 46.8823 23.1033 49.126 20.5786C51.3697 18.054 51.5057 14.3575 51.3877 12.3797C51.3749 12.0737 51.3006 11.7734 51.1693 11.4968C51.038 11.2201 50.8523 10.9727 50.6234 10.7693C50.3944 10.5659 50.1268 10.4106 49.8366 10.3128C49.5464 10.215 49.2394 10.1767 48.934 10.2C46.9543 10.315 43.2998 10.8859 41.0581 13.4116C38.8164 15.9372 38.6764 19.6317 38.7944 21.6105C38.8041 21.755 38.8258 21.8985 38.8594 22.0394L35.5199 25.6309C35.43 25.7269 35.3599 25.8397 35.3137 25.9628C35.2674 26.0859 35.2459 26.2169 35.2504 26.3483C35.2548 26.4797 35.2852 26.609 35.3396 26.7286C35.3941 26.8483 35.4717 26.9561 35.5679 27.0457ZM42.5519 14.7394C44.3187 12.7537 47.3802 12.2947 49.052 12.1948H49.081C49.1218 12.1911 49.1629 12.1963 49.2016 12.2099C49.2402 12.2236 49.2755 12.2453 49.305 12.2738C49.3344 12.3022 49.3575 12.3367 49.3725 12.3748C49.3875 12.4129 49.3941 12.4538 49.392 12.4947C49.492 14.1645 49.392 17.2621 47.6302 19.2478C46.1044 20.9646 43.6088 21.5395 41.88 21.7265L46.9003 16.3322C46.9899 16.2361 47.0596 16.1233 47.1056 16.0002C47.1515 15.8771 47.1728 15.7462 47.1681 15.6149C47.1635 15.4836 47.133 15.3546 47.0785 15.2351C47.024 15.1155 46.9464 15.0079 46.8503 14.9184C46.7542 14.8288 46.6414 14.7591 46.5183 14.7131C46.3953 14.6672 46.2644 14.6459 46.1331 14.6506C46.0018 14.6552 45.8727 14.6857 45.7532 14.7402C45.6337 14.7947 45.5261 14.8723 45.4365 14.9684L40.7781 19.9747C40.7672 18.0803 41.3918 16.237 42.5519 14.7394Z" fill="white"/>
</svg>
