<svg width="49" height="49" viewBox="0 0 49 49" fill="none" xmlns="http://www.w3.org/2000/svg">
<g clip-path="url(#clip0_931_7715)">
<path d="M24.3838 0.417969C11.1289 0.417969 0.383789 11.1631 0.383789 24.418C0.383789 37.6728 11.1289 48.418 24.3838 48.418C37.6386 48.418 48.3838 37.6728 48.3838 24.418C48.3838 11.1631 37.6386 0.417969 24.3838 0.417969ZM36.8581 15.5995L32.5954 35.9492C32.5439 36.1954 32.4313 36.4246 32.268 36.6158C32.1047 36.8071 31.896 36.9543 31.661 37.0438C31.426 37.1333 31.1723 37.1624 30.9231 37.1283C30.674 37.0942 30.4374 36.998 30.2351 36.8486L24.0349 32.2678L20.2785 35.8116C20.2293 35.858 20.1714 35.8941 20.1081 35.9179C20.0448 35.9416 19.9774 35.9525 19.9099 35.95C19.8423 35.9474 19.776 35.9314 19.7147 35.9029C19.6534 35.8744 19.5984 35.834 19.5529 35.784L19.4721 35.6953L20.1248 29.3789L31.8889 18.6304C31.9471 18.5773 31.9833 18.5044 31.9903 18.426C31.9974 18.3475 31.9748 18.2693 31.927 18.2067C31.8792 18.1442 31.8097 18.1018 31.7321 18.0879C31.6546 18.0741 31.5747 18.0898 31.5082 18.1319L16.4633 27.6541L9.98379 25.478C9.8115 25.4201 9.66134 25.3104 9.55392 25.1637C9.44649 25.0171 9.38705 24.8409 9.38377 24.6592C9.38048 24.4775 9.4335 24.2992 9.53556 24.1488C9.63762 23.9984 9.78371 23.8833 9.95379 23.8192L35.3057 14.269C35.5012 14.1954 35.713 14.1757 35.9188 14.2119C36.1245 14.2482 36.3168 14.339 36.4755 14.475C36.6341 14.611 36.7533 14.7871 36.8206 14.9849C36.8879 15.1827 36.9009 15.3949 36.8581 15.5995Z" fill="#490D00"/>
</g>
<defs>
<clipPath id="clip0_931_7715">
<rect width="48" height="48" fill="white" transform="translate(0.383789 0.417969)"/>
</clipPath>
</defs>
</svg>
