<svg width="221" height="356" viewBox="0 0 221 356" fill="none" xmlns="http://www.w3.org/2000/svg">
<g opacity="0.1">
<path d="M19.7863 161.618C7.41231 158.192 -3.28886 149.574 -12.8947 141.407C-22.6264 133.142 -31.6494 123.687 -37.9514 112.522C-40.8564 107.375 -43.1474 101.897 -44.5955 96.1583C-46.2522 89.568 -46.6256 82.7781 -49.6407 76.5856C-49.9118 76.036 -49.3407 75.3474 -48.7564 75.4661C-34.8355 78.1015 -20.7341 75.4605 -6.73019 76.8233C6.37477 78.1052 19.1449 82.4894 30.3058 89.4261C40.7447 95.9204 52.4569 105.49 55.7853 117.845C58.9092 129.445 52.7465 134.843 57.3493 153.706C64.5999 159.979 70.3878 167.554 73.2025 177.4C73.2832 177.692 71.2834 180.791 67.6982 180.746C67.2039 172.821 54.5303 158.339 54.3792 158.41C43.6179 163.553 31.3286 164.827 19.7863 161.618ZM-11.3154 140.506C-3.69582 147.068 4.71908 153.669 13.9527 157.655C15.2757 158.229 16.6149 158.748 17.9768 159.205C29.5948 163.107 42.2393 162.071 53.3092 156.966C50.005 154.385 46.4214 152.071 42.8724 149.92C42.38 149.616 41.8827 149.336 41.3987 149.039C31.8523 149.862 23.3022 152.274 14.6464 156.467C14.5817 156.498 14.52 156.49 14.4696 156.451C14.3774 156.379 14.3427 156.217 14.4639 156.149C22.2275 151.488 31.5857 148.843 40.6786 148.611C36.7767 146.306 32.837 144.065 28.8775 141.85C20.4587 142.378 13.2123 144.444 5.55429 148.148C5.36004 148.239 5.20261 147.941 5.3717 147.829C11.7787 143.581 20.17 141.302 27.9566 141.333C22.9877 138.559 18.0168 135.769 13.1367 132.848C5.59596 133.346 -3.83009 133.588 -9.52991 138.727C-9.61267 138.797 -9.71278 138.786 -9.77987 138.734C-9.87211 138.662 -9.91157 138.523 -9.824 138.429C-7.27716 135.583 -3.60613 134.695 0.00426519 133.936C4.18532 133.055 8.43442 132.551 12.7029 132.59C11.8588 132.079 11.0081 131.577 10.1706 131.057C6.00158 128.489 1.98433 125.729 -1.89736 122.831C-4.75233 123.235 -7.618 123.549 -10.4342 124.213C-13.7977 125.003 -16.9308 126.257 -20.1813 127.419C-20.4139 127.508 -20.5215 127.18 -20.314 127.072C-15.0247 124.342 -8.34859 122.654 -2.3065 122.525C-4.84696 120.608 -7.33286 118.638 -9.76595 116.602C-16.6044 116.555 -22.4546 118.158 -28.4918 121.561C-28.5979 121.627 -28.7183 121.573 -28.7722 121.504C-28.8195 121.427 -28.8153 121.335 -28.7176 121.263C-23.5431 117.511 -16.5679 115.719 -10.1637 116.264C-13.4024 113.531 -16.5619 110.698 -19.6405 107.779C-22.0482 108.046 -24.5037 107.979 -26.9193 108.307C-29.5878 108.681 -32.1858 109.326 -34.806 109.913C-35.0056 109.96 -35.096 109.714 -34.9904 109.58C-34.9706 109.555 -34.9508 109.53 -34.9058 109.525C-32.3669 108.577 -29.6851 107.997 -26.9949 107.613C-24.8874 107.314 -22.5886 106.962 -20.3945 107.069C-22.7813 104.785 -25.1351 102.46 -27.4409 100.091C-28.2081 99.3968 -28.9688 98.6944 -29.7229 97.9836C-31.2997 97.954 -32.8843 97.7968 -34.4773 97.8221C-36.3887 97.8554 -38.2905 98.0312 -40.1972 98.2302C-40.4603 98.2543 -40.4966 97.8882 -40.2454 97.8277C-37.2476 97.1572 -33.7142 96.7701 -30.529 97.2187C-33.7705 94.1457 -36.8729 90.9653 -39.8127 87.6822C-39.8661 87.681 -39.9128 87.6715 -39.9547 87.6387C-40.5059 87.2892 -40.9455 86.9187 -41.6263 86.8191C-42.2603 86.729 -42.9347 86.8101 -43.4941 87.0891C-43.6518 87.1685 -43.7721 86.9259 -43.6461 86.8352C-42.9505 86.2979 -41.8721 86.1002 -40.9769 86.3403C-42.9687 84.0546 -44.8909 81.7151 -46.7202 79.3267C-45.3247 83.2946 -44.678 87.4205 -43.8706 91.6179C-42.6866 97.8794 -40.6381 103.871 -37.6939 109.535C-37.3384 110.218 -36.9763 110.893 -36.5992 111.566C-34.5377 115.257 -32.1494 118.757 -29.5308 122.087C-25.0362 127.814 -19.8592 133.021 -14.4205 137.81C-13.4017 138.701 -12.366 139.605 -11.3154 140.506ZM-8.62653 116.533C0.132626 123.661 9.52057 129.82 19.4322 135.402C30.5893 141.674 42.4481 147.332 52.7628 154.945C60.8911 160.931 67.631 168.967 68.6479 179.286C71.5937 179.385 71.9788 177.146 72.0868 177.095C62.4532 150.506 33.5791 141.254 11.1527 128.028C1.01121 122.05 -9.16559 115.207 -18.6807 107.543C-18.7005 107.568 -18.7035 107.606 -18.7233 107.631C-17.3428 108.94 -15.9472 110.246 -14.5253 111.519C-12.6434 113.206 -10.7086 114.825 -8.75412 116.42C-8.73913 116.418 -8.71575 116.423 -8.69237 116.428C-8.63064 116.435 -8.61691 116.487 -8.62653 116.533ZM-19.2121 107.168L-19.142 107.183C-19.2594 107.091 -19.3768 106.999 -19.4876 106.899C-19.4002 106.994 -19.3061 107.081 -19.2121 107.168ZM-16.4887 107.189C-11.9998 110.777 -7.37883 114.198 -2.65591 117.456C-9.63328 107.06 -13.3894 95.1952 -13.8126 82.6651C-13.8185 82.5524 -13.6471 82.5242 -13.6394 82.6518C-12.8892 95.6265 -8.52385 107.819 -1.06296 118.444C-1.02763 118.485 -1.02227 118.53 -1.00192 118.573C1.68605 120.389 4.40522 122.149 7.1556 123.852C11.2611 126.397 15.4356 128.821 19.7007 131.113C21.2926 131.965 22.906 132.807 24.5446 133.669C15.5164 118.847 9.83436 102.329 8.02942 85.0586C8.0235 84.9459 8.18834 84.9261 8.20924 85.037C10.6247 102.582 16.4859 119.199 25.7512 134.287C29.3496 136.153 33.0282 138.054 36.6792 140.042C29.3584 127.162 23.43 113.154 20.2728 98.6773C20.2692 98.6475 20.3273 98.6254 20.3393 98.6617C24.785 113.362 30.1758 127.26 37.8289 140.63C37.8457 140.643 37.8409 140.666 37.8427 140.681C42.8968 143.468 47.8608 146.455 52.4362 149.813C44.3362 136.203 39.3118 121.051 37.9937 105.241C37.9812 105.137 38.131 105.119 38.1502 105.215C40.0985 121.462 45.2959 136.79 53.9004 150.741C53.9393 150.812 53.9548 150.878 53.9554 150.946C54.6095 151.457 55.2636 151.968 55.9045 152.496C52.4484 142.879 55.8845 132.553 54.8457 122.622C53.3664 108.511 40.6002 97.8204 29.25 90.7628C17.3421 83.364 3.54169 78.9449 -10.4974 78.1761C-17.597 77.79 -24.6965 78.2279 -31.779 78.301C-37.0233 78.3646 -42.2561 78.2076 -47.4812 77.3541C-47.3352 77.6843 -47.2042 78.0164 -47.0731 78.3484C-43.6138 81.7808 -40.2125 85.2352 -36.7783 88.6479C-37.8962 86.2344 -38.6369 83.6697 -38.9869 81.0051C-38.9892 80.9222 -38.8843 80.9096 -38.867 80.9907C-38.196 83.9872 -37.1612 86.8492 -35.8123 89.6053C-33.0686 92.3299 -30.2836 95.0192 -27.4506 97.665C-30.3108 92.0663 -31.8772 85.7222 -31.8446 79.4656C-31.8416 79.4275 -31.8151 79.3941 -31.7702 79.3886C-31.7336 79.3767 -31.6935 79.3945 -31.6947 79.4476C-31.0086 86.3738 -29.236 92.6629 -26.1526 98.8547C-23.4711 101.315 -20.7284 103.714 -17.8813 106.033C-20.0435 101.439 -21.9502 96.6935 -23.5075 91.8832C-23.5314 91.8105 -23.4235 91.7597 -23.3912 91.839C-21.4919 96.903 -19.3953 101.838 -17.0709 106.707C-16.8762 106.872 -16.6816 107.038 -16.4887 107.189Z" fill="#593401"/>
<path d="M7.16407 123.86C7.16407 123.86 7.13053 123.834 7.12035 123.812C3.00689 117.464 -0.0782304 110.689 -1.9809 103.379C-1.99822 103.298 -1.8753 103.246 -1.85798 103.327C0.318718 110.513 3.35531 117.263 7.44842 123.568C7.57835 123.765 7.32343 123.984 7.16407 123.86Z" fill="#593401"/>
<path d="M-76.691 237.777C-61.8933 225.279 -45.4615 214.107 -27.0905 208.458C-4.17738 201.413 20.0266 205.165 38.7411 220.34C39.0129 220.565 39.0497 220.849 38.942 221.098C39.846 220.877 40.7514 220.749 41.5623 220.232C42.1129 219.886 42.5971 219.43 42.9583 218.89C43.1706 218.584 43.3005 218.247 43.5006 217.958C22.5143 203.164 -5.29182 198.907 -29.6604 207.679C-43.9628 212.822 -57.0469 221.743 -68.8595 231.147C-71.536 233.29 -74.1456 235.505 -76.6971 237.786L-76.691 237.777ZM44.6448 218.083C44.7891 219.408 43.2952 220.76 42.2575 221.38C41.0909 222.091 39.5695 222.586 38.3374 221.858C38.2495 221.798 38.1947 221.709 38.1932 221.618C38.0244 221.618 37.8325 221.577 37.6601 221.433C34.5062 218.861 31.1867 216.64 27.7494 214.738C18.4448 234.586 -4.18973 240.892 -24.2983 243.196C-36.8109 244.633 -49.3979 245.542 -61.944 246.673C-73.5084 247.714 -84.731 248.86 -95.3445 253.728C-97.5007 255.195 -96.6762 253.294 -96.2936 253.078C-87.0811 240.19 -80.225 225.767 -70.6698 213.113C-62.6946 202.554 -52.4208 193.8 -40.1628 188.523C-16.7084 178.415 12.5469 184.077 26.653 206.372C26.8493 206.687 26.7883 206.981 26.6218 207.202C32.8616 209.603 38.8404 212.754 44.3307 216.629C44.7613 216.923 44.7499 217.445 44.5309 217.798C44.583 217.873 44.6318 217.971 44.6387 218.092L44.6448 218.083ZM-25.5158 241.756C-5.01048 239.271 16.4753 233.857 26.3552 213.965C25.6179 213.589 24.8597 213.225 24.1103 212.867C19.8749 214.885 16.4639 217.21 13.7745 221.242C13.6896 221.364 13.4869 221.264 13.5603 221.121C15.6713 217.325 19.2003 213.933 23.4021 212.524C19.3983 210.673 15.2452 209.263 10.9968 208.252C2.33039 213.768 -4.096 221.232 -8.24116 230.657C-8.29637 230.774 -8.47546 230.677 -8.42026 230.56C-4.7255 221.149 1.70525 213.418 10.274 208.08C4.07141 206.673 -2.31702 206.133 -8.75488 206.45C-17.7133 214.632 -22.8363 227.377 -26.1333 238.738C-26.1615 238.835 -26.2418 238.858 -26.3094 238.824C-26.3533 238.794 -26.3852 238.746 -26.3751 238.676C-24.1417 227.877 -18.7251 214.017 -9.8994 206.531C-16.6383 206.965 -23.4009 208.312 -30.0271 210.565C-30.1223 210.59 -30.2147 210.63 -30.3011 210.661C-35.2263 217.229 -38.4028 224.452 -40.5066 232.37C-40.5321 232.482 -40.6855 232.441 -40.6572 232.344C-39.1611 224.462 -35.7467 217.363 -31.0253 210.94C-36.7443 212.95 -42.1249 215.462 -47.272 218.367C-52.2467 226.165 -54.6091 234.139 -56.0793 243.163C-56.086 243.21 -56.1217 243.224 -56.1427 243.235C-56.2109 243.24 -56.2784 243.207 -56.2745 243.145C-56.1933 234.668 -53.1103 226.271 -48.5932 219.114C-52.9372 221.626 -57.1431 224.388 -61.2185 227.316C-63.7076 231.602 -64.8711 235.956 -65.4301 240.84C-65.4508 241.019 -65.7344 240.98 -65.7435 240.806C-65.8039 236.311 -64.3934 231.881 -62.1447 227.999C-68.3963 232.535 -74.4022 237.447 -80.3912 242.408C-80.9524 243.779 -81.2821 245.116 -81.1976 246.658C-81.1906 246.779 -81.3743 246.782 -81.3812 246.661C-81.4877 245.375 -81.3444 244.027 -80.8626 242.808C-83.7266 245.185 -86.5993 247.555 -89.4836 249.905C-83.2484 247.655 -76.5102 246.718 -69.9419 246.025C-65.3019 245.536 -60.6625 245.085 -56.0177 244.663C-49.0563 244.021 -42.0928 243.431 -35.1401 242.782C-31.999 242.493 -28.7715 242.173 -25.5131 241.77L-25.5158 241.756ZM18.6144 204.586C20.7377 205.149 22.8354 205.823 24.9144 206.563C11.7067 186.393 -13.694 181.188 -35.4466 188.447C-38.8323 189.575 -42.1163 191.006 -45.2628 192.724C-52.4046 196.638 -58.2336 201.593 -63.2938 207.178C-66.9516 211.205 -70.2119 215.557 -73.2916 220.096C-69.6552 222.87 -65.9008 223.659 -61.5866 223.902C-57.025 220.57 -52.2848 217.374 -47.3633 214.496C-52.9928 214.824 -58.337 212.534 -62.0983 208.332C-62.1334 208.308 -62.124 208.276 -62.1146 208.243C-62.0903 208.208 -62.0485 208.185 -62.0106 208.224C-57.8062 212.497 -52.4113 214.396 -46.4632 213.963C-43.5334 212.277 -40.5406 210.725 -37.4909 209.315C-41.4217 208.443 -45.0267 205.924 -47.6692 203.043C-47.7334 202.986 -47.643 202.893 -47.5788 202.95C-44.2202 206.05 -40.6397 207.52 -36.4557 208.849C-33.0847 207.349 -29.6486 206.035 -26.1338 204.982C-23.4911 204.196 -20.8212 203.559 -18.1207 203.045C-24.6719 201.039 -30.3296 196.713 -33.7214 190.725C-33.7647 190.657 -33.7338 190.575 -33.6946 190.537C-33.6346 190.488 -33.5191 190.489 -33.4582 190.57C-29.1548 196.588 -23.7183 200.672 -16.5518 202.725C-16.5518 202.725 -16.5342 202.737 -16.5166 202.75C-11.0581 201.827 -5.54135 201.512 -0.0360131 201.718C-1.62816 200.912 -3.13798 199.594 -4.37304 198.684C-8.05793 195.981 -11.2971 192.821 -14.1539 189.277C-14.2209 189.205 -14.1184 189.095 -14.0514 189.166C-11.8067 191.555 -9.44466 193.831 -6.89856 195.897C-4.69454 197.689 -0.250043 201.765 2.96913 201.775C3.09067 201.767 3.17857 201.828 3.22461 201.911C7.82121 202.269 12.3967 203.014 16.8715 204.128C12.6167 200.957 9.05923 197.153 6.37712 192.516C6.31079 192.406 6.47811 192.314 6.54172 192.409C9.84181 197.108 13.7502 201.191 18.5069 204.461C18.5508 204.491 18.5799 204.523 18.6029 204.565L18.6144 204.586ZM-63.634 225.417C-63.2414 225.131 -62.8488 224.845 -62.4649 224.552C-66.4646 224.641 -70.4993 222.873 -73.5221 220.429C-75.6556 223.602 -77.7282 226.856 -79.7569 230.14C-84.2024 237.269 -88.5613 244.534 -93.5766 251.363C-88.7691 248.032 -84.8517 243.705 -80.5889 239.627C-80.7887 239.709 -81.0033 239.795 -81.2152 239.895C-82.8255 240.574 -84.4664 241.128 -86.1648 241.579C-86.2661 241.613 -86.3081 241.468 -86.2008 241.425C-84.5714 240.85 -82.9618 240.209 -81.3893 239.492C-80.6942 239.18 -80.0248 238.812 -79.3379 238.456C-77.1157 236.389 -74.8441 234.382 -72.5171 232.425C-74.9488 232.438 -77.31 231.751 -79.4303 230.454C-79.4742 230.424 -79.4702 230.362 -79.4196 230.345C-79.4196 230.345 -79.3872 230.355 -79.3784 230.361C-76.9902 231.57 -74.4835 232.047 -71.8865 231.888C-69.1965 229.651 -66.4457 227.494 -63.6428 225.411L-63.634 225.417Z" fill="#593401"/>
<path d="M104.084 136.757C104.434 136.32 105.374 136.795 105.053 137.324C82.2169 175.088 55.2797 214.053 46.7909 229.809C28.9804 262.905 6.89992 335.946 6.53309 336.127C3.91225 337.176 -0.9437 336.674 -0.556995 333.909C3.71731 303.219 16.1211 264.656 33.2071 234.207C43.1434 216.507 54.5415 199.677 66.5783 183.339C78.2061 167.58 103.898 136.859 104.084 136.757ZM72.9342 184.629C83.4352 169.949 94.0801 155.674 102.486 139.717C78.759 168.413 56.0504 199.335 37.451 231.558C19.2042 263.191 3.38084 305.626 1.73736 334.312C2.65275 334.998 3.81917 335.298 4.94638 335.173C4.70062 334.691 26.1696 264.599 43.1916 232.645C52.0515 216.002 61.9506 199.957 72.9322 184.618L72.9342 184.629Z" fill="#593401"/>
<path d="M128.341 7.42021C129.281 6.77923 130.249 6.28435 131.388 6.2759C139.031 6.19534 143.564 15.7779 146.247 19.1376C151.72 26.0094 158.389 31.8213 163.71 38.8097C180.642 61.0035 180.975 92.9266 164.143 115.381C156.325 125.801 145.724 133.413 133.512 137.821C129.198 139.378 125.452 140.953 121.747 143.745C119.32 145.568 116.984 147.688 114.077 148.718C110.775 149.891 107.326 150.649 103.178 146.625C103.14 146.6 103.103 146.575 103.063 146.539C102.038 146.796 100.816 146.659 99.9481 146.44C98.3209 146.003 97.0583 145.039 96.319 143.582C95.5694 143.134 94.9089 142.473 94.4688 141.661C93.1422 139.192 94.5594 136.366 94.6062 133.81C94.6814 129.33 91.7321 125.33 90.2898 121.259C85.1676 106.851 85.0168 90.0197 86.2724 74.8931C88.2697 50.8316 97.799 28.6945 118.985 15.7935C121.976 13.9668 127.458 8.01748 128.341 7.42021ZM136.479 11.7387C132.593 3.69705 125.187 13.6678 121.194 16.1478C116.984 18.7465 112.857 21.1554 109.204 24.5541C93.5018 39.1776 88.029 60.892 87.3686 81.6009C87.0126 92.746 87.3249 104.312 90.0594 115.149C91.402 120.497 94.6788 125.289 95.8985 130.564C96.2872 132.286 96.1403 133.767 95.927 135.521C95.7975 136.533 95.3934 137.696 95.4479 138.704C95.8148 145.404 101.575 141.448 101.693 141.219C102.027 140.589 103.067 141.131 102.8 141.769C101.958 143.811 104.206 150.301 112.233 141.736C114.302 139.528 116.38 137.416 118.69 135.442C122.755 131.983 126.941 128.707 130.813 125.037C139.417 116.877 147.03 107.472 151.954 96.6378C156.271 87.1479 158.344 76.4543 157.155 66.0806C155.968 55.663 150.881 47.5338 145.482 38.8594C143.036 34.9326 140.662 30.8724 139.286 26.4196C137.811 21.6182 138.656 16.2388 136.479 11.7387ZM137.184 9.49701C137.657 10.1405 138.041 10.8339 138.34 11.5333C140.044 15.5527 139.25 20.3042 140.303 24.4956C141.119 27.7477 142.547 30.7922 144.157 33.7139C147.234 39.3255 151.161 44.4442 154.012 50.1765C165.303 72.9112 155.822 99.1024 140.211 117.273C131.778 127.1 121.335 134.908 112.221 144.025C111.758 144.495 111.252 144.964 110.727 145.393C109.511 146.402 108.141 147.237 106.706 147.455C113.405 151.354 121.888 141.17 127.77 138.566C134.91 135.399 141.917 133.277 148.381 128.694C160.138 120.377 169.093 108.149 173.016 94.2835C175.644 84.9972 175.949 75.1518 174.138 65.7137C172.821 58.8763 170.395 52.258 166.942 46.2222C163.952 41.0051 160.082 36.5146 156.05 32.1427C154.437 30.3811 152.795 28.636 151.172 26.8764C148.72 24.2078 146.285 21.5141 144.134 18.6019C142.252 16.0698 140.289 11.278 137.184 9.49701ZM101.18 142.881C101.083 142.943 100.987 143.006 100.901 143.066C100.756 143.159 100.622 143.251 100.477 143.345C99.6218 144.088 98.5966 144.291 97.6115 144.085C98.3412 144.71 99.1866 145.204 100.094 145.458C100.735 145.624 101.399 145.687 102.062 145.632C101.383 144.823 101.071 143.888 101.18 142.881Z" fill="#593401"/>
<path d="M121.29 22.6873C122.631 22.043 124.336 21.9334 125.588 22.8452C126.901 23.7884 127.244 25.3891 127.335 26.9204C132.428 26.3037 134.358 34.4493 133.973 38.3936C138.447 40.9112 139.189 49.4866 137.894 53.6107C137.9 53.642 137.863 53.6711 137.848 53.7066C142.137 58.287 141.855 68.6901 138.139 72.9893C139.224 74.2701 139.973 75.8882 140.28 77.5284C141.118 82.0652 138.652 86.7567 135.767 90.1874C137.111 91.6877 137.982 93.5417 137.82 95.4482C137.489 99.3925 133.678 103.364 130.252 105.352C132.808 109.343 129.452 114.373 126.418 117.097C125.16 118.223 123.222 119.202 121.409 119.43C120.268 121.834 118.396 124.436 115.779 125.333C113.955 125.953 111.165 125.79 110.224 123.852C108.13 126.043 105.494 126.001 102.997 124.219C102.082 123.641 101.506 122.412 101.269 120.909C100.132 121.264 98.8357 120.74 98.0332 119.739C96.6769 118.068 96.5056 115.285 96.7603 113.241C97.0048 111.145 97.9427 109.096 99.7548 107.914C99.9772 107.772 100.212 107.639 100.461 107.525C98.3597 104.029 97.4181 99.4045 99.4818 95.6593C100.369 94.0212 101.729 92.7449 103.325 91.9633C100.685 87.7613 99.8604 82.0625 103.538 78.1283C104.257 77.3578 105.237 76.7524 106.332 76.3518C103.931 72.1564 103.223 66.3264 106.783 62.5131C107.079 62.1944 107.424 61.8988 107.787 61.6428C105.651 58.6412 104.853 54.3674 106.827 51.0518C107.481 49.9474 108.447 49.052 109.561 48.4094C107.019 44.4913 108.828 39.5504 112.547 37.45C110.615 33.2054 113.211 28.1199 117.541 26.6464C117.817 26.5593 118.021 26.6598 118.141 26.831C118.542 25.094 119.473 23.5665 121.29 22.6873ZM123.725 23.4301C122.537 23.2966 121.265 23.9598 120.473 24.7991C118.534 26.8401 119.091 30.0454 119.262 32.6013C120.394 31.8898 121.685 31.5478 122.888 32.0361C122.882 30.9972 123.105 30.0212 123.616 29.1835C122.682 28.7938 121.652 28.4123 120.891 27.7935C120.727 27.6743 120.845 27.445 121.039 27.4933C122.009 27.735 122.963 28.3375 123.856 28.8544C124.389 28.1314 125.165 27.5445 126.245 27.1793C126.124 25.5456 125.623 23.6401 123.725 23.4301ZM117.975 27.8175C117.916 27.8508 117.859 27.8945 117.788 27.9194C114.087 29.1603 112.327 33.4087 113.501 36.9907C114.347 36.65 115.251 36.4388 116.212 36.4113C116.388 35.9214 116.589 35.4482 116.862 35.0044L117.064 34.7043C116.491 34.4926 115.915 34.2704 115.372 33.9878C115.214 33.8999 115.344 33.679 115.495 33.7252C116.116 33.9057 116.697 34.1591 117.281 34.423C117.618 33.9772 118.032 33.5378 118.49 33.1548C118.459 33.1067 118.426 33.0482 118.413 32.9856C118.016 31.3848 117.776 29.5361 117.975 27.8175ZM127.177 28.2303C124.26 28.6986 123.814 32.3298 124.488 34.5152C125.047 36.3332 126.299 37.7436 127.062 39.4348C127.874 38.4724 129.033 37.8424 130.657 37.7055C131.491 37.6381 132.236 37.7292 132.929 37.939C132.943 37.6762 132.942 37.3945 132.938 37.092C132.09 36.0787 131.047 35.353 129.917 34.6772C129.784 34.606 129.896 34.3997 130.025 34.45C131.194 34.8797 132.15 35.72 132.924 36.6831C132.883 35.8027 132.757 34.82 132.544 33.8328C132.107 33.5942 131.678 33.3431 131.24 33.1045C130.716 32.8073 130.143 32.5414 129.705 32.1296C129.599 32.0314 129.733 31.8856 129.858 31.915C130.423 32.085 130.952 32.4573 131.466 32.7565C131.787 32.9532 132.105 33.1394 132.424 33.3256C132.205 32.4803 131.914 31.6496 131.534 30.9229C130.684 30.5167 129.815 30.125 128.997 29.6584C128.851 29.5788 128.978 29.337 129.119 29.3957C129.855 29.7162 130.565 30.0742 131.267 30.4447C130.355 28.9348 129.032 27.9394 127.177 28.2303ZM122.957 33.0084C120.36 33.3918 118.4 34.2019 117.416 36.9643C116.566 39.3535 117.183 41.9184 117.382 44.393C119.798 42.7993 123.123 42.3587 125.487 43.9067C125.527 43.3894 125.614 42.8847 125.713 42.3884C124.64 41.6146 123.545 40.8449 122.548 39.9586C122.429 39.852 122.602 39.6771 122.727 39.7608C123.794 40.4491 124.798 41.2582 125.801 42.0569C126 41.2374 126.301 40.4953 126.731 39.8577C126.577 39.7364 126.43 39.5922 126.274 39.4605C126.292 39.5544 126.187 39.6835 126.078 39.6291C124.668 38.9653 123.105 38.4075 121.806 37.5374C121.631 37.4203 121.773 37.1431 121.981 37.2102C123.414 37.7072 124.756 38.5795 126.091 39.3016C125.285 38.5074 124.562 37.4693 124.003 36.323C123.177 35.8146 122.301 35.4459 121.38 35.0646C121.226 34.9975 121.263 34.741 121.443 34.7705C122.25 34.9034 123 35.2427 123.706 35.6883C123.341 34.8177 123.077 33.9056 122.957 33.0084ZM115.874 37.6374C110.73 38.4919 108.438 43.3006 110.481 47.9459C111.787 47.4058 113.238 47.2165 114.624 47.5277C114.82 47.1421 115.03 46.7648 115.274 46.4023C115.386 46.2502 115.51 46.1065 115.624 45.9649C114.667 45.5689 113.692 45.0789 112.843 44.51C112.727 44.4138 112.828 44.2096 112.97 44.2683C113.945 44.6497 114.907 45.1854 115.8 45.7565C116.04 45.4816 116.313 45.2109 116.603 44.9694C116.49 44.6667 116.398 44.3599 116.304 44.0426C115.44 43.5091 114.526 42.9964 113.767 42.3337C113.651 42.2376 113.734 41.9936 113.892 42.0815C114.694 42.4647 115.439 43.0001 116.171 43.5271C115.685 41.6404 115.487 39.556 115.874 37.6374ZM132.401 39.4735C128.035 38.1264 126.857 41.458 126.943 45.3092C126.943 45.3092 126.947 45.33 126.97 45.3363C127.121 45.5556 127.094 45.81 126.966 45.9871C127.117 48.5575 127.77 51.2457 128.387 52.8573C129.262 52.1642 130.343 51.6905 131.627 51.5342C133.843 51.2586 135.638 51.8355 137.05 52.9541C137.103 52.2178 137.143 51.3646 137.155 50.4738C137.144 50.4759 137.13 50.4571 137.128 50.4467C136.225 49.0432 134.911 48.0896 133.385 47.4485C133.16 47.3521 133.279 47.0144 133.511 47.0878C135.077 47.5475 136.309 48.6365 137.151 50.0086C137.139 45.8071 136.295 40.6758 132.401 39.4735ZM125.449 45.6152C122.047 43.7524 118.213 44.0877 116.007 47.8827C115.984 47.9306 115.971 47.9765 115.935 48.0161C113.717 53.3735 116.03 56.5027 118.196 59.6608C120.506 58.4132 123.281 58.3848 125.264 60.3222C125.296 59.3084 125.437 58.3052 125.679 57.369C124.798 56.5246 123.718 55.9365 122.509 55.6986C122.338 55.6565 122.352 55.3937 122.53 55.4128C123.806 55.5507 124.92 56.1431 125.748 57.1062C126.089 55.9011 126.603 54.8026 127.321 53.913C127.163 53.5435 126.992 53.1114 126.829 52.6668C125.787 51.9952 124.687 51.3674 123.731 50.5813C123.617 50.4956 123.726 50.3331 123.858 50.3938C124.853 50.9338 125.77 51.6301 126.702 52.291C126.427 51.4894 126.177 50.5961 125.972 49.6507C124.883 49.0209 123.732 48.4034 122.794 47.6028C122.665 47.4982 122.755 47.2314 122.934 47.3151C123.969 47.7822 124.916 48.4618 125.86 49.1311C125.637 47.9833 125.482 46.7897 125.449 45.6152ZM114.087 48.8473C111.491 48.4504 108.894 49.8414 107.722 52.3051C106.327 55.2462 107.271 58.375 108.806 61.0188C111.071 59.8776 113.948 59.818 115.858 61.5425C116.159 61.1905 116.491 60.8865 116.837 60.6013C116.795 60.6096 116.753 60.6179 116.716 60.5928C115.279 59.4032 113.682 58.5054 111.997 57.7117C111.818 57.628 111.907 57.3611 112.095 57.4324C113.9 58.0614 115.475 59.1261 116.886 60.4074C116.928 60.4534 116.906 60.5118 116.883 60.5597C117.07 60.4036 117.257 60.2475 117.458 60.1101C116.044 58.9811 115.011 57.4626 114.373 55.8009C113.311 55.2524 112.19 54.7372 111.21 54.0533C111.071 53.9508 111.181 53.6798 111.361 53.7636C112.359 54.2056 113.293 54.8227 114.221 55.4084C113.993 54.7384 113.814 54.0371 113.72 53.3297C113.678 53.338 113.636 53.3463 113.588 53.3232C112.766 52.8357 111.876 52.3939 111.113 51.8189C110.961 51.7081 111.08 51.4246 111.261 51.5188C112.113 51.9354 112.899 52.5168 113.696 53.0418C113.552 51.6292 113.653 50.19 114.087 48.8473ZM132.791 53.1676C124.468 52.8086 125.612 67.4804 131.03 70.5484C131.494 70.424 131.971 70.3623 132.475 70.3277C134.349 70.2497 135.999 70.9744 137.3 72.1367C138.033 70.8759 138.622 69.1558 139.005 67.2706C138.02 65.721 136.817 64.6695 135.051 63.9675C134.841 63.8899 134.947 63.5981 135.164 63.6527C136.793 64.0457 138.332 65.2584 139.096 66.7868C139.249 65.9005 139.364 64.9786 139.413 64.0587C139.413 64.0587 139.419 64.0358 139.417 64.0254C139.454 63.1513 139.457 62.273 139.387 61.4092C138.125 60.0009 136.631 59.0178 135.115 57.9198C134.951 57.8006 135.069 57.5172 135.269 57.5968C136.847 58.2275 138.202 59.4441 139.322 60.7395C138.839 56.7395 136.945 53.3649 132.793 53.1781L132.791 53.1676ZM115.059 62.6321C111.896 60.8845 108.44 61.7087 106.643 65.1518C104.777 68.7388 105.977 72.5105 107.219 76.0571C109.711 75.4128 112.512 75.8558 113.838 78.0424C114.243 77.8324 114.641 77.6454 115.058 77.498C114.428 76.9941 114.07 76.2738 113.841 75.4848C113.42 74.9938 112.982 74.5278 112.456 74.1117C111.741 73.5597 110.928 73.1786 110.103 72.7891C109.959 72.72 110.028 72.5115 110.188 72.5556C111.482 72.8416 112.739 73.6658 113.668 74.7064C113.543 74.0594 113.497 73.3751 113.457 72.7221C112.683 71.759 111.72 71.1043 110.57 70.6058C110.415 70.5387 110.453 70.2822 110.632 70.3117C111.767 70.5098 112.751 71.2146 113.421 72.1442C113.385 71.512 113.359 70.8777 113.355 70.2394C112.658 69.3912 111.769 68.7867 110.763 68.303C110.549 68.2045 110.657 67.8689 110.889 67.9423C111.915 68.2487 112.732 68.9323 113.351 69.7742C113.356 69.069 113.381 68.3598 113.46 67.6507C112.814 66.3916 111.756 65.7555 110.486 65.1399C110.292 65.0373 110.325 64.7056 110.57 64.7332C111.881 64.8857 112.938 65.9119 113.543 67.0708C113.733 65.7006 114.094 64.3724 114.753 63.126C114.838 62.9468 114.95 62.7947 115.057 62.6217L115.059 62.6321ZM125.023 62.2661C119.694 56.5802 115.729 62.7272 114.969 66.919C114.491 69.603 113.988 75.12 116.355 77.1331C119.52 76.4858 122.831 77.5432 124.613 80.3981C124.611 80.2792 124.669 80.0728 124.765 79.783C124.241 77.698 123.006 76.2084 121.055 75.2181C120.861 75.1156 121.026 74.8446 121.209 74.895C123.159 75.4847 124.644 77.3149 124.937 79.3264C125.682 77.4022 127.529 73.6025 128.81 71.7022C128.789 71.7063 128.764 71.6896 128.748 71.6604C127.861 70.5031 126.762 69.7125 125.612 68.8239C125.435 68.6963 125.575 68.3544 125.792 68.4633C127.119 69.0894 128.163 70.2699 128.97 71.4646C129.168 71.198 129.339 70.9584 129.505 70.8064C129.18 70.0256 126.066 67.6398 125.023 62.2661ZM135.876 72.7976C131.821 69.8718 127.357 73.6689 126.386 77.7289C125.979 79.4346 125.725 85.8449 128.058 87.009C128.926 86.8374 129.86 86.837 130.83 87.0786C132.259 87.4462 133.722 88.2729 134.959 89.3828C135.187 88.991 135.423 88.5868 135.658 88.172C134.865 86.2701 133.673 85.1081 132.082 83.8515C131.94 83.7386 132.036 83.503 132.221 83.5639C133.981 84.1803 135.343 85.9372 135.932 87.6844C136.661 86.4027 137.369 85.0167 137.931 83.6053C137.91 83.6095 137.883 83.5823 137.865 83.5426C137.432 82.2088 136.606 81.2018 135.523 80.3216C135.38 80.1983 135.529 79.9628 135.692 80.0716C136.872 80.8352 137.629 82.0506 138.018 83.3823C139.483 79.5714 139.743 75.5978 135.876 72.7976ZM112.662 78.806C109.536 76.4118 105.689 76.6197 103.415 80.5147C101.331 84.1012 102.517 88.1359 104.09 91.6497C105.367 91.1805 106.759 91.0244 108.159 91.3002C108.081 90.7305 108.05 90.1192 108.062 89.5101C107.369 88.6828 106.409 88.1574 105.34 87.9678C105.228 87.9467 105.239 87.7819 105.36 87.7905C106.446 87.8466 107.379 88.399 108.078 89.2034C108.112 88.4275 108.207 87.6286 108.358 86.8403C107.486 86.1566 106.539 85.5854 105.651 84.9267C105.512 84.8243 105.626 84.5741 105.793 84.6495C106.789 85.0268 107.65 85.7126 108.433 86.4462C108.62 85.5641 108.887 84.6988 109.184 83.8816C109.153 83.8878 109.111 83.8961 109.065 83.8835C108.627 83.6991 108.19 83.5147 107.742 83.3324C107.339 83.1627 106.901 83.0327 106.55 82.7879C106.373 82.6604 106.523 82.4249 106.704 82.4648C107.138 82.5741 107.544 82.8189 107.94 83.0115C108.357 83.2 108.765 83.401 109.171 83.5916C109.219 83.6146 109.238 83.6543 109.248 83.7065C109.511 82.9935 109.816 82.3265 110.137 81.7429C110.57 80.9531 111.027 80.2883 111.498 79.8052C111.86 79.4303 112.253 79.1036 112.662 78.806ZM124.254 82.7444C122.407 76.8144 115.18 77.3439 111.866 81.5311C109.531 84.4956 108.003 91.8945 111.456 94.7441C111.859 94.4694 112.266 94.2156 112.693 94.0119C115.859 92.5301 118.859 93.5515 120.685 95.6826C120.717 95.6221 120.797 95.5305 120.896 95.4243C119.46 92.7285 117.317 90.9201 114.356 89.9886C114.137 89.9235 114.206 89.5523 114.431 89.5945C117.417 90.1526 120.028 92.3561 121.098 95.1785C121.428 94.8098 121.895 94.2516 122.403 93.5119C121.813 92.2091 120.812 91.1934 119.544 90.534C119.35 90.4314 119.526 90.1042 119.715 90.1859C121.061 90.7975 122.03 91.8736 122.595 93.2139C123.086 92.445 123.577 91.503 123.968 90.3855C123.069 89.6746 122.173 88.9741 121.319 88.2111C121.176 88.0878 121.39 87.8503 121.532 87.9632C122.403 88.647 123.238 89.3703 124.074 90.0936C124.525 88.6717 124.774 86.9864 124.616 85.0565C123.559 84.6478 122.554 84.1099 121.685 83.3824C121.489 83.2151 121.704 82.8692 121.921 83.0323C122.746 83.6492 123.621 84.1806 124.569 84.5891C124.497 83.9965 124.411 83.3852 124.254 82.7444ZM108.074 92.5955C104.483 91.8318 101.109 94.2541 100.017 97.6338C98.9616 100.865 99.9839 104.228 101.309 107.195C102.743 106.749 104.366 106.775 105.394 107.872C105.408 107.891 105.412 107.911 105.427 107.93C105.352 107.263 105.349 106.58 105.389 105.89C104.498 104.993 103.499 104.378 102.299 103.9C102.18 103.848 102.202 103.627 102.348 103.652C103.531 103.873 104.632 104.566 105.427 105.471C105.501 104.676 105.66 103.875 105.884 103.072C105.832 103.083 105.78 103.093 105.749 103.045C104.846 101.977 103.686 101.427 102.37 101.026C102.162 100.959 102.241 100.64 102.45 100.653C103.903 100.755 105.149 101.69 105.942 102.866C106.198 101.949 106.555 101.044 106.974 100.181C106.668 100.003 106.362 99.8251 106.066 99.6452C105.637 99.3941 105.166 99.1513 104.824 98.7856C104.728 98.6853 104.848 98.5207 104.976 98.5605C105.443 98.7283 105.856 99.0691 106.258 99.3472C106.537 99.5522 106.824 99.7446 107.102 99.9496C107.58 98.9992 108.154 98.0948 108.79 97.2865C107.99 96.9137 107.19 96.4867 106.485 95.9869C106.281 95.8321 106.446 95.4527 106.696 95.5658C107.517 95.9344 108.319 96.4261 109.072 96.949C109.566 96.3637 110.081 95.8285 110.632 95.3621C109.53 94.7782 108.222 92.6312 108.074 92.5955ZM133.292 90.0808C129.382 87.0072 125.487 88.6442 123.836 93.1202C122.541 96.6268 122.314 99.9871 125.522 102.582C126.969 102.707 128.344 103.248 129.418 104.303C129.672 104.102 129.926 103.9 130.189 103.685C130.189 103.685 130.189 103.685 130.185 103.664C129.566 102.378 128.564 101.525 127.344 100.835C127.185 100.747 127.312 100.505 127.475 100.56C128.849 101.036 129.863 102.179 130.422 103.488C131.048 102.963 131.678 102.405 132.268 101.811C131.848 100.876 131.068 100.326 130.094 100.009C129.873 99.9338 129.948 99.5939 130.18 99.6131C131.291 99.686 132.176 100.497 132.586 101.489C133.002 101.06 133.395 100.624 133.764 100.172C133.134 99.2241 132.347 98.5238 131.488 97.74C131.302 97.5603 131.581 97.3209 131.764 97.4255C132.741 97.9258 133.477 98.8638 134.025 99.839C134.509 99.2015 134.927 98.5556 135.265 97.8928C134.029 96.6201 132.578 95.8018 130.999 94.9979C130.781 94.8786 130.983 94.5786 131.188 94.6249C132.867 95.0513 134.316 96.195 135.449 97.4988C136.538 95.0516 136.315 92.4519 133.302 90.0788L133.292 90.0808ZM120.989 102.784C123.548 95.8859 114.792 92.1235 110.406 97.7254C107.613 101.29 105.491 106.249 107.193 110.647C107.942 110.705 108.758 110.934 109.641 111.399C111.065 112.136 111.983 113.168 112.504 114.343C113.413 113.373 114.753 112.837 116.082 112.693C116.079 112.228 116.128 111.752 116.198 111.273C114.882 110.092 113.4 109.225 111.802 108.49C111.541 108.379 111.669 107.975 111.949 108.071C113.598 108.623 115.048 109.658 116.254 110.893C116.444 109.859 116.768 108.841 117.223 107.885C115.544 107.068 113.804 106.328 112.205 105.366C112.032 105.259 112.184 104.98 112.362 105.053C114.087 105.774 115.717 106.73 117.362 107.597C117.804 106.74 118.325 105.955 118.931 105.272C117.964 104.769 116.921 104.315 116.034 103.666C115.885 103.566 115.997 103.305 116.185 103.377C117.212 103.802 118.165 104.459 119.133 105.026C119.143 105.024 119.147 105.045 119.149 105.055C119.322 104.88 119.482 104.697 119.658 104.543C120.019 104.222 120.734 103.431 120.807 103.243C120.821 103.208 120.845 103.16 120.858 103.114C120.816 103.122 120.763 103.132 120.709 103.078C119.57 102.242 118.344 101.465 117.309 100.5C117.135 100.328 117.389 100.072 117.585 100.185C118.777 100.903 119.856 101.871 120.956 102.726C120.971 102.745 120.975 102.766 120.989 102.784ZM105.017 108.618C103.519 108.34 102.293 107.954 100.832 108.709C99.4407 109.428 98.5867 110.734 98.1663 112.204C97.5709 114.283 97.83 120.874 101.17 120.008C100.888 116.152 102.583 111.18 106.186 110.662C105.835 109.919 105.255 108.668 105.017 108.618ZM127.322 104.696C120.341 100.789 115.854 111.46 118.474 116.619C118.524 116.707 118.531 116.803 118.527 116.891C119.426 117.829 120.63 118.046 121.914 117.781C120.812 117.251 119.626 116.738 118.708 115.977C118.566 115.864 118.666 115.595 118.864 115.665C120.111 116.101 121.244 116.96 122.36 117.671C122.914 117.508 123.484 117.254 124.042 116.938C123.16 115.866 122.03 115.19 120.729 114.7C120.483 114.608 120.613 114.268 120.861 114.316C122.282 114.642 123.488 115.596 124.342 116.749C125 116.337 125.653 115.839 126.248 115.267C125.527 114.857 124.717 114.432 124.106 113.859C124 113.761 124.137 113.571 124.269 113.632C125.042 113.978 125.755 114.573 126.43 115.09C127.05 114.48 127.614 113.805 128.095 113.092C127.255 112.121 126.299 111.28 125.208 110.586C124.028 109.822 122.75 109.446 121.477 108.875C121.285 108.783 121.318 108.451 121.563 108.478C124.202 108.759 126.682 110.739 128.323 112.755C128.793 111.99 129.18 111.187 129.417 110.393C128.368 109.463 127.179 108.766 125.912 108.171C125.673 108.056 125.788 107.697 126.044 107.788C127.379 108.228 128.521 109.021 129.524 109.993C130.023 107.922 129.528 105.929 127.322 104.696ZM109.587 113.078C102.583 107.994 99.6291 122.197 105.154 124.139C107.768 125.128 110.248 122.688 111.172 119.731C111.151 119.736 111.12 119.742 111.095 119.725C110.358 119.286 109.608 118.892 108.825 118.549C108.183 118.264 107.43 118.077 106.862 117.669C106.696 117.539 106.773 117.264 106.994 117.285C107.721 117.337 108.431 117.749 109.068 118.067C109.826 118.448 110.572 118.875 111.281 119.341C111.463 118.655 111.563 117.942 111.559 117.25C110.224 116.527 108.816 115.874 107.607 114.964C107.456 114.854 107.583 114.558 107.772 114.639C109.106 115.242 110.317 116.108 111.544 116.895C111.449 115.397 110.862 113.996 109.587 113.078ZM116.144 113.624C114.904 113.836 113.947 114.448 112.9 115.262C112.879 115.266 112.862 115.291 112.841 115.295C113.519 117.946 112.505 121.061 110.775 123.223C112.74 124.449 114.3 124.487 115.656 123.862C115.161 123.548 114.655 123.236 114.134 122.96C113.505 122.629 112.832 122.405 112.213 122.072C112.055 121.984 112.202 121.792 112.338 121.82C113.609 122.099 114.916 122.903 115.922 123.722C116.287 123.531 116.641 123.288 116.988 123.002C116.967 123.007 116.931 122.992 116.904 122.965C116.082 122.087 115.085 121.537 113.987 121.082C113.799 121.011 113.845 120.687 114.06 120.732C115.312 120.972 116.377 121.758 117.146 122.754C117.162 122.784 117.17 122.825 117.166 122.859C117.557 122.522 117.927 122.134 118.282 121.728C117.549 120.692 116.517 120.246 115.346 119.86C115.137 119.793 115.22 119.495 115.427 119.497C116.718 119.491 117.845 120.428 118.484 121.482C119.033 120.843 119.55 120.145 120.087 119.443C118.598 119.271 117.345 118.414 116.862 116.429C116.842 116.324 116.847 116.237 116.874 116.155C116.472 115.368 116.239 114.504 116.144 113.624Z" fill="#593401"/>
<path d="M142.184 21.8225C142.152 21.5472 142.558 21.4563 142.613 21.7379C145.637 37.0194 162.229 48.0285 160.242 64.4948C160.25 64.5365 160.173 64.5301 160.18 64.5072C161.443 47.5014 143.719 37.9831 142.186 21.8329L142.184 21.8225Z" fill="#593401"/>
<path d="M122.731 26.1694C122.655 26.0544 122.771 25.9231 122.892 25.9317C123.264 25.9448 123.624 26.2315 123.976 26.3678C124.41 26.5314 124.853 26.6283 125.308 26.6792C125.551 26.6963 125.524 27.0595 125.283 27.0528C124.788 27.0207 124.295 26.9446 123.821 26.7997C123.45 26.678 122.943 26.5288 122.731 26.1694Z" fill="#593401"/>
<path d="M115.244 30.2319C115.086 30.1439 115.219 29.879 115.386 29.9545C116.007 30.2436 116.605 30.5807 117.201 30.9073C117.372 31.0036 117.201 31.2434 117.032 31.1575C116.432 30.8642 115.821 30.5731 115.244 30.2319Z" fill="#593401"/>
<path d="M145.428 24.8183C145.275 24.5886 145.663 24.3496 145.822 24.5564C147.83 27.1276 149.836 29.8613 151.769 32.718C159.225 43.7875 165.485 56.7394 166.323 69.8635C166.695 75.6278 166.019 81.415 163.944 87.0887C163.929 87.1241 163.871 87.1031 163.875 87.0697C170.43 63.2036 157.831 43.9222 145.428 24.8183Z" fill="#593401"/>
<path d="M115.572 32.0736C115.499 31.9796 115.559 31.8377 115.691 31.8442C116.067 31.8783 116.422 32.144 116.75 32.3178C117.143 32.5543 117.535 32.7804 117.937 33.0044C118.145 33.1258 117.932 33.4281 117.726 33.3171C117.338 33.1119 116.953 32.9171 116.576 32.7098C116.238 32.5381 115.804 32.3746 115.572 32.0736Z" fill="#593401"/>
<path d="M152.878 31.9743C152.863 31.9013 152.954 31.8076 153.031 31.8682C153.617 32.3699 154.167 32.9112 154.678 33.4712C156.236 35.1783 157.518 37.1352 158.546 39.1856C158.581 39.2545 158.48 39.2961 158.447 39.2376C156.911 36.5292 155.028 34.2687 152.898 32.0244C152.884 32.0056 152.882 31.9952 152.878 31.9743Z" fill="#593401"/>
<path d="M113.267 39.8999C113.161 39.8016 113.279 39.6265 113.393 39.7123C114.176 40.2729 114.916 40.896 115.673 41.4941C115.79 41.5903 115.653 41.78 115.538 41.6942C114.781 41.0961 114.007 40.523 113.267 39.8999Z" fill="#593401"/>
<path d="M132.525 42.7626C132.414 42.6978 132.518 42.5581 132.624 42.6021C134.07 43.335 135.389 44.364 136.633 45.3971C136.697 45.4494 136.632 45.5599 136.557 45.5097C135.273 44.4953 133.884 43.6644 132.525 42.7626Z" fill="#593401"/>
<path d="M122.489 52.84C122.327 52.7312 122.464 52.4329 122.656 52.5251C123.947 53.1263 125.142 53.909 126.343 54.6687C126.441 54.7252 126.359 54.915 126.25 54.8606C124.975 54.2239 123.674 53.6247 122.489 52.84Z" fill="#593401"/>
<path d="M162.698 46.7431C162.576 46.5072 162.923 46.3412 163.062 46.5521C164.416 48.6672 165.482 50.9151 166.283 53.2479C168.098 58.5102 168.509 64.1903 167.678 69.78C167.662 69.8696 167.521 69.8651 167.536 69.7755C168.56 61.4405 166.765 53.9975 162.698 46.7431Z" fill="#593401"/>
<path d="M167.619 52.7544C167.558 52.4414 168.008 52.2443 168.177 52.5575C170.453 56.7869 172.017 61.3193 172.921 65.9713C174.823 75.755 173.813 86.1247 170.424 95.5344C170.403 95.5928 170.32 95.5551 170.343 95.5072C175.198 81.0314 173.621 66.6129 167.643 52.8253C167.639 52.8045 167.635 52.7836 167.629 52.7523L167.619 52.7544Z" fill="#593401"/>
<path d="M135.754 61.3986C135.598 61.3211 135.731 61.0563 135.885 61.1234C137.3 61.7539 138.475 62.768 139.417 63.9799C139.421 64.0008 139.446 64.0175 139.448 64.028C139.45 64.0384 139.441 64.0509 139.443 64.0613C139.428 64.151 139.311 64.2176 139.238 64.1236C138.273 62.9596 137.085 62.1 135.752 61.3882L135.754 61.3986Z" fill="#593401"/>
<path d="M131.006 65.2563C130.783 65.1161 130.97 64.7326 131.199 64.8498C133.127 65.7692 134.929 66.9408 136.623 68.2208C137.463 68.8566 138.613 69.7997 137.885 70.919C137.784 71.069 137.545 70.9538 137.608 70.7786C138.133 69.3418 135.197 67.9283 134.289 67.3383C133.196 66.6332 132.089 65.9635 131.006 65.2563Z" fill="#593401"/>
<path d="M121.898 69.5978C121.689 69.4764 121.869 69.1158 122.086 69.2246C124.257 70.28 126.002 72.0483 127.314 74.0536C127.393 74.179 127.181 74.3184 127.094 74.2055C125.668 72.2876 123.894 70.872 121.898 69.5978Z" fill="#593401"/>
<path d="M123.682 73.6945C123.539 73.5711 123.632 73.3252 123.839 73.3819C125.2 73.7953 125.928 75.3631 125.862 76.698C125.85 76.917 125.486 76.9456 125.465 76.7223C125.358 75.3892 124.659 74.5306 123.682 73.6945Z" fill="#593401"/>
<path d="M107.404 80.7022C107.206 80.5787 107.369 80.2971 107.575 80.3539C108.429 80.6079 109.239 81.0874 110.04 81.4603C110.159 81.5127 110.174 81.6505 110.126 81.736C110.096 81.8069 110.016 81.8443 109.923 81.8087C109.082 81.4545 108.179 81.1669 107.404 80.7022Z" fill="#593401"/>
<path d="M134.942 77.2674C134.786 77.1357 134.902 76.8417 135.126 76.9277C136.75 77.5168 137.976 79.2464 138.642 80.7727C138.718 80.9418 138.471 81.0666 138.384 80.8995C138.008 80.1394 137.526 79.4438 136.93 78.8356C136.321 78.2191 135.601 77.8089 134.942 77.2674Z" fill="#593401"/>
<path d="M163.008 74.1505C163.028 73.9732 163.283 73.9986 163.271 74.1635C163.089 78.3177 162.498 82.4338 161.508 86.4552C157.489 103.019 147.054 118.044 133.262 127.977C133.262 127.977 133.241 127.982 133.231 127.984C133.179 127.994 133.118 127.908 133.175 127.865C150.7 114.776 160.66 95.6289 163.006 74.14L163.008 74.1505Z" fill="#593401"/>
<path d="M133.784 82.7165C133.63 82.6495 133.652 82.3741 133.842 82.4016C135.42 82.6422 136.734 84.0946 136.95 85.6556C136.979 85.8016 136.748 85.9014 136.685 85.7406C136.148 84.2646 135.192 83.3699 133.784 82.7165Z" fill="#593401"/>
<path d="M121.462 85.3062C121.269 85.2036 121.458 84.9493 121.65 85.0415C122.756 85.5922 123.663 86.3992 124.39 87.4041C124.508 87.565 124.269 87.7858 124.138 87.6165C123.419 86.6534 122.51 85.8902 121.462 85.3062Z" fill="#593401"/>
<path d="M169.899 75.9227C169.936 75.6118 170.4 75.6501 170.384 75.9569C170.097 89.0316 165.539 102.214 158.499 113.188C154.905 118.798 150.541 124.191 145.01 127.995C139.229 131.967 132.23 133.524 126.219 137.097C126.177 137.106 126.134 137.049 126.174 137.03C131.245 133.546 137.195 132.011 142.477 128.94C148.754 125.282 153.563 119.551 157.508 113.568C165.08 102.088 168.592 89.4485 169.899 75.9227Z" fill="#593401"/>
<path d="M131.928 92.9553C131.699 92.8381 131.812 92.469 132.069 92.5591C133.666 93.1211 134.921 94.2709 135.797 95.7018C135.921 95.894 135.603 96.0437 135.47 95.864C134.594 94.5417 133.35 93.6172 131.928 92.9553Z" fill="#593401"/>
<path d="M162.127 95.721C162.127 95.721 162.191 95.6655 162.199 95.7067C162.207 95.748 162.135 95.7623 162.127 95.721Z" fill="#593401"/>
<path d="M160.584 99.7402C160.584 99.7402 160.626 99.732 160.615 99.734C156.493 110.633 149.247 120.165 139.655 126.854C134.268 130.619 127.579 132.668 122.718 137.131C118.908 140.627 116.309 145.207 111.054 146.636C111.044 146.639 111.033 146.641 111.029 146.62C111.025 146.599 111.025 146.599 111.046 146.595C116.88 144.4 119.611 138.927 124.387 135.315C127.391 133.041 130.902 131.588 134.253 129.873C135.371 129.306 136.472 128.708 137.528 128.044C148.144 121.37 156.031 111.331 160.582 99.7298L160.584 99.7402Z" fill="#593401"/>
<path d="M99.9397 112.294C99.8006 112.137 99.94 111.903 100.126 111.91C100.521 111.93 100.887 112.193 101.227 112.375C101.638 112.587 102.029 112.813 102.421 113.039C102.604 113.144 102.452 113.423 102.264 113.352C101.832 113.199 101.42 113.031 100.994 112.855C100.638 112.698 100.203 112.589 99.9397 112.294Z" fill="#593401"/>
<path d="M110.932 110.809C110.688 110.673 110.894 110.275 111.152 110.376C112.441 110.858 113.592 111.692 114.499 112.727C114.626 112.875 114.432 113.109 114.267 112.99C113.215 112.157 112.101 111.456 110.932 110.809Z" fill="#593401"/>
<path d="M98.7594 113.716C98.6054 113.594 98.7259 113.375 98.9076 113.415C99.3228 113.539 99.7185 113.786 100.094 113.983C100.517 114.203 100.948 114.41 101.371 114.63C101.53 114.718 101.388 114.995 101.221 114.92L99.9286 114.308C99.5346 114.126 99.1028 113.973 98.7594 113.716Z" fill="#593401"/>
<path d="M98.5675 116.409C98.3781 116.273 98.4823 115.97 98.7123 115.979C99.1323 116.015 99.5095 116.223 99.8785 116.388L101.123 116.923C101.326 117.013 101.232 117.313 101.013 117.248C100.585 117.116 100.147 116.986 99.7189 116.854C99.3266 116.736 98.8984 116.658 98.5675 116.409Z" fill="#593401"/>
<path d="M107.157 120.747C107.003 120.626 107.124 120.352 107.324 120.432C108.24 120.782 109.073 121.322 109.901 121.841C110.087 121.956 109.93 122.269 109.728 122.179C108.851 121.745 107.946 121.339 107.157 120.747Z" fill="#593401"/>
<path d="M104.897 122.209C104.692 122.108 104.748 121.837 104.974 121.825C106.177 121.804 107.486 122.672 108.316 123.473C108.434 123.58 108.262 123.755 108.137 123.671C107.616 123.341 107.078 123.035 106.511 122.8C105.979 122.58 105.401 122.456 104.897 122.209Z" fill="#593401"/>
<path d="M49.4633 248.002C57.1203 237.671 69.0373 230.749 80.144 224.693C91.3851 218.545 103.49 213.484 116.225 211.563C122.098 210.684 128.059 210.482 133.954 211.171C140.729 211.968 147.236 214.022 154.118 213.41C154.726 213.355 155.169 214.124 154.855 214.631C147.39 226.68 144.8 240.77 138.504 253.348C132.605 265.121 123.909 275.472 113.397 283.417C103.558 290.85 90.3782 298.379 77.5967 297.099C65.5926 295.904 62.7446 288.236 43.3975 285.835C34.9097 290.376 25.7281 293.08 15.4848 292.221C15.1859 292.193 12.9913 289.232 14.3225 285.9C21.9305 288.246 40.0586 281.572 40.0471 281.4C39.0812 269.542 42.2999 257.627 49.4508 247.993L49.4633 248.002ZM80.426 226.481C71.5393 231.263 62.3263 236.772 55.2778 243.967C54.2616 245.003 53.2933 246.062 52.3791 247.176C44.5518 256.629 40.9886 268.786 41.8023 280.923C45.4161 278.766 48.8587 276.231 52.1591 273.692C52.6233 273.34 53.0626 272.971 53.5184 272.632C56.1667 263.432 56.9746 254.607 56.1496 245.042C56.1354 244.969 56.1692 244.919 56.228 244.886C56.3245 244.823 56.4937 244.855 56.5096 244.993C58.0956 253.887 57.222 263.549 54.1677 272.113C57.729 269.294 61.2448 266.408 64.746 263.504C67.2723 255.467 67.9363 247.972 67.2071 239.516C67.1875 239.303 67.5265 239.258 67.5756 239.454C69.2578 246.941 68.3904 255.571 65.5594 262.822C69.9476 259.168 74.3482 255.522 78.8401 252.009C81.0812 244.799 84.2378 235.922 81.4598 228.782C81.4186 228.682 81.4652 228.586 81.5449 228.548C81.6414 228.486 81.7856 228.5 81.8518 228.618C83.6068 232.001 83.1264 235.74 82.5399 239.381C81.8685 243.591 80.8147 247.736 79.2477 251.701C80.0313 251.09 80.8045 250.482 81.5902 249.882C85.4912 246.909 89.5291 244.137 93.6348 241.547C94.2853 238.74 95.0172 235.96 95.4066 233.096C95.8726 229.674 95.8175 226.312 95.8989 222.869C95.8941 222.621 96.2453 222.638 96.269 222.872C96.9361 228.77 96.1213 235.601 94.0714 241.277C96.777 239.592 99.5156 237.966 102.302 236.418C104.795 230.058 105.396 224.028 104.373 217.192C104.348 217.067 104.439 216.973 104.523 216.957C104.617 216.938 104.7 216.976 104.733 217.089C106.396 223.245 105.577 230.391 102.763 236.164C106.485 234.116 110.282 232.172 114.122 230.34C114.732 227.996 115.684 225.736 116.234 223.361C116.844 220.735 117.167 218.09 117.553 215.433C117.579 215.232 117.841 215.235 117.934 215.379C117.95 215.408 117.957 215.44 117.952 215.473C117.934 218.177 117.514 220.885 116.908 223.531C116.43 225.6 115.937 227.877 115.055 229.884C118.052 228.467 121.08 227.099 124.13 225.791C125.061 225.325 125.992 224.859 126.928 224.414C127.524 222.951 128.237 221.53 128.784 220.034C129.435 218.235 129.96 216.407 130.458 214.552C130.529 214.299 130.884 214.392 130.857 214.646C130.414 217.684 129.505 221.117 127.941 223.921C131.988 221.982 136.081 220.218 140.22 218.641C140.243 218.593 140.269 218.555 140.317 218.524C140.84 218.139 141.35 217.854 141.69 217.255C142.005 216.694 142.17 216.032 142.105 215.416C142.083 215.247 142.359 215.214 142.398 215.358C142.648 216.198 142.455 217.277 141.905 218.026C144.768 216.983 147.645 216.013 150.544 215.158C146.316 215.05 142.215 214.191 137.995 213.452C131.701 212.332 125.346 212.125 118.978 212.863C118.212 212.949 117.448 213.046 116.678 213.166C112.482 213.778 108.335 214.761 104.277 216.029C97.2946 218.19 90.5475 221.172 84.1054 224.55C82.9033 225.189 81.6804 225.832 80.4594 226.485L80.426 226.481ZM101.946 237.497C92.1176 243.138 82.9692 249.707 74.1848 256.975C64.2949 265.155 54.7385 274.212 43.8964 281.127C35.3695 286.587 25.4056 290.021 15.3679 287.309C14.2204 290.019 16.1832 291.171 16.1846 291.29C44.577 291.74 63.6144 268.087 84.0729 251.864C93.3221 244.526 103.385 237.462 113.995 231.308C113.978 231.279 113.943 231.264 113.926 231.235C112.206 232.063 110.476 232.893 108.777 233.771C106.524 234.932 104.307 236.162 102.116 237.42C102.118 237.43 102.101 237.455 102.084 237.48C102.053 237.541 102.007 237.528 101.959 237.505L101.946 237.497ZM114.532 230.942C114.532 230.942 114.507 230.979 114.49 231.004C114.616 230.925 114.742 230.846 114.882 230.786C114.761 230.832 114.641 230.888 114.532 230.942ZM113.534 233.471C108.557 236.385 103.691 239.483 98.9412 242.732C111.197 239.908 123.673 240.62 135.578 244.665C135.683 244.698 135.65 244.867 135.523 244.828C123.079 240.921 110.085 240.67 97.4434 243.863C97.3911 243.874 97.3472 243.872 97.3033 243.869C94.6322 245.731 92.0047 247.65 89.4272 249.602C85.5704 252.522 81.7902 255.558 78.1118 258.725C76.7434 259.907 75.3685 261.111 73.9769 262.341C91.1136 259.181 108.646 259.738 125.486 264.174C125.591 264.208 125.556 264.367 125.444 264.346C108.118 260.374 90.4357 259.944 72.9552 263.237C69.9132 265.931 66.808 268.692 63.6363 271.391C78.3399 269.135 93.6104 268.567 108.319 270.757C108.352 270.761 108.343 270.828 108.31 270.823C92.9278 269.754 77.9571 269.85 62.6734 272.253C62.6525 272.257 62.642 272.26 62.619 272.253C58.1907 275.981 53.6127 279.554 48.8181 282.627C64.4843 279.899 80.5001 280.594 95.8058 284.964C95.9081 284.988 95.8717 285.136 95.7714 285.123C79.8316 281.181 63.5957 280.584 47.4213 283.662C47.3376 283.679 47.2707 283.67 47.2103 283.639C46.5009 284.072 45.779 284.497 45.0551 284.911C55.3192 285.094 63.7635 291.971 73.4551 294.523C87.2241 298.146 101.823 290.033 112.526 281.952C123.737 273.467 132.836 262.168 138.595 249.339C141.509 242.853 143.639 236.076 146.113 229.449C147.93 224.535 149.96 219.709 152.637 215.134C152.271 215.153 151.914 215.158 151.556 215.164C147.098 217.173 142.639 219.117 138.2 221.112C140.859 220.922 143.532 221.142 146.163 221.761C146.244 221.788 146.221 221.89 146.131 221.876C143.079 221.438 140.026 221.391 136.961 221.671C133.421 223.26 129.905 224.91 126.398 226.611C132.68 225.934 139.191 226.718 145.041 228.967C145.076 228.982 145.095 229.021 145.082 229.067C145.088 229.098 145.052 229.138 145.004 229.115C138.261 227.303 131.723 226.719 124.812 227.402C121.543 229.035 118.308 230.738 115.11 232.574C120.198 232.186 125.332 232.093 130.404 232.348C130.481 232.355 130.493 232.472 130.405 232.467C124.977 232.445 119.593 232.653 114.189 233.092C113.962 233.213 113.736 233.333 113.532 233.46L113.534 233.471Z" fill="#593401"/>
<path d="M89.4134 249.628C89.4134 249.628 89.4533 249.609 89.4742 249.605C96.9081 248.018 104.376 247.554 111.907 248.369C111.986 248.386 111.99 248.516 111.91 248.499C104.382 247.976 96.9624 248.409 89.5809 249.986C89.3505 250.031 89.2351 249.718 89.4114 249.618L89.4134 249.628Z" fill="#593401"/>
</g>
</svg>
