<svg width="190" height="139" viewBox="0 0 190 139" fill="none" xmlns="http://www.w3.org/2000/svg">
<path opacity="0.13" d="M46.5177 0.417969C38.5806 0.417969 31.6358 1.90184 25.683 4.86958C19.7302 8.16707 14.935 12.4538 11.2972 17.7298C7.99009 23.0058 5.34442 29.271 3.36017 36.5255C1.37591 43.78 0.383789 51.3642 0.383789 59.2782C0.383789 75.4359 4.51765 90.6044 12.7854 104.784C21.3838 118.963 34.6121 130.174 52.4704 138.418L56.935 129.515C47.6751 125.228 39.4074 118.963 32.1318 110.719C25.1869 102.805 21.0531 94.3964 19.7302 85.4932C17.746 78.5685 17.5806 71.8086 19.2342 65.2137C26.5098 73.1276 36.2657 77.0846 48.5019 77.0846C59.746 77.0846 69.0058 73.6223 76.2814 66.6975C83.557 60.1025 87.1948 50.8696 87.1948 38.9986C87.1948 27.4574 83.3917 18.0595 75.7854 10.805C68.1791 3.88033 58.4232 0.417969 46.5177 0.417969ZM148.707 0.417969C140.77 0.417969 133.825 1.90184 127.872 4.86958C121.919 8.16707 117.124 12.4538 113.486 17.7298C110.179 23.0058 107.533 29.271 105.549 36.5255C103.565 43.78 102.573 51.3642 102.573 59.2782C102.573 75.4359 106.707 90.6044 114.974 104.784C123.573 118.963 136.801 130.174 154.659 138.418L159.124 129.515C149.864 125.228 141.596 118.963 134.321 110.719C127.376 102.805 123.242 94.3964 121.919 85.4932C119.935 78.5685 119.77 71.8086 121.423 65.2137C128.699 73.1276 138.455 77.0846 150.691 77.0846C161.935 77.0846 171.195 73.6223 178.47 66.6975C185.746 60.1025 189.384 50.8696 189.384 38.9986C189.384 27.4574 185.581 18.0595 177.974 10.805C170.368 3.88033 160.612 0.417969 148.707 0.417969Z" fill="white"/>
</svg>
