<svg width="28" height="28" viewBox="0 0 28 28" fill="none" xmlns="http://www.w3.org/2000/svg">
<path d="M12.3306 0C5.5317 0 0 5.5317 0 12.3306C0 19.1299 5.5317 24.6612 12.3306 24.6612C19.1299 24.6612 24.6612 19.1299 24.6612 12.3306C24.6612 5.5317 19.1299 0 12.3306 0ZM12.3306 22.3849C6.78677 22.3849 2.27642 17.8745 2.27642 12.3307C2.27642 6.78683 6.78677 2.27642 12.3306 2.27642C17.8744 2.27642 22.3848 6.78677 22.3848 12.3306C22.3848 17.8744 17.8744 22.3849 12.3306 22.3849Z" fill="white"/>
<path d="M27.6665 26.0571L21.1408 19.5314C20.6961 19.0867 19.976 19.0867 19.5313 19.5314C19.0866 19.9757 19.0866 20.6965 19.5313 21.1408L26.0571 27.6666C26.1626 27.7725 26.288 27.8564 26.4261 27.9137C26.5642 27.9709 26.7123 28.0003 26.8618 28.0001C27.0113 28.0002 27.1593 27.9708 27.2974 27.9136C27.4355 27.8564 27.561 27.7724 27.6665 27.6666C28.1112 27.2223 28.1112 26.5014 27.6665 26.0571Z" fill="white"/>
</svg>
