<svg width="81" height="64" viewBox="0 0 81 64" fill="none" xmlns="http://www.w3.org/2000/svg">
<circle opacity="0.11" cx="49.4922" cy="32" r="31" fill="#CA382F" stroke="#490D00" stroke-width="0.4"/>
<path d="M32.5541 49.9305L20.7061 31.6153V16.8936C20.7061 16.2534 20.187 15.7344 19.5468 15.7344H13.7509C13.1107 15.7344 12.5917 16.2534 12.5917 16.8936V31.6477L1.7893 50.0116C1.27252 50.8899 1.00001 51.8905 1 52.9095C0.999891 56.0656 3.55851 58.6243 6.71462 58.6244H27.8234C28.9083 58.624 29.97 58.3106 30.8811 57.7217C33.4946 56.0322 34.2437 52.544 32.5541 49.9305ZM27.8234 56.306H6.71462C6.10697 56.307 5.51018 56.145 4.98648 55.8368C3.36985 54.8854 2.8305 52.8037 3.78183 51.1871L14.7502 32.5508C14.8549 32.3726 14.9102 32.1697 14.9101 31.9631V18.0528H18.3877V31.9631C18.3876 32.1864 18.452 32.405 18.5732 32.5925L30.6056 51.1893C30.9527 51.7256 31.1375 52.3508 31.1377 52.9896C31.1382 54.8206 29.6545 56.3054 27.8234 56.306Z" fill="#490D00" stroke="#490D00" stroke-width="0.4"/>
<path d="M17.6964 36.6843L15.698 35.5101L5.85527 52.2407C5.75168 52.4168 5.69651 52.6172 5.69533 52.8216C5.69416 53.026 5.74703 53.227 5.84858 53.4043C5.95014 53.5817 6.09677 53.729 6.27362 53.8314C6.45047 53.9338 6.65126 53.9877 6.85562 53.9875H14.9085V51.6691H8.88076L17.6964 36.6843ZM53.841 29.6445H35.774C33.2132 29.6445 31.1372 31.7205 31.1372 34.2813V52.8284C31.141 56.0278 33.7337 58.6205 36.9331 58.6243H47.3658C50.5652 58.6205 53.1579 56.0277 53.1617 52.8284V37.0796L55.8208 34.4215C56.3442 33.897 56.6384 33.1865 56.6388 32.4455C56.6398 30.8995 55.3871 29.6454 53.841 29.6445ZM54.1807 32.7825L51.183 35.7801C50.9657 35.9975 50.8434 36.2923 50.8434 36.5997V52.8283C50.8434 54.7488 49.2865 56.3058 47.3659 56.3058H36.9332C35.0126 56.3058 33.4556 54.7488 33.4556 52.8283V34.2813C33.4556 33.0009 34.4936 31.963 35.774 31.963H53.8411C53.9361 31.9629 54.0289 31.991 54.1079 32.0438C54.1869 32.0965 54.2485 32.1715 54.2848 32.2592C54.3212 32.347 54.3307 32.4435 54.3122 32.5367C54.2936 32.6298 54.2479 32.7154 54.1807 32.7825Z" fill="#490D00" stroke="#490D00" stroke-width="0.4"/>
<path d="M46.2083 36.5988V51.6683H42.7308V53.9867H47.3676C48.0078 53.9867 48.5268 53.4676 48.5268 52.8274V36.5988H46.2083ZM33.4572 19.7721V4.14165C33.4572 3.50145 32.9383 2.98242 32.2981 2.98242H24.1837C23.5435 2.98242 23.0245 3.50145 23.0245 4.14165V20.1014C21.6099 20.5369 20.2489 21.1307 18.9674 21.8715L20.1266 23.878C21.4885 23.0917 22.9508 22.4938 24.4736 22.101C24.7225 22.0367 24.9431 21.8915 25.1004 21.6881C25.2578 21.4848 25.3431 21.2349 25.343 20.9777V5.30076H31.1389V20.7076C31.139 20.9773 31.2331 21.2386 31.4052 21.4464C31.5772 21.6542 31.8163 21.7955 32.0813 21.8459C36.146 22.6229 39.8007 24.8229 42.39 28.0511L44.1971 26.5998C41.4693 23.2004 37.6929 20.7996 33.4572 19.7721ZM50.2655 19.211C48.0247 19.211 46.2083 21.0275 46.2083 23.2681C46.2083 25.5089 48.0248 27.3253 50.2655 27.3253C52.5062 27.3253 54.3226 25.5088 54.3226 23.2681C54.3226 21.0275 52.5062 19.211 50.2655 19.211ZM50.2655 25.007C49.3051 25.007 48.5267 24.2286 48.5267 23.2683C48.5267 22.3079 49.3051 21.5295 50.2655 21.5295C51.2258 21.5295 52.0042 22.3079 52.0042 23.2683C52.0042 24.2286 51.2258 25.007 50.2655 25.007ZM46.2083 11.0968C44.2877 11.0968 42.7308 12.6537 42.7308 14.5743C42.7308 16.4949 44.2877 18.0519 46.2083 18.0519C48.1289 18.0519 49.6859 16.4949 49.6859 14.5743C49.6859 12.6537 48.1289 11.0968 46.2083 11.0968ZM46.2083 15.7335C45.5681 15.7335 45.0491 15.2144 45.0491 14.5742C45.0491 13.934 45.5681 13.4151 46.2083 13.4151C46.8485 13.4151 47.3676 13.9341 47.3676 14.5743C47.3676 15.2145 46.8485 15.7335 46.2083 15.7335ZM5.05712 12.2559C2.81638 12.2559 1 14.0724 1 16.313C1 18.5538 2.81638 20.3702 5.05712 20.3702C7.29787 20.3702 9.11424 18.5538 9.11424 16.3131C9.11424 14.0724 7.29787 12.2559 5.05712 12.2559ZM5.05712 18.0519C4.09677 18.0519 3.31834 17.2735 3.31834 16.3131C3.31834 15.3528 4.09677 14.5743 5.05712 14.5743C6.01747 14.5743 6.7959 15.3528 6.7959 16.3131C6.7959 17.2735 6.01747 18.0519 5.05712 18.0519ZM10.2735 4.14165C8.35288 4.14165 6.7959 5.69862 6.7959 7.61921C6.7959 9.5398 8.35288 11.0968 10.2735 11.0968C12.1941 11.0968 13.751 9.5398 13.751 7.61921C13.751 5.69862 12.1941 4.14165 10.2735 4.14165ZM10.2735 8.77833C9.63327 8.77833 9.11424 8.2593 9.11424 7.6191C9.11424 6.97901 9.63327 6.45999 10.2735 6.45999C10.9137 6.45999 11.4327 6.97901 11.4327 7.61921C11.4327 8.25941 10.9137 8.77833 10.2735 8.77833ZM35.7756 36.5988H39.2532V38.9172H35.7756V36.5988ZM35.7756 41.2356H38.094V43.554H35.7756V41.2356ZM35.7756 45.8724H39.2532V48.1908H35.7756V45.8724ZM35.7756 50.5091H38.094V52.8274H35.7756V50.5091ZM3.31834 23.8478H5.63668V26.1661H3.31834V23.8478ZM6.7959 29.6437H9.11424V31.9621H6.7959V29.6437ZM26.5021 34.2805H28.8204V36.5988H26.5021V34.2805ZM24.1837 29.6437H26.5021V31.9621H24.1837V29.6437ZM23.0245 25.007H25.3428V27.3254H23.0245V25.007ZM24.1837 50.5091H26.5021V52.8274H24.1837V50.5091ZM20.7062 45.8724H23.0245V48.1908H20.7062V45.8724Z" fill="#490D00" stroke="#490D00" stroke-width="0.4"/>
</svg>
