<svg id="Layer_1" data-name="Layer 1" xmlns="http://www.w3.org/2000/svg" viewBox="0 0 25 25"><defs><style>.cls-1{fill:#fff;}</style></defs><path class="cls-1" d="M24.73,15.19h0l-4-8.79,1-.49-.36-.73-1,.48-.12-.29a.43.43,0,0,0-.55-.2.43.43,0,0,0-.2.2l-.11.26a5.17,5.17,0,0,0-2.22-.49H13.73V4.32h.82V3.5h-.71l.3-1.18a1.69,1.69,0,0,0-3.28-.82,1.89,1.89,0,0,0,0,.82l.3,1.18h-.71v.82h.82v.82H7.84a5.17,5.17,0,0,0-2.22.49l-.11-.25A.41.41,0,0,0,5,5.17a.47.47,0,0,0-.21.21l-.12.28-1-.48-.36.73,1,.49-4,8.79a.55.55,0,0,0,0,.17,2.87,2.87,0,0,0,2.86,2.87H7.18a2.88,2.88,0,0,0,2.87-2.87.64.64,0,0,0-.05-.17L6,6.37A4.52,4.52,0,0,1,7.84,6h3.43v15l-1.39,1.4H8.41a2.05,2.05,0,0,0-2,2,.41.41,0,0,0,.41.41H18.23a.41.41,0,0,0,.41-.41,2.05,2.05,0,0,0-2.05-2H15.12l-1.39-1.4V6h3.43A4.52,4.52,0,0,1,19,6.37l-4,8.82a.59.59,0,0,0,0,.17,2.88,2.88,0,0,0,2.87,2.87h4.09a2.87,2.87,0,0,0,2.86-2.87A.38.38,0,0,0,24.73,15.19ZM7.18,17.41H3.09a2,2,0,0,1-2-1.64h8.1A2.06,2.06,0,0,1,7.18,17.41ZM9,15H1.27L5,6.76h.21ZM11.82,1.38a.89.89,0,0,1,1.26-.11.52.52,0,0,1,.1.11.83.83,0,0,1,.16.74L13,3.5H12l-.34-1.38A.83.83,0,0,1,11.82,1.38Zm.27,3.76V4.32h.82v.82Zm.82.81V20.68h-.82V6Zm3.68,17.19a1.24,1.24,0,0,1,1.16.82H7.25a1.24,1.24,0,0,1,1.16-.82ZM14,22.32H11l.82-.82h1.3ZM19.76,6.76a.3.3,0,0,0,.21,0L23.73,15H16Zm2.15,10.65H17.82a2.06,2.06,0,0,1-2-1.64h8.1A2,2,0,0,1,21.91,17.41Z"/></svg>