<svg id="Layer_1" data-name="Layer 1" xmlns="http://www.w3.org/2000/svg" viewBox="0 0 25 25"><defs><style>.cls-1{fill:#fff;}</style></defs><path class="cls-1" d="M24.3,23.85a.4.4,0,0,0,.07-.35l-.61-2.16a.39.39,0,0,0-.38-.29H22.9l-.55-2a.41.41,0,0,0-.39-.29h-.47V11.23H22a.39.39,0,0,0,.4-.4V9.31a.4.4,0,0,0-.4-.4H17.23a.4.4,0,0,0-.4.4v1.52a.4.4,0,0,0,.4.4h.58v7.56H15l-.09,0h-.48V11.23h.48a.4.4,0,0,0,.4-.4V9.31a.4.4,0,0,0-.4-.4H10.2a.4.4,0,0,0-.4.4v1.52a.4.4,0,0,0,.4.4h.58v7.54H10.2l-.09,0H7.39V11.23h.48a.4.4,0,0,0,.4-.4V9.31a.4.4,0,0,0-.4-.4H3.14a.39.39,0,0,0-.4.4v1.52a.4.4,0,0,0,.4.4h.58v7.56H3.14a.38.38,0,0,0-.37.24l-.85,2H1.4a.4.4,0,0,0-.38.29L.42,23.5a.4.4,0,0,0,.06.35A.42.42,0,0,0,.8,24H24A.39.39,0,0,0,24.3,23.85ZM17.63,9.71h3.94v.72H17.63V9.71Zm1,1.52h2.07v7.56H18.62Zm-8-1.52h3.93v.72H10.6Zm1,1.52h2.07v7.56H11.58ZM4.52,18.79V11.23H6.59v7.56Zm-1-9.08H7.47v.72H3.54ZM3.4,19.59H21.66l.41,1.46H2.79ZM1.33,23.21l.38-1.36H23.08l.38,1.36Z"/><path class="cls-1" d="M12.52,1a.4.4,0,0,0-.34,0L.89,6.29a.41.41,0,0,0-.23.37V7.84a.4.4,0,0,0,.4.4H23.63a.4.4,0,0,0,.4-.4V6.65a.42.42,0,0,0-.24-.36ZM23.23,7.44H1.46V6.91L12.35,1.83,23.23,6.91v.53Z"/><path class="cls-1" d="M10.5,5a1.9,1.9,0,1,0,1.89-1.9A1.89,1.89,0,0,0,10.5,5Zm1.89-1.1A1.1,1.1,0,1,1,11.3,5,1.1,1.1,0,0,1,12.39,3.89Z"/></svg>