<svg id="Layer_1" data-name="Layer 1" xmlns="http://www.w3.org/2000/svg" xmlns:xlink="http://www.w3.org/1999/xlink" viewBox="0 0 25 25"><defs><style>.cls-1{fill:url(#New_Gradient_Swatch_1);}.cls-2{fill:url(#New_Gradient_Swatch_1-2);}.cls-3{fill:url(#New_Gradient_Swatch_1-3);}</style><linearGradient id="New_Gradient_Swatch_1" x1="0.35" y1="16.52" x2="24.33" y2="16.52" gradientUnits="userSpaceOnUse"><stop offset="0" stop-color="#b88d60"/><stop offset="1" stop-color="#a77c54"/></linearGradient><linearGradient id="New_Gradient_Swatch_1-2" x1="0.61" y1="4.68" x2="23.97" y2="4.68" xlink:href="#New_Gradient_Swatch_1"/><linearGradient id="New_Gradient_Swatch_1-3" x1="10.45" y1="5.05" x2="14.24" y2="5.05" xlink:href="#New_Gradient_Swatch_1"/></defs><path class="cls-1" d="M24.25,23.92a.4.4,0,0,0,.07-.35l-.61-2.16a.39.39,0,0,0-.38-.3h-.48l-.55-2a.41.41,0,0,0-.39-.29h-.48V11.3h.48a.4.4,0,0,0,.4-.4V9.37a.4.4,0,0,0-.4-.4H17.18a.4.4,0,0,0-.4.4V10.9a.4.4,0,0,0,.4.4h.58v7.55H14.4V11.3h.48a.4.4,0,0,0,.4-.4V9.37a.4.4,0,0,0-.4-.4H10.15a.39.39,0,0,0-.4.4V10.9a.4.4,0,0,0,.4.4h.58v7.54H7.34V11.3h.48a.4.4,0,0,0,.4-.4V9.37a.4.4,0,0,0-.4-.4H3.08a.4.4,0,0,0-.4.4V10.9a.4.4,0,0,0,.4.4h.59v7.55H3.08a.39.39,0,0,0-.36.25l-.85,2H1.35a.39.39,0,0,0-.38.3l-.6,2.16a.4.4,0,0,0,.06.35.41.41,0,0,0,.32.15H23.93A.38.38,0,0,0,24.25,23.92ZM17.58,9.77h3.93v.73H17.58V9.77Zm1,1.53h2.07v7.55H18.57Zm-8-1.53h3.93v.73H10.55Zm1,1.53H13.6v7.55H11.53ZM4.47,18.85V11.3H6.54v7.55Zm-1-9.08H7.42v.73H3.49Zm-.14,9.88H21.61L22,21.11H2.74ZM1.28,23.27l.38-1.36H23l.38,1.36Z"/><path class="cls-2" d="M12.47,1.09a.4.4,0,0,0-.34,0L.84,6.36a.4.4,0,0,0-.23.36V7.9a.4.4,0,0,0,.4.4H23.57a.39.39,0,0,0,.4-.4V6.72a.41.41,0,0,0-.23-.37ZM23.17,7.5H1.41V7L12.3,1.9,23.18,7V7.5Z"/><path class="cls-3" d="M10.45,5.05a1.9,1.9,0,1,0,1.89-1.9A1.9,1.9,0,0,0,10.45,5.05ZM12.34,4a1.1,1.1,0,1,1-1.09,1.1A1.1,1.1,0,0,1,12.34,4Z"/></svg>