<svg id="Layer_1" data-name="Layer 1" xmlns="http://www.w3.org/2000/svg" viewBox="0 0 25 25"><defs><style>.cls-1{fill:#fff;}</style></defs><path class="cls-1" d="M21.57,12.65a8.21,8.21,0,0,0-2.92-1.59,4.56,4.56,0,1,0-4.72,0A8.23,8.23,0,0,0,11,12.64a6.2,6.2,0,0,0-2.11-1.23,3.61,3.61,0,1,0-4.13,0,6.33,6.33,0,0,0-4.26,6v.41s0,0,0,0H8.2a9.28,9.28,0,0,0-.06,1.06v.42a3.32,3.32,0,0,0,3.32,3.33h9.68a3.33,3.33,0,0,0,3.32-3.33v-.42a9.28,9.28,0,0,0-.07-1.06A9.06,9.06,0,0,0,21.57,12.65Zm-8.86-5.5a3.57,3.57,0,1,1,3.77,3.56h-.41A3.56,3.56,0,0,1,12.71,7.15ZM4.24,8.45A2.61,2.61,0,1,1,6.9,11.06H6.8A2.61,2.61,0,0,1,4.24,8.45Zm4.14,8.37H1.55a5.34,5.34,0,0,1,5.26-4.77h.08a5.3,5.3,0,0,1,3.4,1.27A8.22,8.22,0,0,0,8.38,16.82ZM23.45,19.3a2.34,2.34,0,0,1-2.33,2.33H11.44A2.33,2.33,0,0,1,9.12,19.3v-.42a7.17,7.17,0,0,1,7-7.16h.43a7.17,7.17,0,0,1,7,7.16Z"/></svg>