<svg id="Layer_1" data-name="Layer 1" xmlns="http://www.w3.org/2000/svg" viewBox="0 0 25 25"><defs><style>.cls-1{fill:#fff;}</style></defs><path class="cls-1" d="M18.06,23.71H8.81a.46.46,0,0,1-.47-.46V20.47A1.38,1.38,0,0,0,7,19.09H4.18a.46.46,0,0,1-.46-.47V3.82A2.32,2.32,0,0,1,6,1.5h12a2.31,2.31,0,0,1,2.31,2.32V21.4A2.31,2.31,0,0,1,18.06,23.71Zm-8.79-.92h8.79a1.39,1.39,0,0,0,1.39-1.39V3.82a1.39,1.39,0,0,0-1.39-1.39H6A1.39,1.39,0,0,0,4.64,3.82V18.16H7a2.32,2.32,0,0,1,2.31,2.31Z"/><path class="cls-1" d="M8.81,23.71a.46.46,0,0,1-.33-.13L3.85,19a.46.46,0,0,1-.1-.5.46.46,0,0,1,.43-.29H7a2.32,2.32,0,0,1,2.31,2.31v2.78a.46.46,0,0,1-.29.43A.47.47,0,0,1,8.81,23.71ZM5.3,19.09l3,3V20.47A1.38,1.38,0,0,0,7,19.09Z"/><path class="cls-1" d="M16.21,8H7.88A1.39,1.39,0,0,1,6.49,6.59V5.67A1.39,1.39,0,0,1,7.88,4.28h8.33A1.39,1.39,0,0,1,17.6,5.67v.92A1.39,1.39,0,0,1,16.21,8ZM7.88,5.2a.47.47,0,0,0-.46.47v.92a.47.47,0,0,0,.46.47h8.33a.46.46,0,0,0,.46-.47V5.67a.46.46,0,0,0-.46-.47Z"/><path class="cls-1" d="M16.21,10.76H7.88a.47.47,0,0,1,0-.93h8.33a.47.47,0,0,1,0,.93Z"/><path class="cls-1" d="M16.21,13.53H7.88a.46.46,0,1,1,0-.92h8.33a.46.46,0,0,1,0,.92Z"/><path class="cls-1" d="M16.21,16.31H7.88a.47.47,0,0,1,0-.93h8.33a.47.47,0,0,1,0,.93Z"/></svg>