<svg id="Layer_1" data-name="Layer 1" xmlns="http://www.w3.org/2000/svg" xmlns:xlink="http://www.w3.org/1999/xlink" viewBox="0 0 25 25"><defs><style>.cls-1{fill:url(#linear-gradient);}.cls-2{fill:url(#linear-gradient-2);}.cls-3{fill:url(#linear-gradient-3);}.cls-4{fill:url(#linear-gradient-4);}.cls-5{fill:url(#linear-gradient-5);}.cls-6{fill:url(#linear-gradient-6);}</style><linearGradient id="linear-gradient" x1="3.72" y1="12.61" x2="20.37" y2="12.61" gradientUnits="userSpaceOnUse"><stop offset="0" stop-color="#b88d60"/><stop offset="1" stop-color="#a77c54"/></linearGradient><linearGradient id="linear-gradient-2" x1="3.72" y1="20.94" x2="9.27" y2="20.94" xlink:href="#linear-gradient"/><linearGradient id="linear-gradient-3" x1="6.49" y1="6.13" x2="17.6" y2="6.13" xlink:href="#linear-gradient"/><linearGradient id="linear-gradient-4" x1="7.42" y1="10.29" x2="16.67" y2="10.29" xlink:href="#linear-gradient"/><linearGradient id="linear-gradient-5" x1="7.42" y1="13.07" x2="16.67" y2="13.07" xlink:href="#linear-gradient"/><linearGradient id="linear-gradient-6" x1="7.42" y1="15.85" x2="16.67" y2="15.85" xlink:href="#linear-gradient"/></defs><path class="cls-1" d="M18.06,23.71H8.81a.46.46,0,0,1-.47-.46V20.47A1.38,1.38,0,0,0,7,19.09H4.18a.46.46,0,0,1-.46-.47V3.82A2.32,2.32,0,0,1,6,1.5h12a2.31,2.31,0,0,1,2.31,2.32V21.4A2.31,2.31,0,0,1,18.06,23.71Zm-8.79-.92h8.79a1.39,1.39,0,0,0,1.39-1.39V3.82a1.39,1.39,0,0,0-1.39-1.39H6A1.39,1.39,0,0,0,4.64,3.82V18.16H7a2.32,2.32,0,0,1,2.31,2.31Z"/><path class="cls-2" d="M8.81,23.71a.46.46,0,0,1-.33-.13L3.85,19a.46.46,0,0,1-.1-.5.46.46,0,0,1,.43-.29H7a2.32,2.32,0,0,1,2.31,2.31v2.78a.46.46,0,0,1-.29.43A.47.47,0,0,1,8.81,23.71ZM5.3,19.09l3,3V20.47A1.38,1.38,0,0,0,7,19.09Z"/><path class="cls-3" d="M16.21,8H7.88A1.39,1.39,0,0,1,6.49,6.59V5.67A1.39,1.39,0,0,1,7.88,4.28h8.33A1.39,1.39,0,0,1,17.6,5.67v.92A1.39,1.39,0,0,1,16.21,8ZM7.88,5.2a.47.47,0,0,0-.46.47v.92a.47.47,0,0,0,.46.47h8.33a.46.46,0,0,0,.46-.47V5.67a.46.46,0,0,0-.46-.47Z"/><path class="cls-4" d="M16.21,10.76H7.88a.47.47,0,0,1,0-.93h8.33a.47.47,0,0,1,0,.93Z"/><path class="cls-5" d="M16.21,13.53H7.88a.46.46,0,1,1,0-.92h8.33a.46.46,0,0,1,0,.92Z"/><path class="cls-6" d="M16.21,16.31H7.88a.47.47,0,0,1,0-.93h8.33a.47.47,0,0,1,0,.93Z"/></svg>