<svg id="Layer_1" data-name="Layer 1" xmlns="http://www.w3.org/2000/svg" viewBox="0 0 25 25"><defs><style>.cls-1{fill:#fff;}</style></defs><path class="cls-1" d="M23.46,4.36H1.54A1.25,1.25,0,0,0,.29,5.61V19.39a1.25,1.25,0,0,0,1.25,1.25H23.46a1.25,1.25,0,0,0,1.25-1.25V5.61A1.25,1.25,0,0,0,23.46,4.36ZM23,5.3l-9.77,7.33a1.34,1.34,0,0,1-1.44,0L2,5.3Zm-5.22,7.81,5.32,6.57,0,0H1.89l0,0,5.32-6.57a.47.47,0,0,0-.07-.66.46.46,0,0,0-.66.07L1.23,19V5.88l10,7.5a2.25,2.25,0,0,0,2.56,0l10-7.5V19L18.5,12.52a.46.46,0,0,0-.66-.07A.47.47,0,0,0,17.77,13.11Z"/></svg>