<svg id="Layer_1" data-name="Layer 1" xmlns="http://www.w3.org/2000/svg" viewBox="0 0 25 25"><defs><style>.cls-1{fill:#fff;}</style></defs><path class="cls-1" d="M2.57,3.78a7.79,7.79,0,0,0,6,7.49,10.88,10.88,0,0,0,1.55,1.56,1.35,1.35,0,0,1,.47,1.06v4.55A1.39,1.39,0,0,0,9.18,19.8v1.37H6.82A1.39,1.39,0,0,0,5.4,22.53v.91a.47.47,0,0,0,.47.46H19.11a.47.47,0,0,0,.47-.46v-.91a1.39,1.39,0,0,0-1.42-1.36H15.8V19.8a1.39,1.39,0,0,0-1.42-1.36h0V13.89a1.35,1.35,0,0,1,.47-1.06,10.88,10.88,0,0,0,1.55-1.56,7.79,7.79,0,0,0,6-7.49V2.87A1.39,1.39,0,0,0,21,1.5H18.63V1.05a.47.47,0,0,0-.47-.46H6.82a.47.47,0,0,0-.47.46V1.5H4A1.39,1.39,0,0,0,2.57,2.87Zm15.59,18.3c.26,0,.71.34.47.45V23H6.35v-.46a.46.46,0,0,1,.47-.45Zm-3.78-2.73a.46.46,0,0,1,.47.45v1.37H10.13V19.8a.46.46,0,0,1,.47-.45ZM18.63,5V2.41H21a.47.47,0,0,1,.47.46v.91A6.79,6.79,0,0,1,17.26,10,10,10,0,0,0,18.63,5ZM7.29,1.5h10.4V5a9.13,9.13,0,0,1-2,5.65,9.49,9.49,0,0,1-1.5,1.54,2.24,2.24,0,0,0-.8,1.75v4.55H11.55V13.89a2.24,2.24,0,0,0-.81-1.75,9.56,9.56,0,0,1-1.5-1.55A9.15,9.15,0,0,1,7.29,5ZM3.51,2.87A.47.47,0,0,1,4,2.41H6.35V5A10,10,0,0,0,7.72,10,6.79,6.79,0,0,1,3.51,3.78Z"/></svg>