<svg id="Layer_1" data-name="Layer 1" xmlns="http://www.w3.org/2000/svg" xmlns:xlink="http://www.w3.org/1999/xlink" viewBox="0 0 25 25"><defs><style>.cls-1{fill:url(#New_Gradient_Swatch_1);}</style><linearGradient id="New_Gradient_Swatch_1" x1="2.6" y1="12.25" x2="22.45" y2="12.25" gradientUnits="userSpaceOnUse"><stop offset="0" stop-color="#b88d60"/><stop offset="1" stop-color="#a77c54"/></linearGradient></defs><path class="cls-1" d="M2.6,3.78a7.79,7.79,0,0,0,6,7.49,10.32,10.32,0,0,0,1.54,1.56,1.35,1.35,0,0,1,.47,1.06v4.55A1.39,1.39,0,0,0,9.22,19.8v1.37H6.85a1.39,1.39,0,0,0-1.41,1.36v.91a.47.47,0,0,0,.47.46H19.14a.47.47,0,0,0,.47-.46v-.91a1.39,1.39,0,0,0-1.41-1.36H15.83V19.8a1.39,1.39,0,0,0-1.42-1.36h0V13.89a1.36,1.36,0,0,1,.48-1.06,10.81,10.81,0,0,0,1.54-1.56,7.8,7.8,0,0,0,6-7.49V2.87A1.4,1.4,0,0,0,21,1.5H18.67V1.05a.47.47,0,0,0-.48-.46H6.85a.47.47,0,0,0-.47.46V1.5H4A1.4,1.4,0,0,0,2.6,2.87Zm15.6,18.3c.26,0,.7.34.47.45V23H6.38v-.46a.46.46,0,0,1,.47-.45Zm-3.79-2.73a.47.47,0,0,1,.48.45v1.37H10.16V19.8a.46.46,0,0,1,.47-.45ZM18.67,5V2.41H21a.47.47,0,0,1,.47.46v.91A6.79,6.79,0,0,1,17.29,10,10,10,0,0,0,18.67,5ZM7.33,1.5H17.72V5a9.19,9.19,0,0,1-1.94,5.65,10,10,0,0,1-1.51,1.54,2.24,2.24,0,0,0-.8,1.75v4.55H11.58V13.89a2.21,2.21,0,0,0-.81-1.75,9.56,9.56,0,0,1-1.5-1.55A9.14,9.14,0,0,1,7.33,5ZM3.54,2.87A.48.48,0,0,1,4,2.41H6.38V5A9.9,9.9,0,0,0,7.76,10,6.78,6.78,0,0,1,3.54,3.78Z"/></svg>