<svg width="267" height="259" viewBox="0 0 267 259" fill="none" xmlns="http://www.w3.org/2000/svg">
<g opacity="0.9" clip-path="url(#clip0_1046_369)">
<path d="M215.072 161.478C215.967 166.229 216.878 169.593 217.194 173.009C218.851 190.24 206.948 208.833 190.038 214.499C184.567 216.337 181.606 219.152 181.066 224.728C181.02 225.323 180.775 225.919 180.58 226.514C175.772 240.882 169.447 254.515 152.47 256.887C134.056 259.465 117.488 255.022 106.089 238.761C95.7896 224.055 98.3892 200.484 111.862 187.679C115.563 184.166 120.112 181.516 124.088 178.274C125.174 177.376 125.661 175.739 125.751 173.93C110.765 186.645 95.4544 199.014 75.323 186.987C56.0378 175.475 47.8562 157.933 54.8941 134.116C51.9218 134.85 49.8908 135.381 47.8595 135.838C39.2135 137.719 30.6448 140.119 21.9199 141.157C17.2104 141.728 12.094 140.443 7.3989 139.106C1.83427 137.502 -0.767902 133.355 1.5073 127.596C3.75811 121.911 5.6342 115.733 9.32909 111.056C21.5965 95.6069 33.0152 79.1468 51.1182 69.4867C54.531 67.6598 57.8938 65.759 61.9245 63.5324C60.3325 62.6742 59.5353 62.0345 58.6409 61.7669C37.8237 55.8616 22.6439 42.1725 9.63195 25.7715C6.53494 21.8501 4.69692 16.8318 2.78612 12.1112C1.25273 8.37932 2.85079 5.79451 6.96269 4.80601C31.609 -1.17438 55.8238 0.129973 79.1194 10.2327C94.3847 16.8619 104.77 29.2396 113.774 42.8634C115.55 45.5537 117.697 48.2171 120.262 50.1104C125.566 53.995 130.828 54.6598 137.357 51.1068C147.62 45.5271 155.714 38.1014 162.584 28.8247C167.483 22.2091 172.956 15.9867 178.453 9.86326C179.612 8.56889 182.017 8.38237 183.848 7.67881C184.06 10.0308 185.292 13.0955 184.283 14.6368C180.298 20.6281 175.566 26.1281 171.157 31.8493C159.705 46.6747 166.258 65.7613 184.731 69.3759C201.789 72.7257 216.982 79.6773 230.556 90.0065C237.007 94.9252 243.487 100.76 247.518 107.6C254.302 119.056 260.371 131.284 264.384 143.919C266.933 151.955 265.571 161.351 265.172 170.097C264.95 174.804 260.84 176.189 256.499 176.138C243.328 175.987 231.4 171.891 220.448 164.718C219.103 163.834 217.685 163.024 215.047 161.429L215.072 161.478ZM196.453 140.228C195.16 139.665 193.794 139.178 192.55 138.516C174.739 129.052 150.283 137.954 142.795 156.622C136.188 173.13 141.866 195.392 155.767 206.586C163.066 212.466 171.271 216.112 180.96 214.449C202.568 210.764 226.762 185.565 208.244 155.521C204.84 149.991 200.25 145.161 196.204 140.007C199.165 141.65 202.1 143.318 205.21 145.035C206.094 138.838 204.499 132.852 200.547 126.756C187.49 106.739 155.521 102.529 137.678 118.975C132.989 123.285 129.72 128.802 131.772 136.495C134.253 145.794 136.092 155.569 129.866 164.544C129.325 165.34 128.91 166.63 129.163 167.471C129.896 169.919 130.487 173.731 132.102 174.316C136.004 175.756 136.904 172.556 137.481 169.085C139.451 157.383 143.933 147.03 153.838 139.569C165.991 130.437 185.752 129.091 196.478 140.203L196.453 140.228ZM167.317 68.8518C166.623 69.0537 165.93 69.2557 165.236 69.4576C165.428 72.6766 165.619 75.8957 165.785 79.1149C166.462 94.0722 170.94 105.591 186.848 111.82C200.768 117.268 208.373 129.289 208.88 144.891C208.94 146.699 209.099 148.68 209.902 150.236C216.193 162.215 241.96 175.351 255.469 173.816C259.807 173.321 262.723 171.324 262.724 166.964C262.731 159.211 263.629 151.032 261.482 143.836C258.399 133.474 253.038 123.769 248.445 113.886C243.225 102.669 234.229 95.0643 224.27 88.0593C208.235 76.7775 189.686 72.767 171.207 68.137C172.395 76.7752 178.398 81.4486 185.411 84.779C192.2 88.0116 199.43 90.3995 206.465 93.1601C206.318 93.6067 206.172 94.0534 206.025 94.5001C197.279 91.5507 188.557 88.6012 179.139 85.4326C181.489 88.7637 183.514 91.6507 186.338 95.6727C183.502 94.0287 182.009 93.1699 179.944 91.9674C180.258 95.0867 180.52 97.5127 180.86 100.805C176.086 89.5363 171.714 79.1816 167.316 68.827L167.317 68.8518ZM94.5481 110.318C68.4072 110.585 48.9641 138.26 56.8226 160.213C61.9102 174.378 70.6531 185.7 86.0216 188.538C101.489 191.377 112.701 182.497 122.19 171.373C133.058 158.632 135.038 144.131 126.256 130.233C118.675 118.236 106.558 111.268 94.5481 110.318ZM54.3351 90.8208C68.4185 85.4183 83.1303 81.5481 95.1043 71.4013C86.5319 73.1325 77.9842 74.8388 69.4119 76.57C69.3352 76.1493 69.2583 75.7039 69.1568 75.2834C83.5473 71.6131 97.9379 67.9676 112.353 64.2972C112.226 63.7282 112.099 63.1839 111.972 62.6149C101.53 62.672 91.0861 62.308 80.6969 62.8849C66.6626 63.6551 54.4166 69.4192 43.426 77.9753C29.2743 89.0257 18.4128 103.055 8.17416 117.577C6.10675 120.511 5.13552 124.331 4.18757 127.878C2.63203 133.708 4.23886 137.266 10.2672 137.48C20.0167 137.848 29.9605 137.447 39.5752 135.809C49.6606 134.095 58.315 129.217 64.9897 120.635C68.3641 116.307 73.627 112.637 78.8252 110.726C85.756 108.161 91.3404 104.292 95.6754 98.7442C102.523 89.9878 108.822 80.838 115.271 71.7618C115.96 70.8168 115.953 69.3801 116.56 67.0484C103.244 72.199 98.9998 85.276 88.4444 91.7738C92.8277 85.9785 97.1863 80.208 102.308 73.4426C83.8329 78.4976 72.1395 90.0547 62.6695 104.547C62.2456 104.129 61.8215 103.685 61.4224 103.266C64.278 99.3369 67.1585 95.4075 70.0142 91.4782C55.3254 95.0263 46.5039 105.626 36.3976 117.15C37.7176 113.601 38.4267 111.739 39.7465 108.165C33.8156 112.161 29.4663 115.083 25.1169 118.004C29.5074 113.522 31.5332 107.516 38.8365 105.024C47.4025 102.129 54.8341 95.8959 62.7698 91.1215C62.5441 90.6769 62.3183 90.2075 62.0927 89.7628C59.515 90.0989 56.9125 90.4352 54.3348 90.7712L54.3351 90.8208ZM144.65 255.493C154.771 255.884 163.109 252.123 168.695 243.968C172.583 238.299 175.4 231.794 177.969 225.364C180.514 219.034 179.591 218.073 172.887 216.797C159.281 214.221 148.999 207.119 142.977 194.469C140.945 190.22 139.11 185.846 137.573 181.371C136.161 177.291 134.023 176.387 130.089 178.167C121.652 181.978 114.464 187.268 109.173 194.951C93.3994 217.85 105.297 248.129 132.413 253.9C136.411 254.746 140.554 254.971 144.65 255.493ZM110.729 48.4533C111.296 47.831 111.863 47.2086 112.405 46.5864C103.644 31.8962 92.9826 18.9998 76.7233 12.0292C56.6356 3.44471 35.6429 1.72644 14.233 5.36076C3.52803 7.17792 2.00628 10.1091 8.35599 19.2145C20.6807 36.932 35.718 51.786 57.0351 58.407C61.88 59.9163 67.168 60.8286 72.2019 60.6277C84.7743 60.1379 97.293 58.8806 109.838 57.8708C111.35 57.7387 112.836 57.3094 114.322 57.0041C102.478 49.9351 89.0782 53.4265 76.7569 49.9518L104.61 49.7996C88.5286 39.0877 70.6149 37.9967 53.0146 35.2691L68.02 35.1871C68.0909 34.5427 68.1866 33.8981 68.2576 33.2785C56.5377 30.9151 44.793 28.5518 31.459 25.8504C34.3065 24.9679 35.495 24.5899 37.4263 23.9849C32.1555 21.6853 27.6554 19.7035 23.1552 17.7217C23.3266 17.3245 23.4981 16.9272 23.6697 16.5547C26.9242 17.5278 30.1787 18.5008 33.5077 19.4981C33.625 18.259 33.6947 17.3917 33.8108 15.9544C42.0285 21.9286 50.4364 26.4155 59.9459 28.2461L61.5708 26.0327C59.4316 24.905 57.2677 23.8021 55.1285 22.6744C55.5473 22.152 55.9661 21.6295 56.3849 21.107C68.3807 33.1044 83.7859 38.1229 100.635 44.1737C95.7193 38.7017 92.0261 34.6101 88.3328 30.4937C88.5304 30.344 88.7282 30.219 88.901 30.0695C96.1769 36.1974 103.428 42.3007 110.704 48.4287L110.729 48.4533ZM143.382 55.2105C132.793 60.1232 122.196 63.5251 115.908 74.8298C109.915 85.6622 101.111 94.9495 93.5761 104.923C93.0342 105.62 92.7413 106.488 92.8638 106.215C102.41 110.275 111.534 114.139 121.081 118.198C128.942 113.499 133.537 105.622 133.958 96.2562C134.599 81.9852 134.919 67.8894 143.357 55.1858L143.382 55.2105ZM161.201 48.1775C155.012 54.8249 149.221 61.7921 149.792 70.9043C150.445 81.5023 152.487 92.0184 154.33 102.486C154.637 104.193 156.832 106.51 158.496 106.823C161.997 107.472 165.714 106.981 170.923 106.953C160.252 87.7898 163.54 67.6834 161.201 48.1775ZM182.783 12.49C182.011 11.8254 181.263 11.1359 180.49 10.4714C179.384 12.1618 178.376 13.9507 177.17 15.5674C167.517 28.4014 157.616 41.0386 148.212 54.0199C135.854 71.1044 135.787 90.5739 138.326 110.376C138.455 111.416 139.229 112.377 139.706 113.366C140.351 113.288 140.995 113.235 141.64 113.157C141.621 109.689 141.85 106.22 141.533 102.779C139.868 84.0371 143.692 66.6277 154.545 51.112C162.101 40.3206 170.13 29.8733 177.934 19.2539C179.584 17.0156 181.159 14.7529 182.783 12.49ZM146.747 76.4447C143.438 88.2533 143.147 98.4848 145.61 109.023C148.96 107.75 149.339 96.8905 146.747 76.4447ZM128.545 127.1C136.476 116.901 136.598 116.479 134.063 111.019C125.826 119.659 124.726 122.637 128.545 127.1Z" fill="#EBEEEF"/>
<path d="M219.597 122.589L244.771 136.125C244.773 136.397 244.774 136.67 244.751 136.942C241.696 136.241 238.617 135.539 235.115 134.716C239.312 140.167 243.284 145.322 247.256 150.478C246.737 150.902 246.219 151.35 245.7 151.774C242.781 148.644 239.862 145.539 236.319 141.744C235.814 144.595 235.502 146.455 235.406 147.025C230.452 139.225 225.098 130.832 219.745 122.415L219.621 122.54L219.597 122.589Z" fill="#EBEEEF"/>
<path d="M219.72 122.465C216.71 120.822 213.675 119.179 208.923 116.58C211.482 121.916 213.339 125.745 215.17 129.55C207.178 119.438 199.261 109.4 193.042 101.532C200.725 105.032 211.069 109.781 221.686 114.627C219.306 114.764 216.95 114.901 213.777 115.092C215.975 117.928 217.798 120.271 219.597 122.59L219.72 122.465Z" fill="#EBEEEF"/>
<path d="M190.652 194.854C190.404 190.298 199.837 182.642 203.239 183.342C203.437 183.39 203.784 183.363 203.835 183.487C204.588 185.241 206.365 188.056 205.822 188.603C202.566 191.965 198.937 195.056 195.033 197.654C194.365 198.103 191.747 195.591 190.677 194.879L190.652 194.854Z" fill="#EBEEEF"/>
<path d="M60.7677 142.009C61.8964 135.216 66.507 134.72 70.1515 134.428C76.5728 133.947 74.695 139.803 75.2334 143.02C76.0795 148.068 71.5801 150.768 68.004 149.946C65.1231 149.268 63.1393 144.795 60.7677 142.009Z" fill="#EBEEEF"/>
<path d="M161.077 234.101C161.948 234.591 163.861 235.076 164.437 236.213C165.014 237.374 164.678 239.456 163.941 240.674C162.933 242.389 161.179 243.661 159.749 245.131C156.814 248.144 153.476 250.144 149.371 247.763C148.002 246.978 146.176 244.164 146.472 243.766C148.812 240.806 151.376 237.919 154.364 235.624C155.821 234.501 158.278 234.686 161.077 234.101Z" fill="#EBEEEF"/>
</g>
<defs>
<clipPath id="clip0_1046_369">
<rect width="265.065" height="256.935" fill="white" transform="translate(266.466 256.934) rotate(179.687)"/>
</clipPath>
</defs>
</svg>
