<svg width="458" height="475" viewBox="0 0 458 475" fill="none" xmlns="http://www.w3.org/2000/svg">
<path d="M201.204 252.719C191.628 267.391 175.919 277.752 161.25 286.874C146.401 296.12 130.281 303.955 113.028 307.549C105.075 309.206 96.939 309.929 88.8067 309.448C79.4697 308.889 70.3966 306.579 61.025 307.948C60.1918 308.074 59.5213 307.049 59.9169 306.338C69.0879 289.33 71.4013 269.916 78.9345 252.276C85.9927 235.772 96.9892 220.979 110.679 209.329C123.491 198.435 140.866 187.152 158.461 187.912C174.982 188.628 179.547 198.86 206.214 200.642C217.428 193.801 229.753 189.397 243.842 189.792C244.259 189.807 247.51 193.682 245.98 198.323C235.367 195.703 211.145 206.213 211.176 206.439C213.519 222.542 210.153 239.039 201.204 252.719ZM160.715 284.451C172.459 277.249 184.583 269.03 193.605 258.67C194.902 257.187 196.133 255.66 197.291 254.078C207.183 240.585 211.006 223.724 208.84 207.235C204.094 210.467 199.585 214.172 195.303 217.899C194.703 218.414 194.13 218.945 193.541 219.452C190.708 232.198 190.37 244.303 192.33 257.279C192.343 257.376 192.308 257.453 192.235 257.502C192.103 257.592 191.876 257.571 191.837 257.386C188.897 245.377 189.26 232.125 192.684 220.212C188.056 224.334 183.497 228.532 178.962 232.766C176.204 243.925 175.947 254.194 177.671 265.671C177.712 265.961 177.255 266.043 177.178 265.778C174.225 255.702 174.672 243.857 177.906 233.75C172.223 239.066 166.52 244.378 160.681 249.518C158.244 259.524 154.696 271.874 159.109 281.398C159.168 281.534 159.113 281.66 159.016 281.726C158.884 281.816 158.685 281.81 158.598 281.658C155.903 277.176 156.242 272.039 156.725 267.034C157.283 261.238 158.364 255.508 160.165 249.976C159.148 250.863 158.138 251.762 157.113 252.636C152.029 256.997 146.755 261.082 141.357 264.934C140.717 268.811 139.955 272.665 139.672 276.598C139.33 281.295 139.693 285.883 139.886 290.586C139.907 290.925 139.433 290.93 139.376 290.616C137.958 282.618 138.479 273.246 140.787 265.34C137.226 267.853 133.62 270.273 129.947 272.597C127.081 281.465 126.788 289.729 128.782 298.976C128.825 299.141 128.705 299.275 128.593 299.317C128.471 299.347 128.353 299.303 128.298 299.147C125.491 290.877 125.998 281.074 129.34 272.975C124.422 276.059 119.404 278.999 114.307 281.799C113.671 285.038 112.575 288.201 112.015 291.476C111.412 295.098 111.194 298.74 110.891 302.388C110.871 302.666 110.51 302.682 110.378 302.49C110.353 302.454 110.328 302.418 110.34 302.357C110.136 298.667 110.474 294.943 111.073 291.289C111.544 288.427 112.025 285.294 113.064 282.486C109.086 284.648 105.066 286.75 101.008 288.772C99.7815 289.483 98.5468 290.183 97.3038 290.87C96.6183 292.907 95.7619 294.902 95.1418 296.983C94.4017 299.481 93.8527 302.025 93.3323 304.585C93.2561 304.937 92.7602 304.833 92.7838 304.482C93.1323 300.31 94.0727 295.558 95.9683 291.603C90.602 294.551 85.1516 297.274 79.633 299.743C79.6096 299.812 79.5779 299.869 79.5177 299.91C78.8325 300.482 78.1654 300.901 77.7554 301.745C77.3771 302.532 77.2071 303.442 77.3441 304.284C77.3839 304.521 77.0158 304.578 76.9482 304.377C76.5276 303.251 76.7102 301.768 77.3928 300.704C73.5732 302.352 69.7115 303.887 65.8236 305.281C71.6085 305.101 77.294 305.959 83.1392 306.637C91.8506 307.676 100.561 307.48 109.21 305.985C110.253 305.804 111.288 305.611 112.326 305.398C118.021 304.238 123.599 302.576 129.047 300.543C138.414 297.059 147.377 292.474 155.9 287.377C157.487 286.419 159.099 285.445 160.715 284.451ZM130.324 271.088C143.279 262.637 155.221 252.972 166.619 242.388C179.434 230.469 191.73 217.385 205.961 207.113C217.158 199.013 230.478 193.562 244.452 196.488C245.79 192.7 243.007 191.278 242.984 191.117C204.104 192.692 180.108 226.41 153.536 250.113C141.524 260.833 128.36 271.242 114.39 280.454C114.415 280.49 114.464 280.51 114.489 280.546C116.774 279.29 119.062 278.014 121.318 276.69C124.305 274.938 127.227 273.091 130.123 271.207C130.127 271.187 130.143 271.158 130.158 271.13C130.194 271.053 130.267 271.056 130.324 271.088ZM113.68 280.99L113.728 280.905C113.559 281.02 113.39 281.135 113.214 281.238C113.375 281.163 113.528 281.077 113.68 280.99ZM114.824 277.459C121.379 273.102 127.768 268.505 133.984 263.708C117.466 268.496 100.339 268.494 83.7044 263.886C83.554 263.847 83.5872 263.613 83.758 263.655C101.111 268.021 118.918 267.367 135.936 262.044C136.004 262.015 136.065 262.026 136.13 262.018C139.618 259.272 143.045 256.462 146.41 253.589C151.438 249.301 156.334 244.873 161.095 240.273C162.867 238.555 164.634 236.805 166.438 235.029C143.264 240.662 119.235 241.247 95.806 236.483C95.6555 236.445 95.697 236.222 95.8513 236.241C119.891 240.324 144.124 239.547 167.745 233.716C171.672 229.807 175.678 225.809 179.787 221.882C159.864 226.095 139.031 228.033 118.718 226.177C118.677 226.17 118.672 226.085 118.725 226.084C139.859 226.358 160.329 225.073 181.03 220.63C181.054 220.613 181.083 220.629 181.103 220.633C186.837 215.211 192.797 209.989 199.085 205.425C177.883 210.35 155.917 210.643 134.608 205.847C134.465 205.821 134.503 205.619 134.637 205.633C156.781 209.79 179.049 209.345 200.904 203.904C201.014 203.883 201.107 203.89 201.196 203.917C202.136 203.277 203.076 202.638 204.032 202.022C189.98 202.555 177.825 193.838 164.353 191.1C145.207 187.214 125.928 199.405 112.002 211.252C97.3988 223.682 85.934 239.799 79.1667 257.729C75.748 266.797 73.4119 276.205 70.6034 285.44C68.5364 292.282 66.1842 299.018 62.9202 305.458C63.4139 305.404 63.9038 305.371 64.3937 305.337C70.3215 302.254 76.2545 299.255 82.1461 296.197C78.517 296.656 74.844 296.563 71.1999 295.921C71.0901 295.89 71.1165 295.748 71.2302 295.759C75.4418 296.121 79.626 295.954 83.8 295.335C88.5044 292.891 93.1795 290.379 97.8171 287.786C89.289 289.198 80.3125 288.623 72.1065 286.005C72.0576 285.985 72.0246 285.937 72.0359 285.876C72.0352 285.824 72.0751 285.779 72.1443 285.802C81.5247 287.762 90.5135 288.047 99.9123 286.589C104.243 284.116 108.521 281.539 112.735 278.793C105.813 279.713 98.7965 280.237 91.8385 280.281C91.7332 280.282 91.7107 280.121 91.8281 280.112C99.2597 279.728 106.602 279.034 113.952 278.018C114.249 277.833 114.547 277.648 114.824 277.459Z" fill="#5ADEFF"/>
<path d="M146.434 253.594C146.434 253.594 146.386 253.627 146.353 253.632C136.326 256.364 126.16 257.585 115.776 257.048C115.663 257.037 115.644 256.856 115.758 256.867C126.092 256.996 136.205 255.829 146.168 253.105C146.479 253.017 146.663 253.439 146.434 253.594Z" fill="#5ADEFF"/>
<path d="M261.577 409.536C251.23 385.16 243.295 359.206 243.413 333.004C243.562 300.323 258.429 270.407 286.051 252.324C286.458 252.064 286.845 252.132 287.128 252.375C287.21 251.109 287.412 249.879 287.067 248.613C286.838 247.755 286.438 246.938 285.877 246.246C285.561 245.844 285.171 245.537 284.874 245.158C256.82 266.35 239.812 300.741 241.335 336.024C242.222 356.73 248.572 377.406 256.08 396.629C257.798 400.989 259.637 405.293 261.586 409.547L261.577 409.536ZM285.508 243.722C287.308 244.08 288.472 246.578 288.86 248.181C289.316 249.99 289.341 252.171 287.879 253.474C287.764 253.563 287.625 253.598 287.504 253.562C287.435 253.782 287.303 254.014 287.043 254.179C282.368 257.22 278.087 260.621 274.178 264.307C296.437 284.566 295.432 316.58 290.205 343.665C286.957 360.52 282.985 377.255 279.32 394.027C275.941 409.487 272.84 424.545 274.879 440.343C275.922 443.749 273.762 441.895 273.636 441.309C260.483 424.033 244.345 409.188 231.641 391.563C221.04 376.853 213.755 359.899 211.852 341.795C208.198 307.15 227.648 271.454 262.734 262.29C263.228 262.165 263.589 262.365 263.812 262.672C269.528 255.549 276.122 249.074 283.468 243.532C284.032 243.094 284.713 243.323 285.087 243.753C285.206 243.716 285.355 243.693 285.517 243.734L285.508 243.722ZM287.812 344.655C292.966 316.98 294.671 286.826 272.588 265.801C271.792 266.605 271.002 267.44 270.224 268.267C271.138 274.602 272.792 279.992 276.986 285.147C277.113 285.308 276.898 285.53 276.74 285.376C272.619 281.07 269.609 275.088 269.483 269.047C265.408 273.489 261.85 278.307 258.777 283.413C262.468 296.947 269.637 308.371 280.32 317.636C280.451 317.756 280.25 317.949 280.119 317.829C269.27 309.155 261.751 297.616 258.254 284.282C253.86 291.766 250.528 299.847 248.302 308.345C255.376 323.356 270.019 335.257 283.594 344.216C283.71 344.293 283.706 344.406 283.635 344.481C283.577 344.525 283.502 344.547 283.413 344.505C270.141 337.16 254.152 324.418 247.939 309.867C245.742 318.804 244.735 328.148 244.976 337.688C244.97 337.822 244.985 337.959 244.99 338.084C251.599 347.187 259.785 354.287 269.326 360.279C269.462 360.358 269.346 360.541 269.231 360.464C259.487 355.277 251.561 347.919 245.059 339.14C245.352 347.4 246.445 355.427 248.149 363.312C256.354 372.986 265.862 379.337 277.115 384.96C277.174 384.988 277.178 385.04 277.184 385.072C277.163 385.163 277.091 385.237 277.012 385.207C265.906 381.614 256.138 374.152 248.589 365.337C250.106 372.017 252.008 378.62 254.183 385.121C258.793 390.12 264.036 393.423 270.224 396.159C270.451 396.259 270.283 396.612 270.051 396.552C264.12 394.782 258.878 391.126 254.7 386.606C258.095 396.598 262.082 406.425 266.143 416.25C267.715 417.544 269.335 418.522 271.397 419.047C271.559 419.087 271.488 419.328 271.326 419.287C269.592 418.896 267.88 418.155 266.476 417.028C268.423 421.728 270.358 426.437 272.262 431.153C271.865 422.122 273.399 412.979 275.186 404.156C276.447 397.924 277.759 391.708 279.112 385.497C281.125 376.185 283.209 366.891 285.211 357.587C286.12 353.385 287.024 349.058 287.833 344.658L287.812 344.655ZM257.087 272.004C258.699 269.476 260.446 267.027 262.271 264.629C230.346 273.499 213.08 304.373 213.688 335.633C213.782 340.498 214.313 345.355 215.28 350.152C217.491 361.045 221.609 370.66 226.87 379.534C230.66 385.946 235.04 391.973 239.74 397.844C244.877 394.258 247.455 389.703 249.545 384.195C247.041 376.896 244.787 369.419 243.025 361.838C241.146 369.291 235.942 375.295 228.877 378.455C228.831 378.491 228.792 378.466 228.754 378.44C228.718 378.394 228.705 378.33 228.771 378.297C236.112 374.59 240.822 368.359 242.695 360.449C241.682 355.948 240.871 351.419 240.269 346.875C237.511 351.626 232.72 355.275 227.851 357.525C227.75 357.585 227.664 357.429 227.766 357.369C233.217 354.279 236.619 350.23 240.082 345.338C239.495 340.339 239.179 335.332 239.238 330.331C239.291 326.573 239.549 322.84 239.983 319.119C234.657 326.808 226.651 332.383 217.391 334.328C217.283 334.356 217.188 334.282 217.154 334.216C217.114 334.118 217.164 333.968 217.294 333.922C226.969 330.804 234.567 325.418 240.207 316.948C240.207 316.948 240.23 316.93 240.253 316.912C241.281 309.437 243.132 302.137 245.663 295.066C243.95 296.804 241.599 298.224 239.896 299.455C234.831 303.133 229.349 306.043 223.52 308.299C223.398 308.356 223.295 308.177 223.417 308.12C227.477 306.185 231.437 304.051 235.196 301.591C238.457 299.464 245.637 295.364 246.971 291.183C247.011 291.022 247.126 290.933 247.255 290.907C249.613 285.08 252.47 279.439 255.771 274.081C249.857 278.307 243.399 281.366 236.204 282.945C236.032 282.986 235.98 282.731 236.131 282.687C243.661 280.331 250.63 276.93 256.879 272.092C256.936 272.048 256.991 272.023 257.055 272.011L257.087 272.004ZM250.696 387.48C250.481 386.852 250.266 386.224 250.04 385.604C248.515 390.84 244.535 395.357 240.083 398.28C243.377 402.359 246.802 406.391 250.284 410.379C257.826 419.09 265.583 427.744 272.497 437.072C270.094 429.453 266.016 422.581 262.407 415.363C262.434 415.657 262.458 415.971 262.503 416.287C262.734 418.66 262.789 421.021 262.684 423.414C262.687 423.559 262.479 423.554 262.467 423.397C262.38 421.043 262.199 418.687 261.901 416.348C261.777 415.316 261.569 414.295 261.383 413.256C259.579 409.517 257.874 405.738 256.258 401.909C255.277 405.075 253.405 407.861 250.831 410.084C250.773 410.129 250.694 410.098 250.692 410.025C250.692 410.025 250.717 409.987 250.729 409.978C253.298 407.371 254.954 404.309 255.812 400.868C253.976 396.452 252.271 391.989 250.685 387.489L250.696 387.48Z" fill="#5ADEFF"/>
<path d="M236.928 402.645C237.114 402.741 236.98 403.067 236.782 402.98C232.889 401.399 229.451 398.909 226.511 395.92C226.401 395.802 226.579 395.627 226.701 395.735C229.843 398.511 233.228 400.673 236.919 402.634L236.928 402.645Z" fill="#5ADEFF"/>
<path d="M203.374 132.619C202.945 131.983 203.952 130.953 204.514 131.589C244.623 176.939 284.623 228.134 301.783 245.7C337.837 282.571 424.47 341.472 424.557 342.025C424.857 345.876 422.207 352.003 418.744 350.36C380.291 332.138 334.859 300.068 301.975 265.233C282.861 244.977 265.487 223.174 249.019 200.74C233.142 179.078 203.431 132.904 203.374 132.619ZM253.315 192.98C238.39 173.232 224.054 153.464 206.597 135.923C234.461 178.7 265.658 221.065 300.245 258.605C334.203 295.442 383.307 333.569 420.212 347.533C421.486 346.621 422.358 345.223 422.656 343.701C421.923 343.823 338.904 286.936 304.022 251.564C285.853 233.149 268.892 213.624 253.301 192.978L253.315 192.98Z" fill="#5ADEFF"/>
<path d="M43.41 47.9796C42.9557 46.4889 42.7044 45.0213 43.1604 43.5318C46.1891 33.5268 60.6038 31.5614 66.1064 29.4444C77.3548 25.1353 87.7047 18.8296 99.0439 14.7658C135.067 1.81979 177.032 14.5416 199.549 45.7588C209.997 60.2543 215.623 77.2235 216.39 94.974C216.662 101.245 217.189 106.782 219.327 112.767C220.721 116.685 222.541 120.607 222.698 124.824C222.88 129.617 222.459 134.428 215.486 138.183C215.437 138.222 215.389 138.26 215.326 138.297C215.242 139.741 214.561 141.278 213.919 142.321C212.679 144.264 210.898 145.514 208.685 145.878C207.791 146.672 206.654 147.261 205.41 147.501C201.631 148.214 198.509 145.2 195.179 144.086C189.341 142.142 182.889 144.341 176.963 144.545C155.985 145.291 133.87 138.551 114.565 130.678C83.857 118.156 58.7595 96.5987 50.5442 63.6383C49.3774 58.9829 43.8303 49.3784 43.41 47.9796ZM52.4059 39.1407C40.2755 40.8971 50.3027 54.6692 51.9143 60.9024C53.5928 67.4662 55.0565 73.844 58.0118 80.0105C70.7328 106.526 96.94 122.616 123.803 132.013C138.26 137.07 153.542 141.429 168.864 142.328C176.422 142.78 184.044 140.479 191.455 141.062C193.871 141.264 195.751 142.066 197.963 143.068C199.235 143.653 200.594 144.66 201.937 145.005C210.866 147.287 208.045 138.141 207.793 137.892C207.105 137.197 208.242 136.064 208.968 136.675C211.297 138.615 220.724 138.356 212.793 124.353C210.748 120.743 208.833 117.162 207.194 113.333C204.33 106.605 201.753 99.7915 198.533 93.2278C191.37 78.6377 182.17 64.8279 169.993 53.9376C159.329 44.3946 146.167 37.2827 132.087 34.5585C117.951 31.8133 105.213 35.1007 91.6333 38.5708C85.485 40.1443 79.1913 41.569 72.793 41.5282C65.8968 41.4746 59.1951 38.1543 52.4059 39.1407ZM49.7579 37.2966C50.7948 36.9452 51.861 36.7293 52.9 36.6278C58.8652 36.0611 64.7655 39.0549 70.6891 39.4085C75.2849 39.6839 79.8594 39.0759 84.348 38.1791C92.9628 36.4763 101.28 33.4621 109.96 32.1044C144.379 26.742 174.808 49.9067 192.214 77.7651C201.632 92.8183 207.579 109.663 215.787 125.312C216.214 126.11 216.62 126.963 216.967 127.825C217.791 129.828 218.323 131.959 218.021 133.921C225.876 126.787 216.012 111.522 215.012 102.774C213.79 92.1516 213.883 82.1343 210.529 71.8112C204.453 53.0434 192.105 36.3193 175.545 25.4863C164.456 18.2292 151.681 13.7748 138.572 12.248C129.073 11.1483 119.406 11.5858 110.082 13.604C102.019 15.3553 94.5486 18.5542 87.1669 22.0129C84.1972 23.3915 81.2372 24.8153 78.2658 26.2084C73.7637 28.3076 69.2358 30.3745 64.5377 31.9814C60.4482 33.3936 53.3648 33.9793 49.7579 37.2966ZM209.76 139.247C209.802 139.399 209.844 139.55 209.888 139.687C209.951 139.915 210.016 140.128 210.08 140.355C210.703 141.777 210.548 143.199 209.874 144.399C210.992 143.704 211.986 142.805 212.691 141.725C213.171 140.958 213.527 140.118 213.727 139.23C212.389 139.782 211.036 139.804 209.76 139.247Z" fill="#5ADEFF"/>
<path d="M60.4977 63.4106C60.2034 61.3945 60.7594 59.1231 62.4681 57.8644C64.2428 56.5398 66.4817 56.7514 68.5261 57.2639C69.8072 50.3613 81.2748 51.201 86.2862 53.3299C91.4216 48.5269 102.965 51.0935 107.839 54.4843C107.883 54.4893 107.905 54.5506 107.946 54.5846C115.709 50.8746 129.228 55.5318 133.338 62.1543C135.462 61.2661 137.89 60.956 140.166 61.2306C146.455 62.0076 151.592 67.1613 154.905 72.3417C157.423 71.2048 160.21 70.8329 162.643 71.8303C167.676 73.8883 171.318 80.5013 172.518 85.7929C178.798 84.1017 184.014 90.5567 186.338 95.639C187.299 97.7458 187.787 100.68 187.342 103.14C190.024 105.62 192.666 109.138 192.768 112.923C192.833 115.559 191.474 119.134 188.548 119.564C190.561 123.201 189.424 126.625 186.064 129.149C184.932 130.106 183.084 130.35 181.017 130.041C181.016 131.671 179.798 133.147 178.157 133.782C175.41 134.863 171.692 133.939 169.117 132.764C166.47 131.581 164.17 129.512 163.364 126.659C163.27 126.311 163.192 125.949 163.145 125.577C157.7 126.879 151.253 126.201 147.191 121.963C145.408 120.129 144.293 117.829 143.924 115.422C137.333 117.137 129.526 115.863 125.878 109.44C125.163 108.184 124.772 106.656 124.696 105.061C118.213 106.465 110.281 104.987 106.743 98.7672C106.447 98.2488 106.201 97.6773 106.015 97.098C101.204 98.6486 95.2758 97.9275 91.7399 93.9846C90.5608 92.6751 89.7838 91.0444 89.3983 89.3263C83.2201 91.0291 77.4869 86.6296 76.2597 80.9091C69.904 81.6812 64.3037 76.1955 64.1487 69.9366C64.1479 69.54 64.3633 69.315 64.6371 69.2288C62.525 67.989 60.9048 66.1445 60.4977 63.4106ZM62.4706 60.5374C61.8082 62.033 62.1555 63.9671 62.9303 65.3479C64.81 68.7198 69.2397 69.3138 72.6595 70.1449C72.1916 68.3733 72.2731 66.547 73.4063 65.1785C72.0421 64.7584 70.8546 64.0647 69.9661 63.0528C69.0723 64.1108 68.1499 65.2978 67.0266 66.0359C66.803 66.2013 66.5511 65.9522 66.694 65.7189C67.4087 64.5523 68.5894 63.5564 69.6333 62.6036C68.9044 61.6098 68.4537 60.3542 68.4181 58.7935C66.227 58.2789 63.5243 58.1465 62.4706 60.5374ZM65.8615 69.8532C65.881 69.9435 65.9151 70.0355 65.9185 70.1387C66.0265 75.4818 70.8728 79.5303 76.0488 79.4753C75.9495 78.2304 76.0435 76.9635 76.4018 75.6974C75.832 75.2652 75.2944 74.8073 74.8243 74.269L74.5141 73.8812C74.0014 74.5422 73.4742 75.2015 72.8808 75.7946C72.7007 75.965 72.4649 75.7031 72.587 75.5261C73.0786 74.7892 73.6492 74.1348 74.2344 73.4821C73.7883 72.8584 73.3824 72.1366 73.0682 71.3811C72.9925 71.4018 72.9022 71.4209 72.8152 71.4109C70.5539 71.2702 68.0326 70.8207 65.8615 69.8532ZM70.1779 58.0106C69.5949 62.0118 74.1711 64.091 77.312 64.112C79.9243 64.1313 82.2861 63.0793 84.8155 62.7808C83.8875 61.3237 83.5372 59.5509 84.0241 57.3743C84.278 56.2579 84.7031 55.3226 85.2622 54.5053C84.9235 54.3785 84.5542 54.2629 84.1559 54.144C82.4798 54.8337 81.101 55.8951 79.7515 57.092C79.6035 57.2367 79.379 57.0054 79.498 56.8575C80.541 55.5081 82.0345 54.6066 83.6141 53.994C82.4435 53.6841 81.1039 53.443 79.7226 53.3146C79.2304 53.7871 78.7253 54.2434 78.2332 54.7159C77.6285 55.2783 77.0449 55.9165 76.3254 56.3189C76.1532 56.4167 76.0173 56.181 76.1072 56.0297C76.5619 55.362 77.2666 54.8257 77.8698 54.2778C78.259 53.9405 78.6337 53.6014 79.0085 53.2624C77.811 53.1991 76.6026 53.2373 75.4943 53.4338C74.6131 54.3759 73.7434 55.3485 72.796 56.2242C72.632 56.3817 72.3671 56.1165 72.5021 55.9557C73.224 55.1277 73.9845 54.3481 74.758 53.5847C72.4048 54.1531 70.5577 55.4693 70.1779 58.0106ZM74.7091 65.4888C74.1461 69.0371 74.4037 71.9301 77.6205 74.3534C80.4031 76.4481 84.0182 76.6994 87.3428 77.4609C86.2453 73.6496 87.0318 69.1282 90.0305 66.6805C89.3692 66.4141 88.7433 66.093 88.1334 65.759C86.6789 66.8411 85.2212 67.9522 83.6504 68.8889C83.4621 68.9996 83.3036 68.7025 83.4645 68.574C84.8045 67.4641 86.2769 66.4868 87.7349 65.5078C86.7426 64.9099 85.8935 64.2109 85.2342 63.3866C85.0122 63.5375 84.7626 63.6705 84.5261 63.8197C84.6566 63.8346 84.7827 64.0253 84.6669 64.1442C83.2183 65.7116 81.8459 67.5227 80.1727 68.8589C79.9475 69.0388 79.6424 68.7396 79.8159 68.4951C81.0548 66.8303 82.7488 65.4377 84.2428 63.993C82.8713 64.7174 81.2142 65.2331 79.4824 65.4906C78.477 66.3597 77.6347 67.3502 76.757 68.3954C76.6059 68.569 76.2849 68.4149 76.3972 68.1927C76.9027 67.1931 77.6551 66.3539 78.5286 65.6166C77.238 65.7336 75.9343 65.7022 74.7091 65.4888ZM77.8702 76.6434C76.8796 83.7114 82.2419 88.6852 89.1682 87.9343C88.9965 86.0056 89.3436 84.0334 90.3199 82.3532C89.8952 81.9376 89.4865 81.5091 89.1116 81.0405C88.9581 80.832 88.8207 80.6108 88.6817 80.404C87.7703 81.4894 86.7282 82.5599 85.6342 83.4335C85.4604 83.5458 85.2344 83.3291 85.3695 83.1683C86.2696 82.0522 87.3663 81.0174 88.4811 80.0873C88.2192 79.6609 87.9765 79.1927 87.7789 78.7148C87.3358 78.7377 86.8958 78.7315 86.4413 78.7237C85.3877 79.6313 84.3407 80.6131 83.161 81.3301C82.9872 81.4424 82.7015 81.2336 82.8816 81.0633C83.7129 80.1743 84.7201 79.4229 85.7112 78.6843C83.0391 78.5407 80.2258 77.9404 77.8702 76.6434ZM87.057 55.8263C83.5 60.9711 87.3834 63.8817 92.466 65.3579C92.466 65.3579 92.4949 65.3613 92.5126 65.3339C92.8621 65.227 93.1846 65.3666 93.364 65.6074C96.7951 66.4691 100.586 66.7258 102.951 66.5847C102.402 65.1563 102.225 63.5501 102.546 61.8099C103.094 58.8033 104.587 56.6975 106.632 55.3157C105.689 54.9436 104.587 54.5388 103.425 54.1564C103.423 54.1709 103.392 54.1821 103.378 54.1804C101.168 54.7798 99.379 56.1028 97.913 57.8297C97.6944 58.0838 97.3005 57.7891 97.4917 57.5173C98.7367 55.6622 100.67 54.5026 102.813 53.9691C97.3017 52.253 90.23 51.2398 87.057 55.8263ZM92.2543 67.4337C88.4171 71.1074 87.2838 76.2499 91.3525 80.6943C91.4058 80.7444 91.4607 80.7801 91.4979 80.843C97.6098 85.9466 102.66 84.2177 107.688 82.6919C107 79.1624 108.101 75.5288 111.454 73.7383C110.138 73.2796 108.882 72.6808 107.754 71.9793C106.286 72.7809 105.071 73.9492 104.264 75.4283C104.139 75.6343 103.8 75.5075 103.898 75.2837C104.602 73.6753 105.835 72.4651 107.437 71.7816C105.998 70.8389 104.769 69.7147 103.898 68.411C103.348 68.4658 102.712 68.5106 102.063 68.5392C100.755 69.6234 99.481 70.7996 98.0584 71.7238C97.8991 71.8378 97.731 71.6277 97.8645 71.4814C98.9806 70.4047 100.269 69.4945 101.518 68.5504C100.355 68.5791 99.0814 68.5365 97.7581 68.4147C96.4858 69.5764 95.2042 70.8252 93.7702 71.7187C93.5803 71.8439 93.2672 71.6172 93.4505 71.4179C94.4875 70.2587 95.7665 69.3034 97.0312 68.3464C95.4354 68.1641 93.8072 67.8754 92.2543 67.4337ZM91.8293 83.5977C90.2439 86.8236 91.0016 90.787 93.7497 93.333C97.0323 96.3659 101.52 96.4232 105.615 95.5104C105.049 92.0828 106.151 88.3024 109.194 86.5207C108.857 85.9828 108.594 85.4241 108.363 84.8543C108.356 84.9123 108.35 84.9704 108.302 85.0089C106.153 86.3936 104.321 88.1082 102.59 89.981C102.407 90.1804 102.093 89.9537 102.264 89.7382C103.829 87.6407 105.871 86.0235 108.129 84.7101C108.206 84.6749 108.274 84.7267 108.327 84.7768C108.199 84.4685 108.071 84.1602 107.974 83.8407C105.914 85.2208 103.5 85.9437 101.06 86.091C99.9057 87.2515 98.7706 88.5022 97.4722 89.4994C97.2808 89.6391 96.9708 89.3834 97.1541 89.184C98.1428 88.0634 99.335 87.0981 100.484 86.1279C99.5119 86.1491 98.519 86.0945 97.5534 85.9255C97.5471 85.9835 97.5407 86.0415 97.4909 86.0946C96.5145 86.967 95.5707 87.9459 94.5039 88.7052C94.2963 88.8577 93.9734 88.5858 94.1712 88.3882C95.0668 87.4478 96.1513 86.6612 97.1664 85.8372C95.256 85.4428 93.4109 84.7181 91.8293 83.5977ZM105.165 60.9634C101.28 71.6805 120.979 76.2357 127.222 70.4285C127.25 69.7708 127.364 69.1231 127.526 68.4513C128.193 65.9722 129.819 64.1168 131.876 62.8979C130.524 61.4218 128.512 59.9437 126.198 58.6662C123.763 59.3133 121.891 60.4506 120.247 62.4656C120.059 62.7084 119.72 62.4494 119.881 62.1888C121.064 60.2239 123.285 58.7153 125.601 58.3484C124.503 57.7824 123.341 57.2532 122.156 56.8095C122.156 56.8095 122.128 56.7917 122.114 56.79C120.983 56.3819 119.834 56.0156 118.673 55.7509C116.309 56.8174 114.408 58.3624 112.347 59.8893C112.123 60.0546 111.8 59.7828 111.987 59.5544C113.461 57.7549 115.611 56.4879 117.768 55.5595C112.327 54.5416 107.128 55.6219 105.179 60.9651L105.165 60.9634ZM110.295 88.0121C106.707 91.4204 106.369 96.272 110.145 100.037C114.08 103.952 119.516 103.941 124.674 103.781C124.852 100.262 126.582 96.7887 129.991 95.9592C129.882 95.3447 129.8 94.7479 129.778 94.1433C128.859 94.7579 127.769 94.9271 126.641 94.9011C125.824 95.2484 125.034 95.628 124.273 96.1432C123.256 96.8494 122.423 97.7529 121.574 98.6692C121.424 98.8284 121.179 98.6535 121.303 98.4621C122.208 96.8914 123.804 95.5904 125.549 94.8058C124.65 94.7031 123.734 94.481 122.862 94.2639C121.282 94.8765 120.029 95.8642 118.904 97.1601C118.753 97.3338 118.432 97.1796 118.544 96.9575C119.269 95.5571 120.597 94.5633 122.09 94.0729C121.246 93.8591 120.405 93.6309 119.566 93.3736C118.168 93.9335 117.012 94.8441 115.965 95.9581C115.748 96.1977 115.353 95.9175 115.544 95.6457C116.366 94.4326 117.597 93.648 118.955 93.1863C118.033 92.89 117.113 92.5648 116.216 92.1687C114.301 92.4933 113.034 93.6114 111.705 95.0164C111.492 95.2269 111.071 95.0467 111.207 94.7392C111.945 93.0906 113.723 92.1336 115.49 91.8214C113.773 91.0085 112.18 89.9895 110.817 88.615C110.617 88.4306 110.463 88.2222 110.281 88.0104L110.295 88.0121ZM113.903 74.855C104.265 79.4668 110.695 87.1765 115.876 89.8977C119.198 91.6281 126.222 94.5596 129.832 92.2991C130.282 87.9009 133.026 84.0144 137.499 82.8657C137.343 82.8185 137.096 82.6581 136.755 82.4136C133.808 82.2385 131.349 83.2353 129.25 85.3747C129.036 85.5852 128.749 85.2587 128.89 85.0399C130.463 82.7377 133.471 81.5539 136.227 82.0009C134.011 80.2352 129.789 76.2579 127.824 73.8014C127.821 73.8304 127.789 73.8561 127.743 73.8657C125.863 74.5467 124.376 75.6545 122.74 76.7893C122.5 76.9675 122.109 76.6439 122.341 76.406C123.706 74.9318 125.681 74.056 127.578 73.4943C127.31 73.1259 127.066 72.8044 126.935 72.5251C125.778 72.6279 121.374 75.7082 113.903 74.855ZM132.158 65.03C126.66 69.1161 129.805 76.5095 134.728 79.4507C136.797 80.6855 145.094 83.6596 147.577 81.0942C147.708 79.8903 148.091 78.6711 148.805 77.5045C149.873 75.7908 151.557 74.2209 153.519 73.0645C153.099 72.6054 152.666 72.1301 152.219 71.6532C149.401 71.9041 147.389 72.9812 145.089 74.5396C144.883 74.6776 144.614 74.4559 144.77 74.2388C146.3 72.196 149.161 71.1424 151.693 71.0937C150.312 69.6144 148.786 68.1184 147.166 66.8027C147.163 66.8318 147.117 66.8558 147.057 66.8637C145.131 66.8787 143.473 67.5411 141.875 68.5921C141.654 68.7285 141.407 68.4359 141.616 68.2689C143.101 67.0434 145.005 66.5559 146.91 66.5972C142.516 63.1143 137.415 61.1367 132.158 65.03ZM130.509 97.81C126.089 100.903 124.783 106.011 128.956 110.585C132.801 114.783 138.576 114.9 143.826 114.295C143.735 112.434 144.102 110.552 145.038 108.838C144.259 108.705 143.445 108.495 142.652 108.228C141.283 108.791 140.201 109.828 139.514 111.144C139.44 111.283 139.229 111.2 139.289 111.045C139.809 109.651 140.915 108.661 142.256 108.08C141.253 107.716 140.245 107.263 139.274 106.741C138.02 107.596 136.883 108.597 135.655 109.485C135.464 109.625 135.183 109.372 135.35 109.186C136.253 108.041 137.505 107.2 138.788 106.48C137.709 105.872 136.684 105.168 135.735 104.442C135.73 104.486 135.724 104.544 135.689 104.599C135.267 105.094 134.846 105.589 134.424 106.099C134.036 106.554 133.686 107.072 133.221 107.43C132.981 107.608 132.734 107.316 132.861 107.095C133.182 106.574 133.669 106.145 134.084 105.708C134.502 105.241 134.933 104.791 135.35 104.34C135.4 104.287 135.459 104.279 135.532 104.287C134.705 103.649 133.956 102.976 133.323 102.317C132.465 101.426 131.782 100.555 131.342 99.7407C130.999 99.1141 130.732 98.4668 130.509 97.81ZM140.427 84.3015C131.897 84.2672 129.626 93.9203 133.755 99.9722C136.682 104.242 145.753 109.287 150.904 105.954C150.709 105.315 150.544 104.68 150.452 104.038C149.809 99.2944 152.378 95.7991 155.92 94.2945C155.854 94.2282 155.767 94.0861 155.668 93.9132C151.546 94.676 148.296 96.728 145.861 100.209C145.686 100.468 145.228 100.225 145.375 99.9482C147.332 96.2801 151.291 93.7805 155.429 93.5482C155.081 92.9651 154.541 92.1251 153.78 91.1571C151.831 91.3897 150.089 92.2775 148.704 93.6613C148.49 93.8719 148.133 93.508 148.318 93.2942C149.672 91.7894 151.48 90.9679 153.468 90.7837C152.662 89.8253 151.628 88.7968 150.324 87.8254C149.024 88.7049 147.738 89.586 146.388 90.3864C146.167 90.5227 145.944 90.1448 146.15 90.0068C147.404 89.1513 148.695 88.3589 149.985 87.5664C148.307 86.3908 146.2 85.3719 143.606 84.782C142.637 85.993 141.519 87.0842 140.209 87.9185C139.91 88.1046 139.545 87.6811 139.847 87.466C140.994 86.6425 142.05 85.7203 142.974 84.651C142.168 84.5003 141.331 84.3607 140.427 84.3015ZM146.701 109.483C144.227 113.856 146.017 119.259 149.999 122.078C153.801 124.789 158.628 124.84 163.06 124.333C163.063 122.278 163.763 120.17 165.623 119.281C165.653 119.269 165.682 119.273 165.713 119.262C164.807 119.085 163.912 118.806 163.023 118.47C161.483 119.263 160.267 120.314 159.148 121.684C159.03 121.817 158.75 121.697 158.843 121.517C159.618 120.063 160.978 118.912 162.489 118.247C161.478 117.823 160.494 117.285 159.534 116.662C159.526 116.734 159.518 116.807 159.442 116.827C157.673 117.565 156.475 118.853 155.41 120.405C155.236 120.65 154.851 120.415 154.953 120.147C155.684 118.292 157.42 117.052 159.287 116.501C158.189 115.788 157.15 114.95 156.191 114.048C155.832 114.374 155.473 114.7 155.116 115.012C154.611 115.468 154.1 115.982 153.48 116.279C153.309 116.362 153.143 116.137 153.247 115.988C153.659 115.447 154.275 115.048 154.805 114.638C155.187 114.359 155.558 114.063 155.94 113.784C154.891 112.768 153.941 111.647 153.142 110.483C152.326 111.374 151.438 112.242 150.493 112.956C150.207 113.159 149.778 112.787 150.028 112.507C150.848 111.587 151.821 110.744 152.816 109.976C152.251 109.089 151.761 108.196 151.376 107.286C150.158 108.483 146.808 109.305 146.701 109.483ZM153.75 75.5287C148.118 79.3644 148.665 85.1248 153.855 89.1244C157.919 92.2613 162.23 93.9431 166.947 90.8251C167.705 88.988 168.978 87.4152 170.802 86.4486C170.642 86.0338 170.481 85.619 170.308 85.188C170.308 85.188 170.308 85.188 170.279 85.1847C168.339 85.4625 166.81 86.4186 165.405 87.7266C165.224 87.897 164.96 87.6318 165.098 87.442C166.285 85.8447 168.199 84.9913 170.144 84.8022C169.713 83.7691 169.241 82.7165 168.705 81.7008C167.307 81.8642 166.266 82.6558 165.451 83.7963C165.261 84.0537 164.847 83.8154 164.967 83.5208C165.518 82.1005 166.944 81.2795 168.412 81.1534C168.021 80.4332 167.612 79.7403 167.17 79.0731C165.669 79.5038 164.428 80.2432 163.049 81.0402C162.737 81.2101 162.537 80.7468 162.75 80.5508C163.806 79.4819 165.338 78.9079 166.84 78.5949C166.204 77.6998 165.528 76.8884 164.798 76.1736C162.623 77.2616 160.956 78.8186 159.254 80.5481C159.008 80.7843 158.698 80.3965 158.843 80.1486C160.09 78.1324 162.184 76.7121 164.358 75.7708C161.597 73.3409 158.098 72.5595 153.752 75.5141L153.75 75.5287ZM165.353 96.8256C157.361 90.6409 148.838 100.52 154.381 108.554C157.906 113.671 163.536 118.484 169.999 118.077C170.382 117.122 171.016 116.152 171.987 115.191C173.538 113.635 175.267 112.863 177.021 112.667C176.122 111.081 175.97 109.111 176.327 107.316C175.716 107.128 175.112 106.869 174.512 106.58C172.425 107.81 170.681 109.388 169.062 111.171C168.81 111.465 168.332 111.131 168.573 110.806C169.973 108.881 171.924 107.415 174.038 106.35C172.76 105.675 171.56 104.833 170.492 103.845C168.733 105.7 167.05 107.666 165.133 109.356C164.922 109.538 164.618 109.224 164.787 109.023C166.44 107.068 168.362 105.334 170.172 103.544C169.231 102.614 168.415 101.61 167.768 100.538C166.713 101.592 165.689 102.767 164.476 103.657C164.283 103.811 163.988 103.557 164.158 103.341C165.137 102.176 166.389 101.203 167.529 100.173C167.531 100.158 167.56 100.161 167.574 100.163C167.416 99.866 167.241 99.5817 167.111 99.2879C166.839 98.6841 166.095 97.4243 165.879 97.2528C165.839 97.2188 165.785 97.1687 165.731 97.133C165.724 97.191 165.716 97.2636 165.623 97.3116C164.059 98.4547 162.539 99.7349 160.849 100.687C160.553 100.844 160.321 100.407 160.55 100.198C161.98 98.9368 163.69 97.928 165.263 96.8446C165.293 96.8334 165.322 96.8367 165.353 96.8256ZM166.446 120.08C165.467 121.921 164.458 123.362 164.848 125.58C165.22 127.693 166.582 129.347 168.336 130.502C170.816 132.136 179.56 134.515 179.795 129.798C174.626 128.577 168.805 124.314 169.605 119.398C168.487 119.549 166.61 119.79 166.446 120.08ZM170.457 89.3462C162.472 96.8489 174.616 107.106 182.454 105.813C182.589 105.784 182.718 105.814 182.831 105.856C184.429 105.069 185.208 103.587 185.388 101.801C184.241 103.021 183.082 104.357 181.708 105.243C181.502 105.381 181.19 105.14 181.362 104.91C182.445 103.462 184.037 102.337 185.427 101.174C185.44 100.382 185.341 99.5341 185.156 98.6759C183.389 99.3846 182.04 100.582 180.863 102.077C180.642 102.36 180.249 102.051 180.415 101.747C181.425 100.027 183.169 98.8455 185.031 98.2063C184.761 97.1769 184.377 96.1198 183.87 95.1074C183.037 95.8787 182.148 96.7611 181.147 97.3222C180.974 97.4201 180.782 97.1631 180.915 97.0168C181.686 96.1502 182.759 95.4651 183.713 94.7958C183.168 93.7349 182.515 92.7205 181.778 91.7993C180.16 92.4956 178.666 93.397 177.309 94.5343C175.824 95.7598 174.807 97.2738 173.535 98.6998C173.336 98.912 172.915 98.7318 173.051 98.4243C174.501 95.0948 178.114 92.6731 181.429 91.3629C180.62 90.4334 179.727 89.5972 178.783 88.9607C177.133 89.9472 175.732 91.2116 174.433 92.6199C174.184 92.8851 173.761 92.5872 173.984 92.2896C175.109 90.7293 176.616 89.5651 178.302 88.6562C175.793 87.1507 172.977 86.976 170.457 89.3462ZM174.166 115.954C164.63 123 182.033 132.712 186.845 126.301C189.214 123.296 187.033 119.053 183.537 116.627C183.534 116.656 183.529 116.7 183.497 116.725C182.619 117.506 181.795 118.323 181.024 119.204C180.387 119.924 179.833 120.83 179.065 121.403C178.827 121.567 178.498 121.353 178.617 121.073C178.982 120.145 179.814 119.389 180.492 118.688C181.303 117.855 182.168 117.058 183.071 116.324C182.246 115.804 181.352 115.379 180.443 115.099C178.949 116.544 177.515 118.113 175.827 119.315C175.619 119.468 175.283 119.18 175.468 118.966C176.806 117.474 178.437 116.25 179.972 114.972C177.969 114.479 175.893 114.668 174.166 115.954ZM177.571 107.619C177.341 109.326 177.751 110.827 178.388 112.529C178.384 112.558 178.41 112.591 178.407 112.62C182.159 112.828 185.826 115.435 187.95 118.585C190.363 116.526 191.053 114.504 190.79 112.477C190.175 112.994 189.559 113.526 188.983 114.092C188.292 114.777 187.721 115.563 187.031 116.233C186.851 116.404 186.661 116.132 186.752 115.966C187.64 114.423 189.229 113.048 190.716 112.072C190.615 111.517 190.441 110.954 190.21 110.384C190.207 110.413 190.173 110.454 190.126 110.478C188.639 111.189 187.508 112.264 186.462 113.51C186.291 113.726 185.886 113.533 186.032 113.27C186.861 111.735 188.328 110.669 189.95 110.076C189.995 110.066 190.053 110.073 190.095 110.092C189.813 109.443 189.457 108.801 189.071 108.169C187.412 108.699 186.404 109.862 185.417 111.232C185.244 111.477 184.887 111.245 184.975 110.976C185.497 109.288 187.187 108.204 188.831 107.804C188.219 106.823 187.516 105.862 186.816 104.872C185.98 106.744 184.342 108.026 181.543 107.838C181.398 107.821 181.285 107.779 181.189 107.71C179.993 107.911 178.764 107.858 177.571 107.619Z" fill="#5ADEFF"/>
<path d="M67.8344 35.9591C67.4602 35.887 67.5075 35.3193 67.8993 35.364C89.1838 37.7184 110.436 20.5698 131.217 29.9641C131.275 29.9707 131.235 30.069 131.208 30.0512C109.422 21.3798 89.6602 40.6235 67.8488 35.9607L67.8344 35.9591Z" fill="#5ADEFF"/>
<path d="M65.5481 63.0154C65.3662 63.068 65.2418 62.863 65.3027 62.7086C65.4723 62.2291 65.9948 61.8779 66.3176 61.4746C66.7095 60.9764 67.0175 60.4394 67.2707 59.8667C67.3924 59.5578 67.8566 59.7429 67.7494 60.0535C67.5043 60.6857 67.2029 61.2969 66.8193 61.8547C66.5078 62.2886 66.1049 62.8882 65.5481 63.0154Z" fill="#5ADEFF"/>
<path d="M67.8134 74.427C67.6333 74.5973 67.341 74.3143 67.5082 74.1279C68.1415 73.4367 68.8281 72.7957 69.5002 72.153C69.6964 71.9699 69.9404 72.2914 69.7587 72.4762C69.1286 73.1384 68.4968 73.815 67.8134 74.427Z" fill="#5ADEFF"/>
<path d="M73.102 32.9843C72.7378 33.0898 72.5835 32.4843 72.9202 32.3611C77.1175 30.7969 81.5277 29.301 86.0688 27.9524C103.652 22.7708 123.212 19.931 140.771 24.2553C148.485 26.149 155.799 29.4225 162.389 34.48C162.429 34.514 162.378 34.5816 162.336 34.5621C133.723 16.1327 103.255 24.6508 73.102 32.9843Z" fill="#5ADEFF"/>
<path d="M70.3636 74.7629C70.2107 74.8188 70.0493 74.6829 70.1118 74.514C70.3105 74.0377 70.8041 73.6831 71.1658 73.3282C71.6368 72.9124 72.0933 72.4949 72.5513 72.0629C72.7957 71.8413 73.1042 72.2434 72.8743 72.4667C72.4468 72.8875 72.0338 73.3099 71.6078 73.7162C71.2446 74.0857 70.8528 74.5839 70.3636 74.7629Z" fill="#5ADEFF"/>
<path d="M85.5346 26.1995C85.4331 26.188 85.3474 26.0313 85.4584 25.9559C86.3565 25.3975 87.2918 24.9022 88.2352 24.4666C91.1123 23.1356 94.2031 22.2696 97.3124 21.7728C97.4171 21.7554 97.4304 21.9038 97.3402 21.9229C93.16 22.8114 89.4244 24.338 85.6088 26.1933C85.5782 26.2045 85.5636 26.2029 85.5346 26.1995Z" fill="#5ADEFF"/>
<path d="M79.6963 80.9824C79.5242 81.0801 79.3432 80.8539 79.5025 80.74C80.5575 79.9504 81.6773 79.2415 82.7711 78.5004C82.9449 78.3881 83.1372 78.645 82.9779 78.7589C81.8841 79.5 80.816 80.2735 79.6963 80.9824Z" fill="#5ADEFF"/>
<path d="M91.3527 57.1119C91.2224 57.2292 91.0819 57.037 91.1831 56.9164C92.7357 55.3324 94.624 54.0363 96.4868 52.8399C96.5817 52.7774 96.6996 52.9083 96.6031 52.9853C94.7486 54.2413 93.0909 55.7106 91.3527 57.1119Z" fill="#5ADEFF"/>
<path d="M100.466 74.3168C100.257 74.4837 99.9232 74.1813 100.122 73.9693C101.438 72.5345 102.953 71.2986 104.44 70.0449C104.554 69.9405 104.769 70.1265 104.653 70.2453C103.297 71.6461 101.979 73.0953 100.466 74.3168Z" fill="#5ADEFF"/>
<path d="M108.946 19.5074C108.587 19.5694 108.512 19.0463 108.845 18.952C112.177 18.0526 115.564 17.586 118.954 17.5018C126.604 17.3003 134.226 19.1095 141.218 22.5082C141.329 22.565 141.265 22.7488 141.154 22.692C130.639 17.9069 120.136 17.1806 108.946 19.5074Z" fill="#5ADEFF"/>
<path d="M118.87 15.566C118.435 15.5164 118.361 14.8466 118.841 14.7544C125.324 13.5243 131.912 13.3496 138.385 14.0878C152 15.6403 165.187 21.2443 176.138 29.562C176.206 29.6138 176.122 29.7072 176.069 29.657C159.075 17.3288 139.514 13.4376 118.973 15.5631C118.944 15.5598 118.915 15.5564 118.872 15.5515L118.87 15.566Z" fill="#5ADEFF"/>
<path d="M117.141 60.5883C116.976 60.7602 116.683 60.4773 116.834 60.3037C118.241 58.7174 120.051 57.603 122.024 56.8743C122.053 56.8776 122.085 56.8519 122.1 56.8536C122.114 56.8553 122.127 56.8714 122.142 56.873C122.253 56.9298 122.292 57.1104 122.139 57.1664C120.219 57.9452 118.606 59.1408 117.127 60.5866L117.141 60.5883Z" fill="#5ADEFF"/>
<path d="M120.264 68.3622C119.989 68.595 119.563 68.194 119.81 67.9433C121.805 65.8077 124.079 63.9388 126.45 62.2572C127.627 61.4228 129.334 60.3113 130.502 61.7219C130.657 61.9158 130.408 62.1809 130.205 62.0256C128.538 60.7488 125.482 63.9964 124.337 64.9373C122.965 66.0724 121.634 67.2415 120.264 68.3622Z" fill="#5ADEFF"/>
<path d="M122.222 81.9959C121.977 82.2176 121.579 81.8344 121.81 81.5966C124.083 79.1989 127.115 77.6514 130.281 76.7651C130.477 76.7141 130.573 77.0481 130.389 77.1152C127.292 78.1854 124.71 79.9165 122.222 81.9959Z" fill="#5ADEFF"/>
<path d="M128.335 81.3554C128.114 81.4918 127.83 81.2685 127.989 81.0223C129.09 79.4148 131.444 79.1108 133.167 79.7481C133.449 79.8537 133.337 80.3403 133.036 80.2765C131.244 79.8664 129.832 80.4248 128.335 81.3554Z" fill="#5ADEFF"/>
<path d="M130.862 105.417C130.619 105.624 130.317 105.296 130.476 105.05C131.158 104.042 132.118 103.184 132.934 102.294C133.051 102.16 133.238 102.196 133.33 102.295C133.411 102.363 133.427 102.482 133.342 102.59C132.534 103.539 131.787 104.599 130.862 105.417Z" fill="#5ADEFF"/>
<path d="M137.643 68.1842C137.407 68.3334 137.069 68.0599 137.274 67.8042C138.712 65.9275 141.481 65.0399 143.754 64.8003C144.007 64.7704 144.069 65.1446 143.815 65.1889C142.665 65.3659 141.555 65.7091 140.514 66.2362C139.456 66.7761 138.623 67.5473 137.643 68.1842Z" fill="#5ADEFF"/>
<path d="M145.133 30.3254C144.909 30.2264 145.046 29.9045 145.258 29.9873C150.625 31.9363 155.774 34.4036 160.636 37.3518C180.685 49.419 196.089 69.2204 203.447 91.3029C203.447 91.3029 203.444 91.3319 203.442 91.3464C203.434 91.4189 203.297 91.462 203.263 91.37C193.303 63.1183 172.305 42.2375 145.118 30.3237L145.133 30.3254Z" fill="#5ADEFF"/>
<path d="M144.318 71.9316C144.167 72.1052 143.816 71.9622 143.93 71.7256C144.892 69.7653 147.334 68.6494 149.468 69.0106C149.671 69.0338 149.707 69.3756 149.471 69.3926C147.316 69.4843 145.752 70.3628 144.318 71.9316Z" fill="#5ADEFF"/>
<path d="M142.666 89.0249C142.453 89.2353 142.197 88.8832 142.397 88.6711C143.572 87.4547 145 86.605 146.615 86.0701C146.874 85.9823 147.065 86.3858 146.79 86.4865C145.233 87.028 143.861 87.8988 142.666 89.0249Z" fill="#5ADEFF"/>
<path d="M150.301 22.0801C149.909 21.9033 150.149 21.3143 150.544 21.4622C167.548 27.2208 182.942 38.5931 194.427 52.2928C200.301 59.2897 205.575 67.2016 208.289 75.9804C211.121 85.1544 210.291 94.9228 212.507 104.232C212.5 104.29 212.409 104.323 212.401 104.264C209.916 96.2156 210.345 87.8252 208.488 79.6726C206.27 69.9816 200.737 61.3503 194.519 53.7416C182.589 39.1398 167.477 29.3555 150.301 22.0801Z" fill="#5ADEFF"/>
<path d="M156.999 78.5632C156.751 78.8138 156.314 78.5144 156.537 78.2169C157.928 76.3647 159.949 75.2009 162.182 74.6486C162.485 74.5658 162.551 75.043 162.261 75.142C160.169 75.7399 158.448 76.9819 156.999 78.5632Z" fill="#5ADEFF"/>
<path d="M173.008 40.4091C173.008 40.4091 172.961 40.3016 173.019 40.3081C173.076 40.3147 173.065 40.4157 173.008 40.4091Z" fill="#5ADEFF"/>
<path d="M177.736 44.0189C177.736 44.0189 177.743 43.961 177.741 43.9755C190.315 53.8341 199.822 67.2014 204.646 82.455C207.366 91.0267 207.308 100.587 211.158 108.759C214.173 115.164 219.102 120.437 218.82 127.873C218.818 127.888 218.816 127.902 218.787 127.899C218.758 127.896 218.758 127.896 218.762 127.867C218.28 119.36 212.235 113.549 209.466 105.837C207.719 100.986 207.256 95.8122 206.385 90.7385C206.1 89.0478 205.769 87.3667 205.333 85.7174C200.947 69.1346 191.04 54.7239 177.722 44.0173L177.736 44.0189Z" fill="#5ADEFF"/>
<path d="M169.275 128.139C169.013 128.256 168.765 127.978 168.849 127.738C169.037 127.231 169.532 126.862 169.91 126.494C170.355 126.046 170.811 125.629 171.268 125.211C171.48 125.015 171.783 125.329 171.613 125.544C171.236 126.044 170.847 126.513 170.442 126.995C170.09 127.395 169.769 127.916 169.275 128.139Z" fill="#5ADEFF"/>
<path d="M171.831 113.229C171.552 113.491 171.115 113.059 171.353 112.764C172.513 111.282 174.077 110.125 175.804 109.368C176.05 109.264 176.277 109.613 176.053 109.778C174.531 110.808 173.157 111.972 171.831 113.229Z" fill="#5ADEFF"/>
<path d="M170.659 130.261C170.437 130.411 170.2 130.164 170.326 129.944C170.659 129.453 171.144 129.039 171.555 128.631C172.017 128.17 172.465 127.693 172.926 127.232C173.106 127.062 173.411 127.361 173.244 127.547L171.914 128.98C171.514 129.419 171.136 129.919 170.659 130.261Z" fill="#5ADEFF"/>
<path d="M174.111 131.618C173.855 131.809 173.502 131.549 173.608 131.253C173.827 130.72 174.253 130.314 174.621 129.901L175.83 128.499C176.031 128.272 176.386 128.518 176.211 128.777C175.863 129.28 175.513 129.798 175.164 130.301C174.85 130.764 174.572 131.29 174.111 131.618Z" fill="#5ADEFF"/>
<path d="M183.329 122.232C183.107 122.382 182.798 122.112 182.985 121.884C183.818 120.835 184.867 119.971 185.886 119.104C186.113 118.91 186.458 119.243 186.257 119.469C185.33 120.435 184.427 121.447 183.329 122.232Z" fill="#5ADEFF"/>
<path d="M184.326 125.776C184.111 126.001 183.779 125.817 183.855 125.517C184.321 123.941 185.994 122.592 187.382 121.84C187.571 121.73 187.729 122.027 187.568 122.155C186.922 122.698 186.302 123.273 185.762 123.915C185.256 124.518 184.856 125.221 184.326 125.776Z" fill="#5ADEFF"/>
<path d="M326.799 249.774C316.421 235.546 312.246 217.17 308.871 200.207C305.432 183.03 303.768 165.176 306.47 147.791C307.725 139.777 309.901 131.927 313.217 124.53C317.034 116.031 322.385 108.397 324.402 99.1792C324.579 98.3632 325.767 98.1027 326.301 98.7212C339.007 113.406 356.378 122.578 370.254 135.958C383.238 148.488 393.219 164.079 399.308 181.045C405.002 196.924 409.454 217.194 402.546 233.321C396.068 248.47 384.87 249.025 373.807 273.246C376.272 286.174 376.05 299.25 370.731 312.243C370.572 312.621 365.801 314.262 361.987 311.156C368.171 302.209 366.863 275.842 366.634 275.787C350.727 272.165 336.458 263.068 326.783 249.787L326.799 249.774ZM311.326 200.575C313.943 214.122 317.376 228.393 323.903 240.538C324.842 242.288 325.831 243.985 326.913 245.635C336.074 259.724 350.518 269.369 366.729 273.303C365.387 267.707 363.481 262.178 361.51 256.833C361.24 256.083 360.937 255.359 360.679 254.626C349.729 247.389 338.516 242.705 325.666 239.844C325.564 239.832 325.513 239.768 325.493 239.678C325.451 239.526 325.562 239.319 325.749 239.355C338.033 240.948 350.314 246.062 360.267 253.566C358.038 247.766 355.702 241.998 353.336 236.24C343.858 229.642 334.325 225.692 322.965 223.163C322.678 223.1 322.757 222.64 323.034 222.657C333.517 223.546 344.452 228.228 352.778 234.9C349.794 227.679 346.826 220.444 344.071 213.146C335.556 207.259 325.236 199.493 314.759 200.175C314.611 200.187 314.504 200.087 314.488 199.968C314.446 199.816 314.524 199.634 314.704 199.596C319.849 198.702 324.544 200.867 329.066 203.129C334.299 205.736 339.29 208.815 343.834 212.488C343.357 211.216 342.878 209.958 342.415 208.688C340.123 202.382 338.15 195.98 336.443 189.564C333.037 187.561 329.7 185.464 326.113 183.778C321.828 181.763 317.407 180.451 312.937 178.928C312.61 178.832 312.776 178.382 313.092 178.447C321.08 180.005 329.682 183.877 336.268 188.884C335.172 184.666 334.167 180.428 333.282 176.161C325.983 170.295 318.342 167.031 308.98 165.551C308.806 165.531 308.721 165.375 308.733 165.259C308.747 165.128 308.831 165.035 308.992 165.039C317.727 165.405 326.74 169.413 333.139 175.455C331.984 169.762 330.996 164.016 330.171 158.259C327.355 156.499 324.789 154.328 321.907 152.635C318.721 150.76 315.394 149.25 312.075 147.654C311.824 147.537 311.934 147.197 312.161 147.135C312.206 147.126 312.25 147.131 312.292 147.15C315.822 148.287 319.191 149.948 322.406 151.826C324.915 153.301 327.693 154.88 329.957 156.855C329.331 152.368 328.781 147.859 328.319 143.347C328.09 141.941 327.862 140.536 327.663 139.134C325.994 137.755 324.427 136.241 322.694 134.914C320.607 133.326 318.431 131.889 316.208 130.476C315.906 130.28 316.172 129.856 316.495 129.995C320.287 131.822 324.406 134.42 327.433 137.612C326.554 131.54 325.923 125.482 325.554 119.44C325.501 119.39 325.462 119.341 325.441 119.265C325.151 118.425 324.987 117.644 324.343 116.954C323.738 116.313 322.94 115.825 322.107 115.657C321.877 115.616 321.947 115.243 322.152 115.251C323.353 115.271 324.686 115.966 325.44 116.991C325.247 112.832 325.156 108.684 325.225 104.555C323.353 110.019 320.549 115.01 317.855 120.204C313.813 127.943 310.939 136.139 309.297 144.739C309.096 145.773 308.91 146.808 308.751 147.861C307.834 153.581 307.422 159.387 307.419 165.197C307.387 175.184 308.526 185.203 310.306 194.986C310.649 196.815 310.99 198.673 311.345 200.533L311.326 200.575ZM334.548 177.068C337.903 192.196 342.75 206.819 348.66 221.255C355.311 237.508 363.247 253.686 367.853 270.659C371.504 284.016 371.916 298.411 364.258 310.374C367.334 312.985 369.644 310.901 369.801 310.948C382.015 274.139 358.869 239.601 346.024 206.268C340.212 191.198 335.091 175.179 331.386 158.823C331.341 158.832 331.307 158.872 331.262 158.882C331.641 161.463 332.019 164.059 332.472 166.634C333.068 170.048 333.769 173.443 334.517 176.815C334.531 176.817 334.557 176.849 334.583 176.881C334.649 176.948 334.614 177.002 334.564 177.055L334.548 177.068ZM331.127 157.972C331.127 157.972 331.165 158.02 331.191 158.052C331.139 157.856 331.087 157.659 331.066 157.451C331.076 157.628 331.101 157.807 331.127 157.972ZM334.026 160.313C335.801 167.998 337.861 175.612 340.166 183.138C341.491 166.007 347.53 150.044 357.697 136.197C357.783 136.075 357.991 136.186 357.887 136.336C347.682 150.942 342.032 167.77 341.033 185.555C341.025 185.627 341.004 185.684 340.983 185.74C342.325 189.987 343.759 194.199 345.257 198.361C347.498 204.588 349.921 210.763 352.558 216.859C353.544 219.128 354.556 221.415 355.595 223.734C358.478 200.106 366.387 177.491 379.086 157.374C379.173 157.252 379.366 157.362 379.292 157.501C367.002 178.441 359.199 201.303 356.348 225.434C358.628 230.507 360.968 235.689 363.199 240.932C366.269 220.845 371.779 200.715 380.666 182.452C380.686 182.41 380.769 182.449 380.75 182.491C373.052 202.093 367.048 221.639 363.933 242.541C363.93 242.57 363.929 242.585 363.911 242.612C366.974 249.916 369.773 257.351 371.831 264.863C374.677 243.328 382.144 222.746 394.129 204.602C394.201 204.478 394.38 204.587 394.322 204.712C382.639 223.859 375.209 244.768 372.613 267.109C372.6 267.225 372.562 267.309 372.496 267.375C372.772 268.477 373.032 269.592 373.277 270.706C377.72 257.408 390.174 249.235 397.481 237.658C407.858 221.208 403.222 198.848 397.035 181.577C390.526 163.478 379.471 146.972 365.047 134.19C357.754 127.723 349.762 122.16 342.106 116.209C336.421 111.819 330.939 107.188 326.052 101.818C325.925 102.302 325.786 102.77 325.647 103.239C326.45 109.874 327.168 116.484 327.959 123.089C328.8 119.546 330.182 116.154 332.069 112.98C332.138 112.885 332.262 112.958 332.206 113.069C330.383 116.866 329.072 120.824 328.184 124.933C328.813 130.199 329.531 135.46 330.321 140.729C332.006 132.265 335.699 124.104 341.036 117.408C341.07 117.368 341.129 117.36 341.184 117.395C341.228 117.4 341.265 117.463 341.215 117.516C336.083 125.557 332.642 133.835 330.706 143.12C331.504 148.053 332.406 152.968 333.498 157.89C335.074 151.101 337.055 144.374 339.466 137.871C339.506 137.773 339.664 137.805 339.622 137.918C337.37 144.982 335.437 152.082 333.799 159.304C333.864 159.649 333.929 159.993 334.012 160.311L334.026 160.313Z" fill="#5ADEFF"/>
<path d="M345.26 198.405C345.26 198.405 345.252 198.346 345.255 198.317C346.222 187.987 348.668 178.075 352.81 168.606C352.864 168.51 353.035 168.559 352.98 168.655C349.221 178.241 346.754 188.077 345.795 198.335C345.761 198.653 345.304 198.674 345.245 198.404L345.26 198.405Z" fill="#5ADEFF"/>
</svg>
