<svg width="814" height="469" viewBox="0 0 814 469" fill="none" xmlns="http://www.w3.org/2000/svg">
<path d="M97.9493 170.86C113.436 156.278 130.791 143.065 150.591 135.826C175.287 126.797 202.024 129.587 223.41 145.257C223.721 145.49 223.778 145.8 223.675 146.08C224.652 145.787 225.637 145.595 226.495 144.982C227.078 144.57 227.582 144.041 227.947 143.427C228.162 143.078 228.284 142.699 228.487 142.37C204.633 127.245 173.92 124.1 147.73 135.111C132.358 141.568 118.541 152.116 106.145 163.125C103.337 165.634 100.606 168.217 97.9431 170.87L97.9493 170.86ZM229.748 142.444C229.983 143.895 228.425 145.467 227.324 146.206C226.087 147.055 224.449 147.684 223.056 146.951C222.957 146.89 222.901 146.801 222.884 146.694C222.699 146.704 222.487 146.669 222.29 146.521C218.685 143.863 214.918 141.602 211.042 139.699C202 162.068 177.567 170.267 155.669 173.92C142.043 176.197 128.304 177.896 114.624 179.837C102.014 181.625 89.7841 183.51 78.4381 189.458C76.1609 191.193 76.9538 189.054 77.3605 188.795C86.7054 174.094 93.3794 157.832 103.113 143.369C111.238 131.3 121.986 121.092 135.11 114.601C160.221 102.17 192.604 106.781 209.354 130.547C209.588 130.883 209.538 131.21 209.368 131.464C216.345 133.76 223.078 136.898 229.319 140.86C229.808 141.161 229.826 141.736 229.606 142.137C229.668 142.216 229.727 142.321 229.742 142.454L229.748 142.444ZM154.251 172.402C176.573 168.529 199.8 161.375 209.469 138.924C208.64 138.551 207.788 138.192 206.946 137.84C202.423 140.297 198.82 143.046 196.108 147.635C196.022 147.775 195.794 147.676 195.866 147.514C197.959 143.217 201.628 139.286 206.15 137.501C201.656 135.686 197.023 134.363 192.31 133.486C183.135 140.041 176.527 148.615 172.533 159.223C172.48 159.355 172.278 159.258 172.331 159.126C175.833 148.559 182.43 139.689 191.508 133.336C184.63 132.132 177.599 131.892 170.564 132.598C161.224 142.104 156.351 156.421 153.399 169.114C153.374 169.222 153.287 169.251 153.211 169.218C153.161 169.187 153.124 169.137 153.131 169.058C154.95 157.044 160.09 141.489 169.315 132.751C161.956 133.602 154.625 135.46 147.496 138.309C147.393 138.342 147.294 138.391 147.201 138.43C142.187 145.935 139.126 154.064 137.281 162.899C137.259 163.024 137.089 162.988 137.114 162.879C138.296 154.117 141.624 146.111 146.424 138.777C140.275 141.307 134.525 144.372 129.055 147.856C124.057 156.719 121.932 165.629 120.846 175.646C120.841 175.699 120.803 175.716 120.78 175.73C120.706 175.739 120.63 175.706 120.631 175.638C120.227 166.3 123.117 156.883 127.651 148.752C123.037 151.759 118.589 155.033 114.294 158.484C111.816 163.34 110.794 168.199 110.465 173.608C110.453 173.806 110.14 173.779 110.12 173.588C109.793 168.642 111.081 163.686 113.319 159.287C106.733 164.628 100.438 170.369 94.1642 176.165C93.6289 177.706 93.3453 179.195 93.5276 180.889C93.5422 181.022 93.3412 181.035 93.3265 180.903C93.1351 179.492 93.2138 178 93.6709 176.631C90.671 179.407 87.6612 182.176 84.6375 184.924C91.3385 182.1 98.6668 180.694 105.823 179.567C110.879 178.771 115.936 178.017 121 177.296C128.59 176.202 136.186 175.166 143.766 174.066C147.19 173.574 150.708 173.042 154.255 172.418L154.251 172.402ZM200.443 129.027C202.802 129.529 205.14 130.155 207.461 130.854C191.818 109.378 163.685 105.057 140.273 114.256C136.629 115.686 133.114 117.444 129.766 119.51C122.169 124.216 116.07 129.995 110.85 136.425C107.077 141.062 103.757 146.034 100.647 151.204C104.792 154.056 108.951 154.716 113.692 154.744C118.497 150.823 123.505 147.041 128.73 143.599C122.581 144.273 116.592 142.047 112.227 137.629C112.187 137.605 112.196 137.569 112.204 137.533C112.229 137.493 112.273 137.465 112.317 137.506C117.172 141.977 123.193 143.769 129.685 142.963C132.797 140.944 135.986 139.068 139.246 137.346C134.888 136.605 130.792 134.031 127.729 131.006C127.656 130.946 127.749 130.839 127.823 130.898C131.683 134.125 135.691 135.545 140.353 136.776C143.959 134.937 147.648 133.3 151.437 131.945C154.287 130.934 157.175 130.084 160.104 129.369C152.81 127.523 146.36 123.074 142.296 116.669C142.244 116.596 142.273 116.504 142.314 116.46C142.377 116.402 142.504 116.398 142.575 116.483C147.64 122.871 153.834 127.066 161.805 128.929C161.805 128.929 161.825 128.942 161.845 128.954C167.772 127.635 173.798 126.982 179.842 126.904C178.051 126.105 176.32 124.738 174.914 123.804C170.719 121.032 166.987 117.732 163.651 113.989C163.573 113.913 163.679 113.786 163.757 113.861C166.355 116.367 169.065 118.735 171.985 120.875C174.504 122.727 179.61 126.968 183.138 126.799C183.271 126.785 183.37 126.846 183.426 126.935C188.483 127.075 193.539 127.641 198.507 128.62C193.661 125.364 189.542 121.373 186.334 116.416C186.255 116.298 186.433 116.188 186.508 116.289C190.397 121.28 194.916 125.559 200.318 128.895C200.368 128.926 200.402 128.96 200.429 129.005L200.443 129.027ZM111.537 156.527C111.951 156.19 112.364 155.853 112.768 155.51C108.391 155.829 103.867 154.106 100.413 151.583C98.2602 155.195 96.1784 158.893 94.1464 162.622C89.6898 170.717 85.336 178.958 80.2377 186.756C85.3116 182.821 89.3523 177.839 93.7859 173.113C93.5718 173.215 93.3416 173.321 93.1153 173.443C91.3904 174.28 89.6248 174.982 87.7901 175.572C87.6811 175.615 87.6266 175.458 87.7417 175.405C89.4935 174.681 91.2199 173.886 92.9011 173.009C93.6446 172.627 94.3566 172.185 95.0886 171.755C97.4033 169.355 99.7755 167.019 102.211 164.735C99.5479 164.885 96.9209 164.259 94.5225 162.949C94.4726 162.919 94.4734 162.85 94.5279 162.829C94.5279 162.829 94.5639 162.837 94.5739 162.843C97.2608 164.042 100.035 164.428 102.871 164.11C105.689 161.497 108.577 158.969 111.527 156.521L111.537 156.527Z" fill="#FEFAE8"/>
<path d="M102.275 176.615C102.255 176.782 101.972 176.773 101.982 176.6C102.083 173.238 102.997 169.963 104.427 166.923C104.485 166.807 104.667 166.892 104.619 167.014C103.407 170.147 102.726 173.289 102.281 176.605L102.275 176.615Z" fill="#FEFAE8"/>
<path d="M676.576 83.0945C659.502 95.781 640.731 106.891 620.225 111.785C594.649 117.887 568.415 112.014 548.992 93.9679C548.71 93.701 548.689 93.3865 548.825 93.1203C547.82 93.2975 546.82 93.374 545.896 93.8836C545.269 94.2246 544.707 94.6914 544.274 95.2598C544.02 95.5817 543.854 95.9433 543.615 96.2468C565.552 114.037 595.693 120.724 622.984 112.827C639.001 108.197 653.949 99.3234 667.539 89.8264C670.619 87.6606 673.631 85.4112 676.583 83.0853L676.576 83.0945ZM542.371 96.0269C542.306 94.5583 544.036 93.1777 545.215 92.5712C546.542 91.8722 548.242 91.4376 549.54 92.3267C549.632 92.3993 549.676 92.4941 549.681 92.602C549.866 92.6135 550.073 92.6724 550.252 92.8431C553.524 95.9009 557.002 98.5839 560.632 100.924C572.208 79.7546 597.427 74.4457 619.602 73.3585C633.4 72.6779 647.242 72.5841 661.056 72.2436C673.788 71.9309 686.154 71.478 698.113 66.8862C700.576 65.4273 699.541 67.4597 699.107 67.6695C688.119 81.1876 679.603 96.5653 668.257 109.8C658.787 120.845 646.927 129.738 633.139 134.662C606.755 144.096 575.126 135.758 561.246 110.209C561.053 109.848 561.141 109.53 561.338 109.298C554.676 106.207 548.352 102.309 542.613 97.6497C542.162 97.2943 542.211 96.7214 542.476 96.3481C542.424 96.2625 542.377 96.1512 542.378 96.0177L542.371 96.0269ZM620.834 75.0311C598.212 76.2879 574.313 80.6984 562.104 101.876C562.885 102.342 563.689 102.798 564.484 103.246C569.262 101.33 573.159 99.0173 576.386 94.7741C576.487 94.6453 576.702 94.77 576.612 94.9225C574.035 98.9471 569.934 102.426 565.236 103.674C569.489 105.999 573.937 107.85 578.516 109.268C588.39 103.822 595.948 96.0726 601.146 85.9998C601.214 85.8749 601.403 85.9943 601.335 86.1192C596.631 96.2086 589.05 104.253 579.296 109.51C585.987 111.504 592.943 112.559 600.012 112.673C610.392 104.315 616.893 90.6601 621.298 78.3958C621.336 78.2912 621.425 78.2723 621.497 78.3139C621.543 78.3502 621.574 78.4048 621.558 78.4818C618.357 90.2035 611.448 105.058 601.271 112.666C608.678 112.675 616.176 111.68 623.587 109.677C623.693 109.657 623.797 109.619 623.894 109.591C629.746 102.719 633.729 95 636.586 86.4383C636.622 86.3173 636.787 86.3729 636.75 86.4774C634.56 95.0436 630.325 102.609 624.706 109.337C631.108 107.537 637.174 105.16 643.012 102.335C649.004 94.1114 652.148 85.5074 654.39 75.6841C654.4 75.6328 654.441 75.6197 654.464 75.6086C654.539 75.6081 654.611 75.6496 654.602 75.7174C653.92 85.0394 649.956 94.0571 644.51 101.607C649.442 99.1557 654.239 96.4199 658.906 93.4911C661.931 88.9548 663.509 84.2475 664.463 78.9135C664.499 78.7175 664.806 78.7812 664.804 78.9733C664.555 83.9237 662.701 88.6969 659.967 92.8067C667.129 88.2651 674.047 83.2934 680.951 78.2652C681.662 76.7966 682.116 75.35 682.131 73.6467C682.132 73.5132 682.334 73.5227 682.333 73.6563C682.359 75.0794 682.108 76.552 681.495 77.8589C684.797 75.4501 688.108 73.0485 691.43 70.6707C684.446 72.6974 677.004 73.2437 669.766 73.5325C664.652 73.7368 659.542 73.8989 654.428 74.0282C646.762 74.234 639.098 74.3812 631.441 74.5942C627.982 74.6863 624.427 74.8064 620.832 75.0146L620.834 75.0311ZM569.921 112.753C567.636 111.981 565.387 111.088 563.163 110.125C576.208 133.27 603.65 140.826 627.971 134.406C631.756 133.408 635.451 132.07 639.016 130.406C647.108 126.613 653.836 121.581 659.767 115.8C664.053 111.632 667.927 107.079 671.616 102.305C667.83 98.9916 663.775 97.8529 659.069 97.275C653.843 100.612 648.43 103.788 642.84 106.6C649.026 106.645 654.716 109.55 658.539 114.444C658.576 114.473 658.563 114.508 658.551 114.543C658.522 114.58 658.474 114.602 658.436 114.557C654.132 109.552 648.359 107.074 641.818 107.122C638.492 108.766 635.108 110.259 631.67 111.591C635.912 112.833 639.682 115.865 642.373 119.225C642.439 119.292 642.334 119.388 642.268 119.321C638.808 115.668 634.992 113.792 630.504 112.029C626.709 113.437 622.856 114.635 618.934 115.541C615.986 116.214 613.019 116.724 610.027 117.094C617.058 119.774 622.948 124.941 626.242 131.775C626.284 131.853 626.245 131.941 626.199 131.98C626.13 132.03 626.004 132.02 625.943 131.927C621.653 124.994 615.988 120.109 608.287 117.333C608.287 117.333 608.268 117.319 608.25 117.304C602.21 117.927 596.149 117.876 590.136 117.252C591.823 118.254 593.383 119.813 594.672 120.903C598.516 124.143 601.841 127.854 604.72 131.959C604.788 132.043 604.668 132.157 604.6 132.073C602.31 129.283 599.893 126.616 597.241 124.152C594.954 122.021 590.374 117.216 586.851 116.974C586.717 116.973 586.625 116.9 586.581 116.805C581.574 116.08 576.617 114.931 571.797 113.382C576.232 117.178 579.86 121.62 582.471 126.916C582.536 127.042 582.347 127.131 582.284 127.022C579 121.613 575.008 116.839 570.03 112.899C569.984 112.863 569.954 112.825 569.932 112.777L569.921 112.753ZM661.417 95.7547C660.967 96.0414 660.517 96.3282 660.077 96.6221C664.461 96.8126 668.754 99.0491 671.892 101.956C674.45 98.6175 676.947 95.1863 679.397 91.7187C684.763 84.195 690.044 76.5145 696.012 69.3615C690.516 72.6804 685.925 77.16 680.973 81.3403C681.197 81.2637 681.438 81.1852 681.677 81.0902C683.487 80.4591 685.323 79.9669 687.213 79.5932C687.327 79.5631 687.362 79.7257 687.242 79.765C685.418 80.2809 683.611 80.8699 681.839 81.5464C681.057 81.8391 680.298 82.1957 679.521 82.5378C676.944 84.6525 674.317 86.6979 671.632 88.6835C674.295 88.844 676.832 89.7701 679.062 91.3497C679.108 91.386 679.099 91.4537 679.043 91.4688C679.043 91.4688 679.008 91.4562 678.999 91.449C676.469 89.9465 673.758 89.2411 670.904 89.2283C667.803 91.4966 664.64 93.6721 661.426 95.762L661.417 95.7547Z" fill="#FEFAE8"/>
<path d="M672.947 76.8765C672.986 76.7134 673.266 76.7553 673.236 76.9257C672.746 80.2532 671.458 83.3997 669.685 86.2533C669.614 86.3617 669.444 86.2568 669.505 86.1411C671.072 83.1701 672.114 80.1278 672.94 76.8857L672.947 76.8765Z" fill="#FEFAE8"/>
<g opacity="0.38">
<path d="M788.239 418.706C770.197 420.978 751.555 421.364 734.232 416.392C712.628 410.189 695.565 394.796 688.685 373.201C688.588 372.884 688.705 372.641 688.917 372.5C688.095 372.209 687.318 371.846 686.416 371.837C685.806 371.828 685.191 371.939 684.63 372.18C684.306 372.313 684.03 372.513 683.725 372.638C692.583 395.099 712.213 412.74 735.849 418.326C749.718 421.609 764.575 421.282 778.682 419.921C781.885 419.603 785.072 419.193 788.248 418.702L788.239 418.706ZM682.891 371.952C683.46 370.831 685.328 370.53 686.46 370.574C687.742 370.611 689.19 371.002 689.783 372.209C689.821 372.302 689.814 372.391 689.772 372.473C689.905 372.56 690.035 372.691 690.096 372.893C691.248 376.544 692.71 380.003 694.429 383.27C711.941 372.373 732.947 379.015 749.912 387.522C760.471 392.812 770.816 398.558 781.243 404.107C790.853 409.224 800.249 414.081 811.082 415.687C813.529 415.636 811.904 416.714 811.493 416.688C797.633 422.136 784.833 430.007 770.826 435.093C759.135 439.338 746.57 440.975 734.235 438.849C710.63 434.788 690.585 415.293 690.985 390.441C690.993 390.091 691.192 389.89 691.437 389.801C687.775 384.701 684.704 379.142 682.39 373.262C682.203 372.808 682.481 372.402 682.834 372.235C682.832 372.15 682.844 372.047 682.9 371.948L682.891 371.952ZM750.126 389.285C732.757 380.717 713.111 373.96 695.125 384.597C695.51 385.272 695.918 385.949 696.322 386.617C700.684 387.198 704.556 387.113 708.741 385.31C708.871 385.256 708.978 385.44 708.847 385.515C705.238 387.429 700.723 388.296 696.701 387.251C698.891 390.769 701.425 394.015 704.238 396.996C713.877 397.089 722.759 394.495 730.861 389.179C730.964 389.115 731.055 389.284 730.952 389.348C723.211 394.883 714.187 397.687 704.717 397.503C708.861 401.799 713.596 405.506 718.811 408.562C730.05 406.699 740.627 399.265 749.059 391.985C749.131 391.923 749.205 391.946 749.241 392.007C749.26 392.054 749.261 392.107 749.216 392.158C741.909 399.54 730.524 407.696 719.751 409.085C725.262 412.203 731.262 414.612 737.621 416.235C737.709 416.264 737.802 416.28 737.886 416.3C745.129 413.642 751.338 409.569 757.062 404.395C757.139 404.32 757.239 404.431 757.167 404.493C751.938 409.95 745.607 413.803 738.597 416.452C744.119 417.801 749.634 418.58 755.167 418.929C763.083 415.324 769.039 410.24 774.834 403.868C774.864 403.835 774.899 403.842 774.922 403.843C774.978 403.874 775.013 403.936 774.979 403.982C770.554 410.636 763.815 415.684 756.589 419.017C761.29 419.264 766.011 419.243 770.715 419.023C774.873 416.916 778.026 414.075 780.977 410.505C781.086 410.374 781.288 410.55 781.206 410.692C778.941 414.273 775.555 417.048 771.793 418.959C779.033 418.587 786.272 417.792 793.525 416.949C794.67 416.154 795.617 415.268 796.344 414.006C796.4 413.907 796.546 413.999 796.49 414.098C795.911 415.169 795.106 416.159 794.1 416.875C797.57 416.469 801.044 416.072 804.516 415.697C798.466 414.272 792.696 411.552 787.185 408.726C783.293 406.73 779.42 404.704 775.558 402.651C769.765 399.584 763.997 396.474 758.207 393.416C755.594 392.031 752.896 390.627 750.132 389.271L750.126 389.285ZM696.375 395.979C694.998 394.444 693.699 392.834 692.448 391.183C692.436 413.895 709.692 431.049 730.496 436.487C733.733 437.334 737.046 437.891 740.399 438.149C748.017 438.726 755.14 437.805 761.984 435.993C766.926 434.691 771.723 432.928 776.475 430.925C775.048 426.867 772.508 424.316 769.248 421.908C763.954 422.197 758.59 422.287 753.248 422.033C757.834 424.665 760.849 429.218 761.64 434.468C761.655 434.505 761.631 434.526 761.607 434.546C761.57 434.561 761.525 434.558 761.515 434.508C760.414 428.975 757.158 424.704 752.267 421.991C749.101 421.819 745.954 421.508 742.835 421.056C745.471 423.762 747.004 427.603 747.596 431.235C747.617 431.313 747.498 431.34 747.477 431.262C746.436 427.09 744.383 424.09 741.783 420.892C738.366 420.346 734.994 419.619 731.694 418.645C729.216 417.909 726.793 417.041 724.409 416.06C728.518 421.009 730.733 427.33 730.314 433.802C730.313 433.878 730.246 433.927 730.196 433.937C730.124 433.945 730.034 433.884 730.027 433.789C729.746 426.826 727.581 420.809 723.014 415.507C723.014 415.507 723.006 415.488 722.998 415.47C718.24 413.396 713.749 410.812 709.535 407.821C710.37 409.276 710.877 411.092 711.378 412.445C712.878 416.472 713.795 420.631 714.214 424.897C714.229 424.988 714.092 425.023 714.076 424.932C713.544 421.892 712.864 418.892 711.925 415.943C711.118 413.395 709.727 407.894 707.206 406.234C707.107 406.177 707.069 406.084 707.075 405.995C703.653 403.351 700.445 400.413 697.507 397.235C699.215 401.925 700.049 406.756 699.768 411.796C699.764 411.917 699.585 411.904 699.584 411.796C699.412 406.39 698.445 401.158 696.395 396.133C696.376 396.087 696.37 396.046 696.373 396.001L696.375 395.979ZM771.634 421.763C771.179 421.787 770.723 421.812 770.272 421.846C773.456 423.829 775.712 427.298 776.827 430.78C780.134 429.369 783.434 427.864 786.716 426.312C793.871 422.965 801.029 419.465 808.478 416.648C802.992 416.809 797.692 418.215 792.249 419.247C792.448 419.284 792.66 419.327 792.878 419.357C794.491 419.648 796.064 420.052 797.629 420.568C797.726 420.593 797.684 420.73 797.578 420.708C796.003 420.326 794.411 420.005 792.807 419.765C792.102 419.654 791.387 419.601 790.665 419.529C787.858 420.02 785.042 420.44 782.21 420.79C784.125 422.028 785.624 423.783 786.621 425.896C786.64 425.943 786.605 425.989 786.557 425.977C786.557 425.977 786.536 425.953 786.532 425.944C785.28 423.762 783.558 422.098 781.439 420.89C778.177 421.276 774.909 421.567 771.638 421.772L771.634 421.763Z" fill="#FEFAE8"/>
<path d="M788.149 412.552C788.246 412.447 788.437 412.596 788.344 412.71C786.58 414.981 784.3 416.783 781.781 418.163C781.683 418.214 781.6 418.064 781.694 418.004C784.109 416.45 786.163 414.623 788.14 412.556L788.149 412.552Z" fill="#FEFAE8"/>
</g>
<path d="M558.957 442.101C558.91 441.274 558.817 440.407 558.818 439.545C558.82 436.43 560.381 434.27 563.475 434.094C574.367 433.483 584.518 435.672 592.87 443.247C596.195 446.26 598.086 450.109 597.9 454.754C597.666 460.481 594.485 464.258 588.837 465.228C583.571 466.132 578.498 465.521 573.945 462.433C567.773 458.25 562.725 453.087 559.944 445.998C559.752 445.504 559.57 444.999 559.442 444.484C559.254 443.711 559.115 442.923 558.949 442.103L558.957 442.101ZM589.858 461.163C590.875 460.886 592.214 460.511 593.56 460.167C595.751 459.605 596.778 458.191 597.07 455.949C597.776 450.572 595.568 446.446 591.587 443.212C583.512 436.657 574.103 434.295 563.877 434.876C561.035 435.035 559.248 437.036 559.747 439.856C560.076 441.711 561.012 443.656 562.207 445.125C564.803 448.309 567.659 451.291 570.555 454.215C575.768 459.473 582.14 461.729 589.863 461.171L589.858 461.163ZM560.885 444.881C560.793 444.945 560.701 445.01 560.609 445.074C560.777 445.564 560.895 446.072 561.112 446.54C564.229 453.239 568.948 458.505 575.284 462.284C579.275 464.659 583.642 465.221 588.157 464.506C590.938 464.065 593.492 463.053 595.339 460.275C593.99 460.692 592.954 461.1 591.881 461.324C582.563 463.258 574.943 460.213 568.644 453.306C566.071 450.486 563.472 447.688 560.885 444.881Z" fill="#FEFAE8"/>
<path d="M143.714 410.384C144.483 410.587 145.301 410.76 146.087 411.017C148.928 411.945 150.435 414.011 149.675 416.885C146.995 427.004 141.981 435.613 132.589 440.98C128.851 443.119 124.779 443.699 120.597 442.149C115.442 440.233 112.942 436.209 113.735 430.769C114.475 425.696 116.541 421.25 120.711 418.013C126.362 413.627 132.572 410.556 139.865 410.127C140.374 410.098 140.888 410.082 141.396 410.119C142.157 410.176 142.917 410.284 143.715 410.376L143.714 410.384ZM117.14 432.908C117.09 433.918 117.034 435.251 116.948 436.581C116.81 438.747 117.795 440.104 119.753 441.037C124.449 443.279 128.868 442.491 133.002 439.82C141.382 434.402 146.333 426.521 148.842 417.02C149.542 414.38 148.248 412.156 145.528 411.772C143.738 411.521 141.685 411.796 139.99 412.451C136.313 413.872 132.744 415.591 129.216 417.364C122.869 420.556 118.918 425.699 117.132 432.91L117.14 432.908ZM140.605 411.317C140.574 411.214 140.542 411.11 140.511 411.007C140.014 411.015 139.515 410.972 139.024 411.031C131.987 411.883 125.78 414.623 120.449 419.28C117.096 422.214 115.286 426.031 114.596 430.362C114.172 433.031 114.336 435.662 116.321 438.172C116.342 436.818 116.277 435.751 116.392 434.706C117.398 425.63 122.44 419.584 130.613 415.89C133.951 414.382 137.275 412.843 140.605 411.317Z" fill="#FEFAE8"/>
<defs>
<clipPath id="clip0_227_310">
<rect width="42.359" height="41.5597" fill="white" transform="translate(12.855 136) rotate(18.0177)"/>
</clipPath>
</defs>
</svg>
