<svg width="74" height="43" viewBox="0 0 74 43" fill="none" xmlns="http://www.w3.org/2000/svg">
<path d="M64.3774 5H25.2697C22.4943 5 20.2235 7.27077 20.2235 10.0462V11.9385C20.2235 12.6323 20.7912 13.2 21.4851 13.2C22.1789 13.2 22.7466 12.6323 22.7466 11.9385V10.0462C22.7466 9.79385 22.8097 9.54154 22.8728 9.28923L37.002 21.4L22.8728 33.5108C22.8097 33.2585 22.7466 33.0062 22.7466 32.7539V30.8615C22.7466 30.1677 22.1789 29.6 21.4851 29.6C20.7912 29.6 20.2235 30.1677 20.2235 30.8615V32.7539C20.2235 35.5292 22.4943 37.8 25.2697 37.8H64.3774C67.1528 37.8 69.4235 35.5292 69.4235 32.7539V10.0462C69.4235 7.27077 67.1528 5 64.3774 5ZM24.7651 7.58615C24.8912 7.52308 25.0805 7.52308 25.2697 7.52308H64.3774C64.5666 7.52308 64.7558 7.52308 64.882 7.58615L45.6435 24.0492C45.1389 24.4277 44.5081 24.4277 44.0035 24.0492L24.7651 7.58615ZM64.3774 35.2769H25.2697C25.0805 35.2769 24.8912 35.2769 24.7651 35.2139L38.9574 23.04L42.3635 26.0046C43.0574 26.6354 43.9405 26.9508 44.8235 26.9508C45.7066 26.9508 46.5897 26.6354 47.2835 26.0046L50.6897 23.04L64.882 35.2139C64.7558 35.2769 64.5666 35.2769 64.3774 35.2769ZM66.9005 32.7539C66.9005 33.0062 66.8374 33.2585 66.7743 33.5108L52.6451 21.4L66.7743 9.28923C66.8374 9.54154 66.9005 9.79385 66.9005 10.0462V32.7539ZM16.4389 18.2462C16.4389 17.5523 17.0066 16.9846 17.7005 16.9846H25.2697C25.9635 16.9846 26.5312 17.5523 26.5312 18.2462C26.5312 18.94 25.9635 19.5077 25.2697 19.5077H17.7005C17.0066 19.5077 16.4389 18.94 16.4389 18.2462ZM25.2697 25.8154H13.9158C13.222 25.8154 12.6543 25.2477 12.6543 24.5539C12.6543 23.86 13.222 23.2923 13.9158 23.2923H25.2697C25.9635 23.2923 26.5312 23.86 26.5312 24.5539C26.5312 25.2477 25.9635 25.8154 25.2697 25.8154Z" fill="white"/>
</svg>
