<svg width="50" height="50" viewBox="0 0 50 50" fill="none" xmlns="http://www.w3.org/2000/svg">
<path d="M39.1898 31.0606C38.1798 30.0089 36.9616 29.4467 35.6704 29.4467C34.3897 29.4467 33.1611 29.9985 32.1094 31.0502L28.8192 34.33C28.5485 34.1843 28.2777 34.0489 28.0174 33.9135C27.6426 33.7261 27.2886 33.5491 26.9866 33.3617C23.9046 31.4042 21.1037 28.8532 18.4173 25.5525C17.1158 23.9074 16.2412 22.5225 15.606 21.1169C16.4598 20.336 17.2512 19.5238 18.0217 18.7429C18.3132 18.4513 18.6047 18.1494 18.8963 17.8578C21.0829 15.6713 21.0829 12.8391 18.8963 10.6526L16.0537 7.81001C15.731 7.48723 15.3978 7.15404 15.0854 6.82085C14.4607 6.17529 13.8047 5.5089 13.1279 4.88417C12.1179 3.88459 10.9101 3.35356 9.63979 3.35356C8.3695 3.35356 7.14085 3.88459 6.09962 4.88417L6.0788 4.90499L2.53863 8.47639C1.20586 9.80916 0.445769 11.4335 0.279173 13.3181C0.0292788 16.3585 0.924733 19.1906 1.61194 21.044C3.29873 25.5941 5.81849 29.8111 9.57732 34.33C14.1379 39.7756 19.6251 44.0759 25.8933 47.1059C28.2881 48.2408 31.4847 49.584 35.0561 49.8131C35.2748 49.8235 35.5038 49.8339 35.7121 49.8339C38.1173 49.8339 40.1373 48.9697 41.72 47.2516C41.7304 47.2308 41.7512 47.2204 41.7616 47.1996C42.303 46.5436 42.9278 45.9501 43.5838 45.315C44.0315 44.8881 44.4896 44.4403 44.9373 43.9718C45.9682 42.8993 46.5096 41.6498 46.5096 40.3691C46.5096 39.078 45.9577 37.839 44.9061 36.7977L39.1898 31.0606ZM42.9174 42.0247C42.907 42.0351 42.907 42.0247 42.9174 42.0247C42.5113 42.462 42.0948 42.8577 41.6471 43.295C40.9703 43.9405 40.2831 44.6173 39.6375 45.3774C38.5859 46.502 37.3468 47.033 35.7225 47.033C35.5663 47.033 35.3997 47.033 35.2435 47.0226C32.1511 46.8247 29.2773 45.6169 27.122 44.5861C21.2286 41.7331 16.0537 37.6828 11.7535 32.5495C8.2029 28.2701 5.82891 24.3134 4.25666 20.0652C3.28832 17.4726 2.9343 15.4526 3.09048 13.5472C3.19461 12.3289 3.66316 11.3189 4.52737 10.4547L8.07795 6.90414C8.58815 6.42518 9.12959 6.16487 9.66062 6.16487C10.3166 6.16487 10.8476 6.56054 11.1808 6.89373L11.212 6.92497C11.8472 7.51847 12.4511 8.13279 13.0862 8.78876C13.409 9.12195 13.7422 9.45515 14.0754 9.79875L16.918 12.6413C18.0217 13.745 18.0217 14.7654 16.918 15.8691C16.616 16.1711 16.3245 16.473 16.0225 16.7645C15.1479 17.66 14.3149 18.493 13.409 19.3051C13.3882 19.326 13.3674 19.3364 13.357 19.3572C12.4615 20.2527 12.6281 21.1273 12.8155 21.7208L12.8468 21.8145C13.586 23.6054 14.6273 25.2922 16.2099 27.3018L16.2203 27.3122C19.0941 30.8523 22.1241 33.6116 25.4664 35.7253C25.8933 35.996 26.3306 36.2146 26.7471 36.4229C27.122 36.6103 27.476 36.7873 27.7779 36.9747C27.8196 36.9956 27.8612 37.0268 27.9029 37.0476C28.2569 37.2246 28.5901 37.3079 28.9337 37.3079C29.7979 37.3079 30.3394 36.7665 30.5164 36.5895L34.0774 33.0285C34.4314 32.6745 34.9936 32.2476 35.6496 32.2476C36.2952 32.2476 36.8262 32.6537 37.149 33.0077L37.1698 33.0285L42.907 38.7656C43.9794 39.8277 43.9794 40.921 42.9174 42.0247ZM26.8617 12.2352C29.5897 12.6934 32.0678 13.9845 34.0461 15.9628C36.0245 17.9411 37.3052 20.4193 37.7737 23.1473C37.8882 23.8345 38.4817 24.3134 39.1585 24.3134C39.2418 24.3134 39.3147 24.303 39.398 24.2926C40.1685 24.1677 40.6787 23.4388 40.5538 22.6683C39.9915 19.3676 38.4297 16.3585 36.0453 13.9741C33.6609 11.5897 30.6517 10.0278 27.351 9.46556C26.5805 9.34061 25.8621 9.85081 25.7267 10.6109C25.5914 11.371 26.0912 12.1103 26.8617 12.2352ZM49.4771 22.2622C48.5504 16.827 45.989 11.8812 42.0531 7.94537C38.1173 4.00954 33.1715 1.44812 27.7363 0.52143C26.9762 0.386071 26.2578 0.906683 26.1224 1.66678C25.9974 2.43729 26.5076 3.15573 27.2782 3.29109C32.1303 4.11366 36.5555 6.41477 40.0748 9.9237C43.5942 13.443 45.8849 17.8683 46.7074 22.7204C46.822 23.4076 47.4155 23.8865 48.0923 23.8865C48.1756 23.8865 48.2484 23.8761 48.3317 23.8657C49.0918 23.7512 49.6124 23.0223 49.4771 22.2622Z" fill="white"/>
</svg>
