<svg width="21" height="21" viewBox="0 0 21 21" fill="none" xmlns="http://www.w3.org/2000/svg">
<path d="M17.3838 2.77417H15.3838V1.77966C15.3838 1.5159 15.2784 1.26295 15.0909 1.07644C14.9034 0.889934 14.649 0.785156 14.3838 0.785156C14.1186 0.785156 13.8642 0.889934 13.6767 1.07644C13.4891 1.26295 13.3838 1.5159 13.3838 1.77966V2.77417H7.38379V1.77966C7.38379 1.5159 7.27843 1.26295 7.0909 1.07644C6.90336 0.889934 6.64901 0.785156 6.38379 0.785156C6.11857 0.785156 5.86422 0.889934 5.67668 1.07644C5.48915 1.26295 5.38379 1.5159 5.38379 1.77966V2.77417H3.38379C2.58814 2.77417 1.82508 3.0885 1.26247 3.64802C0.69986 4.20754 0.383789 4.96641 0.383789 5.75769V17.6918C0.383789 18.483 0.69986 19.2419 1.26247 19.8014C1.82508 20.361 2.58814 20.6753 3.38379 20.6753H17.3838C18.1794 20.6753 18.9425 20.361 19.5051 19.8014C20.0677 19.2419 20.3838 18.483 20.3838 17.6918V5.75769C20.3838 4.96641 20.0677 4.20754 19.5051 3.64802C18.9425 3.0885 18.1794 2.77417 17.3838 2.77417ZM18.3838 17.6918C18.3838 17.9555 18.2784 18.2085 18.0909 18.395C17.9034 18.5815 17.649 18.6863 17.3838 18.6863H3.38379C3.11857 18.6863 2.86422 18.5815 2.67668 18.395C2.48915 18.2085 2.38379 17.9555 2.38379 17.6918V10.7302H18.3838V17.6918ZM18.3838 8.74121H2.38379V5.75769C2.38379 5.49393 2.48915 5.24097 2.67668 5.05447C2.86422 4.86796 3.11857 4.76318 3.38379 4.76318H5.38379V5.75769C5.38379 6.02145 5.48915 6.27441 5.67668 6.46091C5.86422 6.64742 6.11857 6.7522 6.38379 6.7522C6.64901 6.7522 6.90336 6.64742 7.0909 6.46091C7.27843 6.27441 7.38379 6.02145 7.38379 5.75769V4.76318H13.3838V5.75769C13.3838 6.02145 13.4891 6.27441 13.6767 6.46091C13.8642 6.64742 14.1186 6.7522 14.3838 6.7522C14.649 6.7522 14.9034 6.64742 15.0909 6.46091C15.2784 6.27441 15.3838 6.02145 15.3838 5.75769V4.76318H17.3838C17.649 4.76318 17.9034 4.86796 18.0909 5.05447C18.2784 5.24097 18.3838 5.49393 18.3838 5.75769V8.74121Z" fill="#CE1546"/>
</svg>
