<svg width="431" height="422" viewBox="0 0 431 422" fill="none" xmlns="http://www.w3.org/2000/svg">
<g opacity="0.2">
<path d="M207.397 186.268C197.311 176.417 191.587 162.397 186.677 149.393C181.699 136.226 178.032 122.277 177.891 108.096C177.825 101.559 178.526 95.0235 180.176 88.6789C182.077 81.3957 185.318 74.5943 185.701 66.9824C185.731 66.305 186.646 65.9359 187.145 66.3592C199.138 76.2561 214.102 81.1156 226.85 89.8182C238.776 97.9687 248.735 108.96 255.793 121.587C262.391 133.403 268.583 148.882 265.234 162.653C262.088 175.582 253.298 177.587 247.724 198.36C251.372 208.281 252.923 218.698 250.41 229.758C250.333 230.086 246.766 232.046 243.341 230.113C247.068 222.145 242.556 201.382 242.372 201.371C229.295 200.705 216.798 195.47 207.397 186.268ZM188.674 149.349C192.524 159.745 197.118 170.599 203.887 179.34C204.855 180.596 205.868 181.806 206.936 182.967C216.042 192.884 228.754 198.536 242.109 199.403C240.299 195.151 238.079 191.013 235.806 187.051C235.493 186.496 235.164 185.961 234.856 185.417C225.237 181.189 215.733 179.031 205.184 178.551C205.105 178.546 205.05 178.506 205.023 178.441C204.972 178.323 205.025 178.147 205.177 178.145C215.116 177.701 225.52 180.057 234.39 184.622C231.859 180.324 229.257 176.069 226.623 171.828C218.245 167.908 210.179 166.1 200.849 165.668C200.614 165.655 200.621 165.281 200.842 165.263C209.258 164.505 218.538 166.708 226.011 170.841C222.703 165.524 219.4 160.192 216.255 154.78C208.737 151.293 199.542 146.562 191.335 148.558C191.218 148.583 191.127 148.52 191.091 148.434C191.04 148.315 191.076 148.159 191.21 148.114C195.169 146.687 199.171 147.757 203.046 148.92C207.535 150.266 211.889 152.015 215.974 154.301C215.433 153.359 214.882 152.422 214.351 151.476C211.703 146.782 209.302 141.98 207.105 137.117C204.145 136.006 201.221 134.802 198.161 133.964C194.506 132.961 190.828 132.53 187.085 131.948C186.814 131.911 186.884 131.536 187.141 131.541C193.677 131.671 200.993 133.546 206.874 136.603C205.447 133.4 204.099 130.175 202.839 126.913C196.286 123.265 189.808 121.742 182.197 121.872C182.06 121.88 181.973 121.764 181.958 121.669C181.953 121.568 182.006 121.482 182.138 121.463C189.105 120.539 196.764 122.471 202.635 126.375C200.969 122.01 199.432 117.59 198.018 113.129C195.561 112.12 193.235 110.761 190.737 109.808C187.972 108.766 185.131 108.025 182.299 107.216C182.083 107.156 182.126 106.869 182.299 106.794C182.331 106.78 182.363 106.767 182.409 106.785C185.354 107.2 188.241 108.049 191.032 109.093C193.218 109.912 195.616 110.781 197.67 112.04C196.585 108.562 195.554 105.06 194.592 101.541C194.222 100.462 193.862 99.3777 193.514 98.2891C192.013 97.4296 190.572 96.442 189.026 95.6273C187.17 94.6529 185.248 93.822 183.308 93.0112C183.042 92.8961 183.201 92.5208 183.475 92.5943C186.714 93.5213 190.318 95.006 193.144 97.1203C191.655 92.4237 190.358 87.6957 189.271 82.9534C189.22 82.9242 189.18 82.8904 189.157 82.8364C188.812 82.2061 188.586 81.6141 187.984 81.1586C187.422 80.7369 186.73 80.4606 186.044 80.4373C185.85 80.4315 185.863 80.1321 186.032 80.1102C186.986 79.954 188.128 80.3298 188.862 81.0349C188.158 77.7623 187.55 74.4741 187.056 71.1871C186.295 75.7819 184.729 80.136 183.28 84.6442C181.099 91.3586 179.893 98.2655 179.722 105.326C179.702 106.178 179.692 107.025 179.698 107.878C179.724 112.555 180.165 117.218 180.919 121.836C182.206 129.775 184.425 137.566 187.117 145.09C187.624 146.493 188.142 147.918 188.674 149.349ZM203.971 127.446C208.618 138.993 214.382 149.93 220.956 160.581C228.363 172.559 236.77 184.31 242.655 197.149C247.3 207.254 249.522 218.62 245.029 229.194C247.81 230.842 249.368 228.867 249.498 228.875C254.33 197.936 231.461 173.726 216.902 149.047C210.317 137.889 204.156 125.872 199.067 113.405C199.035 113.419 199.011 113.454 198.979 113.468C199.613 115.468 200.263 117.474 200.956 119.461C201.872 122.093 202.874 124.688 203.909 127.269C203.924 127.275 203.944 127.292 203.964 127.309C204.019 127.349 204.005 127.406 203.971 127.446ZM198.754 112.76L198.814 112.811C198.75 112.66 198.686 112.509 198.632 112.353C198.666 112.492 198.71 112.626 198.754 112.76ZM201.363 114.215C203.779 120.07 206.41 125.832 209.225 131.489C208.026 117.701 210.704 104.181 216.94 91.7698C216.994 91.657 217.174 91.7199 217.114 91.8481C210.956 104.864 208.691 119.023 210.234 133.289C210.246 133.347 210.227 133.394 210.224 133.446C211.847 136.629 213.529 139.773 215.272 142.879C217.871 147.518 220.601 152.074 223.489 156.551C224.568 158.218 225.674 159.887 226.793 161.588C225.968 142.414 229.26 123.354 236.681 105.604C236.735 105.491 236.904 105.559 236.865 105.678C229.886 124.017 226.714 143.268 227.626 162.825C230.098 166.536 232.628 170.323 235.086 174.18C234.873 157.795 236.598 141.046 241.237 125.301C241.249 125.27 241.317 125.279 241.309 125.321C237.791 141.962 235.608 158.321 235.88 175.357C235.89 175.379 235.873 175.399 235.866 175.414C239.25 180.787 242.442 186.308 245.062 191.985C244.487 174.479 247.688 157.093 254.802 141.021C254.846 140.912 254.999 140.974 254.967 141.077C248.226 157.908 245.098 175.556 245.978 193.659C245.978 193.748 245.958 193.821 245.923 193.887C246.281 194.729 246.639 195.571 246.976 196.422C248.75 185.246 257.53 177.012 261.796 166.805C267.856 152.299 261.244 135.175 254.068 122.331C246.537 108.861 235.606 97.293 222.509 89.1496C215.885 85.034 208.824 81.7201 201.972 78.0602C196.894 75.3595 191.944 72.4502 187.37 68.8675C187.336 69.2656 187.286 69.6576 187.236 70.0496C188.743 75.2107 190.183 80.3627 191.677 85.4914C191.882 82.5548 192.529 79.6698 193.605 76.8936C193.647 76.8117 193.755 76.8547 193.728 76.9427C192.785 80.2109 192.263 83.5399 192.099 86.9316C193.293 91.0271 194.546 95.1102 195.869 99.1762C196.086 92.2234 197.943 85.2273 201.292 79.1586C201.315 79.123 201.358 79.1044 201.404 79.1229C201.445 79.1305 201.475 79.169 201.445 79.22C198.433 86.3187 196.803 93.3699 196.486 101.017C197.761 104.823 199.127 108.601 200.636 112.357C200.992 106.749 201.674 101.129 202.727 95.6292C202.743 95.5459 202.873 95.5533 202.862 95.6475C202.004 101.574 201.405 107.478 201.059 113.439C201.158 113.703 201.258 113.966 201.363 114.215Z" fill="white"/>
<path d="M215.263 142.896C215.263 142.896 215.244 142.853 215.246 142.827C214.656 134.484 215.28 126.269 217.326 118.155C217.353 118.067 217.499 118.081 217.472 118.169C215.756 126.306 215.097 134.472 215.691 142.762C215.712 143.022 215.35 143.101 215.263 142.896Z" fill="white"/>
<path d="M74.1727 209.429C95.0311 205.069 116.759 202.86 137.425 207.047C163.199 212.271 184.493 228.681 194.451 253.311C194.594 253.673 194.479 253.968 194.243 254.153C195.23 254.416 196.169 254.767 197.222 254.693C197.935 254.646 198.643 254.458 199.277 254.123C199.643 253.937 199.947 253.677 200.292 253.501C187.947 228.044 163.456 209.245 135.365 204.935C118.881 202.4 101.567 204.183 85.2203 207.106C81.5096 207.78 77.8253 208.56 74.1622 209.434L74.1727 209.429ZM201.327 254.226C200.763 255.592 198.609 256.12 197.283 256.175C195.784 256.253 194.058 255.932 193.259 254.575C193.206 254.47 193.2 254.354 193.247 254.265C193.085 254.176 192.922 254.035 192.832 253.804C191.162 249.639 189.146 245.728 186.847 242.066C167.378 256.472 142.262 250.677 121.698 242.319C108.9 237.122 96.3107 231.371 83.643 225.858C71.9672 220.775 60.5645 215.975 47.775 215.116C44.9234 215.407 46.7242 213.992 47.2065 213.984C62.8992 206.3 77.1393 195.88 93.0372 188.605C106.306 182.535 120.828 179.433 135.417 180.76C163.335 183.288 188.476 204.219 190.227 233.347C190.249 233.757 190.035 234.011 189.757 234.139C194.487 239.764 198.568 245.981 201.796 252.646C202.053 253.159 201.766 253.661 201.368 253.889C201.379 253.989 201.374 254.11 201.316 254.231L201.327 254.226ZM121.291 240.276C142.332 248.668 165.869 254.725 185.916 240.578C185.406 239.824 184.87 239.07 184.339 238.326C179.195 238.058 174.682 238.522 169.958 241.027C169.811 241.102 169.669 240.897 169.816 240.797C173.858 238.216 179.051 236.775 183.84 237.619C180.969 233.708 177.722 230.147 174.171 226.924C162.911 227.723 152.773 231.597 143.79 238.583C143.675 238.668 143.554 238.479 143.669 238.394C152.211 231.185 162.495 227.052 173.567 226.375C168.346 221.737 162.487 217.844 156.126 214.759C143.172 217.998 131.489 227.698 122.296 237.014C122.217 237.094 122.128 237.073 122.081 237.005C122.055 236.953 122.049 236.89 122.096 236.826C129.968 227.497 142.525 216.866 154.982 214.235C148.27 211.104 141.051 208.85 133.483 207.549C133.378 207.524 133.268 207.514 133.168 207.499C124.95 211.293 118.066 216.646 111.845 223.242C111.761 223.337 111.635 223.217 111.714 223.137C117.331 216.256 124.378 211.149 132.324 207.388C125.758 206.329 119.25 205.937 112.76 206.05C103.841 211.016 97.3421 217.529 91.1451 225.534C91.1138 225.576 91.0718 225.571 91.0456 225.571C90.9774 225.54 90.93 225.472 90.9666 225.414C95.5378 217.209 102.954 210.664 111.092 206.081C105.582 206.236 100.073 206.706 94.6006 207.407C89.9349 210.264 86.5079 213.887 83.3816 218.345C83.2665 218.508 83.0145 218.321 83.098 218.147C85.4223 213.741 89.1272 210.174 93.3479 207.582C84.9299 208.701 76.5495 210.314 68.1588 211.984C66.8921 213.023 65.8667 214.149 65.1306 215.694C65.0731 215.816 64.8947 215.722 64.9521 215.601C65.5315 214.293 66.3836 213.057 67.4933 212.125C63.4787 212.928 59.4589 213.72 55.4391 214.486C62.6294 215.583 69.6079 218.223 76.2931 221.012C81.0158 222.982 85.7175 224.988 90.4089 227.027C97.4458 230.071 104.457 233.168 111.488 236.202C114.663 237.576 117.938 238.966 121.285 240.292L121.291 240.276ZM183.442 227.372C185.186 229.039 186.846 230.801 188.454 232.617C186.44 206.029 164.765 187.576 139.993 183.172C136.138 182.485 132.221 182.146 128.284 182.16C119.339 182.203 111.106 183.952 103.278 186.718C97.6251 188.709 92.1827 191.224 86.8142 194.017C88.842 198.633 92.0352 201.38 96.0564 203.89C102.21 203.053 108.464 202.442 114.723 202.236C109.134 199.588 105.208 194.542 103.817 188.471C103.796 188.429 103.822 188.403 103.848 188.377C103.89 188.355 103.942 188.355 103.958 188.413C105.738 194.786 109.921 199.478 115.872 202.192C119.583 202.096 123.285 202.163 126.966 202.398C123.647 199.479 121.515 195.127 120.5 190.931C120.468 190.842 120.604 190.799 120.636 190.888C122.224 195.675 124.888 198.993 128.209 202.491C132.247 202.808 136.248 203.341 140.187 204.169C143.146 204.798 146.052 205.585 148.922 206.509C143.684 201.103 140.534 193.913 140.445 186.298C140.44 186.209 140.513 186.145 140.571 186.129C140.655 186.113 140.765 186.175 140.781 186.286C141.73 194.41 144.795 201.249 150.6 207.025C150.6 207.025 150.611 207.046 150.622 207.067C156.361 209.046 161.835 211.648 167.021 214.751C165.917 213.127 165.163 211.049 164.457 209.513C162.346 204.94 160.905 200.158 160.035 195.204C160.009 195.099 160.166 195.045 160.192 195.15C161.085 198.658 162.151 202.117 163.506 205.469C164.675 208.375 166.79 214.684 169.882 216.39C170.003 216.447 170.055 216.552 170.056 216.657C174.287 219.429 178.294 222.565 182.007 226.008C179.595 220.68 178.19 215.104 178.068 209.178C178.062 209.036 178.272 209.034 178.283 209.161C178.966 215.472 180.562 221.505 183.404 227.194C183.431 227.246 183.441 227.293 183.441 227.346L183.442 227.372ZM93.2836 204.286C93.813 204.214 94.3424 204.142 94.8666 204.06C90.9722 202.038 88.0284 198.191 86.4161 194.22C82.6818 196.183 78.9634 198.256 75.2713 200.382C67.2168 204.975 59.1731 209.746 50.7294 213.747C57.1192 213.04 63.181 210.894 69.443 209.174C69.207 209.149 68.9553 209.119 68.6983 209.105C66.7895 208.916 64.9171 208.591 63.0444 208.134C62.929 208.114 62.9654 207.951 63.0913 207.966C64.9636 208.265 66.8516 208.49 68.7446 208.62C69.5783 208.684 70.4172 208.679 71.2666 208.695C74.4998 207.855 77.749 207.099 81.0245 206.421C78.6784 205.152 76.7713 203.239 75.4191 200.86C75.3928 200.807 75.4294 200.749 75.487 200.76C75.487 200.76 75.5133 200.786 75.5186 200.796C77.175 203.232 79.3335 205.017 81.9155 206.232C85.6889 205.473 89.4783 204.824 93.2784 204.275L93.2836 204.286Z" fill="white"/>
<path d="M83.464 191.047C83.3594 191.18 83.1229 191.023 83.2223 190.88C85.0788 188.054 87.5817 185.729 90.4006 183.876C90.5106 183.807 90.6212 183.974 90.5164 184.054C87.8344 186.101 85.5991 188.435 83.4745 191.042L83.464 191.047Z" fill="white"/>
<path d="M301.866 206.747C302.435 206.507 303.091 207.463 302.5 207.807C260.435 232.383 213.772 255.961 197.225 266.763C162.485 289.463 102.454 348.648 102.004 348.63C98.917 348.265 94.494 345.216 96.3323 342.74C116.725 315.232 149.139 284.378 181.776 263.862C200.751 251.939 220.678 241.63 240.96 232.135C260.54 222.986 301.632 206.747 301.866 206.747ZM246.414 236.739C264.335 228.042 282.18 219.814 298.754 208.774C260.633 224.086 222.316 242.095 187.278 263.532C152.893 284.583 115.124 317.389 98.3347 344.34C98.8551 345.488 99.8224 346.395 100.977 346.868C100.996 346.271 158.873 289.623 192.246 267.614C209.621 256.149 227.684 245.81 246.418 236.728L246.414 236.739Z" fill="white"/>
<path d="M393.67 93.6994C394.918 93.5737 396.115 93.6046 397.22 94.1973C404.645 98.1513 403.944 109.837 404.755 114.512C406.4 124.065 409.76 133.22 411.197 142.806C415.788 173.266 399.189 204.405 371.028 217.303C357.953 223.285 343.678 225.075 329.546 222.908C324.554 222.142 320.101 221.693 315.042 222.446C311.731 222.934 308.351 223.758 304.997 223.223C301.185 222.618 297.453 221.534 295.578 215.442C295.555 215.398 295.533 215.354 295.513 215.299C294.386 215.007 293.279 214.229 292.557 213.559C291.217 212.277 290.508 210.676 290.567 208.872C290.08 208.042 289.792 207.053 289.797 206.033C289.824 202.938 292.692 200.944 294.092 198.49C296.538 194.185 295.81 188.749 296.575 184.039C299.264 167.362 308.04 150.957 317.27 136.948C331.953 114.664 352.892 98.2201 380.194 96.8847C384.052 96.691 392.5 93.8127 393.67 93.6994ZM399.242 102.182C399.75 92.3316 387.312 98.0953 382.14 98.3937C376.696 98.6931 371.433 98.8522 366.103 100.222C343.184 106.121 326.388 124.295 314.774 144.032C308.522 154.655 302.694 166.037 299.591 177.992C298.053 183.887 298.678 190.264 297.06 196.023C296.523 197.899 295.596 199.258 294.46 200.847C293.799 201.76 292.792 202.675 292.31 203.681C289.113 210.374 296.774 209.575 297.01 209.415C297.666 208.981 298.383 210.055 297.787 210.533C295.892 212.069 294.624 219.551 306.916 215.477C310.086 214.428 313.212 213.475 316.49 212.78C322.249 211.57 328.03 210.6 333.715 209.084C346.351 205.709 358.69 200.604 369.189 192.693C378.389 185.766 386.059 176.487 390.41 165.798C394.785 155.068 394.18 144.499 393.563 133.237C393.281 128.138 393.14 122.947 394.172 117.902C395.292 112.467 398.96 107.695 399.242 102.182ZM401.111 100.38C401.227 101.253 401.23 102.128 401.148 102.964C400.664 107.762 397.378 111.952 396.174 116.573C395.238 120.158 395.004 123.864 395.01 127.547C395.008 134.614 396.088 141.65 395.804 148.714C394.659 176.722 371.619 197.124 346.908 206.512C333.554 211.594 319.328 213.657 305.692 217.691C304.996 217.904 304.258 218.091 303.523 218.23C301.814 218.568 300.048 218.654 298.547 218.109C302.951 225.425 316.543 220.023 323.604 220.601C332.18 221.296 340.074 222.935 348.747 221.9C364.511 220.036 379.643 212.901 390.781 201.521C398.243 193.901 403.755 184.512 407.008 174.403C409.361 167.076 410.525 159.377 410.389 151.701C410.266 145.063 408.908 138.666 407.331 132.298C406.707 129.738 406.046 127.179 405.41 124.616C404.456 120.734 403.532 116.837 402.998 112.877C402.522 109.428 403.166 103.745 401.111 100.38ZM295.633 210.756C295.507 210.766 295.38 210.776 295.265 210.789C295.076 210.803 294.898 210.821 294.708 210.836C293.488 211.106 292.391 210.761 291.548 210.042C291.922 211.033 292.477 211.958 293.219 212.683C293.749 213.182 294.357 213.594 295.027 213.89C294.8 212.748 294.994 211.676 295.633 210.756Z" fill="white"/>
<path d="M378.818 104.78C380.456 104.863 382.162 105.657 382.889 107.202C383.657 108.81 383.14 110.544 382.416 112.078C387.665 114.168 385.21 123.089 382.747 126.713C385.736 131.517 381.906 140.229 378.468 143.546C378.458 143.58 378.406 143.588 378.372 143.615C380.088 150.322 374.3 160.267 368.43 162.477C368.799 164.292 368.664 166.257 368.092 168.011C366.496 172.854 361.625 176.104 357.018 177.91C357.522 180.075 357.38 182.334 356.213 184.098C353.802 187.75 348.013 189.591 343.648 189.712C344.002 194.934 338.091 198.042 333.716 199.084C331.903 199.512 329.511 199.439 327.638 198.704C325.261 200.434 322.072 201.97 319.067 201.458C316.976 201.098 314.367 199.467 314.485 197.09C311.299 198.11 308.774 196.678 307.307 193.632C306.728 192.588 306.824 191.091 307.391 189.508C306.104 189.252 305.129 188.06 304.884 186.666C304.46 184.328 305.77 181.538 307.1 179.689C308.448 177.784 310.441 176.291 312.818 176.101C313.108 176.081 313.406 176.076 313.707 176.097C313.53 171.596 315.072 166.612 319.052 164.068C320.778 162.947 322.769 162.426 324.726 162.51C324.402 157.04 326.627 151.076 332.267 149.2C333.371 148.832 334.638 148.762 335.909 148.951C335.814 143.614 338.22 137.583 343.683 135.763C344.138 135.61 344.628 135.505 345.114 135.448C344.642 131.409 346.137 126.841 349.802 124.666C351.02 123.94 352.429 123.581 353.845 123.545C353.466 118.402 357.835 114.564 362.542 114.489C362.926 109.351 368.131 105.787 373.096 106.643C373.41 106.704 373.554 106.909 373.579 107.139C374.888 105.665 376.597 104.674 378.818 104.78ZM380.778 106.787C379.701 106.03 378.12 106.002 376.909 106.398C373.954 107.355 372.793 110.759 371.602 113.329C373.074 113.236 374.503 113.586 375.406 114.694C375.951 113.683 376.684 112.854 377.622 112.311C376.926 111.44 376.133 110.526 375.726 109.524C375.63 109.322 375.866 109.162 376.028 109.311C376.837 110.057 377.439 111.145 378.028 112.118C378.926 111.698 379.988 111.538 381.226 111.754C381.974 110.105 382.501 107.992 380.778 106.787ZM372.895 108.008C372.82 108.009 372.742 108.022 372.66 108.008C368.426 107.259 364.473 110.452 363.707 114.546C364.706 114.662 365.691 114.935 366.634 115.415C367.065 115.033 367.51 114.68 368.008 114.393L368.363 114.209C367.921 113.701 367.483 113.182 367.108 112.621C367.001 112.452 367.245 112.307 367.366 112.431C367.871 112.934 368.298 113.487 368.722 114.05C369.284 113.796 369.917 113.588 370.563 113.458C370.558 113.395 370.557 113.321 370.579 113.254C371.043 111.491 371.792 109.571 372.895 108.008ZM381.569 113.265C378.501 112.18 376.145 115.468 375.638 117.944C375.214 120.003 375.676 122.032 375.516 124.075C376.811 123.57 378.266 123.571 379.908 124.295C380.749 124.67 381.421 125.152 381.979 125.721C382.132 125.473 382.281 125.2 382.437 124.904C382.155 123.473 381.532 122.219 380.798 120.966C380.707 120.827 380.925 120.686 381.023 120.803C381.925 121.837 382.403 123.157 382.64 124.5C383.068 123.624 383.467 122.604 383.785 121.534C383.488 121.071 383.207 120.601 382.911 120.139C382.562 119.574 382.149 119.013 381.944 118.383C381.893 118.231 382.101 118.161 382.206 118.256C382.662 118.719 382.975 119.359 383.314 119.921C383.519 120.281 383.728 120.629 383.937 120.978C384.174 120.043 384.333 119.083 384.351 118.177C383.745 117.335 383.113 116.496 382.57 115.611C382.471 115.457 382.722 115.29 382.828 115.421C383.369 116.12 383.865 116.843 384.347 117.573C384.266 115.626 383.515 113.962 381.569 113.265ZM374.958 115.674C372.244 114.675 369.92 114.427 367.505 116.587C365.417 118.457 364.653 121.271 363.533 123.777C366.713 123.506 370.159 124.833 371.623 127.583C371.937 127.102 372.288 126.658 372.647 126.229C372.02 124.912 371.37 123.587 370.876 122.201C370.819 122.035 371.078 121.956 371.154 122.103C371.821 123.335 372.362 124.65 372.907 125.954C373.534 125.264 374.219 124.703 374.973 124.311C374.888 124.112 374.822 123.894 374.741 123.684C374.709 123.785 374.539 123.855 374.463 123.745C373.452 122.356 372.237 120.99 371.444 119.46C371.337 119.255 371.621 119.06 371.787 119.236C372.907 120.474 373.742 122.029 374.649 123.434C374.291 122.238 374.143 120.849 374.21 119.442C373.681 118.512 373.031 117.693 372.343 116.837C372.23 116.69 372.401 116.461 372.559 116.584C373.269 117.139 373.814 117.864 374.26 118.669C374.369 117.632 374.598 116.608 374.958 115.674ZM365.658 116.427C360.234 114.54 355.469 117.996 354.98 123.581C356.529 123.747 358.032 124.329 359.206 125.362C359.6 125.092 360.002 124.836 360.431 124.614C360.619 124.525 360.815 124.451 361 124.374C360.286 123.485 359.604 122.495 359.085 121.495C359.024 121.34 359.23 121.195 359.336 121.327C360.076 122.212 360.722 123.239 361.282 124.265C361.659 124.125 362.067 124.006 362.475 123.925C362.526 123.572 362.6 123.225 362.677 122.868C362.125 121.894 361.514 120.914 361.132 119.871C361.07 119.716 361.28 119.523 361.386 119.692C361.958 120.487 362.394 121.4 362.822 122.297C363.353 120.211 364.266 118.083 365.658 116.427ZM380.656 126.931C377.15 123.319 374.246 125.93 372.287 129.712C372.287 129.712 372.279 129.734 372.298 129.752C372.328 130.045 372.167 130.278 371.949 130.382C370.733 132.956 369.938 135.908 369.68 137.797C370.893 137.587 372.189 137.698 373.512 138.224C375.8 139.126 377.229 140.633 378.001 142.464C378.442 141.777 378.933 140.971 379.417 140.113C379.406 140.109 379.402 140.083 379.405 140.072C379.277 138.234 378.512 136.615 377.378 135.188C377.212 134.976 377.506 134.711 377.691 134.904C378.961 136.177 379.574 137.884 379.66 139.659C381.876 135.577 383.781 130.152 380.656 126.931ZM370.681 129.22C368.381 125.617 364.498 123.919 360.354 126.437C360.306 126.471 360.269 126.509 360.214 126.528C355.23 130.556 355.806 134.812 356.225 139.02C359.118 139.028 361.815 140.465 362.704 143.392C363.272 142.425 363.941 141.526 364.671 140.745C364.268 139.461 363.535 138.32 362.494 137.452C362.351 137.321 362.504 137.073 362.665 137.185C363.825 137.992 364.587 139.155 364.877 140.527C365.846 139.538 366.925 138.743 368.09 138.259C368.133 137.817 368.197 137.307 368.276 136.79C367.624 135.589 366.895 134.399 366.388 133.132C366.322 132.988 366.515 132.888 366.609 133.017C367.285 134.066 367.802 135.226 368.352 136.359C368.511 135.436 368.744 134.437 369.047 133.412C368.328 132.226 367.543 131.019 367.062 129.747C366.992 129.578 367.22 129.366 367.349 129.542C368.102 130.542 368.656 131.701 369.214 132.849C369.607 131.617 370.09 130.377 370.681 129.22ZM357.988 126.359C355.689 124.604 352.442 124.583 350.002 126.354C347.095 128.472 346.349 132.006 346.43 135.381C349.224 135.469 352.036 136.93 352.967 139.611C353.444 139.428 353.926 139.308 354.412 139.214C354.368 139.2 354.323 139.186 354.3 139.142C353.542 137.23 352.475 135.516 351.267 133.856C351.139 133.681 351.366 133.469 351.51 133.637C352.921 135.2 353.879 137.065 354.563 139.052C354.579 139.119 354.527 139.164 354.479 139.198C354.743 139.146 355.006 139.093 355.273 139.066C354.506 137.224 354.312 135.206 354.577 133.257C353.841 132.164 353.031 131.073 352.447 129.892C352.367 129.719 352.617 129.514 352.746 129.69C353.476 130.646 354.052 131.737 354.638 132.796C354.773 132.025 354.971 131.25 355.256 130.514C355.211 130.5 355.166 130.486 355.132 130.439C354.596 129.531 353.971 128.633 353.538 127.673C353.45 127.485 353.715 127.273 353.84 127.46C354.442 128.314 354.894 129.293 355.386 130.223C355.996 128.776 356.856 127.433 357.988 126.359ZM373.771 140.423C365.918 135.681 359.245 150.52 362.854 156.356C363.368 156.481 363.862 156.672 364.367 156.905C366.22 157.818 367.43 159.392 368.071 161.207C369.447 160.37 370.929 159.012 372.299 157.385C372.168 155.362 371.563 153.707 370.229 152.094C370.067 151.907 370.324 151.68 370.505 151.848C371.871 153.089 372.715 155.078 372.643 156.964C373.261 156.185 373.86 155.351 374.396 154.484C374.396 154.484 374.414 154.466 374.418 154.454C374.917 153.626 375.385 152.775 375.776 151.9C375.303 149.868 374.381 148.126 373.497 146.26C373.402 146.058 373.667 145.845 373.818 146.028C375.008 147.473 375.672 149.368 376.068 151.216C377.722 147.08 377.681 142.807 373.768 140.434L373.771 140.423ZM351.618 140.247C349.488 136.882 345.711 135.857 342.149 138.249C338.443 140.744 337.603 145.037 336.923 149.133C339.673 149.824 342.145 151.732 342.267 154.553C342.769 154.563 343.253 154.592 343.734 154.669C343.392 153.847 343.429 152.96 343.626 152.073C343.479 151.375 343.303 150.691 343.015 150.01C342.617 149.097 342.034 148.298 341.443 147.485C341.341 147.342 341.517 147.176 341.649 147.303C342.747 148.264 343.525 149.727 343.871 151.227C344.093 150.533 344.411 149.845 344.719 149.19C344.482 147.847 343.898 146.704 343.051 145.613C342.938 145.466 343.11 145.237 343.267 145.361C344.26 146.152 344.837 147.355 344.991 148.61C345.291 147.978 345.603 147.349 345.937 146.727C345.713 145.537 345.175 144.481 344.459 143.481C344.304 143.272 344.587 143.004 344.772 143.197C345.601 144.036 346.028 145.13 346.18 146.274C346.558 145.592 346.959 144.918 347.411 144.271C347.454 142.709 346.77 141.533 345.868 140.266C345.735 140.064 345.943 139.76 346.165 139.915C347.351 140.755 347.829 142.309 347.799 143.753C348.709 142.524 349.762 141.425 351.06 140.564C351.237 140.435 351.426 140.346 351.621 140.235L351.618 140.247ZM361.44 145.15C359.306 136.821 352.215 140.692 349.257 144.358C347.372 146.71 343.961 151.797 345.181 154.999C348.583 156.042 351.222 158.815 351.43 162.526C351.492 162.409 351.657 162.24 351.903 162.009C352.502 159.709 352.099 157.613 350.738 155.622C350.605 155.42 350.908 155.244 351.059 155.39C352.63 156.991 353.095 159.551 352.311 161.657C354.051 160.183 357.851 157.471 360.097 156.304C360.075 156.297 360.059 156.268 360.059 156.231C359.815 154.639 359.173 153.293 358.533 151.824C358.43 151.607 358.746 151.349 358.898 151.569C359.848 152.877 360.231 154.573 360.378 156.158C360.71 156.004 361.002 155.862 361.243 155.802C361.343 154.872 359.6 150.915 361.44 145.15ZM366.344 161.096C363.977 156.117 357.65 157.445 354.559 160.872C353.261 162.312 349.617 168.397 351.254 170.758C352.184 171.049 353.086 171.542 353.896 172.288C355.082 173.399 356.058 174.974 356.664 176.703C357.092 176.443 357.535 176.176 357.981 175.897C358.224 173.634 357.688 171.877 356.817 169.818C356.74 169.634 356.957 169.456 357.104 169.613C358.478 171.14 358.862 173.563 358.505 175.569C359.889 174.71 361.308 173.739 362.6 172.667C362.577 172.66 362.566 172.619 362.569 172.571C362.858 171.048 362.594 169.635 362.014 168.21C361.941 168.014 362.21 167.865 362.309 168.056C363.045 169.42 363.132 170.999 362.802 172.496C366.238 169.572 368.596 165.854 366.344 161.096ZM340.725 154.673C338.974 150.7 335.146 148.871 330.883 151.45C326.968 153.83 325.974 158.37 325.631 162.61C327.114 162.829 328.543 163.412 329.749 164.419C329.976 163.825 330.269 163.215 330.604 162.63C330.373 161.462 329.724 160.446 328.792 159.698C328.694 159.618 328.793 159.464 328.905 159.536C329.925 160.164 330.533 161.192 330.782 162.341C331.227 161.606 331.742 160.881 332.306 160.196C331.826 159.073 331.214 158.019 330.705 156.911C330.624 156.738 330.868 156.556 330.989 156.717C331.751 157.609 332.22 158.729 332.588 159.854C333.236 159.097 333.952 158.398 334.673 157.762C334.639 157.751 334.595 157.737 334.557 157.701C334.232 157.291 333.907 156.881 333.57 156.468C333.272 156.091 332.917 155.733 332.707 155.31C332.604 155.093 332.874 154.944 333.028 155.078C333.389 155.413 333.652 155.865 333.932 156.261C334.235 156.664 334.523 157.074 334.814 157.474C334.848 157.521 334.845 157.57 334.827 157.626C335.46 157.073 336.108 156.587 336.728 156.19C337.565 155.652 338.36 155.249 339.071 155.028C339.619 154.856 340.172 154.746 340.725 154.673ZM349.839 164.613C351.199 157.884 343.933 154.583 338.511 156.897C334.683 158.541 329.283 164.913 331.109 169.5C331.644 169.446 332.172 169.415 332.693 169.443C336.538 169.676 338.896 172.25 339.53 175.281C339.593 175.24 339.719 175.193 339.87 175.142C339.912 171.769 338.8 168.883 336.433 166.416C336.255 166.238 336.519 165.914 336.714 166.074C339.304 168.192 340.659 171.707 340.196 175.01C340.711 174.827 341.458 174.532 342.341 174.082C342.462 172.507 342.033 170.993 341.157 169.684C341.024 169.482 341.367 169.257 341.507 169.437C342.484 170.74 342.85 172.296 342.684 173.894C343.567 173.408 344.54 172.753 345.511 171.875C345.02 170.711 344.525 169.558 344.104 168.367C344.031 168.172 344.364 168.055 344.441 168.239C344.921 169.362 345.344 170.505 345.768 171.648C346.959 170.506 348.092 169.002 348.963 167.047C348.159 166.093 347.472 165.04 347.018 163.875C346.918 163.61 347.309 163.388 347.432 163.66C347.903 164.695 348.466 165.672 349.165 166.568C349.41 165.956 349.651 165.317 349.839 164.613ZM328.98 165.63C325.915 162.994 321.37 163.563 318.523 166.266C315.789 168.844 314.994 172.646 314.702 176.224C316.324 176.548 317.879 177.43 318.29 179.037C318.294 179.063 318.287 179.085 318.291 179.111C318.572 178.423 318.932 177.76 319.336 177.111C318.951 175.771 318.311 174.647 317.405 173.55C317.318 173.437 317.456 173.234 317.584 173.335C318.61 174.175 319.307 175.428 319.595 176.725C320.088 175.993 320.667 175.3 321.309 174.639C321.253 174.622 321.197 174.604 321.192 174.541C320.886 173.029 320.057 171.882 318.998 170.799C318.832 170.624 319.078 170.356 319.273 170.479C320.623 171.346 321.331 172.91 321.474 174.469C322.208 173.715 323.032 173.025 323.895 172.409C323.693 172.075 323.492 171.741 323.302 171.41C323.02 170.94 322.694 170.456 322.557 169.92C322.518 169.773 322.721 169.676 322.823 169.782C323.185 170.191 323.404 170.74 323.645 171.222C323.806 171.568 323.981 171.906 324.142 172.252C325.108 171.583 326.141 171.008 327.184 170.559C326.609 169.775 326.063 168.939 325.646 168.082C325.531 167.824 325.892 167.543 326.074 167.785C326.672 168.576 327.185 169.476 327.636 170.381C328.424 170.074 329.206 169.826 329.985 169.664C329.23 168.516 329.105 165.743 328.98 165.63ZM354.683 176.5C352.535 171.455 347.902 170.987 343.934 174.459C340.823 177.177 338.822 180.317 340.546 184.528C341.878 185.414 342.92 186.664 343.398 188.255C343.751 188.193 344.103 188.131 344.471 188.062C344.471 188.062 344.471 188.062 344.478 188.039C344.562 186.465 344.046 185.109 343.233 183.794C343.127 183.626 343.377 183.458 343.506 183.597C344.581 184.784 344.955 186.428 344.801 187.993C345.684 187.814 346.588 187.605 347.474 187.341C347.563 186.212 347.101 185.267 346.328 184.445C346.155 184.255 346.408 183.965 346.621 184.106C347.656 184.763 348.082 186.017 347.952 187.196C348.582 186.999 349.192 186.784 349.788 186.54C349.683 185.288 349.293 184.193 348.879 182.98C348.794 182.707 349.191 182.622 349.312 182.82C349.991 183.821 350.205 185.119 350.217 186.355C351.023 185.992 351.769 185.586 352.448 185.121C351.928 183.234 350.96 181.674 349.86 180.061C349.712 179.83 350.067 179.646 350.24 179.799C351.637 181.099 352.431 182.973 352.834 184.836C355.184 183.036 356.347 180.397 354.694 176.504L354.683 176.5ZM336.058 182.332C342.189 176.99 335.722 168.718 328.514 171.838C323.924 173.822 319.245 177.514 318.557 182.679C319.25 183.131 319.917 183.783 320.524 184.7C321.51 186.167 321.849 187.652 321.73 189.068C323.122 188.606 324.702 188.793 326.063 189.356C326.306 188.903 326.605 188.467 326.927 188.039C326.282 186.198 325.309 184.576 324.155 183.019C323.962 182.774 324.3 182.449 324.519 182.69C325.82 184.095 326.672 185.865 327.183 187.7C327.915 186.797 328.768 185.981 329.714 185.292C328.525 183.614 327.236 181.978 326.201 180.201C326.091 180.006 326.386 179.815 326.518 179.98C327.803 181.59 328.871 183.378 330.002 185.087C330.883 184.489 331.803 184.002 332.75 183.659C332.083 182.661 331.315 181.669 330.803 180.573C330.711 180.396 330.958 180.203 331.101 180.371C331.869 181.326 332.441 182.466 333.076 183.527C333.087 183.53 333.08 183.553 333.077 183.564C333.336 183.485 333.588 183.392 333.84 183.336C334.359 183.215 335.47 182.825 335.639 182.681C335.672 182.654 335.72 182.62 335.757 182.582C335.712 182.568 335.656 182.551 335.632 182.469C334.974 181.056 334.201 179.656 333.713 178.173C333.636 177.915 334.017 177.801 334.147 178.014C334.919 179.339 335.448 180.848 336.057 182.258C336.061 182.284 336.054 182.306 336.058 182.332ZM317.531 179.562C316.23 178.501 315.25 177.48 313.438 177.441C311.712 177.404 310.194 178.221 309.008 179.425C307.331 181.128 304.087 187.659 307.773 188.581C309.545 184.692 313.82 180.762 317.576 182.162C317.631 181.256 317.734 179.737 317.531 179.562ZM341.165 187.53C336.49 180.054 326.496 188.039 326.292 194.427C326.293 194.539 326.25 194.636 326.199 194.718C326.57 196.103 327.619 196.949 329 197.37C328.216 196.275 327.343 195.151 326.858 193.928C326.782 193.744 327.021 193.535 327.175 193.707C328.149 194.788 328.788 196.22 329.489 197.499C330.112 197.633 330.797 197.688 331.504 197.675C331.22 196.17 330.486 194.918 329.489 193.756C329.3 193.536 329.606 193.275 329.82 193.453C331.02 194.519 331.68 196.081 331.894 197.65C332.749 197.598 333.643 197.46 334.521 197.218C334.043 196.44 333.485 195.6 333.199 194.722C333.148 194.571 333.381 194.459 333.476 194.587C334.04 195.331 334.413 196.285 334.792 197.143C335.715 196.878 336.617 196.521 337.46 196.083C337.163 194.697 336.685 193.377 335.999 192.128C335.264 190.764 334.227 189.725 333.3 188.498C333.164 188.308 333.372 188.004 333.593 188.159C335.995 189.824 337.342 193.054 337.859 195.876C338.719 195.382 339.519 194.808 340.168 194.162C339.648 192.706 338.868 191.402 337.96 190.157C337.789 189.919 338.09 189.631 338.29 189.854C339.346 190.986 340.03 192.358 340.484 193.83C342.064 192.085 342.642 189.889 341.165 187.53ZM319.582 186.301C315.509 177.672 305.123 189.893 309.433 194.693C311.434 197.032 315.125 195.973 317.586 193.593C317.563 193.586 317.53 193.575 317.514 193.546C317.035 192.731 316.519 191.953 315.945 191.206C315.475 190.591 314.847 190.012 314.514 189.317C314.422 189.103 314.642 188.877 314.845 189.014C315.52 189.448 315.988 190.222 316.435 190.867C316.965 191.637 317.459 192.445 317.898 193.272C318.437 192.702 318.912 192.063 319.276 191.389C318.368 189.984 317.354 188.607 316.669 187.086C316.581 186.899 316.86 186.679 317 186.858C317.969 188.147 318.68 189.626 319.449 191.037C320.152 189.534 320.327 187.865 319.582 186.301ZM325.629 190.291C324.317 189.843 323.069 189.931 321.625 190.168C321.603 190.161 321.573 190.176 321.551 190.169C320.8 193.099 318.169 195.586 315.351 196.771C316.599 198.997 318.087 199.858 319.729 199.966C319.416 199.401 319.093 198.831 318.736 198.288C318.304 197.635 317.772 197.062 317.351 196.413C317.244 196.244 317.489 196.136 317.605 196.234C318.685 197.176 319.522 198.646 320.06 199.972C320.514 199.979 320.985 199.93 321.471 199.836C321.449 199.829 321.422 199.796 321.411 199.755C321.082 198.47 320.41 197.409 319.589 196.389C319.446 196.22 319.662 195.931 319.846 196.087C320.929 196.981 321.541 198.306 321.756 199.679C321.756 199.716 321.742 199.761 321.72 199.791C322.276 199.67 322.839 199.489 323.398 199.283C323.239 197.89 322.479 196.913 321.551 195.92C321.385 195.745 321.623 195.5 321.822 195.611C323.073 196.287 323.665 197.79 323.724 199.151C324.593 198.82 325.462 198.415 326.353 198.018C325.006 197.066 324.25 195.572 324.836 193.392C324.871 193.28 324.922 193.197 324.992 193.133C325.02 192.157 325.253 191.195 325.629 190.291Z" fill="white"/>
<path d="M399.341 114.859C399.456 114.575 399.897 114.701 399.8 115.003C394.616 131.437 404.833 150.893 394.17 165.83C394.156 165.874 394.085 165.827 394.103 165.809C404.352 149.966 392.249 131.359 399.337 114.87L399.341 114.859Z" fill="white"/>
<path d="M378.342 108.826C378.329 108.675 378.511 108.608 378.623 108.681C378.975 108.889 379.171 109.357 379.439 109.675C379.771 110.062 380.146 110.389 380.559 110.678C380.784 110.822 380.565 111.16 380.337 111.027C379.876 110.735 379.44 110.401 379.06 110.011C378.766 109.698 378.356 109.286 378.342 108.826Z" fill="white"/>
<path d="M368.98 108.831C368.873 108.662 369.142 108.475 369.263 108.637C369.71 109.244 370.109 109.887 370.511 110.518C370.625 110.701 370.333 110.843 370.216 110.671C369.791 110.07 369.356 109.466 368.98 108.831Z" fill="white"/>
<path d="M400.867 119.482C400.84 119.178 401.342 119.151 401.387 119.436C401.966 122.994 402.458 126.709 402.813 130.504C404.156 145.194 403.342 161.079 397.185 174.264C394.485 180.058 390.758 185.32 385.736 189.731C385.703 189.758 385.657 189.707 385.679 189.677C404.698 169.969 402.734 144.587 400.867 119.482Z" fill="white"/>
<path d="M368.317 110.794C368.296 110.664 368.429 110.558 368.552 110.634C368.897 110.865 369.1 111.31 369.324 111.651C369.578 112.088 369.837 112.514 370.106 112.943C370.243 113.17 369.877 113.351 369.737 113.135C369.472 112.731 369.203 112.339 368.948 111.94C368.714 111.595 368.381 111.208 368.317 110.794Z" fill="white"/>
<path d="M404.282 130.354C404.307 130.276 404.444 130.232 404.486 130.332C404.787 131.128 405.031 131.944 405.228 132.757C405.829 135.236 406.03 137.811 405.936 140.343C405.934 140.428 405.814 140.416 405.813 140.341C405.765 136.903 405.144 133.715 404.275 130.414C404.271 130.388 404.275 130.376 404.282 130.354Z" fill="white"/>
<path d="M361.948 117.189C361.898 117.037 362.105 116.93 362.17 117.073C362.628 118.03 363.013 119.024 363.427 120.004C363.488 120.158 363.256 120.27 363.191 120.127C362.776 119.147 362.333 118.183 361.948 117.189Z" fill="white"/>
<path d="M378.969 130.118C378.897 129.996 379.071 129.916 379.15 130.014C380.158 131.487 380.886 133.181 381.539 134.838C381.574 134.923 381.452 134.995 381.406 134.907C380.705 133.247 379.804 131.709 378.969 130.118Z" fill="white"/>
<path d="M363.965 134.624C363.866 134.433 364.157 134.217 364.293 134.407C365.22 135.67 365.959 137.059 366.717 138.428C366.781 138.535 366.601 138.675 366.525 138.565C365.631 137.276 364.693 136.009 363.965 134.624Z" fill="white"/>
<path d="M405.905 149.883C405.912 149.59 406.337 149.612 406.359 149.89C406.549 152.661 406.388 155.408 405.925 158.097C404.889 164.167 402.27 169.901 398.494 174.89C398.432 174.969 398.297 174.889 398.359 174.81C403.779 167.257 405.994 159.08 405.905 149.883Z" fill="white"/>
<path d="M407.467 158.331C407.574 157.995 408.115 158.041 408.112 158.435C408.07 163.744 407.179 168.972 405.585 173.967C402.232 184.472 395.748 194.006 387.471 201.351C387.42 201.397 387.359 201.316 387.407 201.282C399.794 189.793 405.922 174.96 407.453 158.413C407.46 158.39 407.468 158.368 407.478 158.334L407.467 158.331Z" fill="white"/>
<path d="M372.195 149.933C372.085 149.776 372.354 149.589 372.468 149.736C373.5 151.093 374.097 152.696 374.364 154.368C374.357 154.39 374.372 154.42 374.369 154.431C374.365 154.442 374.35 154.45 374.347 154.461C374.285 154.54 374.136 154.543 374.116 154.413C373.801 152.776 373.109 151.315 372.199 149.922L372.195 149.933Z" fill="white"/>
<path d="M365.572 151.182C365.432 150.928 365.815 150.654 365.974 150.889C367.348 152.797 368.468 154.884 369.425 157.019C369.9 158.079 370.511 159.6 369.215 160.301C369.037 160.393 368.867 160.155 369.021 160.019C370.29 158.903 368.204 155.983 367.64 154.932C366.958 153.672 366.243 152.438 365.572 151.182Z" fill="white"/>
<path d="M354.504 150.6C354.367 150.372 354.732 150.117 354.883 150.337C356.421 152.506 357.169 155.141 357.374 157.779C357.383 157.942 357.105 157.965 357.081 157.81C356.72 155.198 355.757 152.889 354.504 150.6Z" fill="white"/>
<path d="M354.055 155.525C353.982 155.329 354.203 155.14 354.372 155.304C355.469 156.424 355.341 158.33 354.569 159.59C354.442 159.796 354.075 159.632 354.173 159.404C354.776 158.054 354.556 156.852 354.055 155.525Z" fill="white"/>
<path d="M334.665 153.759C334.539 153.535 334.845 153.348 335.015 153.512C335.704 154.208 336.232 155.1 336.807 155.883C336.894 155.997 336.836 156.138 336.744 156.196C336.678 156.249 336.581 156.243 336.51 156.159C335.886 155.373 335.167 154.618 334.665 153.759Z" fill="white"/>
<path d="M363 164.929C362.919 164.719 363.188 164.496 363.358 164.697C364.614 166.125 364.883 168.45 364.717 170.282C364.701 170.486 364.395 170.477 364.4 170.269C364.44 169.334 364.343 168.404 364.089 167.5C363.828 166.58 363.35 165.802 363 164.929Z" fill="white"/>
<path d="M391.713 176.756C391.826 176.595 392.058 176.754 391.96 176.907C389.583 180.84 386.831 184.519 383.744 187.897C371.086 201.838 353.048 210.904 334.466 213.262C334.466 213.262 334.444 213.255 334.433 213.252C334.377 213.234 334.364 213.119 334.442 213.107C358.3 209.658 378.064 196.345 391.716 176.745L391.713 176.756Z" fill="white"/>
<path d="M358.997 169.613C358.883 169.466 359.051 169.211 359.22 169.338C360.617 170.404 361.117 172.506 360.498 174.134C360.448 174.291 360.172 174.266 360.196 174.077C360.46 172.362 360.011 170.99 358.997 169.613Z" fill="white"/>
<path d="M345.761 165.64C345.629 165.438 345.946 165.292 346.083 165.482C346.859 166.6 347.307 167.86 347.477 169.219C347.506 169.437 347.157 169.525 347.121 169.292C346.937 167.978 346.464 166.759 345.761 165.64Z" fill="white"/>
<path d="M397.415 182.126C397.616 181.844 398.043 182.126 397.865 182.415C390.662 194.938 379.28 205.313 366.671 212.239C360.23 215.782 353.16 218.71 345.806 219.48C338.122 220.283 330.54 218.102 322.846 218.396C322.801 218.382 322.789 218.304 322.837 218.307C329.579 217.603 336.135 219.253 342.861 219.061C350.857 218.824 358.535 215.805 365.513 212.085C378.904 204.949 388.988 194.548 397.415 182.126Z" fill="white"/>
<path d="M351.782 178.588C351.622 178.354 351.927 178.055 352.127 178.278C353.372 179.666 353.975 181.443 354.062 183.292C354.08 183.544 353.693 183.521 353.66 183.277C353.515 181.532 352.803 179.98 351.782 178.588Z" fill="white"/>
<path d="M379.397 197.185C379.397 197.185 379.49 197.165 379.475 197.21C379.461 197.254 379.383 197.23 379.397 197.185Z" fill="white"/>
<path d="M375.81 200.357C375.81 200.357 375.854 200.371 375.843 200.368C366.096 208.753 354.059 214.169 341.264 215.594C334.072 216.403 326.535 214.863 319.482 216.625C313.955 218.004 309.022 221.071 303.196 219.687C303.185 219.683 303.174 219.68 303.181 219.657C303.188 219.635 303.188 219.635 303.211 219.642C310.001 220.591 315.533 216.727 322.053 215.746C326.155 215.125 330.312 215.568 334.453 215.673C335.832 215.712 337.211 215.714 338.581 215.627C352.357 214.755 365.281 209.187 375.813 200.346L375.81 200.357Z" fill="white"/>
<path d="M310.728 180.532C310.677 180.307 310.935 180.154 311.111 180.259C311.482 180.486 311.696 180.934 311.927 181.29C312.211 181.711 312.469 182.137 312.728 182.562C312.849 182.761 312.554 182.951 312.411 182.783C312.075 182.407 311.765 182.027 311.448 181.632C311.187 181.292 310.826 180.957 310.728 180.532Z" fill="white"/>
<path d="M322.097 184.881C321.934 184.621 322.343 184.343 322.539 184.577C323.528 185.724 324.197 187.14 324.524 188.621C324.568 188.832 324.257 188.956 324.162 188.754C323.586 187.392 322.882 186.125 322.097 184.881Z" fill="white"/>
<path d="M308.837 181.295C308.753 181.097 308.985 180.948 309.139 181.083C309.475 181.421 309.726 181.869 309.983 182.258C310.275 182.694 310.582 183.122 310.874 183.559C310.98 183.727 310.696 183.921 310.575 183.76L309.652 182.486C309.368 182.102 309.033 181.726 308.837 181.295Z" fill="white"/>
<path d="M307.223 183.808C307.112 183.576 307.373 183.338 307.59 183.467C307.976 183.724 308.23 184.124 308.499 184.478L309.417 185.652C309.564 185.846 309.315 186.088 309.138 185.909C308.795 185.556 308.441 185.199 308.098 184.845C307.782 184.524 307.41 184.223 307.223 183.808Z" fill="white"/>
<path d="M313.193 192.55C313.109 192.351 313.37 192.15 313.521 192.333C314.22 193.155 314.738 194.117 315.263 195.057C315.381 195.267 315.064 195.487 314.916 195.293C314.299 194.411 313.641 193.54 313.193 192.55Z" fill="white"/>
<path d="M310.242 192.783C310.098 192.578 310.295 192.345 310.52 192.452C311.691 193.066 312.495 194.598 312.871 195.811C312.929 195.977 312.67 196.055 312.594 195.908C312.266 195.313 311.91 194.734 311.487 194.207C311.09 193.714 310.598 193.289 310.242 192.783Z" fill="white"/>
</g>
</svg>
