<svg width="44" height="46" viewBox="0 0 44 46" fill="none" xmlns="http://www.w3.org/2000/svg">
<path d="M33.0629 9.901C31.8243 9.63818 30.5744 9.64237 29.3468 9.88265C24.5474 10.8225 19.6112 10.8225 14.8118 9.88265C13.5842 9.64237 12.3343 9.63826 11.0957 9.901C4.3753 11.3268 0.537448 20.0717 2.52363 29.4331C4.5099 38.7946 11.5681 45.2276 18.2886 43.8017C18.3332 43.7922 18.3777 43.7824 18.422 43.7723C20.8294 43.2236 23.3293 43.2236 25.7367 43.7723C25.781 43.7824 25.8255 43.7922 25.8701 43.8017C32.5906 45.2276 39.6488 38.7946 41.6351 29.4331C43.6213 20.0717 39.7834 11.3268 33.0629 9.901Z" stroke="white" stroke-width="2.09" stroke-miterlimit="10" stroke-linecap="round" stroke-linejoin="round"/>
<path d="M22.0801 10.5879C22.0801 5.84493 25.925 2 30.668 2H31.2623M28.2225 16.4203C31.8107 16.4203 34.7196 19.3291 34.7196 22.9173" stroke="white" stroke-width="2.09" stroke-miterlimit="10" stroke-linecap="round" stroke-linejoin="round"/>
</svg>
