<svg width="32" height="32" viewBox="0 0 32 32" fill="none" xmlns="http://www.w3.org/2000/svg">
<path d="M14.2321 16.0001L0.366062 2.13395C-0.122125 1.64576 -0.122125 0.854265 0.366062 0.36614C0.854249 -0.121984 1.64575 -0.122047 2.13387 0.36614L16 14.2323L29.866 0.36614C30.3542 -0.122047 31.1457 -0.122047 31.6339 0.36614C32.122 0.854328 32.122 1.64583 31.6339 2.13395L17.7678 16L31.6339 29.8661C32.122 30.3543 32.122 31.1458 31.6339 31.6339C31.5179 31.7502 31.3801 31.8424 31.2284 31.9052C31.0767 31.968 30.9141 32.0002 30.7499 32C30.5857 32.0002 30.4231 31.968 30.2714 31.9052C30.1197 31.8423 29.9819 31.7502 29.866 31.6339L16 17.7679L2.13394 31.6339C1.88987 31.878 1.56994 32 1.25 32C0.930062 32 0.610187 31.878 0.366062 31.6339C-0.122125 31.1458 -0.122125 30.3543 0.366062 29.8661L14.2321 16.0001Z" fill="#E5014F"/>
</svg>
