<svg width="16" height="17" viewBox="0 0 16 17" fill="none" xmlns="http://www.w3.org/2000/svg">
<g clip-path="url(#clip0_1389_80)">
<path d="M8 0.743164C3.57841 0.743164 0 4.32116 0 8.74316C0 13.1647 3.578 16.7432 8 16.7432C12.4216 16.7432 16 13.1652 16 8.74316C16 4.32157 12.422 0.743164 8 0.743164ZM8 15.6269C4.20431 15.6269 1.11628 12.5389 1.11628 8.74316C1.11628 4.94745 4.20431 1.85945 8 1.85945C11.7957 1.85945 14.8837 4.94745 14.8837 8.74316C14.8837 12.5389 11.7957 15.6269 8 15.6269Z" fill="#e5014f"/>
<path d="M7.7638 10.8658C7.32152 10.8658 6.96348 11.2343 6.96348 11.6766C6.96348 12.1084 7.31098 12.4875 7.7638 12.4875C8.21661 12.4875 8.57461 12.1084 8.57461 11.6766C8.57461 11.2343 8.20605 10.8658 7.7638 10.8658ZM7.90067 4.72656C6.47905 4.72656 5.82617 5.56903 5.82617 6.13766C5.82617 6.54834 6.17367 6.73791 6.45798 6.73791C7.02664 6.73791 6.79498 5.92703 7.86908 5.92703C8.39558 5.92703 8.81683 6.15872 8.81683 6.64312C8.81683 7.21175 8.22711 7.53819 7.87961 7.83303C7.5742 8.09625 7.17408 8.52803 7.17408 9.43366C7.17408 9.98122 7.32152 10.1392 7.75323 10.1392C8.2692 10.1392 8.37452 9.90753 8.37452 9.70741C8.37452 9.15984 8.38505 8.84394 8.96423 8.39112C9.24855 8.17 10.1436 7.45391 10.1436 6.46406C10.1436 5.47422 9.24855 4.72656 7.90067 4.72656Z" fill="#e5014f"/>
</g>
<defs>
<clipPath id="clip0_1389_80">
<rect width="16" height="16" fill="white" transform="translate(0 0.743164)"/>
</clipPath>
</defs>
</svg>
