<svg width="159" height="31" viewBox="0 0 159 31" fill="none" xmlns="http://www.w3.org/2000/svg">
<path d="M26.7546 10.4028L19.2739 9.31558L15.9299 2.53617C15.8386 2.35055 15.6883 2.20029 15.5027 2.10896C15.0372 1.87915 14.4715 2.07066 14.2387 2.53617L10.8947 9.31558L3.41407 10.4028C3.20783 10.4322 3.01927 10.5295 2.8749 10.6768C2.70037 10.8562 2.60419 11.0975 2.6075 11.3478C2.61082 11.598 2.71335 11.8367 2.89258 12.0114L8.30491 17.2882L7.02622 24.7394C6.99623 24.9127 7.01541 25.091 7.08159 25.254C7.14776 25.417 7.25827 25.5582 7.4006 25.6615C7.54293 25.7649 7.71137 25.8263 7.88683 25.8388C8.06229 25.8513 8.23774 25.8144 8.3933 25.7323L15.0843 22.2144L21.7753 25.7323C21.958 25.8295 22.1701 25.8619 22.3734 25.8266C22.8861 25.7382 23.2308 25.2521 23.1424 24.7394L21.8637 17.2882L27.2761 12.0114C27.4234 11.8671 27.5206 11.6785 27.5501 11.4723C27.6296 10.9567 27.2702 10.4794 26.7546 10.4028V10.4028Z" fill="#E5014F"/>
<path d="M59.9401 10.4028L52.4595 9.31558L49.1154 2.53617C49.0241 2.35055 48.8739 2.20029 48.6882 2.10896C48.2227 1.87915 47.657 2.07066 47.4243 2.53617L44.0802 9.31558L36.5996 10.4028C36.3934 10.4322 36.2048 10.5295 36.0604 10.6768C35.8859 10.8562 35.7897 11.0975 35.7931 11.3478C35.7964 11.598 35.8989 11.8367 36.0781 12.0114L41.4905 17.2882L40.2118 24.7394C40.1818 24.9127 40.201 25.091 40.2671 25.254C40.3333 25.417 40.4438 25.5582 40.5861 25.6615C40.7285 25.7649 40.8969 25.8263 41.0724 25.8388C41.2478 25.8513 41.4233 25.8144 41.5788 25.7323L48.2699 22.2144L54.9609 25.7323C55.1436 25.8295 55.3557 25.8619 55.559 25.8266C56.0716 25.7382 56.4164 25.2521 56.328 24.7394L55.0493 17.2882L60.4616 12.0114C60.6089 11.8671 60.7061 11.6785 60.7356 11.4723C60.8152 10.9567 60.4557 10.4794 59.9401 10.4028V10.4028Z" fill="#E5014F"/>
<path d="M91.6198 10.4028L84.1392 9.31558L80.7951 2.53617C80.7038 2.35055 80.5535 2.20029 80.3679 2.10896C79.9024 1.87915 79.3367 2.07066 79.104 2.53617L75.7599 9.31558L68.2793 10.4028C68.0731 10.4322 67.8845 10.5295 67.7401 10.6768C67.5656 10.8562 67.4694 11.0975 67.4727 11.3478C67.4761 11.598 67.5786 11.8367 67.7578 12.0114L73.1701 17.2882L71.8915 24.7394C71.8615 24.9127 71.8806 25.091 71.9468 25.254C72.013 25.417 72.1235 25.5582 72.2658 25.6615C72.4082 25.7649 72.5766 25.8263 72.7521 25.8388C72.9275 25.8513 73.103 25.8144 73.2585 25.7323L79.9496 22.2144L86.6406 25.7323C86.8232 25.8295 87.0354 25.8619 87.2387 25.8266C87.7513 25.7382 88.096 25.2521 88.0077 24.7394L86.729 17.2882L92.1413 12.0114C92.2886 11.8671 92.3858 11.6785 92.4153 11.4723C92.4948 10.9567 92.1354 10.4794 91.6198 10.4028V10.4028Z" fill="#E5014F"/>
<path d="M124.807 10.4028L117.327 9.31558L113.983 2.53617C113.891 2.35055 113.741 2.20029 113.555 2.10896C113.09 1.87915 112.524 2.07066 112.291 2.53617L108.947 9.31558L101.467 10.4028C101.261 10.4322 101.072 10.5295 100.928 10.6768C100.753 10.8562 100.657 11.0975 100.66 11.3478C100.664 11.598 100.766 11.8367 100.945 12.0114L106.358 17.2882L105.079 24.7394C105.049 24.9127 105.068 25.091 105.134 25.254C105.2 25.417 105.311 25.5582 105.453 25.6615C105.596 25.7649 105.764 25.8263 105.94 25.8388C106.115 25.8513 106.29 25.8144 106.446 25.7323L113.137 22.2144L119.828 25.7323C120.011 25.8295 120.223 25.8619 120.426 25.8266C120.939 25.7382 121.284 25.2521 121.195 24.7394L119.916 17.2882L125.329 12.0114C125.476 11.8671 125.573 11.6785 125.603 11.4723C125.682 10.9567 125.323 10.4794 124.807 10.4028V10.4028Z" fill="#E5014F"/>
<path d="M157.258 10.2035L149.778 9.11637L146.434 2.33695C146.342 2.15133 146.192 2.00107 146.007 1.90974C145.541 1.67993 144.975 1.87144 144.743 2.33695L141.399 9.11637L133.918 10.2035C133.712 10.233 133.523 10.3302 133.379 10.4776C133.204 10.6569 133.108 10.8983 133.111 11.1485C133.115 11.3988 133.217 11.6375 133.396 11.8122L138.809 17.089L137.53 24.5402C137.5 24.7135 137.519 24.8918 137.585 25.0548C137.652 25.2178 137.762 25.3589 137.905 25.4623C138.047 25.5657 138.215 25.6271 138.391 25.6396C138.566 25.6521 138.742 25.6152 138.897 25.5331L145.588 22.0152L152.279 25.5331C152.462 25.6303 152.674 25.6627 152.877 25.6274C153.39 25.539 153.735 25.0529 153.646 24.5402L152.368 17.089L157.78 11.8122C157.927 11.6679 158.025 11.4793 158.054 11.2731C158.134 10.7575 157.774 10.2802 157.258 10.2035V10.2035Z" fill="#DCDCDC"/>
</svg>
