<svg width="50" height="46" viewBox="0 0 50 46" fill="none" xmlns="http://www.w3.org/2000/svg">
<circle opacity="0.11" cx="28.3613" cy="24.2734" r="21" fill="#CA382F"/>
<path d="M36.6906 18.3455C36.6906 13.4451 34.7824 8.83825 31.3174 5.37326C27.8524 1.90828 23.2456 0 18.3455 0C13.4451 0 8.83825 1.90828 5.37326 5.37326C1.90828 8.83825 0 13.4451 0 18.3455C0 23.2456 1.90828 27.8524 5.37326 31.3174C8.83825 34.7824 13.4451 36.6906 18.3455 36.6906C19.9764 36.6906 21.5743 36.4777 23.1089 36.0676C23.5798 36.3077 24.0857 36.487 24.6177 36.596C25.0169 36.6775 25.4177 36.7178 25.8158 36.7178C26.9624 36.7178 28.0849 36.3831 29.0637 35.7368C30.3826 34.8661 31.2832 33.5338 31.6 31.9858C31.674 31.6247 31.7126 31.2619 31.7194 30.9014C34.9291 27.4877 36.6906 23.052 36.6906 18.3455V18.3455ZM2.14975 18.3455C2.14975 9.41505 9.41505 2.14975 18.3455 2.14975C27.2756 2.14975 34.5409 9.41505 34.5409 18.3455C34.5409 22.0755 33.2724 25.5147 31.1451 28.2558C31.0277 28.0101 30.8935 27.7709 30.7409 27.5398L28.6827 24.4227C29.1037 23.7439 29.4601 23.0223 29.7433 22.2634L27.7294 21.5115C26.2752 25.4068 22.5043 28.0238 18.3455 28.0238C14.1866 28.0238 10.4157 25.4068 8.96151 21.5115L6.94762 22.2634C7.80567 24.5622 9.3226 26.5288 11.3342 27.9504C13.3804 29.3962 15.7887 30.1643 18.3009 30.1733L20.8669 34.0596C20.9244 34.1465 20.984 34.2313 21.0454 34.3145C20.1672 34.4627 19.2651 34.5406 18.3455 34.5406C9.41505 34.5409 2.14975 27.2756 2.14975 18.3455V18.3455ZM29.4937 31.5546C29.292 32.5404 28.7186 33.3884 27.8793 33.9428C26.1461 35.0871 23.805 34.6081 22.6607 32.8749L20.7238 29.9416C21.767 29.7352 22.7758 29.3929 23.7296 28.9205L25.4357 31.5045L27.2296 30.3201L25.5642 27.7978C26.1976 27.3302 26.7795 26.808 27.3047 26.2371L28.9469 28.7244C29.5013 29.564 29.6954 30.5691 29.4937 31.5546V31.5546Z" fill="#490D00"/>
<path d="M12.3175 14.1185C13.3316 14.1185 14.1569 14.9435 14.1569 15.9579H16.3066C16.3066 13.7583 14.5171 11.9688 12.3175 11.9688C10.1179 11.9688 8.32812 13.7583 8.32812 15.9576H10.4782C10.4782 14.9435 11.3032 14.1185 12.3175 14.1185Z" fill="#490D00"/>
<path d="M24.3739 14.1185C25.3883 14.1185 26.2132 14.9435 26.2132 15.9579H28.363C28.363 13.7583 26.5735 11.9688 24.3739 11.9688C22.1743 11.9688 20.3848 13.7583 20.3848 15.9576H22.5345C22.5345 14.9435 23.3598 14.1185 24.3739 14.1185Z" fill="#490D00"/>
</svg>
