<svg width="58" height="46" viewBox="0 0 58 46" fill="none" xmlns="http://www.w3.org/2000/svg">
<circle opacity="0.11" cx="35.0061" cy="22.635" r="22.635" fill="#CA382F"/>
<path d="M19.1699 10.7744C12.4287 10.7744 6.94428 16.2586 6.94428 23C6.94428 29.7415 12.4287 35.2256 19.1699 35.2256C25.9111 35.2256 31.3955 29.7412 31.3955 23C31.3955 16.2588 25.9111 10.7744 19.1699 10.7744ZM19.1699 32.7257C17.2463 32.7257 15.366 32.1553 13.7666 31.0867C12.1672 30.018 10.9206 28.499 10.1845 26.7219C9.44839 24.9448 9.25579 22.9892 9.63106 21.1026C10.0063 19.216 10.9326 17.4831 12.2928 16.1229C13.6529 14.7628 15.3859 13.8365 17.2725 13.4612C19.1591 13.0859 21.1146 13.2785 22.8917 14.0147C24.6689 14.7508 26.1878 15.9973 27.2565 17.5967C28.3252 19.1961 28.8956 21.0765 28.8956 23C28.8927 25.5785 27.8671 28.0506 26.0438 29.8739C24.2205 31.6972 21.7484 32.7228 19.1699 32.7257ZM38.1987 27.3259L36.9192 23.1681C36.8805 23.0594 36.8805 22.9408 36.9192 22.8321L38.1988 18.6743C38.3894 18.0705 38.3866 17.4222 38.1909 16.8199C37.9953 16.2177 37.6164 15.6916 37.1073 15.3151L33.628 12.7036C33.5329 12.6384 33.4631 12.5424 33.4305 12.4317L32.0219 8.31546C31.8212 7.71487 31.4379 7.19197 30.9256 6.81976C30.4132 6.44755 29.7975 6.24462 29.1642 6.2393L24.8143 6.17141C24.6991 6.17462 24.5863 6.13795 24.4949 6.06759L20.936 3.56574C20.4206 3.19779 19.8031 3 19.1698 3C18.5365 3 17.9191 3.19779 17.4036 3.56574L13.8449 6.06759C13.7535 6.13794 13.6407 6.17462 13.5253 6.17141L9.17552 6.2393C8.54229 6.24462 7.92652 6.44755 7.4142 6.81976C6.90188 7.19197 6.51858 7.71487 6.31783 8.31546L4.90921 12.4315C4.87658 12.5421 4.80684 12.6381 4.71172 12.7033L1.23256 15.3148C0.72342 15.6913 0.344557 16.2174 0.148873 16.8196C-0.0468112 17.4219 -0.0495478 18.0702 0.141045 18.674L1.4206 22.832C1.45918 22.9406 1.45918 23.0593 1.4206 23.1679L0.140967 27.3258C-0.0496259 27.9297 -0.0468893 28.578 0.148795 29.1802C0.344479 29.7824 0.723342 30.3085 1.23249 30.685L4.71172 33.2965C4.80686 33.3617 4.87661 33.4577 4.90921 33.5683L6.31783 37.6846C6.51858 38.2852 6.90188 38.8081 7.4142 39.1803C7.92652 39.5525 8.54229 39.7554 9.17552 39.7608L13.5252 39.8286C13.6405 39.8254 13.7534 39.8621 13.8448 39.9324L17.4038 42.4343C17.9192 42.8022 18.5366 43 19.1699 43C19.8031 43 20.4206 42.8022 20.936 42.4343L24.4948 39.9325C24.5862 39.8621 24.6991 39.8254 24.8144 39.8286L29.1642 39.7608C29.7975 39.7555 30.4133 39.5525 30.9256 39.1803C31.4379 38.8081 31.8212 38.2851 32.0219 37.6845L33.4305 33.5686C33.4631 33.458 33.5329 33.362 33.628 33.2968L37.1071 30.6853C37.6163 30.3088 37.9952 29.7827 38.1909 29.1804C38.3866 28.5781 38.3894 27.9298 38.1987 27.3259ZM35.6067 28.686L32.1276 31.2975C31.6308 31.663 31.2597 32.1737 31.0657 32.7592L29.657 36.8751C29.6224 36.9885 29.5519 37.0875 29.456 37.1571C29.3602 37.2268 29.2442 37.2633 29.1257 37.2612L24.7758 37.329C24.1591 37.3328 23.5588 37.5279 23.0577 37.8873L19.4984 40.3892C19.4038 40.4606 19.2884 40.4992 19.1699 40.4992C19.0513 40.4992 18.936 40.4606 18.8414 40.3892L15.2824 37.8872C14.7813 37.5277 14.181 37.3327 13.5643 37.3289L9.21451 37.2611C9.09602 37.2632 8.98007 37.2267 8.88421 37.1571C8.78835 37.0874 8.71781 36.9884 8.68328 36.875L7.27466 32.7591C7.08057 32.1736 6.70949 31.6629 6.21267 31.2974L2.73305 28.686C2.63583 28.6181 2.5634 28.5203 2.52675 28.4075C2.4901 28.2947 2.49121 28.1731 2.52993 28.061L3.80957 23.9032C3.99659 23.3155 3.99659 22.6842 3.80957 22.0965L2.52993 17.9387C2.49121 17.8267 2.4901 17.705 2.52675 17.5922C2.5634 17.4794 2.63583 17.3817 2.73305 17.3138L6.21228 14.7022C6.70902 14.3367 7.08004 13.826 7.27412 13.2406L8.68281 9.12465C8.71734 9.01129 8.78788 8.91228 8.88374 8.84261C8.9796 8.77294 9.09555 8.73642 9.21404 8.73857L13.5637 8.67069C14.1806 8.66711 14.7811 8.47204 15.2824 8.11243L18.8418 5.61089C18.9364 5.53945 19.0517 5.50081 19.1702 5.50081C19.2887 5.50081 19.404 5.53945 19.4986 5.61089L23.0572 8.11274C23.5583 8.47226 24.1587 8.66732 24.7754 8.671L29.1253 8.73889C29.2437 8.73674 29.3597 8.77327 29.4555 8.84294C29.5514 8.9126 29.6219 9.01161 29.6565 9.12496L31.0651 13.2408C31.2592 13.8263 31.6302 14.337 32.127 14.7026L35.6067 17.3141C35.7039 17.382 35.7764 17.4797 35.813 17.5925C35.8497 17.7053 35.8486 17.827 35.8098 17.9391L34.5302 22.0969C34.3431 22.6845 34.3431 23.3158 34.5302 23.9035L35.8098 28.0612C35.8485 28.1733 35.8496 28.2949 35.8129 28.4076C35.7763 28.5204 35.7039 28.6181 35.6067 28.686ZM25.9509 18.5795C26.0618 18.7005 26.1478 18.8422 26.2039 18.9964C26.2601 19.1507 26.2853 19.3145 26.2781 19.4785C26.271 19.6424 26.2316 19.8034 26.1623 19.9522C26.0929 20.101 25.9949 20.2346 25.8739 20.3455L18.0707 27.4974C17.8401 27.7086 17.5388 27.8256 17.2262 27.8255C17.2025 27.8255 17.1788 27.8249 17.1551 27.8235C16.9884 27.814 16.8253 27.7712 16.6754 27.6977C16.5255 27.6241 16.3919 27.5212 16.2824 27.3952L12.3673 22.8875C12.2592 22.7637 12.1765 22.6197 12.1241 22.4638C12.0716 22.308 12.0505 22.1433 12.0618 21.9793C12.0731 21.8152 12.1167 21.655 12.19 21.5078C12.2633 21.3606 12.365 21.2294 12.4891 21.1215C12.6133 21.0137 12.7575 20.9314 12.9135 20.8794C13.0695 20.8274 13.2342 20.8067 13.3983 20.8185C13.5623 20.8303 13.7224 20.8743 13.8693 20.9481C14.0163 21.0218 14.1473 21.1238 14.2548 21.2483L17.328 24.7872L24.1848 18.5028C24.4292 18.2788 24.7525 18.161 25.0837 18.1754C25.4149 18.1898 25.7268 18.3351 25.9509 18.5795Z" fill="#490D00"/>
</svg>
