<svg width="57" height="46" viewBox="0 0 57 46" fill="none" xmlns="http://www.w3.org/2000/svg">
<circle opacity="0.11" cx="34.0061" cy="22.635" r="22.635" fill="#CA382F"/>
<path d="M34.9795 9.37655C31.1093 5.50641 25.9637 3.375 20.4905 3.375C15.0173 3.375 9.87169 5.50641 6.00155 9.37655C2.13141 13.2467 0 18.3923 0 23.8655C0 29.3387 2.13141 34.4843 6.00147 38.3544C9.87169 42.2245 15.0173 44.356 20.4905 44.356C25.9637 44.356 31.1093 42.2245 34.9795 38.3544C38.8495 34.4843 40.981 29.3387 40.981 23.8655C40.981 18.3923 38.8495 13.2467 34.9795 9.37655ZM20.4905 41.9547C16.0611 41.9547 11.8755 40.3725 8.57679 37.4771L14.8513 31.2026H11.4555L6.87888 35.7792C3.98348 32.4804 2.40123 28.2949 2.40123 23.8655C2.40123 19.0336 4.28283 14.4911 7.69946 11.0745C11.1161 7.65783 15.6586 5.77623 20.4905 5.77623C24.9199 5.77623 29.1054 7.35848 32.4042 10.2539L25.9971 16.661H29.393L34.1021 11.9519C36.9975 15.2505 38.5797 19.4361 38.5797 23.8655C38.5797 28.6973 36.6981 33.2399 33.2815 36.6565C29.8649 40.0731 25.3223 41.9547 20.4905 41.9547Z" fill="#490D00"/>
<path d="M17.5686 28.8017L18.2897 24.7942L19.4152 28.6091H21.5399L22.61 24.7841L23.3957 28.8017H25.8424L23.9378 19.0626L21.7149 19.0708L20.4444 23.612L19.1034 19.0662H16.8807L15.1288 28.8017H17.5686ZM9.92827 28.7512C12.508 28.7512 14.3097 26.7423 14.3097 23.8658V22.6652H9.94396V25.0665H11.7113C11.4457 25.7914 10.8915 26.35 9.92827 26.35C8.55853 26.35 7.4442 25.2356 7.4442 23.8658C7.4442 22.4961 8.55853 21.3817 9.92827 21.3817C10.267 21.3817 10.5948 21.4483 10.9024 21.5796L11.8452 19.3712C11.2378 19.112 10.5929 18.9805 9.92827 18.9805C7.23449 18.9805 5.04297 21.1721 5.04297 23.8658C5.04297 26.5596 7.23449 28.7512 9.92827 28.7512ZM36.2591 23.8658C36.2591 21.1721 34.0676 18.9805 31.3738 18.9805C28.68 18.9805 26.4884 21.1721 26.4884 23.8658C26.4884 26.5596 28.68 28.7512 31.3738 28.7512C34.0676 28.7512 36.2591 26.5596 36.2591 23.8658ZM31.3738 26.35C30.0041 26.35 28.8896 25.2356 28.8896 23.8658C28.8896 22.4961 30.0041 21.3817 31.3738 21.3817C32.7435 21.3817 33.8579 22.4961 33.8579 23.8658C33.8579 25.2356 32.7435 26.35 31.3738 26.35Z" fill="#490D00"/>
</svg>
