<svg width="104" height="141" viewBox="0 0 104 141" fill="none" xmlns="http://www.w3.org/2000/svg">
<path opacity="0.3" d="M88.2602 30.4736C85.7132 53.1805 80.734 75.8745 69.7277 94.8727C55.9991 118.567 32.5966 133.166 4.7438 133.02C4.33578 133.014 4.07934 132.777 3.97224 132.465C3.38476 133.346 2.72339 134.143 2.44964 135.23C2.26024 135.964 2.21422 136.751 2.33896 137.524C2.40353 137.968 2.56198 138.379 2.62287 138.798C32.0894 136.891 58.9314 120.068 72.5147 93.6766C80.491 78.1918 84.4365 60.0986 86.925 42.5059C87.4789 38.5079 87.9193 34.4932 88.2584 30.4609L88.2602 30.4736ZM1.55829 139.537C0.382916 138.41 0.567901 136.034 0.951109 134.681C1.36947 133.146 2.25981 131.548 3.87753 131.304C3.99949 131.294 4.10445 131.337 4.19054 131.421C4.33249 131.294 4.52691 131.189 4.78673 131.194C9.49262 131.232 14.0589 130.82 18.4705 130.021C10.5401 104.574 24.621 81.7765 39.7529 64.596C49.1657 53.9017 59.0615 43.6443 68.7467 33.211C77.6748 23.5951 86.231 14.1369 91.3147 1.6668C91.9673 -1.31195 92.7831 1.07562 92.6319 1.56261C95.1069 20.4574 100.791 39.0213 102.79 57.9536C104.458 73.754 102.75 89.5903 96.6054 103.672C84.8555 130.625 55.6738 147.222 26.0475 136.997C25.6313 136.85 25.4492 136.53 25.4134 136.199C18.2411 138.628 10.692 140.163 2.97944 140.657C2.38182 140.704 1.97687 140.21 1.88053 139.717C1.77742 139.687 1.65843 139.632 1.55645 139.524L1.55829 139.537ZM41.9252 65.0275C26.6018 82.6726 12.781 103.781 20.2619 129.7C21.1826 129.499 22.1118 129.271 23.0287 129.045C24.9969 123.998 26.0262 119.282 25.0892 113.514C25.0633 113.337 25.3139 113.278 25.366 113.467C26.6029 118.581 26.3232 124.381 23.8988 128.835C28.7477 127.565 33.3727 125.774 37.7605 123.54C40.6856 111.921 40.1732 100.163 36.1763 88.283C36.1298 88.1326 36.3579 88.0889 36.4044 88.2393C40.7698 99.7694 41.4917 111.78 38.5072 123.16C44.8581 119.833 50.6768 115.56 55.8558 110.452C56.9077 96.1307 51.0968 80.4269 44.8451 67.3771C44.7919 67.2657 44.8418 67.1847 44.9253 67.1653C44.9863 67.1605 45.051 67.181 45.0986 67.2543C51.8001 78.9848 58.2383 95.9484 56.7567 109.52C62.097 104.078 66.7312 97.7673 70.5296 90.7139C70.5899 90.6192 70.6361 90.5129 70.6842 90.4192C69.6173 80.6181 66.5545 71.5141 62.0337 62.564C61.9664 62.4409 62.128 62.3639 62.1812 62.4753C67.1863 70.9378 69.9497 80.104 71.0735 89.6181C74.3003 83.4701 76.842 77.1067 78.8748 70.5524C76.8709 59.5673 72.5242 50.3723 66.5902 40.8663C66.5585 40.8175 66.5773 40.7775 66.5858 40.7511C66.6394 40.6955 66.723 40.6761 66.7688 40.7367C73.4401 48.6951 77.5153 58.8231 79.3948 68.868C81.0622 63.2798 82.4148 57.5625 83.5245 51.7874C82.2172 45.9338 79.737 41.0075 76.3255 36.0394C76.2002 35.8567 76.4708 35.6812 76.6167 35.8366C80.2414 39.9791 82.5737 45.161 83.7632 50.459C85.4303 41.5586 86.5922 32.4927 87.6998 23.3927C87.083 21.6954 86.2987 20.204 85.0011 18.8303C84.8991 18.7228 85.0514 18.5824 85.1534 18.6899C86.2659 19.8086 87.2165 21.1713 87.7794 22.6674C88.306 18.3121 88.8448 13.9558 89.4098 9.61031C85.9385 16.3682 80.9995 22.2793 76.0088 27.8351C72.4835 31.76 68.9283 35.6488 65.3451 39.5141C59.9832 45.3174 54.5775 51.0729 49.2279 56.8753C46.8079 59.4932 44.34 62.2047 41.9111 65.0158L41.9252 65.0275ZM34.2488 132.651C32.01 133.713 29.7039 134.653 27.3624 135.519C54.5409 144.436 80.1072 130.294 92.687 107.269C94.6459 103.686 96.2789 99.8978 97.5671 95.9444C100.48 86.9583 101.458 77.984 101.287 68.9979C101.17 62.511 100.461 56.0195 99.45 49.4878C94.1772 49.6224 90.3825 51.6943 86.55 54.6935C85.3502 61.2075 83.8925 67.7291 82.0291 74.0902C86.5173 69.5756 92.8468 67.7141 99.3604 68.8165C99.4092 68.8126 99.427 68.8497 99.4447 68.8869C99.4521 68.9376 99.4351 68.9903 99.3722 68.9825C92.4283 68.1452 86.367 70.4091 81.6932 75.2594C80.5621 79.0206 79.2718 82.7046 77.8203 86.2985C81.829 84.1713 86.8735 83.8236 91.393 84.5317C91.4924 84.5367 91.4901 84.6909 91.3907 84.6859C86.0928 84.309 81.9033 85.6161 77.3174 87.5066C75.6663 91.4245 73.8119 95.2172 71.6841 98.8262C70.0791 101.534 68.3337 104.124 66.4638 106.621C73.586 103.593 81.7978 103.393 89.4201 106.436C89.511 106.467 89.5502 106.567 89.5472 106.631C89.5357 106.722 89.437 106.807 89.3217 106.777C80.9061 104.388 73.0731 104.648 65.3946 108.092C65.3946 108.092 65.3702 108.094 65.3458 108.096C61.4747 113.037 57.0712 117.455 52.2627 121.379C54.2468 120.939 56.5681 121.038 58.3336 120.963C63.5917 120.727 68.8367 121.249 74.0642 122.414C74.1776 122.431 74.1791 122.611 74.0656 122.594C70.2727 122.047 66.4831 121.692 62.6805 121.672C59.3956 121.649 52.4058 121.175 49.6825 123.573C49.5857 123.67 49.4637 123.68 49.3588 123.637C45.1958 126.739 40.7439 129.466 36.0829 131.774C42.1936 131.547 48.2191 132.431 54.1688 134.747C54.3122 134.799 54.2442 135.01 54.1148 134.969C47.5947 133.058 41.0515 132.177 34.4391 132.687C34.3781 132.692 34.3275 132.683 34.275 132.661L34.2488 132.651ZM87.0722 51.7507C86.9685 52.3109 86.8649 52.8712 86.7735 53.4305C90.0772 50.3576 94.8869 48.9886 99.3799 49.0055C98.6566 44.4538 97.818 39.8726 96.9184 35.2963C95.0012 25.3314 92.9021 15.3039 91.7037 5.19223C90.2962 11.8896 90.4321 18.85 90.0782 25.8364C90.181 25.61 90.2942 25.37 90.3933 25.1182C91.212 23.2817 92.1552 21.5382 93.2296 19.8484C93.288 19.7411 93.4388 19.8447 93.3822 19.9647C92.4652 21.719 91.6166 23.5193 90.8607 25.3636C90.522 26.1736 90.2498 27.0168 89.9532 27.8619C89.7221 31.4492 89.4019 35.0179 88.9945 38.5806C91.0354 36.7502 93.5736 35.6251 96.3933 35.248C96.4542 35.2432 96.5001 35.3038 96.4708 35.3574C96.4708 35.3574 96.4361 35.373 96.4239 35.374C93.4479 36.033 90.954 37.4628 88.889 39.5519C88.3987 43.6475 87.7931 47.7138 87.0844 51.7497L87.0722 51.7507Z" fill="white"/>
</svg>
