<?xml version="1.0" encoding="utf-8"?>
<!-- Generator: Adobe Illustrator 25.4.0, SVG Export Plug-In . SVG Version: 6.00 Build 0)  -->
<svg version="1.1" id="Ebene_1" xmlns="http://www.w3.org/2000/svg" xmlns:xlink="http://www.w3.org/1999/xlink" x="0px" y="0px"
	 viewBox="0 0 500 500" style="enable-background:new 0 0 500 500;" xml:space="preserve">
<style type="text/css">
	.st0{fill:#76CABF;}
</style>
<g>
	<path class="st0" d="M497,249.6c1.6,138.5-115.5,242.3-240.2,244.4C117.3,496.4,5.2,387.1,3.9,252.8C2.6,121,111.8,4.6,253.1,5.4
		C391.7,6,498.8,120.3,497,249.6z M249,468.8c123.4,0.9,221.6-94.9,222.4-217.1c0.9-117.9-96.2-215.3-214.6-217.2
		C130.7,32.4,34.4,136,32.3,248.5C30,376,137.5,470.4,249,468.8z"/>
	<path class="st0" d="M410.2,246.6c0-7.4-0.1-14.9,0-22.3c0.1-7.8,4-12.9,11.5-14.9c9.4-2.5,15.6,3.7,14.1,13.4
		c-1.6,10.9-3.6,21.8-3.8,32.7c-1.4,93.6-80.1,171.8-173.6,175.4c-75.6,2.9-145.8-42.4-174.2-112.9c-2.6-6.6-7.1-12.8-11.9-18.1
		c-4.5-5-6-9.3-1.9-14.7c4.7-6.3,14.5-8.1,19.6-2.6c4,4.3,6.7,10.3,8.6,16c21.6,64.8,66.8,101.7,133.7,110.9
		C331.3,423,415.8,341.6,410.2,246.6z"/>
	<path class="st0" d="M328.9,145c0.1,21.9-16.4,38.6-38.7,39c-19.9,0.3-38.2-17.8-38.3-37.8c-0.1-21.6,17.5-39,39.1-38.8
		C312.4,107.6,328.7,123.9,328.9,145z"/>
	<path class="st0" d="M173.6,132c21.4-0.2,38.2,15.6,38.7,36.6c0.5,21.6-16.4,38.8-38.4,39.1c-21.4,0.3-38-15.4-38.7-36.6
		C134.5,149.7,151.7,132.2,173.6,132z"/>
	<path class="st0" d="M497,249.6c1.6,138.5-115.5,242.3-240.2,244.4C117.3,496.4,5.2,387.1,3.9,252.8C2.6,121,111.8,4.6,253.1,5.4
		C391.7,6,498.8,120.3,497,249.6z M249,468.8c123.4,0.9,221.6-94.9,222.4-217.1c0.9-117.9-96.2-215.3-214.6-217.2
		C130.7,32.4,34.4,136,32.3,248.5C30,376,137.5,470.4,249,468.8z"/>
	<path class="st0" d="M410.2,246.6c0-7.4-0.1-14.9,0-22.3c0.1-7.8,4-12.9,11.5-14.9c9.4-2.5,15.6,3.7,14.1,13.4
		c-1.6,10.9-3.6,21.8-3.8,32.7c-1.4,93.6-80.1,171.8-173.6,175.4c-75.6,2.9-145.8-42.4-174.2-112.9c-2.6-6.6-7.1-12.8-11.9-18.1
		c-4.5-5-6-9.3-1.9-14.7c4.7-6.3,14.5-8.1,19.6-2.6c4,4.3,6.7,10.3,8.6,16c21.6,64.8,66.8,101.7,133.7,110.9
		C331.3,423,415.8,341.6,410.2,246.6z"/>
	<path class="st0" d="M328.9,145c0.1,21.9-16.4,38.6-38.7,39c-19.9,0.3-38.2-17.8-38.3-37.8c-0.1-21.6,17.5-39,39.1-38.8
		C312.4,107.6,328.7,123.9,328.9,145z"/>
	<path class="st0" d="M173.6,132c21.4-0.2,38.2,15.6,38.7,36.6c0.5,21.6-16.4,38.8-38.4,39.1c-21.4,0.3-38-15.4-38.7-36.6
		C134.5,149.7,151.7,132.2,173.6,132z"/>
</g>
</svg>
