<?xml version="1.0" encoding="utf-8"?>
<!-- Generator: Adobe Illustrator 24.2.1, SVG Export Plug-In . SVG Version: 6.00 Build 0)  -->
<svg version="1.1" id="Ebene_1" xmlns="http://www.w3.org/2000/svg" xmlns:xlink="http://www.w3.org/1999/xlink" x="0px" y="0px"
	 viewBox="0 0 500 500" style="enable-background:new #535353;" xml:space="preserve" fill="#FC6261">
<g>
	<path d="M496.98,249.69C498.57,388.18,381.49,492,256.77,494.1C117.29,496.45,5.14,387.19,3.85,252.93
		C2.58,121.1,111.8,4.69,253.13,5.41C391.72,6.1,498.82,120.36,496.98,249.69z M249.01,468.82
		c123.39,0.9,221.59-94.92,222.45-217.05c0.83-117.89-96.25-215.33-214.64-217.26C130.74,32.45,34.4,136.02,32.33,248.53
		C29.99,376.04,137.52,470.43,249.01,468.82z"/>
	<path d="M410.24,246.69c0-7.44-0.07-14.87,0.02-22.31c0.1-7.78,3.96-12.94,11.47-14.94c9.41-2.51,15.6,3.74,14.15,13.38
		c-1.64,10.86-3.62,21.79-3.78,32.71c-1.36,93.61-80.08,171.8-173.57,175.39c-75.6,2.9-145.77-42.42-174.24-112.94
		c-2.65-6.58-7.08-12.75-11.86-18.06c-4.45-4.95-5.99-9.29-1.94-14.68c4.7-6.26,14.52-8.09,19.65-2.58c4,4.29,6.69,10.27,8.59,15.96
		c21.57,64.78,66.82,101.68,133.69,110.86C331.33,423.06,415.83,341.64,410.24,246.69z"/>
	<path d="M328.85,145.07c0.12,21.95-16.43,38.62-38.72,39c-19.87,0.34-38.2-17.77-38.29-37.83c-0.09-21.58,17.51-39.02,39.13-38.79
		C312.39,107.69,328.73,123.92,328.85,145.07z"/>
	<path d="M173.6,132.05c21.44-0.24,38.22,15.62,38.71,36.58c0.5,21.62-16.35,38.8-38.37,39.1c-21.37,0.3-38.04-15.45-38.73-36.59
		C134.5,149.78,151.67,132.3,173.6,132.05z"/>
	<path d="M496.98,249.69C498.57,388.18,381.49,492,256.77,494.1C117.29,496.45,5.14,387.19,3.85,252.93
		C2.58,121.1,111.8,4.69,253.13,5.41C391.72,6.1,498.82,120.36,496.98,249.69z M249.01,468.82
		c123.39,0.9,221.59-94.92,222.45-217.05c0.83-117.89-96.25-215.33-214.64-217.26C130.74,32.45,34.4,136.02,32.33,248.53
		C29.99,376.04,137.52,470.43,249.01,468.82z"/>
	<path d="M410.24,246.69c0-7.44-0.07-14.87,0.02-22.31c0.1-7.78,3.96-12.94,11.47-14.94c9.41-2.51,15.6,3.74,14.15,13.38
		c-1.64,10.86-3.62,21.79-3.78,32.71c-1.36,93.61-80.08,171.8-173.57,175.39c-75.6,2.9-145.77-42.42-174.24-112.94
		c-2.65-6.58-7.08-12.75-11.86-18.06c-4.45-4.95-5.99-9.29-1.94-14.68c4.7-6.26,14.52-8.09,19.65-2.58c4,4.29,6.69,10.27,8.59,15.96
		c21.57,64.78,66.82,101.68,133.69,110.86C331.33,423.06,415.83,341.64,410.24,246.69z"/>
	<path d="M328.85,145.07c0.12,21.95-16.43,38.62-38.72,39c-19.87,0.34-38.2-17.77-38.29-37.83c-0.09-21.58,17.51-39.02,39.13-38.79
		C312.39,107.69,328.73,123.92,328.85,145.07z"/>
	<path d="M173.6,132.05c21.44-0.24,38.22,15.62,38.71,36.58c0.5,21.62-16.35,38.8-38.37,39.1c-21.37,0.3-38.04-15.45-38.73-36.59
		C134.5,149.78,151.67,132.3,173.6,132.05z"/>
</g>
</svg>
