<svg width="239" height="232" viewBox="0 0 239 232" fill="none" xmlns="http://www.w3.org/2000/svg">
<g clip-path="url(#clip0_931_5861)">
<path d="M45.8676 86.4438C45.0848 82.1496 44.2797 79.1079 44.0114 76.0214C42.6025 60.4548 53.4265 43.7252 68.7008 38.6929C73.6432 37.0602 76.3268 34.5329 76.8412 29.5006C76.8859 28.9638 77.1095 28.4271 77.2884 27.8903C81.6941 14.9405 87.4639 2.6617 102.783 0.604053C119.399 -1.63252 134.316 2.46041 144.513 17.1994C153.727 30.5294 151.267 51.7993 139.057 63.2953C135.702 66.4488 131.587 68.8196 127.987 71.7272C127.003 72.5323 126.555 74.0085 126.466 75.6412C140.041 64.2346 153.906 53.1412 171.998 64.1004C189.33 74.59 196.621 90.4697 190.158 111.941C192.841 111.292 194.675 110.822 196.509 110.42C204.314 108.765 212.052 106.64 219.924 105.745C224.173 105.253 228.78 106.439 233.006 107.669C238.016 109.145 240.342 112.903 238.262 118.091C236.204 123.213 234.482 128.782 231.128 132.987C219.991 146.876 209.614 161.682 193.244 170.315C190.158 171.948 187.116 173.648 183.471 175.638C184.902 176.421 185.618 177.003 186.423 177.249C205.164 182.684 218.783 195.119 230.434 209.992C233.208 213.548 234.84 218.089 236.54 222.361C237.904 225.738 236.45 228.064 232.738 228.936C210.486 234.214 188.659 232.917 167.705 223.68C153.973 217.619 144.67 206.391 136.619 194.045C135.031 191.608 133.108 189.192 130.805 187.47C126.041 183.936 121.3 183.31 115.396 186.486C106.115 191.473 98.7799 198.138 92.5404 206.481C88.0901 212.43 83.1253 218.022 78.1383 223.524C77.0872 224.687 74.9179 224.843 73.263 225.469C73.0841 223.345 71.9883 220.571 72.9052 219.185C76.5281 213.794 80.8219 208.852 84.825 203.707C95.2241 190.378 89.4095 173.111 72.771 169.756C57.4072 166.647 43.743 160.296 31.5548 150.902C25.7627 146.429 19.9481 141.128 16.3476 134.933C10.287 124.555 4.87504 113.484 1.31923 102.055C-0.939496 94.7863 0.33523 86.3096 0.737775 78.4145C0.961411 74.165 4.67377 72.9349 8.5874 73.002C20.4625 73.2033 31.197 76.9607 41.037 83.4915C42.2446 84.2967 43.5194 85.0348 45.8899 86.4886L45.8676 86.4438ZM62.5508 105.723C63.7137 106.238 64.9437 106.685 66.0619 107.289C82.0743 115.922 104.17 108.004 111.013 91.1854C117.051 76.3121 112.042 56.183 99.5626 46.0065C93.0101 40.6611 85.6301 37.3286 76.8859 38.7824C57.3848 42.0031 35.4461 64.6372 51.9952 91.8563C55.0366 96.8663 59.1515 101.25 62.7744 105.924C60.1132 104.426 57.4743 102.905 54.6788 101.339C53.8514 106.931 55.2603 112.343 58.7937 117.868C70.4675 136.006 99.2719 139.965 115.441 125.204C119.69 121.334 122.664 116.369 120.853 109.413C118.661 101.004 117.051 92.1695 122.709 84.0954C123.201 83.3797 123.581 82.2167 123.357 81.4563C122.709 79.242 122.195 75.7977 120.741 75.2609C117.23 73.9414 116.402 76.8265 115.866 79.9578C114.032 90.5144 109.939 99.8409 100.972 106.528C89.9686 114.714 72.1448 115.832 62.5284 105.745L62.5508 105.723ZM88.4703 170.315C89.0964 170.136 89.7226 169.958 90.3488 169.779C90.1923 166.871 90.0357 163.964 89.9015 161.056C89.3648 147.547 85.3841 137.125 71.0714 131.421C58.5477 126.434 51.7492 115.542 51.369 101.451C51.3243 99.8185 51.1901 98.0293 50.4745 96.6202C44.8612 85.7729 21.6925 73.7848 9.50431 75.1044C5.59068 75.5293 2.95177 77.3186 2.92941 81.255C2.88468 88.2555 2.03486 95.6361 3.93577 102.145C6.66413 111.516 11.4499 120.306 15.5425 129.252C20.1941 139.406 28.2674 146.317 37.2128 152.691C51.615 162.957 68.3206 166.67 84.9592 170.942C83.9304 163.136 78.5408 158.887 72.2343 155.845C66.129 152.892 59.6212 150.701 53.2923 148.173C53.4265 147.771 53.5606 147.368 53.6948 146.966C61.5668 149.672 69.4165 152.378 77.8923 155.286C75.7901 152.266 73.9786 149.649 71.4515 146.004C74.001 147.502 75.3428 148.285 77.199 149.381C76.9306 146.563 76.707 144.371 76.4163 141.396C80.6653 151.595 84.5566 160.967 88.4703 170.338V170.315ZM154.286 133.233C177.858 133.121 195.525 108.228 188.547 88.3673C184.03 75.5517 176.203 65.2858 162.36 62.6467C148.427 60.0075 138.274 67.9697 129.664 77.9672C119.802 89.4185 117.945 102.502 125.795 115.094C132.571 125.964 143.462 132.316 154.286 133.233ZM190.448 151.036C177.723 155.845 164.439 159.267 153.593 168.37C161.331 166.849 169.046 165.35 176.784 163.829C176.851 164.21 176.918 164.612 177.008 164.992C164.015 168.235 151.021 171.456 138.006 174.699C138.117 175.214 138.229 175.706 138.341 176.22C147.756 176.22 157.171 176.6 166.542 176.131C179.199 175.504 190.269 170.36 200.221 162.689C213.036 152.781 222.898 140.166 232.201 127.105C234.08 124.466 234.974 121.021 235.846 117.823C237.278 112.567 235.846 109.346 230.412 109.123C221.623 108.742 212.655 109.056 203.978 110.487C194.876 111.986 187.049 116.347 180.989 124.063C177.925 127.955 173.161 131.242 168.465 132.942C162.203 135.224 157.149 138.69 153.213 143.678C146.996 151.551 141.271 159.781 135.411 167.945C134.785 168.795 134.785 170.092 134.226 172.194C146.258 167.609 150.149 155.822 159.698 150.007C155.718 155.219 151.759 160.407 147.108 166.491C163.791 162.018 174.391 151.64 183.001 138.601C183.381 138.981 183.762 139.384 184.119 139.764C181.525 143.298 178.909 146.831 176.315 150.365C189.576 147.234 197.582 137.706 206.751 127.351C205.544 130.549 204.895 132.227 203.688 135.447C209.055 131.869 212.991 129.252 216.927 126.635C212.946 130.661 211.09 136.073 204.493 138.288C196.755 140.86 190.023 146.451 182.845 150.723C183.046 151.126 183.247 151.551 183.449 151.953C185.774 151.662 188.123 151.372 190.448 151.081V151.036ZM109.828 1.90127C100.703 1.49868 93.1666 4.85355 88.0901 12.1895C84.5566 17.2889 81.9848 23.1487 79.6366 28.9415C77.3108 34.6447 78.1383 35.517 84.1764 36.7024C96.4317 39.0955 105.668 45.5592 111.035 57.0105C112.847 60.8574 114.479 64.8161 115.843 68.8643C117.096 72.5547 119.019 73.3822 122.575 71.7942C130.201 68.3947 136.709 63.6531 141.517 56.7421C155.852 36.1432 145.274 8.74519 120.853 3.39977C117.252 2.61697 113.518 2.39331 109.828 1.90127ZM139.392 189.013C138.878 189.572 138.363 190.131 137.871 190.691C145.699 203.998 155.248 215.696 169.874 222.07C187.944 229.92 206.863 231.575 226.185 228.399C235.846 226.811 237.233 224.172 231.553 215.919C220.527 199.861 207.042 186.374 187.854 180.291C183.493 178.904 178.73 178.054 174.19 178.211C162.852 178.591 151.558 179.664 140.242 180.514C138.878 180.626 137.536 181.006 136.194 181.275C146.839 187.716 158.938 184.63 170.03 187.828H144.916C159.363 197.579 175.509 198.653 191.365 201.203H177.835C177.768 201.784 177.679 202.366 177.612 202.925C188.167 205.117 198.745 207.308 210.754 209.813C208.183 210.596 207.109 210.932 205.365 211.468C210.106 213.571 214.154 215.382 218.202 217.194C218.045 217.552 217.888 217.91 217.732 218.245C214.802 217.351 211.873 216.456 208.876 215.539C208.764 216.657 208.697 217.44 208.585 218.737C201.205 213.302 193.646 209.209 185.081 207.51L183.605 209.5C185.528 210.529 187.474 211.536 189.397 212.564C189.017 213.034 188.637 213.504 188.257 213.973C177.5 203.081 163.634 198.474 148.472 192.927C152.877 197.892 156.187 201.605 159.497 205.34C159.318 205.474 159.139 205.586 158.983 205.72C152.453 200.151 145.945 194.605 139.415 189.036L139.392 189.013ZM109.984 182.751C119.556 178.367 129.127 175.348 134.852 165.171C140.309 155.42 148.293 147.077 155.136 138.109C155.628 137.482 155.897 136.7 155.785 136.946C147.197 133.233 138.99 129.699 130.402 125.986C123.29 130.191 119.108 137.281 118.683 145.735C118.035 158.618 117.677 171.344 110.006 182.773L109.984 182.751ZM93.8822 189.013C99.4955 183.042 104.751 176.779 104.281 168.549C103.745 158.976 101.956 149.471 100.345 140.01C100.077 138.467 98.109 136.364 96.6106 136.073C93.4573 135.47 90.1028 135.895 85.4064 135.895C94.9333 153.25 91.8695 171.389 93.8822 189.013ZM74.247 221.13C74.9403 221.734 75.6112 222.361 76.3044 222.964C77.3108 221.444 78.2277 219.833 79.3235 218.379C88.0901 206.839 97.0802 195.477 105.623 183.802C116.85 168.437 117.006 150.857 114.815 132.965C114.703 132.025 114.01 131.153 113.585 130.258C113.003 130.325 112.422 130.37 111.84 130.437C111.84 133.568 111.617 136.7 111.885 139.809C113.294 156.739 109.76 172.44 99.8981 186.396C93.0324 196.103 85.7419 205.497 78.6526 215.047C77.1543 217.06 75.723 219.095 74.247 221.13ZM107.054 163.561C110.096 152.915 110.409 143.678 108.24 134.15C105.213 135.283 104.818 145.087 107.054 163.561ZM123.715 117.912C116.514 127.082 116.402 127.463 118.661 132.405C126.131 124.645 127.137 121.961 123.715 117.912Z" fill="#EEEBE6"/>
<path d="M41.5962 121.536L18.9642 109.19C18.9642 108.944 18.9642 108.698 18.9866 108.452C21.7373 109.1 24.5104 109.749 27.6636 110.509C23.9066 105.567 20.3507 100.892 16.7949 96.2177C17.2646 95.8375 17.7342 95.4349 18.2038 95.0547C20.8204 97.8951 23.4369 100.713 26.6125 104.158C27.0822 101.585 27.3729 99.9081 27.4624 99.3936C31.8904 106.461 36.6762 114.066 41.462 121.692L41.5738 121.58L41.5962 121.536Z" fill="#EEEBE6"/>
<path d="M41.4853 121.648C44.1913 123.146 46.9196 124.645 51.1911 127.015C48.91 122.184 47.2551 118.718 45.6226 115.273C52.7789 124.443 59.8682 133.546 65.4367 140.681C58.5264 137.483 49.2231 133.144 39.6738 128.715C41.8207 128.603 43.9453 128.492 46.8078 128.335C44.8398 125.763 43.2073 123.638 41.5971 121.536L41.4853 121.648Z" fill="#EEEBE6"/>
<path d="M68.0529 56.429C68.2542 60.5443 59.7113 67.4106 56.6474 66.762C56.4685 66.7173 56.1555 66.7396 56.1107 66.6278C55.4398 65.0398 53.852 62.4901 54.344 61.9981C57.296 58.9787 60.5834 56.2054 64.1169 53.8793C64.7207 53.4767 67.0689 55.7581 68.0305 56.4067L68.0529 56.429Z" fill="#EEEBE6"/>
<path d="M184.903 104.784C183.852 110.912 179.692 111.337 176.405 111.583C170.613 111.985 172.335 106.707 171.865 103.799C171.127 99.2368 175.197 96.8213 178.418 97.5817C181.012 98.208 182.778 102.256 184.903 104.784Z" fill="#EEEBE6"/>
<path d="M94.911 21.1354C94.1283 20.6881 92.4063 20.2408 91.8919 19.2119C91.3776 18.1607 91.6907 16.282 92.3616 15.1861C93.2785 13.6429 94.8663 12.5022 96.1634 11.1826C98.8247 8.47637 101.844 6.68711 105.534 8.85659C106.764 9.57229 108.396 12.122 108.128 12.4798C106.003 15.1414 103.678 17.7358 100.972 19.7934C99.6521 20.7999 97.4381 20.621 94.911 21.1354Z" fill="#EEEBE6"/>
</g>
<defs>
<clipPath id="clip0_931_5861">
<rect width="239" height="232" fill="white"/>
</clipPath>
</defs>
</svg>
