<svg width="97" height="85" viewBox="0 0 97 85" fill="none" xmlns="http://www.w3.org/2000/svg">
<circle opacity="0.11" cx="57.6387" cy="45.208" r="39" fill="#CA382F"/>
<path d="M69.0988 45.3183C65.2445 45.3133 61.3901 45.3057 57.5358 45.3057C46.3139 45.3057 35.0894 45.3057 23.8675 45.3107C18.5519 45.3107 13.2388 45.3133 7.92314 45.3209C7.08302 45.3209 6.58913 45.7411 6.57641 46.4197C6.56368 47.1286 7.07284 47.5514 7.94859 47.5539C8.79635 47.5539 9.64155 47.5489 10.4893 47.5463C11.556 47.5463 12.6227 47.5463 13.6919 47.5463L13.7938 47.7362C13.6563 47.8248 13.501 47.8932 13.3839 48.0021C11.4338 49.8528 10.4638 52.1315 10.4206 54.8025C10.4078 55.6279 10.8228 56.0608 11.6527 56.0558C15.6395 56.033 18.4653 54.1088 20.2779 50.6782C20.7769 49.7338 20.9958 48.6401 21.3523 47.5894H30.0258C29.9876 47.6679 29.98 47.7134 29.952 47.7337C29.8349 47.8223 29.7076 47.9008 29.5879 47.9869C25.1735 51.0858 22.7881 55.2912 22.6073 60.689C22.5641 61.9676 22.9001 62.279 24.201 62.2537C27.6277 62.1853 30.7157 61.1219 33.4092 59.0256C34.3511 58.2914 35.1836 57.4103 36.011 56.5444C36.403 56.1368 36.3445 55.6 36.0008 55.1544C35.6724 54.7266 35.0385 54.638 34.565 54.9367C34.3715 55.0582 34.2035 55.2329 34.0558 55.4076C32.6811 57.0356 30.9805 58.2154 29.0253 59.0357C27.7219 59.5801 26.37 59.9522 24.9367 59.9649C25.0258 54.1772 30.1938 48.7489 35.3822 48.0831C35.232 48.3084 34.9647 48.4198 34.7763 48.6072C33.0299 50.3237 31.2936 52.053 29.5574 53.7822C28.982 54.3544 28.9489 55.0076 29.4555 55.5089C29.8858 55.9342 30.5732 55.8836 31.09 55.3696C32.8135 53.6607 34.5344 51.9466 36.2528 50.2301C36.6653 49.8174 37.0599 49.387 37.5359 48.8857C37.7294 49.7161 37.8465 50.3946 38.0502 51.0478C38.2615 51.7264 38.5313 52.3922 38.8139 53.0454C41.2299 58.5876 47.1514 62.3727 53.2181 62.2613C54.0175 62.2461 54.4299 61.8612 54.4146 61.0536C54.3993 60.2788 54.3688 59.4965 54.2517 58.7294C53.7221 55.2329 52.2201 52.2175 49.6259 49.7794C48.7986 49.0021 47.8872 48.3135 46.9707 47.5463C49.8092 47.5463 52.602 47.5514 55.3973 47.5387C55.7639 47.5387 55.8224 47.7185 55.9141 48.0172C56.2349 49.073 56.4436 50.2098 56.9884 51.1466C58.8418 54.3265 61.6294 56.0608 65.3972 56.0659C66.1559 56.0659 66.5937 55.6431 66.5937 54.9038C66.5937 53.5239 66.4053 52.1542 65.7256 50.9466C65.0637 49.7718 64.2312 48.6932 63.4649 47.5565C63.5439 47.5565 63.7297 47.5565 63.9155 47.5565C65.6518 47.5565 67.388 47.564 69.1243 47.5514C69.8905 47.5463 70.3386 47.1995 70.4201 46.6045C70.527 45.8196 70.0178 45.3234 69.0963 45.3209L69.0988 45.3183ZM12.7856 53.729C13.0122 50.6402 16.3396 47.7337 18.8548 47.7134C18.8446 50.3668 15.5911 53.6202 12.7856 53.729ZM52.103 59.9244C46.7925 59.894 41.1281 55.3418 40.1581 49.592C41.5405 50.9795 42.9203 52.3669 44.3027 53.7543C44.8551 54.3063 45.3974 54.8683 45.9702 55.4C46.5404 55.9266 47.1922 55.914 47.6555 55.4076C48.0476 54.9797 48.0043 54.3367 47.5002 53.8278C45.7131 52.0327 43.9132 50.2503 42.1184 48.4603C41.9733 48.316 41.8383 48.1616 41.6576 47.9666C47.0521 48.8705 51.9274 54.2278 52.103 59.9269V59.9244ZM64.2592 53.6759C61.4792 53.7594 58.2053 50.3718 58.1646 47.7337C60.2318 47.64 63.8035 50.1111 64.2592 53.6759Z" fill="#490D00"/>
<path d="M7.92939 26.3247C18.3494 26.3272 28.7693 26.3298 39.1893 26.3298C49.0365 26.3298 58.8862 26.3298 68.7334 26.3222C69.049 26.3222 69.3749 26.3171 69.6753 26.2361C70.1794 26.0994 70.4441 25.7322 70.4416 25.2056C70.439 24.6512 70.1539 24.2891 69.6218 24.1448C69.4233 24.0891 69.2043 24.0942 68.993 24.0942C67.1117 24.0916 65.2303 24.0942 63.349 24.0942C63.3134 24.0334 63.2777 23.9752 63.2446 23.9144C63.3923 23.803 63.5552 23.7068 63.6876 23.5802C65.5409 21.8029 66.5032 19.6331 66.5898 17.0734C66.628 15.9822 66.2436 15.5442 65.1591 15.5771C61.292 15.6911 58.5247 17.5798 56.7604 20.9218C56.2589 21.8712 56.04 22.97 55.6759 24.0385H46.8827C47.1806 23.8283 47.3817 23.7119 47.5523 23.5625C48.6393 22.6004 49.846 21.7396 50.7753 20.6433C53.1683 17.8203 54.3827 14.5138 54.4209 10.7996C54.431 9.74634 54.0924 9.3767 53.0436 9.38936C48.3389 9.44252 44.4566 11.2958 41.2972 14.7188C40.8186 15.2379 40.8263 15.848 41.2794 16.2987C41.7275 16.7443 42.3512 16.7392 42.8705 16.2835C42.9826 16.1873 43.0844 16.081 43.1837 15.9696C44.8945 14.0758 47.01 12.8149 49.4464 12.0959C50.2967 11.8452 51.1953 11.7541 52.1042 11.5819C51.8674 17.9925 46.3023 23.0662 41.6689 23.5574C41.7606 23.4182 41.9286 23.3549 42.0457 23.2384C43.8329 21.4712 45.6124 19.6964 47.397 17.9266C47.7763 17.5519 48.0614 17.1519 47.8374 16.5873C47.4988 15.724 46.6256 15.5847 45.9026 16.2987C43.9194 18.2583 41.9464 20.2281 39.9709 22.1953C39.8156 22.3497 39.6501 22.489 39.4413 22.6814C38.7998 19.0001 37.196 15.9442 34.4923 13.496C31.4552 10.7464 27.8681 9.37923 23.7617 9.38429C23.0235 9.38429 22.606 9.78432 22.6136 10.5084C22.6212 11.2629 22.6492 12.0224 22.7536 12.7693C23.25 16.3189 24.7597 19.3774 27.3819 21.851C28.2093 22.6333 29.1258 23.322 30.0499 24.0942C27.196 24.0942 24.3855 24.0891 21.5724 24.0992C21.1701 24.0992 21.1498 23.8536 21.109 23.5701C20.4675 19.0153 16.2618 15.4733 11.6284 15.5797C10.8418 15.5974 10.4192 16.0151 10.4268 16.8051C10.4497 18.8558 10.9971 20.7446 12.2751 22.3801C12.7181 22.9472 13.217 23.4663 13.7695 24.0942C13.3851 24.0942 13.1152 24.0942 12.8453 24.0942C11.1931 24.0942 9.54089 24.0866 7.88866 24.0967C7.04855 24.1018 6.57248 24.5322 6.58521 25.2309C6.59794 25.9272 7.0791 26.3272 7.92939 26.3272V26.3247ZM64.2095 17.9165C64.1484 20.6534 61.0679 23.7498 58.1555 23.96C58.1963 21.2408 61.5338 17.9368 64.2095 17.9165ZM24.9201 11.6604C30.8467 11.9693 35.9689 16.6835 36.9872 22.0662C36.7937 21.8965 36.6562 21.7927 36.5366 21.6737C34.7825 19.9344 33.0361 18.1874 31.277 16.4531C30.8696 16.0531 30.4521 15.6379 29.7826 15.9594C29.0647 16.3038 28.8737 17.076 29.3931 17.6735C29.7113 18.038 30.0677 18.3697 30.4114 18.714C31.893 20.1876 33.3798 21.6585 34.8614 23.1321C35.0218 23.289 35.172 23.4561 35.3833 23.6789C29.9761 22.7726 25.0779 17.4076 24.9175 11.6629L24.9201 11.6604ZM12.769 17.9646C15.3657 17.8228 18.7898 21.1319 18.8585 23.8992C16.8499 24.0233 13.1839 21.5168 12.769 17.9646Z" fill="#490D00"/>
<path d="M39.3693 58.7016C38.8117 58.1977 38.1829 58.1142 37.7425 58.6256C37.0348 59.451 36.2532 60.2763 35.795 61.241C34.2547 64.4868 35.0159 68.1807 37.5999 70.6796C38.2109 71.272 38.8168 71.2796 39.4253 70.6796C41.0775 69.0542 41.9965 67.1123 41.9685 65.026C42.0093 62.4284 41.0724 60.246 39.3667 58.7016H39.3693ZM38.5113 68.3098C36.8464 66.4008 36.8413 63.1424 38.4706 61.1372C40.1559 62.5702 40.1967 66.3401 38.5113 68.3098Z" fill="#490D00"/>
<path d="M39.4414 12.8655C42.8604 9.56404 42.8655 4.33077 39.4491 0.983709C38.8228 0.371009 38.2016 0.355818 37.5779 0.97105C35.9308 2.59901 35.0117 4.54091 35.0525 6.83727C35.0066 9.24503 35.8951 11.2199 37.5728 12.863C38.2169 13.4934 38.7923 13.4909 39.4414 12.863V12.8655ZM38.4944 3.35349C40.1568 5.11564 40.2205 8.55131 38.502 10.5363C36.8371 8.55385 36.8498 5.15361 38.4944 3.35349Z" fill="#490D00"/>
<path d="M49.3323 41.0294C49.3349 41.9333 49.951 42.4498 50.7554 42.2649C51.2748 42.1434 51.5752 41.6725 51.5777 40.9307C51.5828 38.8292 51.5777 36.7278 51.5777 34.6264C51.621 34.6138 51.6668 34.5986 51.7101 34.5859C53.3114 36.8798 54.9127 39.1736 56.5115 41.4699C56.957 42.108 57.3898 42.3105 57.9957 42.1459C58.5634 41.9915 58.8816 41.5459 58.8969 40.7863C58.9122 40.0496 58.8714 39.3128 58.8689 38.5786C58.8511 36.0721 58.846 33.5681 58.8231 31.0616C58.8154 30.1882 58.3648 29.6717 57.6724 29.6944C56.9799 29.7172 56.5726 30.2337 56.5777 31.1047C56.5828 31.9452 56.6108 32.7883 56.6159 33.6289C56.6235 34.9429 56.6159 36.2569 56.6159 37.6798C56.4682 37.5076 56.3842 37.4241 56.318 37.3304C54.6938 34.9935 53.0645 32.6643 51.4606 30.3147C51.1093 29.8008 50.6638 29.6134 50.1062 29.7653C49.5156 29.9248 49.312 30.3907 49.3221 30.9831C49.3374 31.8465 49.3272 32.7098 49.3247 33.5732C49.3247 36.0594 49.317 38.5432 49.3247 41.0294H49.3323Z" fill="#490D00"/>
<path d="M7.0482 42.3017C10.6021 42.3068 13.4534 39.261 13.3338 35.8481C13.2116 32.3618 10.3399 29.63 6.9311 29.6857C3.34151 29.7464 0.55895 32.6681 0.640416 36.1544C0.721881 39.6053 3.67247 42.4106 7.0482 42.3017ZM2.86799 35.9646C2.82472 33.8302 4.65006 31.9795 6.86491 31.9086C9.15358 31.8377 11.0477 33.6176 11.1139 35.9038C11.1775 38.1141 9.35216 40.0332 7.11439 40.1066C4.8028 40.1826 2.91636 38.3419 2.86799 35.9646Z" fill="#490D00"/>
<path d="M30.0216 32.0289C31.1316 31.758 32.1932 31.8922 33.1835 32.5099C33.8658 32.9378 34.5786 32.8239 34.9248 32.2745C35.2532 31.7504 35.1056 31.0972 34.5455 30.7275C33.0587 29.7528 31.4167 29.4768 29.6957 29.8363C26.651 30.4718 24.431 33.4037 24.7467 36.571C25.1337 40.4472 28.9524 43.1663 32.7202 42.0979C35.5587 41.2928 36.8927 38.1964 36.6152 35.738C36.549 35.1506 36.0933 34.9101 35.5205 34.9076C34.5455 34.9076 33.573 34.9076 32.598 34.9151C31.8291 34.9202 31.3632 35.3076 31.3378 35.9507C31.3123 36.6191 31.7808 37.0799 32.5547 37.1052C33.1249 37.1254 33.6952 37.1077 34.2986 37.1077C34.1534 38.4293 33.3439 39.5079 32.2874 39.875C30.1794 40.6041 27.7482 39.3711 27.1194 37.252C26.4346 34.943 27.7355 32.5859 30.0241 32.0263L30.0216 32.0289Z" fill="#490D00"/>
<path d="M17.8428 38.0343C18.9273 39.2673 20.0016 40.5104 21.1014 41.7308C21.3152 41.9662 21.6156 42.1865 21.916 42.265C22.4328 42.3992 22.8733 42.1941 23.1253 41.6928C23.3926 41.1586 23.1889 40.7231 22.83 40.318C21.939 39.3154 21.0505 38.3078 20.1263 37.2621C20.2867 37.1887 20.3758 37.1406 20.47 37.1102C22.2852 36.5329 23.4232 34.867 23.2195 33.077C23.0184 31.3047 21.5163 29.8667 19.6528 29.7325C18.7261 29.6641 17.7918 29.7148 16.8626 29.6743C15.7832 29.6261 15.3428 30.011 15.3428 31.087C15.3428 32.7276 15.358 34.3708 15.3631 36.0114C15.3682 37.7381 15.3555 39.4648 15.3759 41.189C15.3835 41.8776 15.857 42.3207 16.4884 42.3106C17.1248 42.3004 17.5551 41.8498 17.5704 41.1611C17.578 40.8041 17.5704 40.4446 17.5704 40.0876C17.5704 39.3686 17.5704 38.6521 17.5704 37.8444C17.7486 37.9634 17.8097 37.9887 17.8478 38.0343H17.8428ZM17.6442 31.9453C18.3341 31.9453 19.0316 31.8643 19.7012 31.9655C20.5515 32.0947 21.0708 32.8567 20.9919 33.6492C20.913 34.429 20.2409 35.0366 19.3931 35.0696C18.9069 35.0898 18.4206 35.0772 17.9344 35.0721C17.8529 35.0721 17.7715 35.0468 17.6467 35.0265V31.9453H17.6442Z" fill="#490D00"/>
<path d="M43.7481 30.6996C43.4299 29.8717 42.8876 29.5679 42.0755 29.7376C41.4442 29.8692 41.2354 30.3832 41.0394 30.9022C39.7945 34.1606 38.5521 37.4191 37.3072 40.675C37.0425 41.3662 37.2436 41.9738 37.8266 42.2169C38.4376 42.4701 39.0282 42.227 39.3337 41.5637C39.5348 41.1257 39.7054 40.6725 39.8581 40.2142C39.9625 39.8952 40.1102 39.7408 40.4844 39.7484C41.7751 39.7712 43.0658 39.7712 44.3566 39.7484C44.7537 39.7408 44.9065 39.9028 45.0134 40.2573C45.1585 40.7358 45.3189 41.2269 45.5786 41.6523C45.7644 41.9586 46.1183 42.1612 46.3958 42.4118C47.3072 42.3308 47.857 41.6523 47.5897 40.8725C47.19 39.7053 46.7343 38.5559 46.299 37.4014C45.4538 35.1683 44.6086 32.9327 43.7532 30.7047L43.7481 30.6996ZM40.8866 37.5381C41.3907 36.2114 41.8744 34.9354 42.4294 33.477C42.9742 34.9101 43.4604 36.1861 43.9747 37.5381H40.8866Z" fill="#490D00"/>
<path d="M74.3904 39.0419C74.0468 39.3432 73.6852 39.6673 73.2703 39.8394C71.3049 40.6547 68.8813 39.5103 68.1125 37.4469C67.3029 35.2746 68.4587 32.8162 70.615 32.1275C71.8752 31.725 73.0615 31.8743 74.202 32.5529C74.841 32.9326 75.5157 32.7959 75.8364 32.2946C76.1776 31.7579 76.0121 31.0718 75.4317 30.7021C73.9347 29.7476 72.2978 29.4868 70.5768 29.8489C67.4862 30.5021 65.3096 33.5251 65.6711 36.6696C66.0377 39.8496 68.7311 42.3282 72.2316 42.3029C73.5834 42.3232 74.9403 41.7358 76.0274 40.5585C76.5238 40.0217 76.5085 39.3584 76.0401 38.928C75.5564 38.4849 74.9556 38.5482 74.393 39.0445L74.3904 39.0419Z" fill="#490D00"/>
<path d="M63.5431 31.1071C63.538 30.1906 63.1027 29.664 62.3899 29.6867C61.6923 29.7095 61.3054 30.221 61.3054 31.1071C61.3054 31.9274 61.3028 32.7477 61.3003 33.5706C61.3003 36.0112 61.2926 38.4544 61.3003 40.8951C61.3028 41.8268 61.7305 42.3306 62.4561 42.3104C63.1536 42.2901 63.538 41.7888 63.538 40.8951C63.538 39.2747 63.538 37.6544 63.538 36.034H63.5431C63.5431 34.3934 63.5482 32.7502 63.5431 31.1096V31.1071Z" fill="#490D00"/>
</svg>
