<svg width="42" height="60" viewBox="0 0 42 60" fill="none" xmlns="http://www.w3.org/2000/svg">
<path d="M21.3549 32.3763C23.3242 32.3763 25.2493 31.7924 26.8867 30.6983C28.5242 29.6042 29.8004 28.0491 30.5541 26.2297C31.3077 24.4103 31.5049 22.4083 31.1207 20.4768C30.7366 18.5453 29.7883 16.7711 28.3957 15.3786C27.0032 13.986 25.229 13.0377 23.2976 12.6535C21.3661 12.2693 19.364 12.4665 17.5446 13.2201C15.7252 13.9737 14.1701 15.2499 13.076 16.8874C11.9819 18.5248 11.3979 20.4499 11.3979 22.4192C11.4009 25.0591 12.4509 27.59 14.3175 29.4566C16.1842 31.3233 18.715 32.3733 21.3549 32.3763ZM21.3549 15.2434C22.7741 15.2434 24.1616 15.6642 25.3417 16.4527C26.5218 17.2412 27.4415 18.3619 27.9847 19.6732C28.5278 20.9844 28.6699 22.4273 28.3931 23.8193C28.1162 25.2113 27.4327 26.4899 26.4292 27.4935C25.4256 28.4971 24.1469 29.1805 22.7549 29.4574C21.3629 29.7343 19.9201 29.5922 18.6088 29.049C17.2976 28.5059 16.1768 27.5861 15.3883 26.406C14.5998 25.2259 14.179 23.8385 14.179 22.4192C14.1814 20.5168 14.9382 18.693 16.2834 17.3478C17.6286 16.0027 19.4525 15.2459 21.3549 15.2436V15.2434ZM18.7989 51.7455C19.1004 52.1365 19.4876 52.4532 19.9308 52.6711C20.3739 52.8891 20.8611 53.0024 21.3549 53.0024C21.8487 53.0024 22.336 52.8891 22.7791 52.6711C23.2222 52.4532 23.6094 52.1365 23.9109 51.7455L36.2186 35.7773C39.6795 31.287 41.6603 25.9899 41.7964 20.8619C41.9442 15.2881 39.9746 10.2944 36.1005 6.42032C32.1824 2.52342 26.881 0.335937 21.3549 0.335938C15.8288 0.335937 10.5273 2.52342 6.60919 6.42032C2.73511 10.2942 0.765503 15.2879 0.913713 20.8616C1.04976 25.9896 3.03072 31.2867 6.49158 35.7769L18.7989 51.7455ZM8.57567 8.38657C11.9723 5.0112 16.5663 3.11672 21.3549 3.11672C26.1434 3.11672 30.7375 5.0112 34.1341 8.38657C40.6791 14.9317 40.6306 25.4969 34.0159 34.0792L21.7083 50.0479C21.6666 50.102 21.6131 50.1458 21.5518 50.176C21.4905 50.2061 21.4232 50.2218 21.3549 50.2218C21.2866 50.2218 21.2192 50.2061 21.1579 50.176C21.0966 50.1458 21.0431 50.102 21.0014 50.0479L8.69387 34.0797C2.07911 25.4969 2.03056 14.9317 8.57567 8.38657ZM0.806641 49.7092C0.806641 47.0041 2.86547 44.5078 6.60409 42.6802C6.93518 42.5201 7.3162 42.4977 7.66379 42.6178C8.01137 42.738 8.2972 42.9909 8.45873 43.3213C8.62026 43.6517 8.64432 44.0326 8.52566 44.3807C8.407 44.7288 8.15528 45.0157 7.82558 45.1787C5.13231 46.4953 3.58775 48.1467 3.58775 49.7096C3.58775 53.1031 10.8845 56.8848 21.3549 56.8848C31.8253 56.8848 39.122 53.1031 39.122 49.709C39.122 48.1465 37.5774 46.4951 34.8842 45.1781C34.5545 45.0152 34.3027 44.7282 34.1841 44.3801C34.0654 44.032 34.0895 43.6511 34.251 43.3207C34.4125 42.9903 34.6984 42.7374 35.0459 42.6172C35.3935 42.4971 35.7746 42.5195 36.1056 42.6796C39.8443 44.5073 41.9031 47.0035 41.9031 49.7086C41.9031 52.5782 39.6181 55.1801 35.469 57.0354C31.6758 58.7318 26.6633 59.6659 21.3549 59.6659C16.0464 59.6659 11.0338 58.7318 7.24074 57.0355C3.09155 55.1805 0.806641 52.5785 0.806641 49.709V49.7092Z" fill="white"/>
</svg>
