<svg width="232" height="267" viewBox="0 0 232 267" fill="none" xmlns="http://www.w3.org/2000/svg">
<g opacity="0.22">
<path d="M7.49078 210.099C3.61275 207.369 2.52537 200.682 4.46621 196.393C22.84 198.623 33.3613 199.865 46.0733 198.161C45.9775 197.928 45.8885 197.678 45.9473 197.354C48.7149 178.786 54.6639 161.052 67.207 146.651C78.5133 133.714 93.2115 124.292 108.216 116.218C142.687 97.6766 179.053 84.5491 199.992 49.3228C200.533 48.4047 202.151 45.6668 202.977 49.7466C212.868 98.1932 199.366 156.797 167.65 194.064C152.921 211.354 133.324 224.343 110.552 227.63C89.435 230.673 66.1158 224.283 50.9678 208.807C50.6144 208.448 21.0773 210.791 8.76466 210.162C8.72466 210.165 7.89538 210.383 7.49772 210.082L7.49078 210.099ZM6.34453 199.263C5.03987 202.363 5.89626 205.817 8.37213 208.005C8.59457 207.845 34.6138 209.157 47.157 207.209C59.2533 205.308 70.8185 200.979 82.1114 196.421C102.005 188.397 121.173 178.271 138.295 165.303C163.07 146.559 181.484 122.681 191.776 95.0886C179.147 122.7 156.663 146.286 132.151 163.532C98.3585 187.331 58.8952 204.636 6.34453 199.263ZM75.1791 142.79C59.6246 157.705 52.0997 176.877 48.8058 197.802C52.2172 197.26 55.6249 196.542 59.0343 195.727C59.022 195.664 59.0263 195.608 59.061 195.525C62.0681 182.615 67.491 170.144 75.7226 159.67C76.0048 159.322 76.46 159.762 76.2247 160.091C68.9329 171.284 63.4913 182.508 60.2209 195.444C64.7742 194.31 69.3516 192.934 73.9643 191.244C78.5301 189.572 83.0288 187.737 87.4866 185.77L87.6978 185.683C97.6265 181.276 107.261 176.186 116.526 170.497C117.181 151.828 121.371 133.617 128.63 116.369C128.789 115.989 129.337 116.255 129.185 116.618C122.495 133.851 118.88 151.39 117.754 169.747C122.107 167.058 126.387 164.222 130.588 161.296C135.402 157.927 140.053 154.393 144.491 150.673C142.757 135.837 143.031 121.213 145.497 106.452C145.512 106.322 145.623 106.291 145.729 106.315C145.818 106.333 145.911 106.391 145.895 106.52C144.13 120.952 143.971 135.352 145.565 149.782C152.313 144.077 158.609 137.971 164.366 131.487C162.585 120.408 161.712 109.337 161.785 98.0955C161.792 97.8469 162.19 97.7791 162.208 98.0579C162.742 108.872 163.803 119.634 165.391 130.343C169.693 125.425 173.675 120.297 177.312 114.929C176.285 109.023 176.455 102.761 176.218 96.7754C176.219 96.6793 176.386 96.6516 176.378 96.7642C176.952 102.502 177.886 108.447 177.773 114.249C181.38 108.907 184.641 103.326 187.543 97.537C185.055 91.5486 184.693 84.8915 185.435 78.5175C185.445 78.3087 185.747 78.3756 185.76 78.5748C185.377 84.7877 186.467 90.5456 188.06 96.4925C191.019 90.4758 193.586 84.2384 195.713 77.7996C194.416 74.2409 193.861 70.4863 194.259 66.6812C194.288 66.5191 194.538 66.5257 194.542 66.7015C194.728 69.9936 195.243 73.1508 196.196 76.2374C197.643 71.6468 198.874 66.9671 199.872 62.1517C200.331 58.6624 200.642 55.1115 200.87 51.5263C190.354 75.2689 166.822 89.8609 143.664 101.722C137.182 105.04 130.727 108.155 124.597 111.192C107.085 119.874 89.4201 129.15 75.186 142.773L75.1791 142.79ZM72.6052 202.59C66.5114 204.849 60.3286 206.857 54.0262 208.274C70.5984 223.778 93.43 228.514 115.533 223.865C132.261 220.32 146.847 211.258 158.83 199.434C162.812 195.506 166.493 191.28 169.88 186.874C172.445 183.502 174.867 180.051 177.169 176.473C185.905 162.955 192.685 148.044 197.334 132.522C199.785 124.3 201.669 115.901 202.89 107.421C205.537 89.4619 205.397 71.1612 202.193 53.5466C202.187 53.9312 202.154 54.2856 202.131 54.6634C202.215 64.517 200.837 74.2487 198.306 83.6767C198.763 83.4207 199.23 83.1881 199.698 82.8592C200.927 82.0131 202.086 81.0599 203.13 79.9626C203.204 79.8774 203.325 80.005 203.258 80.0737C201.919 81.8238 200.119 83.518 198.068 84.5657C196.829 89.0297 195.33 93.424 193.608 97.7457C196.737 95.9826 199.536 93.7144 201.909 90.9797C202.014 90.8684 202.168 91.0097 202.087 91.1114C199.652 94.1305 196.718 96.5361 193.354 98.3957C190.582 105.168 187.236 111.779 183.397 118.09C189.512 114.95 194.948 111.625 200.146 106.884C200.349 106.678 200.652 106.881 200.625 107.083C200.604 107.133 200.607 107.172 200.57 107.215C195.816 112.469 189.336 117.259 182.522 119.567C177.538 127.63 171.778 135.275 165.525 142.386C175.21 140.357 184.088 136.464 192.401 130.962C192.569 130.838 192.742 131.026 192.713 131.188C192.699 131.221 192.678 131.27 192.648 131.297C184.314 137.449 174.81 141.353 164.696 143.34C158.374 150.384 151.528 156.92 144.404 162.78C157.701 161.899 170.262 158.893 182.71 154.175C182.843 154.133 182.904 154.313 182.779 154.378C170.548 159.922 157.468 162.868 144.076 163.651C143.859 163.658 143.745 163.514 143.688 163.374C142.651 164.223 141.582 165.058 140.536 165.883C136.602 168.959 132.534 171.844 128.396 174.622C143.426 176.957 158.288 177.016 173.453 175.34C173.54 175.318 173.585 175.395 173.581 175.451C173.56 175.501 173.539 175.55 173.476 175.563C158.019 178.531 142.417 178.34 126.974 175.601C119.992 180.202 112.733 184.399 105.276 188.28C122.135 191.897 138.745 194.906 155.995 196.439C156.132 196.437 156.145 196.636 156.061 196.698C156.047 196.731 156.023 196.741 155.983 196.743C138.475 196.286 120.595 193.989 103.785 189.057C96.0982 192.979 88.2249 196.514 80.2243 199.705C78.3139 200.463 76.387 201.214 74.467 201.948C92.0401 209.54 110.123 213.199 129.359 213.656C129.529 213.668 129.554 213.931 129.378 213.935C109.833 214.396 90.215 211.34 72.6478 202.627L72.6052 202.59Z" fill="white"/>
<path d="M86.95 185.329C87.7766 166.336 95.0797 146.81 104.854 130.594C105.036 130.301 105.548 130.514 105.369 130.846C96.1679 148.423 91.4464 166.152 87.8035 185.47C87.788 185.599 87.7272 185.652 87.6663 185.704L87.455 185.791C87.208 185.824 86.9547 185.641 86.95 185.329Z" fill="white"/>
</g>
</svg>
