<svg width="42" height="42" viewBox="0 0 42 42" fill="none" xmlns="http://www.w3.org/2000/svg">
<g clip-path="url(#clip0_1046_412)">
<path d="M11.945 39.2298C5.35849 39.2298 0 33.8713 0 27.2848C0 20.6983 5.35849 15.3398 11.945 15.3398C18.5315 15.3398 23.8899 20.6983 23.8899 27.2848C23.8899 33.8713 18.5315 39.2298 11.945 39.2298ZM11.945 16.8295C6.18084 16.8295 1.49122 21.5191 1.49122 27.2832C1.49122 33.0474 6.18076 37.7371 11.945 37.7371C17.7092 37.7371 22.3987 33.0475 22.3987 27.2833C22.3987 21.5192 17.7107 16.8295 11.945 16.8295Z" fill="#490D00"/>
<path d="M13.3205 26.9543C13.2228 26.9541 13.1259 26.935 13.0354 26.898L10.2614 25.7483L7.48749 26.898C7.36187 26.9501 7.22439 26.9668 7.08994 26.9464C6.95548 26.926 6.82918 26.8691 6.72472 26.782C6.62016 26.695 6.5415 26.5808 6.49731 26.4521C6.45313 26.3234 6.4451 26.1851 6.47412 26.0521L6.95815 23.8279L4.85772 22.2146C4.61652 22.0297 4.51313 21.7165 4.59301 21.4236C4.6329 21.2807 4.71435 21.1529 4.82702 21.0564C4.9397 20.9599 5.0785 20.899 5.22582 20.8816L8.28963 20.5307L9.62886 18.3911C9.69578 18.2841 9.78884 18.1959 9.89928 18.1348C10.0097 18.0737 10.1339 18.0417 10.2601 18.0418C10.3863 18.0417 10.5105 18.0737 10.6209 18.1348C10.7313 18.1959 10.8244 18.2841 10.8913 18.3911L12.2306 20.5307L15.2944 20.8816C15.442 20.8983 15.5812 20.9588 15.694 21.0555C15.8068 21.1521 15.888 21.2803 15.9272 21.4236C15.9668 21.5668 15.9628 21.7186 15.9157 21.8595C15.8685 22.0004 15.7804 22.1241 15.6625 22.2146L13.5621 23.8279L14.0461 26.0521C14.0752 26.1851 14.0672 26.3235 14.023 26.4522C13.9788 26.5809 13.9001 26.695 13.7955 26.782C13.6625 26.8937 13.4942 26.9548 13.3205 26.9543ZM10.2615 24.196C10.3586 24.196 10.4557 24.2148 10.5466 24.2524L12.2899 24.9745L12.0079 23.6823C11.9781 23.5441 11.9879 23.4002 12.0364 23.2674C12.085 23.1346 12.1701 23.0183 12.2821 22.9319L13.2971 22.1519L11.7057 21.9702C11.5945 21.9578 11.4875 21.9203 11.3928 21.8607C11.2982 21.801 11.2182 21.7206 11.159 21.6256L10.2615 20.1909L9.36398 21.6256C9.3048 21.7206 9.22487 21.801 9.13019 21.8607C9.03551 21.9203 8.92854 21.9578 8.81732 21.9702L7.22592 22.1519L8.24094 22.9319C8.35297 23.0182 8.43821 23.1346 8.48673 23.2674C8.53526 23.4002 8.54508 23.5441 8.51506 23.6823L8.2331 24.9745L9.97641 24.2524C10.0668 24.2151 10.1637 24.1959 10.2615 24.196ZM30.0554 39.2314C26.8647 39.2314 23.8652 37.9892 21.6081 35.7321C21.1683 35.2928 20.7635 34.8199 20.3973 34.3177C20.1546 33.9857 20.2266 33.5189 20.5602 33.2761C20.8923 33.0334 21.359 33.1054 21.6018 33.439C21.9235 33.8786 22.2786 34.2928 22.6638 34.678C24.639 36.6532 27.2641 37.7402 30.0569 37.7402C32.8498 37.7402 35.4749 36.6532 37.4485 34.678C39.4237 32.7028 40.5108 30.0776 40.5108 27.2864C40.5108 24.4936 39.4237 21.8684 37.4485 19.8932C35.4734 17.918 32.8482 16.831 30.0569 16.831C27.2641 16.831 24.639 17.918 22.6638 19.8932C22.2786 20.2784 21.9235 20.6926 21.6018 21.1322C21.359 21.4658 20.8923 21.5378 20.5602 21.2951C20.2282 21.0523 20.1546 20.5855 20.3973 20.2535C20.764 19.7516 21.1688 19.2788 21.6081 18.8391C23.8636 16.5835 26.8632 15.3398 30.0554 15.3398C33.246 15.3398 36.2455 16.582 38.5011 18.8391C40.7567 21.0947 42.0003 24.0942 42.0003 27.2864C42.0003 30.477 40.7582 33.4765 38.5011 35.7321C36.2455 37.9877 33.246 39.2314 30.0554 39.2314Z" fill="#490D00"/>
<path d="M32.4484 28.5129C32.4265 28.5129 32.4045 28.5114 32.3811 28.5098C32.1039 28.4847 31.8642 28.3093 31.7593 28.0524L30.6096 25.2784L27.8356 24.1287C27.5787 24.0222 27.4033 23.7826 27.3782 23.5069C27.3531 23.2312 27.4847 22.9634 27.7181 22.813L29.6321 21.5834L29.2875 18.9567C29.2683 18.8094 29.2935 18.6598 29.36 18.5269C29.4264 18.3941 29.531 18.2841 29.6603 18.2111C29.7894 18.1377 29.9375 18.1048 30.0855 18.1165C30.2335 18.1282 30.3746 18.1841 30.4905 18.2769L32.9058 20.1956L35.365 19.6301C35.6156 19.5722 35.8771 19.6474 36.0588 19.8291C36.2405 20.0108 36.3157 20.2724 36.2578 20.523L35.6923 22.9821L37.611 25.3974C37.7034 25.5135 37.759 25.6545 37.7708 25.8024C37.7825 25.9504 37.7498 26.0984 37.6768 26.2276C37.528 26.4907 37.2304 26.6395 36.9312 26.6004L34.3045 26.2558L33.0749 28.1698C33.0079 28.2752 32.9153 28.3619 32.8057 28.4219C32.6962 28.4818 32.5733 28.5132 32.4484 28.5129ZM29.723 23.2971L31.4663 24.0191C31.6496 24.0943 31.7937 24.24 31.8704 24.4232L32.5925 26.1665L33.3068 25.0545C33.4634 24.8117 33.7453 24.6801 34.0304 24.7177L35.2992 24.8837L34.303 23.6307C34.2332 23.543 34.1841 23.4407 34.1594 23.3314C34.1348 23.222 34.1351 23.1086 34.1605 22.9994L34.5396 21.3501L32.8902 21.7292C32.7811 21.7544 32.6676 21.7547 32.5583 21.73C32.449 21.7054 32.3467 21.6564 32.259 21.5867L31.0059 20.5905L31.1719 21.8592C31.1904 21.9994 31.1685 22.1419 31.1089 22.27C31.0492 22.3982 30.9543 22.5067 30.8352 22.5829L29.723 23.2971ZM9.53441 17.0912C9.35588 17.0909 9.18339 17.0266 9.04828 16.9099C8.91318 16.7932 8.82444 16.6319 8.7982 16.4553C8.43324 13.9961 8.83897 11.5197 9.96984 9.29711C12.9568 3.42644 20.162 1.08003 26.0327 4.0671C30.5531 6.36648 33.1345 11.2864 32.4579 16.3096C32.4031 16.7168 32.0287 17.0051 31.6198 16.9487C31.211 16.8939 30.9259 16.518 30.9807 16.1107C31.5728 11.7139 29.3126 7.40964 25.3575 5.39692C20.2199 2.78266 13.9138 4.83614 11.2996 9.97538C10.3096 11.9208 9.95565 14.0871 10.2737 16.2392C10.3347 16.6464 10.0528 17.0255 9.64556 17.0866C9.60858 17.0896 9.57151 17.0912 9.53441 17.0912Z" fill="#490D00"/>
<path d="M22.753 15.2221C22.6453 15.2218 22.5388 15.1983 22.441 15.1532C22.3431 15.108 22.2561 15.0423 22.186 14.9605L20.2343 12.6784L17.2411 12.4466C17.1054 12.4358 16.9752 12.3882 16.8646 12.309C16.7539 12.2298 16.6669 12.1219 16.6129 11.997C16.5593 11.8719 16.541 11.7345 16.5601 11.5997C16.5791 11.4649 16.6348 11.338 16.721 11.2327L18.1605 9.47055L17.0202 7.08032C16.9567 6.94633 16.9344 6.79648 16.9562 6.64979C16.9779 6.50311 17.0428 6.36619 17.1425 6.2564C17.3477 6.03245 17.6687 5.95406 17.9523 6.06059L20.8421 7.13668L23.0053 5.83821C23.2262 5.7066 23.4986 5.69728 23.7274 5.81313C23.9561 5.92898 24.1096 6.15614 24.1314 6.41145L24.3554 8.92545L26.9273 10.6281C27.1811 10.7957 27.3064 11.0996 27.2468 11.3987C27.2177 11.5443 27.1456 11.6778 27.0398 11.782C26.9339 11.8861 26.7993 11.9561 26.6532 11.9829L24.0499 12.4685L23.4735 14.6692C23.403 14.9371 23.1899 15.1454 22.919 15.2065C22.8643 15.2174 22.8078 15.2221 22.753 15.2221ZM18.7777 11.0697L20.6589 11.2169C20.8561 11.2322 21.0392 11.3252 21.1679 11.4754L22.3943 12.9086L22.7295 11.6288C22.7655 11.4923 22.8395 11.3687 22.9429 11.2725C23.0463 11.1763 23.1749 11.1114 23.3137 11.0853L24.5715 10.8504L23.237 9.96697C23.1433 9.90541 23.0649 9.82335 23.0077 9.72701C22.9504 9.63068 22.9158 9.52257 22.9065 9.41089L22.7562 7.72551L21.3057 8.59638C21.2099 8.65434 21.1022 8.68981 20.9906 8.70011C20.8791 8.71042 20.7667 8.69529 20.6619 8.65588L19.1614 8.09667L19.7127 9.25106C19.7736 9.37863 19.797 9.52088 19.7801 9.66122C19.7631 9.80156 19.7066 9.93419 19.6172 10.0436L18.7777 11.0697Z" fill="#490D00"/>
</g>
<defs>
<clipPath id="clip0_1046_412">
<rect width="42" height="42" fill="white"/>
</clipPath>
</defs>
</svg>
