<svg width="48" height="50" viewBox="0 0 48 50" fill="none" xmlns="http://www.w3.org/2000/svg">
<path d="M39.6716 22.5149L40.2396 21.1127C40.3352 20.876 40.3329 20.6111 40.2332 20.3762C40.1335 20.1413 39.9446 19.9556 39.708 19.86C39.4714 19.7644 39.2065 19.7667 38.9715 19.8664C38.7366 19.9661 38.5509 20.155 38.4553 20.3916L37.8882 21.7939C37.7925 22.0305 37.7948 22.2954 37.8945 22.5303C37.9942 22.7652 38.1832 22.9509 38.4198 23.0465C38.6564 23.1421 38.9213 23.1399 39.1562 23.0402C39.3911 22.9405 39.576 22.7515 39.6716 22.5149ZM31.9971 19.4088L32.5643 18.0066C32.6599 17.7701 32.6576 17.5053 32.558 17.2704C32.4584 17.0356 32.2695 16.8499 32.033 16.7543C31.7965 16.6587 31.5317 16.661 31.2969 16.7606C31.062 16.8602 30.8764 17.049 30.7808 17.2855L30.2136 18.6878C30.118 18.9243 30.1202 19.1891 30.2199 19.424C30.3195 19.6588 30.5083 19.8444 30.7448 19.9401C30.9813 20.0357 31.2461 20.0334 31.481 19.9338C31.7158 19.8342 31.9015 19.6454 31.9971 19.4088ZM24.3194 16.302L24.8874 14.8997C24.9369 14.7824 24.9625 14.6564 24.9629 14.529C24.9633 14.4017 24.9383 14.2755 24.8895 14.1579C24.8406 14.0403 24.7689 13.9335 24.6785 13.8439C24.588 13.7542 24.4806 13.6834 24.3626 13.6356C24.2445 13.5879 24.1182 13.564 23.9908 13.5655C23.8635 13.567 23.7377 13.5938 23.6208 13.6443C23.5039 13.6948 23.3982 13.7681 23.3098 13.8598C23.2215 13.9516 23.1523 14.06 23.1062 14.1787L22.5375 15.581C22.4902 15.698 22.4663 15.8231 22.4674 15.9494C22.4684 16.0756 22.4943 16.2003 22.5435 16.3166C22.5928 16.4328 22.6644 16.5381 22.7544 16.6266C22.8444 16.7152 22.9509 16.7851 23.0679 16.8324C23.1849 16.8798 23.3101 16.9036 23.4363 16.9026C23.5626 16.9016 23.6873 16.8757 23.8035 16.8264C23.9198 16.7772 24.0251 16.7055 24.1136 16.6155C24.2022 16.5255 24.2721 16.419 24.3194 16.302ZM33.7345 26.153L34.3017 24.7499C34.3973 24.5133 34.395 24.2484 34.2953 24.0135C34.1956 23.7786 34.0067 23.5929 33.77 23.4973C33.5334 23.4017 33.2685 23.404 33.0336 23.5036C32.7987 23.6033 32.613 23.7923 32.5174 24.0289L31.9502 25.4319C31.8679 25.6657 31.8789 25.9223 31.9809 26.1482C32.0829 26.3741 32.2681 26.552 32.4979 26.6449C32.7277 26.7378 32.9845 26.7385 33.2148 26.6469C33.4451 26.5552 33.6313 26.3783 33.7345 26.153ZM20.6532 44.1074C20.2736 44.1074 19.9134 43.8801 19.7627 43.5059L19.194 42.1036C19.0982 41.8671 19.1003 41.6022 19.1998 41.3673C19.2992 41.1323 19.4879 40.9464 19.7244 40.8505C19.9609 40.756 20.2252 40.7587 20.4596 40.8583C20.694 40.9578 20.8796 41.146 20.9759 41.3818L21.5438 42.7848C21.6027 42.9307 21.6249 43.0889 21.6085 43.2454C21.5921 43.4019 21.5375 43.552 21.4496 43.6825C21.3617 43.813 21.2432 43.92 21.1043 43.9941C20.9655 44.0682 20.8106 44.1071 20.6532 44.1074ZM9.13595 36.7625C9.62811 36.5641 9.8656 36.0024 9.66717 35.5102L9.09924 34.1072C9.00233 33.8719 8.81668 33.6843 8.58246 33.5849C8.34825 33.4854 8.0843 33.4823 7.84775 33.576C7.35559 33.7752 7.1181 34.3369 7.31653 34.8282L7.88447 36.2313C7.93171 36.3484 8.00156 36.455 8.09004 36.5451C8.17852 36.6352 8.28389 36.7069 8.40011 36.7563C8.51634 36.8056 8.64115 36.8316 8.76741 36.8326C8.89367 36.8337 9.01891 36.8099 9.13595 36.7625ZM16.8121 33.6564C17.3042 33.458 17.5417 32.8963 17.3425 32.4042L16.7753 31.0011C16.6794 30.7651 16.4939 30.5766 16.2593 30.477C16.0248 30.3775 15.7603 30.3749 15.5239 30.4699C15.0317 30.6691 14.7942 31.2308 14.9926 31.7222L15.5606 33.1252C15.6078 33.2423 15.6777 33.349 15.7662 33.439C15.8546 33.5291 15.96 33.6009 16.0762 33.6502C16.1924 33.6995 16.3173 33.7255 16.4435 33.7266C16.5698 33.7276 16.695 33.7038 16.8121 33.6564ZM24.4874 30.5504C24.9795 30.3519 25.217 29.7903 25.0186 29.2981L24.4507 27.8951C24.3543 27.6594 24.1687 27.4713 23.9343 27.3719C23.6999 27.2724 23.4357 27.2695 23.1992 27.3638C22.707 27.5631 22.4695 28.1247 22.6687 28.6161L23.2359 30.0192C23.2831 30.1363 23.353 30.2429 23.4415 30.333C23.53 30.423 23.6353 30.4948 23.7515 30.5441C23.8678 30.5935 23.9926 30.6194 24.1188 30.6205C24.2451 30.6216 24.3703 30.5977 24.4874 30.5504ZM15.0747 40.4006C15.5668 40.2014 15.8043 39.6397 15.6059 39.1475L15.0379 37.7453C14.9417 37.5095 14.7561 37.3213 14.5217 37.2218C14.2872 37.1222 14.0229 37.1195 13.7865 37.214C13.2943 37.4125 13.0568 37.9742 13.256 38.4663L13.8232 39.8686C13.8704 39.9857 13.9403 40.0923 14.0288 40.1824C14.1172 40.2725 14.2226 40.3442 14.3388 40.3936C14.4551 40.4429 14.5799 40.4688 14.7061 40.4699C14.8324 40.471 14.9576 40.4471 15.0747 40.3998V40.4006ZM22.7508 37.2945C23.2429 37.0953 23.4804 36.5336 23.2812 36.0415L22.7141 34.6392C22.6175 34.4037 22.4319 34.2157 22.1975 34.1163C21.9632 34.0168 21.6991 34.0138 21.4626 34.108C20.9704 34.3064 20.7329 34.8681 20.9313 35.3602L21.4993 36.7625C21.5465 36.8796 21.6164 36.9862 21.7049 37.0763C21.7933 37.1664 21.8987 37.2382 22.0149 37.2875C22.1312 37.3368 22.256 37.3628 22.3822 37.3638C22.5085 37.3649 22.6337 37.3419 22.7508 37.2945ZM46.8275 14.5646C46.298 13.1881 45.5082 11.9266 44.501 10.8492C44.3182 10.0336 43.9511 9.14305 43.2816 8.21967C41.6622 5.98542 39.4248 5.10657 38.0022 4.7605C38.9568 2.98482 40.1318 2.04816 40.9833 1.91457C41.11 1.89736 41.2321 1.85503 41.3422 1.79007C41.4524 1.72511 41.5485 1.63883 41.625 1.53626C41.7014 1.4337 41.7566 1.31693 41.7873 1.19277C41.8181 1.06861 41.8237 0.939574 41.804 0.813204C41.7842 0.686832 41.7395 0.56567 41.6723 0.456809C41.6052 0.347948 41.517 0.253575 41.4129 0.179215C41.3089 0.104856 41.191 0.0520032 41.0663 0.0237519C40.9415 -0.00449951 40.8124 -0.00758214 40.6864 0.0146844C38.9928 0.280294 37.3648 1.76224 36.1953 4.04882C34.9579 3.29808 32.6971 2.30127 29.8863 2.79889C28.7629 2.99654 27.8802 3.38167 27.1818 3.83946C25.7209 3.91289 24.2741 4.26131 22.9304 4.8933C20.0869 6.22916 18.0089 8.5884 17.0167 11.6976C16.5988 13.0311 16.4027 14.6107 16.4066 16.4012C14.1989 16.3372 12.4123 17.1332 11.3632 17.7699C10.1937 15.481 8.56489 13.9975 6.87046 13.7311C6.74551 13.7111 6.61783 13.716 6.49478 13.7455C6.37173 13.7751 6.25575 13.8287 6.15351 13.9033C6.05127 13.9778 5.96479 14.0719 5.89906 14.18C5.83333 14.2882 5.78965 14.4083 5.77053 14.5334C5.73142 14.7853 5.79383 15.0426 5.94408 15.2486C6.09433 15.4547 6.32016 15.5927 6.57204 15.6325C7.42434 15.7653 8.60083 16.7028 9.55624 18.48C8.13523 18.8214 5.90568 19.7002 4.28312 21.9275C2.26449 24.696 2.9371 27.1959 3.32224 28.138C3.57222 28.7536 4.18703 29.1192 4.87918 29.1192C4.97526 29.1192 5.09088 29.1192 5.2065 29.0997C6.26425 28.9075 8.16726 28.3888 9.8406 26.9076C11.0905 28.3685 12.8217 28.8888 13.8599 29.0809C14.5708 29.2153 15.3207 28.9075 15.7442 28.3114C16.2441 27.6193 17.2441 25.985 17.1284 23.9656C19.3596 23.85 21.0899 22.9266 21.9743 22.3118C22.6672 21.8314 22.9554 21.0228 22.6672 20.3119C22.6016 20.1519 22.5286 19.9949 22.4484 19.8416C22.9133 19.9768 23.3703 20.1463 23.8132 20.3541C26.1646 21.4556 27.8833 23.4086 28.7035 25.9866C29.7972 29.4942 29.1879 35.2126 26.9537 42.5403C26.2662 44.8058 24.61 46.6182 22.4149 47.5009C21.3361 47.9407 20.1723 48.1326 19.0095 48.0623C17.8466 47.992 16.7144 47.6613 15.6965 47.0947C9.00159 43.384 4.58779 39.6967 2.86914 36.2828C1.7442 34.0252 1.6114 31.455 2.49416 29.0567C2.56945 28.8203 2.55037 28.5639 2.44092 28.3413C2.33147 28.1186 2.14014 27.9469 1.90696 27.8621C1.67379 27.7773 1.41685 27.786 1.18994 27.8864C0.963029 27.9867 0.783732 28.1709 0.689579 28.4005C-0.372858 31.2988 -0.216617 34.4001 1.2208 37.2828C3.07225 40.9623 7.62667 44.8292 14.7669 48.7743C16.2355 49.586 17.8526 50 19.4853 50C20.7196 50 21.9539 49.7656 23.1336 49.2891C25.8756 48.1798 27.938 45.9221 28.7973 43.102C31.18 35.2899 31.7659 29.345 30.4925 25.2671C29.5472 22.3063 27.4692 19.9393 24.6257 18.6112C23.2943 17.9892 21.8546 17.6321 20.3868 17.5597C19.7611 17.1558 19.0734 16.857 18.351 16.6754C18.3331 14.9255 18.5088 13.3998 18.8994 12.1351C19.6728 9.68989 21.3993 7.73688 23.7429 6.63539C24.185 6.42898 24.6426 6.25763 25.1116 6.12292C25.0313 6.27696 24.9583 6.43467 24.8928 6.59555C24.6054 7.30019 24.8858 8.12045 25.5709 8.58527C26.4709 9.20086 28.1926 10.1406 30.4222 10.2453C30.3089 12.1702 31.1932 13.7475 31.808 14.5951C32.0192 14.8872 32.3084 15.114 32.6425 15.2494C32.9765 15.3848 33.342 15.4234 33.697 15.3607C34.7282 15.1771 36.4609 14.6591 37.7171 13.1983C39.3904 14.6724 41.2833 15.195 42.3598 15.3794C42.4691 15.3981 42.5777 15.4075 42.6847 15.4075C43.3722 15.4075 43.98 15.0325 44.2276 14.4256C44.2939 14.261 44.3523 14.0934 44.4026 13.9232C44.6448 14.3451 44.8557 14.7857 45.0307 15.2443C45.9447 17.6738 45.8275 20.2752 44.6167 22.7047C43.0386 25.8374 38.9061 29.3684 32.6564 32.9307C32.1877 33.1963 32.0315 33.7822 32.2893 34.2431C32.4164 34.464 32.6257 34.6257 32.8715 34.693C33.1173 34.7603 33.3798 34.7277 33.6017 34.6025C40.281 30.8058 44.562 27.0873 46.4134 23.4235C47.7884 20.6424 47.9368 17.4941 46.8275 14.5646ZM20.7821 20.7916C19.8978 21.3689 18.2057 22.2149 16.0902 22.0228C15.7637 22.0032 15.4559 22.1188 15.2637 22.3688C15.052 22.5993 14.9747 22.9266 15.0715 23.2344C15.552 24.9452 14.7247 26.4452 14.1864 27.1764C13.2826 27.0225 11.6475 26.5225 10.821 24.9648C10.6679 24.6757 10.3984 24.4843 10.0711 24.4648C10.0328 24.4453 10.014 24.4453 9.97497 24.4453C9.6867 24.4453 9.41797 24.5804 9.24454 24.7913C7.86025 26.4069 6.07207 26.9647 5.01432 27.1764C4.72528 26.3108 4.57138 24.8109 5.82209 23.061C7.78291 20.3877 10.9749 20.1768 11.014 20.1768C11.2249 20.1572 11.4366 20.0807 11.61 19.9455C11.6288 19.9073 13.5138 18.3113 16.1863 18.3113C16.5519 18.3113 16.9363 18.3308 17.3402 18.4073C19.4557 18.7729 20.379 19.9846 20.7821 20.7916ZM42.5363 13.4569C41.4958 13.2584 39.6966 12.6882 38.3178 11.0726C38.2157 10.9541 38.0863 10.8621 37.9408 10.8047C37.7953 10.7473 37.638 10.7261 37.4824 10.7431C37.3269 10.76 37.1778 10.8145 37.048 10.9018C36.9183 10.9892 36.8117 11.1068 36.7374 11.2445C35.9055 12.8046 34.2642 13.3069 33.3666 13.4694C32.8275 12.7257 31.9994 11.2242 32.4854 9.52272C32.5285 9.37222 32.5341 9.21347 32.5019 9.06028C32.4696 8.90709 32.4005 8.76409 32.3004 8.64373C32.2002 8.52338 32.0723 8.4293 31.9275 8.36969C31.7827 8.31008 31.6256 8.28674 31.4698 8.30169C29.3574 8.50324 27.6731 7.66267 26.7802 7.07989C27.1747 6.26119 28.1028 5.06439 30.2206 4.69253C33.4775 4.11288 35.9336 6.20026 35.9562 6.22213C36.1195 6.36353 36.3281 6.44868 36.5437 6.45805C36.575 6.45962 39.7607 6.63929 41.7246 9.34851C42.9871 11.0875 42.8215 12.5936 42.5363 13.4569Z" fill="white"/>
</svg>
