<svg width="40" height="40" viewBox="0 0 40 40" fill="none" xmlns="http://www.w3.org/2000/svg">
<path d="M29.9239 0.144531H10.1439C4.70489 0.144531 0.253906 4.56914 0.253906 9.9802V29.6515C0.253906 35.0607 4.70489 39.4872 10.1439 39.4872H29.9239C35.3629 39.4872 39.8139 35.0607 39.8139 29.6515V9.9802C39.8139 4.56914 35.3629 0.144531 29.9239 0.144531ZM20.0339 28.0119C15.4815 28.0119 11.7921 24.3412 11.7921 19.8159C11.7921 15.2885 15.4815 11.6193 20.0339 11.6193C24.5843 11.6193 28.2757 15.2885 28.2757 19.8159C28.2757 24.3412 24.5843 28.0119 20.0339 28.0119ZM30.7482 11.6193C29.3814 11.6193 28.2757 10.5182 28.2757 9.1604C28.2757 7.80262 29.3814 6.70148 30.7482 6.70148C32.1151 6.70148 33.2207 7.80262 33.2207 9.1604C33.2207 10.5182 32.1151 11.6193 30.7482 11.6193Z" fill="#281910"/>
</svg>
