<svg width="25" height="28" viewBox="0 0 25 28" fill="none" xmlns="http://www.w3.org/2000/svg">
<path d="M20.542 14.1949C20.442 14.0928 20.3227 14.0115 20.1911 13.956C20.0594 13.9004 19.918 13.8716 19.7751 13.8712C19.6322 13.8709 19.4906 13.8989 19.3586 13.9538C19.2267 14.0087 19.107 14.0893 19.0065 14.191C18.906 14.2926 18.8268 14.4132 18.7734 14.5458C18.72 14.6783 18.6935 14.8202 18.6955 14.9631C18.6975 15.106 18.7279 15.2471 18.7849 15.3781C18.842 15.5091 18.9246 15.6275 19.0278 15.7263C19.9415 16.6253 20.6664 17.6978 21.16 18.8808C21.6536 20.0638 21.9059 21.3335 21.9021 22.6153C21.9021 23.9324 18.1264 25.8461 12.2098 25.8461C6.2932 25.8461 2.51751 23.9313 2.51751 22.6132C2.51384 21.3401 2.76276 20.0789 3.24986 18.9027C3.73695 17.7264 4.45255 16.6585 5.35521 15.7607C5.45806 15.6614 5.5401 15.5426 5.59654 15.4112C5.65299 15.2798 5.68269 15.1385 5.68394 14.9955C5.68518 14.8525 5.65793 14.7107 5.60378 14.5783C5.54963 14.446 5.46967 14.3257 5.36855 14.2246C5.26744 14.1235 5.1472 14.0435 5.01485 13.9894C4.8825 13.9352 4.74069 13.908 4.5977 13.9092C4.4547 13.9105 4.31339 13.9402 4.182 13.9966C4.05061 14.0531 3.93178 14.1351 3.83244 14.238C2.72898 15.3356 1.85421 16.6412 1.25879 18.0792C0.66337 19.5171 0.359124 21.059 0.363667 22.6153C0.363667 26.1132 6.46659 28 12.2098 28C17.953 28 24.056 26.1132 24.056 22.6153C24.0607 21.0485 23.7523 19.4964 23.1489 18.0504C22.5455 16.6044 21.6591 15.2936 20.542 14.1949Z" fill="white"/>
<path d="M12.2098 15.0769C13.7008 15.0769 15.1582 14.6348 16.3979 13.8065C17.6376 12.9781 18.6038 11.8008 19.1744 10.4233C19.745 9.04583 19.8943 7.5301 19.6034 6.06778C19.3125 4.60546 18.5946 3.26224 17.5403 2.20797C16.486 1.15369 15.1428 0.435726 13.6805 0.144853C12.2181 -0.14602 10.7024 0.00326629 9.32494 0.573834C7.94747 1.1444 6.77012 2.11063 5.94178 3.35032C5.11345 4.59001 4.67133 6.0475 4.67133 7.53846C4.67361 9.53709 5.46857 11.4532 6.88181 12.8664C8.29505 14.2797 10.2112 15.0746 12.2098 15.0769ZM12.2098 2.15385C13.2748 2.15385 14.3158 2.46965 15.2013 3.06132C16.0868 3.65299 16.777 4.49395 17.1845 5.47786C17.5921 6.46177 17.6987 7.54444 17.4909 8.58895C17.2832 9.63346 16.7703 10.5929 16.0173 11.346C15.2642 12.099 14.3048 12.6118 13.2603 12.8196C12.2158 13.0274 11.1331 12.9207 10.1492 12.5132C9.16527 12.1056 8.32431 11.4155 7.73264 10.53C7.14097 9.6445 6.82517 8.60344 6.82517 7.53846C6.82688 6.1109 7.39474 4.7423 8.40418 3.73285C9.41362 2.72341 10.7822 2.15556 12.2098 2.15385Z" fill="white"/>
</svg>
