<svg width="271" height="68" viewBox="0 0 271 68" fill="none" xmlns="http://www.w3.org/2000/svg">
<path fill-rule="evenodd" clip-rule="evenodd" d="M144.34 38.4472C144.65 37.5998 145.029 36.6295 145.5 35.5001C145.854 34.65 146.159 33.9807 146.418 33.4095L146.419 33.4079L146.419 33.4077C146.765 32.6462 147.032 32.059 147.233 31.4501C147.911 29.3998 147.843 27.1031 147.546 17.0729L147.5 15.5001C147.175 4.45974 160 6.50004 161.5 11.0001C162.606 14.3192 160.501 26.0056 159.501 29.5056C161.501 28.0056 167.601 25.3052 172.001 28.5052C176.011 31.4212 176.566 35.3999 176.572 38.892C177.499 36.4082 179.532 33.4832 183 31.0059C189.667 26.2434 202.231 26.4705 205.571 33.8465C207.167 30.3864 212.621 26.5659 220.5 30.5055C223.392 28.5775 230.465 26.6497 234.554 32.7837C235.123 30.9205 238.777 27.8901 248 27.5058C260 27.0058 264.499 30.5052 265.5 33.5056C266.306 35.9242 265.5 39.5065 262 40.5065C263.667 41.3398 266.417 44.0062 266 49.0062C265.583 54.0062 264.5 58.0062 253.5 59.5062C243.946 60.809 235.236 56.3905 233.661 51.1725C233.61 51.2855 233.556 51.3965 233.502 51.5054C233.467 51.5668 233.431 51.6301 233.395 51.6949C232.74 52.8601 231.815 54.5054 228.499 54.5054C227.341 57.8153 224.047 64.4121 204.908 59.6088C202.099 62.5623 185.035 64.9361 179.5 59.0056C179.127 58.606 178.785 58.1991 178.472 57.7866C177.468 60.4557 174.842 61.5052 169.002 61.5052C164.002 61.5052 161.002 60.5052 159.502 59.0052C157.53 61.4695 150.893 64.1281 141.893 59.2235C137.882 61.5251 129.42 64.3915 120.033 61.5033C117.055 60.5871 114.812 59.3038 113.165 57.8396C112.411 59.2597 110.769 60.4293 107.498 61.0065C101.502 62.0647 96.0238 61.0178 93.8292 57.5813C92.1334 60.0342 89.3436 61.6566 86.1543 61.3275C84.1265 61.1182 81.8713 60.4285 79.4995 59.0053C78.1856 60.1878 73.661 61.8054 68.8649 59.8897C67.5013 63.472 63.925 66.8734 59.4998 67.5056C48.9998 69.0056 42.9968 64.5062 42.4968 56.5062C39.8308 56.173 34.3995 54.9068 33.9971 52.5079C30.662 54.8414 21.3981 58.7035 11.0003 55.5041C-1.99971 51.5041 -1.00232 40.5076 2.49866 38.0059C-0.501472 35.3392 -2.08842 27.1918 7.49983 23.5056C18.9885 19.0887 30.8686 22.0873 34.5097 27.332C36.2971 24.7015 42.3367 22.4891 49.9968 24.5059C52.5831 23.2138 59.1702 22.6638 63.2482 26.3688C64.5145 27.5192 64.9424 29.256 65.0173 30.9712C66.0966 28.9718 74.5312 26.0283 79.9993 30.0055C80.1074 29.9623 80.223 29.9153 80.3457 29.8654C82.1647 29.1263 85.5467 27.752 89.3071 28.5072C91.1698 28.8813 92.6903 30.0499 93.7137 31.5976C95.1413 29.0065 96.5485 29.0064 97.4998 29.0064C97.28 28.8414 97.0941 28.7171 96.9388 28.6133C96.1526 28.0875 96.152 28.0871 96.4998 26C97.2022 21.7862 98.9998 17.5 106.5 19.4999C114 21.4998 110.502 27.0063 109.5 28.5064C109.833 28.3397 111.5 29.5102 112.498 31.5065C112.528 31.5658 112.568 31.6343 112.616 31.7134C113.425 31.2585 114.38 30.851 115.5 30.5058C128.467 26.5085 142.5 30.0056 144.532 35.5054L144.34 38.4472Z" fill="#730023"/>
<path fill-rule="evenodd" clip-rule="evenodd" d="M146.941 23.26C146.749 21.7796 146.445 20.3321 146 18.9997C143.5 11.4997 147.001 7.50005 152.001 6.00001C155.501 4.94998 160.725 5.70732 163.001 9.50001C164.801 12.5 164.501 16 163.501 19.5C165.501 18 171.601 15.2996 176.001 18.4996C180.011 21.4156 180.566 25.3943 180.572 28.8864C181.499 26.4025 183.532 23.4776 187 21.0003C193.667 16.2378 206.231 16.4649 209.571 23.8409C211.167 20.3808 216.621 16.5603 224.5 20.4999C227.455 18.5298 234.776 16.5599 238.818 23.1915C239.904 21.3385 243.694 18.8463 252 18.5002C264 18.0002 268.499 21.4996 269.5 24.5C270.306 26.9186 269.5 30.5008 266 31.5008C267.666 32.3342 270.416 35.0006 270 40.0006C269.583 45.0006 268.5 49.0006 257.5 50.5006C247.543 51.8584 238.502 47.0017 237.501 41.5023C237.466 41.563 237.431 41.6254 237.395 41.6893C236.74 42.8545 235.815 44.4998 232.499 44.4998C231.341 47.8097 228.047 54.4065 208.908 49.6032C206.099 52.5567 189.035 54.9305 183.5 49C183.127 48.6004 182.785 48.1935 182.472 47.781C181.468 50.4501 178.842 51.4996 173.002 51.4996C168.002 51.4996 165.002 50.4996 163.502 48.9996C161.53 51.4639 154.893 54.1225 145.893 49.2179C141.882 51.5195 133.42 54.3859 124.033 51.4977C121.055 50.5815 118.812 49.2982 117.165 47.834C116.411 49.2541 114.769 50.4237 111.498 51.0009C105.502 52.0591 100.024 51.0122 97.8292 47.5757C96.1334 50.0286 93.3436 51.651 90.1543 51.3219C88.1265 51.1126 85.8713 50.4229 83.4995 48.9997C81.9491 50.395 75.9283 52.3962 70.2661 48.4833C69.9067 52.3047 67.7949 56.1776 63.4968 57.5003C50.1076 61.6207 46.9968 54.5006 46.4968 46.5006C43.8308 46.1674 38.3994 44.9012 37.9971 42.5023C34.662 44.8358 25.3981 48.6979 15.0003 45.4985C2.00029 41.4985 2.99768 30.502 6.49866 28.0003C3.49853 25.3336 1.91158 17.1862 11.4998 13.5C22.9886 9.08312 34.8686 12.0817 38.5097 17.3265C40.2971 14.696 46.3367 12.4835 53.9968 14.5003C56.5831 13.2082 63.1702 12.6583 67.2482 16.3632C68.5145 17.5136 68.9424 19.2504 69.0173 20.9656C70.0966 18.9662 78.5312 16.0227 83.9993 19.9999C84.1074 19.9567 84.223 19.9097 84.3457 19.8598C86.1647 19.1207 89.5467 17.7464 93.3071 18.5016C95.1698 18.8757 96.6903 20.0443 97.7137 21.592C99.1413 19.0009 100.549 19.0008 101.5 19.0008C101.315 18.8621 101.116 18.7235 100.911 18.5809C99.637 17.6945 98.141 16.6536 98.4998 14.5008C99.2022 10.287 103 7.00004 110.5 8.99992C118 10.9998 114.502 17.0007 113.5 18.5008C113.833 18.3341 115.5 19.5046 116.498 21.5009C116.528 21.5602 116.568 21.6287 116.616 21.7078C117.425 21.2529 118.38 20.8454 119.5 20.5002C130.595 17.0799 142.471 19.1466 146.941 23.26Z" fill="white"/>
<path d="M22.144 19.588C21.728 19.588 21.416 19.7267 21.208 20.004C21 20.2813 20.896 20.576 20.896 20.888C20.896 21.5467 21.2427 22.188 21.936 22.812C22.6293 23.4013 23.4787 24.0253 24.484 24.684C25.524 25.308 26.6333 25.984 27.812 26.712C29.0253 27.44 30.1347 28.2547 31.14 29.156C32.18 30.0227 33.0293 31.0107 33.688 32.12C34.3813 33.2293 34.728 34.4773 34.728 35.864C34.728 37.2507 34.3987 38.36 33.74 39.192C33.0813 39.9893 32.1973 40.596 31.088 41.012C29.9787 41.428 28.6787 41.7053 27.188 41.844C25.732 41.948 24.172 42 22.508 42C21.3987 42 20.116 41.9307 18.66 41.792C17.204 41.6533 15.8173 41.3413 14.5 40.856C13.2173 40.3707 12.1253 39.6773 11.224 38.776C10.3227 37.84 9.872 36.592 9.872 35.032C9.872 33.576 10.3227 32.5187 11.224 31.86C12.1253 31.1667 13.1653 30.82 14.344 30.82C15.488 30.82 16.4067 31.184 17.1 31.912C17.7933 32.6053 18.3827 33.3853 18.868 34.252C19.388 35.084 19.856 35.864 20.272 36.592C20.688 37.2853 21.1733 37.632 21.728 37.632C22.0053 37.632 22.248 37.476 22.456 37.164C22.6987 36.852 22.82 36.384 22.82 35.76C22.82 34.9973 22.4733 34.2867 21.78 33.628C21.1213 32.9693 20.2893 32.3107 19.284 31.652C18.3133 30.9933 17.2387 30.3347 16.06 29.676C14.8813 29.0173 13.7893 28.3067 12.784 27.544C11.8133 26.7813 10.9813 25.9667 10.288 25.1C9.62933 24.1987 9.3 23.2107 9.3 22.136C9.3 20.8533 9.59467 19.796 10.184 18.964C10.808 18.132 11.692 17.4733 12.836 16.988C13.98 16.5027 15.384 16.1733 17.048 16C18.712 15.8267 20.6013 15.74 22.716 15.74C23.652 15.74 24.848 15.844 26.304 16.052C27.76 16.2253 29.164 16.5373 30.516 16.988C31.868 17.4387 33.0293 18.0627 34 18.86C35.0053 19.6227 35.508 20.6107 35.508 21.824C35.508 22.4827 35.3 23.0547 34.884 23.54C34.5027 23.9907 34 24.372 33.376 24.684C32.7867 24.996 32.1453 25.2213 31.452 25.36C30.7587 25.4987 30.1173 25.568 29.528 25.568C28.5573 25.568 27.7773 25.4293 27.188 25.152C26.5987 24.84 26.1133 24.4587 25.732 24.008C25.3853 23.5573 25.0907 23.0893 24.848 22.604C24.64 22.084 24.4147 21.5987 24.172 21.148C23.964 20.6973 23.704 20.3333 23.392 20.056C23.08 19.744 22.664 19.588 22.144 19.588Z" fill="url(#paint0_linear_1169_103)"/>
<path d="M46.608 42.208C45.1173 42.208 43.8 41.8787 42.656 41.22C41.512 40.5613 40.5413 39.66 39.744 38.516C38.9467 37.3373 38.34 35.968 37.924 34.408C37.508 32.8133 37.3 31.0973 37.3 29.26C37.3 27.3533 37.5427 25.5853 38.028 23.956C38.5133 22.3267 39.2067 20.9227 40.108 19.744C41.0093 18.5307 42.136 17.5947 43.488 16.936C44.84 16.2427 46.3653 15.896 48.064 15.896C49.0693 15.896 49.884 16.0173 50.508 16.26C51.1667 16.5027 51.704 16.78 52.12 17.092C52.536 17.404 52.8653 17.6987 53.108 17.976C53.3853 18.2187 53.6453 18.34 53.888 18.34C54.0613 18.34 54.252 18.2187 54.46 17.976C54.7027 17.7333 55.032 17.456 55.448 17.144C55.864 16.832 56.4013 16.5547 57.06 16.312C57.7533 16.0347 58.6547 15.896 59.764 15.896C60.492 15.896 61.1853 16 61.844 16.208C62.5027 16.3813 63.092 16.6933 63.612 17.144C64.132 17.5947 64.548 18.184 64.86 18.912C65.172 19.6053 65.328 20.472 65.328 21.512C65.328 22.7947 65.1547 24.008 64.808 25.152C64.4613 26.2613 64.08 27.44 63.664 28.688C63.2827 29.9013 62.9187 31.2533 62.572 32.744C62.2253 34.2 62.052 35.916 62.052 37.892C62.052 38.7933 62.1907 39.7467 62.468 40.752C62.7453 41.7573 63.04 42.78 63.352 43.82C63.6987 44.86 64.0107 45.8827 64.288 46.888C64.5653 47.928 64.704 48.9333 64.704 49.904C64.704 51.048 64.4787 51.9493 64.028 52.608C63.612 53.2667 63.0573 53.752 62.364 54.064C61.7053 54.4107 60.9427 54.6187 60.076 54.688C59.2093 54.792 58.3427 54.844 57.476 54.844C56.5747 54.844 55.708 54.7573 54.876 54.584C54.044 54.4453 53.316 54.1853 52.692 53.804C52.068 53.4573 51.5653 52.9547 51.184 52.296C50.8373 51.672 50.664 50.892 50.664 49.956C50.664 49.0893 50.872 47.9973 51.288 46.68C51.704 45.3627 52.1027 44.08 52.484 42.832C52.8653 41.6187 53.1253 40.5787 53.264 39.712C53.4027 38.8107 53.212 38.36 52.692 38.36C52.276 38.36 51.912 38.568 51.6 38.984C51.3227 39.3653 50.9933 39.7987 50.612 40.284C50.2307 40.7693 49.728 41.22 49.104 41.636C48.48 42.0173 47.648 42.208 46.608 42.208ZM51.184 30.352C51.8427 30.352 52.3973 29.9187 52.848 29.052C53.2987 28.1853 53.524 27.128 53.524 25.88C53.524 24.632 53.2987 23.5747 52.848 22.708C52.3973 21.8067 51.8427 21.356 51.184 21.356C50.56 21.356 50.0227 21.8067 49.572 22.708C49.1213 23.5747 48.896 24.632 48.896 25.88C48.896 27.128 49.1213 28.1853 49.572 29.052C50.0227 29.9187 50.56 30.352 51.184 30.352Z" fill="url(#paint1_linear_1169_103)"/>
<path d="M70.34 36.6C70.34 34.7973 70.1667 33.0293 69.82 31.296C69.4733 29.5627 69.3 27.812 69.3 26.044C69.3 24.9693 69.4907 24.0853 69.872 23.392C70.288 22.6987 70.808 22.1613 71.432 21.78C72.0907 21.3987 72.8533 21.1387 73.72 21C74.5867 20.8267 75.488 20.74 76.424 20.74C78.088 20.74 79.4227 21.208 80.428 22.144C81.4333 23.08 81.936 24.4147 81.936 26.148C81.936 26.9107 81.8667 27.656 81.728 28.384C81.5893 29.0773 81.416 29.788 81.208 30.516C81.0347 31.244 80.8787 31.972 80.74 32.7C80.6013 33.428 80.532 34.1733 80.532 34.936C80.532 35.248 80.532 35.612 80.532 36.028C80.5667 36.4093 80.636 36.7733 80.74 37.12C80.8787 37.432 81.0693 37.7093 81.312 37.952C81.5547 38.16 81.884 38.264 82.3 38.264C83.2013 38.264 83.8947 37.9 84.38 37.172C84.9 36.4093 85.16 35.4387 85.16 34.26C85.16 33.532 85.0907 32.7867 84.952 32.024C84.848 31.2267 84.7093 30.4467 84.536 29.684C84.3973 28.8867 84.2587 28.1067 84.12 27.344C83.9813 26.5813 83.912 25.836 83.912 25.108C83.912 24.276 84.068 23.5827 84.38 23.028C84.7267 22.4387 85.16 21.988 85.68 21.676C86.2347 21.3293 86.8413 21.0867 87.5 20.948C88.1933 20.8093 88.8867 20.74 89.58 20.74C90.62 20.74 91.556 20.8093 92.388 20.948C93.22 21.0867 93.9307 21.364 94.52 21.78C95.144 22.196 95.612 22.82 95.924 23.652C96.236 24.4493 96.392 25.524 96.392 26.876C96.392 27.6387 96.288 28.4013 96.08 29.164C95.9067 29.892 95.6987 30.6373 95.456 31.4C95.248 32.128 95.04 32.8733 94.832 33.636C94.6587 34.364 94.572 35.092 94.572 35.82C94.572 36.5827 94.6587 37.2587 94.832 37.848C95.04 38.4373 95.248 38.992 95.456 39.512C95.664 40.032 95.8547 40.552 96.028 41.072C96.236 41.5573 96.34 42.112 96.34 42.736C96.34 44.4347 95.8373 45.5787 94.832 46.168C93.8613 46.7227 92.5613 47 90.932 47C89.2333 47 88.02 46.792 87.292 46.376C86.564 45.96 86.0613 45.492 85.784 44.972C85.5067 44.452 85.316 43.984 85.212 43.568C85.108 43.152 84.848 42.944 84.432 42.944C84.1893 42.944 83.9467 43.152 83.704 43.568C83.4613 43.984 83.0973 44.452 82.612 44.972C82.1613 45.492 81.5027 45.96 80.636 46.376C79.7693 46.792 78.556 47 76.996 47C76.476 47 75.7827 46.948 74.916 46.844C74.084 46.74 73.252 46.532 72.42 46.22C71.6227 45.908 70.9293 45.4573 70.34 44.868C69.7507 44.2787 69.456 43.4813 69.456 42.476C69.456 41.9213 69.4907 41.4187 69.56 40.968C69.664 40.4827 69.768 40.032 69.872 39.616C70.0107 39.1653 70.1147 38.6973 70.184 38.212C70.288 37.7267 70.34 37.1893 70.34 36.6Z" fill="url(#paint2_linear_1169_103)"/>
<path d="M102.276 34.78C102.276 33.948 102.207 33.1507 102.068 32.388C101.929 31.5907 101.756 30.828 101.548 30.1C101.375 29.3373 101.219 28.5747 101.08 27.812C100.941 27.0493 100.872 26.2693 100.872 25.472C100.872 24.5013 101.063 23.7213 101.444 23.132C101.825 22.508 102.311 22.0227 102.9 21.676C103.489 21.3293 104.148 21.0867 104.876 20.948C105.639 20.8093 106.384 20.74 107.112 20.74C108.88 20.74 110.336 21.1387 111.48 21.936C112.624 22.6987 113.196 23.8947 113.196 25.524C113.196 26.1827 113.109 26.9453 112.936 27.812C112.797 28.644 112.624 29.5107 112.416 30.412C112.243 31.2787 112.069 32.1453 111.896 33.012C111.757 33.8787 111.688 34.6587 111.688 35.352C111.688 35.9067 111.775 36.5133 111.948 37.172C112.121 37.8307 112.312 38.5067 112.52 39.2C112.763 39.8587 112.971 40.5173 113.144 41.176C113.317 41.8 113.404 42.3893 113.404 42.944C113.404 44.2613 112.936 45.2667 112 45.96C111.099 46.6533 109.452 47 107.06 47C106.436 47 105.725 46.948 104.928 46.844C104.165 46.74 103.437 46.532 102.744 46.22C102.051 45.908 101.461 45.492 100.976 44.972C100.525 44.452 100.3 43.776 100.3 42.944C100.3 42.3547 100.404 41.7133 100.612 41.02C100.82 40.3267 101.045 39.6333 101.288 38.94C101.531 38.212 101.756 37.5013 101.964 36.808C102.172 36.08 102.276 35.404 102.276 34.78ZM106.852 10.6C108.551 10.6 109.937 10.9293 111.012 11.588C112.087 12.2467 112.711 13.1827 112.884 14.396C112.988 15.1933 112.884 15.8867 112.572 16.476C112.26 17.0307 111.809 17.516 111.22 17.932C110.665 18.3133 110.007 18.608 109.244 18.816C108.481 18.9893 107.701 19.076 106.904 19.076C106.141 19.076 105.379 19.0067 104.616 18.868C103.853 18.6947 103.177 18.4347 102.588 18.088C102.033 17.7413 101.565 17.308 101.184 16.788C100.837 16.2333 100.664 15.5747 100.664 14.812C100.664 13.7027 101.149 12.732 102.12 11.9C103.091 11.0333 104.668 10.6 106.852 10.6Z" fill="url(#paint3_linear_1169_103)"/>
<path d="M149.328 27.032C149.328 25.264 149.137 23.5653 148.756 21.936C148.409 20.272 148.149 18.556 147.976 16.788C147.803 15.1933 147.855 13.8587 148.132 12.784C148.444 11.6747 148.912 10.7733 149.536 10.08C150.195 9.38667 150.957 8.884 151.824 8.572C152.725 8.26 153.679 8.104 154.684 8.104C157.18 8.104 159.035 8.64133 160.248 9.716C161.461 10.7907 162.051 12.576 162.016 15.072C162.016 16.0773 161.912 17.152 161.704 18.296C161.496 19.44 161.253 20.5667 160.976 21.676C160.733 22.7853 160.473 23.8427 160.196 24.848C159.953 25.8533 159.78 26.7547 159.676 27.552C159.641 27.6907 159.624 27.76 159.624 27.76C159.659 27.7253 159.763 27.604 159.936 27.396C160.352 26.876 160.872 26.2693 161.496 25.576C162.12 24.8827 162.848 24.2067 163.68 23.548C164.512 22.8893 165.448 22.3347 166.488 21.884C167.528 21.4333 168.655 21.208 169.868 21.208C171.151 21.208 172.399 21.5027 173.612 22.092C174.825 22.6813 175.727 23.7387 176.316 25.264C176.593 25.9227 176.767 26.5987 176.836 27.292C176.905 27.9853 176.923 28.696 176.888 29.424C176.888 30.1173 176.853 30.8107 176.784 31.504C176.749 32.1627 176.732 32.804 176.732 33.428C176.732 34.052 176.836 34.6933 177.044 35.352C177.287 36.0107 177.529 36.6867 177.772 37.38C178.049 38.0387 178.292 38.7147 178.5 39.408C178.743 40.0667 178.864 40.7253 178.864 41.384C178.864 42.528 178.656 43.464 178.24 44.192C177.824 44.92 177.252 45.492 176.524 45.908C175.831 46.324 174.999 46.6187 174.028 46.792C173.092 46.9307 172.104 47 171.064 47C168.984 47 167.407 46.6533 166.332 45.96C165.292 45.2667 164.772 43.984 164.772 42.112C164.772 40.864 164.876 39.6333 165.084 38.42C165.292 37.2067 165.5 36.0627 165.708 34.988C165.951 33.9133 166.176 32.9253 166.384 32.024C166.592 31.088 166.696 30.2907 166.696 29.632C166.696 28.9733 166.575 28.4707 166.332 28.124C166.089 27.7427 165.639 27.552 164.98 27.552C164.425 27.552 163.853 27.8987 163.264 28.592C162.675 29.2507 162.155 30.204 161.704 31.452C161.288 32.6653 161.011 34.1213 160.872 35.82C160.733 37.484 160.837 39.304 161.184 41.28C161.427 42.4933 161.461 43.4813 161.288 44.244C161.115 44.972 160.751 45.544 160.196 45.96C159.641 46.376 158.896 46.6533 157.96 46.792C157.024 46.9307 155.915 47 154.632 47C153.211 47 152.032 46.896 151.096 46.688C150.16 46.4453 149.415 46.0987 148.86 45.648C148.305 45.1973 147.907 44.6253 147.664 43.932C147.456 43.204 147.352 42.372 147.352 41.436C147.352 40.6733 147.456 39.7547 147.664 38.68C147.872 37.6053 148.097 36.444 148.34 35.196C148.617 33.9133 148.843 32.5787 149.016 31.192C149.224 29.8053 149.328 28.4187 149.328 27.032Z" fill="url(#paint4_linear_1169_103)"/>
<path d="M183.3 34.416C183.3 33.064 183.525 31.5907 183.976 29.996C184.461 28.4013 185.276 26.928 186.42 25.576C187.564 24.1893 189.107 23.0453 191.048 22.144C192.989 21.208 195.433 20.74 198.38 20.74C201.5 20.74 203.892 21.4333 205.556 22.82C207.255 24.2067 208.104 26.0093 208.104 28.228C208.104 29.58 207.723 30.724 206.96 31.66C206.232 32.596 205.313 33.4107 204.204 34.104C203.129 34.7627 201.968 35.3347 200.72 35.82C199.507 36.2707 198.415 36.7213 197.444 37.172C196.473 37.588 195.728 38.0387 195.208 38.524C194.688 39.0093 194.601 39.5813 194.948 40.24C195.087 40.6213 195.416 40.812 195.936 40.812C196.456 40.812 197.063 40.6387 197.756 40.292C198.484 39.9453 199.247 39.564 200.044 39.148C200.876 38.732 201.708 38.3507 202.54 38.004C203.407 37.6573 204.239 37.484 205.036 37.484C205.833 37.484 206.561 37.7093 207.22 38.16C207.879 38.576 208.208 39.408 208.208 40.656C208.208 42.632 207.22 44.192 205.244 45.336C203.268 46.4453 200.391 47 196.612 47C194.601 47 192.764 46.688 191.1 46.064C189.471 45.4053 188.067 44.504 186.888 43.36C185.744 42.216 184.86 40.8813 184.236 39.356C183.612 37.8307 183.3 36.184 183.3 34.416ZM197.6 30.828C198.189 30.828 198.675 30.5333 199.056 29.944C199.437 29.32 199.628 28.5573 199.628 27.656C199.628 26.7547 199.437 25.992 199.056 25.368C198.675 24.744 198.189 24.432 197.6 24.432C197.08 24.432 196.612 24.744 196.196 25.368C195.78 25.992 195.572 26.7547 195.572 27.656C195.572 28.5573 195.78 29.32 196.196 29.944C196.612 30.5333 197.08 30.828 197.6 30.828Z" fill="url(#paint5_linear_1169_103)"/>
<path d="M212.3 42.944C212.3 42.1467 212.369 41.4013 212.508 40.708C212.647 39.98 212.803 39.2693 212.976 38.576C213.184 37.8827 213.357 37.1893 213.496 36.496C213.635 35.768 213.704 35.0227 213.704 34.26C213.704 33.532 213.635 32.8213 213.496 32.128C213.392 31.4 213.253 30.6893 213.08 29.996C212.941 29.268 212.803 28.5573 212.664 27.864C212.56 27.136 212.508 26.408 212.508 25.68C212.508 24.432 212.751 23.4787 213.236 22.82C213.756 22.1613 214.363 21.676 215.056 21.364C215.749 21.052 216.477 20.8787 217.24 20.844C218.003 20.7747 218.644 20.74 219.164 20.74C220.204 20.74 221.036 20.8613 221.66 21.104C222.284 21.312 222.769 21.5547 223.116 21.832C223.497 22.1093 223.792 22.3693 224 22.612C224.208 22.82 224.381 22.924 224.52 22.924C224.797 22.924 225.109 22.82 225.456 22.612C225.803 22.3693 226.201 22.1093 226.652 21.832C227.137 21.5547 227.692 21.312 228.316 21.104C228.94 20.8613 229.668 20.74 230.5 20.74C231.332 20.74 232.147 20.9133 232.944 21.26C233.776 21.6067 234.504 22.1093 235.128 22.768C235.787 23.4267 236.324 24.224 236.74 25.16C237.156 26.096 237.364 27.1533 237.364 28.332C237.364 29.3027 237.295 30.204 237.156 31.036C237.017 31.868 236.74 32.596 236.324 33.22C235.943 33.844 235.405 34.364 234.712 34.78C234.019 35.1613 233.117 35.4213 232.008 35.56C231.245 35.664 230.5 35.664 229.772 35.56C229.079 35.456 228.472 35.2307 227.952 34.884C227.432 34.5373 227.033 34.0867 226.756 33.532C226.479 32.9427 226.409 32.2147 226.548 31.348C226.617 31.0013 226.687 30.5853 226.756 30.1C226.825 29.58 226.877 29.0947 226.912 28.644C226.981 28.1587 226.981 27.7253 226.912 27.344C226.877 26.9627 226.756 26.7373 226.548 26.668C226.097 26.4947 225.664 26.6853 225.248 27.24C224.867 27.76 224.52 28.4707 224.208 29.372C223.931 30.2387 223.705 31.2093 223.532 32.284C223.359 33.324 223.272 34.2773 223.272 35.144C223.272 35.8027 223.376 36.4613 223.584 37.12C223.827 37.744 224.069 38.368 224.312 38.992C224.589 39.616 224.832 40.24 225.04 40.864C225.248 41.488 225.352 42.112 225.352 42.736C225.352 44.192 224.797 45.2667 223.688 45.96C222.613 46.6533 220.811 47 218.28 47C217.517 47 216.772 46.948 216.044 46.844C215.351 46.7053 214.727 46.48 214.172 46.168C213.617 45.856 213.167 45.44 212.82 44.92C212.473 44.4 212.3 43.7413 212.3 42.944Z" fill="url(#paint6_linear_1169_103)"/>
<path d="M254.144 24.588C253.728 24.588 253.416 24.7267 253.208 25.004C253 25.2813 252.896 25.576 252.896 25.888C252.896 26.5467 253.243 27.188 253.936 27.812C254.629 28.4013 255.479 29.0253 256.484 29.684C257.524 30.308 258.633 30.984 259.812 31.712C261.025 32.44 262.135 33.2547 263.14 34.156C264.18 35.0227 265.029 36.0107 265.688 37.12C266.381 38.2293 266.728 39.4773 266.728 40.864C266.728 42.2507 266.399 43.36 265.74 44.192C265.081 44.9893 264.197 45.596 263.088 46.012C261.979 46.428 260.679 46.7053 259.188 46.844C257.732 46.948 256.172 47 254.508 47C253.399 47 252.116 46.9307 250.66 46.792C249.204 46.6533 247.817 46.3413 246.5 45.856C245.217 45.3707 244.125 44.6773 243.224 43.776C242.323 42.84 241.872 41.592 241.872 40.032C241.872 38.576 242.323 37.5187 243.224 36.86C244.125 36.1667 245.165 35.82 246.344 35.82C247.488 35.82 248.407 36.184 249.1 36.912C249.793 37.6053 250.383 38.3853 250.868 39.252C251.388 40.084 251.856 40.864 252.272 41.592C252.688 42.2853 253.173 42.632 253.728 42.632C254.005 42.632 254.248 42.476 254.456 42.164C254.699 41.852 254.82 41.384 254.82 40.76C254.82 39.9973 254.473 39.2867 253.78 38.628C253.121 37.9693 252.289 37.3107 251.284 36.652C250.313 35.9933 249.239 35.3347 248.06 34.676C246.881 34.0173 245.789 33.3067 244.784 32.544C243.813 31.7813 242.981 30.9667 242.288 30.1C241.629 29.1987 241.3 28.2107 241.3 27.136C241.3 25.8533 241.595 24.796 242.184 23.964C242.808 23.132 243.692 22.4733 244.836 21.988C245.98 21.5027 247.384 21.1733 249.048 21C250.712 20.8267 252.601 20.74 254.716 20.74C255.652 20.74 256.848 20.844 258.304 21.052C259.76 21.2253 261.164 21.5373 262.516 21.988C263.868 22.4387 265.029 23.0627 266 23.86C267.005 24.6227 267.508 25.6107 267.508 26.824C267.508 27.4827 267.3 28.0547 266.884 28.54C266.503 28.9907 266 29.372 265.376 29.684C264.787 29.996 264.145 30.2213 263.452 30.36C262.759 30.4987 262.117 30.568 261.528 30.568C260.557 30.568 259.777 30.4293 259.188 30.152C258.599 29.84 258.113 29.4587 257.732 29.008C257.385 28.5573 257.091 28.0893 256.848 27.604C256.64 27.084 256.415 26.5987 256.172 26.148C255.964 25.6973 255.704 25.3333 255.392 25.056C255.08 24.744 254.664 24.588 254.144 24.588Z" fill="url(#paint7_linear_1169_103)"/>
<path d="M131.176 25.588C130.76 25.588 130.448 25.7267 130.24 26.004C130.032 26.2813 129.928 26.576 129.928 26.888C129.928 27.5467 130.275 28.188 130.968 28.812C131.662 29.4013 132.511 30.0253 133.516 30.684C134.556 31.308 135.666 31.984 136.844 32.712C138.058 33.44 139.167 34.2547 140.172 35.156C141.212 36.0227 142.062 37.0107 142.72 38.12C143.414 39.2293 143.76 40.4773 143.76 41.864C143.76 43.2507 143.431 44.36 142.772 45.192C142.114 45.9893 141.23 46.596 140.12 47.012C139.011 47.428 137.711 47.7053 136.22 47.844C134.764 47.948 133.204 48 131.54 48C130.431 48 129.148 47.9307 127.692 47.792C126.236 47.6533 124.85 47.3413 123.532 46.856C122.25 46.3707 121.158 45.6773 120.256 44.776C119.355 43.84 118.904 42.592 118.904 41.032C118.904 39.576 119.355 38.5187 120.256 37.86C121.158 37.1667 122.198 36.82 123.376 36.82C124.52 36.82 125.439 37.184 126.132 37.912C126.826 38.6053 127.415 39.3853 127.9 40.252C128.42 41.084 128.888 41.864 129.304 42.592C129.72 43.2853 130.206 43.632 130.76 43.632C131.038 43.632 131.28 43.476 131.488 43.164C131.731 42.852 131.852 42.384 131.852 41.76C131.852 40.9973 131.506 40.2867 130.812 39.628C130.154 38.9693 129.322 38.3107 128.316 37.652C127.346 36.9933 126.271 36.3347 125.092 35.676C123.914 35.0173 122.822 34.3067 121.816 33.544C120.846 32.7813 120.014 31.9667 119.32 31.1C118.662 30.1987 118.332 29.2107 118.332 28.136C118.332 26.8533 118.627 25.796 119.216 24.964C119.84 24.132 120.724 23.4733 121.868 22.988C123.012 22.5027 124.416 22.1733 126.08 22C127.744 21.8267 129.634 21.74 131.748 21.74C132.684 21.74 133.88 21.844 135.336 22.052C136.792 22.2253 138.196 22.5373 139.548 22.988C140.9 23.4387 142.062 24.0627 143.032 24.86C144.038 25.6227 144.54 26.6107 144.54 27.824C144.54 28.4827 144.332 29.0547 143.916 29.54C143.535 29.9907 143.032 30.372 142.408 30.684C141.819 30.996 141.178 31.2213 140.484 31.36C139.791 31.4987 139.15 31.568 138.56 31.568C137.59 31.568 136.81 31.4293 136.22 31.152C135.631 30.84 135.146 30.4587 134.764 30.008C134.418 29.5573 134.123 29.0893 133.88 28.604C133.672 28.084 133.447 27.5987 133.204 27.148C132.996 26.6973 132.736 26.3333 132.424 26.056C132.112 25.744 131.696 25.588 131.176 25.588Z" fill="url(#paint8_linear_1169_103)"/>
<defs>
<linearGradient id="paint0_linear_1169_103" x1="22.5" y1="0" x2="22.5" y2="58" gradientUnits="userSpaceOnUse">
<stop offset="0.390625" stop-color="#FA0C45"/>
<stop offset="1" stop-color="#B1000B"/>
</linearGradient>
<linearGradient id="paint1_linear_1169_103" x1="51.5" y1="0" x2="51.5" y2="58" gradientUnits="userSpaceOnUse">
<stop offset="0.390625" stop-color="#FA0C45"/>
<stop offset="1" stop-color="#B1000B"/>
</linearGradient>
<linearGradient id="paint2_linear_1169_103" x1="83" y1="5" x2="83" y2="63" gradientUnits="userSpaceOnUse">
<stop offset="0.390625" stop-color="#FA0C45"/>
<stop offset="1" stop-color="#B1000B"/>
</linearGradient>
<linearGradient id="paint3_linear_1169_103" x1="107" y1="5" x2="107" y2="63" gradientUnits="userSpaceOnUse">
<stop offset="0.390625" stop-color="#FA0C45"/>
<stop offset="1" stop-color="#B1000B"/>
</linearGradient>
<linearGradient id="paint4_linear_1169_103" x1="163.5" y1="5" x2="163.5" y2="63" gradientUnits="userSpaceOnUse">
<stop offset="0.390625" stop-color="#FA0C45"/>
<stop offset="1" stop-color="#B1000B"/>
</linearGradient>
<linearGradient id="paint5_linear_1169_103" x1="196" y1="5" x2="196" y2="63" gradientUnits="userSpaceOnUse">
<stop offset="0.390625" stop-color="#FA0C45"/>
<stop offset="1" stop-color="#B1000B"/>
</linearGradient>
<linearGradient id="paint6_linear_1169_103" x1="225" y1="5" x2="225" y2="63" gradientUnits="userSpaceOnUse">
<stop offset="0.390625" stop-color="#FA0C45"/>
<stop offset="1" stop-color="#B1000B"/>
</linearGradient>
<linearGradient id="paint7_linear_1169_103" x1="254.5" y1="5" x2="254.5" y2="63" gradientUnits="userSpaceOnUse">
<stop offset="0.390625" stop-color="#FA0C45"/>
<stop offset="1" stop-color="#B1000B"/>
</linearGradient>
<linearGradient id="paint8_linear_1169_103" x1="131.532" y1="6" x2="131.532" y2="64" gradientUnits="userSpaceOnUse">
<stop offset="0.390625" stop-color="#FA0C45"/>
<stop offset="1" stop-color="#B1000B"/>
</linearGradient>
</defs>
</svg>
