<svg width="22" height="22" viewBox="0 0 22 22" fill="none" xmlns="http://www.w3.org/2000/svg">
<path d="M15.1158 17.0471C13.3079 18.4504 11.0331 19.112 8.75459 18.8973C6.47605 18.6825 4.365 17.6075 2.85114 15.8911C1.33728 14.1746 0.534414 11.9458 0.605965 9.65832C0.677516 7.3708 1.61811 5.19652 3.23627 3.57807C4.85473 1.9599 7.029 1.01931 9.31652 0.947762C11.604 0.876211 13.8328 1.67908 15.5493 3.19294C17.2657 4.70679 18.3407 6.81785 18.5555 9.09639C18.7702 11.3749 18.1086 13.6497 16.7053 15.4576L21.264 20.0163C21.412 20.1537 21.5203 20.3286 21.5773 20.5224C21.6343 20.7162 21.6379 20.9218 21.5879 21.1175C21.5378 21.3133 21.4359 21.4919 21.2929 21.6345C21.1499 21.7772 20.971 21.8787 20.7751 21.9282C20.5796 21.9783 20.3742 21.9748 20.1805 21.9181C19.9868 21.8613 19.812 21.7535 19.6745 21.6058L15.1158 17.0471ZM16.3454 9.93921C16.3588 9.04488 16.1941 8.15682 15.8611 7.3267C15.5281 6.49658 15.0333 5.74096 14.4056 5.10381C13.7779 4.46666 13.0297 3.96068 12.2047 3.61532C11.3796 3.26996 10.4941 3.09211 9.59966 3.09211C8.70523 3.09211 7.81973 3.26996 6.99466 3.61532C6.1696 3.96068 5.42144 4.46666 4.79372 5.10381C4.16599 5.74096 3.67123 6.49658 3.33821 7.3267C3.00518 8.15682 2.84055 9.04488 2.85389 9.93921C2.8803 11.7109 3.60264 13.401 4.86484 14.6446C6.12705 15.8881 7.82779 16.5852 9.59966 16.5852C11.3715 16.5852 13.0723 15.8881 14.3345 14.6446C15.5967 13.401 16.319 11.7109 16.3454 9.93921Z" fill="#CE1546"/>
</svg>
