<svg width="56" height="46" viewBox="0 0 56 46" fill="none" xmlns="http://www.w3.org/2000/svg">
<circle opacity="0.11" cx="33.0061" cy="22.635" r="22.635" fill="#CA382F"/>
<path fill-rule="evenodd" clip-rule="evenodd" d="M1.63036 44.9668C1.26772 45.0181 0.899236 44.9283 0.600855 44.7159C0.302474 44.5035 0.096939 44.1848 0.0266161 43.8254C-0.0437068 43.4659 0.0265418 43.0932 0.222882 42.7841C0.419223 42.4749 0.726691 42.2528 1.08191 42.1636C1.08191 42.1636 14.9988 39.3852 24.9071 23.7563C25.0076 23.5979 25.1384 23.4608 25.2919 23.3529C25.4454 23.245 25.6186 23.1684 25.8018 23.1275C25.9849 23.0865 26.1742 23.0821 26.3591 23.1143C26.5439 23.1466 26.7206 23.2149 26.879 23.3155C27.0375 23.416 27.1745 23.5467 27.2824 23.7003C27.3903 23.8538 27.4669 24.027 27.5079 24.2101C27.5488 24.3932 27.5533 24.5826 27.521 24.7675C27.4888 24.9523 27.4204 25.129 27.3199 25.2874C16.6689 42.0856 1.63036 44.9668 1.63036 44.9668ZM15.3111 19.1135C15.482 19.4516 15.5121 19.8435 15.3946 20.2037C15.2772 20.5638 15.0219 20.8627 14.6846 21.035C14.3466 21.2059 13.9546 21.236 13.5945 21.1185C13.2344 21.0011 12.9354 20.7458 12.7631 20.4085C11.8904 18.6937 11.1252 16.9262 10.4722 15.1163C10.3442 14.7598 10.363 14.3669 10.5246 14.0243C10.6862 13.6816 10.9773 13.4172 11.3339 13.2891C11.6905 13.1611 12.0833 13.1799 12.426 13.3415C12.7687 13.5032 13.0331 13.7943 13.1611 14.1508C13.7858 15.8914 14.5151 17.5482 15.3111 19.1135Z" fill="#490D00"/>
<path fill-rule="evenodd" clip-rule="evenodd" d="M38.9185 8.92269C38.9185 8.92269 40.68 15.5707 39.6269 22.9919C38.909 28.0537 36.8847 33.4525 32.2267 37.4325C27.3383 41.6107 19.4771 44.2748 6.93327 43.0827C6.59703 43.0507 6.28301 42.9006 6.04698 42.6589C5.81095 42.4173 5.66818 42.0999 5.64403 41.763C5.64403 41.763 4.53761 26.1798 15.598 16.1078C20.3132 11.8116 27.2411 8.4866 37.4503 7.86007C37.7802 7.83996 38.1068 7.93488 38.3746 8.12865C38.6423 8.32242 38.8345 8.60304 38.9185 8.92269ZM36.4105 10.8023C27.6906 11.5507 21.6652 14.4453 17.5214 18.2197C9.23371 25.7666 8.47388 36.7241 8.46436 40.3462C19.2067 41.1612 26.0681 38.9389 30.3719 35.2616C34.4491 31.7767 36.1687 27.0234 36.799 22.5901C37.515 17.5455 36.8219 12.8875 36.4105 10.8023Z" fill="#490D00"/>
<path fill-rule="evenodd" clip-rule="evenodd" d="M21.8272 13.1654C21.9446 13.3128 22.0317 13.4819 22.0835 13.6631C22.1352 13.8443 22.1506 14.034 22.1287 14.2212C22.1069 14.4084 22.0482 14.5894 21.956 14.7537C21.8639 14.9181 21.7401 15.0627 21.5919 15.179C21.4436 15.2954 21.2738 15.3812 21.0922 15.4316C20.9106 15.482 20.7209 15.496 20.5339 15.4728C20.3469 15.4495 20.1663 15.3895 20.0026 15.2961C19.8389 15.2027 19.6953 15.0779 19.58 14.9288C17.1253 11.8019 13.3414 9.01582 7.6246 7.15909C6.67454 9.39519 6.00977 11.742 5.646 14.1442C5.00995 18.5432 5.44033 23.9725 9.92885 28.0154C10.0727 28.1397 10.1903 28.2914 10.2747 28.4617C10.3591 28.632 10.4087 28.8174 10.4206 29.0071C10.4324 29.1968 10.4063 29.387 10.3437 29.5665C10.2811 29.746 10.1833 29.9111 10.0561 30.0523C9.9288 30.1935 9.77464 30.3079 9.60262 30.3888C9.43059 30.4696 9.24415 30.5153 9.05424 30.5232C8.86432 30.5311 8.67474 30.5009 8.49662 30.4346C8.31849 30.3682 8.1554 30.267 8.0169 30.1368C2.69808 25.3455 2.06584 18.9507 2.81996 13.7348C3.55122 8.67113 5.58125 4.77105 5.58125 4.77105C5.7328 4.47746 5.98171 4.24568 6.28534 4.11541C6.58897 3.98513 6.92844 3.96445 7.24564 4.05692C14.3469 6.1117 18.9116 9.45001 21.8272 13.1654Z" fill="#490D00"/>
</svg>
