<svg width="74" height="62" viewBox="0 0 74 62" fill="none" xmlns="http://www.w3.org/2000/svg">
<ellipse opacity="0.11" cx="42.6367" cy="31" rx="31" ry="31" fill="#CA382F"/>
<path d="M54.7341 30.1837C54.7341 22.8734 51.8874 16.0011 46.7184 10.8321C41.5494 5.66312 34.6771 2.81641 27.3672 2.81641C20.057 2.81641 13.1847 5.66312 8.01568 10.8321C2.84672 16.0011 0 22.8734 0 30.1837C0 37.4935 2.84672 44.3658 8.01568 49.5348C13.1847 54.7038 20.057 57.5505 27.3672 57.5505C29.8002 57.5505 32.1839 57.2329 34.4732 56.6211C35.1757 56.9792 35.9304 57.2467 36.724 57.4092C37.3195 57.5308 37.9175 57.591 38.5113 57.591C40.2218 57.591 41.8963 57.0916 43.3564 56.1276C45.3239 54.8287 46.6674 52.8412 47.14 50.5319C47.2504 49.9932 47.308 49.4521 47.3181 48.9142C52.1063 43.8217 54.7341 37.2047 54.7341 30.1837V30.1837ZM3.20694 30.1837C3.20694 16.8615 14.0451 6.02335 27.3672 6.02335C40.689 6.02335 51.5271 16.8615 51.5271 30.1837C51.5271 35.748 49.6349 40.8785 46.4614 44.9676C46.2863 44.6011 46.0861 44.2442 45.8584 43.8995L42.7881 39.2495C43.4162 38.237 43.9477 37.1605 44.3702 36.0284L41.366 34.9067C39.1967 40.7176 33.5713 44.6216 27.3672 44.6216C21.1631 44.6216 15.5378 40.7176 13.3685 34.9067L10.3643 36.0284C11.6443 39.4576 13.9072 42.3913 16.9081 44.5121C19.9604 46.6689 23.5531 47.8147 27.3008 47.8281L31.1287 53.6256C31.2144 53.7551 31.3034 53.8818 31.3949 54.0059C30.0848 54.227 28.7392 54.3431 27.3672 54.3431C14.0451 54.3435 3.20694 43.5054 3.20694 30.1837V30.1837ZM43.9979 49.8888C43.697 51.3593 42.8416 52.6243 41.5895 53.4513C39.004 55.1584 35.5116 54.4438 33.8045 51.8583L30.9152 47.4825C32.4714 47.1745 33.9763 46.6639 35.3992 45.9593L37.9442 49.814L40.6204 48.0471L38.136 44.2843C39.0809 43.5869 39.9489 42.8079 40.7324 41.9562L43.1821 45.6667C44.0092 46.9192 44.2988 48.4186 43.9979 49.8888V49.8888Z" fill="#490D00"/>
<path d="M18.3731 23.8788C19.8859 23.8788 21.1171 25.1095 21.1171 26.6227H24.324C24.324 23.3414 21.6545 20.6719 18.3731 20.6719C15.0918 20.6719 12.4219 23.3414 12.4219 26.6223H15.6292C15.6292 25.1095 16.8599 23.8788 18.3731 23.8788Z" fill="#490D00"/>
<path d="M36.361 23.8788C37.8742 23.8788 39.1049 25.1095 39.1049 26.6227H42.3119C42.3119 23.3414 39.6423 20.6719 36.361 20.6719C33.0797 20.6719 30.4102 23.3414 30.4102 26.6223H33.6171C33.6171 25.1095 34.8482 23.8788 36.361 23.8788Z" fill="#490D00"/>
</svg>
