<svg width="73" height="59" viewBox="0 0 73 59" fill="none" xmlns="http://www.w3.org/2000/svg">
<ellipse opacity="0.11" cx="43.8919" cy="29.7103" rx="28.8919" ry="28.8919" fill="#CA382F"/>
<path d="M52.4233 34.2284C49.4786 34.2246 46.5339 34.2188 43.5892 34.2188C35.0157 34.2188 26.4403 34.2188 17.8668 34.2226C13.8056 34.2226 9.74646 34.2246 5.68533 34.2304C5.04348 34.2304 4.66615 34.5515 4.65643 35.0698C4.6467 35.6114 5.0357 35.9345 5.70478 35.9364C6.35246 35.9364 6.99819 35.9325 7.64587 35.9306C8.46082 35.9306 9.27577 35.9306 10.0927 35.9306L10.1705 36.0757C10.0654 36.1434 9.94679 36.1956 9.85732 36.2788C8.36746 37.6928 7.62642 39.4336 7.59336 41.4743C7.58363 42.1049 7.90066 42.4357 8.53473 42.4318C11.5806 42.4144 13.7395 40.9443 15.1243 38.3233C15.5056 37.6018 15.6728 36.7662 15.9451 35.9635H22.5717C22.5425 36.0235 22.5367 36.0583 22.5153 36.0737C22.4258 36.1414 22.3286 36.2014 22.2372 36.2672C18.8646 38.6348 17.0421 41.8476 16.904 45.9716C16.8709 46.9484 17.1277 47.1863 18.1216 47.167C20.7395 47.1147 23.0988 46.3023 25.1566 44.7007C25.8762 44.1398 26.5122 43.4666 27.1444 42.8051C27.4439 42.4937 27.3991 42.0836 27.1366 41.7432C26.8857 41.4163 26.4014 41.3486 26.0396 41.5768C25.8918 41.6697 25.7634 41.8031 25.6506 41.9366C24.6003 43.1804 23.3011 44.0818 21.8073 44.7085C20.8115 45.1243 19.7787 45.4087 18.6837 45.4184C18.7517 40.9965 22.7001 36.8494 26.6639 36.3407C26.5492 36.5128 26.345 36.5979 26.201 36.7411C24.8668 38.0525 23.5403 39.3737 22.2138 40.6948C21.7742 41.1319 21.749 41.631 22.136 42.014C22.4647 42.3389 22.9899 42.3003 23.3847 41.9076C24.7015 40.6019 26.0163 39.2924 27.3291 37.981C27.6442 37.6657 27.9457 37.3368 28.3094 36.9539C28.4572 37.5883 28.5467 38.1067 28.7023 38.6057C28.8637 39.1241 29.0699 39.6329 29.2858 40.1319C31.1316 44.3661 35.6556 47.2579 40.2905 47.1728C40.9012 47.1612 41.2163 46.8672 41.2047 46.2501C41.193 45.6582 41.1697 45.0605 41.0802 44.4744C40.6756 41.8031 39.5281 39.4994 37.5461 37.6367C36.914 37.0428 36.2177 36.5167 35.5175 35.9306C37.6862 35.9306 39.8198 35.9345 41.9554 35.9248C42.2355 35.9248 42.2802 36.0621 42.3503 36.2904C42.5953 37.097 42.7548 37.9655 43.171 38.6812C44.587 41.1107 46.7168 42.4357 49.5953 42.4395C50.1749 42.4395 50.5095 42.1165 50.5095 41.5517C50.5095 40.4975 50.3655 39.451 49.8462 38.5284C49.3405 37.6309 48.7045 36.8068 48.1191 35.9383C48.1794 35.9383 48.3214 35.9383 48.4633 35.9383C49.7898 35.9383 51.1163 35.9441 52.4428 35.9345C53.0282 35.9306 53.3705 35.6656 53.4328 35.211C53.5145 34.6114 53.1255 34.2323 52.4214 34.2304L52.4233 34.2284ZM9.40025 40.6542C9.57335 38.2943 12.1154 36.0737 14.0371 36.0583C14.0293 38.0854 11.5436 40.571 9.40025 40.6542ZM39.4386 45.3874C35.3814 45.3642 31.0538 41.8863 30.3127 37.4935C31.3689 38.5535 32.423 39.6135 33.4792 40.6735C33.9012 41.0952 34.3155 41.5246 34.7531 41.9308C35.1888 42.3331 35.6867 42.3235 36.0407 41.9366C36.3402 41.6097 36.3072 41.1184 35.9221 40.7296C34.5567 39.3582 33.1816 37.9964 31.8104 36.6289C31.6995 36.5186 31.5964 36.4006 31.4583 36.2517C35.5798 36.9422 39.3044 41.0352 39.4386 45.3893V45.3874ZM48.7259 40.6136C46.602 40.6774 44.1007 38.0893 44.0696 36.0737C45.649 36.0022 48.3778 37.8901 48.7259 40.6136Z" fill="#490D00"/>
<path d="M5.6912 19.7159C13.652 19.7178 21.6129 19.7197 29.5737 19.7197C37.0969 19.7197 44.622 19.7197 52.1452 19.7139C52.3864 19.7139 52.6354 19.7101 52.8649 19.6482C53.25 19.5437 53.4523 19.2632 53.4503 18.8609C53.4484 18.4373 53.2305 18.1607 52.824 18.0504C52.6723 18.0079 52.5051 18.0117 52.3436 18.0117C50.9063 18.0098 49.4689 18.0117 48.0316 18.0117C48.0044 17.9653 47.9771 17.9208 47.9519 17.8744C48.0647 17.7893 48.1891 17.7158 48.2903 17.6191C49.7062 16.2612 50.4414 14.6035 50.5076 12.6479C50.5367 11.8142 50.243 11.4796 49.4145 11.5047C46.46 11.5918 44.3458 13.0348 42.998 15.5881C42.6148 16.3134 42.4475 17.1529 42.1694 17.9692H35.4514C35.679 17.8086 35.8326 17.7197 35.963 17.6055C36.7935 16.8705 37.7154 16.2128 38.4253 15.3753C40.2536 13.2185 41.1814 10.6923 41.2105 7.85472C41.2183 7.05005 40.9596 6.76765 40.1583 6.77732C36.564 6.81794 33.5979 8.23385 31.1841 10.849C30.8185 11.2456 30.8243 11.7117 31.1705 12.056C31.5128 12.3965 31.9894 12.3926 32.3861 12.0444C32.4717 11.9709 32.5495 11.8897 32.6254 11.8046C33.9324 10.3577 35.5487 9.39443 37.41 8.84508C38.0597 8.65359 38.7462 8.58395 39.4406 8.45242C39.2597 13.3501 35.008 17.2264 31.4681 17.6017C31.5381 17.4953 31.6665 17.4469 31.756 17.3579C33.1213 16.0078 34.4809 14.6519 35.8443 13.2998C36.1341 13.0135 36.352 12.7079 36.1808 12.2765C35.9221 11.6169 35.255 11.5106 34.7026 12.056C33.1875 13.5532 31.6801 15.0581 30.1708 16.561C30.0522 16.679 29.9257 16.7854 29.7662 16.9324C29.2761 14.1199 28.0508 11.7852 25.9852 9.91475C23.6648 7.8141 20.9243 6.76958 17.7871 6.77345C17.223 6.77345 16.904 7.07907 16.9099 7.63228C16.9157 8.2087 16.9371 8.78899 17.0169 9.35961C17.3961 12.0715 18.5495 14.4081 20.5528 16.2979C21.185 16.8956 21.8852 17.4218 22.5912 18.0117C20.4109 18.0117 18.2636 18.0079 16.1144 18.0156C15.8071 18.0156 15.7915 17.828 15.7604 17.6113C15.2703 14.1315 12.0571 11.4254 8.51727 11.5067C7.91627 11.5202 7.5934 11.8394 7.59924 12.4429C7.61674 14.0097 8.03491 15.4527 9.0113 16.7022C9.34972 17.1355 9.73094 17.532 10.153 18.0117C9.85931 18.0117 9.65314 18.0117 9.44697 18.0117C8.18468 18.0117 6.92238 18.0059 5.66009 18.0137C5.01824 18.0175 4.65453 18.3464 4.66425 18.8802C4.67398 19.4122 5.04158 19.7178 5.6912 19.7178V19.7159ZM48.689 13.292C48.6423 15.383 46.2889 17.7487 44.0638 17.9092C44.0949 15.8318 46.6448 13.3075 48.689 13.292ZM18.672 8.51238C23.2 8.74837 27.1133 12.35 27.8913 16.4624C27.7435 16.3328 27.6384 16.2535 27.547 16.1625C26.2069 14.8337 24.8727 13.499 23.5287 12.174C23.2175 11.8684 22.8985 11.5512 22.387 11.7968C21.8385 12.0599 21.6926 12.6499 22.0894 13.1064C22.3325 13.3849 22.6048 13.6383 22.8674 13.9013C23.9994 15.0271 25.1352 16.1509 26.2672 17.2767C26.3897 17.3966 26.5045 17.5243 26.6659 17.6945C22.5348 17.002 18.7926 12.9032 18.6701 8.51432L18.672 8.51238ZM9.38862 13.3288C11.3725 13.2205 13.9885 15.7486 14.041 17.8628C12.5064 17.9576 9.70566 16.0426 9.38862 13.3288Z" fill="#490D00"/>
<path d="M29.7109 44.4525C29.2849 44.0676 28.8045 44.0038 28.468 44.3945C27.9273 45.0251 27.3302 45.6557 26.9801 46.3926C25.8034 48.8724 26.3849 51.6946 28.3591 53.6037C28.8259 54.0563 29.2888 54.0621 29.7537 53.6037C31.016 52.3619 31.7181 50.8783 31.6967 49.2844C31.7278 47.2998 31.0121 45.6325 29.7089 44.4525H29.7109ZM29.0554 51.7932C27.7834 50.3347 27.7795 47.8453 29.0243 46.3133C30.3119 47.4081 30.343 50.2883 29.0554 51.7932Z" fill="#490D00"/>
<path d="M29.7666 9.43436C32.3787 6.91203 32.3826 2.91383 29.7724 0.356682C29.2939 -0.111419 28.8193 -0.123025 28.3428 0.347011C27.0844 1.59077 26.3823 3.07438 26.4134 4.82879C26.3784 6.66831 27.0572 8.17706 28.3389 9.43242C28.831 9.91406 29.2706 9.91213 29.7666 9.43242V9.43436ZM29.043 2.16719C30.3131 3.51346 30.3617 6.13831 29.0489 7.6548C27.7768 6.14024 27.7866 3.54248 29.043 2.16719Z" fill="#490D00"/>
<path d="M37.3229 30.9495C37.3248 31.64 37.7955 32.0346 38.4101 31.8934C38.8069 31.8006 39.0364 31.4408 39.0384 30.874C39.0423 29.2686 39.0384 27.6631 39.0384 26.0576C39.0714 26.048 39.1064 26.0364 39.1395 26.0267C40.3629 27.7792 41.5863 29.5316 42.8077 31.2861C43.1481 31.7735 43.4788 31.9282 43.9417 31.8025C44.3754 31.6845 44.6185 31.3441 44.6302 30.7638C44.6419 30.2009 44.6107 29.638 44.6088 29.0771C44.5952 27.1621 44.5913 25.2491 44.5738 23.3341C44.568 22.6668 44.2237 22.2722 43.6947 22.2896C43.1656 22.307 42.8544 22.7016 42.8583 23.367C42.8622 24.0092 42.8836 24.6533 42.8875 25.2955C42.8933 26.2994 42.8875 27.3033 42.8875 28.3904C42.7747 28.2589 42.7105 28.195 42.6599 28.1235C41.419 26.3381 40.1742 24.5586 38.9489 22.7635C38.6805 22.3709 38.3401 22.2277 37.9142 22.3438C37.4629 22.4656 37.3073 22.8215 37.3151 23.2742C37.3268 23.9338 37.319 24.5934 37.317 25.253C37.317 27.1524 37.3112 29.05 37.317 30.9495H37.3229Z" fill="#490D00"/>
<path d="M5.01795 31.9205C7.73315 31.9244 9.91154 29.5974 9.82013 26.99C9.72677 24.3264 7.53282 22.2393 4.92849 22.2819C2.18606 22.3283 0.0601865 24.5605 0.122426 27.224C0.184666 29.8605 2.4389 32.0037 5.01795 31.9205ZM1.82429 27.079C1.79122 25.4483 3.18578 24.0344 4.87792 23.9802C6.62646 23.926 8.07353 25.2859 8.1241 27.0325C8.17272 28.7212 6.77817 30.1874 5.06852 30.2435C3.30248 30.3015 1.86124 28.8953 1.82429 27.079Z" fill="#490D00"/>
<path d="M22.5685 24.0718C23.4165 23.8649 24.2276 23.9674 24.9842 24.4393C25.5054 24.7662 26.05 24.6792 26.3145 24.2595C26.5654 23.8591 26.4526 23.36 26.0247 23.0776C24.8888 22.3329 23.6343 22.1221 22.3195 22.3967C19.9933 22.8822 18.2973 25.1221 18.5385 27.542C18.8341 30.5034 21.7516 32.5808 24.6302 31.7645C26.7988 31.1494 27.818 28.7838 27.606 26.9056C27.5554 26.4568 27.2073 26.2731 26.7696 26.2711C26.0247 26.2711 25.2817 26.2711 24.5368 26.2769C23.9494 26.2808 23.5935 26.5767 23.574 27.0681C23.5546 27.5787 23.9125 27.9308 24.5037 27.9501C24.9394 27.9656 25.3751 27.952 25.8361 27.952C25.7252 28.9617 25.1067 29.7858 24.2995 30.0662C22.6891 30.6233 20.8316 29.6813 20.3512 28.0623C19.828 26.2982 20.8219 24.4974 22.5704 24.0699L22.5685 24.0718Z" fill="#490D00"/>
<path d="M13.2654 28.6616C14.094 29.6036 14.9148 30.5533 15.755 31.4857C15.9184 31.6655 16.1479 31.8338 16.3774 31.8938C16.7723 31.9963 17.1087 31.8396 17.3013 31.4566C17.5055 31.0485 17.3499 30.7158 17.0757 30.4063C16.3949 29.6403 15.7161 28.8705 15.0101 28.0716C15.1326 28.0155 15.2007 27.9788 15.2727 27.9556C16.6594 27.5145 17.5289 26.2418 17.3733 24.8742C17.2196 23.5202 16.0721 22.4215 14.6483 22.319C13.9404 22.2668 13.2265 22.3055 12.5166 22.2745C11.692 22.2378 11.3555 22.5318 11.3555 23.3539C11.3555 24.6073 11.3671 25.8626 11.371 27.1161C11.3749 28.4353 11.3652 29.7545 11.3808 31.0717C11.3866 31.5978 11.7484 31.9363 12.2307 31.9286C12.717 31.9209 13.0457 31.5766 13.0573 31.0504C13.0632 30.7777 13.0573 30.503 13.0573 30.2303C13.0573 29.681 13.0573 29.1335 13.0573 28.5165C13.1935 28.6074 13.2402 28.6268 13.2693 28.6616H13.2654ZM13.1137 24.0096C13.6408 24.0096 14.1738 23.9477 14.6853 24.0251C15.3349 24.1237 15.7317 24.7059 15.6714 25.3114C15.6111 25.9071 15.0976 26.3714 14.4499 26.3965C14.0784 26.412 13.707 26.4023 13.3355 26.3984C13.2732 26.3984 13.211 26.3791 13.1157 26.3636V24.0096H13.1137Z" fill="#490D00"/>
<path d="M33.0554 23.0587C32.8123 22.4262 32.398 22.1941 31.7776 22.3237C31.2952 22.4243 31.1357 22.8169 30.986 23.2134C30.0349 25.7029 29.0857 28.1923 28.1346 30.6798C27.9323 31.2079 28.086 31.6721 28.5314 31.8578C28.9982 32.0513 29.4494 31.8656 29.6828 31.3588C29.8365 31.0242 29.9668 30.6779 30.0835 30.3278C30.1632 30.0841 30.2761 29.9661 30.562 29.9719C31.5481 29.9893 32.5342 29.9893 33.5203 29.9719C33.8237 29.9661 33.9404 30.0899 34.0221 30.3607C34.133 30.7263 34.2555 31.1015 34.4539 31.4265C34.5959 31.6605 34.8662 31.8153 35.0782 32.0068C35.7745 31.9449 36.1946 31.4265 35.9904 30.8307C35.6851 29.939 35.3369 29.0608 35.0043 28.1788C34.3586 26.4727 33.7128 24.7648 33.0593 23.0626L33.0554 23.0587ZM30.8693 28.2833C31.2544 27.2697 31.6239 26.2948 32.0479 25.1806C32.4642 26.2754 32.8357 27.2503 33.2285 28.2833H30.8693Z" fill="#490D00"/>
<path d="M56.4669 29.4318C56.2044 29.662 55.9282 29.9096 55.6111 30.0411C54.1096 30.664 52.258 29.7896 51.6706 28.2132C51.0521 26.5536 51.9351 24.6754 53.5825 24.1492C54.5453 23.8417 55.4517 23.9558 56.323 24.4742C56.8112 24.7643 57.3266 24.6599 57.5717 24.2769C57.8323 23.8668 57.7059 23.3426 57.2624 23.0602C56.1188 22.331 54.8682 22.1318 53.5533 22.4084C51.1921 22.9074 49.5292 25.217 49.8054 27.6194C50.0854 30.0488 52.1432 31.9425 54.8176 31.9232C55.8504 31.9387 56.887 31.4899 57.7176 30.5904C58.0968 30.1804 58.0852 29.6736 57.7273 29.3448C57.3577 29.0063 56.8987 29.0546 56.4689 29.4337L56.4669 29.4318Z" fill="#490D00"/>
<path d="M48.179 23.3689C48.1751 22.6687 47.8425 22.2663 47.2979 22.2837C46.765 22.3012 46.4694 22.6919 46.4694 23.3689C46.4694 23.9956 46.4674 24.6223 46.4655 25.251C46.4655 27.1156 46.4596 28.9822 46.4655 30.8469C46.4674 31.5587 46.7942 31.9436 47.3485 31.9282C47.8814 31.9127 48.1751 31.5297 48.1751 30.8469C48.1751 29.6089 48.1751 28.371 48.1751 27.133H48.179C48.179 25.8796 48.1829 24.6243 48.179 23.3708V23.3689Z" fill="#490D00"/>
</svg>
