<svg width="78" height="62" viewBox="0 0 78 62" fill="none" xmlns="http://www.w3.org/2000/svg">
<circle opacity="0.11" cx="46.5723" cy="31" r="31" fill="#CA382F"/>
<path d="M47.9065 12.8406C42.6061 7.54019 35.5588 4.62109 28.063 4.62109C20.5671 4.62109 13.5199 7.54019 8.21948 12.8406C2.9191 18.141 0 25.1882 0 32.684C0 40.1799 2.9191 47.2271 8.21938 52.5275C13.5199 57.8279 20.5671 60.747 28.063 60.747C35.5588 60.747 42.6061 57.8279 47.9065 52.5275C53.2068 47.2271 56.1259 40.1799 56.1259 32.684C56.1259 25.1882 53.2068 18.141 47.9065 12.8406ZM28.063 57.4584C21.9966 57.4584 16.2642 55.2914 11.7464 51.326L20.3397 42.7327H15.6889L9.42104 49.0006C5.45561 44.4828 3.28863 38.7504 3.28863 32.684C3.28863 26.0666 5.86559 19.8452 10.5449 15.166C15.2242 10.4867 21.4455 7.90972 28.063 7.90972C34.1293 7.90972 39.8617 10.0767 44.3795 14.0421L35.6046 22.8171H40.2554L46.7049 16.3676C50.6703 20.8853 52.8373 26.6177 52.8373 32.684C52.8373 39.3015 50.2603 45.5228 45.581 50.2021C40.9017 54.8814 34.6804 57.4584 28.063 57.4584Z" fill="#490D00"/>
<path d="M24.0608 39.443L25.0485 33.9544L26.5899 39.1791H29.4998L30.9654 33.9406L32.0414 39.443H35.3923L32.7839 26.1047L29.7395 26.1158L27.9995 32.3354L26.1628 26.1096H23.1187L20.7194 39.443H24.0608ZM13.597 39.3738C17.13 39.3738 19.5976 36.6225 19.5976 32.683V31.0387H13.6184V34.3273H16.0389C15.6752 35.3202 14.9161 36.0852 13.597 36.0852C11.721 36.0852 10.1949 34.559 10.1949 32.683C10.1949 30.8071 11.721 29.2808 13.597 29.2808C14.0609 29.2808 14.5098 29.372 14.931 29.5519L16.2223 26.5274C15.3905 26.1723 14.5073 25.9922 13.597 25.9922C9.90767 25.9922 6.90625 28.9937 6.90625 32.683C6.90625 36.3723 9.90767 39.3738 13.597 39.3738ZM49.6586 32.683C49.6586 28.9937 46.6572 25.9922 42.9679 25.9922C39.2786 25.9922 36.2771 28.9937 36.2771 32.683C36.2771 36.3723 39.2786 39.3738 42.9679 39.3738C46.6572 39.3738 49.6586 36.3723 49.6586 32.683ZM42.9679 36.0852C41.092 36.0852 39.5657 34.559 39.5657 32.683C39.5657 30.8071 41.092 29.2808 42.9679 29.2808C44.8438 29.2808 46.37 30.8071 46.37 32.683C46.37 34.559 44.8438 36.0852 42.9679 36.0852Z" fill="#490D00"/>
</svg>
