<svg width="286" height="278" viewBox="0 0 286 278" fill="none" xmlns="http://www.w3.org/2000/svg">
<g opacity="0.35">
<path d="M230.671 103.522C231.606 98.3776 232.567 94.7336 232.888 91.036C234.57 72.3872 221.644 52.3451 203.403 46.3164C197.501 44.3604 194.296 41.3327 193.682 35.304C193.628 34.6609 193.361 34.0179 193.147 33.3748C187.886 17.8609 180.996 3.1509 162.701 0.685833C142.858 -1.99359 125.044 2.90975 112.866 20.5672C101.862 36.5365 104.8 62.0179 119.382 75.7901C123.388 79.5681 128.302 82.4083 132.602 85.8915C133.777 86.8561 134.312 88.6245 134.418 90.5805C118.207 76.9155 101.649 63.6255 80.0425 76.7547C59.3445 89.3212 50.638 108.345 58.3563 134.068C55.1515 133.291 52.9615 132.728 50.7715 132.246C41.4507 130.263 32.21 127.717 22.8091 126.646C17.7347 126.056 12.233 127.476 7.18536 128.95C1.20297 130.718 -1.57458 135.22 0.90918 141.436C3.36624 147.572 5.4227 154.244 9.42877 159.281C22.7289 175.92 35.1211 193.658 54.6707 204.001C58.3563 205.957 61.9885 207.993 66.3418 210.378C64.6325 211.315 63.7779 212.012 62.8164 212.307C40.4358 218.818 24.1711 233.715 10.2567 251.534C6.94501 255.794 4.99539 261.233 2.96564 266.351C1.33652 270.397 3.07248 273.183 7.50586 274.228C34.0795 280.552 60.1457 278.998 85.1703 267.932C101.569 260.67 112.679 247.22 122.293 232.429C124.19 229.509 126.486 226.615 129.237 224.552C134.926 220.318 140.588 219.568 147.638 223.373C158.722 229.348 167.482 237.333 174.933 247.327C180.248 254.454 186.177 261.153 192.133 267.744C193.388 269.137 195.978 269.325 197.955 270.075C198.168 267.53 199.477 264.207 198.382 262.546C194.055 256.089 188.928 250.167 184.147 244.004C171.728 228.035 178.672 207.35 198.542 203.331C216.89 199.606 233.208 191.997 247.764 180.743C254.681 175.384 261.625 169.034 265.925 161.612C273.162 149.18 279.625 135.916 283.872 122.225C286.569 113.516 285.047 103.361 284.566 93.903C284.299 88.8121 279.866 87.3384 275.192 87.4188C261.01 87.6599 248.191 92.1614 236.44 99.9853C234.998 100.95 233.475 101.834 230.644 103.576L230.671 103.522ZM210.747 126.619C209.359 127.235 207.89 127.771 206.554 128.494C187.432 138.837 161.045 129.352 152.873 109.203C145.662 91.3843 151.644 67.2695 166.547 55.0781C174.372 48.6743 183.186 44.682 193.628 46.4236C216.917 50.282 243.117 77.3978 223.353 110.006C219.721 116.008 214.807 121.26 210.48 126.86C213.659 125.065 216.81 123.243 220.148 121.367C221.137 128.066 219.454 134.55 215.234 141.168C201.293 162.898 166.894 167.641 147.585 149.957C142.511 145.321 138.959 139.373 141.122 131.04C143.739 120.965 145.662 110.381 138.905 100.709C138.318 99.8513 137.864 98.458 138.131 97.547C138.905 94.8944 139.519 90.7681 141.255 90.125C145.448 88.5442 146.437 92.0006 147.078 95.7518C149.268 108.399 154.155 119.572 164.865 127.583C178.004 137.39 199.29 138.73 210.774 126.646L210.747 126.619ZM179.794 204.001C179.046 203.786 178.298 203.572 177.55 203.357C177.737 199.874 177.924 196.391 178.085 192.908C178.726 176.724 183.479 164.238 200.572 157.405C215.528 151.43 223.647 138.381 224.101 121.501C224.154 119.545 224.315 117.402 225.169 115.714C231.873 102.718 259.541 88.3566 274.097 89.9375C278.771 90.4465 281.922 92.5901 281.949 97.3059C282.002 105.692 283.017 114.535 280.747 122.332C277.489 133.558 271.773 144.089 266.886 154.806C261.331 166.971 251.69 175.25 241.007 182.887C223.807 195.185 203.857 199.633 183.987 204.751C185.215 195.4 191.652 190.309 199.183 186.665C206.474 183.128 214.246 180.502 221.804 177.474C221.644 176.992 221.484 176.51 221.324 176.027C211.923 179.269 202.548 182.512 192.426 185.995C194.937 182.378 197.1 179.243 200.118 174.875C197.073 176.67 195.471 177.608 193.254 178.921C193.575 175.545 193.842 172.919 194.189 169.356C189.115 181.574 184.468 192.801 179.794 204.027V204.001ZM101.195 159.576C73.0453 159.442 51.9466 129.62 60.2793 105.826C65.6741 90.4733 75.0216 78.1748 91.5534 75.0131C108.192 71.8513 120.317 81.3901 130.599 93.3671C142.377 107.086 144.594 122.76 135.22 137.846C127.127 150.868 114.121 158.477 101.195 159.576ZM58.0091 180.904C73.2055 186.665 89.0696 190.764 102.023 201.669C92.7819 199.847 83.5679 198.052 74.3272 196.23C74.2471 196.686 74.167 197.168 74.0602 197.624C89.577 201.509 105.094 205.367 120.637 209.252C120.504 209.868 120.37 210.458 120.237 211.074C108.993 211.074 97.7494 211.53 86.5591 210.967C71.4428 210.217 58.2228 204.054 46.3381 194.864C31.0349 182.994 19.257 167.882 8.14682 152.234C5.90344 149.072 4.83514 144.946 3.79358 141.114C2.08432 134.818 3.79358 130.959 10.2834 130.691C20.7793 130.236 31.4889 130.611 41.8513 132.326C52.7211 134.121 62.0686 139.346 69.3063 148.59C72.9651 153.252 78.6538 157.191 84.2623 159.227C91.7403 161.96 97.7761 166.113 102.477 172.089C109.901 181.52 116.738 191.38 123.735 201.16C124.483 202.179 124.483 203.733 125.151 206.251C110.783 200.758 106.135 186.638 94.7315 179.671C99.4854 185.914 104.213 192.131 109.768 199.419C89.8441 194.06 77.1849 181.627 66.9026 166.006C66.4486 166.462 65.9946 166.944 65.5673 167.4C68.6653 171.633 71.7901 175.867 74.8881 180.1C59.0507 176.349 49.4895 164.935 38.5396 152.529C39.9818 156.36 40.7563 158.37 42.1985 162.228C35.7888 157.941 31.0883 154.806 26.3878 151.671C31.1417 156.494 33.3584 162.979 41.237 165.631C50.4777 168.713 58.5166 175.411 67.0896 180.529C66.8492 181.011 66.6089 181.52 66.3685 182.002C63.5909 181.654 60.7867 181.306 58.0091 180.958V180.904ZM154.288 2.2399C165.185 1.7576 174.185 5.77674 180.248 14.5653C184.468 20.6743 187.539 27.6944 190.343 34.6341C193.121 41.4667 192.133 42.5116 184.922 43.9317C170.286 46.7987 159.256 54.5423 152.846 68.2609C150.683 72.8695 148.733 77.6121 147.104 82.4619C145.609 86.8829 143.312 87.8743 139.065 85.9719C129.958 81.8992 122.186 76.2188 116.444 67.9394C99.3251 43.2619 111.958 10.4389 141.122 4.03511C145.422 3.09731 149.882 2.82937 154.288 2.2399ZM118.982 226.401C119.596 227.07 120.21 227.74 120.798 228.41C111.45 244.353 100.046 258.366 82.5797 266.002C61.0003 275.407 38.4061 277.39 15.3311 273.585C3.79358 271.683 2.13773 268.521 8.92133 258.634C22.088 239.396 38.1924 223.239 61.1072 215.951C66.3151 214.29 72.0037 213.271 77.4252 213.459C90.9658 213.914 104.453 215.201 117.967 216.219C119.596 216.353 121.198 216.808 122.801 217.13C110.088 224.846 95.6396 221.149 82.3928 224.98H112.385C95.1321 236.663 75.8495 237.949 56.9141 241.003H73.072C73.1521 241.7 73.2589 242.397 73.3391 243.067C60.7333 245.692 48.1008 248.318 33.759 251.319C36.8304 252.257 38.1123 252.659 40.1954 253.302C34.5335 255.821 29.6995 257.991 24.8655 260.161C25.0525 260.59 25.2394 261.019 25.4264 261.421C28.925 260.349 32.4237 259.277 36.0024 258.179C36.136 259.518 36.2161 260.456 36.3496 262.01C45.163 255.499 54.19 250.596 64.4189 248.559L66.1815 250.944C63.8847 252.177 61.5612 253.382 59.2644 254.615C59.7184 255.178 60.1724 255.74 60.6264 256.303C73.4726 243.254 90.031 237.735 108.139 231.09C102.877 237.038 98.9245 241.486 94.9719 245.96C95.1855 246.121 95.3992 246.255 95.5861 246.416C103.385 239.744 111.156 233.099 118.955 226.427L118.982 226.401ZM154.102 218.898C142.671 213.646 131.24 210.029 124.403 197.838C117.887 186.156 108.352 176.161 100.18 165.417C99.5922 164.667 99.2717 163.729 99.4052 164.024C109.661 159.576 119.462 155.342 129.718 150.894C138.211 155.932 143.205 164.425 143.712 174.554C144.487 189.987 144.914 205.233 154.075 218.925L154.102 218.898ZM173.331 226.401C166.627 219.246 160.351 211.744 160.912 201.884C161.553 190.416 163.689 179.028 165.612 167.694C165.933 165.846 168.283 163.327 170.072 162.979C173.838 162.255 177.844 162.764 183.453 162.764C172.075 183.557 175.734 205.287 173.331 226.401ZM196.78 264.877C195.952 265.601 195.15 266.351 194.323 267.074C193.121 265.252 192.026 263.323 190.717 261.581C180.248 247.756 169.512 234.144 159.309 220.157C145.902 201.75 145.715 180.69 148.333 159.254C148.466 158.129 149.294 157.084 149.802 156.012C150.496 156.092 151.19 156.146 151.885 156.226C151.885 159.978 152.152 163.729 151.831 167.453C150.149 187.736 154.369 206.546 166.146 223.266C174.346 234.894 183.052 246.148 191.518 257.589C193.308 260.001 195.017 262.439 196.78 264.877ZM157.6 195.909C153.968 183.155 153.594 172.089 156.185 160.674C159.799 162.032 160.271 173.777 157.6 195.909ZM137.703 141.222C146.303 152.207 146.437 152.663 143.739 158.584C134.819 149.287 133.617 146.071 137.703 141.222Z" fill="#EEEBE6"/>
<path d="M235.772 145.562L262.8 130.772C262.8 130.477 262.8 130.182 262.773 129.888C259.488 130.665 256.177 131.442 252.411 132.353C256.898 126.431 261.144 120.831 265.391 115.231C264.83 114.776 264.269 114.293 263.708 113.838C260.583 117.241 257.459 120.617 253.666 124.743C253.105 121.662 252.758 119.652 252.651 119.036C247.363 127.503 241.648 136.613 235.933 145.75L235.799 145.616L235.772 145.562Z" fill="#EEEBE6"/>
<path d="M235.905 145.697C232.674 147.492 229.415 149.287 224.314 152.128C227.038 146.34 229.015 142.187 230.964 138.061C222.418 149.046 213.952 159.951 207.302 168.499C215.554 164.667 226.664 159.469 238.068 154.164C235.504 154.03 232.967 153.896 229.549 153.708C231.899 150.627 233.849 148.082 235.772 145.563L235.905 145.697Z" fill="#EEEBE6"/>
<path d="M64.6336 125.493C65.8888 132.834 70.8563 133.343 74.7823 133.638C81.6995 134.12 79.643 127.797 80.2039 124.314C81.0852 118.848 76.2245 115.954 72.3787 116.865C69.2806 117.615 67.1707 122.465 64.6336 125.493Z" fill="#EEEBE6"/>
<path d="M172.104 25.2825C173.039 24.7466 175.095 24.2107 175.71 22.9782C176.324 21.7189 175.95 19.4681 175.149 18.1552C174.054 16.3064 172.158 14.9399 170.609 13.3591C167.43 10.117 163.825 7.97342 159.418 10.5725C157.949 11.4299 156 14.4844 156.32 14.9131C158.857 18.1016 161.635 21.2098 164.867 23.6748C166.442 24.8806 169.086 24.6662 172.104 25.2825Z" fill="#EEEBE6"/>
</g>
</svg>
