<svg xmlns="http://www.w3.org/2000/svg" xmlns:xlink="http://www.w3.org/1999/xlink" width="1132.719" height="622.508" viewBox="0 0 1132.719 622.508">
  <defs>
    <linearGradient id="linear-gradient" x1="7.098" y1="-2.245" x2="6.555" y2="-1.974" gradientUnits="objectBoundingBox">
      <stop offset="0" stop-color="#8db7e1"/>
      <stop offset="0.54" stop-color="#84c2c1"/>
      <stop offset="1" stop-color="#7dcaaa"/>
    </linearGradient>
    <linearGradient id="linear-gradient-2" x1="24.644" y1="-5.521" x2="22.407" y2="-4.714" xlink:href="#linear-gradient"/>
  </defs>
  <g id="Layer_1_1_" transform="translate(35.219 40.4)">
    <g id="Layer_2_1_">
      <g id="Layer_1-2">
        <g id="Group_1" data-name="Group 1" transform="matrix(0.996, 0.087, -0.087, 0.996, 26.799, -38.491)">
          <path id="Path_2" data-name="Path 2" d="M361.2,55.3l5.3,2.9L264.8,178.4l.6,44L401.5,74.8,246.8,0-21.9,162.379,4.5,461.2l255-233.3-.8-52.1Z" fill="url(#linear-gradient)"/>
          <path id="Path_3" data-name="Path 3" d="M293.7,596.8l-.3-3.5-5.7,3.9Z" fill="#fff" opacity="0.44"/>
          <path id="Path_4" data-name="Path 4" d="M265.7,237.4l-.3-15-5.9,5.5.1,3.7,3.1-2.9Z" fill="#fff"/>
          <path id="Path_5" data-name="Path 5" d="M264.8,178.4,366.5,58.2l-5.3-2.9L258.7,175.8l.8,52.1,5.9-5.5Z" fill="url(#linear-gradient-2)"/>
          <path id="Path_6" data-name="Path 6" d="M264.8,178.4,367.5,58.2l-6.3-2.9L258.7,175.8l.8,52.1,5.9-5.5Z" fill="#fff"/>
          <path id="Path_7" data-name="Path 7" d="M7.7,462.2l280,135L259.6,231.6Z" fill="#2c2c2c"/>
          <path id="Path_8" data-name="Path 8" d="M262.7,228.7l-3.1,2.9,28.1,365.6,5.7.1L265.7,237.4Z" fill="#fff"/>
        </g>
        <path id="Path_9" data-name="Path 9" d="M405,339.5c-13.3,0-25-2.9-35-8.6a59.292,59.292,0,0,1-23.2-24.4c-5.5-10.5-8.2-22.7-8.2-36.6V216.4c0-13.9,2.8-26.2,8.2-36.6A59.9,59.9,0,0,1,370,155.4c10-5.8,21.6-8.6,35-8.6s25,2.9,35,8.6a59.292,59.292,0,0,1,23.2,24.4c5.5,10.5,8.3,22.7,8.2,36.6v53.5c0,13.9-2.7,26.2-8.2,36.6A59.9,59.9,0,0,1,440,330.9C430,336.6,418.3,339.5,405,339.5Zm0-26.2q17.85,0,28.5-11.7c7.1-7.8,10.7-18.1,10.7-30.9V215.3c0-12.8-3.6-23.1-10.7-30.9s-16.7-11.7-28.5-11.7q-17.85,0-28.5,11.7c-7.1,7.8-10.7,18.1-10.7,30.9v55.3c0,12.8,3.6,23.1,10.7,30.9,7.1,7.9,16.6,11.8,28.5,11.8Z" transform="translate(-2 20)" fill="#2c2c2c"/>
        <path id="Path_10" data-name="Path 10" d="M566.1,339.5c-18.5,0-32.9-5.1-43.1-15.3s-15.3-24.6-15.3-43.3V258.7c0-18.4,5.1-32.7,15.3-42.8s24.5-15.1,43.1-15.1a71.381,71.381,0,0,1,28.5,5.6A49.749,49.749,0,0,1,615,222.3l-19.1,17.1q-11.85-13.5-29.4-13.5c-10.2,0-18.1,2.9-23.8,8.6s-8.4,13.8-8.4,24.2v22.2c0,11.1,2.8,19.6,8.4,25.7s13.6,9,23.8,9q17.85,0,29.4-14.4L615,318.4a50.129,50.129,0,0,1-20.4,15.7A74.825,74.825,0,0,1,566.1,339.5Z" transform="translate(-2 20)" fill="#2c2c2c"/>
        <path id="Path_11" data-name="Path 11" d="M695.4,339.5c-18.5,0-32.9-5.1-43.1-15.3S637,299.6,637,280.9V258.7c0-18.4,5.1-32.7,15.3-42.8s24.5-15.1,43.1-15.1a71.381,71.381,0,0,1,28.5,5.6,48.815,48.815,0,0,1,20.3,15.9l-19.1,17.1q-11.85-13.5-29.4-13.5c-10.2,0-18.1,2.9-23.8,8.6-5.6,5.7-8.4,13.8-8.4,24.2v22.2c0,11.1,2.8,19.6,8.4,25.7,5.6,6,13.6,9,23.8,9q17.85,0,29.4-14.4l19.1,17.1A50.129,50.129,0,0,1,723.8,334,72.219,72.219,0,0,1,695.4,339.5Z" transform="translate(-2 20)" fill="#2c2c2c"/>
        <path id="Path_12" data-name="Path 12" d="M813.4,339.5c-16.5,0-29-3.4-37.2-10.3-8.3-6.8-12.4-17.3-12.4-31.4,0-13.3,3.8-23.3,11.3-30s18.9-10,34.2-10h38.3l1.8,21.3h-40c-6.8,0-12,1.5-15.5,4.6s-5.2,7.8-5.2,14.1q0,10.35,6.9,15.3c4.6,3.3,11.5,4.9,20.7,4.9,10,0,17.6-1.1,22.6-3.2,5-2.2,7.5-5.5,7.5-10.1l2.7,19a31.1,31.1,0,0,1-8.7,9,40.338,40.338,0,0,1-12,5.3A82.914,82.914,0,0,1,813.4,339.5Zm33-2V252c0-8.8-2.4-15.7-7.1-20.6s-11.4-7.3-20.1-7.3c-11.3,0-21.1,3.1-29.5,9.4l-19.4-13.2a51.04,51.04,0,0,1,20.2-14.4,71.915,71.915,0,0,1,27.9-5.1c16.9,0,30,4.4,39.2,13.1,9.3,8.8,13.9,21.1,13.9,37v86.7l-25.1-.1Z" transform="translate(-2 20)" fill="#2c2c2c"/>
        <path id="Path_13" data-name="Path 13" d="M911.9,337.5V202.6h26.5V337.5Zm80.5,0V255.8c0-9.4-2.3-16.8-7-22s-11.3-7.8-19.9-7.9q-13.05,0-20.1,6.9c-4.7,4.6-7.1,11-7.1,19.4l-2.7-26c4.2-8.1,9.6-14.4,16.3-18.8a39.368,39.368,0,0,1,22.3-6.6q21.3,0,33,14.4c7.8,9.6,11.7,23.1,11.7,40.6v81.9H992.4Zm80.6,0V255.8c0-9.4-2.5-16.8-7.4-22s-11.9-7.8-20.8-7.9c-8.2,0-14.6,2.5-19.1,7.5s-6.8,12.1-6.8,21.3l-5.3-26q6.3-13.35,16.8-20.7a38.921,38.921,0,0,1,23.1-7.3c14.7,0,26,4.8,34,14.4s12,23.1,12,40.6v81.9H1073Z" transform="translate(-2 20)" fill="#2c2c2c"/>
        <path id="Path_14" data-name="Path 14" d="M426.7,376.9h14.9V511.8H499v14.4H426.6V376.9Z" transform="translate(-67 20)" fill="#7dcaaa"/>
        <path id="Path_15" data-name="Path 15" d="M630.4,415.8V526.2h-14v-19a59.655,59.655,0,0,1-20,16.3,54.017,54.017,0,0,1-24.3,5.5c-15.6,0-29-5.7-40-17s-16.6-25.1-16.6-41.4a55.868,55.868,0,0,1,16.8-40.8c11.2-11.3,24.6-17,40.3-17a52.421,52.421,0,0,1,24.6,5.8A55.531,55.531,0,0,1,616.5,436V415.7Zm-56.8,10.8a42.99,42.99,0,0,0-37.9,22.2,44.928,44.928,0,0,0,0,44.6A43.5,43.5,0,0,0,551.8,510a42.189,42.189,0,0,0,21.7,6,43.8,43.8,0,0,0,22.1-5.9,41.689,41.689,0,0,0,16.1-15.9,45.639,45.639,0,0,0,5.6-22.6c0-12.8-4.2-23.4-12.6-32s-18.8-12.9-31.1-13Z" transform="translate(-67 20)" fill="#7dcaaa"/>
        <path id="Path_16" data-name="Path 16" d="M663.3,526.2v-153h14.2v61.6a59.944,59.944,0,0,1,20-16.4,53.214,53.214,0,0,1,24.2-5.4c15.6,0,29,5.7,40,17s16.6,25.1,16.6,41.3a56.162,56.162,0,0,1-16.7,40.9c-11.1,11.3-24.6,17-40.2,17a51.629,51.629,0,0,1-24.4-5.8A57.776,57.776,0,0,1,677.6,506v20.3Zm56.8-10.8A42.874,42.874,0,0,0,758,493.2a45.3,45.3,0,0,0,0-44.8,43.5,43.5,0,0,0-16.1-16.6,40.717,40.717,0,0,0-21.5-5.9,43.8,43.8,0,0,0-22.1,5.9,41.274,41.274,0,0,0-16.1,16,45.639,45.639,0,0,0-5.6,22.6q0,19.2,12.6,32.1a41.521,41.521,0,0,0,30.9,12.9Z" transform="translate(-67 20)" fill="#7dcaaa"/>
        <path id="Path_17" data-name="Path 17" d="M859.7,427.9l-9.1,9.4c-7.6-7.4-15-11.1-22.3-11.1a16.945,16.945,0,0,0-11.9,4.6,14.211,14.211,0,0,0-4.9,10.7,15.466,15.466,0,0,0,4.1,10.2q4.05,4.95,17.1,11.7c10.6,5.5,17.8,10.8,21.6,15.8a29.143,29.143,0,0,1,5.6,17.4,30.737,30.737,0,0,1-9.6,23c-6.4,6.3-14.3,9.4-23.9,9.4a40.841,40.841,0,0,1-18.2-4.2,39.31,39.31,0,0,1-14.4-11.5l8.9-10.1q10.95,12.3,23.1,12.3a20.391,20.391,0,0,0,14.5-5.5,16.86,16.86,0,0,0,2-23.8c-2.7-3.1-8.6-7-17.9-11.8-10-5.1-16.7-10.2-20.3-15.2a28.5,28.5,0,0,1-5.4-17.1,27.9,27.9,0,0,1,8.6-20.9c5.7-5.5,13-8.3,21.8-8.3Q844.25,412.9,859.7,427.9Z" transform="translate(-67 20)" fill="#7dcaaa"/>
        <path id="Path_18" data-name="Path 18" d="M259.28,0,91.292,145.955,79,156.636l-11.647,10.12L0,225.274" transform="matrix(0.998, 0.07, -0.07, 0.998, 8.264, 194.967)" fill="none" stroke="#fff" stroke-width="5"/>
      </g>
    </g>
  </g>
</svg>
