<svg xmlns="http://www.w3.org/2000/svg" viewBox="0 0 45.5 52"><defs><style>.cls-1{fill:#00a0dc;}</style></defs><title>fig13</title><g id="Layer_2" data-name="Layer 2"><g id="popups"><path class="cls-1" d="M44.07,6.7,38.8,1.43A4.83,4.83,0,0,0,35.36,0H17.87A4.87,4.87,0,0,0,13,4.87V9.75H4.87A4.87,4.87,0,0,0,0,14.62v32.5A4.87,4.87,0,0,0,4.87,52H27.62a4.87,4.87,0,0,0,4.88-4.88V42.25h8.12a4.87,4.87,0,0,0,4.88-4.88V10.14A4.83,4.83,0,0,0,44.07,6.7ZM35.75,3.3a1.53,1.53,0,0,1,.75.43L41.77,9a1.53,1.53,0,0,1,.43.75H35.75Zm-6.5,43.82a1.63,1.63,0,0,1-1.63,1.63H4.87a1.63,1.63,0,0,1-1.62-1.63V14.62A1.63,1.63,0,0,1,4.87,13H13V37.37a4.87,4.87,0,0,0,4.87,4.88H29.25Zm13-9.75A1.63,1.63,0,0,1,40.62,39H17.87a1.63,1.63,0,0,1-1.62-1.63V4.87a1.63,1.63,0,0,1,1.62-1.62H32.5v7.31A2.45,2.45,0,0,0,34.94,13h7.31Z"/></g></g></svg>