<svg xmlns="http://www.w3.org/2000/svg" viewBox="0 0 51.2 51.2"><defs><style>.cls-1{fill:#00a0dc;}</style></defs><title>fig3</title><g id="Layer_2" data-name="Layer 2"><g id="popups"><path class="cls-1" d="M50.4,9.6h-4a4.8,4.8,0,0,0-4.8,4.8v4.8H28.08L17.43,2.45A5.31,5.31,0,0,0,13.8.08a5.2,5.2,0,0,0-4.12,1A25.2,25.2,0,0,0,0,20.8v1.6C0,29.12,4,35,10.13,38.45c-.18,0-.35-.05-.53-.05A6.42,6.42,0,1,0,14,40.2a25.68,25.68,0,0,0,8.36,1.4,25.37,25.37,0,0,0,8.36-1.4,6.39,6.39,0,1,0,4.44-1.8c-.18,0-.35,0-.53.05C40.77,35,44.8,29.12,44.8,22.4v-8a1.6,1.6,0,0,1,1.6-1.6h4a.8.8,0,0,0,.8-.8V10.4A.8.8,0,0,0,50.4,9.6Zm-38.72-6a2,2,0,0,1,1.59-.38,2.11,2.11,0,0,1,1.46.93l9.56,15h-21A22.15,22.15,0,0,1,11.68,3.61ZM9.6,48a3.2,3.2,0,1,1,3.2-3.2A3.21,3.21,0,0,1,9.6,48Zm25.6-6.4A3.2,3.2,0,1,1,32,44.8,3.21,3.21,0,0,1,35.2,41.6ZM22.4,38.4c-10.59,0-19.2-7.18-19.2-16H41.6C41.6,31.22,33,38.4,22.4,38.4Z"/></g></g></svg>