<svg xmlns="http://www.w3.org/2000/svg" viewBox="0 0 58.5 45.5"><defs><style>.cls-1{fill:#00a0dc;}</style></defs><title>fig5</title><g id="Layer_2" data-name="Layer 2"><g id="popups"><path class="cls-1" d="M47.13,42.25H9.75a6.5,6.5,0,0,1-6.5-6.5V8.13A1.63,1.63,0,1,0,0,8.13V35.75A9.76,9.76,0,0,0,9.75,45.5H47.13a1.63,1.63,0,0,0,0-3.25ZM52,0H16.25a6.5,6.5,0,0,0-6.5,6.5V29.25a6.5,6.5,0,0,0,6.5,6.5H52a6.5,6.5,0,0,0,6.5-6.5V6.5A6.5,6.5,0,0,0,52,0ZM42.25,32.5H26V30.88A4.87,4.87,0,0,1,30.88,26h6.5a4.87,4.87,0,0,1,4.87,4.88Zm13-3.25A3.26,3.26,0,0,1,52,32.5H45.5V30.88a8.13,8.13,0,0,0-8.12-8.13h-6.5a8.13,8.13,0,0,0-8.13,8.13V32.5h-6.5A3.26,3.26,0,0,1,13,29.25V6.5a3.26,3.26,0,0,1,3.25-3.25H52A3.26,3.26,0,0,1,55.25,6.5ZM34.13,6.5a6.5,6.5,0,1,0,6.5,6.5A6.5,6.5,0,0,0,34.13,6.5Zm0,9.75A3.25,3.25,0,1,1,37.38,13,3.25,3.25,0,0,1,34.13,16.25Z"/></g></g></svg>