<svg xmlns="http://www.w3.org/2000/svg" viewBox="0 0 58.5 52"><defs><style>.cls-1{fill:#00a0dc;}</style></defs><title>fig9</title><g id="Layer_2" data-name="Layer 2"><g id="popups"><path class="cls-1" d="M56.69,33.88a5.3,5.3,0,0,0-3.56-1.36,5.64,5.64,0,0,0-3.52,1.24l-6.24,5a1.1,1.1,0,0,1-.69.25H38.45a5.59,5.59,0,0,0,.48-3.28,5.83,5.83,0,0,0-5.86-4.84H18.41a9.65,9.65,0,0,0-5.84,1.95L8.66,35.75h-7a1.63,1.63,0,1,0,0,3.25H9.75l4.76-3.58a6.55,6.55,0,0,1,3.9-1.3h14.9a2.44,2.44,0,0,1,0,4.88H24.37a1.62,1.62,0,1,0,0,3.24H42.68a4.34,4.34,0,0,0,2.7-.94l6.26-5a2.39,2.39,0,0,1,1.49-.54,2,2,0,0,1,1.39.54,2.15,2.15,0,0,1-.09,3.31L44.2,47.8a4.3,4.3,0,0,1-2.71,1H1.63a1.63,1.63,0,1,0,0,3.25H41.49a7.65,7.65,0,0,0,4.73-1.66l10.25-8.2a5.4,5.4,0,0,0,.22-8.26ZM28,19.38a22.81,22.81,0,0,1-4-1.15,1.63,1.63,0,0,0-1,3.08,24.21,24.21,0,0,0,4.58,1.29v1.78a1.63,1.63,0,0,0,3.25,0V22.67c3-.36,5.14-2,5.59-4.44.86-4.72-3.75-6-6.79-6.8l-.74-.2c-3.46-1-3.92-1.65-3.7-2.88.31-1.69,2.85-2.08,5.23-1.73A16.07,16.07,0,0,1,33,7.28a1.63,1.63,0,1,0,1-3.09,19.72,19.72,0,0,0-3.15-.79V1.63a1.63,1.63,0,1,0-3.25,0v1.7c-3,.36-5.13,2-5.59,4.44-.84,4.66,3.8,6,6,6.59l.75.2c3.89,1.06,4.72,1.64,4.45,3.09C33,19.34,30.42,19.74,28,19.38Z"/></g></g></svg>