<svg width="18" height="18" viewBox="0 0 18 18" fill="none" xmlns="http://www.w3.org/2000/svg">
<path d="M3.16667 6.50018V13.1668M6.91667 6.50018V13.1668M11.0833 6.50018V13.1668M14.8333 6.50018V13.1668M1.5 14.5002L1.5 15.1668C1.5 15.6336 1.5 15.8669 1.59083 16.0452C1.67072 16.202 1.79821 16.3295 1.95501 16.4094C2.13327 16.5002 2.36662 16.5002 2.83333 16.5002H15.1667C15.6334 16.5002 15.8667 16.5002 16.045 16.4094C16.2018 16.3295 16.3293 16.202 16.4092 16.0452C16.5 15.8669 16.5 15.6336 16.5 15.1668V14.5002C16.5 14.0335 16.5 13.8001 16.4092 13.6219C16.3293 13.4651 16.2018 13.3376 16.045 13.2577C15.8667 13.1668 15.6334 13.1668 15.1667 13.1668H2.83333C2.36662 13.1668 2.13327 13.1668 1.95501 13.2577C1.79821 13.3376 1.67072 13.4651 1.59083 13.6219C1.5 13.8001 1.5 14.0335 1.5 14.5002ZM8.71076 1.56446L2.54409 2.93483C2.17154 3.01761 1.98527 3.05901 1.84622 3.15918C1.72358 3.24754 1.62727 3.36759 1.56762 3.50648C1.5 3.66395 1.5 3.85477 1.5 4.23641L1.5 5.16685C1.5 5.63356 1.5 5.86691 1.59083 6.04517C1.67072 6.20197 1.79821 6.32946 1.95501 6.40935C2.13327 6.50018 2.36662 6.50018 2.83333 6.50018H15.1667C15.6334 6.50018 15.8667 6.50018 16.045 6.40935C16.2018 6.32946 16.3293 6.20197 16.4092 6.04517C16.5 5.86691 16.5 5.63356 16.5 5.16685V4.23641C16.5 3.85477 16.5 3.66395 16.4324 3.50649C16.3727 3.36759 16.2764 3.24754 16.1538 3.15918C16.0147 3.05901 15.8285 3.01762 15.4559 2.93483L9.28924 1.56446C9.1813 1.54047 9.12733 1.52848 9.0728 1.52369C9.02436 1.51945 8.97564 1.51945 8.9272 1.52369C8.87267 1.52848 8.8187 1.54047 8.71076 1.56446Z" stroke="#023448" stroke-width="2" stroke-linecap="round" stroke-linejoin="round"/>
</svg>
