<svg width="15" height="15" viewBox="0 0 15 15" fill="none" xmlns="http://www.w3.org/2000/svg">
<path d="M4.58685 5.90223C5.05085 6.86865 5.68337 7.77441 6.48443 8.57546C7.28548 9.37651 8.19124 10.009 9.15765 10.473C9.24078 10.5129 9.28234 10.5329 9.33494 10.5482C9.52184 10.6027 9.75135 10.5636 9.90963 10.4502C9.95417 10.4183 9.99228 10.3802 10.0685 10.304C10.3016 10.071 10.4181 9.95443 10.5353 9.87824C10.9772 9.59091 11.5469 9.59091 11.9889 9.87824C12.106 9.95443 12.2226 10.071 12.4556 10.304L12.5856 10.4339C12.9398 10.7882 13.117 10.9654 13.2132 11.1556C13.4046 11.534 13.4046 11.9809 13.2132 12.3592C13.117 12.5495 12.9399 12.7266 12.5856 13.0809L12.4805 13.186C12.1274 13.5391 11.9508 13.7156 11.7108 13.8505C11.4445 14.0001 11.0308 14.1077 10.7253 14.1068C10.45 14.1059 10.2619 14.0525 9.8856 13.9457C7.86333 13.3718 5.95509 12.2888 4.36311 10.6968C2.77112 9.10479 1.68814 7.19655 1.11416 5.17429C1.00735 4.79799 0.953949 4.60984 0.953131 4.33455C0.952222 4.02906 1.0598 3.6154 1.20941 3.34907C1.34424 3.10904 1.52078 2.9325 1.87386 2.57942L1.97895 2.47433C2.33325 2.12004 2.5104 1.94289 2.70065 1.84666C3.07903 1.65528 3.52587 1.65528 3.90424 1.84666C4.0945 1.94289 4.27164 2.12004 4.62594 2.47433L4.75585 2.60424C4.98892 2.83732 5.10546 2.95385 5.18165 3.07104C5.46898 3.51296 5.46898 4.08268 5.18165 4.52461C5.10546 4.6418 4.98892 4.75833 4.75585 4.9914C4.67964 5.06761 4.64154 5.10571 4.60965 5.15026C4.4963 5.30854 4.45717 5.53805 4.51165 5.72495C4.52698 5.77754 4.54694 5.81911 4.58685 5.90223Z" stroke="#F6F4EE" stroke-width="1.5" stroke-linecap="round" stroke-linejoin="round"/>
</svg>
