<svg width="273" height="32" viewBox="0 0 273 32" fill="none" xmlns="http://www.w3.org/2000/svg">
<g clip-path="url(#clip0_17_24777)">
<path d="M64.6862 15.8949C64.6862 15.0011 64.5699 14.1939 64.3387 13.4739C64.107 12.7539 63.7741 12.1439 63.3395 11.6429C62.9048 11.1425 62.3733 10.7574 61.7445 10.4882C61.1156 10.2194 60.3997 10.0851 59.5971 10.0851H56.7921V21.7168H59.5971C60.3997 21.7168 61.1156 21.5825 61.7445 21.3133C62.3733 21.0445 62.9048 20.6599 63.3395 20.159C63.7741 19.6585 64.107 19.0481 64.3387 18.328C64.5699 17.608 64.6862 16.797 64.6862 15.8949ZM68.9805 15.8949C68.9805 17.2025 68.7547 18.4084 68.304 19.5135C67.8528 20.6186 67.2181 21.5742 66.399 22.3814C65.5793 23.188 64.5932 23.817 63.4387 24.2683C62.2842 24.7191 61.0042 24.9445 59.5971 24.9445H52.5723V6.85742H59.5971C61.0042 6.85742 62.2842 7.08526 63.4387 7.53995C64.5932 7.99514 65.5793 8.62412 66.399 9.42689C67.2181 10.2297 67.8528 11.1838 68.304 12.2885C68.7547 13.3936 68.9805 14.5955 68.9805 15.8949Z" fill="#023448"/>
<path d="M78.4868 21.6302C79.0494 21.6302 79.5522 21.5372 79.9951 21.3507C80.4376 21.1648 80.8118 20.8975 81.118 20.5499C81.4241 20.2023 81.6582 19.7783 81.8193 19.2778C81.9809 18.7769 82.0612 18.2078 82.0612 17.5705V6.85742H86.2563V17.5705C86.2563 18.68 86.0767 19.6975 85.7165 20.6244C85.3568 21.5518 84.8414 22.3502 84.1712 23.0206C83.501 23.6909 82.6862 24.2123 81.7264 24.5847C80.7666 24.9572 79.6865 25.1431 78.4868 25.1431C77.2787 25.1431 76.1948 24.9572 75.235 24.5847C74.2752 24.2123 73.4604 23.6909 72.7902 23.0206C72.12 22.3502 71.607 21.5518 71.2512 20.6244C70.8954 19.6975 70.7178 18.68 70.7178 17.5705V6.85742H74.9123V17.5584C74.9123 18.1956 74.9931 18.7642 75.1547 19.2652C75.3158 19.7661 75.5494 20.1921 75.8556 20.5441C76.1617 20.8956 76.5365 21.1648 76.9789 21.3507C77.4218 21.5372 77.9241 21.6302 78.4868 21.6302Z" fill="#023448"/>
<path d="M101.125 15.8949C101.125 15.0011 101.009 14.1939 100.778 13.4739C100.546 12.7539 100.213 12.1439 99.7784 11.6429C99.3443 11.1425 98.8123 10.7574 98.1835 10.4882C97.5546 10.2194 96.8391 10.0851 96.0365 10.0851H93.2316V21.7168H96.0365C96.8391 21.7168 97.5546 21.5825 98.1835 21.3133C98.8123 21.0445 99.3443 20.6599 99.7784 20.159C100.213 19.6585 100.546 19.0481 100.778 18.328C101.009 17.608 101.125 16.797 101.125 15.8949ZM105.419 15.8949C105.419 17.2025 105.194 18.4084 104.743 19.5135C104.292 20.6186 103.657 21.5742 102.838 22.3814C102.019 23.188 101.032 23.817 99.8777 24.2683C98.7237 24.7191 97.4432 24.9445 96.0365 24.9445H89.0117V6.85742H96.0365C97.4432 6.85742 98.7237 7.08526 99.8777 7.53995C101.032 7.99514 102.019 8.62412 102.838 9.42689C103.657 10.2297 104.292 11.1838 104.743 12.2885C105.194 13.3936 105.419 14.5955 105.419 15.8949Z" fill="#023448"/>
<path d="M111.6 10.0851V14.3059H117.284V17.4094H111.6V21.7168H119.022V24.9445H107.38V6.85742H119.022V10.0851H111.6Z" fill="#023448"/>
<path d="M136.869 6.85742V24.9445H134.684C134.362 24.9445 134.091 24.8929 133.871 24.7892C133.652 24.686 133.435 24.5059 133.22 24.2493L124.693 13.4617C124.726 13.7845 124.749 14.097 124.762 14.3989C124.774 14.7012 124.78 14.9845 124.78 15.2493V24.9445H121.082V6.85742H123.291C123.473 6.85742 123.626 6.8657 123.75 6.88225C123.874 6.8988 123.986 6.92996 124.086 6.97523C124.185 7.02099 124.279 7.08526 124.371 7.16753C124.462 7.25078 124.565 7.36226 124.681 7.50295L133.282 18.365C133.241 18.0174 133.212 17.6806 133.195 17.3534C133.178 17.0268 133.171 16.7181 133.171 16.4284V6.85742H136.869Z" fill="#023448"/>
<path d="M156.466 17.4463H151.402V22.7844H149.603V17.4463H144.564V15.7707H149.603V10.4696H151.402V15.7707H156.466V17.4463Z" fill="#023448"/>
<path d="M170.527 15.7332C171.62 15.7332 172.406 15.4728 172.886 14.9514C173.365 14.43 173.605 13.7017 173.605 12.7665C173.605 12.3527 173.544 11.9764 173.419 11.6366C173.295 11.2978 173.107 11.0057 172.855 10.7613C172.602 10.5174 172.283 10.329 171.899 10.1966C171.514 10.0641 171.057 9.99794 170.527 9.99794H168.343V15.7332H170.527ZM170.527 6.85742C171.802 6.85742 172.896 7.00834 173.81 7.31066C174.725 7.61249 175.477 8.02873 176.069 8.55791C176.661 9.08757 177.097 9.71266 177.378 10.4327C177.66 11.1527 177.8 11.9306 177.8 12.7665C177.8 13.6686 177.656 14.4962 177.366 15.2493C177.077 16.0025 176.634 16.648 176.038 17.1859C175.442 17.7239 174.687 18.144 173.773 18.4459C172.859 18.7482 171.777 18.8991 170.527 18.8991H168.343V24.9445H164.148V6.85742H170.527Z" fill="#023448"/>
<path d="M187.704 18.0301L186.029 13.0766C185.905 12.7621 185.772 12.3922 185.632 11.9657C185.491 11.5397 185.351 11.0782 185.21 10.5816C185.086 11.0865 184.953 11.5538 184.813 11.9842C184.672 12.4145 184.54 12.7875 184.416 13.1015L182.753 18.0301H187.704ZM194.369 24.9445H191.118C190.753 24.9445 190.46 24.8598 190.236 24.6899C190.013 24.5205 189.844 24.3034 189.728 24.0385L188.66 20.8853H181.784L180.717 24.0385C180.626 24.2702 180.463 24.4791 180.227 24.6656C179.991 24.8515 179.699 24.9445 179.351 24.9445H176.075L183.075 6.85742H187.37L194.369 24.9445Z" fill="#023448"/>
<path d="M201.159 15.3608C201.73 15.3608 202.216 15.2888 202.617 15.1437C203.018 14.9991 203.347 14.7981 203.604 14.5415C203.86 14.2854 204.046 13.9851 204.162 13.6414C204.278 13.2981 204.335 12.9277 204.335 12.5304C204.335 11.7359 204.077 11.1152 203.56 10.6683C203.043 10.2214 202.243 9.99794 201.159 9.99794H199.47V15.3608H201.159ZM210.07 24.9445H206.272C205.569 24.9445 205.064 24.6797 204.758 24.15L201.755 18.8991C201.614 18.6756 201.456 18.5121 201.283 18.4084C201.11 18.3052 200.861 18.2536 200.538 18.2536H199.47V24.9445H195.276V6.85742H201.159C202.466 6.85742 203.581 6.99178 204.503 7.261C205.426 7.52973 206.179 7.9041 206.763 8.3846C207.345 8.86412 207.769 9.43128 208.035 10.0851C208.299 10.7389 208.432 11.4506 208.432 12.2203C208.432 12.8079 208.353 13.3624 208.196 13.8838C208.038 14.4052 207.807 14.8871 207.501 15.3302C207.194 15.7727 206.816 16.168 206.365 16.5156C205.914 16.8632 205.395 17.1485 204.808 17.3719C205.081 17.5131 205.337 17.6883 205.577 17.8996C205.817 18.1109 206.032 18.3611 206.223 18.6508L210.07 24.9445Z" fill="#023448"/>
<path d="M223.709 10.1844H218.62V24.9445H214.426V10.1844H209.337V6.85742H223.709V10.1844Z" fill="#023448"/>
<path d="M241.098 6.85742V24.9445H238.914C238.591 24.9445 238.32 24.8929 238.1 24.7892C237.881 24.686 237.664 24.5059 237.449 24.2493L228.923 13.4617C228.955 13.7845 228.978 14.097 228.991 14.3989C229.003 14.7012 229.009 14.9845 229.009 15.2493V24.9445H225.311V6.85742H227.52C227.702 6.85742 227.855 6.8657 227.979 6.88225C228.103 6.8988 228.215 6.92996 228.314 6.97523C228.414 7.02099 228.508 7.08526 228.6 7.16753C228.691 7.25078 228.794 7.36226 228.911 7.50295L237.511 18.365C237.47 18.0174 237.441 17.6806 237.424 17.3534C237.408 17.0268 237.399 16.7181 237.399 16.4284V6.85742H241.098Z" fill="#023448"/>
<path d="M248.296 10.0851V14.3059H253.98V17.4094H248.296V21.7168H255.718V24.9445H244.076V6.85742H255.718V10.0851H248.296Z" fill="#023448"/>
<path d="M263.66 15.3608C264.232 15.3608 264.718 15.2888 265.119 15.1437C265.52 14.9991 265.849 14.7981 266.106 14.5415C266.362 14.2854 266.549 13.9851 266.664 13.6414C266.78 13.2981 266.838 12.9277 266.838 12.5304C266.838 11.7359 266.579 11.1152 266.062 10.6683C265.545 10.2214 264.745 9.99794 263.66 9.99794H261.973V15.3608H263.66ZM272.572 24.9445H268.774C268.071 24.9445 267.566 24.6797 267.26 24.15L264.256 18.8991C264.116 18.6756 263.958 18.5121 263.785 18.4084C263.611 18.3052 263.363 18.2536 263.04 18.2536H261.973V24.9445H257.778V6.85742H263.66C264.968 6.85742 266.083 6.99178 267.006 7.261C267.928 7.52973 268.681 7.9041 269.265 8.3846C269.848 8.86412 270.272 9.43128 270.537 10.0851C270.802 10.7389 270.934 11.4506 270.934 12.2203C270.934 12.8079 270.855 13.3624 270.698 13.8838C270.541 14.4052 270.309 14.8871 270.003 15.3302C269.697 15.7727 269.318 16.168 268.867 16.5156C268.417 16.8632 267.897 17.1485 267.31 17.3719C267.583 17.5131 267.839 17.6883 268.079 17.8996C268.319 18.1109 268.534 18.3611 268.725 18.6508L272.572 24.9445Z" fill="#023448"/>
<path d="M27.5284 10.721C28.5725 10.2885 29.7215 10.1753 30.8299 10.3958C31.9384 10.6163 32.9566 11.1605 33.7557 11.9597C34.5549 12.7588 35.0991 13.777 35.3196 14.8855C35.5401 15.9939 35.4269 17.1429 34.9944 18.187C34.5619 19.2312 33.8295 20.1236 32.8898 20.7515C31.9501 21.3794 30.8453 21.7146 29.7151 21.7146L29.7151 25.1431C31.5234 25.1431 33.2911 24.6069 34.7946 23.6023C36.2982 22.5977 37.47 21.1697 38.162 19.4991C38.854 17.8285 39.0351 15.9901 38.6823 14.2166C38.3295 12.4431 37.4587 10.814 36.1801 9.53531C34.9014 8.25666 33.2723 7.38588 31.4988 7.0331C29.7253 6.68032 27.8869 6.86138 26.2163 7.55338C24.5457 8.24538 23.1177 9.41725 22.1131 10.9208C21.1085 12.4243 20.5723 14.192 20.5723 16.0003V32.0003H24.0008L24.0008 16.0003C24.0008 14.8701 24.336 13.7653 24.9639 12.8256C25.5918 11.8859 26.4842 11.1535 27.5284 10.721Z" fill="#023448"/>
<path d="M14.8571 0V16C14.8571 17.1302 14.522 18.235 13.8941 19.1747C13.2662 20.1144 12.3738 20.8468 11.3296 21.2793C10.2855 21.7118 9.13652 21.825 8.02806 21.6045C6.91959 21.384 5.90141 20.8398 5.10225 20.0406C4.30309 19.2414 3.75886 18.2233 3.53837 17.1148C3.31789 16.0063 3.43105 14.8574 3.86355 13.8132C4.29605 12.7691 5.02846 11.8766 5.96817 11.2487C6.90788 10.6208 8.01268 10.2857 9.14286 10.2857V6.85714C7.33457 6.85714 5.5669 7.39336 4.06336 8.39799C2.55983 9.40262 1.38796 10.8305 0.695963 12.5012C0.0039617 14.1718 -0.177098 16.0101 0.175682 17.7837C0.528461 19.5572 1.39923 21.1863 2.67788 22.465C3.95654 23.7436 5.58564 24.6144 7.35918 24.9672C9.13272 25.32 10.971 25.1389 12.6417 24.4469C14.3123 23.7549 15.7402 22.583 16.7449 21.0795C17.7495 19.576 18.2857 17.8083 18.2857 16V0H14.8571Z" fill="#023448"/>
</g>
<defs>
<clipPath id="clip0_17_24777">
<rect width="272.571" height="32" fill="white"/>
</clipPath>
</defs>
</svg>
