<svg width="14" height="12" viewBox="0 0 14 12" fill="none" xmlns="http://www.w3.org/2000/svg">
<path d="M1 3.33301L9 3.33301M9 3.33301C9 4.43758 9.89543 5.33301 11 5.33301C12.1046 5.33301 13 4.43758 13 3.33301C13 2.22844 12.1046 1.33301 11 1.33301C9.89543 1.33301 9 2.22844 9 3.33301ZM5 8.66634L13 8.66634M5 8.66634C5 9.77091 4.10457 10.6663 3 10.6663C1.89543 10.6663 1 9.77091 1 8.66634C1 7.56177 1.89543 6.66634 3 6.66634C4.10457 6.66634 5 7.56177 5 8.66634Z" stroke="#023448" stroke-width="1.5" stroke-linecap="round" stroke-linejoin="round"/>
</svg>
