<svg width="14" height="14" viewBox="0 0 14 14" fill="none" xmlns="http://www.w3.org/2000/svg">
<path d="M2.33333 5.00034V10.3337M5.33333 5.00034V10.3337M8.66667 5.00034V10.3337M11.6667 5.00034V10.3337M1 11.4003L1 11.9337C1 12.307 1 12.4937 1.07266 12.6363C1.13658 12.7618 1.23856 12.8638 1.36401 12.9277C1.50661 13.0003 1.6933 13.0003 2.06667 13.0003H11.9333C12.3067 13.0003 12.4934 13.0003 12.636 12.9277C12.7614 12.8638 12.8634 12.7618 12.9273 12.6363C13 12.4937 13 12.307 13 11.9337V11.4003C13 11.027 13 10.8403 12.9273 10.6977C12.8634 10.5722 12.7614 10.4702 12.636 10.4063C12.4934 10.3337 12.3067 10.3337 11.9333 10.3337H2.06667C1.6933 10.3337 1.50661 10.3337 1.36401 10.4063C1.23857 10.4702 1.13658 10.5722 1.07266 10.6977C1 10.8403 1 11.027 1 11.4003ZM6.76861 1.05176L1.83527 2.14806C1.53723 2.21429 1.38821 2.2474 1.27698 2.32754C1.17886 2.39823 1.10182 2.49427 1.0541 2.60538C1 2.73136 1 2.88401 1 3.18932L1 3.93367C1 4.30704 1 4.49372 1.07266 4.63633C1.13658 4.76177 1.23856 4.86376 1.36401 4.92768C1.50661 5.00034 1.6933 5.00034 2.06667 5.00034H11.9333C12.3067 5.00034 12.4934 5.00034 12.636 4.92768C12.7614 4.86376 12.8634 4.76177 12.9273 4.63633C13 4.49372 13 4.30704 13 3.93367V3.18932C13 2.88401 13 2.73136 12.9459 2.60538C12.8982 2.49427 12.8211 2.39823 12.723 2.32754C12.6118 2.2474 12.4628 2.21429 12.1647 2.14806L7.23139 1.05176C7.14504 1.03257 7.10187 1.02298 7.05824 1.01915C7.01949 1.01575 6.98051 1.01575 6.94176 1.01915C6.89813 1.02298 6.85496 1.03257 6.76861 1.05176Z" stroke="#023448" stroke-width="1.5" stroke-linecap="round" stroke-linejoin="round"/>
</svg>
