<svg width="14" height="14" viewBox="0 0 14 14" fill="none" xmlns="http://www.w3.org/2000/svg">
<path d="M5 7H2.06667C1.6933 7 1.50661 7 1.36401 7.07266C1.23856 7.13658 1.13658 7.23857 1.07266 7.36401C1 7.50661 1 7.6933 1 8.06667V11.9333C1 12.3067 1 12.4934 1.07266 12.636C1.13658 12.7614 1.23856 12.8634 1.36401 12.9273C1.50661 13 1.6933 13 2.06667 13H5M5 13H9M5 13L5 4.73333C5 4.35997 5 4.17328 5.07266 4.03067C5.13658 3.90523 5.23857 3.80324 5.36401 3.73933C5.50661 3.66667 5.6933 3.66667 6.06667 3.66667H7.93333C8.3067 3.66667 8.49339 3.66667 8.63599 3.73933C8.76143 3.80324 8.86342 3.90523 8.92734 4.03067C9 4.17328 9 4.35997 9 4.73333V13M9 13H11.9333C12.3067 13 12.4934 13 12.636 12.9273C12.7614 12.8634 12.8634 12.7614 12.9273 12.636C13 12.4934 13 12.3067 13 11.9333V2.06667C13 1.6933 13 1.50661 12.9273 1.36401C12.8634 1.23856 12.7614 1.13658 12.636 1.07266C12.4934 1 12.3067 1 11.9333 1H10.0667C9.6933 1 9.50661 1 9.36401 1.07266C9.23857 1.13658 9.13658 1.23857 9.07266 1.36401C9 1.50661 9 1.6933 9 2.06667V4.33333" stroke="#023448" stroke-width="1.5" stroke-linecap="round" stroke-linejoin="round"/>
</svg>
