<svg width="14" height="16" viewBox="0 0 14 16" fill="none" xmlns="http://www.w3.org/2000/svg">
<path d="M8.33366 7.33301H4.33366M5.66699 9.99967H4.33366M9.66699 4.66634H4.33366M12.3337 6.66634V4.53301C12.3337 3.4129 12.3337 2.85285 12.1157 2.42503C11.9239 2.0487 11.618 1.74274 11.2416 1.55099C10.8138 1.33301 10.2538 1.33301 9.13366 1.33301H4.86699C3.74689 1.33301 3.18683 1.33301 2.75901 1.55099C2.38269 1.74274 2.07673 2.0487 1.88498 2.42503C1.66699 2.85285 1.66699 3.4129 1.66699 4.53301V11.4663C1.66699 12.5864 1.66699 13.1465 1.88498 13.5743C2.07673 13.9506 2.38269 14.2566 2.75901 14.4484C3.18683 14.6663 3.74689 14.6663 4.86699 14.6663H7.33366M11.0003 13.9997C11.0003 13.9997 13.0003 13.0464 13.0003 11.6165V9.94827L11.5419 9.42714C11.1915 9.30163 10.8083 9.30163 10.4579 9.42714L9.00033 9.94827V11.6165C9.00033 13.0464 11.0003 13.9997 11.0003 13.9997Z" stroke="#023448" stroke-width="1.5" stroke-linecap="round" stroke-linejoin="round"/>
</svg>
