<svg width="20" height="20" viewBox="0 0 20 20" fill="none" xmlns="http://www.w3.org/2000/svg">
<path d="M15.0003 5.83366V4.33366C15.0003 3.40024 15.0003 2.93353 14.8187 2.57701C14.6589 2.2634 14.4039 2.00844 14.0903 1.84865C13.7338 1.66699 13.2671 1.66699 12.3337 1.66699H7.66699C6.73357 1.66699 6.26686 1.66699 5.91034 1.84865C5.59674 2.00844 5.34177 2.2634 5.18198 2.57701C5.00033 2.93353 5.00033 3.40024 5.00033 4.33366V5.83366M5.00033 15.0003C4.22535 15.0003 3.83786 15.0003 3.51994 14.9151C2.65721 14.684 1.98335 14.0101 1.75218 13.1474C1.66699 12.8295 1.66699 12.442 1.66699 11.667V9.83366C1.66699 8.43353 1.66699 7.73346 1.93948 7.19868C2.17916 6.72828 2.56161 6.34583 3.03202 6.10614C3.5668 5.83366 4.26686 5.83366 5.66699 5.83366H14.3337C15.7338 5.83366 16.4339 5.83366 16.9686 6.10614C17.439 6.34583 17.8215 6.72828 18.0612 7.19868C18.3337 7.73346 18.3337 8.43353 18.3337 9.83366V11.667C18.3337 12.442 18.3337 12.8295 18.2485 13.1474C18.0173 14.0101 17.3434 14.684 16.4807 14.9151C16.1628 15.0003 15.7753 15.0003 15.0003 15.0003M12.5003 8.75033H15.0003M7.66699 18.3337H12.3337C13.2671 18.3337 13.7338 18.3337 14.0903 18.152C14.4039 17.9922 14.6589 17.7372 14.8187 17.4236C15.0003 17.0671 15.0003 16.6004 15.0003 15.667V14.3337C15.0003 13.4002 15.0003 12.9335 14.8187 12.577C14.6589 12.2634 14.4039 12.0084 14.0903 11.8486C13.7338 11.667 13.2671 11.667 12.3337 11.667H7.66699C6.73357 11.667 6.26686 11.667 5.91034 11.8486C5.59674 12.0084 5.34177 12.2634 5.18198 12.577C5.00033 12.9335 5.00033 13.4002 5.00033 14.3337V15.667C5.00033 16.6004 5.00033 17.0671 5.18198 17.4236C5.34177 17.7372 5.59674 17.9922 5.91034 18.152C6.26686 18.3337 6.73357 18.3337 7.66699 18.3337Z" stroke="#023448" stroke-width="1.5" stroke-linecap="round" stroke-linejoin="round"/>
</svg>
