<svg width="32" height="8" viewBox="0 0 32 8" fill="none" xmlns="http://www.w3.org/2000/svg">
<path d="M16.364 0.604382C10.0616 -2.32569 7.79582 6.69906 1.2488 0.241717C1.20373 0.197852 1.14637 0.168895 1.08443 0.158738C1.02248 0.14858 0.958928 0.157709 0.902306 0.184898C0.845683 0.212086 0.798706 0.256031 0.767691 0.310824C0.736675 0.365617 0.723107 0.428632 0.728811 0.491398C1.43009 7.91878 11.5466 10.1876 16.364 5.70789C21.1812 10.1874 31.2969 7.91907 31.999 0.4924C32.0047 0.429559 31.9911 0.366467 31.9601 0.311607C31.929 0.256748 31.882 0.21275 31.8253 0.185529C31.7686 0.158308 31.705 0.149169 31.643 0.159341C31.5809 0.169513 31.5235 0.198508 31.4784 0.242428C24.9323 6.69838 22.6658 -2.32556 16.364 0.604285V0.604382Z" fill="#F6F4EE" fill-opacity="0.16"/>
</svg>
