<svg width="273" height="32" viewBox="0 0 273 32" fill="none" xmlns="http://www.w3.org/2000/svg">
<g clip-path="url(#clip0_2246_24629)">
<path d="M64.6852 15.8949C64.6852 15.0011 64.5689 14.1939 64.3377 13.4739C64.106 12.7539 63.7731 12.1439 63.3385 11.6429C62.9038 11.1425 62.3723 10.7574 61.7435 10.4882C61.1147 10.2194 60.3987 10.0851 59.5961 10.0851H56.7911V21.7168H59.5961C60.3987 21.7168 61.1147 21.5825 61.7435 21.3133C62.3723 21.0445 62.9038 20.6599 63.3385 20.159C63.7731 19.6585 64.106 19.0481 64.3377 18.328C64.5689 17.608 64.6852 16.797 64.6852 15.8949ZM68.9795 15.8949C68.9795 17.2025 68.7537 18.4084 68.303 19.5135C67.8518 20.6186 67.2171 21.5742 66.398 22.3814C65.5784 23.188 64.5923 23.817 63.4378 24.2683C62.2833 24.7191 61.0032 24.9445 59.5961 24.9445H52.5713V6.85742H59.5961C61.0032 6.85742 62.2833 7.08526 63.4378 7.53995C64.5923 7.99514 65.5784 8.62412 66.398 9.42689C67.2171 10.2297 67.8518 11.1838 68.303 12.2885C68.7537 13.3936 68.9795 14.5955 68.9795 15.8949Z" fill="#F6F4EE"/>
<path d="M78.4858 21.6302C79.0485 21.6302 79.5512 21.5372 79.9941 21.3507C80.4366 21.1648 80.8109 20.8975 81.117 20.5499C81.4232 20.2023 81.6573 19.7783 81.8184 19.2778C81.98 18.7769 82.0603 18.2078 82.0603 17.5705V6.85742H86.2553V17.5705C86.2553 18.68 86.0757 19.6975 85.7155 20.6244C85.3558 21.5518 84.8404 22.3502 84.1702 23.0206C83.5 23.6909 82.6852 24.2123 81.7254 24.5847C80.7656 24.9572 79.6856 25.1431 78.4858 25.1431C77.2778 25.1431 76.1938 24.9572 75.234 24.5847C74.2742 24.2123 73.4595 23.6909 72.7893 23.0206C72.119 22.3502 71.606 21.5518 71.2502 20.6244C70.8945 19.6975 70.7168 18.68 70.7168 17.5705V6.85742H74.9113V17.5584C74.9113 18.1956 74.9921 18.7642 75.1537 19.2652C75.3148 19.7661 75.5485 20.1921 75.8546 20.5441C76.1608 20.8956 76.5355 21.1648 76.978 21.3507C77.4209 21.5372 77.9232 21.6302 78.4858 21.6302Z" fill="#F6F4EE"/>
<path d="M101.124 15.8949C101.124 15.0011 101.008 14.1939 100.777 13.4739C100.545 12.7539 100.212 12.1439 99.7775 11.6429C99.3433 11.1425 98.8113 10.7574 98.1825 10.4882C97.5536 10.2194 96.8382 10.0851 96.0356 10.0851H93.2306V21.7168H96.0356C96.8382 21.7168 97.5536 21.5825 98.1825 21.3133C98.8113 21.0445 99.3433 20.6599 99.7775 20.159C100.212 19.6585 100.545 19.0481 100.777 18.328C101.008 17.608 101.124 16.797 101.124 15.8949ZM105.419 15.8949C105.419 17.2025 105.193 18.4084 104.742 19.5135C104.291 20.6186 103.656 21.5742 102.837 22.3814C102.018 23.188 101.031 23.817 99.8767 24.2683C98.7227 24.7191 97.4422 24.9445 96.0356 24.9445H89.0108V6.85742H96.0356C97.4422 6.85742 98.7227 7.08526 99.8767 7.53995C101.031 7.99514 102.018 8.62412 102.837 9.42689C103.656 10.2297 104.291 11.1838 104.742 12.2885C105.193 13.3936 105.419 14.5955 105.419 15.8949Z" fill="#F6F4EE"/>
<path d="M111.599 10.0851V14.3059H117.283V17.4094H111.599V21.7168H119.021V24.9445H107.379V6.85742H119.021V10.0851H111.599Z" fill="#F6F4EE"/>
<path d="M136.868 6.85742V24.9445H134.683C134.361 24.9445 134.09 24.8929 133.871 24.7892C133.651 24.686 133.434 24.5059 133.219 24.2493L124.692 13.4617C124.725 13.7845 124.748 14.097 124.761 14.3989C124.773 14.7012 124.779 14.9845 124.779 15.2493V24.9445H121.081V6.85742H123.29C123.472 6.85742 123.625 6.8657 123.749 6.88225C123.873 6.8988 123.985 6.92996 124.085 6.97523C124.184 7.02099 124.278 7.08526 124.37 7.16753C124.461 7.25078 124.564 7.36226 124.68 7.50295L133.281 18.365C133.24 18.0174 133.211 17.6806 133.194 17.3534C133.177 17.0268 133.17 16.7181 133.17 16.4284V6.85742H136.868Z" fill="#F6F4EE"/>
<path d="M156.465 17.4463H151.401V22.7844H149.602V17.4463H144.563V15.7707H149.602V10.4696H151.401V15.7707H156.465V17.4463Z" fill="#F6F4EE"/>
<path d="M170.526 15.7332C171.619 15.7332 172.405 15.4728 172.885 14.9514C173.364 14.43 173.604 13.7017 173.604 12.7665C173.604 12.3527 173.543 11.9764 173.419 11.6366C173.294 11.2978 173.106 11.0057 172.854 10.7613C172.601 10.5174 172.283 10.329 171.898 10.1966C171.513 10.0641 171.056 9.99794 170.526 9.99794H168.342V15.7332H170.526ZM170.526 6.85742C171.801 6.85742 172.895 7.00834 173.809 7.31066C174.724 7.61249 175.476 8.02873 176.068 8.55791C176.66 9.08757 177.096 9.71266 177.377 10.4327C177.659 11.1527 177.799 11.9306 177.799 12.7665C177.799 13.6686 177.655 14.4962 177.365 15.2493C177.076 16.0025 176.633 16.648 176.037 17.1859C175.441 17.7239 174.686 18.144 173.772 18.4459C172.858 18.7482 171.776 18.8991 170.526 18.8991H168.342V24.9445H164.147V6.85742H170.526Z" fill="#F6F4EE"/>
<path d="M187.703 18.0301L186.028 13.0766C185.904 12.7621 185.771 12.3922 185.631 11.9657C185.49 11.5397 185.35 11.0782 185.209 10.5816C185.085 11.0865 184.952 11.5538 184.812 11.9842C184.671 12.4145 184.539 12.7875 184.415 13.1015L182.752 18.0301H187.703ZM194.368 24.9445H191.117C190.752 24.9445 190.459 24.8598 190.235 24.6899C190.012 24.5205 189.843 24.3034 189.727 24.0385L188.659 20.8853H181.783L180.716 24.0385C180.625 24.2702 180.462 24.4791 180.226 24.6656C179.99 24.8515 179.698 24.9445 179.35 24.9445H176.074L183.074 6.85742H187.369L194.368 24.9445Z" fill="#F6F4EE"/>
<path d="M201.158 15.3608C201.729 15.3608 202.215 15.2888 202.616 15.1437C203.017 14.9991 203.346 14.7981 203.603 14.5415C203.859 14.2854 204.045 13.9851 204.161 13.6414C204.277 13.2981 204.335 12.9277 204.335 12.5304C204.335 11.7359 204.076 11.1152 203.559 10.6683C203.042 10.2214 202.242 9.99794 201.158 9.99794H199.469V15.3608H201.158ZM210.069 24.9445H206.271C205.568 24.9445 205.063 24.6797 204.757 24.15L201.754 18.8991C201.613 18.6756 201.455 18.5121 201.282 18.4084C201.109 18.3052 200.86 18.2536 200.537 18.2536H199.469V24.9445H195.275V6.85742H201.158C202.465 6.85742 203.58 6.99178 204.502 7.261C205.425 7.52973 206.178 7.9041 206.762 8.3846C207.344 8.86412 207.768 9.43128 208.034 10.0851C208.298 10.7389 208.431 11.4506 208.431 12.2203C208.431 12.8079 208.352 13.3624 208.195 13.8838C208.037 14.4052 207.806 14.8871 207.5 15.3302C207.193 15.7727 206.815 16.168 206.364 16.5156C205.913 16.8632 205.394 17.1485 204.807 17.3719C205.08 17.5131 205.336 17.6883 205.576 17.8996C205.816 18.1109 206.031 18.3611 206.222 18.6508L210.069 24.9445Z" fill="#F6F4EE"/>
<path d="M223.708 10.1844H218.619V24.9445H214.425V10.1844H209.336V6.85742H223.708V10.1844Z" fill="#F6F4EE"/>
<path d="M241.097 6.85742V24.9445H238.913C238.59 24.9445 238.319 24.8929 238.099 24.7892C237.88 24.686 237.663 24.5059 237.448 24.2493L228.922 13.4617C228.954 13.7845 228.977 14.097 228.99 14.3989C229.002 14.7012 229.008 14.9845 229.008 15.2493V24.9445H225.31V6.85742H227.519C227.701 6.85742 227.854 6.8657 227.978 6.88225C228.102 6.8988 228.214 6.92996 228.313 6.97523C228.413 7.02099 228.507 7.08526 228.599 7.16753C228.69 7.25078 228.793 7.36226 228.91 7.50295L237.51 18.365C237.469 18.0174 237.44 17.6806 237.423 17.3534C237.407 17.0268 237.398 16.7181 237.398 16.4284V6.85742H241.097Z" fill="#F6F4EE"/>
<path d="M248.295 10.0851V14.3059H253.979V17.4094H248.295V21.7168H255.717V24.9445H244.075V6.85742H255.717V10.0851H248.295Z" fill="#F6F4EE"/>
<path d="M263.66 15.3608C264.231 15.3608 264.717 15.2888 265.118 15.1437C265.519 14.9991 265.848 14.7981 266.105 14.5415C266.361 14.2854 266.548 13.9851 266.664 13.6414C266.779 13.2981 266.837 12.9277 266.837 12.5304C266.837 11.7359 266.578 11.1152 266.061 10.6683C265.544 10.2214 264.744 9.99794 263.66 9.99794H261.972V15.3608H263.66ZM272.571 24.9445H268.773C268.07 24.9445 267.565 24.6797 267.259 24.15L264.255 18.8991C264.115 18.6756 263.957 18.5121 263.784 18.4084C263.61 18.3052 263.362 18.2536 263.039 18.2536H261.972V24.9445H257.777V6.85742H263.66C264.967 6.85742 266.082 6.99178 267.005 7.261C267.928 7.52973 268.68 7.9041 269.264 8.3846C269.847 8.86412 270.271 9.43128 270.536 10.0851C270.801 10.7389 270.933 11.4506 270.933 12.2203C270.933 12.8079 270.854 13.3624 270.697 13.8838C270.54 14.4052 270.308 14.8871 270.002 15.3302C269.696 15.7727 269.317 16.168 268.866 16.5156C268.416 16.8632 267.896 17.1485 267.309 17.3719C267.582 17.5131 267.838 17.6883 268.078 17.8996C268.318 18.1109 268.534 18.3611 268.724 18.6508L272.571 24.9445Z" fill="#F6F4EE"/>
<path d="M27.5274 10.721C28.5715 10.2885 29.7205 10.1753 30.8289 10.3958C31.9374 10.6163 32.9556 11.1605 33.7548 11.9597C34.5539 12.7588 35.0981 13.777 35.3186 14.8855C35.5391 15.9939 35.426 17.1429 34.9935 18.187C34.561 19.2312 33.8285 20.1236 32.8888 20.7515C31.9491 21.3794 30.8443 21.7146 29.7141 21.7146L29.7141 25.1431C31.5224 25.1431 33.2901 24.6069 34.7936 23.6023C36.2972 22.5977 37.469 21.1697 38.161 19.4991C38.853 17.8285 39.0341 15.9901 38.6813 14.2166C38.3285 12.4431 37.4578 10.814 36.1791 9.53531C34.9005 8.25666 33.2714 7.38588 31.4978 7.0331C29.7243 6.68032 27.886 6.86138 26.2153 7.55338C24.5447 8.24538 23.1168 9.41725 22.1121 10.9208C21.1075 12.4243 20.5713 14.192 20.5713 16.0003V32.0003H23.9999L23.9999 16.0003C23.9999 14.8701 24.335 13.7653 24.9629 12.8256C25.5908 11.8859 26.4832 11.1535 27.5274 10.721Z" fill="#F6F4EE"/>
<path d="M14.8571 0V16C14.8571 17.1302 14.522 18.235 13.8941 19.1747C13.2662 20.1144 12.3738 20.8468 11.3296 21.2793C10.2855 21.7118 9.13652 21.825 8.02806 21.6045C6.91959 21.384 5.90141 20.8398 5.10225 20.0406C4.30309 19.2414 3.75886 18.2233 3.53837 17.1148C3.31789 16.0063 3.43105 14.8574 3.86355 13.8132C4.29605 12.7691 5.02846 11.8766 5.96817 11.2487C6.90788 10.6208 8.01268 10.2857 9.14286 10.2857V6.85714C7.33457 6.85714 5.5669 7.39336 4.06336 8.39799C2.55983 9.40262 1.38796 10.8305 0.695963 12.5012C0.0039617 14.1718 -0.177098 16.0101 0.175682 17.7837C0.528461 19.5572 1.39923 21.1863 2.67788 22.465C3.95654 23.7436 5.58564 24.6144 7.35918 24.9672C9.13272 25.32 10.971 25.1389 12.6417 24.4469C14.3123 23.7549 15.7402 22.583 16.7449 21.0795C17.7495 19.576 18.2857 17.8083 18.2857 16V0H14.8571Z" fill="#F6F4EE"/>
</g>
<defs>
<clipPath id="clip0_2246_24629">
<rect width="272.571" height="32" fill="white"/>
</clipPath>
</defs>
</svg>
