<svg width="16" height="14" viewBox="0 0 16 14" fill="none" xmlns="http://www.w3.org/2000/svg">
<path d="M1.33301 3.66602L6.77629 7.47631C7.21707 7.78486 7.43746 7.93913 7.67718 7.99889C7.88894 8.05167 8.11041 8.05167 8.32217 7.99889C8.56189 7.93913 8.78228 7.78486 9.22306 7.47631L14.6663 3.66602M4.53301 12.3327H11.4663C12.5864 12.3327 13.1465 12.3327 13.5743 12.1147C13.9506 11.9229 14.2566 11.617 14.4484 11.2407C14.6663 10.8128 14.6663 10.2528 14.6663 9.13268V4.86602C14.6663 3.74591 14.6663 3.18586 14.4484 2.75803C14.2566 2.38171 13.9506 2.07575 13.5743 1.884C13.1465 1.66602 12.5864 1.66602 11.4663 1.66602H4.53301C3.4129 1.66602 2.85285 1.66602 2.42503 1.884C2.0487 2.07575 1.74274 2.38171 1.55099 2.75803C1.33301 3.18586 1.33301 3.74591 1.33301 4.86602V9.13268C1.33301 10.2528 1.33301 10.8128 1.55099 11.2407C1.74274 11.617 2.0487 11.9229 2.42503 12.1147C2.85285 12.3327 3.4129 12.3327 4.53301 12.3327Z" stroke="#F6F4EE" stroke-width="1.5" stroke-linecap="round" stroke-linejoin="round"/>
</svg>
