<svg width="16" height="14" viewBox="0 0 16 14" fill="none" xmlns="http://www.w3.org/2000/svg">
<path d="M1.33301 3.66699L6.77629 7.47729C7.21707 7.78583 7.43746 7.94011 7.67718 7.99986C7.88894 8.05265 8.11041 8.05265 8.32217 7.99986C8.56189 7.94011 8.78228 7.78583 9.22306 7.47729L14.6663 3.66699M4.53301 12.3337H11.4663C12.5864 12.3337 13.1465 12.3337 13.5743 12.1157C13.9506 11.9239 14.2566 11.618 14.4484 11.2416C14.6663 10.8138 14.6663 10.2538 14.6663 9.13366V4.86699C14.6663 3.74689 14.6663 3.18683 14.4484 2.75901C14.2566 2.38269 13.9506 2.07673 13.5743 1.88498C13.1465 1.66699 12.5864 1.66699 11.4663 1.66699H4.53301C3.4129 1.66699 2.85285 1.66699 2.42503 1.88498C2.0487 2.07673 1.74274 2.38269 1.55099 2.75901C1.33301 3.18683 1.33301 3.74689 1.33301 4.86699V9.13366C1.33301 10.2538 1.33301 10.8138 1.55099 11.2416C1.74274 11.618 2.0487 11.9239 2.42503 12.1157C2.85285 12.3337 3.4129 12.3337 4.53301 12.3337Z" stroke="#023448" stroke-width="1.5" stroke-linecap="round" stroke-linejoin="round"/>
</svg>
