<svg width="16" height="16" viewBox="0 0 16 16" fill="none" xmlns="http://www.w3.org/2000/svg">
<g opacity="0.64">
<g clip-path="url(#clip0_4_24438)">
<path d="M2.27596 7.16299C1.87906 7.00864 1.68062 6.93146 1.62268 6.82026C1.57245 6.72386 1.57239 6.60903 1.6225 6.51257C1.6803 6.4013 1.87866 6.32389 2.27538 6.16908L13.5339 1.77552C13.892 1.63576 14.0711 1.56588 14.1855 1.60411C14.2848 1.6373 14.3628 1.71528 14.396 1.81465C14.4342 1.92907 14.3644 2.10813 14.2246 2.46625L9.83105 13.7247C9.67623 14.1215 9.59882 14.3198 9.48755 14.3776C9.39109 14.4277 9.27626 14.4277 9.17986 14.3774C9.06866 14.3195 8.99148 14.1211 8.83713 13.7242L7.08506 9.21883C7.05373 9.13826 7.03806 9.09798 7.01387 9.06406C6.99242 9.03399 6.96613 9.0077 6.93607 8.98625C6.90214 8.96206 6.86186 8.94639 6.7813 8.91506L2.27596 7.16299Z" stroke="#F6F4EE" stroke-width="2" stroke-linecap="round" stroke-linejoin="round"/>
</g>
</g>
<defs>
<clipPath id="clip0_4_24438">
<rect width="16" height="16" fill="white"/>
</clipPath>
</defs>
</svg>
