<svg width="60" height="55" viewBox="0 0 60 55" fill="none" xmlns="http://www.w3.org/2000/svg">
<path d="M56.6654 51.9981V46.6647C56.6654 41.6945 53.266 37.5182 48.6654 36.3341M39.332 4.7734C43.2411 6.35577 45.9987 10.1882 45.9987 14.6647C45.9987 19.1412 43.2411 22.9737 39.332 24.556M43.332 51.9981C43.332 47.028 43.332 44.543 42.5201 42.5828C41.4375 39.9691 39.361 37.8926 36.7473 36.81C34.7871 35.998 32.3021 35.9981 27.332 35.9981H19.332C14.362 35.9981 11.877 35.998 9.91674 36.81C7.30311 37.8926 5.22658 39.9691 4.14398 42.5828C3.33203 44.543 3.33203 47.028 3.33203 51.9981M33.9987 14.6647C33.9987 20.5558 29.2231 25.3314 23.332 25.3314C17.441 25.3314 12.6654 20.5558 12.6654 14.6647C12.6654 8.77368 17.441 3.99805 23.332 3.99805C29.2231 3.99805 33.9987 8.77368 33.9987 14.6647Z" stroke="#F6F4EE" stroke-width="6" stroke-linecap="round" stroke-linejoin="round"/>
</svg>
