<svg width="321" height="236" viewBox="0 0 321 236" fill="none" xmlns="http://www.w3.org/2000/svg">
<path fill-rule="evenodd" clip-rule="evenodd" d="M314.083 6.91738C318.082 10.918 320.329 16.3432 320.329 22C320.329 27.6569 318.082 33.0821 314.083 37.0827L122.083 229.083C118.082 233.082 112.657 235.329 107 235.329C101.343 235.329 95.9179 233.082 91.9173 229.083L6.58399 143.749C4.54644 141.781 2.92121 139.427 1.80315 136.825C0.685095 134.222 0.0965872 131.423 0.0719725 128.59C0.0473577 125.757 0.587123 122.948 1.65978 120.326C2.73244 117.705 4.31651 115.323 6.31955 113.32C8.3226 111.317 10.7045 109.733 13.3263 108.66C15.9481 107.587 18.7573 107.047 21.5899 107.072C24.4225 107.097 27.2219 107.685 29.8246 108.803C32.4274 109.921 34.7814 111.546 36.7493 113.584L107 183.835L283.917 6.91738C287.918 2.918 293.343 0.671265 299 0.671265C304.657 0.671265 310.082 2.918 314.083 6.91738Z" fill="white"/>
</svg>
