<svg viewBox="0 0 456 1279" fill="none" xmlns="http://www.w3.org/2000/svg">
<path d="M192 1277C214.091 1277 232 1259.09 232 1237C232 1214.91 214.091 1197 192 1197C169.909 1197 152 1214.91 152 1237C152 1259.09 169.909 1277 192 1277Z" fill="#030080" stroke="#030080" stroke-width="3" style="stroke-linecap: round; stroke-linejoin: round; stroke-dasharray: 1009.22px; stroke-dashoffset: 1009.22px;"/>
<path d="M42 82C64.0914 82 82 64.0914 82 42C82 19.9086 64.0914 2 42 2C19.9086 2 2 19.9086 2 42C2 64.0914 19.9086 82 42 82Z" fill="#030080" stroke="#030080" stroke-width="3" style="stroke-linecap: round; stroke-linejoin: round; stroke-dasharray: 1009.22px; stroke-dashoffset: 1009.22px;"/>
<path d="M73 59C376.552 210.161 478.292 358.036 378.22 502.625C278.148 647.214 221.44 745.797 208.097 798.375C188.083 864.097 244.791 946.25 378.22 1044.83C511.65 1143.42 461.614 1209.14 228.112 1242" stroke="#030080" stroke-width="10" style="stroke-linecap: round; stroke-linejoin: round; stroke-dasharray: 1009.22px; stroke-dashoffset: 1009.22px;"/>
</svg>
