<svg xmlns="http://www.w3.org/2000/svg" width="18.517" height="11.748" viewBox="0 0 18.517 11.748">
  <g id="Group_1115" data-name="Group 1115" transform="translate(-66.121 -1963.248)">
    <path id="Path_969" data-name="Path 969" d="M68.247,1963.423a.565.565,0,0,1,.391-.172c.1,0,.2,0,.293,0q8.474,0,16.949,0a.652.652,0,0,1,.5.177l-.741.619-7.244,6.037a1.553,1.553,0,0,1-2.167,0l-7.825-6.521C68.357,1963.52,68.308,1963.476,68.247,1963.423Z" transform="translate(-1.937)" fill="#f04b28"/>
    <path id="Path_970" data-name="Path 970" d="M68.247,2039.392c.129-.109.248-.211.369-.312q2.941-2.451,5.88-4.9a.145.145,0,0,1,.229,0c.391.334.788.662,1.184.99a2.145,2.145,0,0,0,2.8.007q.6-.5,1.2-1c.079-.067.127-.08.217-.005q3.055,2.554,6.116,5.1c.161.134.155.162-.037.247a.869.869,0,0,1-.364.05H79.7q-5.465,0-10.93,0A.669.669,0,0,1,68.247,2039.392Z" transform="translate(-1.937 -64.572)" fill="#f04b28"/>
    <path id="Path_971" data-name="Path 971" d="M66.121,1972.344l.539.447,5.37,4.474.024.02c.148.125.149.125,0,.249q-2.892,2.41-5.785,4.819a.315.315,0,0,1-.148.1Z" transform="translate(0 -8.288)" fill="#f04b28"/>
    <path id="Path_972" data-name="Path 972" d="M212.522,1972.662v10.069c-.045.019-.066-.019-.092-.04q-2.941-2.449-5.882-4.9c-.1-.081-.085-.119,0-.193q2.931-2.436,5.858-4.878C212.441,1972.7,212.464,1972.659,212.522,1972.662Z" transform="translate(-127.884 -8.577)" fill="#f04b28"/>
  </g>
</svg>
