<svg xmlns="http://www.w3.org/2000/svg" width="2311" height="133" viewBox="0 0 2311 133" fill="none" style="width: 100%;">
<path d="M74.264 103.808L67.224 85.12H28.312L21.4 103.808H0.535999L37.784 9.08801H58.392L95.64 103.808H74.264ZM34.584 68.352H61.08L47.768 32.896L34.584 68.352Z" fill="#0B5394" class="mainCap"/>
<path d="M151.272 34.56V52.352C149.224 51.712 146.408 51.328 142.824 51.328C131.944 51.328 124.52 58.496 124.52 69.248V103.808H105.064V34.56H124.52V45.44C127.72 38.144 134.888 33.28 143.208 33.28C146.536 33.28 149.224 33.664 151.272 34.56Z" fill="#0B5394" style=""/>
<path d="M210.698 86.016L214.794 101.376C210.826 103.936 204.17 105.6 197.514 105.6C180.234 105.6 170.762 95.744 170.762 76.8V51.584H156.554V34.56H170.762V16.384H190.218V34.56H212.234V51.584H190.218V76.672C190.218 84.48 193.674 88.32 200.586 88.32C204.554 88.32 207.882 87.552 210.698 86.016Z" fill="#0B5394"/>
<path d="M223.763 15.232C223.763 8.96001 228.883 4.096 235.667 4.096C242.451 4.096 247.571 8.96001 247.571 15.232C247.571 21.504 242.451 26.496 235.667 26.496C228.883 26.496 223.763 21.504 223.763 15.232ZM245.395 34.56V103.808H225.939V34.56H245.395Z" fill="#0B5394"/>
<path d="M289.468 28.928V34.56H311.996V51.584H289.468V103.808H270.012V51.584H255.804V34.56H270.012V28.8C270.012 9.856 279.484 0 296.764 0C303.42 0 310.076 1.664 314.044 4.224L309.948 19.584C307.004 17.92 303.548 17.152 299.836 17.152C293.18 17.152 289.468 21.12 289.468 28.928Z" fill="#0B5394"/>
<path d="M320.388 15.232C320.388 8.96001 325.508 4.096 332.292 4.096C339.076 4.096 344.196 8.96001 344.196 15.232C344.196 21.504 339.076 26.496 332.292 26.496C325.508 26.496 320.388 21.504 320.388 15.232ZM342.02 34.56V103.808H322.564V34.56H342.02Z" fill="#0B5394"/>
<path d="M355.245 69.12C355.245 48.384 370.861 32.768 392.237 32.768C405.549 32.768 416.941 38.784 423.469 48.896L407.469 57.856C404.269 52.864 398.765 49.92 392.237 49.92C386.733 49.92 382.381 51.712 378.925 55.424C375.469 59.008 373.805 63.616 373.805 69.12C373.805 74.624 375.469 79.232 378.925 82.944C382.381 86.656 386.733 88.448 392.237 88.448C398.765 88.448 404.269 85.504 407.469 80.512L423.469 89.344C416.941 99.456 405.549 105.6 392.237 105.6C370.861 105.6 355.245 89.984 355.245 69.12Z" fill="#0B5394"/>
<path d="M432.638 15.232C432.638 8.96001 437.758 4.096 444.542 4.096C451.326 4.096 456.446 8.96001 456.446 15.232C456.446 21.504 451.326 26.496 444.542 26.496C437.758 26.496 432.638 21.504 432.638 15.232ZM454.27 34.56V103.808H434.814V34.56H454.27Z" fill="#0B5394"/>
<path d="M522.663 34.56H542.119V103.808H522.663V94.592C518.055 101.76 510.375 105.6 501.159 105.6C481.575 105.6 467.495 89.728 467.495 69.12C467.495 48.768 481.575 32.768 501.159 32.768C510.375 32.768 518.055 36.608 522.663 43.776V34.56ZM522.535 69.12C522.535 63.36 520.871 58.752 517.415 55.168C513.959 51.456 509.607 49.664 504.359 49.664C498.855 49.664 494.503 51.584 491.047 55.296C487.719 59.008 486.055 63.616 486.055 69.12C486.055 80.384 493.479 88.704 504.359 88.704C509.607 88.704 513.959 86.912 517.415 83.2C520.871 79.488 522.535 74.88 522.535 69.12Z" fill="#0B5394"/>
<path d="M577.645 7.424V103.808H558.189V7.424H577.645Z" fill="#0B5394"/>
<path d="M645.172 9.08801V103.808H625.076V9.08801H645.172Z" fill="#0B5394" class="mainCap"/>
<path d="M730.934 64.512V103.808H711.478V65.92C711.478 55.168 706.486 49.664 697.398 49.664C688.182 49.664 681.27 56.704 681.27 67.968V103.808H661.814V34.56H681.27V43.776C685.238 36.992 692.918 32.768 702.134 32.768C720.054 32.768 730.934 44.544 730.934 64.512Z" fill="#0B5394"/>
<path d="M794.948 86.016L799.044 101.376C795.076 103.936 788.42 105.6 781.764 105.6C764.484 105.6 755.012 95.744 755.012 76.8V51.584H740.804V34.56H755.012V16.384H774.468V34.56H796.484V51.584H774.468V76.672C774.468 84.48 777.924 88.32 784.836 88.32C788.804 88.32 792.132 87.552 794.948 86.016Z" fill="#0B5394"/>
<path d="M878.297 75.648H825.561C827.993 84.48 835.289 89.088 845.017 89.088C852.057 89.088 858.585 86.016 861.785 81.024L876.761 90.368C870.745 99.584 858.329 105.6 845.017 105.6C822.361 105.6 806.745 89.984 806.745 69.12C806.745 48.384 821.849 32.768 842.713 32.768C863.321 32.768 878.681 46.848 878.681 67.584C878.681 70.784 878.553 73.472 878.297 75.648ZM825.561 62.592H859.865C858.969 54.4 852.185 48.768 842.841 48.768C834.649 48.768 827.737 53.76 825.561 62.592Z" fill="#0B5394"/>
<path d="M911.145 7.424V103.808H891.689V7.424H911.145Z" fill="#0B5394"/>
<path d="M946.77 7.424V103.808H927.314V7.424H946.77Z" fill="#0B5394"/>
<path d="M960.763 15.232C960.763 8.96001 965.883 4.096 972.667 4.096C979.451 4.096 984.571 8.96001 984.571 15.232C984.571 21.504 979.451 26.496 972.667 26.496C965.883 26.496 960.763 21.504 960.763 15.232ZM982.395 34.56V103.808H962.939V34.56H982.395Z" fill="#0B5394"/>
<path d="M1050.79 34.56H1070.24V97.408C1070.24 120.192 1052.84 132.736 1031.33 132.736C1016.61 132.736 1004.84 126.208 998.308 116.608L1013.54 107.264C1017 112.768 1023.52 116.224 1031.33 116.224C1043.62 116.224 1050.79 109.696 1050.79 97.408V91.776C1046.31 98.304 1038.5 101.76 1029.28 101.76C1009.96 102.144 995.364 86.656 995.62 67.2C995.62 47.616 1009.7 32.768 1029.28 32.768C1038.5 32.768 1046.31 36.224 1050.79 42.752V34.56ZM1050.66 67.2C1050.66 56.576 1043.24 49.536 1032.48 49.536C1021.6 49.536 1014.18 56.96 1014.18 67.2C1014.18 77.568 1021.6 84.992 1032.48 84.992C1043.24 84.992 1050.66 77.824 1050.66 67.2Z" fill="#0B5394"/>
<path d="M1154.92 75.648H1102.19C1104.62 84.48 1111.91 89.088 1121.64 89.088C1128.68 89.088 1135.21 86.016 1138.41 81.024L1153.39 90.368C1147.37 99.584 1134.95 105.6 1121.64 105.6C1098.99 105.6 1083.37 89.984 1083.37 69.12C1083.37 48.384 1098.47 32.768 1119.34 32.768C1139.95 32.768 1155.31 46.848 1155.31 67.584C1155.31 70.784 1155.18 73.472 1154.92 75.648ZM1102.19 62.592H1136.49C1135.59 54.4 1128.81 48.768 1119.47 48.768C1111.27 48.768 1104.36 53.76 1102.19 62.592Z" fill="#0B5394"/>
<path d="M1237.43 64.512V103.808H1217.98V65.92C1217.98 55.168 1212.99 49.664 1203.9 49.664C1194.68 49.664 1187.77 56.704 1187.77 67.968V103.808H1168.31V34.56H1187.77V43.776C1191.74 36.992 1199.42 32.768 1208.63 32.768C1226.55 32.768 1237.43 44.544 1237.43 64.512Z" fill="#0B5394"/>
<path d="M1250.12 69.12C1250.12 48.384 1265.74 32.768 1287.11 32.768C1300.42 32.768 1311.82 38.784 1318.34 48.896L1302.34 57.856C1299.14 52.864 1293.64 49.92 1287.11 49.92C1281.61 49.92 1277.26 51.712 1273.8 55.424C1270.34 59.008 1268.68 63.616 1268.68 69.12C1268.68 74.624 1270.34 79.232 1273.8 82.944C1277.26 86.656 1281.61 88.448 1287.11 88.448C1293.64 88.448 1299.14 85.504 1302.34 80.512L1318.34 89.344C1311.82 99.456 1300.42 105.6 1287.11 105.6C1265.74 105.6 1250.12 89.984 1250.12 69.12Z" fill="#0B5394"/>
<path d="M1397.05 75.648H1344.31C1346.74 84.48 1354.04 89.088 1363.77 89.088C1370.81 89.088 1377.34 86.016 1380.54 81.024L1395.51 90.368C1389.49 99.584 1377.08 105.6 1363.77 105.6C1341.11 105.6 1325.49 89.984 1325.49 69.12C1325.49 48.384 1340.6 32.768 1361.46 32.768C1382.07 32.768 1397.43 46.848 1397.43 67.584C1397.43 70.784 1397.3 73.472 1397.05 75.648ZM1344.31 62.592H1378.61C1377.72 54.4 1370.94 48.768 1361.59 48.768C1353.4 48.768 1346.49 53.76 1344.31 62.592Z" fill="#0B5394"/>
<path d="M1461.41 9.08801L1492.52 63.744L1523.75 9.08801H1543.2V103.808H1523.62V45.056L1500.71 85.248H1484.2L1461.03 44.672V103.808H1441.7V9.08801H1461.41Z" fill="#0B5394" class="mainCap"/>
<path d="M1612.04 34.56H1631.49V103.808H1612.04V94.592C1607.43 101.76 1599.75 105.6 1590.53 105.6C1570.95 105.6 1556.87 89.728 1556.87 69.12C1556.87 48.768 1570.95 32.768 1590.53 32.768C1599.75 32.768 1607.43 36.608 1612.04 43.776V34.56ZM1611.91 69.12C1611.91 63.36 1610.25 58.752 1606.79 55.168C1603.33 51.456 1598.98 49.664 1593.73 49.664C1588.23 49.664 1583.88 51.584 1580.42 55.296C1577.09 59.008 1575.43 63.616 1575.43 69.12C1575.43 80.384 1582.85 88.704 1593.73 88.704C1598.98 88.704 1603.33 86.912 1606.79 83.2C1610.25 79.488 1611.91 74.88 1611.91 69.12Z" fill="#0B5394"/>
<path d="M1642.32 88.96L1656.78 80.768C1660.24 86.272 1667.28 90.496 1675.98 90.496C1684.17 90.496 1689.93 88.192 1689.93 84.608C1689.93 80.896 1687.24 79.36 1677 76.928L1667.4 74.752C1652.94 71.552 1645.77 65.152 1645.77 54.784C1645.77 41.344 1658.57 32.768 1676.36 32.768C1690.57 32.768 1702.48 39.424 1707.6 48L1693.13 56.192C1690.19 51.456 1683.15 47.872 1675.98 47.872C1668.81 47.872 1664.08 50.176 1664.08 53.76C1664.08 57.344 1666.76 58.752 1677 61.184L1686.6 63.36C1701.07 66.56 1708.24 72.832 1708.24 83.456C1708.24 96.768 1694.41 105.6 1675.6 105.6C1667.79 105.6 1660.88 103.936 1654.99 100.608C1649.23 97.408 1645 93.44 1642.32 88.96Z" fill="#0B5394"/>
<path d="M1768.57 86.016L1772.67 101.376C1768.7 103.936 1762.05 105.6 1755.39 105.6C1738.11 105.6 1728.64 95.744 1728.64 76.8V51.584H1714.43V34.56H1728.64V16.384H1748.09V34.56H1770.11V51.584H1748.09V76.672C1748.09 84.48 1751.55 88.32 1758.46 88.32C1762.43 88.32 1765.76 87.552 1768.57 86.016Z" fill="#0B5394"/>
<path d="M1851.92 75.648H1799.19C1801.62 84.48 1808.91 89.088 1818.64 89.088C1825.68 89.088 1832.21 86.016 1835.41 81.024L1850.39 90.368C1844.37 99.584 1831.95 105.6 1818.64 105.6C1795.99 105.6 1780.37 89.984 1780.37 69.12C1780.37 48.384 1795.47 32.768 1816.34 32.768C1836.95 32.768 1852.31 46.848 1852.31 67.584C1852.31 70.784 1852.18 73.472 1851.92 75.648ZM1799.19 62.592H1833.49C1832.59 54.4 1825.81 48.768 1816.47 48.768C1808.27 48.768 1801.36 53.76 1799.19 62.592Z" fill="#0B5394"/>
<path d="M1911.52 34.56V52.352C1909.47 51.712 1906.66 51.328 1903.07 51.328C1892.19 51.328 1884.77 58.496 1884.77 69.248V103.808H1865.31V34.56H1884.77V45.44C1887.97 38.144 1895.14 33.28 1903.46 33.28C1906.79 33.28 1909.47 33.664 1911.52 34.56Z" fill="#0B5394"/>
<path d="M1950.88 56.448C1950.5 28.8 1971.62 6.912 1999.14 7.29601C2017.06 7.29601 2032.03 16 2039.84 29.184L2022.56 38.912C2017.57 30.848 2009.25 26.112 1999.14 26.112C1982.37 26.112 1970.98 39.168 1970.98 56.448C1970.98 73.6 1982.37 86.656 1999.14 86.656C2009.38 86.656 2017.57 81.92 2022.56 73.856L2039.84 83.712C2032.03 96.896 2017.06 105.6 1999.14 105.6C1971.62 105.984 1950.5 84.224 1950.88 56.448Z" fill="#0B5394" class="mainCap"/>
<path d="M2072.89 7.424V103.808H2053.44V7.424H2072.89Z" fill="#0B5394"/>
<path d="M2141.29 34.56H2160.74V103.808H2141.29V94.592C2136.68 101.76 2129 105.6 2119.78 105.6C2100.2 105.6 2086.12 89.728 2086.12 69.12C2086.12 48.768 2100.2 32.768 2119.78 32.768C2129 32.768 2136.68 36.608 2141.29 43.776V34.56ZM2141.16 69.12C2141.16 63.36 2139.5 58.752 2136.04 55.168C2132.58 51.456 2128.23 49.664 2122.98 49.664C2117.48 49.664 2113.13 51.584 2109.67 55.296C2106.34 59.008 2104.68 63.616 2104.68 69.12C2104.68 80.384 2112.1 88.704 2122.98 88.704C2128.23 88.704 2132.58 86.912 2136.04 83.2C2139.5 79.488 2141.16 74.88 2141.16 69.12Z" fill="#0B5394"/>
<path d="M2171.57 88.96L2186.03 80.768C2189.49 86.272 2196.53 90.496 2205.23 90.496C2213.42 90.496 2219.18 88.192 2219.18 84.608C2219.18 80.896 2216.49 79.36 2206.25 76.928L2196.65 74.752C2182.19 71.552 2175.02 65.152 2175.02 54.784C2175.02 41.344 2187.82 32.768 2205.61 32.768C2219.82 32.768 2231.73 39.424 2236.85 48L2222.38 56.192C2219.44 51.456 2212.4 47.872 2205.23 47.872C2198.06 47.872 2193.33 50.176 2193.33 53.76C2193.33 57.344 2196.01 58.752 2206.25 61.184L2215.85 63.36C2230.32 66.56 2237.49 72.832 2237.49 83.456C2237.49 96.768 2223.66 105.6 2204.85 105.6C2197.04 105.6 2190.13 103.936 2184.24 100.608C2178.48 97.408 2174.25 93.44 2171.57 88.96Z" fill="#0B5394"/>
<path d="M2244.19 88.96L2258.65 80.768C2262.11 86.272 2269.15 90.496 2277.86 90.496C2286.05 90.496 2291.81 88.192 2291.81 84.608C2291.81 80.896 2289.12 79.36 2278.88 76.928L2269.28 74.752C2254.81 71.552 2247.65 65.152 2247.65 54.784C2247.65 41.344 2260.45 32.768 2278.24 32.768C2292.45 32.768 2304.35 39.424 2309.47 48L2295.01 56.192C2292.06 51.456 2285.02 47.872 2277.86 47.872C2270.69 47.872 2265.95 50.176 2265.95 53.76C2265.95 57.344 2268.64 58.752 2278.88 61.184L2288.48 63.36C2302.94 66.56 2310.11 72.832 2310.11 83.456C2310.11 96.768 2296.29 105.6 2277.47 105.6C2269.66 105.6 2262.75 103.936 2256.86 100.608C2251.1 97.408 2246.88 93.44 2244.19 88.96Z" fill="#0B5394"/>
</svg>