<svg xmlns="http://www.w3.org/2000/svg" width="14.498" height="14.498" viewBox="0 0 14.498 14.498">
  <g id="Icon_feather-instagram" data-name="Icon feather-instagram" transform="translate(0.75 0.75)">
    <path id="Path_417" data-name="Path 417" d="M6.25,3h6.5A3.25,3.25,0,0,1,16,6.25v6.5A3.25,3.25,0,0,1,12.749,16H6.25A3.25,3.25,0,0,1,3,12.749V6.25A3.25,3.25,0,0,1,6.25,3Z" transform="translate(-3 -3)" fill="none" stroke="#f04b28" stroke-linecap="round" stroke-linejoin="round" stroke-width="1.5"/>
    <path id="Path_418" data-name="Path 418" d="M17.236,14.153a2.6,2.6,0,1,1-2.19-2.19,2.6,2.6,0,0,1,2.19,2.19Z" transform="translate(-8.137 -8.064)" fill="none" stroke="#f04b28" stroke-linecap="round" stroke-linejoin="round" stroke-width="1.5"/>
    <path id="Path_419" data-name="Path 419" d="M26.25,9.75h0" transform="translate(-16.176 -6.825)" fill="none" stroke="#f04b28" stroke-linecap="round" stroke-linejoin="round" stroke-width="1.5"/>
  </g>
</svg>
