<svg id="Layer_1" data-name="Layer 1" xmlns="http://www.w3.org/2000/svg" xmlns:xlink="http://www.w3.org/1999/xlink" viewBox="0 0 741 643"><defs><style>.cls-1{fill:none;}.cls-2{clip-path:url(#clip-path);}.cls-3{fill:#d0effd;}.cls-4{fill:#86d5fb;}.cls-5{fill:#2a678b;}.cls-6{fill:#00a0dc;}</style><clipPath id="clip-path"><rect class="cls-1" width="741" height="643"/></clipPath></defs><title>bg4_1</title><g class="cls-2"><rect class="cls-3" x="-371.01" y="-320.65" width="1852.14" height="1284.16"/><path class="cls-4" d="M779.8,179.51c0,21.73-17.61,100.68-39.36,100.68V256.53c6.79,0,12.28-24.62,12.28-31.4a12.27,12.27,0,0,0-12.28-12.27v-72.7A39.35,39.35,0,0,1,779.8,179.51Z"/><path class="cls-5" d="M752.72,225.13c0,6.78-5.49,31.4-12.28,31.4V212.86A12.27,12.27,0,0,1,752.72,225.13Z"/><path class="cls-4" d="M701.25,179.51c0,21.73,17.61,100.68,39.36,100.68V256.53c-6.79,0-12.28-24.62-12.28-31.4a12.27,12.27,0,0,1,12.28-12.27v-72.7A39.35,39.35,0,0,0,701.25,179.51Z"/><path class="cls-4" d="M612.43,193.25a39.36,39.36,0,0,0,0,55.65c15.37,15.36,83.65,58.73,99,43.37s-28-83.65-43.38-99A39.34,39.34,0,0,0,612.43,193.25Zm66.82,49.47c4.8,4.79,18.33,26.08,13.53,30.87s-26.09-8.72-30.87-13.51a12.27,12.27,0,1,1,17.34-17.36Z"/><path class="cls-4" d="M409.52,179.51a39.34,39.34,0,0,0-39.34-39.35v72.7a12.27,12.27,0,0,1,12.27,12.27c0,6.78-5.5,31.4-12.27,31.4v23.66C391.91,280.19,409.52,201.24,409.52,179.51Z"/><path class="cls-4" d="M627.93,128.57a39.34,39.34,0,0,0,55.64-55.64c-15.36-15.37-83.65-58.74-99-43.37S612.57,113.21,627.93,128.57Zm-24.7-80.35c4.79-4.8,26.08,8.73,30.88,13.53a12.28,12.28,0,1,1-17.36,17.36C612,74.31,598.43,53,603.23,48.22Z"/><path class="cls-4" d="M514.15.39c0-21.73-78.94-39.34-100.68-39.34a39.34,39.34,0,1,0,0,78.68C435.21,39.73,514.15,22.12,514.15.39Zm-55-12.27c6.77,0,31.39,5.49,31.39,12.27S465.87,12.66,459.1,12.66A12.27,12.27,0,0,1,446.82.39,12.27,12.27,0,0,1,459.1-11.88Z"/><path class="cls-6" d="M598.68,282.62A39.37,39.37,0,0,0,559.33,322H632a12.28,12.28,0,0,1,12.29-12.28c6.77,0,31.39,5.5,31.39,12.28h23.65C699.36,300.25,620.43,282.62,598.68,282.62Z"/><path class="cls-6" d="M512.1,282.62c-21.73,0-100.66,17.64-100.68,39.38h23.67c0-6.78,24.61-12.28,31.39-12.28A12.28,12.28,0,0,1,478.75,322h72.71A39.39,39.39,0,0,0,512.1,282.62Z"/><path class="cls-6" d="M498.37,193.71a39.35,39.35,0,0,0-55.66,0c-15.37,15.38-58.74,83.73-43.36,99.11s83.64-28,99-43.41A39.43,39.43,0,0,0,498.37,193.71ZM448.89,260.6c-4.79,4.79-26.09,18.33-30.88,13.53s8.73-26.11,13.52-30.91a12.28,12.28,0,0,1,17.36,17.38Z"/><path class="cls-6" d="M594.74,142.73C594.74,121,577.12,42,555.39,42s-39.34,79-39.34,100.77a39.35,39.35,0,1,0,78.69,0Zm-39.35-33.38a12.27,12.27,0,0,1-12.27-12.28c0-6.79,5.49-31.44,12.27-31.44s12.27,24.65,12.27,31.44A12.27,12.27,0,0,1,555.39,109.35Z"/><path class="cls-6" d="M596.64.68c0,21.75,79,39.39,100.68,39.37A39.38,39.38,0,0,0,736.68.68,39.39,39.39,0,0,0,697.32-38.7C675.59-38.7,596.64-21.07,596.64.68ZM651.7,13c-6.79,0-31.39-5.49-31.39-12.27S644.91-11.6,651.7-11.6A12.27,12.27,0,0,1,664,.68,12.26,12.26,0,0,1,651.7,13Z"/><path class="cls-6" d="M526.23,29.87c-15.37-15.38-83.65,28-99,43.41A39.36,39.36,0,0,0,482.86,129C498.23,113.59,541.6,45.25,526.23,29.87ZM494,79.46a12.28,12.28,0,0,1-17.35-17.37c4.79-4.8,26.08-18.34,30.87-13.54S498.83,74.66,494,79.46Z"/><path class="cls-5" d="M644.32,309.16A12.57,12.57,0,0,0,632,322h43.68C675.71,314.91,651.09,309.16,644.32,309.16Z"/><path class="cls-5" d="M466.48,309.16c-6.78,0-31.37,5.75-31.39,12.84h43.66C478.74,314.91,473.26,309.16,466.48,309.16Z"/><path class="cls-5" d="M728.33,225.13c0,6.78,5.49,31.4,12.28,31.4V212.86A12.27,12.27,0,0,0,728.33,225.13Z"/><path class="cls-5" d="M661.91,260.08c4.78,4.79,26.09,18.31,30.87,13.51s-8.73-26.08-13.53-30.87a12.27,12.27,0,1,0-17.34,17.36Z"/><path class="cls-5" d="M669.33,156.32A8.93,8.93,0,0,0,664.55,168c1.89,4.55,12.49,19.53,17.05,17.62s1.31-20-.6-24.51A8.93,8.93,0,0,0,669.33,156.32Z"/><path class="cls-5" d="M591.3,248.33a8.92,8.92,0,1,0-6.77,16.51c4.54,1.87,22.63,5,24.5.41S595.84,250.2,591.3,248.33Z"/><path class="cls-5" d="M382.45,225.13a12.27,12.27,0,0,0-12.27-12.27v43.67C377,256.53,382.45,231.91,382.45,225.13Z"/><path class="cls-5" d="M431.56,241c-5.13,5.26-19.61,28.62-14.48,33.88s27.94-9.59,33.07-14.84a13.7,13.7,0,0,0,0-19A12.94,12.94,0,0,0,431.56,241Z"/><path class="cls-5" d="M426.77,165.33c-1.88,4.56-5,22.65-.41,24.52s15.05-13.18,16.92-17.75a8.92,8.92,0,0,0-16.51-6.77Z"/><path class="cls-5" d="M523.6,245.36c-4.54,1.9-19.52,12.51-17.61,17.05s20,1.32,24.5-.58a8.93,8.93,0,0,0-6.89-16.47Z"/><path class="cls-5" d="M555.39,65.29c-6.78,0-12.27,24.62-12.27,31.41a12.27,12.27,0,1,0,24.54,0C567.66,89.91,562.17,65.29,555.39,65.29Z"/><path class="cls-5" d="M634.11,79.11a12.3,12.3,0,0,0,0-17.36C629.31,57,608,43.42,603.23,48.22S612,74.31,616.75,79.11A12.3,12.3,0,0,0,634.11,79.11Z"/><path class="cls-5" d="M459.1,12.66c6.77,0,31.39-5.49,31.39-12.27S465.87-11.88,459.1-11.88A12.27,12.27,0,0,0,446.82.39,12.27,12.27,0,0,0,459.1,12.66Z"/><path class="cls-5" d="M651.7-11.88c-6.79,0-31.39,5.49-31.39,12.28s24.6,12.26,31.39,12.26A12.26,12.26,0,0,0,664,.4,12.27,12.27,0,0,0,651.7-11.88Z"/><path class="cls-5" d="M476.69,61.75A12.27,12.27,0,1,0,494,79.11c4.79-4.8,18.31-26.09,13.52-30.89S481.48,57,476.69,61.75Z"/><path class="cls-5" d="M482.29,149.72a8.92,8.92,0,1,0,16.52,6.76c1.86-4.56,5-22.64.4-24.51S484.16,145.16,482.29,149.72Z"/><path class="cls-5" d="M614.42,136.21c-4.54,1.89-1.33,20,.58,24.5a8.93,8.93,0,0,0,16.47-6.89C629.57,149.28,619,134.3,614.42,136.21Z"/><path class="cls-5" d="M711.5,57c-4.56-1.88-22.63-5-24.51-.41s13.17,15,17.73,16.91A8.92,8.92,0,0,0,711.5,57Z"/><path class="cls-5" d="M419.59,59.42c-1.89-4.54-20-1.33-24.5.58A8.92,8.92,0,0,0,402,76.47C406.52,74.56,421.49,64,419.59,59.42Z"/><path class="cls-4" d="M39.28,179.51c0,21.73-17.61,100.68-39.36,100.68V256.53c6.79,0,12.28-24.62,12.28-31.4A12.27,12.27,0,0,0-.08,212.86v-72.7A39.35,39.35,0,0,1,39.28,179.51Z"/><path class="cls-4" d="M72.46,193.25c-15.38,15.37-58.74,83.65-43.38,99s83.65-28,99-43.37a39.35,39.35,0,1,0-55.64-55.65Zm6.16,49.47a12.28,12.28,0,0,1,0,17.36c-4.78,4.79-26.09,18.31-30.87,13.51s8.73-26.08,13.53-30.87A12.26,12.26,0,0,1,78.62,242.72Z"/><path class="cls-4" d="M331,179.51a39.34,39.34,0,0,1,39.34-39.35v72.7a12.27,12.27,0,0,0-12.27,12.27c0,6.78,5.5,31.4,12.27,31.4v23.66C348.62,280.19,331,201.24,331,179.51Z"/><path class="cls-4" d="M156,29.56c-15.37-15.37-83.65,28-99,43.37a39.34,39.34,0,0,0,55.64,55.64C128,113.21,171.33,44.92,156,29.56ZM123.78,79.11a12.28,12.28,0,1,1-17.36-17.36c4.8-4.8,26.09-18.33,30.88-13.53S128.57,74.31,123.78,79.11Z"/><path class="cls-4" d="M327.06,39.73a39.34,39.34,0,1,0,0-78.68c-21.74,0-100.68,17.61-100.68,39.34S305.32,39.73,327.06,39.73ZM293.71.39a12.27,12.27,0,0,1-12.28,12.27C274.66,12.66,250,7.17,250,.39s24.62-12.27,31.39-12.27A12.27,12.27,0,0,1,293.71.39Z"/><path class="cls-6" d="M141.85,282.62A39.37,39.37,0,0,1,181.2,322H108.5a12.28,12.28,0,0,0-12.29-12.28c-6.77,0-31.39,5.5-31.39,12.28H41.17C41.17,300.25,120.1,282.62,141.85,282.62Z"/><path class="cls-6" d="M228.43,282.62c21.73,0,100.66,17.64,100.68,39.38H305.44c0-6.78-24.61-12.28-31.39-12.28A12.28,12.28,0,0,0,261.78,322H189.07A39.39,39.39,0,0,1,228.43,282.62Z"/><path class="cls-6" d="M242.17,249.41c15.37,15.38,83.66,58.79,99,43.41s-28-83.73-43.36-99.11a39.37,39.37,0,1,0-55.65,55.7Zm49.47-6.19a12.28,12.28,0,0,1,17.36,0c4.79,4.8,18.31,26.12,13.52,30.91s-26.09-8.74-30.88-13.53A12.31,12.31,0,0,1,291.64,243.22Z"/><path class="cls-6" d="M185.14,182.11a39.36,39.36,0,0,0,39.34-39.38C224.48,121,206.87,42,185.14,42s-39.35,79-39.35,100.77A39.37,39.37,0,0,0,185.14,182.11Zm-12.27-85c0-6.79,5.49-31.44,12.27-31.44s12.27,24.65,12.27,31.44a12.27,12.27,0,1,1-24.54,0Z"/><path class="cls-6" d="M43.21-38.7A39.39,39.39,0,0,0,3.85.68,39.38,39.38,0,0,0,43.21,40.05c21.73,0,100.68-17.62,100.68-39.37S64.94-38.7,43.21-38.7ZM76.56.68A12.27,12.27,0,0,1,88.83-11.6c6.79,0,31.39,5.5,31.39,12.28S95.62,13,88.83,13A12.26,12.26,0,0,1,76.56.68Z"/><path class="cls-6" d="M257.67,129a39.36,39.36,0,0,0,55.64-55.69c-15.36-15.39-83.65-58.79-99-43.41S242.3,113.59,257.67,129ZM233,48.55c4.79-4.8,26.08,8.74,30.87,13.54a12.28,12.28,0,1,1-17.35,17.37C241.7,74.66,228.18,53.36,233,48.55Z"/><path class="cls-5" d="M96.21,309.16A12.57,12.57,0,0,1,108.5,322H64.82C64.82,314.91,89.44,309.16,96.21,309.16Z"/><path class="cls-5" d="M274.05,309.16c6.78,0,31.37,5.75,31.39,12.84H261.78C261.79,314.91,267.27,309.16,274.05,309.16Z"/><path class="cls-5" d="M12.2,225.13c0,6.78-5.49,31.4-12.28,31.4V212.86A12.27,12.27,0,0,1,12.2,225.13Z"/><path class="cls-5" d="M78.62,260.08c-4.78,4.79-26.09,18.31-30.87,13.51s8.73-26.08,13.53-30.87a12.27,12.27,0,1,1,17.34,17.36Z"/><path class="cls-5" d="M71.2,156.32A8.93,8.93,0,0,1,76,168c-1.89,4.55-12.49,19.53-17.05,17.62s-1.31-20,.6-24.51A8.93,8.93,0,0,1,71.2,156.32Z"/><path class="cls-5" d="M149.23,248.33A8.92,8.92,0,1,1,156,264.84c-4.54,1.87-22.63,5-24.5.41S144.69,250.2,149.23,248.33Z"/><path class="cls-5" d="M358.08,225.13a12.27,12.27,0,0,1,12.27-12.27v43.67C363.58,256.53,358.08,231.91,358.08,225.13Z"/><path class="cls-5" d="M309.08,242.38c4.92,5,18.8,27.08,13.88,32.05s-26.77-9.07-31.69-14a12.83,12.83,0,0,1,0-18A12.5,12.5,0,0,1,309.08,242.38Z"/><path class="cls-5" d="M313.76,165.33c1.88,4.56,5,22.65.41,24.52s-15.05-13.18-16.92-17.75a8.92,8.92,0,0,1,16.51-6.77Z"/><path class="cls-5" d="M216.93,245.36c4.54,1.9,19.52,12.51,17.61,17.05s-20,1.32-24.5-.58a8.93,8.93,0,0,1,6.89-16.47Z"/><path class="cls-5" d="M185.14,65.29c6.78,0,12.27,24.62,12.27,31.41a12.27,12.27,0,0,1-24.54,0C172.87,89.91,178.36,65.29,185.14,65.29Z"/><path class="cls-5" d="M106.42,79.11a12.3,12.3,0,0,1,0-17.36c4.8-4.8,26.09-18.33,30.88-13.53s-8.73,26.09-13.52,30.89A12.3,12.3,0,0,1,106.42,79.11Z"/><path class="cls-5" d="M281.43,12.66C274.66,12.66,250,7.17,250,.39s24.62-12.27,31.39-12.27A12.27,12.27,0,0,1,293.71.39,12.27,12.27,0,0,1,281.43,12.66Z"/><path class="cls-5" d="M88.83-11.88c6.79,0,31.39,5.49,31.39,12.28S95.62,12.66,88.83,12.66A12.26,12.26,0,0,1,76.56.4,12.27,12.27,0,0,1,88.83-11.88Z"/><path class="cls-5" d="M263.84,61.75a12.27,12.27,0,1,1-17.35,17.36C241.7,74.31,228.18,53,233,48.22S259.05,57,263.84,61.75Z"/><path class="cls-5" d="M258.24,149.72a8.92,8.92,0,1,1-16.52,6.76c-1.86-4.56-5-22.64-.4-24.51S256.37,145.16,258.24,149.72Z"/><path class="cls-5" d="M126.11,136.21c4.54,1.89,1.32,20-.58,24.5a8.93,8.93,0,0,1-16.47-6.89C111,149.28,121.56,134.3,126.11,136.21Z"/><path class="cls-5" d="M29,57c4.56-1.88,22.63-5,24.51-.41s-13.17,15-17.73,16.91A8.92,8.92,0,0,1,29,57Z"/><path class="cls-5" d="M320.94,59.42c1.89-4.54,20-1.33,24.5.58a8.92,8.92,0,0,1-6.88,16.47C334,74.56,319,64,320.94,59.42Z"/><path class="cls-4" d="M-39.27,179.51c0,21.73,17.61,100.68,39.36,100.68V256.53c-6.79,0-12.28-24.62-12.28-31.4A12.27,12.27,0,0,1,.09,212.86v-72.7A39.35,39.35,0,0,0-39.27,179.51Z"/><path class="cls-5" d="M-12.19,225.13c0,6.78,5.49,31.4,12.28,31.4V212.86A12.27,12.27,0,0,0-12.19,225.13Z"/><path class="cls-6" d="M779.8,463.79a39.34,39.34,0,0,1-39.34,39.34h0V430.44h0a12.27,12.27,0,0,0,12.26-12.27c0-6.79-5.49-31.41-12.26-31.41h0V363.11h0C762.19,363.11,779.8,442.06,779.8,463.79Z"/><path class="cls-5" d="M752.72,418.17a12.27,12.27,0,0,1-12.26,12.27h0V386.76h0C747.23,386.76,752.72,411.38,752.72,418.17Z"/><path class="cls-4" d="M516.05,501c0,21.73,17.61,100.68,39.35,100.68S594.74,522.71,594.74,501a39.35,39.35,0,1,0-78.69,0Zm39.35,33.35a12.26,12.26,0,0,1,12.26,12.27c0,6.78-5.49,31.4-12.26,31.4s-12.28-24.62-12.28-31.4A12.27,12.27,0,0,1,555.4,534.33Z"/><path class="cls-4" d="M514.15,642.9c0-21.73-78.94-39.34-100.68-39.34a39.34,39.34,0,1,0,0,78.68C435.21,682.24,514.15,664.63,514.15,642.9Zm-55-12.27c6.77,0,31.39,5.49,31.39,12.27s-24.62,12.27-31.39,12.27a12.27,12.27,0,1,1,0-24.54Z"/><path class="cls-4" d="M584.56,613.74c15.36,15.37,83.65-28,99-43.37a39.35,39.35,0,1,0-55.64-55.65C612.57,530.09,569.2,598.38,584.56,613.74Zm32.19-49.55a12.28,12.28,0,1,1,17.36,17.36c-4.8,4.79-26.09,18.31-30.88,13.52S612,569,616.75,564.19Z"/><path class="cls-4" d="M612.43,450a39.35,39.35,0,0,0,55.64,0c15.38-15.37,58.74-83.65,43.38-99s-83.65,28-99,43.38A39.35,39.35,0,0,0,612.43,450Zm49.48-66.82c4.78-4.8,26.09-18.33,30.87-13.53s-8.73,26.09-13.53,30.88a12.26,12.26,0,1,1-17.34-17.35Z"/><path class="cls-4" d="M498.36,450a39.35,39.35,0,0,0,0-55.64C483,379,414.7,335.65,399.34,351s28,83.65,43.37,99A39.36,39.36,0,0,0,498.36,450Zm-66.83-49.47c-4.79-4.79-18.32-26.08-13.52-30.88s26.09,8.73,30.88,13.53a12.27,12.27,0,0,1-17.36,17.35Z"/><path class="cls-6" d="M701.25,463.79a39.34,39.34,0,0,0,39.34,39.34h0V430.44h0a12.27,12.27,0,0,1-12.26-12.27c0-6.79,5.49-31.41,12.26-31.41h0V363.11h0C718.86,363.11,701.25,442.06,701.25,463.79Z"/><path class="cls-6" d="M427.22,570.37c15.36,15.36,83.64,58.74,99,43.37s-28-83.65-43.37-99a39.35,39.35,0,0,0-55.64,55.65Zm49.47-6.18a12.27,12.27,0,0,1,17.35,0c4.79,4.79,18.31,26.09,13.52,30.88s-26.09-8.73-30.87-13.52A12.26,12.26,0,0,1,476.69,564.19Z"/><path class="cls-6" d="M596.64,642.91c0,21.72,79,39.35,100.68,39.33a39.34,39.34,0,1,0,0-78.68C675.59,603.56,596.64,621.18,596.64,642.91Zm55.06,12.26c-6.79,0-31.39-5.49-31.39-12.26s24.6-12.28,31.39-12.28a12.27,12.27,0,1,1,0,24.54Z"/><path class="cls-6" d="M598.68,361.2c21.75,0,100.68-17.61,100.68-39.34H675.71c0,6.78-24.62,12.27-31.39,12.26A12.26,12.26,0,0,1,632,321.86h-72.7A39.33,39.33,0,0,0,598.68,361.2Z"/><path class="cls-6" d="M406.43,479.1a39.23,39.23,0,0,0,3.09-15.31c0-5.44-1.1-14.45-3.09-24.9-6-31.37-19.95-75.77-36.25-75.78h0v23.65c5.08,0,9.44,13.85,11.31,23.64a47.1,47.1,0,0,1,1,7.77,12.25,12.25,0,0,1-12.27,12.27v72.69h0A39.36,39.36,0,0,0,406.43,479.1Z"/><path class="cls-6" d="M512.1,361.2a39.35,39.35,0,0,0,39.36-39.34H478.75a12.25,12.25,0,0,1-12.27,12.26c-6.78,0-31.39-5.48-31.39-12.26H411.42C411.42,343.59,490.37,361.22,512.1,361.2Z"/><path class="cls-5" d="M728.33,418.17a12.27,12.27,0,0,0,12.26,12.27h0V386.76h0C733.82,386.76,728.33,411.38,728.33,418.17Z"/><path class="cls-5" d="M555.4,578c6.77,0,12.26-24.62,12.26-31.4a12.27,12.27,0,1,0-24.54,0C543.12,553.38,548.61,578,555.4,578Z"/><path class="cls-5" d="M507.56,595.07c4.79-4.79-8.73-26.09-13.52-30.88a12.27,12.27,0,0,0-17.35,17.36C481.47,586.34,502.77,599.86,507.56,595.07Z"/><path class="cls-5" d="M459.1,655.17c6.77,0,31.39-5.49,31.39-12.27s-24.62-12.27-31.39-12.27a12.27,12.27,0,1,0,0,24.54Z"/><path class="cls-5" d="M651.7,630.63c-6.79,0-31.39,5.49-31.39,12.28s24.6,12.26,31.39,12.26a12.27,12.27,0,1,0,0-24.54Z"/><path class="cls-5" d="M634.11,581.55a12.28,12.28,0,1,0-17.36-17.36c-4.79,4.79-18.31,26.09-13.52,30.88S629.31,586.34,634.11,581.55Z"/><path class="cls-5" d="M628.49,493.58A8.92,8.92,0,0,0,612,486.8c-1.87,4.56-5,22.65-.41,24.52S626.62,498.14,628.49,493.58Z"/><path class="cls-5" d="M496.38,507.09c4.53-1.9,1.31-20-.59-24.51a8.92,8.92,0,1,0-16.45,6.9C481.22,494,491.82,509,496.38,507.09Z"/><path class="cls-5" d="M399.3,586.31c4.55,1.87,22.64,5,24.51.41s-13.18-15.05-17.74-16.92a8.92,8.92,0,0,0-6.77,16.51Z"/><path class="cls-5" d="M691.21,583.89c1.89,4.53,20,1.31,24.51-.59a8.93,8.93,0,0,0-6.9-16.47C704.28,568.73,689.31,579.34,691.21,583.89Z"/><path class="cls-5" d="M644.32,334.12c6.77,0,31.39-5.48,31.39-12.26H632A12.26,12.26,0,0,0,644.32,334.12Z"/><path class="cls-5" d="M679.25,400.57c4.8-4.79,18.33-26.08,13.53-30.88s-26.09,8.73-30.87,13.53a12.26,12.26,0,1,0,17.34,17.35Z"/><path class="cls-5" d="M684,477.94c1.86-4.56,5-22.63.39-24.5s-15,13.19-16.91,17.75A8.92,8.92,0,1,0,684,477.94Z"/><path class="cls-5" d="M587.2,397.94c4.54-1.91,19.51-12.51,17.61-17.05s-20-1.33-24.5.58a8.93,8.93,0,0,0,6.89,16.47Z"/><path class="cls-5" d="M370.18,430.44h0a12.25,12.25,0,0,0,12.27-12.27,47.1,47.1,0,0,0-1-7.77c-1.87-9.79-6.23-23.63-11.31-23.64h0Z"/><path class="cls-5" d="M448.89,383.22c-4.79-4.8-26.09-18.33-30.88-13.53s8.73,26.09,13.52,30.88a12.27,12.27,0,0,0,17.36-17.35Z"/><path class="cls-5" d="M466.48,334.12a12.25,12.25,0,0,0,12.27-12.26H435.09C435.09,328.64,459.7,334.13,466.48,334.12Z"/><path class="cls-5" d="M441.46,487a8.92,8.92,0,0,0,4.79-11.67c-1.91-4.54-12.5-19.52-17.05-17.61s-1.32,20,.58,24.5A8.92,8.92,0,0,0,441.46,487Z"/><path class="cls-5" d="M519.51,395a8.92,8.92,0,0,0,6.76-16.51c-4.56-1.87-22.63-5-24.5-.41S514.94,393.09,519.51,395Z"/><path class="cls-4" d="M185.13,461.63A39.35,39.35,0,0,0,145.79,501c0,21.73,17.62,100.68,39.34,100.68S224.48,522.71,224.48,501A39.35,39.35,0,0,0,185.13,461.63Zm12.28,85c0,6.78-5.49,31.4-12.28,31.4s-12.26-24.62-12.26-31.4a12.27,12.27,0,1,1,24.54,0Z"/><path class="cls-4" d="M327.06,682.24a39.34,39.34,0,1,0,0-78.68c-21.74,0-100.68,17.61-100.68,39.34S305.32,682.24,327.06,682.24ZM293.71,642.9a12.27,12.27,0,0,1-12.28,12.27c-6.77,0-31.39-5.49-31.39-12.27s24.62-12.27,31.39-12.27A12.27,12.27,0,0,1,293.71,642.9Z"/><path class="cls-4" d="M112.6,514.72A39.35,39.35,0,1,0,57,570.37c15.36,15.36,83.64,58.74,99,43.37S128,530.09,112.6,514.72Zm24.7,80.35c-4.79,4.79-26.08-8.73-30.88-13.52a12.28,12.28,0,0,1,17.36-17.36C128.57,569,142.09,590.28,137.3,595.07Z"/><path class="cls-4" d="M128.1,394.4C112.73,379,44.45,335.65,29.08,351s28,83.65,43.38,99A39.34,39.34,0,1,0,128.1,394.4Zm-49.48,6.17a12.28,12.28,0,0,1-17.34,0c-4.8-4.79-18.33-26.08-13.53-30.88s26.09,8.73,30.87,13.53A12.27,12.27,0,0,1,78.62,400.57Z"/><path class="cls-4" d="M297.82,450c15.37-15.37,58.74-83.65,43.37-99s-83.64,28-99,43.38A39.35,39.35,0,1,0,297.82,450Zm-6.18-49.47a12.27,12.27,0,0,1,0-17.35c4.79-4.8,26.09-18.33,30.88-13.53s-8.73,26.09-13.52,30.88A12.3,12.3,0,0,1,291.64,400.57Z"/><path class="cls-6" d="M39.28,463.79A39.34,39.34,0,0,1-.06,503.13h0V430.44h0A12.27,12.27,0,0,0,12.2,418.17c0-6.79-5.49-31.41-12.26-31.41h0V363.11h0C21.67,363.11,39.28,442.06,39.28,463.79Z"/><path class="cls-6" d="M313.31,514.72a39.34,39.34,0,0,0-55.64,0c-15.37,15.37-58.74,83.66-43.37,99s83.65-28,99-43.37A39.33,39.33,0,0,0,313.31,514.72Zm-49.47,66.83c-4.78,4.79-26.08,18.31-30.87,13.52s8.73-26.09,13.52-30.88a12.27,12.27,0,0,1,17.35,17.36Z"/><path class="cls-6" d="M43.21,603.56a39.34,39.34,0,1,0,0,78.68c21.73,0,100.68-17.61,100.68-39.33S64.94,603.56,43.21,603.56Zm33.35,39.35a12.27,12.27,0,0,1,12.27-12.28c6.79,0,31.39,5.49,31.39,12.28s-24.6,12.26-31.39,12.26A12.26,12.26,0,0,1,76.56,642.91Z"/><path class="cls-6" d="M141.85,361.2c-21.75,0-100.68-17.61-100.68-39.34H64.82c0,6.78,24.62,12.27,31.39,12.26a12.26,12.26,0,0,0,12.29-12.26h72.7A39.33,39.33,0,0,1,141.85,361.2Z"/><path class="cls-6" d="M334.1,479.1A39.23,39.23,0,0,1,331,463.79c0-5.44,1.1-14.45,3.09-24.9,6-31.37,19.95-75.77,36.25-75.78h0v23.65c-5.08,0-9.44,13.85-11.31,23.64a47.1,47.1,0,0,0-1,7.77,12.25,12.25,0,0,0,12.27,12.27v72.69h0A39.36,39.36,0,0,1,334.1,479.1Z"/><path class="cls-6" d="M228.43,361.2a39.35,39.35,0,0,1-39.36-39.34h72.71a12.25,12.25,0,0,0,12.27,12.26c6.78,0,31.39-5.48,31.39-12.26h23.67C329.11,343.59,250.16,361.22,228.43,361.2Z"/><path class="cls-5" d="M12.2,418.17A12.27,12.27,0,0,1-.06,430.44h0V386.76h0C6.71,386.76,12.2,411.38,12.2,418.17Z"/><path class="cls-5" d="M185.13,578c-6.77,0-12.26-24.62-12.26-31.4a12.27,12.27,0,1,1,24.54,0C197.41,553.38,191.92,578,185.13,578Z"/><path class="cls-5" d="M233,595.07c-4.79-4.79,8.73-26.09,13.52-30.88a12.27,12.27,0,0,1,17.35,17.36C259.06,586.34,237.76,599.86,233,595.07Z"/><path class="cls-5" d="M281.43,655.17c-6.77,0-31.39-5.49-31.39-12.27s24.62-12.27,31.39-12.27a12.27,12.27,0,1,1,0,24.54Z"/><path class="cls-5" d="M88.83,630.63c6.79,0,31.39,5.49,31.39,12.28s-24.6,12.26-31.39,12.26a12.27,12.27,0,1,1,0-24.54Z"/><path class="cls-5" d="M106.42,581.55a12.28,12.28,0,0,1,17.36-17.36c4.79,4.79,18.31,26.09,13.52,30.88S111.22,586.34,106.42,581.55Z"/><path class="cls-5" d="M112,493.58a8.92,8.92,0,0,1,16.5-6.78c1.87,4.56,5,22.65.41,24.52S113.91,498.14,112,493.58Z"/><path class="cls-5" d="M244.15,507.09c-4.53-1.9-1.32-20,.59-24.51a8.92,8.92,0,1,1,16.45,6.9C259.31,494,248.71,509,244.15,507.09Z"/><path class="cls-5" d="M341.23,586.31c-4.55,1.87-22.64,5-24.51.41s13.18-15.05,17.74-16.92a8.92,8.92,0,1,1,6.77,16.51Z"/><path class="cls-5" d="M49.32,583.89c-1.89,4.53-20,1.31-24.51-.59a8.93,8.93,0,0,1,6.89-16.47C36.25,568.73,51.22,579.34,49.32,583.89Z"/><path class="cls-5" d="M96.21,334.12c-6.77,0-31.39-5.48-31.39-12.26H108.5A12.26,12.26,0,0,1,96.21,334.12Z"/><path class="cls-5" d="M61.28,400.57c-4.8-4.79-18.33-26.08-13.53-30.88s26.09,8.73,30.87,13.53a12.26,12.26,0,0,1-17.34,17.35Z"/><path class="cls-5" d="M56.5,477.94c-1.86-4.56-5-22.63-.39-24.5s15,13.19,16.91,17.75a8.92,8.92,0,1,1-16.52,6.75Z"/><path class="cls-5" d="M153.33,397.94c-4.54-1.91-19.51-12.51-17.61-17.05s20-1.33,24.5.58a8.93,8.93,0,0,1-6.89,16.47Z"/><path class="cls-5" d="M370.35,430.44h0a12.25,12.25,0,0,1-12.27-12.27,47.1,47.1,0,0,1,1-7.77c1.87-9.79,6.23-23.63,11.31-23.64h0Z"/><path class="cls-5" d="M291.64,383.22c4.79-4.8,26.09-18.33,30.88-13.53s-8.73,26.09-13.52,30.88a12.27,12.27,0,0,1-17.36-17.35Z"/><path class="cls-5" d="M274.05,334.12a12.25,12.25,0,0,1-12.27-12.26h43.66C305.44,328.64,280.83,334.13,274.05,334.12Z"/><path class="cls-5" d="M299.07,487a8.92,8.92,0,0,1-4.79-11.67c1.91-4.54,12.5-19.52,17.05-17.61s1.32,20-.58,24.5A8.92,8.92,0,0,1,299.07,487Z"/><path class="cls-5" d="M221,395a8.92,8.92,0,0,1-6.76-16.51c4.56-1.87,22.63-5,24.5-.41S225.59,393.09,221,395Z"/><path class="cls-6" d="M-39.27,463.79A39.34,39.34,0,0,0,.07,503.13h0V430.44h0a12.27,12.27,0,0,1-12.26-12.27c0-6.79,5.49-31.41,12.26-31.41h0V363.11h0C-21.66,363.11-39.27,442.06-39.27,463.79Z"/><path class="cls-5" d="M-12.19,418.17A12.27,12.27,0,0,0,.07,430.44h0V386.76h0C-6.7,386.76-12.19,411.38-12.19,418.17Z"/></g></svg>