<svg xmlns="http://www.w3.org/2000/svg" xmlns:xlink="http://www.w3.org/1999/xlink" viewBox="0 0 412.07 413.17"><defs><style>.cls-1{fill:none;}.cls-2{clip-path:url(#clip-path);}.cls-3{fill:#fff;}</style><clipPath id="clip-path"><circle class="cls-1" cx="205.96" cy="206.96" r="76"/></clipPath></defs><title>Asset 4</title><g id="Layer_2" data-name="Layer 2"><g id="images"><circle cx="205.96" cy="206.96" r="76"/><g class="cls-2"><image id="sQtY5W" width="3840" height="2160" transform="translate(89.72 141.16) scale(0.06)" xlink:href="../../Documents/OFFICE_WORK/WORK/data-axle/design/New%20folder/50th_DEV_section_7/Links/GettyImages-1161358519.jpg"/></g><path class="cls-3" d="M277.55,169.75,412.07,0H327.49L225.59,128.57A80.54,80.54,0,0,1,277.55,169.75Z"/><path class="cls-3" d="M186.51,128.57,84.6,0H0L134.56,169.75A80.5,80.5,0,0,1,186.51,128.57Z"/><path class="cls-3" d="M225.59,284.6l101.9,128.57h84.58L277.55,243.42A80.54,80.54,0,0,1,225.59,284.6Z"/><path class="cls-3" d="M134.56,243.42,0,413.17H84.6L186.51,284.6A80.5,80.5,0,0,1,134.56,243.42Z"/></g></g></svg>