<svg id="Layer_1" data-name="Layer 1" xmlns="http://www.w3.org/2000/svg" viewBox="0 0 957.74 166.37"><defs><style>.cls-1{fill:#ffffff;}.cls-3{fill:#00a0dc;}</style></defs><path class="cls-1" d="M432.26,49.53q14,12.94,14,38.62v76.77H424.47v-16.8A36.42,36.42,0,0,1,408,161.68q-10.66,4.68-25.3,4.68-21.36,0-34.19-10.32t-12.83-27.11q0-16.79,12.23-27T386.8,91.75h36.47V87.19q0-14.86-8.64-22.79T389.2,56.49a67.54,67.54,0,0,0-22.07,3.71,56.93,56.93,0,0,0-18.23,10l-9.6-17.27a69.71,69.71,0,0,1,23.51-12.12,98.68,98.68,0,0,1,29-4.2q26.39,0,40.42,13m-22.91,93.2a33.65,33.65,0,0,0,13.92-16.68V108.3H387.76q-29.26,0-29.26,19.67a17.8,17.8,0,0,0,7.43,15.12q7.44,5.52,20.63,5.51t22.79-5.87"/><path class="cls-1" d="M243.36,49.54q14,13,14,38.62v76.77H235.56V148.14a36.42,36.42,0,0,1-16.43,13.55q-10.68,4.68-25.31,4.68-21.36,0-34.18-10.32T146.8,129q0-16.8,12.24-27t38.86-10.2h36.46V87.21q0-14.88-8.63-22.79T200.3,56.5a67.25,67.25,0,0,0-22.07,3.72,56.9,56.9,0,0,0-18.23,10L150.4,52.9a69.6,69.6,0,0,1,23.51-12.11,98.35,98.35,0,0,1,29-4.2q26.38,0,40.42,12.95m-22.91,93.2a33.7,33.7,0,0,0,13.91-16.67V108.32h-35.5q-29.27,0-29.27,19.67A17.79,17.79,0,0,0,177,143.1q7.42,5.52,20.63,5.52t22.79-5.88"/><path class="cls-1" d="M623.14,49.53q14,12.94,14,38.62v76.77H615.34v-16.8a36.34,36.34,0,0,1-16.43,13.56q-10.68,4.68-25.31,4.68-21.35,0-34.18-10.32t-12.84-27.11q0-16.79,12.24-27t38.86-10.19h36.46V87.19q0-14.86-8.63-22.79t-25.43-7.91A67.54,67.54,0,0,0,558,60.2a56.72,56.72,0,0,0-18.23,10l-9.6-17.27a69.71,69.71,0,0,1,23.51-12.12,98.68,98.68,0,0,1,29-4.2q26.38,0,40.42,13m-22.91,93.2a33.63,33.63,0,0,0,13.91-16.68V108.3h-35.5q-29.26,0-29.27,19.67a17.81,17.81,0,0,0,7.44,15.12q7.43,5.52,20.63,5.51t22.79-5.87"/><path class="cls-1" d="M131.71,0V164.93H109.64V144.78a49.91,49.91,0,0,1-19.43,16.07,60.22,60.22,0,0,1-25.91,5.52q-18.48,0-33.11-8.16A58.35,58.35,0,0,1,8.28,135.3Q0,120.54,0,101.35T8.28,67.52A58.71,58.71,0,0,1,31.19,44.73q14.62-8.16,33.11-8.16a60.93,60.93,0,0,1,25.19,5.16A48.89,48.89,0,0,1,108.68,57V0ZM88.05,140.58a39.55,39.55,0,0,0,15.35-15.84,48.32,48.32,0,0,0,5.52-23.39A48.37,48.37,0,0,0,103.4,78,38.8,38.8,0,0,0,88.05,62.24a44,44,0,0,0-21.83-5.51,43.78,43.78,0,0,0-22,5.51A39.9,39.9,0,0,0,28.91,78a47.54,47.54,0,0,0-5.64,23.39,47.49,47.49,0,0,0,5.64,23.39,40.69,40.69,0,0,0,15.35,15.84,43,43,0,0,0,22,5.64A43.12,43.12,0,0,0,88.05,140.58Z"/><path class="cls-1" d="M957.26,109H854.11q2.14,16.8,14.75,27t31.3,10.19q22.8,0,36.71-15.35l12.71,14.87a55.68,55.68,0,0,1-21.47,15.36,74.7,74.7,0,0,1-28.66,5.28q-20.16,0-35.75-8.28a59,59,0,0,1-24.11-23.15q-8.52-14.87-8.51-33.58A67.39,67.39,0,0,1,839.35,68a59.33,59.33,0,0,1,22.79-23.15,64.91,64.91,0,0,1,32.75-8.28q18.23,0,32.5,8.28A58.16,58.16,0,0,1,949.7,68q8,14.88,8,34.06A65.86,65.86,0,0,1,957.26,109ZM867.18,66.08Q856,76.16,854.11,92.47h81.56q-1.92-16.06-13.08-26.27T894.89,56Q878.33,56,867.18,66.08Z"/><path class="cls-1" d="M321.78,146.2a31.28,31.28,0,0,1-3.8.23q-9.63,0-14.81-5.58t-5.17-16V57.55h22.32V37.64H298V0H274.88V125.82q0,19.4,10.59,29.83t29.86,10.42a57.92,57.92,0,0,0,7.77-.54V146.06Z"/><path class="cls-3" d="M722.3,110a12,12,0,1,0-16.94,0A12,12,0,0,0,722.3,110Z"/><path class="cls-1" d="M650.16,38l41.49,53.1A24.49,24.49,0,0,1,709,77.52L678.17,38Z"/><path class="cls-1" d="M749.49,38,718.64,77.52a24.35,24.35,0,0,1,12.5,6.68A24.74,24.74,0,0,1,736,91.14L777.49,38Z"/><path class="cls-1" d="M678.24,164.92,709,125.52a24.52,24.52,0,0,1-17.37-13.62l-41.41,53Z"/><path class="cls-1" d="M777.42,164.92l-41.41-53a24.55,24.55,0,0,1-17.37,13.61l30.78,39.4Z"/><rect class="cls-1" x="792.75" width="23.03" height="164.92"/></svg>