<svg xmlns="http://www.w3.org/2000/svg" viewBox="0 0 57.6 51.2"><defs><style>.cls-1{fill:#00a0dc;}</style></defs><title>fig2</title><g id="Layer_2" data-name="Layer 2"><g id="popups"><path class="cls-1" d="M57.09,24.2l-5.85-5.13V4.8a1.6,1.6,0,0,0-1.6-1.6H40a1.59,1.59,0,0,0-1.6,1.6V7.87L29.87.4a1.59,1.59,0,0,0-2.1,0L.55,24.2A1.8,1.8,0,0,0,0,25.4,1.6,1.6,0,0,0,1.6,27a1.9,1.9,0,0,0,1.06-.4L6.4,23.32V46.4a4.83,4.83,0,0,0,4.8,4.8H46.43a4.81,4.81,0,0,0,4.8-4.8V23.32L55,26.6A1.88,1.88,0,0,0,56,27a1.6,1.6,0,0,0,1.6-1.6A1.74,1.74,0,0,0,57.09,24.2ZM17.57,48a8,8,0,0,1,8-8H32a8,8,0,0,1,8,8ZM48,46.4a1.6,1.6,0,0,1-1.6,1.6H43.19A11.21,11.21,0,0,0,32,36.8h-6.4A11.22,11.22,0,0,0,14.37,48H11.21a1.6,1.6,0,0,1-1.6-1.6V20.52L28.82,3.72,48,20.52Zm0-30.13-6.4-5.6V6.4H48ZM20.77,25.6a8,8,0,1,0,8-8h0A8,8,0,0,0,20.77,25.6Zm12.81,0a4.8,4.8,0,1,1-4.8-4.8,4.8,4.8,0,0,1,4.8,4.8Z"/></g></g></svg>