<svg xmlns="http://www.w3.org/2000/svg" viewBox="0 0 170.48 170.48"><defs><style>.cls-1{fill:#092331;}.cls-2{fill:#51b4eb;}.cls-3{fill:#87d5fb;}.cls-4{fill:#235c7d;}.cls-5{fill:#398aba;}</style></defs><title>qq</title><g id="Layer_2" data-name="Layer 2"><g id="Layer_1-2" data-name="Layer 1"><rect class="cls-1" width="170.48" height="170.48"/><g id="Layer_2-2" data-name="Layer 2"><g id="working_files" data-name="working files"><path class="cls-2" d="M5.53,3.7A80,80,0,0,1,83.64,81.81a1.78,1.78,0,0,1-1.75,1.81H5.53a1.78,1.78,0,0,1-1.78-1.78V5.49A1.8,1.8,0,0,1,5.53,3.7Z"/><path class="cls-3" d="M166.78,5.57A80,80,0,0,1,88.67,83.68a1.79,1.79,0,0,1-1.81-1.77V5.54a1.78,1.78,0,0,1,1.78-1.78H165a1.78,1.78,0,0,1,1.78,1.78Z"/><path class="cls-4" d="M3.7,164.58A80,80,0,0,1,81.81,86.47a1.79,1.79,0,0,1,1.81,1.77v76.37a1.78,1.78,0,0,1-1.78,1.78H5.53a1.78,1.78,0,0,1-1.83-1.73Z"/><path class="cls-5" d="M164.91,166.45A79.93,79.93,0,0,1,86.8,88.34a1.78,1.78,0,0,1,1.76-1.8h76.38a1.78,1.78,0,0,1,1.78,1.78v76.35a1.76,1.76,0,0,1-1.76,1.78Z"/></g></g></g></g></svg>