<svg xmlns="http://www.w3.org/2000/svg" viewBox="0 0 26.92 26.82"><defs><style>.cls-1{fill:#00a0dc;}.cls-2{fill:#221f20;}</style></defs><title>sm_logo</title><g id="Layer_2" data-name="Layer 2"><g id="headline_1"><path class="cls-1" d="M15.25,15.21a2.53,2.53,0,1,0-3.58,0A2.53,2.53,0,0,0,15.25,15.21Z"/><path class="cls-2" d="M0,0,8.77,11.23a5.16,5.16,0,0,1,3.67-2.88L5.92,0Z"/><path class="cls-2" d="M21,0,14.48,8.35a5.15,5.15,0,0,1,2.64,1.41,5.22,5.22,0,0,1,1,1.47L26.92,0Z"/><path class="cls-2" d="M5.94,26.82l6.5-8.33A5.11,5.11,0,0,1,9.8,17.08a5.18,5.18,0,0,1-1-1.46L0,26.82Z"/><path class="cls-2" d="M26.9,26.82l-8.75-11.2a5.24,5.24,0,0,1-1,1.46,5.15,5.15,0,0,1-2.64,1.41L21,26.82Z"/></g></g></svg>