<svg width="449" height="681" viewBox="0 0 449 681" fill="none" xmlns="http://www.w3.org/2000/svg">
<g opacity="0.5">
<path d="M211.804 474.604C211.456 488.775 205.078 502.572 198.889 515.075C192.628 527.739 184.899 539.968 174.597 549.754C169.847 554.264 164.577 558.209 158.8 561.322C152.163 564.891 144.966 567.141 139.123 572.054C138.605 572.494 137.711 572.071 137.682 571.413C136.762 555.803 130.124 541.437 127.814 526.084C125.66 511.715 126.931 496.859 131.378 483.028C135.545 470.091 142.674 454.953 155.055 448.024C166.681 441.52 174.144 446.642 193.177 436.576C197.965 427.11 204.547 418.853 214.37 413.158C214.663 412.992 218.532 414.287 219.45 418.135C211.066 420.823 198.917 438.329 199.034 438.471C207.461 448.582 212.142 461.381 211.804 474.604ZM197.496 513.631C202.494 503.691 207.321 492.889 209.116 481.925C209.377 480.353 209.575 478.779 209.698 477.198C210.761 463.705 206.239 450.461 197.77 440.009C195.886 444.248 194.365 448.712 193.01 453.095C192.816 453.705 192.648 454.313 192.46 454.912C195.917 464.9 200.813 473.39 207.653 481.507C207.704 481.567 207.712 481.636 207.683 481.7C207.631 481.818 207.466 481.9 207.361 481.789C200.259 474.754 194.894 465.463 192.194 455.799C190.768 460.602 189.421 465.427 188.107 470.267C190.944 479.129 195.118 486.318 201.162 493.501C201.313 493.684 201.034 493.934 200.869 493.783C194.576 488.087 189.865 479.731 187.8 471.393C186.157 477.465 184.499 483.543 182.674 489.56C185.243 497.491 188.042 507.509 195.102 512.206C195.2 512.275 195.215 512.385 195.177 512.471C195.124 512.59 194.986 512.67 194.861 512.601C191.115 510.653 189.172 506.968 187.383 503.312C185.309 499.079 183.623 494.671 182.514 490.094C182.193 491.136 181.882 492.183 181.549 493.221C179.913 498.381 178.028 503.431 175.96 508.373C177.164 511.318 178.274 514.298 179.746 517.129C181.502 520.512 183.694 523.522 185.819 526.683C185.977 526.907 185.654 527.112 185.482 526.919C181.122 522.005 177.509 515.323 175.741 508.895C174.365 512.135 172.919 515.331 171.386 518.489C173.179 525.818 176.478 531.639 181.762 537.17C181.862 537.266 181.836 537.409 181.777 537.486C181.706 537.557 181.607 537.578 181.503 537.493C176.075 532.98 172.27 526.006 171.13 519.007C169.066 523.216 166.872 527.369 164.565 531.458C165.5 533.961 166.09 536.606 167.093 539.101C168.214 541.853 169.608 544.457 170.945 547.1C171.049 547.301 170.809 547.464 170.637 547.388C170.605 547.374 170.572 547.359 170.554 547.313C168.851 544.855 167.506 542.144 166.368 539.371C165.479 537.198 164.481 534.834 164.004 532.458C162.193 535.634 160.328 538.786 158.403 541.898C157.864 542.908 157.314 543.913 156.754 544.914C157.147 546.609 157.405 548.347 157.861 550.044C158.412 552.08 159.114 554.066 159.841 556.052C159.938 556.327 159.554 556.465 159.422 556.213C157.893 553.189 156.525 549.514 156.149 545.985C153.719 550.29 151.137 554.476 148.401 558.516C148.414 558.573 148.416 558.626 148.392 558.679C148.165 559.364 147.886 559.936 147.962 560.691C148.036 561.394 148.305 562.093 148.756 562.616C148.883 562.763 148.655 562.958 148.524 562.848C147.759 562.25 147.256 561.15 147.272 560.127C145.353 562.881 143.356 565.575 141.282 568.183C145.171 565.608 149.431 563.792 153.725 561.784C160.135 558.811 166.022 554.986 171.317 550.293C171.955 549.726 172.583 549.155 173.204 548.568C176.616 545.356 179.735 541.847 182.607 538.138C187.552 531.769 191.753 524.811 195.435 517.688C196.117 516.355 196.809 515.001 197.496 513.631ZM171.005 517.289C176.305 505.976 180.395 494.254 183.723 482.129C187.457 468.483 190.343 454.255 195.745 441.145C199.988 430.818 206.808 421.417 217.625 417.516C216.938 414.338 214.428 414.536 214.344 414.435C188.363 431.988 186.2 465.399 178.029 492.996C174.337 505.475 169.725 518.227 164.052 530.495C164.084 530.51 164.126 530.502 164.158 530.517C165.192 528.683 166.221 526.834 167.206 524.966C168.511 522.493 169.731 519.982 170.918 517.456C170.912 517.441 170.911 517.414 170.909 517.388C170.901 517.32 170.952 517.291 171.005 517.289ZM163.793 531.166L163.789 531.087C163.722 531.238 163.655 531.388 163.577 531.534C163.656 531.414 163.724 531.29 163.793 531.166ZM163.08 528.247C165.727 522.467 168.159 516.591 170.387 510.65C161.094 520.948 149.355 528.2 136.002 532.069C135.882 532.106 135.806 531.93 135.941 531.887C149.683 527.548 161.611 519.554 171.02 508.677C171.055 508.628 171.101 508.61 171.142 508.576C172.37 505.206 173.528 501.817 174.617 498.41C176.247 493.325 177.727 488.198 179.041 483.01C179.528 481.075 179.998 479.12 180.482 477.132C166.985 490.83 150.764 501.411 132.688 508.05C132.568 508.087 132.502 507.916 132.616 507.863C150.822 500.497 167.102 489.697 180.822 475.673C181.857 471.315 182.909 466.861 184.062 462.413C172.192 473.756 158.734 483.916 144.025 491.24C143.994 491.252 143.955 491.196 143.991 491.173C158.592 482.41 172.077 472.855 184.384 461.023C184.393 461.002 184.419 461 184.435 460.994C186.068 454.828 187.941 448.703 190.317 442.893C177.872 455.268 162.941 464.774 146.304 470.493C146.195 470.535 146.135 470.379 146.233 470.333C163.171 463.82 178.245 454.081 190.92 441.074C190.986 441.013 191.053 440.978 191.125 440.959C191.498 440.12 191.871 439.281 192.266 438.452C182.861 444.77 170.837 443.909 160.444 447.727C145.675 453.156 137.626 469.727 133.1 483.793C128.357 498.549 127.326 514.517 130.283 529.746C131.782 537.446 134.166 544.922 136.153 552.478C137.635 558.071 138.876 563.712 139.367 569.535C139.683 569.288 140.004 569.058 140.326 568.827C143.083 564.191 145.879 559.61 148.621 555.006C146.328 556.86 143.771 558.352 141.002 559.452C140.913 559.477 140.872 559.369 140.954 559.328C143.994 557.793 146.791 555.906 149.39 553.712C151.579 550.034 153.719 546.322 155.799 542.57C150.552 547.156 144.156 550.561 137.422 552.231C137.381 552.238 137.338 552.219 137.32 552.173C137.297 552.137 137.305 552.089 137.363 552.076C144.622 549.454 150.904 545.843 156.728 540.857C158.649 537.318 160.489 533.729 162.214 530.052C157.859 533.617 153.272 536.95 148.522 539.927C148.45 539.973 148.366 539.871 148.443 539.815C153.374 536.403 158.112 532.815 162.719 529.001C162.845 528.748 162.97 528.494 163.08 528.247Z" fill="#FEFAE8"/>
<path d="M174.618 498.41C174.618 498.41 174.598 498.453 174.578 498.47C168.864 504.6 162.415 509.747 155.072 513.775C154.989 513.815 154.9 513.698 154.982 513.657C162.119 509.37 168.554 504.282 174.228 498.186C174.404 497.993 174.708 498.206 174.618 498.41Z" fill="#FEFAE8"/>
<path d="M319.414 556.932C302.009 544.518 285.589 529.995 274.578 511.893C260.847 489.315 258.365 462.412 269.628 438.264C269.797 437.912 270.091 437.795 270.388 437.842C269.908 436.936 269.526 436.003 268.753 435.276C268.234 434.782 267.614 434.389 266.936 434.15C266.55 434.006 266.153 433.959 265.789 433.824C255.546 460.298 258.455 491.19 274.433 514.853C283.806 528.743 296.907 540.3 310.185 550.366C313.208 552.643 316.289 554.83 319.425 556.936L319.414 556.932ZM265.615 432.567C267 432.051 268.854 433.28 269.798 434.22C270.877 435.274 271.817 436.766 271.367 438.281C271.326 438.392 271.245 438.475 271.148 438.501C271.194 438.681 271.201 438.898 271.093 439.121C269.179 443.195 267.687 447.35 266.569 451.544C290.389 456.08 303.252 478.562 311.137 499.434C316.048 512.421 320.411 525.632 325.001 538.738C329.23 550.819 333.481 562.506 341.565 572.527C343.72 574.432 341.457 574.069 341.122 573.719C324.801 567.383 307.465 563.986 291.304 557.219C277.816 551.572 265.651 542.974 256.684 531.306C239.517 508.985 237.727 476.16 257.878 454.998C258.163 454.702 258.495 454.687 258.778 454.805C259.677 447.478 261.453 440.226 264.138 433.299C264.339 432.758 264.902 432.628 265.34 432.766C265.406 432.69 265.498 432.611 265.626 432.571L265.615 432.567ZM309.918 501.129C301.733 479.881 290.136 458.385 266.113 453.246C265.908 454.136 265.721 455.046 265.538 455.945C268.845 459.923 272.26 462.937 277.314 464.713C277.469 464.77 277.416 465.014 277.242 464.975C272.597 463.753 268.004 460.904 265.36 456.796C264.45 461.582 264.052 466.407 264.109 471.225C272.366 478.987 282.111 483.823 293.35 485.685C293.49 485.712 293.434 485.93 293.294 485.903C282.192 484.519 272.158 479.751 264.119 472.045C264.277 479.06 265.416 486.038 267.488 492.835C278.687 500.183 293.754 502.185 306.843 502.612C306.955 502.616 307.001 502.695 306.983 502.777C306.963 502.832 306.92 502.879 306.841 502.887C294.642 503.444 278.298 501.432 267.884 494.037C270.162 501.124 273.428 507.988 277.631 514.458C277.684 514.553 277.752 514.641 277.809 514.725C286.188 518.2 294.8 519.627 303.871 519.717C303.998 519.714 303.995 519.889 303.884 519.885C295.015 520.435 286.472 518.72 278.303 515.423C282 520.99 286.146 526.058 290.651 530.769C300.365 533.962 309.565 534.313 319.652 533.424C319.705 533.419 319.73 533.453 319.748 533.472C319.771 533.544 319.754 533.625 319.686 533.638C310.56 535.863 300.711 534.856 291.809 531.978C295.676 535.938 299.774 539.682 304.015 543.241C309.288 544.734 314.277 544.79 319.673 544.056C319.872 544.029 319.906 544.343 319.721 544.4C314.91 545.691 309.772 545.391 304.998 544.045C311.552 549.492 318.443 554.575 325.383 559.625C327.007 559.851 328.531 559.839 330.165 559.328C330.293 559.288 330.346 559.483 330.218 559.524C328.865 559.988 327.379 560.203 325.94 560.02C329.263 562.434 332.582 564.859 335.882 567.303C331.787 561.249 328.968 554.3 326.457 547.466C324.683 542.638 322.95 537.801 321.248 532.949C318.685 525.681 316.178 518.396 313.61 511.139C312.455 507.86 311.242 504.496 309.933 501.122L309.918 501.129ZM258.123 464.08C258.156 461.656 258.316 459.229 258.551 456.805C240.441 476.427 241.685 505.005 255.334 526.284C257.457 529.597 259.877 532.718 262.569 535.614C268.695 542.182 275.585 547.064 282.944 550.951C288.254 553.764 293.805 556.063 299.509 558.118C301.51 553.474 301.347 549.244 300.447 544.565C295.642 540.596 290.934 536.4 286.518 531.922C288.385 537.852 287.363 544.191 283.862 549.358C283.846 549.402 283.809 549.401 283.771 549.4C283.727 549.384 283.691 549.345 283.723 549.294C287.181 543.633 287.769 537.347 285.704 531.105C283.105 528.432 280.632 525.656 278.297 522.78C278.419 527.22 276.682 531.762 274.299 535.373C274.256 535.457 274.131 535.386 274.175 535.301C276.601 530.865 277.217 526.636 277.518 521.8C275 518.604 272.664 515.289 270.587 511.818C269.033 509.206 267.63 506.525 266.352 503.778C265.959 511.33 262.836 518.559 257.317 523.818C257.255 523.883 257.158 523.873 257.107 523.841C257.038 523.79 257.009 523.666 257.079 523.579C262.385 517.337 265.308 510.41 265.586 502.188C265.586 502.188 265.594 502.166 265.602 502.144C263.142 496.559 261.32 490.746 260.06 484.803C259.623 486.726 258.614 488.699 257.969 490.268C256.056 494.945 253.534 499.27 250.496 503.291C250.437 503.382 250.291 503.303 250.35 503.212C252.312 500.16 254.12 497.014 255.654 493.728C256.987 490.883 260.168 485.019 259.312 481.575C259.272 481.447 259.313 481.336 259.39 481.264C258.539 476.252 258.107 471.157 258.1 466.068C255.839 471.482 252.71 476.323 248.451 480.456C248.351 480.557 248.207 480.403 248.292 480.309C252.451 475.499 255.785 470.206 258.017 464.229C258.037 464.174 258.065 464.134 258.103 464.098L258.123 464.08ZM302.626 546.341C302.213 546 301.799 545.658 301.382 545.327C302.554 549.579 301.74 554.376 299.928 558.274C303.911 559.69 307.963 561.019 312.036 562.292C320.889 565.102 329.865 567.781 338.548 571.281C333.678 567.049 327.976 564.041 322.449 560.595C322.591 560.786 322.741 560.992 322.906 561.192C324.068 562.728 325.105 564.331 326.046 566.024C326.11 566.123 325.966 566.208 325.891 566.105C324.834 564.52 323.713 562.973 322.519 561.488C321.998 560.829 321.423 560.214 320.856 559.577C318.037 557.764 315.27 555.883 312.542 553.928C313.211 556.525 313.108 559.237 312.286 561.857C312.265 561.913 312.198 561.925 312.166 561.876C312.166 561.876 312.167 561.839 312.171 561.828C312.827 558.944 312.665 556.134 311.796 553.4C308.67 551.134 305.613 548.781 302.622 546.352L302.626 546.341Z" fill="#FEFAE8"/>
<path d="M299.535 562.67C299.703 562.657 299.75 562.938 299.578 562.962C296.244 563.52 292.837 563.259 289.56 562.445C289.435 562.411 289.482 562.215 289.612 562.238C292.937 562.819 296.168 562.876 299.524 562.666L299.535 562.67Z" fill="#FEFAE8"/>
<path d="M162.558 391.071C161.995 390.816 162.252 389.679 162.906 389.878C209.524 404.022 258.53 422.232 277.701 427.02C317.966 437.055 402.204 440.741 402.497 441.085C404.325 443.606 405.089 448.948 402.022 449.289C367.969 453.102 323.295 450.356 286.063 440.374C264.418 434.567 243.315 426.955 222.567 418.524C202.55 410.373 162.717 391.243 162.558 391.071ZM222.244 411.36C203.687 404.122 185.525 396.619 166.161 391.974C203.295 409.553 242.544 425.431 282.084 436.55C320.896 447.453 370.641 452.804 401.838 446.72C402.327 445.552 402.336 444.22 401.899 443.046C401.448 443.441 320.536 439.604 281.708 430.102C261.487 425.158 241.626 418.939 222.234 411.365L222.244 411.36Z" fill="#FEFAE8"/>
<path d="M17.1986 400.566C16.2589 399.734 15.4683 398.831 15.1535 397.613C13.0155 389.444 22.0736 381.966 24.9555 378.17C30.8546 370.425 35.2962 361.689 41.3609 354.074C60.6126 329.858 94.7527 320.77 123.348 332.669C136.62 338.198 147.627 347.478 155.632 359.36C158.46 363.558 161.155 367.142 165.143 370.349C167.749 372.451 170.65 374.376 172.534 377.209C174.678 380.428 176.417 383.916 173.216 389.463C173.199 389.51 173.182 389.557 173.155 389.609C173.706 390.638 173.886 391.985 173.885 392.975C173.853 394.838 173.158 396.455 171.794 397.646C171.515 398.572 170.984 399.46 170.231 400.154C167.94 402.251 164.529 401.505 161.776 402.154C156.953 403.299 153.455 407.554 149.477 410.213C135.403 419.643 117.396 424.408 100.84 427.199C74.5037 431.639 48.2091 427.481 28.6885 408.303C25.9269 405.597 18.0762 401.349 17.1986 400.566ZM19.6444 390.663C12.065 397.027 24.7441 402.237 28.4755 405.839C32.392 409.64 36.0829 413.405 40.7076 416.389C60.6031 429.219 85.3556 429.146 107.738 424.19C119.784 421.523 132.101 418.025 142.988 412.131C148.361 409.229 152.62 404.407 157.948 401.657C159.69 400.77 161.318 400.522 163.256 400.271C164.376 400.133 165.732 400.248 166.798 399.914C173.883 397.688 168.095 392.597 167.817 392.532C167.053 392.347 167.355 391.084 168.111 391.196C170.526 391.54 176.881 387.355 165.542 381.096C162.619 379.482 159.797 377.833 157.06 375.896C152.261 372.486 147.623 368.895 142.649 365.75C131.59 358.759 119.462 353.172 106.523 350.858C95.1885 348.828 83.1659 349.53 72.3618 353.642C61.5101 357.762 54.1592 365.438 46.3076 373.597C42.7538 377.292 39.0376 380.948 34.6323 383.639C29.8801 386.534 23.885 387.099 19.6444 390.663ZM17.0514 390.52C17.6145 389.838 18.2547 389.236 18.9246 388.725C22.7769 385.799 28.0848 385.35 32.2964 383.076C35.5643 381.312 38.4455 378.949 41.1461 376.424C46.337 371.591 50.7713 365.983 56.1523 361.359C77.4985 343.041 108.127 346.039 131.801 357.801C144.602 364.151 155.778 373.208 168 380.482C168.629 380.849 169.267 381.264 169.868 381.709C171.277 382.737 172.539 383.976 173.159 385.454C175.541 377.209 162.344 370.902 157.973 365.311C152.66 358.524 148.504 351.595 141.854 345.921C129.78 335.595 114.265 329.342 98.3444 328.93C87.6815 328.652 77.0431 331.019 67.4093 335.541C60.4314 338.822 53.9862 343.232 48.4413 348.584C43.6499 353.215 39.8739 358.591 36.2685 364.107C34.8126 366.318 33.3824 368.555 31.9315 370.776C29.7282 374.134 27.4936 377.48 24.9485 380.582C22.7387 383.292 18.1275 386.706 17.0514 390.52ZM169.737 392.628C169.83 392.715 169.923 392.801 170.011 392.877C170.15 393.006 170.284 393.125 170.424 393.255C171.45 393.968 171.943 395.011 171.986 396.123C172.46 395.17 172.763 394.129 172.792 393.087C172.798 392.355 172.688 391.626 172.451 390.931C171.766 391.879 170.847 392.469 169.737 392.628Z" fill="#FEFAE8"/>
<path d="M35.4489 403.927C34.3978 402.666 33.8223 400.867 34.4638 399.276C35.1228 397.611 36.7471 396.805 38.365 396.288C36.3358 390.998 44.5531 386.702 48.8863 386.036C50.3846 380.551 59.3816 377.41 64.1521 377.67C64.184 377.655 64.2254 377.687 64.2674 377.694C68.0278 371.844 79.2599 369.301 84.8682 372.108C85.9503 370.595 87.4845 369.35 89.1609 368.571C93.8012 366.432 99.4948 367.793 103.949 369.948C105.196 368.096 106.951 366.655 109.039 366.308C113.358 365.584 118.64 368.583 121.693 371.712C125.286 367.88 131.582 370.102 135.317 372.609C136.863 373.65 138.433 375.46 139.165 377.341C142.049 377.906 145.342 379.202 147.006 381.762C148.162 383.547 148.736 386.583 146.91 388.122C149.822 389.767 150.485 392.605 149.244 395.768C148.871 396.908 147.707 397.861 146.159 398.526C146.845 399.648 146.631 401.18 145.774 402.314C144.346 404.225 141.407 405.17 139.147 405.456C136.833 405.767 134.384 405.322 132.63 403.703C132.418 403.503 132.213 403.288 132.023 403.052C128.838 406.261 124.132 408.535 119.561 407.347C117.566 406.844 115.832 405.736 114.565 404.238C110.768 408.218 104.878 410.66 99.6716 407.793C98.6521 407.233 97.7399 406.349 97.0161 405.285C93.1616 409.005 87.0999 411.359 82.0543 408.586C81.6329 408.355 81.2234 408.067 80.8515 407.748C78.2061 410.858 73.837 412.882 69.7514 411.673C68.3912 411.274 67.1715 410.483 66.1834 409.465C62.6642 413.262 56.8796 412.673 53.6284 409.261C49.5953 412.493 43.4443 411.101 40.7015 406.863C40.5338 406.59 40.5868 406.344 40.7382 406.169C38.7676 406.214 36.8796 405.634 35.4489 403.927ZM35.5914 401.113C35.7672 402.423 36.8201 403.605 37.9331 404.225C40.6424 405.745 43.9302 404.271 46.6253 403.389C45.5582 402.37 44.8447 401.079 45.0454 399.657C43.9329 399.948 42.8264 399.975 41.7909 399.657C41.6237 400.764 41.4912 401.973 41.0318 402.958C40.9481 403.166 40.6705 403.102 40.6702 402.881C40.6688 401.775 41.059 400.588 41.3734 399.49C40.455 399.116 39.617 398.444 38.9352 397.386C37.216 397.963 35.3069 399.021 35.5914 401.113ZM41.8409 406.078C41.8923 406.131 41.9544 406.18 42.0002 406.25C44.325 409.878 49.3536 410.602 52.8797 408.365C52.2872 407.551 51.818 406.64 51.5304 405.617C50.9576 405.562 50.3961 405.475 49.847 405.305L49.4709 405.17C49.3978 405.843 49.314 406.52 49.1569 407.18C49.1052 407.374 48.8332 407.294 48.8423 407.12C48.869 406.405 48.9847 405.712 49.111 405.015C48.5424 404.775 47.96 404.452 47.4263 404.066C47.3831 404.112 47.3292 404.163 47.2653 404.194C45.6555 405.058 43.7372 405.82 41.8409 406.078ZM39.8121 396.1C41.0978 399.099 45.1117 398.584 47.2743 397.264C49.0737 396.167 50.2502 394.44 51.8589 393.159C50.6088 392.552 49.6218 391.482 49.0389 389.778C48.7427 388.902 48.6401 388.079 48.6793 387.279C48.3936 387.336 48.0917 387.413 47.7684 387.501C46.9096 388.687 46.4113 390.003 45.9901 391.4C45.9495 391.562 45.6982 391.498 45.7174 391.346C45.8642 389.975 46.5086 388.72 47.3337 387.628C46.4005 387.912 45.3803 388.316 44.3791 388.815C44.2406 389.349 44.0865 389.877 43.948 390.411C43.7703 391.055 43.6389 391.742 43.3151 392.324C43.2382 392.465 43.0457 392.36 43.0436 392.218C43.0742 391.566 43.3315 390.897 43.5143 390.264C43.6391 389.867 43.7532 389.474 43.8674 389.082C43.0196 389.547 42.207 390.087 41.5298 390.693C41.3224 391.716 41.1357 392.754 40.855 393.759C40.8089 393.937 40.5155 393.867 40.5404 393.699C40.6865 392.823 40.8797 391.964 41.0885 391.11C39.7143 392.501 39.0021 394.191 39.8121 396.1ZM46.0694 399.316C47.1781 401.996 48.5733 403.876 51.7999 404.175C54.5904 404.433 57.1753 403.069 59.7757 402.18C57.4177 400.025 56.0525 396.582 57.0777 393.625C56.512 393.723 55.9475 393.768 55.3886 393.797C54.8471 395.16 54.3156 396.543 53.6329 397.855C53.5504 398.011 53.3166 397.874 53.3728 397.717C53.8242 396.384 54.4222 395.087 55.0096 393.794C54.0772 393.805 53.2005 393.685 52.4012 393.398C52.3125 393.596 52.1975 393.794 52.0981 393.997C52.1939 393.952 52.3607 394.029 52.3314 394.16C51.9982 395.854 51.82 397.682 51.2356 399.312C51.1569 399.531 50.8216 399.455 50.8376 399.213C50.9859 397.542 51.5609 395.865 51.9768 394.236C51.3416 395.317 50.4224 396.376 49.3433 397.289C49.02 398.314 48.8596 399.353 48.6981 400.445C48.6676 400.628 48.3825 400.659 48.366 400.458C48.2916 399.556 48.454 398.659 48.7424 397.781C47.9067 398.41 46.9994 398.943 46.0694 399.316ZM52.9358 405.643C55.2338 410.924 61.0061 412.066 65.4393 408.606C64.5091 407.353 63.9164 405.849 63.8781 404.279C63.4118 404.174 62.951 404.053 62.4966 403.89C62.3035 403.812 62.1161 403.718 61.9336 403.635C61.7658 404.768 61.5022 405.947 61.1201 407.013C61.0482 407.164 60.8019 407.111 60.8268 406.943C60.9739 405.793 61.29 404.615 61.6627 403.502C61.3035 403.32 60.9398 403.101 60.603 402.857C60.3088 403.061 60.0045 403.244 59.6895 403.431C59.3494 404.503 59.045 405.623 58.5381 406.618C58.4662 406.769 58.1823 406.747 58.2341 406.553C58.4297 405.588 58.8038 404.644 59.1723 403.715C57.2795 404.751 55.0974 405.534 52.9358 405.643ZM50.4664 387.425C50.1945 392.474 54.0835 392.825 58.1906 391.68C58.1906 391.68 58.2119 391.67 58.2125 391.644C58.4071 391.422 58.6871 391.381 58.9115 391.47C61.6273 390.605 64.3349 389.17 65.8975 388.068C64.9191 387.319 64.1208 386.29 63.6085 384.957C62.7178 382.656 62.8542 380.574 63.6747 378.755C62.871 378.9 61.9451 379.089 60.9867 379.321C60.9917 379.331 60.9755 379.352 60.9649 379.357C59.7021 380.708 59.0325 382.378 58.7546 384.189C58.7117 384.456 58.3175 384.421 58.3341 384.153C58.4065 382.348 59.2434 380.729 60.4887 379.452C55.9863 380.614 50.7102 382.922 50.4664 387.425ZM58.9199 393.198C57.8361 397.354 59.2252 401.372 63.8874 402.699C63.945 402.711 63.9977 402.712 64.0497 402.74C70.3906 403.652 73.1253 400.317 75.9303 397.131C73.9721 394.996 73.1965 392.03 74.7415 389.373C73.6459 389.617 72.5319 389.74 71.463 389.736C70.794 390.912 70.4535 392.231 70.5229 393.591C70.5237 393.786 70.2381 393.843 70.2109 393.647C70.0162 392.242 70.3522 390.886 71.1628 389.735C69.7787 389.698 68.4625 389.448 67.3158 388.921C66.9622 389.193 66.5446 389.494 66.1114 389.79C65.6713 391.091 65.2932 392.441 64.707 393.681C64.6458 393.827 64.4421 393.754 64.4719 393.597C64.7837 392.382 65.2842 391.208 65.7426 390.029C64.9569 390.543 64.0659 391.055 63.1072 391.533C62.7241 392.873 62.3713 394.276 61.7644 395.5C61.6869 395.667 61.3767 395.644 61.4184 395.429C61.6412 394.191 62.1159 392.991 62.5799 391.795C61.4089 392.348 60.1708 392.841 58.9199 393.198ZM65.4373 404.493C65.709 407.385 67.8981 409.788 70.8551 410.371C74.3836 411.062 77.4854 409.194 79.9086 406.826C78.0763 404.71 77.2398 401.642 78.5763 399.123C78.118 398.897 77.7029 398.624 77.304 398.331C77.3241 398.374 77.3442 398.416 77.3274 398.463C76.4374 400.328 75.9035 402.286 75.505 404.31C75.4633 404.525 75.1531 404.502 75.1791 404.281C75.3689 402.174 76.0876 400.194 77.0828 398.331C77.121 398.274 77.1893 398.281 77.2469 398.293C77.0293 398.135 76.8117 397.978 76.6104 397.799C75.7793 399.624 74.4283 401.147 72.8175 402.285C72.5146 403.573 72.2631 404.916 71.7929 406.153C71.7204 406.331 71.4002 406.287 71.4419 406.072C71.6478 404.881 72.0587 403.71 72.4376 402.555C71.7802 402.983 71.0764 403.367 70.343 403.661C70.3631 403.704 70.3832 403.746 70.3714 403.804C70.0694 404.819 69.8345 405.893 69.4228 406.869C69.3447 407.062 69.0088 407.012 69.0612 406.792C69.2792 405.765 69.6915 404.763 70.0405 403.765C68.5643 404.306 66.9938 404.591 65.4373 404.493ZM65.0475 383.262C66.8977 392.282 82.3246 387.043 84.1598 380.397C83.9017 379.933 83.7074 379.438 83.5351 378.908C82.948 376.92 83.282 374.953 84.1791 373.24C82.6302 372.8 80.6275 372.639 78.5029 372.744C77.1055 374.223 76.3011 375.801 76.0223 377.885C75.9957 378.132 75.6542 378.098 75.6545 377.851C75.6384 375.997 76.5257 374.015 77.9597 372.779C76.9679 372.856 75.9486 372.986 74.9488 373.185C74.9488 373.185 74.9225 373.184 74.9119 373.189C73.9647 373.389 73.0219 373.626 72.1144 373.937C70.943 375.675 70.2899 377.545 69.5197 379.471C69.436 379.68 69.1001 379.63 69.1318 379.394C69.3845 377.53 70.3253 375.745 71.4136 374.19C67.2539 375.802 64.1434 378.755 65.0581 383.257L65.0475 383.262ZM79.9592 399.681C78.9346 403.55 80.7466 407.029 84.9215 408.013C89.2694 409.033 92.9921 406.716 96.4618 404.414C95.1015 401.919 94.8244 398.795 96.8132 396.775C96.4794 396.399 96.1719 396.024 95.902 395.617C95.5308 396.43 94.8542 397.01 94.0697 397.472C93.6562 398.058 93.2741 398.655 92.9692 399.332C92.5693 400.25 92.3788 401.225 92.1827 402.216C92.1472 402.389 91.9053 402.373 91.9094 402.189C91.8688 400.724 92.4151 399.151 93.2813 397.87C92.6213 398.182 91.8997 398.418 91.2101 398.64C90.385 399.732 89.9417 400.944 89.7159 402.313C89.6855 402.497 89.4004 402.527 89.3839 402.327C89.2914 401.056 89.783 399.808 90.6001 398.836C89.9318 399.048 89.2585 399.248 88.5751 399.428C87.8526 400.407 87.4429 401.525 87.1944 402.735C87.1465 402.992 86.7574 402.968 86.774 402.7C86.827 401.516 87.3407 400.453 88.0771 399.559C87.3198 399.747 86.5525 399.914 85.7706 400.023C84.5939 401.06 84.1958 402.368 83.8769 403.898C83.8189 404.134 83.4543 404.189 83.4182 403.919C83.2297 402.472 84.0463 401.058 85.1266 400.093C83.6061 400.264 82.0847 400.24 80.571 399.874C80.3561 399.832 80.163 399.754 79.9486 399.686L79.9592 399.681ZM76.8909 389.101C72.2244 396.368 79.8812 398.937 84.5808 398.606C87.5875 398.384 93.6391 397.415 95.1623 394.326C93.6181 391.111 93.8628 387.272 96.446 384.581C96.3188 384.615 96.082 384.61 95.7455 384.587C93.6503 385.719 92.3842 387.449 91.8464 389.812C91.7885 390.048 91.4537 389.945 91.4585 389.735C91.5672 387.483 93.1311 385.391 95.2096 384.527C92.9461 384.255 88.3752 383.314 85.9932 382.46C86.0032 382.481 85.992 382.513 85.9651 382.538C84.9622 383.806 84.4094 385.2 83.7653 386.675C83.6759 386.9 83.2717 386.843 83.3303 386.581C83.6454 384.988 84.6311 383.546 85.6954 382.353C85.3562 382.214 85.0535 382.097 84.846 381.96C84.096 382.523 82.3735 386.512 76.8909 389.101ZM85.2704 374.587C83.2216 379.733 88.4926 383.48 93.1073 383.411C95.0459 383.381 101.988 381.9 102.61 379.08C102.193 378.197 101.942 377.196 101.941 376.09C101.951 374.458 102.444 372.662 103.303 371.034C102.821 370.896 102.324 370.753 101.817 370.616C99.99 371.986 99.0639 373.582 98.1435 375.63C98.0604 375.813 97.7822 375.775 97.7976 375.559C97.9861 373.505 99.5045 371.564 101.22 370.455C99.6498 370.024 97.9732 369.644 96.3088 369.428C96.3188 369.449 96.2969 369.485 96.2593 369.516C94.9452 370.345 94.0869 371.505 93.4339 372.907C93.3401 373.094 93.0474 372.998 93.1205 372.794C93.6224 371.321 94.7225 370.176 96.0462 369.395C91.5661 368.868 87.2349 369.676 85.2704 374.587ZM97.9481 397.828C96.2199 401.833 97.4762 405.901 102.264 407.273C106.67 408.525 110.678 406.151 114.024 403.504C113.178 402.263 112.636 400.814 112.556 399.237C111.966 399.477 111.319 399.678 110.663 399.832C109.961 400.801 109.656 401.973 109.739 403.171C109.747 403.297 109.567 403.33 109.544 403.198C109.313 402.018 109.654 400.867 110.329 399.898C109.488 400.074 108.606 400.191 107.72 400.244C107.221 401.365 106.863 402.537 106.395 403.669C106.322 403.846 106.023 403.792 106.059 403.593C106.196 402.422 106.701 401.311 107.277 400.271C106.281 400.312 105.281 400.263 104.325 400.168C104.34 400.2 104.36 400.242 104.359 400.295C104.279 400.814 104.199 401.334 104.124 401.864C104.05 402.342 104.028 402.847 103.86 403.291C103.77 403.515 103.478 403.419 103.472 403.213C103.472 402.718 103.626 402.216 103.726 401.739C103.816 401.241 103.922 400.749 104.018 400.261C104.029 400.203 104.067 400.172 104.12 400.147C103.285 400.06 102.488 399.916 101.776 399.731C100.812 399.483 99.9767 399.174 99.3321 398.802C98.833 398.517 98.3771 398.185 97.9481 397.828ZM99.0585 384.324C93.1951 387.926 95.7039 395.529 101.084 397.936C104.89 399.628 113.235 399.242 115.364 394.761C114.961 394.404 114.58 394.038 114.247 393.635C111.807 390.647 112.097 387.152 113.892 384.612C113.819 384.594 113.699 384.534 113.558 384.457C111.053 386.733 109.689 389.525 109.486 392.954C109.475 393.206 109.058 393.234 109.043 392.981C108.839 389.627 110.501 386.226 113.241 384.307C112.757 384.054 112.032 383.706 111.103 383.364C109.864 384.352 109.044 385.703 108.677 387.243C108.619 387.479 108.221 387.38 108.258 387.154C108.552 385.544 109.446 384.211 110.732 383.24C109.775 382.923 108.633 382.655 107.33 382.541C106.809 383.699 106.298 384.851 105.709 385.975C105.615 386.163 105.303 385.998 105.386 385.815C105.886 384.694 106.437 383.601 106.988 382.507C105.342 382.412 103.468 382.607 101.441 383.304C101.286 384.548 100.98 385.774 100.433 386.904C100.306 387.159 99.877 387.023 99.9939 386.747C100.434 385.693 100.769 384.61 100.952 383.482C100.336 383.721 99.7035 383.981 99.0585 384.324ZM113.968 398.974C114.113 403.032 117.617 405.987 121.535 406.233C125.284 406.481 128.616 404.465 131.441 402.233C130.578 400.818 130.17 399.071 131.07 397.67C131.087 397.649 131.108 397.639 131.124 397.618C130.428 397.882 129.697 398.07 128.946 398.217C128.224 399.417 127.833 400.656 127.643 402.074C127.618 402.215 127.375 402.252 127.363 402.088C127.283 400.76 127.73 399.39 128.486 398.291C127.614 398.429 126.713 398.477 125.792 398.456C125.817 398.509 125.842 398.563 125.799 398.609C124.896 399.868 124.617 401.263 124.541 402.783C124.525 403.025 124.161 403.027 124.119 402.8C123.839 401.214 124.507 399.623 125.555 398.451C124.502 398.427 123.436 398.292 122.398 398.079C122.29 398.456 122.181 398.833 122.068 399.199C121.913 399.727 121.779 400.298 121.479 400.766C121.397 400.895 121.189 400.812 121.197 400.664C121.252 400.118 121.506 399.581 121.696 399.075C121.841 398.72 121.971 398.359 122.116 398.005C120.968 397.752 119.844 397.385 118.807 396.924C118.622 397.884 118.378 398.858 118.032 399.75C117.921 400.011 117.469 399.938 117.523 399.639C117.698 398.658 118.01 397.665 118.369 396.714C117.608 396.344 116.896 395.938 116.248 395.476C115.918 396.817 113.967 398.806 113.968 398.974ZM104.499 372.63C102.253 377.661 105.054 381.389 110.298 381.934C114.406 382.364 118.071 381.688 119.992 377.54C119.738 375.954 119.948 374.332 120.792 372.892C120.507 372.675 120.222 372.458 119.922 372.235C119.922 372.235 119.922 372.235 119.901 372.245C118.688 373.261 118.042 374.568 117.629 376.065C117.577 376.258 117.284 376.189 117.299 375.999C117.44 374.396 118.393 372.996 119.647 372.04C118.917 371.512 118.149 370.989 117.354 370.519C116.464 371.225 116.083 372.212 116.005 373.342C115.984 373.6 115.599 373.612 115.557 373.359C115.337 372.148 115.969 370.977 116.923 370.267C116.351 369.938 115.778 369.635 115.195 369.364C114.347 370.298 113.807 371.334 113.197 372.468C113.055 372.718 112.723 372.484 112.786 372.259C113.06 371.075 113.868 370.029 114.767 369.175C113.953 368.83 113.148 368.559 112.347 368.378C111.314 370.051 110.826 371.83 110.388 373.742C110.319 374.009 109.942 373.874 109.937 373.643C109.944 371.726 110.781 369.859 111.875 368.289C108.958 367.791 106.23 368.74 104.494 372.619L104.499 372.63ZM121.426 382.343C113.341 381.487 111.658 391.902 118.843 395.071C123.416 397.091 129.304 398.009 133.564 394.982C133.424 394.163 133.451 393.226 133.712 392.152C134.12 390.424 134.98 389.158 136.101 388.278C134.816 387.569 133.881 386.279 133.37 384.893C132.872 385.024 132.349 385.102 131.816 385.158C130.903 386.891 130.372 388.717 130.013 390.631C129.964 390.941 129.495 390.914 129.524 390.589C129.672 388.67 130.393 386.832 131.394 385.201C130.233 385.281 129.055 385.212 127.907 384.986C127.482 387.009 127.157 389.076 126.554 391.053C126.486 391.268 126.145 391.181 126.177 390.971C126.486 388.924 127.074 386.916 127.561 384.915C126.524 384.676 125.542 384.332 124.646 383.87C124.367 385.043 124.16 386.286 123.703 387.413C123.635 387.602 123.326 387.552 123.352 387.332C123.532 386.114 123.98 384.913 124.328 383.72C124.323 383.71 124.345 383.7 124.355 383.694C124.122 383.558 123.882 383.436 123.669 383.289C123.229 382.99 122.188 382.44 121.967 382.414C121.925 382.407 121.867 382.396 121.815 382.394C121.835 382.437 121.86 382.49 121.816 382.563C121.225 384.014 120.722 385.54 119.965 386.913C119.828 387.147 119.485 386.944 119.553 386.704C120.003 385.229 120.751 383.808 121.372 382.395C121.389 382.374 121.41 382.364 121.426 382.343ZM131.972 397.869C132.076 399.551 131.991 400.971 133.193 402.331C134.338 403.626 135.968 404.184 137.658 404.232C140.047 404.302 147.045 402.222 145.219 398.879C141.16 400.235 135.373 399.778 133.85 396.058C133.147 396.637 131.962 397.6 131.972 397.869ZM121.776 375.031C119.46 383.584 132.109 385.476 136.939 381.256C137.019 381.179 137.12 381.144 137.215 381.125C137.98 379.905 137.889 378.555 137.261 377.25C136.988 378.577 136.757 379.988 136.187 381.181C136.104 381.363 135.789 381.33 135.81 381.099C135.943 379.643 136.56 378.193 137.023 376.803C136.699 376.253 136.274 375.711 135.785 375.2C134.872 376.438 134.451 377.835 134.274 379.363C134.242 379.652 133.842 379.606 133.828 379.327C133.796 377.715 134.494 376.161 135.501 374.93C134.883 374.337 134.174 373.774 133.4 373.293C133.154 374.177 132.916 375.162 132.466 375.973C132.389 376.114 132.149 376.019 132.179 375.861C132.342 374.938 132.789 374.011 133.161 373.145C132.341 372.647 131.465 372.227 130.572 371.907C129.756 373.073 129.111 374.328 128.659 375.687C128.158 377.161 128.098 378.634 127.827 380.155C127.779 380.386 127.415 380.441 127.379 380.171C126.97 377.266 128.428 374.065 130.149 371.755C129.203 371.46 128.238 371.265 127.322 371.228C126.607 372.607 126.179 374.072 125.881 375.593C125.822 375.881 125.406 375.856 125.434 375.556C125.548 374.005 126.092 372.564 126.864 371.223C124.51 371.254 122.505 372.331 121.776 375.031ZM135.527 391.751C131.956 400.649 147.981 399.931 148.58 393.478C148.939 390.405 145.656 388.414 142.237 388.232C142.247 388.253 142.262 388.285 142.251 388.317C141.977 389.227 141.757 390.138 141.599 391.072C141.466 391.838 141.467 392.696 141.182 393.416C141.088 393.63 140.772 393.623 140.736 393.38C140.596 392.587 140.847 391.713 141.017 390.943C141.222 390.026 141.48 389.11 141.789 388.222C141.005 388.215 140.213 388.302 139.471 388.496C139.055 390.124 138.733 391.813 138.082 393.357C138.004 393.55 137.652 393.495 137.689 393.269C137.978 391.675 138.581 390.14 139.095 388.609C137.514 389.121 136.169 390.133 135.527 391.751ZM134.352 384.573C134.913 385.844 135.826 386.702 136.98 387.602C136.99 387.624 137.021 387.635 137.031 387.656C139.692 386.205 143.304 386.439 146.088 387.703C146.875 385.261 146.497 383.578 145.462 382.296C145.259 382.913 145.06 383.54 144.904 384.174C144.718 384.939 144.658 385.722 144.467 386.476C144.415 386.67 144.17 386.564 144.163 386.411C144.122 384.973 144.632 383.352 145.241 382.049C144.938 381.71 144.582 381.397 144.183 381.103C144.193 381.125 144.187 381.167 144.165 381.203C143.444 382.324 143.122 383.544 142.929 384.846C142.903 385.066 142.544 385.106 142.534 384.863C142.455 383.455 143.012 382.099 143.875 381.002C143.901 380.976 143.944 380.956 143.981 380.951C143.514 380.625 143 380.334 142.469 380.064C141.554 381.134 141.353 382.361 141.254 383.723C141.238 383.965 140.896 383.957 140.843 383.735C140.49 382.352 141.191 380.888 142.151 379.915C141.317 379.501 140.43 379.139 139.533 378.755C139.749 380.398 139.166 381.975 137.167 383.036C137.06 383.086 136.965 383.105 136.871 383.097C136.135 383.744 135.271 384.23 134.352 384.573Z" fill="#FEFAE8"/>
<path d="M28.8857 381.835C28.5989 381.944 28.3922 381.534 28.6796 381.398C44.2611 373.977 51.6083 353.168 69.8088 350.798C69.8514 350.778 69.8653 350.863 69.839 350.862C51.2542 354.155 45.8109 375.771 28.8963 381.83L28.8857 381.835Z" fill="#FEFAE8"/>
<path d="M38.7542 401.442C38.6516 401.556 38.4798 401.468 38.4565 401.335C38.3708 400.933 38.5813 400.469 38.6328 400.054C38.6917 399.545 38.6767 399.044 38.609 398.543C38.5623 398.278 38.9589 398.208 39.0163 398.467C39.1147 399.007 39.1655 399.556 39.1373 400.103C39.1065 400.534 39.0828 401.118 38.7542 401.442Z" fill="#FEFAE8"/>
<path d="M45.1232 408.342C45.0714 408.536 44.7517 408.466 44.7878 408.266C44.931 407.522 45.1319 406.789 45.3221 406.061C45.3795 405.852 45.6823 405.969 45.6356 406.174C45.4823 406.897 45.3341 407.631 45.1232 408.342Z" fill="#FEFAE8"/>
<path d="M31.2363 377.549C31.031 377.776 30.6703 377.425 30.8493 377.198C33.0676 374.341 35.4607 371.44 38.0054 368.586C47.8755 357.56 60.0873 347.303 73.9437 342.819C80.0285 340.844 86.4198 339.988 93.0662 340.665C93.1082 340.671 93.1014 340.739 93.0644 340.743C65.6921 340.231 48.3955 359.02 31.2363 377.549Z" fill="#FEFAE8"/>
<path d="M47.0121 407.49C46.9307 407.593 46.7628 407.568 46.7344 407.425C46.67 407.013 46.8593 406.559 46.9578 406.161C47.1057 405.675 47.2429 405.194 47.3751 404.702C47.4494 404.445 47.8305 404.591 47.7669 404.842C47.651 405.313 47.5456 405.78 47.4246 406.24C47.3312 406.649 47.2723 407.159 47.0121 407.49Z" fill="#FEFAE8"/>
<path d="M36.9007 367.597C36.8262 367.632 36.7014 367.561 36.7458 367.462C37.1264 366.696 37.5591 365.958 38.0225 365.258C39.4347 363.12 41.1892 361.211 43.112 359.548C43.1765 359.492 43.2481 359.588 43.1943 359.64C40.7022 362.027 38.7837 364.664 36.9489 367.561C36.9327 367.582 36.922 367.587 36.9007 367.597Z" fill="#FEFAE8"/>
<path d="M56.0308 407.814C55.9539 407.955 55.7344 407.876 55.7957 407.73C56.1867 406.738 56.656 405.775 57.0941 404.8C57.1659 404.649 57.4061 404.744 57.3449 404.89C56.9068 405.865 56.5001 406.851 56.0308 407.814Z" fill="#FEFAE8"/>
<path d="M53.9384 386.424C53.8985 386.56 53.7211 386.487 53.7397 386.361C54.1373 384.611 54.8865 382.917 55.6602 381.302C55.6989 381.218 55.835 381.258 55.8013 381.352C55.0583 383.005 54.5403 384.721 53.9384 386.424Z" fill="#FEFAE8"/>
<path d="M67.4449 394.406C67.3719 394.61 67.0153 394.544 67.0626 394.314C67.3608 392.767 67.879 391.272 68.3709 389.777C68.4052 389.657 68.6308 389.694 68.6016 389.825C68.2613 391.365 67.9682 392.923 67.4449 394.406Z" fill="#FEFAE8"/>
<path d="M50.1205 353.05C49.9002 353.245 49.6285 352.918 49.8174 352.712C51.7222 350.68 53.8473 348.921 56.135 347.425C61.2932 344.039 67.2784 342.047 73.5015 341.413C73.6017 341.405 73.6351 341.558 73.5348 341.567C64.3136 342.743 56.8096 346.703 50.1205 353.05Z" fill="#FEFAE8"/>
<path d="M55.253 346.136C54.9336 346.287 54.601 345.858 54.8914 345.591C58.8169 341.993 63.2589 339.076 68.0069 336.834C77.9925 332.12 89.391 330.371 100.4 331.435C100.468 331.442 100.45 331.542 100.392 331.53C83.553 330.276 68.507 335.908 55.3225 346.09C55.3012 346.1 55.2799 346.11 55.248 346.125L55.253 346.136Z" fill="#FEFAE8"/>
<path d="M73.0736 377.871C73.0325 378.06 72.7128 377.99 72.7433 377.806C73.0395 376.117 73.8114 374.581 74.858 373.241C74.8793 373.231 74.8906 373.199 74.9012 373.194C74.9119 373.189 74.9275 373.195 74.9381 373.19C75.0384 373.181 75.1413 373.289 75.06 373.393C74.071 374.745 73.4683 376.253 73.063 377.876L73.0736 377.871Z" fill="#FEFAE8"/>
<path d="M78.491 381.901C78.4004 382.178 77.9392 382.084 78.0034 381.806C78.4717 379.489 79.244 377.237 80.1617 375.072C80.6178 373.997 81.3203 372.507 82.7156 372.981C82.9037 373.048 82.8445 373.337 82.6395 373.316C80.9582 373.147 80.2308 376.68 79.8418 377.814C79.3792 379.178 78.9586 380.548 78.491 381.901Z" fill="#FEFAE8"/>
<path d="M85.5915 390.461C85.5172 390.717 85.0823 390.623 85.1408 390.361C85.6896 387.746 87.1171 385.392 88.9149 383.437C89.0282 383.318 89.2345 383.507 89.1369 383.632C87.4634 385.685 86.4217 387.973 85.5915 390.461Z" fill="#FEFAE8"/>
<path d="M89.5097 387.426C89.4159 387.614 89.127 387.581 89.1324 387.344C89.21 385.771 90.696 384.562 92.1455 384.268C92.3836 384.221 92.5119 384.603 92.2783 384.687C90.8772 385.166 90.1441 386.151 89.5097 387.426Z" fill="#FEFAE8"/>
<path d="M101.398 402.93C101.319 403.175 100.973 403.078 100.979 402.841C101.022 401.857 101.318 400.858 101.503 399.899C101.528 399.757 101.671 399.702 101.776 399.731C101.86 399.744 101.921 399.819 101.908 399.929C101.754 400.926 101.688 401.973 101.398 402.93Z" fill="#FEFAE8"/>
<path d="M90.3248 374.401C90.2255 374.604 89.8789 374.559 89.9112 374.297C90.1068 372.395 91.6322 370.607 93.0901 369.476C93.251 369.348 93.4512 369.579 93.2953 369.718C92.5812 370.328 91.9648 371.036 91.4727 371.841C90.9749 372.662 90.7285 373.546 90.3248 374.401Z" fill="#FEFAE8"/>
<path d="M79.4774 345.192C79.282 345.219 79.2409 344.939 79.4207 344.907C83.9234 343.965 88.495 343.474 93.0721 343.435C111.909 343.212 130.818 350.285 145.17 362.347C145.17 362.347 145.18 362.368 145.185 362.379C145.21 362.432 145.134 362.52 145.072 362.471C126.336 347.271 103.135 341.834 79.4668 345.197L79.4774 345.192Z" fill="#FEFAE8"/>
<path d="M96.4813 374.15C96.4508 374.333 96.1495 374.385 96.128 374.173C95.9622 372.416 97.1668 370.611 98.7826 369.952C98.9316 369.882 99.1004 370.101 98.9452 370.214C97.5065 371.192 96.8038 372.461 96.4813 374.15Z" fill="#FEFAE8"/>
<path d="M102.567 386.626C102.509 386.861 102.185 386.728 102.232 386.497C102.526 385.161 103.148 383.969 104.03 382.915C104.171 382.744 104.472 382.94 104.325 383.127C103.486 384.161 102.911 385.343 102.567 386.626Z" fill="#FEFAE8"/>
<path d="M79.5391 337.326C79.1958 337.371 79.1125 336.863 79.4457 336.797C93.5379 333.529 108.891 334.808 122.544 339.35C129.522 341.666 136.475 344.867 142.036 349.753C147.845 354.861 151.393 361.934 156.836 367.397C156.856 367.44 156.807 367.502 156.777 367.464C151.68 362.983 148.439 357.028 143.729 352.209C138.123 346.484 130.69 342.899 123.218 340.308C108.88 335.334 94.3888 335.028 79.5391 337.326Z" fill="#FEFAE8"/>
<path d="M107.969 373.335C107.905 373.613 107.479 373.592 107.507 373.293C107.681 371.427 108.576 369.768 109.875 368.438C110.048 368.253 110.294 368.553 110.137 368.744C108.955 370.045 108.297 371.631 107.969 373.335Z" fill="#FEFAE8"/>
<path d="M102.834 340.258C102.834 340.258 102.757 340.204 102.799 340.184C102.841 340.164 102.876 340.238 102.834 340.258Z" fill="#FEFAE8"/>
<path d="M107.598 340.782C107.598 340.782 107.578 340.739 107.583 340.75C120.368 342.186 132.527 347.343 142.269 355.788C147.749 360.53 151.739 367.134 157.826 371.121C162.595 374.246 168.201 375.779 171.142 381.017C171.147 381.027 171.152 381.038 171.131 381.048C171.11 381.058 171.11 381.058 171.1 381.037C167.183 375.387 160.585 373.959 155.433 369.83C152.19 367.234 149.69 363.871 146.954 360.749C146.045 359.707 145.11 358.691 144.115 357.741C134.114 348.195 121.241 342.49 107.587 340.787L107.598 340.782Z" fill="#FEFAE8"/>
<path d="M137.307 402.276C137.176 402.468 136.888 402.382 136.846 402.181C136.76 401.753 136.945 401.288 137.049 400.875C137.165 400.377 137.303 399.896 137.44 399.414C137.503 399.189 137.843 399.276 137.817 399.496C137.769 400.001 137.7 400.489 137.625 400.993C137.553 401.418 137.552 401.913 137.307 402.276Z" fill="#FEFAE8"/>
<path d="M132.766 390.92C132.685 391.218 132.203 391.107 132.242 390.803C132.413 389.29 132.999 387.829 133.864 386.574C133.989 386.398 134.292 386.541 134.208 386.75C133.598 388.106 133.145 389.491 132.766 390.92Z" fill="#FEFAE8"/>
<path d="M139.151 403.15C139.062 403.348 138.795 403.279 138.789 403.073C138.811 402.594 138.969 402.103 139.08 401.647C139.202 401.134 139.308 400.615 139.431 400.102C139.482 399.908 139.818 399.984 139.782 400.183L139.473 401.735C139.383 402.207 139.335 402.711 139.151 403.15Z" fill="#FEFAE8"/>
<path d="M142.091 402.621C141.996 402.861 141.644 402.832 141.592 402.583C141.518 402.124 141.639 401.663 141.717 401.222L141.956 399.743C141.998 399.501 142.345 399.52 142.335 399.772C142.308 400.267 142.286 400.772 142.259 401.266C142.238 401.718 142.269 402.198 142.091 402.621Z" fill="#FEFAE8"/>
<path d="M144.442 392.242C144.354 392.44 144.028 392.385 144.06 392.149C144.19 391.072 144.545 390.032 144.879 389.003C144.953 388.772 145.33 388.855 145.288 389.096C145.058 390.155 144.865 391.235 144.442 392.242Z" fill="#FEFAE8"/>
<path d="M146.619 394.26C146.566 394.507 146.26 394.521 146.187 394.282C145.842 393 146.421 391.36 147.057 390.252C147.14 390.096 147.373 390.233 147.317 390.39C147.103 391.038 146.919 391.697 146.82 392.369C146.726 392.999 146.749 393.653 146.619 394.26Z" fill="#FEFAE8"/>
<path d="M296.52 419.203C283.397 413.825 272.784 402.953 263.314 392.713C253.711 382.354 245.041 370.773 239.565 357.657C237.048 351.608 235.232 345.279 234.388 338.777C233.425 331.304 233.879 323.773 231.377 316.571C231.154 315.934 231.86 315.249 232.487 315.448C247.4 320.15 263.191 319.074 278.357 322.381C292.553 325.482 305.977 331.967 317.31 341.054C327.914 349.561 339.517 361.619 341.575 375.658C343.515 388.841 336.064 393.986 338.683 415.362C345.826 423.212 351.187 432.307 353.014 443.512C353.065 443.84 350.481 446.999 346.554 446.484C347.026 437.695 335.011 420.103 334.83 420.162C322.385 424.437 308.755 424.245 296.514 419.219L296.52 419.203ZM265.154 391.922C272.663 400.133 281.037 408.495 290.637 414.078C292.02 414.883 293.415 415.631 294.853 416.306C307.081 422.106 321.062 422.601 333.848 418.413C330.568 415.132 326.928 412.138 323.322 409.297C322.82 408.896 322.307 408.526 321.821 408.131C311.254 407.808 301.582 409.354 291.555 412.851C291.481 412.886 291.418 412.863 291.366 412.81C291.274 412.723 291.262 412.533 291.406 412.479C300.509 408.35 311.096 406.646 321.091 407.577C317.115 404.533 313.08 401.556 309.029 398.6C299.74 398.09 291.532 399.427 282.667 402.518C282.444 402.597 282.305 402.247 282.502 402.14C290.072 398.293 299.552 396.864 308.08 397.915C302.987 394.214 297.9 390.497 292.931 386.646C284.605 386.216 274.247 385.26 267.342 390.186C267.246 390.258 267.13 390.234 267.069 390.159C266.976 390.073 266.953 389.914 267.061 389.812C270.215 387.007 274.35 386.5 278.408 386.134C283.1 385.703 287.823 385.699 292.491 386.294C291.627 385.621 290.768 384.959 289.914 384.282C285.683 380.916 281.629 377.349 277.752 373.659C274.57 373.73 271.395 373.705 268.222 374.071C264.431 374.507 260.844 375.484 257.133 376.338C256.868 376.411 256.792 376.03 257.037 375.941C263.177 373.615 270.714 372.621 277.345 373.266C274.815 370.828 272.338 368.339 269.931 365.778C262.448 364.846 255.827 365.85 248.777 368.814C248.649 368.874 248.524 368.803 248.484 368.717C248.439 368.622 248.457 368.522 248.569 368.456C254.719 364.993 262.595 363.917 269.535 365.354C266.342 361.927 263.241 358.392 260.247 354.78C257.572 354.767 254.896 354.364 252.203 354.425C249.227 354.489 246.306 354.866 243.355 355.178C243.133 355.205 243.066 354.924 243.195 354.785C243.222 354.759 243.254 354.744 243.291 354.74C246.193 354.021 249.207 353.731 252.205 353.656C254.55 353.604 257.122 353.509 259.509 353.905C257.187 351.083 254.908 348.214 252.688 345.304C251.939 344.434 251.19 343.564 250.462 342.684C248.735 342.445 247.021 342.069 245.272 341.893C243.17 341.688 241.07 341.624 238.948 341.598C238.659 341.591 238.663 341.186 238.943 341.145C242.316 340.789 246.238 340.825 249.662 341.734C246.499 337.929 243.511 334.028 240.71 330.026C240.653 330.014 240.606 329.997 240.559 329.954C240.006 329.499 239.564 329.031 238.831 328.83C238.145 328.646 237.392 328.65 236.75 328.888C236.574 328.958 236.465 328.671 236.609 328.59C237.442 328.093 238.649 328.004 239.599 328.389C237.714 325.608 235.902 322.792 234.208 319.921C235.227 324.478 235.407 329.105 235.748 333.826C236.237 340.873 237.72 347.736 240.219 354.355C240.517 355.151 240.826 355.943 241.161 356.735C242.943 361.062 245.108 365.234 247.556 369.234C251.745 376.122 256.751 382.533 262.098 388.509C263.105 389.622 264.122 390.756 265.15 391.885L265.154 391.922ZM271.182 365.865C279.864 374.85 289.357 382.853 299.5 390.275C310.918 398.632 323.187 406.392 333.505 416.114C341.643 423.755 347.995 433.488 347.783 444.979C350.995 445.468 351.703 443.051 351.83 443.017C344.693 412.486 314.243 398.56 291.372 381.081C281.028 373.18 270.759 364.333 261.319 354.652C261.292 354.677 261.286 354.719 261.259 354.745C262.608 356.361 263.961 357.987 265.358 359.567C267.206 361.662 269.119 363.701 271.054 365.704C271.065 365.699 271.096 365.71 271.128 365.721C271.201 365.739 271.2 365.791 271.188 365.849L271.182 365.865ZM260.782 354.176C260.782 354.176 260.829 354.193 260.861 354.204C260.742 354.091 260.623 353.978 260.521 353.844C260.603 353.961 260.695 354.074 260.782 354.176ZM263.76 354.554C268.218 359.089 272.843 363.453 277.598 367.652C271.284 355.298 268.699 341.742 269.838 327.887C269.846 327.766 270.036 327.754 270.027 327.901C269.181 342.296 272.399 356.281 279.212 368.948C279.237 369.001 279.247 369.048 279.256 369.096C281.968 371.448 284.728 373.738 287.511 375.965C291.675 379.298 295.942 382.517 300.322 385.591C301.955 386.734 303.615 387.877 305.305 389.032C297.322 371.542 293.215 352.612 293.449 333.364C293.457 333.243 293.636 333.237 293.644 333.363C294.038 353.004 298.321 372.059 306.54 389.881C310.243 392.403 314.034 394.974 317.776 397.634C311.414 382.503 306.708 366.303 305.108 349.952C305.103 349.915 305.177 349.907 305.182 349.944C308.163 366.71 312.283 382.717 318.959 398.429C318.969 398.45 318.974 398.461 318.973 398.487C324.156 402.212 329.212 406.138 333.791 410.434C326.665 394.401 323.112 377.058 323.688 359.472C323.685 359.356 323.854 359.354 323.867 359.465C323.921 377.613 327.638 395.165 335.275 411.647C335.316 411.732 335.324 411.806 335.307 411.879C335.961 412.52 336.61 413.178 337.248 413.84C334.69 402.797 339.792 391.874 339.926 380.797C340.113 365.061 327.503 351.643 315.974 342.388C303.875 332.699 289.328 326.041 274.037 323.379C266.305 322.03 258.474 321.6 250.709 320.762C244.956 320.158 239.241 319.302 233.622 317.685C233.739 318.072 233.841 318.454 233.943 318.835C237.292 323.06 240.572 327.305 243.9 331.514C242.983 328.718 242.502 325.795 242.458 322.808C242.466 322.714 242.582 322.711 242.59 322.811C242.94 326.2 243.709 329.482 244.832 332.688C247.484 336.045 250.195 339.361 252.959 342.651C250.547 336.109 249.64 328.921 250.48 322.041C250.486 321.999 250.524 321.969 250.577 321.97C250.608 321.955 250.661 321.982 250.649 322.04C250.517 329.757 251.645 336.918 254.231 344.133C256.859 347.189 259.55 350.188 262.376 353.111C260.595 347.768 259.118 342.295 258.031 336.794C258.017 336.709 258.139 336.665 258.158 336.76C259.59 342.58 261.257 348.289 263.178 353.956C263.368 354.166 263.558 354.376 263.749 354.559L263.76 354.554Z" fill="#FEFAE8"/>
<path d="M287.532 375.981C287.532 375.981 287.501 375.944 287.491 375.922C283.795 368.398 281.293 360.532 280.142 352.249C280.139 352.159 280.276 352.12 280.28 352.21C281.743 360.41 284.199 368.233 287.87 375.705C287.98 375.939 287.675 376.148 287.521 375.986L287.532 375.981Z" fill="#FEFAE8"/>
</g>
<g opacity="0.4">
<path d="M366.242 118.923C368.192 123.266 365.728 129.613 361.876 132.339C347.19 121.037 338.763 114.596 326.951 109.589C326.915 109.84 326.865 110.102 326.649 110.353C314.823 125.027 300.683 137.357 282.559 143.436C266.245 148.878 248.798 149.545 231.773 148.888C192.664 147.371 154.677 140.198 118.735 160.038C117.801 160.557 115.016 162.104 116.38 158.148C132.502 111.134 173.931 67.2502 220.19 51.1385C241.666 43.6711 265.144 42.412 286.422 51.1776C306.152 59.3101 322.979 76.7382 328.151 97.8703C328.273 98.362 354.896 111.395 365.177 118.219C365.213 118.237 366.038 118.471 366.227 118.934L366.242 118.923ZM361.718 128.895C364.418 126.875 365.437 123.446 364.418 120.288C364.145 120.313 342.41 105.907 330.62 101.199C319.238 96.6769 307.079 94.5292 295.037 92.7189C273.828 89.5248 252.175 88.522 230.838 91.0246C199.975 94.629 171.977 105.924 149.083 124.58C173.999 107.1 205.352 98.1326 235.228 95.6931C276.426 92.3078 319.205 97.441 361.718 128.895ZM273.731 142.716C294.709 137.727 310.938 124.955 324.416 108.507C321.203 107.237 317.904 106.121 314.554 105.088C314.533 105.149 314.5 105.196 314.429 105.249C305.274 114.9 294.262 122.939 281.848 127.815C281.428 127.973 281.26 127.359 281.63 127.194C293.6 121.216 303.994 114.268 313.389 104.728C308.891 103.389 304.251 102.246 299.419 101.359C294.638 100.478 289.832 99.7735 284.993 99.205L284.767 99.1725C273.977 97.9268 263.093 97.4235 252.223 97.6271C242.165 113.466 229.296 127.106 214.274 138.347C213.944 138.594 213.607 138.084 213.923 137.848C228.447 126.33 240.479 112.98 250.784 97.6506C245.669 97.7599 240.542 98.0342 235.436 98.4269C229.578 98.8906 223.776 99.5803 218.064 100.539C212.011 114.276 204.338 126.806 194.708 138.337C194.629 138.441 194.518 138.412 194.439 138.336C194.371 138.275 194.321 138.178 194.4 138.074C203.259 126.471 210.72 114.077 216.686 100.764C207.974 102.265 199.448 104.343 191.194 107.025C187.093 117.532 182.214 127.568 176.435 137.269C176.302 137.481 175.925 137.337 176.051 137.086C181.091 127.445 185.651 117.581 189.73 107.493C183.525 109.56 177.488 111.972 171.627 114.767C169.507 120.408 166.176 125.746 163.336 131.053C163.286 131.135 163.128 131.074 163.193 130.981C165.617 125.717 167.836 120.09 170.884 115.122C165.062 117.91 159.415 121.082 153.973 124.617C153.069 131.074 149.995 137.026 146.115 142.169C146 142.345 145.775 142.133 145.864 141.954C149.353 136.767 151.343 131.223 152.996 125.258C147.389 128.962 142.007 133.056 136.901 137.55C136.208 141.294 134.776 144.83 132.498 147.923C132.391 148.049 132.179 147.916 132.265 147.762C133.779 144.814 134.941 141.817 135.69 138.657C132.11 141.896 128.67 145.322 125.362 148.985C123.192 151.773 121.119 154.691 119.099 157.681C140.228 142.475 167.909 141.834 193.881 143.369C201.149 143.8 208.291 144.392 215.114 144.888C234.606 146.297 254.534 147.269 273.717 142.727L273.731 142.716ZM306.36 92.2217C312.755 93.373 319.1 94.7861 325.247 96.773C318.863 74.8898 301.614 59.1438 280.219 51.8992C264.013 46.4395 246.846 46.8515 230.515 50.9846C225.09 52.3564 219.771 54.1408 214.614 56.2303C210.691 57.844 206.85 59.5977 203.049 61.5237C188.652 68.78 175.232 78.24 163.335 89.316C157.043 95.1891 151.149 101.504 145.786 108.228C134.373 122.437 125.187 138.362 118.987 155.256C119.188 154.926 119.397 154.636 119.609 154.32C124.547 145.741 130.683 138.013 137.657 131.136C137.133 131.125 136.613 131.088 136.043 131.134C134.554 131.24 133.072 131.475 131.615 131.894C131.507 131.929 131.468 131.757 131.561 131.732C133.604 130.898 136.015 130.349 138.314 130.487C141.651 127.252 145.177 124.21 148.857 121.344C145.266 121.275 141.703 121.813 138.269 122.972C138.122 123.015 138.061 122.814 138.183 122.767C141.815 121.393 145.564 120.805 149.406 120.91C155.237 116.457 161.48 112.435 167.995 108.926C161.133 108.528 154.761 108.636 147.875 110.092C147.596 110.167 147.438 109.837 147.564 109.676C147.607 109.644 147.625 109.608 147.679 109.59C154.443 107.463 162.459 106.617 169.499 108.092C177.892 103.649 186.739 99.9637 195.739 96.9922C186.369 93.8108 176.745 92.656 166.789 93.1834C166.581 93.2047 166.527 92.9535 166.635 92.8281C166.664 92.8066 166.707 92.7743 166.746 92.7672C177.051 91.6877 187.219 93.1516 196.938 96.5881C205.963 93.7099 215.182 91.5387 224.296 90.0956C212.399 84.0774 200.055 80.2757 186.938 78.0158C186.802 77.9834 186.841 77.7969 186.981 77.8042C200.332 79.2392 213.092 83.357 225.021 89.508C225.211 89.6123 225.236 89.7953 225.214 89.9459C226.538 89.7393 227.884 89.5613 229.204 89.3798C234.155 88.7215 239.124 88.2963 244.101 88.0003C232.348 78.3123 219.581 70.6824 205.672 64.4001C205.586 64.3749 205.586 64.2852 205.618 64.2386C205.661 64.2063 205.705 64.1741 205.766 64.1957C220.583 69.5068 233.92 77.6288 245.823 87.8766C254.175 87.4516 262.559 87.518 270.953 87.9575C258.277 76.2272 245.506 65.1497 231.433 55.0251C231.315 54.9568 231.404 54.7775 231.509 54.7669C231.537 54.7454 231.562 54.749 231.598 54.767C246.44 64.0924 260.667 75.2002 272.632 88.0454C281.245 88.5677 289.821 89.5205 298.333 90.8355C300.363 91.1534 302.404 91.4856 304.43 91.8286C293.161 76.2899 279.452 63.8984 263.122 53.6924C262.983 53.5954 263.094 53.3552 263.248 53.4415C280.311 63.0097 295.648 75.6612 306.342 92.1679L306.36 92.2217Z" fill="#553206"/>
<path d="M285.215 99.8903C274.847 115.915 258.636 129.099 241.98 138.158C241.675 138.319 241.342 137.874 241.665 137.677C258.52 127.148 271.595 114.204 284.551 99.3336C284.63 99.2296 284.709 99.2154 284.788 99.2011L285.014 99.2336C285.244 99.3307 285.369 99.6179 285.215 99.8903Z" fill="#553206"/>
</g>
<path d="M24.6025 128.91C24.8312 128.148 25.0317 127.337 25.3148 126.559C26.3366 123.751 28.4521 122.314 31.2991 123.168C41.3227 126.184 49.7599 131.482 54.8115 141.049C56.8241 144.855 57.2686 148.945 55.58 153.073C53.4933 158.161 49.3879 160.526 43.9769 159.551C38.9314 158.642 34.5567 156.43 31.4612 152.154C27.2656 146.361 24.4039 140.051 24.2174 132.748C24.2055 132.238 24.2065 131.724 24.2605 131.218C24.3436 130.459 24.4768 129.703 24.5951 128.908L24.6025 128.91ZM46.2285 156.22C47.2368 156.303 48.5666 156.403 49.8936 156.534C52.0533 156.745 53.4424 155.805 54.4401 153.879C56.8375 149.261 56.1975 144.818 53.6659 140.597C48.5301 132.041 40.8182 126.83 31.4065 124.005C28.7914 123.218 26.5247 124.437 26.0507 127.143C25.74 128.924 25.9468 130.985 26.5442 132.701C27.8426 136.423 29.4412 140.047 31.0955 143.632C34.0749 150.082 39.0824 154.203 46.2305 156.228L46.2285 156.22ZM25.4315 132.048C25.3273 132.076 25.2231 132.104 25.1189 132.132C25.1101 132.629 25.0502 133.126 25.0932 133.619C25.7099 140.68 28.2418 146.975 32.7182 152.458C35.5396 155.907 39.2937 157.843 43.5994 158.678C46.2522 159.19 48.8873 159.114 51.4627 157.214C50.1095 157.148 49.0409 157.177 48.0003 157.027C38.9637 155.72 33.0889 150.479 29.6696 142.187C28.2728 138.801 26.8457 135.427 25.4315 132.048Z" fill="#79480B"/>
</svg>
