<svg width="101" height="79" viewBox="0 0 101 79" fill="none" xmlns="http://www.w3.org/2000/svg">
<circle opacity="0.11" cx="61.6387" cy="39.208" r="39" fill="#CA382F"/>
<path d="M40.3299 61.766L25.4243 38.7244V20.2035C25.4243 19.3981 24.7713 18.7451 23.9659 18.7451H16.6743C15.8689 18.7451 15.2159 19.3981 15.2159 20.2035V38.7651L1.6258 61.8681C0.975661 62.9731 0.632823 64.2318 0.632813 65.5139C0.632676 69.4845 3.85158 72.7034 7.82217 72.7035H34.3784C35.7432 72.7031 37.0789 72.3088 38.2251 71.5679C41.5131 69.4423 42.4555 65.0539 40.3299 61.766ZM34.3784 69.7869H7.82217C7.05771 69.7881 6.30691 69.5842 5.64807 69.1965C3.61424 67.9997 2.9357 65.3807 4.13254 63.3469L17.9314 39.9013C18.0632 39.6771 18.1327 39.4219 18.1327 39.1619V21.6619H22.5077V39.1619C22.5076 39.4428 22.5886 39.7178 22.7411 39.9538L37.8786 63.3497C38.3152 64.0244 38.5477 64.8109 38.5479 65.6146C38.5486 67.9181 36.682 69.7861 34.3784 69.7869Z" fill="#490D00"/>
<path d="M21.6391 45.1016L19.125 43.6244L6.74226 64.6725C6.61194 64.8941 6.54252 65.1463 6.54104 65.4034C6.53956 65.6605 6.60608 65.9134 6.73384 66.1365C6.86161 66.3596 7.04608 66.5449 7.26857 66.6738C7.49106 66.8026 7.74365 66.8704 8.00075 66.8701H18.1318V63.9535H10.5485L21.6391 45.1016ZM67.1114 36.2451H44.3819C41.1603 36.2451 38.5485 38.8569 38.5485 42.0785V65.4119C38.5533 69.437 41.8151 72.6987 45.8401 72.7035H58.9651C62.9903 72.6987 66.252 69.4369 66.2568 65.4119V45.5989L69.6021 42.2549C70.2606 41.5951 70.6307 40.7011 70.6312 39.7689C70.6324 37.8239 69.0565 36.2462 67.1114 36.2451ZM67.5388 40.1929L63.7675 43.9641C63.4941 44.2376 63.3403 44.6085 63.3403 44.9951V65.4117C63.3403 67.828 61.3815 69.7867 58.9653 69.7867H45.8403C43.424 69.7867 41.4653 67.828 41.4653 65.4117V42.0785C41.4653 40.4677 42.7711 39.1619 44.3819 39.1619H67.1115C67.231 39.1618 67.3478 39.1972 67.4472 39.2635C67.5465 39.3299 67.624 39.4242 67.6697 39.5346C67.7155 39.645 67.7274 39.7664 67.7041 39.8836C67.6808 40.0008 67.6233 40.1084 67.5388 40.1929Z" fill="#490D00"/>
<path d="M57.5078 44.9952V63.9536H53.1328V66.8702H58.9662C59.7716 66.8702 60.4246 66.2173 60.4246 65.4119V44.9952H57.5078ZM41.4661 23.8261V4.16199C41.4661 3.35658 40.8132 2.70361 40.0078 2.70361H29.7994C28.994 2.70361 28.3411 3.35658 28.3411 4.16199V24.2404C26.5613 24.7883 24.8491 25.5353 23.2369 26.4672L24.6953 28.9916C26.4086 28.0023 28.2484 27.2502 30.1641 26.756C30.4773 26.6751 30.7547 26.4924 30.9527 26.2366C31.1507 25.9808 31.2581 25.6664 31.2578 25.3429V5.62023H38.5494V25.003C38.5496 25.3424 38.6681 25.671 38.8845 25.9325C39.1009 26.1939 39.4017 26.3716 39.7351 26.4351C44.8487 27.4127 49.4467 30.1803 52.7041 34.2416L54.9776 32.4157C51.5458 28.1391 46.7948 25.1188 41.4661 23.8261ZM62.6119 23.1202C59.7929 23.1202 57.5078 25.4055 57.5078 28.2244C57.5078 31.0434 59.7931 33.3285 62.6119 33.3285C65.4309 33.3285 67.7161 31.0432 67.7161 28.2244C67.7161 25.4055 65.4309 23.1202 62.6119 23.1202ZM62.6119 30.412C61.4038 30.412 60.4244 29.4327 60.4244 28.2245C60.4244 27.0163 61.4038 26.037 62.6119 26.037C63.8201 26.037 64.7994 27.0163 64.7994 28.2245C64.7994 29.4327 63.8201 30.412 62.6119 30.412ZM57.5078 12.912C55.0916 12.912 53.1328 14.8708 53.1328 17.287C53.1328 19.7032 55.0916 21.662 57.5078 21.662C59.924 21.662 61.8828 19.7032 61.8828 17.287C61.8828 14.8708 59.924 12.912 57.5078 12.912ZM57.5078 18.7452C56.7024 18.7452 56.0494 18.0923 56.0494 17.2869C56.0494 16.4814 56.7024 15.8286 57.5078 15.8286C58.3132 15.8286 58.9662 16.4816 58.9662 17.287C58.9662 18.0924 58.3132 18.7452 57.5078 18.7452ZM5.73693 14.3702C2.91793 14.3702 0.632812 16.6555 0.632812 19.4744C0.632812 22.2934 2.91793 24.5786 5.73693 24.5786C8.55594 24.5786 10.8411 22.2934 10.8411 19.4745C10.8411 16.6555 8.55594 14.3702 5.73693 14.3702ZM5.73693 21.662C4.52875 21.662 3.54943 20.6827 3.54943 19.4745C3.54943 18.2663 4.52875 17.287 5.73693 17.287C6.94512 17.287 7.92443 18.2663 7.92443 19.4745C7.92443 20.6827 6.94512 21.662 5.73693 21.662ZM12.2994 4.16199C9.8832 4.16199 7.92443 6.12076 7.92443 8.53699C7.92443 10.9532 9.8832 12.912 12.2994 12.912C14.7157 12.912 16.6744 10.9532 16.6744 8.53699C16.6744 6.12076 14.7157 4.16199 12.2994 4.16199ZM12.2994 9.99523C11.494 9.99523 10.8411 9.34227 10.8411 8.53686C10.8411 7.73158 11.494 7.07861 12.2994 7.07861C13.1048 7.07861 13.7578 7.73158 13.7578 8.53699C13.7578 9.3424 13.1048 9.99523 12.2994 9.99523ZM44.3828 44.9952H48.7578V47.9119H44.3828V44.9952ZM44.3828 50.8286H47.2994V53.7452H44.3828V50.8286ZM44.3828 56.662H48.7578V59.5786H44.3828V56.662ZM44.3828 62.4952H47.2994V65.4119H44.3828V62.4952ZM3.54943 28.9536H6.46606V31.8702H3.54943V28.9536ZM7.92443 36.2452H10.8411V39.1619H7.92443V36.2452ZM32.7161 42.0786H35.6327V44.9952H32.7161V42.0786ZM29.7994 36.2452H32.7161V39.1619H29.7994V36.2452ZM28.3411 30.412H31.2577V33.3286H28.3411V30.412ZM29.7994 62.4952H32.7161V65.4119H29.7994V62.4952ZM25.4244 56.662H28.3411V59.5786H25.4244V56.662Z" fill="#490D00"/>
</svg>
