<svg width="113" height="126" viewBox="0 0 113 126" fill="none" xmlns="http://www.w3.org/2000/svg">
<circle cx="33.4222" cy="13.9258" r="5.57037" fill="white"/>
<circle cx="18.1036" cy="27.8519" r="5.57037" fill="white"/>
<circle cx="55.7037" cy="20.889" r="5.57037" fill="white"/>
<circle cx="45.9556" cy="12.5333" r="5.57037" fill="#F4BB47"/>
<circle cx="73.8074" cy="5.57037" r="5.57037" fill="white"/>
<circle cx="79.3778" cy="15.3184" r="4.17778" fill="white"/>
<circle cx="13.9259" cy="40.3852" r="4.17778" fill="white"/>
<circle cx="108.622" cy="34.8147" r="4.17778" fill="white"/>
<circle cx="41.7778" cy="25.0667" r="5.57037" fill="white"/>
<circle cx="101.659" cy="22.2816" r="5.57037" fill="white"/>
<circle cx="98.8741" cy="66.8444" r="5.57037" fill="white"/>
<circle cx="54.3111" cy="2.78519" r="2.78519" fill="white"/>
<circle cx="54.3111" cy="45.9556" r="4.17778" fill="white"/>
<circle cx="64.0592" cy="76.5926" r="4.17778" fill="white"/>
<circle cx="58.4889" cy="57.0963" r="5.57037" fill="white"/>
<circle cx="65.4519" cy="50.1333" r="2.78519" fill="white"/>
<circle cx="94.6963" cy="76.5926" r="2.78519" fill="white"/>
<circle cx="73.8074" cy="82.163" r="5.57037" fill="white"/>
<circle cx="30.6371" cy="69.6297" r="2.78519" fill="white"/>
<circle cx="18.1037" cy="83.5556" r="2.78519" fill="white"/>
<circle cx="57.0963" cy="103.052" r="4.17778" fill="white"/>
<circle cx="65.4518" cy="97.4815" r="4.17778" fill="white"/>
<circle cx="34.8148" cy="104.444" r="2.78519" fill="white"/>
<circle cx="26.4593" cy="114.193" r="5.57037" fill="white"/>
<circle cx="64.0592" cy="118.37" r="2.78519" fill="white"/>
<circle cx="71.0222" cy="119.763" r="2.78519" fill="white"/>
<circle cx="87.7333" cy="97.4815" r="2.78519" fill="white"/>
<circle cx="84.9482" cy="90.5185" r="2.78519" fill="white"/>
<circle cx="71.0222" cy="91.9112" r="2.78519" fill="white"/>
<circle cx="44.563" cy="101.659" r="5.57037" fill="white"/>
<circle cx="40.3853" cy="112.8" r="5.57037" fill="white"/>
<circle cx="91.9112" cy="90.5185" r="2.78519" fill="white"/>
<circle cx="33.4222" cy="121.156" r="2.78519" fill="white"/>
<circle cx="45.9556" cy="122.548" r="2.78519" fill="white"/>
<circle cx="15.3184" cy="90.5185" r="2.78519" fill="white"/>
<circle cx="41.7778" cy="73.8074" r="2.78519" fill="white"/>
<circle cx="22.2815" cy="19.4964" r="2.78519" fill="white"/>
<circle cx="30.6371" cy="27.8519" r="5.57037" fill="#F4BB47"/>
<circle cx="41.7778" cy="36.2073" r="5.57037" fill="#F4BB47"/>
<circle cx="32.0297" cy="47.3482" r="5.57037" fill="white"/>
<circle cx="18.1036" cy="51.5259" r="5.57037" fill="#F4BB47"/>
<circle cx="25.0667" cy="38.9926" r="5.57037" fill="white"/>
<circle cx="45.9556" cy="54.3111" r="5.57037" fill="white"/>
<circle cx="103.052" cy="82.163" r="5.57037" fill="white"/>
<circle cx="87.7333" cy="82.163" r="5.57037" fill="white"/>
<circle cx="97.4815" cy="98.8741" r="5.57037" fill="white"/>
<circle cx="77.9852" cy="114.193" r="5.57037" fill="white"/>
<circle cx="87.7333" cy="107.23" r="5.57037" fill="white"/>
<circle cx="68.2371" cy="108.622" r="5.57037" fill="white"/>
<circle cx="54.3111" cy="114.193" r="5.57037" fill="#F4BB47"/>
<circle cx="25.0667" cy="62.6667" r="5.57037" fill="white"/>
<circle cx="38.9927" cy="64.0593" r="5.57037" fill="white"/>
<circle cx="90.5185" cy="57.0962" r="4.17778" fill="white"/>
<circle cx="69.6297" cy="66.8444" r="5.57037" fill="white"/>
<circle cx="82.1629" cy="36.2074" r="2.78519" fill="white"/>
<circle cx="91.9112" cy="20.8889" r="2.78519" fill="white"/>
<circle cx="90.5185" cy="9.74812" r="6.96296" fill="#F4BB47"/>
<circle cx="91.9111" cy="33.4222" r="6.96296" fill="#F4BB47"/>
<circle cx="75.2" cy="54.3111" r="6.96296" fill="#F4BB47"/>
<circle cx="83.5556" cy="68.237" r="6.96296" fill="#F4BB47"/>
<circle cx="77.9852" cy="100.267" r="5.57037" fill="#F4BB47"/>
<circle cx="52.9185" cy="71.0223" r="6.96296" fill="#F4BB47"/>
<circle cx="27.8519" cy="90.5185" r="6.96296" fill="#F4BB47"/>
<circle cx="4.17778" cy="87.7333" r="4.17778" fill="white"/>
<circle cx="13.9259" cy="111.407" r="5.57037" fill="white"/>
<circle cx="9.74811" cy="98.8741" r="5.57037" fill="white"/>
<circle cx="22.2815" cy="103.052" r="5.57037" fill="white"/>
<circle cx="80.7704" cy="26.4593" r="5.57037" fill="#F4BB47"/>
<circle cx="61.2741" cy="9.74811" r="5.57037" fill="#F4BB47"/>
<circle cx="69.6297" cy="19.4962" r="5.57037" fill="white"/>
</svg>
