<svg xmlns="http://www.w3.org/2000/svg" width="91.784" height="91.759" viewBox="0 0 91.784 91.759">
  <g transform="translate(-508.765 -1439.098)" opacity="0.9">
    <path d="M600.549,1485a45.892,45.892,0,1,1-46.116-45.9A45.735,45.735,0,0,1,600.549,1485Zm-44.582-39.67c-21.312-1.25-39.735,16.033-40.979,38.443-1.17,21.069,15.917,39.5,37.9,40.888,21.431,1.35,40.273-15.9,41.473-37.965C595.539,1464.979,578.527,1446.648,555.967,1445.325Z" fill="#f04b28"/>
    <path d="M577.079,1511.956c0-6.115-.029-12.23.008-18.345.026-4.188,1.645-5.15,5.113-3q14.762,9.148,29.47,18.385c3.487,2.189,3.464,3.854-.069,6.07q-14.578,9.142-29.2,18.216c-1.148.714-2.271,1.777-3.819.962-1.648-.867-1.5-2.433-1.5-3.94Q577.082,1521.128,577.079,1511.956Z" transform="translate(-36.61 -27.016)" fill="#f04b28"/>
  </g>
</svg>
