<svg width="204" height="192" viewBox="0 0 204 192" fill="none" xmlns="http://www.w3.org/2000/svg">
<path d="M80.2411 156.76C80.572 162.55 78.5866 175.621 75.9395 185.713C75.1122 188.856 77.4285 192 80.7374 192H142.614C145.096 192 147.247 190.18 147.578 187.698C148.736 180.253 148.736 171.981 150.886 169.499C155.519 164.37 160.979 165.694 168.755 165.859C191.421 166.852 189.766 155.271 189.766 143.193C189.932 140.215 190.097 131.447 191.752 128.303C195.061 121.354 203.995 121.354 203.333 115.564C203.002 110.931 190.428 98.0265 190.263 88.927C190.097 84.6254 191.752 79.0003 191.917 74.5332C192.082 70.728 192.082 67.2536 191.586 63.7792C187.45 31.3518 154.195 13.6491 120.114 15.469C106.712 16.1308 94.4694 19.6052 84.3772 25.7267C68.329 35.3225 57.4095 51.3708 54.9278 72.7133C52.6116 93.0632 58.7331 113.082 72.9614 138.064C76.9321 144.848 79.9102 150.804 80.2411 156.76Z" fill="#16B8C4"/>
<path d="M84.3772 25.8921C103.403 33.1717 129.048 37.3079 129.048 37.3079C129.048 37.3079 174.711 49.0546 191.752 63.7792C187.45 31.3518 154.195 13.6491 120.114 15.469C106.878 16.1308 94.6349 19.7706 84.3772 25.8921Z" fill="#0F94A5"/>
<path d="M33.0891 35.6523H59.5604C60.884 35.6523 62.0421 34.4942 62.0421 33.1706C62.0421 31.847 60.884 30.6889 59.5604 30.6889H33.0891C30.7728 30.6889 28.9529 28.869 28.9529 26.5528V12.9862C28.9529 11.6626 27.7948 10.5045 26.4713 10.5045C25.1477 10.5045 23.9896 11.6626 23.9896 12.9862V26.5528C23.8241 31.5161 27.9603 35.6523 33.0891 35.6523Z" fill="#14505E"/>
<path d="M26.3058 101.501C27.6294 101.501 28.7875 100.343 28.7875 99.0195V85.4529C28.7875 83.1367 30.6074 81.3168 32.9236 81.3168H59.5604C60.884 81.3168 62.0421 80.1586 62.0421 78.8351C62.0421 77.5115 60.884 76.3534 59.5604 76.3534H33.0891C27.9603 76.3534 23.9896 80.4895 23.9896 85.4529V99.0195C23.8241 100.508 24.9822 101.501 26.3058 101.501Z" fill="#14505E"/>
<path d="M12.9045 58.6503H40.5339C41.8575 58.6503 43.0156 57.4921 43.0156 56.1686C43.0156 54.845 41.8575 53.6869 40.5339 53.6869H12.9045C11.5809 53.6869 10.4228 54.845 10.4228 56.1686C10.4228 57.4921 11.4155 58.6503 12.9045 58.6503Z" fill="#14505E"/>
<path d="M25.313 46.0765H52.1152C53.4388 46.0765 54.5969 44.9184 54.5969 43.5948C54.5969 42.2713 53.4388 41.1131 52.1152 41.1131H25.313C24.3203 41.1131 23.3277 40.7822 22.5004 40.1205L14.7245 33.3372C13.7318 32.5099 12.0773 32.5099 11.2501 33.5026C10.4229 34.4953 10.4229 36.1498 11.4156 36.977L19.1915 43.7603C20.846 45.2493 22.9968 46.0765 25.313 46.0765Z" fill="#14505E"/>
<path d="M13.07 79.331C13.5663 79.331 14.2281 79.1655 14.7245 78.6692L22.5004 71.8859C23.3277 71.2241 24.3203 70.8932 25.313 70.8932H52.1152C53.4388 70.8932 54.5969 69.7351 54.5969 68.4116C54.5969 67.088 53.4388 65.9299 52.1152 65.9299H25.313C23.1622 65.9299 21.0114 66.7571 19.3569 68.2461L11.581 75.0294C10.5883 75.8566 10.4229 77.5111 11.4156 78.5038C11.7464 79.1655 12.4082 79.331 13.07 79.331Z" fill="#14505E"/>
<path d="M26.3057 12.9874C22.7421 12.9874 19.8533 10.0986 19.8533 6.53503C19.8533 2.97147 22.7421 0.0826416 26.3057 0.0826416C29.8692 0.0826416 32.7581 2.97147 32.7581 6.53503C32.7581 10.0986 29.8692 12.9874 26.3057 12.9874Z" fill="#F96985"/>
<path d="M6.45227 62.6203C2.88871 62.6203 -0.000121117 59.7315 -0.000121117 56.1679C-0.000121117 52.6044 2.88871 49.7155 6.45227 49.7155C10.0158 49.7155 12.9047 52.6044 12.9047 56.1679C12.9047 59.7315 10.0158 62.6203 6.45227 62.6203Z" fill="#F96985"/>
<path d="M26.3059 111.924C22.7424 111.924 19.8535 109.035 19.8535 105.471C19.8535 101.908 22.7424 99.0189 26.3059 99.0189C29.8695 99.0189 32.7583 101.908 32.7583 105.471C32.7583 109.035 29.8695 111.924 26.3059 111.924Z" fill="#F96985"/>
<path d="M7.776 38.1352C4.21245 38.1352 1.32362 35.2464 1.32362 31.6828C1.32362 28.1192 4.21245 25.2304 7.776 25.2304C11.3396 25.2304 14.2284 28.1192 14.2284 31.6828C14.2284 35.2464 11.3396 38.1352 7.776 38.1352Z" fill="#F96985"/>
<path d="M7.776 86.9416C4.21245 86.9416 1.32362 84.0527 1.32362 80.4892C1.32362 76.9256 4.21245 74.0368 7.776 74.0368C11.3396 74.0368 14.2284 76.9256 14.2284 80.4892C14.2284 84.0527 11.3396 86.9416 7.776 86.9416Z" fill="#F96985"/>
<path d="M187.615 136.244C188.112 136.244 188.608 136.244 189.104 136.244C190.428 136.244 191.586 134.921 191.421 133.597C191.421 132.274 190.262 131.116 188.773 131.281C183.479 131.612 179.674 129.627 179.674 129.627C178.516 128.965 177.027 129.296 176.365 130.619C175.703 131.777 176.034 133.266 177.192 133.928C177.358 133.928 181.494 136.244 187.615 136.244Z" fill="#14505E"/>
<path d="M80.7373 192H108.201L115.316 158.911C117.301 149.646 117.466 140.216 116.143 131.116C101.087 155.602 80.0756 163.378 80.0756 163.378C79.4138 169.83 77.9248 178.599 75.9394 185.713C74.9467 188.857 77.4284 192 80.7373 192Z" fill="#0F94A5"/>
<path d="M181.99 95.2141C182.487 95.2141 182.983 95.2141 183.479 95.2141C184.803 95.0487 185.796 93.8906 185.796 92.567C185.63 91.2434 184.472 90.2508 183.149 90.2508C177.358 90.7471 174.876 86.7764 174.876 86.7764C174.214 85.6183 172.56 85.2874 171.402 85.9492C170.244 86.611 169.913 88.2654 170.575 89.4235C170.575 89.589 174.214 95.2141 181.99 95.2141Z" fill="#14505E"/>
<path d="M113.496 131.777C114.819 140.711 114.654 149.811 112.668 158.745L105.554 191.834V191.999H110.683L117.632 159.737C119.617 150.307 119.948 140.546 118.459 130.95C117.301 123.67 115.15 116.556 112.007 109.773L106.547 98.0261C106.05 96.7025 104.561 96.2062 103.238 96.868C101.914 97.3643 101.418 98.8533 102.08 100.177L107.539 111.924C110.518 118.21 112.503 124.828 113.496 131.777Z" fill="#14505E"/>
<path d="M129.213 191.999H142.614C145.096 191.999 147.247 190.18 147.578 187.698C148.736 180.253 148.736 171.98 150.886 169.499C155.519 164.37 160.979 165.694 168.755 165.859C147.247 157.421 135.335 138.229 130.04 126.979C129.544 125.821 127.89 126.483 128.055 127.641C133.846 165.197 131.529 183.562 129.213 191.999Z" fill="#0F94A5"/>
<path d="M81.5644 7.69323C85.2042 -2.56441 99.598 -2.56441 103.238 7.69323C104.892 12.3257 109.359 15.3037 113.992 15.3037C115.646 15.3037 117.466 14.9729 119.121 14.1456C120.775 13.4838 122.43 13.1529 124.084 13.1529C131.86 13.1529 138.147 21.5907 134.342 29.6975C133.514 31.1865 133.184 32.841 133.184 34.4955C133.184 39.2934 135.996 43.7604 140.794 45.4149C145.923 47.2348 148.405 51.8673 148.405 56.3343C148.405 60.8014 145.757 65.2684 140.794 67.0883C136.162 68.7428 133.184 73.2098 133.184 77.8423C133.184 79.4967 133.514 81.3167 134.342 82.9711C135.169 84.6256 135.5 86.4455 135.5 88.0999C135.5 95.8759 127.062 102.163 118.955 98.3576C117.466 97.5303 115.812 97.1995 114.157 97.1995C109.359 97.1995 104.892 100.012 103.238 104.81C101.418 109.939 96.7854 112.42 92.3184 112.42C87.8513 112.42 83.3843 109.773 81.5644 104.81C79.91 100.012 75.4429 97.1995 70.8104 97.1995C69.156 97.1995 67.5015 97.5303 65.847 98.3576C64.1926 99.1848 62.3727 99.5157 60.7182 99.5157C52.9423 99.5157 46.6553 91.078 50.4606 82.9711C51.2878 81.4821 51.6187 79.8276 51.6187 78.1732C51.6187 73.3753 48.8061 68.9082 44.0082 67.2537C38.8794 65.4338 36.3977 60.8014 36.3977 56.3343C36.3977 51.8673 39.0448 47.4002 44.0082 45.5803C48.8061 43.9259 51.6187 39.4588 51.6187 34.8264C51.6187 33.1719 51.2878 31.5174 50.4606 29.863C49.6333 28.2085 49.3025 26.3886 49.3025 24.7342C49.3025 16.9582 57.7402 10.6713 65.847 14.4765C67.3361 15.3037 68.9905 15.6346 70.645 15.6346C75.4429 15.4692 79.91 12.4912 81.5644 7.69323Z" fill="#137987"/>
<path d="M92.4839 87.9344C74.9403 87.9344 60.7183 73.7125 60.7183 56.1688C60.7183 38.6251 74.9403 24.4032 92.4839 24.4032C110.028 24.4032 124.25 38.6251 124.25 56.1688C124.25 73.7125 110.028 87.9344 92.4839 87.9344Z" fill="white"/>
<path d="M92.484 74.5325C90.1996 74.5325 88.3478 72.6807 88.3478 70.3964C88.3478 68.1121 90.1996 66.2603 92.484 66.2603C94.7683 66.2603 96.6201 68.1121 96.6201 70.3964C96.6201 72.6807 94.7683 74.5325 92.484 74.5325Z" fill="#0F94A5"/>
<path d="M92.6495 62.4561C94.9657 62.4561 97.1165 60.967 97.9437 58.8162C100.756 51.3712 103.403 49.7167 107.705 48.724C109.029 48.3932 109.856 47.0696 109.525 45.746C109.194 44.4225 107.87 43.5952 106.547 43.9261C99.9291 45.4151 96.4547 48.8895 93.1458 56.9963C92.9804 57.4927 92.6495 57.4927 92.3186 57.4927C91.9877 57.4927 91.4913 57.4927 91.3259 56.9963C88.1824 48.8895 84.5426 45.2497 77.9248 43.9261C76.6012 43.5952 75.2776 44.4225 74.9468 45.746C74.6159 47.0696 75.4431 48.3932 76.7667 48.724C81.0682 49.7167 83.7154 51.3712 86.528 58.8162C87.6861 60.967 90.0023 62.4561 92.6495 62.4561C92.484 62.4561 92.484 62.4561 92.6495 62.4561Z" fill="#0F94A5"/>
</svg>
