<svg xmlns="http://www.w3.org/2000/svg" viewBox="0 0 655.82 686.23"><defs><style>.cls-1{fill:#47a8df;}.cls-2{fill:#ee3452;}.cls-3{fill:#3b3b97;}</style></defs><g id="Layer_2" data-name="Layer 2"><g id="Layer_2-2" data-name="Layer 2"><path id="bannerShape1" class="cls-1" d="M16.85,481.27c-23.3-85.07,30.49-164.7,66-212,26-34.63,200.25-239.37,386-183,125.12,38,207.15,209.43,182,348-30.23,166.6-165.23,185.81-189,192C306.5,666.74,51.07,606.18,16.85,481.27Z"/><path id="fake_bannerShape" class="cls-2" d="M16.85,481.27C-6.45,396.2-2.86,265.46,11.18,224.18c15.26-44.86,43.23-117.4,140.45-181.61S386.51-1.5,479.07,27C615.13,68.84,674.15,305.86,650.85,434.27c-30.23,166.6-165.23,185.81-189,192C306.5,666.74,51.07,606.18,16.85,481.27Z"/><path id="bannerShape2" class="cls-3" d="M106.69,100.59c-107.16,87.4-83.24,280-35.08,379,20.89,43,73,185.24,210.64,204.47,144.39,20.18,338.4-105.4,354.81-251.25,16.72-148.57-128.3-237.23-165.21-264.57C386.64,105.15,213.09,13.79,106.69,100.59Z"/></g></g></svg>