<svg width="50" height="51" viewBox="0 0 50 51" fill="none" xmlns="http://www.w3.org/2000/svg">
<rect x="4" y="31" width="20.7101" height="18.4911" rx="6" fill="#61F9CB"/>
<path d="M15.4158 7.72609C18.1965 6.36506 21.3353 5.59907 24.6572 5.59907C36.0659 5.59907 45.3144 14.6337 45.3144 25.7784C45.3144 31.0388 43.2539 35.8291 39.8783 39.4211M15.4158 7.72609L21.7652 1M15.4158 7.72609L21.7652 14.0755M9.34154 12.237C6.02207 15.8175 4 20.5673 4 25.7784C4 36.9231 13.2486 45.9577 24.6572 45.9577C28.0879 45.9577 31.3232 45.1408 34.1704 43.6952M34.1704 43.6952L28.7887 38.3134M34.1704 43.6952L28.7887 49.0769" stroke="#6E58F1" stroke-width="2" stroke-linecap="round" stroke-linejoin="round"/>
<path d="M22.916 16.6312C22.916 16.0789 23.3637 15.6312 23.916 15.6312H25.8876C26.4399 15.6312 26.8876 16.0789 26.8876 16.6312V35.5342C26.8876 36.0865 26.4399 36.5342 25.8876 36.5342H23.916C23.3637 36.5342 22.916 36.0865 22.916 35.5342V16.6312Z" fill="#6E58F1"/>
<path d="M30.1801 17.9946C30.5706 17.6041 31.2038 17.6041 31.5943 17.9946L32.9884 19.3888C33.379 19.7793 33.3789 20.4124 32.9884 20.803L19.622 34.1694C19.2315 34.5599 18.5983 34.5599 18.2078 34.1694L16.8137 32.7753C16.4231 32.3848 16.4231 31.7516 16.8137 31.3611L30.1801 17.9946Z" fill="#6E58F1"/>
<path d="M16.8145 20.8042C16.424 20.4136 16.424 19.7805 16.8145 19.3899L18.2086 17.9958C18.5992 17.6053 19.2323 17.6053 19.6229 17.9958L32.9893 31.3623C33.3798 31.7528 33.3798 32.386 32.9893 32.7765L31.5952 34.1706C31.2047 34.5611 30.5715 34.5611 30.181 34.1706L16.8145 20.8042Z" fill="#6E58F1"/>
<path d="M34.3533 24.0972C34.9056 24.0972 35.3533 24.5449 35.3533 25.0972L35.3533 27.0688C35.3533 27.6211 34.9056 28.0688 34.3533 28.0688L15.4503 28.0688C14.898 28.0688 14.4503 27.6211 14.4503 27.0688L14.4503 25.0972C14.4503 24.5449 14.898 24.0972 15.4503 24.0972L34.3533 24.0972Z" fill="#6E58F1"/>
<path d="M33.0541 26.082C33.0541 30.5844 29.4043 34.2342 24.9019 34.2342C20.3996 34.2342 16.7498 30.5844 16.7498 26.082C16.7498 21.5797 20.3996 17.9299 24.9019 17.9299C29.4043 17.9299 33.0541 21.5797 33.0541 26.082Z" fill="#6E58F1"/>
<circle cx="24.9016" cy="26.0828" r="3.80055" fill="white"/>
</svg>
