<svg width="40" height="40" viewBox="0 0 40 40" fill="none" xmlns="http://www.w3.org/2000/svg">
<path d="M26.5592 22.7255C26.0261 22.15 25.3831 21.8423 24.7017 21.8423C24.0258 21.8423 23.3773 22.1443 22.8223 22.7198L21.0857 24.5149C20.9428 24.4351 20.7999 24.361 20.6625 24.2869C20.4647 24.1844 20.2779 24.0875 20.1185 23.9849C18.4918 22.9136 17.0135 21.5174 15.5957 19.711C14.9088 18.8106 14.4472 18.0527 14.1119 17.2834C14.5626 16.856 14.9802 16.4116 15.3869 15.9842C15.5408 15.8246 15.6946 15.6594 15.8485 15.4998C17.0026 14.3031 17.0026 12.7531 15.8485 11.5564L14.3482 10.0007C14.1779 9.82405 14.002 9.6417 13.8372 9.45934C13.5074 9.10603 13.1612 8.74133 12.804 8.39942C12.271 7.85236 11.6335 7.56173 10.963 7.56173C10.2926 7.56173 9.64413 7.85236 9.09458 8.39942L9.08359 8.41081L7.21513 10.3654C6.51171 11.0948 6.11054 11.9838 6.02261 13.0152C5.89072 14.6792 6.36333 16.2292 6.72603 17.2435C7.6163 19.7338 8.9462 22.0417 10.9301 24.5149C13.3371 27.4952 16.2332 29.8487 19.5415 31.507C20.8054 32.1281 22.4925 32.8632 24.3775 32.9886C24.4929 32.9943 24.6138 33 24.7237 33C25.9931 33 27.0593 32.527 27.8946 31.5868C27.9001 31.5754 27.9111 31.5697 27.9165 31.5583C28.2023 31.1993 28.532 30.8744 28.8783 30.5268C29.1146 30.2932 29.3564 30.0482 29.5927 29.7917C30.1367 29.2048 30.4225 28.521 30.4225 27.82C30.4225 27.1134 30.1312 26.4353 29.5762 25.8654L26.5592 22.7255ZM28.5265 28.7261C28.5211 28.7318 28.5211 28.7261 28.5265 28.7261C28.3122 28.9654 28.0924 29.182 27.8561 29.4213C27.4989 29.7746 27.1362 30.145 26.7955 30.561C26.2404 31.1765 25.5865 31.4671 24.7292 31.4671C24.6467 31.4671 24.5588 31.4671 24.4764 31.4614C22.8442 31.3531 21.3275 30.6921 20.1899 30.1279C17.0795 28.5665 14.3482 26.3498 12.0786 23.5404C10.2047 21.1983 8.9517 19.0329 8.12188 16.7079C7.6108 15.2889 7.42396 14.1834 7.50639 13.1406C7.56134 12.4739 7.80864 11.9211 8.26476 11.4481L10.1387 9.50493C10.408 9.2428 10.6938 9.10034 10.974 9.10034C11.3202 9.10034 11.6005 9.31688 11.7764 9.49923L11.7929 9.51633C12.1281 9.84115 12.4468 10.1774 12.782 10.5364C12.9524 10.7187 13.1283 10.9011 13.3041 11.0891L14.8044 12.6448C15.3869 13.2489 15.3869 13.8073 14.8044 14.4114C14.645 14.5766 14.4911 14.7419 14.3318 14.9014C13.8701 15.3915 13.4305 15.8474 12.9524 16.2919C12.9414 16.3033 12.9304 16.309 12.9249 16.3204C12.4523 16.8105 12.5402 17.2891 12.6392 17.614L12.6556 17.6652C13.0458 18.6454 13.5954 19.5685 14.4307 20.6684L14.4362 20.6741C15.9529 22.6116 17.5521 24.1217 19.3161 25.2785C19.5415 25.4266 19.7723 25.5463 19.9921 25.6603C20.1899 25.7629 20.3768 25.8597 20.5361 25.9623C20.5581 25.9737 20.5801 25.9908 20.6021 26.0022C20.7889 26.0991 20.9648 26.1447 21.1461 26.1447C21.6023 26.1447 21.888 25.8483 21.9814 25.7515L23.8609 23.8026C24.0477 23.6088 24.3445 23.3752 24.6907 23.3752C25.0314 23.3752 25.3117 23.5974 25.4821 23.7912L25.493 23.8026L28.5211 26.9425C29.0871 27.5237 29.0871 28.1221 28.5265 28.7261ZM20.0525 12.4226C21.4923 12.6733 22.8003 13.3799 23.8444 14.4627C24.8885 15.5454 25.5645 16.9016 25.8118 18.3946C25.8722 18.7708 26.1855 19.0329 26.5427 19.0329C26.5866 19.0329 26.6251 19.0272 26.6691 19.0215C27.0757 18.9531 27.345 18.5542 27.2791 18.1325C26.9823 16.3261 26.158 14.6792 24.8995 13.3742C23.6411 12.0693 22.0529 11.2145 20.3108 10.9068C19.9042 10.8384 19.525 11.1176 19.4535 11.5336C19.3821 11.9496 19.6459 12.3542 20.0525 12.4226ZM31.9887 17.9103C31.4996 14.9356 30.1477 12.2288 28.0704 10.0748C25.9931 7.92074 23.3828 6.5189 20.5142 6.01173C20.113 5.93765 19.7338 6.22257 19.6624 6.63857C19.5964 7.06026 19.8657 7.45346 20.2724 7.52754C22.8332 7.97772 25.1688 9.2371 27.0263 11.1575C28.8838 13.0836 30.0928 15.5055 30.5269 18.161C30.5873 18.5371 30.9006 18.7992 31.2578 18.7992C31.3018 18.7992 31.3402 18.7935 31.3842 18.7878C31.7854 18.7252 32.0601 18.3263 31.9887 17.9103Z" fill="white"/>
</svg>
