<svg width="40" height="40" viewBox="0 0 40 40" fill="none" xmlns="http://www.w3.org/2000/svg">
<path d="M28.1756 23.1822C27.5747 22.5566 26.85 22.222 26.0818 22.222C25.3198 22.222 24.5888 22.5504 23.9631 23.1761L22.0056 25.1274C21.8445 25.0407 21.6834 24.9602 21.5286 24.8796C21.3056 24.7681 21.0949 24.6628 20.9153 24.5513C19.0816 23.3867 17.4152 21.8689 15.8169 19.9052C15.0426 18.9264 14.5222 18.1025 14.1443 17.2662C14.6523 16.8016 15.1231 16.3184 15.5815 15.8537C15.755 15.6803 15.9284 15.5006 16.1019 15.3272C17.4028 14.0263 17.4028 12.3413 16.1019 11.0403L14.4107 9.34915C14.2186 9.15711 14.0204 8.95887 13.8346 8.76063C13.4629 8.37655 13.0726 7.98008 12.6699 7.60839C12.069 7.01369 11.3504 6.69775 10.5947 6.69775C9.83889 6.69775 9.1079 7.01369 8.48841 7.60839L8.47602 7.62078L6.36977 9.74562C5.57683 10.5386 5.12461 11.505 5.02549 12.6262C4.87681 14.4351 5.40957 16.1201 5.81843 17.2228C6.822 19.9299 8.32115 22.4389 10.5575 25.1274C13.2708 28.3673 16.5355 30.9258 20.2648 32.7285C21.6896 33.4037 23.5915 34.2029 25.7163 34.3392C25.8464 34.3454 25.9827 34.3516 26.1066 34.3516C27.5376 34.3516 28.7394 33.8374 29.681 32.8152C29.6872 32.8028 29.6996 32.7967 29.7058 32.7843C30.0279 32.394 30.3996 32.0409 30.7899 31.663C31.0563 31.409 31.3288 31.1426 31.5952 30.8639C32.2085 30.2258 32.5306 29.4824 32.5306 28.7204C32.5306 27.9523 32.2023 27.2151 31.5766 26.5956L28.1756 23.1822ZM30.3934 29.7054C30.3872 29.7116 30.3872 29.7054 30.3934 29.7054C30.1518 29.9656 29.904 30.201 29.6376 30.4612C29.235 30.8453 28.8261 31.2479 28.442 31.7002C27.8163 32.3692 27.0792 32.6851 26.1128 32.6851C26.0198 32.6851 25.9207 32.6851 25.8278 32.679C23.9879 32.5612 22.2782 31.8426 20.9958 31.2294C17.4895 29.532 14.4107 27.1222 11.8522 24.0681C9.73977 21.522 8.32735 19.168 7.39192 16.6405C6.8158 15.098 6.60518 13.8962 6.6981 12.7625C6.76005 12.0377 7.03882 11.4368 7.55299 10.9226L9.66543 8.81019C9.96898 8.52523 10.2911 8.37036 10.6071 8.37036C10.9973 8.37036 11.3133 8.60576 11.5115 8.804L11.5301 8.82258C11.908 9.17569 12.2673 9.54119 12.6452 9.93146C12.8372 10.1297 13.0354 10.3279 13.2337 10.5324L14.9249 12.2236C15.5815 12.8802 15.5815 13.4873 14.9249 14.144C14.7452 14.3236 14.5718 14.5033 14.3921 14.6767C13.8717 15.2095 13.3762 15.7051 12.8372 16.1883C12.8248 16.2007 12.8124 16.2068 12.8062 16.2192C12.2735 16.752 12.3726 17.2724 12.4841 17.6255L12.5027 17.6812C12.9425 18.7467 13.562 19.7503 14.5036 20.9459L14.5098 20.9521C16.2196 23.0584 18.0223 24.7 20.0108 25.9575C20.2648 26.1186 20.525 26.2487 20.7728 26.3726C20.9958 26.4841 21.2064 26.5894 21.3861 26.7009C21.4109 26.7133 21.4357 26.7319 21.4604 26.7443C21.6711 26.8496 21.8693 26.8992 22.0737 26.8992C22.5879 26.8992 22.91 26.577 23.0153 26.4717L25.134 24.3531C25.3446 24.1424 25.6791 23.8885 26.0694 23.8885C26.4535 23.8885 26.7694 24.1301 26.9615 24.3407L26.9738 24.3531L30.3872 27.7664C31.0253 28.3983 31.0253 29.0488 30.3934 29.7054ZM20.8409 11.982C22.464 12.2545 23.9384 13.0227 25.1154 14.1997C26.2924 15.3767 27.0544 16.8511 27.3331 18.4742C27.4013 18.883 27.7544 19.168 28.1571 19.168C28.2066 19.168 28.25 19.1618 28.2995 19.1556C28.758 19.0813 29.0615 18.6476 28.9872 18.1892C28.6527 16.2254 27.7234 14.4351 26.3048 13.0165C24.8862 11.5979 23.0959 10.6686 21.1321 10.3341C20.6737 10.2598 20.2462 10.5633 20.1657 11.0156C20.0852 11.4678 20.3825 11.9076 20.8409 11.982ZM34.2962 17.9476C33.7448 14.7139 32.2209 11.7713 29.8792 9.42968C27.5376 7.08802 24.595 5.56409 21.3613 5.01275C20.9091 4.93222 20.4816 5.24196 20.4011 5.69418C20.3268 6.1526 20.6303 6.58005 21.0887 6.66058C23.9755 7.14997 26.6084 8.51904 28.7022 10.6067C30.7961 12.7006 32.1589 15.3334 32.6483 18.2202C32.7165 18.629 33.0696 18.914 33.4722 18.914C33.5218 18.914 33.5652 18.9078 33.6147 18.9016C34.067 18.8335 34.3767 18.3998 34.2962 17.9476Z" fill="white"/>
</svg>
