<svg xmlns="http://www.w3.org/2000/svg" width="40" height="41" viewBox="0 0 40 41" fill="none"> <path d="M20.0448 40.5H19.9266C15.7135 40.4839 11.6893 39.1726 8.28269 36.7045C8.2708 36.6975 8.25961 36.6905 8.24842 36.6821L8.16169 36.6185C4.83337 34.1644 2.38696 30.8235 1.06794 26.9433C1.05955 26.9265 1.05186 26.9091 1.04626 26.8902L0.978424 26.6818C0.328006 24.6746 0 22.5981 0 20.5007C0 19.895 0.0307725 19.2614 0.0909186 18.618L0.132182 18.1767C0.135679 18.141 0.143372 18.1074 0.15596 18.076C0.447599 15.6589 1.16795 13.3482 2.29814 11.2025C2.30514 11.1766 2.31563 11.1508 2.32962 11.1263L2.49047 10.8361C3.73186 8.59246 5.36909 6.63141 7.35602 5.00816L7.36021 5.00467L7.36301 5.00187C8.4953 4.078 9.73599 3.27652 11.0522 2.61631C11.0676 2.60512 11.0851 2.59532 11.1026 2.58623L11.2354 2.52119C13.0433 1.63998 14.9554 1.04271 16.9318 0.737787C16.9437 0.73499 16.9549 0.732892 16.9668 0.730793L17.05 0.718205L17.0759 0.715407C17.7165 0.620992 18.3516 0.558048 18.9649 0.526576H18.9684C19.2915 0.509791 19.6104 0.502098 19.9252 0.501399C19.935 0.500699 19.9448 0.5 19.9545 0.5H20.0462C20.056 0.5 20.0657 0.5 20.0755 0.501399C20.391 0.502797 20.7092 0.510491 21.0232 0.526576C21.6414 0.558048 22.2702 0.620292 22.9038 0.71261L22.9269 0.715407L23.0332 0.731493C23.0451 0.733591 23.057 0.735689 23.0689 0.738487C25.0453 1.04341 26.9574 1.64068 28.752 2.5156L28.8981 2.58623C28.9163 2.59532 28.9331 2.60512 28.9485 2.61631C30.2668 3.27721 31.5075 4.0794 32.6363 5.00117C34.6295 6.62862 36.2674 8.59106 37.5095 10.8354L37.6704 11.1256C37.6844 11.1508 37.6949 11.1766 37.7026 11.2032C38.8341 13.3524 39.5545 15.6645 39.8454 18.0795C39.8573 18.1095 39.865 18.1424 39.8678 18.176L39.9091 18.6173C39.9692 19.2607 40 19.8943 40 20.5C40 22.5995 39.672 24.676 39.0251 26.6713L38.9544 26.8888C38.9481 26.9084 38.9405 26.9265 38.9314 26.944C37.6137 30.8179 35.1729 34.1539 31.8691 36.594L31.8523 36.6066L31.7516 36.6807C31.7404 36.6891 31.7285 36.6961 31.7166 36.7031C28.31 39.1705 24.2858 40.4825 20.0727 40.4972H20.0462L20.0448 40.5ZM8.79183 36.059C11.9586 38.3459 15.6807 39.5908 19.5874 39.6726V33.751L19.3636 33.7468C19.2894 33.7461 19.216 33.7447 19.1426 33.7426C18.9992 33.7377 18.8551 33.7294 18.7118 33.721L18.5075 33.7105C18.4425 33.7077 18.3782 33.7042 18.3138 33.7C18.1425 33.6881 17.9718 33.6727 17.8012 33.6566L17.4927 33.6293C17.2808 33.6077 17.071 33.5804 16.8612 33.5538L16.678 33.5314C16.1409 33.4573 15.6002 33.3636 15.0715 33.2524L15.0212 33.2412C14.7568 33.1845 14.5204 33.1314 14.2854 33.0726L13.9805 32.9922C13.8231 32.9517 13.6651 32.9104 13.5084 32.8663C13.4441 32.8481 13.379 32.8279 13.3147 32.8083L13.0916 32.7404C12.9748 32.7055 12.858 32.6712 12.7426 32.6334C12.6692 32.6097 12.5971 32.5845 12.5244 32.5586L12.2992 32.481C12.1957 32.446 12.0922 32.4103 11.9894 32.3733C11.9082 32.3439 11.8285 32.3124 11.7481 32.281L11.5173 32.1921C11.4271 32.1579 11.3376 32.1236 11.2487 32.0872C11.1599 32.0516 11.0725 32.0131 10.9851 31.9753L10.7634 31.8802C10.6815 31.8459 10.6004 31.8117 10.52 31.7753C10.4284 31.734 10.3374 31.6907 10.2465 31.6473L10.0402 31.5494C9.96188 31.5123 9.88285 31.476 9.80522 31.4375C9.71431 31.3921 9.62409 31.3452 9.53387 31.2976L9.33315 31.1934C9.25692 31.1543 9.18068 31.1151 9.10515 31.0738C9.01353 31.0242 8.92261 30.9724 8.83239 30.92L8.63517 30.8081C8.56314 30.7675 8.4911 30.7269 8.42046 30.685L8.36381 30.6514L8.37291 30.9941C8.3764 31.1431 8.3799 31.2927 8.38689 31.4452C8.39668 31.6613 8.41067 31.8816 8.42466 32.1019L8.45263 32.5754C8.46033 32.7153 8.46802 32.8551 8.47851 32.9978C8.50509 33.3559 8.54006 33.721 8.57503 34.086L8.5988 34.349C8.6058 34.4294 8.61209 34.5106 8.62048 34.5924C8.67084 35.0764 8.72819 35.5659 8.79183 36.059ZM20.4105 33.751V39.6726C24.3165 39.5908 28.0386 38.3452 31.2061 36.059C31.2697 35.5652 31.3264 35.0757 31.3767 34.5917C31.3851 34.5106 31.3914 34.4301 31.3984 34.3497L31.4159 34.1525C31.4544 33.7503 31.4907 33.3706 31.5187 32.9971C31.5292 32.8551 31.5369 32.716 31.5446 32.5768L31.5732 32.0949C31.5872 31.8767 31.6012 31.6585 31.6103 31.4445C31.6166 31.292 31.6208 31.1424 31.6243 30.9927L31.6334 30.6507L31.5774 30.6843C31.5068 30.7262 31.4348 30.7668 31.3627 30.8074L31.1669 30.9186C31.076 30.971 30.9844 31.0228 30.8921 31.0731C30.8158 31.1151 30.7375 31.155 30.6592 31.1948L30.4689 31.2934C30.3766 31.3417 30.2843 31.3907 30.1913 31.4361C30.115 31.4746 30.0367 31.5109 29.9584 31.5473L29.7416 31.6494C29.6535 31.6914 29.5653 31.7333 29.4765 31.7739C29.394 31.811 29.3108 31.8459 29.2275 31.8816L29.003 31.9781C28.9184 32.0152 28.8338 32.0516 28.7478 32.0865C28.6583 32.1229 28.568 32.1572 28.4771 32.1921L28.2484 32.2803C28.168 32.3117 28.0876 32.3432 28.0071 32.3726C27.905 32.4096 27.8022 32.4446 27.6987 32.4796L27.47 32.5579C27.3987 32.5831 27.3266 32.6083 27.2539 32.632C27.1364 32.6705 27.0168 32.7062 26.8979 32.7411L26.6811 32.8069C26.6168 32.8272 26.5531 32.8467 26.4881 32.8649C26.3391 32.9076 26.1888 32.9468 26.0384 32.9852L25.7118 33.0712C25.4761 33.1293 25.2397 33.1824 25.0019 33.2335L24.925 33.251C24.3963 33.3622 23.8556 33.4559 23.3185 33.53L23.1339 33.5524C22.9248 33.5797 22.715 33.6063 22.5038 33.628L22.2499 33.6496C22.0366 33.6699 21.8596 33.686 21.6813 33.6979C21.6184 33.7021 21.5533 33.7056 21.489 33.7084L21.2841 33.7196C21.1407 33.728 20.998 33.7357 20.8539 33.7406C20.7805 33.7433 20.7071 33.744 20.6329 33.7447L20.4091 33.7489L20.4105 33.751ZM1.7876 26.509C2.93737 29.9989 5.03549 33.0412 7.88195 35.3603L7.85117 35.0973C7.83229 34.9407 7.81341 34.784 7.79802 34.6302C7.77564 34.4099 7.75676 34.1923 7.73857 33.9755L7.69521 33.4846C7.68053 33.3265 7.66584 33.1685 7.65465 33.0132C7.63437 32.7404 7.62038 32.4733 7.60569 32.2054L7.58751 31.8746C7.57632 31.6634 7.56443 31.4522 7.55674 31.2438C7.54205 30.8661 7.52946 30.4906 7.52317 30.122C7.35322 30.0066 7.18677 29.8877 7.02032 29.7688L6.86715 29.6618C6.8119 29.624 6.75665 29.587 6.7035 29.5471C6.38948 29.3142 6.07966 29.0701 5.78172 28.8198C5.71459 28.7631 5.65094 28.7051 5.5873 28.647L5.37609 28.4589C5.21873 28.3211 5.06137 28.1833 4.9117 28.04C4.83547 27.9672 4.76274 27.8917 4.69 27.8162L4.46341 27.5861C4.34101 27.4644 4.21932 27.342 4.10323 27.2161C4.0249 27.1315 3.95076 27.044 3.87733 26.9566L3.66052 26.7048C3.55842 26.5887 3.45701 26.472 3.36049 26.3524C3.28426 26.2572 3.21223 26.1593 3.14019 26.0621L2.94576 25.8027C2.85694 25.6859 2.76812 25.5698 2.6849 25.4502C2.61216 25.3453 2.54362 25.239 2.47578 25.132L2.30724 24.8718C2.2296 24.7529 2.15127 24.634 2.07854 24.513L2.06595 24.492L2.04917 24.5906L2.0156 24.7865C2.00441 24.8522 1.99252 24.9186 1.98203 24.9851C1.95615 25.148 1.93377 25.3131 1.91139 25.4781L1.86873 25.7817C1.83865 26.0223 1.81068 26.2649 1.7862 26.509H1.7876ZM32.474 30.1206C32.4677 30.5549 32.4545 30.9976 32.4356 31.4396C32.4328 31.5081 32.4286 31.5774 32.4237 31.6466L32.4139 31.8026C32.3936 32.204 32.3726 32.6062 32.3426 33.0167C32.3342 33.1335 32.323 33.2524 32.3118 33.3713L32.2775 33.7615C32.253 34.0511 32.2293 34.3406 32.1992 34.635C32.1852 34.77 32.1691 34.9078 32.1523 35.0449L32.1153 35.361C34.961 33.0426 37.0584 29.9996 38.2089 26.509C38.1844 26.267 38.1565 26.0237 38.1257 25.7824L38.0823 25.4732C38.0599 25.3103 38.0383 25.1473 38.0131 24.9865C38.0026 24.9193 37.9914 24.8543 37.9795 24.7893L37.9459 24.5948L37.9285 24.4927L37.9166 24.5123C37.8403 24.6389 37.7592 24.7634 37.6781 24.8872L37.5074 25.1515C37.4438 25.2515 37.3801 25.3516 37.3116 25.4495C37.2221 25.5782 37.1263 25.704 37.0298 25.8299L36.8402 26.0824C36.7738 26.1726 36.7066 26.2635 36.636 26.3517C36.5311 26.4817 36.4206 26.6083 36.3094 26.7349L36.0996 26.9783C36.0318 27.058 35.9646 27.1378 35.8933 27.2154C35.7695 27.3497 35.6401 27.4798 35.51 27.6091L35.2904 27.8322C35.2233 27.9022 35.1554 27.9721 35.0848 28.04C34.9211 28.1959 34.7498 28.3463 34.5778 28.4966L34.391 28.6624C34.333 28.7155 34.2749 28.7687 34.2148 28.8191C33.9126 29.0729 33.6007 29.3191 33.2867 29.5513C33.2378 29.5877 33.1867 29.6226 33.1356 29.6569L32.9986 29.752C32.8251 29.8765 32.6517 30.0003 32.474 30.1206ZM20.4105 22.7527V32.9265L20.605 32.923C20.6798 32.9223 20.7539 32.9209 20.8281 32.9188C20.9372 32.9153 21.0463 32.909 21.1547 32.9027L21.4169 32.8887C21.4883 32.8852 21.5596 32.8817 21.6302 32.8768C21.7407 32.8691 21.8498 32.8593 21.9596 32.8495L22.2079 32.8279C22.2807 32.8223 22.3534 32.816 22.4261 32.809C22.5394 32.7971 22.6527 32.7831 22.7653 32.7684L23.0094 32.739C23.0772 32.7314 23.1458 32.7237 23.2136 32.7139C23.3402 32.6964 23.4668 32.6761 23.5927 32.6551L23.8067 32.6216C23.8689 32.6125 23.9312 32.6027 23.9927 32.5922C24.1305 32.5684 24.2676 32.5411 24.4047 32.5138L24.7627 32.4446C24.918 32.4117 25.0719 32.3754 25.2257 32.339L25.523 32.2705C25.7195 32.2215 25.9139 32.1684 26.1076 32.1145L26.2734 32.0704C26.5105 32.0026 26.7462 31.9299 26.9805 31.8543C27.7442 31.6068 28.468 31.3263 29.1639 31.0123L29.2108 31.0906L29.2394 31.0773L29.2017 30.9941C29.4213 30.8948 29.6381 30.792 29.8535 30.685L29.957 30.6311C30.1493 30.5339 30.3402 30.436 30.5284 30.3332L30.6738 30.2507C30.8466 30.1542 31.0193 30.0576 31.1893 29.9569L31.3571 29.8534C31.4564 29.7933 31.5558 29.7324 31.6544 29.6709C31.6558 29.345 31.6516 29.0226 31.646 28.7016L31.6446 28.4561C31.6236 27.5182 31.5704 26.5895 31.4879 25.6964C31.483 25.6439 31.4767 25.5928 31.4704 25.5411L31.4544 25.3998C31.4194 25.0543 31.3837 24.7102 31.3397 24.3717C31.3285 24.2871 31.3152 24.2039 31.3026 24.1207L31.2578 23.8185C31.2229 23.5723 31.1872 23.3262 31.1466 23.0849C31.1298 22.987 31.111 22.8912 31.0921 22.7953L31.0235 22.4366C30.9865 22.2351 30.9494 22.0344 30.9074 21.8372C30.8858 21.7344 30.8613 21.6337 30.8368 21.533L30.7487 21.1567C30.7081 20.9791 30.6676 20.8014 30.6221 20.6273C30.5948 20.5224 30.5647 20.4189 30.5354 20.3161L30.4375 19.9692L30.4347 19.9587C30.3969 19.9832 30.3584 20.0076 30.32 20.0314C30.2451 20.0776 30.1689 20.1216 30.0927 20.1657L29.9283 20.2622C29.8647 20.3 29.801 20.3377 29.7353 20.3741C29.6577 20.4175 29.5793 20.4587 29.5003 20.5L29.3248 20.593C29.2611 20.6273 29.1975 20.6616 29.1331 20.6937C29.052 20.735 28.9688 20.7742 28.8862 20.814L28.7037 20.9014C28.6408 20.9322 28.5771 20.963 28.5135 20.9924C28.4296 21.0308 28.3449 21.0672 28.2596 21.1029L28.0715 21.184C28.0064 21.2127 27.9414 21.2413 27.8757 21.2679C27.7861 21.3043 27.6952 21.3392 27.6036 21.3742L27.4148 21.4477C27.3511 21.4728 27.2875 21.498 27.2224 21.5218C27.1294 21.5561 27.0343 21.5882 26.9392 21.6204L26.7476 21.6868C26.6832 21.7092 26.6182 21.7323 26.5531 21.7533C26.4566 21.7848 26.358 21.8141 26.2601 21.8435L26.0566 21.905C25.995 21.9239 25.9328 21.9435 25.8705 21.961C25.7363 21.9988 25.5999 22.0344 25.4635 22.0694L25.1754 22.1449C24.9418 22.2023 24.7054 22.2561 24.4676 22.3058L24.3368 22.331C24.1417 22.3701 23.9466 22.4086 23.7493 22.4429C23.6906 22.4527 23.6319 22.4617 23.5731 22.4701L23.3773 22.5009C23.2584 22.5198 23.1395 22.5394 23.0199 22.5555C22.9598 22.5639 22.8989 22.5708 22.8381 22.5778L22.6331 22.603C22.5163 22.6177 22.3989 22.6324 22.2807 22.6443C22.2149 22.6513 22.1485 22.6562 22.0827 22.6618L21.8687 22.68C21.7582 22.6897 21.647 22.7002 21.5358 22.7072C21.4652 22.7121 21.3939 22.7156 21.3225 22.7191L21.1036 22.7303C20.9966 22.7366 20.8896 22.7422 20.7826 22.7457C20.7113 22.7485 20.6399 22.7492 20.5679 22.7499L20.4133 22.7527H20.4105ZM19.1691 32.9181C19.2433 32.9209 19.3181 32.9216 19.3929 32.9223L19.5867 32.9258V22.752L19.4321 22.7492C19.3601 22.7478 19.2887 22.7471 19.2167 22.745C19.1097 22.7415 19.0034 22.7352 18.8964 22.7296L18.6768 22.7177C18.6054 22.7142 18.5341 22.7114 18.4628 22.7058C18.3516 22.6981 18.2404 22.6883 18.1299 22.6786L17.9075 22.659C17.8445 22.6541 17.7809 22.6485 17.7179 22.6422C17.5935 22.6296 17.4704 22.6142 17.3473 22.5988L17.1563 22.5757C17.0969 22.5687 17.0382 22.5625 16.9794 22.5541C16.8591 22.5373 16.7409 22.5184 16.622 22.4995L16.4269 22.4687C16.3675 22.4596 16.308 22.4513 16.2493 22.4408C16.052 22.4065 15.8562 22.368 15.6618 22.3289L15.5303 22.3037C15.2932 22.254 15.0568 22.2009 14.8232 22.1428L14.5414 22.0687C14.4029 22.033 14.2644 21.9974 14.1281 21.9589C14.0672 21.9414 14.0071 21.9232 13.9469 21.9043L13.7553 21.8463C13.6518 21.8155 13.5476 21.7848 13.4455 21.7512C13.3825 21.7309 13.3203 21.7085 13.2573 21.6868L13.0636 21.6204C12.9671 21.5875 12.8713 21.5554 12.7769 21.5204C12.7111 21.4966 12.6468 21.4714 12.5824 21.4456L12.3887 21.3707C12.2999 21.3365 12.2104 21.3029 12.1229 21.2665C12.0558 21.2392 11.9894 21.2099 11.9229 21.1805L11.7334 21.0987C11.6502 21.063 11.5676 21.028 11.4858 20.9903C11.4194 20.9602 11.3543 20.9287 11.2893 20.8965L11.104 20.8077C11.0235 20.77 10.9438 20.7315 10.8648 20.6916C10.799 20.6581 10.734 20.6231 10.669 20.5881L10.4976 20.4972C10.4186 20.4559 10.3395 20.4147 10.2626 20.3713C10.1983 20.3349 10.1353 20.2979 10.0717 20.2601L9.90663 20.1629C9.8304 20.1188 9.75417 20.0741 9.68004 20.0286C9.64157 20.0048 9.60311 19.9804 9.56534 19.9559L9.56324 19.9643L9.46463 20.3133C9.43456 20.4161 9.40518 20.5196 9.37791 20.6245C9.33175 20.8028 9.29049 20.9854 9.24852 21.1672L9.1632 21.5302C9.13872 21.6309 9.11424 21.7316 9.09256 21.8344C9.0506 22.0302 9.01423 22.2296 8.97717 22.4296L8.90793 22.7932C8.88904 22.8891 8.87016 22.9856 8.85338 23.0828C8.81281 23.3178 8.77924 23.557 8.74497 23.7961L8.69672 24.1207C8.68343 24.2032 8.67084 24.285 8.65965 24.3689C8.61559 24.7074 8.57992 25.0522 8.54495 25.397L8.52957 25.5362C8.52327 25.5879 8.51698 25.6397 8.51208 25.6929C8.42886 26.5853 8.3764 27.514 8.35472 28.4533L8.35332 28.6981C8.34773 29.0198 8.34353 29.3422 8.34493 29.6681C8.44424 29.7303 8.54355 29.7912 8.64356 29.8513L8.81071 29.9548C8.97717 30.0541 9.14781 30.1493 9.31776 30.2437L9.47162 30.3311C9.65206 30.4297 9.8353 30.5234 10.0185 30.6157L10.1479 30.6829C10.3563 30.7864 10.5668 30.8857 10.7795 30.9822L10.8151 30.999C11.5313 31.3228 12.2551 31.6026 12.9867 31.8411L13.1133 31.8795C13.3175 31.9446 13.5203 32.0082 13.7259 32.0669L14.0169 32.1446C14.1693 32.1865 14.3218 32.2285 14.4756 32.2663C14.533 32.2803 14.5917 32.2935 14.6498 32.3068L14.8617 32.3558C14.9862 32.3852 15.1107 32.4145 15.2359 32.4411C15.2988 32.4544 15.3632 32.4663 15.4268 32.4782L15.6541 32.5222C15.7709 32.5453 15.8884 32.5684 16.0059 32.5894C16.0737 32.6013 16.1416 32.6111 16.2094 32.6216L16.4521 32.6593C16.5626 32.6775 16.6738 32.695 16.7857 32.7104C16.8598 32.7209 16.9339 32.7293 17.0088 32.7376L17.248 32.7663C17.3557 32.7803 17.4641 32.7936 17.5725 32.8048C17.6494 32.8132 17.7256 32.8188 17.8026 32.8251L18.0536 32.8467C18.1586 32.8565 18.2635 32.8656 18.3684 32.8733C18.4418 32.8782 18.5145 32.8817 18.588 32.8852L18.8411 32.8985C18.9509 32.9048 19.0614 32.9111 19.1719 32.9146L19.1691 32.9181ZM7.17558 28.8701C7.2609 28.9338 7.34972 28.9946 7.43854 29.0554L7.52387 29.1149V28.896C7.52526 28.7309 7.52527 28.5652 7.52946 28.4029C7.53296 28.2344 7.54065 28.0679 7.54834 27.9015L7.56653 27.4511C7.57212 27.2944 7.57772 27.1371 7.58681 26.9832C7.598 26.7972 7.61269 26.6146 7.62737 26.4321L7.65884 26.0146C7.66864 25.8747 7.67843 25.7341 7.69172 25.597C7.7127 25.3753 7.73857 25.1571 7.76445 24.9389L7.80781 24.5599C7.819 24.4543 7.83019 24.3494 7.84348 24.2458C7.89383 23.8654 7.95188 23.4926 8.01343 23.122L8.0421 22.9296C8.11624 22.4967 8.19946 22.0645 8.28898 21.6463L8.31766 21.526C8.40018 21.1476 8.4876 20.7728 8.58272 20.4049C8.6009 20.3356 8.62048 20.2678 8.64007 20.2L8.70581 19.9664C8.75057 19.802 8.79533 19.637 8.84219 19.4747L8.77505 19.4251L8.5988 19.2964C8.54565 19.2586 8.4925 19.2208 8.44214 19.1817C8.28199 19.0586 8.12813 18.9313 7.97566 18.8033L7.92671 18.7635C7.89943 18.7418 7.87215 18.7201 7.84628 18.6977C7.65535 18.5334 7.47141 18.3648 7.29377 18.1921C7.25181 18.1515 7.21125 18.1088 7.17138 18.0669L7.0434 17.9354C6.95388 17.8452 6.86506 17.755 6.78113 17.6626C6.73357 17.6109 6.68951 17.5577 6.64475 17.5053L6.51187 17.35C6.44333 17.2717 6.37479 17.1927 6.31115 17.1129C6.26429 17.0542 6.22023 16.9947 6.17687 16.9353L6.05238 16.7688C5.99573 16.6947 5.93978 16.6206 5.88733 16.545C5.84187 16.4793 5.79991 16.4136 5.75795 16.3478L5.64954 16.1807C5.60129 16.1072 5.55303 16.0338 5.50897 15.9597C5.50058 15.9464 5.49288 15.9331 5.48519 15.9191L5.39427 16.0478C5.33902 16.1254 5.28377 16.2037 5.23132 16.2842C5.14599 16.4136 5.06557 16.5464 4.98514 16.6793L4.81449 16.9556C4.76484 17.0339 4.71588 17.1129 4.66832 17.1934C4.58719 17.3325 4.51096 17.4752 4.43473 17.6179L4.28087 17.9011C4.23751 17.9795 4.19345 18.0578 4.15218 18.1382C4.07805 18.2837 4.00881 18.432 3.93887 18.5809L3.7955 18.8816C3.75704 18.96 3.71857 19.039 3.6829 19.1187C3.61297 19.2754 3.54862 19.4349 3.48358 19.595L3.35979 19.895C3.32622 19.9741 3.29265 20.0538 3.26118 20.1342C3.19334 20.3105 3.1311 20.4902 3.06885 20.6706L2.96325 20.97C2.93737 21.0413 2.9108 21.112 2.88702 21.1847C2.77092 21.54 2.66182 21.9029 2.56251 22.2638C2.54362 22.3317 2.52754 22.4009 2.51075 22.4701L2.44361 22.7387C2.40025 22.9065 2.35689 23.0744 2.31703 23.2443C2.42263 23.4486 2.53663 23.65 2.65133 23.8507C2.67021 23.8843 2.68839 23.9178 2.70588 23.9514C2.72266 23.9829 2.73875 24.0144 2.75693 24.0444C2.93527 24.3452 3.1276 24.6459 3.33042 24.9382C3.37098 24.997 3.41434 25.0536 3.45701 25.1103L3.63465 25.3502C3.74445 25.5012 3.85425 25.653 3.97175 25.7999C4.03119 25.874 4.09414 25.946 4.15708 26.0188L4.38927 26.2915C4.48369 26.4048 4.5788 26.5174 4.67881 26.6272C4.74735 26.7027 4.82009 26.7755 4.89282 26.8482L5.15159 27.1133C5.2495 27.2154 5.34741 27.3175 5.45022 27.4161C5.52645 27.4895 5.60618 27.5595 5.68591 27.6301L5.95657 27.8742C6.06357 27.9721 6.17058 28.07 6.28248 28.1651C6.3643 28.2344 6.44963 28.3001 6.53495 28.3673L6.8189 28.5932C6.93569 28.6869 7.05179 28.7806 7.17348 28.8708L7.17558 28.8701ZM31.1557 19.474C31.2033 19.6398 31.2494 19.8076 31.2949 19.9755L31.3571 20.1986C31.3767 20.2664 31.3963 20.3343 31.4145 20.4035C31.5103 20.7707 31.597 21.1455 31.6802 21.5246L31.7082 21.6435C31.7991 22.0687 31.8824 22.5002 31.9551 22.9282L31.9838 23.1199C32.0453 23.4905 32.1041 23.864 32.1537 24.2437C32.167 24.3459 32.1782 24.4508 32.1894 24.555L32.2328 24.9368C32.2586 25.155 32.2845 25.3732 32.3055 25.5949C32.3181 25.7292 32.3279 25.8656 32.337 26.0027L32.3705 26.4405C32.3852 26.6195 32.3992 26.7993 32.4097 26.9811C32.4188 27.1357 32.4244 27.2923 32.43 27.4497L32.4482 27.8917C32.4559 28.0609 32.4635 28.2302 32.467 28.4022C32.4712 28.5652 32.4712 28.7302 32.4719 28.8953V29.1142L32.5573 29.0554C32.6461 28.9946 32.7356 28.9331 32.8216 28.8694C32.9468 28.7764 33.0678 28.6792 33.1881 28.5813L33.4636 28.3624C33.5476 28.2973 33.6315 28.2316 33.7119 28.1637C33.8336 28.0609 33.9504 27.9539 34.0665 27.8476L34.3232 27.6161C34.398 27.5497 34.4728 27.4839 34.5442 27.4154C34.6652 27.2993 34.7799 27.1797 34.8946 27.0594L35.1317 26.816C35.1939 26.7538 35.2561 26.6916 35.3149 26.6265C35.4534 26.4755 35.5835 26.3195 35.7135 26.1635L35.8933 25.9523C35.9373 25.902 35.9814 25.8516 36.0234 25.7999C36.2276 25.5439 36.4185 25.2795 36.5612 25.0781L36.6185 25.0012C36.6346 24.9802 36.6507 24.9599 36.6654 24.9382C36.8696 24.6438 37.0626 24.3417 37.2403 24.0416L37.278 23.9724C37.4284 23.7157 37.5606 23.4758 37.6795 23.2429C37.6403 23.0758 37.5977 22.91 37.555 22.745L37.4858 22.468C37.469 22.3988 37.4529 22.3303 37.4347 22.2624C37.3354 21.8994 37.2263 21.5365 37.1102 21.1826C37.0871 21.1127 37.0619 21.0441 37.0368 20.9763L36.9388 20.7007C36.8731 20.5105 36.8074 20.3203 36.736 20.1342C36.7046 20.0517 36.6703 19.972 36.636 19.8915L36.5101 19.5866C36.4465 19.4293 36.3828 19.2719 36.3143 19.1187C36.2772 19.0348 36.2367 18.953 36.1968 18.8712L36.0583 18.5802C35.9891 18.4313 35.9192 18.2823 35.845 18.1375C35.8031 18.0557 35.759 17.976 35.7149 17.8962L35.5555 17.6032C35.4813 17.4654 35.4079 17.3269 35.3296 17.1927C35.2806 17.1087 35.2289 17.0269 35.1778 16.9451L35.0044 16.6639C34.9267 16.5366 34.8491 16.4087 34.7673 16.2842C34.7099 16.1975 34.6505 16.1128 34.5903 16.0282L34.5127 15.9177L34.4903 15.9562C34.4393 16.0422 34.3833 16.1268 34.3274 16.2114L34.2246 16.3702C34.1882 16.4275 34.1518 16.4842 34.1134 16.5401C34.0462 16.6374 33.9735 16.7325 33.9008 16.8276L33.7994 16.9626C33.7637 17.0115 33.728 17.0598 33.6895 17.108C33.5972 17.2234 33.4993 17.336 33.4007 17.4479L33.3161 17.5465C33.2846 17.5843 33.2531 17.6214 33.2196 17.6577C33.0867 17.8032 32.9468 17.9459 32.8048 18.0865L32.7069 18.1872C32.5279 18.3606 32.3419 18.5313 32.1495 18.697C31.9446 18.8719 31.753 19.0285 31.5551 19.1803C31.5096 19.2153 31.4613 19.2495 31.4138 19.2831L31.2508 19.402C31.2194 19.4251 31.1879 19.4488 31.1564 19.4719L31.1557 19.474ZM38.5474 23.3513C38.6229 23.6989 38.6943 24.0731 38.7607 24.4627C38.9314 23.6556 39.0489 22.8387 39.1139 22.0155C39.0957 22.0645 39.0768 22.1135 39.0586 22.1617L38.981 22.3659C38.9279 22.5002 38.8705 22.6331 38.8132 22.766L38.7453 22.9247C38.6817 23.0674 38.6159 23.2094 38.5474 23.3513ZM0.88261 22.0162C0.947652 22.8387 1.06585 23.6556 1.23579 24.4627C1.30223 24.0738 1.37357 23.701 1.4491 23.3513C1.38056 23.2101 1.31482 23.0674 1.25048 22.9247L1.18054 22.7611C1.12389 22.631 1.06794 22.5002 1.01549 22.368L0.933664 22.1533C0.91618 22.1079 0.899395 22.0617 0.88261 22.0162ZM0.914082 18.6523C0.979124 19.2132 1.08263 19.7782 1.22041 20.3315L1.24139 20.4105C1.28195 20.5685 1.32531 20.728 1.37217 20.8861L1.42463 21.0525C1.46449 21.1805 1.50435 21.3092 1.54841 21.4365L1.62395 21.6442C1.66871 21.7687 1.70717 21.8764 1.74913 21.9827L1.77082 22.0372L1.78201 21.996C1.82467 21.8414 1.87153 21.6896 1.91838 21.5386L2.0142 21.2225C2.04847 21.1078 2.08204 20.9931 2.1198 20.8805C2.17156 20.7231 2.22821 20.5685 2.28486 20.414L2.39396 20.1105C2.43102 20.0055 2.46809 19.8999 2.50796 19.7971C2.5716 19.6335 2.63944 19.4733 2.70798 19.3132L2.83037 19.0215C2.86813 18.9292 2.9059 18.8369 2.94646 18.7467C3.02479 18.5725 3.10802 18.4019 3.19194 18.2312L3.31923 17.9676C3.3563 17.8878 3.39406 17.8088 3.43393 17.7305C3.54932 17.506 3.67241 17.2864 3.7955 17.0675L3.87873 16.9157C3.9088 16.8605 3.93818 16.8045 3.97035 16.75C4.15708 16.431 4.3529 16.1142 4.55432 15.81C4.60888 15.7268 4.66692 15.6449 4.72497 15.5638L4.9173 15.2876C4.96206 15.2218 5.00682 15.1568 5.05228 15.0917C5.01521 15.0134 4.97884 14.9351 4.94527 14.8568C4.93059 14.8225 4.9173 14.7882 4.90401 14.7532L4.86135 14.6469C4.82918 14.5665 4.79631 14.4868 4.76763 14.4064C4.75504 14.3714 4.74316 14.3364 4.73197 14.3007L4.697 14.1958C4.66902 14.1147 4.64105 14.0329 4.61657 13.9511C4.60538 13.9126 4.59489 13.8741 4.5851 13.8357L4.55362 13.7189C4.53264 13.644 4.51166 13.5685 4.49348 13.493C4.48299 13.4503 4.4746 13.4069 4.4662 13.3636L4.43963 13.237C4.42494 13.1685 4.40955 13.0992 4.39697 13.0307C4.38857 12.9824 4.38158 12.9342 4.37459 12.8852L4.3536 12.7453C4.34381 12.6852 4.33472 12.625 4.32773 12.5649C4.32003 12.5013 4.31514 12.4369 4.30954 12.3726L4.29765 12.2348C4.29276 12.1886 4.28856 12.1425 4.28576 12.0956C4.27667 11.9404 4.27178 11.783 4.27178 11.6263C4.27178 11.4179 4.28087 11.2004 4.29905 10.9801C4.30325 10.9305 4.30954 10.8808 4.31654 10.8319L4.32633 10.7563C4.34451 10.5948 4.3585 10.4654 4.38018 10.3353C4.38927 10.28 4.40116 10.2248 4.41235 10.1695L4.31514 10.2479C4.27178 10.2828 4.22842 10.3178 4.18575 10.3535C4.06756 10.4542 3.95146 10.5584 3.83537 10.6633L3.65633 10.8228C3.49477 10.9717 3.33671 11.1249 3.18075 11.2809C1.92538 13.5678 1.16236 16.0457 0.913383 18.6481L0.914082 18.6523ZM34.9442 15.0931C34.9897 15.1589 35.0351 15.2246 35.0806 15.2904L35.275 15.5687C35.3324 15.6484 35.389 15.7282 35.4436 15.8107C35.6436 16.1135 35.8394 16.4296 36.0269 16.75C36.0604 16.808 36.0926 16.8668 36.1241 16.9262L36.2136 17.0892C36.3325 17.3011 36.4521 17.513 36.564 17.7305C36.6038 17.8081 36.6416 17.8878 36.6787 17.9669L36.806 18.2305C36.8899 18.4012 36.9731 18.5711 37.0514 18.746C37.092 18.8362 37.1298 18.9285 37.1675 19.0208L37.2934 19.3209C37.3606 19.4782 37.427 19.6356 37.4892 19.7957C37.5284 19.8971 37.5648 20.0006 37.6011 20.1042L37.7123 20.4147C37.7683 20.5685 37.8249 20.7224 37.8767 20.8791C37.9138 20.9924 37.948 21.1078 37.9823 21.2232L38.0795 21.5428C38.1257 21.6924 38.1718 21.8428 38.2145 21.9946L38.2257 22.0358L38.2488 21.9799C38.2816 21.896 38.3117 21.8113 38.3425 21.7274L38.3949 21.584C38.4138 21.533 38.4327 21.4826 38.4502 21.4309C38.481 21.3406 38.5096 21.2497 38.5383 21.1588L38.5817 21.0217C38.5971 20.9728 38.6131 20.9245 38.6271 20.8756C38.6544 20.7846 38.6782 20.693 38.7027 20.6007L38.7432 20.451C38.7558 20.4063 38.7684 20.3608 38.7796 20.3161C38.8027 20.223 38.823 20.13 38.8439 20.037L38.9083 19.7496C38.9314 19.6342 38.9516 19.5188 38.9712 19.4027L39.0111 19.1803C39.0391 19.0026 39.0635 18.825 39.0845 18.646C38.8355 16.0478 38.0725 13.5706 36.8165 11.2829C36.6612 11.1263 36.5024 10.9738 36.3416 10.8249L36.1821 10.6829C36.0597 10.5724 35.9373 10.4619 35.8121 10.3556C35.7674 10.3178 35.7219 10.2807 35.6758 10.2444L35.5856 10.1716C35.5974 10.2269 35.6086 10.2821 35.6177 10.3374C35.6387 10.4619 35.6527 10.5871 35.6667 10.7116L35.6821 10.8367C35.6884 10.885 35.6947 10.934 35.6988 10.9822C35.717 11.2018 35.7261 11.4193 35.7261 11.6284C35.7261 11.7851 35.7212 11.9418 35.7121 12.0984C35.71 12.1404 35.7058 12.1823 35.7016 12.2236L35.6905 12.3523C35.6849 12.4236 35.6793 12.495 35.6709 12.5663C35.6639 12.6243 35.6548 12.681 35.6457 12.7376L35.6254 12.874C35.6184 12.9265 35.6107 12.9796 35.6009 13.0321C35.5883 13.102 35.573 13.172 35.5583 13.2419L35.5317 13.3657C35.5233 13.4083 35.5149 13.451 35.5044 13.493C35.4862 13.5678 35.466 13.6412 35.445 13.7154L35.4121 13.8371C35.4023 13.8755 35.3918 13.914 35.3806 13.9525C35.3576 14.0308 35.3303 14.1084 35.3037 14.1861L35.2666 14.2966C35.2547 14.3336 35.2429 14.3707 35.2296 14.4071C35.2002 14.4875 35.168 14.5679 35.1352 14.6483L35.0932 14.7532C35.0799 14.7875 35.0666 14.8225 35.0519 14.8568C35.0184 14.9351 34.982 15.0134 34.9449 15.091L34.9442 15.0931ZM9.80942 19.1362L9.85558 19.1656L10.0969 19.3209C10.2004 19.3845 10.3067 19.446 10.4123 19.5076L10.6508 19.6468C10.7704 19.7139 10.8935 19.7782 11.0165 19.8426L11.2236 19.9524C11.3697 20.0265 11.5194 20.0972 11.6691 20.1671L11.8152 20.237C11.9859 20.3147 12.1593 20.3895 12.3342 20.4622L12.4237 20.5014C13.2468 20.8392 14.1197 21.1231 15.0184 21.3434C15.2596 21.4022 15.4785 21.4518 15.6989 21.498L15.8247 21.5218C16.0122 21.5596 16.2003 21.5966 16.3898 21.6295L16.5885 21.6603C16.7731 21.6903 16.9311 21.7155 17.0913 21.7379L17.3857 21.7736C17.5242 21.791 17.6627 21.8085 17.8026 21.8232L18.1453 21.8533C18.2697 21.8645 18.3949 21.8757 18.5208 21.8848L18.9223 21.9057C19.03 21.912 19.137 21.9176 19.2454 21.9211C19.3118 21.9232 19.3783 21.9246 19.4454 21.9253L19.5867 21.9274V13.9895L19.5321 13.9874L19.2454 13.9769C19.1615 13.9748 19.0775 13.9727 18.995 13.9678C18.8285 13.9574 18.6649 13.9406 18.5012 13.9238L18.2572 13.9007C18.1823 13.8944 18.1082 13.8881 18.0348 13.879C17.8305 13.8532 17.6312 13.8196 17.4326 13.7853L17.2724 13.7594C17.2144 13.751 17.157 13.7426 17.1011 13.7315C16.7948 13.6727 16.4919 13.6049 16.2003 13.5279C16.166 13.5188 16.1332 13.5084 16.1003 13.4986L16.0408 13.4804C15.8031 13.4146 15.566 13.3468 15.3366 13.2692C15.2673 13.2461 15.2016 13.2195 15.1352 13.1936L14.9218 13.1132C14.7848 13.0629 14.647 13.0125 14.5148 12.9566C14.4414 12.9258 14.3721 12.8915 14.3029 12.8579L14.0868 12.7565C13.9693 12.7027 13.8518 12.6488 13.7392 12.5901C13.6665 12.5523 13.5972 12.5111 13.528 12.4698L13.3252 12.353L13.1706 12.5537C13.0867 12.6614 13.0028 12.7691 12.9223 12.8803C12.8657 12.958 12.8118 13.0377 12.758 13.1181L12.5692 13.393C12.4971 13.4958 12.4244 13.5993 12.3558 13.7056C12.2985 13.793 12.2439 13.8839 12.1894 13.9741L12.0083 14.2686C11.946 14.3679 11.8838 14.4665 11.8243 14.5686C11.7649 14.6707 11.7082 14.7756 11.6516 14.8805L11.4802 15.1918C11.4292 15.2834 11.3781 15.3743 11.3292 15.468C11.1711 15.7715 11.0172 16.0856 10.8718 16.4003C10.8361 16.4772 10.8032 16.5555 10.7697 16.6346L10.6361 16.9409C10.5731 17.0836 10.5095 17.2255 10.45 17.3717C10.413 17.4626 10.3787 17.5549 10.3437 17.648L10.2151 17.9851C10.1647 18.1151 10.1136 18.2445 10.0668 18.3774C10.0318 18.4753 9.99965 18.5753 9.96678 18.6753L9.85208 19.0194L9.81152 19.1397L9.80942 19.1362ZM20.4105 13.9902V21.9281L20.5518 21.926C20.6182 21.9253 20.6854 21.9239 20.7518 21.9218C20.8602 21.9183 20.9672 21.912 21.0749 21.9064L21.4778 21.8855C21.6037 21.8764 21.7296 21.8652 21.8554 21.854L22.196 21.8246C22.3359 21.8099 22.4751 21.7924 22.6143 21.775L22.9073 21.7393C23.0675 21.7169 23.2262 21.6917 23.3857 21.6652L23.6088 21.6302C23.799 21.5973 23.9885 21.5603 24.1774 21.5218L24.2998 21.4987C24.5222 21.4526 24.7439 21.4015 24.9635 21.3483C25.8782 21.1238 26.7511 20.8406 27.5742 20.5021L27.6546 20.4671C27.8323 20.393 28.0092 20.3175 28.1827 20.2377L28.3274 20.1685C28.4785 20.0979 28.6275 20.0272 28.7743 19.9531L28.987 19.8398C29.108 19.7768 29.2289 19.7132 29.3471 19.6475L29.58 19.5111C29.6877 19.4488 29.7954 19.3866 29.901 19.3216L30.1381 19.1684L30.1878 19.1369L30.1507 19.0285L30.0374 18.6886C30.0031 18.583 29.9689 18.4781 29.9318 18.3746C29.8836 18.2389 29.8318 18.106 29.7794 17.9732L29.6535 17.6452C29.6192 17.5528 29.5849 17.4605 29.5479 17.3703C29.487 17.2199 29.422 17.0738 29.3569 16.9276L29.2268 16.629C29.194 16.552 29.1611 16.4744 29.1268 16.3989C28.98 16.0807 28.8261 15.7673 28.6694 15.4666C28.6205 15.3722 28.5687 15.2799 28.517 15.1876L28.3491 14.8826C28.2918 14.7763 28.2344 14.67 28.1743 14.5672C28.1148 14.4651 28.0526 14.3658 27.9903 14.2672L27.8113 13.9762C27.7561 13.8853 27.7008 13.7937 27.6428 13.7049C27.5749 13.6007 27.5036 13.4993 27.4329 13.3979L27.2462 13.1258C27.1903 13.0433 27.1343 12.9601 27.0756 12.8803C26.9965 12.7719 26.9147 12.667 26.8329 12.5614L26.6734 12.3537L26.4685 12.4712C26.4 12.5118 26.3314 12.553 26.2594 12.5901C26.1468 12.6488 26.0293 12.7027 25.9118 12.7565L25.695 12.8586C25.6258 12.8922 25.5558 12.9258 25.4838 12.9566C25.353 13.0125 25.2166 13.0622 25.0803 13.1125L24.86 13.1957C24.7949 13.2216 24.7292 13.2468 24.662 13.2699C24.4326 13.3475 24.1955 13.4153 23.9578 13.4811L23.899 13.4986C23.8661 13.5091 23.8326 13.5195 23.799 13.5279C23.5067 13.6042 23.2038 13.6727 22.8975 13.7315C22.8402 13.7426 22.7814 13.751 22.7234 13.7601L22.5548 13.7874C22.3597 13.821 22.1639 13.8545 21.9645 13.879C21.8911 13.8881 21.8163 13.8944 21.7414 13.9007L21.4988 13.9238C21.3344 13.9413 21.1708 13.9581 21.0036 13.9685C20.9211 13.9734 20.8372 13.9755 20.7532 13.9776L20.4105 13.9902ZM27.3714 11.9068C27.3917 11.9334 27.4113 11.9599 27.4315 11.9865L27.6029 12.2124C27.6491 12.2719 27.6952 12.3313 27.74 12.3929C27.8526 12.5474 27.9603 12.7076 28.068 12.867L28.2051 13.0671C28.2477 13.1279 28.2904 13.1887 28.3309 13.2517C28.4519 13.437 28.5666 13.6273 28.6813 13.8182L28.7841 13.986C28.8177 14.0392 28.8513 14.093 28.8834 14.1483C29.0604 14.4511 29.2331 14.7644 29.3968 15.0799L29.4779 15.2456C29.6129 15.51 29.7458 15.7757 29.8717 16.0485C29.9038 16.1177 29.9339 16.1891 29.9647 16.2604L30.0682 16.4975C30.15 16.6807 30.2311 16.864 30.3074 17.0521C30.3409 17.1339 30.3724 17.2178 30.4039 17.3018L30.5046 17.5647C30.5724 17.7389 30.641 17.913 30.7039 18.0907C30.734 18.176 30.7627 18.2627 30.7913 18.3501L30.8907 18.646L30.9088 18.6327C30.9613 18.5956 31.0137 18.5578 31.0634 18.5194C31.1452 18.4564 31.2236 18.3914 31.3019 18.3263L31.4732 18.1865C31.5236 18.1459 31.5739 18.1053 31.6222 18.0641C31.6998 17.9969 31.7733 17.9277 31.8474 17.8592L32.0111 17.7088C32.0551 17.6689 32.0992 17.6298 32.1411 17.5885C32.2216 17.5109 32.2971 17.4304 32.3726 17.3507L32.5146 17.2032C32.5503 17.1675 32.5852 17.1318 32.6188 17.0947C32.7426 16.9584 32.8594 16.8185 32.9741 16.6779L33.0552 16.5835C33.1923 16.4115 33.3231 16.2359 33.4462 16.0583C33.4644 16.0324 33.4811 16.0051 33.4979 15.9785L33.5735 15.8618C33.649 15.7478 33.7245 15.6345 33.7931 15.5191C33.8154 15.4806 33.8364 15.4421 33.8567 15.403L33.9413 15.2477L33.9791 15.1806L33.9099 15.0931L33.7203 14.8512C33.6644 14.7784 33.6084 14.7057 33.5497 14.635C33.4874 14.5595 33.4231 14.4868 33.3594 14.4133L33.151 14.1721C33.0804 14.0888 33.0091 14.0049 32.9356 13.9238C32.886 13.8692 32.8349 13.8168 32.7846 13.7643L32.6811 13.6566C32.4069 13.3664 32.123 13.0824 31.8355 12.8132L31.7334 12.7153C31.6914 12.6747 31.6495 12.6341 31.6068 12.595C31.518 12.5145 31.4271 12.4369 31.3355 12.3586L31.0949 12.1502C31.0263 12.09 30.9585 12.0299 30.8879 11.9718C30.8011 11.9005 30.7116 11.8313 30.6228 11.762L30.3696 11.5634C30.292 11.5012 30.2144 11.4396 30.1339 11.3795C30.0458 11.313 29.9542 11.2487 29.8633 11.185L29.6066 11.0018C29.5213 10.9396 29.436 10.878 29.3478 10.8179C29.2541 10.7542 29.1583 10.6934 29.0625 10.6318L28.8387 10.4871C28.7834 10.5626 28.7254 10.6381 28.6659 10.7109C28.5051 10.9053 28.3533 11.0696 28.1967 11.2221C28.0393 11.3753 27.8631 11.5291 27.6728 11.6809C27.5728 11.7599 27.4728 11.8355 27.3714 11.9082V11.9068ZM8.9338 18.5201C8.98066 18.5564 9.02962 18.5907 9.07858 18.6257L9.10585 18.6453L9.11494 18.6187L9.21285 18.3277C9.23873 18.2487 9.26461 18.1697 9.29188 18.0921C9.37021 17.8732 9.45414 17.6591 9.53736 17.4458L9.6136 17.2479C9.63807 17.1829 9.66255 17.1185 9.68773 17.0549C9.79543 16.7912 9.91013 16.5339 10.0255 16.2772L10.0647 16.1863C10.0843 16.1415 10.1032 16.096 10.1234 16.052C10.4263 15.396 10.7599 14.7553 11.1138 14.1476C11.1347 14.1112 11.1571 14.0762 11.1795 14.0406L11.225 13.9671C11.369 13.7252 11.5145 13.4853 11.6663 13.2517C11.7033 13.195 11.7411 13.1405 11.7796 13.0859L11.8971 12.9139C12.0152 12.7383 12.1334 12.5635 12.2565 12.3936C12.3006 12.3327 12.3461 12.274 12.3915 12.2152L12.5587 11.9949L12.6237 11.9082C12.5258 11.8383 12.4328 11.7683 12.3454 11.6991C12.1341 11.5305 11.9579 11.3767 11.8005 11.2235L11.797 11.22C11.6411 11.0682 11.49 10.9046 11.3494 10.7339C11.2802 10.65 11.2166 10.5682 11.1571 10.4871L10.9277 10.6353C10.834 10.6955 10.7396 10.7556 10.648 10.8172C10.5515 10.8829 10.4577 10.9507 10.364 11.0186L10.1018 11.206C10.0206 11.2627 9.9402 11.32 9.86117 11.3788C9.76746 11.4487 9.67654 11.5214 9.58562 11.5942L9.33734 11.79C9.26041 11.8501 9.18278 11.9096 9.10795 11.9718C9.01913 12.0453 8.9331 12.1208 8.84778 12.1963L8.603 12.4082C8.53097 12.4698 8.45893 12.5313 8.38899 12.595C8.29737 12.6782 8.20855 12.7642 8.11973 12.8502L8.01203 12.9545C7.78543 13.1713 7.56583 13.3923 7.35112 13.6182L7.23852 13.735C7.17768 13.7979 7.11683 13.8601 7.05808 13.9252C6.98745 14.0028 6.91961 14.0832 6.85107 14.163L6.63986 14.4071C6.57342 14.4826 6.50768 14.5574 6.44403 14.635C6.38529 14.7064 6.32864 14.7798 6.27199 14.8533L6.08176 15.0966L6.01532 15.1806L6.04119 15.2267L6.13211 15.3932C6.15449 15.4358 6.17687 15.4785 6.20205 15.5198C6.2545 15.6086 6.31185 15.6953 6.3692 15.782L6.4755 15.9457C6.49928 15.9834 6.52306 16.0212 6.54894 16.059C6.67133 16.2359 6.80141 16.4115 6.93919 16.5835L7.0448 16.7073C7.1525 16.8381 7.2595 16.9682 7.3749 17.0947C7.40637 17.1297 7.43994 17.1633 7.47351 17.1976L7.61269 17.343C7.69102 17.4256 7.76935 17.5088 7.85257 17.5892C7.89104 17.627 7.9316 17.6633 7.97216 17.6997L8.12673 17.8417C8.20785 17.9172 8.28828 17.9927 8.37291 18.0662C8.41627 18.1032 8.46173 18.1396 8.50719 18.176L8.67084 18.3096C8.75686 18.3809 8.84289 18.4522 8.93241 18.5215L8.9338 18.5201ZM29.266 9.77999L29.2695 9.78209L29.5388 9.95694C29.6297 10.015 29.7206 10.073 29.8094 10.1339C29.922 10.2101 30.0318 10.2898 30.1416 10.3696L30.3843 10.543C30.4647 10.5997 30.5452 10.6563 30.6235 10.7151C30.7445 10.806 30.862 10.9004 30.9795 10.9941L31.0879 11.0808C31.3103 11.2571 31.5285 11.4375 31.7418 11.6214L31.8572 11.7201C31.9544 11.8026 32.0516 11.8858 32.146 11.9711C32.2286 12.046 32.3083 12.1229 32.388 12.1998L32.6062 12.4075C32.6908 12.4866 32.7755 12.5663 32.8573 12.6481C32.9384 12.7293 33.0175 12.8132 33.0965 12.8971L33.3035 13.1139C33.3804 13.1936 33.4581 13.2734 33.5322 13.3552C33.6105 13.4412 33.6868 13.53 33.7623 13.6182L33.9518 13.8371C34.026 13.921 34.0994 14.0056 34.1707 14.0916C34.2386 14.1735 34.3036 14.2574 34.3686 14.3413L34.4099 14.2364C34.426 14.1965 34.4421 14.156 34.4561 14.1161C34.477 14.0574 34.4959 13.9993 34.5148 13.9413L34.5533 13.8238C34.5666 13.7853 34.5792 13.7461 34.591 13.707C34.6085 13.6489 34.6239 13.5909 34.6386 13.5321L34.6722 13.4083C34.6827 13.3706 34.6931 13.3328 34.7015 13.295C34.7155 13.2377 34.7267 13.1811 34.7379 13.1244L34.7659 12.988C34.7736 12.9531 34.7813 12.9174 34.7876 12.8824C34.7988 12.8188 34.8078 12.7558 34.8162 12.6922L34.8491 12.4663C34.8582 12.388 34.8645 12.3089 34.8708 12.2299L34.8862 12.0495C34.8946 11.9096 34.8988 11.7704 34.8988 11.6298C34.8988 11.4326 34.8904 11.2326 34.8736 11.0368C34.8715 11.0151 34.8687 10.9941 34.8652 10.9724L34.8547 10.8913C34.8393 10.7423 34.8232 10.5927 34.7981 10.4437C34.7918 10.4052 34.7827 10.3675 34.7743 10.3297L34.7393 10.1626C34.719 10.059 34.6987 9.95624 34.6729 9.85343C34.6561 9.78769 34.6358 9.72265 34.6155 9.6576L34.554 9.45199C34.5477 9.42961 34.5414 9.40723 34.5351 9.38485C34.4666 9.33869 34.3966 9.29393 34.3274 9.24847L34.156 9.13657C34.0868 9.09111 34.0183 9.04565 33.9476 9.00229C33.749 8.8792 33.5483 8.75961 33.3441 8.64561C33.2993 8.62043 33.2531 8.59665 33.207 8.57357L33.0202 8.47496C32.9014 8.41132 32.7825 8.34768 32.6615 8.28753C32.6118 8.26305 32.5615 8.23997 32.5104 8.21689L32.3083 8.12248C32.1929 8.06793 32.0782 8.01338 31.9607 7.96232C31.9033 7.93714 31.8453 7.91476 31.7873 7.89099L31.5732 7.80356C31.4627 7.7581 31.3529 7.71195 31.2403 7.66998C31.1795 7.6469 31.118 7.62592 31.0564 7.60424L30.8354 7.52661C30.7249 7.48675 30.6144 7.44758 30.5018 7.41051C30.4368 7.38953 30.3703 7.36995 30.3039 7.35037L30.0843 7.28463C29.9724 7.25036 29.8598 7.21609 29.7458 7.18532C29.7073 7.17483 29.6681 7.16503 29.6297 7.15524C29.6339 7.17203 29.6374 7.18811 29.6409 7.2049C29.6577 7.28952 29.6688 7.37415 29.68 7.45947C29.6898 7.52242 29.694 7.55179 29.6975 7.58186C29.7101 7.70705 29.7164 7.83364 29.7164 7.95952C29.7164 8.14276 29.7031 8.33019 29.6758 8.51553C29.6695 8.56168 29.6584 8.60714 29.6479 8.6533L29.6262 8.75681C29.6066 8.85962 29.5863 8.96173 29.5562 9.06314C29.5409 9.11699 29.5199 9.17084 29.4989 9.22469L29.4506 9.35617C29.4227 9.4373 29.394 9.51773 29.3583 9.59746C29.3331 9.65341 29.3038 9.70866 29.2737 9.76321L29.2646 9.78069L29.266 9.77999ZM5.46001 9.38555L5.44253 9.44569L5.38028 9.65411C5.3593 9.72055 5.33832 9.78769 5.32154 9.85413C5.29636 9.95274 5.27748 10.0514 5.25789 10.1507L5.22153 10.3269C5.21244 10.3661 5.20334 10.4059 5.19635 10.4451C5.17327 10.5822 5.15858 10.7193 5.1439 10.8563L5.13061 10.9591C5.12641 10.9857 5.12292 11.0123 5.12082 11.0389C5.10403 11.2361 5.09564 11.4354 5.09564 11.6312C5.09564 11.7711 5.09984 11.9103 5.10823 12.0502L5.12501 12.2495C5.13061 12.3222 5.1362 12.3957 5.1453 12.4684C5.14949 12.5013 5.15439 12.5341 5.15928 12.567L5.17887 12.6999C5.18726 12.7614 5.19565 12.823 5.20684 12.8845L5.2565 13.1251C5.26839 13.1831 5.27957 13.2412 5.29356 13.2985C5.30265 13.337 5.31384 13.3762 5.32433 13.4153L5.35721 13.5377C5.37189 13.5951 5.38658 13.6524 5.40406 13.7091C5.41595 13.7496 5.42924 13.7881 5.44183 13.8266L5.48169 13.9469C5.49988 14.0042 5.51876 14.0609 5.53904 14.1182C5.55373 14.1581 5.56912 14.1979 5.5852 14.2371L5.62716 14.3441C5.69221 14.2602 5.75725 14.177 5.82509 14.0951C5.89502 14.0105 5.96706 13.9287 6.03909 13.8462L6.22793 13.628C6.30556 13.537 6.38319 13.4461 6.46431 13.3573C6.53775 13.2769 6.61398 13.1978 6.69021 13.1188L6.89443 12.9048C6.97486 12.8195 7.05529 12.7342 7.13851 12.6509C7.21894 12.5705 7.30216 12.4922 7.38539 12.4138L7.61059 12.1998C7.68962 12.1236 7.76795 12.0474 7.84977 11.9739C7.94349 11.8886 8.0407 11.8061 8.13792 11.7236L8.25401 11.6242C8.47222 11.4361 8.69462 11.2529 8.92122 11.0724L9.04291 10.9759C9.15201 10.8892 9.26041 10.8025 9.37301 10.7179C9.45274 10.6577 9.53457 10.6004 9.61709 10.543L9.86537 10.3654C9.97168 10.2877 10.0787 10.2108 10.1878 10.136C10.2766 10.0758 10.3668 10.0178 10.4577 9.95973L10.7221 9.78839L10.7319 9.78209L10.7235 9.76741C10.6927 9.71146 10.6627 9.65551 10.6375 9.59816C10.6018 9.51913 10.5731 9.438 10.5452 9.35757L10.4969 9.22539C10.4759 9.17224 10.4556 9.11909 10.4403 9.06523C10.4109 8.96382 10.3906 8.86312 10.371 8.76241L10.3479 8.654C10.3367 8.60854 10.327 8.56378 10.32 8.51762C10.2927 8.33159 10.2794 8.14486 10.2794 7.96092C10.2794 7.83504 10.2864 7.70845 10.299 7.58256C10.3018 7.55319 10.306 7.52311 10.3109 7.49304L10.4025 7.49654L10.406 7.47696L10.4081 7.46507L10.3179 7.45108C10.3284 7.36925 10.3395 7.28743 10.3556 7.2063C10.3591 7.19021 10.3626 7.17343 10.3661 7.15734C10.327 7.16713 10.2871 7.17762 10.2479 7.18811C10.1437 7.21679 10.0416 7.24756 9.9388 7.27903L9.71081 7.34687C9.63737 7.36855 9.56394 7.38953 9.49121 7.41331C9.39119 7.44618 9.29188 7.48115 9.19327 7.51682L8.95758 7.60005C8.88904 7.62382 8.82051 7.6469 8.75267 7.67278C8.65126 7.71125 8.55195 7.75251 8.45263 7.79377L8.22464 7.88679C8.1603 7.91267 8.09595 7.93784 8.03301 7.96512C7.92531 8.01198 7.819 8.06303 7.712 8.11339L7.49939 8.2127C7.44344 8.23787 7.38749 8.26375 7.33294 8.29033C7.20285 8.35467 7.07557 8.42321 6.94758 8.49175L6.77833 8.58127C6.73567 8.60295 6.69371 8.62463 6.65175 8.64841C6.42865 8.7729 6.20904 8.90228 5.99224 9.03796C5.95027 9.06454 5.90901 9.09181 5.86845 9.11979L5.70479 9.22749C5.62297 9.28064 5.54114 9.33309 5.46001 9.38765V9.38555ZM13.8476 11.704L13.9343 11.755C13.9973 11.7921 14.0602 11.8299 14.1267 11.8648C14.2197 11.9138 14.3183 11.9585 14.4162 12.0033L14.6512 12.1138C14.7141 12.1446 14.7764 12.1747 14.8421 12.2026C14.9582 12.2523 15.0799 12.2963 15.2009 12.3404L15.4317 12.4278C15.489 12.4502 15.5457 12.4726 15.6051 12.4929C15.7982 12.5586 15.9982 12.6146 16.1982 12.6705L16.3052 12.7027C16.3409 12.7139 16.3758 12.7251 16.4129 12.7342C16.6899 12.8062 16.9752 12.8705 17.2606 12.9251L17.4046 12.9475C17.6473 12.9908 17.8907 13.0321 18.1404 13.0629C18.1956 13.0699 18.2516 13.074 18.3075 13.0789L18.5369 13.1013C18.7069 13.1188 18.8761 13.137 19.0489 13.1475C19.1174 13.1517 19.1873 13.1531 19.2573 13.1552L19.5076 13.1636L19.5881 13.1671V7.3196L19.5489 7.33638L19.4692 7.37205C19.4013 7.40212 19.3328 7.4329 19.2566 7.46856L19.1307 7.52941C19.0551 7.56648 18.9866 7.59935 18.9132 7.63641L18.7572 7.71754C18.681 7.7574 18.6048 7.79797 18.5243 7.84203L18.3432 7.94414C18.2628 7.9896 18.1802 8.03715 18.0963 8.08751L17.8949 8.2099C17.8089 8.26305 17.7214 8.3176 17.6319 8.37565C17.5606 8.42181 17.4878 8.46937 17.4144 8.51832C17.3235 8.57917 17.2305 8.64281 17.1368 8.70855C17.0598 8.76171 16.9836 8.81556 16.906 8.87221C16.8102 8.94144 16.7122 9.01418 16.615 9.08831C16.5353 9.14846 16.4556 9.20931 16.3744 9.27295C16.2744 9.35128 16.1723 9.4352 16.0702 9.51913L16.0178 9.56179C15.9541 9.61424 15.8905 9.6667 15.8254 9.72195C15.7296 9.80377 15.6331 9.8905 15.5366 9.97722L15.4324 10.0709C15.3764 10.1206 15.3205 10.1709 15.2638 10.2234C15.161 10.3199 15.0561 10.4227 14.9526 10.5248L14.8316 10.643C14.7862 10.6871 14.74 10.7311 14.6945 10.778C14.5547 10.9207 14.4148 11.0724 14.2742 11.2256L14.205 11.299C14.177 11.3284 14.1497 11.3578 14.1218 11.3886C14.0301 11.4907 13.9392 11.5963 13.8476 11.704ZM20.4112 13.1664L20.491 13.1629L20.7413 13.1545C20.8113 13.1531 20.8812 13.1517 20.9505 13.1475C21.1183 13.137 21.2827 13.1195 21.4477 13.1027L21.6862 13.0796C21.7442 13.0747 21.8023 13.0699 21.8589 13.0629C22.0981 13.0328 22.3317 12.9929 22.5646 12.9517L22.7388 12.9244C23.0248 12.8698 23.3094 12.8055 23.5843 12.7335C23.6277 12.7223 23.6696 12.709 23.7123 12.6957L23.8801 12.646C24.0529 12.5971 24.2256 12.5488 24.3921 12.4922C24.4543 12.4712 24.5145 12.4474 24.5739 12.4236L24.8124 12.3334C24.9285 12.2907 25.0446 12.2488 25.1558 12.2012C25.2243 12.1726 25.2894 12.1404 25.3551 12.1089L25.5852 12.0005C25.6824 11.9564 25.7789 11.9117 25.8719 11.8634C25.9384 11.8285 26.002 11.7907 26.0657 11.7529L26.151 11.7026C26.0601 11.5956 25.9692 11.4907 25.8775 11.3886C25.8489 11.3564 25.8195 11.3256 25.7901 11.2948L25.7167 11.2165C25.5789 11.0668 25.4418 10.9179 25.3048 10.778C25.2551 10.7269 25.2054 10.6794 25.1558 10.6311L25.0236 10.5024C24.9271 10.4073 24.8306 10.3122 24.7348 10.2234C24.6795 10.1716 24.625 10.1227 24.5697 10.0744L24.4592 9.97512C24.3634 9.8891 24.2683 9.80307 24.1739 9.72265C24.1039 9.6625 24.034 9.60585 23.9648 9.5485L23.927 9.51773C23.8256 9.4345 23.7249 9.35128 23.6256 9.27295C23.5493 9.2128 23.4745 9.15615 23.3997 9.0995C23.2864 9.01418 23.1898 8.94145 23.0947 8.87291C23.0164 8.81626 22.9388 8.76171 22.8618 8.70785C22.7688 8.64281 22.6772 8.57987 22.5863 8.51972C22.5115 8.47007 22.438 8.42111 22.3653 8.37495C22.2772 8.3183 22.1904 8.26375 22.1051 8.2113C22.0366 8.16864 21.9673 8.12667 21.9009 8.08751C21.817 8.03785 21.7358 7.991 21.6561 7.94554L21.4729 7.84203C21.3939 7.79867 21.3183 7.7588 21.2442 7.71964L21.0854 7.63641C21.0099 7.59795 20.94 7.56368 20.87 7.53011L20.7434 7.46856C20.6679 7.4329 20.6008 7.40282 20.5343 7.37345L20.4504 7.33568L20.4112 7.3189V13.1664ZM11.8677 10.0472L11.8992 10.0919C11.9215 10.1248 11.9439 10.1577 11.9698 10.1891C12.06 10.3003 12.1642 10.4059 12.267 10.5122C12.2894 10.5353 12.3097 10.5584 12.33 10.5815C12.3454 10.5997 12.3614 10.6171 12.3789 10.6346C12.5265 10.778 12.6894 10.92 12.8636 11.0564C12.8944 11.0815 12.9286 11.1046 12.9622 11.1277L13.0923 11.2207L13.1447 11.2592C13.2559 11.1277 13.3671 10.9997 13.479 10.8745L13.6378 10.7011C13.7763 10.5493 13.914 10.4017 14.0525 10.2598C14.1176 10.1933 14.1819 10.1276 14.2469 10.0632C14.3777 9.93246 14.5085 9.80587 14.6386 9.68348L14.819 9.51423C14.9806 9.36597 15.1408 9.22469 15.2995 9.08901L15.3736 9.02397C15.5569 8.86871 15.738 8.72324 15.9164 8.58407L16.0744 8.46377C16.2003 8.36796 16.3255 8.27494 16.4479 8.18612L16.6283 8.05814C16.7444 7.97701 16.8577 7.89938 16.9696 7.82524L16.9731 7.82315C16.8025 7.8756 16.6598 7.91966 16.5143 7.96722L16.4626 7.984C16.3024 8.03646 16.1388 8.09241 15.973 8.15045L15.8716 8.18612C15.7023 8.24627 15.5317 8.30921 15.3569 8.37565L15.3107 8.29592L15.2694 8.31201L15.3023 8.39733C15.1359 8.46167 14.9666 8.52881 14.7953 8.59945L14.7141 8.63232C14.5337 8.70716 14.3512 8.78548 14.1672 8.86731L14.0644 8.91347C13.6763 9.08831 13.2853 9.27714 12.9042 9.47437L12.8013 9.52822C12.6097 9.62893 12.4167 9.73314 12.223 9.84224L12.1306 9.89469C12.0439 9.94435 11.9558 9.9947 11.8684 10.0458L11.8677 10.0472ZM23.0318 7.82804C23.1423 7.90148 23.2535 7.97771 23.3682 8.05744L23.5521 8.18822C23.6731 8.27564 23.7969 8.36726 23.9214 8.46237L24.0822 8.58476C24.2606 8.72394 24.441 8.86941 24.6236 9.02327L24.7026 9.09251C24.8593 9.22609 25.018 9.36666 25.1782 9.51353L25.3593 9.68418C25.4894 9.80657 25.6195 9.93246 25.7503 10.0632C25.8153 10.1276 25.8803 10.1933 25.9454 10.2605C26.0832 10.4024 26.2216 10.55 26.3594 10.7018L26.5182 10.8752C26.6294 11.0004 26.7413 11.1284 26.8525 11.2599L26.9063 11.2207L27.0371 11.127C27.0707 11.1039 27.1035 11.0815 27.1343 11.0571C27.3078 10.9207 27.4714 10.778 27.6197 10.6339C27.6323 10.622 27.6428 10.6095 27.654 10.5969C27.6714 10.5766 27.6896 10.5563 27.7085 10.5367C27.8218 10.422 27.9316 10.3073 28.0288 10.1884C28.0519 10.1598 28.0722 10.1297 28.0932 10.1003L28.1302 10.0472C28.0407 9.9947 27.954 9.94505 27.8673 9.89539L27.7749 9.84294C27.5819 9.73454 27.3889 9.62963 27.1973 9.52892L27.1196 9.48836C26.7119 9.27714 26.3216 9.08831 25.9342 8.91417L25.8307 8.86801C25.6467 8.78618 25.4649 8.70785 25.2852 8.63302L25.2341 8.61204C25.032 8.52951 24.8641 8.46237 24.6984 8.39873L24.7166 8.30781L24.6739 8.29103L24.641 8.37635C24.4669 8.30991 24.2963 8.24767 24.1284 8.18752L24.0235 8.15045C23.8584 8.09241 23.6955 8.03715 23.5367 7.9847L23.5563 7.89518L23.5151 7.88189L23.4815 7.96652C23.3325 7.91826 23.1877 7.8728 23.0458 7.82944L23.0234 7.82245L23.0318 7.82804ZM11.2823 6.93914L11.2732 6.96292C11.262 6.99299 11.2508 7.02306 11.2417 7.05313C11.2319 7.08391 11.225 7.11608 11.2173 7.14755L11.1879 7.26505C11.1795 7.29442 11.1718 7.32449 11.1655 7.35387C11.1564 7.40002 11.1501 7.44548 11.1445 7.49024L11.1284 7.59655C11.1249 7.61683 11.1214 7.63711 11.1193 7.65669C11.1096 7.75671 11.104 7.85811 11.104 7.95952C11.104 8.10359 11.1145 8.25116 11.1361 8.39803C11.1396 8.42181 11.1452 8.44419 11.1508 8.46727C11.1578 8.49524 11.1641 8.52392 11.1697 8.55189L11.1795 8.60365C11.1942 8.67988 11.2082 8.75611 11.2305 8.83164C11.2403 8.86521 11.2536 8.89808 11.2669 8.93165L11.3243 9.08831C11.3445 9.14636 11.3641 9.20441 11.39 9.26176C11.4026 9.29043 11.4173 9.31911 11.4327 9.34708C11.5446 9.28134 11.6544 9.2177 11.7649 9.15545L11.853 9.1051C12.0614 8.9883 12.2698 8.8764 12.4768 8.7687L12.6041 8.70296C12.8069 8.59875 13.0091 8.49804 13.2091 8.40223L13.3238 8.34838C13.5287 8.25116 13.7329 8.15815 13.9336 8.07002C14.163 7.97001 14.3575 7.88889 14.5498 7.81056L14.6603 7.7651C14.8477 7.69026 15.0316 7.61893 15.2128 7.55109L15.3373 7.50493C15.5177 7.43849 15.6947 7.37555 15.8681 7.3161L15.9618 7.28463C16.129 7.22798 16.2933 7.17413 16.4535 7.12377L16.5066 7.10629C16.6766 7.05314 16.8402 7.00418 16.9997 6.95732L17.0962 6.92935C17.2494 6.88529 17.3983 6.84402 17.5424 6.80556L17.6284 6.78318C17.6991 6.76429 17.769 6.74681 17.8382 6.72932C17.7935 6.72373 17.7487 6.71813 17.7033 6.71254L17.5893 6.69855C17.4557 6.68317 17.3172 6.66778 17.1745 6.65379L17.057 6.6426C16.9074 6.62861 16.7528 6.61603 16.5933 6.60484L16.5129 6.59994C16.364 6.59015 16.2115 6.58176 16.0555 6.57476L15.9478 6.56987C15.7786 6.56357 15.6051 6.55938 15.4289 6.55728L15.2939 6.55588C15.1156 6.55448 14.9344 6.55588 14.7498 6.55938L14.6239 6.56217C14.433 6.56707 14.2386 6.57406 14.0406 6.58455L14.0211 6.49434L13.9791 6.49643L13.984 6.58735C13.7896 6.59854 13.5916 6.61323 13.3923 6.63071L13.2706 6.6412C13.0678 6.66009 12.8629 6.68317 12.6559 6.70974L12.5181 6.72793C12.3069 6.7566 12.0943 6.78877 11.8796 6.82514L11.7761 6.84402C11.6117 6.8734 11.4474 6.90487 11.2823 6.93914ZM22.1583 6.72793C22.2254 6.74541 22.2932 6.76289 22.3625 6.78108L22.4597 6.80696C22.601 6.84472 22.7471 6.88459 22.8982 6.92865L23.0024 6.95872C23.1605 7.00488 23.3213 7.05314 23.4878 7.10489L23.5339 7.11958C23.7067 7.17413 23.8682 7.22798 24.0333 7.28323L24.1305 7.3161C24.3026 7.37485 24.4788 7.43849 24.6585 7.50423L24.7858 7.55109C24.967 7.61893 25.1509 7.68957 25.3376 7.7651L25.4481 7.80986C25.6405 7.88819 25.8349 7.96931 26.0321 8.05534L26.0678 8.07072C26.2657 8.15745 26.4692 8.25116 26.6748 8.34838L26.7895 8.40223C26.9902 8.49804 27.1917 8.59805 27.3952 8.70296L27.4959 8.75471C27.7295 8.8764 27.9379 8.9883 28.1477 9.1058L28.233 9.15475C28.3442 9.2177 28.4554 9.28204 28.5666 9.34708C28.582 9.31841 28.5967 9.29043 28.61 9.26176C28.6359 9.20441 28.6555 9.14636 28.6757 9.08761L28.7324 8.93235C28.7457 8.89878 28.759 8.86591 28.7688 8.83234C28.7904 8.75751 28.8051 8.68128 28.8198 8.60505L28.8303 8.55259C28.8359 8.52462 28.8422 8.49594 28.8492 8.46727C28.8548 8.44419 28.8611 8.42181 28.8639 8.39873C28.8848 8.25256 28.896 8.10499 28.896 7.96092C28.896 7.85951 28.8904 7.7581 28.8807 7.65739C28.8786 7.63641 28.8744 7.61473 28.8709 7.59305L28.8548 7.48465C28.8492 7.44129 28.8436 7.39793 28.8345 7.35457C28.8282 7.32449 28.8205 7.29442 28.8121 7.26435L28.7827 7.14965C28.775 7.11748 28.7681 7.08531 28.7576 7.05383C28.7478 7.02236 28.7359 6.99089 28.724 6.95942L28.717 6.93984C28.5408 6.90347 28.3785 6.8727 28.2169 6.84402L28.1253 6.82724C27.905 6.78947 27.6868 6.7566 27.4707 6.72723L27.356 6.71184C27.1406 6.68387 26.9266 6.66009 26.7154 6.6405L26.6678 6.63631C26.2062 6.59505 25.7712 6.57057 25.339 6.56008L25.3243 6.46846L25.274 6.46706L25.2719 6.55798C25.0691 6.55378 24.8704 6.55308 24.6767 6.55448H24.6026C24.4054 6.55798 24.213 6.56287 24.0263 6.56987C23.636 6.58595 23.2654 6.61113 22.8982 6.6454L22.8786 6.55588L22.8458 6.55868L22.8541 6.6496C22.6891 6.66498 22.5296 6.68317 22.3772 6.70065L22.3562 6.61113L22.3254 6.61463L22.3366 6.70485C22.2765 6.71184 22.2177 6.71953 22.1597 6.72723L22.1583 6.72793ZM4.77043 8.84773L4.74945 8.875L4.76414 8.86451L4.77043 8.84773ZM35.2324 8.86451L35.2471 8.875L35.2261 8.84773L35.2324 8.86451ZM11.4788 3.31918C10.2018 3.95351 8.99325 4.73331 7.88544 5.6376C7.76375 5.7558 7.62528 5.89567 7.49169 6.03764C7.34972 6.19081 7.22943 6.32509 7.11473 6.46146L7.02521 6.57266C6.93779 6.67897 6.85107 6.78597 6.76924 6.89508L6.65944 7.04894C6.57691 7.16294 6.51467 7.24896 6.45592 7.33708C6.43074 7.37485 6.40697 7.41331 6.38389 7.45108L6.31255 7.56508C6.26569 7.63921 6.21883 7.71264 6.17547 7.78818C6.1482 7.83434 6.12372 7.88119 6.09854 7.92735L6.02721 8.05883L6.06847 8.03436C6.1454 7.9889 6.22303 7.94274 6.30136 7.89938C6.39857 7.84553 6.49718 7.79447 6.5958 7.74412L6.79512 7.63991C6.86855 7.60144 6.94129 7.56298 7.01612 7.52591C7.11823 7.47556 7.22244 7.428 7.32664 7.38114L7.53086 7.28743C7.60359 7.25316 7.67633 7.21959 7.75046 7.18742C7.86166 7.13986 7.97356 7.0951 8.08546 7.05034L8.29318 6.96711C8.36312 6.93844 8.43305 6.90976 8.50439 6.88319C8.63657 6.83353 8.76945 6.78877 8.90303 6.74331L9.10026 6.67477C9.159 6.65379 9.21775 6.63281 9.2772 6.61393C9.50799 6.53979 9.74228 6.47126 9.97797 6.40621C10.0507 6.38663 10.1227 6.36775 10.1955 6.34887L10.2745 6.32858C10.4179 6.29152 10.5529 6.25725 10.6857 6.22508C10.7011 6.1957 10.7165 6.16563 10.7319 6.13556L10.7767 6.04674C10.7934 6.01177 10.8095 5.9768 10.8291 5.94253C10.9151 5.79077 11.0116 5.6383 11.1179 5.49073C11.1228 5.48374 11.1375 5.46486 11.1431 5.45856C11.2368 5.32848 11.3452 5.1921 11.462 5.05852C11.4865 5.03054 11.5138 5.00327 11.5404 4.97529L11.5802 4.93403C11.6795 4.82703 11.7649 4.73541 11.8579 4.64659C11.8929 4.61302 11.9306 4.58085 11.9677 4.54868L12.0621 4.46545C12.1397 4.39551 12.2181 4.32558 12.302 4.25774C12.3461 4.22207 12.3922 4.1885 12.4391 4.15423L12.5482 4.0731C12.6286 4.01226 12.7083 3.95141 12.793 3.89336C12.844 3.85839 12.8979 3.82482 12.951 3.79125L13.0727 3.71362L13.1091 3.69054C13.0482 3.67376 12.9874 3.65697 12.9272 3.64019L12.7636 3.59473C12.7167 3.58144 12.6706 3.56815 12.6244 3.55626C12.46 3.5143 12.2985 3.47863 12.1362 3.44367L11.9845 3.4087C11.8138 3.37373 11.646 3.34296 11.4795 3.31708L11.4788 3.31918ZM29.3122 6.22578C29.4597 6.26144 29.6066 6.29921 29.7528 6.33698L29.9668 6.39153C30.2207 6.46077 30.4731 6.5349 30.7221 6.61533C30.7746 6.63281 30.8256 6.6503 30.8774 6.66848L31.0459 6.72653C31.1963 6.77758 31.3466 6.82864 31.4949 6.88389C31.5572 6.90697 31.618 6.93214 31.6789 6.95732L31.8782 7.03775C32.0027 7.0867 32.1271 7.13636 32.2495 7.18881C32.316 7.21749 32.3824 7.24826 32.4482 7.27903L32.637 7.36576C32.7538 7.41891 32.8699 7.47136 32.9846 7.52801C33.0531 7.56228 33.1217 7.59795 33.1895 7.63362L33.3741 7.72943C33.4832 7.78538 33.5923 7.84203 33.6993 7.90148C33.7707 7.94064 33.8406 7.9826 33.9105 8.02387L33.97 8.05883L33.9546 8.03086L33.8994 7.92875C33.8742 7.88189 33.849 7.83504 33.8217 7.78818C33.7812 7.71824 33.7371 7.6497 33.6937 7.58046L33.6182 7.46017C33.5923 7.41821 33.5665 7.37625 33.5392 7.33568C33.493 7.26644 33.4441 7.19791 33.3944 7.12937L33.3049 7.00348C33.279 6.96641 33.2531 6.92935 33.2252 6.89298C33.1643 6.81255 33.1007 6.73422 33.0363 6.65519L32.9538 6.55238C32.9293 6.52091 32.9042 6.48944 32.8783 6.45867C32.7958 6.36145 32.709 6.26634 32.6223 6.17053L32.4999 6.03345C32.3684 5.89357 32.2314 5.7551 32.0894 5.61872C31.0033 4.73401 29.7954 3.95421 28.5184 3.31988C28.3526 3.34645 28.1848 3.37722 28.0148 3.41149L27.8379 3.45206C27.684 3.48563 27.5309 3.5185 27.3756 3.55836C27.3231 3.57165 27.27 3.58704 27.2168 3.60242L27.0413 3.65138C26.9909 3.66537 26.9406 3.67866 26.8895 3.69334L26.9154 3.71013L27.0399 3.78916C27.0966 3.82482 27.1525 3.85979 27.2057 3.89686C27.2854 3.95141 27.3609 4.00806 27.4364 4.06541L27.5553 4.15423C27.6036 4.1892 27.6519 4.22487 27.6973 4.26193C27.7735 4.32348 27.8456 4.38782 27.9176 4.45216L28.026 4.54728C28.0652 4.58085 28.105 4.61512 28.1414 4.65009C28.2302 4.73471 28.3107 4.82143 28.3918 4.90815L28.4554 4.9746C28.4834 5.00327 28.5121 5.03194 28.5373 5.06132C28.6527 5.1928 28.7583 5.32708 28.8576 5.46346L28.8814 5.49353C28.9863 5.6397 29.0835 5.79216 29.1702 5.94533C29.1898 5.9803 29.2066 6.01526 29.2233 6.05093L29.2688 6.14115C29.2835 6.16983 29.2975 6.1978 29.3122 6.22578ZM14.1588 4.03743C14.0469 4.09548 13.9371 4.15563 13.8301 4.21647L13.791 4.23745C13.6077 4.34306 13.4455 4.44447 13.2909 4.55008C13.2636 4.56896 13.2371 4.58854 13.2105 4.60882L13.0888 4.69764C13.007 4.75639 12.9244 4.81514 12.8482 4.87598C12.8167 4.90116 12.7874 4.92704 12.758 4.95291L12.6349 5.05852C12.5726 5.11097 12.5104 5.16413 12.4524 5.21798C12.4195 5.24875 12.3901 5.28022 12.36 5.31169L12.2586 5.4159C12.2062 5.46835 12.1537 5.52081 12.1055 5.57466C12.0754 5.60823 12.0488 5.6425 12.0215 5.67607L11.9341 5.78377C11.8908 5.83622 11.8474 5.88938 11.8075 5.94253C11.7921 5.96421 11.7775 5.98589 11.7628 6.00827C11.8523 5.99288 11.9418 5.9782 12.0306 5.96421L12.1132 5.95162C12.4607 5.89917 12.8062 5.85581 13.1405 5.82294C13.4846 5.78937 13.8112 5.76769 14.1316 5.7516L14.2155 5.7481C14.5246 5.73412 14.8274 5.72712 15.1219 5.72712H15.1589C15.4415 5.72712 15.7107 5.73272 15.9709 5.74251L18.0383 5.92085L17.5935 5.65928C17.492 5.60123 17.3864 5.54179 17.2787 5.48234L17.1794 5.42709C17.0354 5.34806 16.8878 5.26833 16.7367 5.1893L16.6339 5.13685C16.5143 5.0753 16.394 5.01376 16.2709 4.95222L16.1059 4.87179C15.9989 4.81933 15.8912 4.76758 15.7814 4.71653L15.6149 4.6396C15.4855 4.58085 15.3736 4.53119 15.261 4.48154L15.0771 4.40111C14.9533 4.34866 14.8267 4.2962 14.6994 4.24585L14.5456 4.1836C14.4183 4.13325 14.2889 4.08499 14.1588 4.03743ZM24.8718 5.72922C24.9998 5.72922 25.1299 5.73062 25.2621 5.73272L25.3397 5.73481C25.5467 5.73971 25.76 5.7467 25.9769 5.75859C26.2132 5.77118 26.4342 5.78797 26.658 5.80755L26.7622 5.81664C26.9791 5.83692 27.1994 5.8607 27.4225 5.88868L27.5337 5.90336C27.7631 5.93344 27.9945 5.96771 28.2288 6.00757H28.2344C28.2197 5.98659 28.2051 5.96421 28.1897 5.94253C28.154 5.89357 28.1141 5.84532 28.075 5.79776L27.9806 5.68096C27.9519 5.64529 27.9239 5.60963 27.8924 5.57396C27.8477 5.5236 27.7994 5.47535 27.7505 5.42639L27.6414 5.31519C27.6099 5.28232 27.5791 5.24945 27.5448 5.21728C27.4882 5.16413 27.4274 5.11307 27.3672 5.06202L27.2441 4.95641C27.2133 4.92914 27.1826 4.90186 27.1497 4.87598C27.0644 4.80814 26.9735 4.7431 26.8825 4.67876L26.7818 4.60533C26.7574 4.58714 26.7336 4.56896 26.7084 4.55147C26.5517 4.44517 26.3895 4.34306 26.2209 4.24515C26.0915 4.17101 25.9657 4.10248 25.8391 4.03673C25.709 4.08429 25.5803 4.13325 25.453 4.1836L25.2971 4.24655C25.1712 4.2969 25.046 4.34796 24.9229 4.40111L24.732 4.48363C24.6215 4.53189 24.5117 4.58085 24.4033 4.6305L24.2144 4.71793C24.106 4.76898 23.9997 4.81933 23.8948 4.87109L23.7235 4.95501C23.6039 5.01446 23.4871 5.07461 23.3717 5.13405L23.2584 5.1921C23.1087 5.27043 22.9626 5.34876 22.8206 5.42709L22.7066 5.49143C22.6045 5.54878 22.5024 5.60543 22.4044 5.66138L21.9596 5.92225C22.0471 5.91036 22.1317 5.89987 22.2177 5.88938L22.2967 5.87959C22.4443 5.8621 22.5989 5.84532 22.7583 5.82993L22.8031 5.82573C23.0066 5.80685 23.1787 5.79216 23.357 5.78027C23.5563 5.76699 23.7389 5.75719 23.9249 5.7488L23.9927 5.74601C24.1781 5.73901 24.369 5.73342 24.5627 5.73132L24.6634 5.72992C24.7327 5.72922 24.8012 5.72922 24.8718 5.72922ZM22.1688 2.90165C22.1513 2.93312 22.1331 2.96459 22.1156 2.99607L22.066 3.08629C22.0219 3.16601 21.9785 3.24504 21.9359 3.32477L21.2197 4.79835L20.8616 5.63271L21.1652 5.44108C21.2645 5.37953 21.3687 5.31589 21.4757 5.25155L21.5274 5.22008C21.654 5.14454 21.7869 5.06621 21.924 4.98718L22.0422 4.92004C22.1436 4.862 22.2457 4.80465 22.352 4.7459L22.5149 4.65708C22.6122 4.60463 22.7101 4.55147 22.8108 4.49832L22.9933 4.40321C23.0947 4.35075 23.1954 4.2997 23.2989 4.24795L23.4955 4.15003C23.6018 4.09828 23.7102 4.04653 23.82 3.99477L24.0144 3.90315C24.1396 3.84581 24.2676 3.78846 24.397 3.73251L24.5508 3.66467C24.625 3.6332 24.6991 3.60172 24.7739 3.57025C24.618 3.5115 24.4557 3.46045 24.2935 3.4087L24.0669 3.33456C24.0053 3.31358 23.9438 3.2919 23.8794 3.27372C23.5948 3.19189 23.3017 3.12475 23.0779 3.07579L22.987 3.05341C22.9632 3.04712 22.9402 3.04083 22.9157 3.03593C22.6751 2.98628 22.4247 2.94221 22.1674 2.90375L22.1688 2.90165ZM15.2219 3.56885C15.296 3.59963 15.3701 3.6311 15.4436 3.66257L15.6002 3.73181C15.7275 3.78776 15.8562 3.84441 15.9821 3.90245L16.1765 3.99337C16.2863 4.04513 16.3947 4.09688 16.501 4.14863L16.6976 4.24655C16.8004 4.2983 16.9018 4.34936 17.0004 4.40111L17.1843 4.49692C17.285 4.55008 17.3829 4.60323 17.4809 4.65568L17.6438 4.7445C17.7494 4.80325 17.8515 4.8606 17.9522 4.91795L18.0725 4.98579C18.2096 5.06481 18.3425 5.14314 18.4691 5.21938L18.5131 5.24595C18.6236 5.31239 18.7306 5.37813 18.832 5.44108L19.1349 5.63201L18.2348 3.65977L18.0613 3.32617C18.0173 3.24295 17.9725 3.16112 17.9271 3.07929L17.8816 2.99607C17.8641 2.96459 17.8459 2.93312 17.8277 2.90095C17.5704 2.93942 17.32 2.98348 17.0794 3.03313C17.0563 3.03803 17.034 3.04362 17.0123 3.04992C16.9822 3.05761 16.9521 3.0653 16.9214 3.0723C16.5892 3.14503 16.3409 3.20658 16.1157 3.27162C16.0527 3.2898 15.9926 3.31078 15.9324 3.33107L15.7135 3.4031C15.5478 3.45555 15.3813 3.50941 15.2219 3.56885ZM18.7139 2.80024C18.739 2.8471 18.7628 2.89116 18.7866 2.93522L19.1985 3.75069C19.2517 3.86119 19.3034 3.97099 19.3538 4.0787L19.3713 4.11646C19.4167 4.21508 19.4608 4.31159 19.5041 4.4081L19.5874 4.59553V2.74779C19.4034 2.75268 19.2237 2.76038 19.0503 2.77157L18.9104 2.78486C18.8446 2.78975 18.7789 2.79465 18.7139 2.80024ZM20.4105 2.74779V4.59484L20.4945 4.4053C20.5364 4.31229 20.5798 4.21647 20.6245 4.11926L20.6434 4.0787C20.6938 3.97029 20.7455 3.86119 20.7987 3.75139L21.2106 2.93592C21.2351 2.89046 21.2589 2.8457 21.2834 2.80094C21.2197 2.79605 21.1554 2.79045 21.0917 2.78625H21.0903L20.9463 2.77227C20.7735 2.76108 20.5945 2.75268 20.4105 2.74779ZM12.7531 2.74359C12.795 2.75338 12.837 2.76317 12.8797 2.77436C13.044 2.81703 13.2105 2.86528 13.3776 2.91424L13.5651 2.96809C13.7448 3.02334 13.9252 3.08209 14.1064 3.14433C14.3519 3.02894 14.6092 2.91914 14.8736 2.81773L14.9163 2.80304C15.2268 2.68554 15.5429 2.57994 15.8534 2.48972C15.924 2.46944 15.9961 2.45195 16.0688 2.43517L16.2849 2.38062C16.4828 2.32816 16.6815 2.27641 16.8857 2.23375C16.9752 2.21487 17.0661 2.20018 17.157 2.18619L17.3655 2.15052L17.2284 1.9484C17.1563 1.8463 17.0857 1.75048 17.0158 1.66026L16.9591 1.59102L16.9416 1.56934C15.5023 1.79944 14.0994 2.19388 12.7531 2.74359ZM22.6317 2.14982L22.8444 2.18619C22.9339 2.20018 23.0234 2.21487 23.1108 2.23305C23.322 2.27711 23.5255 2.33096 23.7298 2.38481L23.9347 2.43657C24.0046 2.45335 24.0753 2.47014 24.1431 2.48972C24.4648 2.58344 24.7858 2.69114 25.0977 2.80933C25.3838 2.91774 25.6446 3.02824 25.8908 3.14433C26.072 3.08209 26.2524 3.02334 26.4314 2.96809C26.4713 2.9555 26.5112 2.94501 26.5517 2.93382L26.6252 2.91284C26.7895 2.86458 26.9546 2.81633 27.1168 2.77436C27.1595 2.76317 27.2022 2.75338 27.2448 2.74359C25.8992 2.19388 24.4956 1.80014 23.0563 1.57004L23.0304 1.60291L23.0017 1.63788C22.9136 1.74978 22.8423 1.8456 22.7709 1.9477L22.694 2.0617C22.6716 2.09527 22.6513 2.12395 22.6331 2.15122L22.6317 2.14982ZM20.4105 1.92393C20.5693 1.92882 20.7274 1.93651 20.8861 1.94561L21.0092 1.9498C21.2533 1.96519 21.4974 1.98687 21.7386 2.01415C21.7743 1.9568 21.81 1.90015 21.8456 1.8449L21.8673 1.81203C21.9394 1.70083 22.0114 1.59382 22.082 1.49311L22.1184 1.44346C21.7379 1.40079 21.361 1.37002 20.9917 1.35114H20.9805C20.7917 1.34135 20.6008 1.33435 20.4105 1.33016V1.92393ZM17.8788 1.44206L17.9159 1.49241C17.9844 1.58962 18.0529 1.69243 18.1215 1.79804L18.153 1.8456C18.1886 1.90085 18.2236 1.9568 18.2593 2.01345C18.5005 1.98687 18.7446 1.96519 18.988 1.9491L19.1104 1.94491C19.2692 1.93581 19.4279 1.92812 19.5874 1.92323V1.32876C19.3971 1.33295 19.2062 1.33995 19.0174 1.34904H19.0062C18.6362 1.36862 18.2586 1.40009 17.8788 1.44206Z" fill="#e98645"></path> </svg> 