<svg width="1637" height="977" viewBox="0 0 1637 977" fill="none" xmlns="http://www.w3.org/2000/svg">
<g clip-path="url(#clip0_325_89)">
<g style="mix-blend-mode:overlay">
<path d="M804.97 552.139C802.958 552.139 801.348 550.528 801.348 548.514C801.348 546.501 802.958 544.89 804.97 544.89C806.983 544.89 808.593 546.501 808.593 548.514C808.593 550.528 806.983 552.139 804.97 552.139ZM1040.2 542.69C1040.2 540.676 1038.59 539.065 1036.58 539.065C1034.56 539.065 1032.95 540.676 1032.95 542.69C1032.95 544.704 1034.56 546.315 1036.58 546.315C1038.59 546.315 1040.2 544.673 1040.2 542.69ZM573.457 333.84C573.457 331.826 571.847 330.215 569.835 330.215C567.822 330.215 566.212 331.857 566.212 333.84C566.212 335.823 567.822 337.465 569.835 337.465C571.847 337.465 573.457 335.823 573.457 333.84ZM645.199 685.796C645.199 684.804 644.394 683.968 643.372 683.968C642.351 683.968 641.546 684.773 641.546 685.796C641.546 686.818 642.351 687.624 643.372 687.624C644.394 687.624 645.199 686.818 645.199 685.796ZM533.824 728.21C533.824 727.219 533.019 726.382 531.997 726.382C530.976 726.382 530.17 727.188 530.17 728.21C530.17 729.233 530.976 730.038 531.997 730.038C533.019 730.038 533.824 729.233 533.824 728.21ZM670.001 798.106C670.156 797.114 669.475 796.185 668.484 796.03C667.493 795.875 666.564 796.557 666.409 797.548C666.254 798.54 666.936 799.469 667.926 799.624C668.917 799.779 669.846 799.097 670.001 798.106ZM704.897 281.883C705.856 281.604 706.414 280.582 706.135 279.621C705.857 278.661 704.835 278.103 703.875 278.382C702.915 278.661 702.358 279.683 702.636 280.644C702.915 281.604 703.937 282.162 704.897 281.883ZM744.715 257.283C745.675 257.005 746.233 255.982 745.954 255.022C745.675 254.061 744.654 253.504 743.694 253.782C742.734 254.061 742.177 255.084 742.455 256.044C742.734 257.005 743.756 257.562 744.715 257.283ZM752.952 738.465C753.912 738.186 754.469 737.164 754.19 736.204C753.912 735.243 752.89 734.686 751.93 734.964C750.97 735.243 750.413 736.266 750.691 737.226C750.97 738.187 751.992 738.744 752.952 738.465ZM794.164 613.825C795.124 613.546 795.681 612.523 795.403 611.563C795.124 610.602 794.102 610.045 793.142 610.324C792.182 610.602 791.625 611.625 791.904 612.585C792.182 613.546 793.204 614.103 794.164 613.825ZM730.256 732.486C731.215 732.207 731.773 731.185 731.494 730.224C731.216 729.264 730.194 728.706 729.234 728.985C728.274 729.264 727.717 730.286 727.995 731.247C728.274 732.207 729.296 732.765 730.256 732.486ZM720.069 697.631C721.029 697.352 721.586 696.33 721.307 695.369C721.029 694.409 720.007 693.851 719.047 694.13C718.087 694.409 717.53 695.431 717.808 696.392C718.087 697.352 719.109 697.91 720.069 697.631ZM383.28 803.899C383.28 802.908 382.475 802.071 381.454 802.071C380.432 802.071 379.627 802.877 379.627 803.899C379.627 804.922 380.432 805.727 381.454 805.727C382.475 805.727 383.28 804.922 383.28 803.899ZM348.168 759.688C348.168 758.697 347.363 757.86 346.341 757.86C345.319 757.86 344.514 758.666 344.514 759.688C344.514 760.71 345.319 761.516 346.341 761.516C347.363 761.516 348.168 760.71 348.168 759.688ZM407.989 849.288C407.989 848.297 407.184 847.46 406.162 847.46C405.14 847.46 404.335 848.266 404.335 849.288C404.335 850.311 405.14 851.116 406.162 851.116C407.184 851.116 407.989 850.311 407.989 849.288ZM334.854 824.007C334.854 823.015 334.049 822.179 333.027 822.179C332.005 822.179 331.2 822.984 331.2 824.007C331.2 825.029 332.005 825.835 333.027 825.835C334.049 825.835 334.854 825.029 334.854 824.007ZM256.176 783.885C256.176 782.894 255.371 782.057 254.349 782.057C253.327 782.057 252.522 782.863 252.522 783.885C252.522 784.907 253.327 785.713 254.349 785.713C255.371 785.713 256.176 784.907 256.176 783.885ZM376.499 880.487C376.685 879.496 376.035 878.566 375.044 878.38C374.053 878.194 373.124 878.845 372.939 879.836C372.753 880.828 373.403 881.757 374.394 881.943C375.385 882.129 376.314 881.478 376.499 880.487ZM343.895 903.755C343.895 902.763 343.09 901.927 342.068 901.927C341.046 901.927 340.241 902.732 340.241 903.755C340.241 904.777 341.046 905.582 342.068 905.582C343.09 905.582 343.895 904.777 343.895 903.755ZM361.142 851.085C361.142 850.094 360.337 849.257 359.315 849.257C358.293 849.257 357.488 850.063 357.488 851.085C357.488 852.108 358.293 852.913 359.315 852.913C360.337 852.913 361.142 852.108 361.142 851.085ZM327.546 859.698C327.546 858.707 326.741 857.87 325.72 857.87C324.698 857.87 323.893 858.676 323.893 859.698C323.893 860.721 324.698 861.526 325.72 861.526C326.741 861.526 327.546 860.721 327.546 859.698ZM1196.72 419.722C1196.29 420.621 1196.69 421.705 1197.59 422.139C1198.48 422.573 1199.57 422.17 1200 421.271C1200.43 420.373 1200.03 419.288 1199.13 418.855C1198.24 418.421 1197.15 418.824 1196.72 419.722ZM1227.34 615.529C1226.91 616.427 1227.31 617.511 1228.21 617.945C1229.11 618.379 1230.19 617.976 1230.62 617.078C1231.06 616.179 1230.65 615.095 1229.76 614.661C1228.86 614.227 1227.77 614.63 1227.34 615.529ZM1171.08 516.324C1170.65 517.223 1171.05 518.307 1171.95 518.741C1172.85 519.174 1173.93 518.772 1174.36 517.873C1174.8 516.975 1174.39 515.89 1173.5 515.457C1172.6 515.023 1171.51 515.426 1171.08 516.324ZM479.576 927.983C479.576 926.991 478.771 926.155 477.75 926.155C476.728 926.155 475.923 926.96 475.923 927.983C475.923 929.005 476.728 929.81 477.75 929.81C478.771 929.81 479.576 929.005 479.576 927.983ZM1159.75 503.157C1159.16 503.962 1159.35 505.109 1160.15 505.697C1160.96 506.286 1162.1 506.1 1162.69 505.295C1163.28 504.489 1163.09 503.343 1162.29 502.754C1161.48 502.165 1160.34 502.351 1159.75 503.157ZM516.144 936.1C517.042 936.534 518.126 936.162 518.559 935.232C518.993 934.334 518.59 933.249 517.692 932.816C516.794 932.382 515.711 932.785 515.277 933.683C514.844 934.582 515.246 935.666 516.144 936.1ZM1219.94 476.295C1219.51 477.194 1219.91 478.278 1220.81 478.712C1221.71 479.146 1222.79 478.774 1223.22 477.844C1223.66 476.915 1223.25 475.862 1222.36 475.428C1221.46 474.994 1220.37 475.397 1219.94 476.295ZM1171.36 393.635C1170.93 394.534 1171.33 395.618 1172.23 396.052C1173.12 396.486 1174.21 396.083 1174.64 395.184C1175.08 394.286 1174.67 393.202 1173.77 392.768C1172.88 392.334 1171.79 392.706 1171.36 393.635ZM213.57 825.804C213.57 824.812 212.765 823.976 211.743 823.976C210.722 823.976 209.917 824.781 209.917 825.804C209.917 826.826 210.722 827.632 211.743 827.632C212.765 827.632 213.57 826.826 213.57 825.804ZM435.175 403.147C436.166 403.147 437.002 402.372 437.033 401.381C437.033 400.389 436.259 399.553 435.268 399.522C434.277 399.522 433.441 400.296 433.41 401.288C433.41 402.279 434.184 403.116 435.175 403.147ZM374.673 444.229C375.663 444.229 376.499 443.454 376.53 442.463C376.53 441.472 375.756 440.635 374.765 440.604C373.775 440.573 372.939 441.379 372.908 442.37C372.877 443.361 373.682 444.198 374.673 444.229ZM348.787 502.041C349.778 502.227 350.707 501.577 350.893 500.585C351.078 499.594 350.428 498.664 349.437 498.478C348.447 498.293 347.518 498.943 347.332 499.935C347.146 500.926 347.796 501.856 348.787 502.041ZM317.855 472.082C318.846 472.082 319.682 471.307 319.713 470.316C319.713 469.324 318.939 468.488 317.948 468.457C316.957 468.457 316.121 469.231 316.09 470.223C316.09 471.214 316.864 472.051 317.855 472.082ZM369.966 490.888C370.957 490.888 371.793 490.113 371.824 489.122C371.824 488.13 371.05 487.294 370.059 487.263C369.068 487.232 368.232 488.038 368.201 489.029C368.201 490.02 368.975 490.857 369.966 490.888ZM362.318 457.056C363.309 457.056 364.145 456.281 364.176 455.29C364.176 454.298 363.402 453.462 362.411 453.431C361.42 453.431 360.584 454.205 360.553 455.197C360.522 456.188 361.327 457.025 362.318 457.056ZM334.73 427.901C335.721 427.901 336.557 427.127 336.588 426.135C336.588 425.144 335.814 424.308 334.823 424.277C333.832 424.277 332.996 425.051 332.965 426.042C332.934 427.034 333.739 427.87 334.73 427.901ZM466.293 536.834C467.284 536.834 468.12 536.06 468.151 535.068C468.182 534.077 467.377 533.24 466.386 533.209C465.395 533.209 464.559 533.984 464.528 534.975C464.528 535.967 465.302 536.803 466.293 536.834ZM452.391 553.967C453.381 553.967 454.217 553.193 454.248 552.201C454.248 551.21 453.474 550.373 452.483 550.342C451.493 550.342 450.657 551.117 450.626 552.108C450.595 553.1 451.4 553.936 452.391 553.967ZM444.216 535.719C445.207 535.719 446.043 534.944 446.074 533.953C446.074 532.961 445.3 532.125 444.309 532.094C443.318 532.094 442.482 532.869 442.451 533.86C442.451 534.851 443.225 535.688 444.216 535.719ZM459.853 480.168C460.844 480.354 461.772 479.703 461.958 478.712C462.144 477.721 461.494 476.791 460.503 476.605C459.512 476.419 458.583 477.07 458.397 478.061C458.212 479.053 458.862 479.982 459.853 480.168ZM11.2558 507.835C12.2466 507.835 13.0826 507.061 13.1136 506.069C13.1445 505.078 12.3395 504.241 11.3486 504.21C10.3578 504.179 9.52181 504.985 9.49085 505.976C9.49085 506.968 10.2649 507.804 11.2558 507.835ZM25.9324 460.433C26.9232 460.433 27.7592 459.658 27.7902 458.667C27.7902 457.675 27.0161 456.839 26.0253 456.808C25.0344 456.808 24.1984 457.582 24.1675 458.574C24.1365 459.565 24.9416 460.402 25.9324 460.433ZM13.0826 437.289C14.0734 437.289 14.9094 436.514 14.9404 435.523C14.9404 434.532 14.1663 433.695 13.1755 433.664C12.1847 433.633 11.3486 434.439 11.3177 435.43C11.2867 436.421 12.0918 437.258 13.0826 437.289ZM110.617 460.402C111.608 460.587 112.537 459.937 112.723 458.945C112.908 457.954 112.258 457.025 111.267 456.839C110.277 456.653 109.348 457.303 109.162 458.295C108.976 459.286 109.626 460.216 110.617 460.402ZM387.399 563.541C388.389 563.541 389.225 562.766 389.256 561.775C389.256 560.783 388.482 559.947 387.491 559.916C386.501 559.885 385.665 560.69 385.634 561.682C385.634 562.673 386.408 563.51 387.399 563.541ZM394.923 615.684C395.913 615.684 396.749 614.909 396.78 613.918C396.78 612.926 396.006 612.09 395.015 612.059C394.025 612.059 393.189 612.833 393.158 613.825C393.158 614.816 393.932 615.653 394.923 615.684ZM389.225 519.36C390.216 519.36 391.052 518.586 391.083 517.594C391.083 516.603 390.309 515.766 389.318 515.735C388.327 515.735 387.491 516.51 387.46 517.501C387.46 518.493 388.235 519.329 389.225 519.36ZM942.2 271.69C943.191 271.69 944.027 270.915 944.058 269.924C944.089 268.933 943.283 268.096 942.293 268.065C941.302 268.065 940.466 268.84 940.435 269.831C940.404 270.823 941.209 271.659 942.2 271.69ZM938.577 298.428C939.568 298.428 940.404 297.653 940.435 296.662C940.435 295.67 939.661 294.834 938.67 294.803C937.679 294.803 936.843 295.577 936.812 296.569C936.812 297.56 937.586 298.397 938.577 298.428ZM920.154 270.575C921.145 270.575 921.981 269.8 922.012 268.809C922.043 267.817 921.238 266.981 920.247 266.95C919.256 266.95 918.42 267.724 918.389 268.716C918.389 269.707 919.163 270.544 920.154 270.575ZM863.336 298.428C864.327 298.428 865.163 297.653 865.194 296.662C865.225 295.67 864.42 294.834 863.429 294.803C862.438 294.803 861.602 295.577 861.571 296.569C861.571 297.56 862.345 298.397 863.336 298.428ZM880.211 254.216C881.202 254.216 882.038 253.442 882.069 252.45C882.069 251.459 881.295 250.622 880.304 250.591C879.313 250.56 878.477 251.366 878.446 252.357C878.446 253.349 879.22 254.185 880.211 254.216ZM156.629 684.557C157.62 684.557 158.456 683.782 158.486 682.791C158.486 681.799 157.712 680.963 156.722 680.932C155.731 680.901 154.895 681.706 154.864 682.698C154.864 683.689 155.638 684.526 156.629 684.557ZM112.289 714.516C113.28 714.702 114.209 714.051 114.395 713.06C114.58 712.069 113.93 711.139 112.939 710.953C111.949 710.767 111.02 711.418 110.834 712.409C110.648 713.401 111.298 714.33 112.289 714.516ZM133.468 703.332C134.459 703.332 135.295 702.557 135.326 701.566C135.326 700.574 134.552 699.738 133.561 699.707C132.57 699.707 131.734 700.481 131.703 701.473C131.703 702.464 132.477 703.301 133.468 703.332ZM125.82 669.499C126.811 669.499 127.647 668.725 127.678 667.733C127.709 666.742 126.904 665.905 125.913 665.874C124.922 665.874 124.086 666.649 124.055 667.64C124.055 668.632 124.829 669.468 125.82 669.499ZM223.355 692.612C224.346 692.798 225.274 692.147 225.46 691.156C225.646 690.164 224.996 689.235 224.005 689.049C223.014 688.863 222.085 689.514 221.899 690.505C221.714 691.497 222.364 692.426 223.355 692.612ZM167.775 731.804C168.766 731.804 169.602 731.03 169.633 730.038C169.633 729.047 168.859 728.21 167.868 728.179C166.878 728.179 166.042 728.954 166.011 729.945C166.011 730.937 166.785 731.773 167.775 731.804ZM512.521 245.448C513.512 245.448 514.348 244.674 514.379 243.682C514.379 242.691 513.605 241.854 512.614 241.823C511.623 241.792 510.787 242.598 510.756 243.589C510.756 244.581 511.531 245.417 512.521 245.448ZM508.899 272.186C509.889 272.186 510.725 271.411 510.756 270.42C510.756 269.428 509.982 268.592 508.992 268.561C508.001 268.561 507.165 269.335 507.134 270.327C507.134 271.318 507.908 272.155 508.899 272.186ZM39.4014 302.455C40.3923 302.455 41.2283 301.681 41.2592 300.689C41.2592 299.698 40.4852 298.861 39.4943 298.83C38.5035 298.83 37.6675 299.605 37.6365 300.596C37.6056 301.588 38.4106 302.424 39.4014 302.455ZM1.96675 234.821C2.95758 235.007 3.88648 234.357 4.07226 233.365C4.25804 232.374 3.60781 231.444 2.61698 231.258C1.62616 231.073 0.697256 231.723 0.511476 232.715C0.325696 233.706 0.975926 234.635 1.96675 234.821ZM450.564 227.974C451.555 227.974 452.391 227.2 452.422 226.208C452.422 225.217 451.647 224.38 450.657 224.349C449.666 224.349 448.83 225.124 448.799 226.115C448.799 227.107 449.573 227.943 450.564 227.974ZM939.599 890.897C940.435 891.486 941.55 891.269 942.138 890.463C942.726 889.627 942.509 888.511 941.704 887.923C940.868 887.334 939.754 887.551 939.165 888.356C938.577 889.193 938.794 890.308 939.599 890.897ZM938.825 757.829C938.825 756.838 938.02 756.001 936.998 756.001C935.976 756.001 935.171 756.807 935.171 757.829C935.171 758.852 935.976 759.657 936.998 759.657C938.02 759.657 938.825 758.852 938.825 757.829ZM888.231 885.134C889.067 885.723 890.181 885.506 890.77 884.701C891.358 883.864 891.141 882.749 890.336 882.16C889.5 881.571 888.385 881.788 887.797 882.594C887.209 883.43 887.426 884.546 888.231 885.134ZM950.839 839.653C951.675 840.241 952.789 840.025 953.378 839.219C953.966 838.383 953.749 837.267 952.944 836.678C952.108 836.09 950.993 836.307 950.405 837.112C949.817 837.949 950.034 839.064 950.839 839.653ZM880.676 841.45C881.388 842.162 882.533 842.193 883.246 841.45C883.958 840.737 883.989 839.591 883.246 838.878C882.533 838.166 881.388 838.135 880.676 838.878C879.963 839.591 879.932 840.737 880.676 841.45ZM896.188 916.612C896.188 915.621 895.383 914.784 894.361 914.784C893.34 914.784 892.535 915.59 892.535 916.612C892.535 917.634 893.34 918.44 894.361 918.44C895.383 918.44 896.188 917.634 896.188 916.612ZM899.873 859.357C900.709 859.946 901.824 859.729 902.412 858.924C903 858.087 902.783 856.972 901.978 856.383C901.142 855.794 900.028 856.011 899.439 856.817C898.851 857.653 899.068 858.769 899.873 859.357ZM947.278 771.864C948.114 772.453 949.228 772.236 949.817 771.43C950.405 770.594 950.188 769.478 949.383 768.89C948.547 768.301 947.433 768.518 946.844 769.323C946.256 770.16 946.473 771.275 947.278 771.864ZM1006.54 537.268C1006.54 536.277 1005.74 535.44 1004.71 535.44C1003.69 535.44 1002.89 536.246 1002.89 537.268C1002.89 538.29 1003.69 539.096 1004.71 539.096C1005.74 539.096 1006.54 538.29 1006.54 537.268ZM1056.95 604.406C1057.79 604.995 1058.9 604.778 1059.49 603.972C1060.08 603.136 1059.86 602.02 1059.06 601.432C1058.22 600.843 1057.1 601.06 1056.52 601.866C1055.93 602.702 1056.14 603.817 1056.95 604.406ZM986.787 606.203C987.499 606.916 988.645 606.947 989.357 606.203C990.069 605.49 990.1 604.344 989.357 603.632C988.645 602.919 987.499 602.888 986.787 603.632C986.075 604.344 986.044 605.49 986.787 606.203ZM1005.21 596.908C1006.05 597.497 1007.16 597.28 1007.75 596.475C1008.34 595.638 1008.12 594.523 1007.32 593.934C1006.48 593.345 1005.36 593.562 1004.78 594.368C1004.19 595.204 1004.41 596.32 1005.21 596.908ZM937.741 639.416C938.577 640.004 939.692 639.788 940.28 638.982C940.868 638.145 940.652 637.03 939.847 636.442C939.011 635.853 937.896 636.07 937.308 636.875C936.719 637.712 936.936 638.827 937.741 639.416ZM1159.41 533.457C1159.19 534.449 1159.78 535.409 1160.77 535.657C1161.76 535.874 1162.72 535.285 1162.97 534.294C1163.19 533.302 1162.6 532.342 1161.61 532.094C1160.62 531.877 1159.66 532.466 1159.41 533.457ZM953.068 456.126C952.696 457.056 953.161 458.109 954.09 458.481C955.019 458.852 956.071 458.388 956.443 457.458C956.814 456.529 956.35 455.475 955.421 455.104C954.492 454.732 953.439 455.166 953.068 456.126ZM994.404 478.464C994.187 479.456 994.776 480.416 995.766 480.664C996.757 480.881 997.717 480.292 997.965 479.301C998.182 478.309 997.593 477.349 996.602 477.101C995.612 476.884 994.652 477.473 994.404 478.464ZM1052.49 319.433C1052.49 318.442 1051.69 317.605 1050.66 317.605C1049.64 317.605 1048.84 318.411 1048.84 319.433C1048.84 320.456 1049.64 321.261 1050.66 321.261C1051.69 321.261 1052.49 320.456 1052.49 319.433ZM1008.99 327.427C1008.77 328.418 1009.36 329.379 1010.35 329.626C1011.34 329.843 1012.3 329.255 1012.55 328.263C1012.77 327.272 1012.18 326.311 1011.19 326.063C1010.2 325.847 1009.24 326.435 1008.99 327.427ZM1021.62 286.592C1021.4 287.584 1021.99 288.544 1022.98 288.792C1023.97 289.009 1024.93 288.42 1025.18 287.429C1025.4 286.437 1024.81 285.477 1023.82 285.229C1022.83 285.012 1021.87 285.601 1021.62 286.592ZM613.09 309.519C612.874 310.51 613.462 311.471 614.453 311.719C615.444 311.936 616.403 311.347 616.651 310.356C616.868 309.364 616.28 308.404 615.289 308.156C614.298 307.939 613.338 308.528 613.09 309.519ZM656.006 388.368C655.789 389.36 656.377 390.32 657.368 390.568C658.359 390.785 659.319 390.196 659.566 389.205C659.783 388.213 659.195 387.253 658.204 387.005C657.213 386.788 656.253 387.377 656.006 388.368ZM611.294 374.364C611.078 375.356 611.666 376.316 612.657 376.564C613.648 376.781 614.607 376.192 614.855 375.201C615.072 374.21 614.484 373.249 613.493 373.001C612.502 372.784 611.542 373.373 611.294 374.364ZM639.161 380.499C638.945 381.49 639.533 382.451 640.524 382.699C641.515 382.916 642.475 382.327 642.722 381.335C642.939 380.344 642.351 379.384 641.36 379.136C640.369 378.919 639.409 379.507 639.161 380.499ZM911.298 806.874C911.082 807.865 911.67 808.826 912.661 809.073C913.652 809.29 914.611 808.702 914.859 807.71C915.076 806.719 914.488 805.758 913.497 805.511C912.506 805.294 911.546 805.882 911.298 806.874ZM942.262 794.388C942.045 795.379 942.633 796.34 943.624 796.588C944.615 796.805 945.575 796.216 945.823 795.224C946.039 794.233 945.451 793.273 944.46 793.025C943.469 792.808 942.509 793.397 942.262 794.388ZM932.199 779.702C931.982 780.694 932.57 781.654 933.561 781.902C934.552 782.119 935.512 781.53 935.759 780.539C935.976 779.548 935.388 778.587 934.397 778.339C933.406 778.122 932.446 778.711 932.199 779.702ZM255.371 910.633C255.154 911.624 255.742 912.584 256.733 912.832C257.724 913.049 258.684 912.46 258.932 911.469C259.148 910.478 258.56 909.517 257.569 909.269C256.578 909.052 255.619 909.641 255.371 910.633ZM1028.46 457.241C1028.25 458.233 1028.84 459.193 1029.83 459.441C1030.82 459.658 1031.78 459.069 1032.02 458.078C1032.24 457.086 1031.65 456.126 1030.66 455.878C1029.67 455.661 1028.71 456.25 1028.46 457.241ZM871.758 452.935C871.541 453.926 872.13 454.887 873.121 455.135C874.111 455.351 875.071 454.763 875.319 453.771C875.536 452.78 874.947 451.82 873.957 451.572C872.966 451.355 872.006 451.943 871.758 452.935ZM869.931 555.362C869.715 556.353 870.303 557.313 871.294 557.561C872.285 557.778 873.244 557.189 873.492 556.198C873.709 555.207 873.121 554.246 872.13 553.998C871.139 553.781 870.179 554.37 869.931 555.362ZM902.721 523.605C902.505 524.596 903.093 525.557 904.084 525.805C905.075 526.022 906.035 525.433 906.282 524.441C906.499 523.45 905.911 522.49 904.92 522.242C903.929 522.025 902.969 522.614 902.721 523.605ZM951.644 596.537C951.272 597.466 951.736 598.52 952.665 598.891C953.594 599.263 954.647 598.798 955.019 597.869C955.39 596.939 954.926 595.886 953.997 595.514C953.068 595.142 952.015 595.607 951.644 596.537ZM526.641 550.28C526.641 549.289 525.836 548.453 524.814 548.453C523.792 548.453 522.987 549.258 522.987 550.28C522.987 551.303 523.792 552.108 524.814 552.108C525.836 552.108 526.641 551.303 526.641 550.28ZM677.804 544.394C678.516 545.106 679.661 545.137 680.374 544.394C681.086 543.681 681.117 542.535 680.374 541.822C679.661 541.11 678.516 541.079 677.804 541.822C677.092 542.535 677.061 543.681 677.804 544.394ZM705.051 548.143C705.887 548.731 707.002 548.514 707.59 547.709C708.179 546.872 707.962 545.757 707.157 545.168C706.321 544.58 705.206 544.797 704.618 545.602C704.03 546.439 704.246 547.554 705.051 548.143ZM809.862 610.386C809.491 611.315 809.924 612.368 810.884 612.74C811.844 613.112 812.866 612.647 813.237 611.718C813.609 610.788 813.145 609.735 812.216 609.363C811.287 608.991 810.234 609.456 809.862 610.386ZM885.072 470.409C884.856 471.4 885.444 472.361 886.435 472.608C887.426 472.825 888.385 472.237 888.633 471.245C888.85 470.254 888.262 469.293 887.271 469.046C886.28 468.829 885.32 469.417 885.072 470.409ZM928.576 406.338C928.359 407.329 928.947 408.29 929.938 408.538C930.929 408.755 931.889 408.166 932.137 407.174C932.353 406.183 931.765 405.223 930.774 404.975C929.783 404.758 928.824 405.346 928.576 406.338ZM475.799 803.59C475.582 804.581 476.17 805.542 477.161 805.789C478.152 806.006 479.112 805.418 479.36 804.426C479.576 803.435 478.988 802.474 477.997 802.226C477.006 802.01 476.047 802.598 475.799 803.59ZM455.363 754.111C454.991 755.041 455.456 756.094 456.385 756.466C457.314 756.838 458.366 756.373 458.738 755.444C459.11 754.514 458.645 753.461 457.716 753.089C456.787 752.717 455.735 753.182 455.363 754.111ZM462.051 777.131C461.834 778.122 462.423 779.083 463.414 779.331C464.404 779.548 465.364 778.959 465.612 777.967C465.829 776.976 465.24 776.016 464.249 775.768C463.259 775.551 462.299 776.14 462.051 777.131ZM427.279 805.046C427.063 806.037 427.651 806.998 428.642 807.246C429.632 807.462 430.592 806.874 430.84 805.882C431.057 804.891 430.468 803.93 429.478 803.683C428.487 803.466 427.527 804.054 427.279 805.046ZM1224.93 341.09C1226.41 340.253 1226.91 338.363 1226.04 336.876C1225.2 335.389 1223.32 334.893 1221.83 335.761C1220.34 336.597 1219.85 338.487 1220.72 339.974C1221.55 341.462 1223.44 341.957 1224.93 341.09ZM1261.22 406.927C1259.57 407.422 1258.68 409.126 1259.14 410.768C1259.61 412.41 1261.34 413.309 1262.98 412.844C1264.62 412.348 1265.52 410.644 1265.05 409.002C1264.56 407.36 1262.86 406.462 1261.22 406.927ZM1241.96 370.925C1240.31 371.421 1239.42 373.125 1239.88 374.767C1240.38 376.409 1242.08 377.308 1243.72 376.843C1245.36 376.378 1246.26 374.643 1245.8 373.001C1245.3 371.359 1243.6 370.461 1241.96 370.925ZM90.6458 566.887C91.1412 568.529 92.8442 569.427 94.4852 568.963C96.1263 568.467 97.0242 566.763 96.5598 565.121C96.0644 563.479 94.3614 562.58 92.7203 563.045C91.0793 563.541 90.1813 565.245 90.6458 566.887ZM53.4588 554.897C53.9542 556.539 55.6572 557.437 57.2983 556.973C58.9393 556.477 59.8373 554.773 59.3728 553.131C58.8774 551.489 57.1744 550.59 55.5333 551.055C53.8923 551.551 52.9944 553.255 53.4588 554.897ZM147.587 581.201C148.083 582.843 149.786 583.741 151.427 583.276C153.068 582.781 153.966 581.077 153.501 579.435C153.006 577.793 151.303 576.894 149.662 577.359C148.021 577.854 147.123 579.558 147.587 581.201ZM846.771 826.578C846.771 825.587 845.966 824.75 844.944 824.75C843.922 824.75 843.117 825.556 843.117 826.578C843.117 827.601 843.922 828.406 844.944 828.406C845.966 828.406 846.771 827.601 846.771 826.578ZM841.848 860.875C842.56 861.588 843.705 861.619 844.418 860.875C845.13 860.163 845.161 859.016 844.418 858.304C843.705 857.591 842.56 857.56 841.848 858.304C841.135 859.016 841.104 860.163 841.848 860.875ZM822.619 421.984C823.455 422.573 824.57 422.356 825.158 421.55C825.747 420.714 825.53 419.598 824.725 419.01C823.889 418.421 822.774 418.638 822.186 419.443C821.597 420.28 821.814 421.395 822.619 421.984ZM752.456 423.781C753.168 424.493 754.314 424.524 755.026 423.781C755.738 423.068 755.769 421.922 755.026 421.209C754.314 420.497 753.168 420.466 752.456 421.209C751.744 421.922 751.713 423.068 752.456 423.781ZM771.654 441.719C772.49 442.308 773.604 442.091 774.193 441.286C774.781 440.449 774.564 439.334 773.759 438.745C772.954 438.156 771.808 438.373 771.22 439.179C770.632 440.015 770.849 441.131 771.654 441.719ZM713.566 443.238C714.279 443.95 715.424 443.981 716.136 443.238C716.848 442.525 716.879 441.379 716.136 440.666C715.393 439.953 714.279 439.922 713.566 440.666C712.854 441.41 712.823 442.525 713.566 443.238ZM790.975 859.295C791.811 859.884 792.925 859.667 793.514 858.862C794.102 858.025 793.885 856.91 793.08 856.321C792.244 855.732 791.13 855.949 790.541 856.755C789.953 857.591 790.17 858.707 790.975 859.295ZM792.802 894.088C793.638 894.677 794.752 894.46 795.341 893.654C795.929 892.818 795.712 891.703 794.907 891.114C794.071 890.525 792.956 890.742 792.368 891.548C791.78 892.384 791.997 893.5 792.802 894.088ZM793.885 817.191C793.669 818.182 794.257 819.143 795.248 819.39C796.239 819.607 797.198 819.019 797.446 818.027C797.663 817.036 797.075 816.075 796.084 815.828C795.093 815.611 794.133 816.199 793.885 817.191ZM833.085 761.733C832.868 762.724 833.457 763.685 834.447 763.933C835.438 764.149 836.398 763.561 836.646 762.569C836.862 761.578 836.274 760.618 835.283 760.37C834.292 760.153 833.333 760.741 833.085 761.733ZM1221.98 738.125C1220.99 737.908 1220.03 738.496 1219.79 739.488C1219.57 740.479 1220.16 741.44 1221.15 741.687C1222.14 741.904 1223.1 741.316 1223.35 740.324C1223.56 739.333 1222.98 738.372 1221.98 738.125ZM1232.42 500.74C1231.43 500.523 1230.47 501.112 1230.22 502.103C1230 503.095 1230.59 504.055 1231.58 504.303C1232.57 504.52 1233.53 503.931 1233.78 502.94C1234 501.948 1233.41 500.988 1232.42 500.74ZM1236.94 688.305C1237.93 688.305 1238.77 687.5 1238.77 686.477C1238.77 685.455 1237.96 684.65 1236.94 684.65C1235.92 684.65 1235.11 685.455 1235.11 686.477C1235.11 687.5 1235.92 688.305 1236.94 688.305ZM715.022 948.09C714.805 949.081 715.393 950.042 716.384 950.29C717.375 950.506 718.335 949.918 718.582 948.926C718.799 947.935 718.211 946.974 717.22 946.727C716.229 946.51 715.269 947.098 715.022 948.09ZM808.098 710.798C807.726 711.728 808.19 712.781 809.119 713.153C810.048 713.525 811.101 713.091 811.473 712.131C811.844 711.17 811.411 710.148 810.451 709.776C809.491 709.404 808.469 709.869 808.098 710.798ZM814.786 733.818C814.569 734.809 815.157 735.77 816.148 736.018C817.139 736.235 818.099 735.646 818.346 734.655C818.563 733.663 817.975 732.703 816.984 732.455C815.993 732.238 815.033 732.827 814.786 733.818ZM1173.5 865.275C1174.49 865.275 1175.32 864.469 1175.32 863.447C1175.32 862.424 1174.52 861.619 1173.5 861.619C1172.47 861.619 1171.67 862.424 1171.67 863.447C1171.67 864.469 1172.47 865.275 1173.5 865.275ZM1121.14 881.602C1121.42 882.563 1122.44 883.121 1123.4 882.842C1124.36 882.563 1124.91 881.54 1124.64 880.58C1124.36 879.62 1123.34 879.062 1122.38 879.341C1121.42 879.62 1120.86 880.642 1121.14 881.602ZM1192.94 900.718C1193.22 901.679 1194.24 902.236 1195.2 901.958C1196.16 901.679 1196.72 900.656 1196.44 899.696C1196.16 898.735 1195.14 898.178 1194.18 898.457C1193.22 898.735 1192.66 899.758 1192.94 900.718ZM1227.77 890.525C1228.05 891.486 1229.08 892.043 1230.04 891.765C1230.99 891.486 1231.55 890.463 1231.27 889.503C1230.99 888.542 1229.97 887.985 1229.01 888.264C1228.05 888.542 1227.5 889.565 1227.77 890.525ZM1214.58 978.7C1213.66 978.328 1212.6 978.793 1212.23 979.722C1211.86 980.652 1212.29 981.705 1213.25 982.077C1214.21 982.449 1215.23 982.015 1215.61 981.055C1215.98 980.094 1215.54 979.072 1214.58 978.7ZM1191.58 985.392C1190.59 985.175 1189.63 985.764 1189.38 986.755C1189.16 987.747 1189.75 988.707 1190.74 988.955C1191.73 989.172 1192.69 988.583 1192.94 987.592C1193.16 986.601 1192.57 985.64 1191.58 985.392ZM809.8 785.341C809.584 786.333 810.172 787.293 811.163 787.541C812.154 787.758 813.114 787.169 813.361 786.178C813.578 785.186 812.99 784.226 811.999 783.978C811.008 783.761 810.048 784.35 809.8 785.341ZM746.264 808.795C746.047 809.786 746.635 810.746 747.626 810.994C748.617 811.211 749.577 810.623 749.824 809.631C750.041 808.64 749.453 807.679 748.462 807.431C747.471 807.215 746.511 807.803 746.264 808.795ZM755.924 797.672C755.708 798.664 756.296 799.624 757.287 799.872C758.277 800.089 759.237 799.5 759.485 798.509C759.702 797.517 759.113 796.557 758.123 796.309C757.132 796.092 756.172 796.681 755.924 797.672ZM807.169 824.162C806.797 825.091 807.231 826.145 808.19 826.516C809.119 826.888 810.172 826.454 810.544 825.494C810.915 824.533 810.451 823.511 809.522 823.139C808.593 822.768 807.54 823.201 807.169 824.162ZM1130.83 965.997C1129.9 965.626 1128.85 966.059 1128.48 967.02C1128.1 967.949 1128.54 969.003 1129.5 969.374C1130.46 969.746 1131.48 969.313 1131.85 968.352C1132.22 967.392 1131.76 966.369 1130.83 965.997ZM1205.91 808.02C1206.91 808.02 1207.74 807.215 1207.74 806.192C1207.74 805.17 1206.94 804.364 1205.91 804.364C1204.89 804.364 1204.09 805.17 1204.09 806.192C1204.09 807.215 1204.89 808.02 1205.91 808.02ZM1231.27 801.328C1230.28 801.111 1229.32 801.7 1229.08 802.691C1228.86 803.683 1229.45 804.643 1230.44 804.891C1231.43 805.108 1232.39 804.519 1232.64 803.528C1232.85 802.536 1232.26 801.576 1231.27 801.328ZM1066.67 712.936C1065.74 712.564 1064.69 713.029 1064.32 713.959C1063.95 714.888 1064.41 715.941 1065.34 716.313C1066.27 716.685 1067.32 716.22 1067.69 715.291C1068.07 714.361 1067.63 713.308 1066.67 712.936ZM779.952 761.826C779.735 762.817 780.323 763.778 781.314 764.026C782.305 764.242 783.265 763.654 783.513 762.662C783.729 761.671 783.141 760.71 782.15 760.463C781.159 760.246 780.199 760.834 779.952 761.826ZM570.64 842.565C570.64 841.574 569.835 840.737 568.813 840.737C567.791 840.737 566.986 841.543 566.986 842.565C566.986 843.587 567.791 844.393 568.813 844.393C569.835 844.393 570.64 843.587 570.64 842.565ZM558.533 862.703C558.533 861.712 557.728 860.875 556.706 860.875C555.684 860.875 554.879 861.681 554.879 862.703C554.879 863.726 555.684 864.531 556.706 864.531C557.728 864.531 558.533 863.726 558.533 862.703ZM560.329 910.664C560.484 909.672 559.802 908.743 558.812 908.588C557.821 908.433 556.892 909.114 556.737 910.106C556.582 911.097 557.263 912.027 558.254 912.182C559.245 912.337 560.174 911.655 560.329 910.664ZM585.161 864.531C585.161 863.54 584.356 862.703 583.335 862.703C582.313 862.703 581.508 863.509 581.508 864.531C581.508 865.554 582.313 866.359 583.335 866.359C584.356 866.359 585.161 865.554 585.161 864.531ZM535.527 860.906C535.527 859.915 534.722 859.078 533.7 859.078C532.679 859.078 531.873 859.884 531.873 860.906C531.873 861.929 532.679 862.734 533.7 862.734C534.722 862.734 535.527 861.929 535.527 860.906ZM643.249 851.054C644.208 850.775 644.766 849.753 644.487 848.792C644.208 847.832 643.187 847.274 642.227 847.553C641.267 847.832 640.71 848.854 640.988 849.815C641.267 850.775 642.289 851.333 643.249 851.054ZM688.517 910.23C688.3 911.221 688.889 912.182 689.879 912.429C690.87 912.677 691.83 912.058 692.078 911.066C692.295 910.075 691.706 909.114 690.715 908.867C689.725 908.65 688.765 909.238 688.517 910.23ZM749.855 860.442C749.639 861.433 750.227 862.394 751.218 862.641C752.209 862.858 753.168 862.27 753.416 861.278C753.633 860.287 753.045 859.326 752.054 859.078C751.063 858.862 750.103 859.45 749.855 860.442ZM613.09 948.214C612.874 949.205 613.462 950.166 614.453 950.413C615.444 950.63 616.403 950.042 616.651 949.05C616.868 948.059 616.28 947.098 615.289 946.851C614.298 946.634 613.338 947.222 613.09 948.214ZM689.322 836.059C689.105 837.05 689.694 838.011 690.684 838.258C691.675 838.475 692.635 837.887 692.883 836.895C693.1 835.904 692.511 834.943 691.52 834.696C690.53 834.479 689.57 835.067 689.322 836.059ZM646.345 910.23C646.128 911.221 646.716 912.182 647.707 912.429C648.698 912.646 649.658 912.058 649.906 911.066C650.122 910.075 649.534 909.114 648.543 908.867C647.553 908.65 646.593 909.238 646.345 910.23ZM1045.52 744.755C1044.53 744.538 1043.57 745.126 1043.33 746.118C1043.11 747.109 1043.7 748.07 1044.69 748.318C1045.68 748.535 1046.64 747.946 1046.89 746.954C1047.1 745.963 1046.52 745.003 1045.52 744.755ZM1150.18 595.545C1151.17 595.7 1152.1 595.019 1152.26 594.027C1152.41 593.036 1151.73 592.106 1150.74 591.951C1149.75 591.796 1148.82 592.478 1148.66 593.469C1148.51 594.461 1149.19 595.39 1150.18 595.545ZM1168.26 770.656C1169.25 770.656 1170.09 769.85 1170.09 768.828C1170.09 767.805 1169.28 767 1168.26 767C1167.24 767 1166.44 767.805 1166.44 768.828C1166.44 769.85 1167.24 770.656 1168.26 770.656ZM1152.69 705.81C1151.7 705.593 1150.74 706.182 1150.49 707.173C1150.27 708.165 1150.86 709.125 1151.85 709.373C1152.84 709.59 1153.8 709.001 1154.05 708.01C1154.27 707.019 1153.68 706.058 1152.69 705.81ZM1114.73 630.338C1113.74 630.121 1112.78 630.71 1112.53 631.701C1112.31 632.693 1112.9 633.653 1113.89 633.901C1114.88 634.118 1115.84 633.529 1116.09 632.538C1116.31 631.546 1115.72 630.586 1114.73 630.338ZM1152.69 663.582C1151.7 663.365 1150.74 663.954 1150.49 664.945C1150.27 665.936 1150.86 666.897 1151.85 667.145C1152.84 667.362 1153.8 666.773 1154.05 665.781C1154.27 664.79 1153.68 663.83 1152.69 663.582ZM670.373 874.353C670.156 875.344 670.744 876.304 671.735 876.552C672.726 876.769 673.686 876.181 673.933 875.189C674.15 874.198 673.562 873.237 672.571 872.989C671.58 872.773 670.62 873.361 670.373 874.353ZM1064.1 852.913C1064.1 851.922 1063.3 851.085 1062.28 851.085C1061.25 851.085 1060.45 851.891 1060.45 852.913C1060.45 853.935 1061.25 854.741 1062.28 854.741C1063.3 854.741 1064.1 853.935 1064.1 852.913ZM1066.52 873.981C1067.48 873.702 1068.03 872.68 1067.76 871.719C1067.48 870.759 1066.46 870.201 1065.5 870.48C1064.54 870.759 1063.98 871.781 1064.26 872.742C1064.54 873.702 1065.56 874.26 1066.52 873.981ZM1043.82 868.001C1044.78 867.722 1045.34 866.7 1045.06 865.74C1044.78 864.779 1043.76 864.221 1042.8 864.5C1041.84 864.779 1041.28 865.802 1041.56 866.762C1041.84 867.722 1042.86 868.28 1043.82 868.001ZM1259.91 864.5C1258.92 864.283 1257.96 864.872 1257.72 865.863C1257.5 866.855 1258.09 867.815 1259.08 868.063C1260.07 868.28 1261.03 867.691 1261.28 866.7C1261.49 865.709 1260.91 864.748 1259.91 864.5ZM1056.18 916.333C1055.96 917.325 1056.55 918.285 1057.54 918.533C1058.53 918.75 1059.49 918.161 1059.74 917.17C1059.95 916.178 1059.37 915.218 1058.37 914.97C1057.38 914.753 1056.42 915.342 1056.18 916.333ZM1093.61 897.31C1093.39 898.302 1093.98 899.262 1094.97 899.51C1095.96 899.727 1096.92 899.138 1097.17 898.147C1097.39 897.155 1096.8 896.195 1095.81 895.947C1094.82 895.73 1093.86 896.319 1093.61 897.31ZM83.2765 869.519C83.2765 868.528 82.4715 867.691 81.4497 867.691C80.4279 867.691 79.6228 868.497 79.6228 869.519C79.6228 870.542 80.4279 871.347 81.4497 871.347C82.4715 871.347 83.2765 870.542 83.2765 869.519ZM50.0838 834.448C50.0838 833.456 49.2787 832.62 48.257 832.62C47.2352 832.62 46.4301 833.425 46.4301 834.448C46.4301 835.47 47.2352 836.276 48.257 836.276C49.2787 836.276 50.0838 835.47 50.0838 834.448ZM-1.34633 842.131C-1.34633 841.14 -2.15137 840.303 -3.17316 840.303C-4.19495 840.303 -5 841.109 -5 842.131C-5 843.154 -4.19495 843.959 -3.17316 843.959C-2.15137 843.959 -1.34633 843.154 -1.34633 842.131ZM74.8545 946.727C75.0093 945.735 74.3281 944.806 73.3373 944.651C72.3464 944.496 71.4175 945.178 71.2627 946.169C71.1079 947.16 71.7891 948.09 72.7799 948.245C73.7708 948.4 74.6997 947.718 74.8545 946.727ZM1250.78 16.7078C1251.77 16.7078 1252.61 15.9023 1252.61 14.8799C1252.61 13.8575 1251.8 13.052 1250.78 13.052C1249.76 13.052 1248.95 13.8575 1248.95 14.8799C1248.95 15.9023 1249.76 16.7078 1250.78 16.7078ZM99.78 900.47C99.78 899.479 98.9749 898.643 97.9531 898.643C96.9313 898.643 96.1263 899.448 96.1263 900.47C96.1263 901.493 96.9313 902.298 97.9531 902.298C98.9749 902.298 99.78 901.493 99.78 900.47ZM29.5861 934.365C29.5861 933.373 28.781 932.537 27.7592 932.537C26.7374 932.537 25.9324 933.342 25.9324 934.365C25.9324 935.387 26.7374 936.193 27.7592 936.193C28.781 936.193 29.5861 935.387 29.5861 934.365ZM157.898 886.962C158.858 886.683 159.415 885.661 159.137 884.701C158.858 883.74 157.836 883.183 156.876 883.461C155.917 883.74 155.359 884.763 155.638 885.723C155.917 886.683 156.938 887.241 157.898 886.962ZM135.202 880.983C136.162 880.704 136.719 879.682 136.441 878.721C136.162 877.761 135.14 877.203 134.18 877.482C133.22 877.761 132.663 878.783 132.942 879.743C133.22 880.704 134.242 881.262 135.202 880.983ZM125.015 846.128C125.975 845.849 126.532 844.827 126.254 843.866C125.975 842.906 124.953 842.348 123.993 842.627C123.033 842.906 122.476 843.928 122.755 844.889C123.033 845.849 124.055 846.407 125.015 846.128ZM75.0403 783.699C75.0403 782.708 74.2352 781.871 73.2134 781.871C72.1916 781.871 71.3866 782.677 71.3866 783.699C71.3866 784.722 72.1916 785.527 73.2134 785.527C74.2352 785.527 75.0403 784.722 75.0403 783.699ZM159.044 814.309C160.004 814.031 160.561 813.008 160.282 812.048C160.004 811.087 158.982 810.53 158.022 810.808C157.062 811.087 156.505 812.11 156.783 813.07C157.062 814.031 158.084 814.588 159.044 814.309ZM114.766 751.292C115.726 751.013 116.283 749.991 116.005 749.03C115.726 748.07 114.704 747.512 113.744 747.791C112.785 748.07 112.227 749.092 112.506 750.053C112.785 751.013 113.806 751.571 114.766 751.292ZM1253.16 183.422C1252.58 184.259 1252.79 185.374 1253.6 185.963C1254.43 186.551 1255.55 186.334 1256.14 185.529C1256.73 184.692 1256.51 183.577 1255.7 182.988C1254.87 182.4 1253.75 182.617 1253.16 183.422ZM1237.74 179.797C1237.16 180.634 1237.37 181.749 1238.18 182.338C1239.01 182.926 1240.13 182.71 1240.72 181.904C1241.31 181.068 1241.09 179.952 1240.28 179.364C1239.45 178.775 1238.33 178.992 1237.74 179.797ZM155.452 967.547C155.235 968.538 155.824 969.498 156.814 969.746C157.805 969.963 158.765 969.374 159.013 968.383C159.23 967.392 158.641 966.431 157.65 966.183C156.66 965.966 155.7 966.555 155.452 967.547ZM160.995 946.138C160.778 947.129 161.366 948.09 162.357 948.338C163.348 948.555 164.308 947.966 164.555 946.975C164.772 945.983 164.184 945.023 163.193 944.775C162.202 944.527 161.242 945.147 160.995 946.138ZM185.022 910.261C184.805 911.252 185.394 912.213 186.384 912.461C187.375 912.677 188.335 912.089 188.583 911.097C188.8 910.106 188.211 909.145 187.22 908.898C186.23 908.681 185.27 909.269 185.022 910.261ZM1229.73 58.7195C1230 59.6799 1231.03 60.2376 1231.99 59.9588C1232.95 59.6799 1233.5 58.6575 1233.22 57.6971C1232.95 56.7366 1231.92 56.179 1230.96 56.4578C1230 56.7366 1229.45 57.759 1229.73 58.7195ZM1235.7 -3.5854C1235.98 -2.62495 1237 -2.06728 1237.96 -2.34612C1238.92 -2.62495 1239.48 -3.64736 1239.2 -4.6078C1238.92 -5.56825 1237.9 -6.12592 1236.94 -5.84709C1235.98 -5.56825 1235.42 -4.54584 1235.7 -3.5854ZM1176.25 127.84C1177.24 127.84 1178.08 127.035 1178.08 126.012C1178.08 124.99 1177.27 124.185 1176.25 124.185C1175.23 124.185 1174.42 124.99 1174.42 126.012C1174.42 127.035 1175.23 127.84 1176.25 127.84ZM1142.28 5.36841C1141.29 5.15154 1140.33 5.7402 1140.09 6.73162C1139.87 7.72305 1140.46 8.68349 1141.45 8.93135C1142.44 9.14822 1143.4 8.55956 1143.65 7.56814C1143.86 6.57671 1143.28 5.61627 1142.28 5.36841ZM1203.59 116.532C1202.6 116.315 1201.64 116.904 1201.39 117.895C1201.18 118.887 1201.77 119.847 1202.76 120.095C1203.75 120.312 1204.71 119.723 1204.95 118.732C1205.17 117.74 1204.58 116.78 1203.59 116.532ZM1170.62 22.2226C1169.63 22.0058 1168.67 22.5944 1168.42 23.5858C1168.2 24.5773 1168.79 25.5377 1169.78 25.7856C1170.77 26.0024 1171.73 25.4138 1171.98 24.4224C1172.2 23.4309 1171.61 22.4705 1170.62 22.2226ZM553.331 467.434C553.919 468.271 555.034 468.457 555.87 467.868C556.706 467.28 556.892 466.164 556.304 465.328C555.715 464.491 554.601 464.305 553.765 464.894C552.929 465.483 552.743 466.598 553.331 467.434ZM551.721 443.981C552.309 444.818 553.424 445.004 554.26 444.415C555.096 443.826 555.282 442.711 554.693 441.874C554.105 441.038 552.99 440.852 552.154 441.441C551.318 442.029 551.133 443.145 551.721 443.981ZM523.482 393.511C524.071 394.348 525.185 394.534 526.021 393.945C526.857 393.356 527.043 392.241 526.455 391.405C525.867 390.568 524.752 390.382 523.916 390.971C523.08 391.559 522.894 392.675 523.482 393.511ZM567.017 584.887C567.45 585.786 568.565 586.158 569.463 585.693C570.361 585.259 570.732 584.144 570.268 583.245C569.835 582.347 568.72 581.975 567.822 582.44C566.924 582.874 566.552 583.989 567.017 584.887ZM572.559 542.163C573.148 543 574.262 543.186 575.098 542.597C575.934 542.008 576.12 540.893 575.532 540.056C574.943 539.22 573.829 539.034 572.993 539.623C572.157 540.211 571.971 541.327 572.559 542.163ZM480.165 488.161C480.753 488.998 481.868 489.184 482.704 488.595C483.54 488.007 483.725 486.891 483.137 486.055C482.549 485.218 481.434 485.032 480.598 485.621C479.762 486.21 479.576 487.325 480.165 488.161ZM611.202 568.87C611.79 569.706 612.905 569.892 613.741 569.303C614.577 568.715 614.762 567.599 614.174 566.763C613.586 565.926 612.471 565.74 611.635 566.329C610.799 566.918 610.613 568.033 611.202 568.87ZM571.63 432.27C572.219 433.106 573.333 433.292 574.169 432.704C575.005 432.115 575.191 431 574.603 430.163C574.015 429.327 572.9 429.141 572.064 429.729C571.228 430.318 571.042 431.433 571.63 432.27ZM500.662 603.817C500.043 604.592 500.167 605.738 500.941 606.358C501.715 606.978 502.861 606.854 503.48 606.079C504.099 605.305 503.975 604.158 503.201 603.539C502.427 602.919 501.282 603.043 500.662 603.817ZM555.282 673.155C554.662 673.93 554.786 675.076 555.56 675.696C556.334 676.315 557.48 676.191 558.099 675.417C558.719 674.642 558.595 673.496 557.821 672.876C557.047 672.257 555.901 672.381 555.282 673.155ZM583.613 695.896C582.994 696.671 583.118 697.817 583.892 698.437C584.666 699.056 585.812 698.932 586.431 698.158C587.05 697.383 586.926 696.237 586.152 695.617C585.378 694.998 584.232 695.121 583.613 695.896ZM432.853 604.096C431.862 604.096 431.026 604.902 431.026 605.924C431.026 606.916 431.831 607.752 432.853 607.752C433.843 607.752 434.68 606.947 434.68 605.924C434.68 604.933 433.874 604.096 432.853 604.096ZM444.216 671.823C443.845 670.894 442.792 670.429 441.863 670.801C440.934 671.172 440.47 672.226 440.841 673.155C441.213 674.085 442.266 674.549 443.194 674.178C444.123 673.806 444.588 672.752 444.216 671.823ZM503.852 735.615C503.635 734.624 502.644 734.035 501.684 734.252C500.693 734.469 500.105 735.46 500.322 736.421C500.539 737.412 501.529 738.001 502.489 737.784C503.48 737.567 504.068 736.575 503.852 735.615ZM485.212 720.589C484.84 719.659 483.787 719.195 482.858 719.566C481.93 719.938 481.465 720.991 481.837 721.921C482.208 722.85 483.261 723.315 484.19 722.943C485.119 722.572 485.583 721.518 485.212 720.589ZM1237.96 270.699C1236.97 270.482 1236.01 271.07 1235.76 272.062C1235.55 273.053 1236.13 274.014 1237.13 274.262C1238.12 274.478 1239.08 273.89 1239.32 272.898C1239.54 271.907 1238.95 270.946 1237.96 270.699ZM285.994 964.851C285.777 965.843 286.365 966.803 287.356 967.051C288.347 967.268 289.307 966.679 289.554 965.688C289.771 964.696 289.183 963.736 288.192 963.488C287.201 963.271 286.241 963.86 285.994 964.851ZM327.639 923.273C327.422 922.282 326.432 921.693 325.472 921.91C324.512 922.127 323.893 923.118 324.109 924.079C324.326 925.07 325.317 925.659 326.277 925.442C327.268 925.225 327.856 924.234 327.639 923.273ZM308.999 908.247C308.628 907.318 307.575 906.853 306.646 907.225C305.717 907.596 305.253 908.65 305.624 909.579C305.996 910.509 307.049 910.973 307.978 910.602C308.906 910.23 309.371 909.176 308.999 908.247ZM1122.93 261.59C1123.92 261.59 1124.76 260.784 1124.76 259.762C1124.76 258.74 1123.95 257.934 1122.93 257.934C1121.91 257.934 1121.11 258.74 1121.11 259.762C1121.11 260.784 1121.91 261.59 1122.93 261.59ZM1196.56 222.893C1197.55 222.893 1198.39 222.088 1198.39 221.065C1198.39 220.043 1197.59 219.237 1196.56 219.237C1195.54 219.237 1194.74 220.043 1194.74 221.065C1194.74 222.088 1195.54 222.893 1196.56 222.893ZM1138.54 178.124C1137.95 178.961 1138.17 180.076 1138.97 180.665C1139.81 181.253 1140.92 181.037 1141.51 180.231C1142.1 179.395 1141.88 178.279 1141.08 177.69C1140.24 177.102 1139.13 177.319 1138.54 178.124ZM1132.47 98.6553C1131.48 98.4384 1130.52 99.0271 1130.27 100.019C1130.05 101.01 1130.64 101.97 1131.63 102.218C1132.62 102.435 1133.58 101.846 1133.83 100.855C1134.05 99.8636 1133.46 98.9032 1132.47 98.6553ZM1149.13 224.69C1150.12 224.473 1150.71 223.482 1150.49 222.522C1150.27 221.53 1149.28 220.941 1148.32 221.158C1147.33 221.375 1146.74 222.367 1146.96 223.327C1147.18 224.318 1148.17 224.907 1149.13 224.69ZM1118.41 226.704C1119.34 226.332 1119.81 225.279 1119.43 224.349C1119.06 223.42 1118.01 222.955 1117.08 223.327C1116.15 223.699 1115.69 224.752 1116.06 225.682C1116.43 226.611 1117.48 227.076 1118.41 226.704ZM167.837 203.406C168.023 202.414 167.373 201.485 166.382 201.299C165.391 201.113 164.462 201.764 164.277 202.755C164.091 203.746 164.741 204.676 165.732 204.862C166.723 205.048 167.652 204.397 167.837 203.406ZM82.5024 378.237C82.5024 377.246 81.6974 376.409 80.6756 376.409C79.6538 376.409 78.8487 377.215 78.8487 378.237C78.8487 379.26 79.6538 380.065 80.6756 380.065C81.6974 380.065 82.5024 379.26 82.5024 378.237ZM95.3832 315.901C95.3832 314.91 94.5781 314.073 93.5563 314.073C92.5345 314.073 91.7295 314.879 91.7295 315.901C91.7295 316.924 92.5345 317.729 93.5563 317.729C94.5781 317.729 95.3832 316.924 95.3832 315.901ZM66.1538 334.181C66.1538 333.189 65.3487 332.353 64.3269 332.353C63.3051 332.353 62.5001 333.158 62.5001 334.181C62.5001 335.203 63.3051 336.009 64.3269 336.009C65.3487 336.009 66.1538 335.203 66.1538 334.181ZM66.2467 397.756C66.0299 396.764 65.0391 396.176 64.0792 396.393C63.0884 396.61 62.5001 397.601 62.7168 398.561C62.9336 399.553 63.9244 400.142 64.8843 399.925C65.8751 399.708 66.4634 398.716 66.2467 397.756ZM47.6067 382.73C47.2352 381.8 46.1824 381.335 45.2535 381.707C44.3246 382.079 43.8602 383.132 44.2317 384.062C44.6033 384.991 45.656 385.456 46.5849 385.084C47.5138 384.712 47.9783 383.659 47.6067 382.73ZM428.951 688.46C428.58 687.531 427.527 687.066 426.598 687.438C425.669 687.81 425.205 688.863 425.576 689.793C425.948 690.722 427.001 691.187 427.929 690.815C428.858 690.443 429.323 689.39 428.951 688.46ZM489.02 613.887C488.649 612.957 487.596 612.492 486.667 612.864C485.738 613.236 485.274 614.289 485.645 615.219C486.017 616.148 487.069 616.613 487.998 616.241C488.927 615.869 489.392 614.816 489.02 613.887ZM503.697 615.715C503.325 614.785 502.273 614.32 501.344 614.692C500.415 615.064 499.95 616.117 500.322 617.047C500.693 617.976 501.746 618.441 502.675 618.069C503.604 617.697 504.068 616.644 503.697 615.715ZM409.723 650.228C409.506 649.237 408.515 648.648 407.556 648.865C406.565 649.082 405.976 650.074 406.193 651.034C406.41 652.025 407.401 652.614 408.361 652.397C409.352 652.18 409.94 651.189 409.723 650.228ZM438.705 695.183C438.333 694.254 437.28 693.789 436.352 694.161C435.423 694.533 434.958 695.586 435.33 696.516C435.701 697.445 436.754 697.91 437.683 697.538C438.612 697.166 439.076 696.113 438.705 695.183ZM883.71 344.467C883.338 343.537 882.286 343.073 881.357 343.444C880.428 343.816 879.963 344.87 880.335 345.799C880.707 346.729 881.759 347.193 882.688 346.821C883.617 346.45 884.082 345.396 883.71 344.467ZM796.517 383.287C796.301 382.296 795.31 381.707 794.35 381.924C793.359 382.141 792.771 383.132 792.987 384.093C793.204 385.084 794.195 385.673 795.155 385.456C796.146 385.239 796.734 384.248 796.517 383.287ZM781.19 336.814C780.819 335.885 779.766 335.42 778.837 335.792C777.908 336.164 777.444 337.217 777.815 338.146C778.187 339.076 779.24 339.541 780.169 339.169C781.097 338.797 781.562 337.744 781.19 336.814ZM1110.45 517.223C1111.29 517.811 1112.41 517.594 1112.99 516.789C1113.58 515.952 1113.37 514.837 1112.56 514.248C1111.72 513.66 1110.61 513.877 1110.02 514.682C1109.43 515.519 1109.65 516.634 1110.45 517.223ZM841.631 23.9267C842.467 24.5153 843.581 24.2984 844.17 23.4929C844.758 22.6564 844.541 21.541 843.736 20.9524C842.9 20.3637 841.786 20.5806 841.197 21.3861C840.609 22.2226 840.826 23.338 841.631 23.9267ZM1106 376.44C1105.78 375.449 1104.79 374.86 1103.83 375.077C1102.84 375.294 1102.25 376.285 1102.47 377.246C1102.68 378.237 1103.67 378.826 1104.63 378.609C1105.62 378.392 1106.21 377.401 1106 376.44ZM1111.35 364.791C1110.98 363.862 1109.93 363.397 1109 363.769C1108.07 364.14 1107.61 365.194 1107.98 366.123C1108.35 367.053 1109.4 367.517 1110.33 367.146C1111.26 366.774 1111.72 365.72 1111.35 364.791ZM764.656 327.706C764.284 326.776 763.232 326.311 762.303 326.683C761.374 327.055 760.909 328.108 761.281 329.038C761.652 329.967 762.705 330.432 763.634 330.06C764.563 329.688 765.027 328.635 764.656 327.706ZM799.706 272.031C799.335 271.101 798.282 270.637 797.353 271.008C796.424 271.38 795.96 272.434 796.331 273.363C796.703 274.292 797.756 274.757 798.685 274.385C799.614 274.014 800.078 272.96 799.706 272.031ZM742.548 279.714C742.331 278.723 741.341 278.134 740.381 278.351C739.39 278.568 738.801 279.559 739.018 280.52C739.235 281.511 740.226 282.1 741.186 281.883C742.176 281.666 742.765 280.675 742.548 279.714ZM858.072 377.556C857.701 376.626 856.648 376.161 855.719 376.533C854.79 376.905 854.326 377.958 854.697 378.888C855.069 379.817 856.122 380.282 857.051 379.91C857.979 379.538 858.444 378.485 858.072 377.556ZM823.332 97.9118C824.291 97.6329 824.849 96.6105 824.57 95.6501C824.291 94.6896 823.27 94.1319 822.31 94.4108C821.35 94.6896 820.792 95.712 821.071 96.6725C821.35 97.6329 822.372 98.1906 823.332 97.9118ZM263.266 137.569C264.257 137.569 265.093 136.794 265.124 135.803C265.124 134.811 264.35 133.975 263.359 133.944C262.368 133.944 261.532 134.718 261.502 135.71C261.502 136.701 262.276 137.538 263.266 137.569ZM782.398 62.964C783.389 62.964 784.225 62.1895 784.256 61.198C784.287 60.2066 783.482 59.3701 782.491 59.3391C781.5 59.3391 780.664 60.1137 780.633 61.1051C780.633 62.0965 781.407 62.933 782.398 62.964ZM496.111 39.0769C497.102 39.0769 497.938 38.3023 497.969 37.3109C497.969 36.3195 497.195 35.4829 496.204 35.452C495.213 35.452 494.377 36.2265 494.346 37.2179C494.315 38.2094 495.12 39.0459 496.111 39.0769ZM843.798 136.918C843.427 135.989 842.374 135.524 841.445 135.896C840.516 136.268 840.052 137.321 840.423 138.25C840.795 139.18 841.848 139.645 842.776 139.273C843.705 138.901 844.17 137.848 843.798 136.918ZM843.303 168.396C842.931 167.466 841.879 167.002 840.95 167.373C840.021 167.745 839.556 168.799 839.928 169.728C840.299 170.658 841.352 171.122 842.281 170.751C843.21 170.379 843.674 169.325 843.303 168.396ZM878.353 112.721C877.982 111.792 876.929 111.327 876 111.699C875.071 112.071 874.607 113.124 874.978 114.053C875.35 114.983 876.403 115.448 877.332 115.076C878.261 114.704 878.725 113.651 878.353 112.721ZM821.195 120.405C820.978 119.413 819.987 118.825 819.028 119.042C818.037 119.258 817.448 120.25 817.665 121.21C817.882 122.202 818.873 122.79 819.833 122.573C820.823 122.357 821.412 121.365 821.195 120.405ZM879.22 155.91C878.849 154.981 877.796 154.516 876.867 154.888C875.938 155.26 875.474 156.313 875.845 157.242C876.217 158.172 877.27 158.637 878.199 158.265C879.127 157.893 879.592 156.84 879.22 155.91ZM1064.6 378.733C1065.59 378.733 1066.42 377.958 1066.46 376.967C1066.49 375.976 1065.68 375.139 1064.69 375.108C1063.7 375.077 1062.86 375.883 1062.83 376.874C1062.83 377.865 1063.61 378.702 1064.6 378.733ZM1062.77 336.04C1063.76 336.04 1064.6 335.265 1064.63 334.274C1064.63 333.282 1063.85 332.446 1062.86 332.415C1061.87 332.415 1061.04 333.189 1061.01 334.181C1060.98 335.172 1061.78 336.009 1062.77 336.04ZM1104.05 224.876C1105.04 224.876 1105.87 224.102 1105.9 223.11C1105.9 222.119 1105.13 221.282 1104.14 221.251C1103.15 221.251 1102.31 222.026 1102.28 223.017C1102.25 224.009 1103.05 224.845 1104.05 224.876ZM1066.42 216.79C1067.42 216.79 1068.25 216.015 1068.28 215.024C1068.28 214.032 1067.51 213.196 1066.52 213.165C1065.53 213.165 1064.69 213.939 1064.66 214.931C1064.66 215.922 1065.43 216.759 1066.42 216.79ZM1080.57 236.154C1080.2 235.224 1079.15 234.759 1078.22 235.131C1077.29 235.503 1076.83 236.556 1077.2 237.486C1077.57 238.415 1078.62 238.88 1079.55 238.508C1080.48 238.136 1080.95 237.083 1080.57 236.154ZM335.752 217.967C336.742 217.967 337.578 217.193 337.609 216.201C337.609 215.21 336.835 214.373 335.845 214.342C334.854 214.342 334.018 215.117 333.987 216.108C333.956 217.1 334.761 217.936 335.752 217.967ZM317.328 190.114C318.319 190.114 319.155 189.34 319.186 188.348C319.186 187.357 318.412 186.52 317.421 186.489C316.43 186.489 315.594 187.264 315.564 188.255C315.533 189.247 316.338 190.083 317.328 190.114ZM291.443 247.927C292.434 248.113 293.363 247.462 293.549 246.471C293.734 245.479 293.084 244.55 292.093 244.364C291.103 244.178 290.174 244.829 289.988 245.82C289.802 246.811 290.452 247.741 291.443 247.927ZM260.511 217.967C261.502 217.967 262.338 217.193 262.368 216.201C262.368 215.21 261.594 214.373 260.604 214.342C259.613 214.342 258.777 215.117 258.746 216.108C258.715 217.1 259.52 217.936 260.511 217.967ZM258.684 251.583C259.675 251.583 260.511 250.808 260.542 249.817C260.573 248.825 259.768 247.989 258.777 247.958C257.786 247.958 256.95 248.732 256.919 249.724C256.919 250.715 257.693 251.552 258.684 251.583ZM201.216 410.489C202.207 410.489 203.043 409.715 203.074 408.724C203.074 407.732 202.3 406.896 201.309 406.865C200.318 406.865 199.482 407.639 199.451 408.631C199.451 409.622 200.225 410.459 201.216 410.489ZM227.844 502.103C228.835 502.289 229.764 501.639 229.95 500.647C230.136 499.656 229.485 498.726 228.495 498.54C227.504 498.355 226.575 499.005 226.389 499.997C226.203 500.988 226.854 501.917 227.844 502.103ZM154.926 472.144C155.917 472.144 156.753 471.369 156.783 470.378C156.814 469.386 156.009 468.55 155.019 468.519C154.028 468.488 153.192 469.293 153.161 470.285C153.161 471.276 153.935 472.113 154.926 472.144ZM226.296 427.932C227.287 427.932 228.123 427.158 228.154 426.166C228.154 425.175 227.38 424.338 226.389 424.307C225.398 424.307 224.562 425.082 224.531 426.073C224.5 427.065 225.305 427.901 226.296 427.932ZM199.389 457.086C200.38 457.086 201.216 456.312 201.247 455.32C201.247 454.329 200.473 453.493 199.482 453.462C198.491 453.431 197.655 454.236 197.624 455.228C197.624 456.219 198.398 457.056 199.389 457.086ZM281.287 535.75C282.278 535.75 283.114 534.975 283.145 533.984C283.145 532.992 282.371 532.156 281.38 532.125C280.389 532.125 279.553 532.9 279.522 533.891C279.491 534.882 280.296 535.719 281.287 535.75ZM224.469 563.603C225.46 563.603 226.296 562.828 226.327 561.837C226.327 560.845 225.553 560.009 224.562 559.978C223.571 559.978 222.735 560.752 222.704 561.744C222.704 562.735 223.479 563.572 224.469 563.603ZM168.178 550.373C169.169 550.373 170.005 549.599 170.036 548.607C170.036 547.616 169.262 546.779 168.271 546.749C167.28 546.749 166.444 547.523 166.413 548.514C166.413 549.506 167.187 550.342 168.178 550.373ZM239.549 468.488C240.539 468.488 241.375 467.713 241.406 466.722C241.437 465.73 240.632 464.894 239.641 464.863C238.651 464.863 237.815 465.638 237.784 466.629C237.784 467.62 238.558 468.457 239.549 468.488ZM727.438 97.7259C728.429 97.7259 729.265 96.9513 729.296 95.9599C729.296 94.9685 728.522 94.1319 727.531 94.101C726.54 94.101 725.704 94.8755 725.673 95.8669C725.642 96.8584 726.447 97.6949 727.438 97.7259ZM689.415 117.245C690.406 117.245 691.242 116.47 691.273 115.479C691.273 114.487 690.499 113.651 689.508 113.62C688.517 113.62 687.681 114.394 687.65 115.386C687.65 116.377 688.424 117.214 689.415 117.245ZM642.103 218.897C643.094 219.082 644.023 218.432 644.208 217.44C644.394 216.449 643.744 215.52 642.753 215.334C641.762 215.148 640.833 215.798 640.648 216.79C640.462 217.781 641.112 218.711 642.103 218.897ZM248.807 333.716C249.766 333.437 250.324 332.415 250.045 331.454C249.766 330.494 248.745 329.936 247.785 330.215C246.825 330.494 246.268 331.516 246.546 332.477C246.825 333.437 247.847 333.995 248.807 333.716ZM410.9 105.781C411.86 105.502 412.417 104.48 412.138 103.519C411.859 102.559 410.838 102.001 409.878 102.28C408.918 102.559 408.361 103.581 408.639 104.542C408.918 105.502 409.94 106.06 410.9 105.781ZM412.726 75.5117C413.686 75.2329 414.244 74.2105 413.965 73.2501C413.686 72.2896 412.665 71.7319 411.705 72.0108C410.745 72.2896 410.187 73.312 410.466 74.2725C410.745 75.2329 411.767 75.7906 412.726 75.5117ZM374.611 108.848C375.57 108.57 376.128 107.547 375.849 106.587C375.57 105.626 374.549 105.069 373.589 105.347C372.629 105.626 372.072 106.649 372.35 107.609C372.629 108.57 373.651 109.127 374.611 108.848ZM182.39 331.919C183.35 331.64 183.907 330.618 183.629 329.657C183.35 328.697 182.328 328.139 181.368 328.418C180.409 328.697 179.851 329.719 180.13 330.68C180.409 331.64 181.43 332.198 182.39 331.919ZM301.847 326.59C301.475 325.661 300.422 325.196 299.494 325.568C298.565 325.94 298.1 326.993 298.472 327.922C298.843 328.852 299.896 329.317 300.825 328.945C301.754 328.573 302.218 327.52 301.847 326.59ZM336.433 302.393C336.061 301.464 335.009 300.999 334.08 301.371C333.151 301.743 332.686 302.796 333.058 303.725C333.429 304.655 334.482 305.12 335.411 304.748C336.34 304.376 336.804 303.323 336.433 302.393ZM279.274 310.077C279.058 309.085 278.067 308.497 277.107 308.714C276.116 308.93 275.528 309.922 275.745 310.882C275.961 311.874 276.952 312.462 277.912 312.245C278.903 312.029 279.491 311.037 279.274 310.077ZM681.365 157.087C682.355 157.087 683.191 156.313 683.222 155.321C683.222 154.33 682.448 153.494 681.457 153.463C680.467 153.463 679.631 154.237 679.6 155.229C679.6 156.22 680.374 157.056 681.365 157.087ZM649.534 100.917C650.525 100.917 651.361 100.142 651.392 99.151C651.423 98.1596 650.618 97.3231 649.627 97.2921C648.636 97.2921 647.8 98.0667 647.769 99.0581C647.738 100.05 648.543 100.886 649.534 100.917ZM777.691 203.034C778.682 203.034 779.518 202.259 779.549 201.268C779.549 200.276 778.775 199.44 777.784 199.409C776.794 199.409 775.958 200.183 775.927 201.175C775.927 202.166 776.701 203.003 777.691 203.034ZM771.282 146.368C772.273 146.554 773.202 145.903 773.388 144.911C773.573 143.92 772.923 142.991 771.932 142.805C770.941 142.619 770.013 143.269 769.827 144.261C769.641 145.252 770.291 146.182 771.282 146.368ZM625.104 104.418C626.095 104.418 626.931 103.643 626.962 102.652C626.962 101.661 626.188 100.824 625.197 100.793C624.206 100.793 623.37 101.568 623.339 102.559C623.339 103.55 624.113 104.387 625.104 104.418ZM354.175 45.8C355.166 45.8 356.002 45.0254 356.033 44.034C356.033 43.0426 355.259 42.2061 354.268 42.1751C353.277 42.1751 352.441 42.9496 352.41 43.941C352.41 44.9325 353.184 45.769 354.175 45.8ZM250.107 99.5228C251.098 99.5228 251.934 98.7483 251.965 97.7568C251.965 96.7654 251.191 95.9289 250.2 95.8979C249.209 95.8979 248.373 96.6725 248.342 97.6639C248.342 98.6553 249.116 99.4918 250.107 99.5228ZM279.027 22.1917C280.018 22.1917 280.854 21.4171 280.885 20.4257C280.885 19.4343 280.111 18.5977 279.12 18.5668C278.129 18.5668 277.293 19.3413 277.262 20.3327C277.231 21.3242 278.036 22.1607 279.027 22.1917ZM715.703 185.56C716.694 185.56 717.53 184.785 717.561 183.794C717.561 182.803 716.787 181.966 715.796 181.935C714.805 181.935 713.969 182.71 713.938 183.701C713.938 184.692 714.712 185.529 715.703 185.56ZM627.426 171.928C628.417 171.928 629.253 171.153 629.284 170.162C629.284 169.17 628.51 168.334 627.519 168.303C626.528 168.303 625.692 169.077 625.661 170.069C625.661 171.06 626.436 171.897 627.426 171.928ZM575.687 136.484C576.677 136.484 577.513 135.71 577.544 134.718C577.575 133.727 576.77 132.89 575.779 132.859C574.789 132.859 573.953 133.634 573.922 134.625C573.922 135.617 574.696 136.453 575.687 136.484ZM510.787 123.255C511.778 123.255 512.614 122.481 512.645 121.489C512.645 120.498 511.871 119.661 510.88 119.63C509.889 119.63 509.053 120.405 509.023 121.396C509.023 122.388 509.797 123.224 510.787 123.255ZM592.685 201.918C593.676 201.918 594.512 201.144 594.543 200.152C594.574 199.161 593.769 198.325 592.778 198.294C591.788 198.294 590.952 199.068 590.921 200.06C590.921 201.051 591.695 201.887 592.685 201.918ZM863.708 660.948C863.708 658.934 862.098 657.323 860.085 657.323C858.072 657.323 856.462 658.934 856.462 660.948C856.462 662.962 858.072 664.573 860.085 664.573C862.098 664.573 863.708 662.962 863.708 660.948ZM687 607.442C687 605.428 685.39 603.817 683.377 603.817C681.364 603.817 679.754 605.428 679.754 607.442C679.754 609.456 681.364 611.067 683.377 611.067C685.39 611.067 687 609.425 687 607.442ZM694.957 312.307C694.957 310.294 693.347 308.683 691.335 308.683C689.322 308.683 687.712 310.294 687.712 312.307C687.712 314.321 689.322 315.932 691.335 315.932C693.347 315.932 694.957 314.321 694.957 312.307ZM551.442 323.058C551.442 321.044 549.832 319.433 547.82 319.433C545.807 319.433 544.197 321.044 544.197 323.058C544.197 325.072 545.807 326.683 547.82 326.683C549.832 326.683 551.442 325.041 551.442 323.058ZM438.891 166.847C438.891 164.833 437.28 163.222 435.268 163.222C433.255 163.222 431.645 164.833 431.645 166.847C431.645 168.861 433.255 170.472 435.268 170.472C437.28 170.472 438.891 168.861 438.891 166.847ZM122.662 232.312C123.653 232.312 124.489 231.537 124.52 230.546C124.52 229.554 123.746 228.718 122.755 228.687C121.764 228.687 120.928 229.461 120.897 230.453C120.897 231.444 121.671 232.281 122.662 232.312ZM168.209 160.093C169.2 160.093 170.036 159.318 170.067 158.327C170.067 157.335 169.293 156.499 168.302 156.468C167.311 156.437 166.475 157.242 166.444 158.234C166.444 159.225 167.218 160.062 168.209 160.093ZM175.547 22.7803C176.538 22.7803 177.374 22.0058 177.405 21.0143C177.405 20.0229 176.631 19.1864 175.64 19.1554C174.649 19.1554 173.813 19.93 173.782 20.9214C173.751 21.9128 174.556 22.7493 175.547 22.7803ZM53.3349 149.993C54.3258 149.993 55.1618 149.218 55.1927 148.227C55.1927 147.235 54.4187 146.399 53.4278 146.368C52.437 146.368 51.601 147.142 51.57 148.134C51.5391 149.125 52.3441 149.962 53.3349 149.993ZM20.9782 85.2091C21.9691 85.2091 22.8051 84.4346 22.836 83.4431C22.836 82.4517 22.062 81.6152 21.0711 81.5842C20.0803 81.5842 19.2443 82.3588 19.2133 83.3502C19.1824 84.3416 19.9874 85.1781 20.9782 85.2091ZM30.2053 168.799C31.1962 168.799 32.0322 168.024 32.0631 167.033C32.0631 166.041 31.289 165.205 30.2982 165.174C29.3074 165.174 28.4714 165.948 28.4404 166.94C28.4095 167.931 29.2145 168.768 30.2053 168.799ZM128.483 20.8904C129.443 20.6116 130 19.5892 129.722 18.6287C129.443 17.6683 128.421 17.1106 127.461 17.3894C126.501 17.6683 125.944 18.6907 126.223 19.6511C126.501 20.6116 127.523 21.1692 128.483 20.8904ZM92.163 23.9576C93.1228 23.6788 93.6802 22.6564 93.4015 21.6959C93.1228 20.7355 92.1011 20.1778 91.1412 20.4567C90.1813 20.7355 89.624 21.7579 89.9027 22.7184C90.1813 23.6788 91.2031 24.2365 92.163 23.9576ZM156.412 98.9651C156.412 96.9513 154.802 95.3402 152.789 95.3402C150.777 95.3402 149.167 96.9513 149.167 98.9651C149.167 100.979 150.777 102.59 152.789 102.59C154.802 102.59 156.412 100.979 156.412 98.9651ZM989.914 218.959C989.914 216.945 988.304 215.334 986.292 215.334C984.279 215.334 982.669 216.945 982.669 218.959C982.669 220.972 984.279 222.583 986.292 222.583C988.304 222.583 989.914 220.941 989.914 218.959ZM190.905 190.021C190.905 188.008 189.295 186.396 187.282 186.396C185.27 186.396 183.66 188.038 183.66 190.021C183.66 192.004 185.27 193.646 187.282 193.646C189.295 193.646 190.905 192.035 190.905 190.021ZM838.473 487.077C838.473 485.063 836.863 483.452 834.85 483.452C832.837 483.452 831.227 485.094 831.227 487.077C831.227 489.06 832.837 490.702 834.85 490.702C836.863 490.702 838.473 489.091 838.473 487.077ZM453.35 880.115C453.35 878.101 451.74 876.49 449.728 876.49C447.715 876.49 446.105 878.101 446.105 880.115C446.105 882.129 447.715 883.74 449.728 883.74C451.74 883.74 453.35 882.129 453.35 880.115ZM1208.58 671.42C1210.59 671.42 1212.2 669.778 1212.2 667.795C1212.2 665.812 1210.59 664.17 1208.58 664.17C1206.56 664.17 1204.95 665.781 1204.95 667.795C1204.95 669.809 1206.6 671.42 1208.58 671.42ZM423.811 309.922C423.811 306.855 421.334 304.376 418.269 304.376C415.204 304.376 412.726 306.855 412.726 309.922C412.726 312.989 415.204 315.468 418.269 315.468C421.334 315.468 423.811 312.989 423.811 309.922ZM599.807 293.377C599.807 291.364 598.197 289.753 596.184 289.753C594.172 289.753 592.562 291.364 592.562 293.377C592.562 295.391 594.172 297.002 596.184 297.002C598.197 297.002 599.807 295.36 599.807 293.377ZM772.675 618.131C772.675 616.117 771.065 614.506 769.053 614.506C767.04 614.506 765.43 616.117 765.43 618.131C765.43 620.145 767.04 621.756 769.053 621.756C771.065 621.756 772.675 620.145 772.675 618.131ZM338.384 603.384C338.384 601.37 336.742 599.759 334.761 599.759C332.779 599.759 331.138 601.37 331.138 603.384C331.138 605.398 332.748 607.009 334.761 607.009C336.773 607.009 338.384 605.398 338.384 603.384ZM345.66 660.917C345.66 658.903 344.05 657.292 342.037 657.292C340.025 657.292 338.414 658.903 338.414 660.917C338.414 662.931 340.025 664.542 342.037 664.542C344.05 664.542 345.66 662.931 345.66 660.917ZM374.704 300.627C374.704 298.613 373.093 297.002 371.081 297.002C369.068 297.002 367.458 298.613 367.458 300.627C367.458 302.641 369.099 304.252 371.081 304.252C373.062 304.252 374.704 302.641 374.704 300.627ZM731.123 157.056C731.123 155.043 729.512 153.432 727.5 153.432C725.487 153.432 723.877 155.074 723.877 157.056C723.877 159.039 725.487 160.681 727.5 160.681C729.512 160.681 731.123 159.07 731.123 157.056ZM637.118 -7.42717C638.078 -7.70601 638.635 -8.72842 638.356 -9.68886C638.078 -10.6493 637.056 -11.207 636.096 -10.9281C635.136 -10.6493 634.579 -9.62689 634.858 -8.66645C635.136 -7.70601 636.158 -7.14833 637.118 -7.42717ZM713.381 25.7856C714.371 25.7856 715.207 25.011 715.238 24.0196C715.238 23.0282 714.464 22.1917 713.473 22.1607C712.483 22.1297 711.647 22.9352 711.616 23.9267C711.585 24.9181 712.39 25.7546 713.381 25.7856ZM803.143 65.4426C802.772 64.5131 801.719 64.0484 800.79 64.4202C799.861 64.792 799.397 65.8454 799.768 66.7748C800.14 67.7043 801.193 68.169 802.122 67.7972C803.051 67.4254 803.515 66.372 803.143 65.4426ZM634.981 15.0348C634.765 14.0434 633.774 13.4547 632.814 13.6716C631.823 13.8885 631.235 14.8799 631.452 15.8403C631.668 16.8318 632.659 17.4204 633.619 17.2035C634.61 16.9867 635.198 15.9952 634.981 15.0348ZM585.007 41.0597C585.997 41.2456 586.926 40.595 587.112 39.6036C587.298 38.6121 586.648 37.6827 585.657 37.4968C584.666 37.3109 583.737 37.9615 583.551 38.9529C583.365 39.9444 584.016 40.8738 585.007 41.0597ZM538.221 29.3485C538.221 27.3347 536.611 25.7236 534.598 25.7236C532.586 25.7236 530.976 27.3347 530.976 29.3485C530.976 31.3623 532.586 32.9734 534.598 32.9734C536.611 32.9734 538.221 31.3314 538.221 29.3485ZM1012.12 247.803C1013.07 247.524 1013.63 246.502 1013.35 245.541C1013.07 244.581 1012.05 244.023 1011.09 244.302C1010.13 244.581 1009.58 245.603 1009.85 246.564C1010.13 247.524 1011.16 248.082 1012.12 247.803ZM938.949 206.597C939.909 206.318 940.466 205.296 940.187 204.335C939.908 203.375 938.887 202.817 937.927 203.096C936.967 203.375 936.41 204.397 936.688 205.357C936.967 206.318 937.989 206.876 938.949 206.597ZM992.082 162.168C993.042 161.89 993.599 160.867 993.32 159.907C993.042 158.946 992.02 158.389 991.06 158.668C990.1 158.946 989.543 159.969 989.821 160.929C990.1 161.89 991.122 162.447 992.082 162.168ZM953.966 195.505C954.926 195.226 955.483 194.204 955.204 193.243C954.926 192.283 953.904 191.725 952.944 192.004C951.984 192.283 951.427 193.305 951.706 194.266C951.984 195.226 953.006 195.784 953.966 195.505ZM1059.33 -3.74031C1060.32 -3.74031 1061.16 -4.51486 1061.19 -5.50628C1061.22 -6.49771 1060.42 -7.33422 1059.43 -7.36521C1058.44 -7.36521 1057.6 -6.59065 1057.57 -5.59923C1057.57 -4.6078 1058.34 -3.77129 1059.33 -3.74031ZM1038.43 27.6445C1039.42 27.6445 1040.26 26.8699 1040.29 25.8785C1040.29 24.8871 1039.52 24.0506 1038.53 24.0196C1037.54 24.0196 1036.7 24.7941 1036.67 25.7856C1036.67 26.777 1037.44 27.6135 1038.43 27.6445ZM997.005 40.3471C997.996 40.3471 998.832 39.5726 998.863 38.5812C998.863 37.5897 998.089 36.7532 997.098 36.7222C996.107 36.7222 995.271 37.4968 995.24 38.4882C995.24 39.4796 996.014 40.3161 997.005 40.3471ZM953.099 148.815C954.09 149.001 955.019 148.351 955.204 147.359C955.39 146.368 954.74 145.438 953.749 145.252C952.758 145.066 951.829 145.717 951.644 146.708C951.458 147.7 952.108 148.629 953.099 148.815ZM992.298 86.9751C993.289 86.9751 994.125 86.2005 994.156 85.2091C994.156 84.2177 993.382 83.3812 992.391 83.3502C991.4 83.3192 990.565 84.1248 990.534 85.1162C990.503 86.1076 991.308 86.9441 992.298 86.9751ZM921.454 32.7255C922.445 32.7255 923.281 31.951 923.312 30.9596C923.312 29.9681 922.538 29.1316 921.547 29.1006C920.556 29.0697 919.72 29.8752 919.689 30.8666C919.689 31.8581 920.464 32.6946 921.454 32.7255ZM1088.63 132.921C1089.62 132.921 1090.45 132.147 1090.48 131.155C1090.48 130.164 1089.71 129.328 1088.72 129.297C1087.73 129.297 1086.89 130.071 1086.86 131.063C1086.86 132.054 1087.63 132.89 1088.63 132.921ZM1066.55 131.806C1067.54 131.806 1068.38 131.032 1068.41 130.04C1068.44 129.049 1067.63 128.212 1066.64 128.181C1065.65 128.181 1064.81 128.956 1064.78 129.947C1064.78 130.939 1065.56 131.775 1066.55 131.806ZM1082.19 76.2553C1083.18 76.4412 1084.1 75.7906 1084.29 74.7992C1084.48 73.8077 1083.83 72.8783 1082.84 72.6924C1081.84 72.5065 1080.92 73.1571 1080.73 74.1485C1080.54 75.14 1081.19 76.0694 1082.19 76.2553ZM938.329 101.815C939.32 101.815 940.156 101.041 940.187 100.05C940.187 99.0581 939.413 98.2216 938.422 98.1906C937.431 98.1596 936.595 98.9651 936.564 99.9566C936.564 100.948 937.339 101.785 938.329 101.815ZM1042.09 86.9751C1042.09 84.9613 1040.48 83.3502 1038.46 83.3502C1036.45 83.3502 1034.84 84.9613 1034.84 86.9751C1034.84 88.9889 1036.45 90.6 1038.46 90.6C1040.48 90.6 1042.09 88.9889 1042.09 86.9751ZM338.384 365.473C338.384 363.459 336.742 361.848 334.761 361.848C332.779 361.848 331.138 363.459 331.138 365.473C331.138 367.486 332.748 369.098 334.761 369.098C336.773 369.098 338.384 367.455 338.384 365.473ZM211.31 641.585C211.31 639.571 209.7 637.96 207.687 637.96C205.675 637.96 204.065 639.602 204.065 641.585C204.065 643.567 205.675 645.209 207.687 645.209C209.7 645.209 211.31 643.567 211.31 641.585ZM300.856 709.993C300.856 707.979 299.246 706.368 297.233 706.368C295.221 706.368 293.611 707.979 293.611 709.993C293.611 712.007 295.221 713.618 297.233 713.618C299.246 713.618 300.856 712.007 300.856 709.993ZM1447.34 756.156C1447.34 755.165 1446.53 754.328 1445.51 754.328C1444.49 754.328 1443.68 755.134 1443.68 756.156C1443.68 757.178 1444.49 757.984 1445.51 757.984C1446.53 757.984 1447.34 757.178 1447.34 756.156ZM1532.02 783.885C1532.02 782.894 1531.22 782.057 1530.19 782.057C1529.17 782.057 1528.37 782.863 1528.37 783.885C1528.37 784.907 1529.17 785.713 1530.19 785.713C1531.22 785.713 1532.02 784.907 1532.02 783.885ZM1426.68 803.032C1426.68 802.041 1425.88 801.204 1424.86 801.204C1423.83 801.204 1423.03 802.01 1423.03 803.032C1423.03 804.054 1423.83 804.86 1424.86 804.86C1425.88 804.86 1426.68 804.054 1426.68 803.032ZM1287.1 507.866C1288.09 507.866 1288.93 507.091 1288.96 506.1C1288.99 505.109 1288.18 504.272 1287.19 504.241C1286.2 504.241 1285.37 505.016 1285.34 506.007C1285.34 506.999 1286.11 507.835 1287.1 507.866ZM1301.78 460.464C1302.77 460.464 1303.6 459.689 1303.63 458.698C1303.63 457.706 1302.86 456.87 1301.87 456.839C1300.88 456.839 1300.04 457.613 1300.01 458.605C1299.98 459.596 1300.79 460.433 1301.78 460.464ZM1288.93 437.32C1289.92 437.32 1290.75 436.545 1290.79 435.554C1290.79 434.563 1290.01 433.726 1289.02 433.695C1288.03 433.695 1287.19 434.47 1287.16 435.461C1287.16 436.452 1287.94 437.289 1288.93 437.32ZM1386.46 460.433C1387.45 460.618 1388.38 459.968 1388.57 458.976C1388.75 457.985 1388.1 457.055 1387.11 456.87C1386.12 456.684 1385.19 457.334 1385.01 458.326C1384.82 459.317 1385.47 460.247 1386.46 460.433ZM1565.46 605.862C1566.45 605.862 1567.29 605.088 1567.32 604.096C1567.35 603.105 1566.54 602.268 1565.55 602.237C1564.56 602.237 1563.73 603.012 1563.7 604.003C1563.7 604.995 1564.47 605.831 1565.46 605.862ZM1369.77 661.785C1370.76 661.785 1371.6 661.01 1371.63 660.019C1371.66 659.027 1370.86 658.191 1369.87 658.16C1368.87 658.16 1368.04 658.934 1368.01 659.926C1368.01 660.917 1368.78 661.754 1369.77 661.785ZM1325.43 691.744C1326.42 691.93 1327.35 691.28 1327.54 690.288C1327.72 689.297 1327.07 688.367 1326.08 688.181C1325.09 687.996 1324.16 688.646 1323.98 689.638C1323.79 690.629 1324.44 691.559 1325.43 691.744ZM1346.61 680.56C1347.6 680.56 1348.44 679.785 1348.47 678.794C1348.47 677.803 1347.7 676.966 1346.7 676.935C1345.71 676.935 1344.88 677.71 1344.85 678.701C1344.82 679.692 1345.62 680.529 1346.61 680.56ZM1338.96 646.728C1339.95 646.728 1340.79 645.953 1340.82 644.962C1340.82 643.97 1340.05 643.134 1339.06 643.103C1338.07 643.103 1337.23 643.877 1337.2 644.869C1337.2 645.86 1337.97 646.697 1338.96 646.728ZM1499.26 692.643C1500.25 692.829 1501.18 692.178 1501.37 691.187C1501.55 690.195 1500.9 689.266 1499.91 689.08C1498.92 688.894 1497.99 689.545 1497.81 690.536C1497.62 691.528 1498.27 692.457 1499.26 692.643ZM1380.92 709.063C1381.91 709.063 1382.75 708.289 1382.78 707.297C1382.78 706.306 1382 705.469 1381.01 705.439C1380.02 705.439 1379.19 706.213 1379.15 707.204C1379.12 708.196 1379.93 709.032 1380.92 709.063ZM1315.25 302.486C1316.24 302.486 1317.07 301.712 1317.1 300.72C1317.1 299.729 1316.33 298.892 1315.34 298.861C1314.35 298.861 1313.51 299.636 1313.48 300.627C1313.45 301.619 1314.26 302.455 1315.25 302.486ZM1277.81 234.852C1278.8 235.038 1279.73 234.388 1279.92 233.396C1280.1 232.405 1279.45 231.475 1278.46 231.289C1277.47 231.104 1276.54 231.754 1276.36 232.746C1276.17 233.737 1276.82 234.666 1277.81 234.852ZM1539.95 755.939C1539.73 756.931 1540.32 757.891 1541.31 758.139C1542.3 758.356 1543.26 757.767 1543.51 756.776C1543.72 755.784 1543.14 754.824 1542.15 754.576C1541.15 754.359 1540.19 754.948 1539.95 755.939ZM1519.51 706.461C1519.14 707.39 1519.6 708.444 1520.53 708.816C1521.46 709.187 1522.51 708.723 1522.89 707.793C1523.26 706.864 1522.79 705.81 1521.86 705.439C1520.94 705.067 1519.88 705.5 1519.51 706.461ZM1526.2 729.481C1525.98 730.472 1526.57 731.432 1527.56 731.68C1528.55 731.897 1529.51 731.309 1529.76 730.317C1529.98 729.326 1529.39 728.365 1528.4 728.117C1527.41 727.9 1526.45 728.489 1526.2 729.481ZM1491.43 757.395C1491.21 758.387 1491.8 759.347 1492.79 759.595C1493.78 759.812 1494.74 759.223 1494.99 758.232C1495.21 757.24 1494.62 756.28 1493.63 756.032C1492.64 755.815 1491.68 756.404 1491.43 757.395ZM1366.52 566.887C1367.02 568.529 1368.72 569.427 1370.36 568.963C1372 568.467 1372.9 566.763 1372.44 565.121C1371.94 563.479 1370.24 562.58 1368.6 563.045C1366.95 563.541 1366.06 565.245 1366.52 566.887ZM1329.33 554.897C1329.83 556.539 1331.53 557.437 1333.17 556.973C1334.82 556.477 1335.71 554.773 1335.25 553.131C1334.75 551.489 1333.05 550.59 1331.41 551.055C1329.77 551.551 1328.87 553.255 1329.33 554.897ZM1423.46 581.201C1423.96 582.843 1425.66 583.741 1427.3 583.276C1428.94 582.781 1429.84 581.077 1429.38 579.435C1428.88 577.793 1427.18 576.894 1425.54 577.359C1423.9 577.854 1423 579.558 1423.46 581.201ZM1359.25 869.364C1359.25 868.373 1358.44 867.537 1357.42 867.537C1356.4 867.537 1355.59 868.342 1355.59 869.364C1355.59 870.387 1356.4 871.192 1357.42 871.192C1358.44 871.192 1359.25 870.387 1359.25 869.364ZM1326.05 834.293C1326.05 833.301 1325.25 832.465 1324.23 832.465C1323.2 832.465 1322.4 833.27 1322.4 834.293C1322.4 835.315 1323.2 836.121 1324.23 836.121C1325.25 836.121 1326.05 835.315 1326.05 834.293ZM1274.62 841.976C1274.62 840.985 1273.82 840.148 1272.8 840.148C1271.77 840.148 1270.97 840.954 1270.97 841.976C1270.97 842.999 1271.77 843.804 1272.8 843.804C1273.82 843.804 1274.62 842.999 1274.62 841.976ZM1375.66 900.439C1375.66 899.448 1374.85 898.612 1373.83 898.612C1372.81 898.612 1372 899.417 1372 900.439C1372 901.462 1372.81 902.267 1373.83 902.267C1374.85 902.267 1375.66 901.462 1375.66 900.439ZM1305.46 934.334C1305.46 933.342 1304.66 932.506 1303.63 932.506C1302.61 932.506 1301.81 933.311 1301.81 934.334C1301.81 935.356 1302.61 936.162 1303.63 936.162C1304.66 936.162 1305.46 935.356 1305.46 934.334ZM1433.77 886.931C1434.73 886.652 1435.29 885.63 1435.01 884.67C1434.73 883.709 1433.71 883.152 1432.75 883.43C1431.79 883.709 1431.23 884.732 1431.51 885.692C1431.79 886.653 1432.81 887.21 1433.77 886.931ZM1411.08 880.952C1412.04 880.673 1412.59 879.651 1412.32 878.69C1412.04 877.73 1411.02 877.172 1410.06 877.451C1409.1 877.73 1408.54 878.752 1408.82 879.712C1409.1 880.673 1410.12 881.231 1411.08 880.952ZM1400.89 846.097C1401.85 845.818 1402.41 844.796 1402.13 843.835C1401.85 842.875 1400.83 842.317 1399.87 842.596C1398.91 842.875 1398.35 843.897 1398.63 844.858C1398.91 845.818 1399.93 846.376 1400.89 846.097ZM1288.15 760.865C1288.15 759.874 1287.35 759.037 1286.33 759.037C1285.3 759.037 1284.5 759.843 1284.5 760.865C1284.5 761.888 1285.3 762.693 1286.33 762.693C1287.35 762.693 1288.15 761.888 1288.15 760.865ZM1372.16 791.476C1373.12 791.197 1373.67 790.174 1373.4 789.214C1373.12 788.254 1372.09 787.696 1371.13 787.975C1370.18 788.254 1369.62 789.276 1369.9 790.236C1370.18 791.197 1371.2 791.755 1372.16 791.476ZM1327.88 728.458C1328.84 728.179 1329.4 727.157 1329.12 726.196C1328.84 725.236 1327.82 724.678 1326.86 724.957C1325.9 725.236 1325.34 726.258 1325.62 727.219C1325.9 728.179 1326.92 728.737 1327.88 728.458ZM1567.88 687.841C1567.66 686.849 1566.67 686.261 1565.71 686.477C1564.72 686.694 1564.13 687.686 1564.35 688.646C1564.56 689.638 1565.55 690.226 1566.51 690.009C1567.5 689.793 1568.09 688.801 1567.88 687.841ZM1443.71 203.313C1443.9 202.321 1443.25 201.392 1442.26 201.206C1441.27 201.02 1440.34 201.671 1440.15 202.662C1439.97 203.653 1440.62 204.583 1441.61 204.769C1442.6 204.955 1443.53 204.304 1443.71 203.313ZM1375.41 378.144C1375.41 377.153 1374.6 376.316 1373.58 376.316C1372.56 376.316 1371.75 377.122 1371.75 378.144C1371.75 379.167 1372.56 379.972 1373.58 379.972C1374.6 379.972 1375.41 379.167 1375.41 378.144ZM1371.26 315.808C1371.26 314.817 1370.45 313.98 1369.43 313.98C1368.41 313.98 1367.61 314.786 1367.61 315.808C1367.61 316.831 1368.41 317.636 1369.43 317.636C1370.45 317.636 1371.26 316.831 1371.26 315.808ZM1359.06 334.088C1359.06 333.096 1358.25 332.26 1357.23 332.26C1356.21 332.26 1355.41 333.065 1355.41 334.088C1355.41 335.11 1356.21 335.916 1357.23 335.916C1358.25 335.916 1359.06 335.11 1359.06 334.088ZM1359.15 397.663C1358.94 396.671 1357.94 396.083 1356.98 396.3C1355.99 396.517 1355.41 397.508 1355.62 398.468C1355.84 399.46 1356.83 400.049 1357.79 399.832C1358.78 399.615 1359.37 398.623 1359.15 397.663ZM1340.51 382.637C1340.14 381.707 1339.09 381.242 1338.16 381.614C1337.23 381.986 1336.77 383.039 1337.14 383.969C1337.51 384.898 1338.56 385.363 1339.49 384.991C1340.42 384.62 1340.88 383.566 1340.51 382.637ZM1539.11 137.476C1540.1 137.476 1540.94 136.701 1540.97 135.71C1540.97 134.718 1540.19 133.882 1539.2 133.851C1538.21 133.851 1537.38 134.625 1537.35 135.617C1537.35 136.608 1538.12 137.445 1539.11 137.476ZM1593.14 189.959C1594.13 189.959 1594.97 189.185 1595 188.193C1595 187.202 1594.23 186.365 1593.24 186.334C1592.24 186.334 1591.41 187.109 1591.38 188.1C1591.38 189.092 1592.15 189.928 1593.14 189.959ZM1567.26 247.772C1568.25 247.958 1569.18 247.307 1569.36 246.316C1569.55 245.324 1568.9 244.395 1567.91 244.209C1566.92 244.023 1565.99 244.674 1565.8 245.665C1565.62 246.657 1566.27 247.586 1567.26 247.772ZM1536.32 217.812C1537.32 217.812 1538.15 217.038 1538.18 216.046C1538.18 215.055 1537.41 214.218 1536.42 214.187C1535.43 214.187 1534.59 214.962 1534.56 215.953C1534.53 216.945 1535.33 217.781 1536.32 217.812ZM1534.5 251.428C1535.49 251.428 1536.32 250.653 1536.36 249.662C1536.39 248.67 1535.58 247.834 1534.59 247.803C1533.6 247.772 1532.76 248.577 1532.73 249.569C1532.73 250.56 1533.51 251.397 1534.5 251.428ZM1487.56 444.136C1488.55 444.136 1489.38 443.361 1489.42 442.37C1489.45 441.379 1488.64 440.542 1487.65 440.511C1486.66 440.511 1485.82 441.286 1485.79 442.277C1485.79 443.269 1486.57 444.105 1487.56 444.136ZM1503.66 501.948C1504.65 502.134 1505.58 501.484 1505.76 500.492C1505.95 499.501 1505.3 498.571 1504.31 498.386C1503.32 498.2 1502.39 498.85 1502.2 499.842C1502.02 500.833 1502.67 501.763 1503.66 501.948ZM1430.74 471.989C1431.73 471.989 1432.57 471.214 1432.6 470.223C1432.6 469.231 1431.82 468.395 1430.83 468.364C1429.84 468.364 1429.01 469.138 1428.97 470.13C1428.97 471.121 1429.75 471.958 1430.74 471.989ZM1540.13 470.161C1541.12 470.161 1541.96 469.386 1541.99 468.395C1542.02 467.403 1541.22 466.567 1540.23 466.536C1539.24 466.536 1538.4 467.311 1538.37 468.302C1538.37 469.293 1539.14 470.13 1540.13 470.161ZM1475.23 456.932C1476.22 456.932 1477.06 456.157 1477.09 455.166C1477.09 454.174 1476.32 453.338 1475.33 453.307C1474.34 453.276 1473.5 454.081 1473.47 455.073C1473.47 456.064 1474.24 456.901 1475.23 456.932ZM1557.13 535.595C1558.12 535.595 1558.96 534.82 1558.99 533.829C1558.99 532.838 1558.22 532.001 1557.22 531.97C1556.23 531.97 1555.4 532.745 1555.37 533.736C1555.34 534.727 1556.14 535.564 1557.13 535.595ZM1500.31 563.448C1501.3 563.448 1502.14 562.673 1502.17 561.682C1502.2 560.69 1501.4 559.854 1500.41 559.823C1499.42 559.823 1498.58 560.597 1498.55 561.589C1498.55 562.58 1499.32 563.417 1500.31 563.448ZM1444.02 550.218C1445.01 550.218 1445.85 549.444 1445.88 548.453C1445.88 547.461 1445.11 546.625 1444.12 546.594C1443.12 546.594 1442.29 547.368 1442.26 548.36C1442.26 549.351 1443.03 550.188 1444.02 550.218ZM1515.39 468.333C1516.38 468.333 1517.22 467.558 1517.25 466.567C1517.28 465.576 1516.48 464.739 1515.49 464.708C1514.5 464.708 1513.66 465.483 1513.63 466.474C1513.63 467.465 1514.4 468.302 1515.39 468.333ZM1524.68 333.623C1525.64 333.344 1526.2 332.322 1525.92 331.361C1525.64 330.401 1524.62 329.843 1523.66 330.122C1522.7 330.401 1522.14 331.423 1522.42 332.384C1522.7 333.344 1523.72 333.902 1524.68 333.623ZM1458.23 331.795C1459.19 331.516 1459.75 330.494 1459.47 329.533C1459.19 328.573 1458.17 328.015 1457.21 328.294C1456.25 328.573 1455.7 329.595 1455.97 330.556C1456.25 331.516 1457.28 332.074 1458.23 331.795ZM1577.69 326.466C1577.32 325.537 1576.27 325.072 1575.34 325.444C1574.41 325.816 1573.94 326.869 1574.32 327.798C1574.69 328.728 1575.74 329.193 1576.67 328.821C1577.6 328.449 1578.06 327.396 1577.69 326.466ZM1555.09 309.953C1554.87 308.961 1553.88 308.373 1552.92 308.59C1551.93 308.806 1551.34 309.798 1551.56 310.758C1551.78 311.75 1552.77 312.338 1553.73 312.122C1554.72 311.905 1555.3 310.913 1555.09 309.953ZM1557.13 116.842C1558.12 116.842 1558.96 116.067 1558.99 115.076C1558.99 114.084 1558.22 113.248 1557.22 113.217C1556.23 113.217 1555.4 113.991 1555.37 114.983C1555.37 115.974 1556.14 116.811 1557.13 116.842ZM1554.84 22.0677C1555.83 22.0677 1556.67 21.2932 1556.7 20.3018C1556.7 19.3103 1555.92 18.4738 1554.93 18.4428C1553.94 18.4118 1553.11 19.2174 1553.08 20.2088C1553.04 21.2002 1553.85 22.0367 1554.84 22.0677ZM1398.48 232.188C1399.47 232.188 1400.3 231.413 1400.33 230.422C1400.33 229.431 1399.56 228.594 1398.57 228.563C1397.58 228.563 1396.74 229.338 1396.71 230.329C1396.71 231.32 1397.48 232.157 1398.48 232.188ZM1444.02 159.969C1445.01 159.969 1445.85 159.194 1445.88 158.203C1445.88 157.211 1445.11 156.375 1444.12 156.344C1443.12 156.313 1442.29 157.118 1442.26 158.11C1442.26 159.101 1443.03 159.938 1444.02 159.969ZM1451.36 39.6965C1452.35 39.6965 1453.19 38.922 1453.22 37.9305C1453.22 36.9391 1452.44 36.1026 1451.45 36.0716C1450.46 36.0406 1449.63 36.8462 1449.6 37.8376C1449.6 38.829 1450.37 39.6655 1451.36 39.6965ZM1329.18 149.869C1330.17 149.869 1331.01 149.094 1331.04 148.103C1331.04 147.111 1330.26 146.275 1329.27 146.244C1328.28 146.244 1327.45 147.018 1327.41 148.01C1327.38 149.001 1328.19 149.838 1329.18 149.869ZM1296.82 85.0852C1297.81 85.0852 1298.65 84.3106 1298.68 83.3192C1298.68 82.3278 1297.91 81.4913 1296.92 81.4603C1295.93 81.4603 1295.09 82.2348 1295.06 83.2263C1295.03 84.2177 1295.83 85.0542 1296.82 85.0852ZM1306.05 168.675C1307.04 168.675 1307.88 167.9 1307.91 166.909C1307.91 165.917 1307.13 165.081 1306.14 165.05C1305.15 165.05 1304.32 165.824 1304.29 166.816C1304.25 167.807 1305.06 168.644 1306.05 168.675ZM1389.22 16.5219C1390.18 16.2431 1390.73 15.2207 1390.46 14.2603C1390.18 13.2998 1389.16 12.7421 1388.2 13.021C1387.24 13.2998 1386.68 14.3222 1386.96 15.2827C1387.24 16.2431 1388.26 16.8008 1389.22 16.5219ZM1366.21 10.5734C1367.17 10.2946 1367.73 9.27215 1367.45 8.31171C1367.17 7.35126 1366.15 6.79359 1365.19 7.07242C1364.23 7.35126 1363.67 8.37367 1363.95 9.33411C1364.23 10.2946 1365.25 10.8522 1366.21 10.5734ZM1432.29 98.8722C1432.29 96.8584 1430.68 95.2473 1428.66 95.2473C1426.65 95.2473 1425.04 96.8584 1425.04 98.8722C1425.04 100.886 1426.65 102.497 1428.66 102.497C1430.68 102.497 1432.29 100.886 1432.29 98.8722ZM1466.78 189.928C1466.78 187.915 1465.17 186.304 1463.16 186.304C1461.15 186.304 1459.54 187.946 1459.54 189.928C1459.54 191.911 1461.15 193.553 1463.16 193.553C1465.17 193.553 1466.78 191.942 1466.78 189.928ZM1508.92 593.469C1508.92 591.456 1507.31 589.844 1505.3 589.844C1503.29 589.844 1501.68 591.487 1501.68 593.469C1501.68 595.452 1503.29 597.094 1505.3 597.094C1507.31 597.094 1508.92 595.483 1508.92 593.469ZM1516.2 651.003C1516.2 648.989 1514.56 647.378 1512.58 647.378C1510.59 647.378 1508.95 648.989 1508.95 651.003C1508.95 653.017 1510.56 654.628 1512.58 654.628C1514.59 654.628 1516.2 653.017 1516.2 651.003ZM1424.42 618.689C1424.42 616.675 1422.81 615.064 1420.8 615.064C1418.79 615.064 1417.18 616.706 1417.18 618.689C1417.18 620.672 1418.79 622.314 1420.8 622.314C1422.81 622.314 1424.42 620.703 1424.42 618.689ZM1576.73 709.9C1576.73 707.886 1575.12 706.275 1573.11 706.275C1571.1 706.275 1569.49 707.886 1569.49 709.9C1569.49 711.914 1571.1 713.525 1573.11 713.525C1575.12 713.525 1576.73 711.914 1576.73 709.9ZM1166.56 191.57C1169.53 191.57 1171.95 189.154 1171.95 186.18C1171.95 183.205 1169.53 180.789 1166.56 180.789C1163.59 180.789 1161.17 183.205 1161.17 186.18C1161.17 189.154 1163.59 191.57 1166.56 191.57Z" fill="url(#paint0_linear_325_89)"/>
</g>
</g>
<defs>
<linearGradient id="paint0_linear_325_89" x1="795.093" y1="988.893" x2="795.093" y2="-10.9901" gradientUnits="userSpaceOnUse">
<stop offset="0.28" stop-color="white" stop-opacity="0.17"/>
<stop offset="1" stop-color="white"/>
</linearGradient>
<clipPath id="clip0_325_89">
<rect width="1637" height="977" fill="white"/>
</clipPath>
</defs>
</svg>
