<svg width="41" height="163" viewBox="0 0 41 163" fill="none" xmlns="http://www.w3.org/2000/svg">
<path d="M8.95703 157.744C9.31641 157.975 9.60352 158.291 9.81836 158.693C10.0293 159.092 10.1348 159.566 10.1348 160.117C10.1348 160.543 10.0645 160.934 9.92383 161.289C9.7832 161.645 9.58789 161.949 9.33789 162.203C9.08398 162.453 8.7832 162.648 8.43555 162.789C8.08789 162.93 7.70117 163 7.27539 163C6.86133 163 6.47852 162.936 6.12695 162.807C5.77148 162.678 5.46875 162.494 5.21875 162.256C4.96484 162.018 4.76758 161.727 4.62695 161.383C4.48242 161.035 4.41016 160.65 4.41016 160.229C4.41016 160.061 4.42969 159.889 4.46875 159.713C4.50781 159.537 4.56836 159.371 4.65039 159.215C4.72852 159.059 4.82422 158.918 4.9375 158.793C5.04687 158.668 5.17773 158.574 5.33008 158.512L4.53906 158.512L4.53906 157.791L6.72461 157.791L6.72461 158.512C6.48242 158.512 6.26172 158.557 6.0625 158.646C5.86328 158.732 5.69141 158.852 5.54687 159.004C5.40234 159.156 5.29102 159.338 5.21289 159.549C5.13086 159.76 5.08984 159.986 5.08984 160.229C5.08984 160.557 5.14648 160.844 5.25977 161.09C5.37305 161.332 5.52734 161.535 5.72266 161.699C5.91797 161.863 6.14844 161.988 6.41406 162.074C6.67578 162.156 6.96289 162.197 7.27539 162.197C7.58789 162.197 7.87695 162.15 8.14258 162.057C8.4043 161.959 8.63086 161.82 8.82227 161.641C9.01367 161.457 9.16602 161.238 9.2793 160.984C9.39258 160.727 9.44922 160.437 9.44922 160.117C9.44922 159.711 9.36914 159.35 9.20898 159.033C9.04883 158.717 8.83594 158.475 8.57031 158.307L8.95703 157.744ZM7.28711 150.848C7.71289 150.848 8.09961 150.916 8.44727 151.053C8.79492 151.186 9.09375 151.379 9.34375 151.633C9.58984 151.883 9.7832 152.184 9.92383 152.535C10.0645 152.887 10.1348 153.279 10.1348 153.713C10.1348 154.139 10.0645 154.527 9.92383 154.879C9.7832 155.23 9.58984 155.533 9.34375 155.787C9.09375 156.037 8.79492 156.23 8.44727 156.367C8.09961 156.5 7.71289 156.566 7.28711 156.566C6.87305 156.566 6.48828 156.5 6.13281 156.367C5.77344 156.23 5.46875 156.037 5.21875 155.787C4.96484 155.533 4.76758 155.23 4.62695 154.879C4.48242 154.527 4.41016 154.139 4.41016 153.713C4.41016 153.279 4.48242 152.887 4.62695 152.535C4.76758 152.184 4.96484 151.883 5.21875 151.633C5.46875 151.379 5.77344 151.186 6.13281 151.053C6.48828 150.916 6.87305 150.848 7.28711 150.848ZM7.28711 151.65C6.97461 151.65 6.6875 151.697 6.42578 151.791C6.16016 151.881 5.92773 152.016 5.72852 152.195C5.5293 152.375 5.37305 152.594 5.25977 152.852C5.14648 153.105 5.08984 153.393 5.08984 153.713C5.08984 154.033 5.14648 154.322 5.25977 154.58C5.37305 154.834 5.5293 155.049 5.72852 155.225C5.92773 155.4 6.16016 155.535 6.42578 155.629C6.6875 155.719 6.97461 155.764 7.28711 155.764C7.59961 155.764 7.88867 155.719 8.1543 155.629C8.41602 155.535 8.64258 155.4 8.83398 155.225C9.02539 155.049 9.17578 154.834 9.28516 154.58C9.39453 154.322 9.44922 154.033 9.44922 153.713C9.44922 153.393 9.39453 153.105 9.28516 152.852C9.17578 152.594 9.02539 152.375 8.83398 152.195C8.64258 152.016 8.41602 151.881 8.1543 151.791C7.88867 151.697 7.59961 151.65 7.28711 151.65ZM10 144.725L10 145.533L9.49609 145.533C9.70312 145.764 9.86133 146.018 9.9707 146.295C10.0801 146.568 10.1348 146.85 10.1348 147.139C10.1348 147.572 10.0645 147.961 9.92383 148.305C9.7832 148.648 9.58789 148.939 9.33789 149.178C9.08398 149.412 8.78125 149.594 8.42969 149.723C8.07812 149.848 7.69336 149.91 7.27539 149.91C6.86133 149.91 6.47852 149.848 6.12695 149.723C5.77148 149.594 5.46875 149.412 5.21875 149.178C4.96484 148.939 4.76758 148.648 4.62695 148.305C4.48242 147.961 4.41016 147.572 4.41016 147.139C4.41016 146.85 4.46289 146.568 4.56836 146.295C4.66992 146.018 4.82422 145.764 5.03125 145.533L3.03906 145.533L3.03906 146.623L2.35351 146.623L2.35351 144.725L10 144.725ZM5.81055 145.533C5.55664 145.764 5.37305 146.016 5.25976 146.289C5.14648 146.559 5.08984 146.846 5.08984 147.15C5.08984 147.471 5.14648 147.754 5.25976 148C5.37305 148.242 5.52734 148.445 5.72266 148.609C5.91797 148.773 6.14844 148.898 6.41406 148.984C6.67578 149.066 6.96289 149.107 7.27539 149.107C7.58789 149.107 7.87695 149.066 8.14258 148.984C8.4043 148.898 8.63281 148.773 8.82812 148.609C9.02344 148.445 9.17773 148.242 9.29101 148C9.4043 147.754 9.46094 147.471 9.46094 147.15C9.46094 146.533 9.2168 145.994 8.72851 145.533L5.81055 145.533ZM7.55078 142.545C8.12891 142.486 8.58984 142.275 8.93359 141.912C9.27734 141.549 9.44922 141.076 9.44922 140.494C9.44922 140.084 9.36523 139.719 9.19726 139.398C9.0293 139.078 8.82031 138.838 8.57031 138.678L8.95703 138.115C9.33984 138.389 9.63281 138.715 9.83594 139.094C10.0352 139.473 10.1348 139.939 10.1348 140.494C10.1348 140.916 10.0645 141.303 9.92383 141.654C9.7832 142.006 9.58789 142.311 9.33789 142.568C9.08398 142.822 8.7832 143.02 8.43555 143.16C8.08789 143.301 7.70117 143.371 7.27539 143.371C6.86133 143.371 6.48047 143.309 6.13281 143.184C5.78125 143.055 5.47851 142.871 5.22461 142.633C4.9668 142.391 4.76758 142.098 4.62695 141.754C4.48242 141.41 4.41016 141.025 4.41016 140.6C4.41016 140.135 4.48828 139.729 4.64453 139.381C4.80078 139.033 5.01758 138.744 5.29492 138.514C5.56836 138.279 5.89648 138.107 6.2793 137.998C6.66211 137.885 7.08594 137.828 7.55078 137.828L7.55078 142.545ZM6.86523 138.678C6.26758 138.768 5.82226 138.984 5.5293 139.328C5.23633 139.672 5.08984 140.096 5.08984 140.6C5.08984 140.857 5.13281 141.096 5.21875 141.314C5.30078 141.533 5.41992 141.727 5.57617 141.895C5.73242 142.062 5.92187 142.203 6.14453 142.316C6.36328 142.43 6.60351 142.502 6.86523 142.533L6.86523 138.678ZM5.63476 133.521L5.63476 134.611L4.53906 134.611L4.53906 133.521L5.63476 133.521ZM10 133.521L10 134.611L8.91016 134.611L8.91015 133.521L10 133.521ZM6.18555 129.637C6.75195 129.637 7.2832 129.568 7.7793 129.432L4 125.852C3.64844 126.039 3.3789 126.271 3.1914 126.549C3.0039 126.822 2.91015 127.143 2.91015 127.51C2.91015 128.197 3.20312 128.725 3.78906 129.092C4.37109 129.455 5.16992 129.637 6.18555 129.637ZM8.42969 129.156C9.11719 128.77 9.46094 128.221 9.46094 127.51C9.46094 126.838 9.16992 126.316 8.58789 125.945C8.00195 125.574 7.20117 125.389 6.18555 125.389C5.9043 125.389 5.63867 125.406 5.38867 125.441C5.13476 125.477 4.89258 125.525 4.66211 125.588L8.42969 129.156ZM6.18555 130.439C5.67383 130.439 5.17969 130.385 4.70312 130.275C4.22656 130.166 3.80469 129.996 3.4375 129.766C3.07031 129.535 2.77734 129.234 2.55859 128.863C2.33594 128.488 2.22461 128.037 2.22461 127.51C2.22461 126.982 2.33594 126.533 2.55859 126.162C2.77734 125.787 3.07031 125.482 3.4375 125.248C3.80469 125.014 4.22656 124.844 4.70312 124.738C5.17969 124.633 5.67383 124.58 6.18555 124.58C6.69726 124.58 7.1914 124.633 7.66797 124.738C8.14453 124.844 8.56445 125.012 8.92773 125.242C9.29101 125.473 9.58398 125.775 9.80664 126.15C10.0254 126.521 10.1348 126.975 10.1348 127.51C10.1348 128.045 10.0254 128.5 9.80664 128.875C9.58398 129.246 9.29101 129.549 8.92773 129.783C8.56445 130.014 8.14453 130.18 7.66797 130.281C7.1914 130.387 6.69726 130.439 6.18555 130.439ZM10 120.42L10 121.51L8.91015 121.51L8.91015 120.42L10 120.42ZM6.18554 116.535C6.75195 116.535 7.2832 116.467 7.77929 116.33L4 112.75C3.64844 112.937 3.3789 113.17 3.1914 113.447C3.0039 113.721 2.91015 114.041 2.91015 114.408C2.91015 115.096 3.20312 115.623 3.78906 115.99C4.37109 116.354 5.16992 116.535 6.18554 116.535ZM8.42969 116.055C9.11719 115.668 9.46094 115.119 9.46094 114.408C9.46094 113.736 9.16992 113.215 8.58789 112.844C8.00195 112.473 7.20117 112.287 6.18554 112.287C5.90429 112.287 5.63867 112.305 5.38867 112.34C5.13476 112.375 4.89258 112.424 4.66211 112.486L8.42969 116.055ZM6.18554 117.338C5.67383 117.338 5.17969 117.283 4.70312 117.174C4.22656 117.064 3.80469 116.895 3.4375 116.664C3.07031 116.434 2.77734 116.133 2.55859 115.762C2.33594 115.387 2.22461 114.936 2.22461 114.408C2.22461 113.881 2.33594 113.432 2.55859 113.061C2.77734 112.686 3.07031 112.381 3.4375 112.146C3.80469 111.912 4.22656 111.742 4.70312 111.637C5.17969 111.531 5.67383 111.479 6.18554 111.479C6.69726 111.479 7.1914 111.531 7.66797 111.637C8.14453 111.742 8.56445 111.91 8.92773 112.141C9.29101 112.371 9.58398 112.674 9.80664 113.049C10.0254 113.42 10.1348 113.873 10.1348 114.408C10.1348 114.943 10.0254 115.398 9.80664 115.773C9.58398 116.145 9.29101 116.447 8.92773 116.682C8.56445 116.912 8.14453 117.078 7.66797 117.18C7.1914 117.285 6.69726 117.338 6.18554 117.338ZM10 106.229L10 109.504L9.31445 109.504L9.31445 108.268L4.09375 108.268C4.2539 108.338 4.42578 108.449 4.60937 108.602C4.78906 108.754 4.95508 108.934 5.10742 109.141C5.25586 109.348 5.38086 109.576 5.48242 109.826C5.58398 110.072 5.63476 110.328 5.63476 110.594L4.80273 110.594C4.80273 110.355 4.72851 110.1 4.58008 109.826C4.43164 109.553 4.24219 109.301 4.01172 109.07C3.78125 108.84 3.51953 108.648 3.22656 108.496C2.93359 108.344 2.64258 108.268 2.35351 108.268L2.35351 107.459L9.31445 107.459L9.31445 106.229L10 106.229ZM7.53906 98.582L7.53906 104.043L6.85351 104.043L6.85351 98.582L7.53906 98.582ZM3.44922 87.666L3.44922 88.7559L2.35351 88.7559L2.35351 87.666L3.44922 87.666ZM10 86.5762L10 89.8516L9.31445 89.8516L9.31445 88.6152L5.22461 88.6152L5.22461 89.8516L4.53906 89.8516L4.53906 87.8066L9.31445 87.8066L9.31445 86.5762L10 86.5762ZM10 79.2168L10 80.0254L6.63086 80.0254C6.14257 80.0254 5.76367 80.1309 5.49414 80.3418C5.22461 80.5527 5.08984 80.8945 5.08984 81.3672C5.08984 81.6641 5.1582 81.9336 5.29492 82.1758C5.43164 82.4141 5.61523 82.6172 5.8457 82.7852C6.07226 82.9531 6.33398 83.082 6.63086 83.1719C6.92382 83.2578 7.23047 83.3008 7.55078 83.3008L10 83.3008L10 84.1035L4.53906 84.1035L4.53906 83.3008L5.91015 83.3008C4.91015 82.9141 4.41015 82.2246 4.41015 81.2324C4.41015 79.8887 5.15039 79.2168 6.63086 79.2168L10 79.2168ZM8.25976 72.3203C8.83398 72.3828 9.29101 72.6094 9.63086 73C9.96679 73.3867 10.1348 73.8711 10.1348 74.4531C10.1348 74.7734 10.082 75.0664 9.97656 75.332C9.87109 75.5977 9.72461 75.8242 9.53711 76.0117C9.34961 76.1992 9.125 76.3457 8.86328 76.4512C8.59765 76.5527 8.30859 76.6035 7.99609 76.6035L5.22461 76.6035L5.22461 77.8398L4.53906 77.8398L4.53906 76.6035L2.35351 76.6035L2.35351 75.8008L4.53906 75.8008L4.53906 73.4746L5.22461 73.4746L5.22461 75.8008L7.99609 75.8008C8.19531 75.8008 8.38281 75.7695 8.55859 75.707C8.73437 75.6406 8.88867 75.5508 9.02148 75.4375C9.15429 75.3203 9.25976 75.1797 9.33789 75.0156C9.41211 74.8516 9.44921 74.6641 9.44921 74.4531C9.44921 74.0547 9.32617 73.7227 9.08007 73.457C8.83007 73.1875 8.50781 73.0332 8.11328 72.9941L8.25976 72.3203ZM5.30664 66.127C5.16211 66.416 5.08984 66.7598 5.08984 67.1582C5.08984 67.4863 5.16015 67.7793 5.30078 68.0371C5.4414 68.2949 5.62695 68.5137 5.85742 68.6934C6.08398 68.873 6.3457 69.0117 6.64257 69.1094C6.93554 69.2031 7.23828 69.25 7.55078 69.25L9.31445 69.25L9.31445 68.0137L10 68.0137L10 71.2891L9.31445 71.2891L9.31445 70.0527L5.22461 70.0527L5.22461 71.2891L4.53906 71.2891L4.53906 69.25L5.91015 69.25C4.91015 68.8828 4.41015 68.1855 4.41015 67.1582C4.41015 66.8809 4.42773 66.6406 4.46289 66.4375C4.49804 66.2305 4.56054 66.0391 4.65039 65.8633L5.30664 66.127ZM7.2871 59.1367C7.71289 59.1367 8.0996 59.2051 8.44726 59.3418C8.79492 59.4746 9.09375 59.668 9.34375 59.9219C9.58984 60.1719 9.7832 60.4727 9.92382 60.8242C10.0644 61.1758 10.1348 61.5684 10.1348 62.002C10.1348 62.4277 10.0644 62.8164 9.92382 63.168C9.7832 63.5195 9.58984 63.8223 9.34375 64.0762C9.09375 64.3262 8.79492 64.5195 8.44726 64.6562C8.09961 64.7891 7.71289 64.8555 7.28711 64.8555C6.87304 64.8555 6.48828 64.7891 6.13281 64.6562C5.77343 64.5195 5.46875 64.3262 5.21875 64.0762C4.96484 63.8223 4.76757 63.5195 4.62695 63.168C4.48242 62.8164 4.41015 62.4277 4.41015 62.002C4.41015 61.5684 4.48242 61.1758 4.62695 60.8242C4.76757 60.4727 4.96484 60.1719 5.21875 59.9219C5.46875 59.668 5.77343 59.4746 6.13281 59.3418C6.48828 59.2051 6.87304 59.1367 7.2871 59.1367ZM7.2871 59.9395C6.9746 59.9395 6.6875 59.9863 6.42578 60.0801C6.16015 60.1699 5.92773 60.3047 5.72851 60.4844C5.52929 60.6641 5.37304 60.8828 5.25976 61.1406C5.14648 61.3945 5.08984 61.6816 5.08984 62.002C5.08984 62.3223 5.14648 62.6113 5.25976 62.8691C5.37304 63.123 5.52929 63.3379 5.72851 63.5137C5.92773 63.6895 6.16015 63.8242 6.42578 63.918C6.6875 64.0078 6.97461 64.0527 7.28711 64.0527C7.59961 64.0527 7.88867 64.0078 8.15429 63.918C8.41601 63.8242 8.64257 63.6895 8.83398 63.5137C9.02539 63.3379 9.17578 63.123 9.28515 62.8691C9.39453 62.6113 9.44921 62.3223 9.44921 62.002C9.44921 61.6816 9.39453 61.3945 9.28515 61.1406C9.17578 60.8828 9.02539 60.6641 8.83398 60.4844C8.64257 60.3047 8.41601 60.1699 8.15429 60.0801C7.88867 59.9863 7.5996 59.9395 7.2871 59.9395ZM10 53.0137L10 53.8223L9.49609 53.8223C9.70312 54.0527 9.86132 54.3066 9.9707 54.584C10.0801 54.8574 10.1348 55.1387 10.1348 55.4277C10.1348 55.8613 10.0644 56.25 9.92382 56.5937C9.7832 56.9375 9.58789 57.2285 9.33789 57.4668C9.08398 57.7012 8.78125 57.8828 8.42968 58.0117C8.07812 58.1367 7.69335 58.1992 7.27539 58.1992C6.86132 58.1992 6.47851 58.1367 6.12695 58.0117C5.77148 57.8828 5.46875 57.7012 5.21875 57.4668C4.96484 57.2285 4.76757 56.9375 4.62695 56.5937C4.48242 56.25 4.41015 55.8613 4.41015 55.4277C4.41015 55.1387 4.46289 54.8574 4.56835 54.584C4.66992 54.3066 4.82421 54.0527 5.03125 53.8223L3.03906 53.8223L3.03906 54.9121L2.35351 54.9121L2.35351 53.0137L10 53.0137ZM5.81054 53.8223C5.55664 54.0527 5.37304 54.3047 5.25976 54.5781C5.14648 54.8477 5.08984 55.1348 5.08984 55.4395C5.08984 55.7598 5.14648 56.043 5.25976 56.2891C5.37304 56.5312 5.52734 56.7344 5.72265 56.8984C5.91796 57.0625 6.14843 57.1875 6.41406 57.2734C6.67578 57.3555 6.96289 57.3965 7.27539 57.3965C7.58789 57.3965 7.87695 57.3555 8.14257 57.2734C8.40429 57.1875 8.63281 57.0625 8.82812 56.8984C9.02343 56.7344 9.17773 56.5312 9.29101 56.2891C9.40429 56.043 9.46093 55.7598 9.46093 55.4395C9.46093 54.8223 9.21679 54.2832 8.72851 53.8223L5.81054 53.8223ZM4.53906 51.3496L4.53906 50.5469L7.91406 50.5469C8.40234 50.5469 8.78125 50.4414 9.05078 50.2305C9.3164 50.0156 9.44921 49.6719 9.44921 49.1992C9.44921 48.9023 9.38085 48.6348 9.24414 48.3965C9.10742 48.1582 8.92578 47.9551 8.69921 47.7871C8.46874 47.6191 8.20703 47.4922 7.91406 47.4062C7.61718 47.3164 7.30859 47.2715 6.98828 47.2715L4.53906 47.2715L4.53906 46.4629L9.99999 46.4629L9.99999 47.2715L8.63476 47.2715C9.63476 47.6543 10.1348 48.3418 10.1348 49.334C10.1348 50.6777 9.39453 51.3496 7.91406 51.3496L4.53906 51.3496ZM8.95703 39.8301C9.3164 40.0605 9.60351 40.377 9.81835 40.7793C10.0293 41.1777 10.1348 41.6523 10.1348 42.2031C10.1348 42.6289 10.0644 43.0195 9.92382 43.375C9.7832 43.7305 9.58789 44.0352 9.33789 44.2891C9.08398 44.5391 8.7832 44.7344 8.43554 44.875C8.08789 45.0156 7.70117 45.0859 7.27539 45.0859C6.86132 45.0859 6.47851 45.0215 6.12695 44.8926C5.77148 44.7637 5.46874 44.5801 5.21874 44.3418C4.96484 44.1035 4.76757 43.8125 4.62695 43.4687C4.48242 43.1211 4.41015 42.7363 4.41015 42.3145C4.41015 42.1465 4.42968 41.9746 4.46874 41.7988C4.50781 41.623 4.56835 41.457 4.65039 41.3008C4.72851 41.1445 4.82421 41.0039 4.93749 40.8789C5.04687 40.7539 5.17773 40.6602 5.33007 40.5977L4.53906 40.5977L4.53906 39.877L6.7246 39.877L6.7246 40.5977C6.48242 40.5977 6.26171 40.6426 6.06249 40.7324C5.86328 40.8184 5.6914 40.9375 5.54687 41.0898C5.40234 41.2422 5.29101 41.4238 5.21289 41.6348C5.13085 41.8457 5.08984 42.0723 5.08984 42.3145C5.08984 42.6426 5.14648 42.9297 5.25976 43.1758C5.37304 43.418 5.52734 43.6211 5.72265 43.7852C5.91796 43.9492 6.14843 44.0742 6.41406 44.1602C6.67578 44.2422 6.96289 44.2832 7.27539 44.2832C7.58789 44.2832 7.87695 44.2363 8.14257 44.1426C8.40429 44.0449 8.63085 43.9062 8.82226 43.7266C9.01367 43.543 9.16601 43.3242 9.27929 43.0703C9.39257 42.8125 9.44921 42.5234 9.44921 42.2031C9.44921 41.7969 9.36914 41.4355 9.20898 41.1191C9.04882 40.8027 8.83593 40.5605 8.57031 40.3926L8.95703 39.8301ZM8.25976 33.0156C8.83398 33.0781 9.29101 33.3047 9.63085 33.6953C9.96679 34.082 10.1348 34.5664 10.1348 35.1484C10.1348 35.4687 10.082 35.7617 9.97656 36.0273C9.87109 36.293 9.7246 36.5195 9.5371 36.707C9.3496 36.8945 9.12499 37.041 8.86328 37.1465C8.59765 37.248 8.30859 37.2988 7.99609 37.2988L5.2246 37.2988L5.2246 38.5352L4.53906 38.5352L4.53906 37.2988L2.35351 37.2988L2.35351 36.4961L4.53906 36.4961L4.53906 34.1699L5.2246 34.1699L5.2246 36.4961L7.99609 36.4961C8.19531 36.4961 8.38281 36.4648 8.55859 36.4023C8.73437 36.3359 8.88867 36.2461 9.02148 36.1328C9.15429 36.0156 9.25976 35.875 9.33789 35.7109C9.4121 35.5469 9.44921 35.3594 9.44921 35.1484C9.44921 34.75 9.32617 34.418 9.08007 34.1523C8.83007 33.8828 8.50781 33.7285 8.11328 33.6895L8.25976 33.0156ZM3.44921 28.709L3.44921 29.7988L2.35351 29.7988L2.35351 28.709L3.44921 28.709ZM9.99999 27.6191L9.99999 30.8945L9.31445 30.8945L9.31445 29.6582L5.2246 29.6582L5.2246 30.8945L4.53906 30.8945L4.53906 28.8496L9.31445 28.8496L9.31445 27.6191L9.99999 27.6191ZM7.2871 19.832C7.71288 19.832 8.0996 19.9004 8.44726 20.0371C8.79492 20.1699 9.09374 20.3633 9.34374 20.6172C9.58984 20.8672 9.7832 21.168 9.92382 21.5195C10.0644 21.8711 10.1348 22.2637 10.1348 22.6973C10.1348 23.123 10.0644 23.5117 9.92382 23.8633C9.7832 24.2148 9.58984 24.5176 9.34374 24.7715C9.09374 25.0215 8.79492 25.2148 8.44726 25.3516C8.0996 25.4844 7.71288 25.5508 7.2871 25.5508C6.87304 25.5508 6.48828 25.4844 6.13281 25.3516C5.77343 25.2148 5.46874 25.0215 5.21874 24.7715C4.96484 24.5176 4.76757 24.2148 4.62695 23.8633C4.48242 23.5117 4.41015 23.123 4.41015 22.6973C4.41015 22.2637 4.48242 21.8711 4.62695 21.5195C4.76757 21.168 4.96484 20.8672 5.21874 20.6172C5.46874 20.3633 5.77343 20.1699 6.13281 20.0371C6.48827 19.9004 6.87304 19.832 7.2871 19.832ZM7.2871 20.6348C6.9746 20.6348 6.68749 20.6816 6.42578 20.7754C6.16015 20.8652 5.92773 21 5.72851 21.1797C5.52929 21.3594 5.37304 21.5781 5.25976 21.8359C5.14648 22.0898 5.08984 22.377 5.08984 22.6973C5.08984 23.0176 5.14648 23.3066 5.25976 23.5645C5.37304 23.8184 5.52929 24.0332 5.72851 24.209C5.92773 24.3848 6.16015 24.5195 6.42578 24.6133C6.68749 24.7031 6.9746 24.748 7.2871 24.748C7.5996 24.748 7.88867 24.7031 8.15429 24.6133C8.41601 24.5195 8.64257 24.3848 8.83398 24.209C9.02538 24.0332 9.17578 23.8184 9.28515 23.5645C9.39453 23.3066 9.44921 23.0176 9.44921 22.6973C9.44921 22.377 9.39453 22.0898 9.28515 21.8359C9.17578 21.5781 9.02538 21.3594 8.83398 21.1797C8.64257 21 8.41601 20.8652 8.15429 20.7754C7.88867 20.6816 7.5996 20.6348 7.2871 20.6348ZM9.99999 13.709L9.99999 14.5176L6.63085 14.5176C6.14257 14.5176 5.76367 14.623 5.49413 14.834C5.2246 15.0449 5.08984 15.3867 5.08984 15.8594C5.08984 16.1562 5.1582 16.4258 5.29492 16.668C5.43163 16.9062 5.61523 17.1094 5.8457 17.2773C6.07226 17.4453 6.33398 17.5742 6.63085 17.6641C6.92382 17.75 7.23046 17.793 7.55077 17.793L9.99999 17.793L9.99999 18.5957L4.53906 18.5957L4.53906 17.793L5.91015 17.793C4.91015 17.4062 4.41015 16.7168 4.41015 15.7246C4.41015 14.3809 5.15038 13.709 6.63085 13.709L9.99999 13.709Z" fill="#E98645"/>
<path d="M24 158.999L24 162.001L23.3716 162.001L23.3716 160.868L18.5859 160.868C18.7327 160.932 18.8903 161.034 19.0586 161.174C19.2233 161.313 19.3755 161.478 19.5151 161.668C19.6512 161.858 19.7658 162.067 19.8589 162.296C19.952 162.522 19.9985 162.757 19.9985 163L19.2358 163C19.2358 162.782 19.1678 162.547 19.0317 162.296C18.8957 162.046 18.722 161.815 18.5107 161.604C18.2995 161.392 18.0596 161.217 17.791 161.077C17.5225 160.938 17.2557 160.868 16.9907 160.868L16.9907 160.126L23.3716 160.126L23.3716 158.999L24 158.999ZM24 151.894L24 154.896L23.3716 154.896L23.3716 153.763L18.5859 153.763C18.7327 153.827 18.8903 153.929 19.0586 154.069C19.2233 154.209 19.3755 154.373 19.5151 154.563C19.6512 154.753 19.7658 154.962 19.8589 155.192C19.952 155.417 19.9985 155.652 19.9985 155.895L19.2358 155.895C19.2358 155.677 19.1678 155.442 19.0317 155.192C18.8957 154.941 18.722 154.71 18.5107 154.499C18.2995 154.287 18.0596 154.112 17.791 153.972C17.5225 153.833 17.2557 153.763 16.9907 153.763L16.9907 153.022L23.3716 153.022L23.3716 151.894L24 151.894ZM24 144.789L24 147.791L23.3716 147.791L23.3716 146.658L18.5859 146.658C18.7327 146.722 18.8903 146.824 19.0586 146.964C19.2233 147.104 19.3755 147.268 19.5151 147.458C19.6512 147.648 19.7658 147.857 19.8589 148.087C19.952 148.312 19.9985 148.547 19.9985 148.79L19.2358 148.79C19.2358 148.572 19.1678 148.337 19.0317 148.087C18.8957 147.836 18.722 147.605 18.5107 147.394C18.2995 147.182 18.0596 147.007 17.791 146.867C17.5225 146.728 17.2557 146.658 16.9907 146.658L16.9907 145.917L23.3716 145.917L23.3716 144.789L24 144.789ZM20.5034 141.127C21.0226 141.127 21.5096 141.064 21.9644 140.939L18.5 137.657C18.1777 137.829 17.9307 138.042 17.7588 138.296C17.5869 138.547 17.501 138.84 17.501 139.177C17.501 139.807 17.7695 140.291 18.3066 140.627C18.8402 140.96 19.5724 141.127 20.5034 141.127ZM22.5605 140.686C23.1908 140.332 23.5059 139.829 23.5059 139.177C23.5059 138.561 23.2391 138.083 22.7056 137.743C22.1685 137.403 21.4344 137.233 20.5034 137.233C20.2456 137.233 20.0021 137.249 19.7729 137.281C19.5402 137.313 19.3182 137.358 19.1069 137.415L22.5605 140.686ZM20.5034 141.863C20.0343 141.863 19.5814 141.812 19.1445 141.712C18.7077 141.612 18.321 141.456 17.9844 141.245C17.6478 141.034 17.3792 140.758 17.1787 140.418C16.9746 140.074 16.8726 139.66 16.8726 139.177C16.8726 138.694 16.9746 138.282 17.1787 137.942C17.3792 137.598 17.6478 137.319 17.9844 137.104C18.321 136.889 18.7077 136.733 19.1445 136.637C19.5814 136.54 20.0343 136.492 20.5034 136.492C20.9725 136.492 21.4255 136.54 21.8623 136.637C22.2992 136.733 22.6841 136.887 23.0171 137.098C23.3501 137.31 23.6187 137.587 23.8228 137.931C24.0233 138.271 24.1235 138.686 24.1235 139.177C24.1235 139.668 24.0233 140.085 23.8228 140.429C23.6187 140.769 23.3501 141.046 23.0171 141.261C22.6841 141.472 22.2992 141.624 21.8623 141.718C21.4255 141.814 20.9725 141.863 20.5034 141.863ZM20.5034 134.022C21.0226 134.022 21.5096 133.959 21.9644 133.834L18.5 130.552C18.1777 130.724 17.9307 130.937 17.7588 131.191C17.5869 131.442 17.501 131.736 17.501 132.072C17.501 132.702 17.7695 133.186 18.3066 133.522C18.8402 133.855 19.5724 134.022 20.5034 134.022ZM22.5605 133.581C23.1908 133.227 23.5059 132.724 23.5059 132.072C23.5059 131.456 23.2391 130.978 22.7056 130.638C22.1685 130.298 21.4344 130.128 20.5034 130.128C20.2456 130.128 20.0021 130.144 19.7729 130.176C19.5402 130.208 19.3182 130.253 19.1069 130.31L22.5605 133.581ZM20.5034 134.758C20.0343 134.758 19.5814 134.708 19.1445 134.607C18.7077 134.507 18.321 134.351 17.9844 134.14C17.6478 133.929 17.3792 133.653 17.1787 133.313C16.9746 132.969 16.8726 132.556 16.8726 132.072C16.8726 131.589 16.9746 131.177 17.1787 130.837C17.3792 130.493 17.6478 130.214 17.9844 129.999C18.321 129.784 18.7077 129.628 19.1445 129.532C19.5814 129.435 20.0343 129.387 20.5034 129.387C20.9725 129.387 21.4255 129.435 21.8623 129.532C22.2992 129.628 22.6841 129.782 23.0171 129.994C23.3501 130.205 23.6187 130.482 23.8228 130.826C24.0233 131.166 24.1235 131.582 24.1235 132.072C24.1235 132.563 24.0233 132.98 23.8228 133.324C23.6187 133.664 23.3501 133.941 23.0171 134.156C22.6841 134.367 22.2992 134.52 21.8623 134.613C21.4255 134.709 20.9725 134.758 20.5034 134.758ZM24 123.474L24 126.477L23.3716 126.477L23.3716 125.343L18.5859 125.343C18.7327 125.408 18.8903 125.51 19.0586 125.649C19.2233 125.789 19.3755 125.954 19.5151 126.144C19.6512 126.333 19.7658 126.543 19.8589 126.772C19.952 126.998 19.9985 127.232 19.9985 127.476L19.2358 127.476C19.2358 127.257 19.1678 127.023 19.0317 126.772C18.8957 126.521 18.722 126.29 18.5107 126.079C18.2995 125.868 18.0596 125.692 17.791 125.553C17.5225 125.413 17.2557 125.343 16.9907 125.343L16.9907 124.602L23.3716 124.602L23.3716 123.474L24 123.474ZM24 116.369L24 119.372L23.3716 119.372L23.3716 118.238L18.5859 118.238C18.7327 118.303 18.8903 118.405 19.0586 118.545C19.2233 118.684 19.3755 118.849 19.5151 119.039C19.6512 119.228 19.7658 119.438 19.8589 119.667C19.952 119.893 19.9985 120.127 19.9985 120.371L19.2358 120.371C19.2358 120.152 19.1678 119.918 19.0317 119.667C18.8957 119.416 18.722 119.185 18.5107 118.974C18.2995 118.763 18.0596 118.588 17.791 118.448C17.5225 118.308 17.2557 118.238 16.9907 118.238L16.9907 117.497L23.3716 117.497L23.3716 116.369L24 116.369ZM24 102.159L24 105.162L23.3716 105.162L23.3716 104.029L18.5859 104.029C18.7327 104.093 18.8903 104.195 19.0586 104.335C19.2233 104.474 19.3755 104.639 19.5151 104.829C19.6512 105.019 19.7658 105.228 19.8589 105.457C19.952 105.683 19.9985 105.917 19.9985 106.161L19.2358 106.161C19.2358 105.943 19.1678 105.708 19.0317 105.457C18.8957 105.207 18.722 104.976 18.5107 104.764C18.2995 104.553 18.0596 104.378 17.791 104.238C17.5225 104.098 17.2557 104.029 16.9907 104.029L16.9907 103.287L23.3716 103.287L23.3716 102.159L24 102.159ZM24 95.0546L24 98.057L23.3716 98.057L23.3716 96.9237L18.5859 96.9237C18.7327 96.9882 18.8903 97.0902 19.0586 97.2299C19.2233 97.3695 19.3755 97.5342 19.5151 97.724C19.6512 97.9138 19.7658 98.1233 19.8589 98.3524C19.952 98.578 19.9985 98.8126 19.9985 99.0561L19.2358 99.0561C19.2358 98.8376 19.1678 98.6031 19.0317 98.3524C18.8957 98.1018 18.722 97.8708 18.5107 97.6596C18.2995 97.4483 18.0596 97.2729 17.791 97.1332C17.5225 96.9936 17.2557 96.9237 16.9907 96.9237L16.9907 96.1825L23.3716 96.1825L23.3716 95.0546L24 95.0546ZM20.5034 91.3926C21.0226 91.3926 21.5096 91.3299 21.9644 91.2046L18.5 87.9229C18.1777 88.0947 17.9307 88.3078 17.7588 88.562C17.5869 88.8127 17.501 89.1063 17.501 89.4429C17.501 90.0731 17.7695 90.5565 18.3066 90.8931C18.8402 91.2261 19.5724 91.3926 20.5034 91.3926ZM22.5605 90.9521C23.1908 90.5977 23.5059 90.0946 23.5059 89.4429C23.5059 88.827 23.2391 88.349 22.7056 88.0088C22.1685 87.6686 21.4344 87.4985 20.5034 87.4985C20.2456 87.4985 20.0021 87.5146 19.773 87.5469C19.5402 87.5791 19.3182 87.6239 19.1069 87.6812L22.5605 90.9521ZM20.5034 92.1284C20.0343 92.1284 19.5814 92.0783 19.1445 91.978C18.7077 91.8778 18.321 91.722 17.9844 91.5107C17.6478 91.2995 17.3792 91.0238 17.1787 90.6836C16.9746 90.3398 16.8726 89.9263 16.8726 89.4429C16.8726 88.9595 16.9746 88.5477 17.1787 88.2075C17.3792 87.8638 17.6478 87.5845 17.9844 87.3696C18.321 87.1548 18.7077 86.999 19.1445 86.9023C19.5814 86.8057 20.0343 86.7573 20.5034 86.7573C20.9725 86.7573 21.4255 86.8057 21.8623 86.9023C22.2992 86.999 22.6841 87.153 23.0171 87.3643C23.3501 87.5755 23.6187 87.853 23.8228 88.1968C24.0233 88.5369 24.1235 88.9523 24.1235 89.4429C24.1235 89.9334 24.0233 90.3506 23.8228 90.6943C23.6187 91.0345 23.3501 91.312 23.0171 91.5269C22.6841 91.7381 22.2992 91.8903 21.8623 91.9834C21.4255 92.0801 20.9725 92.1284 20.5034 92.1284ZM20.5034 84.2877C21.0226 84.2877 21.5096 84.225 21.9644 84.0997L18.5 80.818C18.1777 80.9898 17.9307 81.2029 17.7588 81.4571C17.5869 81.7078 17.501 82.0014 17.501 82.338C17.501 82.9682 17.7695 83.4516 18.3066 83.7882C18.8402 84.1212 19.5724 84.2877 20.5034 84.2877ZM22.5605 83.8473C23.1908 83.4928 23.5059 82.9897 23.5059 82.338C23.5059 81.7221 23.2391 81.2441 22.7056 80.9039C22.1685 80.5637 21.4344 80.3937 20.5034 80.3937C20.2456 80.3937 20.0021 80.4098 19.773 80.442C19.5402 80.4742 19.3182 80.519 19.1069 80.5763L22.5605 83.8473ZM20.5034 85.0235C20.0343 85.0235 19.5814 84.9734 19.1445 84.8731C18.7077 84.7729 18.321 84.6171 17.9844 84.4059C17.6478 84.1946 17.3792 83.9189 17.1787 83.5787C16.9746 83.235 16.8726 82.8214 16.8726 82.338C16.8726 81.8546 16.9746 81.4428 17.1787 81.1026C17.3792 80.7589 17.6478 80.4796 17.9844 80.2647C18.321 80.0499 18.7077 79.8941 19.1445 79.7975C19.5814 79.7008 20.0343 79.6524 20.5034 79.6524C20.9725 79.6524 21.4255 79.7008 21.8623 79.7975C22.2992 79.8941 22.6841 80.0481 23.0171 80.2594C23.3501 80.4706 23.6187 80.7481 23.8228 81.0919C24.0233 81.4321 24.1235 81.8474 24.1235 82.338C24.1235 82.8285 24.0233 83.2457 23.8228 83.5895C23.6187 83.9296 23.3501 84.2071 23.0171 84.422C22.6841 84.6332 22.2992 84.7854 21.8623 84.8785C21.4255 84.9752 20.9725 85.0235 20.5034 85.0235ZM20.5034 77.1828C21.0226 77.1828 21.5096 77.1202 21.9644 76.9948L18.5 73.7131C18.1777 73.885 17.9307 74.098 17.7588 74.3522C17.5869 74.6029 17.501 74.8965 17.501 75.2331C17.501 75.8633 17.7695 76.3467 18.3066 76.6833C18.8402 77.0163 19.5724 77.1828 20.5034 77.1828ZM22.5605 76.7424C23.1908 76.3879 23.5059 75.8848 23.5059 75.2331C23.5059 74.6172 23.2391 74.1392 22.7056 73.799C22.1685 73.4589 21.4344 73.2888 20.5034 73.2888C20.2456 73.2888 20.0021 73.3049 19.773 73.3371C19.5402 73.3693 19.3182 73.4141 19.1069 73.4714L22.5605 76.7424ZM20.5034 77.9187C20.0343 77.9187 19.5814 77.8685 19.1445 77.7683C18.7077 77.668 18.321 77.5122 17.9844 77.301C17.6478 77.0897 17.3792 76.814 17.1787 76.4738C16.9746 76.1301 16.8726 75.7165 16.8726 75.2331C16.8726 74.7497 16.9746 74.3379 17.1787 73.9978C17.3792 73.654 17.6478 73.3747 17.9844 73.1599C18.321 72.945 18.7077 72.7893 19.1445 72.6926C19.5814 72.5959 20.0343 72.5476 20.5034 72.5476C20.9725 72.5476 21.4255 72.5959 21.8623 72.6926C22.2992 72.7893 22.6841 72.9432 23.0171 73.1545C23.3501 73.3658 23.6187 73.6433 23.8228 73.987C24.0233 74.3272 24.1235 74.7425 24.1235 75.2331C24.1235 75.7237 24.0233 76.1408 23.8228 76.4846C23.6187 76.8247 23.3501 77.1022 23.0171 77.3171C22.6841 77.5284 22.2992 77.6805 21.8623 77.7736C21.4255 77.8703 20.9725 77.9187 20.5034 77.9187ZM20.5034 70.0779C21.0226 70.0779 21.5096 70.0153 21.9644 69.8899L18.5 66.6082C18.1777 66.7801 17.9307 66.9931 17.7588 67.2474C17.5869 67.498 17.501 67.7916 17.501 68.1282C17.501 68.7584 17.7695 69.2418 18.3066 69.5784C18.8402 69.9114 19.5724 70.0779 20.5034 70.0779ZM22.5605 69.6375C23.1908 69.283 23.5059 68.7799 23.5059 68.1282C23.5059 67.5123 23.2391 67.0343 22.7056 66.6941C22.1685 66.354 21.4344 66.1839 20.5034 66.1839C20.2456 66.1839 20.0021 66.2 19.773 66.2322C19.5402 66.2645 19.3182 66.3092 19.1069 66.3665L22.5605 69.6375ZM20.5034 70.8138C20.0343 70.8138 19.5814 70.7636 19.1445 70.6634C18.7077 70.5631 18.321 70.4074 17.9844 70.1961C17.6478 69.9848 17.3792 69.7091 17.1787 69.3689C16.9746 69.0252 16.8726 68.6116 16.8726 68.1282C16.8726 67.6448 16.9746 67.233 17.1787 66.8929C17.3792 66.5491 17.6478 66.2698 17.9844 66.055C18.321 65.8401 18.7077 65.6844 19.1445 65.5877C19.5814 65.491 20.0343 65.4427 20.5034 65.4427C20.9725 65.4427 21.4255 65.491 21.8623 65.5877C22.2992 65.6844 22.6841 65.8383 23.0171 66.0496C23.3501 66.2609 23.6187 66.5384 23.8228 66.8821C24.0233 67.2223 24.1235 67.6377 24.1235 68.1282C24.1235 68.6188 24.0233 69.0359 23.8228 69.3797C23.6187 69.7199 23.3501 69.9974 23.0171 70.2122C22.6841 70.4235 22.2992 70.5756 21.8623 70.6687C21.4255 70.7654 20.9725 70.8138 20.5034 70.8138ZM24 59.5302L24 62.5326L23.3716 62.5326L23.3716 61.3993L18.5859 61.3993C18.7327 61.4638 18.8903 61.5658 19.0586 61.7055C19.2233 61.8451 19.3755 62.0098 19.5151 62.1996C19.6512 62.3894 19.7658 62.5989 19.8589 62.828C19.952 63.0536 19.9985 63.2881 19.9985 63.5316L19.2358 63.5316C19.2358 63.3132 19.1678 63.0787 19.0317 62.828C18.8957 62.5774 18.722 62.3464 18.5107 62.1352C18.2995 61.9239 18.0596 61.7484 17.791 61.6088C17.5225 61.4691 17.2557 61.3993 16.9907 61.3993L16.9907 60.6581L23.3716 60.6581L23.3716 59.5302L24 59.5302ZM24 45.3204L24 48.3229L23.3716 48.3229L23.3716 47.1896L18.5859 47.1896C18.7327 47.254 18.8903 47.3561 19.0586 47.4957C19.2233 47.6354 19.3755 47.8001 19.5151 47.9898C19.6512 48.1796 19.7658 48.3891 19.8589 48.6183C19.952 48.8438 19.9985 49.0784 19.9985 49.3219L19.2358 49.3219C19.2358 49.1035 19.1678 48.8689 19.0317 48.6183C18.8957 48.3676 18.722 48.1367 18.5107 47.9254C18.2995 47.7141 18.0596 47.5387 17.791 47.399C17.5225 47.2594 17.2557 47.1896 16.9907 47.1896L16.9907 46.4483L23.3716 46.4483L23.3716 45.3204L24 45.3204ZM24 38.2155L24 41.218L23.3716 41.218L23.3716 40.0847L18.5859 40.0847C18.7327 40.1491 18.8903 40.2512 19.0586 40.3908C19.2233 40.5305 19.3755 40.6952 19.5151 40.885C19.6512 41.0747 19.7658 41.2842 19.8589 41.5134C19.952 41.739 19.9985 41.9735 19.9985 42.217L19.2358 42.217C19.2358 41.9986 19.1678 41.764 19.0317 41.5134C18.8957 41.2627 18.722 41.0318 18.5107 40.8205C18.2995 40.6092 18.0596 40.4338 17.791 40.2941C17.5225 40.1545 17.2557 40.0847 16.9907 40.0847L16.9907 39.3435L23.3716 39.3435L23.3716 38.2155L24 38.2155ZM20.5034 34.5535C21.0226 34.5535 21.5096 34.4908 21.9644 34.3655L18.5 31.0838C18.1777 31.2557 17.9307 31.4687 17.7588 31.7229C17.5869 31.9736 17.501 32.2672 17.501 32.6038C17.501 33.234 17.7695 33.7174 18.3066 34.054C18.8402 34.387 19.5724 34.5535 20.5034 34.5535ZM22.5605 34.1131C23.1908 33.7586 23.5059 33.2555 23.5059 32.6038C23.5059 31.9879 23.2391 31.5099 22.7056 31.1697C22.1685 30.8296 21.4344 30.6595 20.5034 30.6595C20.2456 30.6595 20.0021 30.6756 19.773 30.7078C19.5402 30.74 19.3182 30.7848 19.1069 30.8421L22.5605 34.1131ZM20.5034 35.2894C20.0343 35.2894 19.5814 35.2392 19.1445 35.139C18.7077 35.0387 18.321 34.8829 17.9844 34.6717C17.6478 34.4604 17.3792 34.1847 17.1787 33.8445C16.9746 33.5008 16.8726 33.0872 16.8726 32.6038C16.8726 32.1204 16.9746 31.7086 17.1787 31.3685C17.3792 31.0247 17.6478 30.7454 17.9844 30.5306C18.321 30.3157 18.7077 30.16 19.1445 30.0633C19.5814 29.9666 20.0343 29.9183 20.5034 29.9183C20.9725 29.9183 21.4255 29.9666 21.8623 30.0633C22.2992 30.16 22.6841 30.3139 23.0171 30.5252C23.3501 30.7365 23.6187 31.014 23.8228 31.3577C24.0233 31.6979 24.1235 32.1132 24.1235 32.6038C24.1235 33.0944 24.0233 33.5115 23.8228 33.8553C23.6187 34.1954 23.3501 34.4729 23.0171 34.6878C22.6841 34.8991 22.2992 35.0512 21.8623 35.1443C21.4255 35.241 20.9725 35.2894 20.5034 35.2894ZM20.5034 27.4486C21.0226 27.4486 21.5096 27.386 21.9644 27.2607L18.5 23.9789C18.1777 24.1508 17.9307 24.3638 17.7588 24.6181C17.5869 24.8687 17.501 25.1623 17.501 25.4989C17.501 26.1291 17.7695 26.6125 18.3066 26.9491C18.8402 27.2821 19.5724 27.4486 20.5034 27.4486ZM22.5605 27.0082C23.1908 26.6537 23.5059 26.1506 23.5059 25.4989C23.5059 24.883 23.2391 24.405 22.7056 24.0648C22.1685 23.7247 21.4344 23.5546 20.5034 23.5546C20.2456 23.5546 20.0021 23.5707 19.773 23.6029C19.5402 23.6352 19.3182 23.6799 19.1069 23.7372L22.5605 27.0082ZM20.5034 28.1845C20.0343 28.1845 19.5814 28.1343 19.1445 28.0341C18.7077 27.9338 18.321 27.7781 17.9844 27.5668C17.6478 27.3555 17.3792 27.0798 17.1787 26.7397C16.9746 26.3959 16.8726 25.9823 16.8726 25.4989C16.8726 25.0155 16.9746 24.6037 17.1787 24.2636C17.3792 23.9198 17.6478 23.6405 17.9844 23.4257C18.321 23.2108 18.7077 23.0551 19.1445 22.9584C19.5814 22.8617 20.0343 22.8134 20.5034 22.8134C20.9725 22.8134 21.4255 22.8617 21.8623 22.9584C22.2992 23.0551 22.6841 23.2091 23.0171 23.4203C23.3501 23.6316 23.6187 23.9091 23.8228 24.2528C24.0233 24.593 24.1235 25.0084 24.1235 25.4989C24.1235 25.9895 24.0233 26.4066 23.8228 26.7504C23.6187 27.0906 23.3501 27.3681 23.0171 27.5829C22.6841 27.7942 22.2992 27.9464 21.8623 28.0395C21.4255 28.1361 20.9725 28.1845 20.5034 28.1845ZM24 16.9009L24 19.9033L23.3716 19.9033L23.3716 18.77L18.5859 18.77C18.7327 18.8345 18.8903 18.9365 19.0586 19.0762C19.2233 19.2158 19.3755 19.3805 19.5151 19.5703C19.6512 19.7601 19.7658 19.9696 19.8589 20.1987C19.952 20.4243 19.9985 20.6589 19.9985 20.9023L19.2358 20.9023C19.2358 20.6839 19.1678 20.4494 19.0317 20.1987C18.8957 19.9481 18.722 19.7171 18.5107 19.5059C18.2995 19.2946 18.0596 19.1191 17.791 18.9795C17.5225 18.8398 17.2557 18.77 16.9907 18.77L16.9907 18.0288L23.3716 18.0288L23.3716 16.9009L24 16.9009ZM24 9.79599L24 12.7984L23.3716 12.7984L23.3716 11.6651L18.5859 11.6651C18.7327 11.7296 18.8903 11.8316 19.0586 11.9713C19.2233 12.1109 19.3755 12.2756 19.5151 12.4654C19.6512 12.6552 19.7658 12.8647 19.8589 13.0938C19.952 13.3194 19.9985 13.554 19.9985 13.7975L19.2358 13.7975C19.2358 13.579 19.1678 13.3445 19.0317 13.0938C18.8957 12.8432 18.722 12.6122 18.5107 12.401C18.2995 12.1897 18.0596 12.0143 17.791 11.8746C17.5225 11.735 17.2557 11.6651 16.9907 11.6651L16.9907 10.9239L23.3716 10.9239L23.3716 9.79599L24 9.79599ZM20.5034 6.13399C21.0226 6.13399 21.5096 6.07132 21.9644 5.946L18.5 2.66426C18.1777 2.83614 17.9307 3.04919 17.7588 3.30342C17.5869 3.55407 17.501 3.84769 17.501 4.18428C17.501 4.81449 17.7695 5.29789 18.3066 5.63448C18.8402 5.96748 19.5724 6.13399 20.5034 6.13399ZM22.5605 5.69356C23.1908 5.33907 23.5059 4.83597 23.5059 4.18428C23.5059 3.5684 23.2391 3.09037 22.7056 2.7502C22.1685 2.41003 21.4344 2.23994 20.5034 2.23994C20.2456 2.23994 20.0021 2.25606 19.773 2.28828C19.5402 2.32051 19.3182 2.36527 19.1069 2.42256L22.5605 5.69356ZM20.5034 6.86983C20.0343 6.86983 19.5814 6.8197 19.1445 6.71944C18.7077 6.61918 18.321 6.46341 17.9844 6.25215C17.6478 6.04089 17.3792 5.76517 17.1787 5.425C16.9746 5.08125 16.8726 4.66768 16.8726 4.18428C16.8726 3.70088 16.9746 3.2891 17.1787 2.94893C17.3792 2.60518 17.6478 2.32588 17.9844 2.11104C18.321 1.89619 18.7077 1.74043 19.1445 1.64375C19.5814 1.54707 20.0343 1.49873 20.5034 1.49873C20.9725 1.49873 21.4255 1.54707 21.8623 1.64375C22.2992 1.74043 22.6841 1.8944 23.0171 2.10567C23.3501 2.31693 23.6187 2.59444 23.8228 2.93819C24.0233 3.27836 24.1235 3.69372 24.1235 4.18428C24.1235 4.67484 24.0233 5.092 23.8228 5.43575C23.6187 5.77591 23.3501 6.05342 23.0171 6.26826C22.6841 6.47953 22.2992 6.63171 21.8623 6.72481C21.4255 6.82149 20.9725 6.86983 20.5034 6.86983Z" fill="#E98645"/>
<path d="M40 158.999L40 162.001L39.3716 162.001L39.3716 160.868L34.5859 160.868C34.7327 160.932 34.8903 161.034 35.0586 161.174C35.2233 161.313 35.3755 161.478 35.5151 161.668C35.6512 161.858 35.7658 162.067 35.8589 162.296C35.952 162.522 35.9985 162.757 35.9985 163L35.2358 163C35.2358 162.782 35.1678 162.547 35.0317 162.296C34.8957 162.046 34.722 161.815 34.5107 161.604C34.2995 161.392 34.0596 161.217 33.791 161.077C33.5225 160.938 33.2557 160.868 32.9907 160.868L32.9907 160.126L39.3716 160.126L39.3716 158.999L40 158.999ZM40 151.894L40 154.896L39.3716 154.896L39.3716 153.763L34.5859 153.763C34.7327 153.827 34.8903 153.929 35.0586 154.069C35.2233 154.209 35.3755 154.373 35.5151 154.563C35.6512 154.753 35.7658 154.962 35.8589 155.192C35.952 155.417 35.9985 155.652 35.9985 155.895L35.2358 155.895C35.2358 155.677 35.1678 155.442 35.0317 155.192C34.8957 154.941 34.722 154.71 34.5107 154.499C34.2995 154.287 34.0596 154.112 33.791 153.972C33.5225 153.833 33.2557 153.763 32.9907 153.763L32.9907 153.022L39.3716 153.022L39.3716 151.894L40 151.894ZM40 144.789L40 147.791L39.3716 147.791L39.3716 146.658L34.5859 146.658C34.7327 146.722 34.8903 146.824 35.0586 146.964C35.2233 147.104 35.3755 147.268 35.5151 147.458C35.6512 147.648 35.7658 147.857 35.8589 148.087C35.952 148.312 35.9985 148.547 35.9985 148.79L35.2358 148.79C35.2358 148.572 35.1678 148.337 35.0317 148.087C34.8957 147.836 34.722 147.605 34.5107 147.394C34.2995 147.182 34.0596 147.007 33.791 146.867C33.5225 146.728 33.2557 146.658 32.9907 146.658L32.9907 145.917L39.3716 145.917L39.3716 144.789L40 144.789ZM36.5034 141.127C37.0226 141.127 37.5096 141.064 37.9644 140.939L34.5 137.657C34.1777 137.829 33.9307 138.042 33.7588 138.296C33.5869 138.547 33.501 138.84 33.501 139.177C33.501 139.807 33.7695 140.291 34.3066 140.627C34.8402 140.96 35.5724 141.127 36.5034 141.127ZM38.5605 140.686C39.1908 140.332 39.5059 139.829 39.5059 139.177C39.5059 138.561 39.2391 138.083 38.7056 137.743C38.1685 137.403 37.4344 137.233 36.5034 137.233C36.2456 137.233 36.0021 137.249 35.7729 137.281C35.5402 137.313 35.3182 137.358 35.1069 137.415L38.5605 140.686ZM36.5034 141.863C36.0343 141.863 35.5814 141.812 35.1445 141.712C34.7077 141.612 34.321 141.456 33.9844 141.245C33.6478 141.034 33.3792 140.758 33.1787 140.418C32.9746 140.074 32.8726 139.66 32.8726 139.177C32.8726 138.694 32.9746 138.282 33.1787 137.942C33.3792 137.598 33.6478 137.319 33.9844 137.104C34.321 136.889 34.7077 136.733 35.1445 136.637C35.5814 136.54 36.0343 136.492 36.5034 136.492C36.9725 136.492 37.4255 136.54 37.8623 136.637C38.2992 136.733 38.6841 136.887 39.0171 137.098C39.3501 137.31 39.6187 137.587 39.8228 137.931C40.0233 138.271 40.1235 138.686 40.1235 139.177C40.1235 139.668 40.0233 140.085 39.8228 140.429C39.6187 140.769 39.3501 141.046 39.0171 141.261C38.6841 141.472 38.2992 141.624 37.8623 141.718C37.4255 141.814 36.9725 141.863 36.5034 141.863ZM36.5034 134.022C37.0226 134.022 37.5096 133.959 37.9644 133.834L34.5 130.552C34.1777 130.724 33.9307 130.937 33.7588 131.191C33.5869 131.442 33.501 131.736 33.501 132.072C33.501 132.702 33.7695 133.186 34.3066 133.522C34.8402 133.855 35.5724 134.022 36.5034 134.022ZM38.5605 133.581C39.1908 133.227 39.5059 132.724 39.5059 132.072C39.5059 131.456 39.2391 130.978 38.7056 130.638C38.1685 130.298 37.4344 130.128 36.5034 130.128C36.2456 130.128 36.0021 130.144 35.7729 130.176C35.5402 130.208 35.3182 130.253 35.1069 130.31L38.5605 133.581ZM36.5034 134.758C36.0343 134.758 35.5814 134.708 35.1445 134.607C34.7077 134.507 34.321 134.351 33.9844 134.14C33.6478 133.929 33.3792 133.653 33.1787 133.313C32.9746 132.969 32.8726 132.556 32.8726 132.072C32.8726 131.589 32.9746 131.177 33.1787 130.837C33.3792 130.493 33.6478 130.214 33.9844 129.999C34.321 129.784 34.7077 129.628 35.1445 129.532C35.5814 129.435 36.0343 129.387 36.5034 129.387C36.9725 129.387 37.4255 129.435 37.8623 129.532C38.2992 129.628 38.6841 129.782 39.0171 129.994C39.3501 130.205 39.6187 130.482 39.8228 130.826C40.0233 131.166 40.1235 131.582 40.1235 132.072C40.1235 132.563 40.0233 132.98 39.8228 133.324C39.6187 133.664 39.3501 133.941 39.0171 134.156C38.6841 134.367 38.2992 134.52 37.8623 134.613C37.4255 134.709 36.9725 134.758 36.5034 134.758ZM40 123.474L40 126.477L39.3716 126.477L39.3716 125.343L34.5859 125.343C34.7327 125.408 34.8903 125.51 35.0586 125.649C35.2233 125.789 35.3755 125.954 35.5151 126.144C35.6512 126.333 35.7658 126.543 35.8589 126.772C35.952 126.998 35.9985 127.232 35.9985 127.476L35.2358 127.476C35.2358 127.257 35.1678 127.023 35.0317 126.772C34.8957 126.521 34.722 126.29 34.5107 126.079C34.2995 125.868 34.0596 125.692 33.791 125.553C33.5225 125.413 33.2557 125.343 32.9907 125.343L32.9907 124.602L39.3716 124.602L39.3716 123.474L40 123.474ZM40 116.369L40 119.372L39.3716 119.372L39.3716 118.238L34.5859 118.238C34.7327 118.303 34.8903 118.405 35.0586 118.545C35.2233 118.684 35.3755 118.849 35.5151 119.039C35.6512 119.228 35.7658 119.438 35.8589 119.667C35.952 119.893 35.9985 120.127 35.9985 120.371L35.2358 120.371C35.2358 120.152 35.1678 119.918 35.0317 119.667C34.8957 119.416 34.722 119.185 34.5107 118.974C34.2995 118.763 34.0596 118.588 33.791 118.448C33.5225 118.308 33.2557 118.238 32.9907 118.238L32.9907 117.497L39.3716 117.497L39.3716 116.369L40 116.369ZM40 102.159L40 105.162L39.3716 105.162L39.3716 104.029L34.5859 104.029C34.7327 104.093 34.8903 104.195 35.0586 104.335C35.2233 104.474 35.3755 104.639 35.5151 104.829C35.6512 105.019 35.7658 105.228 35.8589 105.457C35.952 105.683 35.9985 105.917 35.9985 106.161L35.2358 106.161C35.2358 105.943 35.1678 105.708 35.0317 105.457C34.8957 105.207 34.722 104.976 34.5107 104.764C34.2995 104.553 34.0596 104.378 33.791 104.238C33.5225 104.098 33.2557 104.029 32.9907 104.029L32.9907 103.287L39.3716 103.287L39.3716 102.159L40 102.159ZM40 95.0546L40 98.057L39.3716 98.057L39.3716 96.9237L34.5859 96.9237C34.7327 96.9882 34.8903 97.0902 35.0586 97.2299C35.2233 97.3695 35.3755 97.5342 35.5151 97.724C35.6512 97.9138 35.7658 98.1233 35.8589 98.3524C35.952 98.578 35.9985 98.8126 35.9985 99.0561L35.2358 99.0561C35.2358 98.8376 35.1678 98.6031 35.0317 98.3524C34.8957 98.1018 34.722 97.8708 34.5107 97.6596C34.2995 97.4483 34.0596 97.2729 33.791 97.1332C33.5225 96.9936 33.2557 96.9237 32.9907 96.9237L32.9907 96.1825L39.3716 96.1825L39.3716 95.0546L40 95.0546ZM36.5034 91.3926C37.0226 91.3926 37.5096 91.3299 37.9644 91.2046L34.5 87.9229C34.1777 88.0947 33.9307 88.3078 33.7588 88.562C33.5869 88.8127 33.501 89.1063 33.501 89.4429C33.501 90.0731 33.7695 90.5565 34.3066 90.8931C34.8402 91.2261 35.5724 91.3926 36.5034 91.3926ZM38.5605 90.9521C39.1908 90.5977 39.5059 90.0946 39.5059 89.4429C39.5059 88.827 39.2391 88.349 38.7056 88.0088C38.1685 87.6686 37.4344 87.4985 36.5034 87.4985C36.2456 87.4985 36.0021 87.5146 35.773 87.5469C35.5402 87.5791 35.3182 87.6239 35.1069 87.6812L38.5605 90.9521ZM36.5034 92.1284C36.0343 92.1284 35.5814 92.0783 35.1445 91.978C34.7077 91.8778 34.321 91.722 33.9844 91.5107C33.6478 91.2995 33.3792 91.0238 33.1787 90.6836C32.9746 90.3398 32.8726 89.9263 32.8726 89.4429C32.8726 88.9595 32.9746 88.5477 33.1787 88.2075C33.3792 87.8638 33.6478 87.5845 33.9844 87.3696C34.321 87.1548 34.7077 86.999 35.1445 86.9023C35.5814 86.8057 36.0343 86.7573 36.5034 86.7573C36.9725 86.7573 37.4255 86.8057 37.8623 86.9023C38.2992 86.999 38.6841 87.153 39.0171 87.3643C39.3501 87.5755 39.6187 87.853 39.8228 88.1968C40.0233 88.5369 40.1235 88.9523 40.1235 89.4429C40.1235 89.9334 40.0233 90.3506 39.8228 90.6943C39.6187 91.0345 39.3501 91.312 39.0171 91.5269C38.6841 91.7381 38.2992 91.8903 37.8623 91.9834C37.4255 92.0801 36.9725 92.1284 36.5034 92.1284ZM36.5034 84.2877C37.0226 84.2877 37.5096 84.225 37.9644 84.0997L34.5 80.818C34.1777 80.9898 33.9307 81.2029 33.7588 81.4571C33.5869 81.7078 33.501 82.0014 33.501 82.338C33.501 82.9682 33.7695 83.4516 34.3066 83.7882C34.8402 84.1212 35.5724 84.2877 36.5034 84.2877ZM38.5605 83.8473C39.1908 83.4928 39.5059 82.9897 39.5059 82.338C39.5059 81.7221 39.2391 81.2441 38.7056 80.9039C38.1685 80.5637 37.4344 80.3937 36.5034 80.3937C36.2456 80.3937 36.0021 80.4098 35.773 80.442C35.5402 80.4742 35.3182 80.519 35.1069 80.5763L38.5605 83.8473ZM36.5034 85.0235C36.0343 85.0235 35.5814 84.9734 35.1445 84.8731C34.7077 84.7729 34.321 84.6171 33.9844 84.4059C33.6478 84.1946 33.3792 83.9189 33.1787 83.5787C32.9746 83.235 32.8726 82.8214 32.8726 82.338C32.8726 81.8546 32.9746 81.4428 33.1787 81.1026C33.3792 80.7589 33.6478 80.4796 33.9844 80.2647C34.321 80.0499 34.7077 79.8941 35.1445 79.7975C35.5814 79.7008 36.0343 79.6524 36.5034 79.6524C36.9725 79.6524 37.4255 79.7008 37.8623 79.7975C38.2992 79.8941 38.6841 80.0481 39.0171 80.2594C39.3501 80.4706 39.6187 80.7481 39.8228 81.0919C40.0233 81.4321 40.1235 81.8474 40.1235 82.338C40.1235 82.8285 40.0233 83.2457 39.8228 83.5895C39.6187 83.9296 39.3501 84.2071 39.0171 84.422C38.6841 84.6332 38.2992 84.7854 37.8623 84.8785C37.4255 84.9752 36.9725 85.0235 36.5034 85.0235ZM36.5034 77.1828C37.0226 77.1828 37.5096 77.1202 37.9644 76.9948L34.5 73.7131C34.1777 73.885 33.9307 74.098 33.7588 74.3522C33.5869 74.6029 33.501 74.8965 33.501 75.2331C33.501 75.8633 33.7695 76.3467 34.3066 76.6833C34.8402 77.0163 35.5724 77.1828 36.5034 77.1828ZM38.5605 76.7424C39.1908 76.3879 39.5059 75.8848 39.5059 75.2331C39.5059 74.6172 39.2391 74.1392 38.7056 73.799C38.1685 73.4589 37.4344 73.2888 36.5034 73.2888C36.2456 73.2888 36.0021 73.3049 35.773 73.3371C35.5402 73.3693 35.3182 73.4141 35.1069 73.4714L38.5605 76.7424ZM36.5034 77.9187C36.0343 77.9187 35.5814 77.8685 35.1445 77.7683C34.7077 77.668 34.321 77.5122 33.9844 77.301C33.6478 77.0897 33.3792 76.814 33.1787 76.4738C32.9746 76.1301 32.8726 75.7165 32.8726 75.2331C32.8726 74.7497 32.9746 74.3379 33.1787 73.9978C33.3792 73.654 33.6478 73.3747 33.9844 73.1599C34.321 72.945 34.7077 72.7893 35.1445 72.6926C35.5814 72.5959 36.0343 72.5476 36.5034 72.5476C36.9725 72.5476 37.4255 72.5959 37.8623 72.6926C38.2992 72.7893 38.6841 72.9432 39.0171 73.1545C39.3501 73.3658 39.6187 73.6433 39.8228 73.987C40.0233 74.3272 40.1235 74.7425 40.1235 75.2331C40.1235 75.7237 40.0233 76.1408 39.8228 76.4846C39.6187 76.8247 39.3501 77.1022 39.0171 77.3171C38.6841 77.5284 38.2992 77.6805 37.8623 77.7736C37.4255 77.8703 36.9725 77.9187 36.5034 77.9187ZM36.5034 70.0779C37.0226 70.0779 37.5096 70.0153 37.9644 69.8899L34.5 66.6082C34.1777 66.7801 33.9307 66.9931 33.7588 67.2474C33.5869 67.498 33.501 67.7916 33.501 68.1282C33.501 68.7584 33.7695 69.2418 34.3066 69.5784C34.8402 69.9114 35.5724 70.0779 36.5034 70.0779ZM38.5605 69.6375C39.1908 69.283 39.5059 68.7799 39.5059 68.1282C39.5059 67.5123 39.2391 67.0343 38.7056 66.6941C38.1685 66.354 37.4344 66.1839 36.5034 66.1839C36.2456 66.1839 36.0021 66.2 35.773 66.2322C35.5402 66.2645 35.3182 66.3092 35.1069 66.3665L38.5605 69.6375ZM36.5034 70.8138C36.0343 70.8138 35.5814 70.7636 35.1445 70.6634C34.7077 70.5631 34.321 70.4074 33.9844 70.1961C33.6478 69.9848 33.3792 69.7091 33.1787 69.3689C32.9746 69.0252 32.8726 68.6116 32.8726 68.1282C32.8726 67.6448 32.9746 67.233 33.1787 66.8929C33.3792 66.5491 33.6478 66.2698 33.9844 66.055C34.321 65.8401 34.7077 65.6844 35.1445 65.5877C35.5814 65.491 36.0343 65.4427 36.5034 65.4427C36.9725 65.4427 37.4255 65.491 37.8623 65.5877C38.2992 65.6844 38.6841 65.8383 39.0171 66.0496C39.3501 66.2609 39.6187 66.5384 39.8228 66.8821C40.0233 67.2223 40.1235 67.6377 40.1235 68.1282C40.1235 68.6188 40.0233 69.0359 39.8228 69.3797C39.6187 69.7199 39.3501 69.9974 39.0171 70.2122C38.6841 70.4235 38.2992 70.5756 37.8623 70.6687C37.4255 70.7654 36.9725 70.8138 36.5034 70.8138ZM40 59.5302L40 62.5326L39.3716 62.5326L39.3716 61.3993L34.5859 61.3993C34.7327 61.4638 34.8903 61.5658 35.0586 61.7055C35.2233 61.8451 35.3755 62.0098 35.5151 62.1996C35.6512 62.3894 35.7658 62.5989 35.8589 62.828C35.952 63.0536 35.9985 63.2881 35.9985 63.5316L35.2358 63.5316C35.2358 63.3132 35.1678 63.0787 35.0317 62.828C34.8957 62.5774 34.722 62.3464 34.5107 62.1352C34.2995 61.9239 34.0596 61.7484 33.791 61.6088C33.5225 61.4691 33.2557 61.3993 32.9907 61.3993L32.9907 60.6581L39.3716 60.6581L39.3716 59.5302L40 59.5302ZM40 45.3204L40 48.3229L39.3716 48.3229L39.3716 47.1896L34.5859 47.1896C34.7327 47.254 34.8903 47.3561 35.0586 47.4957C35.2233 47.6354 35.3755 47.8001 35.5151 47.9898C35.6512 48.1796 35.7658 48.3891 35.8589 48.6183C35.952 48.8438 35.9985 49.0784 35.9985 49.3219L35.2358 49.3219C35.2358 49.1035 35.1678 48.8689 35.0317 48.6183C34.8957 48.3676 34.722 48.1367 34.5107 47.9254C34.2995 47.7141 34.0596 47.5387 33.791 47.399C33.5225 47.2594 33.2557 47.1896 32.9907 47.1896L32.9907 46.4483L39.3716 46.4483L39.3716 45.3204L40 45.3204ZM40 38.2155L40 41.218L39.3716 41.218L39.3716 40.0847L34.5859 40.0847C34.7327 40.1491 34.8903 40.2512 35.0586 40.3908C35.2233 40.5305 35.3755 40.6952 35.5151 40.885C35.6512 41.0747 35.7658 41.2842 35.8589 41.5134C35.952 41.739 35.9985 41.9735 35.9985 42.217L35.2358 42.217C35.2358 41.9986 35.1678 41.764 35.0317 41.5134C34.8957 41.2627 34.722 41.0318 34.5107 40.8205C34.2995 40.6092 34.0596 40.4338 33.791 40.2941C33.5225 40.1545 33.2557 40.0847 32.9907 40.0847L32.9907 39.3435L39.3716 39.3435L39.3716 38.2155L40 38.2155ZM36.5034 34.5535C37.0226 34.5535 37.5096 34.4908 37.9644 34.3655L34.5 31.0838C34.1777 31.2557 33.9307 31.4687 33.7588 31.7229C33.5869 31.9736 33.501 32.2672 33.501 32.6038C33.501 33.234 33.7695 33.7174 34.3066 34.054C34.8402 34.387 35.5724 34.5535 36.5034 34.5535ZM38.5605 34.1131C39.1908 33.7586 39.5059 33.2555 39.5059 32.6038C39.5059 31.9879 39.2391 31.5099 38.7056 31.1697C38.1685 30.8296 37.4344 30.6595 36.5034 30.6595C36.2456 30.6595 36.0021 30.6756 35.773 30.7078C35.5402 30.74 35.3182 30.7848 35.1069 30.8421L38.5605 34.1131ZM36.5034 35.2894C36.0343 35.2894 35.5814 35.2392 35.1445 35.139C34.7077 35.0387 34.321 34.8829 33.9844 34.6717C33.6478 34.4604 33.3792 34.1847 33.1787 33.8445C32.9746 33.5008 32.8726 33.0872 32.8726 32.6038C32.8726 32.1204 32.9746 31.7086 33.1787 31.3685C33.3792 31.0247 33.6478 30.7454 33.9844 30.5306C34.321 30.3157 34.7077 30.16 35.1445 30.0633C35.5814 29.9666 36.0343 29.9183 36.5034 29.9183C36.9725 29.9183 37.4255 29.9666 37.8623 30.0633C38.2992 30.16 38.6841 30.3139 39.0171 30.5252C39.3501 30.7365 39.6187 31.014 39.8228 31.3577C40.0233 31.6979 40.1235 32.1132 40.1235 32.6038C40.1235 33.0944 40.0233 33.5115 39.8228 33.8553C39.6187 34.1954 39.3501 34.4729 39.0171 34.6878C38.6841 34.8991 38.2992 35.0512 37.8623 35.1443C37.4255 35.241 36.9725 35.2894 36.5034 35.2894ZM36.5034 27.4486C37.0226 27.4486 37.5096 27.386 37.9644 27.2607L34.5 23.9789C34.1777 24.1508 33.9307 24.3638 33.7588 24.6181C33.5869 24.8687 33.501 25.1623 33.501 25.4989C33.501 26.1291 33.7695 26.6125 34.3066 26.9491C34.8402 27.2821 35.5724 27.4486 36.5034 27.4486ZM38.5605 27.0082C39.1908 26.6537 39.5059 26.1506 39.5059 25.4989C39.5059 24.883 39.2391 24.405 38.7056 24.0648C38.1685 23.7247 37.4344 23.5546 36.5034 23.5546C36.2456 23.5546 36.0021 23.5707 35.773 23.6029C35.5402 23.6352 35.3182 23.6799 35.1069 23.7372L38.5605 27.0082ZM36.5034 28.1845C36.0343 28.1845 35.5814 28.1343 35.1445 28.0341C34.7077 27.9338 34.321 27.7781 33.9844 27.5668C33.6478 27.3555 33.3792 27.0798 33.1787 26.7397C32.9746 26.3959 32.8726 25.9823 32.8726 25.4989C32.8726 25.0155 32.9746 24.6037 33.1787 24.2636C33.3792 23.9198 33.6478 23.6405 33.9844 23.4257C34.321 23.2108 34.7077 23.0551 35.1445 22.9584C35.5814 22.8617 36.0343 22.8134 36.5034 22.8134C36.9725 22.8134 37.4255 22.8617 37.8623 22.9584C38.2992 23.0551 38.6841 23.2091 39.0171 23.4203C39.3501 23.6316 39.6187 23.9091 39.8228 24.2528C40.0233 24.593 40.1235 25.0084 40.1235 25.4989C40.1235 25.9895 40.0233 26.4066 39.8228 26.7504C39.6187 27.0906 39.3501 27.3681 39.0171 27.5829C38.6841 27.7942 38.2992 27.9464 37.8623 28.0395C37.4255 28.1361 36.9725 28.1845 36.5034 28.1845ZM40 16.9009L40 19.9033L39.3716 19.9033L39.3716 18.77L34.5859 18.77C34.7327 18.8345 34.8903 18.9365 35.0586 19.0762C35.2233 19.2158 35.3755 19.3805 35.5151 19.5703C35.6512 19.7601 35.7658 19.9696 35.8589 20.1987C35.952 20.4243 35.9985 20.6589 35.9985 20.9023L35.2358 20.9023C35.2358 20.6839 35.1678 20.4494 35.0317 20.1987C34.8957 19.9481 34.722 19.7171 34.5107 19.5059C34.2995 19.2946 34.0596 19.1191 33.791 18.9795C33.5225 18.8398 33.2557 18.77 32.9907 18.77L32.9907 18.0288L39.3716 18.0288L39.3716 16.9009L40 16.9009ZM40 9.79599L40 12.7984L39.3716 12.7984L39.3716 11.6651L34.5859 11.6651C34.7327 11.7296 34.8903 11.8316 35.0586 11.9713C35.2233 12.1109 35.3755 12.2756 35.5151 12.4654C35.6512 12.6552 35.7658 12.8647 35.8589 13.0938C35.952 13.3194 35.9985 13.554 35.9985 13.7975L35.2358 13.7975C35.2358 13.579 35.1678 13.3445 35.0317 13.0938C34.8957 12.8432 34.722 12.6122 34.5107 12.401C34.2995 12.1897 34.0596 12.0143 33.791 11.8746C33.5225 11.735 33.2557 11.6651 32.9907 11.6651L32.9907 10.9239L39.3716 10.9239L39.3716 9.79599L40 9.79599ZM36.5034 6.13399C37.0226 6.13399 37.5096 6.07132 37.9644 5.946L34.5 2.66426C34.1777 2.83614 33.9307 3.04919 33.7588 3.30342C33.5869 3.55407 33.501 3.84769 33.501 4.18428C33.501 4.81449 33.7695 5.29789 34.3066 5.63448C34.8402 5.96748 35.5724 6.13399 36.5034 6.13399ZM38.5605 5.69356C39.1908 5.33907 39.5059 4.83597 39.5059 4.18428C39.5059 3.5684 39.2391 3.09037 38.7056 2.7502C38.1685 2.41003 37.4344 2.23994 36.5034 2.23994C36.2456 2.23994 36.0021 2.25606 35.773 2.28828C35.5402 2.32051 35.3182 2.36527 35.1069 2.42256L38.5605 5.69356ZM36.5034 6.86983C36.0343 6.86983 35.5814 6.8197 35.1445 6.71944C34.7077 6.61918 34.321 6.46341 33.9844 6.25215C33.6478 6.04089 33.3792 5.76517 33.1787 5.425C32.9746 5.08125 32.8726 4.66768 32.8726 4.18428C32.8726 3.70088 32.9746 3.2891 33.1787 2.94893C33.3792 2.60518 33.6478 2.32588 33.9844 2.11104C34.321 1.89619 34.7077 1.74043 35.1445 1.64375C35.5814 1.54707 36.0343 1.49873 36.5034 1.49873C36.9725 1.49873 37.4255 1.54707 37.8623 1.64375C38.2992 1.74043 38.6841 1.8944 39.0171 2.10567C39.3501 2.31693 39.6187 2.59444 39.8228 2.93819C40.0233 3.27836 40.1235 3.69372 40.1235 4.18428C40.1235 4.67484 40.0233 5.092 39.8228 5.43575C39.6187 5.77591 39.3501 6.05342 39.0171 6.26826C38.6841 6.47953 38.2992 6.63171 37.8623 6.72481C37.4255 6.82149 36.9725 6.86983 36.5034 6.86983Z" fill="#E98645"/>
</svg>
