<svg width="40" height="40" viewBox="0 0 40 40" fill="none" xmlns="http://www.w3.org/2000/svg">
<path d="M20.2083 20.9175C21.1866 20.9176 22.143 20.6275 22.9565 20.0839C23.77 19.5404 24.404 18.7678 24.7784 17.8639C25.1528 16.9601 25.2508 15.9655 25.0599 15.0059C24.8691 14.0463 24.398 13.1649 23.7062 12.4731C23.0144 11.7813 22.133 11.3102 21.1734 11.1193C20.2139 10.9285 19.2193 11.0264 18.3154 11.4008C17.4115 11.7752 16.6389 12.4092 16.0954 13.2227C15.5518 14.0362 15.2617 14.9926 15.2617 15.9709C15.2632 17.2824 15.7848 18.5397 16.7122 19.4671C17.6395 20.3944 18.8968 20.9161 20.2083 20.9175ZM20.2083 12.406C20.9134 12.406 21.6027 12.615 22.1889 13.0068C22.7752 13.3985 23.2321 13.9553 23.502 14.6067C23.7718 15.2581 23.8424 15.9749 23.7048 16.6664C23.5673 17.358 23.2278 17.9932 22.7292 18.4918C22.2306 18.9904 21.5954 19.3299 20.9038 19.4675C20.2123 19.605 19.4955 19.5344 18.8441 19.2646C18.1926 18.9947 17.6359 18.5378 17.2441 17.9515C16.8524 17.3653 16.6433 16.676 16.6434 15.9709C16.6445 15.0258 17.0205 14.1197 17.6888 13.4515C18.3571 12.7832 19.2632 12.4072 20.2083 12.4061V12.406ZM18.9385 30.5401C19.0883 30.7344 19.2807 30.8917 19.5008 31C19.7209 31.1082 19.963 31.1645 20.2083 31.1645C20.4536 31.1645 20.6957 31.1082 20.9158 31C21.136 30.8917 21.3284 30.7344 21.4781 30.5401L27.5926 22.6071C29.3119 20.3764 30.296 17.7448 30.3636 15.1972C30.437 12.4282 29.4585 9.94734 27.5339 8.0227C25.5874 6.08673 22.9536 5 20.2083 5C17.4629 5 14.8292 6.08673 12.8827 8.0227C10.9581 9.94722 9.97956 12.4281 10.0532 15.1971C10.1208 17.7447 11.1049 20.3762 12.8243 22.607L18.9385 30.5401ZM13.8596 8.99953C15.5471 7.32266 17.8294 6.38148 20.2083 6.38148C22.5872 6.38148 24.8695 7.32266 26.557 8.99953C29.8085 12.2511 29.7844 17.4999 26.4982 21.7635L20.3839 29.6968C20.3632 29.7236 20.3366 29.7454 20.3061 29.7604C20.2757 29.7754 20.2422 29.7831 20.2083 29.7831C20.1744 29.7831 20.1409 29.7754 20.1105 29.7604C20.08 29.7454 20.0534 29.7236 20.0327 29.6968L13.9183 21.7638C10.6322 17.4999 10.608 12.2511 13.8596 8.99953ZM10 29.5285C10 28.1846 11.0228 26.9445 12.8802 26.0365C13.0446 25.9569 13.2339 25.9458 13.4066 26.0055C13.5793 26.0652 13.7213 26.1909 13.8015 26.355C13.8818 26.5191 13.8937 26.7084 13.8348 26.8813C13.7758 27.0542 13.6508 27.1968 13.487 27.2777C12.149 27.9318 11.3816 28.7522 11.3816 29.5287C11.3816 31.2146 15.0066 33.0933 20.2083 33.0933C25.41 33.0933 29.0349 31.2146 29.0349 29.5284C29.0349 28.7521 28.2676 27.9317 26.9296 27.2774C26.7658 27.1965 26.6408 27.054 26.5818 26.881C26.5229 26.7081 26.5348 26.5188 26.6151 26.3547C26.6953 26.1906 26.8373 26.0649 27.01 26.0052C27.1827 25.9455 27.3719 25.9567 27.5364 26.0362C29.3938 26.9442 30.4166 28.1843 30.4166 29.5282C30.4166 30.9538 29.2814 32.2464 27.2201 33.1681C25.3357 34.0109 22.8455 34.475 20.2083 34.475C17.5711 34.475 15.0808 34.0109 13.1964 33.1681C11.1351 32.2466 10 30.9539 10 29.5284V29.5285Z" fill="white"/>
</svg>
