<svg width="321" height="25" viewBox="0 0 321 25" fill="none" xmlns="http://www.w3.org/2000/svg">
<mask id="path-1-outside-1_116_1034" maskUnits="userSpaceOnUse" x="0" y="0.399994" width="321" height="24" fill="black">
<rect fill="white" y="0.399994" width="321" height="24"/>
<path d="M25.768 4.38799H7.12C5.392 4.38799 3.988 5.79199 3.952 7.51999V7.55599C3.952 7.59199 3.952 7.59199 3.952 7.59199C3.988 9.31999 5.356 10.724 7.084 10.724H21.304C24.688 10.724 27.46 13.496 27.46 16.88C27.46 19.436 25.84 21.776 23.428 22.64C22.744 22.892 22.024 23 21.304 23H2.692V20.048H21.304C23.068 20.048 24.472 18.644 24.508 16.916V16.88C24.508 16.844 24.508 16.844 24.508 16.844C24.472 15.116 23.068 13.712 21.376 13.712C21.34 13.712 21.34 13.712 21.304 13.712H7.12C3.736 13.712 1 10.94 1 7.55599C1 4.99999 2.62 2.65999 5.032 1.79599C5.68 1.54399 6.4 1.39999 7.12 1.39999H25.768V4.38799Z"/>
<path d="M33.2734 11.876H53.1814C55.2334 11.876 56.9254 10.184 56.9254 8.16799C56.9254 8.13199 56.9254 8.13199 56.9254 8.13199C56.9254 6.07999 55.2694 4.38799 53.1814 4.38799H33.2734V1.39999H53.1814C56.8894 1.39999 59.9134 4.42399 59.9134 8.13199C59.9134 11.192 57.7894 13.892 54.8014 14.648L54.6574 14.684C54.1894 14.792 53.6854 14.828 53.1814 14.828H36.2254V23.036H33.2734V11.876Z"/>
<path d="M75.9835 23L77.8555 20.048H93.2275L82.2835 4.20799L69.2875 23H65.6875L80.5915 1.39999H83.9395L98.8795 23H75.9835Z"/>
<path d="M104.641 15.116V9.31999C104.641 4.96399 108.169 1.39999 112.525 1.39999H124.513C128.581 1.39999 132.001 4.56799 132.361 8.56399H129.409C129.013 6.18799 126.961 4.38799 124.513 4.38799H112.525C109.825 4.38799 107.593 6.61999 107.593 9.31999V15.116C107.593 17.816 109.825 20.048 112.525 20.048H124.513C126.961 20.048 129.013 18.248 129.409 15.872H132.361C132.001 19.868 128.581 23 124.513 23H112.525C108.169 23 104.641 19.472 104.641 15.116Z"/>
<path d="M138.145 20.048H162.913V23H138.145V20.048ZM138.145 10.724H159.457V13.712H138.145V10.724ZM138.145 1.39999H162.913V4.38799H138.145V1.39999Z"/>
<path d="M190.105 15.116V9.31999C190.105 4.96399 193.633 1.39999 197.989 1.39999H209.977C214.045 1.39999 217.465 4.56799 217.825 8.56399H214.873C214.477 6.18799 212.425 4.38799 209.977 4.38799H197.989C195.289 4.38799 193.057 6.61999 193.057 9.31999V15.116C193.057 17.816 195.289 20.048 197.989 20.048H209.977C212.425 20.048 214.477 18.248 214.873 15.872H217.825C217.465 19.868 214.045 23 209.977 23H197.989C193.633 23 190.105 19.472 190.105 15.116Z"/>
<path d="M233.905 23L235.777 20.048H251.149L240.205 4.20799L227.209 23H223.609L238.513 1.39999H241.861L256.801 23H233.905Z"/>
<path d="M287.331 4.38799H268.682C266.954 4.38799 265.551 5.79199 265.514 7.51999V7.55599C265.514 7.59199 265.514 7.59199 265.514 7.59199C265.551 9.31999 266.919 10.724 268.647 10.724H282.866C286.25 10.724 289.022 13.496 289.022 16.88C289.022 19.436 287.402 21.776 284.991 22.64C284.307 22.892 283.586 23 282.866 23H264.254V20.048H282.866C284.63 20.048 286.034 18.644 286.07 16.916V16.88C286.07 16.844 286.07 16.844 286.07 16.844C286.034 15.116 284.63 13.712 282.939 13.712C282.902 13.712 282.902 13.712 282.866 13.712H268.682C265.298 13.712 262.562 10.94 262.562 7.55599C262.562 4.99999 264.183 2.65999 266.595 1.79599C267.243 1.54399 267.962 1.39999 268.682 1.39999H287.331V4.38799Z"/>
<path d="M294.836 20.048H319.604V23H294.836V20.048ZM294.836 10.724H316.148V13.712H294.836V10.724ZM294.836 1.39999H319.604V4.38799H294.836V1.39999Z"/>
</mask>
<path d="M25.768 4.38799H7.12C5.392 4.38799 3.988 5.79199 3.952 7.51999V7.55599C3.952 7.59199 3.952 7.59199 3.952 7.59199C3.988 9.31999 5.356 10.724 7.084 10.724H21.304C24.688 10.724 27.46 13.496 27.46 16.88C27.46 19.436 25.84 21.776 23.428 22.64C22.744 22.892 22.024 23 21.304 23H2.692V20.048H21.304C23.068 20.048 24.472 18.644 24.508 16.916V16.88C24.508 16.844 24.508 16.844 24.508 16.844C24.472 15.116 23.068 13.712 21.376 13.712C21.34 13.712 21.34 13.712 21.304 13.712H7.12C3.736 13.712 1 10.94 1 7.55599C1 4.99999 2.62 2.65999 5.032 1.79599C5.68 1.54399 6.4 1.39999 7.12 1.39999H25.768V4.38799Z" fill="white"/>
<path d="M33.2734 11.876H53.1814C55.2334 11.876 56.9254 10.184 56.9254 8.16799C56.9254 8.13199 56.9254 8.13199 56.9254 8.13199C56.9254 6.07999 55.2694 4.38799 53.1814 4.38799H33.2734V1.39999H53.1814C56.8894 1.39999 59.9134 4.42399 59.9134 8.13199C59.9134 11.192 57.7894 13.892 54.8014 14.648L54.6574 14.684C54.1894 14.792 53.6854 14.828 53.1814 14.828H36.2254V23.036H33.2734V11.876Z" fill="white"/>
<path d="M75.9835 23L77.8555 20.048H93.2275L82.2835 4.20799L69.2875 23H65.6875L80.5915 1.39999H83.9395L98.8795 23H75.9835Z" fill="white"/>
<path d="M104.641 15.116V9.31999C104.641 4.96399 108.169 1.39999 112.525 1.39999H124.513C128.581 1.39999 132.001 4.56799 132.361 8.56399H129.409C129.013 6.18799 126.961 4.38799 124.513 4.38799H112.525C109.825 4.38799 107.593 6.61999 107.593 9.31999V15.116C107.593 17.816 109.825 20.048 112.525 20.048H124.513C126.961 20.048 129.013 18.248 129.409 15.872H132.361C132.001 19.868 128.581 23 124.513 23H112.525C108.169 23 104.641 19.472 104.641 15.116Z" fill="white"/>
<path d="M138.145 20.048H162.913V23H138.145V20.048ZM138.145 10.724H159.457V13.712H138.145V10.724ZM138.145 1.39999H162.913V4.38799H138.145V1.39999Z" fill="white"/>
<path d="M190.105 15.116V9.31999C190.105 4.96399 193.633 1.39999 197.989 1.39999H209.977C214.045 1.39999 217.465 4.56799 217.825 8.56399H214.873C214.477 6.18799 212.425 4.38799 209.977 4.38799H197.989C195.289 4.38799 193.057 6.61999 193.057 9.31999V15.116C193.057 17.816 195.289 20.048 197.989 20.048H209.977C212.425 20.048 214.477 18.248 214.873 15.872H217.825C217.465 19.868 214.045 23 209.977 23H197.989C193.633 23 190.105 19.472 190.105 15.116Z" fill="white"/>
<path d="M233.905 23L235.777 20.048H251.149L240.205 4.20799L227.209 23H223.609L238.513 1.39999H241.861L256.801 23H233.905Z" fill="white"/>
<path d="M287.331 4.38799H268.682C266.954 4.38799 265.551 5.79199 265.514 7.51999V7.55599C265.514 7.59199 265.514 7.59199 265.514 7.59199C265.551 9.31999 266.919 10.724 268.647 10.724H282.866C286.25 10.724 289.022 13.496 289.022 16.88C289.022 19.436 287.402 21.776 284.991 22.64C284.307 22.892 283.586 23 282.866 23H264.254V20.048H282.866C284.63 20.048 286.034 18.644 286.07 16.916V16.88C286.07 16.844 286.07 16.844 286.07 16.844C286.034 15.116 284.63 13.712 282.939 13.712C282.902 13.712 282.902 13.712 282.866 13.712H268.682C265.298 13.712 262.562 10.94 262.562 7.55599C262.562 4.99999 264.183 2.65999 266.595 1.79599C267.243 1.54399 267.962 1.39999 268.682 1.39999H287.331V4.38799Z" fill="white"/>
<path d="M294.836 20.048H319.604V23H294.836V20.048ZM294.836 10.724H316.148V13.712H294.836V10.724ZM294.836 1.39999H319.604V4.38799H294.836V1.39999Z" fill="white"/>
<path d="M25.768 4.38799H7.12C5.392 4.38799 3.988 5.79199 3.952 7.51999V7.55599C3.952 7.59199 3.952 7.59199 3.952 7.59199C3.988 9.31999 5.356 10.724 7.084 10.724H21.304C24.688 10.724 27.46 13.496 27.46 16.88C27.46 19.436 25.84 21.776 23.428 22.64C22.744 22.892 22.024 23 21.304 23H2.692V20.048H21.304C23.068 20.048 24.472 18.644 24.508 16.916V16.88C24.508 16.844 24.508 16.844 24.508 16.844C24.472 15.116 23.068 13.712 21.376 13.712C21.34 13.712 21.34 13.712 21.304 13.712H7.12C3.736 13.712 1 10.94 1 7.55599C1 4.99999 2.62 2.65999 5.032 1.79599C5.68 1.54399 6.4 1.39999 7.12 1.39999H25.768V4.38799Z" stroke="white" stroke-width="2" mask="url(#path-1-outside-1_116_1034)"/>
<path d="M33.2734 11.876H53.1814C55.2334 11.876 56.9254 10.184 56.9254 8.16799C56.9254 8.13199 56.9254 8.13199 56.9254 8.13199C56.9254 6.07999 55.2694 4.38799 53.1814 4.38799H33.2734V1.39999H53.1814C56.8894 1.39999 59.9134 4.42399 59.9134 8.13199C59.9134 11.192 57.7894 13.892 54.8014 14.648L54.6574 14.684C54.1894 14.792 53.6854 14.828 53.1814 14.828H36.2254V23.036H33.2734V11.876Z" stroke="white" stroke-width="2" mask="url(#path-1-outside-1_116_1034)"/>
<path d="M75.9835 23L77.8555 20.048H93.2275L82.2835 4.20799L69.2875 23H65.6875L80.5915 1.39999H83.9395L98.8795 23H75.9835Z" stroke="white" stroke-width="2" mask="url(#path-1-outside-1_116_1034)"/>
<path d="M104.641 15.116V9.31999C104.641 4.96399 108.169 1.39999 112.525 1.39999H124.513C128.581 1.39999 132.001 4.56799 132.361 8.56399H129.409C129.013 6.18799 126.961 4.38799 124.513 4.38799H112.525C109.825 4.38799 107.593 6.61999 107.593 9.31999V15.116C107.593 17.816 109.825 20.048 112.525 20.048H124.513C126.961 20.048 129.013 18.248 129.409 15.872H132.361C132.001 19.868 128.581 23 124.513 23H112.525C108.169 23 104.641 19.472 104.641 15.116Z" stroke="white" stroke-width="2" mask="url(#path-1-outside-1_116_1034)"/>
<path d="M138.145 20.048H162.913V23H138.145V20.048ZM138.145 10.724H159.457V13.712H138.145V10.724ZM138.145 1.39999H162.913V4.38799H138.145V1.39999Z" stroke="white" stroke-width="2" mask="url(#path-1-outside-1_116_1034)"/>
<path d="M190.105 15.116V9.31999C190.105 4.96399 193.633 1.39999 197.989 1.39999H209.977C214.045 1.39999 217.465 4.56799 217.825 8.56399H214.873C214.477 6.18799 212.425 4.38799 209.977 4.38799H197.989C195.289 4.38799 193.057 6.61999 193.057 9.31999V15.116C193.057 17.816 195.289 20.048 197.989 20.048H209.977C212.425 20.048 214.477 18.248 214.873 15.872H217.825C217.465 19.868 214.045 23 209.977 23H197.989C193.633 23 190.105 19.472 190.105 15.116Z" stroke="white" stroke-width="2" mask="url(#path-1-outside-1_116_1034)"/>
<path d="M233.905 23L235.777 20.048H251.149L240.205 4.20799L227.209 23H223.609L238.513 1.39999H241.861L256.801 23H233.905Z" stroke="white" stroke-width="2" mask="url(#path-1-outside-1_116_1034)"/>
<path d="M287.331 4.38799H268.682C266.954 4.38799 265.551 5.79199 265.514 7.51999V7.55599C265.514 7.59199 265.514 7.59199 265.514 7.59199C265.551 9.31999 266.919 10.724 268.647 10.724H282.866C286.25 10.724 289.022 13.496 289.022 16.88C289.022 19.436 287.402 21.776 284.991 22.64C284.307 22.892 283.586 23 282.866 23H264.254V20.048H282.866C284.63 20.048 286.034 18.644 286.07 16.916V16.88C286.07 16.844 286.07 16.844 286.07 16.844C286.034 15.116 284.63 13.712 282.939 13.712C282.902 13.712 282.902 13.712 282.866 13.712H268.682C265.298 13.712 262.562 10.94 262.562 7.55599C262.562 4.99999 264.183 2.65999 266.595 1.79599C267.243 1.54399 267.962 1.39999 268.682 1.39999H287.331V4.38799Z" stroke="white" stroke-width="2" mask="url(#path-1-outside-1_116_1034)"/>
<path d="M294.836 20.048H319.604V23H294.836V20.048ZM294.836 10.724H316.148V13.712H294.836V10.724ZM294.836 1.39999H319.604V4.38799H294.836V1.39999Z" stroke="white" stroke-width="2" mask="url(#path-1-outside-1_116_1034)"/>
</svg>
