<svg width="40" height="40" viewBox="0 0 40 40" fill="none" xmlns="http://www.w3.org/2000/svg">
<path d="M31.5581 10H7.69709C6.00373 10 4.61825 11.3855 4.61825 13.0788V14.2334C4.61825 14.6567 4.96462 15.0031 5.38796 15.0031C5.8113 15.0031 6.15767 14.6567 6.15767 14.2334V13.0788C6.15767 12.9249 6.19616 12.771 6.23464 12.617L14.8554 20.0062L6.23464 27.3954C6.19616 27.2415 6.15767 27.0875 6.15767 26.9336V25.779C6.15767 25.3557 5.8113 25.0093 5.38796 25.0093C4.96462 25.0093 4.61825 25.3557 4.61825 25.779V26.9336C4.61825 28.627 6.00373 30.0124 7.69709 30.0124H31.5581C33.2514 30.0124 34.6369 28.627 34.6369 26.9336V13.0788C34.6369 11.3855 33.2514 10 31.5581 10ZM7.3892 11.5779C7.46618 11.5394 7.58163 11.5394 7.69709 11.5394H31.5581C31.6735 11.5394 31.789 11.5394 31.8659 11.5779L20.1279 21.6226C19.82 21.8535 19.4351 21.8535 19.1273 21.6226L7.3892 11.5779ZM31.5581 28.473H7.69709C7.58163 28.473 7.46618 28.473 7.3892 28.4345L16.0484 21.0068L18.1266 22.8157C18.55 23.2005 19.0888 23.3929 19.6276 23.3929C20.1664 23.3929 20.7052 23.2005 21.1285 22.8157L23.2067 21.0068L31.8659 28.4345C31.789 28.473 31.6735 28.473 31.5581 28.473ZM33.0975 26.9336C33.0975 27.0875 33.059 27.2415 33.0205 27.3954L24.3998 20.0062L33.0205 12.617C33.059 12.771 33.0975 12.9249 33.0975 13.0788V26.9336ZM2.30913 18.0819C2.30913 17.6586 2.6555 17.3122 3.07884 17.3122H7.69709C8.12043 17.3122 8.4668 17.6586 8.4668 18.0819C8.4668 18.5053 8.12043 18.8517 7.69709 18.8517H3.07884C2.6555 18.8517 2.30913 18.5053 2.30913 18.0819ZM7.69709 22.7002H0.769709C0.346369 22.7002 0 22.3538 0 21.9305C0 21.5071 0.346369 21.1608 0.769709 21.1608H7.69709C8.12043 21.1608 8.4668 21.5071 8.4668 21.9305C8.4668 22.3538 8.12043 22.7002 7.69709 22.7002Z" fill="white"/>
</svg>
