<svg width="79" height="11" viewBox="0 0 79 11" fill="none" xmlns="http://www.w3.org/2000/svg">
<path d="M5.82353 8.84053L9.42247 11L8.46741 6.93L11.6471 4.19158L7.45994 3.83842L5.82353 0L4.18712 3.83842L0 4.19158L3.17965 6.93L2.22459 11L5.82353 8.84053Z" fill="white"/>
<path d="M22.4705 8.84053L26.0694 11L25.1144 6.93L28.294 4.19158L24.1069 3.83842L22.4705 0L20.8341 3.83842L16.647 4.19158L19.8266 6.93L18.8716 11L22.4705 8.84053Z" fill="white"/>
<path d="M39.1177 8.84053L42.7167 11L41.7616 6.93L44.9412 4.19158L40.7541 3.83842L39.1177 0L37.4813 3.83842L33.2942 4.19158L36.4738 6.93L35.5188 11L39.1177 8.84053Z" fill="white"/>
<path d="M55.7649 8.84053L59.3639 11L58.4088 6.93L61.5885 4.19158L57.4013 3.83842L55.7649 0L54.1285 3.83842L49.9414 4.19158L53.1211 6.93L52.166 11L55.7649 8.84053Z" fill="white"/>
<path d="M72.4119 8.84053L76.0108 11L75.0558 6.93L78.2354 4.19158L74.0483 3.83842L72.4119 0L70.7755 3.83842L66.5884 4.19158L69.768 6.93L68.813 11L72.4119 8.84053Z" fill="white"/>
</svg>
