<svg width="51" height="50" viewBox="0 0 51 50" fill="none" xmlns="http://www.w3.org/2000/svg">
<path d="M25.8436 45.8332C14.3561 45.8332 5.01025 36.4873 5.01025 24.9998C5.01025 13.5123 14.3561 4.1665 25.8436 4.1665C37.3311 4.1665 46.6769 13.5123 46.6769 24.9998C46.6769 36.4873 37.3311 45.8332 25.8436 45.8332ZM25.8436 7.2915C16.079 7.2915 8.13525 15.2353 8.13525 24.9998C8.13525 34.7644 16.079 42.7082 25.8436 42.7082C35.6082 42.7082 43.5519 34.7644 43.5519 24.9998C43.5519 15.2353 35.6082 7.2915 25.8436 7.2915Z" fill="#F0F0F0"/>
<path d="M25.8437 10.4167C25.4293 10.4167 25.0319 10.252 24.7389 9.95902C24.4459 9.666 24.2812 9.26857 24.2812 8.85417V1.5625C24.2812 1.1481 24.4459 0.750671 24.7389 0.457646C25.0319 0.16462 25.4293 0 25.8437 0C26.2581 0 26.6556 0.16462 26.9486 0.457646C27.2416 0.750671 27.4062 1.1481 27.4062 1.5625V8.85417C27.4062 9.26857 27.2416 9.666 26.9486 9.95902C26.6556 10.252 26.2581 10.4167 25.8437 10.4167ZM49.2812 26.5625H41.9896C41.5752 26.5625 41.1778 26.3979 40.8847 26.1049C40.5917 25.8118 40.4271 25.4144 40.4271 25C40.4271 24.5856 40.5917 24.1882 40.8847 23.8951C41.1778 23.6021 41.5752 23.4375 41.9896 23.4375H49.2812C49.6956 23.4375 50.0931 23.6021 50.3861 23.8951C50.6791 24.1882 50.8437 24.5856 50.8437 25C50.8437 25.4144 50.6791 25.8118 50.3861 26.1049C50.0931 26.3979 49.6956 26.5625 49.2812 26.5625ZM25.8437 50C25.4293 50 25.0319 49.8354 24.7389 49.5424C24.4459 49.2493 24.2812 48.8519 24.2812 48.4375V41.1458C24.2812 40.7314 24.4459 40.334 24.7389 40.041C25.0319 39.748 25.4293 39.5833 25.8437 39.5833C26.2581 39.5833 26.6556 39.748 26.9486 40.041C27.2416 40.334 27.4062 40.7314 27.4062 41.1458V48.4375C27.4062 48.8519 27.2416 49.2493 26.9486 49.5424C26.6556 49.8354 26.2581 50 25.8437 50ZM9.69792 26.5625H2.40625C1.99185 26.5625 1.59442 26.3979 1.3014 26.1049C1.00837 25.8118 0.84375 25.4144 0.84375 25C0.84375 24.5856 1.00837 24.1882 1.3014 23.8951C1.59442 23.6021 1.99185 23.4375 2.40625 23.4375H9.69792C10.1123 23.4375 10.5097 23.6021 10.8028 23.8951C11.0958 24.1882 11.2604 24.5856 11.2604 25C11.2604 25.4144 11.0958 25.8118 10.8028 26.1049C10.5097 26.3979 10.1123 26.5625 9.69792 26.5625ZM25.8437 31.25C22.3979 31.25 19.5937 28.4458 19.5937 25C19.5937 21.5542 22.3979 18.75 25.8437 18.75C29.2896 18.75 32.0937 21.5542 32.0937 25C32.0937 28.4458 29.2896 31.25 25.8437 31.25ZM25.8437 21.875C24.1208 21.875 22.7187 23.2771 22.7187 25C22.7187 26.7229 24.1208 28.125 25.8437 28.125C27.5667 28.125 28.9687 26.7229 28.9687 25C28.9687 23.2771 27.5667 21.875 25.8437 21.875Z" fill="#F0F0F0"/>
</svg>
