<svg width="48" height="48" viewBox="0 0 48 48" fill="none" xmlns="http://www.w3.org/2000/svg">
<path d="M23.5525 0C10.5649 0 0 10.5659 0 23.5525C0 36.5391 10.5649 47.105 23.5525 47.105C36.5401 47.105 47.105 36.5391 47.105 23.5525C47.105 10.5659 36.5401 0 23.5525 0ZM23.5525 45.1423C11.6478 45.1423 1.96268 35.4572 1.96268 23.5525C1.96268 11.6478 11.6478 1.96268 23.5525 1.96268C35.4572 1.96268 45.1423 11.6478 45.1423 23.5525C45.1423 35.4572 35.4572 45.1423 23.5525 45.1423Z" fill="white"/>
<path d="M32.9156 22.7274L19.1766 13.8952C18.8757 13.6988 18.4866 13.6882 18.1761 13.8587C18.0212 13.943 17.8918 14.0675 17.8018 14.2192C17.7117 14.3708 17.6642 14.544 17.6643 14.7203V32.3847C17.6643 32.7441 17.8598 33.0738 18.1761 33.2463C18.3202 33.3248 18.4816 33.366 18.6457 33.3661C18.8297 33.3661 19.0156 33.3143 19.1766 33.2099L32.9156 24.3777C33.1954 24.1975 33.366 23.886 33.366 23.5525C33.366 23.219 33.1954 22.9076 32.9156 22.7274Z" fill="white"/>
</svg>
