<svg xmlns="http://www.w3.org/2000/svg" width="95" height="95" viewBox="0 0 95 95" fill="none">
<path d="M7.5 15C7.69425 15 7.88054 14.9228 8.0179 14.7855C8.15526 14.6481 8.23242 14.4618 8.23242 14.2676V0.732422C8.23242 0.538172 8.15526 0.351877 8.0179 0.214521C7.88054 0.0771657 7.69425 0 7.5 0C7.30575 0 7.11946 0.0771657 6.9821 0.214521C6.84474 0.351877 6.76758 0.538172 6.76758 0.732422V14.2676C6.76758 14.4618 6.84474 14.6481 6.9821 14.7855C7.11946 14.9228 7.30575 15 7.5 15Z" fill="#ffffff"/>
<path d="M0.732422 8.23242H14.2676C14.4618 8.23242 14.6481 8.15526 14.7855 8.0179C14.9228 7.88054 15 7.69425 15 7.5C15 7.30575 14.9228 7.11946 14.7855 6.9821C14.6481 6.84474 14.4618 6.76758 14.2676 6.76758H0.732422C0.538172 6.76758 0.351877 6.84474 0.214521 6.9821C0.0771656 7.11946 0 7.30575 0 7.5C0 7.69425 0.0771656 7.88054 0.214521 8.0179C0.351877 8.15526 0.538172 8.23242 0.732422 8.23242Z" fill="#ffffff"/>
<!-- fill="#0B334B" -->
</svg>
