<svg width="873" height="278" viewBox="0 0 873 278" fill="none" xmlns="http://www.w3.org/2000/svg">
<g clip-path="url(#clip0_210_57)">
<path d="M142.883 253.25H68.5061L2 127.234H76.3713L142.883 253.25Z" fill="#177BB6"/>
<path d="M68.5061 253.25H142.883L264 24H189.623L68.5061 253.25Z" fill="#2EA5E4"/>
</g>
<path d="M68.5679 253.25L2 127.234H76.3995L105.59 182.766L189.601 24H264L142.967 253.25H68.5679Z" stroke="#66CAFF" stroke-width="2"/>
<path d="M209.34 185.29C211.391 185.407 213.427 185.495 215.448 185.554C217.47 185.612 219.447 185.642 221.381 185.642C223.021 185.642 224.853 185.612 226.874 185.554C228.896 185.495 231.034 185.407 233.29 185.29V188.322H232.543C230.639 188.322 229.203 188.542 228.236 188.981C227.299 189.421 226.64 190.153 226.259 191.179C226.024 191.853 225.849 192.951 225.731 194.475C225.644 195.969 225.6 198.415 225.6 201.813V210.559V232.443C225.6 235.9 225.673 238.332 225.819 239.738C225.995 241.145 226.259 242.185 226.61 242.858C226.991 243.591 227.665 244.118 228.632 244.44C229.628 244.763 231.02 244.924 232.807 244.924H233.729V248C231.21 247.883 228.881 247.795 226.742 247.736C224.604 247.678 222.816 247.648 221.381 247.648C219.682 247.648 217.763 247.678 215.624 247.736C213.485 247.795 211.244 247.883 208.9 248V244.924H209.779C211.596 244.924 212.987 244.763 213.954 244.44C214.921 244.118 215.595 243.591 215.976 242.858C216.386 242.067 216.664 240.778 216.811 238.991C216.986 237.175 217.074 233.908 217.074 229.191V222.248V205.065C217.074 200.466 217.016 197.199 216.898 195.266C216.781 193.303 216.591 191.94 216.327 191.179C215.976 190.153 215.331 189.421 214.394 188.981C213.485 188.542 212.064 188.322 210.131 188.322H209.34V185.29ZM253.065 203.088C252.86 205.08 252.699 207.102 252.582 209.152C252.465 211.174 252.377 213.327 252.318 215.612C254.691 211.423 256.874 208.405 258.866 206.56C260.888 204.714 262.968 203.791 265.106 203.791C266.776 203.791 268.095 204.245 269.062 205.153C270.028 206.032 270.512 207.233 270.512 208.757C270.512 209.841 270.189 210.778 269.545 211.569C268.93 212.331 268.197 212.712 267.348 212.712C266.82 212.712 266 212.434 264.887 211.877C263.803 211.291 262.865 210.998 262.074 210.998C260.551 210.998 259.027 211.672 257.504 213.02C255.98 214.338 254.384 216.403 252.714 219.216V224.05C252.714 228.737 252.743 232.546 252.802 235.476C252.89 238.376 253.007 240.222 253.153 241.013C253.417 242.507 253.974 243.532 254.823 244.089C255.702 244.646 257.182 244.924 259.262 244.924H260.536V248C258.251 247.824 256.215 247.692 254.428 247.604C252.641 247.517 251.132 247.473 249.901 247.473C248.202 247.473 246.444 247.517 244.628 247.604C242.841 247.692 240.966 247.824 239.003 248V244.924H240.014C242.152 244.924 243.603 244.411 244.364 243.386C245.126 242.36 245.507 239.973 245.507 236.223V231.608V217.326C245.507 214.162 245.287 212.126 244.848 211.218C244.408 210.31 243.603 209.855 242.431 209.855C242.196 209.855 241.947 209.87 241.684 209.899C241.42 209.899 240.98 209.943 240.365 210.031L239.838 207.307C241.918 206.838 244.057 206.252 246.254 205.549C248.451 204.846 250.722 204.025 253.065 203.088ZM288.222 203.088C288.017 205.08 287.855 207.102 287.738 209.152C287.621 211.174 287.533 213.327 287.475 215.612C289.848 211.423 292.03 208.405 294.022 206.56C296.044 204.714 298.124 203.791 300.263 203.791C301.933 203.791 303.251 204.245 304.218 205.153C305.185 206.032 305.668 207.233 305.668 208.757C305.668 209.841 305.346 210.778 304.701 211.569C304.086 212.331 303.354 212.712 302.504 212.712C301.977 212.712 301.156 212.434 300.043 211.877C298.959 211.291 298.021 210.998 297.23 210.998C295.707 210.998 294.184 211.672 292.66 213.02C291.137 214.338 289.54 216.403 287.87 219.216V224.05C287.87 228.737 287.899 232.546 287.958 235.476C288.046 238.376 288.163 240.222 288.31 241.013C288.573 242.507 289.13 243.532 289.979 244.089C290.858 244.646 292.338 244.924 294.418 244.924H295.692V248C293.407 247.824 291.371 247.692 289.584 247.604C287.797 247.517 286.288 247.473 285.058 247.473C283.358 247.473 281.601 247.517 279.784 247.604C277.997 247.692 276.122 247.824 274.159 248V244.924H275.17C277.309 244.924 278.759 244.411 279.521 243.386C280.282 242.36 280.663 239.973 280.663 236.223V231.608V217.326C280.663 214.162 280.443 212.126 280.004 211.218C279.564 210.31 278.759 209.855 277.587 209.855C277.353 209.855 277.104 209.87 276.84 209.899C276.576 209.899 276.137 209.943 275.521 210.031L274.994 207.307C277.074 206.838 279.213 206.252 281.41 205.549C283.607 204.846 285.878 204.025 288.222 203.088ZM324.257 203.088C324.228 204.201 324.184 205.783 324.125 207.834C323.744 219.611 323.554 227.902 323.554 232.707V237.365C323.554 240.764 323.876 242.902 324.521 243.781C325.165 244.66 326.425 245.1 328.3 245.1C328.476 245.1 328.71 245.085 329.003 245.056C329.296 245.026 329.516 245.012 329.662 245.012V248C327.172 247.824 325.165 247.707 323.642 247.648C322.118 247.59 320.829 247.561 319.774 247.561C318.837 247.561 317.636 247.59 316.171 247.648C314.735 247.707 312.567 247.824 309.667 248V244.924H310.766C314.398 244.924 316.229 241.35 316.259 234.201C316.259 233.176 316.259 232.37 316.259 231.784L316.435 220.93C316.435 220.139 316.449 219.143 316.479 217.941C316.508 216.74 316.522 215.935 316.522 215.524C316.522 213.151 316.288 211.584 315.819 210.822C315.38 210.061 314.56 209.68 313.358 209.68C313.124 209.68 312.772 209.709 312.304 209.768C311.864 209.797 311.381 209.841 310.854 209.899L310.414 207.131C312.729 206.691 315.028 206.135 317.313 205.461C319.628 204.787 321.942 203.996 324.257 203.088ZM319.511 182.39L322.631 184.719C323.451 185.334 324.052 185.949 324.433 186.564C324.813 187.18 325.004 187.824 325.004 188.498C325.004 189.172 324.843 189.758 324.521 190.256C324.228 190.725 323.656 191.281 322.807 191.926L319.511 194.431L316.435 192.014C315.585 191.34 314.97 190.725 314.589 190.168C314.208 189.582 314.018 188.967 314.018 188.322C314.018 187.678 314.164 187.121 314.457 186.652C314.75 186.154 315.351 185.568 316.259 184.895L319.511 182.39ZM355.854 206.955C352.719 206.955 350.287 207.922 348.559 209.855C346.83 211.789 345.966 214.514 345.966 218.029C345.966 221.896 346.801 224.914 348.471 227.082C350.17 229.221 352.543 230.29 355.59 230.29C358.666 230.29 361.083 229.323 362.841 227.39C364.599 225.427 365.478 222.731 365.478 219.304C365.478 215.349 364.643 212.302 362.973 210.163C361.303 208.024 358.93 206.955 355.854 206.955ZM347.855 247.385C346.42 248.996 345.365 250.461 344.691 251.779C344.018 253.098 343.681 254.357 343.681 255.559C343.681 258.283 344.896 260.583 347.328 262.458C349.789 264.333 352.865 265.271 356.557 265.271C360.746 265.271 364.364 264.099 367.411 261.755C370.487 259.44 372.025 256.833 372.025 253.933C372.025 251.56 371.278 249.89 369.784 248.923C368.29 247.956 365.419 247.473 361.171 247.473C360.731 247.473 359.765 247.458 358.271 247.429C356.776 247.399 355.517 247.385 354.491 247.385H347.855ZM366.269 206.691C368.231 206.691 370.209 206.662 372.201 206.604C374.223 206.545 376.244 206.457 378.266 206.34L378.046 210.734C376.757 210.588 375.336 210.485 373.783 210.427C372.26 210.339 370.487 210.295 368.466 210.295C369.843 211.35 370.883 212.639 371.586 214.162C372.318 215.656 372.685 217.312 372.685 219.128C372.685 223.083 371.029 226.481 367.719 229.323C364.438 232.165 360.395 233.586 355.59 233.586C355.092 233.586 354.389 233.557 353.48 233.498C352.572 233.41 351.928 233.352 351.547 233.322C350.756 233.85 350.009 234.406 349.306 234.992C348.603 235.549 347.958 236.135 347.372 236.75C347.812 237.57 348.31 238.332 348.866 239.035C349.452 239.709 350.126 240.354 350.888 240.969C351.796 240.969 353.1 240.954 354.799 240.925C358.9 240.837 361.596 240.793 362.885 240.793C368.188 240.793 371.996 241.599 374.311 243.21C376.654 244.821 377.826 247.414 377.826 250.988C377.826 253.273 377.182 255.573 375.893 257.888C374.633 260.231 372.846 262.37 370.531 264.304C368.158 266.267 365.419 267.805 362.313 268.918C359.237 270.031 356.176 270.588 353.129 270.588C348.588 270.588 344.779 269.387 341.703 266.984C338.656 264.582 337.133 261.667 337.133 258.239C337.133 256.247 337.763 254.284 339.022 252.351C340.312 250.446 342.553 248.19 345.746 245.583C344.428 244.382 343.329 243.151 342.45 241.892C341.601 240.632 340.912 239.255 340.385 237.761C341.439 236.765 342.597 235.827 343.856 234.948C345.116 234.04 346.508 233.146 348.031 232.268C345.072 231.33 342.758 229.763 341.088 227.565C339.418 225.368 338.583 222.819 338.583 219.919C338.583 215.378 340.253 211.54 343.593 208.405C346.962 205.271 351.166 203.703 356.205 203.703C358.051 203.703 359.779 203.952 361.391 204.45C363.002 204.919 364.628 205.666 366.269 206.691ZM422.343 241.628L423.573 244.396C421.376 245.979 419.369 247.194 417.553 248.044C415.736 248.923 414.271 249.362 413.158 249.362C411.283 249.362 409.877 248.82 408.939 247.736C408.002 246.623 407.489 244.953 407.401 242.727C404.208 244.865 401.557 246.403 399.447 247.341C397.338 248.249 395.448 248.703 393.778 248.703C390.819 248.703 388.344 247.59 386.352 245.363C384.359 243.137 383.363 240.412 383.363 237.189C383.363 231.711 389.267 227.58 401.073 224.797C403.856 224.152 406.024 223.64 407.577 223.259C407.577 222.761 407.592 222.043 407.621 221.105C407.709 219.172 407.753 217.912 407.753 217.326C407.753 214.279 407.123 212.038 405.863 210.603C404.604 209.138 402.685 208.405 400.106 208.405C397.587 208.405 395.595 208.874 394.13 209.812C392.694 210.72 391.977 211.965 391.977 213.547C391.977 213.693 391.991 213.898 392.021 214.162C392.05 214.396 392.064 214.572 392.064 214.689C392.064 215.598 391.625 216.359 390.746 216.975C389.867 217.561 388.812 217.854 387.582 217.854C386.527 217.854 385.751 217.678 385.253 217.326C384.755 216.975 384.506 216.433 384.506 215.7C384.506 213.356 386.483 210.749 390.438 207.878C394.394 204.978 398.48 203.527 402.699 203.527C406.771 203.527 409.862 204.655 411.972 206.911C414.081 209.138 415.136 212.419 415.136 216.755C415.136 219.099 414.989 222.702 414.696 227.565C414.433 232.429 414.301 236.12 414.301 238.64C414.301 240.544 414.506 241.833 414.916 242.507C415.355 243.181 416.117 243.518 417.201 243.518C417.67 243.518 418.271 243.386 419.003 243.122C419.765 242.829 420.878 242.331 422.343 241.628ZM407.357 226.774C406.801 226.921 405.966 227.141 404.853 227.434C395.331 230.041 390.57 233.117 390.57 236.662C390.57 238.596 391.186 240.178 392.416 241.408C393.646 242.609 395.272 243.21 397.294 243.21C398.524 243.21 399.945 242.888 401.557 242.243C403.168 241.599 405.043 240.573 407.182 239.167L407.357 226.774ZM437.284 196.54L440.185 197.419C440.009 199.03 439.862 200.48 439.745 201.77C439.657 203.029 439.599 204.274 439.569 205.505H442.689C444.359 205.505 446.059 205.49 447.787 205.461C449.516 205.402 451.259 205.329 453.017 205.241L451.962 210.031C450.087 209.885 448.314 209.797 446.645 209.768C445.004 209.709 443.363 209.68 441.723 209.68H439.657C439.481 214.719 439.35 218.586 439.262 221.281C439.203 223.947 439.174 226.159 439.174 227.917C439.174 234.538 439.628 238.859 440.536 240.881C441.444 242.873 443.07 243.869 445.414 243.869C446.381 243.869 447.45 243.664 448.622 243.254C449.823 242.844 451.273 242.17 452.973 241.232L454.423 244.133C451.61 245.832 449.062 247.121 446.776 248C444.491 248.85 442.499 249.274 440.8 249.274C437.665 249.274 435.38 248.205 433.944 246.066C432.509 243.898 431.791 240.427 431.791 235.651C431.791 234.714 431.85 231.374 431.967 225.632C432.113 219.86 432.187 214.572 432.187 209.768C431.923 209.768 431.542 209.782 431.044 209.812C428.612 209.899 426.942 209.943 426.034 209.943V206.779C428.905 206.369 431.278 205.314 433.153 203.615C435.028 201.887 436.405 199.528 437.284 196.54ZM473.231 203.088C473.202 204.201 473.158 205.783 473.1 207.834C472.719 219.611 472.528 227.902 472.528 232.707V237.365C472.528 240.764 472.851 242.902 473.495 243.781C474.14 244.66 475.399 245.1 477.274 245.1C477.45 245.1 477.685 245.085 477.978 245.056C478.271 245.026 478.49 245.012 478.637 245.012V248C476.146 247.824 474.14 247.707 472.616 247.648C471.093 247.59 469.804 247.561 468.749 247.561C467.812 247.561 466.61 247.59 465.146 247.648C463.71 247.707 461.542 247.824 458.642 248V244.924H459.74C463.373 244.924 465.204 241.35 465.233 234.201C465.233 233.176 465.233 232.37 465.233 231.784L465.409 220.93C465.409 220.139 465.424 219.143 465.453 217.941C465.482 216.74 465.497 215.935 465.497 215.524C465.497 213.151 465.263 211.584 464.794 210.822C464.354 210.061 463.534 209.68 462.333 209.68C462.099 209.68 461.747 209.709 461.278 209.768C460.839 209.797 460.355 209.841 459.828 209.899L459.389 207.131C461.703 206.691 464.003 206.135 466.288 205.461C468.603 204.787 470.917 203.996 473.231 203.088ZM468.485 182.39L471.605 184.719C472.426 185.334 473.026 185.949 473.407 186.564C473.788 187.18 473.979 187.824 473.979 188.498C473.979 189.172 473.817 189.758 473.495 190.256C473.202 190.725 472.631 191.281 471.781 191.926L468.485 194.431L465.409 192.014C464.56 191.34 463.944 190.725 463.563 190.168C463.183 189.582 462.992 188.967 462.992 188.322C462.992 187.678 463.139 187.121 463.432 186.652C463.725 186.154 464.325 185.568 465.233 184.895L468.485 182.39ZM506.718 208.229C502.792 208.229 499.628 209.665 497.226 212.536C494.853 215.378 493.666 219.216 493.666 224.05C493.666 230.231 494.984 235.241 497.621 239.079C500.287 242.917 503.744 244.836 507.992 244.836C512.094 244.836 515.36 243.312 517.792 240.266C520.253 237.219 521.483 233.073 521.483 227.829C521.483 222.087 520.092 217.385 517.309 213.723C514.555 210.061 511.024 208.229 506.718 208.229ZM507.86 203.615C514.042 203.615 519.154 205.695 523.197 209.855C527.27 213.986 529.306 219.113 529.306 225.236C529.306 231.975 527.167 237.658 522.89 242.287C518.612 246.887 513.339 249.187 507.069 249.187C500.8 249.187 495.644 247.077 491.601 242.858C487.587 238.64 485.58 233.308 485.58 226.862C485.58 220.417 487.763 214.938 492.128 210.427C496.522 205.886 501.767 203.615 507.86 203.615ZM548.729 203.088L548.202 210.471C551.513 208.068 554.384 206.325 556.815 205.241C559.276 204.157 561.532 203.615 563.583 203.615C567.89 203.615 571.127 204.831 573.295 207.263C575.463 209.694 576.547 213.342 576.547 218.205C576.547 218.234 576.532 219.523 576.503 222.072C576.474 224.621 576.459 227.17 576.459 229.719C576.459 230.803 576.444 232.165 576.415 233.806C576.386 235.417 576.371 236.516 576.371 237.102C576.371 240.383 576.664 242.521 577.25 243.518C577.836 244.514 578.949 245.012 580.59 245.012C580.678 245.012 580.839 244.997 581.073 244.968C581.337 244.938 581.527 244.924 581.645 244.924V248C579.008 247.824 577.016 247.707 575.668 247.648C574.32 247.59 573.192 247.561 572.284 247.561C570.878 247.561 569.354 247.604 567.714 247.692C566.073 247.751 564.403 247.854 562.704 248L562.66 244.924H563.319C567.069 244.924 568.974 241.496 569.032 234.641C569.062 234.26 569.076 233.967 569.076 233.762L569.164 224.313V222.731C569.164 217.312 568.534 213.723 567.274 211.965C566.015 210.178 563.847 209.284 560.771 209.284C559.071 209.284 557.182 209.694 555.102 210.515C553.051 211.306 550.868 212.492 548.554 214.074C548.437 217.121 548.349 220.007 548.29 222.731C548.231 225.427 548.202 227.873 548.202 230.07V236.135C548.202 240.002 548.48 242.448 549.037 243.474C549.623 244.499 550.751 245.012 552.421 245.012C552.538 245.012 552.714 244.997 552.948 244.968C553.212 244.938 553.417 244.924 553.563 244.924V248C551.044 247.824 549.052 247.707 547.587 247.648C546.151 247.59 544.965 247.561 544.027 247.561C543.148 247.561 541.991 247.59 540.556 247.648C539.12 247.707 537.113 247.824 534.535 248L534.491 244.924H535.326C538.988 244.924 540.834 241.364 540.863 234.245C540.863 233.19 540.878 232.37 540.907 231.784L540.995 221.018V216.667C540.995 213.796 540.775 211.921 540.336 211.042C539.896 210.134 539.091 209.68 537.919 209.68C537.685 209.68 537.377 209.709 536.996 209.768C536.645 209.826 536.264 209.914 535.854 210.031L535.326 207.307C537.523 206.896 539.721 206.34 541.918 205.637C544.145 204.934 546.415 204.084 548.729 203.088Z" fill="white"/>
<path d="M320.803 137.689L343.288 81.7324L338.82 67.377C337.258 62.4941 335.817 59.4424 334.499 58.2217C333.181 57.001 331.105 56.3906 328.273 56.3906C327.492 56.3906 326.882 56.415 326.442 56.4639C326.052 56.4639 325.685 56.4883 325.344 56.5371L325.27 51.4834C329.763 51.7275 333.376 51.9229 336.11 52.0693C338.845 52.167 341.188 52.2158 343.141 52.2158C344.997 52.2158 347.365 52.167 350.246 52.0693C353.176 51.9229 357.106 51.7275 362.038 51.4834V56.5371H360.06C356.545 56.5371 354.225 56.8789 353.102 57.5625C351.979 58.1973 351.418 59.418 351.418 61.2246C351.418 62.2988 351.589 63.6172 351.931 65.1797C352.321 66.7422 353.2 69.5742 354.567 73.6758L375.368 137.689C377.272 132.367 379.86 124.994 383.132 115.57C394.557 83.1484 400.27 65.375 400.27 62.25C400.27 60.0527 399.684 58.5635 398.513 57.7822C397.341 56.9521 394.924 56.5371 391.262 56.5371H389.357V51.4834C392.433 51.6787 395.363 51.8252 398.146 51.9229C400.978 52.0205 403.542 52.0693 405.837 52.0693C408.474 52.0693 411.159 52.0205 413.893 51.9229C416.677 51.8252 419.484 51.6787 422.316 51.4834V56.5371H421.144C419.777 56.5371 418.605 56.6592 417.629 56.9033C416.701 57.1475 415.871 57.5381 415.139 58.0752C413.576 59.2959 409.255 69.3545 402.175 88.251L398.952 96.8936L392.8 113.08C390.993 117.914 388.6 124.262 385.622 132.123C380.251 146.234 377.297 154.584 376.76 157.172H368.19C367.507 154.633 366.457 151.19 365.041 146.845C364.553 145.38 364.211 144.354 364.016 143.769L347.023 92.7188L327.248 141.864C327.101 142.255 326.808 142.987 326.369 144.062C324.318 148.798 322.756 153.168 321.682 157.172H313.112C312.77 154.73 309.89 146.088 304.47 131.244C301.931 124.262 299.929 118.72 298.464 114.618L290.48 92.7188C289.162 89.0078 287.477 84.1006 285.427 77.9971C280.495 63.4951 275.978 56.2441 271.877 56.2441C271.633 56.2441 271.34 56.2686 270.998 56.3174C270.705 56.3662 270.266 56.4395 269.68 56.5371L269.606 51.4834C272.731 51.6787 275.685 51.8252 278.469 51.9229C281.252 52.0205 283.815 52.0693 286.159 52.0693C288.942 52.0693 291.799 52.0205 294.728 51.9229C297.658 51.8252 300.637 51.6787 303.664 51.4834V56.5371C300.148 56.5371 297.829 56.8545 296.706 57.4893C295.583 58.124 295.021 59.3691 295.021 61.2246C295.021 63.2266 296.218 67.6211 298.61 74.4082L298.903 75.1406L320.803 137.689ZM479.885 145.38L481.935 149.994C478.273 152.631 474.929 154.657 471.901 156.073C468.874 157.538 466.432 158.271 464.577 158.271C461.452 158.271 459.108 157.367 457.546 155.561C455.983 153.705 455.129 150.922 454.982 147.211C449.66 150.775 445.241 153.339 441.725 154.901C438.21 156.415 435.06 157.172 432.277 157.172C427.346 157.172 423.22 155.316 419.899 151.605C416.579 147.895 414.919 143.354 414.919 137.982C414.919 128.852 424.758 121.967 444.435 117.328C449.074 116.254 452.687 115.399 455.275 114.765C455.275 113.935 455.3 112.738 455.349 111.176C455.495 107.953 455.568 105.854 455.568 104.877C455.568 99.7988 454.518 96.0635 452.419 93.6709C450.319 91.2295 447.121 90.0088 442.824 90.0088C438.625 90.0088 435.305 90.79 432.863 92.3525C430.471 93.8662 429.274 95.9414 429.274 98.5781C429.274 98.8223 429.299 99.1641 429.348 99.6035C429.396 99.9941 429.421 100.287 429.421 100.482C429.421 101.996 428.688 103.266 427.224 104.291C425.759 105.268 424.001 105.756 421.95 105.756C420.192 105.756 418.898 105.463 418.068 104.877C417.238 104.291 416.823 103.388 416.823 102.167C416.823 98.2607 420.119 93.915 426.711 89.1299C433.303 84.2959 440.114 81.8789 447.145 81.8789C453.932 81.8789 459.084 83.7588 462.599 87.5186C466.115 91.2295 467.873 96.6982 467.873 103.925C467.873 107.831 467.629 113.837 467.141 121.942C466.701 130.048 466.481 136.2 466.481 140.399C466.481 143.573 466.823 145.722 467.507 146.845C468.239 147.968 469.509 148.529 471.315 148.529C472.097 148.529 473.098 148.31 474.318 147.87C475.588 147.382 477.443 146.552 479.885 145.38ZM454.909 120.624C453.981 120.868 452.59 121.234 450.734 121.723C434.865 126.068 426.931 131.195 426.931 137.104C426.931 140.326 427.956 142.963 430.007 145.014C432.057 147.016 434.767 148.017 438.137 148.017C440.187 148.017 442.556 147.479 445.241 146.405C447.927 145.331 451.052 143.622 454.616 141.278L454.909 120.624ZM504.787 70.2334L509.621 71.6982C509.328 74.3838 509.084 76.8008 508.889 78.9492C508.742 81.0488 508.644 83.124 508.596 85.1748H513.796C516.579 85.1748 519.411 85.1504 522.292 85.1016C525.173 85.0039 528.078 84.8818 531.008 84.7354L529.25 92.7188C526.125 92.4746 523.171 92.3281 520.388 92.2793C517.653 92.1816 514.919 92.1328 512.184 92.1328H508.742C508.449 100.531 508.229 106.977 508.083 111.469C507.985 115.912 507.936 119.599 507.936 122.528C507.936 133.563 508.693 140.766 510.207 144.135C511.721 147.455 514.431 149.115 518.337 149.115C519.948 149.115 521.73 148.773 523.683 148.09C525.685 147.406 528.102 146.283 530.934 144.721L533.351 149.555C528.664 152.387 524.416 154.535 520.607 156C516.799 157.416 513.478 158.124 510.646 158.124C505.422 158.124 501.613 156.342 499.221 152.777C496.828 149.164 495.632 143.378 495.632 135.419C495.632 133.856 495.729 128.29 495.925 118.72C496.169 109.101 496.291 100.287 496.291 92.2793C495.851 92.2793 495.217 92.3037 494.387 92.3525C490.334 92.499 487.551 92.5723 486.037 92.5723V87.2988C490.822 86.6152 494.777 84.8574 497.902 82.0254C501.027 79.1445 503.322 75.2139 504.787 70.2334ZM603.884 115.058H568.141C565.358 115.058 562.795 115.106 560.451 115.204C558.107 115.302 555.934 115.448 553.932 115.644V118.354C553.932 127.924 556.13 135.321 560.524 140.546C564.968 145.771 571.218 148.383 579.274 148.383C582.839 148.383 586.354 147.797 589.821 146.625C593.288 145.404 596.974 143.524 600.881 140.985L603.737 145.673C598.708 149.774 593.679 152.875 588.649 154.975C583.669 157.074 578.737 158.124 573.854 158.124C564.382 158.124 556.569 154.755 550.417 148.017C544.265 141.229 541.188 132.538 541.188 121.942C541.188 110.663 544.411 101.19 550.856 93.5244C557.302 85.8584 565.163 82.0254 574.44 82.0254C583.083 82.0254 589.968 84.9062 595.095 90.668C600.222 96.4297 603.151 104.56 603.884 115.058ZM590.334 107.367C588.869 101.361 586.647 96.7715 583.669 93.5977C580.69 90.375 577.126 88.7637 572.975 88.7637C568.288 88.7637 564.26 90.6436 560.891 94.4033C557.57 98.1631 555.397 103.241 554.372 109.638C564.04 109.638 571.633 109.467 577.15 109.125C582.717 108.783 587.111 108.197 590.334 107.367ZM636.476 81.1465C636.135 84.4668 635.866 87.8359 635.671 91.2539C635.475 94.623 635.329 98.2119 635.231 102.021C639.186 95.0381 642.824 90.0088 646.144 86.9326C649.514 83.8564 652.98 82.3184 656.545 82.3184C659.328 82.3184 661.525 83.0752 663.137 84.5889C664.748 86.0537 665.554 88.0557 665.554 90.5947C665.554 92.4014 665.016 93.9639 663.942 95.2822C662.917 96.5518 661.696 97.1865 660.28 97.1865C659.401 97.1865 658.034 96.7227 656.179 95.7949C654.372 94.8184 652.809 94.3301 651.491 94.3301C648.952 94.3301 646.413 95.4531 643.874 97.6992C641.335 99.8965 638.674 103.339 635.891 108.026V116.083C635.891 123.896 635.939 130.243 636.037 135.126C636.183 139.96 636.379 143.036 636.623 144.354C637.062 146.845 637.99 148.554 639.406 149.481C640.871 150.409 643.337 150.873 646.804 150.873H648.928V156C645.119 155.707 641.725 155.487 638.747 155.341C635.768 155.194 633.254 155.121 631.203 155.121C628.371 155.121 625.441 155.194 622.414 155.341C619.435 155.487 616.31 155.707 613.039 156V150.873H614.724C618.288 150.873 620.705 150.019 621.974 148.31C623.244 146.601 623.879 142.621 623.879 136.371V128.681V104.877C623.879 99.6035 623.513 96.21 622.78 94.6963C622.048 93.1826 620.705 92.4258 618.752 92.4258C618.361 92.4258 617.946 92.4502 617.507 92.499C617.067 92.499 616.335 92.5723 615.309 92.7188L614.431 88.1777C617.897 87.3965 621.462 86.4199 625.124 85.248C628.786 84.0762 632.57 82.709 636.476 81.1465ZM763.771 54.7793V57.2695C763.771 60.6875 763.893 64.252 764.138 67.9629C764.382 71.625 764.748 75.4824 765.236 79.5352L759.89 80.4141C758.913 73.3828 755.593 67.9141 749.929 64.0078C744.265 60.0527 736.867 58.0752 727.736 58.0752C715.578 58.0752 706.179 61.8105 699.538 69.2812C692.946 76.7031 689.65 87.25 689.65 100.922C689.65 115.521 693.434 127.338 701.003 136.371C708.62 145.355 718.483 149.848 730.593 149.848C738.21 149.848 744.802 148.09 750.368 144.574C755.983 141.059 760.353 135.907 763.478 129.12L768.386 131.537C766.823 134.711 765.407 137.958 764.138 141.278C762.868 144.55 761.745 147.846 760.768 151.166C755.495 153.559 750.124 155.365 744.655 156.586C739.186 157.807 733.693 158.417 728.176 158.417C711.965 158.417 698.83 153.412 688.771 143.402C678.762 133.344 673.757 120.136 673.757 103.778C673.757 87.665 679.055 74.5547 689.65 64.4473C700.246 54.291 713.942 49.2129 730.739 49.2129C735.72 49.2129 740.969 49.6768 746.486 50.6045C752.053 51.5322 757.814 52.9238 763.771 54.7793ZM813.869 89.7158C807.326 89.7158 802.053 92.1084 798.049 96.8936C794.094 101.63 792.116 108.026 792.116 116.083C792.116 126.386 794.313 134.735 798.708 141.132C803.151 147.528 808.913 150.727 815.993 150.727C822.829 150.727 828.273 148.188 832.326 143.109C836.428 138.031 838.478 131.122 838.478 122.382C838.478 112.812 836.159 104.975 831.52 98.8711C826.931 92.7676 821.047 89.7158 813.869 89.7158ZM815.773 82.0254C826.076 82.0254 834.597 85.4922 841.335 92.4258C848.122 99.3105 851.516 107.855 851.516 118.061C851.516 129.291 847.951 138.764 840.822 146.479C833.693 154.145 824.904 157.978 814.455 157.978C804.006 157.978 795.412 154.462 788.674 147.431C781.984 140.399 778.64 131.513 778.64 120.771C778.64 110.028 782.277 100.897 789.553 93.3779C796.877 85.8096 805.617 82.0254 815.773 82.0254Z" fill="white"/>
<defs>
<clipPath id="clip0_210_57">
<rect width="262" height="229.25" fill="white" transform="translate(2 24)"/>
</clipPath>
</defs>
</svg>
