<svg id="Layer_1" data-name="Layer 1" xmlns="http://www.w3.org/2000/svg" xmlns:xlink="http://www.w3.org/1999/xlink" viewBox="0 0 459.58 437.9"><defs><clipPath id="clip-path" transform="translate(-142.83 97.68)"><rect x="0.5" width="576" height="288" style="fill:none"/></clipPath></defs><title>17209 [Converted]</title><g style="clip-path:url(#clip-path)"><g id="triangle36"><path d="M602.17-49.49l-56-31L561.24-94l41,30.15v-.59l-40.88-30a.24.24,0,0,0-.3,0l-15.5,13.88a.25.25,0,0,0-.07.2.21.21,0,0,0,.12.18l56.55,31.26Z" transform="translate(-142.83 97.68)" style="fill:#fff"/></g><g id="triangle36-2" data-name="triangle36"><path d="M602-7.11,546.59-79.67l55.58,30.72v-.54L545.84-80.62a.24.24,0,0,0-.29.05.24.24,0,0,0,0,.3L602-6.34Z" transform="translate(-142.83 97.68)" style="fill:#fff"/></g><g id="triangle36-3" data-name="triangle36"><path d="M373.46,339.31l75.39-34,7.39,34.42h.48l-7.47-34.8a.25.25,0,0,0-.12-.16.26.26,0,0,0-.21,0L372.33,339.3Z" transform="translate(-142.83 97.68)" style="fill:#fff"/></g><g id="triangle36-4" data-name="triangle36"><polygon points="457.44 422.09 407.98 437.89 409.5 437.9 457.43 422.58 457.44 422.09" style="fill:#fff"/></g><g id="triangle36-5" data-name="triangle36"><path d="M602.25-64.43,561.91-94.08l40.5-1.34v-.47l-41.19,1.36a.23.23,0,0,0-.21.17.24.24,0,0,0,.08.26l41.16,30.26Z" transform="translate(-142.83 97.68)" style="fill:#fff"/></g><g id="triangle36-6" data-name="triangle36"><path d="M601.39,104.51l-54.59-3.22,44.11-26.74L601.5,82.8v-.59l-10.43-8.13a.24.24,0,0,0-.27,0l-44.89,27.22a.24.24,0,0,0-.1.26.23.23,0,0,0,.21.18L601.39,105Z" transform="translate(-142.83 97.68)" style="fill:#fff"/></g><g id="triangle36-7" data-name="triangle36"><path d="M196.3,338.4l9-15.33,1.81,15.39h.47l-1.9-16.14a.25.25,0,0,0-.18-.21.23.23,0,0,0-.25.12l-9.49,16.17Z" transform="translate(-142.83 97.68)" style="fill:#fff"/></g><g id="triangle36-8" data-name="triangle36"><polygon points="457.44 422.09 407.98 437.89 409.5 437.9 457.43 422.58 457.44 422.09" style="fill:#fff"/><path d="M600.28,321.86,548.43,309a.24.24,0,0,0-.29.17l-7.85,31h.49l7.76-30.67,51.74,12.85Z" transform="translate(-142.83 97.68)" style="fill:#fff"/></g><g id="triangle36-9" data-name="triangle36"><path d="M600.83,214.43,572.5,230.69,551.1,225l49.77-19.06v-.5L550.26,224.8a.22.22,0,0,0-.15.23.21.21,0,0,0,.17.21l22.19,5.93h.06a.27.27,0,0,0,.12,0L600.83,215Z" transform="translate(-142.83 97.68)" style="fill:#fff"/></g><g id="triangle36-10" data-name="triangle36"><path d="M456.72,339.73l-7.38-34.39L478,315.5l-12.36,24.28h.53l12.37-24.31a.21.21,0,0,0,0-.19.2.2,0,0,0-.14-.14L449.1,304.76a.26.26,0,0,0-.24,0,.25.25,0,0,0-.07.23l7.45,34.7Z" transform="translate(-142.83 97.68)" style="fill:#fff"/></g><g id="triangle36-11" data-name="triangle36"><path d="M466.12,339.78l12.19-23.94,15.16,24.08H494l-15.55-24.68a.22.22,0,0,0-.21-.11.21.21,0,0,0-.19.13l-12.49,24.52Z" transform="translate(-142.83 97.68)" style="fill:#fff"/></g><g id="triangle36-12" data-name="triangle36"><path d="M493.47,339.92H494l-15.12-24,51.66,24.19h1.12l-53.31-25a.23.23,0,0,0-.27.06.23.23,0,0,0,0,.28Z" transform="translate(-142.83 97.68)" style="fill:#fff"/></g><g id="triangle36-13" data-name="triangle36"><path d="M478.18,315.58l52.39,24.53h1.12l-52.52-24.59,68.89-6-7.77,30.69h.49l7.82-30.89a.22.22,0,0,0-.05-.21.27.27,0,0,0-.2-.09l-70.09,6.16a.24.24,0,0,0-.21.19A.25.25,0,0,0,478.18,315.58Z" transform="translate(-142.83 97.68)" style="fill:#fff"/></g><g id="triangle36-14" data-name="triangle36"><path d="M207.57,338.46l-1.84-15.65,24.37,15.76H231l-25.4-16.43a.24.24,0,0,0-.26,0,.23.23,0,0,0-.1.22l1.89,16.09Z" transform="translate(-142.83 97.68)" style="fill:#fff"/></g><g id="triangle36-15" data-name="triangle36"><path d="M363.24,180.33a.2.2,0,0,1-.11,0,.21.21,0,0,1-.11-.15l-2.41-11.65a.2.2,0,0,1,0-.18.25.25,0,0,1,.16-.1l59.6-6.9a.22.22,0,0,1,.25.18.22.22,0,0,1-.15.27l-57.19,18.55Zm-2.12-11.67,2.3,11.14,54.7-17.74Z" transform="translate(-142.83 97.68)" style="fill:#fff"/></g><g id="triangle36-16" data-name="triangle36"><path d="M174.26,338.29l3.08-33.59,27.78,17.72-9.37,16h.55l9.34-15.94a.22.22,0,0,0-.07-.31l-28.3-18.06a.24.24,0,0,0-.23,0,.22.22,0,0,0-.13.19l-3.12,34Z" transform="translate(-142.83 97.68)" style="fill:#fff"/></g><g id="triangle36-17" data-name="triangle36"><path d="M205.44,322.58a.2.2,0,0,1-.13,0L177,304.49a.29.29,0,0,1-.11-.19.25.25,0,0,1,.1-.2l48.32-34a.24.24,0,0,1,.28,0,.23.23,0,0,1,.07.27l-20,52a.26.26,0,0,1-.15.14Zm-27.88-18.3L205.32,322,225,271Z" transform="translate(-142.83 97.68)" style="fill:#fff"/></g><g id="triangle36-18" data-name="triangle36"><path d="M291.22,324h0l-85.79-1.37a.26.26,0,0,1-.19-.1.25.25,0,0,1,0-.22l20-52a.21.21,0,0,1,.15-.14.22.22,0,0,1,.21,0l65.77,53.37a.24.24,0,0,1,.08.26A.25.25,0,0,1,291.22,324Zm-85.44-1.83,84.77,1.35-65-52.74Z" transform="translate(-142.83 97.68)" style="fill:#fff"/></g><g id="triangle36-19" data-name="triangle36"><path d="M230.1,338.57H231l-24.72-16,84.09,1.34-26.89,14.81h1l26.93-14.83a.23.23,0,0,0,.11-.26.22.22,0,0,0-.22-.18l-85.79-1.37h0a.25.25,0,0,0-.23.17.23.23,0,0,0,.1.26Z" transform="translate(-142.83 97.68)" style="fill:#fff"/></g><g id="triangle36-20" data-name="triangle36"><path d="M264.41,338.75l26.15-14.4-8.9,14.49h.55l9.22-15a.24.24,0,0,0,0-.29.22.22,0,0,0-.28,0l-27.66,15.23Z" transform="translate(-142.83 97.68)" style="fill:#fff"/></g><g id="triangle36-21" data-name="triangle36"><path d="M282.21,338.84,291.33,324l51.95,15.16H345l-53.7-15.67a.23.23,0,0,0-.27.1l-9.36,15.25Z" transform="translate(-142.83 97.68)" style="fill:#fff"/></g><g id="triangle36-22" data-name="triangle36"><path d="M519.6,201.6a.15.15,0,0,1-.09,0l-99.16-39.81a.23.23,0,0,1-.15-.18.25.25,0,0,1,.08-.22L470.49,120a.25.25,0,0,1,.19,0,.23.23,0,0,1,.16.11l49,81.2a.23.23,0,0,1,0,.27A.25.25,0,0,1,519.6,201.6Zm-98.71-40.12L519,200.89l-48.46-80.37Z" transform="translate(-142.83 97.68)" style="fill:#fff"/></g><g id="triangle36-23" data-name="triangle36"><path d="M519.6,201.6a.23.23,0,0,1-.2-.11l-49-81.2a.21.21,0,0,1,0-.19.21.21,0,0,1,.12-.14l41.14-18.4a.24.24,0,0,1,.22,0,.23.23,0,0,1,.11.18l7.83,99.6a.24.24,0,0,1-.17.24ZM471,120.28l48.31,80.12-7.72-98.28Z" transform="translate(-142.83 97.68)" style="fill:#fff"/></g><g id="triangle36-24" data-name="triangle36"><path d="M519.6,201.6h0a.23.23,0,0,1-.21-.21l-7.83-99.6a.3.3,0,0,1,.06-.18.29.29,0,0,1,.18-.07l34.25-.29a.33.33,0,0,1,.19.09.24.24,0,0,1,0,.2l-26.43,99.89A.24.24,0,0,1,519.6,201.6ZM512,102l7.7,98,26-98.25Z" transform="translate(-142.83 97.68)" style="fill:#fff"/></g><g id="triangle36-25" data-name="triangle36"><path d="M600.87,205.42l-50.49,19.33-30.17-23.21,80.73-8.65v-.48l-81.36,8.72a.22.22,0,0,0-.2.17.22.22,0,0,0,.08.25L550.2,225.2a.24.24,0,0,0,.14.05h.09l50.44-19.32Z" transform="translate(-142.83 97.68)" style="fill:#fff"/></g><g id="triangle36-26" data-name="triangle36"><path d="M511.78,102a.24.24,0,0,1-.22-.15.23.23,0,0,1,.06-.26L545.73,69a.26.26,0,0,1,.25,0,.25.25,0,0,1,.15.22l.14,32.33a.23.23,0,0,1-.23.24l-34.26.29ZM545.66,69.7l-33.29,31.83,33.43-.28Z" transform="translate(-142.83 97.68)" style="fill:#fff"/></g><g id="triangle36-27" data-name="triangle36"><path d="M601.71,41.87,546.13,68.78,546-79.72,602-6.34v-.77l-56-73.45a.25.25,0,0,0-.27-.08.26.26,0,0,0-.16.23l.17,149.56a.23.23,0,0,0,.11.2.24.24,0,0,0,.12,0,.16.16,0,0,0,.1,0l55.72-27Z" transform="translate(-142.83 97.68)" style="fill:#fff"/></g><g id="triangle36-28" data-name="triangle36"><path d="M546,101.72a.23.23,0,0,1-.11,0,.24.24,0,0,1-.12-.21l-.14-32.33a.21.21,0,0,1,.07-.17.22.22,0,0,1,.19-.06L591,74a.23.23,0,0,1,.2.18.23.23,0,0,1-.11.25l-44.88,27.22A.2.2,0,0,1,546,101.72Zm.1-32.31.14,31.66,43.94-26.65Z" transform="translate(-142.83 97.68)" style="fill:#fff"/></g><g id="triangle36-29" data-name="triangle36"><path d="M601.61,61.2,590.82,74l-44.1-5,55-26.61v-.53L545.79,68.94a.22.22,0,0,0-.13.25.23.23,0,0,0,.2.19l45,5.12h0a.23.23,0,0,0,.18-.08l10.51-12.49Z" transform="translate(-142.83 97.68)" style="fill:#fff"/></g><g id="triangle36-30" data-name="triangle36"><path d="M601.52,79.27l-10.23-5.08,10.32-12.26V61.2L590.74,74.11a.29.29,0,0,0,0,.2.23.23,0,0,0,.13.16l10.69,5.32Z" transform="translate(-142.83 97.68)" style="fill:#fff"/></g><g id="triangle36-31" data-name="triangle36"><path d="M601.5,82.21l-8.59-6.69,8.6,4.27v-.52L591,74.05a.25.25,0,0,0-.31.09.23.23,0,0,0,.06.31L601.5,82.8Z" transform="translate(-142.83 97.68)" style="fill:#fff"/></g><g id="triangle36-32" data-name="triangle36"><path d="M291.16,323.94l52.12,15.21H345l-53.14-15.51,94.26-48.51-22.77,64.11h.49l22.92-64.53a.23.23,0,0,0-.07-.25.21.21,0,0,0-.26,0l-95.3,49.05a.24.24,0,0,0-.13.24A.25.25,0,0,0,291.16,323.94Z" transform="translate(-142.83 97.68)" style="fill:#fff"/></g><g id="triangle36-33" data-name="triangle36"><path d="M363.83,339.26,386.66,275l61.81,30L372.33,339.3h1.13l75.66-34.12a.22.22,0,0,0,.13-.21.22.22,0,0,0-.13-.21l-62.49-30.33a.25.25,0,0,0-.19,0,.2.2,0,0,0-.13.14l-23,64.67Z" transform="translate(-142.83 97.68)" style="fill:#fff"/></g><g id="triangle36-34" data-name="triangle36"><path d="M390.61,200.94a.23.23,0,0,1-.14,0L363.1,180.29a.23.23,0,0,1-.06-.3.24.24,0,0,1,.29-.11l43.43,15.81a.22.22,0,0,1,.15.22.24.24,0,0,1-.16.22l-16.08,4.8Zm-26-20.08,26,19.59,15.28-4.57Z" transform="translate(-142.83 97.68)" style="fill:#fff"/></g><g id="triangle36-35" data-name="triangle36"><path d="M406.68,196.14h-.08l-43.43-15.81a.22.22,0,0,1-.16-.22.24.24,0,0,1,.16-.22l57.19-18.55a.22.22,0,0,1,.24.06.23.23,0,0,1,0,.25L406.9,196A.25.25,0,0,1,406.68,196.14Zm-42.71-16,42.58,15.5L420,161.93Z" transform="translate(-142.83 97.68)" style="fill:#fff"/></g><g id="triangle36-36" data-name="triangle36"><path d="M386.53,274.89h0a.25.25,0,0,1-.2-.25l4.08-73.94a.25.25,0,0,1,.17-.22l16.07-4.8a.24.24,0,0,1,.23.06.22.22,0,0,1,.07.22l-20.16,78.75A.22.22,0,0,1,386.53,274.89Zm4.3-74-3.94,71.39,19.46-76Z" transform="translate(-142.83 97.68)" style="fill:#fff"/></g><g id="triangle36-37" data-name="triangle36"><path d="M519.6,201.6h0l-112.92-5.46a.21.21,0,0,1-.19-.11.22.22,0,0,1,0-.21l13.76-34.36a.25.25,0,0,1,.12-.13.28.28,0,0,1,.18,0l99.17,39.82a.22.22,0,0,1,.14.27A.23.23,0,0,1,519.6,201.6ZM407,195.69l111.2,5.37-97.66-39.2Z" transform="translate(-142.83 97.68)" style="fill:#fff"/></g><g id="triangle36-38" data-name="triangle36"><path d="M420.43,161.79l-.08,0a.23.23,0,0,1-.15-.19L408.62,72a.24.24,0,0,1,.12-.23.24.24,0,0,1,.26,0L470.78,120a.21.21,0,0,1,.09.18.23.23,0,0,1-.08.18l-50.21,41.38A.2.2,0,0,1,420.43,161.79ZM409.16,72.48l11.45,88.62,49.65-40.92Z" transform="translate(-142.83 97.68)" style="fill:#fff"/></g><g id="triangle36-39" data-name="triangle36"><path d="M470.64,120.41a.3.3,0,0,1-.15,0L408.71,72.12a.24.24,0,0,1-.09-.21.22.22,0,0,1,.14-.18l53.82-24.15a.22.22,0,0,1,.21,0,.22.22,0,0,1,.12.18l8,72.38a.23.23,0,0,1-.12.23A.2.2,0,0,1,470.64,120.41ZM409.31,72l61,47.65-7.86-71.5Z" transform="translate(-142.83 97.68)" style="fill:#fff"/></g><g id="triangle36-40" data-name="triangle36"><path d="M462.67,48h0a.21.21,0,0,1-.19-.17L436.76-58.82a.29.29,0,0,1,0-.18.25.25,0,0,1,.15-.1L545.68-80.64a.24.24,0,0,1,.24.09.23.23,0,0,1,0,.26L462.87,47.92A.23.23,0,0,1,462.67,48ZM437.27-58.69l25.51,105.9L545.23-80.08Z" transform="translate(-142.83 97.68)" style="fill:#fff"/></g><g id="triangle36-41" data-name="triangle36"><path d="M470.64,120.41a.19.19,0,0,1-.12,0,.2.2,0,0,1-.11-.17l-8-72.38a.24.24,0,0,1,.14-.24.25.25,0,0,1,.27.05l49.1,54a.24.24,0,0,1,.06.2.26.26,0,0,1-.14.17l-41.14,18.39A.16.16,0,0,1,470.64,120.41ZM463,48.48l7.85,71.35,40.55-18.14Z" transform="translate(-142.83 97.68)" style="fill:#fff"/></g><g id="triangle36-42" data-name="triangle36"><path d="M511.78,102h0a.25.25,0,0,1-.17-.08L462.5,48a.23.23,0,0,1,0-.28.23.23,0,0,1,.25-.11L546,68.92a.24.24,0,0,1,.17.17.25.25,0,0,1-.07.23l-34.11,32.62A.24.24,0,0,1,511.78,102Zm-48.4-53.8,48.41,53.23,33.63-32.17Z" transform="translate(-142.83 97.68)" style="fill:#fff"/></g><g id="triangle36-43" data-name="triangle36"><path d="M545.89,69.38h-.06L462.62,48a.23.23,0,0,1-.16-.14.25.25,0,0,1,0-.22l83-128.2a.23.23,0,0,1,.26-.1.24.24,0,0,1,.17.23l.17,149.56a.26.26,0,0,1-.1.19A.18.18,0,0,1,545.89,69.38ZM463.05,47.65l82.61,21.2L545.5-79.62Z" transform="translate(-142.83 97.68)" style="fill:#fff"/></g><g id="triangle36-44" data-name="triangle36"><path d="M386.53,274.89a.24.24,0,0,1-.17-.07.23.23,0,0,1-.06-.22l20.15-78.75a.24.24,0,0,1,.36-.14l85.49,59a.24.24,0,0,1,.1.25.24.24,0,0,1-.19.18l-105.64,19.7Zm20.29-78.6-20,78.07,104.72-19.53Z" transform="translate(-142.83 97.68)" style="fill:#fff"/></g><g id="triangle36-45" data-name="triangle36"><path d="M449,305.21a.16.16,0,0,1-.1,0l-62.5-30.32a.26.26,0,0,1-.13-.25.25.25,0,0,1,.19-.2l105.65-19.69a.21.21,0,0,1,.24.11.24.24,0,0,1,0,.27l-43.15,50A.23.23,0,0,1,449,305.21Zm-61.75-30.45L449,304.69l42.6-49.38Z" transform="translate(-142.83 97.68)" style="fill:#fff"/></g><g id="triangle36-46" data-name="triangle36"><path d="M492.17,255.19a.2.2,0,0,1-.13,0L406.55,196.1a.22.22,0,0,1-.09-.27.24.24,0,0,1,.23-.16l112.92,5.46a.28.28,0,0,1,.2.12.24.24,0,0,1,0,.22l-27.43,53.59a.24.24,0,0,1-.15.13Zm-84.68-59,84.59,58.43,27.15-53Z" transform="translate(-142.83 97.68)" style="fill:#fff"/></g><g id="triangle36-47" data-name="triangle36"><path d="M478.28,315.6l-.07,0L448.94,305.2a.24.24,0,0,1-.15-.16.23.23,0,0,1,0-.21l43.15-50a.24.24,0,0,1,.29-.05.25.25,0,0,1,.12.26l-13.89,60.41a.21.21,0,0,1-.11.15Zm-28.86-10.73,28.69,10.18,13.62-59.22Z" transform="translate(-142.83 97.68)" style="fill:#fff"/></g><g id="triangle36-48" data-name="triangle36"><path d="M478.28,315.6a.23.23,0,0,1-.17-.08.23.23,0,0,1-.05-.21l13.88-60.4a.24.24,0,0,1,.16-.18.24.24,0,0,1,.23.06L548.53,309a.23.23,0,0,1,.06.25.24.24,0,0,1-.2.15L478.3,315.6Zm14-60.18L478.59,315.1,547.84,309Z" transform="translate(-142.83 97.68)" style="fill:#fff"/></g><g id="triangle36-49" data-name="triangle36"><path d="M492.17,255.19a.2.2,0,0,1-.16-.07.23.23,0,0,1-.05-.27l27.43-53.59a.22.22,0,0,1,.16-.12.21.21,0,0,1,.19,0l30.75,23.65a.27.27,0,0,1,.09.21.23.23,0,0,1-.13.18l-58.17,29.95Zm27.51-53.47-27,52.7L549.91,225Z" transform="translate(-142.83 97.68)" style="fill:#fff"/></g><g id="triangle36-50" data-name="triangle36"><path d="M548.37,309.44a.23.23,0,0,1-.16-.06L492,255.13a.24.24,0,0,1,.09-.4l80.36-24a.26.26,0,0,1,.24.06.24.24,0,0,1,.06.23l-24.17,78.27a.22.22,0,0,1-.16.16Zm-55.75-54.37,55.64,53.7,23.92-77.47Z" transform="translate(-142.83 97.68)" style="fill:#fff"/></g><g id="triangle36-51" data-name="triangle36"><path d="M492.17,255.19a.24.24,0,0,1-.22-.14.25.25,0,0,1,.11-.3l58.17-29.94a.21.21,0,0,1,.17,0l22.19,5.93a.26.26,0,0,1,.18.22.24.24,0,0,1-.17.23l-80.36,24Zm58.2-29.92L494.53,254l77.14-23Z" transform="translate(-142.83 97.68)" style="fill:#fff"/></g><g id="triangle36-52" data-name="triangle36"><path d="M145.14,285.06a.28.28,0,0,1-.22-.16.24.24,0,0,1,.1-.28l66.55-39a.29.29,0,0,1,.18,0,.26.26,0,0,1,.15.12l13.76,24.49a.22.22,0,0,1,0,.21.24.24,0,0,1-.17.13l-80.32,14.48Zm66.47-38.89L146.4,284.36l78.69-14.19Z" transform="translate(-142.83 97.68)" style="fill:#fff"/></g><g id="triangle36-53" data-name="triangle36"><path d="M225.45,270.58h0a.25.25,0,0,1-.18-.12L211.49,246a.24.24,0,0,1,0-.22.23.23,0,0,1,.17-.13l41.08-8.16a.23.23,0,0,1,.25.11.24.24,0,0,1,0,.27l-27.33,32.65A.21.21,0,0,1,225.45,270.58ZM212.06,246l13.43,23.91,26.68-31.88Z" transform="translate(-142.83 97.68)" style="fill:#fff"/></g><g id="triangle36-54" data-name="triangle36"><path d="M341.72,105.56h-.06a.23.23,0,0,1-.17-.28L354.4,55.55a.22.22,0,0,1,.28-.16.23.23,0,0,1,.17.28l-12.91,49.71A.22.22,0,0,1,341.72,105.56Z" transform="translate(-142.83 97.68)" style="fill:#fff"/></g><g id="triangle36-55" data-name="triangle36"><path d="M341.72,105.56a.25.25,0,0,1-.15,0,.25.25,0,0,1-.08-.24L354.4,55.55a.19.19,0,0,1,.11-.14.22.22,0,0,1,.18,0l54.23,16.32a.25.25,0,0,1,.17.21.22.22,0,0,1-.13.23l-67.14,33.38A.19.19,0,0,1,341.72,105.56Zm13.07-49.65-12.72,49L408.22,72Z" transform="translate(-142.83 97.68)" style="fill:#fff"/></g><g id="triangle36-56" data-name="triangle36"><path d="M360.84,168.69a.24.24,0,0,1-.23-.16l-19.12-63.14a.24.24,0,0,1,.09-.26.23.23,0,0,1,.27,0l78.72,56.23a.25.25,0,0,1,.09.25.22.22,0,0,1-.2.17l-59.6,6.91Zm-18.7-62.77L361,168.2l58.8-6.81Z" transform="translate(-142.83 97.68)" style="fill:#fff"/></g><g id="triangle36-57" data-name="triangle36"><path d="M420.43,161.79a.21.21,0,0,1-.13,0l-78.72-56.22a.25.25,0,0,1-.1-.21.26.26,0,0,1,.13-.2l67.14-33.38a.24.24,0,0,1,.22,0,.26.26,0,0,1,.12.18l11.58,89.61a.26.26,0,0,1-.24.27Zm-78.26-56.43,78,55.69L408.66,72.3Z" transform="translate(-142.83 97.68)" style="fill:#fff"/></g><g id="triangle36-58" data-name="triangle36"><path d="M319.87,212.91a.25.25,0,0,1-.17-.08.23.23,0,0,1,0-.31l41-44.22a.24.24,0,0,1,.41.11l2.41,11.64a.27.27,0,0,1-.09.24L320,212.86A.3.3,0,0,1,319.87,212.91Zm40.83-44-38.88,42L363,180Z" transform="translate(-142.83 97.68)" style="fill:#fff"/></g><g id="triangle36-59" data-name="triangle36"><path d="M319.87,212.91a.24.24,0,0,1-.14-.42l43.37-32.58a.26.26,0,0,1,.29,0l27.36,20.61a.24.24,0,0,1-.1.42l-70.74,12Zm43.38-32.52-42.46,31.89L390,200.57Z" transform="translate(-142.83 97.68)" style="fill:#fff"/></g><g id="triangle36-60" data-name="triangle36"><path d="M386.53,274.89a.23.23,0,0,1-.16-.06l-66.66-62a.24.24,0,0,1-.06-.24.25.25,0,0,1,.19-.17l70.73-12a.22.22,0,0,1,.19.05.21.21,0,0,1,.08.19l-4.08,74a.21.21,0,0,1-.15.2Zm-66.15-62.06,65.94,61.31,4-73.15Z" transform="translate(-142.83 97.68)" style="fill:#fff"/></g><g id="triangle36-61" data-name="triangle36"><path d="M601.16,149.76,520,200.85l26.21-99,55.09,23.28v-.51l-55.16-23.3a.23.23,0,0,0-.2,0,.26.26,0,0,0-.12.15l-26.44,99.89a.27.27,0,0,0,.09.25.23.23,0,0,0,.14,0,.31.31,0,0,0,.13,0l81.43-51.26Z" transform="translate(-142.83 97.68)" style="fill:#fff"/></g><g id="triangle36-62" data-name="triangle36"><path d="M600.94,192.41,520.58,201l80.58-50.72v-.55l-81.68,51.41a.22.22,0,0,0-.1.27.22.22,0,0,0,.22.16h0l81.31-8.71Z" transform="translate(-142.83 97.68)" style="fill:#fff"/></g><g id="triangle36-63" data-name="triangle36"><path d="M601.29,124.57,547.38,101.8l54,3.18v-.47l-55.34-3.26a.22.22,0,0,0-.24.18.24.24,0,0,0,.13.27l55.34,23.38Z" transform="translate(-142.83 97.68)" style="fill:#fff"/></g><g id="triangle36-64" data-name="triangle36"><path d="M225.45,270.58a.22.22,0,0,1-.18-.1.23.23,0,0,1,0-.29l27.32-32.65a.21.21,0,0,1,.18-.09l54-.19h0a.24.24,0,0,1,.23.19.23.23,0,0,1-.15.26l-81.33,32.85Zm27.44-32.66-26.65,31.85,79.33-32Z" transform="translate(-142.83 97.68)" style="fill:#fff"/></g><g id="triangle36-65" data-name="triangle36"><path d="M291.22,324a.2.2,0,0,1-.14-.06l-65.77-53.36a.25.25,0,0,1-.09-.22.25.25,0,0,1,.15-.18l81.33-32.85a.23.23,0,0,1,.23,0,.25.25,0,0,1,.09.23l-15.56,86.21a.25.25,0,0,1-.15.18Zm-65.31-53.54,65.15,52.87,15.42-85.41Z" transform="translate(-142.83 97.68)" style="fill:#fff"/></g><g id="triangle36-66" data-name="triangle36"><path d="M252.78,237.92a.24.24,0,0,1-.23-.19.23.23,0,0,1,.15-.26l67.09-25a.23.23,0,0,1,.26.06.21.21,0,0,1,0,.26L307,237.61a.24.24,0,0,1-.2.12l-54,.19Zm66.6-24.81-65.29,24.34,52.56-.19Z" transform="translate(-142.83 97.68)" style="fill:#fff"/></g><g id="triangle36-67" data-name="triangle36"><path d="M291.22,324a.21.21,0,0,1-.13-.05.23.23,0,0,1-.1-.23l15.57-86.21a.2.2,0,0,1,.12-.17.26.26,0,0,1,.21,0l79.74,37.16a.23.23,0,0,1,0,.42l-95.3,49.06A.2.2,0,0,1,291.22,324ZM307,237.84l-15.42,85.45L386,274.67Z" transform="translate(-142.83 97.68)" style="fill:#fff"/></g><g id="triangle36-68" data-name="triangle36"><path d="M386.53,274.89l-.1,0-79.74-37.16a.25.25,0,0,1-.13-.14.22.22,0,0,1,0-.18l13.09-24.82a.23.23,0,0,1,.17-.13.22.22,0,0,1,.19.06l66.66,62a.24.24,0,0,1-.16.41Zm-79.42-37.5,78.17,36.42-65.34-60.75Z" transform="translate(-142.83 97.68)" style="fill:#fff"/></g><g id="triangle36-69" data-name="triangle36"><path d="M600.69,241.18,573.08,230.9,600.83,215v-.55l-28.42,16.31a.24.24,0,0,0-.11.22.21.21,0,0,0,.15.2l28.24,10.52Z" transform="translate(-142.83 97.68)" style="fill:#fff"/></g><g id="triangle36-70" data-name="triangle36"><path d="M354.62,55.85a.23.23,0,0,1-.19-.11.24.24,0,0,1,.06-.32l54.19-36.24a.23.23,0,0,1,.33.06.24.24,0,0,1-.07.33L354.75,55.81A.2.2,0,0,1,354.62,55.85Z" transform="translate(-142.83 97.68)" style="fill:#fff"/></g><g id="triangle36-71" data-name="triangle36"><path d="M408.85,72.17h-.06L354.56,55.84a.24.24,0,0,1-.17-.19.25.25,0,0,1,.1-.23l54.19-36.24a.23.23,0,0,1,.37.19l0,52.57a.22.22,0,0,1-.24.23ZM355.17,55.53l53.45,16.09,0-51.81Z" transform="translate(-142.83 97.68)" style="fill:#fff"/></g><g id="triangle36-72" data-name="triangle36"><path d="M408.85,72.17a.27.27,0,0,1-.12,0,.24.24,0,0,1-.11-.2l0-52.57a.23.23,0,0,1,.11-.2.24.24,0,0,1,.23,0l53.87,28.42a.27.27,0,0,1,.12.22.24.24,0,0,1-.14.21L409,72.15A.16.16,0,0,1,408.85,72.17Zm.2-52.41,0,51.82,53.05-23.81Z" transform="translate(-142.83 97.68)" style="fill:#fff"/></g><g id="triangle36-73" data-name="triangle36"><path d="M462.67,48a.19.19,0,0,1-.1,0L408.7,19.58a.24.24,0,0,1-.11-.29l28.18-78.24a.23.23,0,0,1,.23-.16.26.26,0,0,1,.22.18L462.9,47.74a.22.22,0,0,1-.08.24A.25.25,0,0,1,462.67,48ZM409.1,19.26l53.23,28.08L436.94-58.06Z" transform="translate(-142.83 97.68)" style="fill:#fff"/></g><g id="triangle36-74" data-name="triangle36"><path d="M600.53,273.72l-51.74,34.92,23.83-77.2,27.94,35.95v-.76L572.72,230.8a.25.25,0,0,0-.23-.09.23.23,0,0,0-.18.17l-24.16,78.26a.24.24,0,0,0,.08.26.23.23,0,0,0,.14,0,.22.22,0,0,0,.13,0l52-35.12Z" transform="translate(-142.83 97.68)" style="fill:#fff"/></g><g id="triangle36-75" data-name="triangle36"><path d="M600.28,321.86l-51.34-12.75,51.58-34.83v-.56L548.24,309a.24.24,0,0,0,.07.43l52,12.9Z" transform="translate(-142.83 97.68)" style="fill:#fff"/></g><g id="triangle36-76" data-name="triangle36"><path d="M600.56,266.63l-27.34-35.18,27.47,10.23v-.5l-28.08-10.46a.24.24,0,0,0-.27.09.23.23,0,0,0,0,.28l28.21,36.3Z" transform="translate(-142.83 97.68)" style="fill:#fff"/></g><path d="M561.24-96.74a2.45,2.45,0,0,0-2.46,2.44,2.46,2.46,0,0,0,2.44,2.46,2.46,2.46,0,0,0,2.46-2.44A2.46,2.46,0,0,0,561.24-96.74Z" transform="translate(-142.83 97.68)" style="fill:#fff"/><path d="M561.24-96.74a2.46,2.46,0,0,1,2.44,2.46,2.46,2.46,0,0,1-2.46,2.44,2.46,2.46,0,0,1-2.44-2.46,2.45,2.45,0,0,1,2.46-2.44m0-.94a3.39,3.39,0,0,0-3.41,3.37,3.39,3.39,0,0,0,3.37,3.4,3.39,3.39,0,0,0,3.41-3.36,3.41,3.41,0,0,0-3.37-3.41Z" transform="translate(-142.83 97.68)" style="fill:#fff"/><path d="M177.15,302.78a1.51,1.51,0,1,0,1.5,1.52A1.51,1.51,0,0,0,177.15,302.78Z" transform="translate(-142.83 97.68)" style="fill:#fff"/><path d="M177.15,302.78a1.51,1.51,0,1,1-1.52,1.5,1.51,1.51,0,0,1,1.52-1.5m0-.94a2.45,2.45,0,1,0,2.44,2.46,2.45,2.45,0,0,0-2.44-2.46Z" transform="translate(-142.83 97.68)" style="fill:#fff"/><path d="M205.45,320.25a2.1,2.1,0,1,0,2.08,2.11A2.1,2.1,0,0,0,205.45,320.25Z" transform="translate(-142.83 97.68)" style="fill:#fff"/><path d="M205.45,320.25a2.1,2.1,0,1,1-2.1,2.08,2.1,2.1,0,0,1,2.1-2.08m0-.93a3,3,0,1,0,3,3,3,3,0,0,0-3-3Z" transform="translate(-142.83 97.68)" style="fill:#fff"/><path d="M590.93,72.45a1.82,1.82,0,1,0,1.81,1.82A1.81,1.81,0,0,0,590.93,72.45Z" transform="translate(-142.83 97.68)" style="fill:#fff"/><path d="M590.93,72.45a1.82,1.82,0,1,1-1.82,1.81,1.82,1.82,0,0,1,1.82-1.81m0-.94a2.76,2.76,0,1,0,2.73,2.77,2.76,2.76,0,0,0-2.73-2.77Z" transform="translate(-142.83 97.68)" style="fill:#fff"/><circle cx="327.81" cy="217.85" r="3.11" style="fill:#fff"/><path d="M470.65,117.06a3.11,3.11,0,1,1-3.12,3.1,3.12,3.12,0,0,1,3.12-3.1m0-.94a4.05,4.05,0,1,0,4,4.07,4.06,4.06,0,0,0-4-4.07Z" transform="translate(-142.83 97.68)" style="fill:#fff"/><path d="M513.11,101.78a1.33,1.33,0,1,0-2.66,0,1.33,1.33,0,0,0,2.66,0Z" transform="translate(-142.83 97.68)" style="fill:#fff"/><path d="M511.78,100.44a1.34,1.34,0,0,1,1.33,1.34,1.33,1.33,0,1,1-1.33-1.34m0-.94a2.27,2.27,0,1,0,2.26,2.28,2.27,2.27,0,0,0-2.26-2.28Z" transform="translate(-142.83 97.68)" style="fill:#fff"/><path d="M545.88,72.21a3.06,3.06,0,1,0-3-3.08A3,3,0,0,0,545.88,72.21Z" transform="translate(-142.83 97.68)" style="fill:#fff"/><path d="M545.91,66.09a3.06,3.06,0,1,1-3.08,3,3.05,3.05,0,0,1,3.08-3m0-.94a4,4,0,1,0,4,4,4,4,0,0,0-4-4Z" transform="translate(-142.83 97.68)" style="fill:#fff"/><path d="M547.64-80.4a1.92,1.92,0,0,0-1.9-1.93,1.91,1.91,0,0,0-1.92,1.91,1.91,1.91,0,0,0,1.9,1.92A1.91,1.91,0,0,0,547.64-80.4Z" transform="translate(-142.83 97.68)" style="fill:#fff"/><path d="M545.74-82.33a1.92,1.92,0,0,1,1.9,1.93,1.91,1.91,0,0,1-1.92,1.9,1.91,1.91,0,0,1-1.9-1.92,1.91,1.91,0,0,1,1.92-1.91m0-.94a2.86,2.86,0,0,0-2.86,2.84,2.86,2.86,0,0,0,2.83,2.87,2.86,2.86,0,0,0,2.87-2.84,2.86,2.86,0,0,0-2.84-2.87Z" transform="translate(-142.83 97.68)" style="fill:#fff"/><path d="M406.69,193.14a2.77,2.77,0,1,0,2.76,2.78A2.76,2.76,0,0,0,406.69,193.14Z" transform="translate(-142.83 97.68)" style="fill:#fff"/><path d="M406.69,193.14a2.77,2.77,0,1,1-2.78,2.75,2.78,2.78,0,0,1,2.78-2.75m0-.94a3.71,3.71,0,1,0,3.69,3.72,3.71,3.71,0,0,0-3.69-3.72Z" transform="translate(-142.83 97.68)" style="fill:#fff"/><path d="M449,302.6A2.38,2.38,0,1,0,451.4,305,2.39,2.39,0,0,0,449,302.6Z" transform="translate(-142.83 97.68)" style="fill:#fff"/><path d="M449,302.6a2.38,2.38,0,1,1-2.39,2.37A2.39,2.39,0,0,1,449,302.6m0-.94a3.32,3.32,0,1,0,3.29,3.34,3.32,3.32,0,0,0-3.29-3.34Z" transform="translate(-142.83 97.68)" style="fill:#fff"/><path d="M478.3,312.28a3.09,3.09,0,1,0,3.07,3.1A3.09,3.09,0,0,0,478.3,312.28Z" transform="translate(-142.83 97.68)" style="fill:#fff"/><path d="M478.3,312.28a3.09,3.09,0,1,1-3.1,3.07,3.09,3.09,0,0,1,3.1-3.07m0-.94a4,4,0,1,0,4,4,4,4,0,0,0-4-4Z" transform="translate(-142.83 97.68)" style="fill:#fff"/><path d="M492.18,253.23A1.73,1.73,0,1,0,493.9,255,1.73,1.73,0,0,0,492.18,253.23Z" transform="translate(-142.83 97.68)" style="fill:#fff"/><path d="M492.18,253.23a1.73,1.73,0,1,1,0,3.45,1.73,1.73,0,0,1,0-3.45m0-.94a2.67,2.67,0,1,0,2.65,2.68,2.67,2.67,0,0,0-2.65-2.68Z" transform="translate(-142.83 97.68)" style="fill:#fff"/><path d="M550.36,221.68a3.34,3.34,0,1,0,3.32,3.35A3.33,3.33,0,0,0,550.36,221.68Z" transform="translate(-142.83 97.68)" style="fill:#fff"/><path d="M550.36,221.68A3.34,3.34,0,1,1,547,225a3.34,3.34,0,0,1,3.36-3.32m0-.94a4.28,4.28,0,1,0,4.26,4.3,4.29,4.29,0,0,0-4.26-4.3Z" transform="translate(-142.83 97.68)" style="fill:#fff"/><path d="M145.15,283.45a1.36,1.36,0,0,0-1.38,1.36,1.38,1.38,0,1,0,1.38-1.36Z" transform="translate(-142.83 97.68)" style="fill:#fff"/><path d="M145.15,283.45a1.37,1.37,0,1,1-1.38,1.36,1.36,1.36,0,0,1,1.38-1.36m0-.94a2.31,2.31,0,1,0,2.3,2.32,2.31,2.31,0,0,0-2.3-2.32Z" transform="translate(-142.83 97.68)" style="fill:#fff"/><path d="M211.7,243.63a2.22,2.22,0,1,0,2.21,2.23A2.22,2.22,0,0,0,211.7,243.63Z" transform="translate(-142.83 97.68)" style="fill:#fff"/><path d="M211.7,243.63a2.22,2.22,0,1,1-2.23,2.21,2.21,2.21,0,0,1,2.23-2.21m0-.94a3.16,3.16,0,1,0,3.14,3.18,3.17,3.17,0,0,0-3.14-3.18Z" transform="translate(-142.83 97.68)" style="fill:#fff"/><path d="M341.72,104a1.35,1.35,0,0,0,0,2.69,1.35,1.35,0,0,0,0-2.69Z" transform="translate(-142.83 97.68)" style="fill:#fff"/><path d="M341.72,104a1.35,1.35,0,0,1,0,2.69,1.35,1.35,0,0,1,0-2.69m0-.94a2.28,2.28,0,1,0,2.27,2.3,2.29,2.29,0,0,0-2.27-2.3Z" transform="translate(-142.83 97.68)" style="fill:#fff"/><path d="M420.45,158.49a3.06,3.06,0,1,0,3,3.08A3.05,3.05,0,0,0,420.45,158.49Z" transform="translate(-142.83 97.68)" style="fill:#fff"/><path d="M420.45,158.49a3.06,3.06,0,1,1-3.07,3,3.06,3.06,0,0,1,3.07-3m0-.94a4,4,0,1,0,4,4,4,4,0,0,0-4-4Z" transform="translate(-142.83 97.68)" style="fill:#fff"/><path d="M360.83,170a1.53,1.53,0,1,0,0-3,1.53,1.53,0,0,0,0,3Z" transform="translate(-142.83 97.68)" style="fill:#fff"/><path d="M360.84,166.93a1.53,1.53,0,1,1-1.53,1.52,1.52,1.52,0,0,1,1.53-1.52m0-.94a2.47,2.47,0,1,0,2.45,2.48,2.48,2.48,0,0,0-2.45-2.48Z" transform="translate(-142.83 97.68)" style="fill:#fff"/><path d="M363.25,178.38a1.72,1.72,0,1,0,1.72,1.73A1.72,1.72,0,0,0,363.25,178.38Z" transform="translate(-142.83 97.68)" style="fill:#fff"/><path d="M363.25,178.38a1.72,1.72,0,1,1-1.73,1.71,1.72,1.72,0,0,1,1.73-1.71m0-.94a2.66,2.66,0,1,0,2.65,2.67,2.67,2.67,0,0,0-2.65-2.67Z" transform="translate(-142.83 97.68)" style="fill:#fff"/><path d="M390.61,199.36a1.35,1.35,0,0,0,0,2.7,1.35,1.35,0,1,0,0-2.7Z" transform="translate(-142.83 97.68)" style="fill:#fff"/><path d="M390.61,199.36a1.35,1.35,0,1,1-1.35,1.34,1.35,1.35,0,0,1,1.35-1.34m0-.94a2.29,2.29,0,1,0,2.28,2.3,2.29,2.29,0,0,0-2.28-2.3Z" transform="translate(-142.83 97.68)" style="fill:#fff"/><path d="M519.61,199a2.35,2.35,0,1,0,2.34,2.36A2.34,2.34,0,0,0,519.61,199Z" transform="translate(-142.83 97.68)" style="fill:#fff"/><path d="M519.61,199a2.35,2.35,0,1,1-2.35,2.33,2.35,2.35,0,0,1,2.35-2.33m0-.94a3.29,3.29,0,1,0,3.27,3.3,3.29,3.29,0,0,0-3.27-3.3Z" transform="translate(-142.83 97.68)" style="fill:#fff"/><path d="M546.05,98.79a2.7,2.7,0,1,0,2.68,2.71A2.69,2.69,0,0,0,546.05,98.79Z" transform="translate(-142.83 97.68)" style="fill:#fff"/><path d="M546.05,98.79a2.7,2.7,0,1,1-2.71,2.68,2.69,2.69,0,0,1,2.71-2.68m0-.94a3.64,3.64,0,1,0,3.62,3.65,3.64,3.64,0,0,0-3.62-3.65Z" transform="translate(-142.83 97.68)" style="fill:#fff"/><path d="M225.47,267.42a2.93,2.93,0,1,0,2.91,2.94A2.92,2.92,0,0,0,225.47,267.42Z" transform="translate(-142.83 97.68)" style="fill:#fff"/><path d="M225.47,267.42a2.93,2.93,0,1,1-2.94,2.91,2.92,2.92,0,0,1,2.94-2.91m0-.94a3.87,3.87,0,1,0,3.85,3.88,3.86,3.86,0,0,0-3.85-3.88Z" transform="translate(-142.83 97.68)" style="fill:#fff"/><path d="M254.46,237.7a1.68,1.68,0,0,0-1.67-1.7,1.69,1.69,0,1,0,0,3.37A1.67,1.67,0,0,0,254.46,237.7Z" transform="translate(-142.83 97.68)" style="fill:#fff"/><path d="M252.79,236a1.69,1.69,0,1,1-1.7,1.68,1.7,1.7,0,0,1,1.7-1.68m0-.94a2.63,2.63,0,1,0,2.61,2.64,2.63,2.63,0,0,0-2.61-2.64Z" transform="translate(-142.83 97.68)" style="fill:#fff"/><path d="M291.24,321.07a2.65,2.65,0,1,0,2.63,2.66A2.65,2.65,0,0,0,291.24,321.07Z" transform="translate(-142.83 97.68)" style="fill:#fff"/><path d="M291.24,321.07a2.65,2.65,0,1,1-2.66,2.63,2.63,2.63,0,0,1,2.66-2.63m0-.94a3.59,3.59,0,1,0,3.57,3.6,3.59,3.59,0,0,0-3.57-3.6Z" transform="translate(-142.83 97.68)" style="fill:#fff"/><path d="M306.8,234.73a2.77,2.77,0,1,0,2.75,2.78A2.76,2.76,0,0,0,306.8,234.73Z" transform="translate(-142.83 97.68)" style="fill:#fff"/><path d="M306.8,234.73a2.77,2.77,0,1,1-2.78,2.75,2.76,2.76,0,0,1,2.78-2.75m0-.94a3.71,3.71,0,1,0,3.68,3.73,3.71,3.71,0,0,0-3.68-3.73Z" transform="translate(-142.83 97.68)" style="fill:#fff"/><path d="M386.54,272.24a2.42,2.42,0,1,0,2.4,2.43A2.42,2.42,0,0,0,386.54,272.24Z" transform="translate(-142.83 97.68)" style="fill:#fff"/><path d="M386.54,272.24a2.42,2.42,0,1,1-2.43,2.4,2.41,2.41,0,0,1,2.43-2.4m0-.94a3.36,3.36,0,1,0,3.34,3.37,3.36,3.36,0,0,0-3.34-3.37Z" transform="translate(-142.83 97.68)" style="fill:#fff"/><path d="M319.88,210.9a1.78,1.78,0,1,0,1.77,1.78A1.79,1.79,0,0,0,319.88,210.9Z" transform="translate(-142.83 97.68)" style="fill:#fff"/><path d="M319.88,210.9a1.78,1.78,0,1,1-1.78,1.77,1.79,1.79,0,0,1,1.78-1.77m0-.94a2.72,2.72,0,1,0,2.7,2.73,2.73,2.73,0,0,0-2.7-2.73Z" transform="translate(-142.83 97.68)" style="fill:#fff"/><path d="M354.63,53.49a2.12,2.12,0,1,0,2.11,2.13A2.13,2.13,0,0,0,354.63,53.49Z" transform="translate(-142.83 97.68)" style="fill:#fff"/><path d="M354.63,53.49a2.12,2.12,0,1,1-2.13,2.11,2.12,2.12,0,0,1,2.13-2.11m0-.93a3.06,3.06,0,1,0,3,3.07,3,3,0,0,0-3-3.07Z" transform="translate(-142.83 97.68)" style="fill:#fff"/><path d="M408.86,70.37A1.57,1.57,0,1,0,410.43,72,1.56,1.56,0,0,0,408.86,70.37Z" transform="translate(-142.83 97.68)" style="fill:#fff"/><path d="M408.86,70.37a1.57,1.57,0,1,1-1.58,1.56,1.57,1.57,0,0,1,1.58-1.56m0-.94a2.51,2.51,0,1,0,2.5,2.52,2.51,2.51,0,0,0-2.5-2.52Z" transform="translate(-142.83 97.68)" style="fill:#fff"/><path d="M414.51-68.47A2.52,2.52,0,0,0,412-66a2.52,2.52,0,0,0,2.49,2.52A2.51,2.51,0,0,0,417-65.95,2.51,2.51,0,0,0,414.51-68.47Z" transform="translate(-142.83 97.68)" style="fill:#fff"/><path d="M414.51-68.47A2.51,2.51,0,0,1,417-65.95a2.51,2.51,0,0,1-2.52,2.49A2.52,2.52,0,0,1,412-66a2.52,2.52,0,0,1,2.52-2.49m0-.94A3.45,3.45,0,0,0,411.06-66a3.45,3.45,0,0,0,3.42,3.46,3.45,3.45,0,0,0,3.46-3.43,3.45,3.45,0,0,0-3.43-3.46Z" transform="translate(-142.83 97.68)" style="fill:#fff"/><path d="M408.8,22.76a3.39,3.39,0,1,0-3.37-3.41A3.38,3.38,0,0,0,408.8,22.76Z" transform="translate(-142.83 97.68)" style="fill:#fff"/><path d="M408.83,16a3.39,3.39,0,1,1-3.4,3.37,3.39,3.39,0,0,1,3.4-3.37m0-.94a4.33,4.33,0,1,0,4.3,4.35,4.33,4.33,0,0,0-4.3-4.35Z" transform="translate(-142.83 97.68)" style="fill:#fff"/><path d="M462.68,46.06a1.73,1.73,0,1,0,1.73,1.74A1.73,1.73,0,0,0,462.68,46.06Z" transform="translate(-142.83 97.68)" style="fill:#fff"/><path d="M462.68,46.06a1.73,1.73,0,1,1,0,3.46,1.73,1.73,0,0,1,0-3.46m0-.94a2.67,2.67,0,1,0,2.65,2.68,2.68,2.68,0,0,0-2.65-2.68Z" transform="translate(-142.83 97.68)" style="fill:#fff"/><path d="M437-60.79a1.91,1.91,0,0,0-1.93,1.91A1.91,1.91,0,0,0,437-56.95a1.91,1.91,0,0,0,1.93-1.91A1.91,1.91,0,0,0,437-60.79Z" transform="translate(-142.83 97.68)" style="fill:#fff"/><path d="M437-60.79a1.91,1.91,0,0,1,1.91,1.93A1.91,1.91,0,0,1,437-56.95a1.91,1.91,0,0,1-1.91-1.93A1.91,1.91,0,0,1,437-60.79m0-.94a2.86,2.86,0,0,0-2.87,2.84A2.87,2.87,0,0,0,437-56a2.87,2.87,0,0,0,2.88-2.85A2.85,2.85,0,0,0,437-61.73Z" transform="translate(-142.83 97.68)" style="fill:#fff"/><path d="M548.38,307.41a1.8,1.8,0,1,0,1.79,1.81A1.81,1.81,0,0,0,548.38,307.41Z" transform="translate(-142.83 97.68)" style="fill:#fff"/><path d="M548.38,307.41a1.8,1.8,0,1,1-1.81,1.79,1.81,1.81,0,0,1,1.81-1.79m0-.94a2.74,2.74,0,1,0,0,5.47,2.74,2.74,0,0,0,0-5.47Z" transform="translate(-142.83 97.68)" style="fill:#fff"/><circle cx="429.7" cy="328.62" r="2.24" style="fill:#fff"/><path d="M572.54,228.71a2.24,2.24,0,1,1-2.24,2.22,2.24,2.24,0,0,1,2.24-2.22m0-.94a3.18,3.18,0,1,0,3.16,3.19,3.18,3.18,0,0,0-3.16-3.19Z" transform="translate(-142.83 97.68)" style="fill:#fff"/></g></svg>