<svg xmlns="http://www.w3.org/2000/svg" viewBox="0 0 52 45.5"><defs><style>.cls-1{fill:#00a0dc;}</style></defs><title>fig12</title><g id="Layer_2" data-name="Layer 2"><g id="popups"><path class="cls-1" d="M47,3.12C41.42-1.59,33.14-.81,28,4.49L26,6.56,24,4.5C19.86.21,11.5-2.37,5.05,3.12a14.57,14.57,0,0,0-1,21.1L23.7,44.51a3.16,3.16,0,0,0,4.59,0L47.94,24.22A14.55,14.55,0,0,0,47,3.12ZM45.62,22,26,42.26,6.38,22A11.31,11.31,0,0,1,7.16,5.6C12.73.84,19.27,4.29,21.66,6.76L26,11.24l4.34-4.48c2.35-2.43,9-5.89,14.5-1.16A11.31,11.31,0,0,1,45.62,22Z"/></g></g></svg>