<svg xmlns="http://www.w3.org/2000/svg" viewBox="0 0 52 52"><defs><style>.cls-1{fill:#00a0dc;}</style></defs><title>fig11</title><g id="Layer_2" data-name="Layer 2"><g id="popups"><path class="cls-1" d="M30.59,40.09l-8,8A13.2,13.2,0,0,1,3.87,29.46l8-8,.36-.34a1.22,1.22,0,0,1,2.05.84,14.14,14.14,0,0,0,.13,1.46,1.23,1.23,0,0,1-.35,1L6.46,32A9.55,9.55,0,0,0,20,45.54l8-8,0,0a9.55,9.55,0,0,0-2.84-15.4,1.22,1.22,0,0,1-.73-1.19,6.42,6.42,0,0,1,.29-1.55,1.21,1.21,0,0,1,1.62-.74,13.4,13.4,0,0,1,4.21,2.83,13.24,13.24,0,0,1,0,18.68Zm-9.18-9.5a13.4,13.4,0,0,0,4.21,2.83,1.21,1.21,0,0,0,1.62-.74,6.42,6.42,0,0,0,.29-1.55,1.22,1.22,0,0,0-.73-1.19A9.55,9.55,0,0,1,24,14.54l0,0,8-8A9.55,9.55,0,0,1,45.54,20L37.9,27.6a1.23,1.23,0,0,0-.35,1c.06.48.11,1,.13,1.46a1.22,1.22,0,0,0,2,.84l.36-.34,8-8A13.2,13.2,0,0,0,29.46,3.87l-8,8a13.24,13.24,0,0,0,0,18.68Z"/></g></g></svg>