<?xml version="1.0" encoding="utf-8"?>
<!-- Generator: Adobe Illustrator 24.0.1, SVG Export Plug-In . SVG Version: 6.00 Build 0)  -->
<svg version="1.1" xmlns="http://www.w3.org/2000/svg" xmlns:xlink="http://www.w3.org/1999/xlink" x="0px" y="0px"
	 viewBox="0 0 192 261" style="enable-background:new 0 0 192 261;" xml:space="preserve">
<style type="text/css">
	.st0{fill:#7FD2FB;}
	.st1{clip-path:url(#SVGID_2_);}
	.st2{fill:#2A678B;}
	.st3{fill:#00A0DC;}
	.st4{fill:#81D3FB;}
</style>
<g id="Layer_2">
	<rect class="st0" width="192" height="261"/>
</g>
<g id="Layer_1">
	<title>Artboard 1</title>
	<g id="Layer_2_1_">
		<g id="Layer_2-2">
			<g>
				<defs>
					<rect id="SVGID_1_" width="192" height="261"/>
				</defs>
				<clipPath id="SVGID_2_">
					<use xlink:href="#SVGID_1_"  style="overflow:visible;"/>
				</clipPath>
				<g class="st1">
					<g id="Layer_2-3">
						<g id="working_files">
							<circle class="st2" cx="-48" cy="261" r="48"/>
							<circle class="st2" cx="144" cy="261" r="48"/>
							<circle class="st2" cx="48" cy="261" r="48"/>
							<circle class="st3" cx="96" cy="213" r="48"/>
							<path class="st4" d="M96,261c26.5,0,48-21.5,48-48C117.5,213,96,234.5,96,261z"/>
							<path class="st4" d="M96,261c0-26.5-21.5-48-48-48C48,239.5,69.5,261,96,261z"/>
							<circle class="st2" cx="48" cy="131" r="48"/>
							<circle class="st2" cx="-48" cy="131" r="48"/>
							<circle class="st3" cx="0" cy="179" r="48"/>
							<circle class="st3" cx="0" cy="83" r="48"/>
							<path class="st4" d="M0,131c0,26.5,21.5,48,48,48C48,152.5,26.5,131,0,131z"/>
							<path class="st4" d="M0,131c26.5,0,48-21.5,48-48C21.5,83,0,104.5,0,131z"/>
							<path class="st4" d="M0,131c0-26.5-21.5-48-48-48C-48,109.5-26.5,131,0,131z"/>
							<path class="st4" d="M0,131c-26.5,0-48,21.5-48,48C-21.5,179,0,157.5,0,131z"/>
							<circle class="st2" cx="144" cy="131" r="48"/>
							<circle class="st3" cx="192" cy="179" r="48"/>
							<circle class="st3" cx="192" cy="83" r="48"/>
							<path class="st4" d="M192,131c0-26.5-21.5-48-48-48C144,109.5,165.5,131,192,131z"/>
							<path class="st4" d="M192,131c-26.5,0-48,21.5-48,48C170.5,179,192,157.5,192,131z"/>
							<circle class="st2" cx="-48" cy="0" r="48"/>
							<circle class="st2" cx="144" cy="0" r="48"/>
							<circle class="st2" cx="48" cy="0" r="48"/>
							<circle class="st3" cx="96" cy="48" r="48"/>
							<path class="st4" d="M96,0c0,26.5,21.5,48,48,48C144,21.5,122.5,0,96,0z"/>
							<path class="st4" d="M96,0C69.5,0,48,21.5,48,48C74.5,48,96,26.5,96,0z"/>
						</g>
					</g>
				</g>
			</g>
		</g>
	</g>
</g>
</svg>
