<svg id="Layer_1" data-name="Layer 1" xmlns="http://www.w3.org/2000/svg" xmlns:xlink="http://www.w3.org/1999/xlink" viewBox="0 0 443 353"><defs><style>.cls-1{fill:none;}.cls-2{clip-path:url(#clip-path);}.cls-3{clip-path:url(#clip-path-2);}.cls-4{fill:#2a678b;}.cls-5{fill:#8bd7fb;}.cls-6{fill:#00a0dc;}.cls-7{fill:#86d5fb;}.cls-8{fill:#d0effd;}</style><clipPath id="clip-path"><rect class="cls-1" width="443" height="353"/></clipPath><clipPath id="clip-path-2"><rect class="cls-1" x="0.05" y="-178.2" width="885.83" height="1413.73"/></clipPath></defs><title>Artboard 1</title><g class="cls-2"><g class="cls-3"><path class="cls-4" d="M221.47,287.38C99.36,287.38,0,187.76,0,65.31V-131.22C0-253.67,99.36-353.3,221.47-353.3s221.44,99.63,221.44,222.08V65.31C442.91,187.76,343.57,287.38,221.47,287.38Z"/><path class="cls-5" d="M221.47,243.47c-98,0-177.67-79.92-177.67-178.16V-131.22c0-98.24,79.7-178.16,177.67-178.16s177.66,79.92,177.66,178.16V65.31C399.13,163.55,319.43,243.47,221.47,243.47Z"/><path class="cls-6" d="M221.47,199.56c-73.83,0-133.88-60.22-133.88-134.25V-131.22c0-74,60-134.25,133.88-134.25s133.87,60.22,133.87,134.25V65.31C355.34,139.34,295.28,199.56,221.47,199.56Z"/><path class="cls-7" d="M221.47,155.65c-49.68,0-90.1-40.53-90.1-90.34V-131.22c0-49.81,40.42-90.34,90.1-90.34s90.08,40.53,90.08,90.34V65.31C311.55,115.12,271.14,155.65,221.47,155.65Z"/><path class="cls-8" d="M267.76,65.31a46.37,46.37,0,0,1-46.29,46.43h0a46.37,46.37,0,0,1-46.31-46.43V-131.22a46.37,46.37,0,0,1,46.31-46.43h0a46.37,46.37,0,0,1,46.29,46.43Z"/><path class="cls-4" d="M443.47,462.88C321.36,462.88,222,363.26,222,240.81V44.28C222-78.17,321.36-177.8,443.47-177.8S664.91-78.17,664.91,44.28V240.81C664.91,363.26,565.57,462.88,443.47,462.88Z"/><path class="cls-5" d="M443.47,419c-98,0-177.67-79.92-177.67-178.16V44.28c0-98.24,79.7-178.17,177.67-178.17S621.13-54,621.13,44.28V240.81C621.13,339.05,541.43,419,443.47,419Z"/><path class="cls-6" d="M443.47,375.06c-73.83,0-133.88-60.22-133.88-134.25V44.28c0-74,60.05-134.26,133.88-134.26S577.34-29.75,577.34,44.28V240.81C577.34,314.84,517.28,375.06,443.47,375.06Z"/><path class="cls-7" d="M443.47,331.15c-49.68,0-90.1-40.53-90.1-90.34V44.28c0-49.82,40.42-90.35,90.1-90.35s90.08,40.53,90.08,90.35V240.81C533.55,290.62,493.14,331.15,443.47,331.15Z"/><path class="cls-8" d="M489.76,240.81a46.37,46.37,0,0,1-46.29,46.43h0a46.37,46.37,0,0,1-46.31-46.43V44.28A46.37,46.37,0,0,1,443.47-2.16h0a46.37,46.37,0,0,1,46.29,46.44Z"/><path class="cls-4" d="M.47,462.88C-121.64,462.88-221,363.26-221,240.81V44.28C-221-78.17-121.64-177.8.47-177.8S221.91-78.17,221.91,44.28V240.81C221.91,363.26,122.57,462.88.47,462.88Z"/><path class="cls-5" d="M.47,419c-98,0-177.67-79.92-177.67-178.16V44.28C-177.2-54-97.5-133.89.47-133.89S178.13-54,178.13,44.28V240.81C178.13,339.05,98.43,419,.47,419Z"/><path class="cls-6" d="M.47,375.06c-73.83,0-133.88-60.22-133.88-134.25V44.28C-133.41-29.75-73.36-90,.47-90S134.34-29.75,134.34,44.28V240.81C134.34,314.84,74.28,375.06.47,375.06Z"/><path class="cls-7" d="M.47,331.15c-49.68,0-90.1-40.53-90.1-90.34V44.28c0-49.82,40.42-90.35,90.1-90.35S90.55-5.54,90.55,44.28V240.81C90.55,290.62,50.14,331.15.47,331.15Z"/><path class="cls-8" d="M46.76,240.81A46.37,46.37,0,0,1,.47,287.24h0a46.37,46.37,0,0,1-46.31-46.43V44.28A46.37,46.37,0,0,1,.47-2.16h0A46.37,46.37,0,0,1,46.76,44.28Z"/><path class="cls-4" d="M221.47,640.38C99.36,640.38,0,540.76,0,418.31V221.78C0,99.33,99.36-.3,221.47-.3S442.91,99.33,442.91,221.78V418.31C442.91,540.76,343.57,640.38,221.47,640.38Z"/><path class="cls-5" d="M221.47,596.47c-98,0-177.67-79.92-177.67-178.16V221.78c0-98.24,79.7-178.16,177.67-178.16s177.66,79.92,177.66,178.16V418.31C399.13,516.55,319.43,596.47,221.47,596.47Z"/><path class="cls-6" d="M221.47,552.56c-73.83,0-133.88-60.22-133.88-134.25V221.78c0-74,60-134.25,133.88-134.25s133.87,60.22,133.87,134.25V418.31C355.34,492.34,295.28,552.56,221.47,552.56Z"/><path class="cls-7" d="M221.47,508.65c-49.68,0-90.1-40.53-90.1-90.34V221.78c0-49.81,40.42-90.34,90.1-90.34s90.08,40.53,90.08,90.34V418.31C311.55,468.12,271.14,508.65,221.47,508.65Z"/><path class="cls-8" d="M267.76,418.31a46.37,46.37,0,0,1-46.29,46.43h0a46.37,46.37,0,0,1-46.31-46.43V221.78a46.37,46.37,0,0,1,46.31-46.43h0a46.37,46.37,0,0,1,46.29,46.43Z"/><path class="cls-4" d="M443.47,815.88C321.36,815.88,222,716.26,222,593.81V397.28c0-122.45,99.35-222.08,221.46-222.08s221.44,99.63,221.44,222.08V593.81C664.91,716.26,565.57,815.88,443.47,815.88Z"/><path class="cls-5" d="M443.47,772c-98,0-177.67-79.92-177.67-178.16V397.28c0-98.24,79.7-178.17,177.67-178.17S621.13,299,621.13,397.28V593.81C621.13,692.05,541.43,772,443.47,772Z"/><path class="cls-6" d="M443.47,728.06c-73.83,0-133.88-60.22-133.88-134.25V397.28c0-74,60.05-134.26,133.88-134.26s133.87,60.23,133.87,134.26V593.81C577.34,667.84,517.28,728.06,443.47,728.06Z"/><path class="cls-7" d="M443.47,684.15c-49.68,0-90.1-40.53-90.1-90.34V397.28c0-49.82,40.42-90.35,90.1-90.35s90.08,40.53,90.08,90.35V593.81C533.55,643.62,493.14,684.15,443.47,684.15Z"/><path class="cls-8" d="M489.76,593.81a46.37,46.37,0,0,1-46.29,46.43h0a46.37,46.37,0,0,1-46.31-46.43V397.28a46.37,46.37,0,0,1,46.31-46.44h0a46.37,46.37,0,0,1,46.29,46.44Z"/><path class="cls-4" d="M.47,815.88C-121.64,815.88-221,716.26-221,593.81V397.28C-221,274.83-121.64,175.2.47,175.2s221.44,99.63,221.44,222.08V593.81C221.91,716.26,122.57,815.88.47,815.88Z"/><path class="cls-5" d="M.47,772c-98,0-177.67-79.92-177.67-178.16V397.28C-177.2,299-97.5,219.11.47,219.11S178.13,299,178.13,397.28V593.81C178.13,692.05,98.43,772,.47,772Z"/><path class="cls-6" d="M.47,728.06c-73.83,0-133.88-60.22-133.88-134.25V397.28c0-74,60.05-134.26,133.88-134.26s133.87,60.23,133.87,134.26V593.81C134.34,667.84,74.28,728.06.47,728.06Z"/><path class="cls-7" d="M.47,684.15c-49.68,0-90.1-40.53-90.1-90.34V397.28c0-49.82,40.42-90.35,90.1-90.35s90.08,40.53,90.08,90.35V593.81C90.55,643.62,50.14,684.15.47,684.15Z"/><path class="cls-8" d="M46.76,593.81A46.37,46.37,0,0,1,.47,640.24h0a46.37,46.37,0,0,1-46.31-46.43V397.28A46.37,46.37,0,0,1,.47,350.84h0a46.37,46.37,0,0,1,46.29,46.44Z"/><path class="cls-4" d="M221.47,993.38C99.36,993.38,0,893.76,0,771.31V574.78C0,452.33,99.36,352.7,221.47,352.7s221.44,99.63,221.44,222.08V771.31C442.91,893.76,343.57,993.38,221.47,993.38Z"/></g></g></svg>