<svg xmlns="http://www.w3.org/2000/svg" xmlns:xlink="http://www.w3.org/1999/xlink" viewBox="0 0 453.55 453.55"><defs><style>.cls-1{fill:none;}.cls-2{isolation:isolate;}.cls-3{clip-path:url(#clip-path);}.cls-4{fill:#f6bb6b;}.cls-5{fill:#f08e17;}.cls-6{fill:#643729;}.cls-7{fill:#7598b6;}.cls-8{fill:#e63300;}.cls-9{fill:#00a0dc;mix-blend-mode:color;}</style><clipPath id="clip-path"><rect class="cls-1" width="454" height="454"/></clipPath></defs><title>bg5_1</title><g class="cls-2"><g id="Layer_1" data-name="Layer 1"><g class="cls-3"><rect class="cls-4" y="-454" width="908" height="908"/><path class="cls-5" d="M0,113.49A113.5,113.5,0,0,0,113.5,0H0Z"/><path class="cls-6" d="M90.8,0H0v90.8A90.8,90.8,0,0,0,90.8,0Z"/><path class="cls-7" d="M68.1,0H0v68.1A68.1,68.1,0,0,0,68.1,0Z"/><path class="cls-4" d="M45.4,0H0v45.4A45.4,45.4,0,0,0,45.4,0Z"/><path class="cls-7" d="M227,113.49A113.49,113.49,0,0,0,340.5,0H227Z"/><path class="cls-6" d="M113.5,0A113.5,113.5,0,0,0,227,113.49V0Z"/><path class="cls-6" d="M227,90.79A90.8,90.8,0,0,0,317.8,0H227Z"/><path class="cls-7" d="M227,90.79V0H136.2A90.8,90.8,0,0,0,227,90.79Z"/><path class="cls-4" d="M158.9,0A68.1,68.1,0,0,0,227,68.09V0Z"/><path class="cls-8" d="M295.1,0H227v68.1A68.1,68.1,0,0,0,295.1,0Z"/><path class="cls-7" d="M227,45.39A45.39,45.39,0,0,0,272.4,0H227Z"/><path class="cls-8" d="M181.6,0A45.4,45.4,0,0,0,227,45.39V0Z"/><path class="cls-7" d="M0,113.49V227H113.5A113.51,113.51,0,0,0,0,113.49Z"/><path class="cls-6" d="M0,136.2V227H90.8A90.79,90.79,0,0,0,0,136.2Z"/><path class="cls-8" d="M68.1,227A68.09,68.09,0,0,0,0,158.9V227Z"/><path class="cls-6" d="M0,181.59V227H45.4A45.4,45.4,0,0,0,0,181.59Z"/><path class="cls-6" d="M340.5,227A113.5,113.5,0,0,0,227,113.49V227Z"/><path class="cls-7" d="M113.5,227H227V113.49A113.51,113.51,0,0,0,113.5,227Z"/><path class="cls-4" d="M317.8,227a90.8,90.8,0,0,0-90.8-90.8V227Z"/><path class="cls-8" d="M227,136.19A90.8,90.8,0,0,0,136.2,227H227Z"/><path class="cls-5" d="M227,158.9A68.09,68.09,0,0,0,158.9,227H227Z"/><path class="cls-8" d="M295.1,227A68.09,68.09,0,0,0,227,158.9V227Z"/><path class="cls-6" d="M272.4,227a45.4,45.4,0,0,0-45.4-45.4V227Z"/><path class="cls-6" d="M181.6,227H227v-45.4A45.4,45.4,0,0,0,181.6,227Z"/><path class="cls-7" d="M340.5,227A113.49,113.49,0,0,1,227,340.49V227Z"/><path class="cls-5" d="M227,340.49A113.5,113.5,0,0,1,113.5,227H227Z"/><path class="cls-8" d="M317.8,227a90.8,90.8,0,0,1-90.8,90.8V227Z"/><path class="cls-4" d="M136.2,227H227v90.8A90.8,90.8,0,0,1,136.2,227Z"/><path class="cls-6" d="M295.1,227a68.1,68.1,0,0,1-68.1,68.1V227Z"/><path class="cls-6" d="M158.9,227H227v68.1A68.1,68.1,0,0,1,158.9,227Z"/><path class="cls-7" d="M227,272.39A45.4,45.4,0,0,1,181.6,227H227Z"/><path class="cls-8" d="M272.4,227a45.4,45.4,0,0,1-45.4,45.4V227Z"/><path class="cls-6" d="M113.5,227A113.5,113.5,0,0,1,0,340.49V227Z"/><path class="cls-4" d="M0,317.79V227H90.8A90.8,90.8,0,0,1,0,317.79Z"/><path class="cls-7" d="M68.1,227A68.1,68.1,0,0,1,0,295.09V227Z"/><path class="cls-8" d="M45.4,227A45.4,45.4,0,0,1,0,272.39V227Z"/><path class="cls-6" d="M227,340.5A113.49,113.49,0,0,1,340.5,454H227Z"/><path class="cls-7" d="M227,340.5V454H113.5A113.5,113.5,0,0,1,227,340.5Z"/><path class="cls-8" d="M227,363.2A90.8,90.8,0,0,1,317.8,454H227Z"/><path class="cls-6" d="M136.2,454A90.8,90.8,0,0,1,227,363.2V454Z"/><path class="cls-4" d="M227,385.9A68.1,68.1,0,0,1,295.1,454H227Z"/><path class="cls-8" d="M158.9,454A68.1,68.1,0,0,1,227,385.9V454Z"/><path class="cls-6" d="M181.6,454A45.4,45.4,0,0,1,227,408.6V454Z"/><path class="cls-7" d="M272.4,454H227V408.6A45.4,45.4,0,0,1,272.4,454Z"/><path class="cls-5" d="M113.5,454H0V340.5A113.5,113.5,0,0,1,113.5,454Z"/><path class="cls-8" d="M0,363.2A90.8,90.8,0,0,1,90.8,454H0Z"/><path class="cls-7" d="M0,385.9A68.1,68.1,0,0,1,68.1,454H0Z"/><path class="cls-7" d="M340.5,0A113.5,113.5,0,0,0,454,113.49V0Z"/><path class="cls-5" d="M363.2,0A90.8,90.8,0,0,0,454,90.79V0Z"/><path class="cls-6" d="M385.9,0A68.1,68.1,0,0,0,454,68.09V0Z"/><path class="cls-8" d="M408.6,0A45.39,45.39,0,0,0,454,45.39V0Z"/><path class="cls-6" d="M454,113.49A113.51,113.51,0,0,0,340.5,227H454Z"/><path class="cls-8" d="M454,136.2A90.79,90.79,0,0,0,363.2,227H454Z"/><path class="cls-7" d="M454,158.9A68.09,68.09,0,0,0,385.9,227H454Z"/><path class="cls-6" d="M408.6,227H454v-45.4A45.4,45.4,0,0,0,408.6,227Z"/><path class="cls-7" d="M454,340.49A113.5,113.5,0,0,1,340.5,227H454Z"/><path class="cls-6" d="M454,317.79A90.8,90.8,0,0,1,363.2,227H454Z"/><path class="cls-8" d="M385.9,227H454v68.1A68.1,68.1,0,0,1,385.9,227Z"/><path class="cls-5" d="M454,272.39A45.39,45.39,0,0,1,408.6,227H454Z"/><path class="cls-6" d="M340.5,454A113.5,113.5,0,0,1,454,340.5V454Z"/><path class="cls-7" d="M363.2,454A90.8,90.8,0,0,1,454,363.2V454Z"/><path class="cls-8" d="M385.9,454A68.1,68.1,0,0,1,454,385.9V454Z"/><path class="cls-6" d="M408.6,454A45.39,45.39,0,0,1,454,408.6V454Z"/><path class="cls-6" d="M45.4,454H0V408.6A45.4,45.4,0,0,1,45.4,454Z"/><rect class="cls-9" x="-150.08" y="-550.01" width="2116.16" height="2008.02"/></g></g></g></svg>