<svg xmlns="http://www.w3.org/2000/svg" viewBox="0 0 65 52"><defs><style>.cls-1{fill:#00a0dc;}</style></defs><title>fig10</title><g id="Layer_2" data-name="Layer 2"><g id="popups"><path class="cls-1" d="M9.05,40.43l22,4.91a6.29,6.29,0,0,0,2.82,0l22-4.91a3.26,3.26,0,0,0,2.55-3.18V4a4,4,0,0,0-4-4h-.12C54.1,0,53.07.18,32.5,3.37,11.9.17,10.91,0,10.6,0h-.11a4,4,0,0,0-4,4V37.25A3.26,3.26,0,0,0,9.05,40.43Zm25.08-34,12-1.87C51.8,3.66,54,3.32,54.5,3.25h0a.76.76,0,0,1,.74.77V37.26L34.13,42ZM9.75,4A.76.76,0,0,1,10,3.47a.88.88,0,0,1,.54-.22c.54.08,2.72.41,8.35,1.29l12,1.87V42L9.75,37.25Zm53.63-.77a1.63,1.63,0,0,0-1.63,1.63V39a4.88,4.88,0,0,1-3.93,4.78l-25.32,5-25.31-5A4.87,4.87,0,0,1,3.25,39V4.88A1.63,1.63,0,1,0,0,4.88V39a8.14,8.14,0,0,0,6.56,8l25.63,5a1.62,1.62,0,0,0,.62,0l25.63-5A8.14,8.14,0,0,0,65,39V4.88A1.63,1.63,0,0,0,63.38,3.25Z"/></g></g></svg>