<svg xmlns="http://www.w3.org/2000/svg" viewBox="0 0 51.2 51.2"><defs><style>.cls-1{fill:#00a0dc;}</style></defs><title>fig4</title><g id="Layer_2" data-name="Layer 2"><g id="popups"><path class="cls-1" d="M41.6,3.2a9.53,9.53,0,0,0-5.77,2,12.71,12.71,0,0,0-20.46,0A9.55,9.55,0,0,0,0,12.8C0,17,6.4,35.2,6.4,35.2V48a3.2,3.2,0,0,0,3.2,3.2h32A3.2,3.2,0,0,0,44.8,48V35.2S51.2,17,51.2,12.8A9.6,9.6,0,0,0,41.6,3.2Zm0,44.8H9.6V38.4h32Zm0-12.8H37.19L38.4,20.13a.8.8,0,0,0-.73-.87l-1.6-.12H36a.8.8,0,0,0-.8.73L34,35.2H27.13V20a.8.8,0,0,0-.8-.8h-1.6a.8.8,0,0,0-.8.8V35.2H17.22L16,19.87a.8.8,0,0,0-.8-.74h-.06l-1.6.13a.8.8,0,0,0-.73.86L14,35.2H9.6S3.2,15.07,3.2,12.8A6.36,6.36,0,0,1,13.44,7.72l2.57,2,1.93-2.58a9.49,9.49,0,0,1,15.32,0l1.93,2.58,2.57-1.95A6.36,6.36,0,0,1,48,12.8C48,15.07,41.6,35.2,41.6,35.2Z"/></g></g></svg>