<svg xmlns="http://www.w3.org/2000/svg" viewBox="0 0 39 52"><defs><style>.cls-1{fill:#00a0dc;}</style></defs><title>fig6</title><g id="Layer_2" data-name="Layer 2"><g id="popups"><path class="cls-1" d="M19.5,0A19.5,19.5,0,0,0,0,19.5C0,27.36,2.74,29.56,17.5,51a2.43,2.43,0,0,0,4,0C36.26,29.56,39,27.36,39,19.5A19.5,19.5,0,0,0,19.5,0Zm0,48.13C5.27,27.56,3.25,26,3.25,19.5a16.25,16.25,0,0,1,32.5,0C35.75,26,33.78,27.49,19.5,48.13Zm9.09-37a4.64,4.64,0,0,0-2.86-1.4,4.47,4.47,0,0,0-3.57,1.28L12,21.13a1.68,1.68,0,0,0-.44.83l-1.25,6.17A1.63,1.63,0,0,0,12.2,30l6.22-1.23a1.7,1.7,0,0,0,.83-.45l10.06-10a4.65,4.65,0,0,0,1.41-2.85A4.39,4.39,0,0,0,29.43,12ZM17.3,25.73,14,26.39l.67-3.32L21,16.75l2.67,2.66ZM27.13,16,26,17.13,23.3,14.47l1.15-1.14a1.24,1.24,0,0,1,1.73,0l.95.95A1.2,1.2,0,0,1,27.13,16Z"/></g></g></svg>