<svg xmlns="http://www.w3.org/2000/svg" viewBox="0 0 65 52"><defs><style>.cls-1{fill:#00a0dc;}</style></defs><title>fig7</title><g id="Layer_2" data-name="Layer 2"><g id="popups"><path class="cls-1" d="M14.81,39.78a6.5,6.5,0,1,0-10.12,0A8.14,8.14,0,0,0,0,47.13v1.78A3.09,3.09,0,0,0,3.09,52H16.41a3.09,3.09,0,0,0,3.09-3.09V47.13a8.14,8.14,0,0,0-4.69-7.35ZM9.75,32.5A3.25,3.25,0,1,1,6.5,35.75,3.25,3.25,0,0,1,9.75,32.5ZM3.25,48.91V47.13a4.87,4.87,0,0,1,4.88-4.88h3.25a4.87,4.87,0,0,1,4.87,4.88l.16,1.62ZM14.81,10.53a6.5,6.5,0,1,0-10.12,0A8.14,8.14,0,0,0,0,17.88v1.78a3.09,3.09,0,0,0,3.09,3.09H16.41a3.09,3.09,0,0,0,3.09-3.09V17.88a8.14,8.14,0,0,0-4.69-7.35ZM9.75,3.25A3.25,3.25,0,1,1,6.5,6.5,3.25,3.25,0,0,1,9.75,3.25ZM3.25,19.66V17.88A4.87,4.87,0,0,1,8.13,13h3.25a4.87,4.87,0,0,1,4.87,4.88l.16,1.62ZM62.56,3.25H25.19a2.44,2.44,0,0,0-2.44,2.44V17.06a2.44,2.44,0,0,0,2.44,2.44H62.56A2.44,2.44,0,0,0,65,17.06V5.69A2.44,2.44,0,0,0,62.56,3.25Zm-13.81,13H26V6.5H48.75Zm13,0H52V6.5h9.75Zm.81,16.25H25.19a2.44,2.44,0,0,0-2.44,2.44V46.31a2.44,2.44,0,0,0,2.44,2.44H62.56A2.44,2.44,0,0,0,65,46.31V34.94A2.44,2.44,0,0,0,62.56,32.5ZM32.5,45.5H26V35.75h6.5Zm29.25,0h-26V35.75h26Z"/></g></g></svg>