<svg xmlns="http://www.w3.org/2000/svg" viewBox="0 0 45.5 45.5"><defs><style>.cls-1{fill:#00a0dc;}</style></defs><title>fig8</title><g id="Layer_2" data-name="Layer 2"><g id="popups"><path class="cls-1" d="M37.38,29.25A8.09,8.09,0,0,0,31,32.38L15.94,24.84a8,8,0,0,0,.31-2.09,8,8,0,0,0-.31-2.09L31,13.12a8.08,8.08,0,1,0-1.76-5,8.06,8.06,0,0,0,.31,2.09L14.49,17.75a8.13,8.13,0,1,0,0,10l15.07,7.53a8.11,8.11,0,1,0,7.82-6Zm0-26A4.88,4.88,0,1,1,32.5,8.13,4.88,4.88,0,0,1,37.38,3.25ZM8.13,27.63A4.88,4.88,0,1,1,13,22.75,4.89,4.89,0,0,1,8.13,27.63ZM37.38,42.25a4.88,4.88,0,1,1,4.87-4.87A4.88,4.88,0,0,1,37.38,42.25Z"/></g></g></svg>